<svg height='100px' width='100px'  fill="#000000" xmlns="http://www.w3.org/2000/svg" xmlns:xlink="http://www.w3.org/1999/xlink" version="1.1" x="0px" y="0px" viewBox="0 0 100 100" enable-background="new 0 0 100 100" xml:space="preserve"><path d="M79.047,42.987c0.374,0.314,0.984,0.283,1.331-0.056c0.323-0.315,0.393-0.887,0.141-1.269  c-0.055-0.082-1.324-2.056-0.338-4.882c0.384-1.102,1.172-2.005,1.934-2.878c0.965-1.105,1.962-2.248,2.149-3.797  c0.263-2.176-1.034-3.523-1.813-4.125c-0.025-2.591-2.291-3.835-2.394-3.89c-0.484-0.26-1.082-0.077-1.346,0.406  c-0.262,0.481-0.083,1.088,0.397,1.354c0.062,0.034,1.522,0.864,1.325,2.494c-0.117,0.97-0.851,1.821-1.699,2.809  c-0.813,0.945-1.736,2.018-2.274,3.417C74.56,37.503,77.321,41.541,79.047,42.987z M78.327,33.29  c0.414-1.076,1.182-1.969,1.924-2.831c0.596-0.692,1.202-1.4,1.628-2.205c0.272,0.402,0.482,0.934,0.399,1.612  c-0.113,0.938-0.835,1.765-1.67,2.723c-0.846,0.969-1.804,2.067-2.315,3.534c-0.148,0.425-0.252,0.834-0.329,1.231  C77.717,36.189,77.738,34.818,78.327,33.29z M62.543,66.354c1.977-0.504,2.83-1.936,3.172-2.791  c0.707-0.175,2.117-0.568,4.661-1.409c0.142,0.314,0.298,0.622,0.478,0.922c0.805,1.343,2.088,2.418,3.489,3.038v1.065  c0,1.138,0.925,2.063,2.063,2.063h6.021c1.138,0,2.063-0.926,2.063-2.063v-1.065c1.401-0.62,2.683-1.695,3.488-3.037  c0.33-0.55,0.59-1.127,0.799-1.719c0.192,0.037,0.387,0.063,0.587,0.063c0.568,0,1.16-0.15,1.75-0.453  c2.007-1.027,3.784-3.727,3.88-5.896c0.11-2.494-1.574-3.946-3.296-4.091c-0.392-0.034-0.802,0.009-1.2,0.126  c0.217-0.662,0.436-1.154,0.579-1.322c0.301-0.35,0.371-0.845,0.179-1.264c-0.191-0.419-0.614-0.689-1.076-0.689h-8.81L58.04,30.628  c-0.408-0.301-0.981-0.24-1.33,0.128c-0.019,0.021-1.998,2.069-8.494,4.112c-6.471,2.034-8.981,4.699-9.946,6.303l-0.207-0.153  c-0.001-0.001-0.003-0.001-0.005-0.002c-3.332-2.724-6.587-3.566-11.971-3.103c-0.99,0.085-2.159,0.249-3.513,0.438  c-4.899,0.686-11.608,1.623-16.177-0.358c-0.468-0.204-1.012-0.023-1.266,0.418c-0.253,0.441-0.136,1.003,0.274,1.305  c1.163,0.856,2.577,1.968,4.138,3.235l-2.245,0.458c-0.388,0.079-0.691,0.379-0.776,0.765s0.065,0.786,0.384,1.021  c1.116,0.821,2.426,1.85,3.848,3.005l-2.012,0.41c-0.388,0.078-0.692,0.378-0.777,0.765c-0.085,0.386,0.065,0.786,0.384,1.021  c8.147,5.996,24.684,22.266,24.85,22.429c0.191,0.188,0.445,0.288,0.702,0.288c0.14,0,0.281-0.029,0.414-0.09  c0.086-0.039,8.703-3.917,23.383-7.327C58.41,66.288,59.896,67.033,62.543,66.354z M82.428,67.242l-6.084-0.063v-0.519  c0.03,0.003,0.06,0.011,0.09,0.014c0.06,0.011,0.121,0.017,0.184,0.017h5.6c0.063,0,0.123-0.006,0.183-0.017  c0.017-0.001,0.035-0.006,0.052-0.008L82.428,67.242z M91.532,52.973c0.745,0.063,1.522,0.719,1.465,2.011  c-0.064,1.459-1.422,3.501-2.793,4.203c-0.386,0.198-0.684,0.243-0.912,0.228c0.18-0.947,0.277-1.902,0.352-2.824  c0.286-0.02,0.566-0.125,0.795-0.327c0.402-0.353,0.546-0.894,0.366-1.378c-0.078-0.21-0.255-0.508-0.652-0.708  C90.38,52.974,91.262,52.956,91.532,52.973z M87.932,53.338c-0.101,0.705-0.157,1.468-0.218,2.274  c-0.161,2.152-0.343,4.592-1.449,6.435c-1.04,1.735-2.942,2.643-4.283,2.643h-5.128c-1.341,0-3.243-0.907-4.284-2.643  c-0.764-1.273-1.083-2.831-1.263-4.382c0-0.004,0.001-0.007,0.001-0.01c0-0.004-0.003-0.007-0.004-0.011  c-0.079-0.687-0.357-3.996-0.401-4.305c-0.159-1.112-0.49-2.462-0.9-3.506h18.828C88.42,50.877,88.09,52.227,87.932,53.338z   M48.815,36.776c5.024-1.58,7.58-3.207,8.682-4.064l20.504,15.12h-9.346c-0.461,0-0.883,0.27-1.076,0.688  c-0.192,0.417-0.124,0.912,0.176,1.264c0.288,0.335,0.875,1.954,1.143,3.68c-4.19,0.526-6.8,2.787-8.123,4.331L39.901,42.376  C40.523,41.268,42.562,38.743,48.815,36.776z M22.852,40.332c1.326-0.186,2.471-0.346,3.408-0.427  c4.943-0.421,7.612,0.254,10.575,2.69c0.007,0.006,0.016,0.007,0.023,0.012c0.007,0.006,0.01,0.014,0.018,0.02l1.196,0.884  c0.015,0.011,0.029,0.023,0.045,0.033l18.954,14.002c-2.876-0.348-5.571,0.622-8.907,1.825c-1.322,0.478-2.821,1.018-4.472,1.522  c-4.964,1.517-7.721,1.61-8.581,1.591c-2.085-1.879-16.016-14.399-24.774-21.468C14.545,41.493,19.184,40.845,22.852,40.332z   M34.123,70.926c-2.635-2.58-15.002-14.612-22.826-20.796l1.447-0.295c8.871,7.387,20.646,18.214,20.793,18.35  c0.186,0.171,0.428,0.265,0.678,0.265c0.021,0,0.044-0.001,0.065-0.002c3.301-0.218,8.109-1.705,12.759-3.143  c4.191-1.296,10.516-3.252,11.493-2.498c0.346,0.423,0.969,0.491,1.396,0.148c0.432-0.345,0.503-0.974,0.159-1.405  c-1.449-1.821-5.675-0.617-13.64,1.844c-4.337,1.342-8.814,2.727-11.879,3.023C32.246,64.288,18.006,51.28,9.861,44.926l1.675-0.342  c9.37,7.767,22.334,19.475,22.497,19.622c0.153,0.138,0.346,0.226,0.551,0.251c0.033,0.004,0.265,0.029,0.707,0.029  c1.245,0,4.156-0.205,8.985-1.681c1.698-0.519,3.223-1.068,4.566-1.553c4.636-1.674,7.438-2.682,11.271-0.621  c0.465,0.245,1.09,0.064,1.345-0.398c0.024-0.043,2.32-4.086,7.643-4.782c0.008,0.105,0.017,0.203,0.025,0.31  c0.028,0.372,0.058,0.753,0.091,1.138c-3.568,0.594-6.957,2.337-7.536,3.97c-0.201,0.566-0.082,1.145,0.319,1.546  c0.195,0.195,0.451,0.293,0.707,0.293s0.512-0.098,0.707-0.293c0.276-0.275,0.357-0.673,0.243-1.02  c0.519-0.657,2.734-1.985,5.798-2.503c0.073,0.458,0.161,0.915,0.274,1.368c-3.797,1.257-4.944,1.462-4.95,1.463  c-0.416,0.067-0.745,0.388-0.823,0.802c-0.003,0.015-0.298,1.479-1.908,1.891c-2.438,0.623-3.161-0.331-3.17-0.34  c-0.224-0.37-0.655-0.56-1.08-0.459C44.876,66.579,36.425,69.954,34.123,70.926z M93,70.073H65.77c-0.553,0-1,0.447-1,1s0.447,1,1,1  H93c0.553,0,1-0.447,1-1S93.553,70.073,93,70.073z M64.939,74.573H51.204c-0.553,0-1,0.447-1,1s0.447,1,1,1h13.735  c0.553,0,1-0.447,1-1S65.492,74.573,64.939,74.573z M74.398,74.573h-4.323c-0.553,0-1,0.447-1,1s0.447,1,1,1h4.323  c0.553,0,1-0.447,1-1S74.951,74.573,74.398,74.573z"></path></svg>