<svg height='100px' width='100px'  fill="#000000" xmlns="http://www.w3.org/2000/svg" xmlns:xlink="http://www.w3.org/1999/xlink" version="1.1" x="0px" y="0px" viewBox="0 0 48 48" enable-background="new 0 0 48 48" xml:space="preserve"><g><polyline fill="none" stroke="#000000" stroke-width="2" stroke-linejoin="round" stroke-miterlimit="10" points="36.3,47 24,20    11.7,47  "></polyline><g><polyline fill="none" stroke="#000000" stroke-width="2" stroke-linejoin="round" stroke-miterlimit="10" points="27.9,28.8     16.3,37.2 35.7,46.1   "></polyline><polyline fill="none" stroke="#000000" stroke-width="2" stroke-linejoin="round" stroke-miterlimit="10" points="20.1,28.8     31.7,37.2 12.3,46.1   "></polyline></g><circle fill="none" stroke="#000000" stroke-width="2" stroke-miterlimit="10" cx="24" cy="17" r="2.7"></circle><path fill="none" stroke="#000000" stroke-width="2" stroke-miterlimit="10" d="M18.9,22.2c-2.8-2.8-2.8-7.5,0-10.3s7.5-2.8,10.3,0   s2.8,7.5,0,10.3"></path><path fill="none" stroke="#000000" stroke-width="2" stroke-miterlimit="10" d="M15.8,25.2c-4.5-4.5-4.5-11.9,0-16.4   s11.9-4.5,16.4,0s4.5,11.9,0,16.4"></path><path fill="none" stroke="#000000" stroke-width="2" stroke-miterlimit="10" d="M12.7,28.4c-6.3-6.3-6.3-16.4,0-22.7   s16.4-6.3,22.7,0s6.3,16.4,0,22.7"></path></g></svg>