<svg height='100px' width='100px'  fill="#000000" xmlns="http://www.w3.org/2000/svg" data-name="Layer 1" viewBox="0 0 100 100" x="0px" y="0px"><title>Artboard 17</title><path d="M65.56,39.15a13.92,13.92,0,0,0-17.27.92c-1,.86-1.95,1.83-2.93,2.9a103.91,103.91,0,0,1-8.9,8.62,2.5,2.5,0,0,0,3.25,3.8,109.13,109.13,0,0,0,9.33-9c.87-.95,1.74-1.8,2.58-2.56a8.94,8.94,0,0,1,11.09-.54,2.5,2.5,0,0,0,2.85-4.11Z"></path><path d="M95.6,10A10.65,10.65,0,0,0,75.41,6.52l-10.15,21a24.13,24.13,0,0,0-23.91,4.82c-1.21,1.08-2.44,2.3-3.64,3.6-10.36,11.24-19,16-24.64,17.94a5.22,5.22,0,0,0-3.22,2.08C5.39,62.39,19,74.6,25.92,80.16a9.15,9.15,0,0,0,7.63,14.19,9.28,9.28,0,0,0,1.64-.15,9.09,9.09,0,0,0,5.75-3.6c5.65,3.36,16,8.91,22.85,8.91,2.36,0,4.29-.67,5.44-2.33a5.1,5.1,0,0,0,.87-2.88s0-.08,0-.13,0-.17,0-.26v0c-.19-5.92,1.11-15.82,8.2-29.77.8-1.58,1.51-3.15,2.1-4.67a24.13,24.13,0,0,0-3.83-24.08L92.7,18.52A10.63,10.63,0,0,0,95.6,10ZM14,58.84l.76-.26c3.1-.39,13,2.8,26.19,11.6l-4.4,6.33a9.07,9.07,0,0,0-4.6-.35,9.2,9.2,0,0,0-2.15.67C18.06,67.57,13.69,60.6,14,58.84ZM34.3,89.27a4.16,4.16,0,0,1-4.15-6.46h0a4.13,4.13,0,0,1,2.68-1.72,4.2,4.2,0,0,1,.75-.07,4.16,4.16,0,0,1,.73,8.25Zm8.39-3.47a9.18,9.18,0,0,0-2-6.42L45,73c11.75,8.49,18.9,16.63,20,20.5a3,3,0,0,1,.11.56c0,.06,0,.13,0,.2v0C63.64,95.25,55.56,93.61,42.68,85.8ZM75.75,57.62c-.53,1.37-1.17,2.79-1.9,4.23a80.73,80.73,0,0,0-8.09,23.28c-4.23-5.35-11.28-11.66-19.9-17.65C39.5,63.06,30.17,57.53,22.45,55a80.77,80.77,0,0,0,19-15.69c1.09-1.19,2.2-2.28,3.3-3.26A19.49,19.49,0,0,1,75.75,57.62ZM89.09,15.06,73,31.81c-.5-.41-1-.81-1.57-1.19s-1.1-.72-1.66-1.05L79.92,8.69a5.65,5.65,0,1,1,9.17,6.37Z"></path><path d="M91.8,85.67a2.5,2.5,0,0,0,.72-4.9l-6.11-1.83A2.5,2.5,0,0,0,85,83.73l6.11,1.83A2.49,2.49,0,0,0,91.8,85.67Z"></path><path d="M76.76,88.63a2.5,2.5,0,0,0-.14,3.53L81.1,97a2.5,2.5,0,1,0,3.67-3.4L80.3,88.76A2.5,2.5,0,0,0,76.76,88.63Z"></path><path d="M84.69,72.24a2.47,2.47,0,0,0,.6-.07l6.4-1.57a2.5,2.5,0,1,0-1.19-4.86l-6.4,1.57a2.5,2.5,0,0,0,.59,4.93Z"></path><path d="M19,37.48a2.5,2.5,0,0,0,2-4L17.1,28.39a2.5,2.5,0,0,0-4,3L17,36.49A2.49,2.49,0,0,0,19,37.48Z"></path><path d="M4.53,41.49a2.5,2.5,0,0,0,1.36,3.26L12,47.26a2.5,2.5,0,0,0,1.9-4.62L7.8,40.13A2.5,2.5,0,0,0,4.53,41.49Z"></path><path d="M30.18,34.38l.29,0a2.5,2.5,0,0,0,2.19-2.77L31.9,25a2.5,2.5,0,1,0-5,.58l.76,6.54A2.5,2.5,0,0,0,30.18,34.38Z"></path></svg>