<svg height='100px' width='100px'  fill="#000000" xmlns="http://www.w3.org/2000/svg" xmlns:xlink="http://www.w3.org/1999/xlink" version="1.1" x="0px" y="0px" viewBox="0 0 100 100" style="enable-background:new 0 0 100 100;" xml:space="preserve"><path d="M92.3,91.1c0.4-0.9,0.3-1.9-0.3-2.7L52.5,39.1v-6.6H90c1,0,1.9-0.6,2.3-1.5c0.4-0.9,0.2-2-0.5-2.7L83.5,20l8.2-8.2  C92.5,11,92.7,10,92.3,9C91.9,8.1,91,7.5,90,7.5H50c-1.4,0-2.5,1.1-2.5,2.5v20v9.1L32,58.5l0,0l-24,30c-0.6,0.8-0.7,1.8-0.3,2.7  C8.2,92,9,92.5,10,92.5h80C91,92.5,91.8,92,92.3,91.1z M50,44l12.3,15.4L50,67.1l-12.3-7.7L50,44z M78.2,18.2c-1,1-1,2.6,0,3.5  l5.7,5.7H52.5v-15H84L78.2,18.2z M15.2,87.5l19.4-24.2l14.1,8.8c0.4,0.3,0.9,0.4,1.3,0.4c0.5,0,0.9-0.1,1.3-0.4l14.1-8.8l19.3,24.2  H15.2z"></path></svg>