<svg height='100px' width='100px'  fill="#000000" xmlns="http://www.w3.org/2000/svg" xmlns:xlink="http://www.w3.org/1999/xlink" version="1.1" x="0px" y="0px" viewBox="0 0 60 60" style="enable-background:new 0 0 60 60;" xml:space="preserve"><path d="M54,44.21h-6.71v-2H52c0.55,0,1-0.45,1-1c0-11.52-8.52-21.09-19.59-22.74v-2.25h3.71c0.55,0,1-0.45,1-1  c0-2.99-2.43-5.42-5.42-5.42h-5.42c-2.99,0-5.42,2.43-5.42,5.42c0,0.55,0.45,1,1,1h3.72v2.25C15.52,20.11,7,29.68,7,41.21  c0,0.55,0.45,1,1,1h4.71v2H6c-0.55,0-1,0.45-1,1v4c0,0.55,0.45,1,1,1h48c0.55,0,1-0.45,1-1v-4C55,44.66,54.55,44.21,54,44.21z   M27.29,11.79h5.42c1.54,0,2.84,1.02,3.27,2.42h-3.57h-4.82h-3.57C24.46,12.81,25.76,11.79,27.29,11.79z M28.59,16.21h2.82v2.05  c-0.47-0.03-0.94-0.05-1.41-0.05c-0.47,0-0.94,0.02-1.41,0.05V16.21z M30,20.21c11.24,0,20.45,8.88,20.98,20h-4.69H13.71H9.02  C9.55,29.09,18.76,20.21,30,20.21z M14.71,42.21h30.57v2H14.71V42.21z M53,48.21H7v-2h6.71h32.57H53V48.21z"></path><path d="M52.76,20.18c0.2,0.21,0.47,0.32,0.73,0.32c0.24,0,0.49-0.09,0.68-0.27c0.41-0.38,0.43-1.01,0.06-1.41  c-3.47-3.75-7.81-6.68-12.56-8.48c-0.51-0.2-1.09,0.06-1.29,0.58c-0.2,0.52,0.06,1.09,0.58,1.29C45.42,13.9,49.5,16.66,52.76,20.18z  "></path><path d="M41.6,16.81c-0.26,0.49-0.07,1.09,0.42,1.35c2.18,1.14,4.18,2.59,5.97,4.29c0.19,0.19,0.44,0.28,0.69,0.28  c0.26,0,0.53-0.1,0.72-0.31c0.38-0.4,0.37-1.03-0.03-1.41c-1.92-1.84-4.08-3.39-6.42-4.62C42.46,16.13,41.86,16.32,41.6,16.81z"></path><path d="M5.77,18.82c-0.38,0.41-0.35,1.04,0.06,1.41c0.19,0.18,0.44,0.27,0.68,0.27c0.27,0,0.54-0.11,0.73-0.32  c3.26-3.52,7.34-6.28,11.8-7.97c0.52-0.2,0.78-0.77,0.58-1.29c-0.2-0.52-0.78-0.78-1.29-0.58C13.58,12.14,9.24,15.07,5.77,18.82z"></path><path d="M17.05,16.39c-2.35,1.23-4.51,2.78-6.42,4.62c-0.4,0.38-0.41,1.02-0.03,1.41c0.2,0.2,0.46,0.31,0.72,0.31  c0.25,0,0.5-0.09,0.69-0.28c1.78-1.71,3.79-3.15,5.97-4.29c0.49-0.26,0.68-0.86,0.42-1.35S17.54,16.13,17.05,16.39z"></path><path d="M30,24.21c0.55,0,1-0.45,1-1s-0.45-1-1-1c-8.79,0-16.58,6.21-18.53,14.78c-0.12,0.54,0.21,1.07,0.75,1.2  c0.07,0.02,0.15,0.03,0.22,0.03c0.46,0,0.87-0.31,0.97-0.78C15.17,29.77,22.14,24.21,30,24.21z"></path></svg>