<svg height='100px' width='100px'  fill="#000000" xmlns="http://www.w3.org/2000/svg" xmlns:xlink="http://www.w3.org/1999/xlink" version="1.1" x="0px" y="0px" viewBox="0 0 48 48" enable-background="new 0 0 48 48" xml:space="preserve"><g><path d="M44.12,8.02h-40c-0.553,0-1,0.447-1,1v30c0,0.553,0.447,1,1,1h40c0.553,0,1-0.447,1-1v-30   C45.12,8.467,44.673,8.02,44.12,8.02z M43.12,38.02h-38v-28h38V38.02z"></path><path d="M22.656,33.59c-0.155,0.374-0.069,0.804,0.217,1.09c0.287,0.287,0.717,0.373,1.09,0.217l2.338-0.968l0.976,2.339   c0.155,0.373,0.52,0.615,0.923,0.615H28.2c0.404-0.001,0.769-0.244,0.923-0.617l2.55-6.162c0.103,0.006,0.203,0.029,0.307,0.029   c0.093,0,0.177-0.021,0.269-0.026l2.548,6.159c0.154,0.373,0.519,0.616,0.922,0.617c0.001,0,0.001,0,0.002,0   c0.403,0,0.768-0.242,0.923-0.615l0.977-2.339l2.338,0.968c0.128,0.054,0.272,0.088,0.395,0.076c0.572,0.018,1.008-0.444,1.008-1   c0-0.204-0.061-0.395-0.166-0.553l-3.346-8.094c0.08-0.396,0.132-0.789,0.132-1.193c0-3.309-2.691-6-6-6s-6,2.691-6,6   c0,0.403,0.049,0.777,0.121,1.137L22.656,33.59z M28.195,33.276l-0.433-1.038c-0.16-0.384-0.531-0.615-0.923-0.615   c-0.128,0-0.258,0.024-0.383,0.076l-1.03,0.427l1.797-4.341c0.013,0.017,0.027,0.03,0.04,0.046   c0.067,0.086,0.145,0.164,0.216,0.246c0.106,0.121,0.212,0.242,0.328,0.354c0.083,0.08,0.172,0.152,0.26,0.229   c0.117,0.102,0.234,0.203,0.36,0.295c0.095,0.071,0.195,0.134,0.295,0.198c0.128,0.083,0.256,0.165,0.391,0.239   c0.107,0.059,0.218,0.11,0.329,0.162c0.082,0.039,0.159,0.086,0.243,0.121L28.195,33.276z M37.463,31.699   c-0.507-0.211-1.093,0.029-1.306,0.539l-0.434,1.038l-1.484-3.588c0.082-0.033,0.158-0.079,0.238-0.116   c0.106-0.049,0.211-0.098,0.314-0.152c0.138-0.073,0.271-0.154,0.402-0.238c0.097-0.063,0.193-0.122,0.286-0.189   c0.129-0.094,0.251-0.195,0.372-0.299c0.085-0.071,0.17-0.141,0.251-0.217c0.12-0.114,0.231-0.238,0.343-0.363   c0.069-0.077,0.142-0.15,0.206-0.231c0.019-0.023,0.041-0.043,0.06-0.066l1.782,4.311L37.463,31.699z M31.979,20.133   c2.206,0,4,1.794,4,4c0,0.353-0.045,0.694-0.135,1.038c-0.404,1.486-1.633,2.62-3.15,2.892c-0.493,0.097-0.995,0.09-1.474-0.001   c-1.515-0.295-2.736-1.446-3.117-2.954c-0.083-0.304-0.124-0.622-0.124-0.975C27.979,21.927,29.773,20.133,31.979,20.133z"></path><path d="M9.5,17.167h15.417c0.553,0,1-0.447,1-1s-0.447-1-1-1H9.5c-0.553,0-1,0.447-1,1S8.947,17.167,9.5,17.167z"></path><path d="M9.5,22.167h15.417c0.553,0,1-0.447,1-1s-0.447-1-1-1H9.5c-0.553,0-1,0.447-1,1S8.947,22.167,9.5,22.167z"></path><path d="M9.5,27.167h13.417c0.553,0,1-0.447,1-1s-0.447-1-1-1H9.5c-0.553,0-1,0.447-1,1S8.947,27.167,9.5,27.167z"></path><path d="M9.5,32.167h11.417c0.553,0,1-0.447,1-1s-0.447-1-1-1H9.5c-0.553,0-1,0.447-1,1S8.947,32.167,9.5,32.167z"></path></g></svg>