<svg height='100px' width='100px'  fill="#000000" xmlns="http://www.w3.org/2000/svg" xmlns:xlink="http://www.w3.org/1999/xlink" version="1.1" x="0px" y="0px" viewBox="0 0 100 100" style="enable-background:new 0 0 100 100;" xml:space="preserve"><path d="M32,67c0-5.51-4.49-10-10-10s-10,4.49-10,10s4.49,10,10,10S32,72.51,32,67z M22,73c-3.31,0-6-2.69-6-6s2.69-6,6-6  s6,2.69,6,6S25.31,73,22,73z M60,67c0-5.51-4.49-10-10-10c-5.51,0-10,4.49-10,10s4.49,10,10,10C55.51,77,60,72.51,60,67z M50,73  c-3.31,0-6-2.69-6-6s2.69-6,6-6s6,2.69,6,6S53.31,73,50,73z M60,25c0-5.51-4.49-10-10-10c-5.51,0-10,4.49-10,10s4.49,10,10,10  C55.51,35,60,30.51,60,25z M50,31c-3.31,0-6-2.69-6-6s2.69-6,6-6s6,2.69,6,6S53.31,31,50,31z M88,67c0-5.51-4.49-10-10-10  s-10,4.49-10,10s4.49,10,10,10S88,72.51,88,67z M78,73c-3.31,0-6-2.69-6-6s2.69-6,6-6s6,2.69,6,6S81.31,73,78,73z M78,77  c-6.02,0-11.27,3.35-14,8.27C61.27,80.35,56.02,77,50,77s-11.27,3.35-14,8.27C33.27,80.35,28.02,77,22,77c-8.82,0-16,7.18-16,16  c0,1.1,0.9,2,2,2h28h28h28c1.1,0,2-0.9,2-2C94,84.18,86.82,77,78,77z M10.17,91c0.96-5.67,5.9-10,11.83-10s10.88,4.33,11.83,10  H10.17z M38.17,91c0.96-5.67,5.9-10,11.83-10s10.88,4.33,11.83,10H38.17z M66.17,91c0.96-5.67,5.9-10,11.83-10s10.88,4.33,11.83,10  H66.17z M26,51h48c3.31,0,6-2.69,6-6V11c0-3.31-2.69-6-6-6H26c-3.31,0-6,2.69-6,6v34C20,48.31,22.69,51,26,51z M38.69,47  c1.67-4.69,6.18-8,11.31-8c5.13,0,9.64,3.31,11.31,8H38.69z M24,11c0-1.1,0.9-2,2-2h48c1.1,0,2,0.9,2,2v34c0,1.1-0.9,2-2,2h-8.52  c-1.8-6.95-8.17-12-15.48-12c-7.32,0-13.68,5.05-15.48,12H26c-1.1,0-2-0.9-2-2V11z"></path></svg>