<svg height='100px' width='100px'  fill="#000000" xmlns="http://www.w3.org/2000/svg" viewBox="0 0 48 48" x="0px" y="0px"><title>21-paper-airplane</title><g data-name="21-paper-airplane"><path d="M3,6A.99974.99974,0,0,0,4,5V4H5A1,1,0,0,0,5,2H4V1A1,1,0,0,0,2,1V2H1A1,1,0,0,0,1,4H2V5A.99974.99974,0,0,0,3,6Z"></path><path d="M6,9H5a1,1,0,0,0,0,2H6v1a1,1,0,0,0,2,0V11H9A1,1,0,0,0,9,9H8V8A1,1,0,0,0,6,8Z"></path><path d="M31,8h1V9a1,1,0,0,0,2,0V8h1a1,1,0,0,0,0-2H34V5a1,1,0,0,0-2,0V6H31a1,1,0,0,0,0,2Z"></path><path d="M47.67773,6.26465A.99911.99911,0,0,0,46.521,6.12207l-44,24a.9997.9997,0,0,0,.06543,1.78809L13,36.64355V47a.98637.98637,0,0,0,1,1l.00031-.00006L14.00049,48c.00073,0-1.453,0,.0022-.00037L23.43256,40.93l7.18267,2.99286a.99769.99769,0,0,0,1.29834-.5166l16-36A.99971.99971,0,0,0,47.67773,6.26465ZM17.25317,43.20331l2.18726-3.93671,1.87158.77985Zm13.22974-1.50214-11.09814-4.624a.9953.9953,0,0,0-1.25879.4375L15,43.14062V36a.99856.99856,0,0,0-.58643-.91016L5.23779,30.919,44.88721,9.292Z"></path><path d="M18.67285,34.74023l22-20a1.00033,1.00033,0,0,0-1.3457-1.48046l-22,20a1.00045,1.00045,0,0,0-.0669,1.41308A1.19831,1.19831,0,0,0,18.67285,34.74023Z"></path><path d="M40.38477,34.07715a.9997.9997,0,0,0-1.30762.53808l-5,12a.99963.99963,0,0,0,.53808,1.30762c.126.05274.695.28484,1.30762-.53808l5-12A.99963.99963,0,0,0,40.38477,34.07715Z"></path><path d="M47.38477,29.07715a.99872.99872,0,0,0-1.30762.53808l-5,12a.99963.99963,0,0,0,.53808,1.30762,1.078,1.078,0,0,0,1.30762-.53808l5-12A.99963.99963,0,0,0,47.38477,29.07715Z"></path><path d="M19.52588,13.11914l-13,7a1.00038,1.00038,0,0,0-.40625,1.35449.952.952,0,0,0,1.35449.40723l13-7a1.00035,1.00035,0,0,0-.94824-1.76172Z"></path><path d="M11.47412,14.88086l13-7a1.00035,1.00035,0,0,0-.94824-1.76172l-13,7a1.00038,1.00038,0,0,0-.40625,1.35449C10.30029,14.80957,10.61486,15.25508,11.47412,14.88086Z"></path></g></svg>