<svg height='100px' width='100px'  fill="#000000" xmlns="http://www.w3.org/2000/svg" data-name="Layer 1" viewBox="0 0 64 64" x="0px" y="0px"><title>x</title><path d="M32,23.044A10.049,10.049,0,1,0,21.952,13,10.06,10.06,0,0,0,32,23.044Zm0-17.1A7.049,7.049,0,1,1,24.952,13,7.057,7.057,0,0,1,32,5.947Z"></path><path d="M52.938,35.8A10.049,10.049,0,1,0,62.986,45.851,10.06,10.06,0,0,0,52.938,35.8Zm0,17.1a7.049,7.049,0,1,1,7.048-7.049A7.057,7.057,0,0,1,52.938,52.9Z"></path><path d="M21.112,45.851A10.049,10.049,0,1,0,11.063,55.9,10.06,10.06,0,0,0,21.112,45.851ZM11.063,52.9a7.049,7.049,0,1,1,7.049-7.049A7.057,7.057,0,0,1,11.063,52.9Z"></path><path d="M32,58.053a21.335,21.335,0,0,1-11.854-3.569,12.641,12.641,0,0,1-2.412,1.977,24.458,24.458,0,0,0,28.533,0,12.648,12.648,0,0,1-2.413-1.977A21.33,21.33,0,0,1,32,58.053Z"></path><path d="M53.233,33.318a12.5,12.5,0,0,1,3.071.457,24.7,24.7,0,0,0-12-18.353,12.412,12.412,0,0,1-.969,2.912A21.7,21.7,0,0,1,53.233,33.318Z"></path><path d="M20.661,18.334a12.4,12.4,0,0,1-.969-2.913,24.707,24.707,0,0,0-12,18.354,12.5,12.5,0,0,1,3.071-.457A21.7,21.7,0,0,1,20.661,18.334Z"></path></svg>