<svg height='100px' width='100px'  fill="#000000" xmlns="http://www.w3.org/2000/svg" data-name="Layer 1" viewBox="0 0 48 48" x="0px" y="0px"><title>communication_29</title><path d="M41,11a7,7,0,0,0-5.24,11.62l-5.5,6.47a10.46,10.46,0,0,0-5.26-2V13.92a7,7,0,1,0-2,0V27.05a10.48,10.48,0,0,0-5.94,2.59L12.6,25.18a7,7,0,1,0-1.42,1.42l4.51,4.51A10.39,10.39,0,0,0,13.5,37.5a10.5,10.5,0,1,0,18.24-7.07l5.54-6.51A7,7,0,1,0,41,11ZM7,26a5,5,0,1,1,5-5A5,5,0,0,1,7,26ZM19,7a5,5,0,1,1,5,5A5,5,0,0,1,19,7ZM32.5,37.5A8.5,8.5,0,1,1,24,29,8.51,8.51,0,0,1,32.5,37.5ZM41,23a5,5,0,1,1,5-5A5,5,0,0,1,41,23Z"></path></svg>