<svg height='100px' width='100px'  fill="#000000" xmlns="http://www.w3.org/2000/svg" viewBox="0 0 80 80" x="0px" y="0px"><title>34_startup_thinking_brain</title><path d="M70.62,43.22q-2.36-3.58-4.73-7.16A5.2,5.2,0,0,0,67,32.29,2.94,2.94,0,0,1,67,32c0-.13,0-.26,0-.38a23.12,23.12,0,0,0-4.36-13,21.9,21.9,0,0,0-2.66-3C54.37,10.14,46.1,7,37.3,7A35.33,35.33,0,0,0,26.81,8.56c-1,.24-1.9.51-2.73.8a22.52,22.52,0,0,0-11,7.94A20.47,20.47,0,0,0,8,30.63a22.74,22.74,0,0,0,3.12,11.84c.71,1.34,1.51,2.63,2.28,3.87.45.73.91,1.47,1.35,2.21a28.85,28.85,0,0,1,3.53,8.38,24.47,24.47,0,0,1-.56,12.15c-.19.67-.4,1.33-.61,2L16.17,74H51.11l.15-1.34c0-.31.06-.61.09-.91a15.52,15.52,0,0,1,.21-1.68c.19-.93.61-1.16,1.23-1.23l.35,0,1.28-.14,1.8-.14c1.35-.09,2.75-.19,4.14-.39l.15,0a6.11,6.11,0,0,0,3.63-1.41c.66-.66,2.66-2.66,2.17-14.22v-.32a1.72,1.72,0,0,1,1.16-1.78A5.75,5.75,0,0,0,71,48.79a3.26,3.26,0,0,0,.57-4C71.28,44.24,71,43.73,70.62,43.22ZM69,46.61a2.74,2.74,0,0,1-1.72.78,4.64,4.64,0,0,0-4,4.78c0,.06,0,.21,0,.45.41,9.75-1,11.68-1.29,12a4.11,4.11,0,0,1-1.93.56l-.16,0c-1.28.18-2.56.27-3.92.37l-1.85.14-1.37.15-.34,0a4.26,4.26,0,0,0-3.83,3.62A14.52,14.52,0,0,0,48.39,71H20.24c.11-.37.22-.73.32-1.1a27.38,27.38,0,0,0,.61-13.61A31.71,31.71,0,0,0,17.3,47c-.45-.76-.92-1.52-1.38-2.27-.75-1.21-1.52-2.46-2.19-3.71A19.8,19.8,0,0,1,11,30.63,17.52,17.52,0,0,1,15.38,19.2l.07-.09a19.3,19.3,0,0,1,9.62-6.92c.74-.26,1.54-.49,2.54-.74A32.57,32.57,0,0,1,37.3,10c8,0,15.53,2.83,20.59,7.78a19,19,0,0,1,2.32,2.6A19.92,19.92,0,0,1,64,31.73c0,.08,0,.16,0,.24a6.07,6.07,0,0,0,0,.63,2.18,2.18,0,0,1-.47,1.6,2.8,2.8,0,0,0-.15,3.52q2.38,3.57,4.73,7.16c.31.46.61.93.89,1.41A.27.27,0,0,1,69,46.61Z"></path><path d="M60.1,32.16a7,7,0,0,0,.39-.85c0-.08.07-.15.09-.22a7,7,0,0,0,.25-.93c0-.08,0-.15.06-.23A7.2,7.2,0,0,0,61,28.71c0-.23,0-.46,0-.69,0-.07,0-.13,0-.19s0-.32-.07-.48l0-.2c0-.16-.07-.31-.12-.46l-.06-.18q-.08-.24-.18-.48l-.06-.13q-.12-.27-.25-.52l0-.06a7.12,7.12,0,0,0-1.7-2.06l-.08-.06-.43-.32-.16-.1-.37-.23-.23-.13-.31-.15-.31-.14L56.33,22a7,7,0,0,0-1-.3,7.15,7.15,0,0,0-6.68-4.64,7,7,0,0,0-1.09.08,8.61,8.61,0,0,0-13.46-1.1l-.14,0-.41-.13-.3-.08-.4-.09-.39-.06-.33,0c-.25,0-.49,0-.74,0a7.88,7.88,0,0,0-6.71,3.75,8.62,8.62,0,0,0-6.55,14.28c0,.08,0,.16-.08.23s-.11.32-.16.49-.06.24-.09.35-.08.33-.12.5,0,.29-.07.44,0,.29-.06.43c0,.3,0,.6,0,.9a9.38,9.38,0,0,0,.09,1.22c0,.09,0,.18,0,.27a9.31,9.31,0,0,0,.25,1.12v0a9.28,9.28,0,0,0,.45,1.2l0,0A9.36,9.36,0,0,0,19,42v0a9.43,9.43,0,0,0,1.64,1.93l.09.08a9.39,9.39,0,0,0,2.07,1.38l.08,0-1,3.08a3.08,3.08,0,0,0,1.29,3.58L26,53.88a3.09,3.09,0,0,0,4.37-1.18l3-5.64h.06a6.33,6.33,0,0,0,.93-.15l.16,0a6.33,6.33,0,0,0,.9-.3l.09,0a6.36,6.36,0,0,0,.78-.42L36.4,46a6.42,6.42,0,0,0,.71-.55l.1-.08a8.53,8.53,0,0,0,3.92.95,8.63,8.63,0,0,0,1.74-.18l.07,0c.26-.06.51-.12.76-.2l.45-.16.34-.13c.2-.09.4-.18.59-.28l.16-.08c.21-.11.41-.24.6-.37l.11-.07c.19-.13.37-.27.55-.41l.12-.09c.16-.13.31-.28.47-.42l.16-.15.09-.09A8.62,8.62,0,0,0,59.6,32.95c.13-.17.22-.36.33-.53Zm-8.47,9.68A5.61,5.61,0,0,1,49,41.18a8.6,8.6,0,0,0,.05-6.82,1.5,1.5,0,1,0-2.76,1.17,5.63,5.63,0,0,1-.52,5.33,5.68,5.68,0,0,1-.37.48l-.17.18-.26.27-.2.18-.29.23-.2.15a5.61,5.61,0,0,1-.51.31l-.14.07-.43.2L43,43l-.41.13-.21.05-.44.08-.19,0a5.63,5.63,0,0,1-.65,0,5.54,5.54,0,0,1-2.25-.49,6.33,6.33,0,0,0,.38-2.13,1.5,1.5,0,0,0-3,0A3.36,3.36,0,0,1,35.31,43l-.13.13a3.39,3.39,0,0,1-.29.24l-.2.15a3.36,3.36,0,0,1-.4.22l-.29.11-.26.08-.27.07a3.37,3.37,0,0,1-.53.05h-.15a3.38,3.38,0,0,1-.73-.09,1.5,1.5,0,0,0-1.65,2.21l-2.69,5.11-.12,0-2.87-1.8a.09.09,0,0,1,0-.1l1-3.18a9.39,9.39,0,0,0,1.14.08,1.5,1.5,0,0,0,0-3,6.39,6.39,0,0,1-2.7-.61l-.06,0a6.39,6.39,0,0,1-2.31-1.89l0,0A6.42,6.42,0,0,1,20.85,39l0,0a6.33,6.33,0,0,1-.23-.92l0-.15a6.28,6.28,0,0,1-.08-1,6.45,6.45,0,0,1,0-.72c0-.08,0-.16,0-.24s.05-.31.09-.46l.07-.25c0-.15.09-.31.14-.46l.07-.2c.08-.2.16-.39.26-.58l0-.08,0-.06a6.38,6.38,0,0,1,5.59-3.32,1.5,1.5,0,0,0,0-3,9.35,9.35,0,0,0-7.08,3.25,5.59,5.59,0,0,1,5.55-8.44l1.11.14.45-1a4.79,4.79,0,0,1,5.32-2.83l.23,0a4.84,4.84,0,0,1,.77.24l.17.08a4.86,4.86,0,0,1,1.89,7.33,1.5,1.5,0,1,0,2.41,1.79,7.8,7.8,0,0,0,1.25-2.6,4.93,4.93,0,0,0,3.92,0,1.5,1.5,0,0,0-1.18-2.76,2,2,0,0,1-2.61-1l0-.08a7.87,7.87,0,0,0-2.32-4,5.61,5.61,0,0,1,8.73,1.85L46,20.75l1.26-.43A4.08,4.08,0,0,1,52,21.87a7.1,7.1,0,0,0-2.75,1.42,1.5,1.5,0,1,0,1.95,2.28,4.12,4.12,0,0,1,2.65-1h.08l.31,0a4.19,4.19,0,0,1,.58.08l.24.07a4.13,4.13,0,0,1,.5.18l.29.16a2.67,2.67,0,0,1,.71.5c.08.07.17.14.25.22a4.16,4.16,0,0,1,.33.4c.05.07.11.13.16.2a4.13,4.13,0,0,1,.27.5c0,.07.07.13.1.19a4.1,4.1,0,0,1,.18.58c0,.06,0,.12.06.19a4,4,0,0,1,0,1.58c0,.1-.05.2-.08.3a4.07,4.07,0,0,1-.13.42c0,.11-.1.22-.15.33s-.12.24-.19.35l-.19.28a4.16,4.16,0,0,1-.29.35,4.09,4.09,0,0,1-2.19,1.25,1.5,1.5,0,0,0,.3,3,1.52,1.52,0,0,0,.3,0A7,7,0,0,0,57.11,35a5.57,5.57,0,0,1,.14,1.18A5.63,5.63,0,0,1,51.63,41.84Z"></path></svg>