<svg height='100px' width='100px'  xmlns:dc="http://purl.org/dc/elements/1.1/" xmlns:cc="http://creativecommons.org/ns#" xmlns:rdf="http://www.w3.org/1999/02/22-rdf-syntax-ns#" xmlns:svg="http://www.w3.org/2000/svg" xmlns="http://www.w3.org/2000/svg" xmlns:sodipodi="http://sodipodi.sourceforge.net/DTD/sodipodi-0.dtd" xmlns:inkscape="http://www.inkscape.org/namespaces/inkscape" fill="#000000" version="1.1" x="0px" y="0px" viewBox="0 0 100 100"><path style="font-size:medium;font-style:normal;font-variant:normal;font-weight:normal;font-stretch:normal;text-indent:0;text-align:start;text-decoration:none;line-height:normal;letter-spacing:normal;word-spacing:normal;text-transform:none;direction:ltr;block-progression:tb;writing-mode:lr-tb;text-anchor:start;baseline-shift:baseline;opacity:1;color:#000000;fill:#000000;fill-opacity:1;stroke:none;stroke-width:3.99999951999999980;marker:none;visibility:visible;display:inline;overflow:visible;enable-background:accumulate;font-family:Sans;-inkscape-font-specification:Sans" d="M 50 16 C 42.291704 16 36 22.291703 36 30 C 36 35.170509 38.842344 39.702048 43.03125 42.125 C 39.755185 43.193421 36.797193 44.969362 34.34375 47.3125 C 32.827659 45.959946 31.028499 44.90186 29.09375 44.15625 C 32.041687 42.177025 34 38.797548 34 35 C 34 28.948557 29.051442 24 23 24 C 16.948558 24 12 28.948557 12 35 C 12 38.797548 13.958314 42.177025 16.90625 44.15625 C 10.528844 46.613381 6 52.78444 6 60.03125 L 6 70.59375 A 2.0001998 2.0001998 0 0 0 7.34375 72.46875 C 11.448897 73.893671 16.05883 74.77777 20.9375 74.96875 A 2.0015253 2.0015253 0 1 0 21.09375 70.96875 C 17.099391 70.812387 13.38225 70.101374 10 69.0625 L 10 60.03125 C 10 52.777109 15.765251 47 23 47 C 26.356531 47 29.388461 48.273625 31.6875 50.34375 C 28.75154 54.309035 27 59.241116 27 64.59375 L 27 78.53125 A 2.0001998 2.0001998 0 0 0 28.3125 80.40625 C 34.775649 82.707172 42.166921 84 50 84 C 57.833079 84 65.194046 82.706832 71.65625 80.40625 A 2.0001998 2.0001998 0 0 0 73 78.53125 L 73 74.8125 C 74.314461 74.921632 75.642404 75 77 75 C 82.64879 75 87.974219 74.09391 92.65625 72.46875 A 2.0001998 2.0001998 0 0 0 94 70.59375 L 94 60.03125 C 94 52.78444 89.471156 46.613381 83.09375 44.15625 C 86.041686 42.177025 88 38.797548 88 35 C 88 28.948557 83.051442 24 77 24 C 70.948558 24 66 28.948557 66 35 C 66 38.807255 67.945669 42.17907 70.90625 44.15625 C 68.971501 44.90186 67.172341 45.959946 65.65625 47.3125 C 63.202807 44.969233 60.244815 43.193551 56.96875 42.125 C 61.157656 39.702048 64 35.170509 64 30 C 64 22.291703 57.708296 16 50 16 z M 50 20 C 55.54654 20 60 24.453463 60 30 C 60 35.546537 55.54654 40 50 40 C 44.453461 40 40 35.546537 40 30 C 40 24.453463 44.453461 20 50 20 z M 23 28 C 26.889682 28 30 31.110317 30 35 C 30 38.889682 26.889682 42 23 42 C 19.110319 42 16 38.889682 16 35 C 16 31.110317 19.110319 28 23 28 z M 77 28 C 80.889681 28 84 31.110317 84 35 C 84 38.889682 80.889681 42 77 42 C 73.110318 42 70 38.889682 70 35 C 70 31.110317 73.110318 28 77 28 z M 50 45 C 60.531267 45 69 53.682947 69 64.59375 L 69 76.96875 C 63.291803 78.842384 56.888033 80 50 80 C 43.121647 80 36.703494 78.837242 31 76.96875 L 31 64.59375 C 31 53.684616 39.468733 45 50 45 z M 77 47 C 84.234749 47 90 52.777109 90 60.03125 L 90 69.0625 C 86.078818 70.26811 81.710061 71 77 71 C 75.65216 71 74.314144 70.927706 73 70.8125 L 73 64.59375 C 73 59.241804 71.24846 54.309131 68.3125 50.34375 C 70.611539 48.273625 73.643469 47 77 47 z "></path></svg>