<svg height='100px' width='100px'  fill="#000000" xmlns="http://www.w3.org/2000/svg" viewBox="0 0 32 32" x="0px" y="0px"><title>Network</title><g><path d="M26.77,27.86H20.24a1.69,1.69,0,0,0-1.64-1.3H16.43V24.37A11.19,11.19,0,1,0,8.08,5.28a11.18,11.18,0,0,0,7.49,19.09v2.19H13.39a1.71,1.71,0,0,0-1.64,1.3H5.23a.42.42,0,1,0,0,.84h6.52A1.69,1.69,0,0,0,13.39,30H18.6a1.69,1.69,0,0,0,1.64-1.3h6.53a.42.42,0,1,0,0-.84Zm-3.18-7.64a11,11,0,0,0-2.17-1.59,12.79,12.79,0,0,0,1.23-5h3.67A10.31,10.31,0,0,1,23.59,20.22ZM20.28,19a12.31,12.31,0,0,1-3.85,4.18V18.1A10.85,10.85,0,0,1,20.28,19Zm-3.85-1.77V13.62H21.8a12,12,0,0,1-1.13,4.63A11.48,11.48,0,0,0,16.43,17.25ZM21,19.4a11,11,0,0,1,2,1.41,10.31,10.31,0,0,1-5.41,2.61A13.14,13.14,0,0,0,21,19.4Zm-4.6-6.62V9.14a11,11,0,0,0,4.24-1,11.61,11.61,0,0,1,1.13,4.65Zm0-4.5V3.2a12.31,12.31,0,0,1,3.85,4.18A10.32,10.32,0,0,1,16.43,8.28ZM17.56,3A10.27,10.27,0,0,1,23,5.58,10.49,10.49,0,0,1,21,7,13.05,13.05,0,0,0,17.56,3ZM11,7A9.87,9.87,0,0,1,9,5.58,10.36,10.36,0,0,1,14.42,3,12.88,12.88,0,0,0,11,7Zm4.6-3.8V8.28a10.37,10.37,0,0,1-3.85-.9A12.13,12.13,0,0,1,15.57,3.2Zm-4.24,5a11.42,11.42,0,0,0,4.24,1v3.64H10.2A12,12,0,0,1,11.33,8.15Zm4.24,5.47v3.63a11.39,11.39,0,0,0-4.24,1,11.7,11.7,0,0,1-1.14-4.63Zm0,4.48v5.1A12.3,12.3,0,0,1,11.72,19,10.75,10.75,0,0,1,15.57,18.1Zm-1.13,5.32A10.34,10.34,0,0,1,9,20.81a11.11,11.11,0,0,1,2-1.41A13.24,13.24,0,0,0,14.44,23.42ZM26.32,12.78H22.66a12.71,12.71,0,0,0-1.23-5,11.28,11.28,0,0,0,2.16-1.58A10.37,10.37,0,0,1,26.32,12.78ZM8.41,6.18a11.34,11.34,0,0,0,2.17,1.58,12.71,12.71,0,0,0-1.23,5H5.67A10.38,10.38,0,0,1,8.41,6.18ZM5.67,13.62H9.35a12.57,12.57,0,0,0,1.22,5,11.28,11.28,0,0,0-2.16,1.58A10.38,10.38,0,0,1,5.67,13.62ZM18.6,29.14H13.39a.86.86,0,0,1,0-1.72H18.6a.86.86,0,0,1,.85.88A.84.84,0,0,1,18.6,29.14Z"></path></g></svg>