<svg height='100px' width='100px'  fill="#000000" xmlns="http://www.w3.org/2000/svg" xmlns:xlink="http://www.w3.org/1999/xlink" version="1.1" x="0px" y="0px" viewBox="0 0 110 110" enable-background="new 0 0 110 110" xml:space="preserve"><path d="M97,86c-0.51,0-1.02,0.04-1.52,0.11l-7.16-21.48C91.71,62.76,94,59.15,94,55c0-6.08-4.92-11-11-11  c-0.51,0-1.02,0.04-1.52,0.11l-7.16-21.48C77.71,20.76,80,17.15,80,13c0-6.08-4.92-11-11-11S58,6.92,58,13  c0,4.15,2.29,7.76,5.68,9.63l-7.16,21.48C56.02,44.04,55.51,44,55,44s-1.02,0.04-1.52,0.11l-7.16-21.48C49.71,20.76,52,17.15,52,13  c0-6.08-4.92-11-11-11S30,6.92,30,13c0,4.15,2.29,7.76,5.68,9.63l-7.16,21.48C28.02,44.04,27.51,44,27,44c-6.08,0-11,4.92-11,11  c0,4.15,2.29,7.76,5.68,9.63l-7.16,21.48C14.02,86.04,13.51,86,13,86C6.92,86,2,90.92,2,97s4.92,11,11,11s11-4.92,11-11  c0-4.15-2.29-7.76-5.68-9.63l7.16-21.48C25.98,65.96,26.49,66,27,66s1.02-0.04,1.52-0.11l7.16,21.48C32.29,89.24,30,92.85,30,97  c0,6.08,4.92,11,11,11s11-4.92,11-11c0-4.15-2.29-7.76-5.68-9.63l7.16-21.48C53.98,65.96,54.49,66,55,66s1.02-0.04,1.52-0.11  l7.16,21.48C60.29,89.24,58,92.85,58,97c0,6.08,4.92,11,11,11s11-4.92,11-11c0-4.15-2.29-7.76-5.68-9.63l7.16-21.48  C81.98,65.96,82.49,66,83,66s1.02-0.04,1.52-0.11l7.16,21.48C88.29,89.24,86,92.85,86,97c0,6.08,4.92,11,11,11s11-4.92,11-11  S103.08,86,97,86z M20,97c0,3.86-3.14,7-7,7s-7-3.14-7-7s3.14-7,7-7c0.07,0,0.15,0,0.22,0.01c1.41,0.04,2.72,0.5,3.8,1.26  C18.82,92.54,20,94.63,20,97z M62,13c0-3.86,3.14-7,7-7s7,3.14,7,7c0,2.37-1.18,4.46-2.98,5.73c-1.079,0.76-2.39,1.22-3.8,1.26  C69.15,20,69.07,20,69,20s-0.15,0-0.22-0.01c-1.41-0.04-2.721-0.5-3.8-1.26C63.18,17.46,62,15.37,62,13z M34,13c0-3.86,3.14-7,7-7  s7,3.14,7,7c0,2.37-1.18,4.46-2.98,5.73c-1.08,0.76-2.39,1.22-3.8,1.26C41.15,20,41.07,20,41,20s-0.15,0-0.22-0.01  c-1.41-0.04-2.72-0.5-3.8-1.26C35.18,17.46,34,15.37,34,13z M31.02,60.73c-1.08,0.76-2.39,1.22-3.8,1.26C27.15,62,27.07,62,27,62  s-0.15,0-0.22-0.01c-1.41-0.04-2.72-0.5-3.8-1.26C21.18,59.46,20,57.37,20,55c0-3.86,3.14-7,7-7c0.07,0,0.15,0,0.22,0.01  c1.41,0.04,2.72,0.5,3.8,1.26C32.82,50.54,34,52.63,34,55S32.82,59.46,31.02,60.73z M48,97c0,3.86-3.14,7-7,7s-7-3.14-7-7  c0-2.37,1.18-4.46,2.98-5.73c1.08-0.76,2.39-1.22,3.8-1.26C40.85,90,40.93,90,41,90s0.15,0,0.22,0.01c1.41,0.04,2.72,0.5,3.8,1.26  C46.82,92.54,48,94.63,48,97z M42.52,86.11C42.02,86.04,41.51,86,41,86s-1.02,0.04-1.52,0.11l-7.16-21.48  C35.71,62.76,38,59.15,38,55c0-4.15-2.29-7.76-5.68-9.63l7.16-21.48C39.98,23.96,40.49,24,41,24s1.02-0.04,1.52-0.11l7.16,21.48  C46.29,47.24,44,50.85,44,55c0,4.15,2.29,7.76,5.68,9.63L42.52,86.11z M59.02,60.73c-1.079,0.76-2.39,1.22-3.799,1.26  C55.15,62,55.07,62,55,62s-0.15,0-0.22-0.01c-1.41-0.04-2.72-0.5-3.8-1.26C49.18,59.46,48,57.37,48,55s1.18-4.46,2.98-5.73  c1.08-0.76,2.39-1.22,3.8-1.26C54.85,48,54.93,48,55,48s0.15,0,0.22,0.01c1.41,0.04,2.72,0.5,3.799,1.26C60.82,50.54,62,52.63,62,55  S60.82,59.46,59.02,60.73z M76,97c0,3.86-3.14,7-7,7s-7-3.14-7-7c0-2.37,1.18-4.46,2.98-5.73c1.079-0.76,2.39-1.22,3.8-1.26  C68.85,90,68.93,90,69,90s0.15,0,0.22,0.01c1.41,0.04,2.721,0.5,3.8,1.26C74.82,92.54,76,94.63,76,97z M70.52,86.11  C70.02,86.04,69.51,86,69,86s-1.02,0.04-1.52,0.11l-7.16-21.48C63.71,62.76,66,59.15,66,55c0-4.15-2.29-7.76-5.68-9.63l7.16-21.48  C67.98,23.96,68.49,24,69,24s1.02-0.04,1.52-0.11l7.16,21.48C74.29,47.24,72,50.85,72,55c0,4.15,2.29,7.76,5.68,9.63L70.52,86.11z   M87.02,60.73c-1.079,0.76-2.39,1.22-3.8,1.26C83.15,62,83.07,62,83,62s-0.15,0-0.22-0.01c-1.41-0.04-2.721-0.5-3.8-1.26  C77.18,59.46,76,57.37,76,55s1.18-4.46,2.98-5.73c1.079-0.76,2.39-1.22,3.8-1.26C82.85,48,82.93,48,83,48c3.86,0,7,3.14,7,7  C90,57.37,88.82,59.46,87.02,60.73z M97,104c-3.86,0-7-3.14-7-7c0-2.37,1.18-4.46,2.98-5.73c1.079-0.76,2.39-1.22,3.8-1.26  C96.85,90,96.93,90,97,90c3.86,0,7,3.14,7,7S100.86,104,97,104z"></path></svg>