<svg height='100px' width='100px'  fill="#000000" xmlns="http://www.w3.org/2000/svg" xmlns:xlink="http://www.w3.org/1999/xlink" version="1.1" x="0px" y="0px" viewBox="0 0 90 90" enable-background="new 0 0 90 90" xml:space="preserve"><g><path d="M71.2,31c1.8-2.7,2.8-5.9,2.8-9.3c0-9.3-7.6-16.9-16.9-16.9c-5.6,0-10.6,2.8-13.7,7c0,0,0,0,0,0c0,0,0,0,0,0   c-2,2.8-3.2,6.1-3.2,9.8c0,2.6,0.6,5,1.6,7.2l-21,33.5c-0.6,0.9-0.3,2.1,0.5,2.8l2.4,1.8c-1.4,1.9-3.3,5.1-3.1,8.7   c0.2,2.9,1.6,5.5,4.3,7.6c2.5,2,4.8,2.7,7,2.7c4.3,0,7.8-3,9.8-4.8l0.2-0.2c0,0,0.2-0.1,0.2-0.1c1.7-1.5,4.8-4.2,7.6-3.6   c1.9,0.4,3.7,2.2,5.3,5.4c0.5,1,1.7,1.4,2.8,0.9c1-0.5,1.4-1.7,0.9-2.8c-2.2-4.4-5-6.9-8.2-7.6c-4.8-0.9-9.1,2.8-11.3,4.7l-0.3,0.2   c-3.7,3.3-6.9,5.5-11.4,1.9c-1.7-1.4-2.6-2.9-2.7-4.6c-0.1-2.4,1.3-4.7,2.4-6.1l3.2,2.3c0.4,0.3,0.8,0.4,1.2,0.4   c0.6,0,1.2-0.3,1.6-0.8l26.5-32.9C64.4,37.7,68.6,35,71.2,31C71.2,31.1,71.2,31.1,71.2,31C71.2,31.1,71.2,31,71.2,31z M69.9,21.7   c0,1.9-0.4,3.6-1.1,5.2L48.2,12.6c2.3-2.3,5.5-3.7,9-3.7C64.2,8.9,69.9,14.7,69.9,21.7z M31.2,67.1l-5.8-4.2l19-30.2   c2.5,2.9,6,5,10,5.6L31.2,67.1z M57.2,34.5c-7,0-12.8-5.7-12.8-12.8c0-2.1,0.5-4,1.4-5.7l20.8,14.4C64.2,32.9,60.9,34.5,57.2,34.5z   "></path><path d="M54.4,14.4l10.2,7.1c0.1,0.1,0.2,0.1,0.3,0.1c0.2,0,0.3-0.1,0.4-0.2c0.2-0.2,0.1-0.6-0.1-0.7L55,13.6   c-0.2-0.2-0.6-0.1-0.7,0.1C54.1,13.9,54.2,14.2,54.4,14.4z"></path><path d="M49.9,21.2c-0.2-0.2-0.6-0.1-0.7,0.1c-0.2,0.2-0.1,0.6,0.1,0.7l11.1,7.7c0.1,0.1,0.2,0.1,0.3,0.1c0.2,0,0.3-0.1,0.4-0.2   c0.2-0.2,0.1-0.6-0.1-0.7L49.9,21.2z"></path><path d="M66.2,17.3c0.1,0.1,0.2,0.1,0.3,0.1c0.2,0,0.3-0.1,0.4-0.2c0.2-0.2,0.1-0.6-0.1-0.7l-7.2-5c-0.2-0.2-0.6-0.1-0.7,0.1   c-0.2,0.2-0.1,0.6,0.1,0.7L66.2,17.3z"></path><path d="M48.9,25.6c-0.2-0.2-0.6-0.1-0.7,0.1c-0.2,0.2-0.1,0.6,0.1,0.7l8.2,5.6c0.1,0.1,0.2,0.1,0.3,0.1c0.2,0,0.3-0.1,0.4-0.2   c0.2-0.2,0.1-0.6-0.1-0.7L48.9,25.6z"></path></g></svg>