<svg height='100px' width='100px'  fill="#000000" xmlns="http://www.w3.org/2000/svg" xmlns:xlink="http://www.w3.org/1999/xlink" version="1.1" x="0px" y="0px" viewBox="0 0 24 24" style="enable-background:new 0 0 24 24;" xml:space="preserve"><g><polygon points="11.646,8.172 8.157,4.682 8.864,3.975 11.5,6.611 11.5,0 12.5,0 12.5,7.818  "></polygon><rect x="10.85" y="5.75" transform="matrix(0.7071 -0.7071 0.7071 0.7071 -0.4453 11.4249)" width="5.436" height="1"></rect><polygon points="12.5,24 11.5,24 11.5,16.182 12.354,15.828 15.844,19.318 15.137,20.025 12.5,17.389  "></polygon><rect x="7.714" y="17.25" transform="matrix(0.7071 -0.7071 0.7071 0.7071 -9.4957 12.5753)" width="5.436" height="1"></rect><polygon points="24,12.5 16.182,12.5 15.828,11.646 19.318,8.157 20.025,8.864 17.389,11.5 24,11.5  "></polygon><rect x="17.25" y="10.85" transform="matrix(0.7071 -0.7071 0.7071 0.7071 -4.3954 16.5252)" width="1" height="5.436"></rect><polygon points="4.682,15.844 3.975,15.137 6.611,12.5 0,12.5 0,11.5 7.818,11.5 8.172,12.354  "></polygon><rect x="5.75" y="7.714" transform="matrix(0.7071 -0.7072 0.7072 0.7071 -5.5461 7.4756)" width="1" height="5.436"></rect><path d="M12,14c-1.103,0-2-0.897-2-2c0-1.103,0.897-2,2-2c1.103,0,2,0.897,2,2C14,13.103,13.103,14,12,14z M12,11   c-0.551,0-1,0.449-1,1s0.449,1,1,1s1-0.449,1-1S12.551,11,12,11z"></path></g></svg>