<svg height='100px' width='100px'  fill="#000000" xmlns="http://www.w3.org/2000/svg" xmlns:xlink="http://www.w3.org/1999/xlink" version="1.1" x="0px" y="0px" viewBox="0 0 64 64" enable-background="new 0 0 64 64" xml:space="preserve"><g><g><path d="M34.226,32.372L28.044,15.59l-6.346-7.825l4.932-6.354l9.156,4.199l17.789,1.812L34.226,32.372z M24.251,7.737    l5.557,6.853l5.049,13.708L49.784,9.047L35.253,7.567L27.237,3.89L24.251,7.737z"></path></g><g><path d="M42.669,25.238c-1.099,0-2.124-0.346-2.965-1c-0.134-0.106-0.246-0.205-0.346-0.304l-0.632-0.623l6.73-8.688l0.746,0.402    c0.146,0.079,0.288,0.174,0.43,0.283c2.232,1.728,2.501,5.138,0.598,7.6C46.104,24.367,44.398,25.238,42.669,25.238z     M41.499,22.999c0.356,0.157,0.753,0.239,1.17,0.239c1.114,0,2.229-0.58,2.979-1.552c1.07-1.385,1.127-3.194,0.226-4.335    L41.499,22.999z"></path></g><g><path d="M21.292,39.53l-0.877-1.512c-0.387-0.665-1.604-0.963-2.64-0.963h-1.837l0.964-1.543l13.016-20.135l1.893,5.489    L21.292,39.53z M19.457,35.245c0.604,0.143,1.139,0.362,1.588,0.651l8.582-15.229l-0.26-0.753L19.457,35.245z"></path></g><g><path d="M18.09,46.086c-2.919,0-5.293-2.416-5.293-5.387c0-2.983,2.306-5.35,5.249-5.387c1.952,0,3.663,0.996,4.62,2.666    c0.479,0.825,0.732,1.768,0.732,2.721c0,0.642-0.116,1.294-0.338,1.899v0.017l-0.079,0.205c-0.801,1.887-2.54,3.126-4.55,3.245    C18.294,46.086,18.175,46.086,18.09,46.086z M18.09,37.313c-1.854,0.023-3.293,1.511-3.293,3.387c0,1.867,1.478,3.387,3.293,3.387    l0.146-0.018l0.037,0.003c1.227-0.059,2.298-0.794,2.822-1.93l0.04-0.108c0.173-0.421,0.264-0.882,0.264-1.334    c0-0.61-0.156-1.189-0.465-1.723C20.335,37.934,19.272,37.313,18.09,37.313z"></path></g><g><path d="M29.562,58.017h-5.729l-7.226-13.803l1.725,0.066c0.001,0,0.002,0,0.003,0c0.88,0,1.999-0.549,2.279-1.087l0.919-1.766    L29.562,58.017z M25.043,56.017h1.329l-5.155-10.651c-0.427,0.29-0.911,0.518-1.397,0.674L25.043,56.017z"></path></g><g><path d="M43.379,62.59H10.426l4.638-6.573h23.676L43.379,62.59z M14.285,60.59H39.52l-1.817-2.573H16.101L14.285,60.59z"></path></g></g></svg>