<svg height='100px' width='100px'  fill="#000000" xmlns="http://www.w3.org/2000/svg" data-name="Capa 1" viewBox="0 0 100 100" x="0px" y="0px"><title>x</title><path d="M86.47,42.83a29,29,0,0,0-6.79-5.05c0-.4,0-0.8,0-1.21a29.13,29.13,0,0,0-58.26,0c0,0.21,0,.42,0,0.63A29.12,29.12,0,1,0,50,87.85,29.13,29.13,0,0,0,86.47,42.83Zm-35.89,20a26.06,26.06,0,0,1-10.75-2.31A26.05,26.05,0,0,1,50,42.56,26.22,26.22,0,0,1,60.24,60.95,26.08,26.08,0,0,1,50.57,62.8ZM60.34,64A26.2,26.2,0,0,1,50,84.3,26.09,26.09,0,0,1,39.66,63.57,29.05,29.05,0,0,0,60.34,64ZM37.07,59a26.26,26.26,0,0,1-12.6-20,26.14,26.14,0,0,1,23,1.8,29.34,29.34,0,0,0-2.19,2A28.91,28.91,0,0,0,37.07,59ZM52.52,40.85a26.34,26.34,0,0,1,24.12-1.34A26.28,26.28,0,0,1,63,59.66,29.12,29.12,0,0,0,52.52,40.85ZM50.57,10.34A26.25,26.25,0,0,1,76.8,36.43,29.24,29.24,0,0,0,50,39a29,29,0,0,0-25.62-3A26.25,26.25,0,0,1,50.57,10.34ZM34.13,89.66A26.22,26.22,0,0,1,21.7,40.34,29.19,29.19,0,0,0,36.77,62.22c0,0.4,0,.81,0,1.21A28.94,28.94,0,0,0,45.27,84a29.34,29.34,0,0,0,2.19,2A26.06,26.06,0,0,1,34.13,89.66ZM84.42,82a26.27,26.27,0,0,1-31.9,4A29.08,29.08,0,0,0,63.26,63.43c0-.21,0-0.42,0-0.63A29.21,29.21,0,0,0,79.38,40.95,26.22,26.22,0,0,1,84.42,82Z"></path></svg>