<svg xmlns="http://www.w3.org/2000/svg" version="1.1" xmlns:xlink="http://www.w3.org/1999/xlink" xmlns:svgjs="http://svgjs.com/svgjs" width="512" height="512"><svg xmlns="http://www.w3.org/2000/svg" viewBox="0 0 512 512"><defs><style>.a{fill:#e43d30;stroke:#e43d30;stroke-miterlimit:10;stroke-width:10px;}</style></defs><path class="a" d="M464.073,234.98,407.92,202.985l55.716-32.755a8.217,8.217,0,0,0-.106-14.245L326.355,78.024a8.2,8.2,0,0,0-8.224.061l-63.87,37.543L189.9,78.95a8.226,8.226,0,0,0-8.238.051L45.556,158.807a8.225,8.225,0,0,0,.091,14.245l56.154,32L46.08,237.8a8.224,8.224,0,0,0,.1,14.245l64.375,36.591.5,74.116a8.258,8.258,0,0,0,4.162,7.107l137.171,77.966a1.653,1.653,0,0,0,.311.119,8.175,8.175,0,0,0,1.378.557c.17.052.33.1.5.146a8.8,8.8,0,0,0,1.933.244,7.976,7.976,0,0,0,1.93-.27c.169-.049.328-.1.5-.153a8.054,8.054,0,0,0,1.371-.576c.1-.054.208-.074.3-.123l136.106-79.815a8.261,8.261,0,0,0,4.076-7.163l-.5-74.11L464.16,249.23a8.222,8.222,0,0,0-.087-14.25ZM255.326,273.4,134.677,204.829l119.713-70.2,120.649,68.575ZM322.362,94.683l120.664,68.576-51.594,30.335L270.763,125.009Zm-136.478.922,52,29.631-119.723,70.2-52-29.636ZM118.289,214.447l120.659,68.58-51.594,30.326-120.66-68.58Zm8.793,83.581,56.279,31.989a8.284,8.284,0,0,0,4.122,1.076,8.132,8.132,0,0,0,4.117-1.136l55.658-32.731.873,129.252L127.486,357.9ZM384.291,356.17l-119.7,70.2-.873-129.252,56.1,31.976a8.276,8.276,0,0,0,4.136,1.081,8.177,8.177,0,0,0,4.112-1.132L383.9,296.294l.4,59.871h-.015Zm-60.459-43.738-52-29.627,119.728-70.2,52,29.632Z"></path></svg><style>@media (prefers-color-scheme: light) { :root { filter: none; } }
@media (prefers-color-scheme: dark) { :root { filter: contrast(0.3846153846153846) brightness(4.5); } }
</style></svg>