<svg height='100px' width='100px'  fill="#000000" xmlns="http://www.w3.org/2000/svg" xmlns:xlink="http://www.w3.org/1999/xlink" version="1.1" x="0px" y="0px" viewBox="0 0 64 64" enable-background="new 0 0 64 64" xml:space="preserve"><g><path d="M14.347,50.668c-0.265,0-0.519-0.105-0.707-0.292c-0.188-0.188-0.293-0.442-0.293-0.707l-0.011-17.675   c0-0.405,0.243-0.77,0.617-0.925c0.374-0.152,0.804-0.069,1.09,0.217l17.676,17.663c0.286,0.285,0.372,0.716,0.217,1.089   c-0.155,0.374-0.519,0.618-0.924,0.618L14.347,50.668L14.347,50.668z M15.337,34.407l0.009,14.26l14.251-0.009L15.337,34.407z"></path><path d="M3.04,62c-0.552,0-1-0.447-1-0.999L2,3.001c0-0.405,0.243-0.77,0.617-0.925c0.374-0.152,0.804-0.07,1.09,0.217l58,57.961   c0.286,0.285,0.372,0.716,0.217,1.089c-0.154,0.374-0.519,0.618-0.923,0.618L3.04,62L3.04,62z M4.001,5.415l0.038,54.584   l54.547-0.036L4.001,5.415z"></path><path d="M27.368,37.622c-0.256,0-0.511-0.098-0.707-0.292c-0.391-0.391-0.391-1.023-0.001-1.415l4.292-4.298   c0.39-0.391,1.022-0.391,1.414-0.001c0.391,0.391,0.391,1.023,0.001,1.415l-4.292,4.298C27.88,37.524,27.625,37.622,27.368,37.622z   "></path><path d="M26.584,32.154c-0.255,0-0.511-0.098-0.707-0.292c-0.391-0.391-0.392-1.023-0.001-1.414l1.951-1.955   c0.389-0.393,1.022-0.392,1.415-0.002c0.391,0.391,0.392,1.023,0.001,1.414l-1.951,1.955   C27.097,32.057,26.841,32.154,26.584,32.154z"></path><path d="M21.119,31.375c-0.256,0-0.511-0.098-0.707-0.292c-0.391-0.391-0.391-1.023-0.001-1.415l4.291-4.298   c0.39-0.391,1.022-0.391,1.414-0.001c0.391,0.391,0.391,1.023,0.001,1.415l-4.291,4.297C21.631,31.277,21.375,31.375,21.119,31.375   z"></path><path d="M20.335,25.91c-0.255,0-0.511-0.098-0.706-0.292c-0.391-0.39-0.392-1.023-0.002-1.414l1.951-1.956   c0.389-0.392,1.022-0.392,1.414-0.002c0.391,0.39,0.392,1.023,0.002,1.414l-1.951,1.956C20.848,25.813,20.592,25.91,20.335,25.91z"></path><path d="M14.871,25.131c-0.255,0-0.511-0.098-0.706-0.292c-0.391-0.39-0.392-1.023-0.002-1.414l4.29-4.301   c0.39-0.393,1.023-0.392,1.414-0.002c0.391,0.39,0.392,1.023,0.002,1.414l-4.29,4.301C15.383,25.033,15.127,25.131,14.871,25.131z"></path><path d="M14.086,19.663c-0.255,0-0.511-0.098-0.707-0.292c-0.391-0.391-0.392-1.023-0.001-1.414l1.951-1.955   c0.39-0.393,1.023-0.392,1.415-0.002c0.391,0.391,0.392,1.023,0.001,1.414l-1.951,1.955C14.599,19.565,14.342,19.663,14.086,19.663   z"></path><path d="M8.621,18.887c-0.255,0-0.511-0.098-0.707-0.292c-0.391-0.391-0.392-1.023-0.001-1.414l4.292-4.301   c0.389-0.393,1.022-0.393,1.415-0.002c0.391,0.391,0.392,1.023,0.001,1.414l-4.292,4.301C9.133,18.789,8.877,18.887,8.621,18.887z"></path><path d="M7.836,13.418c-0.256,0-0.511-0.098-0.707-0.292c-0.391-0.391-0.392-1.023-0.001-1.414l1.95-1.954   c0.39-0.393,1.023-0.392,1.415-0.002c0.391,0.391,0.392,1.023,0.001,1.414l-1.95,1.954C8.349,13.32,8.093,13.418,7.836,13.418z"></path><path d="M45.333,50.89c-0.256,0-0.512-0.098-0.707-0.293c-0.391-0.39-0.391-1.023-0.001-1.414l1.951-1.953   c0.391-0.391,1.024-0.391,1.414,0c0.391,0.39,0.391,1.023,0.001,1.414l-1.951,1.953C45.845,50.792,45.588,50.89,45.333,50.89z"></path><path d="M39.867,50.113c-0.255,0-0.511-0.098-0.707-0.292c-0.391-0.391-0.392-1.023-0.001-1.414l4.291-4.301   c0.39-0.393,1.023-0.392,1.415-0.002c0.391,0.391,0.392,1.023,0.001,1.414l-4.291,4.301C40.38,50.016,40.124,50.113,39.867,50.113z   "></path><path d="M39.084,44.646c-0.255,0-0.511-0.098-0.706-0.292c-0.391-0.39-0.392-1.023-0.002-1.414l1.95-1.955   c0.389-0.393,1.023-0.393,1.414-0.002c0.391,0.39,0.392,1.023,0.002,1.414l-1.95,1.955C39.597,44.548,39.34,44.646,39.084,44.646z"></path><path d="M51.582,57.134c-0.256,0-0.511-0.098-0.707-0.292c-0.391-0.391-0.391-1.023-0.001-1.415l1.951-1.953   c0.39-0.392,1.023-0.391,1.414-0.001c0.391,0.391,0.391,1.023,0.001,1.415l-1.951,1.953C52.094,57.036,51.838,57.134,51.582,57.134   z"></path><path d="M46.116,56.357c-0.255,0-0.511-0.098-0.707-0.292c-0.391-0.391-0.392-1.023-0.001-1.414l4.292-4.301   c0.39-0.393,1.023-0.392,1.415-0.002c0.391,0.391,0.392,1.023,0.001,1.414l-4.292,4.301C46.629,56.26,46.373,56.357,46.116,56.357z   "></path><path d="M33.619,43.867c-0.255,0-0.511-0.098-0.707-0.292c-0.391-0.391-0.392-1.023-0.001-1.414l4.29-4.299   c0.389-0.393,1.022-0.393,1.415-0.002c0.391,0.391,0.392,1.023,0.001,1.414l-4.29,4.299C34.132,43.77,33.875,43.867,33.619,43.867z   "></path><path d="M32.834,38.398c-0.255,0-0.511-0.098-0.706-0.292c-0.391-0.39-0.392-1.023-0.002-1.414l1.949-1.954   c0.39-0.393,1.023-0.392,1.414-0.002c0.391,0.39,0.392,1.023,0.002,1.414l-1.949,1.954C33.347,38.301,33.091,38.398,32.834,38.398z   "></path></g></svg>