<svg height='100px' width='100px'  fill="#000000" xmlns="http://www.w3.org/2000/svg" xmlns:xlink="http://www.w3.org/1999/xlink" version="1.0" x="0px" y="0px" viewBox="0 0 50 50" enable-background="new 0 0 50 50" xml:space="preserve"><g><g><path d="M45.8,6.2L4.1,6.6c-0.7,0-1.2,0.6-1.2,1.3l0.1,7c0,0.7,0.6,1.2,1.3,1.2l0.2,0c-0.8,1.1-1.3,2.4-1.3,3.9    c0,3.5,2.9,6.4,6.4,6.3c1.5,0,2.8-0.5,3.9-1.4l0,0.1l0.1,17.4l0,0.2c0,0.7,0.6,1.2,1.3,1.2l20.9-0.2c0.7,0,1.2-0.6,1.2-1.3l0-0.2    l-0.1-17.4l0-0.1c1.1,0.8,2.4,1.3,3.9,1.3c3.5,0,6.4-2.9,6.3-6.4c0-1.5-0.5-2.8-1.4-3.9l0.2,0c0.7,0,1.2-0.6,1.2-1.3l-0.1-7    C47.1,6.8,46.5,6.2,45.8,6.2z M5.5,8.9h39.3v4.5H5.5V8.9z M34.3,20.6c-0.6-0.3-1.3-0.5-2.2-0.5c-1.6,0-2.7,0.6-3.5,1.4    c-0.8-0.8-1.9-1.4-3.5-1.4s-2.7,0.6-3.5,1.4c-0.8-0.8-1.9-1.4-3.5-1.4c-0.9,0-1.6,0.2-2.2,0.5v-4.8h18.4V20.6z M34.3,41.2h-4.5    V24.9c0-0.5,0.2-2.2,2.2-2.2c2,0,2.2,1.7,2.2,2.2V41.2z M27.3,41.2h-4.5V24.9c0-0.4,0.1-2.2,2.2-2.2c2,0,2.2,1.7,2.2,2.2V41.2z     M9.5,23.6c-2.1,0-3.9-1.7-3.9-3.9c0-2.1,1.7-3.9,3.9-3.9s3.9,1.7,3.9,3.9C13.4,21.9,11.7,23.6,9.5,23.6z M15.9,24.9    c0-0.5,0.2-2.2,2.2-2.2s2.2,1.7,2.2,2.2v16.3h-4.5V24.9z M44.6,19.7c0,2.1-1.7,3.9-3.9,3.9c-2.1,0-3.9-1.7-3.9-3.9    c0-2.1,1.7-3.9,3.9-3.9C42.8,15.9,44.6,17.6,44.6,19.7z"></path></g></g></svg>