<svg height='100px' width='100px'  fill="#000000" xmlns:dc="http://purl.org/dc/elements/1.1/" xmlns:cc="http://creativecommons.org/ns#" xmlns:rdf="http://www.w3.org/1999/02/22-rdf-syntax-ns#" xmlns:svg="http://www.w3.org/2000/svg" xmlns="http://www.w3.org/2000/svg" xmlns:sodipodi="http://sodipodi.sourceforge.net/DTD/sodipodi-0.dtd" xmlns:inkscape="http://www.inkscape.org/namespaces/inkscape" viewBox="0 0 16.933333 16.933333" version="1.1" x="0px" y="0px"><g><path d="m 13.492318,0.52916885 c -0.29878,0 -0.52914,0.241121 -0.52914,0.52959595 v 0.529079 H 8.7305581 c -0.1607499,0 -0.26354,0.133051 -0.26354,0.263506 v 1.058158 c 0,0.1462995 0.1172288,0.2660891 0.26354,0.2660891 h 0.2661201 v 8.8135051 c -0.1896301,0.107483 -0.3645501,0.176704 -0.5296601,0.176704 -0.2570499,0 -0.5079598,-0.156574 -0.8143798,-0.354958 C 7.4109181,11.654347 7.1413482,11.472975 6.8191381,11.402672 L 7.4810782,8.9339818 c 0.025601,-0.09654 -0.005,-0.1992611 -0.0801,-0.2655731 L 5.1877781,6.7060627 c -0.0681,-0.06039 -0.15495,-0.07545 -0.2284,-0.06045 l -2.8963199,0.591597 c -0.0985,0.019979 -0.1772,0.09405 -0.20308,0.191171 L 0.7665583,11.515825 c -0.0378,0.141103 0.0428,0.286122 0.18395001,0.323958 l 0.22839989,0.06148 c -0.2837199,0.14858 -0.5405099,0.31724 -0.5405099,0.31724 -0.2597,0.208571 -0.001,0.611403 0.30385,0.43401 0,0 0.2948899,-0.191514 0.6738299,-0.382859 0.37893,-0.191343 0.81697,-0.369425 1.09962,-0.369425 0.25602,0 0.5079601,0.157092 0.8143799,0.355475 0.30642,0.198384 0.6758501,0.439694 1.1011702,0.439694 0.4470299,0 0.7973398,-0.24131 1.1037598,-0.439694 0.3064201,-0.198383 0.5532001,-0.355475 0.8143801,-0.355475 0.25634,0 0.5079698,0.157092 0.8143801,0.355475 0.3064198,0.198384 0.6748198,0.439694 1.10324,0.439694 0.4294899,0 0.7952798,-0.24131 1.1016898,-0.439694 0.30642,-0.198383 0.5593999,-0.355475 0.8164499,-0.355475 0.25085,0 0.50797,0.157092 0.81439,0.355475 0.30641,0.198384 0.66876,0.439694 1.10117,0.439694 0.43049,0 0.79734,-0.24131 1.10375,-0.439694 0.30642,-0.198383 0.56535,-0.355475 0.81,-0.355475 0.28265,0 0.72507,0.178082 1.10401,0.369425 0.37894,0.191345 0.67383,0.382859 0.67383,0.382859 0.30768,0.179289 0.57702,-0.247416 0.28679,-0.445377 0,0 -0.17494,-0.111738 -0.40409,-0.240772 V 3.1755977 h 0.26353 c 0.147131,0 0.26561,-0.1189814 0.26561,-0.2660889 v -1.058158 c 0,-0.1460972 -0.119489,-0.263506 -0.2656,-0.263506 h -0.79475 v -0.529079 c 0,-0.28847695 -0.23233,-0.52959595 -0.52914,-0.52959595 z m 0,0.52959595 h 1.32234 v 0.529079 h -1.32234 z m -4.4956398,1.058158 h 6.8783298 v 0.529079 H 8.9966782 Z m 0.5291399,1.0586741 h 5.8221199 l -0.002,8.5189981 c -0.35756,-0.169685 -0.7879,-0.323441 -1.12701,-0.323441 -0.44703,0 -0.79527,0.24131 -1.10169,0.439694 -0.30642,0.198384 -0.55734,0.354958 -0.81645,0.354958 -0.25292,0 -0.50797,-0.156574 -0.81438,-0.354958 -0.30642,-0.198384 -0.66877,-0.439694 -1.10118,-0.439694 -0.32663,0 -0.6120098,0.135071 -0.8593396,0.285207 z m 1.2463799,0.5270129 c -0.24445,0 -0.45318,0.1914819 -0.45318,0.441243 v 1.234346 c 0,0.2528689 0.21183,0.441243 0.45318,0.441243 h 0.94564 c 0.24598,0 0.45318,-0.1914821 0.45318,-0.441243 v -1.234346 c 0,-0.2497691 -0.20977,-0.441243 -0.45318,-0.441243 z m 2.38269,0 c -0.26305,0 -0.45473,0.2090489 -0.45473,0.441243 v 1.234346 c 0,0.244602 0.19891,0.441243 0.45473,0.441243 h 0.94408 c 0.24652,0 0.45318,-0.1914821 0.45318,-0.441243 v -1.234346 c 0,-0.2497691 -0.20976,-0.441243 -0.45318,-0.441243 z m -2.30673,0.5290791 h 0.79371 v 1.0586738 h -0.79371 z m 2.38114,0 h 0.79371 v 1.0586738 h -0.79371 z M 5.2580681,5.5440518 1.5044683,6.2648186 C 1.1634082,6.3404386 1.2531882,6.8358998 1.6062682,6.7861467 L 5.2327483,6.0870808 8.0236582,8.5046207 C 8.3030981,8.7337856 8.6279681,8.3356647 8.3703883,8.1052277 L 5.4807782,5.6024366 C 5.4100046,5.5411372 5.3266385,5.5308849 5.2580681,5.5440518 Z m 5.5136099,0.8044688 c -0.26408,0 -0.45318,0.2090502 -0.45318,0.441244 v 1.2364122 c 0,0.2497688 0.21597,0.4391769 0.45318,0.4391769 h 0.94616 c 0.23721,0 0.45318,-0.189415 0.45318,-0.4391769 V 6.7897646 c 0,-0.2497687 -0.20667,-0.441244 -0.45318,-0.441244 z m 2.38321,0 c -0.24599,0 -0.45473,0.1914832 -0.45473,0.441244 v 1.2364122 c 0,0.2415019 0.20614,0.4391769 0.45473,0.4391769 h 0.94408 c 0.23722,0 0.45318,-0.189415 0.45318,-0.4391769 V 6.7897646 c 0,-0.2497687 -0.21596,-0.441244 -0.45318,-0.441244 z m -2.30724,0.5290802 h 0.79422 v 1.0586741 h -0.79422 z m 2.38165,0 h 0.79371 v 1.0586741 h -0.79371 z M 4.9361382,7.1901906 6.9281681,8.9556816 6.2719083,11.404222 c -0.31872,0.07136 -0.5841502,0.251211 -0.8242001,0.406626 -0.1604401,0.103876 -0.30924,0.19788 -0.45008,0.262473 L 5.6058383,9.8009687 c 0.0378,-0.1412449 -0.0463,-0.2861551 -0.1875801,-0.3239579 l -2.04267,-0.5466461 c -0.1437201,-0.03846 -0.28576,0.04496 -0.324,0.1875541 l -0.61182,2.2816522 c -0.1739,0.0303 -0.40042,0.10612 -0.51984,0.152937 L 1.3442783,11.398538 2.3307382,7.7234027 Z m 5.8355398,1.8042421 c -0.24548,0 -0.45318,0.1914819 -0.45318,0.4412441 v 1.2327952 c 0,0.249769 0.20873,0.441243 0.45318,0.441243 h 0.94616 c 0.24444,0 0.45318,-0.191485 0.45318,-0.441243 V 9.4356768 c 0,-0.2497691 -0.20427,-0.4412441 -0.45318,-0.4412441 z m 2.38063,0 c -0.28837,0 -0.45474,0.2353239 -0.45474,0.4412441 v 1.2343462 c 0,0.249768 0.21752,0.441242 0.45474,0.441242 h 0.94666 c 0.24341,0 0.45318,-0.191485 0.45318,-0.441242 V 9.4356768 c 0,-0.2497691 -0.20976,-0.4412441 -0.45318,-0.4412441 z m -9.6573597,0.515646 1.5310998,0.410243 -0.5927,2.2155173 c -0.1889299,-0.05491 -0.3904599,-0.178664 -0.6164699,-0.324991 -0.24121,-0.156166 -0.5091001,-0.337026 -0.82988,-0.40766 z m 7.3526997,0.01343 h 0.79422 v 1.0581583 h -0.79422 z m 2.38165,0 h 0.79371 v 1.0581583 h -0.79371 z M 2.7157082,13.224478 c -0.40982,0 -0.93102,0.220319 -1.33784,0.425743 -0.40681989,0.205424 -0.7249899,0.411793 -0.7249899,0.411793 -0.29557,0.192893 -0.006,0.636203 0.28938001,0.44331 0,0 0.29488989,-0.190998 0.67382989,-0.382342 0.37893,-0.191344 0.8281,-0.369425 1.09962,-0.369425 0.24465,0 0.5079599,0.157091 0.81438,0.355475 0.30642,0.198384 0.6716799,0.439177 1.1011701,0.439177 0.4470299,0 0.7973399,-0.240793 1.1037599,-0.439177 0.30642,-0.198384 0.5551199,-0.355475 0.8143801,-0.355475 0.2611898,0 0.5079698,0.157091 0.8143798,0.355475 0.30642,0.198384 0.6768901,0.439177 1.10324,0.439177 0.4377301,0 0.79528,-0.240793 1.10169,-0.439177 0.3064201,-0.198384 0.5586499,-0.355475 0.8164499,-0.355475 0.2578,0 0.50797,0.157091 0.81439,0.355475 0.30641,0.198384 0.66729,0.439177 1.10117,0.439177 0.4368,0 0.79734,-0.240793 1.10375,-0.439177 0.30642,-0.198384 0.56974,-0.355475 0.81439,-0.355475 0.27152,0 0.72068,0.178081 1.09962,0.369425 0.37894,0.191344 0.67383,0.382342 0.67383,0.382342 0.29547,0.184914 0.57354,-0.23507 0.29506,-0.439177 0,0 -0.32385,-0.210502 -0.73067,-0.415926 -0.40682,-0.205424 -0.91769,-0.425743 -1.33784,-0.425743 -0.4305,-10e-7 -0.79527,0.240793 -1.10169,0.439177 -0.30642,0.198384 -0.5718,0.355475 -0.81645,0.355475 -0.25342,0 -0.50797,-0.157091 -0.81438,-0.355475 -0.30642,-0.198384 -0.67275,-0.439176 -1.10118,-0.439177 -0.4325598,0 -0.7973298,0.240793 -1.1037498,0.439177 -0.30642,0.198384 -0.55734,0.355475 -0.8143901,0.355475 -0.2578,0 -0.5079598,-0.157091 -0.8143798,-0.355475 -0.3064201,-0.198384 -0.6727503,-0.439177 -1.10324,-0.439177 -0.4284202,0 -0.79527,0.240793 -1.1016901,0.439177 -0.33435,0.216467 -0.5718,0.355475 -0.8164499,0.355475 -0.2446401,0 -0.50796,-0.157091 -0.8143801,-0.355475 -0.30642,-0.198384 -0.65414,-0.439177 -1.10117,-0.439177 z m 0,1.853326 c -0.42223,0 -0.93102,0.218253 -1.33784,0.423677 -0.40681989,0.205424 -0.7249899,0.411793 -0.7249899,0.411793 -0.29557,0.192893 -0.006,0.636203 0.28938001,0.44331 0,0 0.29488989,-0.190998 0.67382989,-0.382342 0.37893,-0.191343 0.81673,-0.367359 1.09962,-0.367359 0.25808,0 0.5079599,0.155025 0.81438,0.353409 0.30642,0.198384 0.6655101,0.439177 1.1011701,0.439177 0.4470299,0 0.7973399,-0.240793 1.1037599,-0.439177 0.30642,-0.198384 0.5536599,-0.353409 0.8143801,-0.353409 0.2591199,0 0.5079698,0.155025 0.8143798,0.353409 0.30642,0.198384 0.6768901,0.439177 1.10324,0.439177 0.4353401,0 0.79528,-0.240793 1.10169,-0.439177 0.3064201,-0.198384 0.5586499,-0.353409 0.8164499,-0.353409 0.26219,0 0.50797,0.155025 0.81439,0.353409 0.30641,0.198384 0.66654,0.439177 1.10117,0.439177 0.43826,0 0.79734,-0.240793 1.10375,-0.439177 0.30642,-0.198384 0.55805,-0.353409 0.81439,-0.353409 0.27978,0 0.72068,0.176016 1.09962,0.367359 0.37894,0.191344 0.67121,0.38118 0.68933,0.391642 0.29711,0.159094 0.55445,-0.255756 0.27336,-0.45261 0,0 -0.31765,-0.206369 -0.72447,-0.411793 -0.40682,-0.205424 -0.90835,-0.423677 -1.33784,-0.423677 -0.44703,0 -0.79527,0.240793 -1.10169,0.439177 -0.30642,0.198385 -0.56157,0.353409 -0.81645,0.353409 -0.25292,0 -0.50797,-0.155024 -0.81438,-0.353409 -0.30642,-0.198384 -0.65415,-0.439177 -1.10118,-0.439177 -0.4470199,0 -0.7973298,0.240793 -1.1037498,0.439177 -0.30642,0.198385 -0.5624301,0.353409 -0.8143901,0.353409 -0.25341,0 -0.5079598,-0.155024 -0.8143798,-0.353409 -0.3064201,-0.198384 -0.6562101,-0.439177 -1.10324,-0.439177 -0.4470302,0 -0.79527,0.240793 -1.1016901,0.439177 -0.33362,0.215998 -0.5718,0.353409 -0.8164499,0.353409 -0.2446401,0 -0.50796,-0.155024 -0.8143801,-0.353409 -0.30642,-0.198384 -0.65414,-0.439177 -1.10117,-0.439177 z" style="color:#000000;font-style:normal;font-variant:normal;font-weight:normal;font-stretch:normal;font-size:medium;line-height:normal;font-family:sans-serif;font-variant-ligatures:normal;font-variant-position:normal;font-variant-caps:normal;font-variant-numeric:normal;font-variant-alternates:normal;font-feature-settings:normal;text-indent:0;text-align:start;text-decoration:none;text-decoration-line:none;text-decoration-style:solid;text-decoration-color:#000000;letter-spacing:normal;word-spacing:normal;text-transform:none;writing-mode:lr-tb;direction:ltr;text-orientation:mixed;dominant-baseline:auto;baseline-shift:baseline;text-anchor:start;white-space:normal;shape-padding:0;clip-rule:nonzero;display:inline;overflow:visible;visibility:visible;opacity:1;isolation:auto;mix-blend-mode:normal;color-interpolation:sRGB;color-interpolation-filters:linearRGB;solid-color:#000000;solid-opacity:1;vector-effect:none;fill:#000000;fill-opacity:1;fill-rule:nonzero;stroke:none;stroke-width:0.52916664;stroke-linecap:butt;stroke-linejoin:round;stroke-miterlimit:4;stroke-dasharray:none;stroke-dashoffset:0;stroke-opacity:1;color-rendering:auto;image-rendering:auto;shape-rendering:auto;text-rendering:auto;enable-background:accumulate"></path></g></svg>