<svg height='100px' width='100px'  fill="#000000" xmlns="http://www.w3.org/2000/svg" xmlns:xlink="http://www.w3.org/1999/xlink" version="1.1" x="0px" y="0px" viewBox="0 0 100 100" enable-background="new 0 0 100 100" xml:space="preserve"><path fill="#000000" d="M79.192,12.234V7.332H24.667v4.813c-8.951,0.765-16.005,8.283-16.005,17.43  c0,7.887,6.417,14.304,14.304,14.304c3.457,0,6.56-1.51,8.711-3.896V41.1v1.5v3.129v35.11v11.83h39.662v-7.871  c0.004-0.042,0.013-0.083,0.013-0.126V42.6v-2.683c2.152,2.424,5.282,3.962,8.771,3.962c7.887,0,14.304-6.417,14.304-14.304  C94.427,20.693,87.773,13.353,79.192,12.234z M27.667,10.332h48.525v1.737H27.667V10.332z M69.209,28.229H33.883  c-0.196-0.445-0.421-0.879-0.685-1.294c-0.361-0.566-0.785-1.073-1.241-1.543h39.168C70.328,26.211,69.677,27.169,69.209,28.229z   M34.646,31.229h33.78c-0.023,0.252-0.035,0.507-0.039,0.765H34.7C34.696,31.736,34.67,31.483,34.646,31.229z M61.006,89.669h-4.332  v-43.94c0-1.194,0.972-2.165,2.165-2.165c1.195,0,2.167,0.971,2.167,2.165V89.669z M68.352,39.123V39.6H34.677v-4.606h33.675V39.123  z M51.508,43.563c1.194,0,2.166,0.971,2.166,2.165v43.94h-4.331v-43.94C49.343,44.535,50.314,43.563,51.508,43.563z M34.677,80.839  v-35.11c0-1.194,0.972-2.165,2.166-2.165s2.166,0.971,2.166,2.165v43.94h-4.332V80.839z M42.009,45.729  c0-1.194,0.972-2.165,2.167-2.165s2.167,0.971,2.167,2.165v43.94h-4.334V45.729z M68.339,89.669h-4.333v-43.94  c0-1.194,0.972-2.165,2.167-2.165c1.194,0,2.166,0.971,2.166,2.165V89.669z M80.123,40.879c-4.821,0-8.743-3.922-8.743-8.744  c0-3.691,3.003-6.694,6.694-6.694c2.788,0,5.056,2.269,5.056,5.057c0,2.064-1.68,3.744-3.745,3.744  c-1.486,0-2.695-1.209-2.695-2.695c0-1.023,0.833-1.856,1.856-1.856c0.828,0,1.5-0.671,1.5-1.5s-0.672-1.5-1.5-1.5  c-2.678,0-4.856,2.179-4.856,4.856c0,3.141,2.555,5.695,5.695,5.695c3.72,0,6.745-3.025,6.745-6.744  c0-4.442-3.613-8.057-8.056-8.057c-0.005,0-0.01,0.001-0.015,0.001c-0.118-0.03-0.24-0.051-0.367-0.051H25.248  c-0.136,0-0.265,0.024-0.39,0.058c-4.369,0.085-7.899,3.659-7.899,8.049c0,3.719,3.026,6.744,6.745,6.744  c3.141,0,5.695-2.555,5.695-5.695c0-2.678-2.178-4.856-4.855-4.856c-0.829,0-1.5,0.671-1.5,1.5s0.671,1.5,1.5,1.5  c1.023,0,1.855,0.833,1.855,1.856c0,1.486-1.209,2.695-2.695,2.695c-2.065,0-3.745-1.68-3.745-3.744  c0-2.788,2.268-5.057,5.056-5.057c2.301,0,4.414,1.161,5.652,3.104c0.657,1.034,1.007,2.224,1.034,3.448h-0.023v0.797  c-0.337,4.516-4.111,8.089-8.711,8.089c-6.233,0-11.304-5.071-11.304-11.304c0-7.999,6.507-14.506,14.505-14.506h50.755  c7.998,0,14.505,6.507,14.505,14.506C91.427,35.808,86.355,40.879,80.123,40.879z"></path></svg>