<svg height='100px' width='100px'  fill="#000000" xmlns="http://www.w3.org/2000/svg" xmlns:xlink="http://www.w3.org/1999/xlink" version="1.1" x="0px" y="0px" viewBox="0 0 100 100" style="enable-background:new 0 0 100 100;" xml:space="preserve"><path d="M89.125,47.28125h-3.9208984V20.6479492c0-0.3520508-0.1855469-0.6782227-0.4873047-0.8588867L68.546875,10.1416016  c-0.1552734-0.0922852-0.3320312-0.1411133-0.5126953-0.1411133H31.9658203c-0.1806641,0-0.3574219,0.0488281-0.5126953,0.1411133  l-16.1699219,9.6474609c-0.3017578,0.1806641-0.4873047,0.5068359-0.4873047,0.8588867V47.28125H11.125  c-0.5527344,0-1,0.4477539-1,1v6.375c0,0.5522461,0.4472656,1,1,1h3.6708984V60.5c0,0.5522461,0.4472656,1,1,1h0.5527344v27.5004883  c0,0.5522461,0.4472656,1,1,1h8.75c0.5527344,0,1-0.4477539,1-1V61.5h0.5537109c0.5527344,0,1-0.4477539,1-1v-4.84375h14.5400391  V60.5c0,0.5522461,0.4472656,1,1,1h0.5537109v27.5004883c0,0.5522461,0.4472656,1,1,1h8.75c0.5527344,0,1-0.4477539,1-1V61.5  h0.5527344c0.5527344,0,1-0.4477539,1-1v-4.84375h14.5400391V60.5c0,0.5522461,0.4472656,1,1,1h0.5537109v27.5004883  c0,0.5522461,0.4472656,1,1,1h8.75c0.5527344,0,1-0.4477539,1-1V61.5h0.5537109c0.5527344,0,1-0.4477539,1-1v-4.84375H89.125  c0.5527344,0,1-0.4477539,1-1v-6.375C90.125,47.7290039,89.6777344,47.28125,89.125,47.28125z M16.7958984,21.2158203  l15.4453125-9.215332h35.5175781l15.4453125,9.215332V47.28125h-3.9277344V24.6474609  c0-0.3500977-0.1826172-0.6743164-0.4824219-0.8554688l-13.3681641-8.0849609  c-0.15625-0.0947266-0.3349609-0.1445312-0.5175781-0.1445312H35.0917969c-0.1826172,0-0.3613281,0.0498047-0.5175781,0.1445312  l-13.3681641,8.0849609c-0.2998047,0.1811523-0.4824219,0.5053711-0.4824219,0.8554688V47.28125h-3.9277344V21.2158203z   M65.5332031,18.109375l11.0028687,6.6543579L65.5332031,44.1010742V18.109375z M34.5097656,44.1010742l-11.013855-19.3566895  l11.013855-6.6609497V44.1010742z M22.7236328,27.4313965L34.0182495,47.28125H22.7236328V27.4313965z M36.5097656,21.7441406  L48.4246826,47.28125h-11.914917V21.7441406z M36.7657471,17.5625h26.5114746L50.0214844,45.9732666L36.7657471,17.5625z   M63.5332031,21.7441406V47.28125h-11.914917L63.5332031,21.7441406z M77.2763672,27.506897V47.28125H66.0247192  L77.2763672,27.506897z M25.0986328,73.9482422h-3.375c-0.5527344,0-1,0.4477539-1,1s0.4472656,1,1,1h3.375v12.0522461h-6.75v-4.625  H21.3125c0.5527344,0,1-0.4477539,1-1s-0.4472656-1-1-1h-2.9638672v-12.8125H21.3125c0.5527344,0,1-0.4477539,1-1s-0.4472656-1-1-1  h-2.9638672V61.5h6.75V73.9482422z M26.6523438,59.5h-9.8564453v-3.84375h9.8564453V59.5z M53.4960938,73.9482422h-3.375  c-0.5527344,0-1,0.4477539-1,1s0.4472656,1,1,1h3.375v12.0522461h-6.75v-4.625h2.9628906c0.5527344,0,1-0.4477539,1-1  s-0.4472656-1-1-1h-2.9628906v-12.8125h2.9628906c0.5527344,0,1-0.4477539,1-1s-0.4472656-1-1-1h-2.9628906V61.5h6.75V73.9482422z   M55.0488281,59.5h-9.8564453v-3.84375h9.8564453V59.5z M81.8925781,73.9482422h-3.375c-0.5527344,0-1,0.4477539-1,1  s0.4472656,1,1,1h3.375v12.0522461h-6.75v-4.625h2.9628906c0.5527344,0,1-0.4477539,1-1s-0.4472656-1-1-1h-2.9628906v-12.8125  h2.9628906c0.5527344,0,1-0.4477539,1-1s-0.4472656-1-1-1h-2.9628906V61.5h6.75V73.9482422z M83.4462891,59.5h-9.8574219v-3.84375  h9.8574219V59.5z M88.125,53.65625h-76v-4.375h76V53.65625z"></path></svg>