<svg height='100px' width='100px'  fill="#000000" xmlns="http://www.w3.org/2000/svg" xmlns:xlink="http://www.w3.org/1999/xlink" version="1.1" x="0px" y="0px" viewBox="0 0 100 100" style="enable-background:new 0 0 100 100;" xml:space="preserve"><g><path d="M79.82,49.64c-0.13-0.71-0.75-1.23-1.47-1.23H63.49v-2.68l0.33,0.01v-0.15c5.67-0.58,9.69-2.87,11.96-6.82   c6.48-11.29-4.18-32.08-4.63-32.96L70.73,5H53.25l-0.42,0.81c-0.46,0.88-11.12,21.67-4.64,32.96c2.27,3.95,6.29,6.24,11.97,6.82   v0.17l0.33-0.01v2.66H39.92c-0.8,0-1.45,0.62-1.5,1.42c0,0.19-0.11,2.91,1.4,6.54c-2.46-2.79-4.58-6.77-4.44-12.12   c0.01-0.4-0.15-0.79-0.43-1.08c-0.28-0.29-0.67-0.46-1.07-0.46h-6.76c-0.77,0-1.42,0.6-1.49,1.37c-0.01,0.13-0.82,10.32,6.67,19.02   c-2.13-1.42-4.4-3.34-6.51-5.95c-0.28-0.35-0.71-0.56-1.15-0.56c-0.45-0.01-0.88,0.19-1.17,0.54l-3.56,4.27   c-0.36,0.43-0.45,1.03-0.22,1.55c0.07,0.18,7.83,17.59,31.55,16.99V93.5c0,0.83,0.67,1.5,1.5,1.5h17.79c0.83,0,1.5-0.67,1.5-1.5   V78.63C74.18,76.3,82.8,65.8,79.82,49.64z M50.8,37.28C45.78,28.54,53.24,11.86,55.09,8h13.79c1.86,3.86,9.32,20.54,4.3,29.28   c-1.92,3.33-5.6,5.15-10.94,5.42l-0.22,0.01l-0.29-0.01C56.39,42.43,52.71,40.61,50.8,37.28z M63.49,58.17h6.56   c-0.94,2.95-3.44,5.2-6.56,5.97V58.17z M69.49,76.94c-0.3,0.29-0.46,0.68-0.46,1.08V92H54.24V78.37c0-0.41-0.18-0.81-0.48-1.09   c-0.3-0.28-0.7-0.43-1.11-0.41c-20.12,1.19-28.03-10.97-29.81-14.3l1.8-2.15c7.53,8.35,16.15,9.43,16.53,9.48   c0.72,0.08,1.39-0.36,1.61-1.04c0.21-0.69-0.09-1.43-0.72-1.77c-12.1-6.6-13.41-17.54-13.48-21.38h3.81   c0.59,13.27,13.23,18.69,13.36,18.75c0.67,0.28,1.44,0.04,1.84-0.57c0.39-0.61,0.3-1.41-0.23-1.91c-4.4-4.17-5.55-8.42-5.84-10.57   h18.97v3.76h-10.1c-0.42,0-0.83,0.18-1.11,0.5c-0.29,0.31-0.43,0.74-0.38,1.16c0.65,6.04,5.91,10.59,12.24,10.59   c0.2,0,0.39-0.02,0.59-0.03c0.08,0.02,0.17,0.03,0.26,0.03c0.14,0,0.28-0.03,0.41-0.06c5.75-0.56,10.38-4.9,10.98-10.53   c0.05-0.42-0.09-0.85-0.37-1.16c-0.29-0.32-0.69-0.5-1.12-0.5h-8.4v-3.76h13.59C79.37,67.05,69.62,76.81,69.49,76.94z M60.49,58.17   v6.22c-3.9-0.25-7.16-2.76-8.26-6.22H60.49z"></path><path d="M72.7,23.77l-0.11-0.58H51.38l-0.11,0.58c-1.06,5.56-0.76,9.83,0.87,12.68c0.61,1.04,2.44,4.23,9.68,4.59h0.33   c7.25-0.36,9.08-3.55,9.68-4.59C73.47,33.6,73.76,29.33,72.7,23.77z M69.23,34.95c-0.4,0.69-1.62,2.81-7.22,3.09h-0.04   c-5.61-0.28-6.83-2.39-7.23-3.09c-1.08-1.88-1.36-4.89-0.83-8.76h16.15C70.59,30.06,70.31,33.07,69.23,34.95z"></path></g></svg>