<svg height='100px' width='100px'  fill="#000000" xmlns="http://www.w3.org/2000/svg" xmlns:xlink="http://www.w3.org/1999/xlink" version="1.1" x="0px" y="0px" viewBox="0 0 100 100" style="enable-background:new 0 0 100 100;" xml:space="preserve"><g><g><path d="M72,38h-6v-6c0-1.1-0.9-2-2-2H16c-1.1,0-2,0.9-2,2v48c0,5.1,3.8,9.3,8.7,9.9l1.5,3c0.3,0.7,1,1.1,1.8,1.1h28    c0.8,0,1.4-0.4,1.8-1.1l1.5-3c4.9-0.6,8.7-4.8,8.7-9.9v-2h6c9.1,0,14-10.3,14-20C86,48.3,81.1,38,72,38z M72,74h-8    c-1.1,0-2,0.9-2,2v4c0,3.3-2.7,6-6,6c-0.8,0-1.4,0.4-1.8,1.1L52.8,90H27.2l-1.4-2.9c-0.3-0.7-1-1.1-1.8-1.1c-3.3,0-6-2.7-6-6V34    h12v8h-4c-1.1,0-2,0.9-2,2v16c0,1.1,0.9,2,2,2h12c1.1,0,2-0.9,2-2V44c0-1.1-0.9-2-2-2h-4v-8h28v34c0,1.1,0.9,2,2,2h6    c4.9,0,8-4.6,8-12s-3.1-12-8-12c-1.1,0-2,0.9-2,2s0.9,2,2,2c3.8,0,4,6.7,4,8s-0.2,8-4,8h-4V42h6c6.3,0,10,8.1,10,16S78.3,74,72,74    z M36,46v12h-8V46H36z"></path><path d="M39.7,14.5C38,15.9,37,17.9,37,20s1,4.1,2.7,5.5c0.4,0.3,0.8,0.5,1.3,0.5c0.6,0,1.1-0.2,1.5-0.7c0.7-0.9,0.6-2.1-0.3-2.8    C41.5,21.8,41,20.9,41,20s0.5-1.8,1.3-2.5C44,16.1,45,14.1,45,12s-1-4.1-2.7-5.5c-0.8-0.7-2.1-0.6-2.8,0.3    c-0.7,0.9-0.6,2.1,0.3,2.8c0.8,0.7,1.3,1.6,1.3,2.5S40.5,13.8,39.7,14.5z"></path><path d="M50.7,14.5C49,15.9,48,17.9,48,20s1,4.1,2.7,5.5c0.4,0.3,0.8,0.5,1.3,0.5c0.6,0,1.1-0.2,1.5-0.7c0.7-0.9,0.6-2.1-0.3-2.8    C52.5,21.8,52,20.9,52,20s0.5-1.8,1.3-2.5C55,16.1,56,14.1,56,12s-1-4.1-2.7-5.5c-0.9-0.7-2.1-0.6-2.8,0.3    c-0.7,0.9-0.6,2.1,0.3,2.8c0.8,0.7,1.3,1.6,1.3,2.5S51.5,13.8,50.7,14.5z"></path><path d="M28.7,14.5C27,15.9,26,17.9,26,20s1,4.1,2.7,5.5c0.4,0.3,0.8,0.5,1.3,0.5c0.6,0,1.1-0.2,1.5-0.7c0.7-0.9,0.6-2.1-0.3-2.8    C30.5,21.8,30,20.9,30,20s0.5-1.8,1.3-2.5C33,16.1,34,14.1,34,12s-1-4.1-2.7-5.5c-0.8-0.7-2.1-0.6-2.8,0.3    c-0.7,0.9-0.6,2.1,0.3,2.8c0.8,0.7,1.3,1.6,1.3,2.5S29.5,13.8,28.7,14.5z"></path></g></g></svg>