<svg height='100px' width='100px'  fill="#000000" xmlns="http://www.w3.org/2000/svg" xmlns:xlink="http://www.w3.org/1999/xlink" version="1.1" x="0px" y="0px" viewBox="0 0 100 100" enable-background="new 0 0 100 100" xml:space="preserve"><g><path d="M95.8,43.8h-6c-0.1,0-0.2-0.1-0.2-0.2v-6c0-1.2-1-2.2-2.2-2.2h-6c-0.1,0-0.2-0.1-0.2-0.2v-6c0-1.2-1-2.2-2.2-2.2h-6   c-0.1,0-0.2-0.1-0.2-0.2v-6c0-1.2-1-2.2-2.2-2.2h-6c-0.1,0-0.2-0.1-0.2-0.2v-6c0-1.2-1-2.2-2.2-2.2h-6c-0.1,0-0.2-0.1-0.2-0.2v-6   C56.2,3,55.2,2,54,2h-8c-1.2,0-2.2,1-2.2,2.2v6c0,0.1-0.1,0.2-0.2,0.2h-6c-1.2,0-2.2,1-2.2,2.2v6c0,0.1-0.1,0.2-0.2,0.2h-6   c-1.2,0-2.2,1-2.2,2.2v6c0,0.1-0.1,0.2-0.2,0.2h-6c-1.2,0-2.2,1-2.2,2.2v6c0,0.1-0.1,0.2-0.2,0.2h-6c-1.2,0-2.2,1-2.2,2.2v6   c0,0.1-0.1,0.2-0.2,0.2h-6C3,43.8,2,44.8,2,46v8c0,1.2,1,2.2,2.2,2.2h6c0.1,0,0.2,0.1,0.2,0.2v6c0,1.2,1,2.2,2.2,2.2h6   c0.1,0,0.2,0.1,0.2,0.2v6c0,1.2,1,2.2,2.2,2.2h6c0.1,0,0.2,0.1,0.2,0.2v6c0,1.2,1,2.2,2.2,2.2h6c0.1,0,0.2,0.1,0.2,0.2v6   c0,1.2,1,2.2,2.2,2.2h6c0.1,0,0.2,0.1,0.2,0.2v6c0,1.2,1,2.2,2.2,2.2h8c1.2,0,2.2-1,2.2-2.2v-6c0-0.1,0.1-0.2,0.2-0.2h6   c1.2,0,2.2-1,2.2-2.2v-6c0-0.1,0.1-0.2,0.2-0.2h6c1.2,0,2.2-1,2.2-2.2v-6c0-0.1,0.1-0.2,0.2-0.2h6c1.2,0,2.2-1,2.2-2.2v-6   c0-0.1,0.1-0.2,0.2-0.2h6c1.2,0,2.2-1,2.2-2.2v-6c0-0.1,0.1-0.2,0.2-0.2h6c1.2,0,2.2-1,2.2-2.2v-8C98,44.8,97,43.8,95.8,43.8z    M96,54c0,0.1-0.1,0.2-0.2,0.2h-6c-1.2,0-2.2,1-2.2,2.2v6c0,0.1-0.1,0.2-0.2,0.2h-6c-1.2,0-2.2,1-2.2,2.2v6c0,0.1-0.1,0.2-0.2,0.2   h-6c-1.2,0-2.2,1-2.2,2.2v6c0,0.1-0.1,0.2-0.2,0.2h-6c-1.2,0-2.2,1-2.2,2.2v6c0,0.1-0.1,0.2-0.2,0.2h-6c-1.2,0-2.2,1-2.2,2.2v6   c0,0.1-0.1,0.2-0.2,0.2h-8c-0.1,0-0.2-0.1-0.2-0.2v-6c0-1.2-1-2.2-2.2-2.2h-6c-0.1,0-0.2-0.1-0.2-0.2v-6c0-1.2-1-2.2-2.2-2.2h-6   c-0.1,0-0.2-0.1-0.2-0.2v-6c0-1.2-1-2.2-2.2-2.2h-6c-0.1,0-0.2-0.1-0.2-0.2v-6c0-1.2-1-2.2-2.2-2.2h-6c-0.1,0-0.2-0.1-0.2-0.2v-6   c0-1.2-1-2.2-2.2-2.2h-6C4.1,54.2,4,54.1,4,54v-8c0-0.1,0.1-0.2,0.2-0.2h6c1.2,0,2.2-1,2.2-2.2v-6c0-0.1,0.1-0.2,0.2-0.2h6   c1.2,0,2.2-1,2.2-2.2v-6c0-0.1,0.1-0.2,0.2-0.2h6c1.2,0,2.2-1,2.2-2.2v-6c0-0.1,0.1-0.2,0.2-0.2h6c1.2,0,2.2-1,2.2-2.2v-6   c0-0.1,0.1-0.2,0.2-0.2h6c1.2,0,2.2-1,2.2-2.2v-6C45.8,4.1,45.9,4,46,4h8c0.1,0,0.2,0.1,0.2,0.2v6c0,1.2,1,2.2,2.2,2.2h6   c0.1,0,0.2,0.1,0.2,0.2v6c0,1.2,1,2.2,2.2,2.2h6c0.1,0,0.2,0.1,0.2,0.2v6c0,1.2,1,2.2,2.2,2.2h6c0.1,0,0.2,0.1,0.2,0.2v6   c0,1.2,1,2.2,2.2,2.2h6c0.1,0,0.2,0.1,0.2,0.2v6c0,1.2,1,2.2,2.2,2.2h6c0.1,0,0.2,0.1,0.2,0.2V54z"></path><path d="M51.5,15.9c-0.3-0.2-0.8-0.2-1.1,0c-5.8,3.9-11.9,9-17.6,14.7C27.1,36.3,22,42.4,18.1,48.2c-0.2,0.3-0.2,0.8,0,1.1   c3.9,5.8,9,11.9,14.7,17.6c5.7,5.7,11.8,10.8,17.6,14.7c0.2,0.1,0.4,0.2,0.6,0.2s0.4-0.1,0.6-0.2c1.4-0.9,2.8-1.9,4.2-3   c0.4-0.3,0.5-1,0.2-1.4c-0.3-0.4-1-0.5-1.4-0.2c-1.2,0.9-2.4,1.8-3.6,2.6c-5.5-3.8-11.3-8.7-16.8-14.1   c-5.5-5.5-10.3-11.2-14.1-16.8c3.8-5.5,8.7-11.3,14.1-16.8c5.5-5.5,11.2-10.3,16.8-14.1c1.2,0.9,2.6,1.8,3.9,2.8   c0.4,0.3,1.1,0.2,1.4-0.2c0.3-0.4,0.2-1.1-0.2-1.4C54.5,18,53,16.9,51.5,15.9z"></path><path d="M67.8,32.2c0.2,0.2,0.4,0.3,0.7,0.3c0.3,0,0.5-0.1,0.7-0.3c0.4-0.4,0.4-1,0-1.4c0,0-0.1-0.1-0.1-0.1   c-1.3-1.3-2.6-2.6-4.1-3.9c-0.4-0.4-1-0.3-1.4,0.1c-0.4,0.4-0.3,1,0.1,1.4C65.2,29.5,66.5,30.8,67.8,32.2   C67.8,32.1,67.8,32.1,67.8,32.2z"></path><path d="M73.9,35.7c-0.4-0.4-1-0.4-1.4-0.1c-0.4,0.4-0.4,1-0.1,1.4c3.6,4,6.7,7.9,9.4,11.8c-3.8,5.5-8.7,11.3-14.1,16.8   c-0.4,0.4-0.4,1,0,1.4c0.2,0.2,0.5,0.3,0.7,0.3s0.5-0.1,0.7-0.3c5.7-5.7,10.8-11.8,14.7-17.6c0.2-0.3,0.2-0.8,0-1.1   C81.1,44.1,77.8,39.9,73.9,35.7z"></path></g></svg>