<svg height='100px' width='100px'  fill="#000000" xmlns="http://www.w3.org/2000/svg" xmlns:xlink="http://www.w3.org/1999/xlink" version="1.1" x="0px" y="0px" viewBox="0 0 100 100" style="enable-background:new 0 0 100 100;" xml:space="preserve"><g><g><path d="M81.7,77.8c-0.6,0-1.1-0.5-1.1-1.1v-36c0-0.6,0.5-1.1,1.1-1.1c0.6,0,1.1,0.5,1.1,1.1v36    C82.8,77.3,82.3,77.8,81.7,77.8z"></path></g><g><g><path d="M50.3,84.4c-1.7,0-3.5-0.5-5-1.6l1.3-1.9c2.9,2.1,7,1.3,9-1.6c2.1-2.9,1.3-7-1.6-9     c-1.4-1-3.1-1.4-4.7-1.1L49,66.9c2.3-0.4,4.5,0.2,6.4,1.5c4,2.8,4.9,8.3,2.2,12.2C55.8,83.1,53.1,84.4,50.3,84.4z"></path></g><g><path d="M41.6,78.3c-1.7,0-3.5-0.5-5-1.6c-4-2.8-4.9-8.3-2.2-12.2c2.8-4,8.3-4.9,12.2-2.2     c4,2.8,4.9,8.3,2.2,12.2C47.1,77,44.4,78.3,41.6,78.3z M41.7,63.1c-2,0-4.1,1-5.3,2.8c-2.1,2.9-1.3,7,1.6,9c2.9,2.1,7,1.3,9-1.6     c1-1.4,1.4-3.1,1.1-4.8c-0.3-1.7-1.2-3.2-2.7-4.2C44.2,63.4,42.9,63.1,41.7,63.1z"></path></g><g><path d="M28,70.6c-4-2.8-4.9-8.2-2.2-12.2c2.8-4,8.3-4.9,12.2-2.2c1.9,1.3,3.1,3.3,3.6,5.5l-2.2,0.4     c-0.3-1.7-1.3-3.1-2.6-4.1c-2.9-2.1-7-1.3-9,1.6c-2.1,2.9-1.3,7,1.6,9L28,70.6z"></path></g><g><path d="M23,83.5c-3.1-3-3.5-7.7-1-11.3c1.3-1.9,3.4-3.2,5.7-3.6c2.3-0.4,4.6,0.1,6.6,1.5     c0.3,0.2,0.6,0.4,0.8,0.7l-1.5,1.7c-0.2-0.2-0.4-0.3-0.6-0.5c-1.4-1-3.1-1.4-4.8-1.1c-1.7,0.3-3.2,1.2-4.2,2.7     c-1.8,2.6-1.5,6.1,0.8,8.3L23,83.5z"></path></g><g><path d="M38.7,92.7c-1.3,0-2.5-0.3-3.8-0.9l1-2.1c2.9,1.4,6.3,0.5,8.1-2.1c1-1.4,1.4-3.1,1.1-4.8     c-0.3-1.7-1.2-3.2-2.7-4.2c-0.2-0.1-0.4-0.3-0.6-0.4l1.1-2c0.3,0.2,0.6,0.3,0.8,0.5c1.9,1.3,3.2,3.4,3.6,5.7     c0.4,2.3-0.1,4.6-1.5,6.6C44.1,91.3,41.4,92.7,38.7,92.7z"></path></g><g><path d="M27.9,97.9c-1.8,0-3.5-0.5-5-1.6c-4-2.8-4.9-8.3-2.2-12.2c2.8-4,8.3-4.9,12.2-2.2     c4,2.8,4.9,8.3,2.2,12.2c-1.3,1.9-3.4,3.2-5.7,3.6C28.9,97.8,28.4,97.9,27.9,97.9z M27.9,82.6c-2,0-4.1,1-5.3,2.8     c-2.1,2.9-1.3,7,1.6,9c1.4,1,3.1,1.4,4.8,1.1c1.7-0.3,3.2-1.2,4.2-2.7c2.1-2.9,1.3-7-1.6-9C30.5,83,29.2,82.6,27.9,82.6z"></path></g><g><path d="M50.4,65.8c-1.8,0-3.5-0.5-5-1.6c-1.9-1.3-3.2-3.4-3.6-5.7c-0.4-2.3,0.1-4.6,1.5-6.6     c2.8-4,8.3-4.9,12.2-2.2c1.9,1.3,3.2,3.4,3.6,5.7c0.4,2.3-0.1,4.6-1.5,6.6c-1.3,1.9-3.4,3.2-5.7,3.6     C51.4,65.8,50.9,65.8,50.4,65.8z M50.4,50.6c-2,0-4.1,1-5.3,2.8c-1,1.4-1.4,3.1-1.1,4.8c0.3,1.7,1.2,3.2,2.7,4.2     c1.4,1,3.1,1.4,4.8,1.1c1.7-0.3,3.2-1.2,4.2-2.7h0c1-1.4,1.4-3.1,1.1-4.8c-0.3-1.7-1.2-3.2-2.7-4.2C53,50.9,51.7,50.6,50.4,50.6z     "></path></g><g><path d="M31.3,56.4c-1.6-3-1.4-6.5,0.5-9.3c2.8-4,8.2-4.9,12.2-2.2c1.8,1.3,3.1,3.1,3.5,5.3l-2.2,0.5     c-0.4-1.6-1.3-3-2.6-3.9c-2.9-2.1-7-1.3-9,1.6c-1.4,2-1.6,4.7-0.4,6.9L31.3,56.4z"></path></g><g><path d="M59.2,74.4c-0.6,0-1.2-0.1-1.8-0.2l0.5-2.2c2.6,0.5,5.2-0.5,6.7-2.6c1-1.4,1.4-3.1,1.1-4.8     c-0.3-1.7-1.2-3.2-2.7-4.2c-1.4-1-3.1-1.4-4.8-1.1L57.8,57c2.3-0.4,4.6,0.2,6.4,1.5c1.9,1.3,3.2,3.4,3.6,5.7     c0.4,2.3-0.1,4.6-1.5,6.6C64.7,73.1,62,74.4,59.2,74.4z"></path></g><g><path d="M34.3,81.1c-0.2,0-0.5-0.1-0.7-0.2c-0.5-0.4-0.6-1.1-0.3-1.6l2.9-4.2c0.4-0.5,1.1-0.6,1.6-0.3     c0.5,0.4,0.6,1.1,0.3,1.6l-2.9,4.2C35,81,34.7,81.1,34.3,81.1z"></path></g><g><path d="M15.5,77.1c-2.1,0-4-0.3-4.2-0.3l-2.1-0.4l3-3.1c-6.8,0.8-11-0.6-11.2-0.7L0,72.3l0.3-1.1     C1.5,67.5,4.5,64.7,7,63l-5.2,0l1.4-1.8c3.1-4.1,6.7-6.3,9.8-7.4C6,52.1,2.4,49.1,2.2,48.9l-1-0.9l1.1-0.9     c0.2-0.2,4.2-3.3,9.4-4.6l-2.3-2.9l1.3-0.6c7-3.5,13.1-2.7,16.5-1.7L22.8,29l2.4,0.5c3.7,0.8,6.5,2.3,8.4,3.6L33.1,30l2,1.1     c12.2,6.7,11,15.4,11,15.8c-0.1,0.6-0.7,1.1-1.3,1c-0.6-0.1-1-0.7-1-1.3c0-0.3,0.8-6.6-7.8-12.2l0.7,4.6l-2.4-2.4     c0,0-2.8-2.6-7.2-4.2l2.9,5.4c0.3,0.6,0.2,1.3-0.3,1.8c-0.4,0.5-1.1,0.6-1.7,0.4c-2.3-0.9-8.1-2.5-15.2,0.4l2.9,3.6l-2,0.3     c-3.8,0.6-7.2,2.5-8.9,3.6c2.2,1.4,7.2,3.9,14.9,4.4c0.7,0,1.2,0.6,1.1,1.3c0,0.7-0.6,1.2-1.2,1.2c-2.4-0.1-8.2,0.5-13.2,5.8     l5.4,0l0.2,0.9c0.1,0.5-0.1,1.1-0.7,1.3c-0.7,0.3-6.3,3.1-8.5,7.8c2,0.4,6.2,0.9,12-0.2c0.5-0.1,1.1,0.1,1.3,0.6     c0.3,0.5,0.2,1.1-0.2,1.5L14,74.8c1.1,0.1,2.5,0.1,3.7-0.1c0.6-0.1,1.2,0.3,1.3,0.9c0.1,0.6-0.3,1.2-0.9,1.3     C17.3,77.1,16.4,77.1,15.5,77.1z"></path></g><g><path d="M75.6,47.1c-0.2,0-0.3,0-0.5-0.1c-3.2-1.4-6.2-2.4-8.9-3.2c-11.5-3-18.6-12-18.9-12.4     c-0.4-0.5-0.3-1.2,0.2-1.6c0.5-0.4,1.2-0.3,1.6,0.2c0.1,0.1,7,8.8,17.7,11.6c2.9,0.8,6,1.9,9.3,3.3c0.6,0.3,0.8,0.9,0.6,1.5     C76.5,46.8,76,47.1,75.6,47.1z"></path></g><g><path d="M56.7,49.2c-0.2,0-0.4-0.1-0.6-0.2c-0.5-0.3-0.7-1-0.4-1.6l0.9-1.4c4.5-6.2,10-4.4,10.3-4.4     c0.6,0.2,0.9,0.9,0.7,1.4c-0.2,0.6-0.9,0.9-1.4,0.7c-0.2-0.1-4.2-1.3-7.6,3.5l-0.9,1.4C57.4,49,57.1,49.2,56.7,49.2z"></path></g></g><g><g><path d="M81.7,41.8c-1.7,0-3.4-0.4-5.1-1.2c-4.3-2.1-7.4-6.4-8.1-11.4c-1.6-10.9,2-25.5,2.1-26.1     c0.2-0.6,0.8-1,1.4-0.8c0.6,0.2,1,0.8,0.8,1.4c0,0.1-3.6,14.9-2.1,25.3c0.6,4.3,3.2,7.9,6.8,9.7c2.8,1.3,5.5,1.3,8.3,0     c3.6-1.8,6.2-5.4,6.8-9.7c1.5-10.4-2.1-25.1-2.1-25.3c-0.2-0.6,0.2-1.2,0.8-1.4C92,2,92.6,2.4,92.8,3c0.2,0.6,3.7,15.3,2.1,26.1     c-0.7,5-3.8,9.3-8.1,11.4C85.1,41.3,83.4,41.8,81.7,41.8z"></path></g><g><path d="M88.7,16.9h-14c-0.6,0-1.1-0.5-1.1-1.1c0-0.6,0.5-1.1,1.1-1.1h14c0.6,0,1.1,0.5,1.1,1.1     C89.8,16.4,89.3,16.9,88.7,16.9z"></path></g></g><g><path d="M81.7,81.3c-6.4,0-12.4-0.8-15.5-2.2c-0.6-0.2-0.8-0.9-0.6-1.5c0.2-0.6,0.9-0.8,1.5-0.6    c2.9,1.2,8.5,2,14.6,2c9.7,0,15.5-1.9,16-2.9c-0.5-1-6.3-2.9-16-2.9c-0.6,0-1.1-0.5-1.1-1.1c0-0.6,0.5-1.1,1.1-1.1    c6.8,0,18.3,1.1,18.3,5.2C100,80.2,88.5,81.3,81.7,81.3z"></path></g></g></svg>