<svg height='100px' width='100px'  fill="#000000" xmlns="http://www.w3.org/2000/svg" xmlns:xlink="http://www.w3.org/1999/xlink" version="1.1" x="0px" y="0px" viewBox="0 0 64 64" enable-background="new 0 0 64 64" xml:space="preserve"><g><path d="M32,61c7.709,0,14.97-2.998,20.445-8.441c0.392-0.389,0.394-1.022,0.004-1.414c-0.006-0.006-0.014-0.007-0.02-0.013   L33.411,32.113l19.156-19.146c0.39-0.39,0.391-1.022,0.001-1.413c-2.683-2.693-5.791-4.798-9.236-6.254C39.746,3.774,35.934,3,32,3   C16.01,3,3,16.009,3,32S16.01,61,32,61z M33,9.629c5.299,0.233,10.259,2.299,14.172,5.903L33,29.696V9.629z M31,29.702   L16.818,15.521C20.586,12.047,25.542,9.847,31,9.605V29.702z M15.407,16.938L29.59,31.12H9.603   C9.814,25.673,11.973,20.718,15.407,16.938z M29.576,33.12L15.518,47.179c-3.446-3.74-5.642-8.649-5.909-14.059H29.576z M31,34.524   v19.87c-5.401-0.238-10.312-2.394-14.065-5.805L31,34.524z M33,34.53l14.051,14.051c-3.887,3.534-8.803,5.56-14.051,5.79V34.53z    M32,5c3.663,0,7.212,0.72,10.551,2.141c2.906,1.229,5.554,2.952,7.884,5.13l-1.831,1.83C44.065,9.89,38.209,7.58,32,7.58   C18.535,7.58,7.58,18.535,7.58,32S18.535,56.42,32,56.42c6.157,0,11.97-2.271,16.482-6.407l1.821,1.821   C45.298,56.459,38.84,59,32,59C17.112,59,5,46.888,5,32S17.112,5,32,5z"></path><path d="M15.13,26.583c0.029-0.017,3.095-1.566,4.609,0.592c1.753,2.496,3.767,2.847,4.761,2.847c0.36,0,0.588-0.046,0.62-0.053   c0.539-0.117,0.882-0.65,0.765-1.19c-0.118-0.539-0.647-0.882-1.19-0.764c-0.014,0.001-1.711,0.298-3.318-1.989   c-2.007-2.856-5.562-2.046-7.164-1.22c-0.49,0.253-0.683,0.857-0.43,1.348C14.035,26.643,14.639,26.836,15.13,26.583z"></path><path d="M29.441,40.046c-0.156-0.529-0.708-0.834-1.241-0.678c-0.53,0.156-0.834,0.711-0.679,1.241   c0.01,0.033,0.948,3.336-1.455,4.414c-3.792,1.7-3.768,4.628-3.765,4.752c0.013,0.543,0.457,0.966,1,0.966c0.001,0,0.003,0,0.004,0   c0.545-0.002,0.987-0.45,0.996-0.995c0.001-0.072,0.056-1.767,2.583-2.899C30.067,45.422,29.948,41.775,29.441,40.046z"></path><path d="M11.32,29.594c0.195,0.195,0.451,0.292,0.707,0.292s0.512-0.098,0.707-0.293l0.551-0.551c0.391-0.391,0.391-1.024,0-1.415   c-0.391-0.39-1.023-0.39-1.414,0L11.32,28.18C10.93,28.571,10.93,29.204,11.32,29.594z"></path><path d="M24.305,17.836l-0.551,0.551c-0.391,0.391-0.391,1.024,0,1.415c0.195,0.195,0.451,0.292,0.707,0.292   s0.512-0.098,0.707-0.293l0.551-0.551c0.391-0.391,0.391-1.024,0-1.415C25.328,17.446,24.695,17.445,24.305,17.836z"></path><path d="M40.98,18.111c-0.391-0.39-1.023-0.39-1.414,0l-0.551,0.551c-0.391,0.391-0.391,1.024,0,1.415   c0.195,0.195,0.451,0.292,0.707,0.292s0.512-0.098,0.707-0.293l0.551-0.551C41.371,19.134,41.371,18.501,40.98,18.111z"></path><path d="M23.105,16.754c0.195,0.195,0.451,0.292,0.707,0.292s0.512-0.098,0.707-0.293l0.551-0.551c0.391-0.391,0.391-1.024,0-1.415   c-0.391-0.39-1.023-0.39-1.414,0l-0.551,0.551C22.715,15.73,22.715,16.363,23.105,16.754z"></path><path d="M27.717,48.066l-0.551,0.552c-0.39,0.391-0.39,1.024,0.002,1.414c0.194,0.195,0.45,0.292,0.706,0.292   s0.513-0.098,0.708-0.293l0.551-0.552c0.39-0.391,0.39-1.024-0.002-1.414C28.742,47.674,28.107,47.674,27.717,48.066z"></path><path d="M15.281,22.92c0.196,0.202,0.457,0.303,0.718,0.303c0.251,0,0.502-0.094,0.696-0.283c0.396-0.385,0.406-1.018,0.021-1.414   l-0.345-0.355c-0.385-0.396-1.018-0.406-1.414-0.021c-0.396,0.385-0.406,1.018-0.021,1.414L15.281,22.92z"></path><path d="M37.67,18.851c-0.385-0.396-1.018-0.405-1.414-0.021s-0.406,1.018-0.021,1.414l0.345,0.355   c0.196,0.202,0.457,0.303,0.718,0.303c0.251,0,0.502-0.094,0.696-0.283c0.396-0.385,0.406-1.018,0.021-1.414L37.67,18.851z"></path><path d="M26.605,18.31c0.196,0.202,0.457,0.303,0.718,0.303c0.251,0,0.502-0.094,0.696-0.283c0.396-0.385,0.406-1.018,0.021-1.414   l-0.345-0.355c-0.385-0.396-1.018-0.406-1.414-0.021c-0.396,0.385-0.406,1.018-0.021,1.414L26.605,18.31z"></path><path d="M36.479,40.331l-0.345-0.354c-0.385-0.396-1.018-0.405-1.414-0.02c-0.396,0.385-0.404,1.018-0.02,1.414l0.345,0.354   c0.196,0.202,0.456,0.303,0.717,0.303c0.251,0,0.503-0.094,0.697-0.283C36.854,41.36,36.863,40.727,36.479,40.331z"></path><path d="M16.222,38.418c0.55-0.045,0.959-0.529,0.913-1.079c-0.045-0.55-0.522-0.966-1.079-0.914l-0.777,0.064   c-0.55,0.045-0.959,0.529-0.913,1.079c0.043,0.522,0.48,0.917,0.995,0.917c0.027,0,0.056-0.001,0.084-0.003L16.222,38.418z"></path><path d="M19.782,40.524c0.022,0,0.045,0,0.068-0.002c0.551-0.037,0.968-0.514,0.931-1.064l-0.033-0.494   c-0.037-0.551-0.497-0.974-1.065-0.931c-0.551,0.037-0.968,0.514-0.931,1.064l0.033,0.494   C18.821,40.12,19.261,40.524,19.782,40.524z"></path><path d="M22.123,38.3c0.021,0,0.044,0,0.066-0.002c0.551-0.036,0.969-0.512,0.933-1.063l-0.032-0.494   c-0.036-0.551-0.495-0.967-1.063-0.933c-0.551,0.036-0.969,0.512-0.933,1.063l0.032,0.494C21.16,37.894,21.601,38.3,22.123,38.3z"></path><path d="M38.218,42.346c-0.386-0.396-1.013-0.403-1.409-0.023c-0.396,0.382-0.409,1.014-0.029,1.413   c0.011,0.012,1.116,1.188,1.017,2.501c-0.055,0.723-0.486,1.403-1.283,2.021c-0.437,0.338-0.517,0.966-0.178,1.403   c0.196,0.254,0.492,0.387,0.791,0.387c0.214,0,0.43-0.068,0.611-0.209c1.271-0.984,1.961-2.152,2.055-3.471   C39.948,44.156,38.288,42.418,38.218,42.346z"></path><path d="M36.271,16.078l0.526,0.491l0.633-0.343c0.14-0.076,1.374-0.781,1.532-2.056c0.068-0.551-0.048-1.389-0.987-2.254   l-0.618-0.568l-0.666,0.509c-1.01,0.771-1.255,1.598-1.282,2.155C35.351,15.186,36.176,15.99,36.271,16.078z"></path></g></svg>