<svg height='100px' width='100px'  fill="#000000" xmlns="http://www.w3.org/2000/svg" viewBox="0 0 64 64" x="0px" y="0px"><g><path d="M27,4a2.981,2.981,0,0,0-2,.78,2.954,2.954,0,0,0-4,0,2.954,2.954,0,0,0-4,0A2.96,2.96,0,0,0,12.78,5H6V15h6V31H7V42A15.028,15.028,0,0,0,18,56.459V61H46V56.459A15.028,15.028,0,0,0,57,42V31H30V15H62V5H29.22A2.985,2.985,0,0,0,27,4ZM23,6a1,1,0,0,1,1,1V31H22V7A1,1,0,0,1,23,6ZM19,6a1,1,0,0,1,1,1V31H18V7A1,1,0,0,1,19,6ZM8,7h4V9H8Zm0,6V11h4v2Zm6-6a1,1,0,0,1,2,0V31H14ZM55,42A13.015,13.015,0,0,1,42,55v2h2v2H20V57h2V55A13.015,13.015,0,0,1,9,42V37H55Zm0-7H9V33H55ZM26,31V7a1,1,0,0,1,2,0V31ZM60,13H30V11H60Zm0-6V9H30V7Z"></path><rect x="11" y="39" width="2" height="2"></rect><rect x="15" y="39" width="2" height="2"></rect></g></svg>