<svg height='100px' width='100px'  fill="#000000" xmlns="http://www.w3.org/2000/svg" data-name="Layer 1" viewBox="0 0 64 64" x="0px" y="0px"><path d="M44,61H12a4,4,0,0,1,0-8H44a4,4,0,0,1,0,8ZM12,55a2,2,0,0,0,0,4H44a2,2,0,0,0,0-4Z"></path><path d="M51,49H43a1,1,0,0,1-1-1V24a1,1,0,0,1,1-1h8a5.0059,5.0059,0,0,1,5,5V44A5.0059,5.0059,0,0,1,51,49Zm-7-2h7a3.0033,3.0033,0,0,0,3-3V28a3.0033,3.0033,0,0,0-3-3H44Z"></path><path d="M51,45H43a1,1,0,0,1-1-1V28a1,1,0,0,1,1-1h8a1,1,0,0,1,1,1V44A1,1,0,0,1,51,45Zm-7-2h6V29H44Z"></path><path d="M23,25H13a1,1,0,0,1,0-2H23a1,1,0,0,1,0,2Z"></path><path d="M36.0039,39c-.0723,0-.1445-.002-.2178-.0059A4.0891,4.0891,0,0,1,32,34.83V20a1,1,0,0,0-2,0v7a4.0154,4.0154,0,0,1-1.2471,2.9019,3.9406,3.9406,0,0,1-2.9668,1.0922A4.0891,4.0891,0,0,1,22,26.83V20a1.0009,1.0009,0,0,0-1-1H12a4.0181,4.0181,0,0,1-2.9014-1.2461,3.9712,3.9712,0,0,1-1.0937-2.9668,4.0867,4.0867,0,0,1,4.0957-3.7866A5.0077,5.0077,0,0,1,17,7a4.925,4.925,0,0,1,2.0312.44,5.2048,5.2048,0,0,1,.2178-.9873A4.9993,4.9993,0,0,1,28,4.9985a4.9948,4.9948,0,0,1,8.751,1.4546,5.2048,5.2048,0,0,1,.2178.9873A4.925,4.925,0,0,1,39,7a5.0077,5.0077,0,0,1,4.8994,4.0005,4.0867,4.0867,0,0,1,4.0957,3.7861,3.9716,3.9716,0,0,1-1.0937,2.9673A4.0181,4.0181,0,0,1,44,19H41a1.0009,1.0009,0,0,0-1,1V35a4.0154,4.0154,0,0,1-1.2471,2.9019A3.9624,3.9624,0,0,1,36.0039,39ZM31,17a3.0033,3.0033,0,0,1,3,3V34.83a2.1188,2.1188,0,0,0,1.8916,2.167,2.0218,2.0218,0,0,0,1.4844-.5459A1.9827,1.9827,0,0,0,38,35V20a3.0033,3.0033,0,0,1,3-3h3a2.0013,2.0013,0,0,0,1.9971-2.1094A2.118,2.118,0,0,0,43.83,13H43a1,1,0,0,1-1-1,3.0033,3.0033,0,0,0-3-3,2.967,2.967,0,0,0-2.5811,1.5034A1.001,1.001,0,0,1,35.5547,11h-.1094a1,1,0,0,1-.8642-1.5029,2.8886,2.8886,0,0,0,.2675-2.4287A2.9983,2.9983,0,0,0,29,8a1,1,0,0,1-2,0,2.9974,2.9974,0,0,0-5.8486-.9316,2.8886,2.8886,0,0,0,.2675,2.4287A1,1,0,0,1,20.5547,11h-.1094a1.001,1.001,0,0,1-.8642-.4966A2.967,2.967,0,0,0,17,9a3.0033,3.0033,0,0,0-3,3,1,1,0,0,1-1,1h-.83a2.1181,2.1181,0,0,0-2.167,1.8911A2.0013,2.0013,0,0,0,12,17h9a3.0033,3.0033,0,0,1,3,3v6.83a2.1188,2.1188,0,0,0,1.8916,2.167,2.03,2.03,0,0,0,1.4844-.5459A1.9827,1.9827,0,0,0,28,27V20A3.0033,3.0033,0,0,1,31,17Z"></path><path d="M43,55H13a1,1,0,0,1-1-1V18a1,1,0,0,1,1-1h8a3.0033,3.0033,0,0,1,3,3v7a1.9827,1.9827,0,0,0,.624,1.4512,2.0175,2.0175,0,0,0,1.4844.5459A2.1188,2.1188,0,0,0,28,26.83V20a3,3,0,0,1,6,0V34.83a2.1188,2.1188,0,0,0,1.8916,2.167,2.0218,2.0218,0,0,0,1.4844-.5459A1.9827,1.9827,0,0,0,38,35V20a3.0033,3.0033,0,0,1,3-3h2a1,1,0,0,1,1,1V54A1,1,0,0,1,43,55ZM14,53H42V19H41a1.0009,1.0009,0,0,0-1,1V35a4.0154,4.0154,0,0,1-1.2471,2.9019,3.9294,3.9294,0,0,1-2.9668,1.0922A4.0891,4.0891,0,0,1,32,34.83V20a1,1,0,0,0-2,0v6.83a4.0891,4.0891,0,0,1-3.7861,4.164,3.946,3.946,0,0,1-2.9668-1.0922A4.0154,4.0154,0,0,1,22,27V20a1.0009,1.0009,0,0,0-1-1H14Z"></path><path d="M33,25H29a1,1,0,0,1,0-2h4a1,1,0,0,1,0,2Z"></path><path d="M43,25H39a1,1,0,0,1,0-2h4a1,1,0,0,1,0,2Z"></path><path d="M43,49H13a1,1,0,0,1,0-2H43a1,1,0,0,1,0,2Z"></path><circle cx="35" cy="44" r="1"></circle><circle cx="31" cy="44" r="1"></circle><circle cx="39" cy="44" r="1"></circle><circle cx="17" cy="29" r="1"></circle><circle cx="29" cy="14" r="1"></circle><circle cx="33" cy="14" r="1"></circle></svg>