<svg height='100px' width='100px'  fill="#000000" xmlns="http://www.w3.org/2000/svg" viewBox="0 0 512 512" x="0px" y="0px"><defs><style>.cls-1,.cls-2{stroke:#000000;stroke-linecap:round;stroke-linejoin:round;stroke-width:20px;}.cls-2{fill:none;}</style></defs><title>orange-fruit-cerebration-china-chinese-new year</title><circle class="cls-1" cx="349.5" cy="415.48" r="5.47"></circle><circle class="cls-1" cx="399.48" cy="384.37" r="5.47"></circle><circle class="cls-1" cx="351.5" cy="359.79" r="5.47"></circle><path class="cls-2" d="M256,214.85s-7-109.07,59.07-187.46"></path><path class="cls-2" d="M296.52,201.11s-14.31,13.74-40.73,13.74-40.74-13.74-40.74-13.74"></path><path class="cls-2" d="M222.64,44.74c43,43,32.3,123.34,32.3,123.34s-80.36,10.68-123.34-32.3S99.3,12.44,99.3,12.44,179.66,1.76,222.64,44.74Z"></path><path class="cls-2" d="M256,130.8h-.38a208,208,0,0,1-.68,37.28s-60.12,8-104.18-17.68C78,179.61,28.37,239.11,28.37,313.09c0,106,101.92,187.65,227.63,187.65s227.63-81.65,227.63-187.65S381.71,130.8,256,130.8Z"></path></svg>