<svg height='100px' width='100px'  fill="#000000" xmlns="http://www.w3.org/2000/svg" data-name="Your Icon" viewBox="0 0 80.33 89.97" x="0px" y="0px"><title>Italian-Coffee-Maker-Icon</title><path d="M89.73,28L75.81,16.73a1.19,1.19,0,0,0-1.26-.15l-7.79,3.66L49.1,16l2.33-9.48A1.19,1.19,0,0,0,50.28,5H38.45a1.19,1.19,0,0,0-1.16,1.48L39.62,16,21.28,20.4h0l0,0-0.06,0L10.62,24.18a1.19,1.19,0,0,0-.21,2.14l5.4,3.23L23.49,45.2l0.91,6.9a1.19,1.19,0,0,0,1.18,1h0.61v7.44H25.58a1.19,1.19,0,0,0-1.18,1L20.38,92a1.19,1.19,0,0,0,1,1.33l11,1.63h24l11-1.63a1.19,1.19,0,0,0,1-1.33l-4-30.39a1.19,1.19,0,0,0-1.18-1H62.53V53.14h0.61a1.19,1.19,0,0,0,1.18-1l2.51-19,8-4.37,3.34,2.71L70.89,47.62l-2.68-.12a1.21,1.21,0,0,0-1,.43A1.19,1.19,0,0,0,67,49l1.43,5.88a1.19,1.19,0,0,0,1,.9l6.17,0.76h0.15a1.19,1.19,0,0,0,1.06-.66L90,29.48A1.19,1.19,0,0,0,89.73,28ZM48.76,7.4L47,14.7h-5.2L40,7.4h8.79Zm-4.4,9.88,12.79,3.09H31.57Zm8.77,33.48H36.27l-2.11-28H55.25Zm7,2.38v7.44H28.57V53.14H60.15ZM17.79,28.2a1.19,1.19,0,0,0-.46-0.5L13.8,25.58l6.77-2.41L22.51,37.8Zm5.13-5.45h8.85l2.11,28H26.62Zm8.52,69.68-8.54-1.27L26.62,63h6.92Zm2.38,0.18L35.93,63H52.79L54.91,92.6H33.81Zm32-1.45-8.54,1.27L55.18,63H62.1ZM62.1,50.75H55.53l2.11-28h8.17Zm13,3.28-4.52-.55-0.86-3.53L71.59,50a1.2,1.2,0,0,0,1.14-.7l7.94-17.71a1.19,1.19,0,0,0-.34-1.41l-4.67-3.79a1.19,1.19,0,0,0-1.32-.12l-7.13,3.91,1.07-8.06,6.6-3.1L87.48,29.27Z" transform="translate(-9.83 -5.01)"></path><path d="M44.36,65.14a3.94,3.94,0,1,0,3.94,3.94A3.94,3.94,0,0,0,44.36,65.14Zm0,5.49a1.55,1.55,0,1,1,1.55-1.55A1.56,1.56,0,0,1,44.36,70.63Z" transform="translate(-9.83 -5.01)"></path></svg>