<svg height='100px' width='100px'  fill="#000000" xmlns="http://www.w3.org/2000/svg" xmlns:xlink="http://www.w3.org/1999/xlink" version="1.1" x="0px" y="0px" viewBox="0 0 100 100" enable-background="new 0 0 100 100" xml:space="preserve"><path d="M87.2,27.551l0.1,0.1l0.1,0.09l0.19,0.18C87.46,27.791,87.33,27.671,87.2,27.551z M87.3,27.651c0,0-0.22-0.21-0.29-0.27  c-7.44-6.83-18.55-8.31-27.63-4.01l-0.17,0.08c-0.02,0.01-0.03,0.01-0.04,0.01c-2.25,1.09-4.64,1.76-7.12,1.98  c0.41-5.24,3.19-10.16,7.41-13.28c2.04-1.51,4.38-2.57,6.86-3.11c1.3-0.29,2.55-0.27,3.87-0.35c1.12-0.06,2.25-0.53,2.32-1.81  c0.12-2.57-3.75-1.87-5.25-1.67c-2.61,0.36-5.15,1.19-7.46,2.46c-4.31,2.37-7.8,6.21-9.71,10.75c-3.42-8.2-11.77-13.59-20.65-13.41  l-1.73,0.04l-0.03,1.72c-0.11,5.17,1.66,10.25,4.93,14.26c-8.13-0.88-16.54,2.34-21.82,8.62c-5.57,6.62-7.32,16.2-4.37,24.35  c0.01,0.04,10.86,29.38,10.86,29.38c1.93,4.54,5.73,8.18,10.27,10.07c4.86,2.02,11.38,2.29,15.98-0.59  c4.08-1.89,8.96-1.89,13.03,0.04c9.41,5.28,22.06,0.09,26.14-9.51c0,0,0,0,0-0.01l10.82-29.26c0.01-0.05,0.03-0.08,0.04-0.12  C96.86,44.911,94.35,34.311,87.3,27.651z M31.35,8.941c-0.01-0.09-0.01-0.18-0.02-0.27c0.09,0.01,0.18,0.02,0.27,0.02  c8.73,0.82,15.86,8.02,16.54,16.77C39.39,24.891,32.15,17.581,31.35,8.941z M90.32,52.361c0,0.03-10.95,29.66-10.95,29.66  c-3.36,7.84-13.07,11.54-20.78,7.89c-0.01,0-0.01,0-0.01,0l-0.39-0.2c-0.01-0.01-0.02-0.01-0.03-0.02c-5.12-2.43-11.22-2.43-16.34,0  c-7.5,4.28-17.91,0.1-21.19-7.62c0,0-10.84-29.35-10.86-29.38c-2.86-8.04-0.36-17.52,6.11-23.08c6.35-5.47,15.66-6.52,23.2-2.99  l0.16,0.08c6.72,3.24,14.77,3.24,21.48,0.01c0.01-0.01,0.02-0.01,0.02-0.01c0.01-0.01,0.02-0.01,0.02-0.01v-0.01l0.17-0.07  c7.39-3.57,16.65-2.46,22.96,2.81C90.41,34.881,93.03,44.311,90.32,52.361z M31.33,8.671C31.34,8.761,31.42,8.681,31.33,8.671  L31.33,8.671z M31.33,8.671C31.34,8.761,31.42,8.681,31.33,8.671L31.33,8.671z M25.44,55.093c-1.091-0.421-1.306-1.898-1.578-2.881  c-0.402-1.454-0.67-2.945-0.8-4.448c-0.093-1.066-0.387-2.727,0.533-3.545c0.811-0.72,2.131-0.477,2.7,0.417  c0.63,0.989,0.318,2.726,0.472,3.856c0.195,1.43,0.538,2.84,1.023,4.199c0.02,0.047,0.038,0.094,0.054,0.142  C28.374,54.304,26.875,55.647,25.44,55.093z"></path></svg>