<svg height='100px' width='100px'  fill="#000000" xmlns="http://www.w3.org/2000/svg" xmlns:xlink="http://www.w3.org/1999/xlink" version="1.1" x="0px" y="0px" viewBox="0 0 32 32" enable-background="new 0 0 32 32" xml:space="preserve"><path d="M28.056,1.359c-2.396-0.693-4.572,0.755-6.302,2.267c-1.304,0.558-2.644,1.321-3.895,2.223  C17.804,5.8,17.736,5.77,17.651,5.806c-0.626,0.263-1.103,0.852-1.598,1.307c-0.399,0.367-0.858,0.728-1.212,1.156  c-0.156-0.055-0.338-0.017-0.374,0.189c-0.008,0.044-0.021,0.083-0.029,0.126c-0.384,0.266-0.647,0.788-0.906,1.152  c-0.252,0.354-0.539,0.704-0.74,1.093c-0.026-0.023-0.058-0.04-0.094-0.04c-0.54,0.003-0.978,0.645-1.33,0.995  c-0.461,0.459-0.976,0.918-1.32,1.474c-0.098-0.015-0.203,0.014-0.262,0.116c-0.148,0.254-0.21,0.545-0.347,0.806  c-0.148,0.283-0.338,0.541-0.549,0.78c-0.316,0.357-0.768,0.57-1.094,0.898c-0.033,0.013-0.066,0.021-0.098,0.037  c-0.046,0.012-0.085,0.035-0.11,0.072c-0.428,0.288-0.765,0.866-1.06,1.227c-0.295,0.36-0.601,0.724-0.856,1.116  c-0.056,0.021-0.111,0.055-0.152,0.125c-0.356,0.595-0.57,1.239-0.993,1.803c-0.381,0.51-0.915,0.89-1.269,1.416  c-0.01,0.016-0.01,0.031-0.012,0.047c-1.387,1.866-2.535,4.367-1.758,6.704c0.612,1.843,2.191,3.009,4.155,2.802  c2.949-0.31,5.968-2.706,8.309-4.365c2.452-1.738,4.761-3.687,6.897-5.801c2.138-2.116,4.098-4.407,5.87-6.838  c1.658-2.274,3.869-5.051,4.199-7.939C31.159,4.147,30.221,1.985,28.056,1.359z M18.714,6.23c0.956-0.086,1.915-0.608,2.577-1.324  c0.464,1.132,1.223,3.2-0.091,3.368c-0.166,0.021-0.329,0.003-0.49-0.033c0.383-0.168,0.781-0.4,1.036-0.678  c0.107-0.117,0.003-0.306-0.155-0.267c-0.46,0.114-0.959,0.459-1.327,0.781c-0.217-0.108-0.428-0.245-0.632-0.41  c0.031,0.006,0.063,0.01,0.099-0.006c0.586-0.263,1.322-0.505,1.791-0.953c0.133-0.127-0.006-0.338-0.173-0.298  c-0.63,0.15-1.235,0.641-1.772,0.988c-0.074,0.048-0.081,0.119-0.056,0.178c-0.186-0.159-0.365-0.331-0.537-0.505  c0.853-0.043,1.859-0.449,2.32-1.133c0.109-0.162-0.102-0.35-0.259-0.259c-0.381,0.221-0.698,0.519-1.102,0.712  c-0.4,0.192-0.826,0.285-1.257,0.375c-0.109-0.114-0.207-0.211-0.309-0.316C18.487,6.374,18.601,6.303,18.714,6.23z M13.982,10.962  c0.466-0.437,0.827-1.023,0.987-1.627c0.125,0.25,0.27,0.493,0.414,0.736c-0.266,0.242-0.414,0.628-0.677,0.889  c-0.344,0.34-0.739,0.534-1.178,0.705c-0.05-0.04-0.1-0.079-0.15-0.119C13.609,11.426,13.811,11.209,13.982,10.962z M16.235,11.955  c-0.353,0.268-0.614,0.622-0.878,0.974c-0.189-0.105-0.376-0.217-0.547-0.329c0.604-0.186,1.257-0.688,1.315-1.323  c0,0,0,0.001,0.001,0.001c0.292,0.465,1.666,2.107,0.289,2.032c-0.233-0.013-0.493-0.102-0.754-0.224  c0.3-0.27,0.603-0.544,0.818-0.888C16.568,12.056,16.381,11.845,16.235,11.955z M15.929,11.071  c-0.193,0.248-0.289,0.542-0.509,0.776c-0.242,0.257-0.56,0.445-0.891,0.566c-0.035-0.024-0.078-0.052-0.111-0.074  c-0.169-0.114-0.331-0.238-0.492-0.362c0.379-0.112,0.73-0.318,1.029-0.576c0.241-0.208,0.556-0.545,0.685-0.894  c0.112,0.18,0.224,0.358,0.337,0.536C15.96,11.048,15.943,11.054,15.929,11.071z M10.723,14.631  c-0.02,0.034-0.038,0.062-0.061,0.099c-0.156,0.249-0.342,0.477-0.552,0.682c-0.417,0.407-0.912,0.607-1.388,0.917  c-0.12,0.079-0.088,0.315,0.081,0.297c0.587-0.061,1.152-0.454,1.575-0.844c0.203-0.186,0.489-0.465,0.678-0.766  c0.076,0.086,0.139,0.181,0.213,0.269c-0.115,0.086-0.18,0.184-0.278,0.324c-0.157,0.223-0.34,0.427-0.534,0.619  c-0.373,0.369-0.817,0.593-1.235,0.896c-0.352-0.29-0.668-0.566-0.907-0.783c0.536-0.171,0.991-0.482,1.367-0.93  c0.267-0.318,0.544-0.753,0.681-1.197C10.477,14.357,10.602,14.493,10.723,14.631z M12.252,17.254  c-0.456,0.291-0.839,0.74-1.213,1.127c-0.01,0.011-0.008,0.022-0.014,0.034c-0.26-0.15-0.529-0.324-0.796-0.514  c0.683-0.244,1.528-0.789,1.711-1.478c0.023-0.088-0.085-0.193-0.169-0.13c-0.286,0.216-0.475,0.537-0.745,0.777  c-0.302,0.268-0.658,0.483-1.014,0.674c-0.176-0.13-0.35-0.265-0.518-0.398c0.458-0.136,0.875-0.441,1.225-0.753  c0.263-0.234,0.662-0.628,0.782-1.015c0.07,0.092,0.151,0.176,0.215,0.272c0.205,0.311,0.395,0.632,0.567,0.962  c0.175,0.338,0.706,1.134,0.621,1.54c-0.151,0.723-0.838,0.615-1.658,0.184c0.406-0.34,0.863-0.684,1.179-1.109  C12.501,17.323,12.353,17.189,12.252,17.254z M5.998,20.088c0.143,0.236,0.277,0.477,0.402,0.722  c-0.044-0.012-0.091-0.009-0.127,0.016c-0.287,0.203-0.353,0.588-0.606,0.837c-0.296,0.292-0.763,0.505-1.182,0.531  c-0.1-0.098-0.2-0.198-0.301-0.294C5.058,21.733,5.713,20.962,5.998,20.088z M5.963,23.435c-0.003,0.004-0.002,0.009-0.005,0.014  c-0.017-0.007-0.034-0.011-0.05-0.019c-0.136-0.066-0.269-0.163-0.399-0.269c0.279-0.01,0.541-0.101,0.8-0.293  c0.297-0.22,0.603-0.582,0.55-0.971c0.063,0.184,0.102,0.376,0.149,0.566C6.616,22.748,6.28,23.059,5.963,23.435z M7.083,22.751  c0.004,0.021,0.013,0.041,0.016,0.063c0.106,0.622-0.365,0.844-0.892,0.719C6.53,23.298,6.817,23.042,7.083,22.751z M6.624,21.737  c-0.244,0.218-0.349,0.539-0.611,0.749c-0.233,0.187-0.55,0.308-0.851,0.369c-0.073-0.07-0.144-0.139-0.211-0.203  c-0.037-0.036-0.073-0.071-0.11-0.107c0.388,0.001,0.738-0.115,1.082-0.392c0.275-0.221,0.637-0.619,0.635-1.007  c0.09,0.195,0.164,0.396,0.239,0.597C6.746,21.703,6.679,21.688,6.624,21.737z M26.933,11.665c-2.188,3.263-4.714,6.285-7.545,9.01  c-2.828,2.722-5.949,5.138-9.287,7.204c-2.023,1.252-5.747,3.863-7.457,0.736c-1.17-2.139,0.113-4.395,0.985-6.397  c0.76,1.321,2.861,3.303,4.025,1.981c0.597-0.677,0.252-1.767-0.006-2.516c-0.33-0.962-0.839-1.852-1.505-2.617  C6.142,18.984,6.15,18.9,6.139,18.821c0-0.001,0-0.001,0-0.001c0.423-0.288,0.753-0.684,1.097-1.06  c0.272-0.298,0.632-0.578,0.703-0.983C8.515,17.718,9.38,18.465,10.35,19c0.802,0.443,2.366,1.296,3.153,0.449  c0.766-0.824-0.074-2.265-0.501-3.058c-0.487-0.903-1.195-2.024-2.1-2.684c0.702-0.498,1.366-1.197,1.935-1.84  c0.013-0.015,0.019-0.031,0.028-0.047c0.512,0.689,1.24,1.233,1.977,1.635c0.673,0.368,1.821,1.023,2.604,0.66  c0.841-0.39,0.545-1.331,0.183-1.95c-0.665-1.14-1.497-2.373-2.393-3.356c0-0.011-0.001-0.021,0-0.032  c0.892-0.671,1.774-1.355,2.683-2.004c0.716,1.263,2.553,2.75,3.901,2.1c1.448-0.697,0.816-3.135,0.097-4.417  c2.318-1.524,7.939-4.314,7.859,1.122C29.745,7.782,28.106,9.917,26.933,11.665z"></path><path d="M21.225,16.806c-3.21,2.25-6.125,5.18-8.925,7.913c-0.098,0.096,0.045,0.228,0.147,0.147  c3.06-2.422,6.332-4.926,8.967-7.815C21.527,16.927,21.377,16.699,21.225,16.806z"></path><path d="M25.174,12.188c-0.643,0.366-1.137,1.03-1.643,1.561c-0.575,0.604-1.13,1.209-1.641,1.868  c-0.133,0.172,0.07,0.386,0.241,0.241c0.636-0.538,1.215-1.117,1.793-1.717c0.508-0.527,1.156-1.053,1.493-1.71  C25.497,12.276,25.334,12.097,25.174,12.188z"></path><path d="M14.572,6.589c-3.871,1.841-7.137,6.068-9.473,9.551c-0.097,0.144,0.13,0.269,0.229,0.134  c1.386-1.881,2.89-3.673,4.563-5.307c1.521-1.485,3.348-2.689,4.808-4.213C14.786,6.664,14.678,6.538,14.572,6.589z"></path><path d="M18.528,3.821c-1.16,0.433-2.239,1.329-3.282,1.992c-0.135,0.086-0.012,0.299,0.126,0.216  c1.058-0.638,2.344-1.205,3.248-2.051C18.685,3.916,18.617,3.787,18.528,3.821z"></path><path d="M26.985,14.984c-2.293,3.831-5.083,6.792-8.488,9.639c-0.108,0.09,0.03,0.256,0.147,0.19  c3.755-2.133,6.823-5.77,8.618-9.667C27.347,14.961,27.093,14.803,26.985,14.984z"></path></svg>