<svg height='100px' width='100px'  fill="#000000" xmlns="http://www.w3.org/2000/svg" viewBox="0 0 64 64" x="0px" y="0px"><title>15 Garlic</title><g data-name="15 Garlic"><path d="M36.807,33.409a1,1,0,1,0-1.614,1.182A21.6,21.6,0,0,1,38.3,40.326a1,1,0,1,0,1.89-.652A23.554,23.554,0,0,0,36.807,33.409Z"></path><path d="M53,46c0-7.537-6.267-11.436-11.8-14.875a44.948,44.948,0,0,1-5.488-3.8c2.055-3.293,1.694-6.606,1.241-10.721a42.135,42.135,0,0,1,.029-12.439,1,1,0,0,0-1.434-1.058c-2.666,1.337-4.106,5.429-4.858,8.739A21.75,21.75,0,0,0,24.6,3.2a1,1,0,0,0-1.53,1.171c.058.145,5.657,14.32,4.039,23.912-1.292.959-2.756,1.876-4.306,2.839C17.271,34.561,11,38.458,11,46c0,14.822,20.772,15,21,15h0C32.228,61,53,60.822,53,46ZM34.642,6.789a48.863,48.863,0,0,0,.327,10.033c.405,3.677.711,6.451-.726,9.065-.167-.2-.324-.395-.463-.592-.037-.053-.069-.105-.1-.157-.125-.189-.239-.378-.34-.568-.026-.05-.055-.1-.08-.15A5.67,5.67,0,0,1,33,23.806c0-.457-.025-.908-.045-1.361-.009-.208-.008-.42-.021-.628q-.063-1.036-.185-2.052v-.012q-.124-1.029-.312-2.032c-.025-.137-.061-.269-.088-.406-.1-.5-.2-1-.323-1.484C32.345,13.229,33.186,9.233,34.642,6.789ZM26.59,8.427A24.764,24.764,0,0,1,30,15.991V16a.982.982,0,0,0,.076.306c.141.56.269,1.126.378,1.7.05.266.084.54.127.81.059.369.125.734.171,1.109.036.286.054.58.082.87.035.367.077.732.1,1.1.017.276.018.558.029.836.013.363.03.724.032,1.09-.02.056-.043.111-.065.166-.048.121-.1.242-.158.363-.039.08-.081.16-.124.24-.064.119-.133.239-.207.357-.049.079-.1.157-.15.235-.086.126-.18.253-.277.38-.053.069-.1.138-.16.208-.131.161-.273.322-.423.483-.028.031-.053.062-.082.093C29.763,20.164,28.012,13.03,26.59,8.427ZM13,46c0-6.431,5.521-9.861,10.859-13.179.7-.435,1.378-.86,2.04-1.285C23.049,35,20,39.568,20,46c0,6.381,2.961,10.127,5.919,12.278C20.36,57.107,13,54.039,13,46ZM38.49,58.239a9.288,9.288,0,0,0,3.5-6.1,1,1,0,0,0-1.98-.284c-.819,5.732-6.927,6.957-7.985,7.127A12.688,12.688,0,0,1,22,46c0-6.921,3.885-11.423,7.007-15.04a25.011,25.011,0,0,0,3.271-4.348c.066.089.136.178.2.266.1.127.185.256.294.382.263.3.555.607.869.909.019.017.033.035.051.053h0l0,0h0a39.57,39.57,0,0,0,6.442,4.595C45.483,36.143,51,39.574,51,46,51,53.955,44,57.041,38.49,58.239Z"></path></g></svg>