<svg height='100px' width='100px'  fill="#000000" xmlns="http://www.w3.org/2000/svg" data-name="Layer 1" viewBox="0 0 64 64" x="0px" y="0px"><title>chinese traditional culture teapot kettle</title><path d="M50.37,4H50V3a1,1,0,0,0-1-1H33a1,1,0,0,0-1,1V4h-.37A11.65,11.65,0,0,0,20,15.63V52a2,2,0,0,1-4,0V32a7,7,0,0,0-7-7H6a1,1,0,0,0-.89.55l-3,6A1,1,0,0,0,3,33H6.79A1.21,1.21,0,0,1,8,34.21V55a7,7,0,0,0,7,7H58a4,4,0,0,0,4-4V15.63A11.65,11.65,0,0,0,50.37,4ZM34,4H48V6H34V4ZM31.63,6H32V7a1,1,0,0,0,1,1H49a1,1,0,0,0,1-1V6h.37A9.64,9.64,0,0,1,60,15.63V31H54.92A7,7,0,0,0,48,25H44.44A3.91,3.91,0,0,0,45,23a4,4,0,0,0-8,0,3.91,3.91,0,0,0,.56,2H34a7,7,0,0,0-6.92,6H22V15.63A9.64,9.64,0,0,1,31.63,6ZM39,23a2,2,0,1,1,2,2A2,2,0,0,1,39,23Zm9,4a5,5,0,0,1,4.9,4H29.1A5,5,0,0,1,34,27ZM60,58a2,2,0,0,1-2,2H15a5,5,0,0,1-5-5V34.21A3.21,3.21,0,0,0,6.79,31H4.62l2-4H9a5,5,0,0,1,5,5V52a4,4,0,0,0,8,0V33H60V58Z"></path></svg>