<svg height='100px' width='100px'  fill="#000000" xmlns="http://www.w3.org/2000/svg" data-name="Layer 1" viewBox="0 0 32 32" x="0px" y="0px"><title>Artboard 74</title><path d="M7,31a.5.5,0,0,1-.35-.15L1.15,25.31a.5.5,0,0,1,0-.71l3.46-3.46a.5.5,0,0,1,.71,0l5.54,5.54a.5.5,0,0,1,0,.71L7.39,30.85A.5.5,0,0,1,7,31ZM2.21,25,7,29.79,9.79,27,5,22.21Z"></path><path d="M10.23,27.27a.5.5,0,0,1-.35-.15L5.32,22.56a.5.5,0,0,1-.15-.35V20.59a3.24,3.24,0,0,1,.65-2,9.28,9.28,0,0,0,1.85-5.54c0-.23,0-.46,0-.7v-.15a2,2,0,0,1,2.65-1.87l.25.09a2,2,0,0,1,1.3,1.66L12,13.53a.49.49,0,0,1,0,.12l-.37,2.9a2.5,2.5,0,0,0,0,.36,2.85,2.85,0,0,0,.31,1.29,1.11,1.11,0,0,0,1.35.56l.46-.16a5.63,5.63,0,0,0,1.61-.86L17.58,16A3.76,3.76,0,0,0,19,13.91l0-.13a3.75,3.75,0,0,1,1.34-2.09l.07-.06a4.5,4.5,0,0,1,2.69-.89H24a.5.5,0,0,1,.38.83l-.85,1A7,7,0,0,0,22,15.62l-.17.79a6,6,0,0,1-1.48,2.78l-3,3.23a11.37,11.37,0,0,1-2.22,1.84l-4.6,2.94A.5.5,0,0,1,10.23,27.27ZM6.17,22l4.13,4.13,4.26-2.72a10.36,10.36,0,0,0,2-1.68l3-3.23a5,5,0,0,0,1.23-2.31L21,15.4a8,8,0,0,1,1.77-3.49l.14-.16A3.5,3.5,0,0,0,21,12.4l-.06.05A2.74,2.74,0,0,0,20,14l0,.13a4.76,4.76,0,0,1-1.75,2.68l-2.25,1.72a6.61,6.61,0,0,1-1.9,1l-.47.16A2.1,2.1,0,0,1,11,18.64a3.86,3.86,0,0,1-.41-1.74,3.46,3.46,0,0,1,0-.49L11,13.57l-.14-1.35a1,1,0,0,0-.65-.82L10,11.31a1,1,0,0,0-1.32.93v.11c0,.22,0,.49,0,.74a10.28,10.28,0,0,1-2,6.14,2.25,2.25,0,0,0-.45,1.36Z"></path><path d="M30.5,9h-1a.5.5,0,0,1,0-1h1a.5.5,0,0,1,0,1Z"></path><path d="M2.5,9h-1a.5.5,0,0,1,0-1h1a.5.5,0,0,1,0,1Z"></path><path d="M27.5,11H4.5a.5.5,0,0,1-.35-.15l-2-2A.5.5,0,0,1,2.5,8h27a.5.5,0,0,1,.35.85l-2,2A.5.5,0,0,1,27.5,11ZM4.71,10H27.29l1-1H3.71Z"></path><path d="M27.84,9H4.16a.5.5,0,0,1-.44-.74,14,14,0,0,1,24.56,0,.5.5,0,0,1-.44.74ZM5,8H27A13,13,0,0,0,5,8Z"></path></svg>