<svg height='100px' width='100px'  fill="#000000" xmlns="http://www.w3.org/2000/svg" xmlns:xlink="http://www.w3.org/1999/xlink" version="1.1" x="0px" y="0px" viewBox="0 0 100 100" style="enable-background:new 0 0 100 100;" xml:space="preserve"><path d="M90.68,46.22l-11.16-7.61c0,0-0.01,0-0.01,0c-0.04-0.02-0.07-0.04-0.11-0.06c-0.03-0.02-0.07-0.04-0.1-0.05  c-0.01,0-0.02-0.01-0.02-0.01c-0.01,0-0.02-0.01-0.02-0.01c-0.03-0.01-0.07-0.02-0.11-0.04c0,0,0,0,0,0c-0.01,0-0.02-0.01-0.03-0.01  l-0.04-0.01c0,0,0,0,0,0l-20.02-6.14v-9.17l29.05-0.02c0.83,0,1.5-0.67,1.5-1.5c0-0.83-0.67-1.5-1.5-1.5h0l-29.04,0.02v-5.72  l31.01-4.71c0.82-0.12,1.38-0.89,1.26-1.71c-0.12-0.82-0.88-1.38-1.71-1.26l-30.56,4.64v-2.4c0-0.83-0.67-1.5-1.5-1.5  s-1.5,0.67-1.5,1.5v2.86l-3.54,0.54V10.1c0-0.83-0.67-1.5-1.5-1.5s-1.5,0.67-1.5,1.5v2.7l-3.54,0.54v-2.45c0-0.83-0.67-1.5-1.5-1.5  s-1.5,0.67-1.5,1.5v2.9l-3.54,0.54v-2.4c0-0.83-0.67-1.5-1.5-1.5s-1.5,0.67-1.5,1.5v2.86l-2.77,0.42c-0.82,0.12-1.38,0.89-1.26,1.71  c0.11,0.74,0.75,1.27,1.48,1.27c0.08,0,0.15-0.01,0.23-0.02l2.32-0.35v2.3l-7.85,0c-0.83,0-1.5,0.67-1.5,1.5  c0,0.83,0.67,1.5,1.5,1.5h0l7.84,0V34.2l-15.5,4.2c0,0-0.01,0-0.01,0l-0.01,0c-0.01,0-0.01,0.01-0.02,0.01  c-0.03,0.01-0.06,0.02-0.08,0.03c-0.04,0.01-0.08,0.02-0.11,0.04c-0.03,0.01-0.06,0.03-0.09,0.05c-0.03,0.01-0.05,0.03-0.08,0.05  c-0.02,0.01-0.04,0.02-0.06,0.03L9.32,46.22c-0.54,0.37-0.78,1.05-0.59,1.68c0.19,0.63,0.78,1.06,1.43,1.06h6.57l-3.68,11.15  c-0.24,0.71,0.09,1.49,0.77,1.82l11.87,5.72l3.79,15.85c0.11,0.45,0.42,0.83,0.84,1.02l19.25,8.64c0.2,0.09,0.41,0.13,0.61,0.13  c0.25,0,0.49-0.06,0.72-0.18l19.84-10.8c0.38-0.21,0.65-0.57,0.75-0.99l3.46-15.31l8.89-4.07c0.64-0.29,0.99-1,0.84-1.69l-2.59-11.8  l7.64,0.5c0.03,0,0.07,0,0.1,0c0.64,0,1.21-0.4,1.42-1.01C91.48,47.31,91.24,46.6,90.68,46.22z M73.75,39.92l-14.7,4.9v-9.4  L73.75,39.92z M39.45,44.65V36.5l3.54-0.96v10.35L39.45,44.65z M45.99,34.73l3.54-0.96v14.22l-0.29,0.1l-3.24-1.14V34.73z   M49.52,30.66l-3.54,0.96v-8.5l3.54,0V30.66z M52.52,33.41l3.54,1.08v11.32l-3.54,1.18V33.41z M56.06,31.35l-3.54-1.08v-7.16l3.54,0  V31.35z M56.06,14.85v5.27l-3.54,0v-4.73L56.06,14.85z M49.52,15.84v4.28l-3.54,0v-3.74L49.52,15.84z M39.45,17.37l3.54-0.54v3.29  l-3.54,0V17.37z M39.45,23.12l3.54,0v9.32l-3.54,0.96V23.12z M36.45,43.59l-10.08-3.55l10.08-2.73V43.59z M15.03,45.96l3.49-2.37  l-0.78,2.37H15.03z M22.27,41.78l24.68,8.69L35.3,68.96L16.31,59.8L22.27,41.78z M29.18,69.34l6.02,2.9  c0.21,0.1,0.43,0.15,0.65,0.15c0.5,0,0.99-0.25,1.27-0.7l10.7-17l0.81,34.77l-16.41-7.37L29.18,69.34z M68.72,80l-17.08,9.3  l-0.8-34.25l10.1,15.96c0.4,0.63,1.21,0.87,1.89,0.56l8.7-3.98L68.72,80z M62.77,68.3l-11.26-17.8l26.06-8.69l3.93,17.92L62.77,68.3  z M81.43,45.41l-0.48-2.19l3.5,2.39L81.43,45.41z"></path></svg>