<svg height='100px' width='100px'  fill="#000000" xmlns="http://www.w3.org/2000/svg" xmlns:xlink="http://www.w3.org/1999/xlink" version="1.1" x="0px" y="0px" viewBox="0 0 50 50" style="enable-background:new 0 0 50 50;" xml:space="preserve"><g><path d="M18.4,24c-0.8,0.3-1.5,1-1.7,1.9c-0.1,0.3,0.1,0.5,0.4,0.6c0,0,0.1,0,0.1,0c0.2,0,0.4-0.2,0.4-0.4c0.1-0.5,0.5-1,1-1.2   c0.2-0.1,0.4-0.4,0.3-0.6C18.9,24,18.6,23.9,18.4,24z"></path><path d="M17.8,27.1c-0.1-0.2-0.4-0.3-0.7-0.2c-0.2,0.1-0.3,0.4-0.2,0.7c0,0.1,0.1,0.1,0.1,0.2c0.1,0.1,0.3,0.2,0.4,0.2   c0.1,0,0.2,0,0.2-0.1c0.2-0.2,0.2-0.5,0.1-0.7C17.9,27.2,17.9,27.2,17.8,27.1z"></path><path d="M16.5,20.5c0,0,0.1,0,0.1,0c0.2,0,0.4-0.2,0.4-0.4c0.1-0.5,0.5-1,1-1.2c0.2-0.1,0.4-0.4,0.3-0.6c-0.1-0.2-0.4-0.4-0.6-0.3   c-0.8,0.3-1.5,1-1.7,1.9C16.1,20.2,16.3,20.5,16.5,20.5z"></path><path d="M41.3,42.1c-0.3-1-0.9-1.7-1.7-2.3c1.4-1.2,2-3.1,1.4-5c-0.4-1.2-1.2-2.1-2.3-2.7c-0.3-0.1-0.5-0.2-0.8-0.3   c1.1-1.2,1.5-2.9,1-4.5c-0.5-1.5-1.8-2.7-3.3-3c0.4-1,0.4-2,0.1-3.1c-0.2-0.6-0.6-1.2-1-1.6c0.7-1,0.9-2.1,0.8-3.3   c1.9-0.5,3-1.1,3.1-1.1c0.3-0.2,0.4-0.5,0.4-0.8c-0.8-3.2-2.2-5.6-2.8-6.5l0.2-0.4c0.2-0.3,0.1-0.7-0.1-0.9c-1.7-1.6-3.5-2.5-4.5-3   L32,2.8c0.1-0.2,0.1-0.4,0-0.6c-0.1-0.2-0.2-0.3-0.4-0.4c-1.9-0.6-4.2-1.1-6.4-0.7c-0.4,0-3.3,0.4-4.7,2.3C19.9,4.2,19.6,5,19.7,6   c-0.4,0-0.8,0.1-1.2,0.4c-0.4,0.2-0.7,0.4-0.9,0.6c-0.3,0.2-0.5,0.3-0.9,0.5c0,0,0,0-0.1,0l-3.7,2.2c0,0,0,0,0,0   c-0.2,0.1-0.9,0.5-1.5,0.6c0,0,0,0,0,0c-0.1,0-2.5,0.2-4.3,1.4c-0.2,0.1-0.6,0.4-0.8,0.9c-0.1,0.3-0.2,0.8,0.2,1.5c0,0,0,0,0,0   c0.5,0.7,1.4,1.2,2.2,0.6c0.1,0,0.1-0.1,0.2-0.2c0.1-0.1,0.6-0.5,2.6-0.9c0.2,0,0.4,0,0.4,0.1c0,0.1,0,0.1,0.1,0.2   c0.6,0.9,2.1,3.4,2.3,4.9c-0.3,0.7-0.4,1.4-0.4,2.1c-0.6-0.1-1.3,0-1.9,0.2c-1.2,0.4-2.1,1.2-2.7,2.3c-0.5,1.1-0.6,2.3-0.2,3.5   c0.4,1.3,1.4,2.3,2.6,2.8c-0.1,0.1-0.1,0.2-0.2,0.3C11,31,11,32.3,11.3,33.4c0.4,1.2,1.2,2.1,2.3,2.7c0.8,0.4,1.6,0.5,2.5,0.5   c0.3,0,0.7-0.1,1-0.2c0.7-0.2,1.4-0.7,1.9-1.2c0.8,0.8,1.8,1.3,2.8,1.4c-0.1,0.7-0.1,1.4,0.2,2.1c0.4,1.2,1.2,2.1,2.3,2.7   c0.8,0.4,1.6,0.5,2.5,0.5c0,0.6,0,1.1,0.2,1.6c0.4,1.2,1.2,2.1,2.3,2.7c0.8,0.4,1.6,0.5,2.5,0.5c0.3,0,0.7-0.1,1-0.2   c0.1,0,0.2-0.1,0.3-0.1c0.9,1.4,2.6,2.1,4.2,2c0.3,0,0.7-0.1,1-0.2c1.2-0.4,2.1-1.2,2.7-2.3C41.6,44.5,41.7,43.2,41.3,42.1z    M39.6,35.3c0.6,1.7-0.3,3.5-2,4c-1.2,0.4-2.5,0-3.4-0.9c-0.3-0.3-0.5-0.7-0.6-1.1c-0.3-0.8-0.2-1.7,0.2-2.4c0.4-0.8,1-1.3,1.8-1.6   c0.8-0.3,1.7-0.2,2.4,0.2C38.8,33.8,39.3,34.5,39.6,35.3z M30.8,35.6c-0.3-0.9-0.8-1.6-1.5-2.1c0.4-0.5,0.9-0.9,1.5-1.1   c0.9-0.3,1.9-0.2,2.7,0.4c-0.5,0.4-0.8,0.9-1.1,1.4c-0.5,1.1-0.6,2.3-0.2,3.5c0.1,0.3,0.2,0.5,0.4,0.8c-0.6,0.1-1.2,0.1-1.8-0.1   C31.1,37.5,31.1,36.6,30.8,35.6z M23.5,24.9c-0.2-0.7-0.6-1.3-1.1-1.8c0.1-0.2,0.2-0.3,0.3-0.5c0.4-0.4,0.8-0.7,1.3-0.8   c0.8-0.3,1.7-0.2,2.4,0.2c0.8,0.4,1.3,1,1.6,1.8c0.6,1.7-0.3,3.5-2,4c-0.8,0.3-1.7,0.2-2.4-0.2C23.8,26.7,23.8,25.8,23.5,24.9z    M17.7,29.2c-0.8-0.4-1.3-1-1.6-1.8c-0.3-0.8-0.2-1.7,0.2-2.4c0.4-0.8,1-1.3,1.8-1.6c0.2-0.1,0.5-0.1,0.7-0.2   c0.6-0.1,1.2,0.1,1.7,0.3c0.8,0.4,1.3,1,1.6,1.8c0.3,0.8,0.2,1.7-0.2,2.4c-0.4,0.8-1,1.3-1.8,1.6C19.4,29.6,18.5,29.5,17.7,29.2z    M17.6,17.6c0.9-0.3,1.9-0.2,2.7,0.3c-0.1,0.7,0,1.4,0.2,2.1c0.2,0.7,0.6,1.3,1.1,1.8c0,0,0,0,0,0c-0.1,0.1-0.2,0.2-0.3,0.4   c-1.1-0.5-2.3-0.6-3.5-0.2c-0.5,0.2-1,0.5-1.5,0.8c-0.3-0.3-0.5-0.7-0.7-1.2C15,20,15.9,18.2,17.6,17.6z M17.1,11.3   c0.4,1.9,1.7,3.7,3.1,5c-0.9-0.3-1.8-0.4-2.7-0.1c-0.5-1.5-1.7-3.3-1.7-3.4c0,0,0,0,0,0c-0.3-0.4,0-0.7,0.2-0.8c0,0,0,0,0,0   C16.4,11.5,16.7,11.4,17.1,11.3z M34.2,21.7c0.3,0.8,0.2,1.7-0.2,2.5c-0.3,0-0.7,0.1-1,0.2c-0.8,0.3-1.5,0.8-2.1,1.5   c-0.5,0-1-0.2-1.4-0.5c0.1-0.7,0-1.4-0.2-2c-0.2-0.7-0.6-1.2-1.1-1.7c0-0.1,0.1-0.1,0.1-0.2c0.2-0.3,0.4-0.5,0.5-0.8   c0.4-0.4,0.8-0.7,1.4-0.9C31.9,19.1,33.7,20,34.2,21.7z M27.7,19.8c-0.2,0.3-0.4,0.5-0.5,0.8c0,0,0,0-0.1,0.1c0,0,0,0,0,0   c-1.1-0.5-2.3-0.6-3.5-0.2c-0.3,0.1-0.6,0.3-0.9,0.4c-0.4-0.4-0.7-0.8-0.8-1.3c-0.2-0.6-0.2-1.2,0-1.9c0.6,0.5,1.1,0.8,1.1,0.8   c0.2,0.1,0.4,0.2,0.6,0.1c0.2-0.1,0.4-0.2,0.5-0.4l0.5-1.1c1.5,0.8,2.7,1.3,3.6,1.6C27.9,19.1,27.8,19.5,27.7,19.8z M26.4,32.5   c-0.3-0.3-0.6-0.8-0.8-1.2c-0.2-0.6-0.2-1.3,0-2c0.3,0,0.5-0.1,0.8-0.2c1.1-0.4,1.9-1.1,2.5-2c1.3,0.1,2.4,0.9,2.8,2.2   c0.2,0.5,0.2,1,0.1,1.6c-0.5,0-0.9,0.1-1.4,0.2c-0.9,0.3-1.7,0.9-2.3,1.7C27.6,32.6,27,32.5,26.4,32.5z M37.5,27.8   c0.3,0.8,0.2,1.7-0.2,2.4c-0.4,0.8-1,1.3-1.8,1.6c-0.2,0.1-0.5,0.1-0.7,0.1c-0.5-0.4-1-0.7-1.6-0.9c0.1-0.7,0.1-1.5-0.2-2.2   c-0.2-0.7-0.6-1.3-1.2-1.8c0.4-0.6,0.9-1,1.6-1.2c0.3-0.1,0.6-0.2,1-0.2l0,0C35.8,25.6,37.1,26.5,37.5,27.8z M33.5,18.7   c-1-0.6-2.3-0.8-3.5-0.4l0.9-1.4c1.1,0,2.2-0.1,3.1-0.3C34.1,17.3,33.9,18.1,33.5,18.7z M21.6,4.3c1.1-1.5,3.7-1.8,3.7-1.8   c0,0,0,0,0.1,0c1.7-0.3,3.4,0,5,0.4l-0.3,0.8c-0.1,0.2-0.1,0.4,0,0.6c0.1,0.2,0.2,0.3,0.4,0.4c0,0,2.1,0.7,4.2,2.5l-0.2,0.3   c-0.2,0.3-0.2,0.6,0,0.8c0,0,1.8,2.4,2.7,5.8c-1,0.4-3.5,1.3-6.8,1.3c-0.2,0-0.5,0.1-0.6,0.3l-1.1,1.7c-0.8-0.2-2.4-0.8-4.4-2.1   c-0.1-0.1-0.3-0.1-0.4-0.1c-0.1,0-0.1,0-0.2,0c-0.2,0.1-0.4,0.2-0.4,0.4l-0.4,1.1c-0.6-0.5-1.5-1.2-2.3-2.1   c-1.3-1.4-2.6-3.4-2.1-5.3c0,0,0-0.1,0-0.1c0,0,0.2-1.1,1.9-1.9c0,0,0,0,0,0c0.1,0,0.1,0,0.2,0c0,0,0.2,0,0.6,0   c-1.1,3.7,0.5,6.7,0.5,6.8c0.1,0.3,0.4,0.4,0.7,0.4c0.1,0,0.2,0,0.3-0.1c0.3-0.2,0.5-0.6,0.3-1c0,0-1.4-2.8-0.4-6   c0.9,0.1,2,0.4,3.2,0.8c-0.3,2.7,0.6,5.8,1.2,7.5c0.1,0.3,0.4,0.5,0.7,0.5c0.1,0,0.1,0,0.2,0c0.4-0.1,0.6-0.5,0.4-0.9   c-0.4-1.2-1.3-4-1.2-6.5c1.3,0.5,2.6,1.2,3.8,2c0,0.7,0.2,1.8,0.6,3.3c0.1,0.3,0.4,0.5,0.8,0.5c0,0,0.1,0,0.1,0   c0.4-0.1,0.6-0.5,0.5-0.9c-0.2-0.7-0.3-1.3-0.4-1.8c0.6,0.5,1.1,1,1.7,1.5c0.2,0.1,0.4,0.2,0.6,0.2c0.2,0,0.3-0.1,0.4-0.2   c0.3-0.3,0.3-0.7,0-1c-0.9-0.9-2-1.7-3-2.4c-0.1-0.1-0.1-0.1-0.2-0.1c-0.7-0.5-1.4-0.9-2.1-1.3c0.6-0.4,1.4-1,2.3-1.3   c0.4-0.1,0.6-0.5,0.5-0.9c-0.1-0.4-0.5-0.6-0.9-0.5c-1.5,0.5-2.7,1.4-3.3,1.9c-0.4-0.2-0.7-0.4-1.1-0.5c-0.9-0.3-1.7-0.6-2.5-0.8   c0.5-0.6,1.5-1.5,3.1-2.1c0.4-0.1,0.6-0.5,0.4-0.9c-0.1-0.4-0.5-0.6-0.9-0.4c-2.4,0.9-3.6,2.3-4.1,3C22.4,6.1,21.6,6,21.1,6   C21.1,5.4,21.2,4.8,21.6,4.3z M13.3,13.2c-0.4-0.9-1.4-1-1.9-0.9c0,0,0,0-0.1,0C9.6,12.6,8.5,13,8,13.5c-0.1,0-0.2-0.1-0.2-0.2   C7.7,13.1,7.7,13,7.7,13c0,0,0,0,0,0c0.1,0,0.1,0,0.2-0.1c1.4-1,3.6-1.2,3.6-1.2c0,0,0,0,0,0c1-0.1,2-0.7,2.2-0.8l3.5-2.1   c0,0.1-0.1,0.3-0.1,0.3C17,9.3,17,9.6,17,9.8c-0.1,0-0.1,0-0.2,0.1c-0.4,0.1-1,0.3-1.7,0.9c-0.2,0.1-0.8,0.6-0.9,1.4   c-0.1,0.5,0,0.9,0.3,1.4c0.1,0.2,1.2,2,1.6,3.2c-0.2,0.2-0.5,0.3-0.7,0.5C14.8,15.5,13.6,13.6,13.3,13.2z M10.5,26.4   c-0.3-0.8-0.2-1.7,0.2-2.4c0.4-0.8,1-1.3,1.8-1.6c0.6-0.2,1.2-0.2,1.8-0.1c0.2,0.6,0.6,1.1,1,1.5c-0.1,0.1-0.2,0.3-0.3,0.4   c-0.5,1-0.6,2.1-0.3,3.2c-0.2,0-0.3,0.1-0.5,0.1c-0.6,0.2-1.1,0.5-1.5,0.9C11.7,28.2,10.9,27.4,10.5,26.4z M16.7,35   c-0.8,0.3-1.7,0.2-2.4-0.2c-0.8-0.4-1.3-1-1.6-1.8c-0.3-0.8-0.2-1.7,0.2-2.4c0.4-0.8,1-1.3,1.8-1.6c0.2-0.1,0.4-0.1,0.6-0.1   c0.4,0.7,1,1.2,1.8,1.6c0.3,0.1,0.5,0.2,0.8,0.3c-0.2,0.9-0.2,1.8,0.1,2.6c0.1,0.2,0.2,0.4,0.2,0.6C17.8,34.4,17.3,34.8,16.7,35z    M22.3,35C22.3,35,22.3,35.1,22.3,35c-1.3,0-2.6-0.8-3-2.1c-0.2-0.7-0.2-1.3,0-2c0.1,0,0.2,0,0.2,0c0.3,0,0.7-0.1,1-0.2   c1-0.3,1.8-1,2.3-1.8c0.4,0.2,0.8,0.3,1.2,0.4c-0.2,0.8-0.1,1.6,0.1,2.4c0.1,0.4,0.3,0.7,0.5,1.1C23.7,33.2,22.8,34,22.3,35z    M25,39.9c-0.8-0.4-1.3-1-1.6-1.8c-0.3-0.8-0.2-1.7,0.2-2.4c0.4-0.8,1-1.3,1.8-1.6c0.2-0.1,0.4-0.1,0.6-0.1c0,0,0.1,0,0.1,0   c1.5-0.1,2.8,0.8,3.3,2.2c0.3,0.8,0.2,1.7-0.2,2.4c-0.4,0.8-1,1.3-1.8,1.6C26.6,40.4,25.8,40.3,25,39.9z M30,44.7   c-0.8-0.4-1.3-1-1.6-1.8c-0.2-0.5-0.2-1.1-0.1-1.6c0.8-0.3,1.4-0.9,1.9-1.6c0.7,0.3,1.4,0.4,2.1,0.3c0.3,0,0.7-0.1,1-0.2   c0.1,0,0.1-0.1,0.2-0.1c0.1,0.1,0.3,0.2,0.4,0.3c-1.4,1.2-2,3-1.4,4.8c0,0-0.1,0-0.1,0C31.6,45.2,30.8,45.1,30,44.7z M39.8,44.9   c-0.4,0.8-1,1.3-1.8,1.6c-1.6,0.5-3.3-0.3-3.9-1.8L33.3,45v0l0.7-0.3c0-0.1-0.1-0.1-0.1-0.2c-0.5-1.5,0.2-3.1,1.6-3.8   c0.5,0.1,1,0.2,1.6,0.1c0.3,0,0.7-0.1,1-0.2c0,0,0,0,0.1,0c0.9,0.3,1.5,1,1.8,1.9C40.2,43.3,40.1,44.2,39.8,44.9z"></path></g></svg>