<svg height='100px' width='100px'  fill="#000000" xmlns="http://www.w3.org/2000/svg" xmlns:xlink="http://www.w3.org/1999/xlink" version="1.1" x="0px" y="0px" viewBox="0 0 512 512" style="enable-background:new 0 0 512 512;" xml:space="preserve"><g><g><path d="M505.6,168c-3.9-6.9-9.5-12.8-16-17.1c-9.9-53.4-35.1-100.8-72.1-135.1c-6.3-5.8-16.1-5.6-22.2,0.4l-39.4,39.3    c-4.3,4.3-5.8,10.7-3.9,16.4c7.7,22.8,9.2,45.9,5.9,69.9c-17.9,6.5-30.8,22.9-32.5,42.3c-0.7,7.5-1.2,13.8-1.7,19    c-12,4.1-21.8,12.4-27.8,23.6l-25.4,47.3c-5.8,10.8-7.4,23-4.7,34.9c-3.7,3-8,6.4-13,10.4c-16.7,13.3-22.9,36-15.6,55.9    c-23.7,24-48.6,39-76,45.8c-7.8,1.9-13,9.4-12,17.4l6.7,56.3c0.8,7,6.2,12.7,13.2,13.9c12.6,2.2,25.4,3.3,38.4,3.3    c41.3,0,83.8-11,122.9-32.1c0.8-0.4,1.6-0.9,2.4-1.3c0.9,0,1.8,0.1,2.7,0.1c1.1,0,2.3,0,3.4-0.1c13.6-1,26.3-7.5,34.9-18.1    l29.6-36.1c5.7-5.9,11.3-12.1,16.6-18.6c0.8,0,1.6,0.1,2.5,0.1c17.9,0,35.2-9.6,44.2-26.4l25.4-47.3c9.5-17.7,7.2-38.7-4.2-53.8    l22-71.2C513.8,194.1,512.3,179.9,505.6,168z M406.5,50.3c22.5,24.5,38.9,55.4,47.8,89.8c-21.9-3.9-42.9-5-63.6-3.5    c2-22.8,0.2-44.3-5.5-65.1L406.5,50.3z M186.1,478.8l-3.6-30.6c24.9-8.4,47.9-22.6,69.7-42.9c11.7,19.7,26.4,38,44.5,55.4    C260.6,476.5,222.3,482.8,186.1,478.8z M348.9,440.2c-3.1,3.8-7.5,6.1-12.4,6.4c-4.9,0.3-9.5-1.3-13-4.6    c-25.5-23.5-43.8-48.6-55.9-76.8c-3.1-7.3-1-15.9,5.1-20.8c3.7-2.9,7-5.6,10-8c2.5,2.1,5.2,3.9,8.2,5.5l96.2,51.7L348.9,440.2z     M463.7,317l-25.4,47.3c-4.7,8.8-15.7,12.1-24.5,7.4L306,313.7c-4.2-2.3-7.4-6.1-8.7-10.7c-1.4-4.6-0.9-9.5,1.4-13.8l25.4-47.3    c2.3-4.2,6.1-7.4,10.7-8.7c1.7-0.5,3.5-0.8,5.2-0.8c2.9,0,5.9,0.7,8.5,2.2l107.9,57.9C465.1,297.2,468.4,308.2,463.7,317z     M479.2,197.6l-18.8,60.7l-96.8-52c-2.5-1.4-5.1-2.5-7.8-3.4c0.4-4.7,0.9-10,1.4-16.1c0.7-7.9,6.7-14.4,14.5-15.8    c30.2-5.5,61.3-4.1,94.9,4.2c4.7,1.2,8.6,4.1,11,8.4C480.1,188,480.7,193,479.2,197.6z"></path><path d="M213.1,351.3c8.5-1,14.7-8.6,14.1-17.1l-2.9-36.8c-0.5-6.1-4.3-11.3-10-13.6c-11.7-4.7-22.8-11.5-33.8-23.4    c3.6-13,0.2-27.3-9.5-37.2c-2.5-2.5-4.6-4.7-6.6-6.7c2.3-7.9,2.1-16.6-1.1-24.8l-12.9-33.3c-3.1-7.9-8.5-14.2-15.1-18.5    c0.1-2.4,0.2-5,0.3-7.8c0.5-15.3-8.2-29.4-21.8-35.9c-1.1-18.4,1.3-36,9.4-52.1c3.6-7.2,1.3-16-5.4-20.5L86.4,2.7    c-5.9-3.9-13.6-3.5-19.1,1C39,27.1,18.8,61.5,10.4,100.6c0,0.1-0.1,0.3-0.1,0.4c-0.7,0.8-1.4,1.6-2,2.4    c-6.2,8.5-8.8,19.2-6.9,29.6l5.4,30.1c0.5,4.7,1.1,9.5,1.8,14.2c-2.2,2.7-4,5.7-5.5,8.9c-4.2,9.4-4.4,19.9-0.6,29.6l12.9,33.3    c5.3,13.5,17.4,22.4,30.9,24.3L71.5,313c5.6,8.9,14.7,15.1,25.1,17.1c2.4,0.5,4.8,0.7,7.3,0.7c2.9,0,5.7-0.3,8.5-1    c26.2,14.7,54.8,22.5,83,22.5C201.3,352.4,207.2,352,213.1,351.3z M79,36.3l9.9,6.6c-5,14-7.5,29-7.4,45.3    c-10.9-1.4-22.2-1.8-34-1.1C54.5,67.7,65,50.3,79,36.3z M34.1,122.5c0.6-0.8,1.9-2.2,4.3-2.5c7-0.8,13.8-1.3,20.3-1.3    c14.2,0,27.6,2,40.4,6c2.8,0.9,4.6,3.4,4.5,6.3c-0.1,1.5-0.1,3-0.1,4.4c-1,0.3-64.5,25-64.5,25l-5.9-33    C32.5,125,33.5,123.3,34.1,122.5z M54,241.3c-3.4,1.3-7.3-0.4-8.6-3.8l-12.9-33.3c-0.9-2.2-0.3-4.1,0.1-5.1    c0.4-0.9,1.4-2.6,3.7-3.5l75.8-29.5c3.4-1.3,7.3,0.4,8.6,3.8l12.9,33.3c1.3,3.4-0.4,7.3-3.8,8.6L54,241.3z M107.5,297.7    c-1.9,1.4-3.8,1.2-4.8,1c-1-0.2-2.9-0.8-4.1-2.8l-19.1-30.2l61.9-24.1c0.7-0.3,1.4-0.6,2.1-0.9c1.5,1.5,3,3.1,4.7,4.8    c2,2,2.4,5.2,0.9,7.7C139.2,270.2,125.6,284.7,107.5,297.7z M143.7,309.6c7.4-6.6,14-13.7,19.9-21.1c9.1,8.5,18.9,15.4,29.5,20.7    l0.9,11.1C177.2,320.2,160.1,316.5,143.7,309.6z"></path></g></g></svg>