<svg height='100px' width='100px'  fill="#000000" xmlns="http://www.w3.org/2000/svg" viewBox="0 0 64 64" x="0px" y="0px"><title>01 Shrimp</title><g data-name="01 Shrimp"><path d="M54.132,18.378A2.918,2.918,0,0,0,52.4,16.634a3.028,3.028,0,0,0-.127-2.437A18.244,18.244,0,0,0,46.65,7.725a2.934,2.934,0,0,0-2.51-.452A3.054,3.054,0,0,0,42.488,5.2,22.408,22.408,0,0,0,32.05,3.018a3,3,0,0,0-2.676,1.836l-.01.026A8.693,8.693,0,0,0,28.22,4.2a2.958,2.958,0,0,0-2.2-.163,21.991,21.991,0,0,0-9.865,6.52,2.933,2.933,0,0,0-.569,3.017c0,.01.011.017.015.027a6.371,6.371,0,0,0-3.128,2.244C11.429,17.119,9,20.464,9,24c0,2.906,1.967,6.371,11.338,6.371a11.173,11.173,0,0,0,8.126-3.517,5.044,5.044,0,0,0,1.387-3.931,2.894,2.894,0,0,0,2.241-1.062,4.143,4.143,0,0,1,2.231-1.628l.008,0h0a2.164,2.164,0,0,1,1.183.12,2.963,2.963,0,0,0,1.013.178,3.015,3.015,0,0,0,.391-.042,3.153,3.153,0,0,0,.692,1.366,5.549,5.549,0,0,1,.359.461,2.837,2.837,0,0,0,1.159.952,3.133,3.133,0,0,0-.125,1.618,10.133,10.133,0,0,1,.162,1.869l0,.3a3.063,3.063,0,0,0,.58,1.854,3.034,3.034,0,0,0-1.061,1.676,29.415,29.415,0,0,1-1.174,3.79,3.028,3.028,0,0,0-.009,2.146,2.992,2.992,0,0,0-1.557,1.437c-.184.372-.347.687-.478.935a2.861,2.861,0,0,0-.158.381c-4.933,3.973-11.172,12.05-13.28,20.483A1,1,0,0,0,23,61c3.076,0,6.033-2.117,8.051-3.991-.031.335-.051.667-.051.991a1,1,0,0,0,1,1,1.01,1.01,0,0,0,.316-.051c5.939-1.98,11.615-11.778,12.46-13.286a2.928,2.928,0,0,0,.268-.136,11.91,11.91,0,0,0,1.455-1.2,3.027,3.027,0,0,0,.863-2.775,3.018,3.018,0,0,0,2.424-1.441A34.092,34.092,0,0,0,53,32.831a3,3,0,0,0-.422-2.637,2.975,2.975,0,0,0,1.643-2.027A26.433,26.433,0,0,0,55,23,13.532,13.532,0,0,0,54.132,18.378ZM27.03,25.46a9.053,9.053,0,0,1-6.692,2.911C16.078,28.371,11,27.612,11,24c0-2.972,2.312-6.022,3.02-6.887a3.705,3.705,0,0,1,2.736-1.679c.033,0,.065,0,.1,0a13.96,13.96,0,0,1,1.477.152c.23.034.455.08.681.125.284.057.566.12.842.194.237.064.47.133.7.209.263.087.52.183.774.286.216.087.433.174.642.272.271.128.532.271.792.417.175.1.354.19.523.3a12.258,12.258,0,0,1,1.025.728c.06.048.127.088.187.137a12.063,12.063,0,0,1,1.1,1.032c.1.1.183.216.277.322.242.275.479.557.7.856.109.148.208.306.311.46a12.72,12.72,0,0,1,.677,1.1A2.991,2.991,0,0,1,27.03,25.46Zm3.521-4.875a.907.907,0,0,1-.791.335,1.017,1.017,0,0,1-.805-.505c-.015-.025-.034-.047-.049-.071-.235-.387-.49-.758-.758-1.117-.08-.107-.161-.213-.244-.318-.268-.337-.546-.663-.84-.973-.089-.093-.183-.182-.275-.273-.271-.27-.552-.53-.845-.777-.087-.074-.173-.149-.262-.221-.324-.26-.662-.5-1.008-.734-.107-.072-.212-.145-.321-.214q-.548-.345-1.127-.64c-.114-.059-.23-.114-.346-.17-.4-.192-.811-.372-1.233-.529-.087-.032-.176-.058-.263-.089-.4-.139-.8-.261-1.212-.367-.087-.023-.173-.05-.261-.071-.455-.108-.92-.191-1.39-.259-.063-.009-.124-.027-.188-.035a1.058,1.058,0,0,1-.873-.681.95.95,0,0,1,.19-.989,20.017,20.017,0,0,1,8.973-5.943.954.954,0,0,1,.29-.045,1.015,1.015,0,0,1,.435.1,8.145,8.145,0,0,1,2.426,1.888c.049.064.093.129.147.189.216.24.413.5.607.766a15.408,15.408,0,0,1,2.533,7.866c.006.07.015.134.02.2.02.292.025.606.035.912.008.228.019.453.021.686A6.862,6.862,0,0,0,30.551,20.585ZM36.2,18.471a4.551,4.551,0,0,0-1.062-.253c-.005-.281-.027-.545-.04-.819-.01-.221-.016-.449-.031-.663-.034-.5-.085-.978-.145-1.45-.006-.044-.01-.09-.016-.134a15.831,15.831,0,0,0-2.934-7.7q-.277-.372-.558-.7l-.006-.009a1.025,1.025,0,0,1-.2-1.107,1,1,0,0,1,.91-.617A20.348,20.348,0,0,1,41.618,7a1.035,1.035,0,0,1,.593,1.039,13.869,13.869,0,0,1-.258,1.487c-.037.157-.087.308-.128.463-.08.3-.161.605-.259.9-.076.231-.164.456-.25.682-.079.206-.156.413-.241.615-.105.246-.215.486-.328.724q-.12.255-.246.5c-.124.242-.25.481-.38.714-.085.153-.173.3-.26.45-.134.227-.268.454-.406.67-.1.157-.2.3-.3.457-.128.191-.256.388-.384.569-.224.317-.45.621-.674.91-.077.1-.149.187-.225.282-.2.245-.391.491-.58.713A1,1,0,0,1,36.2,18.471Zm2.853.718c.125-.15.256-.32.386-.483.084-.106.166-.2.251-.314.241-.313.486-.643.733-.994.134-.19.265-.393.4-.591.119-.178.237-.352.354-.538.145-.228.283-.465.423-.7.1-.176.207-.353.308-.536.136-.245.267-.494.4-.749.1-.2.2-.4.294-.607.116-.249.23-.5.338-.753s.2-.5.292-.754c.085-.229.174-.454.251-.688.131-.4.244-.808.347-1.222.025-.1.059-.2.082-.3l0-.01a1.026,1.026,0,0,1,.647-.734,1.042,1.042,0,0,1,.353-.063.918.918,0,0,1,.554.184,16.3,16.3,0,0,1,5.031,5.77,1.037,1.037,0,0,1-.224,1.225h0c-.316.293-.641.567-.969.831a21.368,21.368,0,0,1-2.35,1.637l-.012.007a25.666,25.666,0,0,1-3.388,1.7l-.09.037c-.3.124-.585.234-.853.333l-.192.069c-.208.076-.4.144-.583.2l-.255.083c-.141.046-.276.088-.392.123-.212.064-.4.118-.541.156a.956.956,0,0,1-1.031-.339,7.734,7.734,0,0,0-.488-.628A1.034,1.034,0,0,1,39.055,19.189ZM24.366,58.823A40.852,40.852,0,0,1,35.455,41.775c.019.05.05.092.071.141a6.54,6.54,0,0,0,.382.746c.048.082.088.171.14.251a6.193,6.193,0,0,0,.673.857c.012.013.021.029.033.042-.1.2-.2.386-.313.588-.078.141-.152.28-.233.424-.249.444-.506.9-.774,1.364-.3.529-.616,1.076-.929,1.636-.071.128-.14.262-.211.39-.241.438-.483.876-.716,1.327-.107.207-.2.42-.308.629-.19.381-.383.761-.559,1.148-.107.237-.194.477-.3.715-.148.352-.306.7-.436,1.058C31.4,53.812,27.989,57.917,24.366,58.823Zm8.778-2.445a14.68,14.68,0,0,1,.644-2.414c.008-.019.016-.038.023-.057h0a44.221,44.221,0,0,1,3.357-6.725c.367-.64.713-1.252,1.041-1.85.053-.095.115-.2.166-.294.04.021.082.033.122.054a7.682,7.682,0,0,0,.839.374l.051.021a8.833,8.833,0,0,0,.971.288c.023.006.044.009.066.014.287.066.568.117.845.156l.139.02c.271.034.536.061.789.075l.03,0C40.589,48.717,36.926,54.179,33.144,56.378Zm11.975-13.5h0a10.054,10.054,0,0,1-1.209,1,.936.936,0,0,1-.484.167h0c-.147.008-.324.015-.525.015h-.01a8.253,8.253,0,0,1-3.139-.583l-.07-.031c-.149-.067-.3-.142-.439-.223-.044-.024-.088-.048-.131-.074a4.485,4.485,0,0,1-.464-.318l-.022-.016h0a4.259,4.259,0,0,1-.543-.531c-.049-.057-.092-.119-.139-.178a4.333,4.333,0,0,1-.314-.46c-.041-.071-.081-.142-.118-.215a4.692,4.692,0,0,1-.241-.555c-.024-.065-.052-.127-.073-.194s-.027-.118-.043-.175a.994.994,0,0,1,.082-.678c.14-.261.312-.6.506-.987a1.014,1.014,0,0,1,.689-.539,1.028,1.028,0,0,1,.224-.025.911.911,0,0,1,.572.2c.035.027.074.049.109.076q.507.39,1.042.733c.113.072.228.139.342.208.307.185.619.36.937.522.116.059.23.118.346.174q.549.263,1.116.479c.067.025.132.056.2.08q.666.243,1.351.419c.026.007.051.017.076.024a.909.909,0,0,1,.661.669A1.024,1.024,0,0,1,45.119,42.88Zm5.969-10.651a32.042,32.042,0,0,1-3.02,6.858,1.017,1.017,0,0,1-.974.485,12.106,12.106,0,0,1-1.925-.339c-.4-.1-.792-.224-1.181-.366-.044-.016-.088-.037-.132-.054q-.51-.194-1-.431c-.095-.045-.188-.094-.282-.141q-.423-.216-.83-.464c-.094-.057-.189-.111-.281-.171q-.477-.3-.925-.65c-.314-.242-.62-.5-.913-.768a1.008,1.008,0,0,1-.24-1.1,31.2,31.2,0,0,0,1.253-4.05,1.021,1.021,0,0,1,.5-.673,1.008,1.008,0,0,1,.491-.128,1.053,1.053,0,0,1,.339.057c.114.039.231.07.346.106s.224.071.337.1c.434.126.873.238,1.318.328.056.011.113.019.17.03.434.082.873.145,1.315.192.067.007.133.016.2.022.478.044.96.068,1.444.069.029,0,.056,0,.085,0,.12,0,.238-.008.358-.011a16.445,16.445,0,0,0,2.418-.233,1,1,0,0,1,.924.328A1.021,1.021,0,0,1,51.088,32.229Zm1.176-4.494a1,1,0,0,1-.711.743,17.681,17.681,0,0,1-4.09.66c-.118,0-.236.006-.354.006q-.645,0-1.279-.061l-.15-.017Q45.086,29,44.5,28.894c-.045-.008-.09-.014-.135-.023-.393-.079-.779-.178-1.162-.289q-.143-.042-.282-.087c-.387-.122-.77-.254-1.144-.41a1.032,1.032,0,0,1-.614-.98l0-.353a12.183,12.183,0,0,0-.2-2.237,1.027,1.027,0,0,1,.683-1.214c.537-.158,1.369-.43,2.368-.831l.079-.032q.27-.11.554-.232l.116-.049c.215-.093.434-.191.659-.3.081-.037.164-.079.246-.117.138-.066.276-.132.417-.2.125-.062.251-.127.378-.193.1-.052.2-.1.3-.157l.421-.229.276-.156c.147-.084.294-.169.442-.257l.263-.161c.153-.094.306-.188.459-.287.076-.049.152-.1.228-.151q.4-.267.8-.558c.118-.085.235-.168.352-.256s.218-.169.327-.255.2-.155.3-.236a1.039,1.039,0,0,1,.658-.237,1.061,1.061,0,0,1,.283.039.955.955,0,0,1,.657.606A11.575,11.575,0,0,1,53,23,25.233,25.233,0,0,1,52.264,27.735Z"></path></g></svg>