<svg height='100px' width='100px'  fill="#000000" xmlns="http://www.w3.org/2000/svg" xmlns:xlink="http://www.w3.org/1999/xlink" version="1.1" x="0px" y="0px" viewBox="0 0 100 100" enable-background="new 0 0 100 100" xml:space="preserve"><g><g><path fill="none" d="M36.163,63.519c-0.265-0.966-1.236-2.857-1.866-3.633c-0.886,0.498-2.612,2.033-3.501,2.824    c-0.575,0.511-1.086,0.965-1.459,1.26c-0.975,0.777-3.047,2.017-4.448,2.829c0.128,0.237,0.245,0.479,0.345,0.729    c1.463-0.87,3.512-2.012,4.722-2.356c0.457-0.131,1.124-0.283,1.876-0.453C32.991,64.458,35.242,63.948,36.163,63.519z"></path><path fill="none" d="M28.859,60.533c2.272-2.022,3.728-3.22,4.915-3.58c0.089-0.115,0.199-0.248,0.321-0.388    c-2.319-1.3-3.843-3.773-3.843-6.562c0-4.15,3.376-7.526,7.526-7.526c3.677,0,6.741,2.652,7.393,6.143    c3.451-1.933,7.897-4.166,13.609-6.692c0.13-0.605,0.274-1.244,0.437-1.944c1.144-4.901,2.711-11.614-0.237-16.101    c-1.588-2.417-4.311-3.945-8.324-4.67c-5.252-0.948-10.312,0.457-14.633,4.067c-6.096,5.094-9.883,13.927-9.883,23.052    c0,6.039,0.667,10.662,2.135,14.717C28.462,60.886,28.651,60.718,28.859,60.533z M48.092,23.438c4.15,0,7.526,3.376,7.526,7.526    s-3.376,7.526-7.526,7.526s-7.526-3.376-7.526-7.526S43.942,23.438,48.092,23.438z"></path><path fill="none" d="M42.392,50.003c0-2.544-2.069-4.613-4.612-4.613c-2.544,0-4.613,2.069-4.613,4.613    c0,2.038,1.33,3.789,3.226,4.385c1.346-1.109,3.261-2.489,5.976-4.137C42.373,50.168,42.392,50.087,42.392,50.003z"></path><circle fill="none" cx="48.092" cy="30.965" r="4.613"></circle><path fill="none" d="M17.593,65.752c-0.935,0-1.868,0.2-2.675,0.615c-2.23,1.149-3.54,2.121-4.512,4.242    c-0.566,1.235-1.33,2.903-1.901,4.465c0.137-0.037,0.276-0.076,0.415-0.115c0.914-0.255,1.955-0.542,3.076-0.5    c0.916,0.038,1.821,0.145,2.697,0.249c3.234,0.386,5.309,0.524,7.125-1.392c1.447-1.525,1.401-4.429-0.094-5.975    C20.726,66.31,19.156,65.752,17.593,65.752z"></path><path fill="none" d="M81.066,36.189C48.427,48.061,39.009,55.696,36.624,58.144c0.388,0.493,0.832,1.179,1.329,2.145    c0.571,1.11,0.876,1.937,1.037,2.577c3.306,0.063,15.773-1.412,45.244-21.593c4.689-2.839,8.207-6.327,7.848-7.221    C91.256,33.406,85.98,34.387,81.066,36.189z"></path><path fill="none" d="M79.42,52.501c0.018,2.02-0.706,4.13-2.036,5.942s-3.127,3.133-5.06,3.721    c-0.734,0.224-1.458,0.334-2.154,0.334c-1.282,0-2.473-0.375-3.475-1.11c-1.375-1.009-2.197-2.589-2.379-4.428    c-1.973,1.053-3.817,1.983-5.54,2.804c2.568,1.199,4.356,3.8,4.356,6.816c0,4.15-3.376,7.526-7.526,7.526    c-4.15,0-7.526-3.376-7.526-7.526c0-0.936,0.179-1.829,0.493-2.656c-4.652,1.511-7.664,1.849-9.412,1.849    c-0.417,0-0.756-0.02-1.035-0.046c-1.007,0.711-2.792,1.187-5.652,1.834c-0.252,0.057-0.487,0.11-0.713,0.162    c1.581,2.237,3.523,4.322,5.909,6.332c10.912,9.113,20.666,7.739,26.928,4.978c9.573-4.219,17.121-14.736,17.557-24.463    c0.141-3.141-0.34-5.636-1.426-7.442c-0.827,0.543-1.64,1.069-2.439,1.581C79.01,49.75,79.408,51.043,79.42,52.501z"></path><path fill="none" d="M68.42,59.04c0.788,0.577,1.873,0.697,3.057,0.337c1.335-0.406,2.6-1.35,3.56-2.658    c0.96-1.308,1.483-2.797,1.47-4.193c-0.008-0.904-0.249-1.677-0.683-2.255c-3.077,1.922-5.929,3.607-8.575,5.088    C67.019,56.956,67.448,58.327,68.42,59.04z"></path><circle fill="none" cx="55.607" cy="66.581" r="4.613"></circle><path d="M48.092,38.491c4.15,0,7.526-3.376,7.526-7.526s-3.376-7.526-7.526-7.526s-7.526,3.376-7.526,7.526    S43.942,38.491,48.092,38.491z M48.092,26.352c2.543,0,4.612,2.069,4.612,4.613s-2.069,4.613-4.612,4.613    c-2.543,0-4.612-2.069-4.612-4.613S45.549,26.352,48.092,26.352z"></path><path d="M94.785,32.966c-1.498-3.723-9.867-1.293-14.719,0.487c-6.986,2.541-12.912,4.885-17.976,7.04    c1.193-5.109,2.925-12.731-0.674-18.21c-2.022-3.077-5.467-5.075-10.242-5.938c-6.129-1.107-12.014,0.519-17.018,4.699    c-6.741,5.631-10.929,15.322-10.929,25.288c0,6.78,0.82,11.916,2.616,16.494c-0.963,0.603-2.058,1.247-2.899,1.729    c-2.57-1.941-6.391-2.31-9.363-0.777c-2.628,1.353-4.519,2.765-5.826,5.617c-0.876,1.912-2.199,4.8-2.72,7.062    c-0.093,0.406-0.009,0.833,0.233,1.171c0.241,0.34,0.616,0.56,1.03,0.604c0.203,0.022,0.404,0.032,0.602,0.032    c1.017,0,1.957-0.263,2.802-0.5c0.774-0.216,1.504-0.426,2.171-0.394c0.803,0.032,1.614,0.129,2.473,0.231    c3.126,0.37,6.667,0.792,9.583-2.281c1.197-1.262,1.807-2.978,1.849-4.718c0.949-0.586,2.14-1.283,3.168-1.821    c1.8,2.681,4.048,5.146,6.85,7.506c6.111,5.104,12.741,7.704,19.355,7.704c3.573,0,7.141-0.759,10.619-2.292    c10.689-4.711,18.803-16.066,19.292-26.998c0.169-3.783-0.473-6.864-1.906-9.184c0.869-0.582,1.752-1.18,2.651-1.796    C89.028,41.778,96.342,36.838,94.785,32.966z M36.025,23.28c4.321-3.61,9.381-5.015,14.633-4.067    c4.013,0.725,6.736,2.252,8.324,4.67c2.948,4.487,1.381,11.199,0.237,16.101c-0.163,0.7-0.308,1.339-0.437,1.944    c-5.712,2.526-10.158,4.759-13.609,6.692c-0.652-3.491-3.716-6.143-7.393-6.143c-4.15,0-7.526,3.376-7.526,7.526    c0,2.789,1.524,5.262,3.843,6.562c-0.122,0.141-0.232,0.273-0.321,0.388c-1.187,0.36-2.643,1.558-4.915,3.58    c-0.208,0.185-0.397,0.353-0.583,0.516c-1.468-4.055-2.135-8.677-2.135-14.717C26.142,37.207,29.929,28.374,36.025,23.28z     M29.956,65.173c-1.21,0.344-3.259,1.486-4.722,2.356c-0.101-0.25-0.217-0.492-0.345-0.729c1.401-0.812,3.473-2.052,4.448-2.829    c0.373-0.296,0.884-0.749,1.459-1.26c0.889-0.791,2.615-2.326,3.501-2.824c0.631,0.777,1.602,2.667,1.866,3.633    c-0.921,0.43-3.172,0.939-4.331,1.201C31.08,64.89,30.413,65.042,29.956,65.173z M36.393,54.388    c-1.897-0.596-3.226-2.347-3.226-4.385c0-2.544,2.069-4.613,4.613-4.613c2.543,0,4.612,2.069,4.612,4.613    c0,0.083-0.019,0.165-0.023,0.248C39.654,51.899,37.738,53.279,36.393,54.388z M21.818,73.317    c-1.817,1.916-3.891,1.778-7.125,1.392c-0.876-0.104-1.782-0.211-2.697-0.249c-1.121-0.043-2.162,0.245-3.076,0.5    c-0.14,0.039-0.278,0.078-0.415,0.115c0.571-1.562,1.335-3.23,1.901-4.465c0.972-2.122,2.282-3.093,4.512-4.242    c0.808-0.415,1.74-0.615,2.675-0.615c1.563,0,3.132,0.558,4.13,1.59C23.218,68.888,23.264,71.792,21.818,73.317z M82.155,54.571    c-0.436,9.728-7.983,20.244-17.557,24.463c-6.262,2.761-16.016,4.135-26.928-4.978c-2.386-2.01-4.328-4.096-5.909-6.332    c0.225-0.052,0.461-0.106,0.713-0.162c2.86-0.647,4.646-1.123,5.652-1.834c0.279,0.026,0.618,0.046,1.035,0.046    c1.749,0,4.76-0.338,9.412-1.849c-0.314,0.827-0.493,1.72-0.493,2.656c0,4.15,3.376,7.526,7.526,7.526    c4.15,0,7.526-3.376,7.526-7.526c0-3.017-1.788-5.617-4.356-6.816c1.722-0.821,3.567-1.751,5.54-2.804    c0.182,1.838,1.003,3.418,2.379,4.428c1.001,0.735,2.193,1.11,3.475,1.11c0.697,0,1.42-0.11,2.154-0.334    c1.933-0.588,3.729-1.91,5.06-3.721s2.053-3.922,2.036-5.942c-0.012-1.458-0.41-2.751-1.13-3.792    c0.799-0.512,1.611-1.038,2.439-1.581C81.815,48.934,82.296,51.43,82.155,54.571z M55.607,61.968c2.544,0,4.613,2.069,4.613,4.613    s-2.069,4.613-4.613,4.613c-2.543,0-4.612-2.069-4.612-4.613S53.064,61.968,55.607,61.968z M75.824,50.271    c0.434,0.578,0.675,1.351,0.683,2.255c0.012,1.396-0.51,2.885-1.47,4.193c-0.96,1.308-2.225,2.252-3.56,2.658    c-1.184,0.36-2.269,0.24-3.057-0.337c-0.972-0.713-1.401-2.084-1.17-3.681C69.895,53.878,72.747,52.193,75.824,50.271z     M84.234,41.274C54.763,61.454,42.296,62.93,38.99,62.867c-0.161-0.64-0.466-1.468-1.037-2.577    c-0.497-0.967-0.941-1.653-1.329-2.145c2.385-2.448,11.804-10.083,44.442-21.955c4.914-1.802,10.19-2.783,11.016-2.137    C92.442,34.947,88.923,38.434,84.234,41.274z"></path></g></g></svg>