<svg height='100px' width='100px'  fill="#000000" xmlns="http://www.w3.org/2000/svg" xmlns:xlink="http://www.w3.org/1999/xlink" version="1.1" x="0px" y="0px" viewBox="0 0 100 100" enable-background="new 0 0 100 100" xml:space="preserve"><g><g><g><path fill="#000000" d="M-4.25-79.312c1.206,0,1.208-1.875,0-1.875C-5.456-81.188-5.458-79.312-4.25-79.312L-4.25-79.312z"></path></g></g><path d="M91.938,62.848c-0.698-0.137-1.482-0.272-2.33-0.403l-3.384-8.277c-0.142-0.345-0.463-0.583-0.835-0.617   c-0.04-0.004-0.497-0.044-1.305-0.11l-2.522-7.523c-0.124-0.37-0.452-0.634-0.841-0.676c-0.053-0.006-0.936-0.099-2.485-0.238   c0.002-0.104,0.001-0.208-0.031-0.312l-2.309-7.506c-0.116-0.378-0.445-0.653-0.839-0.699c-0.04-0.005-0.681-0.078-1.793-0.188   c-0.008-0.035-0.001-0.069-0.013-0.104l-1.894-5.639c-0.124-0.37-0.453-0.634-0.841-0.676c-0.036-0.004-0.637-0.068-1.688-0.162   c0.055-0.189,0.073-0.39,0.006-0.591l-1.521-4.564c-0.123-0.371-0.451-0.635-0.84-0.678l-0.422-0.046l-0.385-6.979   c-0.024-0.455-0.354-0.836-0.802-0.925c-0.399-0.08-6.219-1.219-13.634-1.43V5.03c0-0.552-0.448-1-1-1s-1,0.448-1,1v9.441   c-4.485-0.019-9.4,0.339-13.981,1.472c-0.448,0.111-0.763,0.515-0.76,0.977c0,0.048,0.024,4.381-0.079,6.881   c-0.063,0.009-0.122,0.016-0.186,0.025l-0.455,0.061c-0.3,0.041-0.565,0.214-0.722,0.472c-0.369,0.608-2.219,3.721-2.395,5.289   c-0.005,0.048,0.011,0.092,0.012,0.139c-0.253,0.032-0.509,0.061-0.76,0.095c-0.298,0.04-0.563,0.212-0.721,0.47   c-0.26,0.426-2.418,3.997-2.876,6.036c-0.248,0.034-0.498,0.065-0.745,0.101c-0.307,0.045-0.576,0.23-0.728,0.501   c-0.323,0.576-3.057,5.519-3.496,8.106c-0.395,0.05-0.794,0.096-1.187,0.148c-0.273,0.037-0.519,0.184-0.679,0.408   c-0.378,0.525-3.426,4.832-4.208,7.725c-0.539,0.056-1.075,0.114-1.61,0.175c-0.3,0.034-0.569,0.202-0.731,0.457   c-0.38,0.597-3.626,5.759-4.16,8.604c-0.286,0.09-0.563,0.183-0.821,0.279c-0.392,0.146-0.651,0.519-0.651,0.937v18.713v0.56v7.65   c0,0.487,0.351,0.903,0.831,0.985c0.358,0.062,24.626,3.953,49.276,3.953c12.463,0,25.026-0.995,34.641-3.983   c0.418-0.13,0.703-0.518,0.703-0.955v-7.65V63.829C92.745,63.352,92.407,62.94,91.938,62.848z M90.745,82.356   c-2.138,0.612-4.714,1.121-7.701,1.532V63.634c3.034,0.314,5.654,0.659,7.701,1.026V82.356z M39.633,84.573V61.869   c1.251-0.012,2.519-0.021,3.823-0.021c1.663,0,3.339,0.01,5.021,0.029l-0.283,23.049C45.302,84.833,42.432,84.712,39.633,84.573z    M9.294,64.542c1.608-0.513,3.853-0.959,6.633-1.334v19.694c-3.104-0.284-5.422-0.527-6.633-0.673V64.542z M17.928,62.96   c2.583-0.291,5.546-0.529,8.853-0.708v21.534c-3.284-0.237-6.274-0.479-8.853-0.705V62.96z M28.78,62.154   c2.751-0.125,5.705-0.214,8.853-0.262v22.577c-3.082-0.165-6.056-0.35-8.853-0.543V62.154z M50.477,61.905   c2.969,0.047,5.939,0.122,8.861,0.222v23.001c-3.017-0.007-6.085-0.057-9.145-0.142L50.477,61.905z M61.338,62.2   c3.04,0.117,6.01,0.26,8.854,0.427V84.94c-2.757,0.111-5.712,0.172-8.854,0.185V62.2z M72.191,62.749   c3.167,0.202,6.146,0.433,8.853,0.687V84.14c-2.661,0.308-5.608,0.546-8.853,0.71V62.749z M36.494,17.705   c10.938-2.469,23.974-0.508,27.221,0.052l0.324,5.862c-14.767-1.604-16-1.642-27.616-0.088   C36.49,21.63,36.496,19.011,36.494,17.705z M34.517,25.806c13.912-1.874,13.919-1.872,30.905-0.024l0.199,0.022l1.25,3.749   c-6.626-0.526-21.167-1.369-34.161-0.001C32.962,28.66,33.814,27.01,34.517,25.806z M30.648,31.802   c15.942-2.049,35.296-0.359,39.021,0.002l1.441,4.292c-7.909-0.701-26.34-1.925-42.63,0.013   C28.934,34.875,29.901,33.066,30.648,31.802z M26.345,38.398c19.664-2.776,43.622-0.446,47.834,0.003l1.975,6.423   c-9.577-0.788-32.536-2.219-52.713,0.023C23.951,43.008,25.5,39.954,26.345,38.398z M20.852,47.17   c24.42-3.192,54.308-0.47,59.02-0.004l2.048,6.108c-9.878-0.733-39.062-2.503-64.477-0.111   C18.185,51.219,19.904,48.532,20.852,47.17z M14.36,55.487c29.274-3.234,65.174-0.423,70.244,0.003l2.71,6.628   c-1.511-0.198-3.181-0.386-4.985-0.565c-0.092-0.028-0.184-0.057-0.285-0.057c-0.034,0-0.063,0.016-0.097,0.02   c-10.352-1.004-24.904-1.667-38.491-1.667c-4.288,0-9.982,0.071-15.672,0.347c-0.001,0-0.002-0.001-0.004-0.001   c-0.002,0-0.004,0.001-0.006,0.001c-6.209,0.302-12.41,0.851-16.772,1.826C11.706,59.995,13.421,57.007,14.36,55.487z    M9.294,89.896v-5.664c4.537,0.518,21.315,2.175,39.536,2.722c0.106,0.04,0.217,0.071,0.337,0.072c0.004,0,0.008,0,0.012,0   c0.097,0,0.185-0.029,0.274-0.055c3.504,0.1,7.055,0.159,10.579,0.159c0.002,0,0.001,0,0.003,0c0.084,0,0.164-0.001,0.248-0.001   c0.019,0.001,0.035,0.011,0.054,0.011c0.02,0,0.037-0.01,0.056-0.011c13.562-0.016,23.764-0.922,30.351-2.698v5.579   C64.311,97.838,16.201,90.951,9.294,89.896z"></path></g></svg>