<svg height='100px' width='100px'  fill="#000000" xmlns="http://www.w3.org/2000/svg" xmlns:xlink="http://www.w3.org/1999/xlink" version="1.1" x="0px" y="0px" viewBox="0 0 100 100" style="enable-background:new 0 0 100 100;" xml:space="preserve"><g><g><g><g><g><g><g><path d="M69.21,81.88c-2.27,0-4.63-0.24-7.07-0.71c-9.78-1.91-19.66-7.49-27.82-15.72c-8.16-8.23-13.65-18.16-15.47-27.96         c-1.87-10.08,0.34-18.85,6.23-24.69l0,0c11.94-11.84,35.52-7.48,52.57,9.7c17.04,17.19,21.19,40.81,9.25,52.65         C82.43,79.58,76.3,81.88,69.21,81.88z M27.89,15.64c-4.92,4.88-6.74,12.38-5.11,21.12c1.68,9.02,6.78,18.21,14.38,25.87         c7.6,7.67,16.74,12.86,25.75,14.61c8.72,1.7,16.24-0.05,21.16-4.93c10.38-10.29,6.22-31.37-9.27-46.99         C59.31,9.7,38.27,5.36,27.89,15.64L27.89,15.64z"></path></g></g></g></g></g><g><g><g><g><g><g><path d="M46.03,93.91c-2.78,0-17.33-0.55-28.37-11.58c-0.02-0.02-0.04-0.04-0.06-0.06C5.79,70.33,6.22,54.3,6.25,53.62          c0.35-21.64,15.93-37.86,16.6-38.54l1.55-1.57c0.78-0.79,2.04-0.79,2.83-0.01c0.78,0.78,0.79,2.04,0.01,2.83l-1.54,1.55          c-0.14,0.14-15.12,15.79-15.45,35.85c-0.01,0.19-0.37,15.16,10.32,25.85c0.01,0.01,0.03,0.03,0.04,0.04          c10.78,10.66,25.62,10.3,25.77,10.29c20.12-0.29,35.24-15.17,35.39-15.32l1.46-1.47c0.78-0.78,2.04-0.79,2.83,0          c0.78,0.78,0.78,2.05,0,2.83l-1.46,1.47c-0.66,0.66-16.38,16.18-38.13,16.5C46.43,93.91,46.27,93.91,46.03,93.91z"></path></g></g></g></g></g></g><g><g><g><g><g><path d="M67.69,53.03c0.14-0.14,0.35-0.21,0.62-0.19c0.9,0.04,2.64,1.01,4.33,2.41c1.56,1.29,2.56,2.7,2.67,3.77         c0.05,0.49-0.09,0.92-0.4,1.23c-0.31,0.31-0.7,0.45-1.16,0.43c-1.06-0.05-2.46-1.04-3.85-2.7         C68.55,56.36,66.97,53.75,67.69,53.03z"></path></g></g></g></g></g><g><g><g><g><g><path d="M71.06,51.04c-2.02-1.15-4.16-3.01-4.09-3.98c0.02-0.34,0.31-0.91,1.92-0.83c0.77,0.04,1.72,0.22,2.65,0.51         c2.57,0.8,4.28,2.45,4.16,4.01c-0.07,0.92-0.67,1.41-1.66,1.36C73.25,52.08,72.22,51.71,71.06,51.04z"></path></g></g></g></g></g><g><g><g><g><g><path d="M43.53,34.34c2.02,1.15,4.16,3,4.09,3.98c-0.03,0.34-0.31,0.91-1.93,0.83c-0.77-0.04-1.72-0.22-2.65-0.51         c-2.56-0.8-4.28-2.45-4.16-4.01c0.07-0.92,0.67-1.41,1.66-1.36C41.33,33.3,42.37,33.67,43.53,34.34z"></path></g></g></g></g></g><g><g><g><g><g><path d="M72.93,39.33c1.64,0.08,2.94,0.9,3.5,2.2c0.39,0.92,0.22,1.5,0,1.84c-0.42,0.64-1.39,0.96-2.74,0.89         c-0.11,0-0.22-0.01-0.33-0.02c-2.23-0.2-4.45-1.15-4.85-2.08c-0.13-0.29-0.11-0.61,0.03-0.91c0.35-0.75,1.51-1.45,2.95-1.78         C71.97,39.35,72.45,39.31,72.93,39.33z"></path></g></g></g></g></g><g><g><g><g><g><path d="M61.1,52.71c0.18-0.27,0.41-0.34,0.65-0.36c0.99,0.05,2.79,2.16,3.9,4.09c0.57,1,1.44,2.82,0.92,3.92         c-0.15,0.3-0.48,0.68-1.21,0.74c-0.09,0.01-0.17,0.01-0.26,0c-1.49-0.07-3-1.75-3.76-4.17         C60.87,55.39,60.61,53.48,61.1,52.71z"></path></g></g></g></g></g><g><g><g><g><g><path d="M56.77,53.91c0.93,0.4,1.88,2.62,2.08,4.85c0.12,1.33-0.09,2.31-0.61,2.86c-0.3,0.32-0.71,0.47-1.17,0.45         c-0.28-0.01-0.59-0.09-0.92-0.23c-1.72-0.74-2.57-2.77-2.07-4.95c0.36-1.56,1.27-3.11,2.32-3.06         C56.52,53.83,56.65,53.85,56.77,53.91z"></path></g></g></g></g></g><g><g><g><g><g><path d="M41.2,41.13c2.22,0.2,4.44,1.16,4.84,2.08c0.12,0.29,0.11,0.61-0.03,0.91c-0.35,0.75-1.51,1.45-2.95,1.78         c-0.48,0.11-0.96,0.15-1.44,0.13c-1.63-0.08-2.94-0.9-3.5-2.21c-0.4-0.92-0.22-1.5,0-1.83c0.42-0.64,1.4-0.96,2.74-0.89         L41.2,41.13z"></path></g></g></g></g></g><g><g><g><g><g><path d="M53.49,32.66c-0.18,0.27-0.41,0.34-0.57,0.35l-0.09,0c-0.99-0.05-2.8-2.16-3.9-4.09c-0.57-0.99-1.44-2.82-0.92-3.91         c0.15-0.31,0.48-0.69,1.21-0.74c0.08,0,0.17-0.01,0.26,0c1.49,0.07,3,1.75,3.76,4.16C53.73,29.98,53.99,31.89,53.49,32.66z"></path></g></g></g></g></g><g><g><g><g><g><path d="M58.19,31.53c-0.13-0.01-0.25-0.03-0.37-0.09c-0.93-0.4-1.88-2.62-2.08-4.84c-0.12-1.33,0.09-2.32,0.61-2.86         c0.3-0.32,0.71-0.47,1.17-0.45c0.28,0.01,0.59,0.09,0.92,0.23c1.72,0.74,2.57,2.78,2.07,4.95         C60.17,29.98,59.3,31.58,58.19,31.53C58.19,31.53,58.19,31.53,58.19,31.53z"></path></g></g></g></g></g><g><g><g><g><g><path d="M40.87,24.62c1.06,0.05,2.46,1.04,3.84,2.7c1.35,1.62,2.94,4.23,2.22,4.95c-0.14,0.14-0.35,0.21-0.62,0.19         c-0.9-0.04-2.64-1.01-4.34-2.41c-1.56-1.29-2.56-2.7-2.67-3.77c-0.05-0.5,0.09-0.92,0.4-1.23         C40.02,24.74,40.41,24.6,40.87,24.62z"></path></g></g></g></g></g><g><g><g><g><g><path d="M63.87,37.83c-0.56-0.03-1-0.18-1.28-0.46c-0.9-0.9-0.47-2.93,0.47-4.38c0.65-1,1.57-1.55,2.54-1.5         c0.68,0.03,1.35,0.36,1.93,0.94c0.67,0.67,1.01,1.42,0.98,2.15c-0.04,0.87-0.58,1.69-1.53,2.32         C66.02,37.53,64.86,37.88,63.87,37.83z"></path></g></g></g></g></g><g><g><g><g><g><path d="M50.72,47.49c0.56,0.03,1.01,0.19,1.28,0.46c0.9,0.9,0.46,2.93-0.47,4.39c-0.65,1-1.57,1.54-2.55,1.5         c-0.68-0.03-1.35-0.36-1.93-0.94c-0.67-0.67-1-1.41-0.97-2.15c0.04-0.87,0.58-1.69,1.53-2.32         C48.58,47.79,49.74,47.44,50.72,47.49z"></path></g></g></g></g></g></g></g></svg>