<svg height='100px' width='100px'  fill="#000000" xmlns="http://www.w3.org/2000/svg" xmlns:xlink="http://www.w3.org/1999/xlink" version="1.1" x="0px" y="0px" viewBox="0 0 100 100" style="enable-background:new 0 0 100 100;" xml:space="preserve"><path d="M73.7,21.7c-0.8-1.5-2.4-2.6-4.4-3.1c-0.6-0.1-1.2-0.3-2-0.4c-0.3-0.1-0.6-0.2-0.8-0.4v-0.2c0.1-0.3,0.2-0.6,0.3-0.8  c0.2-0.8,0.3-2.4-1.3-3.9c-1.5-1.4-3.6-2.1-5.7-2c-1,0.1-2.1,0.4-3.4,1.1V7.4c0-2.7-2.8-4.7-6.5-4.7s-6.5,2-6.5,4.7v4.1  c-0.9-0.4-1.7-0.5-2.3-0.6c-2.1-0.2-4.3,0.5-5.8,2c-1.6,1.5-1.5,3.1-1.3,3.9c0.1,0.2,0.1,0.5,0.3,0.7c-0.8,0.3-1.5,0.6-2.3,1l0,0  c-0.1,0-0.3,0.1-0.4,0.1c-1.5,0.4-2.8,1.1-3.6,2.1C15.6,28.2,8.3,40.9,8.3,54.9C8.3,77.1,27,95.2,50,95.2s41.7-18.1,41.7-40.3  C91.7,41.7,85,29.3,73.7,21.7z M50,92c-21.2,0-38.5-16.6-38.5-37.1c0-12.6,6.5-23.7,16.4-30.4c0.1,0.4,0.2,0.7,0.4,1.1v1.9l0,0  c0.2,1,0.9,1.7,1.9,2c2,0.5,3.7,0,6-0.6c0.3-0.1,0.6-0.2,0.9-0.2c-0.9,1.1-1.6,2.3-1.6,3.6c0,0.6,0.1,1.2,0.4,1.7c0,0.4,0,0.9,0,1.2  v0.1v0.1c0,0.1,0,0.1,0,0.1v0.1l0,0c0.2,1.3,1.2,2.5,3,3.4c1,0.5,2.5,0.4,4-0.3c2.7-1.2,4.8-3.9,5.8-7.4c0.6-2.1,1-2.3,1.1-2.3  s0.1,0,0.2,0c0.3,0,0.7,0,1.3,2.1c1.4,5.1,3.8,7.8,6.9,8.3c0.2,0,0.4,0,0.6,0c1.8,0,3.5-1.3,4.1-3.2c0.1-0.3,0.1-0.6,0.2-1l0,0V34  c0.1-0.2,0.2-0.4,0.2-0.7c0.4-1.5,0.2-3.3-1.2-5c0.9,0.2,1.7,0.4,2.4,0.6c2.4,0.6,4.1,1.1,6,0.6c1-0.2,1.6-0.9,1.9-1.7l0,0v-0.2  c0-0.2,0-0.3,0-0.5c0-0.1,0-0.3,0-0.4v-1.1c0.1-0.2,0.2-0.4,0.3-0.6c9.5,6.8,15.7,17.6,15.7,29.9C88.5,75.4,71.2,92,50,92z   M41.4,21.1c0.3,0,0.6,0.1,0.8,0.1c0.8,0.1,1-0.4,1.1-0.6c0.1-0.4,0.2-1.1-3.9-2.3c-1.4-0.4-2.5-1.3-2.6-2c-0.1-0.4,0.1-0.9,0.5-1.3  c0.9-0.9,2.2-1.3,3.6-1.2c1.6,0.1,3.1,1.1,4.3,2.8l0.3,0.5V21c0,1.6,1.9,2.9,4.4,2.9s4.4-1.3,4.4-2.9v-2.8l1.4-1.8  c1.2-1.7,2.7-2.6,4.3-2.8c1.3-0.1,2.7,0.3,3.6,1.2c0.5,0.4,0.6,0.9,0.5,1.3c-0.2,0.8-1.3,1.6-2.6,2c-4.1,1.2-3.9,2-3.9,2.3  c0,0.2,0.2,0.7,1.1,0.6c0.2,0,0.4,0,0.8-0.1c1.7-0.2,5.8-0.6,9.2,0.2c2,0.5,2.9,1.8,2.9,2.8c0,0.7-0.5,1.3-1.2,1.5  c-1.7,0.4-3.2,0-5.5-0.6c-1-0.3-2.1-0.6-3.4-0.8c-1.5-0.3-5.1-0.9-5.6,0.6c0,0.1-0.2,0.9,0.9,1.4c4.8,2.1,5.9,4.9,5.4,6.8  c-0.5,1.6-2,2.7-3.6,2.5c-2.7-0.4-4.8-3-6.1-7.6c-0.6-2-1.1-2.8-2.2-2.8h-0.1L50,25c-1,0-1.5,1.2-2,3.1c-1.2,4.6-4.1,6.3-5.3,6.8  c-1.5,0.7-2.6,0.6-3.1,0.3c-1.7-0.8-2.5-1.8-2.5-3c0-2.3,3.5-5.2,7.1-7c0.5-0.3,0.6-0.7,0.5-1c-0.2-0.6-0.8-1-5.1-0.1  c-1.3,0.3-2.4,0.6-3.4,0.8c-2.3,0.6-3.8,1-5.5,0.6c-0.8-0.2-1.2-0.7-1.2-1.5c0-1,0.9-2.3,2.9-2.8C35.5,20.5,39.6,20.9,41.4,21.1z   M53.7,7.4c0,0.9-1.5,1.9-3.8,1.9c-2.2,0-3.8-1-3.8-1.9s1.5-1.9,3.8-1.9C52.1,5.5,53.7,6.5,53.7,7.4z M46.9,15.8  c0.8,0.4,1.9,0.6,3.1,0.6c1.2,0,2.2-0.2,3.1-0.6V16v5c0,0.7-1.3,1.5-3.1,1.5c-1.7,0-3.1-0.8-3.1-1.5V15.8z M49.9,10.7  c1.5,0,2.8-0.4,3.8-1v3.4l0,0c0,0.9-1.5,1.9-3.8,1.9c-2.2,0-3.8-1-3.8-1.9l0,0V9.7C47.1,10.3,48.4,10.7,49.9,10.7z M28.6,34.8  c-11.3,8-12.8,17.2-14.2,26.3C12.6,45.2,23.6,36.2,28.6,34.8z M85.3,61.1C84,52,82.4,42.8,71.2,34.8C76.2,36.2,87.2,45.2,85.3,61.1z   M49.2,40.7c2.2,5.8,1.9,25.5,0.7,33.5C47.2,66.3,48.9,43.8,49.2,40.7z"></path></svg>