<svg height='100px' width='100px'  fill="#000000" xmlns:dc="http://purl.org/dc/elements/1.1/" xmlns:cc="http://creativecommons.org/ns#" xmlns:rdf="http://www.w3.org/1999/02/22-rdf-syntax-ns#" xmlns:svg="http://www.w3.org/2000/svg" xmlns="http://www.w3.org/2000/svg" xmlns:sodipodi="http://sodipodi.sourceforge.net/DTD/sodipodi-0.dtd" xmlns:inkscape="http://www.inkscape.org/namespaces/inkscape" viewBox="0 0 100 100" version="1.1" x="0px" y="0px"><g transform="translate(0,-952.36216)"><path style="color:#000000;font-style:normal;font-variant:normal;font-weight:normal;font-stretch:normal;font-size:medium;line-height:normal;font-family:sans-serif;text-indent:0;text-align:start;text-decoration:none;text-decoration-line:none;text-decoration-style:solid;text-decoration-color:#000000;letter-spacing:normal;word-spacing:normal;text-transform:none;direction:ltr;block-progression:tb;writing-mode:lr-tb;baseline-shift:baseline;text-anchor:start;white-space:normal;clip-rule:nonzero;display:inline;overflow:visible;visibility:visible;opacity:1;isolation:auto;mix-blend-mode:normal;color-interpolation:sRGB;color-interpolation-filters:linearRGB;solid-color:#000000;solid-opacity:1;fill:#000000;fill-opacity:1;fill-rule:evenodd;stroke:none;stroke-width:8;stroke-linecap:round;stroke-linejoin:round;stroke-miterlimit:4;stroke-dasharray:none;stroke-dashoffset:0;stroke-opacity:1;color-rendering:auto;image-rendering:auto;shape-rendering:auto;text-rendering:auto;enable-background:accumulate" d="m 49.291929,1000.8992 a 0.90747275,0.90747275 0 0 0 -0.599014,0.2136 l -3.554208,2.999 a 0.90747275,0.90747275 0 0 0 -0.32166,0.6642 l -0.09969,3.0912 -3.863905,3.9685 a 0.90747275,0.90747275 0 0 0 -0.248556,0.5073 l -0.726614,5.1899 -6.806251,5.3172 -5.6512,4.1 a 0.90747275,0.90747275 0 0 0 -0.157729,0.1458 l -3.209062,3.762 c -0.0179,0.019 -1.35562,1.4385 -2.71462,2.9361 -0.68402,0.7538 -1.36837,1.5222 -1.89185,2.1418 -0.26174,0.3098 -0.48245,0.5804 -0.65218,0.809 -0.0849,0.1143 -0.15634,0.2157 -0.22286,0.327 -0.0665,0.1113 -0.18963,0.1178 -0.18963,0.6087 0,-0.096 -0.007,0.071 -0.0301,0.2393 -0.0228,0.1684 -0.0568,0.396 -0.0979,0.6579 -0.0822,0.5239 -0.19237,1.1879 -0.30306,1.8383 -0.22136,1.3008 -0.44305,2.548 -0.44305,2.548 a 0.90747275,0.90747275 0 0 0 0.71066,1.0474 l 8.098207,1.6641 7.321084,1.6637 a 0.90747275,0.90747275 0 0 0 0.890103,-0.2942 l 5.997228,-6.9972 a 0.90747275,0.90747275 0 0 0 0.173679,-0.3084 l 1.888311,-5.7752 a 0.90747275,0.90747275 0 0 0 0.03677,-0.1622 l 0.5999,-4.4979 8.647599,-3.9025 a 0.90747275,0.90747275 0 0 0 0.431981,-1.2454 l -1.1998,-2.307 1.136,-1.7478 4.420385,-5.7465 a 0.90747275,0.90747275 0 0 0 0.161274,-0.3332 l 0.88833,-3.5542 a 0.90747275,0.90747275 0 0 0 0.02525,-0.2791 l -0.333179,-5.1089 a 0.90747275,0.90747275 0 0 0 -1.245878,-0.782 l -3.880742,1.5706 -2.182945,-4.4602 a 0.90747275,0.90747275 0 0 0 -0.801048,-0.5087 z m -0.317672,2.3509 2.042939,4.1754 a 0.90747275,0.90747275 0 0 0 1.155494,0.4421 l 3.500598,-1.4169 0.242353,3.7142 -0.808581,3.233 -4.3269,5.6259 a 0.90747275,0.90747275 0 0 0 -0.04165,0.059 l -1.443925,2.2215 a 0.90747275,0.90747275 0 0 0 -0.0443,0.9131 l 1.00131,1.9251 -8.232897,3.7151 a 0.90747275,0.90747275 0 0 0 -0.526352,0.7071 l -0.655282,4.9153 -1.806346,5.5245 -5.5236,6.4442 -6.796504,-1.5445 a 0.90747275,0.90747275 0 0 0 -0.01817,0 l -7.245764,-1.4886 c 0.0829,-0.4706 0.14666,-0.8264 0.29375,-1.6907 0.1114,-0.6546 0.22307,-1.3236 0.30748,-1.8618 0.0422,-0.2691 0.0775,-0.5047 0.10323,-0.6947 0.0118,-0.087 0.0131,-0.1567 0.0213,-0.2219 0.0221,-0.033 0.0383,-0.059 0.0802,-0.1157 0.12789,-0.1722 0.33283,-0.4254 0.58129,-0.7195 0.49694,-0.5882 1.17279,-1.3475 1.84933,-2.093 1.35307,-1.4911 2.70974,-2.9308 2.70974,-2.9308 a 0.90747275,0.90747275 0 0 0 0.0301,-0.033 l 3.150577,-3.6942 5.57721,-4.046 a 0.90747275,0.90747275 0 0 0 0.0257,-0.019 l 7.107973,-5.5528 a 0.90747275,0.90747275 0 0 0 0.339825,-0.5893 l 0.736363,-5.259 3.902008,-4.0075 a 0.90747275,0.90747275 0 0 0 0.256974,-0.6038 l 0.09792,-3.0394 2.356624,-1.988 z m -28.808047,34.7007 c -0.0218,0.063 -0.0437,0.065 -0.0359,0.052 0.004,-0.01 0.0268,-0.038 0.0359,-0.052 z"></path><path style="color:#000000;font-style:normal;font-variant:normal;font-weight:normal;font-stretch:normal;font-size:medium;line-height:normal;font-family:sans-serif;text-indent:0;text-align:start;text-decoration:none;text-decoration-line:none;text-decoration-style:solid;text-decoration-color:#000000;letter-spacing:normal;word-spacing:normal;text-transform:none;direction:ltr;block-progression:tb;writing-mode:lr-tb;baseline-shift:baseline;text-anchor:start;white-space:normal;clip-rule:nonzero;display:inline;overflow:visible;visibility:visible;opacity:1;isolation:auto;mix-blend-mode:normal;color-interpolation:sRGB;color-interpolation-filters:linearRGB;solid-color:#000000;solid-opacity:1;fill:#000000;fill-opacity:1;fill-rule:evenodd;stroke:none;stroke-width:8;stroke-linecap:round;stroke-linejoin:round;stroke-miterlimit:4;stroke-dasharray:none;stroke-dashoffset:0;stroke-opacity:1;color-rendering:auto;image-rendering:auto;shape-rendering:auto;text-rendering:auto;enable-background:accumulate" d="m 48.008391,957.36311 a 0.90747275,0.90747275 0 0 0 -0.667245,1.4647 l 2.610939,3.342 0.198933,2.2866 a 0.90747275,0.90747275 0 0 0 0.203363,0.498 l 3.069504,3.727 3.565284,5.8342 1.697797,6.1549 -0.5361,5.2512 -0.574202,3.8293 -1.975151,0.5153 a 0.90747275,0.90747275 0 0 0 -0.52591,0.3748 l -1.332717,1.9991 a 0.90747275,0.90747275 0 0 0 -0.03279,0.9535 l 1.332717,2.3322 a 0.90747275,0.90747275 0 0 0 0.456349,0.3943 l 3.071719,1.2069 2.129778,1.0651 1.096124,2.27599 -1.966289,3.2445 a 0.90747275,0.90747275 0 0 0 -0.07753,0.1631 l -0.999982,2.7766 a 0.90747275,0.90747275 0 0 0 0.745667,1.2082 l 2.054458,0.2464 0.149753,1.4975 a 0.90747275,0.90747275 0 0 0 1.583488,0.51 l 1.571083,-1.7807 2.875443,-1.704 a 0.90747275,0.90747275 0 0 0 0.316786,-0.3159 l 3.443002,-5.7757 a 0.90747275,0.90747275 0 0 0 0.05715,-0.1125 l 1.777106,-4.22009 a 0.90747275,0.90747275 0 0 0 0.06247,-0.4763 l -0.355333,-2.5764 2.056674,-1.0283 2.227693,1.4851 a 0.90747275,0.90747275 0 0 0 1.410253,-0.778 l -0.0895,-3.5813 0.584837,-0.045 a 0.90747275,0.90747275 0 0 0 0.676549,-0.3886 l 0.999538,-1.4435 a 0.90747275,0.90747275 0 0 0 0.161273,-0.5166 l 0,-2.5285 1.317653,-2.2299 a 0.90747275,0.90747275 0 0 0 -0.330963,-1.2494 l -2.332698,-1.3327 a 0.90747275,0.90747275 0 0 0 -0.450148,-0.1197 l -0.888329,0 a 0.90747275,0.90747275 0 0 0 -0.503316,0.1524 l -1.999076,1.3328 a 0.90747275,0.90747275 0 0 0 -0.116079,0.092 l -1.569755,1.4652 -0.351343,0.1759 -4.361903,-2.3332 a 0.90747275,0.90747275 0 0 0 -0.299506,-0.098 l -0.948587,-0.1356 -1.519688,-6.1798 a 0.90747275,0.90747275 0 0 0 -0.926434,-0.6894 l -2.22149,0.1108 a 0.90747275,0.90747275 0 0 0 -0.843582,0.7288 l -1.206889,-1.8006 -1.248979,-4.5909 a 0.90747275,0.90747275 0 0 0 -0.0044,-0.016 l -1.332717,-4.5538 a 0.90747275,0.90747275 0 0 0 -0.471856,-0.56 l -5.404861,-2.6473 -4.517858,-2.7549 a 0.90747275,0.90747275 0 0 0 -0.52015,-0.1311 z m 3.689784,4.1895 0.43907,0.2676 a 0.90747275,0.90747275 0 0 0 0.07355,0.04 l 5.082757,2.4896 1.217965,4.1612 1.28531,4.7261 a 0.90747275,0.90747275 0 0 0 0.121841,0.2671 l 3.155014,4.7062 a 0.90747275,0.90747275 0 0 0 1.658807,-0.5698 l -0.155956,-2.1851 0.547619,-0.027 1.487345,6.0477 a 0.90747275,0.90747275 0 0 0 0.752755,0.6819 l 1.396517,0.1994 4.634383,2.4789 a 0.90747275,0.90747275 0 0 0 0.833835,0.012 l 0.888774,-0.4444 a 0.90747275,0.90747275 0 0 0 0.21311,-0.148 l 1.611843,-1.5046 1.708873,-1.1391 0.372612,0 1.323857,0.7563 -0.975613,1.6508 a 0.90747275,0.90747275 0 0 0 -0.125829,0.4617 l 0,2.4931 -0.592368,0.856 -1.013274,0.078 a 0.90747275,0.90747275 0 0 0 -0.837377,0.9278 l 0.06734,2.6955 -1.211761,-0.8077 a 0.90747275,0.90747275 0 0 0 -0.909156,-0.057 l -3.10982,1.5547 a 0.90747275,0.90747275 0 0 0 -0.493124,0.9357 l 0.410715,2.9743 -1.656149,3.93259 -3.29236,5.5231 -2.800126,1.6593 a 0.90747275,0.90747275 0 0 0 -0.217984,0.1803 l -0.28976,0.3283 -0.01506,-0.1515 a 0.90747275,0.90747275 0 0 0 -0.794845,-0.8108 l -1.64463,-0.1972 0.582621,-1.6189 2.174527,-3.5874 a 0.90747275,0.90747275 0 0 0 0.0412,-0.864 l -1.443925,-2.99859 a 0.90747275,0.90747275 0 0 0 -0.4116,-0.4183 l -2.443463,-1.2215 a 0.90747275,0.90747275 0 0 0 -0.07399,-0.033 l -2.812086,-1.1045 -0.896306,-1.568 0.83029,-1.245 2.220162,-0.5795 a 0.90747275,0.90747275 0 0 0 0.668131,-0.7435 l 0.666358,-4.4425 a 0.90747275,0.90747275 0 0 0 0.0053,-0.043 l 0.555594,-5.442 a 0.90747275,0.90747275 0 0 0 -0.02836,-0.3332 l -1.776661,-6.4421 a 0.90747275,0.90747275 0 0 0 -0.100574,-0.2317 l -3.664973,-5.9977 a 0.90747275,0.90747275 0 0 0 -0.07399,-0.1036 l -2.930826,-3.5587 -0.197604,-2.2737 a 0.90747275,0.90747275 0 0 0 -0.03855,-0.1919 z"></path></g></svg>