<svg height='100px' width='100px'  fill="#000000" xmlns="http://www.w3.org/2000/svg" xmlns:xlink="http://www.w3.org/1999/xlink" version="1.1" x="0px" y="0px" viewBox="0 0 100 100" style="enable-background:new 0 0 100 100;" xml:space="preserve"><path d="M75.8,44c0.1-0.2,0.2-0.4,0.2-0.6c1.2-1.1,2.1-2.1,2.7-3.4c0.4-0.8,0.3-1.6-0.3-2.4c0.3-1.3,0.8-4.5-0.9-7.1  C76.5,29,75,28,73,27.6c-0.9-0.6-2-1-3.4-1.2c-0.5-1.2-1.4-2-2.1-2.8l-0.3-0.3c-1-1-1.6-2.8-2.5-7.2c-1-4.6-3.1-7.1-4.3-8.4  c-0.1-0.1-0.2-0.3-0.3-0.4c-0.5-1.2-1.5-1.6-2.3-1.6c-1.3,0-2.3,1-2.7,2c0,0,0,0.1-0.1,0.2c-0.4,0.6-0.9,1.6-0.5,2.7  c0.2,0.6,0.7,1.1,1.4,1.3c0.2,0.1,0.4,0.1,0.8,0.5c0.3,0.4,1.6,2.9,2.6,6.8c0.9,3.5,1.2,5.8,0.8,6.9c-0.2,0.6-0.3,1.2-0.4,1.8  c-1.2,0.5-2.3,1.2-3.2,2c0,0,0,0,0,0c0.2-2.6,0.2-5.9-2.2-8.1c-0.9-0.8-2.2-1.2-4.1-1.2c-0.9,0-1.8,0.1-2.6,0.2  C47,21,46.4,21,46.1,21c0,0,0,0,0,0c-0.5-0.6-1.5-3.1-1.9-4.1L44,16.4c-1-2.7-0.5-5.8-0.3-6.3c0.7-1.2,0.4-2.2,0.1-2.7  c-0.4-0.7-1.2-1.1-2.1-1.1c-0.6,0-1.3,0.2-2.1,0.6L39.4,7c-0.5,0.2-1.7,0.8-1.7,2.5l0,0.1c-0.1,0.6-0.4,1.6-0.2,3.6  c0.2,1.6,0.1,3.7-0.1,6.1c-0.1,0.9-0.3,1.6-0.4,2c-4.3,1.6-5.5,4.2-5.7,6.1c-0.3,2.2,0.6,3.8,1.1,4.7c0.1,0.1,0.1,0.2,0.2,0.3  c-0.4,1.9,0.3,5,2.2,5.9c0.2,0.1,0.4,0.1,0.6,0.2c-0.1,1.6-0.6,2.9-1.8,5c-0.9,1.4-2.6,6-5.2,13.7c-2.6,5.2-4.7,10.9-5.2,12.6  c-0.4,1.6-0.6,2.5,0.2,3.2c0,0,0,0,0,0l-0.1,0.5c-0.4,1.6-0.8,3.2-1.2,4.4c-0.6,1.9-0.8,2.4-0.2,3.7c0,0.1,0.1,0.2,0.1,0.3  c0.5,1.2,1.2,1.6,1.8,1.7c0.1,0,0.2,0,0.3,0c0.6,0,1.1-0.2,1.6-0.7c0.2,0.1,0.4,0.2,0.7,0.3c0.9,0.2,1.5-0.3,2.2-0.8  c0.3-0.2,0.7-0.5,1.2-0.8c0.4-0.2,1.4-0.8,4.7-8.4c-0.3,2.2-0.6,4.3-0.5,5.7c0,1.4,0.3,2.8,0.5,3.9c-0.6,1-1.1,1.7-1.6,2.3  c-1.3,1.6-0.8,2.4-0.5,2.7c0.2,0.2,0.4,0.3,0.7,0.3c0.4,0,1-0.2,1.5-0.8c0.1-0.1,0.1-0.2,0.2-0.3c0,0.3,0.1,0.6,0.1,0.9  c0.1,0.8,0.2,1.4,0.1,2.5c-0.1,1.2-0.3,2.9,1,3.4c0.2,0.1,0.4,0.1,0.7,0.1c0.7,0,1.2-0.4,1.5-0.7c0.1,0,0.1,0.1,0.2,0.1  c0.2,0.1,0.5,0.2,0.7,0.2c0.9,0,1.7-0.7,2.4-1.4l0.2-0.2c3.3-3.3,8.9-10.2,11.9-20.3c0.2,3,1.2,6.7,3.1,11.1  c0.3,0.6,0.9,2.2,2.3,2.2c1,0,1.6-0.7,2-1.4c0.7,1.8,1.5,3.6,2.1,4.4C63.4,88,64,88.9,65,89c0.6,1.7,1.1,2.9,1.6,3.6  c0.8,1.1,1.7,1.7,2.6,1.7c0.3,0,0.6-0.1,0.8-0.2c0.9-0.4,1.4-1.4,1.2-2.6c0.6,1,1.1,1.8,1.3,2c0.6,0.8,1.1,1,1.6,1  c0.2,0,0.5-0.1,0.6-0.2c0.3-0.2,1-1-0.2-2.7c-0.5-0.8-1.2-2.1-1.9-3.8c0.3-0.3,0.6-0.6,0.7-1.1c0.1-0.4,0.6-1.4,1-2.1  c0.2-0.4,0.4-0.8,0.6-1.2c1.5-3,2-8.4,2.1-12.4c0.7-2.2,1.1-4.5,1.2-6.7c0.2-5.7-1.1-12.7-3.5-19.2C75.2,44.8,75.6,44.4,75.8,44z   M72.3,43.7c-0.1,0-0.2,0-0.2,0c0,0,0,0,0,0c0,0-0.1,0-0.1,0c0,0,0,0,0,0c0,0-0.1,0-0.1,0c-0.1,0-0.1,0-0.2,0c0,0-0.1,0-0.1,0  c0,0-0.1,0-0.1-0.1c0,0,0,0,0-0.1c0,0,0-0.1-0.1-0.1c0,0,0,0,0-0.1c0,0,0-0.1,0-0.1c0,0,0,0,0-0.1c0-0.1,0-0.1,0-0.2c0,0,0,0,0,0  c0-0.1,0-0.1,0.1-0.2c0,0,0,0,0-0.1c0,0,0-0.1,0.1-0.1c0,0,0,0.1-0.1,0.1c0,0-0.1,0.1-0.1,0.2c0,0-0.1,0.1-0.1,0.1  c0,0-0.1,0.1-0.1,0.1c0,0-0.1,0.1-0.1,0.1c0,0-0.1,0.1-0.1,0.1c0,0-0.1,0.1-0.1,0.1c0,0-0.1,0.1-0.1,0.1c0,0-0.1,0.1-0.1,0.1  c0,0-0.1,0.1-0.1,0.1c-0.1,0-0.1,0.1-0.2,0.1c0,0-0.1,0.1-0.1,0.1c-0.1,0-0.1,0.1-0.2,0.1c0,0-0.1,0-0.1,0c-0.1,0-0.2,0-0.4,0  c-0.7,0-1.4-0.1-1.9-0.2C67,44,66.5,43.8,66,43.6c-0.7-0.3-1.2-0.6-1.6-1c-0.8-0.8-1.1-1.8-1.1-2.8c0-0.3,0-0.7,0.1-1  c0-0.2,0.1-0.3,0.1-0.5c-0.6,0.6-0.4,2.3-0.1,3.1c0,0.1,0.1,0.2,0.1,0.3c0,0-0.1,0.1-0.2,0.1c0,0,0,0-0.1,0c-0.1,0-0.1,0-0.2,0.1  c0,0-0.1,0-0.1,0c-0.1,0-0.1,0-0.2,0c0,0-0.1,0-0.1,0c-0.1,0-0.2,0-0.3,0c-0.1,0-0.1,0-0.2,0c0,0,0,0,0,0c0,0-0.1,0-0.1,0  c0,0,0,0,0,0c0,0-0.1-0.1-0.1-0.1c0.5-0.8,0.1-1.6-0.4-2c-0.3-0.3-0.8-1.2-0.9-1.9c0-0.1,0-0.2,0-0.3c0-0.1,0-0.2,0-0.3v0  c-0.1,0.2-0.2,0.4-0.2,0.7c0,0.1,0,0.1,0,0.2c0,0.1,0,0.3,0.1,0.5c0.1,0.2,0.1,0.3,0.2,0.5c0.2,0.3,0.4,0.6,0.6,0.9  c0.1,0.1,0.1,0.1,0.1,0.2c0.2,0.3,0.3,0.5,0.2,0.8c-0.1,0.7-0.7,1.3-1.1,1.9c0,0.1-0.1,0.1-0.1,0.2c-0.1,0.1-0.1,0.2-0.1,0.4  c0,0.1,0,0.2-0.1,0.3c0,0,0,0.1,0,0.1c0,0.1-0.1,0.1-0.1,0.1c0,0,0,0-0.1,0.1c0,0-0.1,0.1-0.1,0.1c0,0,0,0-0.1,0c0,0-0.1,0-0.1,0  c0,0-0.1,0-0.1,0c0,0,0,0-0.1,0c0,0,0,0-0.1-0.1c0,0,0,0,0,0c0,0,0-0.1-0.1-0.1c0,0,0,0,0-0.1c0-0.1,0-0.1,0-0.2  c0-0.6-0.2-0.9-0.6-1.4c-1.7-2-2.5-3.7-2.9-5.2c0.3-0.6,0.4-1.4,0.4-2.2c0-0.4-0.1-0.7-0.3-1.1c0.1-0.2,0.2-0.5,0.3-0.7  c0.1-0.1,0.1-0.2,0.2-0.4c0.1-0.2,0.3-0.5,0.5-0.7c0.3-0.3,0.5-0.6,0.8-0.8c0.3-0.2,0.6-0.5,0.9-0.7c0.2-0.1,0.4-0.2,0.5-0.3  c0.5-0.3,1-0.5,1.3-0.6c0.3-0.1,0.6-0.2,0.8-0.3c0-0.4,0-0.8,0.1-1.3c0.1-0.4,0.2-0.9,0.3-1.3c0.1-0.4,0.2-0.9,0.3-1.4  c0-0.3,0-0.5,0-0.8c0-0.9-0.2-2-0.4-3.2c-0.2-0.8-0.4-1.7-0.6-2.7c-1-4-2.4-7.1-3.2-7.8c-0.5-0.5-0.8-0.7-1.1-0.8  c-0.1-0.1-0.2-0.1-0.3-0.1c0,0-0.1,0-0.1,0c0,0-0.1,0-0.1-0.1c0,0,0-0.1,0-0.1c0-0.2,0.1-0.4,0.2-0.6C56.8,9,57,8.7,57,8.6  c0-0.1,0.1-0.1,0.1-0.2c0,0,0,0,0-0.1c0-0.1,0.1-0.1,0.1-0.2c0,0,0,0,0.1-0.1C57.4,8.1,57.5,8,57.6,8c0,0,0,0,0,0  c0.1,0,0.1-0.1,0.2-0.1c0,0,0.1,0,0.1,0c0,0,0,0,0,0C57.9,7.9,58,8,58,8c0,0,0,0,0,0c0,0.1,0.1,0.1,0.1,0.2c0,0.2,0.2,0.3,0.4,0.6  c0.2,0.3,0.5,0.6,0.8,0.9c1.1,1.3,2.5,3.4,3.3,6.9c1,4.9,1.8,6.9,3.1,8.2c1.1,1.1,2.1,2,2.3,3.5c0.7,0,1.4,0.1,2,0.2  c0.6,0.1,1.1,0.3,1.5,0.5c0.3,0.1,0.5,0.3,0.7,0.5c5.6,0.8,4.5,6.5,4.1,7.7c-0.3,1.2,0.6,1.4,0.5,1.8c-0.2,0.6-0.6,1-1,1.6  c-0.5,0.5-1,1.1-1.8,1.8C74.3,43.2,73.5,43.5,72.3,43.7z M69.1,91.5c0.1,0.4,0,0.6,0.1,0.6h0c-0.1,0-0.4-0.1-0.9-0.8  c-0.6-0.9-1.4-3.1-1.9-5c0.1-0.3,0.1-0.7,0.2-1.1l0-0.1c0.1-0.6,0.2-1.5,0.3-2.7c0.8,1.6,1.9,3.4,2.8,5  C69.3,88.9,68.9,90.5,69.1,91.5z M65.3,85c-0.1,0.6-0.2,1.3-0.3,1.7c-0.1-0.1-0.1-0.2-0.2-0.3c-0.6-0.9-2.1-4.4-3.1-7.5  c0.4,0.2,0.8,0.3,1.2,0.3c0.3,0.1,0.6,0.1,0.9,0.1c0.9,0,1.4-0.3,1.8-0.5c0.1-0.1,0.2-0.1,0.3-0.2c-0.1,2.5-0.3,5-0.5,6.1L65.3,85z   M58.7,81.7c-1.8-4.3-2.8-7.8-2.9-10.6c-0.2-3.8-0.8-4.9-2.7-8.4l-0.6-1.2c-2.2-4.1-2.5-7.4-2.2-12.3c0.1-2.9-1.2-7.3-2.6-10.8  c0.2-0.1,0.4-0.1,0.5-0.2c0,0,0.1,0,0.3,0c1,0,2.6,0.5,3.3,0.8c0.3,0.1,0.6,0.2,0.9,0.2c0.1,0,0.1,0,0.2,0c0.8,1.5,1.5,3,2.2,4  c1.2,1.9,4.8,7.7,5.7,18.4c0.9,10.3-0.9,18.8-1.4,20c-0.2,0.4-0.3,0.6-0.4,0.7C59,82.3,58.8,82,58.7,81.7z M40,90.5  c-0.2,0.2-0.3,0.3-0.4,0.4c0-0.4,0-0.9-0.3-1.6c-0.2-0.6-0.4-1.6-0.5-2.8c-0.1-0.6-0.1-1.2-0.2-1.8c-0.2-1.2,0.1-1.7,0.5-2.5  c0.2-0.4,0.5-0.9,0.6-1.5c0.2-0.7,0.2-1.3,0.2-1.9c0-0.9,0-1.7,0.6-2.7c0.8-1.3,1.2-4.7,1.7-8.2c0.1-0.7,0.2-1.4,0.3-2.1  c1.3-1.1,2.6-2.7,3.7-4.9c1.5-2.6,2.3-5.3,2.7-8c0.1,2.9,0.6,5.9,2.4,9.2l0.6,1.2c0.4,0.7,0.7,1.3,1,1.9c-2.2,12.7-8.7,21-12.7,25.1  C40.1,90.3,40,90.4,40,90.5z M37,87.3c-0.1-0.5-0.1-1-0.2-1.6c0-0.7-0.2-1.5-0.3-2.4c0.6-0.7,1.2-1.5,1.8-2.3  c-0.1,0.2-0.2,0.4-0.3,0.7c-0.4,0.8-0.8,1.6-0.6,3.2c0.1,0.6,0.2,1.2,0.2,1.8c0.2,1.3,0.3,2.4,0.6,3.1c0,0,0,0,0,0  c-0.5,0.6-0.9,1.1-1.1,1.5c0-0.2,0-0.5,0.1-0.8C37.2,89,37.1,88.2,37,87.3z M28.6,79.7c-0.6,0.3-1.1,0.7-1.4,1  c-0.2,0.1-0.3,0.3-0.5,0.3c-0.3-0.4-0.7-0.5-0.9-0.5c-0.5,0-1,0.2-1.5,0.7c-0.2,0.2-0.3,0.2-0.3,0.3c0,0-0.1-0.1-0.2-0.4  c-0.1-0.1-0.1-0.3-0.2-0.4c-0.2-0.5-0.2-0.5,0.3-2.1c0.4-1.2,0.8-2.9,1.3-4.5c0.1-0.6,0.3-1.2,0.5-1.7c0.8-0.3,1.5-0.6,2.2-1.4  c1.1,1.1,2.7,1.3,4.9,0.5C30.8,75.8,29.2,79.3,28.6,79.7z M33.3,27.6c0.2-1.7,1.4-2.8,2.6-3.5c0.3-0.1,0.5-0.3,0.8-0.4  c0.5-0.2,1-0.4,1.4-0.6c0.8-0.3,1.3-2.2,1.4-3.6c0-0.2,0-0.4,0-0.6c0-0.4,0.1-0.9,0.1-1.5c0-0.3,0-0.6,0-0.8c0-0.3,0-0.6,0-0.9  c0-0.9,0-1.8-0.1-2.7c0-0.3,0-0.6-0.1-0.8c0-0.2,0-0.5,0-0.7c0-0.6,0.1-1,0.1-1.3s0.1-0.5,0.1-0.7c0-0.3,0.1-0.5,0.3-0.6  c0.1,0,0.2-0.1,0.3-0.1c0.1,0,0.1-0.1,0.2-0.1c0.1-0.1,0.2-0.1,0.3-0.2c0,0,0.1,0,0.1,0c0.1,0,0.1-0.1,0.2-0.1c0,0,0.1,0,0.1,0  c0.1,0,0.1,0,0.2,0c0,0,0.1,0,0.1,0c0,0,0.1,0,0.1,0c0,0,0.1,0,0.1,0c0,0,0.1,0,0.1,0c0,0,0,0,0.1,0.1c0,0,0,0,0,0.1  c0,0,0,0.1,0,0.1c0,0,0,0,0,0.1C42,8.9,42,9,41.9,9.1c-0.3,0.5-0.5,1.5-0.6,2.7c0,0.4,0,0.7,0,1.1c0,1.4,0.2,2.9,0.8,4.3  c0.8,2,1.4,3.7,2.2,4.8c0.1,0.2,0.3,0.4,0.5,0.6c0.1,0.1,0.2,0.2,0.2,0.2c0.2,0.2,0.5,0.3,0.8,0.3c0.1,0,0.2,0,0.4,0c0,0,0,0,0,0  c0,0,0.1,0,0.1,0c0.1,0,0.1,0,0.2,0c0.1,0,0.1,0,0.2,0c0.1,0,0.2,0,0.2,0c0.1,0,0.1,0,0.2,0c0.1,0,0.2,0,0.3,0c0.1,0,0.2,0,0.3,0  c0.1,0,0.3,0,0.4,0c0.1,0,0.2,0,0.3,0c0.1,0,0.2,0,0.3,0c0.1,0,0.2,0,0.3,0c0.1,0,0.2,0,0.3,0c0.1,0,0.2,0,0.3,0c0.1,0,0.2,0,0.3,0  c0.1,0,0.2,0,0.3,0c0.1,0,0.2,0,0.2,0c0.2,0,0.5,0,0.7,0c0,0,0.1,0,0.1,0c0.2,0,0.4,0,0.6,0.1c0,0,0.1,0,0.1,0  c0.2,0,0.4,0.1,0.6,0.2c0,0,0.1,0,0.1,0.1c0.2,0.1,0.3,0.2,0.5,0.3c1.1,1,1.5,2.4,1.6,4.3c0,0.6,0,1.3-0.1,2c0,0.4,0,0.7,0,1  c0,0.6,0.1,1.2,0.2,1.7c0.1,0.5,0.2,0.9,0.3,1.3c0,0.1,0,0.1,0.1,0.2c0.1,0.3,0.2,0.6,0.2,0.8c0,0.1,0.1,0.3,0.1,0.4  c0,0.1,0,0.3,0,0.4c0,0,0,0.1,0,0.1c0,0.1,0,0.2,0,0.2c0,0,0,0.1,0,0.1c0,0.1,0,0.1,0,0.2c0,0,0,0.1,0,0.1c0,0.1,0,0.1-0.1,0.2  c0,0,0,0.1-0.1,0.1c0,0,0,0.1-0.1,0.1c0,0,0,0.1-0.1,0.1c0,0,0,0,0,0c0,0,0,0.1-0.1,0.1c0,0,0,0-0.1,0.1c0,0-0.1,0-0.1,0.1  c0,0,0,0-0.1,0c0,0-0.1,0-0.1,0c0,0,0,0-0.1,0c0,0-0.1,0-0.1,0c0,0,0,0-0.1,0c-0.1,0-0.3,0.1-0.4,0.2c-0.1,0-0.1,0.1-0.2,0.1  c0,0-0.1,0-0.1,0.1c-0.1,0-0.1,0.1-0.2,0.1c0,0-0.1,0-0.1,0c-0.1,0-0.2,0.1-0.3,0.1c0,0,0,0,0,0c-0.1,0-0.2,0-0.3,0c0,0,0,0,0,0  c-0.1,0-0.2,0-0.3-0.1c-0.1,0-0.2-0.1-0.4-0.2c0,0-0.1,0-0.1-0.1c-0.1,0-0.2-0.1-0.3-0.1c-0.1,0-0.1,0-0.2-0.1  c-0.1,0-0.3-0.1-0.4-0.1c-0.1,0-0.1,0-0.2-0.1c-0.2-0.1-0.4-0.1-0.5-0.1c0,0,0,0-0.1,0c-0.2,0-0.4-0.1-0.6-0.1c-0.1,0-0.1,0-0.2,0  c-0.1,0-0.3,0-0.4,0c-0.1,0-0.1,0-0.2,0c-0.1,0-0.1,0-0.2,0c-0.1,0-0.1,0-0.2,0c-0.1,0-0.1,0-0.2,0c-0.2,0-0.3,0-0.4,0.1  c-0.2,0.1-0.5,0.2-0.7,0.2c0,0-0.1,0-0.1,0c-0.2,0-0.5,0.1-0.8,0.1c-0.1,0-0.1,0-0.2,0c-0.1,0-0.2,0-0.3,0c-0.1,0-0.1,0-0.2,0  c-0.1,0-0.2,0-0.3-0.1c-0.1,0-0.1,0-0.2,0c-0.1,0-0.2-0.1-0.3-0.1c-0.1,0-0.1,0-0.2-0.1c-0.2-0.1-0.3-0.1-0.5-0.2c0,0,0,0,0,0  c-0.2-0.1-0.3-0.2-0.5-0.3c0,0-0.1,0-0.1-0.1c-0.1-0.1-0.2-0.1-0.3-0.2c0,0,0,0,0,0c-0.1,0-0.2-0.1-0.3-0.1c0,0,0,0-0.1,0  c-0.1,0-0.1,0-0.2,0c0,0,0,0,0,0c0,0,0,0,0,0c-0.1,0-0.2,0-0.3,0.1c0,0,0,0,0,0c-0.1,0-0.3,0.1-0.5,0.1c0,0,0,0-0.1,0c0,0,0,0,0,0  c-0.1,0-0.2,0-0.3,0c0,0-0.1,0-0.1,0c-0.1,0-0.2,0-0.3,0c0,0-0.1,0-0.1,0c-0.1,0-0.3,0-0.4-0.1c0,0,0,0-0.1,0c0,0,0,0,0,0  c-0.1,0-0.2,0-0.3-0.1c0,0-0.1,0-0.1,0c-0.1,0-0.2,0-0.2-0.1c0,0-0.1,0-0.1,0c-0.1,0-0.2-0.1-0.2-0.1c-0.2-0.1-0.3-0.4-0.4-0.9  c-0.1-0.3-0.1-0.6-0.1-0.9c0-0.1,0-0.3,0-0.4c0-0.2,0.1-0.4,0.2-0.7c0-0.1,0.1-0.2,0.1-0.3c0-0.1,0.1-0.1,0.1-0.2c0,0,0,0,0,0  c-0.2,0.1-0.4,0.5-0.5,0.9c-0.3,0.7-0.4,1.8-0.2,2.4c0,0,0,0.1,0,0.1c0,0,0,0,0,0c0,0,0,0,0,0c0,0,0,0,0,0c0,0-0.1,0-0.1,0  c0,0,0,0,0,0c0,0-0.1,0-0.1,0c0,0,0,0-0.1,0c0,0-0.1,0-0.1,0c-0.1,0-0.1,0-0.2,0c0,0-0.1,0-0.1,0c-0.1,0-0.1,0-0.2,0c0,0,0,0-0.1,0  c0,0,0,0,0,0c0,0-0.1,0-0.1,0c0,0,0,0,0,0c0,0-0.1,0-0.1,0c-0.1,0-0.1,0.1-0.2,0.1c0,0,0,0-0.1,0c0,0-0.1,0.1-0.1,0.1  c0,0-0.1,0.1-0.1,0.1c0,0-0.1,0.1-0.1,0.1c0,0-0.1,0.1-0.1,0.1c0,0,0,0-0.1,0.1c-0.1,0-0.1,0.1-0.2,0.1c0,0,0,0,0,0  c-0.1,0-0.1,0.1-0.2,0.1c0,0,0,0,0,0c0,0,0,0-0.1,0c-0.1,0-0.1,0-0.2,0c0,0,0,0-0.1,0c-0.1,0-0.2,0-0.3-0.1  c-0.4-0.2-0.7-0.8-0.9-1.6c-0.1-0.4-0.1-0.8-0.2-1.2c0-0.4,0-0.7,0.1-1C35,31.5,33,30.3,33.3,27.6z M37.5,37.2  c0.1-0.1,0.2-0.2,0.3-0.2c0,0,0,0,0,0c0.1,0,0.1,0,0.1,0c0.2,0,0.4,0.1,0.6,0.1c0.1,0,0.2,0,0.3,0c0.4,0.2,0.8,0.3,1.3,0.4  c-0.4,3.4-2.6,6.6-5.6,11c-0.4,0.5-0.8,1.1-1.2,1.7c-0.2,0.3-0.4,0.7-0.7,1c1.1-3.1,2.1-5.6,2.6-6.4C37.1,41.7,37.5,39.8,37.5,37.2z   M34.3,50.7c0.4-0.6,0.8-1.1,1.2-1.7c3-4.4,5.4-7.8,5.8-11.6c0.1,0,0.1,0,0.1,0c0.4,0,0.7,0,0.9-0.1c0.1,0,0.4,0.2,0.9,0.5  c1,0.6,2,0.7,2.8,0.7c0.1,0,0.2,0,0.3,0c0.3,0.9,0.7,1.8,1,2.8c0.9,5.9,1.2,12.6-2.3,18.9c-1.8,3.3-3.7,5.2-5.8,5.8  c-1.4,0.4-2.3,1.1-3.2,1.8c-0.6,0.5-1.2,1-2,1.4c-4.5,2.5-5.4,0.8-5.8,0.2c-0.1-0.2-0.3-0.3-0.5-0.3c-0.2,0-0.4,0.1-0.5,0.3  c-0.8,1-1.4,1.4-2.3,1.7l-0.1,0c0.1-0.3,0.2-0.7,0.2-0.9C25.7,68,30.1,57,34.3,50.7z M35.9,78.7c0-1.3,0.2-3.4,0.5-5.7  c0.2-1.4,0.4-2.7,0.5-4c0,0,0,0,0,0c0.8-0.7,1.5-1.3,2.7-1.6c0.5-0.1,1-0.4,1.4-0.6c0,0.3-0.1,0.6-0.1,1c-0.2,1.7-0.5,3.6-0.8,5.1  c-1.2,2.8-2.7,5.8-4.1,8.3C36,80.4,35.9,79.5,35.9,78.7z M72.5,83.7c-0.5,0.9-0.9,1.7-1.1,2.4c-0.2-0.1-0.6-0.5-0.8-0.8  c-0.3-0.6-1.1-3.5-1.4-6.1c0.6,0,1.3-0.1,2.2-0.5c0.9-0.4,2.2-2,3.3-4.2c-0.3,3.3-0.8,6.3-1.7,8.1C72.9,82.9,72.7,83.3,72.5,83.7z   M70.9,77.5c-1.3,0.6-2,0.5-3.3,0.1c-0.2-0.1-0.4-0.1-0.7-0.2c-1.1-0.3-1.6,0.1-2.1,0.3c-0.4,0.2-0.8,0.5-1.8,0.3  c-0.6-0.1-1.1-0.3-1.5-0.6c0.6-3.8,1-9.5,0.5-15.9c-0.3-3.6-0.9-6.6-1.6-9.2c0.5-3.2,1.1-6.3,1.7-9.1c0.1,0,0.1,0,0.2,0  c0.2,0,0.5,0,0.8-0.1c0.9,1.1,2.7,2.4,6.3,2.4c0.7,0,1.3-0.2,1.7-0.6c0.2,0.1,0.5,0.1,0.7,0.1c0.2,0,0.4,0,0.6-0.1c0,0,0,0,0,0  c2.5,6.5,3.8,13.5,3.7,19.3C76,71,72.4,76.8,70.9,77.5z M71.5,42.5C71.5,42.5,71.5,42.5,71.5,42.5C71.5,42.5,71.5,42.5,71.5,42.5  C71.5,42.5,71.5,42.5,71.5,42.5C71.5,42.5,71.5,42.5,71.5,42.5z"></path></svg>