<svg height='100px' width='100px'  fill="#000000" xmlns="http://www.w3.org/2000/svg" xmlns:xlink="http://www.w3.org/1999/xlink" version="1.1" x="0px" y="0px" viewBox="0 0 68 68" enable-background="new 0 0 68 68" xml:space="preserve"><g><path d="M55.35376,13.58202c0.00049-0.84912-0.48486-1.58936-1.32813-1.95605L33.3186,4.15331   c-0.62842-0.22363-1.32715-0.12695-1.8667,0.25684c-1.28323,0.90774-0.72001,2.35862-0.85547,3.81323l-9.53516-2.77216V5.11083   c0-1.69879-1.3705-3.11035-3.11035-3.11035c-1.71338,0-3.10742,1.39551-3.10742,3.11035V63.9995h-1.19727c-0.55225,0-1,0.44775-1,1   s0.44775,1,1,1c0.15567,0,8.88738,0,8.61279,0c0.55225,0,1-0.44775,1-1s-0.44775-1-1-1h-1.19775V32.31877l14.75243-4.289   c0.42677-0.12451,0.72071-0.51563,0.72071-0.96045v-5.22021l17.55273-6.33691   C54.86841,15.1704,55.35376,14.43065,55.35376,13.58202z M16.84351,63.9995V5.11083c0-0.6123,0.49658-1.11035,1.10742-1.11035   c0.623,0,1.11035,0.50424,1.11035,1.11035c-0.01478,1.25572-0.57074,27.67406,0,58.88867H16.84351z M34.53442,26.31883   l-13.47314,3.91693V7.53423l13.47314,3.91693V26.31883z M53.34058,13.6577l-16.80615,6.06567v-9.02271   c0-0.44482-0.29395-0.83594-0.72071-0.96045l-3.20672-0.93231l0.03973-2.7713l20.63818,7.4458   c0.02393,0.01025,0.06885,0.03027,0.06885,0.09912C53.35327,13.64696,53.31812,13.66844,53.34058,13.6577z"></path><path d="M27.3689,55.41063c0.00049,5.83838,4.75049,10.58789,10.58789,10.58789c5.8335,0,10.5791-4.74951,10.5791-10.58789   c0-5.8335-4.74561-10.5791-10.5791-10.5791C32.11841,44.83153,27.3689,49.57713,27.3689,55.41063z M46.53589,55.41063   c0,4.73535-3.84863,8.58789-8.5791,8.58789c-4.73486,0-8.5874-3.85254-8.58789-8.58789c0-4.73047,3.85254-8.5791,8.58789-8.5791   C42.68726,46.83153,46.53589,50.68016,46.53589,55.41063z"></path></g></svg>