<svg height='100px' width='100px'  fill="#000000" xmlns="http://www.w3.org/2000/svg" xmlns:xlink="http://www.w3.org/1999/xlink" version="1.1" x="0px" y="0px" viewBox="0 0 100 100" enable-background="new 0 0 100 100" xml:space="preserve"><path fill="#000000" d="M50.001,4.592c-25.039,0-45.41,20.37-45.41,45.407c0,25.039,20.371,45.409,45.41,45.409  c25.038,0,45.407-20.37,45.407-45.409C95.408,24.962,75.039,4.592,50.001,4.592z M81.523,76.051l-2.006,1.358  c-1.059-0.964-2.055-1.991-3-3.069l2.379-1.063c0.566-0.253,0.82-0.918,0.568-1.484c-0.254-0.566-0.916-0.821-1.486-0.567  l-2.941,1.315c-0.877-1.132-1.695-2.309-2.441-3.536l2.545-0.638c0.602-0.151,0.969-0.761,0.816-1.363  c-0.15-0.604-0.76-0.961-1.363-0.816l-3.143,0.786c-0.664-1.263-1.256-2.569-1.777-3.911l2.615-0.186  c0.619-0.044,1.086-0.582,1.041-1.2c-0.043-0.619-0.555-1.084-1.199-1.042l-3.238,0.231c-0.434-1.357-0.797-2.744-1.076-4.162  l2.621,0.272c0.619,0.068,1.17-0.385,1.234-1.001c0.064-0.618-0.385-1.17-1.002-1.235l-3.227-0.335  c-0.188-1.405-0.297-2.835-0.326-4.283l2.521,0.719c0.104,0.029,0.209,0.044,0.311,0.044c0.488,0,0.939-0.322,1.08-0.816  c0.17-0.597-0.176-1.218-0.773-1.389l-3.117-0.889c0.059-1.448,0.189-2.877,0.408-4.28l2.369,1.151  c0.158,0.076,0.326,0.112,0.49,0.112c0.416,0,0.816-0.232,1.01-0.632c0.273-0.559,0.039-1.231-0.52-1.502l-2.918-1.418  c0.311-1.409,0.701-2.787,1.162-4.134l2.123,1.536c0.199,0.145,0.43,0.214,0.658,0.214c0.348,0,0.691-0.161,0.912-0.465  c0.363-0.503,0.25-1.205-0.252-1.569l-2.623-1.897c0.551-1.329,1.17-2.624,1.859-3.873l1.824,1.881  c0.221,0.228,0.514,0.342,0.807,0.342c0.283,0,0.564-0.105,0.783-0.317c0.445-0.432,0.457-1.144,0.023-1.589l-2.244-2.313  c0.77-1.209,1.605-2.373,2.502-3.485l1.455,2.15c0.219,0.32,0.572,0.493,0.932,0.493c0.217,0,0.438-0.062,0.629-0.193  c0.514-0.349,0.648-1.047,0.301-1.561l-1.805-2.665c0.725-0.796,1.498-1.547,2.289-2.276c7.17,7.374,11.6,17.427,11.6,28.5  C90.914,59.891,87.387,68.97,81.523,76.051z M20.104,22.109c0.18-0.103,0.325-0.254,0.426-0.445c0.6-0.623,1.212-1.232,1.85-1.817  c0.811,0.659,1.604,1.34,2.361,2.062l-1.589,2.752c-0.311,0.537-0.126,1.224,0.411,1.535c0.177,0.102,0.37,0.15,0.561,0.15  c0.389,0,0.766-0.202,0.975-0.562l1.278-2.214c0.971,1.047,1.889,2.144,2.738,3.295l-2.052,2.443  c-0.399,0.475-0.338,1.184,0.137,1.582c0.211,0.178,0.468,0.264,0.722,0.264c0.32,0,0.64-0.137,0.862-0.4l1.652-1.969  c0.776,1.196,1.49,2.435,2.129,3.719l-2.458,2.061c-0.475,0.399-0.538,1.108-0.139,1.584c0.223,0.265,0.541,0.401,0.862,0.401  c0.254,0,0.51-0.086,0.721-0.263l1.988-1.667c0.556,1.312,1.035,2.66,1.442,4.042l-2.791,1.607c-0.538,0.31-0.724,0.996-0.413,1.534  c0.208,0.361,0.586,0.563,0.975,0.563c0.19,0,0.383-0.049,0.56-0.15l2.264-1.305c0.316,1.385,0.553,2.799,0.713,4.236l-3.033,1.102  c-0.583,0.212-0.885,0.856-0.671,1.44c0.166,0.456,0.597,0.74,1.055,0.74c0.128,0,0.257-0.022,0.384-0.067l2.447-0.889  c0.073,1.438,0.067,2.871-0.021,4.291l-3.187,0.558c-0.611,0.107-1.02,0.689-0.913,1.302c0.107,0.609,0.681,1.021,1.301,0.912  l2.591-0.454c-0.177,1.429-0.443,2.838-0.779,4.229l-3.248-0.004h-0.001c-0.62,0-1.123,0.501-1.124,1.122  c-0.001,0.62,0.501,1.124,1.123,1.125l2.632,0.003c-0.423,1.369-0.917,2.717-1.494,4.029l-3.204-0.568  c-0.614-0.114-1.194,0.299-1.302,0.909c-0.109,0.611,0.298,1.193,0.909,1.304l2.589,0.461c-0.655,1.27-1.388,2.504-2.189,3.703  l-3.037-1.111c-0.582-0.215-1.228,0.086-1.442,0.67c-0.212,0.582,0.087,1.227,0.67,1.44l2.458,0.899  c-0.482,0.631-0.977,1.258-1.501,1.865c-0.416,0.481-0.842,0.951-1.277,1.409l-2.804-1.625c-0.536-0.312-1.225-0.128-1.536,0.409  c-0.312,0.536-0.128,1.225,0.41,1.535L24.36,77.2c-0.865,0.804-1.771,1.552-2.698,2.267C13.919,72.019,9.086,61.565,9.086,49.999  C9.086,39.229,13.277,29.424,20.104,22.109z M23.346,81.001c0.886-0.696,1.756-1.417,2.585-2.192l1.263,2.326  c0.204,0.376,0.59,0.589,0.989,0.589c0.181,0,0.366-0.044,0.536-0.137c0.545-0.296,0.748-0.979,0.451-1.524l-1.572-2.892  c0.479-0.502,0.948-1.016,1.405-1.544c0.568-0.659,1.104-1.338,1.625-2.026l1.655,2.079c0.222,0.278,0.549,0.423,0.88,0.423  c0.245,0,0.492-0.079,0.699-0.243c0.485-0.386,0.565-1.094,0.179-1.581l-2.056-2.58c0.874-1.303,1.671-2.646,2.382-4.026  l1.977,1.746c0.214,0.189,0.48,0.282,0.745,0.282c0.311,0,0.62-0.129,0.841-0.379c0.412-0.466,0.368-1.176-0.098-1.587l-2.454-2.168  c0.632-1.433,1.168-2.901,1.628-4.395l2.25,1.379c0.184,0.111,0.386,0.166,0.586,0.166c0.379,0,0.747-0.19,0.959-0.538  c0.325-0.528,0.158-1.22-0.371-1.545l-2.804-1.716c0.369-1.516,0.66-3.049,0.851-4.605l2.455,0.968  c0.135,0.053,0.274,0.077,0.411,0.077c0.448,0,0.871-0.27,1.046-0.712c0.228-0.577-0.057-1.229-0.634-1.457l-3.068-1.209  c0.099-1.548,0.104-3.111,0.023-4.684l2.611,0.53c0.606,0.126,1.202-0.269,1.325-0.877c0.124-0.608-0.269-1.201-0.877-1.325  l-3.243-0.659c-0.171-1.566-0.43-3.106-0.777-4.612l2.661,0.069c0.598,0.033,1.137-0.472,1.153-1.094  c0.016-0.62-0.474-1.137-1.094-1.152l-3.317-0.087c-0.441-1.507-0.963-2.979-1.571-4.406l2.645-0.395  c0.613-0.092,1.037-0.664,0.945-1.277c-0.091-0.614-0.657-1.033-1.277-0.946l-3.292,0.492c-0.697-1.403-1.479-2.756-2.328-4.06  l2.561-0.857c0.588-0.197,0.907-0.833,0.709-1.422c-0.196-0.589-0.832-0.905-1.422-0.709l-3.176,1.062  c-0.926-1.258-1.927-2.454-2.988-3.594l2.388-1.294c0.545-0.296,0.749-0.979,0.452-1.523c-0.295-0.546-0.979-0.748-1.523-0.453  l-2.96,1.604c-0.712-0.681-1.456-1.327-2.215-1.956c7.059-5.788,16.081-9.268,25.9-9.268c10.68,0,20.413,4.117,27.706,10.843  c-0.822,0.764-1.625,1.547-2.379,2.377l-3.02-1.38c-0.566-0.259-1.232-0.01-1.49,0.555s-0.01,1.23,0.555,1.489l2.436,1.114  c-0.979,1.211-1.889,2.479-2.725,3.8l-3.215-0.835c-0.6-0.158-1.213,0.204-1.369,0.806c-0.156,0.601,0.203,1.214,0.805,1.37  l2.578,0.669c-0.754,1.36-1.428,2.771-2.023,4.22l-3.297-0.263c-0.627-0.059-1.16,0.412-1.209,1.03  c-0.051,0.618,0.412,1.16,1.029,1.209l2.652,0.213c-0.506,1.468-0.934,2.971-1.268,4.509l-3.279,0.312  c-0.617,0.06-1.07,0.607-1.012,1.225c0.059,0.618,0.594,1.067,1.227,1.013l2.629-0.25c-0.238,1.524-0.379,3.08-0.441,4.656  l-3.184,0.879c-0.598,0.165-0.949,0.784-0.783,1.382c0.166,0.6,0.785,0.947,1.383,0.785l2.562-0.708  c0.029,1.579,0.148,3.137,0.355,4.667l-2.979,1.418c-0.561,0.267-0.799,0.938-0.531,1.497c0.193,0.406,0.596,0.641,1.016,0.641  c0.162,0,0.326-0.034,0.482-0.108l2.389-1.138c0.303,1.544,0.697,3.055,1.172,4.53l-2.684,1.914  c-0.508,0.359-0.623,1.061-0.264,1.566c0.219,0.308,0.564,0.473,0.916,0.473c0.225,0,0.453-0.069,0.65-0.21l2.164-1.54  c0.564,1.462,1.209,2.884,1.934,4.258l-2.318,2.357c-0.436,0.442-0.43,1.153,0.012,1.589c0.221,0.215,0.504,0.323,0.789,0.323  c0.291,0,0.58-0.112,0.801-0.337l1.865-1.896c0.811,1.336,1.701,2.616,2.656,3.846l-1.885,2.738  c-0.352,0.511-0.223,1.212,0.289,1.562c0.195,0.134,0.416,0.199,0.637,0.199c0.357,0,0.707-0.17,0.926-0.486l1.52-2.208  c1.025,1.176,2.113,2.298,3.268,3.348l-0.514,1.123c-7.273,6.631-16.939,10.68-27.534,10.68  C39.826,90.913,30.513,87.171,23.346,81.001z"></path></svg>