<svg height='100px' width='100px'  fill="#000000" xmlns="http://www.w3.org/2000/svg" xmlns:xlink="http://www.w3.org/1999/xlink" version="1.1" x="0px" y="0px" viewBox="0 0 60 60" style="enable-background:new 0 0 60 60;" xml:space="preserve"><g><g><path d="M31.221,0.031c-0.141-0.033-0.282-0.04-0.422-0.011C30.532,0.013,30.268,0,30,0C13.458,0,0,13.458,0,30s13.458,30,30,30    s30-13.458,30-30C60,13.868,47.198,0.675,31.221,0.031z M2,30C2,14.561,14.561,2,30,2c0.232,0,0.461,0.012,0.692,0.018    c5.229,3.708,8.294,12.878,4.442,19.479c-3.082,5.284-8.348,6.664-13.922,8.124c-6.03,1.58-12.816,3.363-17.299,10.537    C2.684,37.006,2,33.582,2,30z M41.143,55.484c-0.044,0.074-0.06,0.154-0.083,0.233C37.665,57.184,33.927,58,30,58    C19.019,58,9.498,51.643,4.914,42.418C8.948,34.904,15.44,33.2,21.721,31.555c5.725-1.5,11.644-3.05,15.145-9.051    c3.813-6.537,1.663-15.286-2.877-20.215c9.063,1.298,16.735,6.953,20.829,14.768c-4.929,0.428-9.597,3.501-12.664,8.414    c-2.596,4.151-1.537,9.048-0.418,14.233C42.89,45.053,44.084,50.583,41.143,55.484z M43.949,54.262    c1.897-4.959,0.764-10.244-0.26-14.979c-1.031-4.777-2.007-9.289,0.157-12.752c2.851-4.562,7.392-7.418,11.902-7.521    c1.446,3.376,2.25,7.091,2.25,10.99C58,40.361,52.338,49.42,43.949,54.262z"></path></g></g></svg>