<svg height='100px' width='100px'  fill="#000000" xmlns="http://www.w3.org/2000/svg" xmlns:xlink="http://www.w3.org/1999/xlink" version="1.1" x="0px" y="0px" viewBox="0 0 100 100" enable-background="new 0 0 100 100" xml:space="preserve"><path d="M92.9129181,8.4943848c-2.7519531-2.7519531-6.3417969-4.2802734-9.9267578-4.1577148  C80.107254,4.4255371,77.5349884,5.5915527,75.70784,7.6608887L45.4641838,44.4875488  c-6.3110352,7.6860352-13.0727539,15.1469727-20.097168,22.1772461L11.0222893,81.0231934L8.8133049,78.814209  c-0.28125-0.28125-0.6625977-0.4394531-1.0605469-0.4394531S6.9734612,78.532959,6.6922112,78.814209l-2.6796875,2.6796875  c-0.7851563,0.7851563-1.1757813,1.9082031-1.0717773,3.0810547c0.0966797,1.0898438,0.6005859,2.1416016,1.4194336,2.9599609  l9.5117188,9.5117188c0.9472656,0.9472656,2.168457,1.4306641,3.3393555,1.4306641  c1.0068359,0,1.9765625-0.3574219,2.7021484-1.0830078l2.6791992-2.6796875c0.5859375-0.5859375,0.5859375-1.5351563,0-2.1210938  l-2.2084961-2.2089844l14.3579102-14.3447266c7.0249023-7.0185547,14.4858398-13.7792969,22.1748047-20.0947266l36.870121-30.28125  c2.0283203-1.7919922,3.1943359-4.3642578,3.2832031-7.2426758C97.1804962,14.864502,95.6648712,11.2463379,92.9129181,8.4943848z   M17.7923088,95.2731934c-0.3432617,0.3417969-1.1669922,0.2841797-1.7988281-0.3476563l-9.512207-9.5117188  c-0.6323242-0.6328125-0.690918-1.4560547-0.3476563-1.7988281l1.6191406-1.6191406l2.2094727,2.2099609  c0.5625,0.5625,1.559082,0.5625,2.121582,0l0.5695801-0.5701294l5.1184082,5.118042l-0.5698242,0.5692749  c-0.2817383,0.28125-0.4399414,0.6630859-0.4399414,1.0615234c0,0.3974609,0.1582031,0.7792969,0.4394531,1.0605469  l2.2094727,2.2089844L17.7923088,95.2731934z M19.8938103,86.6335449L14.77351,81.5136108l2.4770508-2.4794922l5.1226196,5.1222534  L19.8938103,86.6335449z M24.4951897,82.0361938l-5.1245117-5.1241455l2.4768066-2.479187l5.1266479,5.1266479  L24.4951897,82.0361938z M29.0961418,77.4393311L23.9675407,72.31073l2.4771729-2.4794312l5.1310425,5.1306763  L29.0961418,77.4393311z M33.71101,72.8550415l-5.1594238-5.1590576c0.8205566-0.8295288,1.6339111-1.6691284,2.4467773-2.5097656  l5.2224731,5.2221069C35.3801384,71.2212524,34.5404167,72.0345459,33.71101,72.8550415z M91.841629,23.3806152  L55.0125237,53.626709c-5.6980591,4.6802979-11.2680664,9.6062012-16.6351929,14.6959229l-5.2931519-5.2927856  c5.0934448-5.3706055,10.0203857-10.9413452,14.6983643-16.6380005L77.9910431,9.6062012  c1.2382813-1.4013672,3.0449219-2.2080078,5.0878906-2.2709961c2.7431641-0.0864258,5.5429688,1.1108398,7.7128906,3.2802734  c2.1689453,2.1694336,3.3642578,4.9804688,3.2802734,7.7128906C94.0086212,20.3708496,93.2019806,22.1774902,91.841629,23.3806152z   M27.5603752,40.4733887c10.7387695,0,19.4755859-8.7363281,19.4755859-19.4750977S38.2991447,1.5227051,27.5603752,1.5227051  S8.0852776,10.2595215,8.0852776,20.998291S16.8216057,40.4733887,27.5603752,40.4733887z M39.6620598,9.8567505  c2.7057495,2.9365845,4.3739014,6.8432617,4.3739014,11.1415405c0,4.4359131-1.7705688,8.460083-4.6317749,11.4249878  c-3.3729248-2.8624878-5.312561-6.9064941-5.312561-11.1813354C34.0916252,16.8238525,36.1239738,12.7289429,39.6620598,9.8567505z   M27.5603752,4.5227051c3.6896362,0,7.0882568,1.2341309,9.8375244,3.2908325  c-4.0220947,3.428833-6.3062744,8.2455444-6.3062744,13.4284058c0,5.0078125,2.1755981,9.7540894,6.0014038,13.1688843  c-2.6942139,1.9204102-5.9794312,3.062561-9.5326538,3.062561c-3.5532837,0-6.838501-1.1421509-9.5325928-3.0626221  c3.8257446-3.4147949,6.0013428-8.1610718,6.0013428-13.1688232c0-5.1829834-2.2843628-9.9998169-6.3062134-13.4283447  C20.4721184,5.7568359,23.8706779,4.5227051,27.5603752,4.5227051z M15.45924,9.8564453  c3.5380249,2.8729858,5.5698853,6.9674683,5.5698853,11.385498c0,4.2747803-1.9395752,8.3187256-5.3123779,11.1812134  c-2.8610229-2.9649048-4.6314697-6.9890137-4.6314697-11.4248657C11.0852776,16.6998291,12.7534294,12.7930908,15.45924,9.8564453z"></path></svg>