<svg height='100px' width='100px'  fill="#000000" xmlns="http://www.w3.org/2000/svg" data-name="Layer 1" viewBox="0 0 100 100" x="0px" y="0px"><title>Artboard 8</title><path d="M97.41,13a2.5,2.5,0,0,0-1.8-1.76L90.14,9.86,88.76,4.39a2.5,2.5,0,0,0-4.19-1.16L74,13.78a2.5,2.5,0,0,0-.66,2.38l1.4,5.54L45.94,50.53a2.5,2.5,0,1,0,3.54,3.54L78.3,25.24l5.54,1.4A2.5,2.5,0,0,0,86.22,26L96.77,15.43A2.5,2.5,0,0,0,97.41,13ZM83.69,21.44l-4.09-1-1-4.09L85,9.88l.67,2.65a2.5,2.5,0,0,0,1.81,1.81l2.65.67ZM36.57,52.29A11.15,11.15,0,0,0,47.71,63.43h0A11.14,11.14,0,0,0,58.84,52.29c0-.06,0-.15,0-.24a2.5,2.5,0,1,1,5-.1c0,.11,0,.22,0,.34A16.14,16.14,0,0,1,47.71,68.43h0a16.14,16.14,0,1,1,0-32.27H48a2.5,2.5,0,0,1,2.45,2.55,2.46,2.46,0,0,1-2.55,2.45h-.26A11.14,11.14,0,0,0,36.57,52.29Zm22-23.24a25.41,25.41,0,0,0-10.82-2.42A25.65,25.65,0,1,0,73.37,52.28a25.39,25.39,0,0,0-2.42-10.82,2.5,2.5,0,0,1,4.53-2.12,30.37,30.37,0,0,1,2.89,12.94A30.65,30.65,0,1,1,47.72,21.63a30.36,30.36,0,0,1,12.94,2.89,2.5,2.5,0,1,1-2.12,4.53Zm6.31-13.13a39.85,39.85,0,0,0-17.14-3.83A40.21,40.21,0,1,0,87.91,52.29a39.84,39.84,0,0,0-3.83-17.14A2.5,2.5,0,1,1,88.6,33a44.81,44.81,0,0,1,4.31,19.28A45.2,45.2,0,1,1,67,11.4a2.5,2.5,0,1,1-2.13,4.52Z"></path></svg>