<svg height='100px' width='100px'  fill="#000000" xmlns="http://www.w3.org/2000/svg" xmlns:xlink="http://www.w3.org/1999/xlink" version="1.1" x="0px" y="0px" viewBox="0 0 50 50" enable-background="new 0 0 50 50" xml:space="preserve"><g><path d="M13.1,2v15c0,0.4,0.2,0.7,0.5,0.9L23.7,23L20.2,30l-8.7,1.3c-0.8,0.1-1.1,1.1-0.6,1.7l6.3,6.2l-1.5,8.7   c-0.1,0.8,0.7,1.4,1.5,1.1l7.8-4.1l7.8,4.1c0.7,0.4,1.6-0.2,1.5-1.1l-1.5-8.7l6.3-6.2c0.6-0.6,0.3-1.6-0.6-1.7L29.8,30l-3.4-7   l4.8-2.5c0,0,0,0,0,0l5.2-2.7c0.3-0.2,0.5-0.5,0.5-0.9V2c0-0.6-0.4-1-1-1H14.1C13.5,1,13.1,1.4,13.1,2z M25.1,21.4L20.2,19V3h9.6   v16L25.1,21.4z M29,31.9l7.2,1.1L31,38.1c-0.2,0.2-0.3,0.6-0.3,0.9l1.2,7.2l-6.5-3.4c-0.3-0.2-0.6-0.2-0.9,0l-6.5,3.4l1.2-7.2   c0.1-0.3-0.1-0.7-0.3-0.9L13.8,33l7.2-1.1c0.3,0,0.6-0.3,0.8-0.5l3.2-6.6l3.2,6.6C28.4,31.7,28.7,31.9,29,31.9z M34.9,16.4L31.8,18   V3h3.1V16.4z M15.1,3h3.1v14.9l-3.1-1.6V3z"></path></g></svg>