<svg height='100px' width='100px'  fill="#000000" xmlns="http://www.w3.org/2000/svg" viewBox="0 0 64 64" x="0px" y="0px"><g data-name="Hand Dryer-Hand-Hygiene-Heat-Healthcare"><rect x="12" y="42" width="2" height="2"></rect><path d="M50,50H41.56a3.975,3.975,0,0,0-1.94-2.87l-12.12-7A1.063,1.063,0,0,0,27,40H18V39a1,1,0,0,0-1-1H9a1,1,0,0,0-1,1v1H2v2H8V52H2v2H8v1a1,1,0,0,0,1,1h8a1,1,0,0,0,1-1V54h2.65l4.73,3.78A.977.977,0,0,0,26,58H50a4,4,0,0,0,0-8ZM16,54H10V40h6Zm34,2H26.35l-4.73-3.78A.977.977,0,0,0,21,52H18V42h8.73l11.89,6.87a2,2,0,1,1-2,3.46l-8.66-5-1,1.73,8.66,5a4,4,0,0,0,5.47-1.46,5.279,5.279,0,0,0,.27-.6H50a2,2,0,0,1,0,4Z"></path><path d="M61,6H33a5,5,0,0,0-5,5V25a1,1,0,0,0,1,1H53a1,1,0,0,0,1-1V22h7a1,1,0,0,0,1-1V7A1,1,0,0,0,61,6ZM52,24H30V22H52Zm8-4H30V11a3.009,3.009,0,0,1,3-3H60Z"></path><path d="M36,40a3,3,0,0,0,3-3V28H37v9a1,1,0,0,1-2,0H33A3,3,0,0,0,36,40Z"></path><path d="M31,33a1,1,0,0,1-2,0H27a3,3,0,0,0,6,0V28H31Z"></path><path d="M43,28V41a3,3,0,0,0,6,0H47a1,1,0,0,1-2,0V28Z"></path><path d="M52,36a1,1,0,0,1-1-1V28H49v7a3,3,0,0,0,6,0H53A1,1,0,0,1,52,36Z"></path></g></svg>