<svg height='100px' width='100px'  fill="#000000" xmlns="http://www.w3.org/2000/svg" data-name="Layer 1" viewBox="0 0 64 64" x="0px" y="0px"><title>microbe- microorganism- virus- disease-pathogen- germ</title><path d="M50.958,12.514c-1.888-1.791-5.53-1.093-8.114,1.553l-8.981,9.1a6.962,6.962,0,0,0-2.191,4.8,3.527,3.527,0,0,0,1.068,2.561,3.859,3.859,0,0,0,2.717,1,7.673,7.673,0,0,0,4.889-2.068l9.575-8.515a7.376,7.376,0,0,0,2.709-5.118,3.556,3.556,0,0,0-1.069-2.732ZM48.6,19.438l-9.575,8.515c-1.889,1.66-4.061,1.918-4.9,1.118a1.56,1.56,0,0,1-.446-1.148,5.057,5.057,0,0,1,1.62-3.359l8.98-9.1a5.947,5.947,0,0,1,3.974-1.943,1.915,1.915,0,0,1,1.337.44l.6.572a1.6,1.6,0,0,1,.446,1.243A5.468,5.468,0,0,1,48.6,19.438Z"></path><path d="M62.187,15.864,61.813,13.9l-3.011.572a8.265,8.265,0,0,0-.567-2.2l2.523-.479-.373-1.965-3.22.611a8.7,8.7,0,0,0-.859-.98l2.1-1.99L57.026,6.021,54.857,8.079a8.979,8.979,0,0,0-1.143-.9V3.355h-2v2.8A9.385,9.385,0,0,0,50,5.714l-.582-3.862-1.977.3.522,3.469a9.671,9.671,0,0,0-1.251.154L44.117,3.309,42.74,4.76l1.776,1.686a9.561,9.561,0,0,0-2.553,1.683L39.507,7.17l-.728,1.863,1.661.649-1.389,1.453-3.293-.626-.373,1.965,2.02.383L36.313,14H31v2h3.4l-1.3,1.358-6.9.595.172,1.992,4.642-.4-1.659,1.736-5.821-.614-.21,1.988,4.347.459a8.786,8.786,0,0,0-1.608,3.3l-3.047-.964-.6,1.906,3.4,1.075a8.479,8.479,0,0,0,.079,1.181l-4.024.545.268,1.983,4.272-.579a8.371,8.371,0,0,0,.473,1.007,4.812,4.812,0,0,1-1.467.127,6.147,6.147,0,0,0-6.128,4.008A4.168,4.168,0,0,1,15.018,39.5a6.152,6.152,0,0,0-6.133,4.01,3.941,3.941,0,0,1-1.66,2.125,3.945,3.945,0,0,1-2.613.668,5.923,5.923,0,0,0-3.729.994l1.1,1.674A3.95,3.95,0,0,1,4.591,48.3a5.925,5.925,0,0,0,3.728-.994,5.905,5.905,0,0,0,2.406-3.017A4.174,4.174,0,0,1,15,41.5a5.835,5.835,0,0,0,3.727-.992,5.9,5.9,0,0,0,2.4-3.016A4.163,4.163,0,0,1,25.39,34.7a6.21,6.21,0,0,0,2.732-.458c.11.117.215.237.333.349a8.879,8.879,0,0,0,1.133.9,5.828,5.828,0,0,1-2.554,1.247,8.283,8.283,0,0,0-6.094,6.094,5.765,5.765,0,0,1-1.676,3.021,5.777,5.777,0,0,1-3.024,1.679,7.729,7.729,0,0,0-3.9,2.194,7.713,7.713,0,0,0-2.194,3.9A5.789,5.789,0,0,1,8.46,56.653a5.8,5.8,0,0,1-3.025,1.681,7.729,7.729,0,0,0-3.906,2.2l1.414,1.414A5.789,5.789,0,0,1,5.97,60.262a7.728,7.728,0,0,0,3.9-2.2,7.723,7.723,0,0,0,2.2-3.905,5.8,5.8,0,0,1,1.681-3.025,5.783,5.783,0,0,1,3.024-1.68,7.725,7.725,0,0,0,3.9-2.193,7.709,7.709,0,0,0,2.19-3.9,6.286,6.286,0,0,1,4.7-4.7,7.712,7.712,0,0,0,3.9-2.192l0,0a9.5,9.5,0,0,0,2.557.572,5.645,5.645,0,0,1-1.283.624,6.5,6.5,0,0,0-4.438,6.074,4.511,4.511,0,0,1-3.159,4.321,6.5,6.5,0,0,0-4.44,6.077,4.522,4.522,0,0,1-3.164,4.328A6.149,6.149,0,0,0,14.353,60.8l1.614,1.18a4.227,4.227,0,0,1,2.293-1.645A6.509,6.509,0,0,0,22.7,54.253a4.511,4.511,0,0,1,3.161-4.325A6.5,6.5,0,0,0,30.3,43.854a4.509,4.509,0,0,1,3.158-4.321,6.157,6.157,0,0,0,3.052-2.159L39.553,38.9l.894-1.79-1.7-.852A9.517,9.517,0,0,0,41.087,34.8l.941-.81.412,2.735,1.977-.3-.6-3.98,1.554-1.338,1.43,3.165,1.823-.822-1.672-3.7,1.586-1.366,1.088,3.1,1.887-.662-1.348-3.837,1.547-1.332v2.111h2V23.93l1.233-1.061.36,1.71,1.957-.412-.611-2.9A9.05,9.05,0,0,0,58,19.246l1.88,1.784,1.377-1.451L58.7,17.148c.043-.213.082-.426.108-.642ZM54.378,20.72,39.789,33.278a7.54,7.54,0,0,1-9.957-.139,6.534,6.534,0,0,1-.153-9.3l4.35-4.552.2-.017-.015-.177,8.709-9.113A7.671,7.671,0,0,1,48.27,7.6q.114,0,.228,0A7.181,7.181,0,0,1,53.49,9.539l1.358,1.288a6.374,6.374,0,0,1,2.024,4.857A6.9,6.9,0,0,1,54.378,20.72Z"></path><rect x="37" y="24" width="2" height="2"></rect><rect x="45" y="16" width="2" height="2"></rect></svg>