<svg height='100px' width='100px'  fill="#000000" xmlns="http://www.w3.org/2000/svg" xmlns:xlink="http://www.w3.org/1999/xlink" version="1.1" x="0px" y="0px" viewBox="0 0 50 50" enable-background="new 0 0 50 50" xml:space="preserve"><g><path d="M5.8,49c1.2,0,2.4-0.4,3.6-1.3c0.3-0.2,0.4-0.5,0.4-0.8c0-1.1,0-1.9,0-2.6c0-1.2,0-1.6,0.2-2.1c0.5-0.9,1.7-1,2.5-0.5   c2.5,1.4,5.3,2.4,8.1,2.8c5.7,0.8,11.7-0.5,16.4-3.8c5.4-3.8,10.9-10.9,11-17.2c0.1-6.7-6.5-11.8-13-10.8c-0.3,0.1-0.6-0.1-0.7-0.2   c-0.1-0.1-0.3-0.3-0.3-0.6V2.8c0-0.4-0.2-0.7-0.5-0.9c-2.4-1.3-4.8-1.3-7.1,0C26.2,2.1,26,2.5,26,2.8c0,5.9,0,6.4,0,10.2   c0,5.7,0,7.1-0.6,8.8c-1,2.9-2.7,5.4-4.8,7.3c-2.3,2-5.3,3.3-6.2,3.4c-0.4,0-0.9,0-1.3,0V29c0-1.3-1.4-2.2-3.5-2.2S6.2,27.7,6.2,29   v5.5c-2.7,2-4.3,5.1-4.3,8.4v4c0,0.3,0.2,0.6,0.4,0.8C3.4,48.6,4.6,49,5.8,49z M3.9,42.9c0-2.9,1.4-5.5,3.8-7.1   c0.3-0.2,0.4-0.5,0.4-0.8c0,0,0,0,0-0.1v-5.9c0.2-0.1,0.7-0.3,1.5-0.3s1.3,0.2,1.5,0.3v4.4c0,0,0,0,0,0c0,1.1,1.2,1,1.9,1   c0.5,0,1.1,0,1.7,0c1.4-0.2,4.8-1.6,7.3-3.9c1.6-1.4,2.9-3.1,3.9-5l0.4,0.3c1.1,0.8,1.8,2,2,3.4c0.2,1.4-0.2,2.7-1,3.8   c-0.2,0.3-0.3,0.7-0.1,1c0.2,0.3,0.5,0.6,0.9,0.6l7.1,0.1c0,0,0,0,0,0c0.5,0,1-0.4,1-1c0-0.6-0.4-1-1-1l-5.4,0   c0.5-1.2,0.6-2.4,0.5-3.7c-0.3-1.9-1.2-3.6-2.8-4.7l-0.7-0.5c0.2-0.4,0.3-0.8,0.5-1.3c0.7-2.1,0.7-3.7,0.7-9.5c0-3.7,0-4.1,0-9.5   c1.3-0.6,2.7-0.6,4.1,0v8.6c0,0.8,0.4,1.6,1,2.1c0.6,0.5,1.5,0.8,2.3,0.6c5.4-0.8,10.8,3.4,10.7,8.8C46,29.2,40.8,35.8,36,39.2   c-4.2,2.9-9.7,4.2-14.9,3.4c-2.6-0.4-5.1-1.3-7.4-2.6c-1.9-1.1-4.3-0.5-5.3,1.3c-0.5,1-0.5,1.7-0.5,3c0,0.5,0,1.1,0,2   c-1.4,0.8-2.6,0.8-4,0V42.9z"></path><path d="M18.2,18c0.5-0.1,0.9-0.6,0.8-1.1l-1-5.9c-0.1-0.5-0.6-0.9-1.2-0.8c-0.5,0.1-0.9,0.6-0.8,1.1l1,5.9   C17.2,17.8,17.7,18.1,18.2,18z"></path><path d="M13.9,19.8c0.4,0.3,1.1,0.2,1.4-0.2c0.3-0.4,0.2-1.1-0.2-1.4l-4.9-3.5c-0.5-0.3-1.1-0.2-1.4,0.2C8.5,15.3,8.6,16,9,16.3   L13.9,19.8z"></path><path d="M8.1,24.8l5.9-1c0.5-0.1,0.9-0.6,0.8-1.1c-0.1-0.5-0.6-0.9-1.2-0.8l-5.9,1c-0.5,0.1-0.9,0.6-0.8,1.1   C7,24.5,7.5,24.9,8.1,24.8z"></path></g></svg>