<svg height='100px' width='100px'  fill="#000000" xmlns:x="http://ns.adobe.com/Extensibility/1.0/" xmlns:i="http://ns.adobe.com/AdobeIllustrator/10.0/" xmlns:graph="http://ns.adobe.com/Graphs/1.0/" xmlns="http://www.w3.org/2000/svg" xmlns:xlink="http://www.w3.org/1999/xlink" version="1.1" x="0px" y="0px" viewBox="0 0 100 100" enable-background="new 0 0 100 100" xml:space="preserve"><metadata><?xpacket begin="&#65279;" id="W5M0MpCehiHzreSzNTczkc9d"?><x:xmpmeta xmlns:x="adobe:ns:meta/" x:xmptk="Adobe XMP Core 5.3-c011 66.145661, 2012/02/06-14:56:27        "></x:xmpmeta><?xpacket end="w"?></metadata><g><g i:extraneous="self"><g><path d="M39.531,8.561c-3.569,0-6.403,1.742-7.743,4.553c-0.685-0.131-1.382-0.196-2.088-0.196     c-4.798,0-9.155,3.178-11.178,7.944c-4.852,0.343-8.706,4.848-8.706,10.336c0,0.277,0.01,0.554,0.031,0.831     c-2.736,1.952-4.471,5.374-4.471,9.086c0,2.049,0.524,4.042,1.496,5.757c-0.982,2.384-1.496,4.988-1.496,7.615     c0,4.6,1.509,8.933,4.262,12.284c0.466,1.879,1.534,3.464,2.991,4.496c0.04,5.815,4.296,10.531,9.52,10.531     c0.097,0.002,0.38,0.076,0.568,0.125c0.094,0.024,0.194,0.05,0.298,0.076c1.297,5.305,5.154,8.191,11.061,8.191     c4.601,0,8.094-1.193,10.18-3.464c2.686-1.039,4.548-3.853,4.548-7.053V20.126c0-1.133-0.235-2.248-0.685-3.265     C48.022,11.962,44.519,8.561,39.531,8.561z M27.734,79.193c-0.047-0.476-0.235-0.913-0.514-1.283     c0.604-2.51,2.71-6.947,10.085-6.947c0.991,0,1.795-0.804,1.795-1.795s-0.804-1.795-1.795-1.795     c-0.092,0-0.176,0.006-0.267,0.007c1.13-2.443,2.24-5.882,1.41-8.885c-0.546-1.977-1.881-3.518-3.861-4.458     c-0.895-0.424-1.966-0.043-2.391,0.853c-0.425,0.896-0.044,1.966,0.853,2.391c1.05,0.499,1.666,1.187,1.938,2.166     c0.729,2.623-1.159,6.583-2.294,8.486c-5.943,1.572-8.097,6.106-8.872,8.978c-0.45-0.115-1.018-0.243-1.67-0.243     c-2.422,0-4.392-2.46-4.392-5.484c0-0.318,0.027-0.653,0.084-1.025c0.19-1.246-0.553-2.446-1.754-2.83     c-0.761-0.244-1.378-1.092-1.536-2.112c-0.075-0.489-0.291-0.947-0.621-1.316c-2.21-2.479-3.427-5.821-3.427-9.414     c0-1.064,0.127-2.118,0.347-3.145c0.922,0.868,1.978,1.537,3.176,1.98c0.401,0.149,0.805,0.259,1.208,0.352     c0.119,0.047,0.243,0.083,0.375,0.104c0.051,0.008,5.175,0.918,7.19,4.403c1.123,1.942,1.115,4.445-0.024,7.439     c-0.353,0.927,0.113,1.964,1.04,2.316c0.209,0.08,0.426,0.118,0.638,0.118c0.724,0,1.406-0.441,1.679-1.158     c1.541-4.053,1.466-7.591-0.224-10.514c-0.804-1.39-1.893-2.47-3.049-3.318c0.862-0.297,1.41-0.562,1.478-0.596     c0.889-0.439,1.252-1.517,0.812-2.405c-0.439-0.888-1.517-1.251-2.406-0.812c-0.041,0.02-4.104,1.951-7.47,0.703     c-1.251-0.463-2.259-1.304-3.056-2.548c0.252-0.8,0.124-1.68-0.406-2.353c-0.843-1.07-1.307-2.47-1.307-3.94     c0-2.433,1.258-4.587,3.13-5.362c0.491-0.203,0.881-0.547,1.155-0.965c0.751-0.048,1.646,0.033,2.36,0.536     c1.464,1.03,1.743,3.525,1.719,5.437c-0.012,0.991,0.782,1.805,1.773,1.817c0.008,0,0.015,0,0.022,0     c0.981,0,1.783-0.79,1.795-1.773c0.049-4.036-1.042-6.868-3.243-8.417c-1.394-0.981-2.957-1.227-4.271-1.198     c0.003-2.878,1.872-5.219,4.169-5.219c0.204,0,0.425,0.025,0.676,0.077c0.867,0.182,1.723-0.105,2.315-0.687     c1.418,0.139,3.46,0.615,4.842,2.13c1.584,1.736,2.03,4.545,1.325,8.349c-0.985,5.317-0.263,9.091,2.146,11.216     c1.562,1.377,3.49,1.739,5.085,1.739c1.693,0,3.011-0.408,3.115-0.441c0.942-0.299,1.46-1.303,1.165-2.246     c-0.296-0.943-1.3-1.469-2.247-1.178c-0.03,0.009-3.096,0.901-4.753-0.576c-1.368-1.218-1.707-3.936-0.981-7.86     c0.923-4.985,0.174-8.837-2.227-11.449c-1.743-1.896-4.011-2.727-5.889-3.081c1.329-2.383,3.582-3.917,6.01-3.917     c0.933,0,1.843,0.215,2.706,0.64c0.76,0.374,1.657,0.348,2.394-0.07c0.738-0.417,1.222-1.172,1.293-2.016     c0.204-2.405,1.982-2.91,3.439-2.91c1.041,0,3.461,0.329,3.461,3.377l-0.013,0.238c-0.024,0.485,0.091,0.968,0.33,1.391     c0.011,0.02,0.015,0.043,0.025,0.063c-0.782,2.396-2.764,6.547-7.139,6.547c-0.992,0-1.795,0.804-1.795,1.795     c0,0.991,0.804,1.795,1.795,1.795c3.275,0,5.717-1.504,7.479-3.504v54.278c0,0.711-0.238,1.305-0.572,1.72     c-1.434-0.137-3.633-0.85-4.016-3.9c-0.123-0.984-1.02-1.684-2.004-1.558c-0.984,0.123-1.681,1.021-1.558,2.004     c0.404,3.224,2.066,5.07,3.962,6.063c-1.228,0.685-3.073,1.058-5.41,1.058C29.985,85.061,28.147,83.361,27.734,79.193z"></path><path d="M94.416,41.115c0-3.712-1.735-7.134-4.471-9.086c0.021-0.277,0.031-0.554,0.031-0.831c0-5.489-3.854-9.994-8.706-10.336     c-2.022-4.766-6.379-7.944-11.178-7.944c-0.706,0-1.403,0.065-2.088,0.196c-1.34-2.811-4.173-4.553-7.743-4.553     c-4.987,0-8.491,3.401-8.588,8.3c-0.45,1.017-0.685,2.132-0.685,3.265v59.547c0,3.201,1.862,6.015,4.548,7.053     c2.085,2.271,5.579,3.464,10.18,3.464c5.907,0,9.764-2.887,11.061-8.191c0.104-0.026,0.204-0.052,0.299-0.076     c0.188-0.049,0.47-0.123,0.566-0.125c5.226,0,9.482-4.716,9.521-10.531c1.458-1.032,2.525-2.617,2.991-4.496     c2.754-3.351,4.262-7.684,4.262-12.284c0-2.627-0.514-5.231-1.496-7.615C93.892,45.158,94.416,43.164,94.416,41.115z      M83.703,67.329c-1.201,0.384-1.944,1.584-1.754,2.83c0.057,0.372,0.084,0.707,0.084,1.025c0,2.207-1.056,4.102-2.564,4.971     c-0.196-2.156-0.9-4.945-3.015-7.141c-2.668-2.77-6.793-3.835-12.262-3.168c-0.984,0.121-1.685,1.016-1.564,2     s1.016,1.686,2,1.564c4.278-0.523,7.38,0.177,9.226,2.079c1.558,1.605,1.987,3.829,2.073,5.432     c-0.046,0.011-0.098,0.024-0.142,0.036c-0.095,0.024-0.211,0.055-0.301,0.077c-0.669-0.244-1.417-0.199-2.059,0.136     c-0.768,0.4-1.283,1.16-1.368,2.021c-0.413,4.168-2.25,5.868-6.342,5.868c-2.969,0-5.156-0.596-6.269-1.68     c1.064-2.222,3.251-5.778,6.184-5.263c0.976,0.17,1.907-0.48,2.08-1.457c0.172-0.976-0.48-1.908-1.457-2.08     c-4.917-0.867-8.12,3.534-9.72,6.598c-0.249-0.396-0.417-0.91-0.417-1.505V20.126c0-0.511,0.127-1.005,0.366-1.428     c0.24-0.423,0.354-0.906,0.33-1.391L56.8,17.07c0-3.05,2.42-3.379,3.46-3.379c1.457,0,3.236,0.505,3.439,2.91     c0.04,0.465,0.213,0.895,0.477,1.264c-0.1,1.255,0.004,2.899,0.85,4.391c0.86,1.519,2.335,2.565,4.265,3.026     c0.14,0.034,0.28,0.05,0.418,0.05c0.812,0,1.548-0.555,1.745-1.379c0.23-0.964-0.365-1.933-1.329-2.164     c-0.958-0.229-1.602-0.651-1.97-1.293c-0.333-0.579-0.426-1.302-0.416-1.961c0.758-0.318,1.545-0.489,2.352-0.489     c3.119,0,5.958,2.524,6.906,6.139c0.06,0.229,0.158,0.437,0.272,0.633c-0.643,1.918-1.907,4.57-3.826,5.366     c-1.332,0.554-2.999,0.166-4.957-1.151c-0.822-0.553-1.938-0.335-2.492,0.488c-0.554,0.822-0.335,1.938,0.488,2.492     c1.997,1.343,3.9,2.017,5.688,2.017c0.914,0,1.798-0.176,2.648-0.529c3.346-1.388,5.069-5.123,5.859-7.531     c2.297,0.003,4.166,2.346,4.166,5.227c0,0.52-0.065,1.044-0.195,1.557c-0.312,1.235,0.329,2.511,1.506,2.998     c1.872,0.775,3.13,2.93,3.13,5.362c0,1.014-0.235,1.986-0.648,2.848c-3.97-1.82-12.408-4.954-18.803-2.257     c-0.515,0.217-0.997,0.476-1.462,0.756c-0.121-0.053-0.249-0.096-0.384-0.122c-2.319-0.438-3.852-1.3-4.556-2.562     c-0.956-1.715-0.176-3.814-0.158-3.863c0.362-0.917-0.084-1.956-1-2.325c-0.921-0.371-1.965,0.076-2.335,0.996     c-0.06,0.148-1.438,3.664,0.333,6.895c0.968,1.768,2.638,3.049,4.96,3.837c-1.048,1.396-1.853,3.083-2.388,5.079     c-0.749,2.795-0.428,5.124,0.953,6.922c2.353,3.065,6.771,3.156,7.278,3.156c0.001,0,0.001,0,0.002,0     c0.989,0,1.788-0.801,1.791-1.79c0.003-0.989-0.797-1.794-1.786-1.801c-0.868-0.006-3.359-0.334-4.445-1.76     c-0.659-0.866-0.769-2.144-0.325-3.799c0.86-3.211,2.467-5.275,4.913-6.31c5.316-2.246,13.093,0.882,16.358,2.423     c0.04,0.123,0.064,0.25,0.125,0.368c1.032,2.026,1.577,4.336,1.577,6.68c0,3.296-1.035,6.374-2.91,8.775     c-1.189-0.511-2.679-1.401-3.457-2.844c-0.756-1.401-0.714-3.182,0.123-5.294c0.366-0.921-0.085-1.965-1.007-2.331     c-0.921-0.369-1.966,0.084-2.331,1.007c-1.252,3.156-1.229,5.964,0.067,8.348c1.209,2.224,3.292,3.553,4.981,4.316     C84.475,66.881,84.114,67.198,83.703,67.329z"></path></g></g></g></svg>