<svg height='100px' width='100px'  fill="#000000" xmlns="http://www.w3.org/2000/svg" xmlns:xlink="http://www.w3.org/1999/xlink" version="1.1" x="0px" y="0px" viewBox="0 0 200 200" enable-background="new 0 0 200 200" xml:space="preserve"><path d="M184.76,115.417c-0.316-3.003-1.359-5.87-3.03-8.351c1.274-2.582,1.839-5.438,1.637-8.326  c-0.006-0.075-0.014-0.151-0.021-0.197c-0.518-4.007-2.112-7.758-4.629-10.91c3.051-5.873,2.861-13.025-0.507-18.726  c3.473-6.857,1.62-13.947-0.128-18.105c5.447-6.556,8.414-15.082,8.167-23.509c0-16.267-8.517-25.979-22.793-25.979  c-8.963,0.066-17.071,5.282-20.877,13.355c-5.921,1.295-11.072,4.851-14.376,9.911c-2.867-0.82-6.003-0.855-8.884-0.087  c-0.078,0.021-0.153,0.043-0.237,0.072c-3.725,1.279-6.952,3.548-9.399,6.597c-2.345-0.866-4.861-1.32-7.345-1.32  c-3.826,0-7.538,1.025-10.81,2.975c-1.381-1.208-2.953-2.153-4.686-2.818c-3.513-1.346-7.248-1.905-11.021-1.635  c-1.889-6.16-8.729-20.627-31.161-20.627c-21.87,0-35.497,15.045-35.611,29.012c-0.492,5.268,1.305,10.463,4.954,14.327  c-1.69,4.427-1.75,9.376-0.162,13.841c-1.421,2.117-2.29,4.511-2.588,7.171c-0.225,3.013,0.368,5.978,1.719,8.644  c-2.464,2.674-4.12,5.954-4.817,9.566c-0.014,0.077-0.026,0.157-0.037,0.241c-0.442,3.831,0.434,7.675,2.473,10.93  c-3.249,5.779-4.891,12.314-4.754,18.897c-0.263,8.876,4.987,16.833,13.153,20.09c0.332,2.499,0.848,4.99,1.54,7.43  c0.772,2.605,1.232,5.275,1.364,7.859c0,10.964,0,25.979,13.135,25.979c5.84,0,9.747-3.103,11.614-9.222  c1.52-4.981,1.519-11.278,1.517-16.893c-0.148-3.816-0.764-7.592-1.822-11.19c-0.27-0.994-0.511-2.007-0.723-3.024  c11.335-4.184,18.924-15.271,18.604-27.339c0.162-4.858-1.303-9.63-4.141-13.539c1.776-4.14,2.131-8.773,1.007-13.078  c-0.583-2.98-1.947-5.71-3.965-7.954c0.994-2.805,1.238-5.836,0.715-8.768c1.468-0.08,2.937-0.274,4.389-0.58  c4.624,3.792,10.431,5.872,16.438,5.872c3.468,0,6.965-0.718,10.17-2.082c3.982,2.763,8.789,4.275,13.636,4.275  c5.707,0,11.196-2.028,15.519-5.721c7.313-0.332,12.757-2.069,16.203-5.169c1.35,0.185,2.735,0.178,4.077-0.021  c0.215,0.477,0.445,0.947,0.693,1.406c-2.278,3.397-3.407,7.474-3.191,11.591c0.004,0.065,0.009,0.127,0.014,0.175  c0.312,3.001,1.354,5.87,3.028,8.355c-1.273,2.581-1.838,5.434-1.639,8.292c0.005,0.08,0.013,0.159,0.021,0.21  c0.457,3.691,1.854,7.188,4.061,10.18c-1.928,2.828-3.15,6.043-3.585,9.421l-0.158-0.001c-2.566,0-5.18,0.458-7.62,1.331  c-7.41-7.752-15.579-7.752-24.211-7.752c-10.096,0-29.188,5.43-29.188,25.979v38.507c-0.065,7.816,2.918,15.22,8.435,20.877  c3.438,3.311,7.957,5.133,12.727,5.133c4.771,0,9.306-1.839,12.805-5.212c5.454-5.598,8.421-12.979,8.356-20.77v-9.819  c1.814-0.302,3.597-0.78,5.323-1.429c3.548,2.362,7.795,3.655,12.052,3.656c5.098,0,10.018-1.787,13.915-5.044  c11.608-0.733,16.439-6.308,18.387-10.05c3.721-0.83,7.007-2.952,9.329-6.055c3.929-5.447,3.682-12.43,2.68-17.571  c2.977-3.701,4.492-8.313,4.279-13.073C184.775,115.574,184.767,115.469,184.76,115.417z M173.298,128.556  c0.666,2.688,1.889,9.396-1.122,13.572c-1.53,2.042-3.868,3.336-6.414,3.55c-1.366,0.115-2.545,1.023-3.004,2.313  c-1.653,4.636-6.552,7.212-14.17,7.449c-0.856,0.029-1.671,0.368-2.292,0.956c-2.744,2.595-6.336,4.024-10.112,4.024  c-3.399-0.001-6.718-1.191-9.342-3.351c-1.021-0.842-2.498-1.031-3.696-0.476c-2.528,1.17-5.221,1.83-8.025,1.963  c-0.038,0.003-0.088,0.008-0.133,0.014c-0.059,0.004-0.123,0.01-0.169,0.016c-0.32,0.046-0.643,0.069-0.957,0.069  c-6.805,0-10.754-10.607-10.793-10.713c-0.499-1.387-1.822-2.317-3.293-2.317c-0.404,0-0.802,0.069-1.178,0.205  c-0.88,0.314-1.586,0.953-1.986,1.799s-0.447,1.796-0.132,2.676c0.208,0.581,5.004,13.672,15.33,15.201v9.539  c0.05,5.955-2.196,11.57-6.291,15.776c-2.125,2.047-4.92,3.175-7.871,3.175c-2.949,0-5.729-1.111-7.793-3.096  c-4.157-4.267-6.418-9.903-6.369-15.886V136.48c0-15.013,14.514-18.979,22.189-18.979c8.882,0,14.75,0,20.529,7.164  c1.011,1.251,2.865,1.649,4.301,0.925c2.161-1.091,4.582-1.668,6.991-1.668l0.313,0.002c0.897,0,1.798,0.066,2.66,0.196  c1.04,0.162,2.095-0.157,2.863-0.85c0.782-0.695,1.207-1.694,1.169-2.689l-0.002-0.285c-0.14-3.906,1.229-7.644,3.855-10.525  c1.257-1.379,1.214-3.496-0.099-4.821c-2.25-2.272-3.712-5.271-4.106-8.346c-0.137-2.136,0.478-4.269,1.728-6.006  c0.957-1.331,0.853-3.178-0.247-4.394c-1.628-1.797-2.625-4.017-2.877-6.331c-0.154-3.181,0.933-6.241,3.062-8.619  c1.099-1.226,1.2-3.02,0.246-4.364c-0.485-0.683-0.913-1.415-1.276-2.188c12.701-7.898,13.028-24.788,13.036-25.523  c0.01-0.936-0.346-1.818-1.002-2.486c-0.654-0.667-1.529-1.04-2.498-1.049c-1.909,0-3.479,1.554-3.5,3.46  c-0.002,0.156-0.375,15.636-11.755,20.736c-1.575,0.681-3.411,0.786-5.052,0.287c-1.373-0.415-2.895,0.069-3.775,1.196  c-1.156,1.481-4.478,3.998-13.728,4.202c-0.881,0.02-1.715,0.366-2.345,0.973c-3.163,3.033-7.318,4.703-11.7,4.703  c-4.003,0-7.89-1.429-10.944-4.024c-1.068-0.909-2.679-1.083-3.921-0.417c-2.742,1.471-5.834,2.249-8.942,2.249  c-4.894,0-9.538-1.86-13.075-5.236c-0.888-0.848-2.196-1.168-3.364-0.839c-2.881,0.809-5.873,1.035-8.956,0.624  c-0.02-0.002-0.044-0.004-0.071-0.005c-0.042-0.006-0.084-0.01-0.116-0.013c-7.111-0.485-12.381-17.063-13.819-25.016  c-0.301-1.668-1.747-2.879-3.438-2.879c-0.21,0-0.422,0.019-0.628,0.058c-0.92,0.166-1.72,0.68-2.253,1.448  s-0.735,1.698-0.569,2.617c0.826,4.584,5.519,27.188,18.064,30.407c1.048,2.768,0.845,5.878-0.579,8.454  c-0.829,1.499-0.458,3.362,0.882,4.431c1.812,1.443,3.049,3.493,3.487,5.786c0.016,0.078,0.033,0.156,0.051,0.222  c0.912,3.454,0.426,7.058-1.367,10.149c-0.771,1.328-0.593,2.981,0.442,4.117c2.637,2.888,4.01,6.631,3.868,10.529  c-0.004,0.09-0.004,0.177-0.001,0.238c0.289,10.073-6.613,19.096-16.412,21.453c-1.775,0.427-2.912,2.11-2.644,3.915  c0.338,2.281,0.819,4.576,1.436,6.852c0.912,3.104,1.438,6.295,1.561,9.427c0,12.858-0.918,18.979-6.133,18.979  c-5.216,0-6.135-6.151-6.139-19.15c-0.162-3.28-0.715-6.528-1.637-9.638c-0.774-2.729-1.293-5.551-1.543-8.389  c-0.126-1.455-1.159-2.689-2.569-3.072c-6.278-1.706-10.516-7.439-10.306-13.948c0.001-0.063,0.001-0.127,0-0.184  c-0.135-6.103,1.556-12.033,4.89-17.149c0.849-1.303,0.729-3.032-0.289-4.205c-1.792-2.064-2.658-4.8-2.379-7.517  c0.597-2.929,2.22-5.553,4.575-7.394c0.727-0.568,1.208-1.419,1.32-2.336c0.113-0.932-0.144-1.85-0.724-2.585  c-1.463-1.86-2.174-4.159-2.008-6.416c0.209-1.854,0.981-3.564,2.231-4.946c0.966-1.066,1.181-2.592,0.548-3.887  c-1.845-3.77-1.745-8.22,0.268-11.905c0.739-1.355,0.493-3.064-0.598-4.153l-1.467-1.467c-2.363-2.418-3.52-5.735-3.172-9.103  c0.012-0.118,0.018-0.236,0.018-0.356c0-10.672,10.939-22.191,28.612-22.191c13.693,0,23.058,6.776,25.051,18.125  c0.161,0.926,0.701,1.762,1.482,2.293c0.779,0.528,1.754,0.725,2.675,0.531c3.474-0.719,7.151-0.42,10.468,0.85  c1.556,0.598,2.898,1.624,3.882,2.968c0.57,0.777,1.444,1.29,2.403,1.407c0.966,0.12,1.932-0.175,2.663-0.788  c2.535-2.115,5.75-3.28,9.053-3.28c2.395,0,4.769,0.616,6.864,1.781c0.519,0.289,1.105,0.441,1.697,0.441  c1.251,0,2.415-0.673,3.038-1.757c1.627-2.833,4.217-4.99,7.298-6.08c2.271-0.575,4.819-0.27,6.889,0.826  c0.837,0.443,1.856,0.524,2.749,0.226c0.903-0.302,1.654-0.971,2.062-1.838c2.354-5.045,7.054-8.477,12.574-9.181  c1.304-0.168,2.394-1.038,2.843-2.27c2.316-6.335,8.401-10.626,15.128-10.677c10.463,0,15.769,6.405,15.771,19.082  c0.219,7.521-2.642,14.951-7.848,20.384c-1.051,1.097-1.276,2.733-0.561,4.069c1.106,2.074,4.401,9.298,0.343,15.209  c-0.866,1.263-0.815,2.924,0.127,4.133c3.353,4.3,3.444,10.376,0.224,14.776c-1.03,1.407-0.86,3.379,0.395,4.588  c2.423,2.334,4.006,5.451,4.46,8.782c0.125,2.115-0.488,4.226-1.729,5.948c-0.96,1.332-0.855,3.182,0.248,4.397  c1.611,1.777,2.605,3.977,2.878,6.362c0.125,3.421-1.179,6.777-3.582,9.217C173.342,126.133,173.004,127.365,173.298,128.556z"></path></svg>