<svg height='100px' width='100px'  fill="#000000" xmlns="http://www.w3.org/2000/svg" xmlns:xlink="http://www.w3.org/1999/xlink" version="1.1" x="0px" y="0px" viewBox="0 0 59.98 60" enable-background="new 0 0 59.98 60" xml:space="preserve"><g><circle cx="34" cy="26" r="1.5"></circle><circle cx="23" cy="38" r="1.5"></circle><circle cx="43" cy="41" r="1.5"></circle><circle cx="50" cy="31" r="1.5"></circle><circle cx="39" cy="22" r="1.5"></circle><path d="M53.49,44.27c-1.13-0.31-2.3-0.35-3.43-0.13c-0.36,0.07-0.71,0-0.97-0.21l-1.41-1.13c-0.4-0.32-0.52-0.88-0.3-1.36   c0.4-0.88,0.73-1.8,0.99-2.74c0.25-0.91,1.27-1.49,2.12-1.17c1.86,0.72,3.94,0.61,5.73-0.31c3.24-1.67,4.67-5.73,3.18-9.06   c-1.12-2.53-3.64-4.16-6.4-4.16c-1.02,0-2,0.22-2.93,0.65c-0.31,0.14-0.65,0.35-1.04,0.64c-0.87,0.63-2.04,0.39-2.59-0.51   c-0.57-0.96-1.26-1.82-1.96-2.68c-0.64-0.79-0.74-1.89-0.28-2.79l1.48-2.87c0.42-0.82,1.18-1.37,1.97-1.45   c0.74-0.07,1.48-0.27,2.18-0.6c2.25-1.03,3.82-3.13,4.11-5.49c0.25-2.01-0.37-4.02-1.7-5.52c-1.56-1.77-3.96-2.63-6.31-2.28   c-2.96,0.44-5.36,2.81-5.84,5.76c-0.22,1.36-0.05,2.73,0.49,3.96c0.36,0.82,0.36,1.69,0,2.38l-1.16,2.25   c-0.58,1.13-1.94,1.74-3.1,1.37c-1.06-0.33-2.82-0.55-4.12-0.68c-0.36-0.04-0.66-0.3-0.75-0.65l-1.14-4.8   c-0.06-0.26,0.02-0.55,0.22-0.78c1.21-1.39,1.7-3.23,1.35-5.06c-0.45-2.33-2.31-4.22-4.62-4.7C26.85,0.04,26.42,0,26,0   c-3.31,0-6,2.69-6,6c0,2.49,1.57,4.74,3.91,5.61c0.33,0.12,0.55,0.35,0.62,0.63l0.91,3.85c0.1,0.42-0.14,0.85-0.56,1   c-1.35,0.49-2.63,1.13-3.82,1.92c-0.43,0.29-1.08,0.28-1.46-0.03c-0.52-0.42-0.49-1.05-0.31-1.47c0.74-1.74,0.91-3.67,0.49-5.56   C19,8.54,16.17,5.81,12.73,5.16c-3.27-0.61-6.59,0.58-8.67,3.1c-1.72,2.07-2.41,4.8-1.9,7.49c0.68,3.59,3.56,6.44,7.17,7.09   c1.52,0.27,3.06,0.17,4.48-0.3c0.43-0.14,0.94,0.03,1.24,0.4l0.4,0.5c0.31,0.39,0.35,0.92,0.09,1.35c-1.28,2.15-2.09,4.5-2.39,6.98   c-0.07,0.53-0.48,0.94-1,0.99l-1.98,0.17c-0.3,0-0.6-0.14-0.86-0.39c-0.94-0.92-2.14-1.45-3.46-1.54   c-2.22-0.14-4.32,1.08-5.28,3.04c-0.74,1.52-0.76,3.25-0.07,4.75s2.01,2.61,3.62,3.02c2.28,0.59,4.78-0.42,6.03-2.42   c0.18-0.29,0.53-0.48,0.94-0.52l1.73-0.15c0.48,0,0.9,0.32,1.05,0.79c0.7,2.17,1.8,4.18,3.27,5.95c0.17,0.2,0.16,0.5-0.03,0.7   c-0.21,0.23-0.45,0.19-0.64,0.13c-0.83-0.27-1.7-0.36-2.61-0.28c-2.97,0.28-5.42,2.63-5.81,5.58c-0.25,1.88,0.32,3.76,1.55,5.17   c1.51,1.73,3.87,2.54,6.17,2.1c2.32-0.44,4.26-2.2,4.94-4.48c0.31-1.04,0.37-2.1,0.16-3.14c-0.03-0.15,0.02-0.32,0.13-0.44   l0.79-0.87c0.16-0.18,0.44-0.24,0.64-0.13c0.52,0.28,1.06,0.54,1.6,0.77c0.66,0.28,1.06,1,0.99,1.8c-0.06,0.69-0.02,1.39,0.13,2.08   c0.62,2.93,3.13,5.18,6.1,5.49C31.51,59.99,31.75,60,32,60c3.86,0,7-3.14,7-7c0-0.44-0.04-0.88-0.12-1.31   c-0.16-0.81,0.17-1.58,0.83-1.94c1.04-0.58,2.02-1.26,2.92-2.02c0.32-0.27,0.71-0.4,1-0.32c0.45,0.11,0.67,0.38,0.78,0.58   c0.15,0.28,0.17,0.63,0.05,0.94c-0.45,1.22-0.57,2.56-0.35,3.87c0.54,3.18,3.15,5.7,6.35,6.14C50.8,58.98,51.15,59,51.5,59   c2.11,0,4.14-0.9,5.56-2.46c1.44-1.58,2.12-3.64,1.91-5.79C58.66,47.69,56.46,45.09,53.49,44.27z M55.57,55.2   c-1.21,1.34-3,2.01-4.85,1.75c-2.34-0.32-4.25-2.16-4.64-4.49c-0.17-0.98-0.08-1.94,0.25-2.85c0.31-0.85,0.25-1.78-0.16-2.57   c-0.42-0.79-1.15-1.36-2.06-1.58c-0.92-0.23-1.97,0.04-2.78,0.74c-0.8,0.68-1.67,1.29-2.6,1.8c-1.41,0.78-2.14,2.42-1.82,4.07   C36.97,52.37,37,52.69,37,53c0,2.93-2.53,5.3-5.54,4.97c-2.12-0.22-3.91-1.83-4.35-3.92c-0.11-0.5-0.14-1-0.09-1.49   c0.15-1.67-0.74-3.2-2.21-3.82c-0.48-0.2-0.96-0.43-1.42-0.68c-0.36-0.2-0.77-0.3-1.19-0.3c-0.72,0-1.41,0.31-1.9,0.85l-0.79,0.87   c-0.53,0.59-0.76,1.4-0.61,2.17c0.14,0.72,0.1,1.45-0.12,2.18c-0.47,1.57-1.81,2.78-3.4,3.09c-1.61,0.31-3.23-0.25-4.29-1.45   c-0.87-0.99-1.25-2.26-1.07-3.59c0.27-2.01,1.99-3.67,4.02-3.86c0.63-0.06,1.24,0.01,1.81,0.19c0.99,0.31,2.07,0.04,2.74-0.7   c0.84-0.93,0.88-2.36,0.08-3.32c-1.31-1.58-2.28-3.36-2.91-5.29c-0.45-1.39-1.76-2.29-3.23-2.16l-1.63,0.15   c-1.03,0.09-1.95,0.64-2.46,1.46c-0.79,1.27-2.37,1.92-3.83,1.54c-1.02-0.26-1.86-0.97-2.3-1.93c-0.45-0.97-0.43-2.05,0.05-3.04   C2.96,33.71,4.32,32.9,5.71,33c0.84,0.06,1.6,0.39,2.2,0.97c0.7,0.69,1.59,1.03,2.52,0.95l1.9-0.17c1.47-0.13,2.62-1.25,2.8-2.73   c0.27-2.2,0.99-4.29,2.12-6.2c0.68-1.14,0.58-2.6-0.25-3.63l-0.4-0.5c-0.81-1.01-2.22-1.45-3.43-1.05   c-1.11,0.37-2.31,0.45-3.5,0.23c-2.79-0.5-5.03-2.71-5.56-5.5c-0.4-2.1,0.14-4.23,1.47-5.84c1.62-1.96,4.2-2.89,6.76-2.41   c2.67,0.5,4.86,2.61,5.45,5.26c0.33,1.48,0.2,2.98-0.37,4.34c-0.58,1.37-0.23,2.9,0.89,3.81c1.04,0.85,2.67,0.91,3.83,0.14   c1.06-0.7,2.2-1.27,3.39-1.71c1.38-0.5,2.17-1.93,1.83-3.34l-0.91-3.85c-0.22-0.93-0.92-1.69-1.87-2.05C23.04,9.15,22,7.65,22,6   c0-2.21,1.79-4,4-4c0.29,0,0.58,0.03,0.87,0.09c1.53,0.32,2.76,1.57,3.06,3.12c0.24,1.23-0.08,2.43-0.89,3.37   c-0.62,0.71-0.86,1.67-0.65,2.55l1.14,4.8c0.28,1.18,1.28,2.06,2.49,2.18c1.7,0.17,3.02,0.38,3.72,0.6   c2.07,0.65,4.46-0.4,5.48-2.37l1.16-2.25c0.64-1.23,0.65-2.73,0.05-4.1c-0.39-0.88-0.51-1.87-0.35-2.84   c0.34-2.1,2.05-3.79,4.16-4.1c1.7-0.26,3.4,0.36,4.52,1.63c0.96,1.09,1.39,2.49,1.21,3.95c-0.21,1.67-1.34,3.17-2.96,3.91   c-0.51,0.23-1.03,0.37-1.55,0.43c-1.49,0.15-2.82,1.09-3.55,2.53l-1.48,2.87c-0.83,1.61-0.63,3.56,0.52,5   c0.65,0.81,1.27,1.58,1.77,2.42c0.7,1.16,1.9,1.86,3.21,1.86c0.81,0,1.59-0.26,2.27-0.76c0.34-0.25,0.57-0.37,0.7-0.43   c0.67-0.31,1.37-0.46,2.09-0.46c1.98,0,3.77,1.17,4.57,2.97c1.06,2.38,0.04,5.28-2.27,6.47c-1.28,0.66-2.76,0.74-4.09,0.22   c-0.4-0.15-0.82-0.23-1.24-0.23c-1.64,0-3.09,1.13-3.53,2.74c-0.23,0.83-0.52,1.65-0.88,2.43c-0.6,1.32-0.24,2.86,0.87,3.75   l1.41,1.13c0.71,0.57,1.68,0.8,2.61,0.61c0.83-0.17,1.68-0.13,2.51,0.1c2.15,0.59,3.8,2.54,4.02,4.75   C57.12,52.52,56.63,54.03,55.57,55.2z"></path><path d="M32,37c-3.31,0-6,2.69-6,6s2.69,6,6,6s6-2.69,6-6S35.31,37,32,37z M32,47c-2.21,0-4-1.79-4-4s1.79-4,4-4s4,1.79,4,4   S34.2,47,32,47z"></path><path d="M28,29c0-2.21-1.79-4-4-4s-4,1.79-4,4s1.79,4,4,4S28,31.21,28,29z M24,31c-1.1,0-2-0.9-2-2s0.9-2,2-2s2,0.9,2,2   S25.1,31,24,31z"></path><path d="M41,28c-2.21,0-4,1.79-4,4s1.79,4,4,4s4-1.79,4-4S43.2,28,41,28z M41,34c-1.1,0-2-0.9-2-2s0.9-2,2-2s2,0.9,2,2   S42.1,34,41,34z"></path></g></svg>