<svg height='100px' width='100px'  fill="#000000" xmlns="http://www.w3.org/2000/svg" xmlns:xlink="http://www.w3.org/1999/xlink" version="1.1" x="0px" y="0px" viewBox="0 0 100 100" style="enable-background:new 0 0 100 100;" xml:space="preserve"><path d="M67.354,20.33c0.196,0.262,0.496,0.4,0.801,0.4c0.208,0,0.419-0.065,0.599-0.2c0.442-0.332,0.532-0.958,0.2-1.4  c-2.512-3.352-9.562-5.642-17.735-5.821V11c0-0.552-0.447-1-1-1s-1,0.448-1,1v2.308c-8.169,0.169-15.241,2.449-17.776,5.792  c-0.334,0.44-0.247,1.067,0.192,1.401c0.44,0.333,1.067,0.246,1.401-0.192c0.792-1.044,2.193-1.973,4.01-2.742v5.328  c-0.854-0.33-1.76-0.285-2.508,0.019c-1.433,0.584-2.734,2.266-2.205,4.577c0.816,3.565,5.152,5.366,5.336,5.44  c0.121,0.049,0.249,0.074,0.377,0.074s0.256-0.024,0.377-0.074c0.184-0.075,4.52-1.875,5.335-5.44  c0.529-2.311-0.772-3.993-2.205-4.577c-0.748-0.305-1.654-0.348-2.507-0.019v-6.057c2.861-0.895,6.4-1.449,10.173-1.531v16.238  c-1.212-0.665-2.566-0.66-3.648-0.217c-1.81,0.738-3.452,2.869-2.781,5.803c1.066,4.661,6.787,7.037,7.03,7.136  c0.121,0.049,0.249,0.074,0.377,0.074s0.256-0.024,0.377-0.074c0.243-0.099,5.964-2.475,7.03-7.136  c0.671-2.935-0.971-5.065-2.78-5.803c-1.073-0.436-2.406-0.448-3.604,0.19V15.309c3.728,0.086,7.223,0.632,10.057,1.511v6.074  c-0.853-0.329-1.76-0.285-2.507,0.02c-1.433,0.584-2.734,2.266-2.205,4.577c0.815,3.565,5.151,5.366,5.335,5.44  c0.121,0.049,0.249,0.074,0.377,0.074s0.256-0.024,0.377-0.074c0.184-0.075,4.521-1.875,5.335-5.44  c0.529-2.311-0.772-3.992-2.205-4.577c-0.747-0.305-1.653-0.349-2.507-0.019v-5.353C65.13,18.321,66.556,19.267,67.354,20.33z   M40.796,24.766c0.698,0.284,1.281,1.099,1.012,2.278c-0.468,2.044-2.831,3.397-3.763,3.859c-0.932-0.462-3.295-1.815-3.764-3.859  c-0.27-1.179,0.313-1.994,1.011-2.278c0.183-0.074,0.365-0.111,0.543-0.111c0.519,0,1.003,0.309,1.357,0.887  c0.363,0.595,1.342,0.592,1.705,0C39.373,24.765,40.082,24.475,40.796,24.766z M54.066,33.18c1.053,0.429,1.997,1.709,1.587,3.505  c-0.697,3.046-4.277,4.992-5.458,5.558c-1.181-0.566-4.761-2.512-5.458-5.558c-0.41-1.796,0.535-3.076,1.587-3.505  C46.623,33.059,46.92,33,47.209,33c0.821,0,1.582,0.479,2.134,1.379c0.182,0.297,0.504,0.478,0.853,0.478  c0.348,0,0.671-0.181,0.853-0.478C51.794,33.161,52.925,32.714,54.066,33.18z M65.026,24.766c0.697,0.284,1.28,1.099,1.011,2.279  c-0.467,2.043-2.831,3.397-3.763,3.858c-0.932-0.461-3.295-1.815-3.763-3.859c-0.27-1.179,0.313-1.994,1.012-2.278  c0.182-0.075,0.364-0.111,0.542-0.111c0.519,0,1.002,0.309,1.356,0.887c0.182,0.297,0.504,0.478,0.853,0.478  c0.348,0,0.671-0.181,0.853-0.478C63.603,24.765,64.31,24.475,65.026,24.766z"></path><path d="M11.125,90h6.542c0.553,0,1-0.448,1-1v-4.167h62.916V89c0,0.552,0.447,1,1,1h6.542c0.553,0,1-0.448,1-1V41.673  c0-0.552-0.447-1-1-1h-0.35c0.799-0.769,1.301-1.843,1.301-3.036c0-2.328-1.894-4.222-4.222-4.222s-4.222,1.894-4.222,4.222  c0,1.193,0.502,2.268,1.301,3.036h-0.351c-0.553,0-1,0.448-1,1v6.077H18.667v-6.077c0-0.552-0.447-1-1-1h-0.351  c0.799-0.769,1.301-1.843,1.301-3.036c0-2.328-1.894-4.222-4.222-4.222s-4.222,1.894-4.222,4.222c0,1.193,0.502,2.268,1.301,3.036  h-0.35c-0.553,0-1,0.448-1,1V89C10.125,89.552,10.572,90,11.125,90z M85.854,35.415c1.225,0,2.222,0.997,2.222,2.222  s-0.997,2.222-2.222,2.222s-2.222-0.997-2.222-2.222S84.63,35.415,85.854,35.415z M14.396,35.415c1.225,0,2.222,0.997,2.222,2.222  s-0.997,2.222-2.222,2.222s-2.222-0.997-2.222-2.222S13.171,35.415,14.396,35.415z M16.667,88h-4.542V42.673h4.542V88z   M18.667,82.833v-5.46h62.916v5.46H18.667z M67.625,75.373V49.75h6.25v25.623H67.625z M65.625,75.373h-6.25V49.75h6.25V75.373z   M57.375,75.373h-6.25V49.75h6.25V75.373z M49.125,75.373h-6.25V49.75h6.25V75.373z M40.875,75.373h-6.25V49.75h6.25V75.373z   M32.625,75.373h-6.25V49.75h6.25V75.373z M88.125,88h-4.542V42.673h4.542V88z M81.583,75.373h-5.708V49.75h5.708V75.373z   M24.375,49.75v25.623h-5.708V49.75H24.375z"></path></svg>