<svg height='100px' width='100px'  fill="#000000" xmlns="http://www.w3.org/2000/svg" data-name="Layer 1" viewBox="0 0 70 70" x="0px" y="0px"><title>Artboard 47</title><path d="M60.25,24.17h-2.8L58.59,23a1,1,0,1,0-1.37-1.37l-2.11,2.11L53,21.66a1,1,0,0,0-1.36,0,1,1,0,0,0,0,1.37l1.14,1.14H42.49a4.39,4.39,0,0,0,.77-2.49,3.23,3.23,0,0,0-2.76-3.23l-10-2.15C26,14.74,21,18,20.77,18.13A22.43,22.43,0,0,0,15.38,23a6.42,6.42,0,0,1-5,2.49H5V51.39h6.6A7.76,7.76,0,0,1,16.41,53a15.54,15.54,0,0,0,9.72,3.36H39a4.65,4.65,0,0,0,3.35-1.39,4.72,4.72,0,0,0,1.3-4.28,4.53,4.53,0,0,0-.92-2,4.73,4.73,0,0,0,4-4.66,4.68,4.68,0,0,0-1-2.92,4.76,4.76,0,0,0,3.76-4.64,4.69,4.69,0,0,0-.95-2.81h11.8a4.75,4.75,0,1,0,0-9.49ZM39.33,31.73a1,1,0,1,0,0,1.93h5.32a2.81,2.81,0,1,1,0,5.62H39.33a1,1,0,0,0,0,1.94h2.6a2.81,2.81,0,1,1,0,5.62h-2.6l-.15,0c-.12,0-.25,0-.38,0a.94.94,0,0,0-.94,1,1,1,0,0,0,1,1A2.87,2.87,0,0,1,41.73,51,2.81,2.81,0,0,1,41,53.58a2.74,2.74,0,0,1-2,.82H26.13a13.63,13.63,0,0,1-8.52-2.95,9.7,9.7,0,0,0-6-2H6.94v-22h3.45a8.32,8.32,0,0,0,6.5-3.23,20.65,20.65,0,0,1,4.94-4.47s4.48-2.9,8.05-1.61l10.28,2.22a1.33,1.33,0,0,1,1.17,1.32,2.48,2.48,0,0,1-2.46,2.49H27.07a1,1,0,1,0,0,1.93H50.88v5.62Zm13.48,0V26.11h4.61v5.62Zm7.44,0h-.9V26.11h.9a2.81,2.81,0,1,1,0,5.62Z"></path><path d="M60,51.33c0-2.1-1.53-3.69-3-5.23-.41-.42-.81-.84-1.17-1.26L55.11,44l-.73.86c-.37.44-.78.86-1.19,1.29-1.47,1.53-3,3.12-3,5.2a4.92,4.92,0,1,0,9.84,0Zm-7.9,0c0-1.31,1.19-2.55,2.45-3.86l.54-.56c.16.18.33.35.5.53,1.27,1.32,2.48,2.57,2.48,3.89a3,3,0,1,1-6,0Z"></path></svg>