<svg height='100px' width='100px'  fill="#000000" xmlns="http://www.w3.org/2000/svg" xmlns:xlink="http://www.w3.org/1999/xlink" version="1.1" x="0px" y="0px" viewBox="0 0 100 100" enable-background="new 0 0 100 100" xml:space="preserve"><g><g><path fill="#000000" d="M6.21,41.388v1.831v16.663c0,1.649,0.154,3.278,0.456,4.824c0.69,3.724,2.167,7.183,4.39,10.282    c4.021,5.612,10.428,8.604,17.052,8.604c4.117,0,8.319-1.157,12.081-3.56c2.624-1.659,3.861-1.838,4.271-1.838h11.793    c0.41,0,1.646,0.179,4.263,1.833c9.812,6.269,22.612,4.055,29.14-5.038c2.224-3.1,3.7-6.56,4.39-10.283    c0.022-0.12,0.033-0.242,0.033-0.364V47.864c0.278-1.506,0.422-3.067,0.422-4.646c0-5.458-1.675-10.681-4.846-15.107    c-6.527-9.092-19.328-11.306-29.139-5.038c-2.61,1.666-3.852,1.845-4.264,1.845c-1.104,0-2,0.896-2,2s0.896,2,2,2    c1.708,0,3.807-0.809,6.416-2.474c8.022-5.124,18.448-3.368,23.736,3.997c2.68,3.741,4.097,8.159,4.097,12.776    c0,1.4-0.13,2.78-0.388,4.112c-0.594,3.149-1.842,6.068-3.708,8.674c-3.305,4.604-8.618,7.018-14.096,6.928    c-3.287-0.053-6.634-1.008-9.642-2.93c-2.608-1.665-4.707-2.474-6.416-2.474H44.458c-1.709,0-3.807,0.809-6.416,2.474    c-8.029,5.13-18.455,3.373-23.735-3.997c-2.681-3.741-4.097-8.164-4.097-12.788c0-0.567,0.021-1.13,0.064-1.68    c0.303-3.994,1.697-7.832,4.033-11.096c5.279-7.37,15.705-9.126,23.736-3.997c2.608,1.664,4.707,2.473,6.415,2.473    c1.104,0,2-0.896,2-2s-0.896-2-2-2c-0.412,0-1.653-0.18-4.263-1.845c-9.823-6.273-22.622-4.062-29.141,5.04    c-2.652,3.707-4.265,8.039-4.706,12.555C6.262,40.893,6.21,41.133,6.21,41.388z M12.213,59.791    c0.083,0.096,0.165,0.193,0.25,0.287c0.397,0.442,0.809,0.865,1.237,1.266c0.079,0.074,0.16,0.143,0.24,0.215    c0.407,0.369,0.825,0.72,1.257,1.052c0.061,0.046,0.119,0.096,0.18,0.142c0.468,0.351,0.951,0.676,1.443,0.984    c0.111,0.069,0.222,0.136,0.333,0.203c0.498,0.298,1.004,0.58,1.523,0.834c0.064,0.031,0.131,0.059,0.195,0.089    c0.483,0.23,0.976,0.44,1.475,0.632c0.108,0.042,0.215,0.086,0.323,0.126c0.533,0.195,1.074,0.368,1.622,0.521    c0.125,0.035,0.251,0.066,0.378,0.099c0.539,0.139,1.082,0.263,1.631,0.36c0.037,0.007,0.073,0.016,0.11,0.022    c0.571,0.098,1.149,0.165,1.729,0.217c0.139,0.013,0.276,0.025,0.416,0.035c0.515,0.037,1.032,0.062,1.551,0.062    c0.047,0,0.094-0.005,0.141-0.005c0.174-0.001,0.348-0.013,0.522-0.019c0.439-0.013,0.877-0.037,1.316-0.077    c0.214-0.02,0.428-0.042,0.642-0.068c0.431-0.051,0.861-0.118,1.29-0.195c0.185-0.033,0.369-0.06,0.552-0.098    c0.596-0.123,1.19-0.267,1.78-0.439c0.123-0.036,0.243-0.082,0.365-0.12c0.479-0.149,0.954-0.313,1.426-0.496    c0.196-0.076,0.391-0.158,0.586-0.24c0.417-0.175,0.829-0.364,1.238-0.565c0.18-0.088,0.36-0.173,0.538-0.267    c0.572-0.301,1.139-0.619,1.693-0.974c2.61-1.666,3.851-1.846,4.263-1.846h11.793c0.413,0,1.653,0.18,4.263,1.845    c9.812,6.269,22.612,4.056,29.141-5.04c0.144-0.201,0.285-0.403,0.422-0.607v6.425c-0.595,3.074-1.831,5.934-3.673,8.502    c-5.289,7.367-15.716,9.123-23.745,3.994c-2.616-1.653-4.712-2.457-6.408-2.457H44.458c-1.696,0-3.792,0.804-6.416,2.462    c-8.029,5.129-18.456,3.374-23.736-3.998c-1.878-2.619-3.125-5.539-3.711-8.698c-0.255-1.313-0.385-2.685-0.385-4.077v-2.8    c0.269,0.425,0.551,0.843,0.845,1.255C11.42,58.845,11.811,59.325,12.213,59.791z"></path><path fill="#000000" d="M37.235,34.584c0-4.854-3.949-8.804-8.803-8.804c-4.854,0-8.804,3.949-8.804,8.804    c0,4.854,3.949,8.803,8.804,8.803C33.286,43.388,37.235,39.438,37.235,34.584z M28.432,39.388c-2.649,0-4.804-2.155-4.804-4.803    c0-2.649,2.155-4.804,4.804-4.804c2.648,0,4.803,2.155,4.803,4.804C33.235,37.233,31.081,39.388,28.432,39.388z"></path><path fill="#000000" d="M39.411,45.147c0,3.176,2.583,5.759,5.759,5.759s5.76-2.583,5.76-5.759s-2.584-5.76-5.76-5.76    S39.411,41.972,39.411,45.147z M46.93,45.147c0,0.97-0.79,1.759-1.76,1.759s-1.759-0.789-1.759-1.759s0.789-1.76,1.759-1.76    S46.93,44.177,46.93,45.147z"></path><path fill="#000000" d="M65.958,32.775c-5.248,0-9.518,4.27-9.518,9.518s4.27,9.518,9.518,9.518s9.518-4.27,9.518-9.518    S71.206,32.775,65.958,32.775z M65.958,47.811c-3.042,0-5.518-2.475-5.518-5.518s2.475-5.518,5.518-5.518s5.518,2.475,5.518,5.518    S69,47.811,65.958,47.811z"></path><path fill="#000000" d="M72.801,55.009c0,2.568,2.089,4.658,4.658,4.658s4.658-2.089,4.658-4.658c0-2.568-2.089-4.657-4.658-4.657    S72.801,52.441,72.801,55.009z M77.459,54.352c0.363,0,0.658,0.295,0.658,0.657c0,0.363-0.295,0.658-0.658,0.658    s-0.658-0.295-0.658-0.658C76.801,54.646,77.096,54.352,77.459,54.352z"></path><path fill="#000000" d="M81.475,41.884c3.005,0,5.45-2.445,5.45-5.45c0-3.005-2.445-5.45-5.45-5.45c-3.005,0-5.45,2.445-5.45,5.45    C76.025,39.439,78.47,41.884,81.475,41.884z M81.475,34.984c0.799,0,1.45,0.65,1.45,1.45c0,0.8-0.65,1.45-1.45,1.45    c-0.8,0-1.45-0.65-1.45-1.45C80.025,35.634,80.675,34.984,81.475,34.984z"></path><path fill="#000000" d="M19.628,54.132c0,3.529,2.872,6.4,6.401,6.4s6.4-2.871,6.4-6.4s-2.871-6.401-6.4-6.401    S19.628,50.603,19.628,54.132z M28.43,54.132c0,1.324-1.077,2.4-2.4,2.4s-2.401-1.077-2.401-2.4s1.077-2.401,2.401-2.401    S28.43,52.808,28.43,54.132z"></path><path fill="#000000" d="M44.75,70c0.13,0,0.26-0.01,0.39-0.04c0.13-0.02,0.25-0.06,0.38-0.11c0.12-0.05,0.23-0.12,0.34-0.19    c0.11-0.07,0.21-0.15,0.31-0.25c0.37-0.37,0.58-0.88,0.58-1.41c0-0.13-0.01-0.26-0.04-0.39c-0.02-0.13-0.06-0.25-0.11-0.37    c-0.05-0.13-0.11-0.24-0.19-0.35c-0.07-0.11-0.15-0.21-0.24-0.3c-0.75-0.75-2.09-0.75-2.83,0c-0.1,0.09-0.18,0.19-0.25,0.3    c-0.08,0.11-0.14,0.22-0.19,0.35c-0.05,0.12-0.09,0.24-0.11,0.37c-0.03,0.13-0.04,0.26-0.04,0.39c0,0.53,0.21,1.04,0.59,1.41    C43.71,69.79,44.22,70,44.75,70z"></path><path fill="#000000" d="M35.25,74.06c0.53,0,1.04-0.21,1.41-0.58c0.38-0.37,0.59-0.89,0.59-1.42c0-0.53-0.21-1.04-0.59-1.41    c-0.09-0.09-0.19-0.18-0.3-0.25c-0.11-0.07-0.22-0.13-0.35-0.18c-0.12-0.05-0.24-0.09-0.37-0.12c-0.65-0.13-1.34,0.08-1.81,0.55    c-0.37,0.37-0.58,0.88-0.58,1.41c0,0.53,0.21,1.05,0.58,1.42C34.21,73.85,34.72,74.06,35.25,74.06z"></path><path fill="#000000" d="M24.27,73.04c0.1,0.07,0.22,0.13,0.34,0.18c0.12,0.05,0.25,0.09,0.37,0.12c0.13,0.02,0.26,0.04,0.39,0.04    c0.13,0,0.27-0.02,0.4-0.04c0.12-0.03,0.25-0.07,0.37-0.12c0.12-0.05,0.24-0.11,0.35-0.18c0.1-0.07,0.21-0.16,0.3-0.25    c0.37-0.37,0.59-0.89,0.59-1.42c0-0.52-0.22-1.04-0.59-1.41c-0.09-0.09-0.2-0.17-0.3-0.25c-0.11-0.07-0.23-0.13-0.35-0.18    c-0.12-0.05-0.25-0.09-0.37-0.12c-0.26-0.05-0.53-0.05-0.79,0c-0.12,0.03-0.25,0.07-0.37,0.12s-0.24,0.11-0.34,0.18    c-0.11,0.08-0.22,0.16-0.31,0.25c-0.37,0.37-0.58,0.89-0.58,1.41c0,0.53,0.21,1.05,0.58,1.42C24.05,72.88,24.16,72.97,24.27,73.04    z"></path><path fill="#000000" d="M56.2,71.91c0.11,0.07,0.23,0.14,0.35,0.19c0.12,0.05,0.24,0.09,0.37,0.11c0.13,0.03,0.26,0.04,0.39,0.04    c0.53,0,1.04-0.21,1.42-0.59c0.37-0.37,0.58-0.88,0.58-1.41c0-0.53-0.21-1.04-0.58-1.42c-0.1-0.09-0.2-0.17-0.31-0.24    c-0.11-0.08-0.22-0.14-0.34-0.19c-0.12-0.05-0.25-0.09-0.38-0.11c-0.25-0.05-0.52-0.05-0.78,0c-0.13,0.02-0.25,0.06-0.37,0.11    c-0.12,0.05-0.24,0.11-0.35,0.19c-0.11,0.07-0.21,0.15-0.3,0.24c-0.37,0.38-0.59,0.89-0.59,1.42c0,0.53,0.22,1.04,0.59,1.41    C55.99,71.76,56.09,71.84,56.2,71.91z"></path><path fill="#000000" d="M71.2,75.16c0.11,0.08,0.23,0.14,0.35,0.19c0.12,0.05,0.24,0.09,0.37,0.11c0.13,0.03,0.26,0.04,0.39,0.04    c0.53,0,1.04-0.21,1.42-0.58c0.37-0.38,0.58-0.89,0.58-1.42c0-0.13-0.01-0.26-0.04-0.39c-0.02-0.13-0.06-0.25-0.11-0.38    c-0.05-0.12-0.11-0.23-0.18-0.34c-0.08-0.11-0.16-0.21-0.25-0.3c-0.1-0.1-0.2-0.18-0.31-0.25c-0.11-0.08-0.22-0.14-0.34-0.19    c-0.12-0.05-0.25-0.09-0.38-0.11c-0.25-0.05-0.52-0.05-0.78,0c-0.13,0.02-0.25,0.06-0.37,0.11c-0.12,0.05-0.24,0.11-0.35,0.19    c-0.11,0.07-0.21,0.15-0.3,0.25c-0.09,0.09-0.18,0.19-0.25,0.3c-0.07,0.11-0.13,0.22-0.18,0.34c-0.05,0.13-0.09,0.25-0.12,0.38    c-0.02,0.13-0.04,0.26-0.04,0.39c0,0.53,0.22,1.04,0.59,1.42C70.99,75.01,71.09,75.09,71.2,75.16z"></path><path fill="#000000" d="M81.64,71.91c0.11,0.07,0.22,0.14,0.35,0.19c0.12,0.05,0.24,0.09,0.37,0.11c0.13,0.03,0.26,0.04,0.39,0.04    c0.53,0,1.04-0.21,1.41-0.59c0.38-0.37,0.59-0.88,0.59-1.41c0-0.53-0.21-1.04-0.59-1.42c-0.09-0.09-0.19-0.17-0.3-0.24    c-0.11-0.08-0.22-0.14-0.34-0.19c-0.12-0.05-0.25-0.09-0.38-0.11c-0.26-0.05-0.52-0.05-0.78,0c-0.13,0.02-0.25,0.06-0.37,0.11    c-0.13,0.05-0.24,0.11-0.35,0.19c-0.11,0.07-0.21,0.15-0.3,0.24c-0.38,0.38-0.59,0.89-0.59,1.42c0,0.53,0.21,1.04,0.59,1.41    C81.43,71.76,81.53,71.84,81.64,71.91z"></path><path fill="#000000" d="M84.82,67.02c0.05,0.12,0.11,0.23,0.18,0.34c0.08,0.11,0.16,0.21,0.25,0.3c0.37,0.38,0.89,0.59,1.42,0.59    c0.52,0,1.04-0.21,1.41-0.59c0.09-0.09,0.18-0.19,0.25-0.3c0.07-0.11,0.13-0.22,0.18-0.34c0.05-0.13,0.09-0.25,0.12-0.38    c0.02-0.13,0.04-0.26,0.04-0.39c0-0.53-0.22-1.04-0.59-1.42c-0.74-0.74-2.08-0.74-2.83,0c-0.37,0.38-0.58,0.89-0.58,1.42    c0,0.13,0.01,0.26,0.04,0.39C84.73,66.77,84.77,66.89,84.82,67.02z"></path><path fill="#000000" d="M61.57,69.18c0.05,0.12,0.11,0.24,0.18,0.35c0.08,0.11,0.16,0.21,0.25,0.3c0.37,0.37,0.89,0.59,1.42,0.59    c0.52,0,1.04-0.22,1.41-0.59c0.09-0.09,0.18-0.19,0.25-0.3c0.07-0.11,0.13-0.23,0.18-0.35c0.05-0.12,0.09-0.24,0.12-0.37    c0.02-0.13,0.04-0.26,0.04-0.39c0-0.53-0.22-1.05-0.59-1.42c-0.74-0.74-2.08-0.74-2.83,0c-0.37,0.37-0.58,0.89-0.58,1.42    c0,0.13,0.01,0.26,0.04,0.39C61.48,68.94,61.52,69.06,61.57,69.18z"></path><path fill="#000000" d="M15.97,69.66c0.11,0.07,0.23,0.14,0.35,0.19c0.12,0.05,0.24,0.09,0.37,0.11c0.13,0.03,0.26,0.04,0.39,0.04    c0.13,0,0.27-0.01,0.4-0.04c0.12-0.02,0.25-0.06,0.37-0.11c0.12-0.05,0.23-0.12,0.34-0.19c0.11-0.07,0.22-0.15,0.31-0.25    c0.37-0.37,0.58-0.88,0.58-1.41c0-0.13-0.01-0.26-0.04-0.39c-0.02-0.13-0.06-0.25-0.11-0.37c-0.05-0.13-0.11-0.24-0.18-0.35    c-0.08-0.11-0.16-0.21-0.25-0.3c-0.09-0.1-0.2-0.18-0.31-0.25c-0.11-0.07-0.22-0.14-0.34-0.19c-0.12-0.05-0.25-0.08-0.37-0.11    c-0.66-0.13-1.35,0.08-1.81,0.55c-0.09,0.09-0.18,0.19-0.25,0.3c-0.07,0.11-0.13,0.22-0.18,0.35c-0.05,0.12-0.09,0.24-0.12,0.37    c-0.02,0.13-0.04,0.26-0.04,0.39c0,0.53,0.22,1.04,0.59,1.41C15.76,69.51,15.86,69.59,15.97,69.66z"></path></g></g></svg>