<svg height='100px' width='100px'  fill="#000000" xmlns="http://www.w3.org/2000/svg" viewBox="0 0 64 64" x="0px" y="0px"><title>drip infusion medical</title><g data-name="Layer 2"><path d="M50,5H14a1,1,0,0,0,0,2H25v8.18A3,3,0,0,0,23,18v1H18a1,1,0,0,0-1,1V36a1,1,0,0,0,1,1h2v3a1,1,0,0,0,1,1h4v5a3,3,0,0,0,6,0,1,1,0,0,1,1-1,1,1,0,0,1,.71.31A1,1,0,0,1,33,46v9.06a1,1,0,0,0,2,0V46a3,3,0,0,0-3-3,3,3,0,0,0-3,3,1,1,0,0,1-2,0V41h4a1,1,0,0,0,1-1V37h2a1,1,0,0,0,1-1V20a1,1,0,0,0-1-1H29V18a3,3,0,0,0-2-2.82V7H49V58a1,1,0,0,0,2,0V6A1,1,0,0,0,50,5ZM30,39H22V37h8Zm3-16H26a1,1,0,0,0,0,2h7v2H26a1,1,0,0,0,0,2h7v2H26a1,1,0,0,0,0,2h7v2H19V21H33Zm-8-4V18a1,1,0,0,1,2,0v1Z"></path></g></svg>