<svg height='100px' width='100px'  fill="#000000" xmlns="http://www.w3.org/2000/svg" data-name="Layer 1" viewBox="0 0 64 64" x="0px" y="0px"><title>Artboard 1</title><path d="M56,27.53613a4.55006,4.55006,0,0,0-4.429,3.54737H47.59613a15.55591,15.55591,0,0,0-3.81061-9.33667l2.82019-2.81989a4.56815,4.56815,0,1,0-1.41406-1.41406L42.37714,20.327A15.55629,15.55629,0,0,0,33.084,16.41187V12.42834a4.54733,4.54733,0,1,0-2.00048.00013v3.97491a15.556,15.556,0,0,0-9.33692,3.81085l-2.81946-2.81976a4.55734,4.55734,0,1,0-1.41394,1.41418l2.81366,2.814a15.55673,15.55673,0,0,0-3.915,9.29382H12.42853a4.54751,4.54751,0,1,0-.00006,2h3.97491a15.55513,15.55513,0,0,0,3.8111,9.3368l-2.82019,2.82019a4.56815,4.56815,0,1,0,1.41406,1.41406L21.623,43.67291a15.55725,15.55725,0,0,0,9.29351,3.91474V51.571a4.54751,4.54751,0,1,0,2,.00006V47.59613a15.5556,15.5556,0,0,0,9.33655-3.81085l2.82031,2.82031A4.54318,4.54318,0,0,0,52.127,52.24512a4.54737,4.54737,0,0,0-3.21582-7.7627,4.50766,4.50766,0,0,0-2.4237.70911l-2.8147-2.8147A15.55644,15.55644,0,0,0,47.58765,33.084h3.98352A4.54442,4.54442,0,1,0,56,27.53613Zm-8.77148-14.249a2.54755,2.54755,0,0,1,3.60253,3.603,2.60941,2.60941,0,0,1-3.60253,0,2.548,2.548,0,0,1,0-3.603ZM16.89014,16.77148a2.5459,2.5459,0,1,1,0-3.60253A2.551,2.551,0,0,1,16.89014,16.77148ZM8,34.46387a2.54761,2.54761,0,1,1,2.54736-2.54737A2.55,2.55,0,0,1,8,34.46387Zm8.77148,16.249a2.54741,2.54741,0,1,1,.7461-1.80176A2.55213,2.55213,0,0,1,16.77148,50.71289Zm30.33887-3.48437a2.54738,2.54738,0,0,1,3.60254,3.60253,2.60749,2.60749,0,0,1-3.60254,0,2.54742,2.54742,0,0,1,0-3.60253ZM29.53613,8a2.54737,2.54737,0,1,1,2.54737,2.54736A2.55,2.55,0,0,1,29.53613,8Zm4.92774,48a2.54761,2.54761,0,1,1-2.54737-2.54785A2.55014,2.55014,0,0,1,34.46387,56ZM32,45.64258A13.64283,13.64283,0,1,1,45.64258,32,13.65824,13.65824,0,0,1,32,45.64258ZM56,34.63086a2.54737,2.54737,0,1,1,2.54785-2.54736A2.55014,2.55014,0,0,1,56,34.63086Z"></path><path d="M28.53516,22.54932A5.42456,5.42456,0,1,0,33.96,27.97363,5.43016,5.43016,0,0,0,28.53516,22.54932Zm0,8.84912a3.42456,3.42456,0,1,1,3.42431-3.42481A3.42829,3.42829,0,0,1,28.53516,31.39844Z"></path><path d="M37.09082,32.93066A3.81788,3.81788,0,1,0,40.9082,36.749,3.82266,3.82266,0,0,0,37.09082,32.93066Zm0,5.63575A1.81788,1.81788,0,1,1,38.9082,36.749,1.81985,1.81985,0,0,1,37.09082,38.56641Z"></path></svg>