<svg height='100px' width='100px'  fill="#000000" xmlns="http://www.w3.org/2000/svg" xmlns:xlink="http://www.w3.org/1999/xlink" version="1.1" x="0px" y="0px" viewBox="0 0 64 64" style="enable-background:new 0 0 64 64;" xml:space="preserve"><g><path d="M48,15H33V9c0-2.206-1.794-4-4-4s-4,1.794-4,4v0.556C24.409,9.212,23.732,9,23,9c-2.206,0-4,1.794-4,4v2H9   c-1.103,0-2,0.897-2,2v4c0,1.103,0.897,2,2,2h10v1.279l-1.897,0.633C14.648,25.729,13,28.017,13,30.604v9.957   c0,3.102,1.111,6.106,3.13,8.46L19,52.37V63h22V52.236l2.311-4.622C44.416,45.404,45,42.931,45,40.459V29c0-2.206-1.794-4-4-4   c-0.732,0-1.409,0.212-2,0.556V23h9c1.654,0,3-1.346,3-3v-2C51,16.346,49.654,15,48,15z M27,21v-4h18v4H27z M27,9   c0-1.103,0.897-2,2-2s2,0.897,2,2v6h-4V9z M9,21v-4h10v4H9z M21,61v-8h18v8H21z M37,34h2v-5c0-1.103,0.897-2,2-2s2,0.897,2,2   v11.459c0,2.162-0.511,4.327-1.479,6.261L39.382,51H20.46l-2.813-3.28C15.94,45.728,15,43.185,15,40.561v-9.957   c0-1.725,1.1-3.25,2.735-3.795L19,26.388V34h2V13c0-1.103,0.897-2,2-2s2,0.897,2,2v21h2V23h4v11h2V23h4V34z M49,20   c0,0.551-0.448,1-1,1h-1v-4h1c0.552,0,1,0.449,1,1V20z"></path><path d="M47.04,13h2c0-0.771,0.16-1.104,0.382-1.565C49.679,10.898,50,10.231,50,9.004c0-1.228-0.32-1.896-0.578-2.434   C49.2,6.109,49.04,5.775,49.04,5.002c0-0.773,0.16-1.106,0.382-1.568C49.68,2.896,50,2.228,50,1h-2c0,0.773-0.16,1.106-0.382,1.568   C47.36,3.105,47.04,3.774,47.04,5.002s0.32,1.897,0.578,2.434C47.84,7.898,48,8.231,48,9.004c0,0.771-0.16,1.104-0.381,1.564   C47.361,11.105,47.04,11.773,47.04,13z"></path><path d="M43,13h2c0-0.771,0.16-1.104,0.382-1.565c0.257-0.537,0.578-1.204,0.578-2.431c0-1.228-0.32-1.896-0.578-2.434   C45.16,6.109,45,5.775,45,5.002c0-0.773,0.16-1.106,0.382-1.568C45.64,2.896,45.96,2.228,45.96,1h-2   c0,0.773-0.16,1.106-0.382,1.568C43.32,3.105,43,3.774,43,5.002s0.32,1.897,0.578,2.434C43.8,7.898,43.96,8.231,43.96,9.004   c0,0.771-0.16,1.104-0.381,1.564C43.321,11.105,43,11.773,43,13z"></path></g></svg>