<svg height='100px' width='100px'  fill="#000000" xmlns="http://www.w3.org/2000/svg" xmlns:xlink="http://www.w3.org/1999/xlink" version="1.1" viewBox="0 0 96 96" x="0px" y="0px"><path d="M92 86h-88c-1.1 0-2-0.9-2-2v-60c0-1.1 0.9-2 2-2h88c1.1 0 2 0.9 2 2v60c0 1.1-0.9 2-2 2zM6 82h84v-56h-84v56z" fill="#000000"></path><path d="M68 24c-1.1 0-2-0.9-2-2 0-4.416-3.584-8-8-8h-20c-4.416 0-8 3.584-8 8 0 1.1-0.9 2-2 2s-2-0.9-2-2c0-6.616 5.384-12 12-12h20c6.616 0 12 5.384 12 12 0 1.1-0.9 2-2 2z" fill="#000000"></path><path d="M56 78h-16c-1.1 0-2-0.9-2-2v-10h-10c-1.1 0-2-0.9-2-2v-16c0-1.1 0.9-2 2-2h10v-10c0-1.1 0.9-2 2-2h16c1.1 0 2 0.9 2 2v10h10c1.1 0 2 0.9 2 2v16c0 1.1-0.9 2-2 2h-10v10c0 1.1-0.9 2-2 2zM42 74h12v-10c0-1.1 0.9-2 2-2h10v-12h-10c-1.1 0-2-0.9-2-2v-10h-12v10c0 1.1-0.9 2-2 2h-10v12h10c1.1 0 2 0.9 2 2v10z" fill="#000000"></path></svg>