<svg height='100px' width='100px'  fill="#000000" xmlns="http://www.w3.org/2000/svg" viewBox="0 0 64 64" x="0px" y="0px"><g><path d="M50.828,10.414A3.993,3.993,0,0,0,46,9.8V8.228A3.988,3.988,0,0,0,42.022,4.25H42a3.937,3.937,0,0,0-2.193.675,4,4,0,0,0-6.631-1.517,3.988,3.988,0,0,0-.94,1.523A4,4,0,0,0,26,8.242V32.758a2,2,0,0,1-4,0V27a5,5,0,0,0-10,0v7.255a9.043,9.043,0,0,0,1.9,5.526L24.525,53.447A7.028,7.028,0,0,1,26,57.745V62h2V57.745A8.941,8.941,0,0,0,27.82,56h18.3A9.018,9.018,0,0,0,46,57.422V62h2V57.422a6.978,6.978,0,0,1,1.176-3.883l1.313-1.969A8.972,8.972,0,0,0,52,46.578V13.242A4.025,4.025,0,0,0,50.828,10.414ZM49.86,47.9,31.694,42.353l.038-.035-5.711-6.125a3.949,3.949,0,0,0,.807-.607,3.905,3.905,0,0,0,.336-.41L50,45.642v.936A6.991,6.991,0,0,1,49.86,47.9ZM48.529,50.9,22.146,47.011l-.015.1-5.7-7.323,32.77,10a7.007,7.007,0,0,1-.381.674ZM50,33.82,28,30.153V29H50Zm-22.057-.488A3.93,3.93,0,0,0,28,32.758V32.18l22,3.667v7.594Zm.643-26.5a2.051,2.051,0,0,1,2.828,0A2.014,2.014,0,0,1,32,8.242V25h2V6.252a2.008,2.008,0,0,1,.592-1.43,2.037,2.037,0,0,1,3.467,1.45L38,24.988V25h0l1,0,1,0,.059-16.8A1.962,1.962,0,0,1,42.012,6.25h.011A1.987,1.987,0,0,1,44,8.228V25h2V13.242a2,2,0,0,1,4,0V27H28V8.242A2.014,2.014,0,0,1,28.586,6.828ZM23.793,36.737l4.178,4.481L22,39.4V36.2A3.975,3.975,0,0,0,23.793,36.737ZM14,27a3.021,3.021,0,0,1,.879-2.121,3.073,3.073,0,0,1,4.242,0A3.021,3.021,0,0,1,20,27v5.758c0,.082.019.161.024.242H20v5.786l-5.345-1.631a7.008,7.008,0,0,1-.655-2.9ZM27.315,54v.324A8.974,8.974,0,0,0,26.1,52.219l-2.286-2.94,23.514,3.47A8.99,8.99,0,0,0,46.7,54Z"></path></g></svg>