<svg height='100px' width='100px'  fill="#000000" xmlns="http://www.w3.org/2000/svg" viewBox="0 0 512 512" x="0px" y="0px"><title>Outline science medicine</title><path d="M468.51,112.12,308.4,75.57a27.2,27.2,0,0,0-20,3.17A25.09,25.09,0,0,0,276.6,94.5L253,197.82a8.45,8.45,0,0,0,16.47,3.76L293.07,98.25a8.19,8.19,0,0,1,4-5A10.33,10.33,0,0,1,304.64,92l160.11,36.55a9.91,9.91,0,0,1,7.45,11.85L410.09,412.51A9.89,9.89,0,0,1,398.24,420L281.1,393.22a8.45,8.45,0,1,0-3.76,16.47l117.14,26.74a26.77,26.77,0,0,0,32.08-20.16L488.67,144.2a26.81,26.81,0,0,0-20.16-32.08Z"></path><path d="M281.09,262.2a22.88,22.88,0,0,0,30.17,11.87l25-10.9a22.93,22.93,0,1,0-18.3-42L293,232A22.94,22.94,0,0,0,281.09,262.2Zm18.61-14.68,25-10.9a6,6,0,0,1,2.41-.51,6.08,6.08,0,0,1,5.53,3.63,6,6,0,0,1-3.12,7.94l-25,10.9a6,6,0,1,1-4.82-11.06Z"></path><path d="M354.4,261.46a22.92,22.92,0,0,0,30.49,29.41l25-10.9a22.93,22.93,0,1,0-18.3-42l-25,10.91A22.75,22.75,0,0,0,354.4,261.46Zm15.72,6.19a6,6,0,0,1,3.21-3.33l25-10.9a6,6,0,0,1,4.82,11.06l-25,10.9a6,6,0,0,1-8-7.73Z"></path><path d="M261.64,328.46a22.91,22.91,0,0,0,30.49,29.41l25-10.9a22.93,22.93,0,1,0-18.31-42l-25,10.9A22.75,22.75,0,0,0,261.64,328.46Zm15.73,6.18a6,6,0,0,1,3.2-3.32l25-10.9a5.92,5.92,0,0,1,2.4-.51,6,6,0,0,1,2.41,11.57l-25,10.9a6,6,0,0,1-8-7.74Z"></path><path d="M372.49,321.73l-25,10.9a22.93,22.93,0,1,0,18.31,42l25-10.9a22.93,22.93,0,1,0-18.3-42Zm11.56,26.55-25,10.9a6,6,0,0,1-8-7.73,6,6,0,0,1,3.21-3.33l25-10.9a6,6,0,0,1,4.82,11.06Z"></path><path d="M354.66,137a22.75,22.75,0,0,0-17.54.32l-25,10.9a22.93,22.93,0,1,0,18.31,42l25-10.9a22.93,22.93,0,0,0-.76-42.36Zm-2.78,23.54a6,6,0,0,1-3.2,3.33l-25,10.9a6,6,0,1,1-4.81-11.06l25-10.9a6,6,0,0,1,2.41-.51,6.08,6.08,0,0,1,5.53,3.63A6,6,0,0,1,351.88,160.55Z"></path><path d="M394.9,209a22.69,22.69,0,0,0,9.12-1.91l25-10.9a22.93,22.93,0,1,0-18.31-42l-25,10.91A22.92,22.92,0,0,0,394.9,209Zm-2.44-28.45,25-10.91a6,6,0,0,1,4.82,11.06l-25,10.9a6,6,0,1,1-4.81-11.05Z"></path><path d="M31.1,163.37H235.39a8.45,8.45,0,0,0,8.45-8.45V118.28A34.29,34.29,0,0,0,209.58,84H56.91a34.29,34.29,0,0,0-34.26,34.26v36.64A8.45,8.45,0,0,0,31.1,163.37Zm8.45-45.09a17.38,17.38,0,0,1,17.36-17.37H209.58A17.39,17.39,0,0,1,227,118.28v28.19H203.64V134.1a8.45,8.45,0,1,0-16.89,0v12.37H164.22V134.1a8.45,8.45,0,1,0-16.89,0v12.37H119.84l.2-12.21a8.45,8.45,0,0,0-8.3-8.59h-.14a8.45,8.45,0,0,0-8.45,8.3l-.21,12.5H79.75V134.1a8.45,8.45,0,0,0-16.9,0v12.37H39.55Z"></path><path d="M64,434.28H202.51a41.38,41.38,0,0,0,41.33-41.34V255.68a53,53,0,0,0-13.05-34.86L219.62,208a36.18,36.18,0,0,1-8.9-23.77,8.45,8.45,0,1,0-16.89,0,53,53,0,0,0,13,34.86l11.17,12.83a36.18,36.18,0,0,1,8.9,23.77V392.94a24.47,24.47,0,0,1-24.44,24.44H64a24.46,24.46,0,0,1-24.43-24.44v-23.3h71a31.2,31.2,0,0,0,31.16-31.16V278.71a31.2,31.2,0,0,0-31.16-31.16H63.24a8.45,8.45,0,0,0,0,16.9h47.29a14.28,14.28,0,0,1,14.27,14.26v59.77a14.28,14.28,0,0,1-14.27,14.26h-71V255.68a36.23,36.23,0,0,1,8.89-23.77l11.17-12.83a53,53,0,0,0,13-34.86,8.45,8.45,0,1,0-16.89,0A36.18,36.18,0,0,1,46.87,208L35.7,220.82a53.09,53.09,0,0,0-13.05,34.86V392.94A41.38,41.38,0,0,0,64,434.28Z"></path></svg>