<svg height='100px' width='100px'  fill="#000000" xmlns="http://www.w3.org/2000/svg" xmlns:xlink="http://www.w3.org/1999/xlink" xml:space="preserve" version="1.1" style="shape-rendering:geometricPrecision;text-rendering:geometricPrecision;image-rendering:optimizeQuality;" viewBox="0 0 100 100" x="0px" y="0px" fill-rule="evenodd" clip-rule="evenodd"><defs><style type="text/css">
   
    .fil0 {fill:#000000}
   
  </style></defs><g><path class="fil0" d="M17.87 39.76c-8.02,-19.91 11.71,-19.69 26.36,-24.24 2.74,-0.86 23.13,-12.55 14.51,4.76 -0.32,0.64 -0.67,1.24 -1.05,1.79 13.31,-3.14 21.8,-8.93 14.85,6.3 11.13,9.93 25.16,18.87 14.85,37.41 1.1,0.15 1.98,1.04 2.08,2.18 0.12,1.32 -0.86,2.49 -2.19,2.61 -0.87,-0.07 -1.76,-0.19 -2.67,-0.36 -16.09,22.95 -46.53,25.33 -67.69,5.47 -11.49,-10.79 -10.67,-28.52 3.87,-33.44 0.17,-0.04 0.34,-0.07 0.51,-0.07 1.1,-0.04 2.11,0.69 2.4,1.79 0.33,1.28 -0.44,2.59 -1.72,2.92 -1.84,0.62 -3.16,1.19 -4.49,2.7 -14.71,16.69 13.31,32.19 28.16,34.28 12.77,1.79 26.93,-4.97 34.45,-14.8 -19.51,-6.33 -44.86,-30.24 -55.66,-42.95 -3.38,2.11 -4.76,5.43 -2.31,11.47 0.58,1.12 0.18,2.48 -0.88,3.13l-0.16 0.09c-1.17,0.6 -2.61,0.13 -3.22,-1.04zm54.9 6.17l-3.13 3.15 -5.82 5.87c6.67,4.64 13.25,8.36 18.81,9.99l0.1 0.03c1.5,-2.83 2.45,-5.82 2.69,-8.87 -4.23,-3.38 -8.44,-6.77 -12.65,-10.17zm-12.91 6.17l2.11 -2.11 7.04 -7.11c-3.13,-2.53 -6.25,-5.07 -9.37,-7.62 -0.98,-0.89 -1.06,-2.41 -0.17,-3.4 0.89,-0.98 2.41,-1.06 3.4,-0.17 7.27,5.94 14.58,11.84 21.9,17.72 -0.93,-3.35 -2.82,-6.69 -5.87,-9.88 -15.32,-16.02 -12.57,-3.56 -9.14,-15.64 -2.75,1.02 -4.4,1.57 -8.79,2.54 -21.29,4.72 -10.08,-2.14 -6.49,-9.73l-9.09 3.46c-5.67,1.78 -11.88,2.58 -16.64,4.08 1.32,1.42 2.95,3.12 4.83,4.99 6.65,6.63 16.39,15.52 26.28,22.87zm-23.46 15.91c5.26,-4.04 23.86,-6.26 28.21,-0.35 0.79,1.06 0.56,2.57 -0.5,3.36 -1.07,0.79 -2.58,0.57 -3.37,-0.5l-0.37 -0.51 0.13 0.06c-0.74,-0.39 -1.89,-0.66 -3.27,-0.84 -3.14,-0.39 -7.51,-0.25 -11.18,0.3 -2.74,0.42 -5.1,1.06 -6.24,1.89 -0.94,0.94 -2.47,0.94 -3.41,0 -0.94,-0.94 -0.94,-2.47 0,-3.41zm0.77 -14.82c1.16,0.79 1.66,1.62 1.63,2.82 0.03,0.12 0.05,0.24 0.06,0.36 0.12,1.31 -0.85,2.48 -2.17,2.59 -1.6,0.02 -2.69,-0.97 -2.73,-2.4 -0.46,-0.73 -0.52,-1.68 -0.06,-2.49 0.66,-1.14 2.12,-1.54 3.27,-0.88z"></path></g></svg>