<svg height='100px' width='100px'  fill="#000000" xmlns="http://www.w3.org/2000/svg" xmlns:xlink="http://www.w3.org/1999/xlink" version="1.1" x="0px" y="0px" viewBox="0 0 48 48" enable-background="new 0 0 48 48" xml:space="preserve"><g><path d="M24,48C10.767,48,0,37.233,0,24S10.767,0,24,0s24,10.767,24,24S37.233,48,24,48z M24,2C11.869,2,2,11.869,2,24   s9.869,22,22,22s22-9.869,22-22S36.131,2,24,2z"></path><path d="M21,14.322c-1.1,0-1.852-0.495-2.474-0.904C18.2,13.203,17.893,13,17.55,12.873c-1.267-0.475-2.25-0.336-3.736-0.125   c-0.297,0.042-0.607,0.086-0.934,0.126c-0.546,0.068-1.047-0.32-1.116-0.869s0.321-1.048,0.869-1.116   c0.315-0.04,0.614-0.082,0.901-0.122c1.596-0.225,2.975-0.419,4.716,0.232c0.553,0.206,0.99,0.494,1.375,0.748   c0.673,0.443,1.025,0.649,1.678,0.55c1.021-0.16,1.542-0.731,2.201-1.455c0.97-1.063,2.18-2.39,5.027-2.056   c0.549,0.063,0.941,0.56,0.878,1.108c-0.063,0.549-0.553,0.951-1.108,0.878c-1.828-0.208-2.456,0.471-3.318,1.417   c-0.737,0.809-1.655,1.815-3.371,2.083C21.396,14.307,21.192,14.322,21,14.322z"></path><path d="M36.961,34.89c-2.178,0-4.251-1.326-5.004-3.286c-0.374-0.971-0.462-1.762-0.532-2.397   c-0.127-1.139-0.165-1.482-1.947-2.127c-0.519-0.188-0.787-0.762-0.6-1.281c0.188-0.519,0.759-0.789,1.281-0.6   c2.746,0.994,3.07,2.146,3.253,3.787c0.064,0.575,0.131,1.17,0.412,1.9c0.494,1.287,2.106,2.176,3.572,1.975   c0.55-0.074,1.051,0.312,1.124,0.858c0.073,0.548-0.312,1.051-0.858,1.124C37.428,34.874,37.193,34.89,36.961,34.89z"></path><path d="M16.496,37.189c-0.184,0-0.37-0.051-0.537-0.156c-2.411-1.537-2.723-3.023-3.24-5.484l-0.102-0.5   c-0.581-2.894-1.116-4.048-2.944-3.693c-0.544,0.099-1.066-0.251-1.171-0.793c-0.104-0.543,0.25-1.067,0.793-1.172   c4.062-0.776,4.858,3.151,5.283,5.265l0.097,0.478c0.492,2.342,0.657,3.129,2.359,4.213c0.465,0.297,0.603,0.915,0.306,1.381   C17.15,37.026,16.827,37.189,16.496,37.189z"></path><circle cx="36.695" cy="16.341" r="1.618"></circle><circle cx="25.618" cy="39.407" r="1.618"></circle><circle cx="16.497" cy="20.547" r="1.618"></circle></g></svg>