<svg height='100px' width='100px'  fill="#000000" xmlns="http://www.w3.org/2000/svg" xmlns:xlink="http://www.w3.org/1999/xlink" version="1.1" x="0px" y="0px" viewBox="0 0 100 100" style="enable-background:new 0 0 100 100;" xml:space="preserve"><g><g><g><path d="M25.2,94.6c-5.4,0-9.1-0.7-9.5-0.8l-0.4-0.1L6.5,80c-2.1-3.2-4.2-6.5-5.4-10.3     c-1.4-4.5-1.5-9.8-0.3-16.2c0.7-3.7,1.7-7.3,2.7-10.8l8.7-30.9H13c0.2,0,5.8,0,13.3,1.6c0.6,0.1,1,0.7,0.8,1.3     c-0.1,0.6-0.7,1-1.3,0.8c-5.7-1.2-10.3-1.4-12.1-1.5L5.6,43.3c-1,3.5-2,7-2.7,10.6c-1.1,6-1,11,0.3,15.1c1.1,3.5,3.1,6.7,5.1,9.8     l8.3,12.9c2.7,0.5,17.6,2.5,30.4-4.3c-1.4-5-2.3-10.1-2.7-15.4c0-0.6,0.4-1.1,1-1.2c0.6,0,1.1,0.4,1.2,1     c0.4,5.4,1.3,10.7,2.9,15.8l0.2,0.8l-0.7,0.4C40.6,93.5,31.7,94.6,25.2,94.6z"></path></g><g><path d="M13.8,82.9c-0.2,0-0.4,0-0.5-0.1c-0.5-0.3-0.7-1-0.4-1.5c3.6-6.3,5.2-13.6,4.4-20.7     c-0.8-6.9-3.8-13.6-8.4-18.9c-0.4-0.4-0.4-1.1,0.1-1.5s1.1-0.4,1.5,0.1c5,5.6,8.2,12.7,9,20.1c0.8,7.5-0.8,15.4-4.7,22     C14.6,82.7,14.2,82.9,13.8,82.9z"></path></g><g><path d="M18.3,22.1c-0.1,0-0.1,0-0.2,0c-4.5-0.7-7.2-0.6-7.2-0.6c-0.6,0-1.1-0.4-1.1-1c0-0.6,0.4-1.1,1-1.1     c0.1,0,2.9-0.1,7.6,0.6c0.6,0.1,1,0.6,0.9,1.2C19.3,21.8,18.8,22.1,18.3,22.1z"></path></g></g><g><g><path d="M20.7,89.5C20.7,89.5,20.7,89.5,20.7,89.5c-1.5-0.1-2.3-0.2-2.3-0.2c-0.6-0.1-1-0.6-0.9-1.2     c0.1-0.6,0.6-1,1.2-0.9c0,0,0.8,0.1,2.1,0.2c0.6,0,1,0.6,1,1.2C21.7,89.1,21.3,89.5,20.7,89.5z"></path></g><g><path d="M25.1,89.6c-0.6,0-1.1-0.5-1.1-1.1c0-0.6,0.5-1.1,1.1-1.1c1.2,0,2.5,0,3.7-0.1c0.6,0,1.1,0.4,1.1,1     c0,0.6-0.4,1.1-1,1.1C27.6,89.6,26.4,89.6,25.1,89.6C25.1,89.6,25.1,89.6,25.1,89.6z M33.2,89.1c-0.5,0-1-0.4-1.1-0.9     C32,87.6,32.4,87,33,86.9c1.2-0.2,2.4-0.4,3.6-0.7c0.6-0.1,1.2,0.2,1.3,0.8c0.1,0.6-0.2,1.2-0.8,1.3c-1.2,0.3-2.5,0.5-3.8,0.7     C33.3,89.1,33.2,89.1,33.2,89.1z"></path></g><g><path d="M41.1,87.2c-0.4,0-0.9-0.3-1-0.7c-0.2-0.6,0.1-1.2,0.7-1.4c0.7-0.2,1.3-0.5,2-0.7c0.5-0.2,1.2,0,1.4,0.6     c0.2,0.6,0,1.2-0.6,1.4c-0.7,0.3-1.4,0.5-2.1,0.8C41.3,87.2,41.2,87.2,41.1,87.2z"></path></g></g><g><g><path d="M15.3,28.6c0,0-0.1,0-0.1,0c-0.7-0.1-1.4-0.2-2.1-0.2c-0.6-0.1-1-0.6-1-1.2c0.1-0.6,0.6-1,1.2-1     c0.7,0.1,1.5,0.2,2.2,0.3c0.6,0.1,1,0.6,0.9,1.2C16.3,28.2,15.8,28.6,15.3,28.6z"></path></g><g><path d="M22.2,29.8c-0.1,0-0.2,0-0.2,0c-0.7-0.2-1.4-0.3-2.1-0.4c-0.6-0.1-1-0.7-0.8-1.3c0.1-0.6,0.7-1,1.3-0.8     c0.7,0.1,1.4,0.3,2.1,0.5c0.6,0.1,0.9,0.7,0.8,1.3C23.2,29.5,22.7,29.8,22.2,29.8z"></path></g></g><g><path d="M77.2,81.8L61.7,77c-3.6-1.1-7.4-2.3-10.7-4.4C47,70,43.5,66,40.3,60.4c-1.8-3.2-3.4-6.7-4.9-10    L22.1,21.2l0.6-0.5c0.9-0.7,21.2-17.7,43.5-15L67,5.8l0.1,0.8c3.4,19.6,15.4,37.8,32.1,48.6l0.7,0.5l-0.3,0.8    c-5.9,16.1-21.4,24.7-22.1,25.1L77.2,81.8z M24.7,21.8l12.6,27.7c1.5,3.3,3,6.6,4.8,9.8c3,5.3,6.3,9,10,11.4    c3.1,2,6.7,3.1,10.2,4.2L77,79.4C79.4,78,92.1,70,97.4,56.5C80.8,45.5,68.9,27.3,65.2,7.8C46.2,5.9,28.3,19,24.7,21.8z"></path></g><g><path d="M68.4,74.5c-0.5,0-1-0.4-1.1-0.9c-1.3-7-4.8-13.6-9.9-18.4c-5-4.8-11.7-8-18.7-9c-0.6-0.1-1-0.6-0.9-1.2    c0.1-0.6,0.6-1,1.2-0.9c7.4,1.1,14.5,4.4,19.8,9.5c5.4,5.2,9.2,12.1,10.6,19.6c0.1,0.6-0.3,1.1-0.9,1.3    C68.5,74.5,68.5,74.5,68.4,74.5z"></path></g><g><path d="M26.7,29.7c-0.3,0-0.6-0.1-0.8-0.4c-0.4-0.4-0.4-1.1,0.1-1.5c0.6-0.6,15.2-13.6,41.6-15.5    c0.6,0,1.1,0.4,1.2,1c0,0.6-0.4,1.1-1,1.2c-25.6,1.8-40.2,14.8-40.3,14.9C27.2,29.6,26.9,29.7,26.7,29.7z"></path></g><g><g><path d="M76.2,76.5c-0.4,0-0.7-0.2-0.9-0.5c-0.3-0.5-0.2-1.2,0.3-1.5c0,0,0.7-0.4,1.7-1.2     c0.5-0.4,1.2-0.2,1.5,0.2c0.3,0.5,0.2,1.2-0.2,1.5c-1.1,0.8-1.8,1.2-1.8,1.3C76.6,76.5,76.4,76.5,76.2,76.5z"></path></g><g><path d="M81.4,72.6c-0.3,0-0.6-0.1-0.8-0.4c-0.4-0.5-0.3-1.1,0.1-1.5c0.9-0.8,1.9-1.6,2.7-2.5     c0.4-0.4,1.1-0.4,1.5,0c0.4,0.4,0.4,1.1,0,1.5c-0.9,0.9-1.9,1.7-2.8,2.6C81.9,72.5,81.7,72.6,81.4,72.6z M87.2,66.9     c-0.3,0-0.5-0.1-0.7-0.3c-0.4-0.4-0.5-1.1-0.1-1.5c0.8-0.9,1.6-1.9,2.3-2.8c0.4-0.5,1-0.6,1.5-0.2c0.5,0.4,0.6,1,0.2,1.5     c-0.7,1-1.6,2-2.4,3C87.8,66.8,87.5,66.9,87.2,66.9z"></path></g><g><path d="M92,60.4c-0.2,0-0.4,0-0.6-0.2c-0.5-0.3-0.7-1-0.4-1.5c0.4-0.6,0.7-1.2,1-1.8c0.3-0.5,0.9-0.7,1.5-0.5     s0.7,0.9,0.5,1.5c-0.3,0.6-0.7,1.3-1.1,1.9C92.8,60.2,92.4,60.4,92,60.4z"></path></g></g><g><g><path d="M32.7,33.4c-0.3,0-0.7-0.2-0.9-0.5c-0.3-0.5-0.2-1.2,0.3-1.5c0.6-0.4,1.2-0.8,1.8-1.2     c0.5-0.3,1.2-0.2,1.5,0.3c0.3,0.5,0.2,1.2-0.3,1.5c-0.6,0.4-1.2,0.8-1.8,1.2C33.2,33.4,32.9,33.4,32.7,33.4z"></path></g><g><path d="M38.5,29.8c-0.4,0-0.7-0.2-0.9-0.6c-0.3-0.5-0.1-1.2,0.4-1.5c1.2-0.7,2.4-1.3,3.6-1.9     c0.5-0.3,1.2,0,1.4,0.5c0.3,0.5,0,1.2-0.5,1.4c-1.2,0.6-2.4,1.2-3.5,1.8C38.9,29.8,38.7,29.8,38.5,29.8z M46.4,26     c-0.4,0-0.8-0.3-1-0.7c-0.2-0.6,0-1.2,0.6-1.4c1.3-0.5,2.5-1,3.8-1.5c0.6-0.2,1.2,0.1,1.4,0.7c0.2,0.6-0.1,1.2-0.7,1.4     C49.2,25,48,25.5,46.8,26C46.6,26,46.5,26,46.4,26z M54.6,23.2c-0.5,0-0.9-0.3-1-0.8c-0.2-0.6,0.2-1.2,0.7-1.3     c1.3-0.4,2.6-0.7,3.9-1c0.6-0.1,1.2,0.2,1.3,0.8c0.1,0.6-0.2,1.2-0.8,1.3c-1.3,0.3-2.6,0.6-3.8,1C54.8,23.2,54.7,23.2,54.6,23.2z     "></path></g><g><path d="M63.1,21.3c-0.5,0-1-0.4-1.1-0.9c-0.1-0.6,0.3-1.1,0.9-1.2c0.7-0.1,1.4-0.2,2.2-0.3     c0.6-0.1,1.1,0.3,1.2,0.9c0.1,0.6-0.3,1.1-0.9,1.2c-0.7,0.1-1.4,0.2-2.1,0.3C63.2,21.3,63.1,21.3,63.1,21.3z"></path></g></g></g></svg>