<svg height='100px' width='100px'  fill="#000000" xmlns="http://www.w3.org/2000/svg" xmlns:xlink="http://www.w3.org/1999/xlink" version="1.1" x="0px" y="0px" viewBox="0 0 64 64" enable-background="new 0 0 64 64" xml:space="preserve"><path d="M18.131,23.775c-0.235,0-0.472-0.083-0.662-0.25l-6.061-5.356c-0.414-0.366-0.453-0.998-0.087-1.412  c0.366-0.413,0.998-0.453,1.412-0.087l6.061,5.356c0.414,0.366,0.453,0.998,0.087,1.412C18.684,23.661,18.408,23.775,18.131,23.775z  "></path><path d="M24.823,19.023c-0.482,0-0.906-0.349-0.986-0.839l-1.323-8.126c-0.089-0.545,0.281-1.059,0.826-1.147  c0.545-0.093,1.059,0.281,1.147,0.826l1.323,8.126c0.089,0.545-0.281,1.059-0.826,1.147C24.931,19.019,24.876,19.023,24.823,19.023z  "></path><path d="M14.241,31.001c-0.013,0-0.025,0-0.039,0l-8.227-0.313c-0.552-0.021-0.982-0.485-0.961-1.038  c0.021-0.552,0.467-0.987,1.038-0.961l8.227,0.313c0.552,0.021,0.982,0.485,0.961,1.038C15.219,30.578,14.776,31.001,14.241,31.001z  "></path><path d="M16.288,40.239c-0.142,0-0.286-0.03-0.422-0.094c-0.5-0.233-0.717-0.828-0.483-1.329l4.813-10.322  c0.233-0.501,0.829-0.718,1.329-0.484c0.5,0.233,0.717,0.828,0.483,1.329l-4.813,10.323C17.025,40.025,16.665,40.239,16.288,40.239z  "></path><path d="M27.015,24.526c-0.346,0-0.682-0.179-0.867-0.5c-0.276-0.479-0.112-1.09,0.366-1.366l11.577-6.684  c0.478-0.277,1.09-0.113,1.366,0.366c0.276,0.479,0.112,1.09-0.366,1.366l-11.577,6.684C27.357,24.483,27.185,24.526,27.015,24.526z  "></path><path d="M31.642,35.711c-0.346,0-0.682-0.179-0.867-0.5c-0.276-0.478-0.112-1.09,0.366-1.366l12.951-7.478  c0.477-0.277,1.089-0.112,1.366,0.366c0.276,0.478,0.112,1.09-0.366,1.366l-12.951,7.478C31.983,35.668,31.811,35.711,31.642,35.711  z"></path><path d="M27.164,45.311c-0.142,0-0.286-0.03-0.422-0.094c-0.5-0.233-0.717-0.828-0.483-1.329l4.476-9.599  c0.233-0.501,0.828-0.718,1.329-0.483c0.5,0.233,0.717,0.828,0.483,1.329l-4.476,9.599C27.901,45.097,27.541,45.311,27.164,45.311z"></path><path d="M38.592,17.842c-0.342,0-0.674-0.175-0.861-0.49c-1.528-2.579-1.477-5.803,0.135-8.415c1.616-2.618,4.47-4.119,7.47-3.904  c2.728,0.191,5.166,1.767,6.522,4.215c1.358,2.452,1.402,5.357,0.117,7.774c-0.259,0.488-0.863,0.673-1.353,0.413  c-0.487-0.259-0.672-0.865-0.413-1.353c0.966-1.816,0.928-4.008-0.101-5.865c-1.027-1.854-2.863-3.046-4.912-3.189  c-2.277-0.16-4.385,0.946-5.628,2.959c-1.238,2.006-1.282,4.378-0.117,6.345c0.282,0.475,0.125,1.088-0.351,1.37  C38.941,17.797,38.766,17.842,38.592,17.842z"></path><path d="M50.871,31.833c-0.129,0-0.259-0.003-0.39-0.009c-2.863-0.129-5.391-1.663-6.761-4.101c-0.271-0.481-0.1-1.091,0.381-1.362  c0.483-0.271,1.091-0.1,1.362,0.381c1.03,1.833,2.94,2.985,5.108,3.083c2.168,0.097,4.165-0.876,5.354-2.604  c1.27-1.847,1.406-4.184,0.364-6.252c-1.04-2.063-2.995-3.34-5.232-3.418c-0.552-0.02-0.984-0.482-0.965-1.034  c0.02-0.552,0.493-0.975,1.034-0.965c2.978,0.104,5.576,1.792,6.948,4.517c1.376,2.731,1.188,5.829-0.502,8.286  C56.062,30.552,53.578,31.833,50.871,31.833z"></path><path d="M24.312,58.987c-1.136,0-2.285-0.24-3.382-0.725c-2.678-1.186-4.484-3.586-4.833-6.423  c-0.067-0.548,0.323-1.047,0.871-1.115c0.545-0.062,1.047,0.323,1.115,0.871c0.262,2.132,1.628,3.94,3.657,4.838  c2.022,0.896,4.276,0.692,6.025-0.544c1.793-1.267,2.735-3.371,2.52-5.628c-0.215-2.251-1.535-4.135-3.532-5.039  c-0.503-0.228-0.727-0.82-0.499-1.323c0.228-0.503,0.82-0.727,1.323-0.499c2.659,1.203,4.415,3.697,4.699,6.671  c0.284,2.98-0.97,5.766-3.356,7.452C27.545,58.492,25.943,58.987,24.312,58.987z"></path><path d="M13.286,53.839c-1.388,0-2.788-0.356-4.063-1.073c-2.683-1.507-4.295-4.306-4.208-7.304  c0.079-2.733,1.554-5.233,3.944-6.689c2.394-1.458,5.296-1.621,7.762-0.436c0.498,0.239,0.708,0.836,0.469,1.334  c-0.239,0.498-0.838,0.707-1.334,0.468c-1.854-0.89-4.044-0.762-5.857,0.342c-1.81,1.102-2.925,2.986-2.985,5.039  c-0.066,2.287,1.125,4.344,3.188,5.502c2.056,1.155,4.427,1.101,6.343-0.145c0.464-0.301,1.083-0.169,1.383,0.293  c0.301,0.463,0.169,1.083-0.293,1.383C16.32,53.41,14.81,53.839,13.286,53.839z"></path></svg>