<svg height='100px' width='100px'  fill="#000000" xmlns="http://www.w3.org/2000/svg" xmlns:xlink="http://www.w3.org/1999/xlink" version="1.1" x="0px" y="0px" viewBox="0 0 56 56" style="enable-background:new 0 0 56 56;" xml:space="preserve"><path d="M3.6179199,52.9228516C3.7401123,52.9733887,3.869812,53,4,53h48c0.130188,0,0.2598877-0.0265503,0.3820801-0.0770874  c0.244751-0.1013794,0.4395752-0.2962646,0.5408936-0.5410156C52.9735107,52.2597656,53,52.130127,53,52V16.090332  c0-0.0525513-0.0220947-0.0978394-0.0299072-0.1481934c-0.010376-0.0669556-0.015625-0.1328125-0.0397339-0.1971436  c-0.0302124-0.0813599-0.078125-0.1499023-0.1273193-0.2196655c-0.0211182-0.0299072-0.0291748-0.0651245-0.0540161-0.0932007  c-0.005188-0.0057983-0.0126343-0.0078125-0.0178833-0.0134888c-0.069519-0.0757446-0.1539917-0.1323242-0.2438965-0.1837769  c-0.0232544-0.0131226-0.0422363-0.0335083-0.0662231-0.0446777c-0.0829468-0.0389404-0.1749268-0.0540771-0.2684326-0.0690308  c-0.0366211-0.0056763-0.0707397-0.0201416-0.1077271-0.0217896C52.0291138,15.0986328,52.0159302,15.090332,52,15.090332h-5.684082  l6.0131836-6.0131836c0.8925781-0.8930664,0.8925781-2.3466797,0-3.2402344L50.1630859,3.671875  c-0.8652344-0.8662109-2.375-0.8657227-3.2402344-0.0004883L35.50354,15.090332H4  c-0.0159912,0-0.0292969,0.0083618-0.045105,0.0090942c-0.034729,0.0015869-0.0668335,0.0152588-0.1012573,0.0204468  c-0.0960693,0.0147095-0.1901855,0.0307617-0.2752075,0.0708008c-0.0211792,0.0098877-0.0379639,0.0280151-0.0585327,0.0394287  c-0.0928955,0.052124-0.1795654,0.1107178-0.2510986,0.1885986c-0.005249,0.0056152-0.0126343,0.0076294-0.0178223,0.0134277  c-0.0249023,0.0281372-0.03302,0.0634766-0.0541992,0.0935059c-0.0491333,0.0696411-0.0968628,0.1380005-0.1270752,0.2192383  c-0.024231,0.0644531-0.02948,0.1304321-0.039856,0.1975708C3.0220947,15.9927368,3,16.0379028,3,16.090332V52  c0,0.130188,0.0265503,0.2598267,0.0770874,0.382019C3.1784058,52.6266479,3.37323,52.8215332,3.6179199,52.9228516z M6.4140015,51  l16.6704712-16.6708984l2.3911133,2.1171875C26.1953125,37.0830078,27.0976562,37.4013672,28,37.4013672  s1.8046875-0.3183594,2.5244141-0.9555664l2.3908691-2.1169434L49.5859985,51H6.4140015z M51,49.5858765l-16.5847168-16.585144  L51,18.3162842V49.5858765z M48.3369141,5.0849609c0.140625-0.140625,0.2714844-0.1411133,0.4121094,0.0004883l2.1660156,2.1650391  c0.1132812,0.1142578,0.1132812,0.2993164,0,0.4130859l-2.3572388,2.3571167l-2.5782471-2.5782471L48.3369141,5.0849609z   M36.619812,16.8023682c0.0042725-0.0041504,0.0081787-0.0079956,0.0123291-0.0122681l7.9333496-7.9335938l2.5782471,2.5782471  l-3.944397,3.9442749c-0.00354,0.00354-0.006897,0.006897-0.010437,0.010437l-8.1547241,8.15448l-2.5778809-2.5778809  L36.619812,16.8023682z M32.9627075,24.3005981l-1.5261841,0.2633667l0.2631836-1.5263672L32.9627075,24.3005981z   M33.50354,17.090332l-3.1685791,3.168457c-0.0862427,0.0859375-0.1488647,0.1888428-0.1981812,0.2983398  c-0.0160522,0.0355835-0.0245972,0.0712891-0.0362549,0.1080933c-0.0140381,0.0439453-0.0359497,0.0848389-0.0438843,0.1306763  l-0.8320312,4.824707c-0.0556641,0.3203125,0.0488281,0.6474609,0.2783203,0.8769531  c0.1894531,0.1894531,0.4443359,0.2929688,0.7070312,0.2929688c0.0566406,0,0.1132812-0.0048828,0.1699219-0.0146484  l4.8242188-0.8325195c0.0455322-0.0078735,0.0863647-0.0297852,0.130127-0.0437622  c0.0371704-0.0117188,0.0731812-0.0204468,0.1090698-0.0366821c0.109436-0.0493774,0.2124023-0.1120605,0.2979126-0.197876  l8.574707-8.574707h5.0516357L29.1982422,34.9482422c-0.6835938,0.6054688-1.7128906,0.6049805-2.3964844,0.0004883  L6.6323853,17.090332H33.50354z M5,18.3163452l16.5845337,14.6846313L5,49.5858765V18.3163452z"></path></svg>