<svg height='100px' width='100px'  fill="#000000" xmlns="http://www.w3.org/2000/svg" xmlns:xlink="http://www.w3.org/1999/xlink" xml:space="preserve" version="1.1" style="shape-rendering:geometricPrecision;text-rendering:geometricPrecision;image-rendering:optimizeQuality;" viewBox="0 0 846.66 846.66" x="0px" y="0px" fill-rule="evenodd" clip-rule="evenodd"><defs><style type="text/css">
   
    .fil0 {fill:#000000;fill-rule:nonzero}
   
  </style></defs><g><path class="fil0" d="M633.86 522.14l-104.49 -69.84 -234.22 -323.59 13.28 -13.27c29.36,-29.37 -15.22,-75.87 -45.54,-45.54l-193.08 193.07c-29.93,29.94 15.61,75.48 45.54,45.54l13.28 -13.28 323.58 234.23 69.85 104.49 37.05 3.05 77.8 -77.8 -3.05 -37.06zm-145.74 140.27l-65.1 -99.68 -291.68 -211.13c-76.68,44.97 -155.78,-56.91 -92.79,-119.89l193.07 -193.08c63.78,-63.78 164.09,17.26 119.88,92.77l211.15 291.7 99.68 65.11 42.1 3.47 67.63 -67.63 -142.8 -182.62 -107.05 107.04 -21 -29.02 106.1 -106.1 -23.71 -30.31 -105.07 105.08 -26.25 -36.28 135.36 -135.37 243.34 311.19 -109.67 109.67 -42.23 -3.48 3.48 42.22 -106.57 106.57 -42.23 -3.47 3.49 42.22 -109.67 109.67 -311.18 -243.34 135.36 -135.36 36.27 26.26 -105.07 105.06 30.31 23.71 106.09 -106.09 29.02 21 -107.03 107.04 182.61 142.81 67.63 -67.63 -3.47 -42.11zm-189.03 -257.38l105.85 -105.85 26.26 36.27 -95.84 95.83 -36.27 -26.25zm67.61 48.93l87.18 -87.18 21.01 29.02 -79.18 79.17 -29.01 -21.01z"></path></g></svg>