<svg height='100px' width='100px'  fill="#000000" xmlns="http://www.w3.org/2000/svg" xmlns:xlink="http://www.w3.org/1999/xlink" version="1.1" x="0px" y="0px" viewBox="0 0 128 128" style="enable-background:new 0 0 128 128;" xml:space="preserve"><g><path d="M106,68.4c0-2.2-1.8-4-4-4s-4,1.8-4,4c0,18.7-15.2,33.9-33.9,33.9c-18.7,0-33.9-15.2-33.9-33.9c0-2.2-1.8-4-4-4s-4,1.8-4,4   c0,21.5,16.3,39.5,37.5,41.7v7.8H45.1c-2.2,0-4,1.8-4,4c0,2.2,1.8,4,4,4h36.8c2.2,0,4-1.8,4-4c0-2.2-1.8-4-4-4H67.6v-7.8   C89.2,108.3,106,90.3,106,68.4z"></path><path d="M53.2,36.1H75c1.8,0,3.3-1.5,3.3-3.3c0-1.8-1.5-3.3-3.3-3.3H53.2c-1.8,0-3.3,1.5-3.3,3.3C49.9,34.6,51.4,36.1,53.2,36.1z"></path><path d="M53.2,52.3H75c1.8,0,3.3-1.5,3.3-3.3c0-1.8-1.5-3.3-3.3-3.3H53.2c-1.8,0-3.3,1.5-3.3,3.3C49.9,50.8,51.4,52.3,53.2,52.3z"></path><path d="M53.2,68.4H75c1.8,0,3.3-1.5,3.3-3.3c0-1.8-1.5-3.3-3.3-3.3H53.2c-1.8,0-3.3,1.5-3.3,3.3C49.9,66.9,51.4,68.4,53.2,68.4z"></path><path d="M63.6,95.9h1.1c15.8,0,28.7-12.9,28.7-28.7V30.7C93.4,14.9,80.5,2,64.7,2h-1.1c-15.3,0-27.9,12-28.7,27.3v0.3   c0,0.1,0,0.1,0,0.2v37.3C34.8,83,47.8,95.9,63.6,95.9z M41.5,29.5C42.2,17.8,51.8,8.6,63.6,8.6h1.1c12.2,0,22.1,9.9,22.1,22.1v36.4   c0,12.2-9.9,22.1-22.1,22.1h-1.1c-12.2,0-22.1-9.9-22.1-22.1V29.5z"></path></g></svg>