<svg height='100px' width='100px'  fill="#000000" xmlns="http://www.w3.org/2000/svg" xmlns:xlink="http://www.w3.org/1999/xlink" version="1.1" x="0px" y="0px" viewBox="0 0 60 60" style="enable-background:new 0 0 60 60;" xml:space="preserve"><path d="M40.5856323,16.3502808c-0.0079956-0.0969849-0.0306396-0.1883545-0.0717163-0.276123  c-0.0170288-0.0365601-0.0354004-0.0682373-0.0576172-0.1018677c-0.0490723-0.0747681-0.111145-0.1370239-0.1844482-0.1932373  c-0.0217896-0.0167847-0.0321655-0.0437622-0.0558472-0.0584717c-0.0098267-0.0061035-0.0220337-0.0043335-0.0320435-0.0099487  c-0.0126343-0.0071411-0.0202026-0.0194092-0.0333252-0.0259399l-9.7866821-4.8773804  c-0.2293701-0.1146851-0.4985352-0.1146851-0.7279053,0l-9.7866821,4.8773804  c-0.0131836,0.0065308-0.020752,0.0188599-0.0333862,0.026001c-0.0100098,0.0056152-0.0221558,0.0037842-0.0319824,0.0098877  c-0.0236816,0.0147095-0.0340576,0.041687-0.0558472,0.0584717c-0.0733032,0.0562134-0.1353149,0.1184082-0.1843872,0.1931763  c-0.0223389,0.0336914-0.0406494,0.0654297-0.0577393,0.1020508c-0.0409546,0.0876465-0.0635986,0.1789551-0.0715942,0.2758179  c-0.0018921,0.022522-0.0166626,0.0413208-0.0166626,0.0641479v10.6816406l-9.335144,4.6530762  c-0.0131226,0.0065308-0.0206299,0.0187378-0.0332031,0.0258789c-0.0100098,0.0056763-0.0222778,0.0038452-0.0321045,0.0099487  c-0.0236816,0.0147095-0.0340576,0.041748-0.0558472,0.0585327c-0.0734253,0.0562744-0.135498,0.1185913-0.1846313,0.1934204  c-0.0221558,0.0334473-0.0404053,0.0649414-0.057373,0.1013184c-0.0413208,0.0882568-0.0641479,0.1801147-0.0720825,0.27771  c-0.00177,0.0220337-0.0162964,0.0404053-0.0162964,0.0627441v11.1063843c0,0.309021,0.1748047,0.5917969,0.4515381,0.7295532  l9.7867432,4.8782349c0.0110474,0.0054932,0.0238037,0.0032959,0.0350342,0.0083008  c0.1051636,0.0467529,0.2156372,0.0776978,0.3289185,0.0776978s0.2237549-0.0310059,0.3288574-0.0776978  c0.0112305-0.0050049,0.0239868-0.0027466,0.0350952-0.0083008L30,44.4958496l9.4227295,4.6968384  c0.0111084,0.0055542,0.0238647,0.0032959,0.0350952,0.0083008c0.1051025,0.0466919,0.2155762,0.0776978,0.3288574,0.0776978  s0.2237549-0.0310059,0.3289795-0.0777588c0.0112305-0.0050049,0.0239258-0.0027466,0.0349731-0.0082397l9.7867432-4.8782349  c0.2767334-0.1377563,0.4515381-0.4205322,0.4515381-0.7295532V32.4785156c0-0.0223389-0.0145264-0.0407104-0.0162964-0.0627441  c-0.0079346-0.0975952-0.0307617-0.1894531-0.0720825-0.27771c-0.0169678-0.036377-0.0352173-0.0678711-0.057373-0.1013184  c-0.0491333-0.0748291-0.1112061-0.137146-0.1846313-0.1934204c-0.0217896-0.0167847-0.0321655-0.0438232-0.0558472-0.0585327  c-0.0098267-0.0061035-0.0220947-0.0042725-0.0321045-0.0099487c-0.0125732-0.0071411-0.0200806-0.0193481-0.0332031-0.0258789  l-9.335144-4.6530762V16.4142456C40.6022339,16.3914795,40.5875244,16.3727417,40.5856323,16.3502808z M19.3977661,47.1450195  l-8.1555786-4.0650635v-9.2833252l8.1555786,4.0650635V47.1450195z M20.2133179,36.4458008l-7.9591064-3.9672852  l7.9591064-3.9671021l7.9591064,3.9671021L20.2133179,36.4458008z M29.1844482,43.0799561l-8.1555786,4.0650635v-9.2833252  l8.1555786-4.0650635V43.0799561z M29.1844482,31.081543l-8.1555786-4.0650635v-9.2841187l8.1555786,4.0658569V31.081543z   M22.0409546,16.4143677L30,12.447998l7.9590454,3.9663696L30,20.3822632L22.0409546,16.4143677z M38.9711304,17.7323608v9.2841187  l-8.1555786,4.0650635v-9.2833252L38.9711304,17.7323608z M38.9711304,47.1450195l-8.1555786-4.0650635v-9.2833252  l8.1555786,4.0650635V47.1450195z M48.7578125,43.0799561l-8.1555786,4.0650635v-9.2833252l8.1555786-4.0650635V43.0799561z   M47.7457886,32.4785156l-7.9591064,3.9672852l-7.9591064-3.9672852l7.9591064-3.9671021L47.7457886,32.4785156z"></path></svg>