<svg height='100px' width='100px'  fill="#000000" xmlns="http://www.w3.org/2000/svg" viewBox="0 0 64 64" x="0px" y="0px"><title>School</title><g data-name="25. Science"><path d="M55.80371,7.01908C54.7832,7.22319,30.71045,12.111,22.82227,19.99881a16.633,16.633,0,0,0-3.00031,4.1161l-6.95721.53535a.9996.9996,0,0,0-.82959.57423L7.57227,34.78716a2.61633,2.61633,0,0,0,2.3706,3.72175c.062,0,.124-.002.18652-.00684A2.60982,2.60982,0,0,0,12.03516,37.462l2.7832-3.709,3.76086.34187a15.62448,15.62448,0,0,0,4.24305,7.08307,15.57933,15.57933,0,0,0,7.08178,4.226l.34351,3.779-3.71,2.78227a2.61613,2.61613,0,0,0,2.67578,4.463l9.5625-4.463a.99983.99983,0,0,0,.57422-.82911l.53552-6.96454A16.61659,16.61659,0,0,0,44.001,41.1779c7.88818-7.88784,12.77539-31.96151,12.97949-32.982a1,1,0,0,0-1.17676-1.17678ZM24.23633,39.76381c-7.24268-7.24329-3.40772-14.94265,0-18.35091,2.56537-2.56524,7.11658-4.82962,11.99383-6.69989A24.07737,24.07737,0,0,1,43.999,20.00076a24.2266,24.2266,0,0,1,5.28766,7.77144c-1.86987,4.87588-4.134,9.42583-6.69977,11.99161C39.1792,43.17208,31.479,47.00515,24.23633,39.76381Zm3.43506,14.72976a.61632.61632,0,0,1,.0664-.92873L31.894,50.4476a1.0005,1.0005,0,0,0,.396-.89064L31.94763,45.789q.65735.06527,1.30823.06476a14.02307,14.02307,0,0,0,4.55426-.77913l-.40924,5.32511-9.0332,4.21589A.616.616,0,0,1,27.67139,54.49357ZM13.55322,32.10645l-3.11816,4.15632a.616.616,0,0,1-.92774.06543.61788.61788,0,0,1-.12255-.69532l4.21582-9.03337,5.337-.41047a13.79811,13.79811,0,0,0-.70776,5.86553L14.44336,31.71A.98911.98911,0,0,0,13.55322,32.10645ZM50.257,25.11822A27.70174,27.70174,0,0,0,38.88208,13.74345,149.04839,149.04839,0,0,1,54.69727,9.30233,148.97071,148.97071,0,0,1,50.257,25.11822Z"></path><path d="M21.74756,50.66635a5.75628,5.75628,0,0,0,1.38769-4.59188A6.43561,6.43561,0,0,0,21.707,42.29315c-1.394-1.39358-5.97314-2.376-8.373-.041C8.1709,46.426,7.05225,55.49847,7.00684,55.88422A1.00013,1.00013,0,0,0,8,57.00045a.93954.93954,0,0,0,.1167-.00684C8.502,56.94869,17.57373,55.82953,21.74756,50.66635ZM9.2124,54.78752c.49414-2.57426,1.936-8.22476,5.41211-11.00606a.99309.99309,0,0,0,.08252-.07422,3.5138,3.5138,0,0,1,2.52051-.86134,5.2293,5.2293,0,0,1,3.06543.86134,4.72245,4.72245,0,0,1,.84961,2.53325,3.93907,3.93907,0,0,1-.84961,3.05279c-.02588.02637-.05078.05371-.07373.082C17.44385,52.8451,11.78711,54.29044,9.2124,54.78752Z"></path><path d="M34,21.99982A8.00015,8.00015,0,1,0,42,30,8.00924,8.00924,0,0,0,34,21.99982Zm0,14.00025A6.00011,6.00011,0,1,1,40,30,6.00661,6.00661,0,0,1,34,36.00007Z"></path><path d="M37.53564,26.46474a.9999.9999,0,1,0-1.41406,1.41409,3.00018,3.00018,0,0,1,0,4.24227.9999.9999,0,1,0,1.41406,1.41408,4.9995,4.9995,0,0,0,0-7.07044Z"></path></g></svg>