<svg height='100px' width='100px'  fill="#000000" xmlns="http://www.w3.org/2000/svg" data-name="Layer 1" viewBox="0 0 100 100" x="0px" y="0px"><defs><style>.cls-1{stroke:#000000;stroke-miterlimit:10;stroke-width:0.01px;}</style></defs><title>collections_09</title><path class="cls-1" d="M90,53,84.12,75.1a2,2,0,1,1-3.86-1L86.18,52a19.41,19.41,0,0,0,.64-7.17,37.06,37.06,0,0,0-73.65,0A19.41,19.41,0,0,0,13.82,52l5.92,22.09a2,2,0,1,1-3.86,1L10,53a23.38,23.38,0,0,1-.76-8.65,41.06,41.06,0,0,1,81.61,0A23.38,23.38,0,0,1,90,53ZM44.8,80.61A9.25,9.25,0,0,1,38,91.81a9.34,9.34,0,0,1-2.25.28,9.26,9.26,0,0,1-9-7L20.87,61a9.25,9.25,0,1,1,18-4.46Zm-3.88,1-6-24.07A5.25,5.25,0,0,0,24.75,60l6,24.07a5.25,5.25,0,0,0,6.36,3.83h0a5.25,5.25,0,0,0,3.83-6.36ZM79.13,61l-6,24.07a9.26,9.26,0,0,1-9,7A9.34,9.34,0,0,1,62,91.81,9.25,9.25,0,0,1,55.2,80.61l6-24.07a9.25,9.25,0,1,1,18,4.46Zm-7.71-7.32a5.25,5.25,0,0,0-6.36,3.83l-6,24.07a5.25,5.25,0,0,0,3.83,6.36h0a5.25,5.25,0,0,0,6.36-3.83l6-24.07A5.26,5.26,0,0,0,71.42,53.67Z"></path></svg>