<svg height='100px' width='100px'  fill="#000000" xmlns="http://www.w3.org/2000/svg" xmlns:xlink="http://www.w3.org/1999/xlink" version="1.1" x="0px" y="0px" viewBox="0 0 69 69" style="enable-background:new 0 0 69 69;" xml:space="preserve"><g><path d="M25.08386,19.49841c0.3692,0,0.68567-0.02081,0.9494-0.06342l1.72485,2.0567   c0.27677,0.34227,0.72312,0.31998,0.99664,0.04828c0.27731-0.27965,0.23754-0.69578,0-0.93378l-1.39233-1.5354   c2.13267-0.88659,3.2348-2.91228,3.27521-5.25244c-0.0631-3.25095-2.14384-5.68103-5.55377-5.68103   c-3.28518,0-5.48923,2.26206-5.55347,5.68103C19.59453,17.229,21.78941,19.49841,25.08386,19.49841z M25.08386,9.4826   c2.52949,0,4.11389,1.81657,4.11389,4.33575c0,2.52847-1.59316,4.33478-4.11389,4.33478c-2.5662,0-4.11383-1.85131-4.11383-4.33478   C20.97003,11.3489,22.50423,9.4826,25.08386,9.4826z"></path><path d="M26.08081,43.55292c-0.37435-0.84067-1.57906-0.9336-1.99359,0l-4.03461,9.52527   c-0.14226,0.34042-0.07502,0.6221,0.11847,0.82257c0.3138,0.32674,0.95689,0.2794,1.19464-0.237l1.02856-2.46869h5.3797   l1.02832,2.46869c0.12547,0.27147,0.38078,0.44275,0.68048,0.44275c0.50123,0,0.86996-0.45839,0.63287-1.02832L26.08081,43.55292z    M22.94794,49.88196l2.13617-5.14221l2.13593,5.14221H22.94794z"></path><path d="M38.8208,17.51709h15.79688c0.55273,0,1-0.44775,1-1s-0.44727-1-1-1H38.8208c-0.55273,0-1,0.44775-1,1   S38.26807,17.51709,38.8208,17.51709z"></path><path d="M38.8208,22.34961h11.15137c0.55273,0,1-0.44775,1-1s-0.44727-1-1-1H38.8208c-0.55273,0-1,0.44775-1,1   S38.26807,22.34961,38.8208,22.34961z"></path><path d="M38.8208,27.18164h15.79688c0.55273,0,1-0.44775,1-1s-0.44727-1-1-1H38.8208c-0.55273,0-1,0.44775-1,1   S38.26807,27.18164,38.8208,27.18164z"></path><path d="M11.33447,11.67236h0.2002c0.55273,0,1-0.44775,1-1s-0.44727-1-1-1h-0.2002c-1.73145,0-3.13965,1.4043-3.13965,3.12988v17   c0,1.72559,1.4082,3.12988,3.13965,3.12988h46.33008c1.73145,0,3.14063-1.4043,3.14063-3.12988v-17   c0-1.72559-1.40918-3.12988-3.14063-3.12988h-19.0293c-0.55273,0-1,0.44775-1,1s0.44727,1,1,1h19.0293   c0.62891,0,1.14063,0.50684,1.14063,1.12988v17c0,0.62305-0.51172,1.12988-1.14063,1.12988H11.33447   c-0.62793,0-1.13965-0.50684-1.13965-1.12988v-17C10.19482,12.1792,10.70654,11.67236,11.33447,11.67236z"></path><path d="M8.19482,63.3623c0,1.73145,1.4082,3.14014,3.13965,3.14014h46.33008c1.73145,0,3.14063-1.40869,3.14063-3.14014V46.37207   c0-1.73145-1.40918-3.13965-3.14063-3.13965h-19.0293c-0.55273,0-1,0.44775-1,1s0.44727,1,1,1h19.0293   c0.62891,0,1.14063,0.51123,1.14063,1.13965V63.3623c0,0.62891-0.51172,1.14014-1.14063,1.14014H11.33447   c-0.62793,0-1.13965-0.51123-1.13965-1.14014V46.37207c0-0.62842,0.51172-1.13965,1.13965-1.13965h0.2002c0.55273,0,1-0.44775,1-1   s-0.44727-1-1-1h-0.2002c-1.73145,0-3.13965,1.4082-3.13965,3.13965V63.3623z"></path><path d="M38.8208,51.0332h15.79688c0.55273,0,1-0.44775,1-1s-0.44727-1-1-1H38.8208c-0.55273,0-1,0.44775-1,1   S38.26807,51.0332,38.8208,51.0332z"></path><path d="M38.8208,55.86572h11.15137c0.55273,0,1-0.44775,1-1s-0.44727-1-1-1H38.8208c-0.55273,0-1,0.44775-1,1   S38.26807,55.86572,38.8208,55.86572z"></path><path d="M38.8208,60.69775h15.79688c0.55273,0,1-0.44775,1-1s-0.44727-1-1-1H38.8208c-0.55273,0-1,0.44775-1,1   S38.26807,60.69775,38.8208,60.69775z"></path><path d="M33.49463,27.38525c1.72949,0,3.13574-1.40674,3.13574-3.13623V5.63379c0-1.72949-1.40625-3.13623-3.13574-3.13623   H16.67334c-1.72949,0-3.13574,1.40674-3.13574,3.13623v18.61523c0,1.72949,1.40625,3.13623,3.13574,3.13623H33.49463z    M15.5376,24.24902V5.63379c0-0.62646,0.50977-1.13623,1.13574-1.13623h16.82129c0.62598,0,1.13574,0.50977,1.13574,1.13623   v18.61523c0,0.62646-0.50977,1.13623-1.13574,1.13623H16.67334C16.04736,25.38525,15.5376,24.87549,15.5376,24.24902z"></path><path d="M16.67334,36.06152c-1.72949,0-3.13574,1.40674-3.13574,3.13623v18.61523c0,1.72949,1.40625,3.13623,3.13574,3.13623   h16.82129c1.72949,0,3.13574-1.40674,3.13574-3.13623V39.19775c0-1.72949-1.40625-3.13623-3.13574-3.13623H16.67334z    M34.63037,39.19775v18.61523c0,0.62646-0.50977,1.13623-1.13574,1.13623H16.67334c-0.62598,0-1.13574-0.50977-1.13574-1.13623   V39.19775c0-0.62646,0.50977-1.13623,1.13574-1.13623h16.82129C34.12061,38.06152,34.63037,38.57129,34.63037,39.19775z"></path></g></svg>