<svg height='100px' width='100px'  fill="#000000" xmlns="http://www.w3.org/2000/svg" viewBox="0 0 64 64" x="0px" y="0px"><g><path d="M54.967,38.607l-.762-2.9a16.933,16.933,0,0,0-4.132-7.4,1,1,0,1,0-1.445,1.381,14.946,14.946,0,0,1,3.643,6.523l.351,1.338a13.77,13.77,0,0,0-6.154.185A7.945,7.945,0,0,1,39.951,36.6,8.451,8.451,0,0,0,35.763,30h1.6l9.617,4.273a1,1,0,1,0,.813-1.828l-5.915-2.628A10.012,10.012,0,0,0,50,20a11.773,11.773,0,0,1,1.236-5.236l.659-1.317A1,1,0,0,0,51,12H44a12.99,12.99,0,0,0-11,6.1V15.816a3,3,0,1,0-2,0V18.1a13.067,13.067,0,0,0-5.136-4.69A19.064,19.064,0,0,1,32,4.27,19.067,19.067,0,0,1,36.983,10.5,1,1,0,1,0,38.772,9.6,21.072,21.072,0,0,0,32.6,2.2a1,1,0,0,0-1.2,0,21.074,21.074,0,0,0-7.387,10.441A12.932,12.932,0,0,0,20,12a1,1,0,0,0,0,2A11.013,11.013,0,0,1,31,25v2.277l-.828-.473a14.4,14.4,0,0,1-4.985-4.764A2.991,2.991,0,1,0,23,23a3.033,3.033,0,0,0,.407-.041A16.448,16.448,0,0,0,28.306,28H24a8.009,8.009,0,0,1-8-8,13.777,13.777,0,0,0-1.383-6H16a1,1,0,0,0,0-2H13a1,1,0,0,0-.895,1.447l.659,1.317A11.773,11.773,0,0,1,14,20a9.952,9.952,0,0,0,2.646,6.753A16.966,16.966,0,0,0,10.8,35.706l-.762,2.9a1,1,0,0,0,1.173,1.233l1.44-.3a11.775,11.775,0,0,1,5.378.133,9.975,9.975,0,0,0,3.821.248A51.579,51.579,0,0,0,20.836,60h-.244a4.248,4.248,0,0,1-4.122-2.972,6.624,6.624,0,0,0-1.451-2.719L9.552,48.378a30.2,30.2,0,0,1,6.812,4.251,1,1,0,0,0,1.272-1.543A31.87,31.87,0,0,0,6.281,45.041a1,1,0,0,0-1.016,1.637l8.283,8.986a4.725,4.725,0,0,1,1.018,1.978A6.243,6.243,0,0,0,20.592,62H22a1,1,0,0,0,.988-1.152l-.124-.806a49.659,49.659,0,0,1,1.189-20.691c.03-.011.062-.019.092-.031a14.22,14.22,0,0,0,1.083,3.757,51.964,51.964,0,0,0-.62,15.009v.007c.107,1.027.235,2.051.4,3.072A1,1,0,0,0,26,62a.927.927,0,0,0,.165-.014,1,1,0,0,0,.822-1.151c-.137-.824-.248-1.651-.343-2.48l1.222-1.4A7.065,7.065,0,0,1,34.2,54.61a9.125,9.125,0,0,0,5.636-1.018l5.687-3.1L43.149,54.9a7.47,7.47,0,0,1-8.171,3.739,6.126,6.126,0,0,0-5.685,1.655,1,1,0,1,0,1.414,1.414,4.133,4.133,0,0,1,3.837-1.117,9.478,9.478,0,0,0,10.367-4.743l3.97-7.373a1,1,0,0,0-1.36-1.352l-8.642,4.714a7.12,7.12,0,0,1-4.4.794,9.06,9.06,0,0,0-8.072,2.959,49.943,49.943,0,0,1,.4-9.793,14.2,14.2,0,0,0,4.36,3.882l.333.19a1,1,0,0,0,.991,0l.335-.191a14.147,14.147,0,0,0,4.2-3.66A1,1,0,0,0,35.449,44.8,12.166,12.166,0,0,1,32,47.847a12.259,12.259,0,0,1-6-10.526,6.46,6.46,0,0,1,3.248-5.6l1.752-1V41a1,1,0,0,0,2,0V30.723l1.752,1A6.461,6.461,0,0,1,38,37.285h0c0,.013,0,.025,0,.037a12.165,12.165,0,0,1-.759,4.223,1,1,0,1,0,1.877.692A14.284,14.284,0,0,0,39.9,38.9,9.9,9.9,0,0,0,44.429,40a10.01,10.01,0,0,0,2.547-.33,11.775,11.775,0,0,1,5.378-.133l1.44.3a1,1,0,0,0,1.173-1.233ZM22,20a1,1,0,1,1,1.4.914c-.005,0-.012,0-.017.006l0,0A1.012,1.012,0,0,1,23,21,1,1,0,0,1,22,20Zm22-6h5.383A13.777,13.777,0,0,0,48,20a8.009,8.009,0,0,1-8,8H35.694a16.448,16.448,0,0,0,4.9-5.041A2.993,2.993,0,1,0,38,20a2.982,2.982,0,0,0,.813,2.04A14.4,14.4,0,0,1,33.828,26.8L33,27.277V25A11.013,11.013,0,0,1,44,14Zm-3,7a1.012,1.012,0,0,1-.378-.076l0,0c-.005,0-.012,0-.017-.006A.994.994,0,1,1,41,21Zm-9-9a1,1,0,1,1-1,1A1,1,0,0,1,32,12ZM24.008,37.206a7.942,7.942,0,0,1-5.476.53,13.741,13.741,0,0,0-6.154-.185l.351-1.338a14.971,14.971,0,0,1,5.439-8.107,9.928,9.928,0,0,0,4.7,1.825l-5.659,2.514a1,1,0,1,0,.813,1.828L27.636,30h.6A8.458,8.458,0,0,0,24.008,37.206Z"></path></g></svg>