<svg height='100px' width='100px'  fill="#000000" xmlns="http://www.w3.org/2000/svg" xmlns:xlink="http://www.w3.org/1999/xlink" version="1.1" x="0px" y="0px" viewBox="0 0 100 100" enable-background="new 0 0 100 100" xml:space="preserve"><g><path d="M78.518,21.59l0.104-2.099h-9.986v-1.812c0-3.078-2.52-5.582-5.619-5.582c-3.098,0-5.619,2.504-5.619,5.582v1.812H34.375   v-1.812c0-3.078-2.521-5.582-5.619-5.582s-5.62,2.504-5.62,5.582v1.812h-7.175h-1.956l0.021,1.399   c-0.044,1.34-0.901,33.02,15.183,49.105l0.769,0.58h0.645v0.006H91.18l0.006,0.016h0.855v-3.725   C77.207,52.038,78.502,21.893,78.518,21.59z M61.396,17.679c0-0.873,0.727-1.582,1.619-1.582s1.619,0.709,1.619,1.582v1.812h-3.238   V17.679z M27.136,17.679c0-0.873,0.727-1.582,1.62-1.582c0.893,0,1.619,0.709,1.619,1.582v1.812h-3.239V17.679z M31.482,66.581   c-11.878-12.539-13.315-35.552-13.455-43.09h56.445c-0.051,6.894,0.738,28.87,11.982,43.09H31.482z"></path><path d="M75.117,83.903H17.965l0.045-27.247l-2-0.003h1.989c-2.625-3.85-3.938-12.4-3.938-12.4V56.65H14.01l-0.052,31.253h65.159   v-15h-4V83.903z"></path><path d="M69.363,50.263h3.588v-3h-4.744c-0.605-1.707-1.109-3.384-1.535-5h3.963v-3h-4.682c-0.348-1.614-0.613-3.126-0.816-4.5   h3.744v-3h-4.127c-0.277-2.651-0.289-4.304-0.289-4.361l-3,0.001c0,0.229,0.012,1.846,0.252,4.36H51.643   c-0.277-2.651-0.289-4.304-0.289-4.361l-3,0.001c0,0.229,0.012,1.846,0.253,4.36h-8.447c-0.291-2.731-0.306-4.443-0.306-4.501   l-3,0.001c0,0.233,0.012,1.905,0.267,4.5h-8.794c-0.292-2.731-0.306-4.443-0.306-4.501l-3,0.001c0,0.233,0.012,1.905,0.267,4.5   h-2.6v3h2.961c0.194,1.373,0.451,2.885,0.785,4.5H24.44v3h2.683c0.408,1.611,0.894,3.287,1.476,5h-1.844v3h2.952   c0.642,1.606,1.376,3.225,2.206,4.833h-1.988v3h3.671c1.063,1.751,2.25,3.469,3.594,5.115l2.324-1.896   c-0.85-1.042-1.63-2.12-2.359-3.219h8.274c1.063,1.751,2.251,3.469,3.595,5.115l2.325-1.896c-0.85-1.042-1.63-2.12-2.359-3.219   h7.855c1.084,1.8,2.301,3.564,3.68,5.255l2.324-1.896c-0.887-1.086-1.697-2.211-2.451-3.358h9.559   c1.084,1.8,2.301,3.564,3.68,5.255l2.324-1.896c-0.887-1.086-1.697-2.211-2.451-3.358h2.611v-3h-4.42   C70.82,53.5,70.043,51.88,69.363,50.263z M64.996,47.263h-9.9c-0.605-1.707-1.109-3.384-1.535-5h9.973   C63.938,43.873,64.418,45.548,64.996,47.263z M51.883,47.263h-8.238c-0.609-1.706-1.117-3.382-1.546-5h8.323   C50.826,43.873,51.305,45.548,51.883,47.263z M62.072,34.763c0.191,1.37,0.443,2.882,0.775,4.5H52.842   c-0.348-1.614-0.613-3.126-0.816-4.5H62.072z M48.961,34.763c0.192,1.37,0.444,2.882,0.776,4.5h-8.364   c-0.351-1.612-0.619-3.124-0.826-4.5H48.961z M28.713,34.763h8.768c0.194,1.373,0.451,2.885,0.785,4.5h-8.727   C29.188,37.651,28.92,36.14,28.713,34.763z M30.265,42.263h8.692c0.408,1.611,0.894,3.287,1.476,5h-8.622   C31.202,45.558,30.694,43.881,30.265,42.263z M35.333,55.096c-0.886-1.595-1.67-3.215-2.354-4.833h8.562   c0.643,1.606,1.376,3.225,2.207,4.833H35.333z M47.167,55.096c-0.886-1.595-1.67-3.215-2.354-4.833h8.171   c0.637,1.606,1.365,3.224,2.189,4.833H47.167z M58.59,55.096c-0.881-1.596-1.658-3.216-2.338-4.833h9.844   c0.637,1.606,1.365,3.224,2.189,4.833H58.59z"></path></g></svg>