<svg height='100px' width='100px'  fill="#000000" xmlns="http://www.w3.org/2000/svg" xmlns:xlink="http://www.w3.org/1999/xlink" version="1.1" x="0px" y="0px" viewBox="0 0 60 60" style="enable-background:new 0 0 60 60;" xml:space="preserve"><path d="M21.98,31.84c-0.82,1.74-2.15,3.08-3.75,3.77c-3.79,1.64-5.92,5.64-5.19,9.74c0.5,2.81,2.33,5.19,4.91,6.38  c2.51,1.16,5.4,1.12,7.94-0.14c2.62-1.3,5.63-1.3,8.25,0c1.31,0.65,2.72,0.98,4.13,0.98c1.3,0,2.6-0.28,3.81-0.84  c2.57-1.19,4.41-3.58,4.91-6.38c0.72-4.04-1.37-8.03-5.1-9.7c-1.62-0.73-2.91-2.06-3.62-3.76c-1.09-2.61-3.4-5.72-8.16-5.72  c-0.03,0-0.07,0-0.1,0C26.47,26.22,23.7,28.17,21.98,31.84z M30.02,28.18c0.03,0,0.05,0,0.08,0c2.95,0,5.07,1.51,6.32,4.49  c0.91,2.17,2.56,3.88,4.65,4.82c2.88,1.29,4.5,4.38,3.94,7.52c-0.38,2.13-1.83,4.02-3.78,4.92c-1.96,0.91-4.23,0.87-6.21-0.11  c-1.59-0.79-3.3-1.18-5.01-1.18s-3.42,0.39-5.01,1.18c-1.98,0.98-4.25,1.02-6.21,0.11c-1.95-0.9-3.4-2.79-3.78-4.92  c-0.57-3.18,1.09-6.28,4.02-7.55c2.05-0.89,3.74-2.58,4.76-4.76C25.18,29.73,27.28,28.21,30.02,28.18z"></path><path d="M52.13,21.3c-1.47-0.7-3.21-0.55-4.89,0.42c-1.57,0.9-2.91,2.42-3.8,4.29c-0.89,1.87-1.21,3.87-0.92,5.66  c0.32,1.92,1.3,3.35,2.77,4.05c0.61,0.29,1.27,0.43,1.95,0.43c0.96,0,1.96-0.29,2.94-0.85c1.56-0.9,2.91-2.42,3.8-4.29  c0.89-1.87,1.21-3.87,0.92-5.66C54.59,23.44,53.6,22,52.13,21.3z M52.18,30.16c-0.71,1.5-1.77,2.71-2.99,3.41  c-1.1,0.63-2.18,0.75-3.04,0.35c-0.86-0.41-1.45-1.32-1.65-2.57c-0.23-1.38,0.04-2.97,0.75-4.47c0.71-1.5,1.77-2.71,2.99-3.41  c0.67-0.39,1.34-0.58,1.95-0.58c0.39,0,0.75,0.08,1.09,0.24c0.86,0.41,1.45,1.32,1.65,2.57C53.16,27.07,52.89,28.65,52.18,30.16z"></path><path d="M36.01,24.16c0.4,0.1,0.8,0.15,1.2,0.15c1.31,0,2.65-0.54,3.85-1.58c1.47-1.27,2.59-3.15,3.15-5.3  c0.56-2.15,0.5-4.34-0.17-6.17C43.34,9.32,42.02,8,40.33,7.57c-3.33-0.87-7.02,2.15-8.21,6.72C30.91,18.94,32.62,23.28,36.01,24.16z   M34.06,14.79c0.81-3.11,3.03-5.38,5.09-5.38c0.23,0,0.46,0.03,0.68,0.09c1.03,0.27,1.86,1.14,2.34,2.46  c0.53,1.45,0.57,3.21,0.11,4.98v0c-0.46,1.76-1.36,3.29-2.52,4.29c-1.06,0.91-2.22,1.27-3.25,1C34.28,21.65,33.16,18.24,34.06,14.79  z"></path><path d="M9.83,35.3c0.98,0.57,1.99,0.85,2.94,0.85c0.68,0,1.34-0.14,1.95-0.43c1.47-0.7,2.46-2.14,2.77-4.05  c0.29-1.78-0.03-3.79-0.92-5.66c-1.92-4.04-5.73-6.11-8.69-4.71c-2.96,1.4-3.77,5.67-1.85,9.71C6.91,32.88,8.26,34.4,9.83,35.3z   M8.74,23.11c0.34-0.16,0.7-0.24,1.08-0.24c1.74,0,3.8,1.59,4.95,3.99c0.71,1.5,0.98,3.09,0.75,4.47c-0.21,1.25-0.79,2.16-1.65,2.57  c-0.86,0.41-1.94,0.29-3.04-0.35c-1.21-0.7-2.28-1.91-2.99-3.41C6.45,27.23,6.86,24,8.74,23.11z"></path><path d="M15.8,17.44c1.05,4.05,4.06,6.87,7.04,6.87c0.39,0,0.78-0.05,1.17-0.15c3.33-0.87,5.08-5.3,3.88-9.88  c-1.19-4.58-4.88-7.59-8.21-6.72C16.35,8.43,14.6,12.86,15.8,17.44L15.8,17.44z M20.18,9.5c2.23-0.58,4.87,1.84,5.77,5.29  c0.9,3.45-0.22,6.86-2.45,7.44c-2.22,0.58-4.87-1.84-5.77-5.29v0C16.83,13.49,17.96,10.08,20.18,9.5z"></path></svg>