<svg height='100px' width='100px'  fill="#000000" xmlns="http://www.w3.org/2000/svg" xmlns:xlink="http://www.w3.org/1999/xlink" version="1.1" x="0px" y="0px" viewBox="0 0 512 512" enable-background="new 0 0 512 512" xml:space="preserve"><g><path d="M453.977,255.786H305.344c-2.126,0-4.138,0.967-5.466,2.627s-1.83,3.834-1.363,5.908l19.794,88.032   c0.718,3.195,3.555,5.465,6.829,5.465h119.182c3.57,0,6.569-2.688,6.958-6.236l9.657-88.032c0.217-1.978-0.418-3.954-1.745-5.436   C457.861,256.633,455.966,255.786,453.977,255.786z M438.045,343.818H330.738l-16.646-74.032h132.074L438.045,343.818z"></path><path d="M204.616,255.786H58.007c-1.991,0-3.888,0.848-5.216,2.331c-1.328,1.483-1.961,3.462-1.742,5.441l9.771,88.032   c0.393,3.545,3.39,6.228,6.957,6.228h117.57c3.289,0,6.135-2.29,6.838-5.503l19.268-88.032c0.453-2.07-0.056-4.234-1.385-5.886   C208.741,256.746,206.735,255.786,204.616,255.786z M179.714,343.818H74.044l-8.217-74.032h130.092L179.714,343.818z"></path><path d="M480.849,223.393L324.981,128.8c-3.045-1.867-6.545-2.854-10.123-2.854c-6.789,0-13.183,3.581-16.673,9.326   c-2.715,4.434-3.531,9.667-2.299,14.735c1.234,5.083,4.371,9.37,8.825,12.068l97.017,58.896H108.616l100.577-61.084   c4.426-2.714,7.543-6.993,8.775-12.048c1.239-5.08,0.423-10.317-2.269-14.702c-3.501-5.797-9.903-9.398-16.708-9.398   c-3.572,0-7.07,0.985-10.097,2.837l-158.703,96.42c-1.901,1.15-3.595,2.629-5.036,4.397c-6.925,7.926-5.963,20.039-5.471,23.731   l10.203,92.042c0.146,1.301,0.282,2.702,0.425,4.173c0.729,7.475,1.636,16.777,4.685,24.604   c5.322,13.665,14.823,16.533,21.855,16.533H195.82c10.716,0,19.605-7.903,22.119-19.662l21.223-99.025h31.602l21.043,97.795   c0.021,0.094,0.043,0.187,0.066,0.279c4.412,17.064,13.921,20.646,21.12,20.646c0.389,0,0.783-0.011,1.183-0.032h142.137   c12.498,0,21.927-9.404,23.461-23.4l13.191-120.188C494.056,234.938,489.646,227.139,480.849,223.393z M479.049,243.36   l-13.191,120.188c-0.281,2.563-1.8,10.927-9.545,10.927H313.971c-0.15,0-0.301,0.005-0.451,0.015   c-0.179,0.012-0.354,0.018-0.527,0.018c-0.003,0-0.007,0-0.011,0c-1.354,0-4.905-0.028-7.519-10.015l-22.201-103.178   c-0.694-3.225-3.545-5.527-6.844-5.527h-42.915c-3.301,0-6.153,2.306-6.845,5.533l-22.41,104.563   c-0.847,3.964-3.563,8.592-8.429,8.592H56.854c-8.219,0-10.846-10.448-12.606-28.496c-0.15-1.541-0.294-3.009-0.445-4.363   l-10.211-92.117c-0.006-0.058-0.014-0.115-0.021-0.172c-0.718-5.279,0.171-10.526,2.163-12.76c0.083-0.092,0.162-0.187,0.24-0.284   c0.434-0.542,0.927-0.982,1.479-1.316l158.733-96.438c0.845-0.517,1.815-0.79,2.808-0.79c1.932,0,3.741,1.01,4.75,2.68   c0.75,1.222,0.972,2.68,0.625,4.104c-0.352,1.442-1.236,2.66-2.466,3.414L79.971,221.988c-2.683,1.629-3.953,4.846-3.107,7.87   c0.846,3.023,3.602,5.113,6.741,5.113h343.144c3.14,0,5.896-2.09,6.741-5.114c0.846-3.023-0.425-6.24-3.108-7.87l-118.41-71.883   c-1.251-0.757-2.132-1.966-2.481-3.402c-0.346-1.423-0.12-2.886,0.647-4.139c0.98-1.614,2.789-2.616,4.721-2.616   c1.008,0,1.952,0.265,2.833,0.806l156.356,94.89c0.335,0.203,0.687,0.378,1.051,0.522   C477.902,237.277,479.541,238.869,479.049,243.36z"></path></g></svg>