<svg height='100px' width='100px'  fill="#000000" xmlns="http://www.w3.org/2000/svg" xmlns:xlink="http://www.w3.org/1999/xlink" version="1.1" x="0px" y="0px" viewBox="0 0 24 24" style="enable-background:new 0 0 24 24;" xml:space="preserve"><g><path d="M17.141,6.523c-0.067,0-0.136,0.002-0.206,0.007c-0.87-2.262-3.085-3.808-5.532-3.808c-3.203,0-5.821,2.554-5.923,5.733   C3.987,8.664,2.833,9.95,2.833,11.5c0,1.685,1.363,3.058,3.05,3.074c0.01,0.001,0.021,0.001,0.031,0.001l11.244-0.001   c2.21-0.009,4.008-1.815,4.008-4.026C21.167,8.329,19.361,6.523,17.141,6.523z M17.156,13.533l-11.22,0.001   c-0.009-0.001-0.019-0.001-0.029-0.001c-1.121,0-2.033-0.912-2.033-2.033c0-1.117,0.907-2.027,2.023-2.033   c-0.002,0-0.002,0,0,0.001C5.925,9.471,5.952,9.475,5.98,9.476c0.15,0.011,0.296-0.046,0.402-0.151   C6.487,9.22,6.543,9.073,6.533,8.924L6.528,8.849c-0.005-0.067-0.01-0.134-0.01-0.201c0-2.693,2.191-4.884,4.884-4.884   c2.139,0,4.062,1.432,4.677,3.481c0.075,0.251,0.325,0.408,0.584,0.364c0.179-0.03,0.335-0.044,0.477-0.044   c1.645,0,2.984,1.339,2.984,2.984C20.125,12.187,18.792,13.526,17.156,13.533z"></path><path d="M9.65,15.233c-0.245-0.151-0.566-0.074-0.716,0.171l-1.934,3.15c-0.15,0.245-0.074,0.566,0.171,0.716   c0.085,0.052,0.179,0.077,0.272,0.077c0.175,0,0.346-0.088,0.444-0.248l1.934-3.15C9.971,15.704,9.895,15.383,9.65,15.233z"></path><path d="M11.926,15.232c-0.245-0.15-0.566-0.073-0.716,0.173l-3.107,5.081c-0.15,0.245-0.073,0.566,0.173,0.716   c0.085,0.052,0.179,0.076,0.271,0.076c0.175,0,0.347-0.089,0.445-0.249l3.107-5.081C12.249,15.703,12.171,15.382,11.926,15.232z"></path><path d="M11.728,19.271c0.085,0.052,0.179,0.077,0.272,0.077c0.175,0,0.346-0.088,0.444-0.248l1.934-3.15   c0.15-0.245,0.074-0.566-0.171-0.716c-0.245-0.15-0.566-0.074-0.716,0.172l-1.934,3.15C11.406,18.8,11.482,19.12,11.728,19.271z"></path></g></svg>