<svg height='100px' width='100px'  fill="#000000" xmlns="http://www.w3.org/2000/svg" data-name="Layer 1" viewBox="0 0 32 32" x="0px" y="0px"><title>UI UX</title><path d="M7.94,4.39a10.75,10.75,0,0,0-3.11,7.8C5,19.61,15.16,30.25,15.59,30.69a1,1,0,0,0,.72.31h0a1,1,0,0,0,.73-0.33c0.41-.45,10-11.08,10.11-18.48h0a10.75,10.75,0,0,0-3.11-7.8A11.28,11.28,0,0,0,7.94,4.39Zm17.23,7.76C25,17.71,18.5,25.9,16.29,28.5,14,25.92,7,17.72,6.83,12.15A8.76,8.76,0,0,1,9.37,5.79a9.28,9.28,0,0,1,13.26,0A8.76,8.76,0,0,1,25.17,12.15Z"></path><path d="M10.62,12.25A5.38,5.38,0,1,0,16,6.87,5.39,5.39,0,0,0,10.62,12.25Zm8.76,0A3.38,3.38,0,1,1,16,8.87,3.38,3.38,0,0,1,19.38,12.25Z"></path></svg>