<svg height='100px' width='100px'  fill="#000000" xmlns="http://www.w3.org/2000/svg" viewBox="0 0 66 66" x="0px" y="0px"><path fill-rule="evenodd" d="M350.707107,702.707107 C350.316582,703.097631 349.683418,703.097631 349.292893,702.707107 L337.292893,690.707107 C336.902369,690.316582 336.902369,689.683418 337.292893,689.292893 L349.292893,677.292893 C349.683418,676.902369 350.316582,676.902369 350.707107,677.292893 L362.707107,689.292893 C363.097631,689.683418 363.097631,690.316582 362.707107,690.707107 L350.707107,702.707107 Z M360.585786,690 L350,679.414214 L339.414214,690 L350,700.585786 L360.585786,690 Z M310.707107,702.707107 C310.316582,703.097631 309.683418,703.097631 309.292893,702.707107 L297.292893,690.707107 C296.902369,690.316582 296.902369,689.683418 297.292893,689.292893 L309.292893,677.292893 C309.683418,676.902369 310.316582,676.902369 310.707107,677.292893 L322.707107,689.292893 C323.097631,689.683418 323.097631,690.316582 322.707107,690.707107 L310.707107,702.707107 Z M320.585786,690 L310,679.414214 L299.414214,690 L310,700.585786 L320.585786,690 Z M330.707107,722.707107 C330.316582,723.097631 329.683418,723.097631 329.292893,722.707107 L317.292893,710.707107 C316.902369,710.316582 316.902369,709.683418 317.292893,709.292893 L329.292893,697.292893 C329.683418,696.902369 330.316582,696.902369 330.707107,697.292893 L342.707107,709.292893 C343.097631,709.683418 343.097631,710.316582 342.707107,710.707107 L330.707107,722.707107 Z M340.585786,710 L330,699.414214 L319.414214,710 L330,720.585786 L340.585786,710 Z M330.707107,682.707107 C330.316582,683.097631 329.683418,683.097631 329.292893,682.707107 L317.292893,670.707107 C316.902369,670.316582 316.902369,669.683418 317.292893,669.292893 L329.292893,657.292893 C329.683418,656.902369 330.316582,656.902369 330.707107,657.292893 L342.707107,669.292893 C343.097631,669.683418 343.097631,670.316582 342.707107,670.707107 L330.707107,682.707107 Z M340.585786,670 L330,659.414214 L319.414214,670 L330,680.585786 L340.585786,670 Z" transform="translate(-297 -657)"></path></svg>