<svg height='100px' width='100px'  fill="#000000" xmlns="http://www.w3.org/2000/svg" version="1.1" viewBox="0 0 64 64" x="0px" y="0px"><title>videocamera</title><path d="M62.881 25.053c-0.7-0.465-1.582-0.548-2.355-0.22l-14.276 6.033v-1.865c0-2.757-2.243-5-5-5h-25.024v-6.5h5.627v1.25c0 0.69 0.559 1.25 1.25 1.25h15.629c2.069 0 3.751-1.683 3.751-3.75s-1.683-3.75-3.751-3.75h-15.629c-0.691 0-1.25 0.56-1.25 1.25v1.25h-6.877c-0.691 0-1.25 0.56-1.25 1.25v7.75h-8.726c-2.757 0-5 2.243-5 5v17.5c0 2.757 2.243 5 5 5h36.25c2.757 0 5-2.243 5-5v-1.865l14.276 6.033c0.313 0.132 0.645 0.198 0.975 0.198 0.483 0 0.963-0.142 1.38-0.418 0.701-0.463 1.119-1.242 1.119-2.082v-21.23c0-0.84-0.417-1.619-1.119-2.082zM24.354 15h14.379c0.69 0 1.251 0.561 1.251 1.25s-0.562 1.25-1.251 1.25h-14.379zM43.75 46.5c0 1.379-1.121 2.5-2.5 2.5h-36.25c-1.379 0-2.5-1.121-2.5-2.5v-17.5c0-1.379 1.121-2.5 2.5-2.5h36.25c1.379 0 2.5 1.121 2.5 2.5zM61.5 48.365l-15.25-6.444v-8.343l15.25-6.444 0.004 21.231c0 0-0.001 0-0.004-0.001z"></path></svg>