<svg height='100px' width='100px'  fill="#000000" xmlns="http://www.w3.org/2000/svg" data-name="Layer 1" viewBox="0 0 64 64" x="0px" y="0px"><title>files</title><path d="M50.707,15.293l-.00067-.00067L42.70789,7.29382,42.707,7.293A1.006,1.006,0,0,0,42,7H26a1,1,0,0,0-1,1v3H22a1,1,0,0,0-1,1v3H18a1,1,0,0,0-1,1v3H14a1,1,0,0,0-1,1V56a1,1,0,0,0,1,1H38a.99974.99974,0,0,0,1-1V53h3a.99974.99974,0,0,0,1-1V49h3a.99974.99974,0,0,0,1-1V45h3a.99974.99974,0,0,0,1-1V16a1.00594,1.00594,0,0,0-.293-.707ZM49,43H27V9H41v7a.997.997,0,0,0,.29211.70618l.00153.00153A.99676.99676,0,0,0,42,17h7Zm-4,4H23V13h2V44a1,1,0,0,0,1,1H45Zm-4,4H19V17h2V48a1,1,0,0,0,1,1H41Zm-4,4H15V21h2V52a1,1,0,0,0,1,1H37Zm6-44.58594L47.58594,15H43Z"></path></svg>