<svg height='100px' width='100px'  fill="#000000" xmlns="http://www.w3.org/2000/svg" viewBox="0 0 66 38" x="0px" y="0px"><path fill="#000000" fill-rule="evenodd" d="M428.00486,828.999998 L428,829 C421.766689,829 417,820.41996 417,810 C417,799.58004 421.766689,791 428,791 L472,791 C478.233311,791 483,799.58004 483,810 C483,820.41996 478.233311,829 472,829 L428.007011,829 L428.00486,828.999998 Z M472,827 C476.812384,827 481,819.462291 481,810 C481,800.537709 476.812384,793 472,793 L432.972012,793 C436.596928,796.130663 439,802.601544 439,810 C439,817.397999 436.597113,823.869202 432.972012,827 L472,827 Z M428,827 C432.812384,827 437,819.462291 437,810 C437,800.537709 432.812384,793 428,793 C423.187616,793 419,800.537709 419,810 C419,819.462291 423.187616,827 428,827 Z" transform="translate(-417 -791)"></path></svg>