<svg height='100px' width='100px'  fill="#000000" xmlns="http://www.w3.org/2000/svg" xmlns:xlink="http://www.w3.org/1999/xlink" version="1.1" x="0px" y="0px" viewBox="0 0 32 32" enable-background="new 0 0 32 32" xml:space="preserve"><g display="none"><rect x="-247.333" y="-144.651" display="inline" fill="#000000" width="473.333" height="236"></rect></g><g display="none"><g display="inline"><g><polygon fill="#000000" points="16,0 23.883,13.624 8.117,13.624    "></polygon></g></g><g display="inline"><g><polygon fill="#000000" points="7.883,15.015 15.767,28.639 0,28.639    "></polygon></g></g><g display="inline"><g><polygon fill="#000000" points="24.117,15.015 32,28.639 16.233,28.639    "></polygon></g></g></g><g><g><g><path d="M16,1.997l6.149,10.627H9.851L16,1.997 M16,0L8.117,13.624h15.767L16,0L16,0z"></path></g></g><g><g><path d="M7.883,17.012l6.149,10.627H1.734L7.883,17.012 M7.883,15.015L0,28.639h15.767L7.883,15.015L7.883,15.015z"></path></g></g><g><g><path d="M24.117,17.012l6.149,10.627H17.967L24.117,17.012 M24.117,15.015l-7.883,13.624H32L24.117,15.015L24.117,15.015z"></path></g></g></g><g display="none"><g display="inline"><polygon fill="#000000" points="8.983,13.124 16,0.998 23.017,13.124   "></polygon><g><path d="M16,1.997l6.149,10.627H9.851L16,1.997 M16,0L8.117,13.624h15.767L16,0L16,0z"></path></g></g><g display="inline"><polygon fill="#000000" points="0.867,28.14 7.884,16.014 14.899,28.14   "></polygon><path fill="#000000" d="M7.883,17.012l6.149,10.627H1.734L7.883,17.012 M7.883,15.015L0,28.639h15.767L7.883,15.015L7.883,15.015z    "></path></g><g display="inline"><polygon fill="#000000" points="17.101,28.14 24.116,16.014 31.133,28.14   "></polygon><g><path d="M24.117,17.012l6.149,10.627H17.967L24.117,17.012 M24.117,15.015l-7.883,13.624H32L24.117,15.015L24.117,15.015z"></path></g></g></g><g display="none"><polygon display="inline" fill="#000000" points="16,0 23.883,13.624 8.117,13.624  "></polygon><polygon display="inline" fill="#000000" points="7.883,15.015 15.767,28.639 0,28.639  "></polygon><polygon display="inline" fill="#000000" points="24.117,15.015 32,28.639 16.233,28.639  "></polygon></g></svg>