<svg height='100px' width='100px'  fill="#000000" xmlns="http://www.w3.org/2000/svg" xmlns:xlink="http://www.w3.org/1999/xlink" version="1.1" x="0px" y="0px" viewBox="0 0 32 32" enable-background="new 0 0 32 32" xml:space="preserve"><g display="none"><rect x="-50.995" y="-54.344" display="inline" fill="#000000" width="404.667" height="211.333"></rect></g><g><g><path d="M9.937,11.57h0.659c0.458,0,0.808-0.023,1.05-0.071c0.178-0.039,0.353-0.118,0.524-0.237    c0.172-0.12,0.313-0.284,0.426-0.494c0.111-0.21,0.167-0.469,0.167-0.775c0-0.399-0.097-0.725-0.29-0.977    c-0.194-0.252-0.435-0.415-0.722-0.49c-0.187-0.05-0.588-0.075-1.203-0.075H8.925v5.011h1.012V11.57z M9.937,9.298h0.488    c0.365,0,0.607,0.012,0.729,0.034c0.164,0.029,0.3,0.104,0.406,0.223c0.107,0.118,0.161,0.269,0.161,0.451    c0,0.147-0.038,0.277-0.115,0.389c-0.076,0.112-0.182,0.194-0.315,0.246c-0.135,0.053-0.401,0.079-0.8,0.079H9.937V9.298z"></path><polygon points="14.544,10.193 16.564,13.461 17.579,13.461 17.579,8.45 16.639,8.45 16.639,11.797 14.588,8.45 13.604,8.45     13.604,13.461 14.544,13.461   "></polygon><path d="M20.98,11.619h1.158v0.635c-0.152,0.119-0.336,0.22-0.549,0.303s-0.424,0.125-0.637,0.125    c-0.428,0-0.775-0.148-1.039-0.446c-0.264-0.297-0.396-0.743-0.396-1.338c0-0.552,0.131-0.968,0.391-1.247    c0.262-0.281,0.613-0.421,1.055-0.421c0.293,0,0.535,0.071,0.73,0.214s0.328,0.336,0.398,0.582l1.004-0.188    c-0.1-0.46-0.324-0.821-0.674-1.082s-0.836-0.391-1.459-0.391c-0.479,0-0.878,0.083-1.199,0.249    c-0.422,0.217-0.741,0.527-0.96,0.933c-0.219,0.406-0.328,0.87-0.328,1.392c0,0.48,0.098,0.926,0.294,1.335    c0.195,0.409,0.488,0.724,0.878,0.943s0.847,0.33,1.37,0.33c0.412,0,0.82-0.078,1.223-0.234s0.709-0.337,0.922-0.542v-1.996H20.98    V11.619z"></path><path d="M28.5,4.962L23.538,0H3.5v32h25V4.962z M27.5,31h-23V1h18.624L27.5,5.376V31z"></path><rect x="8.507" y="24.041" width="14.986" height="1"></rect><rect x="8.507" y="20.5" width="14.986" height="1"></rect></g></g><g display="none"><g display="inline"><g><g><path d="M11.29,9.947c0.134-0.052,0.239-0.134,0.315-0.246c0.077-0.111,0.115-0.241,0.115-0.389      c0-0.183-0.054-0.333-0.161-0.451c-0.106-0.119-0.242-0.193-0.406-0.223c-0.121-0.022-0.363-0.034-0.729-0.034H9.937v1.422      h0.554C10.889,10.026,11.156,10,11.29,9.947z"></path><path d="M23.538,0H3.5v32h25V4.962L23.538,0z M18.803,8.853c0.219-0.405,0.538-0.716,0.96-0.933      c0.321-0.166,0.721-0.249,1.199-0.249c0.623,0,1.109,0.13,1.459,0.391c0.35,0.261,0.574,0.622,0.674,1.082l-1.004,0.188      c-0.07-0.246-0.203-0.439-0.398-0.582s-0.438-0.214-0.73-0.214c-0.441,0-0.793,0.14-1.055,0.421      c-0.26,0.279-0.391,0.695-0.391,1.247c0,0.595,0.133,1.041,0.396,1.338c0.264,0.298,0.611,0.446,1.039,0.446      c0.213,0,0.424-0.042,0.637-0.125s0.396-0.184,0.549-0.303v-0.635H20.98v-0.845h2.182v1.996      c-0.213,0.205-0.52,0.386-0.922,0.542s-0.811,0.234-1.223,0.234c-0.523,0-0.98-0.11-1.37-0.33s-0.683-0.534-0.878-0.943      c-0.196-0.409-0.294-0.854-0.294-1.335C18.475,9.723,18.584,9.259,18.803,8.853z M13.604,7.756h0.984l2.051,3.347V7.756h0.94      v5.011h-1.016L14.544,9.5v3.268h-0.94V7.756z M8.925,7.756h1.623c0.615,0,1.017,0.025,1.203,0.075      c0.287,0.075,0.527,0.238,0.722,0.49c0.193,0.252,0.29,0.577,0.29,0.977c0,0.307-0.056,0.565-0.167,0.775      c-0.112,0.21-0.254,0.374-0.426,0.494c-0.172,0.119-0.347,0.198-0.524,0.237c-0.242,0.048-0.592,0.071-1.05,0.071H9.937v1.891      H8.925V7.756z M23.493,25.041H8.507v-1h14.986V25.041z M23.493,21.5H8.507v-1h14.986V21.5z"></path></g></g></g></g><g display="none"><text transform="matrix(1 0 0 1 8.4157 13.4614)" display="inline" stroke="#000000" stroke-width="0.25" stroke-miterlimit="10" font-family="'Arial-BoldMT'" font-size="7px">PNG</text><g display="inline"><g><path d="M22.71,2l3.79,3.79V30h-21V2H22.71 M23.538,0H3.5v32h25V4.962L23.538,0L23.538,0z"></path></g><g><g><g><line fill="none" stroke="#000000" stroke-width="2" stroke-miterlimit="10" x1="8.507" y1="24.542" x2="23.493" y2="24.542"></line></g></g><g><g><line fill="none" stroke="#000000" stroke-width="2" stroke-miterlimit="10" x1="8.507" y1="21" x2="23.493" y2="21"></line></g></g></g></g></g><g display="none"><text transform="matrix(1 0 0 1 8.4157 13.4614)" display="inline" font-family="'Arial-BoldMT'" font-size="7px">PNG</text><g display="inline"><g><path fill="#000000" d="M23.331,0.5L28,5.169V31.5H4v-31H23.331 M23.538,0H3.5v32h25V4.962L23.538,0L23.538,0z"></path></g><g><g><g><line fill="none" stroke="#000000" stroke-width="0.5" stroke-miterlimit="10" x1="8.507" y1="24.542" x2="23.493" y2="24.542"></line></g></g><g><g><line fill="none" stroke="#000000" stroke-width="0.5" stroke-miterlimit="10" x1="8.507" y1="21" x2="23.493" y2="21"></line></g></g></g></g></g></svg>