<svg height='100px' width='100px'  fill="#000000" xmlns="http://www.w3.org/2000/svg" viewBox="0 0 55 68" x="0px" y="0px"><path fill="#000000" d="M338,464.871897 L338,466 C338,469.727679 335.450454,472.859879 332,473.747965 L332,482 C332,483.104569 331.104569,484 330,484 C328.895431,484 328,483.104569 328,482 L328,473.747965 C324.549546,472.859879 322,469.727679 322,466 L322,451.717762 C320.339947,451.032036 318.512462,450.439668 316.514929,449.940285 C304.64265,446.972215 300.499274,437.178782 304.049734,421.556758 C304.468517,419.714114 306.97335,419.426421 307.79899,421.126138 C311.580292,428.910572 317.132068,429.703683 325.823657,423.382528 C330.404663,420.050887 334.689231,417.940714 338.6013,416.832031 C341.261158,416.078225 343.39977,415.872984 344.938598,415.985307 C345.004792,415.990138 345.064278,415.995282 345.116988,416.000512 C352.905619,416.068789 357.576349,422.958785 356.742481,432.548259 C355.873192,442.545081 349.43814,454.143749 338,464.871897 Z M326,453.750376 L326,466 C326,468.209139 327.790861,470 330,470 C332.209139,470 334,468.209139 334,466 L334,464.2525 C332.838079,459.844114 330.199368,456.359911 326,453.750376 Z M331,439 C331,438.447715 330.552285,438 330,438 C329.447715,438 329,438.447715 329,439 L329,450.930608 C329.704053,451.408016 330.370822,451.910504 331,452.438025 L331,439 Z M335,456.844395 C335.746095,457.950251 336.380746,459.127401 336.90273,460.37567 C346.633537,450.747896 352.02129,440.668376 352.757519,432.201741 C353.41142,424.681874 350.212624,420 345,420 C344.905362,420 344.810844,419.993283 344.717157,419.979899 C344.276554,419.947624 343.750214,419.952548 343.07592,420.017259 C342.0779,420.113039 340.947553,420.324631 339.69195,420.680469 C336.240331,421.658661 332.381587,423.559113 328.176343,426.617472 C319.433165,432.976147 312.138934,433.244904 307.070133,427.354029 C305.741818,437.979943 309.221254,443.993761 317.485071,446.059715 C320.254702,446.752123 322.761278,447.623884 325,448.674313 L325,439 C325,436.238576 327.238576,434 330,434 C332.761424,434 335,436.238576 335,439 L335,456.844395 Z" transform="translate(-302 -416)"></path></svg>