<svg height='100px' width='100px'  fill="#000000" xmlns="http://www.w3.org/2000/svg" xmlns:xlink="http://www.w3.org/1999/xlink" version="1.1" x="0px" y="0px" viewBox="0 0 100 100" enable-background="new 0 0 100 100" xml:space="preserve"><g display="none"><rect x="-533" y="-660.293" display="inline" fill="#000000" width="1282" height="1265.293"></rect></g><g><path fill="none" d="M20.71,89.167c0.103,0.119,0.281,0.138,0.406,0.042l11.833-9.064c0.354-0.272,0.809-0.372,1.246-0.271   c0.785,0.179,1.646,0.193,2.607,0.193l25.124,0.005c1.063,0,2.162,0,3.059-0.328c1.052-0.384,2.014-1.294,2.862-2.098   C78.641,67.419,90.066,53.61,91.162,49.646c-1.565-0.104-3.334,0.869-4.922,1.818l-13.376,8.004   c-0.207,0.124-0.724,0.383-1.371,0.703c-0.534,0.265-1.471,0.728-2.264,1.151c-0.002,0.328-0.111,0.638-0.299,0.889   c0.022,0.075,0.042,0.15,0.061,0.227c0.366,1.501-0.035,3.05-1.129,4.362c-1.224,1.468-3.056,2.342-5.078,2.46H44.016   c-1.056,0-1.672-1.289-0.929-2.04c0.006-0.006,0.011-0.011,0.017-0.017c0.653-0.651,1.52-1.01,2.442-1.01c0.006,0,0.013,0,0.02,0   l16.729,0.091c1.365-0.009,2.514-0.504,3.264-1.405c0.49-0.587,0.659-1.153,0.519-1.73c-0.057-0.232-0.165-0.465-0.313-0.688   c-0.126-0.107-0.238-0.242-0.33-0.409c-0.327-0.343-0.75-0.639-1.217-0.835c-1.299-0.545-2.877-0.534-4.401-0.521   c-0.799,0.006-1.621,0.021-2.457,0.038c-4.211,0.081-8.985,0.172-13.303-0.954c-0.935-0.243-1.832-0.503-2.705-0.756   c-2.583-0.747-4.82-1.396-7.186-1.396c-1.353,0-2.747,0.212-4.272,0.737c-4.004,1.381-7.875,4.129-12.184,8.649   c-0.024,0.024-0.049,0.048-0.074,0.072l-8.722,7.912c-0.119,0.108-0.131,0.292-0.026,0.414L20.71,89.167z"></path><path fill="none" d="M42.184,56.14c0.848,0.246,1.719,0.498,2.627,0.735c1.283,0.335,2.615,0.543,3.972,0.679V38.233H35.77V54.71   C37.966,54.921,40.045,55.521,42.184,56.14z"></path><polygon fill="none" points="64.645,35.233 80.659,35.233 80.843,35.233 80.843,27.811 64.645,27.811  "></polygon><polygon fill="none" points="48.783,35.233 48.783,27.811 32.586,27.811 32.586,35.233 32.77,35.233  "></polygon><path fill="none" d="M51.783,57.744c1.835,0.054,3.689,0.024,5.517-0.013c0.848-0.016,1.681-0.032,2.492-0.038   c0.596-0.005,1.218-0.008,1.853,0.019V27.811h-9.861V57.744z"></path><path fill="none" d="M50.84,13.867c-0.985-0.984-2.279-1.477-3.573-1.477c-1.293,0-2.587,0.492-3.572,1.477   c-1.97,1.97-1.97,5.175,0,7.145c1.29,1.289,6.232,2.465,10.224,3.078C53.305,20.099,52.129,15.156,50.84,13.867z"></path><path fill="none" d="M64.645,58.184c0.245,0.077,0.49,0.164,0.732,0.266c0.506,0.212,0.978,0.483,1.405,0.802   c0.802-0.493,1.921-1.047,3.381-1.769c0.547-0.271,0.986-0.484,1.161-0.589l6.335-3.791V38.233H64.645V58.184z"></path><path fill="none" d="M70.351,12.419c-1.127-1.127-2.607-1.69-4.087-1.69s-2.96,0.563-4.087,1.69   c-1.554,1.554-2.855,7.353-3.502,11.676c4.323-0.647,10.122-1.948,11.676-3.502C72.604,18.339,72.604,14.673,70.351,12.419z"></path><path d="M6.61,77.365l11.825,13.758c0.65,0.755,1.572,1.146,2.502,1.146c0.701,0,1.407-0.223,2.003-0.68l11.304-8.658   c0.848,0.123,1.696,0.136,2.557,0.136l25.124,0.005c1.263,0,2.693,0,4.088-0.51c1.634-0.597,2.888-1.784,3.896-2.738   c0.27-0.256,26.758-26.035,24.095-31.987c-0.16-0.358-0.455-0.64-0.819-0.783c-3.267-1.285-6.662,0.745-8.485,1.836l-4.042,2.418   V38.233h3.184V24.811H68.714c1.581-0.585,2.94-1.279,3.758-2.097c3.423-3.423,3.423-8.993,0-12.416   c-3.423-3.424-8.993-3.424-12.416,0c-1.819,1.818-3.035,6.309-3.764,9.989c-0.668-3.236-1.74-6.949-3.331-8.541   c-3.14-3.14-8.248-3.138-11.387,0c-3.14,3.14-3.14,8.247,0,11.387c0.642,0.642,1.639,1.197,2.802,1.678h-14.79v13.422h3.184v16.461   c-1.223,0.109-2.499,0.366-3.856,0.834c-4.461,1.539-8.7,4.517-13.335,9.371l-8.682,7.875C5.563,73.983,5.437,75.999,6.61,77.365z    M80.843,27.811v7.422h-0.184H64.645v-7.422H80.843z M77.659,38.233v14.871l-6.335,3.791c-0.175,0.104-0.614,0.318-1.161,0.589   c-1.46,0.722-2.579,1.275-3.381,1.769c-0.427-0.318-0.899-0.59-1.405-0.802c-0.243-0.102-0.487-0.189-0.732-0.266V38.233H77.659z    M62.177,12.419c1.127-1.127,2.607-1.69,4.087-1.69s2.96,0.563,4.087,1.69c2.253,2.254,2.253,5.92,0,8.174   c-1.554,1.554-7.353,2.854-11.676,3.502C59.322,19.772,60.623,13.973,62.177,12.419z M61.645,27.811v29.902   c-0.634-0.027-1.257-0.024-1.853-0.019c-0.811,0.006-1.644,0.022-2.492,0.038c-1.828,0.036-3.682,0.067-5.517,0.013V27.811H61.645z    M43.695,21.012c-1.97-1.97-1.97-5.175,0-7.145c0.985-0.984,2.279-1.477,3.572-1.477c1.294,0,2.588,0.492,3.573,1.477   c1.29,1.289,2.465,6.231,3.079,10.223C49.927,23.477,44.984,22.301,43.695,21.012z M32.586,35.233v-7.422h16.198v7.422H32.77   H32.586z M48.783,38.233v19.322c-1.356-0.137-2.689-0.345-3.972-0.679c-0.908-0.237-1.779-0.489-2.627-0.735   c-2.139-0.619-4.219-1.219-6.415-1.43V38.233H48.783z M8.912,74.996l8.722-7.912c0.024-0.024,0.049-0.048,0.074-0.072   c4.309-4.52,8.18-7.267,12.184-8.649c1.525-0.525,2.919-0.737,4.272-0.737c2.366,0,4.604,0.648,7.186,1.396   c0.873,0.253,1.77,0.513,2.705,0.756c4.318,1.126,9.092,1.035,13.303,0.954c0.836-0.017,1.658-0.032,2.457-0.038   c1.524-0.013,3.103-0.023,4.401,0.521c0.468,0.196,0.89,0.492,1.217,0.835c0.091,0.167,0.204,0.302,0.33,0.409   c0.149,0.224,0.257,0.456,0.313,0.688c0.141,0.577-0.029,1.144-0.519,1.73c-0.75,0.901-1.899,1.396-3.264,1.405l-16.729-0.091   c-0.007,0-0.013,0-0.02,0c-0.922,0-1.789,0.358-2.442,1.01c-0.006,0.006-0.011,0.011-0.017,0.017   c-0.743,0.751-0.127,2.04,0.929,2.04h18.768c2.022-0.118,3.854-0.992,5.078-2.46c1.094-1.313,1.496-2.861,1.129-4.362   c-0.019-0.076-0.039-0.151-0.061-0.227c0.188-0.251,0.297-0.561,0.299-0.889c0.793-0.424,1.73-0.887,2.264-1.151   c0.647-0.32,1.164-0.579,1.371-0.703l13.376-8.004c1.587-0.949,3.357-1.922,4.922-1.818c-1.097,3.964-12.521,17.773-23.315,28.001   c-0.849,0.804-1.811,1.714-2.862,2.098c-0.896,0.328-1.996,0.328-3.059,0.328l-25.124-0.005c-0.962,0-1.822-0.015-2.607-0.193   c-0.437-0.101-0.892-0.001-1.246,0.271l-11.833,9.064c-0.125,0.096-0.303,0.077-0.406-0.042L8.886,75.41   C8.781,75.288,8.792,75.104,8.912,74.996z"></path></g></svg>