<svg height='100px' width='100px'  fill="#000000" xmlns="http://www.w3.org/2000/svg" viewBox="0 0 48 48" x="0px" y="0px"><defs><style>.cls-1{fill:#000000;}</style></defs><title>Learning-Study</title><g><path class="cls-1" d="M6,2H4A2,2,0,0,0,2,4V41a1,1,0,0,0,.1.447l2,4a1,1,0,0,0,1.79,0l2-4A1,1,0,0,0,8,41V4A2,2,0,0,0,6,2ZM6,4V8H4V4ZM5.382,42H4.618L4,40.764V10H6V40.764Z"></path><path class="cls-1" d="M45.383,18.076a1,1,0,0,0-1.09.217l-6,6,1.414,1.414L44,21.414V24H43v2h1v2H43v2h1v2H43v2h1v2H43v2h1v2H43v2h1v2H42V43H40v1H38V43H36v1H34V43H32v1H30V43H28v1H26V43H24v1H21.414l4.293-4.293-1.414-1.414-6,6A1,1,0,0,0,19,46H45a1,1,0,0,0,1-1V19A1,1,0,0,0,45.383,18.076Z"></path><path class="cls-1" d="M31.929,39l-.636-.636-.929.929A1,1,0,0,0,31.071,41H40a1,1,0,0,0,1-1V31.071a1,1,0,0,0-1.707-.707l-.929.929.636.636V39Z"></path><path class="cls-1" d="M38,34.96V5.04A3.044,3.044,0,0,0,34.96,2H13.04A3.044,3.044,0,0,0,10,5.04V34.96A3.044,3.044,0,0,0,13.04,38H34.96A3.044,3.044,0,0,0,38,34.96Zm-26,0V5.04A1.04,1.04,0,0,1,13.04,4H34.96A1.04,1.04,0,0,1,36,5.04V34.96A1.04,1.04,0,0,1,34.96,36H13.04A1.04,1.04,0,0,1,12,34.96Z"></path><path class="cls-1" d="M14,13H34a1,1,0,0,0,1-1V6a1,1,0,0,0-1-1H14a1,1,0,0,0-1,1v6A1,1,0,0,0,14,13Zm1-6H33v4H15Z"></path><path class="cls-1" d="M18,15H14a1,1,0,0,0-1,1v4a1,1,0,0,0,1,1h4a1,1,0,0,0,1-1V16A1,1,0,0,0,18,15Zm-1,4H15V17h2Z"></path><path class="cls-1" d="M26,15H22a1,1,0,0,0-1,1v4a1,1,0,0,0,1,1h4a1,1,0,0,0,1-1V16A1,1,0,0,0,26,15Zm-1,4H23V17h2Z"></path><path class="cls-1" d="M34,15H30a1,1,0,0,0-1,1v4a1,1,0,0,0,1,1h4a1,1,0,0,0,1-1V16A1,1,0,0,0,34,15Zm-1,4H31V17h2Z"></path><path class="cls-1" d="M18,22H14a1,1,0,0,0-1,1v4a1,1,0,0,0,1,1h4a1,1,0,0,0,1-1V23A1,1,0,0,0,18,22Zm-1,4H15V24h2Z"></path><path class="cls-1" d="M26,22H22a1,1,0,0,0-1,1v4a1,1,0,0,0,1,1h4a1,1,0,0,0,1-1V23A1,1,0,0,0,26,22Zm-1,4H23V24h2Z"></path><path class="cls-1" d="M34,22H30a1,1,0,0,0-1,1v4a1,1,0,0,0,1,1h4a1,1,0,0,0,1-1V23A1,1,0,0,0,34,22Zm-1,4H31V24h2Z"></path><path class="cls-1" d="M18,29H14a1,1,0,0,0-1,1v4a1,1,0,0,0,1,1h4a1,1,0,0,0,1-1V30A1,1,0,0,0,18,29Zm-1,4H15V31h2Z"></path><path class="cls-1" d="M26,29H22a1,1,0,0,0-1,1v4a1,1,0,0,0,1,1h4a1,1,0,0,0,1-1V30A1,1,0,0,0,26,29Zm-1,4H23V31h2Z"></path><path class="cls-1" d="M35,30a1,1,0,0,0-1-1H30a1,1,0,0,0-1,1v4a1,1,0,0,0,1,1h4a1,1,0,0,0,1-1Zm-2,3H31V31h2Z"></path></g></svg>