<svg height='100px' width='100px'  fill="#000000" xmlns="http://www.w3.org/2000/svg" version="1.1" viewBox="0 0 84 64" x="0px" y="0px"><title>chat</title><path d="M34.523 3.498c-16.525 0-29.668 10.553-29.668 24.18 0 8.051 5.527 13.769 10.379 17.273v11.082c0 0.565 0.284 1.105 0.766 1.418 0.001 0.001 0.003 0.003 0.004 0.004 0.273 0.175 0.591 0.27 0.918 0.27 0.249 0 0.483-0.056 0.684-0.145 0.001-0.001 0.003-0.003 0.004-0.004 0.341-0.152 6.058-2.783 11.156-8.207 2.102 0.381 4.43 0.758 6.625 0.758 8.33 0 15.357-2.209 20.332-6.141s7.859-9.61 7.859-16.313c0-13.814-12.621-24.176-29.059-24.176zM34.523 6.877c14.771 0 25.68 8.98 25.68 20.797 0 5.713-2.437 10.414-6.75 13.762s-10.539 5.316-18.063 5.316c-2.161 0-4.7-0.422-6.906-0.844-0.004 0-0.008 0-0.012 0-0.575-0.104-1.174 0.087-1.574 0.535 0 0.001 0 0.003 0 0.004-2.948 3.325-6.13 5.414-8.289 6.68v-9.020c0-0.554-0.275-1.078-0.73-1.391-4.459-3.069-9.648-8.145-9.648-15.039 0-11.587 11.429-20.801 26.293-20.801zM67.586 27.791c-0.875-0.268-1.835 0.223-2.113 1.102-0.279 0.881 0.22 1.839 1.098 2.121 0.001 0 0.003 0 0.004 0 3.301 1.052 5.611 2.346 7.070 3.902s2.129 3.371 2.129 5.734c0 3.994-3.829 7.36-6.188 8.984-0.454 0.312-0.734 0.83-0.734 1.391v5.285c-1.169-0.562-2.581-1.388-3.965-2.945 0-0.001 0-0.003 0-0.004-0.399-0.446-1.001-0.644-1.582-0.535-0.001 0-0.003 0-0.004 0-0.53 0.103-1.047 0.242-1.559 0.379-0.001 0-0.003 0-0.004 0-0.882 0.238-1.734 0.457-2.441 0.457-4.324 0-7.183-0.883-10.242-3.133 0-0.001 0-0.003 0-0.004-0.744-0.545-1.816-0.38-2.363 0.359-0.551 0.745-0.387 1.818 0.355 2.367 0.001 0 0.003 0 0.004 0 3.625 2.666 7.279 3.789 12.242 3.789 1.231 0 2.331-0.302 3.32-0.57 0.001 0 0.003 0 0.004 0 0.173-0.047 0.331-0.086 0.496-0.129 1.583 1.561 3.228 2.614 4.531 3.223 1.404 0.656 2.325 0.859 2.551 0.902 0.002 0 0.006-0 0.008 0 0.090 0.018 0.206 0.035 0.332 0.035 0.382 0 0.76-0.127 1.066-0.379 0.396-0.321 0.625-0.802 0.625-1.313v-6.949c4.37-3.233 6.918-7.161 6.918-11.211 0-3.088-0.951-5.749-2.895-7.887s-4.825-3.748-8.656-4.969c-0.003-0.001-0.005-0.003-0.008-0.004z"></path></svg>