<svg height='100px' width='100px'  fill="#000000" xmlns="http://www.w3.org/2000/svg" viewBox="0 0 64 64" x="0px" y="0px"><title>1</title><g data-name="Layer 3"><path d="M53.71,23,41,10.29a1,1,0,0,0-1.41,0l-1.3,1.3a3.59,3.59,0,0,0-1,3.45l-17.42,15a5.5,5.5,0,0,0-7,.59,1,1,0,0,0,0,1.41l8.84,8.84L10.29,52.29a1,1,0,1,0,1.41,1.41L23.09,42.32l8.84,8.84a1,1,0,0,0,1.41,0,5.5,5.5,0,0,0,.59-7L49,26.69a3.59,3.59,0,0,0,3.45-1l1.3-1.3A1,1,0,0,0,53.71,23ZM32.53,48.94,15.06,31.47a3.51,3.51,0,0,1,4.14.6L31.93,44.8A3.51,3.51,0,0,1,32.53,48.94Zm0-6.32-11.2-11.2,16.94-14.6,8.87,8.87ZM51,24.32a1.71,1.71,0,0,1-2.36,0l-9-9a1.67,1.67,0,0,1,0-2.36l.59-.59L51.59,23.73Z"></path></g></svg>