<?xml version="1.0" encoding="utf-8"?>
<!-- Generator: Adobe Illustrator 26.0.1, SVG Export Plug-In . SVG Version: 6.00 Build 0)  -->
<svg version="1.1" id="Layer_1" xmlns="http://www.w3.org/2000/svg" xmlns:xlink="http://www.w3.org/1999/xlink" x="0px" y="0px"
	 viewBox="0 0 553.4 553.4" style="enable-background:new 0 0 553.4 553.4;" xml:space="preserve">
<style type="text/css">
	.st0{stroke:#000000;fill: #000000;stroke-width:5.6022;stroke-miterlimit:22.4;}
	.st1{fill: #000000;fill-rule:evenodd;clip-rule:evenodd;}
</style>
<g>
	<path class="st0" d="M89.8,92.6h372c11.5,0,20.9,7.5,20.9,16.7v213.4c0,9.2-9.4,16.7-20.9,16.7h-372c-11.5,0-20.9-7.5-20.9-16.7
		V109.3C68.9,100,78.3,92.6,89.8,92.6L89.8,92.6z M461.8,104h-372c-3.6,0-6.6,2.4-6.6,5.3v213.4c0,2.9,3,5.3,6.6,5.3h372
		c3.6,0,6.6-2.4,6.6-5.3V109.3C468.3,106.4,465.4,104,461.8,104L461.8,104z"/>
	<path fill="#000000" d="M486.6,350.7l59.2,90.2c-3.4,9.4-7.2,17.6-17.7,20H25c-11-3-18.3-11.1-17.2-22.9L65,350.8L486.6,350.7L486.6,350.7z
		 M478.9,365H72.7l-50.6,77.1c1.3,1.8,3,3.2,4.9,4.4h499.2c1.5-1,2.6-2.4,3.5-4L478.9,365L478.9,365z"/>
	<path class="st1" d="M76.1,372.8h399.5l18,40.9H58.1L76.1,372.8z"/>
</g>
</svg>
