<svg height='100px' width='100px'  fill="#000000" xmlns="http://www.w3.org/2000/svg" xmlns:xlink="http://www.w3.org/1999/xlink" version="1.1" x="0px" y="0px" viewBox="0 0 100 100" style="enable-background:new 0 0 100 100;" xml:space="preserve"><g><path d="M85.715,59.725V47.619H52.381v-7.344c6.758-1.135,11.904-7.007,11.904-14.085c0-7.889-6.394-14.285-14.285-14.285   S35.714,18.302,35.714,26.19c0,7.078,5.147,12.95,11.905,14.085v7.344H14.286v12.105C7.529,60.859,2.381,66.731,2.381,73.81   c0,7.889,6.394,14.285,14.286,14.285s14.286-6.396,14.286-14.285c0-7.078-5.147-12.95-11.905-14.085v-7.344h28.571v7.344   c-6.757,1.135-11.905,7.007-11.905,14.085c0,7.889,6.394,14.285,14.286,14.285s14.285-6.396,14.285-14.285   c0-7.078-5.146-12.95-11.904-14.085v-7.344h28.571v7.344c-6.757,1.135-11.904,7.007-11.904,14.085   c0,7.889,6.394,14.285,14.285,14.285s14.286-6.396,14.286-14.285C97.619,66.731,92.471,60.859,85.715,59.725z M26.19,73.81   c0,5.25-4.269,9.523-9.523,9.523S7.143,79.06,7.143,73.81s4.269-9.524,9.524-9.524S26.19,68.56,26.19,73.81z M59.523,73.81   c0,5.25-4.269,9.523-9.523,9.523s-9.523-4.273-9.523-9.523s4.269-9.524,9.523-9.524S59.523,68.56,59.523,73.81z M50,35.715   c-5.255,0-9.523-4.274-9.523-9.524s4.269-9.523,9.523-9.523s9.523,4.273,9.523,9.523S55.255,35.715,50,35.715z M83.333,83.333   c-5.255,0-9.523-4.273-9.523-9.523s4.269-9.524,9.523-9.524s9.524,4.274,9.524,9.524S88.588,83.333,83.333,83.333z"></path></g></svg>