<svg height='100px' width='100px'  fill="#000000" xmlns:x="http://ns.adobe.com/Extensibility/1.0/" xmlns:i="http://ns.adobe.com/AdobeIllustrator/10.0/" xmlns:graph="http://ns.adobe.com/Graphs/1.0/" xmlns="http://www.w3.org/2000/svg" xmlns:xlink="http://www.w3.org/1999/xlink" version="1.1" x="0px" y="0px" viewBox="0 0 100 100" enable-background="new 0 0 100 100" xml:space="preserve"><g><g i:extraneous="self"><g><path d="M81.3,11.2V5H12.4v83.8h6.2V95h35.1l4.9-6.2h22.8V59.6l6.2-8V11.2H81.3z M18.7,86.3h-3.8V7.5h64v3.8H18.7V86.3z      M78.9,86.3H60.5l18.4-23.6V86.3z M54.3,90.3L57,63.4l26.1-10.1L54.3,90.3z M85.1,50.8L85.1,50.8L55.5,62.3l-1.7,17.1     c-0.1-0.1-0.2-0.2-0.4-0.2c-0.3,0-0.6,0.3-0.6,0.6c0,0.3,0.3,0.6,0.6,0.6c0.1,0,0.2,0,0.3-0.1l-1.2,12.2H21.1V13.7h64V50.8z"></path><circle cx="24.5" cy="51" r="0.6"></circle><circle cx="29.3" cy="51" r="0.6"></circle><circle cx="34.1" cy="51" r="0.6"></circle><circle cx="38.9" cy="51" r="0.6"></circle><circle cx="43.7" cy="51" r="0.6"></circle><circle cx="48.5" cy="51" r="0.6"></circle><circle cx="58.1" cy="51" r="0.6"></circle><circle cx="63" cy="51" r="0.6"></circle><circle cx="67.8" cy="51" r="0.6"></circle><circle cx="72.6" cy="51" r="0.6"></circle><circle cx="77.4" cy="51" r="0.6"></circle><circle cx="53.3" cy="17.2" r="0.6"></circle><circle cx="53.3" cy="22" r="0.6"></circle><circle cx="53.3" cy="26.8" r="0.6"></circle><circle cx="53.3" cy="31.6" r="0.6"></circle><circle cx="53.3" cy="36.4" r="0.6"></circle><circle cx="53.3" cy="41.3" r="0.6"></circle><circle cx="53.3" cy="46.1" r="0.6"></circle><circle cx="53.3" cy="51" r="0.6"></circle><circle cx="53.3" cy="55.8" r="0.6"></circle><circle cx="53.3" cy="60.6" r="0.6"></circle><circle cx="53.3" cy="65.4" r="0.6"></circle><circle cx="53.3" cy="70.2" r="0.6"></circle><circle cx="53.3" cy="75" r="0.6"></circle></g></g></g></svg>