<svg height='100px' width='100px'  fill="#000000" xmlns:dc="http://purl.org/dc/elements/1.1/" xmlns:cc="http://creativecommons.org/ns#" xmlns:rdf="http://www.w3.org/1999/02/22-rdf-syntax-ns#" xmlns:svg="http://www.w3.org/2000/svg" xmlns="http://www.w3.org/2000/svg" xmlns:sodipodi="http://sodipodi.sourceforge.net/DTD/sodipodi-0.dtd" xmlns:inkscape="http://www.inkscape.org/namespaces/inkscape" viewBox="0 0 16.933333 16.933333" version="1.1" x="0px" y="0px"><path style="color:#000000;font-style:normal;font-variant:normal;font-weight:normal;font-stretch:normal;font-size:medium;line-height:normal;font-family:sans-serif;font-variant-ligatures:normal;font-variant-position:normal;font-variant-caps:normal;font-variant-numeric:normal;font-variant-alternates:normal;font-feature-settings:normal;text-indent:0;text-align:start;text-decoration:none;text-decoration-line:none;text-decoration-style:solid;text-decoration-color:#000000;letter-spacing:normal;word-spacing:normal;text-transform:none;writing-mode:lr-tb;direction:ltr;text-orientation:mixed;dominant-baseline:auto;baseline-shift:baseline;text-anchor:start;white-space:normal;shape-padding:0;clip-rule:nonzero;display:inline;overflow:visible;visibility:visible;opacity:1;isolation:auto;mix-blend-mode:normal;color-interpolation:sRGB;color-interpolation-filters:linearRGB;solid-color:#000000;solid-opacity:1;vector-effect:none;fill:#000000;fill-opacity:1;fill-rule:nonzero;stroke:none;stroke-width:5.29166603;stroke-linecap:butt;stroke-linejoin:miter;stroke-miterlimit:4;stroke-dasharray:none;stroke-dashoffset:0;stroke-opacity:1;paint-order:fill markers stroke;color-rendering:auto;image-rendering:auto;shape-rendering:auto;text-rendering:auto;enable-background:accumulate" d="m 9.5439265,9.5440515 0.18081,0.5903605 1.5019395,4.90689 1.13861,-1.13813 2.50113,2.50112 1.53775,-1.53775 -2.50112,-2.50113 1.13861,-1.13861 z m 0.9882995,0.9883005 3.27424,1.0021 -0.83097,0.83096 2.50113,2.50113 -0.61021,0.61021 -2.50113,-2.50113 -0.83072,0.83073 z M 8.3987765,0.5290415 c -4.34238,0 -7.86961,3.52723 -7.86961,7.8696 0,4.3423805 3.52723,7.8696105 7.86961,7.8696105 0.87062,0 1.7083595,-0.14208 2.4915895,-0.4038 l -0.19002,-0.62685 c -0.14831,0.0498 -0.29872,0.0951 -0.45118,0.13539 0.12546,-0.1317 0.24595,-0.27616 0.36139,-0.43159 l -0.24618,-0.812 c -0.4862795,0.81016 -1.0571195,1.30704 -1.6378295,1.44392 v -3.22899 c 0.38069,0.008 0.75335,0.0306 1.11652,0.0653 l -0.20538,-0.67745 c -0.29848,-0.0229 -0.60243,-0.0378 -0.91114,-0.0439 V 8.7266115 h 2.9473795 c -0.006,0.30109 -0.0215,0.59733 -0.0446,0.88776 l 0.64247,0.19648 c 0.0312,-0.35377 0.051,-0.71566 0.0583,-1.08424 h 3.27464 c -0.031,0.69338 -0.15965,1.3609995 -0.37235,1.9896795 l 0.62647,0.19162 c 0.2655,-0.78828 0.40956,-1.6321095 0.40956,-2.5092695 0,-4.34237 -3.52722,-7.8696 -7.8695995,-7.8696 z m 0.32777,0.69512 c 0.70022,0.16505 1.3862195,0.85306 1.9267295,1.98322 0.15608,0.32634 0.29807,0.68629 0.42333,1.07451 -0.73172,0.13677 -1.5229195,0.21996 -2.3500595,0.23748 z m -0.65574,0 v 3.29514 c -0.82719,-0.0175 -1.61838,-0.10075 -2.35012,-0.23753 0.12525,-0.38821 0.26732,-0.74813 0.42339,-1.07445 0.54046,-1.13005 1.22653,-1.81803 1.92673,-1.98316 z m -1.52269,0.2002 c -0.37893,0.39783 -0.71341,0.90991 -0.9956,1.49995 -0.17869,0.37363 -0.33836,0.78224 -0.477,1.21964 -0.7299,-0.17665 -1.38574,-0.40836 -1.94024,-0.68065 0.91033,-0.97054 2.08628,-1.68861 3.41284,-2.03894 z m 3.7012995,0 c 1.32654,0.35033 2.50244,1.0684 3.41273,2.03894 -0.55449,0.27229 -1.21024,0.504 -1.94012,0.68065 -0.13864,-0.4374 -0.29824,-0.84601 -0.47693,-1.21964 -0.28219,-0.59004 -0.61674,-1.10212 -0.99568,-1.49995 z m -7.5526495,2.55224 c 0.63203,0.32894 1.37434,0.60056 2.19783,0.80176 -0.25324,0.9935 -0.40359,2.10896 -0.4271,3.29245 h -3.2749 c 0.0687,-1.54029 0.61893,-2.95386 1.50417,-4.09421 z m 11.4038795,0 c 0.88521,1.14036 1.43536,2.55396 1.50405,4.09427 h -3.27464 c -0.0235,-1.18352 -0.17386,-2.29899 -0.42711,-3.29251 0.82344,-0.20121 1.56571,-0.47284 2.1977,-0.80176 z m -8.5632495,0.94099 c 0.79063,0.15095 1.64271,0.24008 2.53341,0.25771 v 2.89551 h -2.94745 c 0.024,-1.13994 0.17246,-2.21159 0.41404,-3.15322 z m 5.7224995,0 c 0.24158,0.94163 0.39001,2.01328 0.41403,3.15322 H 8.7265465 v -2.89551 c 0.89067,-0.0176 1.7427405,-0.10677 2.5333495,-0.25771 z m -10.0672995,3.80902 h 3.2749 c 0.024,1.20832 0.18008,2.3458695 0.44305,3.3549495 -0.81384,0.19773 -1.54885,0.46407 -2.17689,0.78645 -0.90685,-1.14843 -1.47136,-2.57985 -1.54106,-4.1413995 z m 3.93076,0 h 2.94745 v 2.9616705 c -0.88452,0.0175 -1.73095,0.10561 -2.51695,0.2547 -0.25124,-0.95677 -0.40591,-2.0509105 -0.4305,-3.2163705 z m 2.94745,3.6177205 v 3.22892 c -0.7002,-0.16513 -1.38627,-0.85304 -1.92673,-1.98309 -0.14764,-0.3087 -0.28257,-0.64784 -0.40277,-1.0122 0.72597,-0.134471 1.51009,-0.21628 2.3295,-0.23363 z m -2.97588,0.37049 c 0.13403,0.4143 0.28726,0.8019 0.45759,1.15802 0.28226,0.59019 0.61681,1.10241 0.99586,1.50028 -1.30595,-0.34486 -2.46626,-1.04583 -3.37058,-1.99353 0.55038,-0.265801 1.19805,-0.49203 1.91713,-0.66477 z"></path></svg>