<svg height='100px' width='100px'  fill="#000000" xmlns="http://www.w3.org/2000/svg" viewBox="0 0 64 64" x="0px" y="0px"><g data-name="Magnifying glass"><path d="M54.385,9.615a12.995,12.995,0,1,0,0,18.385A12.91,12.91,0,0,0,54.385,9.615ZM52.971,26.586a10.995,10.995,0,1,1,0-15.557A10.928,10.928,0,0,1,52.971,26.586Z"></path><path d="M57.213,6.787A17,17,0,0,0,30.685,27.658l-3.877,3.878s-.007.012-.012.017a5.018,5.018,0,0,0-.7-.068,4.967,4.967,0,0,0-3.536,1.465L4.181,51.334a5,5,0,0,0,0,7.071L5.6,59.82a5,5,0,0,0,7.07,0L31.05,41.435a4.731,4.731,0,0,0,1.4-4.231c0-.005.012-.006.018-.012l3.877-3.877A17,17,0,0,0,57.213,6.787ZM29.636,40.021,11.251,58.406a3.072,3.072,0,0,1-4.242,0L5.6,56.991a3,3,0,0,1,0-4.242L23.979,34.364a3.073,3.073,0,0,1,4.243,0l1.414,1.414a3,3,0,0,1,0,4.243ZM55.8,29.414a15,15,0,0,1-19.03,1.8,1,1,0,0,0-1.27.12l-3.741,3.741-2.829-2.828L32.67,28.5a1,1,0,0,0,.119-1.27A15,15,0,1,1,55.8,29.414Z"></path></g></svg>