<svg height='100px' width='100px'  fill="#000000" xmlns="http://www.w3.org/2000/svg" xmlns:xlink="http://www.w3.org/1999/xlink" version="1.1" x="0px" y="0px" viewBox="0 0 512 512" style="enable-background:new 0 0 512 512;" xml:space="preserve"><g><path d="M256,31C131.649,31,31,131.633,31,256c0,124.351,100.633,225,225,225c124.349,0,225-100.632,225-225   C481,131.65,380.368,31,256,31z M438.142,350h-45.499c7.984-26.149,12.574-54.575,13.423-84h54.688   C459.298,296.154,451.295,324.616,438.142,350z M51.247,266h54.686c0.849,29.425,5.439,57.851,13.423,84H73.858   C60.705,324.616,52.703,296.154,51.247,266z M74.915,160h45.059c-8.365,26.697-13.169,55.824-14.041,86H51.247   C52.741,215.051,61.137,185.885,74.915,160z M312.688,246c-0.297-30.239-1.938-59.386-4.789-86h63.103   c8.962,26.354,14.132,55.557,15.061,86H312.688z M219.312,246c0.302-30.368,1.981-59.546,4.898-86h63.579   c2.916,26.454,4.596,55.632,4.898,86H219.312z M292.688,266c-0.295,29.604-1.899,58.077-4.683,84h-64.011   c-2.783-25.923-4.387-54.396-4.682-84H292.688z M305.463,140c-3.477-25.286-10.025-61.013-21.056-84.051   c36.672,12.965,63.119,48.436,78.819,84.051H305.463z M279.277,106.096c2.271,10.447,4.272,21.812,5.993,33.904h-58.542   c1.721-12.092,3.723-23.457,5.994-33.904C242.568,60.804,253.758,51,256,51S269.431,60.804,279.277,106.096z M227.592,55.949   c-11.028,23.038-17.576,58.748-21.056,84.051h-57.764C164.474,104.385,190.923,68.912,227.592,55.949z M204.101,160   c-2.852,26.614-4.493,55.761-4.79,86h-73.375c0.929-30.443,6.099-59.646,15.061-86H204.101z M125.937,266h73.375   c0.289,29.482,1.855,57.929,4.577,84h-63.565C131.774,324.173,126.842,295.675,125.937,266z M206.268,370   c3.47,25.855,10.068,62.539,21.324,86.051c-37.244-13.167-64.008-49.568-79.69-86.051H206.268z M232.722,405.903   c-2.396-11.021-4.493-23.061-6.276-35.903h59.108c-1.783,12.843-3.88,24.882-6.276,35.903C269.431,451.196,258.242,461,256,461   S242.568,451.196,232.722,405.903z M284.407,456.052c11.257-23.513,17.855-60.202,21.324-86.052h58.365   C348.427,406.463,321.66,442.881,284.407,456.052z M308.111,350c2.721-26.071,4.287-54.518,4.576-84h73.374   c-0.905,29.675-5.837,58.173-14.386,84H308.111z M406.065,246c-0.87-30.176-5.675-59.303-14.04-86h45.06   c13.778,25.885,22.174,55.051,23.668,86H406.065z M424.927,140h-40.022c-10.454-26.087-25.418-51.268-45.056-71.055   C374.293,84.446,403.706,109.192,424.927,140z M172.15,68.945c-19.637,19.786-34.602,44.97-45.055,71.055H87.073   C108.294,109.192,137.707,84.446,172.15,68.945z M85.704,370h40.589c10.391,26.555,25.604,52.646,45.857,73.055   C136.963,427.22,107.02,401.739,85.704,370z M339.849,443.055c20.249-20.403,35.464-46.492,45.857-73.055h40.59   C404.979,401.739,375.036,427.22,339.849,443.055z"></path></g></svg>