<svg height='100px' width='100px'  fill="#000000" xmlns="http://www.w3.org/2000/svg" xmlns:xlink="http://www.w3.org/1999/xlink" version="1.1" x="0px" y="0px" viewBox="0 0 100 100" enable-background="new 0 0 100 100" xml:space="preserve"><path fill-rule="evenodd" clip-rule="evenodd" d="M56.5,44.5v-36h36v36H56.5z M90.5,10.5h-32v32h32V10.5z M8.5,32.5h36v12h-36V32.5z   M10.5,42.5h32v-8h-32V42.5z M8.5,8.5h36v12h-36V8.5z M10.5,18.5h32v-8h-32V18.5z M92.5,68.5h-84v-12h84V68.5z M90.5,58.5h-80v8h80  V58.5z M92.5,92.5h-84v-12h84V92.5z M90.5,82.5h-80v8h80V82.5z"></path></svg>