<svg height='100px' width='100px'  fill="#000000" xmlns="http://www.w3.org/2000/svg" xmlns:xlink="http://www.w3.org/1999/xlink" version="1.1" x="0px" y="0px" viewBox="0 0 512 512" style="enable-background:new 0 0 512 512;" xml:space="preserve"><g><path d="M414.661,196.715C427.141,100.618,352.034,16,256,16c-96.134,0-171.129,84.707-158.661,180.715   C48.816,224.227,16,276.35,16,336c0,88.225,71.776,160,160,160c29.124,0,56.452-7.826,80-21.479   C279.549,488.174,306.877,496,336,496c88.225,0,160-71.775,160-160C496,276.35,463.184,224.227,414.661,196.715z M256,36   c81.469,0,146.204,69.714,139.525,151.491c-44.127-17.75-95.84-15.339-139.525,9.988c-43.686-25.328-95.4-27.738-139.525-9.988   C109.79,105.638,174.613,36,256,36z M256,450.823c-39.831-27.836-63.708-75.095-59.525-126.314   c37.794,15.205,80.65,15.448,119.051,0.001C319.708,375.716,295.84,422.981,256,450.823z M199.658,304.148   c7.97-34.126,28.461-63.488,56.342-82.972c27.881,19.484,48.372,48.846,56.342,82.972   C276.545,319.948,235.499,319.968,199.658,304.148z M181.479,294.465c-30.668-19.361-53.337-50.289-61.82-86.613   c36.959-16.313,80.176-16.021,117.641,2.302C210.5,231.218,190.578,260.646,181.479,294.465z M274.701,210.153   c37.466-18.323,80.68-18.615,117.641-2.302c-8.483,36.325-31.152,67.252-61.82,86.613   C321.422,260.646,301.5,231.218,274.701,210.153z M176,476c-77.196,0-140-62.804-140-140c0-49.825,26.168-93.648,65.479-118.465   c11.244,41.787,39.021,76.862,75.861,97.75c-7.457,57.413,16.423,112.342,59.959,146.562C218.775,470.906,197.972,476,176,476z    M336,476c-21.972,0-42.774-5.094-61.299-14.153c43.567-34.244,67.411-89.189,59.96-146.562   c36.84-20.888,64.617-55.963,75.86-97.75C449.831,242.352,476,286.175,476,336C476,413.196,413.196,476,336,476z"></path></g></svg>