<svg height='100px' width='100px'  fill="#000000" xmlns="http://www.w3.org/2000/svg" viewBox="0 0 58 66" x="0px" y="0px"><path fill="#000000" fill-rule="evenodd" d="M210.5,417.133975 L238.212813,433.133975 C238.522214,433.312607 238.712813,433.642734 238.712813,434 L238.712813,466 C238.712813,466.357266 238.522214,466.687393 238.212813,466.866025 L210.5,482.866025 C210.190599,483.044658 209.809401,483.044658 209.5,482.866025 L181.787187,466.866025 C181.477786,466.687393 181.287187,466.357266 181.287187,466 L181.287187,434 C181.287187,433.642734 181.477786,433.312607 181.787187,433.133975 L209.5,417.133975 C209.809401,416.955342 210.190599,416.955342 210.5,417.133975 Z M184.287187,434 L209,448.267949 L209,419.732051 L184.287187,434 Z M211,419.732051 L211,448.267949 L235.712813,434 L211,419.732051 Z M236.712813,435.732051 L212,450 L236.712813,464.267949 L236.712813,435.732051 Z M235.712813,466 L211,451.732051 L211,480.267949 L235.712813,466 Z M209,480.267949 L209,451.732051 L184.287187,466 L209,480.267949 Z M183.287187,464.267949 L208,450 L183.287187,435.732051 L183.287187,464.267949 Z" transform="translate(-181 -417)"></path></svg>