<svg height='100px' width='100px'  fill="#000000" xmlns="http://www.w3.org/2000/svg" xmlns:xlink="http://www.w3.org/1999/xlink" version="1.1" x="0px" y="0px" viewBox="0 0 100 100" style="enable-background:new 0 0 100 100;" xml:space="preserve"><g><g><path d="M71.06,71.8c-0.51,0-1.03-0.2-1.42-0.59c-0.78-0.78-0.77-2.05,0.01-2.83c0.86-0.85,3.03-4.11,4.24-6.01    c0.65-1.26,1.2-2.58,1.65-3.92c4.66-14.07-3.01-29.31-17.09-33.97c-6.82-2.26-14.11-1.72-20.52,1.5    c-6.42,3.23-11.19,8.76-13.45,15.57c-0.46,1.4-0.81,2.84-1.04,4.28c0,0.02-0.64,4.5-0.15,7.24c0.19,1.09-0.53,2.13-1.62,2.32    c-1.1,0.2-2.13-0.53-2.32-1.62c-0.6-3.38,0.11-8.34,0.14-8.55c0.27-1.68,0.67-3.34,1.2-4.94c2.59-7.83,8.08-14.18,15.45-17.89    c7.37-3.71,15.74-4.32,23.58-1.73c16.17,5.35,24.98,22.86,19.63,39.02c-0.52,1.57-1.17,3.11-1.93,4.58    c-0.03,0.05-0.05,0.1-0.08,0.15c-0.34,0.54-3.37,5.33-4.85,6.79C72.08,71.6,71.57,71.8,71.06,71.8z"></path></g><g><path d="M49.96,80.87c-3.24,0-6.5-0.51-9.66-1.55c-11.31-3.74-19.54-13.81-20.97-25.65c-0.13-1.1,0.65-2.09,1.75-2.23    c1.09-0.14,2.09,0.65,2.22,1.75c1.24,10.3,8.41,19.07,18.26,22.33c9.89,3.27,20.9,0.49,28.04-7.1c0.76-0.8,2.03-0.84,2.83-0.08    c0.8,0.76,0.84,2.02,0.08,2.83C66.59,77.45,58.36,80.87,49.96,80.87z"></path></g><g><path d="M80.86,72.34c-0.61,0-1.23-0.01-1.87-0.03c-9.65-0.28-21.77-2.69-34.13-6.78c-12.35-4.09-23.51-9.38-31.43-14.91    C4.76,44.57,0.99,38.93,2.51,34.31c1.51-4.57,7.81-6.85,18.21-6.59c0.31,0,3.79-0.03,6.38,0.97c1.03,0.4,1.54,1.56,1.15,2.59    c-0.4,1.03-1.56,1.54-2.59,1.15c-1.59-0.61-4.12-0.71-4.96-0.7c-9.61-0.23-13.73,1.83-14.39,3.85c-0.68,2.04,1.44,6.21,9.41,11.77    c7.6,5.31,18.4,10.42,30.39,14.39c12,3.97,23.72,6.31,32.99,6.58c9.7,0.29,13.9-1.79,14.58-3.84c0.67-2.03-1.42-6.17-9.31-11.71    c-0.1-0.07-0.2-0.15-0.29-0.24c-0.01-0.01-1.7-1.69-4.23-2.43c-1.06-0.31-1.67-1.42-1.36-2.48c0.31-1.06,1.42-1.67,2.48-1.36    c3.1,0.9,5.25,2.78,5.83,3.33c8.5,5.99,12.19,11.57,10.68,16.15C96.05,70.07,90.32,72.34,80.86,72.34z"></path></g></g></svg>