<svg height='100px' width='100px'  fill="#000000" xmlns:dc="http://purl.org/dc/elements/1.1/" xmlns:cc="http://creativecommons.org/ns#" xmlns:rdf="http://www.w3.org/1999/02/22-rdf-syntax-ns#" xmlns:svg="http://www.w3.org/2000/svg" xmlns="http://www.w3.org/2000/svg" xmlns:sodipodi="http://sodipodi.sourceforge.net/DTD/sodipodi-0.dtd" xmlns:inkscape="http://www.inkscape.org/namespaces/inkscape" version="1.1" x="0px" y="0px" viewBox="0 0 100 100"><g transform="translate(0,-952.36218)"><path style="text-indent:0;text-transform:none;direction:ltr;block-progression:tb;baseline-shift:baseline;color:#000000;enable-background:accumulate;" d="m 33.687508,959.36666 c -0.93913,0.14857 -1.69909,1.0492 -1.6875,1.9999 l 0,19.31148 c -6.20924,-2.20597 -10.94124,-6.66339 -15.21875,-15.21795 -0.35808,-0.71246 -1.17464,-1.16607 -1.96875,-1.09369 -0.98317,0.0926 -1.81676,1.01243 -1.8125,1.99989 l 0,15.99917 c -3.0548895,-10e-6 -6.1472895,0 -9.1874995,0 -0.9831704,0.0926 -1.8167504,1.01242 -1.8125004,1.99988 l 0,58.99696 c 10e-5,1.0471 0.95283,1.9998 2.0000004,1.9999 30.6666695,0 61.3333295,0 91.9999995,0 1.04717,-10e-5 1.9999,-0.9528 2,-1.9999 l 0,-58.99696 c -1.1e-4,-1.04711 -0.95283,-1.99978 -2,-1.99988 l -4,0 0,-7.99959 c -10e-5,-1.04712 -0.95283,-1.9998 -2,-1.9999 l -8,0 0,-8.99952 c 0.002,-1.00674 -0.87019,-1.93688 -1.875,-1.99989 -4.46084,-0.2788 -8.2175,1.07036 -11.28125,3.18733 -3.06375,2.11697 -5.49107,4.94892 -7.65625,7.68709 -2.16518,2.73818 -4.08206,5.41126 -5.9375,7.28087 -1.81104,1.82488 -3.40749,2.7675 -5.125,2.81235 -4.81838,-0.93384 -7.06403,-3.07074 -8.96875,-6.65589 -1.93729,-3.64647 -3.21838,-8.87343 -5.25,-14.96798 -0.34416,-1.04146 -1.26089,-1.39313 -2.21875,-1.34367 z m 44.3125,6.18721 0,55.96583 c -7.20504,0.8274 -11.84014,5.9366 -15.65625,10.562 -2.08143,2.5228 -4.01724,4.9373 -6,6.6246 -1.29115,1.2701 -2.71566,1.7568 -4.34375,2.2186 l 0,-54.8096 c 2.33803,-0.55994 4.33049,-2.03582 6.0625,-3.78106 2.20706,-2.22392 4.16518,-4.98806 6.25,-7.62459 2.08482,-2.63655 4.2825,-5.11682 6.78125,-6.8434 2.0085,-1.38783 4.29839,-2.11951 6.90625,-2.31238 z m -61,7.93708 c 4.1674,5.87374 9.08708,9.54459 15,11.37441 l 0,39.49794 c -8e-5,0.3371 0.0868,0.6738 0.25,0.9687 1.86261,3.2594 3.62946,8.0644 6.15625,12.1869 0.67064,1.0941 1.43795,2.1493 2.28125,3.1248 -3.4659,-0.543 -6.91797,-1.4108 -10.09375,-2.6561 -5.92639,-2.3239 -10.83202,-5.9438 -13.59375,-11.1869 z m 19,0.0625 c 0.51274,1.34391 0.95296,2.79366 1.59375,3.99979 2.09139,3.93655 5.3579,7.03986 10.40625,8.40581 l 0,55.12215 c -2.52634,-0.7013 -4.37221,-2.7453 -6.15625,-5.656 -2.13135,-3.4772 -3.82524,-7.9031 -5.84375,-11.5619 z m 46,2.81236 6,0 0,57.68449 c -7.47597,-1.2528 -15.44323,0.3142 -22.3125,2.3749 -0.82519,0.2475 -1.61557,0.4952 -2.40625,0.7499 0.71187,-0.8519 1.42209,-1.7103 2.125,-2.5623 4.08713,-4.9539 7.98264,-9.2495 14.59375,-9.2495 1.04717,-10e-5 1.9999,-0.9528 2,-1.9999 z m -75.9999995,9.99947 6.9999995,0 0,40.99792 c 0.005,0.3031 0.0808,0.6049 0.21875,0.8749 3.14376,6.2872 8.77258,10.4778 15.125,13.1243 l -22.3437495,0 z m 85.9999995,0 2,0 0,54.99712 -30.625,0 c 1.11639,-0.3693 2.25127,-0.7378 3.4375,-1.0937 7.36331,-2.2088 15.84235,-3.8251 22.6875,-1.9999 1.16734,0.3014 2.48165,-0.7007 2.5,-1.9061 z" fill="#000000" fill-opacity="1" stroke="none" marker="none" visibility="visible" display="inline" overflow="visible"></path></g></svg>