<svg height='100px' width='100px'  fill="#000000" xmlns="http://www.w3.org/2000/svg" viewBox="0 0 66 42" x="0px" y="0px"><path fill="#000000" fill-rule="evenodd" d="M658,669 L686,669 C686.756675,669 687.239211,669.807869 686.880471,670.4741 L672.880471,696.4741 C672.502902,697.1753 671.497098,697.1753 671.119529,696.4741 L657.119529,670.4741 C656.760789,669.807869 657.243325,669 658,669 Z M659.674217,671 L672,693.89074 L684.325783,671 L659.674217,671 Z M694,669 L722,669 C722.756675,669 723.239211,669.807869 722.880471,670.4741 L708.880471,696.4741 C708.502902,697.1753 707.497098,697.1753 707.119529,696.4741 L693.119529,670.4741 C692.760789,669.807869 693.243325,669 694,669 Z M695.674217,671 L708,693.89074 L720.325783,671 L695.674217,671 Z M676,711 C675.243325,711 674.760789,710.192131 675.119529,709.5259 L689.119529,683.5259 C689.497098,682.8247 690.502902,682.8247 690.880471,683.5259 L704.880471,709.5259 C705.239211,710.192131 704.756675,711 704,711 L676,711 Z M702.325783,709 L690,686.10926 L677.674217,709 L702.325783,709 Z" transform="translate(-657 -669)"></path></svg>