<svg height='100px' width='100px'  fill="#000000" xmlns="http://www.w3.org/2000/svg" xmlns:xlink="http://www.w3.org/1999/xlink" version="1.1" x="0px" y="0px" viewBox="7.5 7.5 50 50" enable-background="new 7.5 7.5 50 50" xml:space="preserve"><path d="M54.162,29.231h-2.173v-6.54c0-0.276-0.224-0.5-0.5-0.5H39.331v-3.328h2.17c1.495,0,2.712-1.216,2.712-2.711v-5.342  c0-1.494-1.217-2.71-2.712-2.71h-5.342c-1.494,0-2.71,1.216-2.71,2.71v5.342c0,1.495,1.216,2.711,2.71,2.711h2.172v3.328H26.17  c-0.276,0-0.5,0.224-0.5,0.5v6.54H23.5c-1.495,0-2.711,1.216-2.711,2.71v5.342c0,1.495,1.216,2.711,2.711,2.711h2.17v2.284H13.512  c-0.276,0-0.5,0.224-0.5,0.5v3.358h-2.171c-1.495,0-2.712,1.216-2.712,2.711v5.342c0,1.494,1.217,2.71,2.712,2.71h5.341  c1.496,0,2.712-1.216,2.712-2.71v-5.342c0-1.495-1.217-2.711-2.712-2.711h-2.17v-2.858h24.319v2.858h-2.172  c-1.494,0-2.71,1.216-2.71,2.711v5.342c0,1.494,1.216,2.71,2.71,2.71h5.342c1.495,0,2.712-1.216,2.712-2.71v-5.342  c0-1.495-1.217-2.711-2.712-2.711h-2.17v-3.358c0-0.276-0.224-0.5-0.5-0.5H26.67v-2.284h2.171c1.495,0,2.711-1.216,2.711-2.711  v-5.342c0-1.494-1.216-2.71-2.711-2.71H26.67v-6.04h24.319v6.04H48.82c-1.496,0-2.713,1.216-2.713,2.71v5.342  c0,1.495,1.217,2.711,2.713,2.711h5.342c1.494,0,2.709-1.216,2.709-2.711v-5.342C56.871,30.447,55.656,29.231,54.162,29.231z   M34.449,16.152v-5.342c0-0.943,0.767-1.71,1.71-1.71h5.342c0.944,0,1.712,0.767,1.712,1.71v5.342c0,0.943-0.768,1.711-1.712,1.711  h-5.342C35.216,17.863,34.449,17.096,34.449,16.152z M17.894,48.848v5.342c0,0.943-0.768,1.71-1.712,1.71h-5.341  c-0.944,0-1.712-0.767-1.712-1.71v-5.342c0-0.943,0.768-1.711,1.712-1.711h5.341C17.126,47.137,17.894,47.904,17.894,48.848z   M43.213,48.848v5.342c0,0.943-0.768,1.71-1.712,1.71h-5.342c-0.943,0-1.71-0.767-1.71-1.71v-5.342c0-0.943,0.767-1.711,1.71-1.711  h5.342C42.445,47.137,43.213,47.904,43.213,48.848z M30.553,31.941v5.342c0,0.943-0.768,1.711-1.711,1.711H23.5  c-0.944,0-1.711-0.768-1.711-1.711v-5.342c0-0.943,0.768-1.71,1.711-1.71h5.342C29.786,30.231,30.553,30.999,30.553,31.941z   M55.871,37.283c0,0.943-0.767,1.711-1.709,1.711H48.82c-0.944,0-1.713-0.768-1.713-1.711v-5.342c0-0.943,0.769-1.71,1.713-1.71  h5.342c0.942,0,1.709,0.767,1.709,1.71V37.283z"></path></svg>