<svg height='100px' width='100px'  fill="#000000" xmlns="http://www.w3.org/2000/svg" xmlns:xlink="http://www.w3.org/1999/xlink" version="1.1" x="0px" y="0px" viewBox="0 0 69 69" style="enable-background:new 0 0 69 69;" xml:space="preserve"><g><g><path d="M25.5354,50.65133c-2.70844-1.81975-6.38383-0.70926-8.25,2.08002c-1.95996,2.89001-1.42999,6.67999,1.17004,8.42999    c2.63337,1.75564,6.3096,0.79913,8.25-2.08002C28.71183,56.08262,28.05777,52.3461,25.5354,50.65133z M25.04541,57.96133    c-1.24113,1.84304-3.686,2.73684-5.46997,1.54004c-1.69-1.14001-1.97003-3.67004-0.64001-5.66003    c1.40266-2.08278,3.90057-2.60967,5.47998-1.52997C26.22272,53.53127,26.28045,56.12761,25.04541,57.96133z"></path><path d="M44.49543,44.95132l-3.51001-5.19995c2.79999-0.12,5.34003-1.89001,6.44-4.48999l9.07001-21.47003    c1.26001-3.21002,0.83002-6.82001-1.16003-9.64001l-0.87994-1.22998c-0.19-0.27002-0.5-0.42999-0.82001-0.41998    c-0.33002,0.01001-0.64001,0.16998-0.82001,0.44l-18.31,27.17999L16.18543,2.94137c-0.17999-0.27002-0.48999-0.42999-0.81-0.44    c-0.33002-0.01001-0.64001,0.14996-0.83002,0.41998l-0.88,1.23999c-1.98999,2.81-2.41998,6.41998-1.14996,9.66003l9.06,21.44    c1.09998,2.60999,3.64996,4.33997,6.44,4.47998l-3.51001,5.20996c-0.41003-0.04999-0.81-0.07996-1.22003-0.07996    c-3.56,0-7.16998,1.95996-9.38995,5.26001c-3.55552,5.27922-2.4116,11.86908,2,14.82996    c4.6882,3.16622,11.16621,1.20734,14.48999-3.71997c2.47998-3.66998,2.76996-8.32001,0.81-11.78003l3.31-4.89996l3.29999,4.89996    c-1.96002,3.46002-1.66998,8.11005,0.81,11.78003c3.4492,5.11324,9.95731,6.78117,14.48999,3.71997    c4.42534-2.9701,5.54423-9.5675,2-14.82996C52.62543,46.45132,48.43543,44.43136,44.49543,44.95132z M53.66541,5.26138    l0.03003,0.04999c1.59998,2.26996,1.95001,5.15997,0.95001,7.72998l-9.07001,21.44c-0.86005,2.03998-2.92004,3.34998-5.12,3.28003    l-0.82001-0.03003l-3.92999-5.82001L53.66541,5.26138z M29.17542,48.87136c-0.21997,0.33997-0.21997,0.77997,0,1.12    c1.90002,2.83997,1.72003,6.90997-0.45001,10.13c-2.82996,4.20001-8.07996,5.63-11.70996,3.17999    c-3.80383-2.55764-4.16062-8.0345-1.46002-12.04999c1.84003-2.73999,4.79999-4.38,7.71002-4.38    c0.5,0,1.00995,0.04999,1.50995,0.15997c0.39001,0.08002,0.81-0.08997,1.03003-0.42999l4.65002-6.90997l0.75-0.02002    l2.08997,3.09998L29.17542,48.87136z M51.98542,63.30135c-3.63,2.45001-8.88,1.02002-11.71002-3.17999    c-2.16998-3.22003-2.34998-7.29004-0.44995-10.13c0.22998-0.34003,0.21997-0.78003,0-1.12    c-12.21827-18.14369,1.37597,2.04011-7.27002-10.78003c-0.16998-0.25-0.44-0.40997-0.72998-0.42999    c-0.03003-0.01001-0.07001-0.01001-0.10004-0.01001h-0.02997c-1.30516-0.19903-6.36638,1.34566-8.27002-3.16998l-9.06-21.41998    c-1.01001-2.59003-0.65997-5.48004,0.94-7.75l0.02997-0.04999c2.32788,3.45356,25.52947,37.8847,27.86005,41.33997    c0.21997,0.34003,0.63,0.51001,1.02997,0.42999c0.5-0.09998,1.01001-0.15997,1.52002-0.15997    c2.90997,0,5.85999,1.64001,7.70001,4.38C56.16956,55.29803,55.76031,60.76308,51.98542,63.30135z"></path><path d="M43.4654,50.65133c-2.51585,1.69047-3.17982,5.42612-1.16998,8.42999c1.94048,2.87946,5.61452,3.83707,8.25,2.08002    c2.7001-1.83517,3.07058-5.62788,1.16998-8.42999C49.84612,49.93743,46.16993,48.83429,43.4654,50.65133z M49.42542,59.50137    c-1.79208,1.20225-4.23562,0.29294-5.46997-1.54004c-1.23867-1.8391-1.17297-4.43303,0.62994-5.64996    c1.8128-1.2086,4.2406-0.31028,5.48004,1.52997C51.30541,55.68266,51.21067,58.29622,49.42542,59.50137z"></path></g><g><circle cx="35.18301" cy="38.35722" r="1.28876"></circle></g></g></svg>