<svg height='100px' width='100px'  fill="#000000" xmlns="http://www.w3.org/2000/svg" xmlns:xlink="http://www.w3.org/1999/xlink" version="1.1" x="0px" y="0px" viewBox="0 0 32 32" enable-background="new 0 0 32 32" xml:space="preserve"><g><g><g><path d="M16,12c-1.654,0-3-1.346-3-3s1.346-3,3-3s3,1.346,3,3S17.654,12,16,12z M16,8c-0.551,0-1,0.449-1,1s0.449,1,1,1     s1-0.449,1-1S16.551,8,16,8z"></path></g><g><path d="M19,26h-6V13h6V26z M15,24h2v-9h-2V24z"></path></g><g><path d="M16,31H1v-2.498l3.616-2.734C2.276,23.051,1,19.624,1,16C1,7.729,7.729,1,16,1c8.271,0,15,6.729,15,15S24.271,31,16,31z      M3.658,29H16c7.168,0,13-5.832,13-13S23.168,3,16,3C8.832,3,3,8.832,3,16c0,3.473,1.352,6.738,3.808,9.192l0.813,0.812L3.658,29     z"></path></g></g></g></svg>