<svg height='100px' width='100px'  fill="#000000" xmlns="http://www.w3.org/2000/svg" xmlns:xlink="http://www.w3.org/1999/xlink" version="1.1" x="0px" y="0px" viewBox="0 0 64 64" style="enable-background:new 0 0 64 64;" xml:space="preserve"><g><g><path d="M52.7,55.8C52.7,55.8,52.7,55.8,52.7,55.8l-11.6-6.7l4.8-2.8c0.8-0.5,1.3-1.4,1.3-2.5c0-1-0.3-2-0.8-3    c-1.3-2.2-3.5-3.3-5-2.4L32,43.9l-9.4-5.4c-1.5-0.9-3.7,0.2-5,2.4c-0.6,1-0.9,2-0.8,3c0,1.2,0.5,2.1,1.3,2.5l4.8,2.8l-11.5,6.6    c0,0,0,0,0,0c0,0,0,0,0,0c-1.5,0.9-1.7,3.3-0.4,5.5c0.8,1.3,1.9,2.3,3,2.6c0.3,0.1,0.5,0.1,0.8,0.1c0.3,0,0.7-0.1,1-0.2    c0.1,0,0.2-0.1,0.2-0.1c0,0,0,0,0,0L32,54.4l16.1,9.3c0,0,0,0,0,0c0.4,0.2,0.8,0.3,1.2,0.3c1.3,0,2.8-1,3.8-2.7c0.6-1,0.9-2,0.8-3    C53.9,57.2,53.5,56.3,52.7,55.8z M19.2,44.4c-0.1,0-0.2-0.3-0.2-0.7c0-0.6,0.2-1.2,0.6-1.9c0.6-1.1,1.5-1.6,1.9-1.6    c0.1,0,0.1,0,0.1,0l8.3,4.8l-4.7,2.7L19.2,44.4z M25.6,50.1C25.6,50.1,25.6,50.1,25.6,50.1l6.9-4c0,0,0,0,0,0l9.9-5.7    c0.2-0.1,1.3,0.3,2,1.6c0.4,0.6,0.6,1.3,0.6,1.9c0,0.4-0.1,0.6-0.2,0.7c0,0,0,0,0,0l-6.5,3.7c0,0,0,0,0,0l-0.2,0.1l-21,12.1    c0,0,0-0.1,0-0.1c0-0.2-0.1-0.5-0.2-0.7c0-0.1-0.1-0.2-0.1-0.4c-0.1-0.4-0.3-0.7-0.5-1.1c-0.2-0.3-0.4-0.6-0.7-0.9    c-0.1-0.1-0.1-0.2-0.2-0.2c-0.2-0.2-0.4-0.4-0.5-0.5c-0.1,0-0.1-0.1-0.1-0.1L25.6,50.1z M12.8,60.2c-0.8-1.3-0.6-2.4-0.4-2.5    c0.1,0,0.3,0,0.5,0.1c0,0,0,0,0,0c0.1,0,0.1,0.1,0.2,0.1c0,0,0.1,0,0.1,0.1c0.1,0,0.1,0.1,0.2,0.1c0,0,0.1,0.1,0.1,0.1    c0.1,0.1,0.1,0.1,0.2,0.2c0,0,0.1,0.1,0.1,0.1c0.1,0.1,0.1,0.2,0.2,0.2c0,0,0.1,0.1,0.1,0.1c0.1,0.1,0.2,0.3,0.3,0.4    c0.6,1,0.6,1.8,0.5,2.2c0,0.1-0.1,0.2-0.1,0.2c0,0,0,0-0.1,0.1l0,0c0,0,0,0,0,0c0,0,0,0,0,0c-0.1,0-0.2,0-0.3,0    C14.1,61.7,13.4,61.2,12.8,60.2z M38.4,50.7l0.6-0.3l10.2,5.9c-0.1,0.1-0.2,0.2-0.2,0.2c-0.1,0.1-0.3,0.2-0.4,0.4    c-0.1,0.1-0.2,0.2-0.3,0.3c-0.2,0.3-0.4,0.5-0.6,0.8c0,0,0,0,0,0.1c0,0,0,0.1,0,0.1c-0.2,0.3-0.3,0.6-0.4,0.9    c0,0.1-0.1,0.2-0.1,0.3c-0.1,0.2-0.1,0.5-0.2,0.7c0,0.1,0,0.1-0.1,0.2l-12.6-7.3L38.4,50.7z M51.2,60.2c-0.7,1.3-1.7,1.7-2,1.6    c0,0,0,0,0,0l0,0c-0.1,0-0.1-0.1-0.1-0.3c0-0.1,0-0.2,0-0.4c0,0,0,0,0-0.1c0-0.3,0.1-0.6,0.2-1c0-0.1,0-0.1,0.1-0.2    c0.1-0.2,0.1-0.3,0.2-0.5c0,0,0-0.1,0-0.1c0.1-0.1,0.1-0.2,0.2-0.2c0-0.1,0.1-0.1,0.1-0.2c0-0.1,0.1-0.1,0.1-0.2    c0.1-0.1,0.1-0.1,0.2-0.2c0,0,0.1-0.1,0.1-0.1c0.1-0.1,0.1-0.1,0.2-0.2c0,0,0.1,0,0.1-0.1c0.1-0.1,0.1-0.1,0.2-0.2c0,0,0,0,0.1,0    c0.1-0.1,0.2-0.1,0.2-0.1c0,0,0,0,0,0c0.2-0.1,0.3-0.1,0.4-0.1c0,0,0.1,0,0.1,0c0.1,0.1,0.2,0.3,0.2,0.7    C51.7,58.9,51.5,59.6,51.2,60.2z"></path><path d="M31.4,38.7c0.1,0,0.2,0,0.3,0c3.4,0,13-2.3,13-12.4c0-5.7-1.9-8.4-3.7-11.1c-2.1-3.1-4.1-6-3.5-14c0-0.4-0.2-0.8-0.6-1.1    c-0.4-0.2-0.8-0.2-1.2,0.1c-0.3,0.2-7.3,5.6-8.4,16.6c-0.7-1.3-1.4-3.3-1.4-5.8c0-0.5-0.3-0.9-0.8-1.1c-0.5-0.1-1,0-1.2,0.4    c-0.2,0.3-4.7,6.9-4.7,16.2c0,3.8,1.1,6.8,3.4,8.9C25.8,38.5,30.2,38.7,31.4,38.7z M24.1,14.5c1,4,3.3,6,3.5,6.2    c0.3,0.3,0.8,0.3,1.2,0.2c0.4-0.2,0.6-0.6,0.6-1c0-8,3.5-13.4,5.8-16c0,6.8,2.1,9.9,4,12.6c1.7,2.5,3.3,4.8,3.3,9.8    c0,9.7-10.7,10.2-10.8,10.2c0,0,0,0-0.1,0c0,0-4.6,0.2-7.5-2.7c-1.8-1.7-2.7-4.2-2.7-7.3C21.4,21.4,22.9,17.2,24.1,14.5z"></path></g></g></svg>