<svg height='100px' width='100px'  fill="#000000" xmlns="http://www.w3.org/2000/svg" xmlns:xlink="http://www.w3.org/1999/xlink" version="1.1" x="0px" y="0px" viewBox="0 0 512 512" enable-background="new 0 0 512 512" xml:space="preserve"><g><path d="M113,0H24.062C10.875,0,0.125,10.734,0.125,23.953v88.969c0,13.188,10.75,23.938,23.938,23.938H113   c13.188,0,23.922-10.75,23.922-23.938V23.953C136.922,10.734,126.188,0,113,0z M118.703,118.641H18.344V18.234h100.359V118.641z"></path><path d="M487.938,0h-88.922c-13.203,0-23.938,10.734-23.938,23.953v88.969c0,13.188,10.734,23.938,23.938,23.938h88.922   c13.188,0,23.938-10.75,23.938-23.938V23.953C511.875,10.734,501.125,0,487.938,0z M493.656,118.641H393.297V18.234h100.359   V118.641z"></path><path d="M300.469,0h-88.938c-13.188,0-23.938,10.734-23.938,23.953v88.969c0,13.188,10.75,23.938,23.938,23.938h88.938   c13.188,0,23.938-10.75,23.938-23.938V23.953C324.406,10.734,313.656,0,300.469,0z M306.188,118.641H205.812V18.234h100.375   V118.641z"></path><path d="M113,375.125H24.062c-13.188,0-23.938,10.734-23.938,23.953v88.969C0.125,501.25,10.875,512,24.062,512H113   c13.188,0,23.922-10.75,23.922-23.953v-88.969C136.922,385.859,126.188,375.125,113,375.125z M118.703,493.766H18.344V393.359   h100.359V493.766z"></path><path d="M487.938,375.125h-88.922c-13.203,0-23.938,10.734-23.938,23.953v88.969c0,13.203,10.734,23.953,23.938,23.953h88.922   c13.188,0,23.938-10.75,23.938-23.953v-88.969C511.875,385.859,501.125,375.125,487.938,375.125z M493.656,493.766H393.297V393.359   h100.359V493.766z"></path><path d="M300.469,375.125h-88.938c-13.188,0-23.938,10.734-23.938,23.953v88.969c0,13.203,10.75,23.953,23.938,23.953h88.938   c13.188,0,23.938-10.75,23.938-23.953v-88.969C324.406,385.859,313.656,375.125,300.469,375.125z M306.188,493.766H205.812V393.359   h100.375V493.766z"></path><path d="M113,187.547H24.062c-13.188,0-23.938,10.75-23.938,23.953v89c0,13.188,10.75,23.922,23.938,23.922H113   c13.188,0,23.922-10.734,23.922-23.922v-89C136.922,198.297,126.188,187.547,113,187.547z M118.703,306.203H18.344V205.781h100.359   V306.203z"></path><path d="M487.938,187.547h-88.922c-13.203,0-23.938,10.75-23.938,23.953v89c0,13.188,10.734,23.922,23.938,23.922h88.922   c13.188,0,23.938-10.734,23.938-23.922v-89C511.875,198.297,501.125,187.547,487.938,187.547z M493.656,306.203H393.297V205.781   h100.359V306.203z"></path><path d="M300.469,187.547h-88.938c-13.188,0-23.938,10.75-23.938,23.953v89c0,13.188,10.75,23.922,23.938,23.922h88.938   c13.188,0,23.938-10.734,23.938-23.922v-89C324.406,198.297,313.656,187.547,300.469,187.547z M306.188,306.203H205.812V205.781   h100.375V306.203z"></path></g></svg>