<svg height='100px' width='100px'  fill="#000000" xmlns:dc="http://purl.org/dc/elements/1.1/" xmlns:cc="http://creativecommons.org/ns#" xmlns:rdf="http://www.w3.org/1999/02/22-rdf-syntax-ns#" xmlns:svg="http://www.w3.org/2000/svg" xmlns="http://www.w3.org/2000/svg" xmlns:sodipodi="http://sodipodi.sourceforge.net/DTD/sodipodi-0.dtd" xmlns:inkscape="http://www.inkscape.org/namespaces/inkscape" version="1.1" x="0px" y="0px" viewBox="0 0 100 100" xml:space="preserve"><path d="M 20.517247,3.4482581 V 50 H 5 v 37.241394 c 0,5.134657 4.1756913,9.310348 9.310348,9.310348 h 71.379338 c 5.125347,0 9.295194,-4.171399 9.295194,-9.295194 V 23.696447 C 94.98668,23.670068 95,23.647055 95,23.620676 c 0,-0.02638 -0.01368,-0.04939 -0.01521,-0.07577 V 3.4482581 Z m 3.10345,3.1034496 H 91.88143 V 22.068955 H 23.620697 Z M 39.137944,9.6551569 V 18.965505 H 76.379337 V 9.6551569 Z m 3.10345,3.1034491 h 31.034495 v 3.10345 H 42.241394 Z M 23.620697,25.172405 H 91.88143 v 62.084143 c 0,3.413794 -2.77795,6.191744 -6.191744,6.191744 H 21.244619 c 0.02483,-0.02793 0.0434,-0.05996 0.06668,-0.08788 0.316551,-0.361551 0.603135,-0.749627 0.860721,-1.15773 0.0419,-0.06517 0.08089,-0.128716 0.121237,-0.196998 0.251379,-0.418966 0.47456,-0.856018 0.657664,-1.315329 0.02483,-0.06362 0.04643,-0.127319 0.06971,-0.190935 0.178449,-0.474828 0.32499,-0.965511 0.424301,-1.472925 0.0093,-0.04655 0.01195,-0.09441 0.02121,-0.139408 0.0962,-0.533801 0.154562,-1.083959 0.154562,-1.645684 V 50 Z m 6.206898,3.103448 V 50 H 51.551742 V 28.275853 Z m 29.48277,0 c -0.858103,0 -1.551724,0.693622 -1.551724,1.551725 0,0.858105 0.693621,1.551725 1.551724,1.551725 h 24.827596 c 0.858104,0 1.551725,-0.69362 1.551725,-1.551725 0,-0.858103 -0.693621,-1.551725 -1.551725,-1.551725 z m -26.37932,3.10345 H 48.448292 V 46.89655 H 32.931045 Z m 26.37932,6.206899 c -0.858103,0 -1.551724,0.693621 -1.551724,1.551725 0,0.858104 0.693621,1.551725 1.551724,1.551725 h 24.827596 c 0.858104,0 1.551725,-0.693621 1.551725,-1.551725 0,-0.858104 -0.693621,-1.551725 -1.551725,-1.551725 z m 0,9.310348 c -0.858103,0 -1.551724,0.693622 -1.551724,1.551725 0,0.858104 0.693621,1.551725 1.551724,1.551725 h 24.827596 c 0.858104,0 1.551725,-0.693621 1.551725,-1.551725 0,-0.858103 -0.693621,-1.551725 -1.551725,-1.551725 z M 8.1034495,53.10345 H 20.517247 v 34.137944 c 0,3.423105 -2.783794,6.206898 -6.206899,6.206898 -3.423104,0 -6.2068985,-2.783793 -6.2068985,-6.206898 z m 24.8275955,3.103449 c -0.858104,0 -1.551725,0.693621 -1.551725,1.551724 0,0.858105 0.693621,1.551725 1.551725,1.551725 h 51.206916 c 0.858104,0 1.551725,-0.69362 1.551725,-1.551725 0,-0.858103 -0.693621,-1.551724 -1.551725,-1.551724 z m 0,9.310348 c -0.858104,0 -1.551725,0.693622 -1.551725,1.551725 0,0.858104 0.693621,1.551725 1.551725,1.551725 h 23.275871 c 0.858104,0 1.551725,-0.693621 1.551725,-1.551725 0,-0.858103 -0.693621,-1.551725 -1.551725,-1.551725 z m 31.034495,0 V 87.241394 H 85.689686 V 65.517247 Z m 3.103449,3.10345 H 82.586237 V 84.137944 H 67.068989 Z m -34.137944,6.206898 c -0.858104,0 -1.551725,0.693622 -1.551725,1.551725 0,0.858105 0.693621,1.551725 1.551725,1.551725 h 23.275871 c 0.858104,0 1.551725,-0.69362 1.551725,-1.551725 0,-0.858103 -0.693621,-1.551725 -1.551725,-1.551725 z m 0,9.310349 c -0.858104,0 -1.551725,0.693621 -1.551725,1.551725 0,0.858104 0.693621,1.551725 1.551725,1.551725 h 23.275871 c 0.858104,0 1.551725,-0.693621 1.551725,-1.551725 0,-0.858104 -0.693621,-1.551725 -1.551725,-1.551725 z" style="" stroke-width="0.99999994"></path></svg>