<svg height='100px' width='100px'  fill="#000000" xmlns="http://www.w3.org/2000/svg" viewBox="0 0 66 66" x="0px" y="0px"><path fill="#000000" fill-rule="evenodd" d="M333.128537,57.4952836 C333.202805,57.3668705 333.304928,57.2604673 333.423749,57.1794675 C333.587381,57.0621549 333.774919,57.0043947 333.962224,56.9989688 C334.226358,56.9858247 334.496602,57.0740743 334.703391,57.2848749 C334.78557,57.3645399 334.854778,57.459569 334.905645,57.5683562 L362.833677,105.444528 C362.865695,105.493705 362.893402,105.545558 362.916573,105.599336 C362.971332,105.723031 362.998405,105.850653 363.001254,105.976172 C363.010759,106.255838 362.905538,106.541523 362.660892,106.751657 C362.614258,106.793 362.563536,106.830174 362.50917,106.862401 L338.558178,122.829577 C338.427712,122.917507 338.276711,122.975268 338.117016,122.994292 C337.926779,123.011856 337.765746,122.985364 337.619144,122.924787 L297.679502,106.949082 C297.607593,106.925203 297.540126,106.893507 297.477724,106.85524 C297.146707,106.6615 296.995688,106.331891 296.998216,106.003765 C296.997267,105.884655 297.017932,105.763721 297.06297,105.646488 C297.109357,105.519679 297.180086,105.401742 297.273312,105.30225 L333.128537,57.4952836 Z M336.060549,107 L303.192582,107 L336.903317,120.484294 L336.060549,107 Z M338.064451,107 L338.889762,120.204975 L358.697224,107 L338.064451,107 Z M333.171276,60.7716323 L300,105 L335.935549,105 L333.171276,60.7716323 Z M335.26111,62.1465374 L337.939451,105 L360.258963,105 L335.26111,62.1465374 Z" transform="translate(-297 -57)"></path></svg>