<svg height='100px' width='100px'  fill="#000000" xmlns="http://www.w3.org/2000/svg" xmlns:xlink="http://www.w3.org/1999/xlink" version="1.1" x="0px" y="0px" viewBox="0 0 100 100" style="enable-background:new 0 0 100 100;" xml:space="preserve"><path d="M11,90h9.275c0.553,0,1-0.448,1-1V76.25h4.006c0.499,4.374,4.218,7.784,8.723,7.784s8.224-3.41,8.723-7.784h4.068  c0.499,4.374,4.218,7.784,8.723,7.784c3.381,0,6.316-1.922,7.784-4.729c1.468,2.806,4.404,4.729,7.784,4.729  c3.273,0,6.127-1.802,7.639-4.463V89c0,0.552,0.447,1,1,1H89c0.553,0,1-0.448,1-1V11c0-0.552-0.447-1-1-1h-9.275  c-0.553,0-1,0.448-1,1v9.429c-1.511-2.661-4.366-4.463-7.639-4.463c-3.381,0-6.316,1.922-7.784,4.729  c-1.468-2.806-4.404-4.729-7.784-4.729s-6.316,1.922-7.784,4.729c-1.468-2.806-4.404-4.729-7.784-4.729  c-4.505,0-8.224,3.41-8.723,7.784h-9.951V11c0-0.552-0.447-1-1-1H11c-0.553,0-1,0.448-1,1v78C10,89.552,10.447,90,11,90z M80.725,12  H88v76h-7.275V12z M34.004,82.034c-3.741,0-6.784-3.043-6.784-6.784s3.043-6.784,6.784-6.784s6.784,3.043,6.784,6.784  S37.745,82.034,34.004,82.034z M55.518,82.034c-3.741,0-6.784-3.043-6.784-6.784s3.043-6.784,6.784-6.784s6.784,3.043,6.784,6.784  S59.259,82.034,55.518,82.034z M71.086,82.034c-3.741,0-6.784-3.043-6.784-6.784s3.043-6.784,6.784-6.784s6.784,3.043,6.784,6.784  S74.827,82.034,71.086,82.034z M71.086,17.966c3.741,0,6.784,3.043,6.784,6.784s-3.043,6.784-6.784,6.784s-6.784-3.043-6.784-6.784  S67.345,17.966,71.086,17.966z M55.518,17.966c3.741,0,6.784,3.043,6.784,6.784s-3.043,6.784-6.784,6.784s-6.784-3.043-6.784-6.784  S51.776,17.966,55.518,17.966z M39.949,17.966c3.741,0,6.784,3.043,6.784,6.784s-3.043,6.784-6.784,6.784s-6.784-3.043-6.784-6.784  S36.208,17.966,39.949,17.966z M21.275,25.75h9.951c0.499,4.374,4.218,7.784,8.723,7.784c3.381,0,6.316-1.922,7.784-4.729  c1.468,2.806,4.404,4.729,7.784,4.729s6.316-1.922,7.784-4.729c1.468,2.806,4.404,4.729,7.784,4.729  c3.273,0,6.127-1.802,7.639-4.463V49h-2.774c-0.499-4.374-4.218-7.784-8.723-7.784s-8.224,3.41-8.723,7.784h-5.245  c-0.499-4.374-4.218-7.784-8.723-7.784c-3.381,0-6.316,1.922-7.784,4.729c-1.468-2.806-4.404-4.729-7.784-4.729  c-3.309,0-6.195,1.841-7.692,4.551V25.75z M74.012,50c0,3.741-3.043,6.784-6.784,6.784S60.443,53.741,60.443,50  s3.043-6.784,6.784-6.784S74.012,46.259,74.012,50z M51.32,50c0,3.741-3.043,6.784-6.784,6.784S37.752,53.741,37.752,50  s3.043-6.784,6.784-6.784S51.32,46.259,51.32,50z M35.752,50c0,3.741-3.043,6.784-6.784,6.784S22.184,53.741,22.184,50  s3.043-6.784,6.784-6.784S35.752,46.259,35.752,50z M21.275,54.233c1.497,2.71,4.383,4.551,7.692,4.551  c3.381,0,6.316-1.922,7.784-4.729c1.468,2.806,4.404,4.729,7.784,4.729c4.505,0,8.224-3.41,8.723-7.784h5.245  c0.499,4.374,4.218,7.784,8.723,7.784s8.224-3.41,8.723-7.784h2.774v19.929c-1.511-2.661-4.366-4.463-7.639-4.463  c-3.381,0-6.316,1.922-7.784,4.729c-1.468-2.806-4.404-4.729-7.784-4.729c-4.505,0-8.224,3.41-8.723,7.784h-4.068  c-0.499-4.374-4.218-7.784-8.723-7.784s-8.224,3.41-8.723,7.784h-4.006V54.233z M12,12h7.275v76H12V12z"></path></svg>