<svg height='100px' width='100px'  fill="#000000" xmlns="http://www.w3.org/2000/svg" xmlns:xlink="http://www.w3.org/1999/xlink" version="1.1" x="0px" y="0px" viewBox="0 0 100 100" enable-background="new 0 0 100 100" xml:space="preserve"><path d="M17.414,5C10.569,5,5,10.568,5,17.412c0,6.845,5.568,12.413,12.413,12.413c6.844,0,12.412-5.568,12.412-12.413  C29.825,10.568,24.257,5,17.414,5z M17.414,26.641c-5.09,0-9.23-4.14-9.23-9.229s4.141-9.229,9.23-9.229s9.229,4.14,9.229,9.229  S22.502,26.641,17.414,26.641z"></path><path d="M50,5c-6.845,0-12.414,5.568-12.414,12.412c0,6.845,5.569,12.414,12.414,12.414c6.846,0,12.413-5.569,12.413-12.414  C62.413,10.568,56.846,5,50,5z M50,26.642c-5.09,0-9.23-4.14-9.23-9.229S44.911,8.184,50,8.184s9.229,4.14,9.229,9.229  S55.089,26.642,50,26.642z"></path><path d="M82.587,5c-6.845,0-12.413,5.568-12.413,12.412c0,6.845,5.568,12.414,12.413,12.414S95,24.257,95,17.412  C95,10.568,89.432,5,82.587,5z M82.587,26.642c-5.089,0-9.229-4.14-9.229-9.229s4.141-9.229,9.229-9.229s9.229,4.14,9.229,9.229  S87.676,26.642,82.587,26.642z"></path><path d="M17.414,37.587C10.569,37.587,5,43.155,5,50s5.568,12.414,12.413,12.414c6.844,0,12.412-5.569,12.412-12.414  S24.257,37.587,17.414,37.587z M17.414,59.229c-5.09,0-9.23-4.14-9.23-9.229s4.141-9.229,9.23-9.229s9.229,4.14,9.229,9.229  C26.642,55.09,22.502,59.229,17.414,59.229z"></path><path d="M50,37.586c-6.845,0-12.414,5.569-12.414,12.414S43.155,62.414,50,62.414c6.846,0,12.413-5.569,12.413-12.414  S56.846,37.586,50,37.586z M50,59.229c-5.09,0-9.23-4.14-9.23-9.229s4.141-9.229,9.23-9.229s9.229,4.14,9.229,9.229  S55.089,59.229,50,59.229z"></path><path d="M82.587,37.587c-6.845,0-12.413,5.568-12.413,12.413s5.568,12.413,12.413,12.413S95,56.845,95,50  S89.432,37.587,82.587,37.587z M82.587,59.229c-5.089,0-9.229-4.14-9.229-9.229s4.141-9.229,9.229-9.229s9.229,4.14,9.229,9.229  S87.676,59.229,82.587,59.229z"></path><path d="M17.414,70.176C10.569,70.176,5,75.743,5,82.587C5,89.432,10.569,95,17.414,95c6.844,0,12.412-5.568,12.412-12.413  C29.825,75.743,24.257,70.176,17.414,70.176z M17.414,91.816c-5.09,0-9.23-4.142-9.23-9.229s4.141-9.228,9.23-9.228  s9.229,4.14,9.229,9.228C26.642,87.676,22.502,91.816,17.414,91.816z"></path><path d="M50,70.176c-6.844,0-12.413,5.567-12.413,12.411C37.587,89.432,43.156,95,50,95c6.846,0,12.413-5.568,12.413-12.413  C62.413,75.743,56.846,70.176,50,70.176z M50,91.816c-5.089,0-9.229-4.142-9.229-9.229s4.14-9.228,9.229-9.228  s9.229,4.14,9.229,9.228C59.229,87.676,55.089,91.816,50,91.816z"></path><path d="M82.587,70.176c-6.845,0-12.413,5.567-12.413,12.411C70.174,89.432,75.742,95,82.587,95S95,89.432,95,82.587  C95,75.743,89.432,70.176,82.587,70.176z M82.587,91.816c-5.089,0-9.229-4.142-9.229-9.229s4.141-9.228,9.229-9.228  s9.229,4.14,9.229,9.228C91.816,87.676,87.676,91.816,82.587,91.816z"></path></svg>