<svg height='100px' width='100px'  fill="#000000" xmlns="http://www.w3.org/2000/svg" xmlns:xlink="http://www.w3.org/1999/xlink" version="1.1" x="0px" y="0px" viewBox="0 0 100 100" enable-background="new 0 0 100 100" xml:space="preserve"><path d="M72.166,47.166c-1.381,0-2.5,1.119-2.5,2.5v3.252c0,10.844-8.822,19.666-19.666,19.666s-19.666-8.822-19.666-19.666v-13  c0-1.381-1.119-2.5-2.5-2.5s-2.5,1.119-2.5,2.5v13c0,12.757,9.735,23.283,22.166,24.54v12.958h-6.334c-1.381,0-2.5,1.119-2.5,2.5  s1.119,2.5,2.5,2.5h17.668c1.381,0,2.5-1.119,2.5-2.5s-1.119-2.5-2.5-2.5H52.5V77.458c12.431-1.257,22.166-11.783,22.166-24.54  v-3.252C74.666,48.285,73.547,47.166,72.166,47.166z M72.166,37.418c-1.381,0-2.5,1.119-2.5,2.5v2.415c0,1.381,1.119,2.5,2.5,2.5  s2.5-1.119,2.5-2.5v-2.415C74.666,38.537,73.547,37.418,72.166,37.418z M50,69.75c9.236,0,16.75-7.514,16.75-16.75V21.334  c0-9.236-7.514-16.75-16.75-16.75s-16.75,7.514-16.75,16.75V53C33.25,62.236,40.764,69.75,50,69.75z M38.25,21.334  c0-6.479,5.271-11.75,11.75-11.75s11.75,5.271,11.75,11.75V22.5h-9.583c-1.381,0-2.5,1.119-2.5,2.5s1.119,2.5,2.5,2.5h9.583v3  h-9.583c-1.381,0-2.5,1.119-2.5,2.5s1.119,2.5,2.5,2.5h9.583v3h-9.583c-1.381,0-2.5,1.119-2.5,2.5s1.119,2.5,2.5,2.5h9.583v3h-9.583  c-1.381,0-2.5,1.119-2.5,2.5s1.119,2.5,2.5,2.5h9.583V53c0,6.479-5.271,11.75-11.75,11.75S38.25,59.479,38.25,53V21.334z"></path></svg>