<svg height='100px' width='100px'  fill="#000000" xmlns="http://www.w3.org/2000/svg" xmlns:xlink="http://www.w3.org/1999/xlink" version="1.1" x="0px" y="0px" viewBox="1 -1 100 100" style="enable-background:new 1 -1 100 100;" xml:space="preserve"><title>04</title><g><path d="M97,74.6V64.1c0-6.6-5.4-12-12-12h-2.5V32.8c0.7-9.3-6.2-17.3-15.5-18S49.7,21,49,30.2   c-0.1,0.9-0.1,1.7,0,2.6v32.4c0.6,7-4.6,13.3-11.6,13.9s-13.3-4.6-13.9-11.6c-0.1-0.8-0.1-1.5,0-2.3V51.9h2.4c6.6,0,12-5.4,12-12   c0,0,0,0,0,0V23.4c0-1.1-0.9-2-2-2h-2V11c0-1.1-0.9-2-2-2H11c-1.1,0-2,0.9-2,2v10.4H7c-1.1,0-2,0.9-2,2v16.5c0,6.6,5.4,12,12,12   h2.5v13.3c-0.7,9.3,6.2,17.3,15.5,18S52.3,77,53,67.8c0.1-0.9,0.1-1.7,0-2.6V32.8c-0.6-7,4.6-13.3,11.6-13.9s13.3,4.6,13.9,11.6   c0.1,0.8,0.1,1.5,0,2.3v19.3h-2.4c-6.6,0-12,5.4-12,12v10.5c0,1.1,0.9,2,2,2h2V87c0,1.1,0.9,2,2,2H91c1.1,0,2-0.9,2-2V76.6h2   C96.1,76.6,97,75.7,97,74.6z M13,13h16.9v8.4H13V13z M9,39.9V25.4h24.9v14.5c0,4.4-3.6,8-8,8H17C12.6,47.9,9,44.3,9,39.9z M89,85   H72.1v-8.4H89V85z M93,72.6H68.1v-8.5c0-4.4,3.6-8,8-8H85c4.4,0,8,3.6,8,8V72.6z"></path></g></svg>