<svg height='100px' width='100px'  fill="#000000" xmlns="http://www.w3.org/2000/svg" viewBox="0 0 512 512" x="0px" y="0px"><g><path d="M495.59,253.47,488,230.7V208a8,8,0,0,0-2.343-5.657L471.97,188.656a62.183,62.183,0,0,0-18.314-42.313,8,8,0,0,0-11.313,0l-9.731,9.731a62.493,62.493,0,0,0-11.732,16.278l-2.286,4.571L343.208,192H112a48,48,0,1,1,0-96h64a24,24,0,1,0,0-48H112A96.025,96.025,0,0,0,69.5,230.1,63.611,63.611,0,0,0,64,256v75.719L19.562,361.344A8,8,0,0,0,16,368v88a8,8,0,0,0,8,8H64a8,8,0,0,0,8-8V398.034l40-11.428V392a7.994,7.994,0,0,0,1.216,4.24l40,64A8,8,0,0,0,160,464h48a8,8,0,0,0,6.784-12.24l-36.93-59.088L211.747,352h48.437l-11.612,29.029A8,8,0,0,0,248,384v72a8,8,0,0,0,8,8h40a8,8,0,0,0,8-8V394.9l20.944-25.064,60.4,90.6A8,8,0,0,0,392,464h48a8,8,0,0,0,7.044-11.793L392,349.983V306l33.938-25.454,36.493,7.3a7.994,7.994,0,0,0,7.226-2.188l24-24A8,8,0,0,0,495.59,253.47ZM55.436,200.561A79.991,79.991,0,0,1,112,64h64a8,8,0,0,1,0,16H112A64,64,0,0,0,90.415,204.245a64.487,64.487,0,0,0-12.582,12.086A79.577,79.577,0,0,1,55.436,200.561ZM161.854,386.878a8,8,0,0,0-.638,9.362L193.566,448H164.434L128,389.706v-8.5A93.061,93.061,0,0,0,165.082,352H190.92Zm128.007-.008A8,8,0,0,0,288,392v56H264V385.541L277.416,352h39.04l.788,2.1ZM461.37,271.316l-35.8-7.161A8,8,0,0,0,419.2,265.6l-40,30A8,8,0,0,0,376,302v50a8,8,0,0,0,.956,3.793L426.606,448H396.281l-61.114-91.671L311.49,293.191l-14.98,5.618L310.456,336h-135.6A92.25,92.25,0,0,0,184,296H168a77.173,77.173,0,0,1-55.735,73.89L61.8,384.308A8,8,0,0,0,56,392v56H32V372.281l44.438-29.625a7.987,7.987,0,0,0,3.541-6.323H80V256a48.054,48.054,0,0,1,48-48H344a8.026,8.026,0,0,0,1.569-.155l80-16a8,8,0,0,0,5.586-4.268l4.035-8.07a46.549,46.549,0,0,1,8.736-12.119l3.594-3.594A46.293,46.293,0,0,1,456,190.627V192a8,8,0,0,0,2.343,5.657L472,211.313V232a8.027,8.027,0,0,0,.41,2.53l6.437,19.309Z"></path><rect x="440" y="216" width="16" height="16"></rect></g></svg>