<svg height='100px' width='100px'  fill="#000000" xmlns="http://www.w3.org/2000/svg" xmlns:xlink="http://www.w3.org/1999/xlink" version="1.1" x="0px" y="0px" viewBox="0 0 512 512" style="enable-background:new 0 0 512 512;" xml:space="preserve"><title>a2</title><path d="M415.3,322.2L165,29c-3.6-4.2-9.9-4.7-14.1-1.1c-1.9,1.6-3.1,3.8-3.4,6.2l-53,382.1c-0.8,5.5,3.1,10.5,8.5,11.3  c2.6,0.4,5.3-0.3,7.4-1.9l101.9-77.6l38.6,131.5c1.6,5.3,7.1,8.3,12.4,6.8c0,0,0,0,0,0l55-16.2c5.3-1.6,8.3-7.1,6.8-12.4  c0,0,0,0,0,0l-37.8-128.6l119.6,9.7c5.5,0.4,10.3-3.7,10.8-9.2C417.9,326.9,417,324.2,415.3,322.2z M274.4,307.8  c-5.5-0.4-10.3,3.7-10.8,9.2c-0.1,1.2,0,2.4,0.4,3.6l39.1,133l-35.8,10.5l-39.9-135.8c-1.6-5.3-7.1-8.3-12.4-6.8  c-1.2,0.3-2.3,0.9-3.2,1.6l-94.2,71.7l46.7-336l220.2,257.9L274.4,307.8z"></path></svg>