<svg height='100px' width='100px'  fill="#000000" xmlns="http://www.w3.org/2000/svg" xmlns:xlink="http://www.w3.org/1999/xlink" version="1.1" x="0px" y="0px" viewBox="0 0 65 65" style="enable-background:new 0 0 65 65;" xml:space="preserve"><g><path d="M63.5,49c0.6,0,1-0.4,1-1v-6.6c0-0.6-0.4-1-1-1H50.2c-0.6,0-1,0.4-1,1v2.3H38.1v-2.3c0-0.6-0.4-1-1-1h-5.7v-4.9   c0-0.6-0.4-1-1-1H9.2v-4.1h5.7c0.6,0,1-0.4,1-1v-6.6c0-0.6-0.4-1-1-1H9.2v-4.2h20.3v4.2h-5.6c-0.6,0-1,0.4-1,1v6.6c0,0.6,0.4,1,1,1   h13.3c0.6,0,1-0.4,1-1v-6.6c0-0.6-0.4-1-1-1h-5.7v-4.2h20.3v4.2h-5.7c-0.6,0-1,0.4-1,1v6.6c0,0.6,0.4,1,1,1h13.3c0.6,0,1-0.4,1-1   v-6.6c0-0.6-0.4-1-1-1h-5.7v-5.2c0-0.6-0.4-1-1-1H31.4v-4.2h14c0.6,0,1-0.4,1-1v-9c0-0.6-0.4-1-1-1H15.4c-0.6,0-1,0.4-1,1v9   c0,0.6,0.4,1,1,1h14v4.2H8.2c-0.6,0-1,0.4-1,1v5.2H1.5c-0.6,0-1,0.4-1,1v6.6c0,0.6,0.4,1,1,1h5.7v9.9H1.5c-0.6,0-1,0.4-1,1V48   c0,0.6,0.4,1,1,1h13.3c0.6,0,1-0.4,1-1v-6.6c0-0.6-0.4-1-1-1H9.2v-3.9h20.3v3.9h-5.7c-0.6,0-1,0.4-1,1V48c0,0.6,0.4,1,1,1h13.3   c0.6,0,1-0.4,1-1v-2.3h11.1V48c0,0.6,0.4,1,1,1h5.7v6.8h-5.7c-0.6,0-1,0.4-1,1v2.3H38.1v-2.3c0-0.6-0.4-1-1-1H23.8   c-0.6,0-1,0.4-1,1v6.6c0,0.6,0.4,1,1,1h13.3c0.6,0,1-0.4,1-1v-2.3h11.1v2.3c0,0.6,0.4,1,1,1h13.3c0.6,0,1-0.4,1-1v-6.6   c0-0.6-0.4-1-1-1h-5.7V49H63.5z M36.1,28.5H24.8v-4.6c3.2,0,9.4,0,11.3,0V28.5z M58.4,28.5H47.1v-4.6h11.3V28.5z M16.4,2.6h28.1v7   c-6.2,0-11.7,0-28.1,0V2.6z M2.5,23.9h11.3v4.6H2.5V23.9z M13.8,47H2.5v-4.6h11.3V47z M36.1,47H24.8v-4.6h11.3V47z M36.1,62.4H24.8   v-4.6h11.3V62.4z M62.5,62.4H51.2v-4.6h11.3V62.4z M51.2,42.5h11.3V47H51.2V42.5z"></path></g></svg>