<svg height='100px' width='100px'  fill="#000000" xmlns:dc="http://purl.org/dc/elements/1.1/" xmlns:cc="http://creativecommons.org/ns#" xmlns:rdf="http://www.w3.org/1999/02/22-rdf-syntax-ns#" xmlns:svg="http://www.w3.org/2000/svg" xmlns="http://www.w3.org/2000/svg" xmlns:sodipodi="http://sodipodi.sourceforge.net/DTD/sodipodi-0.dtd" xmlns:inkscape="http://www.inkscape.org/namespaces/inkscape" version="1.1" x="0px" y="0px" viewBox="0 0 100 100"><g transform="translate(0,-952.36218)"><path style="font-size:medium;font-style:normal;font-variant:normal;font-weight:normal;font-stretch:normal;text-indent:0;text-align:start;text-decoration:none;line-height:normal;letter-spacing:normal;word-spacing:normal;text-transform:none;direction:ltr;block-progression:tb;writing-mode:lr-tb;text-anchor:start;baseline-shift:baseline;opacity:1;color:#000000;fill:#000000;fill-opacity:1;stroke:none;stroke-width:3.99999905000000000;marker:none;visibility:visible;display:inline;overflow:visible;enable-background:accumulate;font-family:Sans;-inkscape-font-specification:Sans" d="m 49.9375,958.36218 a 2.0001995,2.0001995 0 0 0 -1.34375,0.5625 C 41.480884,965.8808 33.415057,975.33045 27.0625,985.20593 20.709943,995.08141 16,1005.3455 16,1014.3622 c 0,4.6548 1.333037,8.6694 3.8125,11.5312 2.479463,2.8619 6.103728,4.4688 10.1875,4.4688 3.79599,0 6.905446,-1.5305 9.34375,-3.2188 -0.458233,2.371 -1.069025,4.792 -1.96875,7.0313 -1.531106,3.8107 -3.666265,7.058 -5.625,8.625 a 2.0001995,2.0001995 0 0 0 1.25,3.5625 l 17,0 17,0 a 2.0001995,2.0001995 0 0 0 1.25,-3.5625 c -1.958735,-1.567 -4.093894,-4.8143 -5.625,-8.625 -0.899725,-2.2393 -1.510517,-4.6603 -1.96875,-7.0313 2.438304,1.6883 5.54776,3.2188 9.34375,3.2188 4.083772,0 7.708037,-1.6069 10.1875,-4.4688 C 82.666963,1023.0316 84,1019.017 84,1014.3622 84,1005.3455 79.290057,995.08141 72.9375,985.20593 66.584943,975.33045 58.519116,965.8808 51.40625,958.92468 a 2.0001995,2.0001995 0 0 0 -1.46875,-0.5625 z M 50,963.33093 c 6.563816,6.60656 13.819405,15.10322 19.5625,24.03125 C 75.706689,996.91374 80,1006.7913 80,1014.3622 c 0,3.8992 -1.111288,6.9066 -2.84375,8.9062 -1.732462,1.9997 -4.087722,3.0938 -7.15625,3.0938 -4.584001,0 -8.700828,-3.5133 -10.59375,-5.4063 A 2.0001995,2.0001995 0 0 0 56,1022.4247 c 0.133616,4.2942 1.240109,8.9941 2.9375,13.2187 1.012544,2.5201 2.296437,4.7446 3.71875,6.7188 l -12.65625,0 -12.65625,0 c 1.422313,-1.9742 2.706206,-4.1987 3.71875,-6.7188 1.697391,-4.2246 2.803884,-8.9245 2.9375,-13.2187 a 2.0001995,2.0001995 0 0 0 -3.40625,-1.4688 c -1.892922,1.893 -6.009749,5.4063 -10.59375,5.4063 -3.068528,0 -5.423788,-1.0941 -7.15625,-3.0938 C 21.111288,1021.2688 20,1018.2614 20,1014.3622 20,1006.7913 24.293311,996.91374 30.4375,987.36218 36.180595,978.43415 43.436184,969.93749 50,963.33093 z"></path></g></svg>