<svg height='100px' width='100px'  fill="#000000" xmlns="http://www.w3.org/2000/svg" viewBox="0 0 64 66" x="0px" y="0px"><path fill="#000000" fill-rule="evenodd" d="M301.187354,943.582761 C300.973597,943.284889 300.9185,942.872936 301.134135,942.499722 L327.134135,897.499722 C327.54512,896.788402 328.505635,896.880902 328.862952,897.483936 L364.773532,945.36471 C365.024099,945.755639 365.039662,946.056944 364.94913,946.318916 C364.914718,946.420922 364.862661,946.51964 364.791713,946.611044 C364.779099,946.627479 360.099387,951.976632 350.752577,962.658505 C350.532404,962.910131 350.201041,963.035072 349.869545,962.991454 L311.869545,957.991454 C311.594784,957.955301 311.347345,957.806748 311.186267,957.581238 L301.187354,943.582761 Z M318.079543,938.402374 L327.979221,936.202446 L327.175587,904.860711 L318.079543,938.402374 Z M329.166194,904.468731 L329.980317,936.219549 L341.059893,939.068583 L329.166194,904.468731 Z M341.83859,941.333884 L328.983023,938.028167 L317.488309,940.582547 L313.264521,956.157765 L348.529336,960.797872 L341.83859,941.333884 Z M315.874416,938.892403 L325.025867,905.146429 L304.004103,941.53025 L315.874416,938.892403 Z M331.009876,903.679835 L343.379824,939.665137 L361.491895,944.322527 L331.009876,903.679835 Z M344.158521,941.930437 L350.384402,960.042091 L362.177768,946.563958 L344.158521,941.930437 Z M315.283183,941.072575 L303.692036,943.648386 L311.58718,954.701587 L315.283183,941.072575 Z" transform="translate(-301 -897)"></path></svg>