<svg height='100px' width='100px'  fill="#000000" xmlns="http://www.w3.org/2000/svg" xmlns:xlink="http://www.w3.org/1999/xlink" version="1.1" x="0px" y="0px" viewBox="0 0 100 100" enable-background="new 0 0 100 100" xml:space="preserve"><g><path d="M87,32c-4.4,0-8,3.6-8,8c0,0,0,0.1,0,0.1l-13.2,3.6C63.2,37.4,57.1,33,50,33c-4,0-7.6,1.4-10.5,3.7l-9.3-9.3   C31.9,25,33,22.1,33,19c0-7.7-6.3-14-14-14S5,11.3,5,19s6.3,14,14,14c3.1,0,6-1.1,8.4-2.8l9.3,9.3C34.4,42.4,33,46,33,50   c0,5.7,2.8,10.7,7,13.7l-5.5,9.8C33.4,73.2,32.2,73,31,73c-6.1,0-11,4.9-11,11s4.9,11,11,11s11-4.9,11-11c0-3.4-1.6-6.4-4-8.5   l5.5-9.8c2,0.8,4.2,1.3,6.5,1.3c9.4,0,17-7.6,17-17c0-0.8-0.1-1.7-0.2-2.5l13.3-3.6c1.4,2.4,4,4.1,6.9,4.1c4.4,0,8-3.6,8-8   S91.4,32,87,32z M31,91c-3.9,0-7-3.1-7-7s3.1-7,7-7s7,3.1,7,7S34.9,91,31,91z M9,19c0-5.5,4.5-10,10-10s10,4.5,10,10s-4.5,10-10,10   S9,24.5,9,19z M50,63c-7.2,0-13-5.8-13-13s5.8-13,13-13s13,5.8,13,13S57.2,63,50,63z M87,44c-2.2,0-4-1.8-4-4s1.8-4,4-4s4,1.8,4,4   S89.2,44,87,44z"></path></g></svg>