<svg height='100px' width='100px'  fill="#000000" xmlns="http://www.w3.org/2000/svg" xmlns:xlink="http://www.w3.org/1999/xlink" viewBox="0 0 34 30" version="1.1" x="0px" y="0px"><title>Fill 60</title><desc>Created with Sketch.</desc><g stroke="none" stroke-width="1" fill="none" fill-rule="evenodd"><g transform="translate(-127.000000, -380.000000)" fill="#000000"><path d="M133.8,409.486 C132.216,409.486 130.727,408.87 129.607,407.749 C128.487,406.629 127.87,405.14 127.87,403.556 C127.87,401.973 128.487,400.483 129.607,399.363 L146.577,382.393 C149.669,379.302 154.701,379.301 157.792,382.393 C159.29,383.89 160.115,385.882 160.115,388 C160.115,390.118 159.29,392.11 157.792,393.607 L145.064,406.335 L143.749,405.02 L156.477,392.292 C158.844,389.925 158.844,386.075 156.477,383.708 C154.112,381.342 150.26,381.341 147.893,383.708 L130.922,400.679 C130.153,401.447 129.73,402.469 129.73,403.556 C129.73,404.644 130.153,405.665 130.922,406.434 C132.509,408.021 135.091,408.02 136.678,406.434 L149.406,393.706 C150.213,392.899 150.213,391.586 149.406,390.778 C148.599,389.971 147.285,389.972 146.479,390.779 L137.993,399.264 L136.678,397.949 L145.163,389.463 C146.695,387.932 149.189,387.931 150.721,389.463 C152.253,390.996 152.253,393.489 150.721,395.021 L137.993,407.749 C136.873,408.87 135.384,409.486 133.8,409.486"></path></g></g></svg>