<svg height='100px' width='100px'  fill="#000000" xmlns="http://www.w3.org/2000/svg" xmlns:xlink="http://www.w3.org/1999/xlink" version="1.1" x="0px" y="0px" viewBox="0 0 32 32" enable-background="new 0 0 32 32" xml:space="preserve"><g display="none"><rect x="-168.005" y="-132.333" display="inline" fill="#000000" width="404.667" height="211.333"></rect></g><g><g><path d="M13.383,13.541c0.422,0,0.762-0.089,1.019-0.266c0.258-0.177,0.436-0.41,0.533-0.702c0.073-0.224,0.109-0.542,0.109-0.957    V8.444h-1.008v3.237c0,0.405-0.047,0.672-0.141,0.801c-0.093,0.129-0.253,0.193-0.479,0.193c-0.223,0-0.39-0.09-0.499-0.27    c-0.072-0.119-0.115-0.322-0.126-0.609l-0.954,0.109c0.003,0.536,0.137,0.942,0.403,1.219    C12.508,13.402,12.889,13.541,13.383,13.541z"></path><path d="M17.943,12.689c-0.308,0-0.552-0.077-0.733-0.232c-0.181-0.155-0.301-0.397-0.36-0.729l-0.984,0.096    c0.066,0.561,0.27,0.987,0.608,1.28c0.34,0.293,0.826,0.439,1.46,0.439c0.435,0,0.799-0.061,1.09-0.183    c0.292-0.122,0.518-0.309,0.677-0.559c0.16-0.251,0.239-0.52,0.239-0.807c0-0.317-0.066-0.583-0.2-0.799    c-0.133-0.215-0.317-0.385-0.554-0.509c-0.235-0.124-0.6-0.245-1.092-0.36c-0.492-0.117-0.802-0.229-0.93-0.336    c-0.1-0.084-0.15-0.186-0.15-0.304c0-0.13,0.054-0.233,0.161-0.312c0.166-0.12,0.396-0.181,0.69-0.181    c0.284,0,0.498,0.057,0.641,0.169c0.143,0.113,0.235,0.298,0.278,0.556l1.012-0.044c-0.016-0.461-0.183-0.829-0.501-1.104    c-0.317-0.275-0.791-0.413-1.42-0.413c-0.385,0-0.714,0.058-0.986,0.174c-0.271,0.116-0.48,0.285-0.625,0.508    c-0.145,0.222-0.217,0.461-0.217,0.716c0,0.396,0.153,0.732,0.461,1.009c0.219,0.195,0.6,0.36,1.142,0.495    c0.422,0.104,0.691,0.178,0.811,0.219c0.173,0.062,0.294,0.134,0.363,0.217c0.07,0.083,0.104,0.185,0.104,0.303    c0,0.185-0.082,0.346-0.248,0.483C18.514,12.62,18.269,12.689,17.943,12.689z"></path><path d="M3.5,0v32h25V4.962L23.538,0H3.5z M27.5,31h-23V1h18.624L27.5,5.376V31z"></path><rect x="8.507" y="24.041" width="14.985" height="1"></rect><rect x="8.507" y="20.5" width="14.985" height="1"></rect></g></g><g display="none"><g display="inline"><g><path d="M23.538,0H3.5v32h25V4.962L23.538,0z M18.823,11.002c-0.069-0.083-0.19-0.155-0.363-0.217     c-0.119-0.041-0.389-0.114-0.811-0.219c-0.542-0.135-0.923-0.3-1.142-0.495c-0.308-0.276-0.461-0.612-0.461-1.009     c0-0.255,0.072-0.494,0.217-0.716c0.145-0.223,0.354-0.392,0.625-0.508c0.272-0.116,0.602-0.174,0.986-0.174     c0.629,0,1.103,0.138,1.42,0.413c0.318,0.275,0.485,0.644,0.501,1.104l-1.012,0.044c-0.043-0.258-0.136-0.442-0.278-0.556     c-0.143-0.112-0.356-0.169-0.641-0.169c-0.294,0-0.524,0.061-0.69,0.181c-0.107,0.078-0.161,0.182-0.161,0.312     c0,0.118,0.051,0.22,0.15,0.304c0.128,0.107,0.438,0.219,0.93,0.336c0.492,0.115,0.856,0.236,1.092,0.36     c0.236,0.124,0.421,0.294,0.554,0.509c0.134,0.216,0.2,0.481,0.2,0.799c0,0.287-0.079,0.556-0.239,0.807     c-0.159,0.25-0.385,0.437-0.677,0.559c-0.291,0.122-0.655,0.183-1.09,0.183c-0.634,0-1.12-0.146-1.46-0.439     c-0.339-0.293-0.542-0.72-0.608-1.28l0.984-0.096c0.06,0.331,0.18,0.573,0.36,0.729c0.182,0.155,0.426,0.232,0.733,0.232     c0.326,0,0.571-0.069,0.736-0.207c0.166-0.138,0.248-0.299,0.248-0.483C18.927,11.187,18.893,11.085,18.823,11.002z      M12.793,11.103c0.011,0.287,0.054,0.49,0.126,0.609c0.109,0.18,0.276,0.27,0.499,0.27c0.226,0,0.386-0.064,0.479-0.193     c0.094-0.129,0.141-0.396,0.141-0.801V7.75h1.008v3.172c0,0.415-0.036,0.733-0.109,0.957c-0.098,0.292-0.275,0.525-0.533,0.702     c-0.257,0.177-0.597,0.266-1.019,0.266c-0.494,0-0.875-0.139-1.142-0.416c-0.267-0.276-0.4-0.683-0.403-1.219L12.793,11.103z      M23.493,25.041H8.507v-1h14.986V25.041z M23.493,21.5H8.507v-1h14.986V21.5z"></path></g></g></g><g display="none"><g display="inline"><text transform="matrix(1 0 0 1 11.719 13.4549)" stroke="#000000" stroke-width="0.25" stroke-miterlimit="10" font-family="'Arial-BoldMT'" font-size="7px">JS</text></g><g display="inline"><g><path d="M22.71,2l3.79,3.79V30h-21V2H22.71 M23.538,0H3.5v32h25V4.962L23.538,0L23.538,0z"></path></g><g><g><g><line fill="none" stroke="#000000" stroke-width="2" stroke-miterlimit="10" x1="8.507" y1="24.542" x2="23.493" y2="24.542"></line></g></g><g><g><line fill="none" stroke="#000000" stroke-width="2" stroke-miterlimit="10" x1="8.507" y1="21" x2="23.493" y2="21"></line></g></g></g></g></g><g display="none"><g display="inline"><text transform="matrix(1 0 0 1 11.719 13.4549)" font-family="'Arial-BoldMT'" font-size="7px">JS</text></g><g display="inline"><g><path fill="#000000" d="M23.331,0.5L28,5.169V31.5H4v-31H23.331 M23.538,0H3.5v32h25V4.962L23.538,0L23.538,0z"></path></g><g><g><g><line fill="none" stroke="#000000" stroke-width="0.5" stroke-miterlimit="10" x1="8.507" y1="24.542" x2="23.493" y2="24.542"></line></g></g><g><g><line fill="none" stroke="#000000" stroke-width="0.5" stroke-miterlimit="10" x1="8.507" y1="21" x2="23.493" y2="21"></line></g></g></g></g></g></svg>