<svg height='100px' width='100px'  fill="#000000" xmlns="http://www.w3.org/2000/svg" xmlns:xlink="http://www.w3.org/1999/xlink" xml:space="preserve" version="1.1" style="shape-rendering:geometricPrecision;text-rendering:geometricPrecision;image-rendering:optimizeQuality;" viewBox="0 0 447.22 447.22" x="0px" y="0px" fill-rule="evenodd" clip-rule="evenodd"><defs><style type="text/css">
   
    .fil0 {fill:#000000}
    .fil1 {fill:#000000;fill-rule:nonzero}
   
  </style></defs><g><path class="fil0" d="M178.31 202.18l2.22 -16.55c0.15,-1.09 0.98,-1.92 2.06,-2.06l74.15 -9.76c1.81,-0.24 3.2,1.54 2.55,3.25 -18.69,48.25 -38.03,96.33 -42.21,147.97 -0.38,4.71 3.75,8.47 8.41,7.67 15.39,-2.67 27.98,-14.15 40.03,-27.25 0.87,-0.94 2.31,-1.03 3.3,-0.21l9.2 7.66c0.96,0.8 1.15,2.2 0.43,3.22 -19.8,28.04 -83.73,69.78 -104.83,35.25 -17.13,-28.02 11.79,-96.01 23.63,-143.37 0.37,-1.51 -0.75,-2.97 -2.31,-2.98l-14.27 -0.12c-1.46,-0.01 -2.56,-1.27 -2.36,-2.72z"></path><path class="fil0" d="M244.97 82.79c18.01,0 32.61,14.61 32.61,32.63 0,18 -14.6,32.61 -32.61,32.61 -18.02,0 -32.63,-14.61 -32.63,-32.61 0,-18.02 14.61,-32.63 32.63,-32.63z"></path><path class="fil1" d="M223.61 0c123.43,0 223.61,100.18 223.61,223.61 0,123.43 -100.18,223.61 -223.61,223.61 -123.43,0 -223.61,-100.18 -223.61,-223.61 0,-123.43 100.18,-223.61 223.61,-223.61zm0 25.4c-109.52,0 -198.21,88.69 -198.21,198.21 0,109.52 88.69,198.21 198.21,198.21 109.52,0 198.21,-88.69 198.21,-198.21 0,-109.52 -88.69,-198.21 -198.21,-198.21z"></path></g></svg>