<svg height='100px' width='100px'  xmlns:dc="http://purl.org/dc/elements/1.1/" xmlns:cc="http://creativecommons.org/ns#" xmlns:rdf="http://www.w3.org/1999/02/22-rdf-syntax-ns#" xmlns:svg="http://www.w3.org/2000/svg" xmlns="http://www.w3.org/2000/svg" xmlns:sodipodi="http://sodipodi.sourceforge.net/DTD/sodipodi-0.dtd" xmlns:inkscape="http://www.inkscape.org/namespaces/inkscape" version="1.1" x="0px" y="0px" viewBox="0 0 100 100" style="" fill="#000000"><path style="font-size:medium;font-style:normal;font-variant:normal;font-weight:normal;font-stretch:normal;text-indent:0;text-align:start;text-decoration:none;line-height:normal;letter-spacing:normal;word-spacing:normal;text-transform:none;direction:ltr;block-progression:tb;writing-mode:lr-tb;text-anchor:start;baseline-shift:baseline;opacity:1;color:#000000;fill:#000000;fill-opacity:1;stroke:none;stroke-width:4;marker:none;visibility:visible;display:inline;overflow:visible;enable-background:accumulate;font-family:Sans;-inkscape-font-specification:Sans" d="M 50 4 C 46.650098 4 43.788403 6.3712066 43.125 9.5625 C 43.1178 9.590415 43.10484 9.613542 43.09375 9.65625 C 43.06207 9.7782739 43.02914 9.9568177 42.96875 10.1875 C 42.847964 10.648865 42.659785 11.342157 42.4375 12.1875 C 41.992931 13.878185 41.380956 16.256603 40.625 19.125 C 39.113089 24.861795 37.101155 32.485572 35.09375 40.09375 C 31.920809 52.11938 29.941585 59.617378 28.75 64.125 L 10.125 73.1875 A 2.0002 2.0002 0 0 0 10.125 76.8125 L 49.125 95.8125 A 2.0002 2.0002 0 0 0 50.875 95.8125 L 89.875 76.8125 A 2.0002 2.0002 0 0 0 89.875 73.1875 L 71.25 64.125 C 70.058415 59.617378 68.079191 52.11938 64.90625 40.09375 A 2.0001994 2.0001994 0 0 0 64.65625 39.125 C 62.742081 31.870311 60.81716 24.597131 59.375 19.125 C 58.619044 16.256603 58.007069 13.878185 57.5625 12.1875 C 57.340215 11.342157 57.152036 10.648865 57.03125 10.1875 C 56.97086 9.9568177 56.93793 9.7782739 56.90625 9.65625 C 56.895161 9.6135416 56.882188 9.5904152 56.875 9.5625 C 56.866827 9.5231853 56.848793 9.5475028 56.84375 9.53125 C 56.839931 9.5163205 56.840091 9.4817768 56.84375 9.46875 C 56.142626 6.3274735 53.31514 4 50 4 z M 50 8 C 51.471854 8 52.656781 9.0246024 52.9375 10.375 C 52.98051 10.581892 52.9589 10.492759 52.96875 10.53125 C 52.97855 10.56974 53.01476 10.62398 53.03125 10.6875 C 53.06424 10.814547 53.0955 10.986707 53.15625 11.21875 C 53.277748 11.682836 53.465029 12.341448 53.6875 13.1875 C 54.132442 14.879604 54.775199 17.28749 55.53125 20.15625 C 55.837908 21.319833 56.314748 23.103429 56.65625 24.40625 C 55.576687 25.085369 53.002634 26 50 26 C 46.997366 26 44.423313 25.085369 43.34375 24.40625 C 43.685252 23.103429 44.162092 21.319833 44.46875 20.15625 C 45.224801 17.28749 45.867558 14.879604 46.3125 13.1875 C 46.534971 12.341448 46.722252 11.682836 46.84375 11.21875 C 46.9045 10.986707 46.93576 10.814547 46.96875 10.6875 C 46.98524 10.62398 47.0214 10.569741 47.03125 10.53125 C 47.04105 10.49276 47.01949 10.58189 47.0625 10.375 C 47.343219 9.0246024 48.528146 8 50 8 z M 42.28125 28.5 C 44.356742 29.568215 47.028322 30 50 30 C 52.971678 30 55.643258 29.568215 57.71875 28.5 C 58.668099 32.128625 59.547374 35.494006 60.59375 39.46875 C 58.820822 40.662186 54.730967 42 50 42 C 45.269032 42 41.179178 40.662186 39.40625 39.46875 C 40.452626 35.494006 41.331901 32.128625 42.28125 28.5 z M 38.3125 43.5625 C 41.255618 45.233574 45.372238 46 50 46 C 54.627762 46 58.744382 45.233574 61.6875 43.5625 C 63.011929 48.579539 63.24971 49.549587 64.34375 53.6875 C 62.02955 55.895718 56.500124 58 50 58 C 43.499876 58 37.97045 55.895718 35.65625 53.6875 C 36.750291 49.549587 36.988071 48.579539 38.3125 43.5625 z M 34.53125 57.9375 C 38.219673 60.575736 43.76531 62 50 62 C 56.23469 62 61.780327 60.575736 65.46875 57.9375 C 66.661253 62.445815 68.929428 71.0073 68.96875 71.15625 C 68.92775 71.728183 68.679574 72.341839 67.9375 73.09375 C 67.130724 73.911221 65.793351 74.789457 64.0625 75.53125 C 60.600798 77.014836 55.567373 78 50 78 C 44.432627 78 39.399202 77.014836 35.9375 75.53125 C 34.206649 74.789457 32.869276 73.911221 32.0625 73.09375 C 31.320426 72.341839 31.072255 71.728183 31.03125 71.15625 C 31.07057 71.0073 33.338747 62.445815 34.53125 57.9375 z M 27.40625 69.21875 C 27.392259 69.271665 27.0625 70.5 27.0625 70.5 A 2.0001994 2.0001994 0 0 0 27 71 C 27 72.873154 27.90021 74.57023 29.21875 75.90625 C 30.53729 77.24227 32.305598 78.300614 34.375 79.1875 C 38.513803 80.961273 43.969393 82 50 82 C 56.030607 82 61.486197 80.961273 65.625 79.1875 C 67.694402 78.300614 69.46271 77.24227 70.78125 75.90625 C 72.09979 74.57023 73 72.873154 73 71 A 2.0001994 2.0001994 0 0 0 72.9375 70.5 C 72.9375 70.5 72.607741 69.271665 72.59375 69.21875 L 84.40625 75 L 50 91.75 L 15.59375 75 L 27.40625 69.21875 z "></path></svg>