<svg height='100px' width='100px'  fill="#000000" xmlns="http://www.w3.org/2000/svg" xmlns:xlink="http://www.w3.org/1999/xlink" version="1.1" x="0px" y="0px" viewBox="0 0 512 512" style="enable-background:new 0 0 512 512;" xml:space="preserve"><g><g><g><g><path d="M179.333,493H26c-3.866,0-7-3.134-7-7V332.667c0-3.866,3.134-7,7-7h153.333c3.866,0,7,3.134,7,7V486      C186.333,489.866,183.199,493,179.333,493z M33,479h139.333V339.667H33V479z"></path></g><g><path d="M77.11,407.814c-1.132,0-2.268-0.274-3.303-0.828c-2.276-1.219-3.697-3.59-3.697-6.172v-68.147c0-3.866,3.134-7,7-7      h51.111c3.866,0,7,3.134,7,7v68.147c0,2.582-1.421,4.953-3.697,6.172c-2.277,1.218-5.038,1.084-7.186-0.348l-21.672-14.448      l-21.673,14.448C79.822,407.42,78.468,407.814,77.11,407.814z M84.111,339.667v48.068l14.673-9.782      c2.351-1.568,5.414-1.568,7.766,0l14.672,9.781v-48.067H84.111z"></path></g><g><path d="M136.741,458.926H68.593c-3.866,0-7-3.134-7-7s3.134-7,7-7h68.148c3.866,0,7,3.134,7,7S140.607,458.926,136.741,458.926      z"></path></g></g><g><g><g><path d="M332.666,493H179.333c-3.866,0-7-3.134-7-7V332.667c0-3.866,3.134-7,7-7h153.333c3.866,0,7,3.134,7,7V486       C339.666,489.866,336.532,493,332.666,493z M186.333,479h139.333V339.667H186.333V479z"></path></g><g><path d="M230.443,407.814c-1.132,0-2.268-0.274-3.303-0.828c-2.276-1.219-3.697-3.59-3.697-6.172v-68.147c0-3.866,3.134-7,7-7       h51.113c3.866,0,7,3.134,7,7v68.147c0,2.582-1.421,4.953-3.697,6.172c-2.273,1.217-5.036,1.085-7.186-0.348L256,392.19       l-21.673,14.448C233.155,407.42,231.801,407.814,230.443,407.814z M256,376.777c1.354,0,2.707,0.392,3.883,1.176l14.674,9.782       v-48.068h-37.113v48.068l14.673-9.782C253.293,377.169,254.646,376.777,256,376.777z"></path></g><g><path d="M290.074,458.926h-68.148c-3.866,0-7-3.134-7-7s3.134-7,7-7h68.148c3.866,0,7,3.134,7,7       S293.94,458.926,290.074,458.926z"></path></g></g><g><g><path d="M486,493H332.667c-3.866,0-7-3.134-7-7V332.667c0-3.866,3.134-7,7-7H486c3.866,0,7,3.134,7,7V486       C493,489.866,489.866,493,486,493z M339.667,479H479V339.667H339.667V479z"></path></g><g><path d="M434.889,407.814c-1.357,0-2.712-0.395-3.883-1.176l-21.673-14.448l-21.673,14.448       c-2.147,1.434-4.909,1.565-7.186,0.348c-2.276-1.219-3.697-3.59-3.697-6.172v-68.147c0-3.866,3.134-7,7-7h51.111       c3.866,0,7,3.134,7,7v68.147c0,2.582-1.421,4.953-3.697,6.172C437.157,407.54,436.021,407.814,434.889,407.814z        M409.333,376.777c1.354,0,2.707,0.392,3.883,1.176l14.673,9.781v-48.067h-37.111v48.067l14.673-9.781       C406.626,377.169,407.979,376.777,409.333,376.777z"></path></g><g><path d="M443.407,458.926H375.26c-3.866,0-7-3.134-7-7s3.134-7,7-7h68.147c3.866,0,7,3.134,7,7       S447.273,458.926,443.407,458.926z"></path></g></g></g><g><g><g><path d="M332.666,339.666H179.333c-3.866,0-7-3.134-7-7V179.333c0-3.866,3.134-7,7-7h153.333c3.866,0,7,3.134,7,7v153.333       C339.666,336.532,336.532,339.666,332.666,339.666z M186.333,325.666h139.333V186.333H186.333V325.666z"></path></g><g><path d="M230.443,254.481c-1.132,0-2.268-0.274-3.303-0.828c-2.276-1.218-3.697-3.59-3.697-6.172v-68.148c0-3.866,3.134-7,7-7       h51.113c3.866,0,7,3.134,7,7v68.148c0,2.582-1.421,4.954-3.697,6.172c-2.273,1.216-5.036,1.085-7.186-0.348L256,238.857       l-21.673,14.448C233.155,254.086,231.801,254.481,230.443,254.481z M256,223.444c1.354,0,2.707,0.392,3.883,1.176l14.674,9.782       v-48.069h-37.113v48.068l14.673-9.782C253.293,223.836,254.646,223.444,256,223.444z"></path></g><g><path d="M290.074,305.593h-68.148c-3.866,0-7-3.134-7-7s3.134-7,7-7h68.148c3.866,0,7,3.134,7,7       S293.94,305.593,290.074,305.593z"></path></g></g><g><g><path d="M486,339.666H332.667c-3.866,0-7-3.134-7-7V179.333c0-3.866,3.134-7,7-7H486c3.866,0,7,3.134,7,7v153.333       C493,336.532,489.866,339.666,486,339.666z M339.667,325.666H479V186.333H339.667V325.666z"></path></g><g><path d="M434.889,254.481c-1.357,0-2.712-0.395-3.883-1.176l-21.673-14.448l-21.673,14.448       c-2.147,1.433-4.909,1.565-7.186,0.348c-2.276-1.218-3.697-3.59-3.697-6.172v-68.148c0-3.866,3.134-7,7-7h51.111       c3.866,0,7,3.134,7,7v68.148c0,2.582-1.421,4.954-3.697,6.172C437.157,254.207,436.021,254.481,434.889,254.481z        M409.333,223.444c1.354,0,2.707,0.392,3.883,1.176l14.673,9.782v-48.068h-37.111v48.068l14.673-9.782       C406.626,223.836,407.979,223.444,409.333,223.444z"></path></g><g><path d="M443.407,305.593H375.26c-3.866,0-7-3.134-7-7s3.134-7,7-7h68.147c3.866,0,7,3.134,7,7       S447.273,305.593,443.407,305.593z"></path></g></g></g><g><g><path d="M486,186.333H332.667c-3.866,0-7-3.134-7-7V26c0-3.866,3.134-7,7-7H486c3.866,0,7,3.134,7,7v153.333      C493,183.199,489.866,186.333,486,186.333z M339.667,172.333H479V33H339.667V172.333z"></path></g><g><path d="M434.889,101.148c-1.357,0-2.712-0.395-3.883-1.176l-21.673-14.448L387.66,99.972c-2.147,1.433-4.909,1.565-7.186,0.348      c-2.276-1.218-3.697-3.59-3.697-6.172V26c0-3.866,3.134-7,7-7h51.111c3.866,0,7,3.134,7,7v68.148      c0,2.582-1.421,4.954-3.697,6.172C437.157,100.874,436.021,101.148,434.889,101.148z M409.333,70.111      c1.354,0,2.707,0.392,3.883,1.176l14.673,9.782V33h-37.111v48.068l14.673-9.782C406.626,70.503,407.979,70.111,409.333,70.111z"></path></g><g><path d="M443.407,152.259H375.26c-3.866,0-7-3.134-7-7s3.134-7,7-7h68.147c3.866,0,7,3.134,7,7S447.273,152.259,443.407,152.259      z"></path></g></g></g></g></svg>