<svg height='100px' width='100px'  fill="#000000" xmlns="http://www.w3.org/2000/svg" xmlns:xlink="http://www.w3.org/1999/xlink" version="1.1" x="0px" y="0px" viewBox="0 0 52 52" style="enable-background:new 0 0 52 52;" xml:space="preserve"><style type="text/css">
	.st0{fill:none;stroke:#000000;stroke-width:2;stroke-linecap:round;stroke-linejoin:round;stroke-miterlimit:10;}
	.st1{fill:none;stroke:#000000;stroke-width:2;stroke-linecap:round;stroke-miterlimit:10;}
	.st2{fill:none;stroke:#000000;stroke-width:2;stroke-linecap:round;stroke-linejoin:round;}
	.st3{fill:none;stroke:#000000;stroke-width:2;stroke-linecap:round;stroke-linejoin:round;stroke-dasharray:10.6982,5.3491;}
	.st4{fill:none;stroke:#000000;stroke-width:2;stroke-miterlimit:10;}
	.st5{fill:none;stroke:#000000;stroke-width:2;stroke-linejoin:round;stroke-miterlimit:10;}
</style><g><path class="st0" d="M22.1,49c-0.7-0.2-1.8-0.5-3-1c-4.9-2.2-8.8-7.1-10-12.6c-1.4-6.9,1.9-12.7,3-14.4c3.2-4.9,6.8-5.6,7.5-9.6   C20.3,8.1,18.5,5,17,3c2.5,0.6,16.1,4.1,22.7,14.8c1.3,2.1,5.8,9.7,2.1,18.7c-2.1,5.1-6,8.4-8.2,10.1c0.5-0.8,2.6-4,1-7.8   c-0.8-1.9-2.2-3.2-3.1-3.9c0.9,1,0.9,2.3,0,3.1c-0.7,0.7-2.2,1.1-3.1,0.8c-0.9-0.4-1.1-1.5-1-3.1c0.1-4.6,1.1-6.2,1-8.6   c-0.1-1.5-0.7-3.7-3.1-6.2c0.1,2.6-0.3,6.1-3.1,9.4c-1.6,1.8-2.6,1.9-4.1,3.9c-1.9,2.4-3.7,6.6-2.1,10.1   C17.5,47.8,21.4,48.8,22.1,49z"></path></g></svg>