<svg height='100px' width='100px'  fill="#000000" xmlns:dc="http://purl.org/dc/elements/1.1/" xmlns:cc="http://creativecommons.org/ns#" xmlns:rdf="http://www.w3.org/1999/02/22-rdf-syntax-ns#" xmlns:svg="http://www.w3.org/2000/svg" xmlns="http://www.w3.org/2000/svg" xmlns:sodipodi="http://sodipodi.sourceforge.net/DTD/sodipodi-0.dtd" xmlns:inkscape="http://www.inkscape.org/namespaces/inkscape" viewBox="0 0 26.458333 26.458334" version="1.1" x="0px" y="0px"><g transform="translate(0,-270.54165)"><path style="color:#000000;font-style:normal;font-variant:normal;font-weight:normal;font-stretch:normal;font-size:medium;line-height:normal;font-family:sans-serif;font-variant-ligatures:normal;font-variant-position:normal;font-variant-caps:normal;font-variant-numeric:normal;font-variant-alternates:normal;font-feature-settings:normal;text-indent:0;text-align:start;text-decoration:none;text-decoration-line:none;text-decoration-style:solid;text-decoration-color:#000000;letter-spacing:normal;word-spacing:normal;text-transform:none;writing-mode:lr-tb;direction:ltr;text-orientation:mixed;dominant-baseline:auto;baseline-shift:baseline;text-anchor:start;white-space:normal;shape-padding:0;clip-rule:nonzero;display:inline;overflow:visible;visibility:visible;opacity:1;isolation:auto;mix-blend-mode:normal;color-interpolation:sRGB;color-interpolation-filters:linearRGB;solid-color:#000000;solid-opacity:1;vector-effect:none;fill:#000000;fill-opacity:1;fill-rule:nonzero;stroke:none;stroke-width:1.25550056;stroke-linecap:round;stroke-linejoin:round;stroke-miterlimit:4;stroke-dasharray:none;stroke-dashoffset:0;stroke-opacity:1;color-rendering:auto;image-rendering:auto;shape-rendering:auto;text-rendering:auto;enable-background:accumulate" d="M 10.574966,272.12916 A 0.73501945,0.72792132 0 0 0 9.8393021,272.857 v 2.2994 0.23953 H 7.2433065 a 0.63086662,0.62477431 0 0 0 -0.628723,0.62337 v 15.03319 1.09321 1.28439 c 0,0.44208 0.2691777,0.7898 0.566999,1.02069 0.2978219,0.2309 0.6583797,0.39406 1.0794519,0.53169 0.842145,0.27522 1.9317006,0.43002 3.1385926,0.43002 h 3.656069 c 1.206893,0 2.296447,-0.1548 3.138592,-0.43002 0.421073,-0.13763 0.782347,-0.30079 1.080169,-0.53169 0.29782,-0.23089 0.569154,-0.57861 0.569154,-1.02069 v -1.2581 a 0.63204607,0.62594236 0 0 0 0,-0.0263 v -1.09321 -15.03319 a 0.63086662,0.62477431 0 0 0 -0.631595,-0.62337 h -2.595995 v -0.18835 -2.35058 a 0.73501945,0.72792132 0 0 0 -0.735663,-0.72784 z m 0.734946,1.45569 h 3.83837 v 1.62273 0.18835 h -3.83837 v -0.23953 z m -3.4342934,3.05994 H 18.579704 v 14.4077 1.09321 1.24743 c -0.0065,0.007 -0.02374,0.0295 -0.0811,0.0739 -0.121609,0.0943 -0.369773,0.22053 -0.699777,0.32839 -0.660011,0.21571 -1.647244,0.36748 -2.74241,0.36748 h -3.65679 c -1.095166,0 -2.0824008,-0.15177 -2.7424105,-0.36748 -0.3300053,-0.10782 -0.5760164,-0.23409 -0.6976246,-0.32839 -0.05819,-0.045 -0.077107,-0.0673 -0.083973,-0.0747 v -1.24673 -1.0932 z"></path></g></svg>