<svg height='100px' width='100px'  fill="#000000" xmlns="http://www.w3.org/2000/svg" xmlns:xlink="http://www.w3.org/1999/xlink" version="1.1" x="0px" y="0px" viewBox="0 0 128 128" style="enable-background:new 0 0 128 128;" xml:space="preserve"><g><path d="M72.3,16.1L39.1,39.8H20.5c-1.3,0-2.4,1.1-2.4,2.4v43.5c0,1.3,1.1,2.4,2.4,2.4h18.6l33.2,23.7c0.4,0.3,0.9,0.4,1.4,0.4   c0.4,0,0.8-0.1,1.1-0.3c0.8-0.4,1.3-1.2,1.3-2.1V18.1c0-0.9-0.5-1.7-1.3-2.1S73,15.6,72.3,16.1z M22.9,44.7h14.5v38.7H22.9V44.7z    M71.2,105.2l-29-20.7v-41l29-20.7V105.2z"></path><path d="M97.6,90.3c0.6,0,1.2-0.2,1.7-0.7c6.8-6.9,10.6-16,10.6-25.6s-3.8-18.8-10.6-25.6c-0.9-0.9-2.5-0.9-3.4,0   c-0.9,0.9-0.9,2.5,0,3.4c5.9,6,9.2,13.8,9.2,22.2s-3.3,16.3-9.2,22.2c-0.9,0.9-0.9,2.5,0,3.4C96.3,90.1,97,90.3,97.6,90.3z"></path><path d="M87.3,81.1c0.5,0.5,1.1,0.7,1.7,0.7c0.6,0,1.2-0.2,1.7-0.7c4.6-4.5,7.1-10.6,7.1-17.1s-2.5-12.5-7.1-17.1   c-0.9-0.9-2.5-0.9-3.4,0c-0.9,0.9-0.9,2.5,0,3.4C91,54,93,58.8,93,64s-2,10-5.7,13.7C86.4,78.6,86.4,80.1,87.3,81.1z"></path></g></svg>