<svg height='100px' width='100px'  fill="#000000" xmlns="http://www.w3.org/2000/svg" data-name="Слой 3" viewBox="0 0 184.51351 184.51351" x="0px" y="0px"><title>82</title><path d="M230.22684,137.97009H204.69852l21.11892-21.115a12.02863,12.02863,0,0,0-17.01105-17.011l-38.13,38.12606h-8.64651v-8.65434L200.156,91.19361a12.02863,12.02863,0,0,0-17.011-17.01105l-21.115,21.115V69.77316a12.02991,12.02991,0,1,0-24.05982,0V95.30148L116.85116,74.18256a12.02863,12.02863,0,1,0-17.011,17.01105l38.13,38.12606v8.65042h-8.65042L91.1897,99.844a12.02863,12.02863,0,0,0-17.011,17.011l21.11892,21.115H69.77316a12.02991,12.02991,0,1,0,0,24.05982H95.29757L74.17865,183.14884a12.03971,12.03971,0,0,0,0,17.011,12.32071,12.32071,0,0,0,17.011,0l38.13-38.13h8.65042v8.65042l-38.13,38.13a12.02553,12.02553,0,0,0,0,17.011,12.32069,12.32069,0,0,0,17.011,0l21.11893-21.11892v25.52441a12.02991,12.02991,0,1,0,24.05982,0V204.70635l21.115,21.115a12.32069,12.32069,0,0,0,17.011,0,12.03973,12.03973,0,0,0,0-17.011l-38.12606-38.12605v-8.65434h8.64651l38.13,38.13a12.32071,12.32071,0,0,0,17.01105,0,12.03973,12.03973,0,0,0,0-17.011l-21.11892-21.11893h25.52832a12.02991,12.02991,0,1,0,0-24.05982Zm0,16.03988h-44.889l34.80922,34.80922a4.01561,4.01561,0,0,1,0,5.67035,4.112,4.112,0,0,1-5.67035,0L173.99717,154.01H154.01v19.995l40.47565,40.47565a4.01561,4.01561,0,0,1,0,5.67035,4.112,4.112,0,0,1-5.67035,0L154.01,185.34571v44.88113a4.01,4.01,0,0,1-8.01994,0V185.34179L111.18081,220.151a4.112,4.112,0,0,1-5.67035,0,4.00852,4.00852,0,0,1,0-5.67035L145.99,174.00109V154.01H125.99891L85.51935,194.48954a4.112,4.112,0,0,1-5.67035,0,4.01561,4.01561,0,0,1,0-5.67035L114.65821,154.01h-44.885a4.01,4.01,0,0,1,0-8.01994h44.885L79.849,111.18473a4.00954,4.00954,0,0,1,5.67035-5.67035L125.99891,145.99H145.99V125.99891L105.51046,85.52326a4.00954,4.00954,0,0,1,5.67035-5.67035L145.99,114.66213v-44.889a4.01,4.01,0,0,1,8.01994,0v44.885l34.8053-34.8053a4.00954,4.00954,0,0,1,5.67035,5.67035L154.01,125.995V145.99h19.9872l40.47957-40.47565a4.00954,4.00954,0,0,1,5.67035,5.67035L185.33787,145.99h44.889a4.01,4.01,0,0,1,0,8.01994Z" transform="translate(-57.74325 -57.74325)"></path></svg>