<svg height='100px' width='100px'  fill="#000000" xmlns="http://www.w3.org/2000/svg" xmlns:xlink="http://www.w3.org/1999/xlink" version="1.1" x="0px" y="0px" viewBox="0 0 512 512" style="enable-background:new 0 0 512 512;" xml:space="preserve"><g><g><g><path d="M236.005,456.208c-5.523,0-10-4.478-10-10V406c0-5.522,4.477-10,10-10s10,4.478,10,10v40.208     C246.005,451.73,241.528,456.208,236.005,456.208z"></path></g><g><path d="M346.006,496h-220c-5.523,0-10-4.478-10-10v-20c0-15.592,15.195-29.792,31.881-29.792h178.235     c16.199,0,29.885,13.643,29.885,29.792v20C356.006,491.522,351.528,496,346.006,496z M136.005,476h200v-10     c0-5.125-4.711-9.792-9.885-9.792H147.886c-5.552,0-11.881,5.216-11.881,9.792V476z"></path></g><g><path d="M236.005,416c-51.043,0-99.642-19.229-136.843-54.143c-4.027-3.78-4.228-10.108-0.448-14.136     c3.78-4.025,10.109-4.226,14.135-0.448C146.329,378.695,190.066,396,236.005,396c99.252,0,180-80.748,180-180     c0-74.304-44.624-140.01-113.686-167.394c-5.135-2.036-7.646-7.848-5.61-12.982c2.035-5.134,7.85-7.645,12.981-5.61     c36.837,14.606,68.269,39.615,90.898,72.323c23.169,33.489,35.416,72.793,35.416,113.663C436.006,326.28,346.286,416,236.005,416     z"></path></g><g><path d="M284.227,368.044c-1.657,0-3.307-0.412-4.792-1.223c-2.452-1.339-4.232-3.643-4.91-6.353     c-8.571-34.301-35.637-69.796-72.4-94.95c-32.027-21.914-67.572-33.982-100.087-33.982c-5.015,0-9.94,0.302-14.641,0.896     c-2.77,0.352-5.564-0.474-7.7-2.275c-2.136-1.801-3.421-4.413-3.545-7.204c-1.54-34.82,8.075-68.466,27.805-97.303     c19.73-28.836,47.608-49.987,80.621-61.166c2.647-0.896,5.548-0.644,8,0.694c2.452,1.339,4.232,3.643,4.91,6.353     c8.571,34.3,35.637,69.795,72.4,94.949c32.028,21.915,67.573,33.983,100.087,33.982c5.017,0,9.942-0.302,14.641-0.896     c2.776-0.348,5.564,0.474,7.7,2.275s3.422,4.413,3.545,7.205c1.539,34.822-8.075,68.469-27.806,97.303     c-19.729,28.835-47.606,49.986-80.619,61.166C286.391,367.869,285.307,368.044,284.227,368.044z M102.037,211.537     c36.505,0,76.061,13.309,111.381,37.476c37.542,25.687,65.207,60.134,77.341,95.859c24.63-10.405,45.501-27.474,60.788-49.816     c15.289-22.345,23.637-47.986,24.411-74.717c-1.98,0.083-3.979,0.125-5.984,0.125c-36.504,0.001-76.06-13.308-111.381-37.476     c-37.543-25.687-65.208-60.134-77.342-95.859c-24.629,10.405-45.501,27.473-60.789,49.816     c-15.29,22.346-23.637,47.987-24.411,74.717C98.033,211.579,100.03,211.537,102.037,211.537z"></path></g><g><path d="M369.975,220.463C369.975,220.463,369.975,220.463,369.975,220.463c-36.507,0-76.063-13.31-111.381-37.476     c-41.296-28.254-70.642-67.111-80.511-106.606c-1.262-5.051,1.563-10.226,6.494-11.896c16.65-5.638,34-8.497,51.569-8.497     c32.279,0,63.473,9.669,90.209,27.963c21.123,14.452,37.995,33.104,50.15,55.436c11.588,21.292,18.28,45.38,19.354,69.66     c0.229,5.201-3.57,9.709-8.735,10.362C381.595,220.109,375.824,220.463,369.975,220.463z M200.19,80.658     c10.734,31.375,36.187,62.896,69.697,85.824c32.026,21.913,67.571,33.981,100.087,33.982c0.001,0,0.001,0,0.001,0     c1.734,0,3.456-0.036,5.163-0.108c-4.507-40.592-26.044-76.613-60.075-99.898c-23.396-16.008-50.686-24.469-78.917-24.469     C223.972,75.988,211.917,77.556,200.19,80.658z"></path></g><g><path d="M235.871,376.012c-0.002,0-0.003,0-0.005,0c-32.28-0.001-63.474-9.67-90.21-27.963     c-21.123-14.452-37.995-33.104-50.15-55.436c-11.588-21.292-18.281-45.38-19.354-69.66c-0.23-5.202,3.57-9.709,8.735-10.363     c5.529-0.699,11.299-1.054,17.15-1.054c36.505,0,76.061,13.309,111.381,37.476c41.295,28.255,70.64,67.111,80.51,106.606     c1.262,5.052-1.563,10.227-6.495,11.896C270.785,373.153,253.436,376.012,235.871,376.012z M96.874,231.645     c4.507,40.592,26.045,76.614,60.076,99.898c23.395,16.007,50.684,24.469,78.917,24.469c0.001,0,0.003,0,0.004,0     c12.172,0,24.225-1.567,35.951-4.669c-10.734-31.375-36.187-62.896-69.697-85.824c-32.027-21.914-67.572-33.982-100.087-33.982     C100.303,231.537,98.58,231.573,96.874,231.645z"></path></g><g><path d="M172.892,355.988c-10.373,0-19.536-2.671-27.236-7.939c-18.821-12.877-26.016-39.188-20.261-74.089     c5.319-32.26,21.154-68.887,44.586-103.135c38.802-56.711,90.7-94.813,129.139-94.813c10.373,0,19.536,2.671,27.235,7.939     c18.821,12.877,26.017,39.189,20.262,74.089c-5.319,32.259-21.154,68.886-44.587,103.134     C263.228,317.886,211.331,355.988,172.892,355.988z M299.12,96.012c-31.628,0-77.944,35.409-112.633,86.107     c-21.817,31.886-36.505,65.658-41.359,95.095c-4.354,26.407-0.046,46.209,11.822,54.329c4.311,2.95,9.675,4.445,15.942,4.445     c31.627,0,77.944-35.408,112.633-86.107c21.816-31.887,36.505-65.659,41.359-95.095c4.354-26.408,0.046-46.21-11.821-54.33     C310.751,97.507,305.388,96.012,299.12,96.012z"></path></g><g><path d="M105.997,416.001c-1.946,0-3.911-0.566-5.638-1.748c-4.558-3.118-5.725-9.342-2.606-13.899l260-380     c3.119-4.558,9.341-5.725,13.899-2.606c4.559,3.119,5.726,9.342,2.606,13.9l-260,380     C112.321,414.479,109.186,416.001,105.997,416.001z"></path></g><g><path d="M359.792,310.703c-1.945,0-3.911-0.566-5.638-1.748L106.563,139.55c-4.558-3.119-5.725-9.342-2.606-13.9     c3.118-4.559,9.341-5.726,13.9-2.606l247.591,169.405c4.559,3.118,5.726,9.342,2.606,13.899     C366.116,309.181,362.981,310.703,359.792,310.703z"></path></g></g></g></svg>