<svg height='100px' width='100px'  fill="#000000" xmlns="http://www.w3.org/2000/svg" xmlns:xlink="http://www.w3.org/1999/xlink" version="1.1" x="0px" y="0px" viewBox="0 0 96 96" enable-background="new 0 0 96 96" xml:space="preserve"><path d="M52.736,79.928c-1.797,0-3.381-2.08-3.853-3.82l-6.996-26.071l-6.54,12.899c-0.572,1.141-1.652,1.828-2.908,2.049  c-1.26,0.203-2.54-0.244-3.46-1.133l-8.104-7.916H4.004c-2.208,0-4-1.787-4-4c0-2.211,1.792-4,4-4h18.492  c1.04,0,2.04,0.412,2.788,1.132l5.344,5.188l8.776-17.608c0.744-1.48,2.312-2.38,3.972-2.196c1.652,0.16,3.028,1.324,3.468,2.924  l5.364,19.668l7.836-37.8c0.38-1.836,1.983-3.16,3.86-3.188c1.947,0.016,3.512,1.252,3.947,3.08l6.297,26.62l4.588-1.6  c0.416-0.148,0.867-0.224,1.315-0.224H92c2.204,0,4,1.788,4,4c0,2.212-1.796,4-4,4H80.736l-8.145,2.836  c-1.076,0.377-2.248,0.272-3.24-0.264c-0.992-0.548-1.711-1.484-1.968-2.584l-3.172-13.396l-7.563,37.348  c-0.377,1.812-1.944,4.063-3.793,4.063C52.82,79.928,52.779,79.928,52.736,79.928z"></path></svg>