<svg height='100px' width='100px'  fill="#000000" xmlns="http://www.w3.org/2000/svg" xmlns:xlink="http://www.w3.org/1999/xlink" version="1.1" x="0px" y="0px" viewBox="0 0 50 50" enable-background="new 0 0 50 50" xml:space="preserve"><g><path fill="#000000" d="M45.616,23.947c-0.783,0-1.413,0.635-1.413,1.414v17.69H4.3V19.032h9.525c0.778,0,1.413-0.635,1.413-1.413   c0-0.782-0.635-1.413-1.413-1.413H2.888c-0.782,0-1.413,0.631-1.413,1.413v26.845c0,0.777,0.631,1.412,1.413,1.412h42.728   c0.776,0,1.413-0.635,1.413-1.412V25.361C47.029,24.579,46.393,23.947,45.616,23.947z"></path><path fill="#000000" d="M35.982,4.408c-0.405-0.399-1.013-0.521-1.541-0.304c-0.527,0.218-0.872,0.735-0.872,1.306v6.258   c-4.224,0.392-10.825,1.652-15.35,5.595c-3.296,2.822-4.97,6.568-4.97,11.132c0,2.463-0.064,3.841-0.098,4.421   c0,0.017-0.005,0.206-0.012,0.327c-0.003,0.037-0.003,0.07-0.003,0.101c0,0.083,0.005,0.162,0.02,0.237   c0.113,0.674,0.698,1.212,1.398,1.212c0.781,0,1.418-0.598,1.418-1.381c1.241-5.138,5.184-13.353,17.596-11.836v8.321   c0,0.572,0.345,1.084,0.872,1.304c0.528,0.22,1.136,0.098,1.541-0.302l12.209-12.182c0.263-0.266,0.41-0.625,0.41-0.999   c0-0.378-0.15-0.736-0.41-1.003L35.982,4.408z M36.393,26.39v-6.119c0-0.55-0.388-1.083-0.89-1.314   c-0.114-0.05-0.237-0.089-0.364-0.11c-1.582-0.259-3.045-0.375-4.415-0.375c-7.451,0-11.833,3.511-14.382,7.2   c0.517-2.485,1.757-4.588,3.728-6.275c4.377-3.822,11.232-4.779,14.931-5.007c0.495-0.03,0.91-0.312,1.137-0.718   c0.163-0.229,0.256-0.506,0.256-0.804V8.819l8.791,8.793L36.393,26.39z"></path></g></svg>