<svg height='100px' width='100px'  fill="#000000" xmlns:x="http://ns.adobe.com/Extensibility/1.0/" xmlns:i="http://ns.adobe.com/AdobeIllustrator/10.0/" xmlns:graph="http://ns.adobe.com/Graphs/1.0/" xmlns="http://www.w3.org/2000/svg" xmlns:xlink="http://www.w3.org/1999/xlink" version="1.1" x="0px" y="0px" viewBox="0 0 100 100" style="enable-background:new 0 0 100 100;" xml:space="preserve"><g><g i:extraneous="self"><g><path d="M53.5,15.4c-1.1-0.5-2.3-0.5-3.3,0.2L24.7,33.9h-19c-1.8,0-3.2,1.4-3.2,3.2v25.9c0,1.8,1.4,3.2,3.2,3.2h19l25.5,18.2     c0.5,0.4,1.2,0.6,1.8,0.6c0.5,0,1-0.1,1.5-0.4c1.1-0.5,1.7-1.6,1.7-2.8V18.2C55.2,17,54.6,16,53.5,15.4z M48.9,75.6L27.6,60.4     c-0.5-0.4-1.2-0.6-1.8-0.6H8.8V40.2h16.9c0.7,0,1.3-0.2,1.8-0.6l21.3-15.2V75.6z"></path><path d="M63,38.4c-1.4,1-1.8,3-0.7,4.4c1.5,2.1,2.3,4.6,2.3,7.2c0,2.6-0.8,5.1-2.3,7.2c-1,1.4-0.7,3.4,0.7,4.4     c0.6,0.4,1.2,0.6,1.8,0.6c1,0,2-0.5,2.6-1.3c2.3-3.2,3.5-7,3.5-10.9c0-3.9-1.2-7.7-3.5-10.9C66.4,37.7,64.4,37.3,63,38.4z"></path><path d="M76.7,29.4c-1.1-1.3-3.1-1.5-4.5-0.4c-1.3,1.1-1.5,3.1-0.4,4.5c3.9,4.6,6,10.5,6,16.5s-2.1,11.9-6,16.5     c-1.1,1.3-0.9,3.3,0.4,4.5c0.6,0.5,1.3,0.7,2,0.7c0.9,0,1.8-0.4,2.4-1.1c4.8-5.8,7.5-13.1,7.5-20.6S81.6,35.2,76.7,29.4z"></path><path d="M86.1,19.9c-1.2-1.3-3.2-1.4-4.5-0.3c-1.3,1.2-1.4,3.2-0.3,4.5c6.3,7.1,9.8,16.3,9.8,25.9c0,9.5-3.5,18.7-9.8,25.9     c-1.2,1.3-1,3.3,0.3,4.5c0.6,0.5,1.4,0.8,2.1,0.8c0.9,0,1.8-0.4,2.4-1.1c7.3-8.3,11.4-19,11.4-30.1     C97.5,38.9,93.5,28.2,86.1,19.9z"></path></g></g></g></svg>