<svg height='100px' width='100px'  fill="#000000" xmlns="http://www.w3.org/2000/svg" xmlns:xlink="http://www.w3.org/1999/xlink" version="1.1" x="0px" y="0px" viewBox="0 0 100 100" style="enable-background:new 0 0 100 100;" xml:space="preserve"><g><path d="M82.3,23.27C82.3,23.27,82.3,23.26,82.3,23.27c-0.03-0.13-0.07-0.25-0.13-0.37c-0.01-0.03-0.03-0.06-0.05-0.09   c-0.07-0.11-0.14-0.22-0.23-0.32L63.33,3.94c-0.09-0.09-0.2-0.17-0.32-0.23c-0.03-0.02-0.06-0.03-0.09-0.05   c-0.11-0.06-0.23-0.1-0.35-0.13c-0.01,0-0.01,0-0.02,0c-0.09-0.02-0.19-0.03-0.28-0.03h-43.1c-0.83,0-1.5,0.67-1.5,1.5v90   c0,0.83,0.67,1.5,1.5,1.5h61.65c0.83,0,1.5-0.67,1.5-1.5V23.56C82.33,23.46,82.32,23.36,82.3,23.27z M77.2,22.06H63.77V8.62   L77.2,22.06z M20.67,93.5v-87h40.1v17.06c0,0.83,0.67,1.5,1.5,1.5h17.06V93.5H20.67z"></path><path d="M37.92,72.06h-7.64c-0.83,0-1.5,0.67-1.5,1.5v7.64c0,0.83,0.67,1.5,1.5,1.5h7.64c0.83,0,1.5-0.67,1.5-1.5v-7.64   C39.42,72.73,38.75,72.06,37.92,72.06z M36.42,79.7h-4.64v-4.64h4.64V79.7z"></path><path d="M64.29,79.7H44.22c-0.83,0-1.5,0.67-1.5,1.5s0.67,1.5,1.5,1.5h20.07c0.83,0,1.5-0.67,1.5-1.5S65.12,79.7,64.29,79.7z"></path><path d="M69.72,72.06h-25.5c-0.83,0-1.5,0.67-1.5,1.5s0.67,1.5,1.5,1.5h25.5c0.83,0,1.5-0.67,1.5-1.5S70.55,72.06,69.72,72.06z"></path><path d="M37.92,52.06h-7.64c-0.83,0-1.5,0.67-1.5,1.5v7.64c0,0.83,0.67,1.5,1.5,1.5h7.64c0.83,0,1.5-0.67,1.5-1.5v-7.64   C39.42,52.73,38.75,52.06,37.92,52.06z M36.42,59.7h-4.64v-4.64h4.64V59.7z"></path><path d="M44.22,62.7h20.07c0.83,0,1.5-0.67,1.5-1.5s-0.67-1.5-1.5-1.5H44.22c-0.83,0-1.5,0.67-1.5,1.5S43.39,62.7,44.22,62.7z"></path><path d="M69.72,52.06h-25.5c-0.83,0-1.5,0.67-1.5,1.5s0.67,1.5,1.5,1.5h25.5c0.83,0,1.5-0.67,1.5-1.5S70.55,52.06,69.72,52.06z"></path><path d="M37.92,32.06h-7.64c-0.83,0-1.5,0.67-1.5,1.5v7.64c0,0.83,0.67,1.5,1.5,1.5h7.64c0.83,0,1.5-0.67,1.5-1.5v-7.64   C39.42,32.73,38.75,32.06,37.92,32.06z M36.42,39.7h-4.64v-4.64h4.64V39.7z"></path><path d="M44.22,42.7h20.07c0.83,0,1.5-0.67,1.5-1.5s-0.67-1.5-1.5-1.5H44.22c-0.83,0-1.5,0.67-1.5,1.5S43.39,42.7,44.22,42.7z"></path><path d="M69.72,32.06h-25.5c-0.83,0-1.5,0.67-1.5,1.5s0.67,1.5,1.5,1.5h25.5c0.83,0,1.5-0.67,1.5-1.5S70.55,32.06,69.72,32.06z"></path></g></svg>