<svg height='100px' width='100px'  fill="#000000" xmlns="http://www.w3.org/2000/svg" data-name="Layer 1" viewBox="0 0 100 100" x="0px" y="0px"><title>Artboard 11</title><path d="M34.88,6a6.38,6.38,0,0,0-6.37,6.38V87.62A6.38,6.38,0,0,0,34.88,94H65.12a6.38,6.38,0,0,0,6.38-6.38V12.38A6.38,6.38,0,0,0,65.12,6ZM67.5,12.38V87.62A2.38,2.38,0,0,1,65.12,90H34.88a2.38,2.38,0,0,1-2.37-2.38V12.38A2.38,2.38,0,0,1,34.88,10H65.12A2.38,2.38,0,0,1,67.5,12.38ZM50,64.23A10.45,10.45,0,1,0,60.45,74.68,10.46,10.46,0,0,0,50,64.23Zm0,16.9a6.45,6.45,0,1,1,6.45-6.45A6.46,6.46,0,0,1,50,81.13Zm0-64.74A10.45,10.45,0,1,0,60.45,26.84,10.46,10.46,0,0,0,50,16.39Zm0,16.9a6.45,6.45,0,1,1,6.45-6.45A6.46,6.46,0,0,1,50,33.29Zm0,7A10.45,10.45,0,1,0,60.45,50.76,10.46,10.46,0,0,0,50,40.31Zm0,16.9a6.45,6.45,0,1,1,6.45-6.45A6.46,6.46,0,0,1,50,57.21ZM92.58,20.7c-1.59,7.53-8,13.82-16.67,16.4a2,2,0,0,1-1.14-3.83C82.06,31.1,87.38,26,88.67,19.87a.74.74,0,0,0-.15-.63A.71.71,0,0,0,88,19H75.34a2,2,0,0,1,0-4H88a4.73,4.73,0,0,1,4.62,5.72Zm0,23.92C91,52.15,84.6,58.44,75.91,61a2,2,0,0,1-1.14-3.83c7.29-2.16,12.61-7.29,13.9-13.39a.74.74,0,0,0-.15-.62A.71.71,0,0,0,88,42.9H75.34a2,2,0,0,1,0-4H88a4.73,4.73,0,0,1,4.62,5.72Zm-3.91,23.1a.74.74,0,0,0-.15-.63.71.71,0,0,0-.56-.27H75.34a2,2,0,0,1,0-4H88a4.73,4.73,0,0,1,4.62,5.72c-1.59,7.53-8,13.82-16.67,16.4a2,2,0,0,1-1.14-3.83C82.06,78.94,87.38,73.81,88.67,67.72ZM11.49,19.25a.74.74,0,0,0-.15.63C12.62,26,17.94,31.1,25.23,33.26a2,2,0,1,1-1.14,3.83C15.4,34.51,9,28.23,7.42,20.7A4.73,4.73,0,0,1,12,15H24.66a2,2,0,1,1,0,4H12A.71.71,0,0,0,11.49,19.25Zm0,23.92a.74.74,0,0,0-.15.63c1.28,6.1,6.61,11.22,13.9,13.39A2,2,0,1,1,24.09,61C15.4,58.44,9,52.15,7.42,44.62A4.73,4.73,0,0,1,12,38.9H24.66a2,2,0,1,1,0,4H12A.71.71,0,0,0,11.49,43.17Zm0,23.92a.74.74,0,0,0-.15.63c1.28,6.09,6.61,11.22,13.9,13.39a2,2,0,1,1-1.14,3.83C15.4,82.36,9,76.07,7.42,68.54A4.73,4.73,0,0,1,12,62.82H24.66a2,2,0,1,1,0,4H12A.71.71,0,0,0,11.49,67.09Z"></path></svg>