<svg height='100px' width='100px'  fill="#000000" xmlns:dc="http://purl.org/dc/elements/1.1/" xmlns:cc="http://creativecommons.org/ns#" xmlns:rdf="http://www.w3.org/1999/02/22-rdf-syntax-ns#" xmlns:svg="http://www.w3.org/2000/svg" xmlns="http://www.w3.org/2000/svg" xmlns:sodipodi="http://sodipodi.sourceforge.net/DTD/sodipodi-0.dtd" xmlns:inkscape="http://www.inkscape.org/namespaces/inkscape" version="1.1" x="0px" y="0px" viewBox="0 0 100 100"><g transform="translate(0,-952.36218)"><path style="font-size:medium;font-style:normal;font-variant:normal;font-weight:normal;font-stretch:normal;text-indent:0;text-align:start;text-decoration:none;line-height:normal;letter-spacing:normal;word-spacing:normal;text-transform:none;direction:ltr;block-progression:tb;writing-mode:lr-tb;text-anchor:start;baseline-shift:baseline;opacity:1;color:#000000;fill:#000000;fill-opacity:1;stroke:none;stroke-width:6;marker:none;visibility:visible;display:inline;overflow:visible;enable-background:accumulate;font-family:Sans;-inkscape-font-specification:Sans" d="M 49.96875 4.9375 A 3.0003 3.0003 0 0 0 47 8 L 47 18.125 A 3.0003 3.0003 0 1 0 53 18.125 L 53 8 A 3.0003 3.0003 0 0 0 49.96875 4.9375 z M 32.15625 14.59375 A 3.0003 3.0003 0 0 0 29.9375 19.59375 L 33.5625 23.875 A 3.0049195 3.0049195 0 1 0 38.15625 20 L 34.53125 15.71875 A 3.0003 3.0003 0 0 0 32.15625 14.59375 z M 67.75 14.59375 A 3.0003 3.0003 0 0 0 65.46875 15.71875 L 61.84375 20 A 3.0049195 3.0049195 0 1 0 66.4375 23.875 L 70.0625 19.59375 A 3.0003 3.0003 0 0 0 67.75 14.59375 z M 50 24.84375 C 37.00719 24.84375 26.40625 35.46355 26.40625 48.46875 C 26.40625 56.99725 31.041542 64.3523 37.84375 68.5 L 37.84375 75.9375 L 37.84375 83 A 3.0003 3.0003 0 0 0 40.84375 86 L 59.15625 86 A 3.0003 3.0003 0 0 0 62.15625 83 L 62.15625 75.9375 L 62.15625 68.5 C 68.958458 64.3523 73.59375 56.99725 73.59375 48.46875 C 73.59375 35.46355 62.992811 24.84375 50 24.84375 z M 85.21875 25.1875 A 3.0003 3.0003 0 0 0 84.6875 25.21875 A 3.0003 3.0003 0 0 0 83.90625 25.4375 L 73.40625 29.5 A 3.0031315 3.0031315 0 1 0 75.59375 35.09375 L 86.09375 31.03125 A 3.0003 3.0003 0 0 0 85.21875 25.1875 z M 14.625 25.21875 A 3.0003 3.0003 0 0 0 13.90625 31.03125 L 24.40625 35.09375 A 3.0031315 3.0031315 0 1 0 26.59375 29.5 L 16.09375 25.4375 A 3.0003 3.0003 0 0 0 14.625 25.21875 z M 50 30.84375 C 59.745265 30.84375 67.59375 38.70129 67.59375 48.46875 C 67.59375 55.41405 63.600593 61.3702 57.8125 64.25 A 3.0003 3.0003 0 0 0 56.15625 66.9375 L 56.15625 70 L 43.84375 70 L 43.84375 66.9375 A 3.0003 3.0003 0 0 0 42.1875 64.25 C 36.399407 61.3702 32.40625 55.41405 32.40625 48.46875 C 32.40625 38.70129 40.254736 30.84375 50 30.84375 z M 57.40625 39.78125 A 3.0003 3.0003 0 0 0 55.4375 40.875 L 48.0625 49.6875 L 46.21875 47.84375 A 3.0003 3.0003 0 1 0 41.96875 52.0625 L 46.125 56.25 A 3.0003 3.0003 0 0 0 50.53125 56.0625 L 60.03125 44.71875 A 3.0003 3.0003 0 0 0 57.40625 39.78125 z M 43.84375 76 L 56.15625 76 L 56.15625 80 L 43.84375 80 L 43.84375 76 z M 44.375 89 A 3.0032941 3.0032941 0 1 0 44.65625 95 L 55.34375 95 A 3.0003 3.0003 0 1 0 55.34375 89 L 44.65625 89 A 3.0003 3.0003 0 0 0 44.375 89 z " transform="translate(0,952.36218)"></path></g></svg>