<svg height='100px' width='100px'  fill="#000000" xmlns="http://www.w3.org/2000/svg" xmlns:xlink="http://www.w3.org/1999/xlink" version="1.1" x="0px" y="0px" viewBox="0 0 100 100" enable-background="new 0 0 100 100" xml:space="preserve"><path d="M51.488,94.214l0.003-0.005c0.001-0.001,0.002-0.003,0.003-0.004l43.157-64.735c0.447-0.609,0.467-1.45,0.04-2.076  L83.998,5.995C83.7,5.402,83.052,5,82.388,5H17.593c-0.664,0-1.313,0.402-1.61,0.995L5.184,27.602  c-0.282,0.565-0.238,1.292,0.112,1.818l43.188,64.781c0.002,0.003,0.004,0.007,0.007,0.01l0.002,0.003  C49.192,95.262,50.789,95.262,51.488,94.214z M32.738,26.607l17.253-17.26l17.253,17.26H32.738z M69.091,30.222l-19.1,57.301  l-19.1-57.301H69.091z M72.89,30.208h16.941L55.949,81.032L72.89,30.208z M71.095,25.368L54.336,8.601h25.14L71.095,25.368z   M28.886,25.368l-8.38-16.767h25.14L28.886,25.368z M27.091,30.208l16.942,50.824L10.149,30.208H27.091z M74.501,26.607l7.887-15.78  l7.887,15.78H74.501z M17.593,10.827l7.887,15.78H9.706L17.593,10.827z"></path></svg>