<svg height='100px' width='100px'  fill="#000000" xmlns="http://www.w3.org/2000/svg" xmlns:xlink="http://www.w3.org/1999/xlink" version="1.1" x="0px" y="0px" viewBox="0 0 67 67" enable-background="new 0 0 67 67" xml:space="preserve"><g><path d="M43.04297,36.99414c-6.80198,6.78035-10.68288,10.6489-15.34961,15.30078c-0.2102,0.2102-1.35649,2.54039-5.11426,9.69629   c-0.20117,0.38672-0.12988,0.86035,0.17871,1.16895c0.3102,0.3102,0.78082,0.38171,1.16797,0.18164   c7.14785-3.72346,9.50696-4.87715,9.71387-5.08301c10.1182-10.08588,17.35055-17.29507,26.00586-25.92285   c0.39063-0.38965,0.3916-1.02246,0.00195-1.41406l-0.3421-0.34332l1.9339-1.92816c1.17699-1.17277,1.23452-2.96763,0.17578-4.03027   c-1.02051-1.02441-2.90723-0.94434-4.02441,0.16992l-1.93347,1.92706l-0.3429-0.34406   c-0.38882-0.39085-1.02367-0.39235-1.41406-0.00195L52.31683,27.75c-2.22528-1.50726-5.45819-1.1311-7.64203,1.04492   l-7.26465,7.24121c-0.39063,0.38965-0.3916,1.02246-0.00195,1.41406c0.38972,0.39167,1.02253,0.39154,1.41406,0.00195   l7.26465-7.24121c1.38287-1.37878,3.33582-1.73004,4.76746-1.00311l-7.81091,7.78601L43.04297,36.99414z M43.74707,39.11621   l3.12103,3.13275c-0.109,0.10865-3.4877,3.47639-3.27533,3.26471l-3.12201-3.13177   C40.57976,42.27325,43.95944,38.90453,43.74707,39.11621z M39.05432,43.79376l3.12225,3.13165l-9.24097,9.21124l-1.5611-1.56586   l-1.56104-1.56592L39.05432,43.79376z M28.6543,54.6748L30.03534,56.06l1.22638,1.23004l-5.44434,2.82031L28.6543,54.6748z    M56.86914,28.13379l1.93359-1.92773c0.32965-0.32816,0.88968-0.48162,1.20215-0.16699   c0.30414,0.30414,0.15131,0.86789-0.17773,1.19531l-1.93347,1.92761C57.79381,29.06176,56.76927,28.03356,56.86914,28.13379z    M54.4043,28.49317l3.12109,3.13281l-9.24072,9.211l-3.12152-3.13239L54.4043,28.49317z"></path><path d="M64.88379,28.85547c-0.37109-0.15332-0.80078-0.07129-1.08887,0.21387L28.8623,63.79102   c-0.28711,0.28516-0.37402,0.71582-0.21973,1.08984c0.1543,0.375,0.51953,0.61914,0.9248,0.61914H64.5c0.55273,0,1-0.44727,1-1   V29.77832C65.5,29.37403,65.25684,29.00977,64.88379,28.85547z M63.5,63.5h-4.00098v-1.41406h-2V63.5h-2.24316v-1.41406h-2V63.5   H51.0127v-1.41406h-2V63.5h-2.24316v-1.41406h-2V63.5h-2.24316v-1.41406h-2V63.5h-2.24219v-1.41406h-2V63.5h-4.29199L63.5,32.18262   V63.5z"></path><path d="M43.5166,59.74707h15.22949c0.55273,0,1-0.44727,1-1v-15.1377c0-0.4043-0.24316-0.76855-0.61621-0.92285   c-0.37109-0.15527-0.80078-0.07129-1.08887,0.21387l-15.22949,15.1377c-0.28711,0.28516-0.37402,0.71582-0.21973,1.08984   C42.74609,59.50293,43.11133,59.74707,43.5166,59.74707z M57.74609,46.01367v11.7334H45.94141L57.74609,46.01367z"></path><polygon points="27.78711,27.70117 25.78711,27.70117 25.78711,29.43848 24.04883,29.43848 24.04883,31.43848 25.78711,31.43848    25.78711,33.17676 27.78711,33.17676 27.78711,31.43848 29.52441,31.43848 29.52441,29.43848 27.78711,29.43848  "></polygon><path d="M1.5,42.91699h34.62891V1.5H1.5V42.91699z M3.5,3.5h30.62891v37.41699H3.5V3.5z"></path><path d="M5.24707,39.16699v0.00293h27.13477v-0.00293c0-11.07753,0-21.20952,0-33.91699H5.24707   C5.24707,13.1986,5.24707,31.37803,5.24707,39.16699z M30.38184,22.84961h-7.19238v-5.80664h7.19238V22.84961z M7.24707,24.84961   h5.97168v5.49512H7.24707V24.84961z M21.18945,37.16699h-5.9707v-4.82227h5.9707V37.16699z M21.18945,30.34473h-5.9707v-5.49512   h5.9707V30.34473z M13.21875,32.34473v4.82227H7.24707v-4.82227H13.21875z M23.19141,37.16699V24.85254h7.19043v12.31445H23.19141z    M21.18945,22.84961h-5.9707v-5.80664h5.9707V22.84961z M13.21875,22.84961H7.24707v-5.80664h5.97168V22.84961z M30.38184,7.25   v7.79297H7.24707V7.25H30.38184z"></path></g></svg>