<svg height='100px' width='100px'  fill="#000000" xmlns:x="http://ns.adobe.com/Extensibility/1.0/" xmlns:i="http://ns.adobe.com/AdobeIllustrator/10.0/" xmlns:graph="http://ns.adobe.com/Graphs/1.0/" xmlns="http://www.w3.org/2000/svg" xmlns:xlink="http://www.w3.org/1999/xlink" version="1.1" x="0px" y="0px" viewBox="-949 951 100 100" style="enable-background:new -949 951 100 100;" xml:space="preserve"><g><g i:extraneous="self"><path d="M-899,953.5c-16.5,0-29.9,13.4-29.9,29.9v35.2c0,16.5,13.4,29.9,29.9,29.9c16.5,0,29.9-13.4,29.9-29.9v-35.2    C-869.1,966.9-882.5,953.5-899,953.5z M-899,971.4c2,0,3.5,1.6,3.5,3.5v12.2c0,2-1.6,3.5-3.5,3.5c-2,0-3.5-1.6-3.5-3.5v-12.2    C-902.5,972.9-901,971.4-899,971.4z M-874,1018.6c0,13.8-11.2,25-25,25s-25-11.2-25-25v-35.2c0-13,9.9-23.7,22.6-24.9v8.3    c-3.5,1-6,4.3-6,8.1v12.2c0,4.6,3.8,8.4,8.4,8.4c4.6,0,8.4-3.8,8.4-8.4v-12.2c0-3.8-2.5-7-6-8.1v-8.3    c12.6,1.2,22.6,11.9,22.6,24.9V1018.6z"></path></g></g></svg>