<svg height='100px' width='100px'  fill="#000000" xmlns="http://www.w3.org/2000/svg" xmlns:xlink="http://www.w3.org/1999/xlink" version="1.1" x="0px" y="0px" viewBox="0 0 100 100" enable-background="new 0 0 100 100" xml:space="preserve"><path fill="#000000" d="M89.391,41.642l-2.85-8.756c-0.027-0.083-0.062-0.163-0.106-0.237l-3.863-6.562  c-0.039-0.067-0.085-0.131-0.137-0.188l-5.062-5.7c-0.057-0.064-0.121-0.122-0.191-0.173l-7.443-5.419  c-0.071-0.052-0.147-0.096-0.228-0.13l-6.994-3.038c-0.07-0.03-0.143-0.055-0.218-0.07l-7.425-1.65  c-0.086-0.02-0.173-0.028-0.261-0.028h-9.225c-0.088,0-0.175,0.009-0.261,0.028l-7.425,1.65c-0.075,0.016-0.147,0.04-0.218,0.07  l-6.994,3.038c-0.08,0.034-0.156,0.078-0.228,0.13l-7.443,5.419c-0.07,0.051-0.135,0.108-0.191,0.173l-5.062,5.7  c-0.052,0.058-0.098,0.121-0.137,0.188l-3.863,6.562c-0.044,0.074-0.079,0.154-0.106,0.237l-2.85,8.756  c-0.027,0.083-0.045,0.169-0.054,0.257l-0.731,7.594c-0.007,0.076-0.007,0.153,0,0.229l0.731,7.594  c0.009,0.087,0.026,0.174,0.054,0.257l2.85,8.756c0.026,0.082,0.062,0.161,0.106,0.236l3.862,6.581  c0.04,0.068,0.086,0.132,0.139,0.19l5.062,5.682c0.057,0.064,0.121,0.122,0.19,0.172l7.443,5.419c0.07,0.051,0.146,0.095,0.226,0.13  l6.994,3.056c0.071,0.031,0.146,0.056,0.223,0.072l7.425,1.631c0.085,0.02,0.171,0.028,0.258,0.028h9.225  c0.087,0,0.173-0.009,0.258-0.028l7.425-1.631c0.076-0.017,0.151-0.041,0.223-0.072l6.994-3.056c0.08-0.035,0.155-0.079,0.226-0.13  l7.443-5.419c0.069-0.05,0.134-0.107,0.19-0.172l5.062-5.682c0.053-0.059,0.099-0.122,0.139-0.19l3.862-6.581  c0.044-0.075,0.08-0.154,0.106-0.236l2.85-8.756c0.027-0.083,0.045-0.17,0.054-0.257l0.731-7.594c0.007-0.076,0.007-0.153,0-0.229  l-0.731-7.594C89.436,41.811,89.418,41.725,89.391,41.642z M52.715,87.126h-4.854l4.084-2.959l6.765,2.03l-2.805,0.615  L52.715,87.126z M86.494,58.716l-1.474,4.528l-1.565-4.804l4.031-5.828l-0.271,2.814L86.494,58.716z M80.401,72.01l-2.406,2.7  l1.143-3.935l3.39-2.294l-1.842,3.138L80.401,72.01z M67.058,83.191l-2.614,1.143l4.3-5.635h5.034l-3.885,2.828L67.058,83.191z   M38.162,85.472l-3.381-1.478l4.093-0.133l3.229,2.515l-3.583-0.788L38.162,85.472z M23.412,76.289l-1.958-2.197l6.656,2.327  l1.562,4.791l-3.979-2.896L23.412,76.289z M15.155,63.785l-1.499-4.605l4.069,2.957l0.175,7.072l-1.459-2.487L15.155,63.785z   M16.456,32.468l1.444-2.452l-0.175,7.061l-4.069,2.958l1.486-4.567L16.456,32.468z M25.741,20.865l3.932-2.861l-1.562,4.791  l-6.658,2.34l1.928-2.171L25.741,20.865z M38.342,13.684l3.744-0.833l-3.212,2.502l-4.073-0.133l3.528-1.532L38.342,13.684z   M55.97,12.419l2.744,0.61l-6.768,2.019l-4.085-2.96h4.769L55.97,12.419z M69.95,17.729l3.827,2.786h-5.033l-4.302-5.623  l2.563,1.113L69.95,17.729z M80.63,27.519l1.889,3.208l-3.381-2.288l-1.14-3.922l2.477,2.788L80.63,27.519z M87.776,49.606  l-0.102,1.045l-4.27,6.174V42.389l4.27,6.174L87.776,49.606z M84.299,65.462l-0.644,1.097l-4.004,2.711l3.26-9.4l1.605,4.925  L84.299,65.462z M75.665,77.325l-0.569,0.414h-5.161l7.925-6.005l-1.349,4.642L75.665,77.325z M31.569,82.591l-0.573-0.417  l-1.603-4.919l8.175,5.688l-4.834,0.158L31.569,82.591z M19.438,71.828l-0.535-0.911l-0.185-7.5l8.484,11.668l-7.063-2.469  L19.438,71.828z M19.438,27.404l0.701-0.79l7.061-2.481l-8.481,11.664l0.185-7.484L19.438,27.404z M31.568,16.624l1.174-0.511  l4.826,0.158l-8.175,5.688l1.603-4.919L31.568,16.624z M45.52,12.088h0.706l4.191,3.037l-9.951,0.203l3.806-2.962L45.52,12.088z   M61.665,13.685l0.966,0.42l4.556,5.956l-13.718-4.465l7.169-2.139L61.665,13.685z M75.664,21.888l0.848,0.955l1.348,4.637  l-7.925-6.005h5.161L75.664,21.888z M49.339,49.127H38.023l7.817-10.757L49.339,49.127z M46.754,38.073l12.646,4.105l-9.147,6.651  L46.754,38.073z M49.339,50.087l-3.498,10.757l-7.817-10.757H49.339z M59.964,42.956v13.302l-9.147-6.651L59.964,42.956z   M46.932,37.121l10.207-9.487l2.677,13.671L46.932,37.121z M37.173,48.665L31.299,36.03l13.839,1.674L37.173,48.665z M45.139,61.511  L31.299,63.2l5.874-12.65L45.139,61.511z M50.252,50.384l9.147,6.651l-12.646,4.105L50.252,50.384z M60.924,42.829l12.183,6.777  l-12.183,6.778V42.829z M58.091,27.501l13.431,5.86l-10.751,7.821L58.091,27.501z M46.23,36.462l-4.104-12.644l14.319,3.147  L46.23,36.462z M45.317,36.759l-13.85-1.675l9.747-10.97L45.317,36.759z M36.329,49.127H23.032l7.419-12.644L36.329,49.127z   M36.329,50.087l-5.878,12.661l-7.42-12.661H36.329z M45.317,62.456L41.215,75.1l-9.747-10.953L45.317,62.456z M59.816,57.909  l-2.678,13.688l-10.208-9.505L59.816,57.909z M73.526,50.472l-1.44,14.604l-10.752-7.821L73.526,50.472z M61.334,41.959  l10.752-7.821l1.44,14.604L61.334,41.959z M58.562,26.658l9.662-4.979l3.473,10.711L58.562,26.658z M42.559,22.93l9.123-6.634  l4.88,9.713L42.559,22.93z M30.812,34.378l-1.754-10.729h11.287L30.812,34.378z M22.319,48.442l-3.488-10.728l10.744-1.638  L22.319,48.442z M29.575,63.153L18.831,61.5l3.488-10.729L29.575,63.153z M40.343,75.564H29.059l1.752-10.711L40.343,75.564z   M46.23,62.753l10.216,9.512l-14.319,3.132L46.23,62.753z M60.771,58.031l10.752,7.821l-13.432,5.879L60.771,58.031z M74.473,50.658  l7.714,7.648l-9.123,6.633L74.473,50.658z M73.063,34.274l9.123,6.633l-7.714,7.648L73.063,34.274z M69.434,22.3l8.484,6.43  l-5.184,3.752L69.434,22.3z M57.655,26.046l-4.854-9.657l14.462,4.706L57.655,26.046z M41.664,22.393l-1.977-6.088l10.648-0.218  L41.664,22.393z M40.752,22.689H30.023l8.751-6.089L40.752,22.689z M29.948,35.049l-10.683,1.629l8.939-12.296L29.948,35.049z   M21.533,49.127h-6.399l3.083-10.198L21.533,49.127z M21.533,50.087l-3.316,10.198l-3.083-10.198H21.533z M29.948,64.183  l-1.742,10.649l-8.939-12.294L29.948,64.183z M40.752,76.524l-1.978,6.088l-8.751-6.088H40.752z M56.562,73.222l-4.88,9.695  l-9.122-6.633L56.562,73.222z M71.695,66.824l-3.472,10.71l-9.662-4.962L71.695,66.824z M72.734,66.732l5.184,3.752l-8.484,6.43  L72.734,66.732z M73.299,65.956l8.672-6.305l-3.487,10.057L73.299,65.956z M74.775,49.606l7.67-7.604v15.208L74.775,49.606z   M73.299,33.258l5.185-3.752l3.487,10.057L73.299,33.258z M14.447,48.08l-1.639-4.545l0.123-1.276l0.218-0.669l4.178-3.036  L14.447,48.08z M13.978,49.606l-1.384,3.838l-0.364-3.776v-0.122l0.364-3.776L13.978,49.606z M12.932,56.954l-0.123-1.275  l1.639-4.545l2.88,9.526l-4.178-3.036L12.932,56.954z M41.664,76.821l8.672,6.306l-10.648-0.218L41.664,76.821z M57.654,73.187  l9.606,4.934l-14.458,4.705L57.654,73.187z M79.651,29.944l4.001,2.709l0.647,1.1l0.217,0.666l-1.605,4.926L79.651,29.944z   M45.518,87.126l-1.24-0.272l-3.812-2.968l9.951,0.203l-4.191,3.037H45.518z M67.19,79.152l-4.559,5.973l-0.967,0.423l-1.026,0.226  l-7.174-2.154L67.19,79.152z M87.486,46.602l-4.031-5.828l1.565-4.805l1.474,4.528l0.721,3.29L87.486,46.602z"></path></svg>