<svg height='100px' width='100px'  fill="#000000" xmlns="http://www.w3.org/2000/svg" xmlns:xlink="http://www.w3.org/1999/xlink" version="1.1" x="0px" y="0px" viewBox="0 0 100 100" enable-background="new 0 0 100 100" xml:space="preserve"><path fill="#000000" d="M17.828,52.752c4.798,0,7.981-0.762,9.877-1.446c-0.275,2.784-0.243,5.044-0.214,6.935  c0.062,4.131,0.092,6.203-2.927,8.815l-0.32,0.272l-0.085,0.404c-0.203,0.984-1.905,9.698,0.989,13.172l0.374,0.413h9.973  l0.143-1.047c0.045-0.349,0.403-3.405-1.081-5.098c-0.676-0.771-1.62-1.148-2.722-1.076c-0.041-0.791,0.304-2.146,2.403-3.795  C38.06,67.3,42,64.201,43.245,59.113c3.12,1.052,10.908,3.4,18.214,3.4c2.14,0,4.083-0.217,5.804-0.625l-0.179,10.157  c-0.014,0.718-0.067,7.045,2.644,9.813c0.843,0.862,1.901,1.238,3.063,1.238h8.547l0.195-0.928c0.069-0.359,0.633-3.477-1.052-5.521  c-0.585-0.709-1.688-1.557-3.614-1.557c-0.436,0-0.9,0.045-1.394,0.131c0.408-3.81,1.724-12.871,5.211-16.285  c0.263-0.24,6.17-5.816,4.987-19.382l-0.003-0.473c2.938-0.346,9.548-1.532,11.555-5.283c1.388-2.596,2.759-5.551,1.437-7.757  c-0.903-1.508-2.805-2.241-5.814-2.241c-0.376,0-0.773,0.012-1.19,0.035c-0.91-1.722-3.662-5.045-11.503-5.636l-0.096-0.007  l-0.098,0.007c-0.187,0.016-4.212,0.418-7.479,6.874c-0.31,0.402-0.657,1.038-0.816,1.792c-0.044,0.106-0.089,0.207-0.132,0.314  c-2.775,6.973-6.553,10.751-18.559,10.751c-0.463,0-0.936-0.006-1.422-0.017c-1.872-0.044-3.99-0.092-5.862-0.092  c-6.471,0-11.92,0.421-15.079,4.415c-1.228,0.953-11.771,8.614-21.616-0.782c-0.329-0.359-2.087-2.162-4.014-2.037  c-0.656,0.044-1.597,0.327-2.344,1.431c-0.424,0.626-0.743,1.722,0.143,3.394C4.62,47.713,11.398,52.754,17.828,52.752z   M79.448,20.918c1.716,3.265,3.471,8.004,2.428,9.444c-0.436,0.603-1.634,0.504-2.561,0.317c-4.146-0.844-5.008-2.09-5.185-2.586  c-0.064-0.18-0.077-0.36-0.061-0.532C76.022,22.963,78.313,21.421,79.448,20.918z M72.793,30.492  c1.167,1.175,3.155,2.043,6.025,2.627c0.633,0.128,1.218,0.192,1.754,0.192c1.492,0,2.605-0.498,3.323-1.489  c1.879-2.599-0.146-7.798-1.633-10.859c6.394,1.102,7.344,4.327,7.379,4.46l0.243,1.054l1.079-0.094  c3.038-0.267,5.049,0.084,5.562,0.94c0.707,1.182-0.838,4.069-1.497,5.302c-1.537,2.873-8.357,3.934-10.856,4.102l-1.318,0.087  l0.154,1.207c-6.633-1.551-9.902-4.709-11.019-6.02C72.271,31.515,72.538,31.012,72.793,30.492z M70.55,34.134  c1.723,1.844,5.567,5.002,12.642,6.478l0.015,2.143c-2.448-0.393-8.079-1.854-13.901-7.233  C69.748,35.087,70.162,34.623,70.55,34.134z M30.448,49.406c1.163-7.829,5.445-9.093,15.242-9.093c1.711,0,3.486,0.037,5.806,0.091  c7.598,0.173,12.477-0.989,15.866-3.29c6.751,6.365,13.276,7.833,15.894,8.171c-0.59,8.265-4.214,11.774-4.281,11.837  c-5.156,5.049-6.104,19.061-6.142,19.655l-0.118,1.837l1.755-0.605c2.006-0.671,3.42-0.668,4.089,0.138  c0.53,0.644,0.646,1.745,0.628,2.458h-6.395c-0.495,0-0.903-0.101-1.284-0.489c-1.683-1.716-1.967-6.319-1.933-7.983l0.238-13.656  l-1.688,0.59c-1.833,0.642-4.075,0.966-6.666,0.966c-8.748,0-18.631-3.7-18.73-3.737l-1.473-0.558L41.054,57.3  c-0.646,4.99-4.39,7.931-8.353,11.045c-5.208,4.091-2.857,7.721-2.755,7.873l0.519,0.768l0.886-0.282  c0.283-0.088,0.534-0.142,0.744-0.142c0.336,0,0.481,0.094,0.588,0.217c0.36,0.409,0.511,1.335,0.533,2.046h-6.457  c-1.188-2.135-0.825-7.115-0.241-10.206c3.57-3.261,3.524-6.259,3.462-10.413C29.946,55.916,29.905,53.066,30.448,49.406z   M4.697,42.246c0.222-0.327,0.379-0.337,0.447-0.342c0.555-0.036,1.535,0.703,2.028,1.249l0.068,0.072  c8.017,7.683,16.579,5.422,21.327,3.117c-0.19,0.646-0.35,1.35-0.482,2.098c-1.046,0.537-4.19,1.822-10.258,1.822  c-4.866,0.001-10.268-3.682-12.295-6.339C4.758,42.908,4.677,42.34,4.697,42.246z"></path></svg>