<svg height='100px' width='100px'  fill="#000000" xmlns="http://www.w3.org/2000/svg" xmlns:xlink="http://www.w3.org/1999/xlink" version="1.1" x="0px" y="0px" viewBox="0 0 48 48" style="enable-background:new 0 0 48 48;" xml:space="preserve"><style type="text/css">
	.st0{display:none;}
</style><g><g><path d="M35.1,21.7c0-0.6-0.4-1-1-1s-1,0.4-1,1c0,5-4,9-9,9s-9-4-9-9c0-0.6-0.4-1-1-1s-1,0.4-1,1c0,5.7,4.4,10.4,10,10.9v4.1h-4    c-0.6,0-1,0.4-1,1s0.4,1,1,1h10c0.6,0,1-0.4,1-1s-0.4-1-1-1h-4v-4.1C30.7,32.2,35.1,27.5,35.1,21.7z"></path><path d="M18.1,12.4v10c0,3.3,2.7,6,6,6s6-2.7,6-6v-10c0-3.3-2.7-6-6-6S18.1,9.1,18.1,12.4z M28.1,12.4v10c0,2.2-1.8,4-4,4    s-4-1.8-4-4v-10c0-2.2,1.8-4,4-4S28.1,10.2,28.1,12.4z"></path></g></g></svg>