<svg height='100px' width='100px'  fill="#000000" xmlns:dc="http://purl.org/dc/elements/1.1/" xmlns:cc="http://creativecommons.org/ns#" xmlns:rdf="http://www.w3.org/1999/02/22-rdf-syntax-ns#" xmlns:svg="http://www.w3.org/2000/svg" xmlns="http://www.w3.org/2000/svg" xmlns:sodipodi="http://sodipodi.sourceforge.net/DTD/sodipodi-0.dtd" xmlns:inkscape="http://www.inkscape.org/namespaces/inkscape" version="1.1" x="0px" y="0px" viewBox="0 0 100 100"><g transform="translate(0,-952.36218)"><path style="font-size:medium;font-style:normal;font-variant:normal;font-weight:normal;font-stretch:normal;text-indent:0;text-align:start;text-decoration:none;line-height:normal;letter-spacing:normal;word-spacing:normal;text-transform:none;direction:ltr;block-progression:tb;writing-mode:lr-tb;text-anchor:start;baseline-shift:baseline;opacity:1;color:#000000;fill:#000000;fill-opacity:1;stroke:none;stroke-width:3.99999905000000000;marker:none;visibility:visible;display:inline;overflow:visible;enable-background:accumulate;font-family:Sans;-inkscape-font-specification:Sans" d="m 33,958.36218 c -6.234389,0 -11.787776,2.03672 -15.75,5.875 -3.962224,3.83828 -6.25,9.42976 -6.25,16.125 0,10.96623 5.421052,22.94222 12.75,34.40622 7.328948,11.4641 16.649416,22.4003 24.8125,30.9688 a 2.0001995,2.0001995 0 0 0 2.875,0 c 8.163084,-8.5685 17.483552,-19.5047 24.8125,-30.9688 7.328948,-11.464 12.75,-23.43999 12.75,-34.40622 0,-6.69524 -2.287776,-12.28672 -6.25,-16.125 -3.962224,-3.83828 -9.515611,-5.875 -15.75,-5.875 -7.24386,0 -13.559209,3.26127 -17,9.09375 -3.440791,-5.83248 -9.75614,-9.09375 -17,-9.09375 z m 0,4 c 7.531794,0 13.072249,3.59444 15.0625,10.5625 a 2.0001995,2.0001995 0 0 0 3.875,0 c 1.990251,-6.96806 7.530706,-10.5625 15.0625,-10.5625 5.372215,0 9.832625,1.71198 12.96875,4.75 3.136125,3.03802 5.03125,7.45043 5.03125,13.25 0,9.61917 -4.973337,21.11212 -12.09375,32.25002 -6.711409,10.498 -15.215126,20.5487 -22.90625,28.75 -7.691124,-8.2013 -16.194841,-18.252 -22.90625,-28.75 C 19.973337,1001.4743 15,989.98135 15,980.36218 c 0,-5.79957 1.895125,-10.21198 5.03125,-13.25 3.136125,-3.03802 7.596535,-4.75 12.96875,-4.75 z"></path></g></svg>