<svg height='100px' width='100px'  fill="#000000" xmlns="http://www.w3.org/2000/svg" xmlns:xlink="http://www.w3.org/1999/xlink" version="1.1" x="0px" y="0px" viewBox="0 0 64 64" style="enable-background:new 0 0 64 64;" xml:space="preserve"><path d="M61,33.5c0-0.1,0-0.2-0.1-0.3c0,0,0,0,0,0c0-0.1-0.1-0.2-0.2-0.2l-5-6c0,0,0,0,0,0c0,0-0.1-0.1-0.1-0.1  c-0.1-0.1-0.1-0.1-0.2-0.1c0,0-0.1,0-0.1,0c-0.1,0-0.2,0-0.3-0.1c0,0,0,0-0.1,0h-5v-3c0-0.6-0.4-1-1-1H33v-2h11c0.6,0,1-0.4,1-1v-14  c0-0.6-0.4-1-1-1H20c-0.6,0-1,0.4-1,1v14c0,0.6,0.4,1,1,1h11v2H15c-0.6,0-1,0.4-1,1v3H4c-0.6,0-1,0.4-1,1v31c0,0.6,0.4,1,1,1h23  c0.6,0,1-0.4,1-1v-25c0,0,0,0,0,0c0-0.1,0-0.2-0.1-0.3c0,0,0,0,0,0c0-0.1-0.1-0.2-0.2-0.2l-5-6c0,0,0,0,0,0c0,0-0.1-0.1-0.1-0.1  c-0.1-0.1-0.1-0.1-0.2-0.1c0,0-0.1,0-0.1,0c-0.1,0-0.2,0-0.3-0.1c0,0,0,0-0.1,0h-6v-2h16h16v2H37c-0.6,0-1,0.4-1,1v31  c0,0.6,0.4,1,1,1h23c0.6,0,1-0.4,1-1L61,33.5C61,33.5,61,33.5,61,33.5z M21,6.5h22v12H21V6.5z M5,57.5v-29h16v5c0,0.6,0.4,1,1,1h4  v23H5z M23,32.5v-2.2l1.9,2.2H23z M56,30.3l1.9,2.2H56V30.3z M38,57.5v-29h16v5c0,0.6,0.4,1,1,1h4v23H38z"></path></svg>