<svg height='100px' width='100px'  fill="#000000" xmlns="http://www.w3.org/2000/svg" xmlns:xlink="http://www.w3.org/1999/xlink" version="1.1" x="0px" y="0px" viewBox="0 0 100 100" enable-background="new 0 0 100 100" xml:space="preserve"><path d="M91.024,76.392c4.787-2.851,8.011-8.063,8.011-14.028c0-6.047-3.312-11.326-8.211-14.15  c0.024-0.124,0.076-0.239,0.076-0.371V25.621c0.002-0.281-0.046-0.564-0.167-0.836C85.513,13.021,69.872,1.113,50.071,1.113  c-19.795,0-35.437,11.901-40.654,23.658c-0.004,0.008-0.002,0.017-0.006,0.025c-0.026,0.06-0.022,0.131-0.042,0.193  c-0.063,0.2-0.122,0.401-0.122,0.602c0,0.002-0.002,0.004-0.002,0.007L9.234,47.841c0,0.12,0.048,0.224,0.068,0.338  c-4.929,2.815-8.267,8.113-8.267,14.184c0,9.006,7.327,16.333,16.333,16.333h0.376c0.846,2.373,3.091,4.084,5.749,4.084  c3.377,0,6.125-2.748,6.125-6.125V48.072c0-3.377-2.748-6.125-6.125-6.125c-2.658,0-4.903,1.711-5.749,4.083h-0.376  c-1.4,0-2.753,0.197-4.052,0.529l0.012-20.488c2.045-4.396,5.868-8.885,10.99-12.57l3.326,3.344c0.688,0.69,1.781,0.789,2.59,0.253  c0.056-0.038,5.792-3.734,19.669-3.734c13.911,0,19.893,3.717,19.94,3.747c0.343,0.226,0.733,0.337,1.122,0.337  c0.522,0,1.041-0.201,1.434-0.588l3.41-3.365c5.128,3.687,8.958,8.18,11.008,12.582v20.5c-1.318-0.345-2.692-0.546-4.115-0.546  h-0.377c-0.846-2.372-3.091-4.083-5.748-4.083c-3.378,0-6.125,2.748-6.125,6.125v28.583c0,3.377,2.747,6.125,6.125,6.125  c2.657,0,4.902-1.711,5.748-4.084h0.377c1.589,0,3.12-0.239,4.573-0.664l2.888,5.617l-16.306,6.587  c-0.289-0.571-0.646-1.112-1.112-1.578c-1.157-1.157-2.694-1.795-4.331-1.795h-8.167c-3.377,0-6.125,2.747-6.125,6.125  s2.748,6.125,6.125,6.125h8.167c2.873,0,5.273-1.996,5.932-4.67L93.768,86.6c0.53-0.215,0.949-0.646,1.148-1.182  c0.199-0.538,0.163-1.135-0.098-1.646L91.024,76.392z M23.494,46.03c1.126,0,2.042,0.917,2.042,2.042v28.583  c0,1.124-0.915,2.041-2.042,2.041s-2.042-0.917-2.042-2.041V48.072C21.452,46.946,22.367,46.03,23.494,46.03z M17.369,74.613  c-6.755,0-12.25-5.495-12.25-12.25s5.495-12.25,12.25-12.25V74.613z M70.596,12.903c-2.733-1.275-9.308-3.623-20.692-3.623  c-11.295,0-17.729,2.315-20.438,3.605l-1.627-1.637c6.223-3.624,13.847-6.051,22.233-6.051c8.376,0,15.992,2.422,22.211,6.04  L70.596,12.903z M76.577,78.696c-1.127,0-2.042-0.917-2.042-2.041V48.072c0-1.125,0.915-2.042,2.042-2.042  c1.126,0,2.041,0.917,2.041,2.042v28.583C78.618,77.779,77.703,78.696,76.577,78.696z M82.702,50.113  c6.755,0,12.25,5.495,12.25,12.25s-5.495,12.25-12.25,12.25V50.113z M68.414,95.03h-8.167c-1.126,0-2.041-0.917-2.041-2.042  s0.915-2.042,2.041-2.042h8.171c1.123,0,2.038,0.917,2.038,2.042S69.541,95.03,68.414,95.03z"></path></svg>