<svg height='100px' width='100px'  fill="#000000" xmlns="http://www.w3.org/2000/svg" xmlns:xlink="http://www.w3.org/1999/xlink" version="1.1" x="0px" y="0px" viewBox="0 0 32 32" enable-background="new 0 0 32 32" xml:space="preserve"><g display="none"><rect x="-213.995" y="-171.339" display="inline" fill="#000000" width="404.667" height="211.333"></rect></g><g><g><polygon points="13.317,12.657 10.518,12.657 10.518,11.293 13.034,11.293 13.034,10.448 10.518,10.448 10.518,9.338     13.221,9.338 13.221,8.49 9.506,8.49 9.506,13.501 13.317,13.501   "></polygon><polygon points="14.879,13.501 15.993,11.768 17.104,13.501 18.325,13.501 16.612,10.924 18.17,8.49 16.998,8.49 16.014,10.1     15.009,8.49 13.826,8.49 15.378,10.885 13.665,13.501   "></polygon><polygon points="22.655,12.657 19.856,12.657 19.856,11.293 22.371,11.293 22.371,10.448 19.856,10.448 19.856,9.338     22.559,9.338 22.559,8.49 18.844,8.49 18.844,13.501 22.655,13.501   "></polygon><path d="M3.5,0v32h25V4.962L23.538,0H3.5z M27.5,31h-23V1h18.624L27.5,5.376V31z"></path><rect x="8.507" y="24.042" width="14.985" height="1"></rect><rect x="8.507" y="20.5" width="14.985" height="1"></rect></g></g><g display="none"><g display="inline"><g><path d="M23.538,0H3.5v32h25V4.962L23.538,0z M18.844,7.796h3.715v0.848h-2.703v1.11h2.516v0.845h-2.516v1.364h2.799v0.844     h-3.811V7.796z M13.826,7.796h1.183l1.005,1.61l0.984-1.61h1.172l-1.559,2.434l1.713,2.577h-1.221l-1.11-1.732l-1.114,1.732     h-1.214l1.713-2.615L13.826,7.796z M9.506,7.796h3.715v0.848h-2.703v1.11h2.516v0.845h-2.516v1.364h2.799v0.844H9.506V7.796z      M23.493,25.041H8.507v-1h14.986V25.041z M23.493,21.5H8.507v-1h14.986V21.5z"></path></g></g></g><g display="none"><g display="inline"><text transform="matrix(1 0 0 1 8.9967 13.5007)" stroke="#000000" stroke-width="0.25" stroke-miterlimit="10" font-family="'Arial-BoldMT'" font-size="7px">EXE</text></g><g display="inline"><g><path d="M22.71,2l3.79,3.79V30h-21V2H22.71 M23.538,0H3.5v32h25V4.962L23.538,0L23.538,0z"></path></g><g><g><g><line fill="none" stroke="#000000" stroke-width="2" stroke-miterlimit="10" x1="8.507" y1="24.542" x2="23.493" y2="24.542"></line></g></g><g><g><line fill="none" stroke="#000000" stroke-width="2" stroke-miterlimit="10" x1="8.507" y1="21" x2="23.493" y2="21"></line></g></g></g></g></g><g display="none"><g display="inline"><text transform="matrix(1 0 0 1 8.9967 13.5007)" font-family="'Arial-BoldMT'" font-size="7px">EXE</text></g><g display="inline"><g><path fill="#000000" d="M23.331,0.5L28,5.169V31.5H4v-31H23.331 M23.538,0H3.5v32h25V4.962L23.538,0L23.538,0z"></path></g><g><g><g><line fill="none" stroke="#000000" stroke-width="0.5" stroke-miterlimit="10" x1="8.507" y1="24.542" x2="23.493" y2="24.542"></line></g></g><g><g><line fill="none" stroke="#000000" stroke-width="0.5" stroke-miterlimit="10" x1="8.507" y1="21" x2="23.493" y2="21"></line></g></g></g></g></g></svg>