<svg height='100px' width='100px'  fill="#000000" xmlns="http://www.w3.org/2000/svg" xmlns:xlink="http://www.w3.org/1999/xlink" version="1.1" x="0px" y="0px" viewBox="0 0 100 100" enable-background="new 0 0 100 100" xml:space="preserve"><g><path d="M6.234,51.455c0.215,0.07,0.434,0.104,0.648,0.104c0.888,0,1.713-0.567,2.001-1.457   c4.142-12.801,11.752-18.321,15.919-20.474c1.033-0.533,1.438-1.802,0.905-2.835c-0.534-1.031-1.803-1.437-2.835-0.903   C14.685,30.117,8.295,38.256,4.881,48.807C4.523,49.912,5.129,51.098,6.234,51.455z"></path><path d="M77.133,25.89c-1.032-0.533-2.302-0.128-2.834,0.903c-0.533,1.033-0.129,2.302,0.903,2.835   c4.169,2.152,11.779,7.674,15.913,20.473c0.289,0.891,1.114,1.458,2.002,1.458c0.215,0,0.432-0.033,0.646-0.103   c1.106-0.357,1.713-1.543,1.356-2.648C91.713,38.257,85.324,30.118,77.133,25.89z"></path><path d="M13.775,74.28c-1.72,0-3.119,1.397-3.119,3.118v6.689c0,1.717,1.399,3.113,3.119,3.113h73.451   c1.717,0,3.113-1.396,3.113-3.113v-6.689c0-1.721-1.396-3.118-3.113-3.118H71.051v-5.337h15.908c1.137,0,2.069-0.904,2.102-2.043   l0.007-0.202c0.001-0.021,0.001-0.04,0.001-0.062c0-18.655-12.459-34.357-29.227-38.687v-3.466h3.435   c3.224,0,5.847-2.619,5.847-5.839c0-3.225-2.623-5.847-5.847-5.847H37.512c-3.221,0-5.84,2.622-5.84,5.847   c0,3.22,2.619,5.839,5.84,5.839h3.643v3.466c-16.764,4.33-29.22,20.031-29.22,38.687v0.203c0,1.162,0.941,2.104,2.104,2.104h15.908   v5.337H13.775z M37.512,20.277c-0.885,0-1.633-0.748-1.633-1.632c0-0.904,0.732-1.639,1.633-1.639h25.765   c0.903,0,1.638,0.734,1.638,1.639c0,0.899-0.734,1.632-1.638,1.632H37.512z M55.634,24.484v2.632   c-0.034-0.005-0.069-0.005-0.104-0.012c-5.031-1.028-10.131,0.007-10.166,0.012v-2.632H55.634z M16.19,64.735   c0.837-16.475,12.495-30.021,27.715-33.104c0.044-0.009,0.088-0.017,0.131-0.025c0.206-0.04,0.413-0.081,0.62-0.118   c0.254-0.045,0.507-0.087,0.76-0.126c3.354-0.514,6.816-0.514,10.17,0c0.252,0.04,0.504,0.081,0.754,0.126   c0.014,0.003,0.029,0.005,0.045,0.008c0.257,0.046,0.514,0.097,0.771,0.149c15.191,3.106,26.821,16.638,27.657,33.09H16.19z    M66.842,68.943v5.337H34.154v-5.337H66.842z M86.132,78.487v4.506H14.865v-4.506H86.132z"></path><path d="M78.401,59.002c-0.257-2.991-1.362-6.096-3.198-8.978c-2.119-3.329-5.063-6.159-8.746-8.412   c-0.991-0.606-2.287-0.293-2.893,0.698s-0.294,2.286,0.697,2.893c6.794,4.153,9.594,10.038,9.947,14.159   c0.095,1.097,1.014,1.925,2.094,1.925c0.061,0,0.121-0.003,0.184-0.009C77.643,61.179,78.501,60.16,78.401,59.002z"></path></g></svg>