<svg height='100px' width='100px'  fill="#000000" xmlns="http://www.w3.org/2000/svg" viewBox="0 0 48 66" x="0px" y="0px"><path fill="#000000" fill-rule="evenodd" d="M226,777 C230.562376,777 234,782.89307 234,790 C234,797.10693 230.562376,803 226,803 L216,803 C212.134007,803 209,806.134007 209,810 C209,813.865993 212.134007,817 216,817 L226,817 C230.562376,817 234,822.89307 234,830 C234,837.10693 230.562376,843 226,843 L219,843 C200.774603,843 186,828.225397 186,810 C186,791.774603 200.774603,777 219,777 L226,777 Z M226,841 C229.169611,841 232,836.147904 232,830 C232,823.852096 229.169611,819 226,819 C222.830389,819 220,823.852096 220,830 C220,836.147904 222.830389,841 226,841 Z M226,801 C229.169611,801 232,796.147904 232,790 C232,783.852096 229.169611,779 226,779 C222.830389,779 220,783.852096 220,790 C220,796.147904 222.830389,801 226,801 Z M221.687886,819 L216,819 C211.029437,819 207,814.970563 207,810 C207,805.029437 211.029437,801 216,801 L221.687886,801 C219.437846,798.684895 218,794.596307 218,790 C218,785.403693 219.437846,781.315105 221.687886,779 L219,779 C201.879173,779 188,792.879173 188,810 C188,827.120827 201.879173,841 219,841 L221.687886,841 C219.437846,838.684895 218,834.596307 218,830 C218,825.403693 219.437846,821.315105 221.687886,819 Z" transform="translate(-186 -777)"></path></svg>