<svg height='100px' width='100px'  fill="#000000" xmlns="http://www.w3.org/2000/svg" xmlns:xlink="http://www.w3.org/1999/xlink" version="1.1" x="0px" y="0px" viewBox="0 0 50 50" enable-background="new 0 0 50 50" xml:space="preserve"><g><path d="M42,42c9.4-9.4,9.4-24.6,0-33.9C32.6-1.3,17.4-1.4,8,8C-1.3,17.4-1.3,32.6,8,42C17.4,51.3,32.6,51.4,42,42z M40.6,9.4   c8.5,8.5,8.6,22.2,0.2,30.8c-0.1,0-0.2,0.1-0.3,0.2c-2,2-4.6,3.1-7.4,3.1c-2.8,0-5.4-1.1-7.4-3.1c-4.1-4.1-4.1-10.7,0-14.8   c4.9-4.9,4.9-12.8,0-17.6c-2.3-2.3-5.3-3.6-8.6-3.6C25.2,1.4,34.3,3.2,40.6,9.4z M9.2,9.7c0.1,0,0.2-0.1,0.3-0.2   c2-2,4.6-3.1,7.4-3.1c2.8,0,5.4,1.1,7.4,3.1c4.1,4.1,4.1,10.7,0,14.8c-4.9,4.9-4.9,12.8,0,17.6c2.3,2.3,5.3,3.6,8.6,3.6   c-8,3.1-17.2,1.3-23.4-5C1,32.1,0.9,18.3,9.2,9.7z"></path><path d="M20.9,20.9c1.7-1.7,1.7-4.5,0-6.3c-1.7-1.7-4.5-1.7-6.3,0c-1.7,1.7-1.7,4.5,0,6.3C16.4,22.7,19.2,22.7,20.9,20.9z    M16.1,16.1c0.9-0.9,2.5-1,3.4,0c1,1,1,2.5,0,3.4c-0.9,0.9-2.5,0.9-3.4,0C15.1,18.6,15.1,17,16.1,16.1z"></path><path d="M29.6,35.9c1.7,1.7,4.5,1.7,6.3,0c1.7-1.7,1.7-4.5,0-6.3c-1.7-1.7-4.5-1.7-6.3,0C27.9,31.4,27.9,34.2,29.6,35.9z M31,31   c0.9-0.9,2.5-1,3.4,0c1,1,1,2.5,0,3.4c-0.9,0.9-2.5,0.9-3.4,0C30.1,33.5,30.1,32,31,31z"></path></g></svg>