<svg height='100px' width='100px'  fill="#000000" xmlns="http://www.w3.org/2000/svg" xmlns:xlink="http://www.w3.org/1999/xlink" viewBox="0 0 60 46" version="1.1" x="0px" y="0px"><title>Hipster - Outline - 035 - Film Camera</title><desc>Created with Sketch.</desc><g stroke="none" stroke-width="1" fill="none" fill-rule="evenodd"><g fill-rule="nonzero" fill="#000000"><path d="M58,4 L57.63544,4 L56.499,1.57568 C56.4776778,1.53055769 56.4532039,1.48699323 56.42576,1.44531 C55.8700502,0.609982911 54.9329565,0.108438124 53.92967,0.10937 L50.07031,0.10937 C49.0670235,0.108438124 48.1299298,0.609982911 47.57422,1.44531 C47.5467761,1.48699323 47.5223022,1.53055769 47.50098,1.57568 L46.36456,4 L35.23633,4 L35.44727,3.89453 C35.7860899,3.72513263 36.0000848,3.37880651 36,3 L36,2 C36,1.44771525 35.5522847,1 35,1 C34.4477153,1 34,1.44771525 34,2 L34,2.38184 L32.76367,3 L27.23633,3 L26,2.38184 L26,2 C26,1.44771525 25.5522847,1 25,1 C24.4477153,1 24,1.44771525 24,2 L24,3 C23.9999152,3.37880651 24.2139101,3.72513263 24.55273,3.89453 L24.76367,4 L21,4 L21,2 C20.9988975,0.895887477 20.1041125,0.00110245966 19,0 L17,0 C15.8958875,0.00110245966 15.0011025,0.895887477 15,2 L15,4 L13.63544,4 L12.499,1.57568 C12.4780567,1.53036308 12.4535672,1.4867709 12.42576,1.44531 C11.8701316,0.60990484 10.9329963,0.10833753 9.92969,0.10938 L6.07031,0.10938 C5.06699658,0.108330825 4.12985232,0.60989893 3.57422,1.44531 C3.54641276,1.48677088 3.5219233,1.53036306 3.50098,1.57568 L2.36456,4 L2,4 C0.895887477,4.00110246 0.00110245966,4.89588748 0,6 L0,44 C0.00110245966,45.1041125 0.895887477,45.9988975 2,46 L58,46 C59.1040464,45.998738 59.998738,45.1040464 60,44 L60,6 C59.998738,4.89595365 59.1040464,4.00126197 58,4 Z M43.87854,39.44977 C43.89054,39.4353 43.901,39.41977 43.9129,39.40521 C44.22723,39.02252 44.52099,38.62304 44.80346,38.21502 C44.88488,38.09741 44.96362,37.97839 45.04223,37.85876 C45.2790433,37.4986533 45.5032267,37.1300433 45.71478,36.75293 C45.76001,36.672 45.80938,36.59399 45.85345,36.51233 C46.09619,36.06207 46.31738,35.59918 46.52185,35.12708 C46.57416,35.00635 46.62103,34.88324 46.67071,34.76117 C46.8273233,34.3764033 46.9707167,33.9854033 47.10089,33.58817 C47.14154,33.46409 47.185,33.34171 47.22296,33.21647 C47.34896,32.80125 47.46161,32.38047 47.55774,31.95329 C49.1226416,32.2072376 50.6900454,31.5141837 51.5552576,30.1857205 C52.4204697,28.8572574 52.4206149,27.1434667 51.5556279,25.8148569 C50.690641,24.4862472 49.1233546,23.7929276 47.55841,24.04661 C47.44397,23.53568 47.31323,23.02873 47.1543,22.52976 C46.8612235,21.5953145 46.4860648,20.6886245 46.03321,19.82029 C45.5264426,18.8243461 44.924384,17.879838 44.23547,17 L58,17 L58,40 L43.39227,40 C43.55573,39.81775 43.72253,39.63855 43.87854,39.44977 Z M47.91693,29.63953 C47.96606,29.09863 48,28.55347 48,28 C47.9957989,27.3357784 47.9551914,26.6722864 47.87836,26.01251 C47.91937,26.01007 47.95856,26 48,26 C49.1045695,26 50,26.8954305 50,28 C50,29.1045695 49.1045695,30 48,30 C47.96045,30 47.9231,29.9903 47.88391,29.988 C47.89667,29.87225 47.90637,29.75592 47.91693,29.63953 Z M40.61285,13.48431 C40.0946421,13.1027637 39.5562444,12.7494278 39,12.42584 L39,9.99951 L47,9.99896 L47,14.99908 L42.44629,14.99853 C42.25043,14.81091 42.03998,14.64239 41.83655,14.46447 C41.66187,14.31127 41.49219,14.1513 41.31262,14.00555 C41.08588,13.82214 40.8476,13.65607 40.61285,13.48431 Z M35.49237,10.86047 C35.26737,10.78863 35.03955,10.72705 34.81152,10.66412 C34.44958,10.56237 34.08563,10.4693 33.71692,10.38989 C33.5957,10.36456 33.47424,10.34131 33.35236,10.31842 C32.5759371,10.1616034 31.7901724,10.0552408 31,10 L37,9.99963 L37,11.41192 C36.74365,11.3037 36.47919,11.21661 36.218,11.12054 C35.97693,11.03113 35.73724,10.9397 35.49237,10.86047 Z M54,9.99854 L54,15 L49,14.99939 L49,9.99884 L54,9.99854 Z M49.27441,2.50391 C49.4632971,2.25502972 49.7578686,2.10900976 50.07031,2.10938 L53.92969,2.10938 C54.2421314,2.10900976 54.5367029,2.25502972 54.72559,2.50391 L55.42676,4 L48.57324,4 L49.27441,2.50391 Z M17,2 L19,2 L19,4 L17,4 L17,2 Z M5.27441,2.50391 C5.46329714,2.25502972 5.75786864,2.10900976 6.07031,2.10938 L9.92969,2.10938 C10.2421314,2.10900976 10.5367029,2.25502972 10.72559,2.50391 L11.42676,4 L4.57324,4 L5.27441,2.50391 Z M58,6.00293 L58,15 L56,15 L56,10 C55.998738,8.89595365 55.1040464,8.00126197 54,8 L31,8 C30.4653115,8.00215909 29.9535602,8.21745903 29.5781425,8.59819262 C29.2027249,8.9789262 28.9946413,9.49365396 29,10.02832 L29.0022,10.05054 C24.7269539,10.2830078 20.676305,12.0388256 17.58386,15 L2,15 L2,6 L58,6.00293 Z M12.08307,29.63953 C12.0965,29.78753 12.11328,29.93409 12.13031,30.08106 C12.18201,30.5275333 12.2495567,30.9688667 12.33295,31.40506 C12.35157,31.50174 12.36495,31.59995 12.38514,31.69606 C12.49323,32.21175 12.62574,32.71797 12.77705,33.21651 C12.81505,33.34175 12.85847,33.46413 12.89912,33.58821 C13.0293067,33.98561 13.1727,34.37661 13.3293,34.76121 C13.37898,34.88328 13.42586,35.00639 13.47816,35.12712 C13.68263,35.59923 13.90382,36.06212 14.14656,36.51237 C14.19063,36.59404 14.24,36.67204 14.28523,36.75297 C14.49635,37.13041 14.7205333,37.49902 14.95778,37.8588 C15.03639,37.97843 15.11513,38.09745 15.19655,38.21506 C15.47902,38.62306 15.77278,39.02256 16.08711,39.40525 C16.09901,39.41978 16.10951,39.43534 16.12147,39.44981 C16.27747,39.63859 16.44428,39.81781 16.60774,40.00004 L2,40.00004 L2,17 L15.78387,17 C13.3324139,20.1427698 12.0006892,24.0141953 12,28 C12,28.55347 12.03394,29.09863 12.08307,29.63953 Z M21.7583,44 L2,44 L2,42 L18.699,42 C19.0671,42.29779 19.45022,42.577 19.84133,42.84558 C19.94448,42.91638 20.05074,42.98218 20.15548,43.0509 C20.5000867,43.2770933 20.8526267,43.49149 21.2131,43.69409 C21.3273,43.7583 21.43978,43.8244 21.55551,43.88617 C21.624,43.92273 21.68927,43.96429 21.7583,44 Z M14,28 C13.9983727,23.7882597 15.6631764,19.7469408 18.63092,16.75842 C18.6772944,16.7199795 18.7199795,16.6772944 18.75842,16.63092 C21.7469408,13.6631764 25.7882597,11.9983727 30,12 C30.428,12 30.85107,12.02911 31.27319,12.06219 C31.5001167,12.0801367 31.72617,12.1030467 31.95135,12.13092 C32.21008,12.16223 32.46691,12.20142 32.72265,12.24506 C32.97601,12.28882 33.22875,12.33478 33.47912,12.39063 C33.6878,12.43677 33.89361,12.49177 34.09979,12.54615 C34.38415,12.62165 34.66833,12.69764 34.94779,12.78864 C35.10319,12.83906 35.2551,12.89864 35.40873,12.95386 C35.72245,13.06678 36.03617,13.17993 36.3422,13.31226 C36.43699,13.35326 36.52811,13.40226 36.6222,13.44513 C37.6087256,13.8966542 38.5467608,14.4473623 39.42182,15.08875 C39.63482,15.24482 39.8512,15.39484 40.0572,15.56202 C40.21632,15.69074 40.36573,15.83241 40.5202,15.96748 C40.79498,16.20832 41.07232,16.44548 41.33282,16.7068 L41.33331,16.70729 C42.51608,17.8848355 43.5023197,19.2444711 44.25445,20.73439 C44.6567318,21.502818 44.9891227,22.3058528 45.24761,23.1338 C47.1653265,29.144834 45.3718959,35.7216074 40.6682334,39.9270472 C35.9645708,44.132487 29.2288429,45.181444 23.4691089,42.6054722 C17.709375,40.0295003 14.0009687,34.3095297 14,28 Z M38.2417,44 C38.3107,43.96429 38.37604,43.92273 38.44452,43.88617 C38.56024,43.8244 38.67273,43.7583 38.78693,43.69409 C39.1474633,43.4914233 39.5000033,43.2770267 39.84455,43.0509 C39.94929,42.98217 40.05555,42.91638 40.1587,42.84558 C40.54981,42.57703 40.93293,42.29779 41.30103,42 L58,42 L58,44 L38.2417,44 Z"></path><path d="M44,28 C44.0014938,26.5567538 43.7796318,25.1219687 43.34229,23.74658 C43.1147804,23.0196693 42.8231059,22.3144206 42.47071,21.63916 C41.8126596,20.3363176 40.9499855,19.1474034 39.91553,18.11768 C35.1990168,13.3860708 27.7963431,12.6465724 22.2370359,16.3516671 C16.6777288,20.0567618 14.5111925,27.1738227 17.0630811,33.3480828 C19.6149697,39.5223428 26.1740603,43.0330075 32.726995,41.7319813 C39.2799297,40.4309551 44.0003758,34.6808399 44,28 L44,28 Z M18,28 C17.9994887,23.1423861 20.927871,18.7637216 25.4174712,16.909024 C29.9070714,15.0543263 35.0719914,16.0895687 38.5,19.53125 C39.3879826,20.414504 40.1280704,21.4348769 40.69189,22.55325 C40.9933034,23.1286289 41.2421954,23.7300262 41.43554,24.35013 C42.8740133,28.858419 41.5290547,33.7911196 38.0013161,36.9453129 C34.4735774,40.0995061 29.4217043,40.8862889 25.1018376,38.9542881 C20.781971,37.0222873 18.0006506,32.7322167 18,28 Z"></path><path d="M40,28 C40.0009841,26.969143 39.8425348,25.9443345 39.53027,24.96191 C39.3678083,24.4434237 39.1598045,23.9403233 38.90869,23.45849 C38.4381484,22.5272626 37.8216318,21.6773254 37.08252,20.94091 C33.7135491,17.5611004 28.4258371,17.0328264 24.454802,19.6793255 C20.4837669,22.3258246 18.9361486,27.4095092 20.7588958,31.8198006 C22.5816431,36.230092 27.2667505,38.737828 31.9475186,37.8085882 C36.6282868,36.8793483 40.000171,32.7721146 40,28 L40,28 Z M22,28 C21.9997993,24.7615803 23.9521096,21.8425186 26.9451838,20.6060441 C29.938258,19.3695696 33.381546,20.0596455 35.667,22.354 C36.2594979,22.9442386 36.7534106,23.6257577 37.12989,24.37255 C37.3299644,24.7547566 37.4953408,25.1541446 37.62403,25.56591 C38.5832268,28.5714902 37.6867386,31.8601324 35.3349367,33.96313 C32.9831349,36.0661276 29.6151177,36.5908358 26.7350406,35.3029201 C23.8549635,34.0150044 22.0005576,31.154928 22,28 Z"></path><path d="M34,28 C34.0013482,28.5506575 33.8881084,29.0955719 33.66748,29.6001 C33.5227602,29.9278299 33.5643888,30.3079349 33.7766125,30.5965728 C33.9888361,30.8852107 34.3392355,31.0382891 34.6952099,30.997879 C35.0511842,30.957469 35.3583548,30.7297434 35.50048,30.40088 C35.8316271,29.6438698 36.0017348,28.8262687 36,28 C36,27.4477153 35.5522847,27 35,27 C34.4477153,27 34,27.4477153 34,28 Z"></path><path d="M32.83252,25.17627 C33.2224699,25.5659618 33.8542598,25.5665129 34.244889,25.1775019 C34.6355182,24.788491 34.6375897,24.1567042 34.24952,23.76514 C33.0206361,22.531721 31.3165607,21.8929597 29.5797074,22.0146918 C27.8428542,22.1364239 26.2445397,23.0066423 25.19972,24.39942 C24.8701242,24.8411983 24.9600514,25.4663616 25.4008034,25.7973285 C25.8415553,26.1282955 26.4669951,26.0403114 26.79933,25.60059 C27.4955966,24.6717897 28.5610342,24.0913006 29.7189741,24.0098617 C30.8769141,23.9284228 32.013114,24.354069 32.83253,25.17627 L32.83252,25.17627 Z"></path><path d="M5,13 L7,13 C7.55228475,13 8,12.5522847 8,12 C8,11.4477153 7.55228475,11 7,11 L5,11 C4.44771525,11 4,11.4477153 4,12 C4,12.5522847 4.44771525,13 5,13 Z"></path><path d="M11,13 L16,13 C16.5522847,13 17,12.5522847 17,12 C17,11.4477153 16.5522847,11 16,11 L11,11 C10.4477153,11 10,11.4477153 10,12 C10,12.5522847 10.4477153,13 11,13 Z"></path></g></g></svg>