<svg height='100px' width='100px'  fill="#000000" xmlns="http://www.w3.org/2000/svg" xmlns:xlink="http://www.w3.org/1999/xlink" version="1.1" x="0px" y="0px" viewBox="0 0 100 100" enable-background="new 0 0 100 100" xml:space="preserve"><path d="M46.31,27.297l29.949,11.188c0.196,0.073,0.396,0.107,0.593,0.107c0.686,0,1.33-0.419,1.584-1.099  c0.327-0.876-0.117-1.851-0.991-2.177L47.493,24.128c-0.876-0.327-1.85,0.118-2.177,0.992C44.989,25.996,45.434,26.971,46.31,27.297  z"></path><path d="M41.78,32.704l29.952,11.188c0.193,0.073,0.394,0.107,0.592,0.107c0.685,0,1.329-0.419,1.584-1.1  c0.326-0.875-0.118-1.85-0.993-2.177l-29.95-11.187c-0.877-0.328-1.85,0.118-2.177,0.993C40.46,31.403,40.904,32.377,41.78,32.704z"></path><path d="M23.662,54.332l29.95,11.188c0.194,0.071,0.396,0.107,0.592,0.107c0.686,0,1.331-0.42,1.585-1.101  c0.326-0.875-0.118-1.851-0.992-2.177L24.846,51.163c-0.876-0.327-1.849,0.117-2.176,0.992  C22.343,53.029,22.787,54.005,23.662,54.332z"></path><path d="M19.132,59.738l29.95,11.188c0.195,0.073,0.396,0.107,0.592,0.107c0.686,0,1.332-0.42,1.585-1.1  c0.327-0.877-0.117-1.85-0.992-2.177l-29.95-11.188c-0.876-0.325-1.85,0.117-2.177,0.993S18.257,59.411,19.132,59.738z"></path><path d="M62.468,51.35l-14.976-5.594c-0.875-0.328-1.85,0.118-2.177,0.992c-0.326,0.875,0.118,1.85,0.993,2.176l14.975,5.595  c0.195,0.073,0.396,0.108,0.592,0.108c0.686,0,1.331-0.422,1.586-1.101C63.788,52.651,63.342,51.677,62.468,51.35z"></path><path d="M57.938,56.756l-14.975-5.593c-0.876-0.327-1.85,0.117-2.177,0.992c-0.327,0.874,0.117,1.85,0.992,2.177l14.976,5.594  c0.194,0.072,0.395,0.106,0.592,0.106c0.686,0,1.331-0.419,1.584-1.101C59.258,58.058,58.812,57.083,57.938,56.756z"></path><path d="M66.999,45.943L52.023,40.35c-0.873-0.328-1.85,0.117-2.177,0.992c-0.327,0.875,0.117,1.85,0.993,2.177l14.975,5.593  c0.196,0.073,0.396,0.107,0.593,0.107c0.685,0,1.331-0.419,1.584-1.099C68.317,47.245,67.874,46.27,66.999,45.943z"></path><path d="M94.461,37.845l-5.01-1.884l1.826-2.149c0.357-0.42,0.489-0.988,0.351-1.521c-0.14-0.533-0.53-0.966-1.047-1.159  L45.296,14.216c-0.671-0.252-1.428-0.051-1.889,0.498L3.476,62.384c-1.102,0.979-1.702,2.424-1.702,4.128  c0,3.648,2.825,7.569,6.432,8.926L52.881,92.23c0.122,0.047,0.246,0.072,0.371,0.09c0.338,0.082,0.675,0.14,1.002,0.14  c0.721,0,1.4-0.201,1.972-0.596c0.155-0.107,0.295-0.231,0.427-0.362c0.227-0.098,0.437-0.246,0.608-0.444l40.552-46.851  c0.267-0.307,0.413-0.7,0.413-1.107C98.226,40.911,96.608,38.651,94.461,37.845z M45.233,17.804l41.906,15.654L50.173,76.926  L9.396,61.598c-0.222-0.083-0.445-0.155-0.667-0.217L45.233,17.804z M56.913,86.29c-0.676-1.168-1.743-2.149-3.005-2.623  L12.754,68.196c-0.875-0.331-1.85,0.114-2.179,0.988c-0.329,0.875,0.114,1.851,0.988,2.179l41.155,15.47  c0.808,0.305,1.571,1.318,1.571,2.089c0,0.07-0.006,0.122-0.015,0.155c-0.064-0.003-0.19-0.008-0.367-0.074  c-0.002-0.001-0.003-0.001-0.005-0.002L9.397,72.271c-2.298-0.863-4.24-3.501-4.24-5.759c0-0.556,0.124-1.306,0.711-1.713  c0.542-0.375,1.395-0.388,2.337-0.034l41.89,15.746c0.67,0.253,1.422,0.057,1.885-0.486L87.121,38.7l6.148,2.312  c0.636,0.238,1.244,0.917,1.475,1.57L56.913,86.29z"></path><path d="M28.191,48.924l8.549,3.193c0.193,0.073,0.393,0.107,0.591,0.107c0.49,0,0.966-0.213,1.294-0.603l9.396-11.163  c0.355-0.421,0.482-0.99,0.341-1.522c-0.142-0.534-0.534-0.964-1.051-1.154l-8.885-3.271c-0.682-0.251-1.446-0.039-1.901,0.526  l-9.059,11.239c-0.341,0.424-0.458,0.985-0.314,1.509C27.295,48.311,27.683,48.735,28.191,48.924z M38.397,38.107l5.483,2.019  l-7.074,8.404l-5.235-1.954L38.397,38.107z"></path></svg>