<svg height='100px' width='100px'  fill="#000000" xmlns="http://www.w3.org/2000/svg" viewBox="0 0 48 48" x="0px" y="0px"><title>Graduation Cap</title><g data-name="Graduation Cap"><path d="M47.46,14.11C22.36,1,24.2,1.77,23.54,2.11-1.47,15.16,0,14.13,0,15s.07.65,9.07,5.34C9,20.61,9,19.83,9,30a1,1,0,0,0,.51.85C11.16,33.88,16.83,36,24,36a27,27,0,0,0,10-1.71v3.89A3,3,0,0,0,32,41v4a1,1,0,0,0,1,1h4a1,1,0,0,0,1-1V41a3,3,0,0,0-2-2.82V33.29c1.89-1.17,3-2.64,3-4.29V20.3c8.91-4.65,9-4.45,9-5.3A1,1,0,0,0,47.46,14.11ZM36,44H34V41a1,1,0,0,1,2,0ZM11,29V21.35C24.75,28.52,23.65,28,24,28s-.31.29,10-5.09V32.1C25.57,36.14,11,33.19,11,29Zm26,0a2.58,2.58,0,0,1-1,1.82V21.87l1-.52Zm-1.74-9L24.48,14.12a1,1,0,0,0-1,1.76l9.6,5.23L24,25.87,3.16,15,24,4.13,44.84,15Z"></path></g></svg>