<svg height='100px' width='100px'  fill="#000000" xmlns="http://www.w3.org/2000/svg" xmlns:xlink="http://www.w3.org/1999/xlink" version="1.1" x="0px" y="0px" viewBox="0 0 100 100" style="enable-background:new 0 0 100 100;" xml:space="preserve"><path d="M72.7060547,61.9287109H43.0874023c-0.5522461,0-1,0.4472656-1,1v17.7402344c0,0.5527344,0.4477539,1,1,1h29.6186523  c0.5522461,0,1-0.4472656,1-1V62.9287109C73.7060547,62.3759766,73.2583008,61.9287109,72.7060547,61.9287109z   M71.7060547,79.6689453H44.0874023V63.9287109h27.6186523V79.6689453z"></path><path d="M50.4921875,69.6367188h14.809082c0.5522461,0,1-0.4472656,1-1s-0.4477539-1-1-1h-14.809082c-0.5522461,0-1,0.4472656-1,1  S49.9399414,69.6367188,50.4921875,69.6367188z"></path><path d="M50.4921875,75.8076172h14.809082c0.5522461,0,1-0.4472656,1-1s-0.4477539-1-1-1h-14.809082c-0.5522461,0-1,0.4472656-1,1  S49.9399414,75.8076172,50.4921875,75.8076172z"></path><path d="M11,84.1953125h14V89c0,0.5527344,0.4477539,1,1,1h51.5175781c3.1508789,0,5.7143555-2.5634766,5.7143555-5.7138672  V66.859375h3.9145508C88.7197266,66.859375,90,65.5800781,90,64.0068359v-6.9375  c0-0.7106323-0.2706299-1.3533936-0.7020874-1.8535156C89.7293701,54.7156982,90,54.072937,90,53.3623047v-6.9375  c0-0.7106323-0.2706299-1.3533936-0.7020874-1.8535156C89.7293701,44.071167,90,43.4284058,90,42.7177734v-6.9375  c0-0.7105103-0.2705078-1.3530273-0.7018433-1.8528442C89.7294922,33.4273682,90,32.784729,90,32.0742188v-6.9375  c0-1.5732422-1.2802734-2.8535156-2.8535156-2.8535156h-3.9145508v-0.7646484c0-3.1503906-2.5634766-5.7138672-5.7143555-5.7138672  h-8.2856445v-0.0908203C69.2319336,12.5634766,66.668457,10,63.5175781,10H11c-0.5522461,0-1,0.4472656-1,1v72.1953125  C10,83.7480469,10.4477539,84.1953125,11,84.1953125z M27,88V17.8046875h5.7929688V88H27z M88,35.7802734v6.9375  c0,0.4707031-0.3828125,0.8535156-0.8535156,0.8535156h-3.9145508v-8.6435547h3.9145508  C87.6171875,34.9277344,88,35.3105469,88,35.7802734z M88,46.4248047v6.9375c0,0.4707031-0.3828125,0.8535156-0.8535156,0.8535156  h-3.9145508v-8.6445312h3.9145508C87.6171875,45.5712891,88,45.9541016,88,46.4248047z M88,64.0068359  c0,0.4697266-0.3828125,0.8525391-0.8535156,0.8525391h-3.9145508v-8.6435547h3.9145508  C87.6171875,56.2158203,88,56.5986328,88,57.0693359V64.0068359z M87.1464844,24.2832031  C87.6171875,24.2832031,88,24.6660156,88,25.1367188v6.9375c0,0.4707031-0.3828125,0.8535156-0.8535156,0.8535156h-3.9145508  v-8.6445312H87.1464844z M81.2319336,21.5185547v62.7675781C81.2319336,86.3339844,79.565918,88,77.5175781,88H34.7929688  V17.8046875h42.7246094C79.565918,17.8046875,81.2319336,19.4707031,81.2319336,21.5185547z M67.2319336,15.7138672v0.0908203H26  c-0.5522461,0-1,0.4472656-1,1v65.390625h-5.2070312V12h43.7246094C65.565918,12,67.2319336,13.6660156,67.2319336,15.7138672z   M12,12h5.7929688v70.1953125H12V12z"></path><path d="M65.7421875,39.5869141c0,0.5527344,0.4477539,1,1,1s1-0.4472656,1-1c0-0.4707031,0.4042969-0.8535156,0.9008789-0.8535156  s0.9008789,0.3828125,0.9008789,0.8535156c0,0.5527344,0.4477539,1,1,1s1-0.4472656,1-1  c0-1.5732422-1.3012695-2.8535156-2.9008789-2.8535156S65.7421875,38.0136719,65.7421875,39.5869141z"></path><path d="M40.1577148,46.4052734c0.0112305,0.5097656,0.4042969,0.9296875,0.9125977,0.9746094  c2.0620117,0.1835938,3.9628906-0.6455078,5.5551758-2.40625c0.7612305,1.328125,1.6835938,2.53125,2.6445312,3.4443359  c-2.7509766,3.5058594-7.7197266,2.7050781-7.9394531,2.6660156c-0.4907227-0.0810547-0.9599609,0.1962891-1.1196289,0.6611328  c-0.1591797,0.4658203,0.0439453,0.9785156,0.4794922,1.2080078C44.8574219,55.1542969,51.7939453,57.375,57.8964844,57.375  c13.0600586,0,17.7397461-17.0810547,17.7397461-17.2539062c0-0.0927734-0.0131836-0.1855469-0.0385742-0.2753906  c-0.0493164-0.171875-1.2358398-4.2568359-3.9624023-8.4003906c-3.6923828-5.6103516-8.4428711-8.5761719-13.7387695-8.5761719  c-6.1025391,0-13.0390625,2.2207031-17.2060547,4.421875c-0.4345703,0.2294922-0.637207,0.7402344-0.4790039,1.2050781  c0.1582031,0.4658203,0.6333008,0.7460938,1.1166992,0.6640625c0.2226562-0.0400391,5.1904297-0.8408203,7.9418945,2.6660156  c-0.9609375,0.9130859-1.8833008,2.1162109-2.6445312,3.4443359c-1.5922852-1.7607422-3.4921875-2.5898438-5.5551758-2.40625  c-0.5083008,0.0449219-0.9013672,0.4648438-0.9125977,0.9746094c-0.0039062,0.1865234-0.0576172,4.0410156,1.9956055,6.2832031  C40.1000977,42.3642578,40.1538086,46.21875,40.1577148,46.4052734z M73.5893555,40.1230469  c-0.4596558,1.4289551-2.7918091,8.0682373-7.5554199,12.1013184c-5.265564-11.6777344-1.4369507-21.4243774-0.0645142-24.2589111  C70.7784424,31.9949341,73.1292114,38.6921997,73.5893555,40.1230469z M45.9677734,37.6787109  c0.2021484,0.3007812,0.5517578,0.4619141,0.9130859,0.4404297c0.3618164-0.0302734,0.6787109-0.2539062,0.8286133-0.5839844  c0.8847656-1.9501953,2.1958008-3.7265625,3.5068359-4.7519531c0.3989258-0.3125,0.5014648-0.8740234,0.2387695-1.3066406  c-1.5561523-2.5654297-3.8896484-3.6787109-5.9594727-4.1328125c3.7016602-1.3867188,8.2587891-2.4746094,12.4008789-2.4746094  c2.456543,0,4.5883179,0.7441406,6.4261475,1.8995361c-1.4320679,2.7563477-6.0805664,13.4838257,0.0665283,26.6656494  C62.536499,54.6135864,60.3825073,55.375,57.8964844,55.375c-4.1420898,0-8.6992188-1.0878906-12.4008789-2.4746094  c2.0698242-0.4541016,4.4033203-1.5673828,5.9594727-4.1328125c0.2626953-0.4326172,0.1601562-0.9941406-0.2387695-1.3066406  c-1.3110352-1.0253906-2.6220703-2.8017578-3.5068359-4.7519531c-0.1499023-0.3300781-0.4667969-0.5537109-0.8286133-0.5839844  c-0.3564453-0.0195312-0.7104492,0.1396484-0.9130859,0.4404297c-1.1064453,1.6523438-2.3657227,2.5888672-3.753418,2.7949219  c0.1318359-1.296875,0.5688477-3.4951172,2.0102539-4.3867188c0.3017578-0.1865234,0.4697266-0.5078125,0.4741211-0.8378906  c0-0.0009766,0-0.0019531,0-0.0029297s0-0.0019531,0-0.0019531c0-0.0009766,0-0.0009766,0-0.0009766  c0-0.0009766,0-0.0019531,0-0.0019531c0-0.0009766,0-0.0009766,0-0.0009766c0-0.0009766,0-0.0019531,0-0.0019531  c0-0.0009766,0-0.0009766,0-0.0009766c0-0.0019531,0-0.0019531,0-0.0039062c0,0,0,0,0-0.0009766c0,0,0-0.0009766,0-0.0019531  c0,0,0,0,0-0.0009766c0,0,0-0.0009766,0-0.0019531c0,0,0,0,0-0.0009766c0,0,0-0.0009766,0-0.0019531s0-0.0019531,0-0.0029297  c-0.0043945-0.3300781-0.1723633-0.6513672-0.4741211-0.8378906c-1.3681641-0.8457031-1.871582-2.9609375-2.0175781-4.3876953  C43.5976562,35.0869141,44.859375,36.0234375,45.9677734,37.6787109z"></path></svg>