<svg height='100px' width='100px'  fill="#000000" xmlns:x="http://ns.adobe.com/Extensibility/1.0/" xmlns:i="http://ns.adobe.com/AdobeIllustrator/10.0/" xmlns:graph="http://ns.adobe.com/Graphs/1.0/" xmlns="http://www.w3.org/2000/svg" xmlns:xlink="http://www.w3.org/1999/xlink" version="1.1" x="0px" y="0px" viewBox="0 0 100 100" style="enable-background:new 0 0 100 100;" xml:space="preserve"><g><g i:extraneous="self"><g><path d="M63.1,28.1H25.3c-0.3,0-0.5,0.2-0.5,0.5v2.8c0,0.3,0.2,0.5,0.5,0.5h37.8c0.3,0,0.5-0.2,0.5-0.5v-2.8     C63.6,28.3,63.4,28.1,63.1,28.1z"></path><path d="M63.1,38.4H25.3c-0.3,0-0.5,0.2-0.5,0.5v2.8c0,0.3,0.2,0.5,0.5,0.5h37.8c0.3,0,0.5-0.2,0.5-0.5v-2.8     C63.6,38.7,63.4,38.4,63.1,38.4z"></path><path d="M63.1,48.8H25.3c-0.3,0-0.5,0.2-0.5,0.5v2.8c0,0.3,0.2,0.5,0.5,0.5h37.8c0.3,0,0.5-0.2,0.5-0.5v-2.8     C63.6,49,63.4,48.8,63.1,48.8z"></path><path d="M97.2,85.4l-6-12.8c0.8-1.7,1.3-3.7,1.3-5.7c0-4.9-2.6-9.3-6.5-11.7V6.9c0-0.3-0.2-0.5-0.5-0.5H3c-0.3,0-0.5,0.2-0.5,0.5     v66.9c0,0.3,0.2,0.5,0.5,0.5h62.3l-5.2,11.1c-0.5,1-0.4,2.3,0.4,3.2c0.7,0.9,1.8,1.3,3,1.1l3.3-0.6l1.6,3c0.6,1,1.6,1.6,2.7,1.6     h0.1c1.2,0,2.2-0.7,2.7-1.8l4.8-10.3l4.8,10.3c0.5,1.1,1.5,1.7,2.7,1.8h0.1c1.1,0,2.1-0.6,2.7-1.6l1.6-3l3.3,0.6     c1.1,0.2,2.3-0.2,3-1.1C97.6,87.7,97.7,86.4,97.2,85.4z M88.7,66.9c0,5.5-4.5,10-10,10c-5.5,0-10-4.5-10-10s4.5-10,10-10     C84.2,56.9,88.7,61.4,88.7,66.9z M72,54.8c-2.3,1.3-4.2,3.2-5.5,5.5H16.9c-0.3,0-0.5-0.2-0.5-0.5v-39c0-0.3,0.2-0.5,0.5-0.5h54.6     c0.3,0,0.5,0.2,0.5,0.5V54.8z M6.8,10.2h74.8c0.3,0,0.5,0.2,0.5,0.5v42.9c-1.1-0.3-2.3-0.5-3.5-0.5c-1,0-1.9,0.1-2.8,0.3V17     c0-0.3-0.2-0.5-0.5-0.5H13.1c-0.3,0-0.5,0.2-0.5,0.5v46.6c0,0.3,0.2,0.5,0.5,0.5h52c-0.2,0.9-0.3,1.8-0.3,2.8     c0,1.2,0.2,2.4,0.5,3.6H6.8c-0.3,0-0.5-0.2-0.5-0.5V10.7C6.3,10.4,6.5,10.2,6.8,10.2z M71,88.9l-1.2-2.2c-0.5-1-1.6-1.6-2.7-1.6     c-0.2,0-0.4,0-0.6,0.1l-2.4,0.5l4.4-9.4c1.7,1.9,4,3.3,6.5,3.9L71,88.9z M90.8,85.2c-1.3-0.3-2.6,0.4-3.2,1.5l-1.2,2.2l-4.1-8.7     c2.5-0.7,4.8-2.1,6.5-3.9l4.4,9.4L90.8,85.2z"></path></g></g></g></svg>