<svg height='100px' width='100px'  fill="#000000" xmlns="http://www.w3.org/2000/svg" xmlns:xlink="http://www.w3.org/1999/xlink" version="1.1" x="0px" y="0px" viewBox="0 0 100 100" enable-background="new 0 0 100 100" xml:space="preserve"><path fill-rule="evenodd" clip-rule="evenodd" d="M43.625,53.9003906C44.2578125,54,44.7753906,54.3183594,45.1757813,54.8515625  c0.3652344,0.5332031,0.5,1.1152344,0.4003906,1.75c-0.0351563,0.2988281-0.0683594,0.6328125-0.1015625,1  c-0.0664063,0.6660156-0.3320313,1.1992188-0.7988281,1.5996094c-0.5332031,0.4335938-1.1171875,0.6171875-1.75,0.5488281  c-0.6679688-0.0664063-1.2011719-0.3320313-1.5996094-0.7988281c-0.4667969-0.5-0.6679688-1.0839844-0.6015625-1.75  c0.0332031-0.4667969,0.1015625-0.9179688,0.2011719-1.3496094c0.0996094-0.6347656,0.4160156-1.1347656,0.9492188-1.5  C42.4082031,53.9179688,42.9921875,53.7675781,43.625,53.9003906z M59.2753906,37.6015625  c0.6328125,0.0664063,1.1503906,0.3496094,1.5507813,0.8496094c1,1.1660156,1.6328125,2.4667969,1.8984375,3.9003906  c0.234375-0.0332031,0.4667969-0.0683594,0.7011719-0.1015625c0.6660156-0.0664063,1.25,0.1171875,1.75,0.5507813  c0.4667969,0.4003906,0.7324219,0.9335938,0.7988281,1.5996094c0.0664063,0.6679688-0.1152344,1.25-0.5488281,1.75  c-0.4003906,0.4667969-0.9335938,0.734375-1.5996094,0.8007813c-0.7675781,0.0664063-1.4667969,0.3164063-2.1015625,0.75h-0.0488281  L61.625,47.75v0.0507813c-1.1328125,0.6660156-2.1660156,1.7167969-3.0996094,3.1503906  c-0.3339844,0.4667969-0.7675781,0.765625-1.3007813,0.9003906C56.6914063,52.0175781,56.1757813,52,55.6757813,51.8007813  c-0.5664063-0.2324219-0.9667969-0.5996094-1.2011719-1.0996094c-0.4335938-0.8339844-0.9160156-1.5175781-1.4492188-2.0507813  c-0.0332031-0.0332031-0.0507813-0.0664063-0.0507813-0.0996094c-1.5664063-1.5996094-3.5488281-2.5175781-5.9492188-2.75  c-1.4667969-0.1992188-2.75,0.0996094-3.8496094,0.9003906C43.109375,46.734375,43.0585938,46.75,43.0253906,46.75  c-0.6328125,0.4003906-1.2167969,0.9511719-1.75,1.6503906c-0.0332031,0-0.0507813,0.0175781-0.0507813,0.0507813  c-0.8652344,0.9667969-1.5488281,2-2.0488281,3.0996094L39.125,51.6015625c-0.2324219,0.5-0.4160156,0.9824219-0.5488281,1.4492188  c-0.3007813,0.8671875-0.484375,1.6992188-0.5507813,2.5c0,0.0332031,0,0.0664063,0,0.0996094  c-0.0996094,1.2011719-0.1503906,2.2832031-0.1503906,3.25v0.0507813c-0.0332031,2.9003906,0.3671875,4.75,1.2011719,5.5488281  v0.0507813c0.5664063,0.3339844,1.3320313,0.6328125,2.2988281,0.9003906h-0.0488281  c0.6992188,0.1660156,1.7324219,0.5820313,3.0996094,1.25c0.2988281,0.1660156,0.5820313,0.4003906,0.8496094,0.6992188  c0.4003906,0.5332031,0.7324219,0.9667969,1,1.3007813c0.0664063,0.0996094,0.1171875,0.1835938,0.1503906,0.25  c0.5,0.7988281,1.015625,1.4160156,1.5488281,1.8496094l0.0507813,0.0507813c1.3671875,0.7988281,4.3007813,0.2988281,8.8007813-1.5  h-0.0507813c2.5-1.0332031,4.5332031-2.75,6.0996094-5.1503906c1.3671875-2.0996094,1.6328125-4.2167969,0.8007813-6.3496094  c-0.7011719-1.7011719-1.6679688-3.0332031-2.9003906-4c-0.5664063-0.4003906-0.8671875-0.9179688-0.9003906-1.5507813  c-0.0996094-0.6660156,0.0507813-1.25,0.4511719-1.75c0.3652344-0.5332031,0.8828125-0.8339844,1.5488281-0.9003906  c0.6328125-0.0996094,1.2167969,0.0664063,1.75,0.5c1.9335938,1.4335938,3.4160156,3.4179688,4.4511719,5.9511719h-0.0507813  c1.5,3.5332031,1.0996094,7.0820313-1.1992188,10.6484375v0.0507813c-2.1347656,3.2324219-4.8847656,5.5507813-8.25,6.9492188  c-6.8671875,2.7011719-11.4003906,2.9335938-13.6015625,0.7011719l0.0507813,0.0996094  c-0.9003906-0.7324219-1.7675781-1.7675781-2.5996094-3.0996094C42.2578125,71.25,42.0761719,71.0175781,41.875,70.75  c-0.7324219-0.3652344-1.2988281-0.5996094-1.6992188-0.6992188L40.125,70c-1.5-0.3984375-2.7167969-0.9160156-3.6503906-1.5488281  C34.2089844,67.25,33.0917969,64.0683594,33.125,58.9003906c0-1.1328125,0.0664063-2.3671875,0.2011719-3.6992188  c0.0996094-1.2011719,0.3496094-2.4179688,0.75-3.6503906c0.2324219-0.6660156,0.5-1.3339844,0.7988281-2  c0.6660156-1.4667969,1.5839844-2.8671875,2.75-4.1992188v0.0488281c0.8339844-1.0664063,1.7832031-1.9335938,2.8496094-2.5996094  c2.0664063-1.4003906,4.4003906-1.9667969,7-1.6992188h0.0507813C51.125,41.4667969,54.0761719,42.8671875,56.375,45.3007813  c0.0332031,0,0.0507813,0.0175781,0.0507813,0.0507813c0.0664063,0.0996094,0.1503906,0.2167969,0.25,0.3496094  c0.4667969-0.5,0.9667969-0.9511719,1.5-1.3496094c0.0332031-1.1015625-0.3007813-2.0683594-1-2.9003906  c-0.4335938-0.5332031-0.5996094-1.1171875-0.5-1.75c0.0664063-0.6679688,0.3496094-1.2011719,0.8496094-1.5996094  C58.0253906,37.6679688,58.609375,37.5,59.2753906,37.6015625z M27.6757813,26.8515625  c-2.734375,0-5.1347656-0.6347656-7.2011719-1.9003906v58C20.5761719,84.1835938,21.2089844,85.25,22.375,86.1503906  l-0.0488281-0.0488281c1.5,1.0996094,3.2832031,1.6484375,5.3496094,1.6484375h51.7988281V26.8515625H27.6757813z   M54.875,18.6015625C54.4082031,19.0332031,53.8417969,19.25,53.1757813,19.25H52.125  c-0.6660156,0-1.2167969-0.2167969-1.6503906-0.6484375c-0.4667969-0.5-0.6992188-1.0683594-0.6992188-1.7011719  c0-0.6660156,0.2324219-1.2167969,0.6992188-1.6503906c0.4335938-0.5,0.984375-0.75,1.6503906-0.75h1.0507813  c0.6660156,0,1.2324219,0.25,1.6992188,0.75c0.4667969,0.4335938,0.7011719,0.984375,0.7011719,1.6503906  C55.5761719,17.5332031,55.3417969,18.1015625,54.875,18.6015625z M73.6757813,14.5  c0.0332031-0.765625,0.1660156-1.5332031,0.4003906-2.2988281H27.6757813c-2.0664063,0-3.8496094,0.5488281-5.3496094,1.6503906  L22.375,13.8007813c-1.1660156,0.9335938-1.7988281,2-1.9003906,3.1992188v0.3007813  C20.5761719,18.5332031,21.2089844,19.6015625,22.375,20.5l-0.0488281-0.0488281  c1.5,1.0996094,3.2832031,1.6503906,5.3496094,1.6503906h48.5996094C75.5410156,21.1679688,74.9921875,20.2167969,74.625,19.25  H60.1757813c-0.6679688,0-1.2167969-0.2167969-1.6503906-0.6484375c-0.4667969-0.5-0.6992188-1.0683594-0.6992188-1.7011719  c0-0.6660156,0.2324219-1.2167969,0.6992188-1.6503906c0.4335938-0.5,0.9824219-0.75,1.6503906-0.75H73.6757813z M77.6757813,7.5  c0.5664063,0,1.0996094,0.2011719,1.5996094,0.6015625C79.7089844,8.4667969,79.9746094,8.9335938,80.0761719,9.5  c0.0664063,0.5683594-0.0683594,1.1015625-0.4003906,1.6015625C78.5761719,12.8007813,78.2246094,14.5175781,78.625,16.25v0.0507813  c0,0.0332031,0,0.0664063,0,0.0996094S78.6425781,16.4667969,78.6757813,16.5c0.5664063,2,2.0488281,3.984375,4.4492188,5.9511719  c0.1328125,0.0996094,0.2832031,0.2324219,0.4511719,0.4003906c0.4316406,0.4316406,0.6484375,0.9824219,0.6484375,1.6484375  v65.6015625c0,0.6660156-0.2167969,1.2324219-0.6484375,1.6992188C83.0761719,92.2675781,82.5078125,92.5,81.875,92.5H27.6757813  c-3.2011719,0-5.9335938-0.8652344-8.2011719-2.5996094c0-0.0332031-0.015625-0.0488281-0.0488281-0.0488281  c-2.4003906-1.9335938-3.6171875-4.1835938-3.6503906-6.75c0-0.0332031,0-0.0683594,0-0.1015625V17.4003906  c0-0.0332031,0-0.0664063,0-0.0996094v-0.3496094c0.0332031-2.6328125,1.25-4.9003906,3.6503906-6.8007813  c0.0332031,0,0.0488281-0.015625,0.0488281-0.0488281c2.2675781-1.734375,5-2.6015625,8.2011719-2.6015625H77.6757813z"></path></svg>