<svg height='100px' width='100px'  fill="#000000" xmlns="http://www.w3.org/2000/svg" viewBox="0 0 62 66" x="0px" y="0px"><path fill="#000000" fill-rule="evenodd" d="M208.025138,896.996019 C208.206297,896.997627 208.388338,897.048433 208.549663,897.157231 C208.652735,897.222662 208.744639,897.308413 208.818393,897.414304 C208.837105,897.439642 209.916794,899.05993 211.668093,901.699364 L240.83205,945.4453 C241.156595,945.932116 240.98779,946.524702 240.578269,946.81801 L220.624695,962.780869 C220.403782,962.9576 220.14213,963.022227 219.894002,962.994888 L192.95987,960.999767 C192.64346,960.988881 192.329629,960.831207 192.139073,960.508729 L179.148499,938.52468 C178.951778,938.203716 178.935721,937.776605 179.180768,937.426538 L207.109287,897.528653 C207.13595,897.478804 207.166835,897.431876 207.201322,897.388123 C207.276514,897.287081 207.368147,897.205908 207.469824,897.144439 C207.641965,897.033783 207.835279,896.988016 208.025138,896.996019 Z M181.908005,939.26325 L192.607443,957.36999 L196.516852,941.211097 L181.908005,939.26325 Z M215.560752,943.750283 L198.510249,941.476883 L194.249064,959.089784 L218.777582,960.906711 L215.560752,943.750283 Z M217.64778,944.028554 L220.675921,960.178638 L237.546992,946.681782 L217.64778,944.028554 Z M205.783031,902.910893 L181.762363,937.226132 L196.989751,939.25645 L205.783031,902.910893 Z M215.172733,941.680848 L207.876018,902.765038 L198.983148,939.522237 L215.172733,941.680848 Z M209.885839,902.631534 L217.259761,941.959118 L237.942713,944.716845 L209.885839,902.631534 Z" transform="translate(-179 -897)"></path></svg>