<svg height='100px' width='100px'  fill="#000000" xmlns="http://www.w3.org/2000/svg" xmlns:xlink="http://www.w3.org/1999/xlink" version="1.1" x="0px" y="0px" viewBox="0 0 32 32" enable-background="new 0 0 32 32" xml:space="preserve"><g display="none"><rect x="-90" y="-93.339" display="inline" fill="#000000" width="404.667" height="211.333"></rect></g><g><g><path d="M11.675,13.219c0.39,0.22,0.847,0.33,1.37,0.33c0.413,0,0.82-0.078,1.223-0.234s0.709-0.337,0.921-0.542v-1.996h-2.181    v0.845h1.158v0.635c-0.152,0.119-0.335,0.22-0.549,0.303c-0.213,0.083-0.425,0.125-0.637,0.125c-0.428,0-0.775-0.148-1.039-0.446    c-0.264-0.297-0.396-0.743-0.396-1.338c0-0.552,0.131-0.968,0.391-1.247c0.262-0.281,0.613-0.421,1.055-0.421    c0.292,0,0.535,0.071,0.73,0.214s0.327,0.336,0.398,0.582l1.004-0.188c-0.1-0.46-0.324-0.821-0.674-1.082    c-0.351-0.261-0.836-0.391-1.459-0.391c-0.479,0-0.878,0.083-1.199,0.249c-0.422,0.217-0.742,0.527-0.961,0.933    c-0.219,0.406-0.328,0.87-0.328,1.392c0,0.48,0.099,0.926,0.295,1.335C10.992,12.685,11.285,13,11.675,13.219z"></path><rect x="16.091" y="8.453" width="1.012" height="5.011"></rect><polygon points="19.085,11.335 21.178,11.335 21.178,10.487 19.085,10.487 19.085,9.3 21.508,9.3 21.508,8.453 18.073,8.453     18.073,13.464 19.085,13.464   "></polygon><path d="M28.5,4.962L23.538,0H3.5v32h25V4.962z M27.5,31h-23V1h18.624L27.5,5.376V31z"></path><rect x="8.507" y="24.042" width="14.986" height="1"></rect><rect x="8.507" y="20.5" width="14.986" height="1"></rect></g></g><g display="none"><g display="inline"><g><path d="M23.538,0H3.5v32h25V4.962L23.538,0z M18.073,7.759h3.435v0.848h-2.423v1.187h2.093v0.848h-2.093v2.129h-1.012V7.759z      M16.091,7.759h1.012v5.011h-1.012V7.759z M10.83,8.856c0.219-0.405,0.539-0.716,0.961-0.933     c0.321-0.166,0.721-0.249,1.199-0.249c0.623,0,1.108,0.13,1.459,0.391c0.35,0.261,0.574,0.622,0.674,1.082l-1.004,0.188     c-0.071-0.246-0.203-0.439-0.398-0.582s-0.438-0.214-0.73-0.214c-0.441,0-0.793,0.14-1.055,0.421     c-0.26,0.279-0.391,0.695-0.391,1.247c0,0.595,0.133,1.041,0.396,1.338c0.264,0.298,0.611,0.446,1.039,0.446     c0.212,0,0.424-0.042,0.637-0.125c0.214-0.083,0.396-0.184,0.549-0.303v-0.635h-1.158v-0.845h2.181v1.996     c-0.212,0.205-0.519,0.386-0.921,0.542s-0.81,0.234-1.223,0.234c-0.523,0-0.98-0.11-1.37-0.33s-0.683-0.534-0.878-0.943     c-0.196-0.409-0.295-0.854-0.295-1.335C10.502,9.726,10.611,9.262,10.83,8.856z M23.493,25.041H8.507v-1h14.986V25.041z      M23.493,21.5H8.507v-1h14.986V21.5z"></path></g></g></g><g display="none"><g display="inline"><text transform="matrix(1 0 0 1 10.1675 13.4639)" stroke="#000000" stroke-width="0.25" stroke-miterlimit="10" font-family="'Arial-BoldMT'" font-size="7px">GIF</text></g><g display="inline"><g><path d="M22.71,2l3.79,3.79V30h-21V2H22.71 M23.538,0H3.5v32h25V4.962L23.538,0L23.538,0z"></path></g><g><g><g><line fill="none" stroke="#000000" stroke-width="2" stroke-miterlimit="10" x1="8.507" y1="24.542" x2="23.493" y2="24.542"></line></g></g><g><g><line fill="none" stroke="#000000" stroke-width="2" stroke-miterlimit="10" x1="8.507" y1="21" x2="23.493" y2="21"></line></g></g></g></g></g><g display="none"><g display="inline"><text transform="matrix(1 0 0 1 10.1675 13.4639)" font-family="'Arial-BoldMT'" font-size="7px">GIF</text></g><g display="inline"><g><path fill="#000000" d="M23.331,0.5L28,5.169V31.5H4v-31H23.331 M23.538,0H3.5v32h25V4.962L23.538,0L23.538,0z"></path></g><g><g><g><line fill="none" stroke="#000000" stroke-width="0.5" stroke-miterlimit="10" x1="8.507" y1="24.542" x2="23.493" y2="24.542"></line></g></g><g><g><line fill="none" stroke="#000000" stroke-width="0.5" stroke-miterlimit="10" x1="8.507" y1="21" x2="23.493" y2="21"></line></g></g></g></g></g></svg>