<svg height='100px' width='100px'  fill="#000000" xmlns="http://www.w3.org/2000/svg" xmlns:xlink="http://www.w3.org/1999/xlink" version="1.1" x="0px" y="0px" viewBox="0 0 100 100" enable-background="new 0 0 100 100" xml:space="preserve"><path fill-rule="evenodd" clip-rule="evenodd" d="M28.333,36.833c3.374,12.116,5.522,16.385,9.445,18.604  c-0.221-1.148-0.395-2.157-0.613-3.158c-1.145-5.266-1.991-10.567-1.813-15.979c0.138-4.187,0.839-8.266,2.615-12.103  c3.248-7.022,8.952-11.039,16.362-13.35c0,0.748,0.015,1.331-0.003,1.913c-0.179,5.889,0.023,11.751,1.288,17.532  c1.139,5.21,3.076,10.059,6.592,14.167c0.359,0.42,0.745,0.82,1.131,1.216c0.064,0.066,0.202,0.061,0.43,0.122  c-0.021-0.39-0.033-0.744-0.062-1.096c-0.263-3.286-0.192-6.547,0.938-9.689c1.43-3.976,4.194-6.528,8.406-7.725  c0.178,0.901,0.355,1.693,0.49,2.493c0.513,3.032,1.625,5.833,2.95,8.605c4.45,9.304,5.484,18.917,1.721,28.676  c-4.724,12.244-16.961,19.974-30.146,19.315c-14.67-0.733-26.909-12.091-28.795-26.647c-0.673-5.192-0.03-10.167,2.111-14.936  c1.149-2.558,2.709-4.836,4.93-6.599C26.902,37.725,27.566,37.345,28.333,36.833z M26.402,45.938  c-0.288,0.319-0.427,0.419-0.491,0.555c-0.213,0.45-0.42,0.904-0.592,1.371c-1.574,4.256-1.978,8.57-1.013,13.06  c3.916,18.203,22.781,25.007,36.791,18.119c10.195-5.011,17.471-19.19,13.316-31.519c-1.2-3.561-2.744-7.007-4.143-10.501  c-0.124-0.31-0.336-0.583-0.649-1.116c-1.87,5.718-1.061,11.094,0.244,16.528c-0.419,0.025-0.745,0.072-1.069,0.058  c-0.497-0.022-0.997-0.061-1.488-0.142c-3.758-0.614-6.858-2.417-9.394-5.232c-2.028-2.253-3.491-4.852-4.618-7.645  c-2.033-5.035-2.977-10.308-3.359-15.697c-0.131-1.85-0.219-3.704-0.338-5.757c-0.52,0.324-0.85,0.502-1.15,0.721  c-3.539,2.563-5.885,5.973-7.146,10.14c-1.409,4.656-1.365,9.408-0.849,14.175c0.545,5.025,1.761,9.919,3.011,14.804  c0.282,1.104,0.534,2.217,0.795,3.302c-0.254,0.101-0.356,0.179-0.456,0.177c-4.695-0.099-8.791-1.61-12.022-5.133  c-1.825-1.989-3.094-4.315-4.081-6.806C27.276,48.326,26.89,47.24,26.402,45.938z"></path></svg>