<svg height='100px' width='100px'  fill="#000000" xmlns="http://www.w3.org/2000/svg" data-name="Layer 1" viewBox="0 0 100 100" x="0px" y="0px"><title>Telecommunication Icon Set Outline</title><path d="M44.34,45.65,27.54,86.06a1.52,1.52,0,0,0,1.4,2.1H71.06a1.5,1.5,0,0,0,1.26-.67s0,0,0,0a1.46,1.46,0,0,0,.18-.45.5.5,0,0,0,0-.13,1.35,1.35,0,0,0,0-.49l0-.1a1.8,1.8,0,0,0-.06-.22L55.65,45.65a9.65,9.65,0,1,0-11.31,0Zm3.94,1.66.33.06a8.84,8.84,0,0,0,2.78,0c.11,0,.21,0,.32-.06a8.68,8.68,0,0,0,1-.23l.22,0,1.93,4.63-4.6,3.22-5-3.52L47.06,47l.23,0A8.84,8.84,0,0,0,48.28,47.31ZM58.64,60.74l-5.72-4,3.14-2.2ZM44.06,54.23l3.57,2.5-6.5,4.54Zm6.21,4.35,9.06,6.34-9.06,6-9.06-6ZM38.77,67l8.77,5.84L32.05,83.11Zm11.5,7.66L66,85.12H34.5ZM53,72.79l8.33-5.56,6.4,15.38ZM50,31.21a6.62,6.62,0,0,1,3,12.5,6.73,6.73,0,0,1-4.63.54,5.85,5.85,0,0,1-1.48-.55A6.62,6.62,0,0,1,50,31.21Z"></path><path d="M63,47.4a13.52,13.52,0,0,0,0-19.14,1.52,1.52,0,1,1,2.15-2.15,16.59,16.59,0,0,1,0,23.44,1.51,1.51,0,0,1-1.08.44A1.49,1.49,0,0,1,63,49.55,1.53,1.53,0,0,1,63,47.4Z"></path><path d="M34.86,49.55a16.59,16.59,0,0,1,0-23.44A1.52,1.52,0,1,1,37,28.26,13.52,13.52,0,0,0,37,47.4a1.53,1.53,0,0,1,0,2.15,1.49,1.49,0,0,1-1.07.44A1.51,1.51,0,0,1,34.86,49.55Z"></path><path d="M72.32,54.47a23.53,23.53,0,0,0,0-33.27,1.52,1.52,0,1,1,2.14-2.15,26.53,26.53,0,0,1,0,37.56,1.5,1.5,0,0,1-2.14,0A1.51,1.51,0,0,1,72.32,54.47Z"></path><path d="M17.75,37.83a26.39,26.39,0,0,1,7.79-18.78,1.52,1.52,0,0,1,2.14,2.15,23.53,23.53,0,0,0,0,33.27,1.51,1.51,0,0,1,0,2.14,1.5,1.5,0,0,1-2.14,0A26.39,26.39,0,0,1,17.75,37.83Z"></path><path d="M81.26,14.43a1.52,1.52,0,0,1,2.15-2.15,36.12,36.12,0,0,1,0,51.1,1.52,1.52,0,0,1-2.15-2.14,33.06,33.06,0,0,0,0-46.81Z"></path><path d="M16.59,63.38a36.12,36.12,0,0,1,0-51.1,1.52,1.52,0,0,1,2.15,2.15,33.06,33.06,0,0,0,0,46.81,1.52,1.52,0,1,1-2.15,2.14Z"></path></svg>