<svg height='100px' width='100px'  fill="#000000" xmlns="http://www.w3.org/2000/svg" xmlns:xlink="http://www.w3.org/1999/xlink" version="1.1" x="0px" y="0px" viewBox="0 0 32 32" enable-background="new 0 0 32 32" xml:space="preserve"><g display="none"><rect x="-370" y="-93.333" display="inline" fill="#000000" width="404.667" height="211.333"></rect></g><g><g><path d="M9.777,13.205c0.272-0.088,0.489-0.21,0.649-0.366c0.213-0.206,0.376-0.476,0.491-0.809    c0.094-0.273,0.141-0.599,0.141-0.976c0-0.429-0.051-0.79-0.15-1.083c-0.1-0.292-0.246-0.54-0.438-0.742    c-0.191-0.201-0.422-0.342-0.69-0.422C9.58,8.75,9.289,8.721,8.908,8.721h-1.69v4.581h1.74C9.3,13.302,9.573,13.27,9.777,13.205z     M8.143,12.53V9.495h0.416c0.377,0,0.63,0.015,0.759,0.044C9.49,9.577,9.633,9.648,9.746,9.755    c0.112,0.106,0.199,0.254,0.262,0.443c0.062,0.19,0.094,0.462,0.094,0.816c0,0.354-0.031,0.634-0.094,0.839    s-0.143,0.353-0.242,0.442c-0.099,0.089-0.223,0.152-0.373,0.19c-0.114,0.029-0.301,0.044-0.56,0.044H8.143z"></path><path d="M13.884,13.38c0.673,0,1.21-0.209,1.612-0.627c0.402-0.417,0.603-0.996,0.603-1.735c0-0.746-0.202-1.328-0.607-1.747    s-0.945-0.628-1.62-0.628c-0.373,0-0.702,0.061-0.987,0.181c-0.215,0.09-0.412,0.228-0.593,0.413    c-0.18,0.186-0.322,0.395-0.427,0.628c-0.14,0.316-0.209,0.708-0.209,1.175c0,0.729,0.201,1.302,0.604,1.718    C12.66,13.172,13.202,13.38,13.884,13.38z M12.958,9.825c0.233-0.262,0.541-0.393,0.922-0.393c0.382,0,0.688,0.13,0.918,0.388    c0.229,0.259,0.345,0.65,0.345,1.175c0,0.531-0.118,0.93-0.354,1.195s-0.539,0.398-0.908,0.398c-0.368,0-0.673-0.134-0.912-0.401    s-0.359-0.661-0.359-1.18C12.608,10.481,12.725,10.087,12.958,9.825z"></path><path d="M18.745,13.38c0.492,0,0.898-0.121,1.217-0.364c0.32-0.242,0.549-0.614,0.688-1.114l-0.898-0.284    c-0.076,0.336-0.203,0.581-0.381,0.737c-0.176,0.156-0.389,0.234-0.635,0.234c-0.332,0-0.604-0.122-0.812-0.368    s-0.312-0.658-0.312-1.237c0-0.546,0.105-0.941,0.317-1.185c0.211-0.244,0.486-0.366,0.826-0.366c0.246,0,0.455,0.069,0.627,0.207    c0.172,0.137,0.285,0.324,0.338,0.562l0.916-0.219c-0.104-0.367-0.26-0.648-0.469-0.844c-0.35-0.332-0.805-0.497-1.365-0.497    c-0.642,0-1.159,0.211-1.553,0.633s-0.591,1.014-0.591,1.776c0,0.721,0.196,1.289,0.588,1.705    C17.638,13.172,18.138,13.38,18.745,13.38z"></path><polygon points="22.205,8.721 21.123,8.721 22.542,10.911 20.977,13.302 22.086,13.302 23.104,11.718 24.12,13.302 25.236,13.302     23.67,10.945 25.096,8.721 24.023,8.721 23.123,10.192   "></polygon><path d="M3.5,0v32h25V4.962L23.538,0H3.5z M27.5,31h-23V1h18.624L27.5,5.376V31z"></path><rect x="8.507" y="24.042" width="14.986" height="1"></rect><rect x="8.507" y="20.5" width="14.986" height="1"></rect></g></g><g display="none"><g display="inline"><g><g><path d="M9.766,11.602c0.1-0.09,0.18-0.237,0.242-0.442s0.094-0.485,0.094-0.839c0-0.354-0.031-0.626-0.094-0.816      C9.945,9.315,9.858,9.167,9.746,9.061C9.633,8.954,9.49,8.883,9.317,8.845C9.188,8.816,8.936,8.801,8.559,8.801H8.143v3.035      h0.69c0.259,0,0.445-0.015,0.56-0.044C9.543,11.754,9.667,11.691,9.766,11.602z"></path><path d="M23.538,0H3.5v32h25V4.962L23.538,0z M17.249,8.581c0.394-0.422,0.911-0.633,1.553-0.633      c0.561,0,1.016,0.165,1.365,0.497c0.209,0.195,0.365,0.477,0.469,0.844L19.72,9.508c-0.053-0.238-0.166-0.426-0.338-0.562      c-0.172-0.138-0.381-0.207-0.627-0.207c-0.34,0-0.615,0.122-0.826,0.366c-0.212,0.243-0.317,0.639-0.317,1.185      c0,0.579,0.104,0.991,0.312,1.237s0.479,0.368,0.812,0.368c0.246,0,0.459-0.078,0.635-0.234      c0.178-0.156,0.305-0.401,0.381-0.737l0.898,0.284c-0.139,0.5-0.367,0.872-0.688,1.114c-0.318,0.243-0.725,0.364-1.217,0.364      c-0.607,0-1.107-0.208-1.499-0.623c-0.392-0.416-0.588-0.984-0.588-1.705C16.658,9.595,16.855,9.003,17.249,8.581z M11.864,9.17      c0.104-0.233,0.247-0.442,0.427-0.628c0.181-0.186,0.378-0.323,0.593-0.413c0.285-0.12,0.614-0.181,0.987-0.181      c0.675,0,1.215,0.209,1.62,0.628s0.607,1.001,0.607,1.747c0,0.739-0.2,1.318-0.603,1.735c-0.402,0.418-0.939,0.627-1.612,0.627      c-0.682,0-1.224-0.208-1.625-0.623c-0.402-0.416-0.604-0.988-0.604-1.718C11.655,9.878,11.725,9.487,11.864,9.17z M7.218,8.027      h1.69c0.381,0,0.672,0.029,0.872,0.087c0.269,0.08,0.499,0.221,0.69,0.422c0.191,0.202,0.338,0.45,0.438,0.742      c0.1,0.293,0.15,0.654,0.15,1.083c0,0.377-0.047,0.702-0.141,0.976c-0.115,0.333-0.278,0.603-0.491,0.809      c-0.16,0.156-0.377,0.278-0.649,0.366c-0.204,0.064-0.478,0.097-0.819,0.097h-1.74V8.027z M23.493,25.041H8.507v-1h14.986      V25.041z M23.493,21.5H8.507v-1h14.986V21.5z M24.12,12.608l-1.016-1.584l-1.019,1.584h-1.109l1.565-2.391l-1.419-2.19h1.082      l0.918,1.472l0.9-1.472h1.072l-1.426,2.225l1.566,2.356H24.12z"></path><path d="M13.88,11.895c0.369,0,0.672-0.133,0.908-0.398s0.354-0.664,0.354-1.195c0-0.524-0.115-0.916-0.345-1.175      c-0.23-0.258-0.536-0.388-0.918-0.388c-0.381,0-0.688,0.131-0.922,0.393s-0.35,0.656-0.35,1.183c0,0.519,0.12,0.912,0.359,1.18      S13.512,11.895,13.88,11.895z"></path></g></g></g></g><g display="none"><g display="inline"><text transform="matrix(1 0 0 1 7.3327 13.3013)" stroke="#000000" stroke-width="0.25" stroke-miterlimit="10" font-family="'Arial-BoldMT'" font-size="6px">DOCX</text></g><g display="inline"><g><path d="M22.71,2l3.79,3.79V30h-21V2H22.71 M23.538,0H3.5v32h25V4.962L23.538,0L23.538,0z"></path></g><g><g><g><line fill="none" stroke="#000000" stroke-width="2" stroke-miterlimit="10" x1="8.507" y1="24.542" x2="23.493" y2="24.542"></line></g></g><g><g><line fill="none" stroke="#000000" stroke-width="2" stroke-miterlimit="10" x1="8.507" y1="21" x2="23.493" y2="21"></line></g></g></g></g></g><g display="none"><g display="inline"><text transform="matrix(1 0 0 1 6.755 13.3013)" font-family="'Arial-BoldMT'" font-size="6.4px">DOCX</text></g><g display="inline"><g><path fill="#000000" d="M23.331,0.5L28,5.169V31.5H4v-31H23.331 M23.538,0H3.5v32h25V4.962L23.538,0L23.538,0z"></path></g><g><g><g><line fill="none" stroke="#000000" stroke-width="0.5" stroke-miterlimit="10" x1="8.507" y1="24.542" x2="23.493" y2="24.542"></line></g></g><g><g><line fill="none" stroke="#000000" stroke-width="0.5" stroke-miterlimit="10" x1="8.507" y1="21" x2="23.493" y2="21"></line></g></g></g></g></g></svg>