<?xml version="1.0" encoding="utf-8"?>
<!-- Generator: Adobe Illustrator 26.0.1, SVG Export Plug-In . SVG Version: 6.00 Build 0)  -->
<svg version="1.1" id="Layer_1" xmlns="http://www.w3.org/2000/svg" xmlns:xlink="http://www.w3.org/1999/xlink" x="0px" y="0px"
	 viewBox="0 0 450.6 450.6" style="enable-background:new 0 0 450.6 450.6;" xml:space="preserve">
<g>
	<path fill="#000000" d="M256.6,355.2c2.8,6.2,8.4,9.5,14.6,9.5c2.2,0,4.5-0.6,6.7-1.7c8.4-3.9,11.8-13.4,7.8-21.8c0,0-30.8-70.6-36.4-96.3
		c-2.2-9-3.4-33-3.9-44.2c0-3.9,2.2-7.3,5.6-8.4l68.9-20.7c8.4-2.2,13.4-11.8,11.2-20.2c-2.2-8.4-11.8-13.4-20.2-11.2
		c0,0-63.8,20.7-86.8,20.7c-22.4,0-85.7-20.2-85.7-20.2c-8.4-2.2-17.9,1.7-20.7,10.1c-2.8,9,2.2,18.5,11.2,20.7l68.9,20.7
		c3.4,1.1,6.2,4.5,5.6,8.4c-0.6,11.2-1.7,35.3-3.9,44.2c-5.6,25.8-36.4,96.3-36.4,96.3c-3.9,8.4,0,17.9,7.8,21.8
		c2.2,1.1,4.5,1.7,6.7,1.7c6.2,0,12.3-3.4,14.6-9.5l33-67.2L256.6,355.2z"/>
	<path fill="#000000" d="M256.6,113.3c0,17.3-14,31.4-31.4,31.4s-31.4-14-31.4-31.4s14-31.4,31.4-31.4S256.6,96,256.6,113.3"/>
	<path fill="#000000" d="M446.5,225.3c0-122.1-99.1-221.2-221.2-221.2S4.1,103.2,4.1,225.3s99.1,221.2,221.2,221.2S446.5,347.4,446.5,225.3z
		 M41,225.3C41,123.4,123.9,41,225.3,41s184.2,82.3,184.2,184.2s-82.3,184.2-184.2,184.2S41,327.2,41,225.3L41,225.3z"/>
</g>
</svg>
