<svg height='100px' width='100px'  xmlns="http://www.w3.org/2000/svg" viewBox="0 0 24 24" fill="none" x="0px" y="0px"><path d="M11.5 5.5C8.73858 5.5 6.5 7.73858 6.5 10.5C6.5 10.7095 6.50246 10.8935 6.52049 11.0674C6.54251 11.1598 6.53851 11.2595 6.50333 11.3553C6.40815 11.6145 6.12086 11.7475 5.86164 11.6523C5.59369 11.5539 5.3037 11.5 5 11.5C3.61929 11.5 2.5 12.6193 2.5 14C2.5 15.3807 3.61929 16.5 5 16.5H6.03396C6.3101 16.5 6.53396 16.7239 6.53396 17C6.53396 17.2761 6.3101 17.5 6.03396 17.5H5C3.067 17.5 1.5 15.933 1.5 14C1.5 12.067 3.067 10.5 5 10.5C5.16961 10.5 5.33657 10.5121 5.50002 10.5355L5.5 10.5C5.5 7.18629 8.18629 4.5 11.5 4.5C14.1404 4.5 16.3815 6.20519 17.184 8.57389C17.4489 8.52533 17.7217 8.5 18 8.5C20.4853 8.5 22.5 10.5147 22.5 13C22.5 15.4853 20.4853 17.5 18 17.5H17.5C17.2239 17.5 17 17.2761 17 17C17 16.7239 17.2239 16.5 17.5 16.5H18C19.933 16.5 21.5 14.933 21.5 13C21.5 11.067 19.933 9.5 18 9.5C17.6452 9.5 17.3037 9.55262 16.9822 9.65015C16.718 9.73031 16.4388 9.58108 16.3586 9.31683C16.3525 9.29672 16.3477 9.27652 16.3442 9.25632C15.7915 7.09633 13.8316 5.5 11.5 5.5Z" fill="black"></path><path d="M8.5 16H9.5V17H8.5V16Z" fill="black"></path><path d="M11.5 15V16H12.5V15H11.5Z" fill="black"></path><path d="M11.5 17H12.5V18H11.5V17Z" fill="black"></path><path d="M11.5 19V20H12.5V19H11.5Z" fill="black"></path><path d="M11.5 22V21H12.5V22H11.5Z" fill="black"></path><path d="M8.5 18V19H9.5V18H8.5Z" fill="black"></path><path d="M8.5 21V20H9.5V21H8.5Z" fill="black"></path><path d="M15.5 16H14.5V17H15.5V16Z" fill="black"></path><path d="M14.5 19V18H15.5V19H14.5Z" fill="black"></path><path d="M14.5 20V21H15.5V20H14.5Z" fill="black"></path></svg>