<svg height='100px' width='100px'  fill="#000000" xmlns="http://www.w3.org/2000/svg" xmlns:xlink="http://www.w3.org/1999/xlink" version="1.1" x="0px" y="0px" viewBox="0 0 59.861 59.988" style="enable-background:new 0 0 59.861 59.988;" xml:space="preserve"><g><path d="M51.79,13.302c-0.256,0-0.512-0.098-0.707-0.293L46.84,8.767c-0.188-0.188-0.293-0.442-0.293-0.707s0.105-0.52,0.293-0.707   l4.95-4.95c0.375-0.375,1.039-0.375,1.414,0l4.243,4.243c0.391,0.391,0.391,1.023,0,1.414l-4.95,4.95   C52.302,13.204,52.046,13.302,51.79,13.302z M48.961,8.06l2.829,2.828l3.536-3.536l-2.829-2.829L48.961,8.06z"></path><path d="M31.284,35.222c-0.256,0-0.512-0.098-0.707-0.293l-5.657-5.657c-0.391-0.391-0.391-1.023,0-1.414L46.133,6.645   c0.375-0.375,1.039-0.375,1.414,0l5.657,5.657c0.391,0.391,0.391,1.023,0,1.414L31.991,34.929   C31.796,35.125,31.54,35.222,31.284,35.222z M27.042,28.565l4.243,4.243l19.799-19.799L46.84,8.766L27.042,28.565z"></path><path d="M27.042,39.465c-0.26,0-0.516-0.102-0.707-0.293l-5.657-5.657c-0.286-0.286-0.372-0.716-0.217-1.09   c0.155-0.374,0.52-0.617,0.924-0.617c1.667,0,3.243-1.576,3.243-3.243c0-0.404,0.244-0.769,0.617-0.924   c0.374-0.156,0.804-0.07,1.09,0.217l5.657,5.657c0.286,0.286,0.372,0.716,0.217,1.09c-0.155,0.374-0.52,0.617-0.924,0.617   c-1.667,0-3.243,1.576-3.243,3.243c0,0.404-0.244,0.769-0.617,0.924C27.3,39.44,27.17,39.465,27.042,39.465z M23.364,33.374   l3.112,3.112c0.554-1.238,1.59-2.274,2.829-2.829l-3.112-3.112C25.639,31.783,24.603,32.819,23.364,33.374z"></path><path d="M15.728,50.779L15.728,50.779c-0.265,0-0.52-0.105-0.707-0.293l-5.657-5.657c-0.391-0.391-0.391-1.023,0-1.414   l11.314-11.313c0.391-0.391,1.023-0.391,1.414,0l5.657,5.657c0.391,0.391,0.391,1.023,0,1.414L16.435,50.486   C16.247,50.673,15.993,50.779,15.728,50.779z M11.485,44.122l4.243,4.243l9.9-9.9l-4.243-4.243L11.485,44.122z"></path><path d="M10,55.231c-0.265,0-0.52-0.105-0.707-0.293L5.05,50.695c-0.387-0.387-0.391-1.012-0.01-1.404l5.021-5.159   c0.187-0.192,0.442-0.301,0.71-0.303c0.256,0.027,0.524,0.104,0.714,0.293l4.243,4.243c0.387,0.387,0.391,1.012,0.01,1.404   l-5.021,5.159c-0.187,0.192-0.442,0.301-0.71,0.303C10.004,55.231,10.002,55.231,10,55.231z M7.162,49.979l2.828,2.829l3.625-3.726   l-2.828-2.829L7.162,49.979z"></path><path d="M4.708,57.695c-0.26,0-0.516-0.101-0.708-0.293l-1.415-1.414c-0.297-0.297-0.377-0.748-0.2-1.129l2.465-5.293   c0.138-0.295,0.412-0.506,0.733-0.562c0.321-0.058,0.65,0.047,0.881,0.278l4.243,4.243c0.231,0.23,0.334,0.56,0.278,0.881   S10.718,55,10.422,55.138l-5.293,2.464C4.994,57.665,4.85,57.695,4.708,57.695z M4.495,55.069l0.425,0.425l3.363-1.566   l-2.222-2.222L4.495,55.069z"></path><path d="M1,59.988c-0.256,0-0.512-0.098-0.707-0.293c-0.391-0.391-0.391-1.023,0-1.414l3-3c0.391-0.391,1.023-0.391,1.414,0   s0.391,1.023,0,1.414l-3,3C1.512,59.891,1.256,59.988,1,59.988z"></path><path d="M40.477,26.03c-0.256,0-0.512-0.098-0.707-0.293l-5.657-5.657c-0.391-0.391-0.391-1.023,0-1.414l4.243-4.243   c0.391-0.391,1.023-0.391,1.414,0l5.657,5.657c0.391,0.391,0.391,1.023,0,1.414l-4.243,4.243   C40.988,25.932,40.732,26.03,40.477,26.03z M36.234,19.373l4.243,4.243l2.829-2.829l-4.243-4.243L36.234,19.373z"></path><path d="M56.033,7.645c-0.256,0-0.512-0.098-0.707-0.293l-2.828-2.828c-0.391-0.391-0.391-1.023,0-1.414l2.828-2.829   c0.375-0.375,1.039-0.375,1.414,0l2.829,2.829c0.188,0.188,0.293,0.442,0.293,0.707s-0.105,0.52-0.293,0.707L56.74,7.352   C56.544,7.547,56.289,7.645,56.033,7.645z M54.619,3.817l1.414,1.414l1.415-1.414l-1.415-1.415L54.619,3.817z"></path><path d="M53.205,18.959c-0.419,0-0.809-0.265-0.949-0.684l-1.415-4.243c-0.175-0.524,0.108-1.09,0.632-1.265   c0.525-0.174,1.091,0.109,1.265,0.632l1.415,4.243c0.175,0.524-0.108,1.09-0.632,1.265C53.416,18.943,53.309,18.959,53.205,18.959z   "></path><path d="M44.012,28.151c-0.256,0-0.512-0.098-0.707-0.293c-0.391-0.391-0.391-1.023,0-1.414l9.192-9.192   c0.391-0.391,1.023-0.391,1.414,0s0.391,1.023,0,1.414l-9.192,9.192C44.524,28.054,44.268,28.151,44.012,28.151z"></path></g></svg>