<svg height='100px' width='100px'  fill="#000000" xmlns="http://www.w3.org/2000/svg" xmlns:xlink="http://www.w3.org/1999/xlink" version="1.1" x="0px" y="0px" viewBox="0 0 32 32" enable-background="new 0 0 32 32" xml:space="preserve"><g display="none"><rect x="-12.021" y="-171.339" display="inline" fill="#000000" width="404.667" height="211.333"></rect></g><g><g><polygon points="14.764,12.657 11.914,12.657 14.658,9.276 14.658,8.49 10.991,8.49 10.991,9.338 13.325,9.338 10.694,12.589     10.694,13.501 14.764,13.501   "></polygon><rect x="15.373" y="8.49" width="1.012" height="5.011"></rect><path d="M18.36,11.61h0.66c0.458,0,0.808-0.023,1.049-0.071c0.178-0.039,0.353-0.118,0.525-0.237    c0.172-0.12,0.313-0.284,0.425-0.494c0.112-0.21,0.168-0.469,0.168-0.775c0-0.399-0.097-0.725-0.291-0.977    c-0.193-0.252-0.434-0.415-0.721-0.49c-0.188-0.05-0.588-0.075-1.203-0.075h-1.624v5.011h1.012V11.61z M18.36,9.338h0.489    c0.364,0,0.607,0.012,0.728,0.034c0.164,0.029,0.3,0.104,0.407,0.223c0.106,0.118,0.16,0.269,0.16,0.451    c0,0.147-0.038,0.277-0.114,0.389c-0.076,0.112-0.182,0.194-0.316,0.246c-0.134,0.053-0.4,0.079-0.8,0.079H18.36V9.338z"></path><path d="M3.5,0v32h25V4.962L23.538,0H3.5z M27.5,31h-23V1h18.624L27.5,5.376V31z"></path><rect x="8.507" y="24.042" width="14.986" height="1"></rect><rect x="8.507" y="20.5" width="14.986" height="1"></rect></g></g><g display="none"><g display="inline"><g><g><path d="M23.538,0H3.5v32h25V4.962L23.538,0z M17.348,7.796h1.624c0.615,0,1.016,0.025,1.203,0.075      c0.287,0.075,0.527,0.238,0.721,0.49c0.194,0.252,0.291,0.577,0.291,0.977c0,0.307-0.056,0.565-0.168,0.775      c-0.111,0.21-0.253,0.374-0.425,0.494c-0.173,0.119-0.348,0.198-0.525,0.237c-0.241,0.048-0.591,0.071-1.049,0.071h-0.66v1.891      h-1.012V7.796z M15.373,7.796h1.012v5.011h-1.012V7.796z M10.694,11.895l2.632-3.251h-2.334V7.796h3.667v0.786l-2.745,3.381      h2.851v0.844h-4.071V11.895z M23.493,25.041H8.507v-1h14.986V25.041z M23.493,21.5H8.507v-1h14.986V21.5z"></path><path d="M19.714,9.986c0.135-0.052,0.24-0.134,0.316-0.246c0.076-0.111,0.114-0.241,0.114-0.389c0-0.183-0.054-0.333-0.16-0.451      c-0.107-0.119-0.243-0.193-0.407-0.223c-0.12-0.022-0.363-0.034-0.728-0.034H18.36v1.422h0.554      C19.313,10.065,19.58,10.039,19.714,9.986z"></path></g></g></g></g><g display="none"><g display="inline"><text transform="matrix(1 0 0 1 10.6185 13.5007)" stroke="#000000" stroke-width="0.25" stroke-miterlimit="10" font-family="'Arial-BoldMT'" font-size="7px">ZIP</text></g><g display="inline"><g><path d="M22.71,2l3.79,3.79V30h-21V2H22.71 M23.538,0H3.5v32h25V4.962L23.538,0L23.538,0z"></path></g><g><g><g><line fill="none" stroke="#000000" stroke-width="2" stroke-miterlimit="10" x1="8.507" y1="24.542" x2="23.493" y2="24.542"></line></g></g><g><g><line fill="none" stroke="#000000" stroke-width="2" stroke-miterlimit="10" x1="8.507" y1="21" x2="23.493" y2="21"></line></g></g></g></g></g><g display="none"><g display="inline"><text transform="matrix(1 0 0 1 10.6185 13.5007)" font-family="'Arial-BoldMT'" font-size="7px">ZIP</text></g><g display="inline"><g><path fill="#000000" d="M23.331,0.5L28,5.169V31.5H4v-31H23.331 M23.538,0H3.5v32h25V4.962L23.538,0L23.538,0z"></path></g><g><g><g><line fill="none" stroke="#000000" stroke-width="0.5" stroke-miterlimit="10" x1="8.507" y1="24.542" x2="23.493" y2="24.542"></line></g></g><g><g><line fill="none" stroke="#000000" stroke-width="0.5" stroke-miterlimit="10" x1="8.507" y1="21" x2="23.493" y2="21"></line></g></g></g></g></g></svg>