<svg height='100px' width='100px'  fill="#000000" xmlns="http://www.w3.org/2000/svg" viewBox="0 0 66 66" x="0px" y="0px"><path fill="#000000" fill-rule="evenodd" d="M304.531659,565.887114 C303.525125,563.405174 303,560.7388 303,558 C303,546.40202 312.40202,537 324,537 C333.017975,537 340.923761,542.735312 343.832573,551.078854 C354.572407,552.007298 363,561.019464 363,572 C363,583.59798 353.59798,593 342,593 C340.067698,593 338.169769,592.738713 336.344439,592.2294 C332.753518,598.655241 325.884145,603 318,603 C306.40202,603 297,593.59798 297,582 C297,575.52772 299.928,569.739311 304.531659,565.887114 Z M342,591 C352.49341,591 361,582.49341 361,572 C361,561.50659 352.49341,553 342,553 C335.154542,553 328.961428,556.651894 325.591335,562.41404 C333.575437,565.50658 339,573.230065 339,582 C339,584.931506 338.398216,587.77846 337.251484,590.402061 C338.788526,590.79749 340.380173,591 342,591 Z M318,601 C328.49341,601 337,592.49341 337,582 C337,571.50659 328.49341,563 318,563 C307.50659,563 299,571.50659 299,582 C299,592.49341 307.50659,601 318,601 Z M324,539 C313.50659,539 305,547.50659 305,558 C305,560.295801 305.406995,562.53291 306.189683,564.633267 C309.636889,562.283896 313.721821,561 318,561 C319.932311,561 321.830249,561.261289 323.655588,561.770607 C327.276256,555.285737 334.092729,551.120005 341.670749,551.002551 C338.842367,543.854754 331.8916,539 324,539 Z" transform="translate(-297 -537)"></path></svg>