<svg height='100px' width='100px'  fill="#000000" xmlns="http://www.w3.org/2000/svg" xmlns:xlink="http://www.w3.org/1999/xlink" version="1.1" x="0px" y="0px" viewBox="0 0 100 100" enable-background="new 0 0 100 100" xml:space="preserve"><path d="M80.3,5.4c-0.9-0.2-1.8,0.2-2.3,1c-2.2,4.2-7.7,6.9-14.4,6.9c-6.6,0-12.3-2.7-14.8-6.9c-0.4-0.6-1-1-1.7-1s-1.4,0.4-1.7,1  c-2.5,4.3-8.2,6.9-14.8,6.9c-6.6,0-12.1-2.6-14.4-6.9c-0.4-0.8-1.4-1.2-2.2-1c-0.9,0.2-1.5,1-1.5,1.9v46.6c0,0,0,0.1,0,0.1  c0.9,14.6,22,37.2,34.7,37.2c13,0,33.7-22.2,34.7-37.2c0,0,0-0.1,0-0.1V7.3C81.8,6.4,81.2,5.6,80.3,5.4z M16.5,53.8V41.2l61.3-17.3  v14.2L16.7,55.4C16.6,54.8,16.5,54.3,16.5,53.8z M30.6,17.2c6.8,0,12.9-2.5,16.5-6.5c3.6,4.1,9.7,6.5,16.5,6.5  c5.6,0,10.6-1.6,14.1-4.5v7L16.5,37V12.7C20,15.6,25,17.2,30.6,17.2z M47.2,87.2c-9.2,0-24.8-15.6-29.4-27.9l60-16.9v11.5  C77,66.6,58.1,87.2,47.2,87.2z"></path></svg>