<svg height='100px' width='100px'  fill="#000000" xmlns="http://www.w3.org/2000/svg" xmlns:xlink="http://www.w3.org/1999/xlink" version="1.1" x="0px" y="0px" viewBox="0 0 100 100" enable-background="new 0 0 100 100" xml:space="preserve"><path d="M86.5,40h-36c-4.411,0-8.5,3.589-8.5,8v34c0,4.412,4.089,8,8.5,8h11l5.4,7.199C67.277,97.703,67.871,98,68.5,98  s1.223-0.297,1.6-0.801L75.5,90h11c4.412,0,7.5-3.588,7.5-8V48C94,43.589,90.912,40,86.5,40z M90,82c0,2.205-1.295,4-3.5,4h-12  c-0.629,0-1.223,0.297-1.6,0.801l-4.4,5.865l-4.4-5.865C63.723,86.297,63.129,86,62.5,86h-12c-2.206,0-4.5-1.795-4.5-4V48  c0-2.206,2.294-4,4.5-4h36c2.205,0,3.5,1.794,3.5,4V82z M29.609,18.336c-0.615-0.411-1.654-0.449-2.303-0.1  C26.656,18.585,26,19.263,26,20v24c0,0.737,0.656,1.415,1.307,1.764C27.602,45.922,28.052,46,28.375,46  c0.388,0,0.837-0.113,1.172-0.336l18.031-12c0.557-0.371,0.906-0.995,0.906-1.664s-0.326-1.293-0.883-1.664L29.609,18.336z   M30,40.263V23.737L42.395,32L30,40.263z M34.5,58c-14.337,0-26-11.663-26-26s11.663-26,26-26s26,11.663,26,26c0,1.104,0.895,2,2,2  s2-0.896,2-2c0-16.542-13.458-30-30-30s-30,13.458-30,30s13.458,30,30,30c1.104,0,2-0.895,2-2S35.604,58,34.5,58z M68.5,50  c-4.529,0-9.375,3.035-9.992,9.818l3.984,0.363C63.027,54.299,67.59,54,68.5,54c1.408,0,6,0.369,6,5.125  c0,2.51-1.59,3.729-3.773,5.51C68.732,66.262,66,68.285,66,72v2h4v-2c0-1.73,1.336-2.701,3.254-4.266  c2.227-1.814,5.121-4.074,5.121-8.609C78.375,53.668,74.48,50,68.5,50z M66,82h4v-4h-4V82z"></path></svg>