<svg height='100px' width='100px'  fill="#000000" xmlns="http://www.w3.org/2000/svg" viewBox="0 0 66 66" x="0px" y="0px"><path fill="#000000" fill-rule="evenodd" d="M57,194.055955 C56.9831611,193.790462 57.071679,193.514107 57.2928932,193.292893 L73.2928932,177.292893 C73.4804296,177.105357 73.7347835,177 74,177 L122,177 C122.627389,177 123.034224,177.534176 123,178.070183 L123,226 C123,226.265216 122.894643,226.51957 122.707107,226.707107 L106.707107,242.707107 C106.485893,242.928321 106.209538,243.016839 105.944045,243 L58,243 C57.4477153,243 57,242.552285 57,242 L57,194.055955 Z M105,223.085353 L105,195 L76.9146471,195 C76.7087289,195.582596 76.1531094,196 75.5,196 C74.8468906,196 74.2912711,195.582596 74.0853529,195 L59,195 L59,241 L105,241 L105,225.914647 C104.417404,225.708729 104,225.153109 104,224.5 C104,223.846891 104.417404,223.291271 105,223.085353 Z M121,225.585786 L121,180.414214 L107,194.414214 L107,239.585786 L121,225.585786 Z M105.585786,193 L119.585786,179 L74.4142136,179 L60.4142136,193 L105.585786,193 Z M89.5,223 C90.3284271,223 91,223.671573 91,224.5 C91,225.328427 90.3284271,226 89.5,226 C88.6715729,226 88,225.328427 88,224.5 C88,223.671573 88.6715729,223 89.5,223 Z M81.5,223 C82.3284271,223 83,223.671573 83,224.5 C83,225.328427 82.3284271,226 81.5,226 C80.6715729,226 80,225.328427 80,224.5 C80,223.671573 80.6715729,223 81.5,223 Z M113.5,223 C114.328427,223 115,223.671573 115,224.5 C115,225.328427 114.328427,226 113.5,226 C112.671573,226 112,225.328427 112,224.5 C112,223.671573 112.671573,223 113.5,223 Z M97.5,223 C98.3284271,223 99,223.671573 99,224.5 C99,225.328427 98.3284271,226 97.5,226 C96.6715729,226 96,225.328427 96,224.5 C96,223.671573 96.6715729,223 97.5,223 Z M75.5,217 C76.3284271,217 77,217.671573 77,218.5 C77,219.328427 76.3284271,220 75.5,220 C74.6715729,220 74,219.328427 74,218.5 C74,217.671573 74.6715729,217 75.5,217 Z M73.5,225 C74.3284271,225 75,225.671573 75,226.5 C75,227.328427 74.3284271,228 73.5,228 C72.6715729,228 72,227.328427 72,226.5 C72,225.671573 72.6715729,225 73.5,225 Z M68.5,230 C69.3284271,230 70,230.671573 70,231.5 C70,232.328427 69.3284271,233 68.5,233 C67.6715729,233 67,232.328427 67,231.5 C67,230.671573 67.6715729,230 68.5,230 Z M63.5,235 C64.3284271,235 65,235.671573 65,236.5 C65,237.328427 64.3284271,238 63.5,238 C62.6715729,238 62,237.328427 62,236.5 C62,235.671573 62.6715729,235 63.5,235 Z M75.5,185 C76.3284271,185 77,185.671573 77,186.5 C77,187.328427 76.3284271,188 75.5,188 C74.6715729,188 74,187.328427 74,186.5 C74,185.671573 74.6715729,185 75.5,185 Z M75.5,201 C76.3284271,201 77,201.671573 77,202.5 C77,203.328427 76.3284271,204 75.5,204 C74.6715729,204 74,203.328427 74,202.5 C74,201.671573 74.6715729,201 75.5,201 Z M75.5,209 C76.3284271,209 77,209.671573 77,210.5 C77,211.328427 76.3284271,212 75.5,212 C74.6715729,212 74,211.328427 74,210.5 C74,209.671573 74.6715729,209 75.5,209 Z" transform="translate(-57 -177)"></path></svg>