<svg height='100px' width='100px'  fill="#000000" xmlns="http://www.w3.org/2000/svg" viewBox="0 0 66 66" x="0px" y="0px"><path fill-rule="evenodd" d="M74.708449,657.294238 L90.708449,673.355155 C91.0982326,673.746423 91.0970273,674.37959 90.7057568,674.769371 L74.7057568,690.708454 C74.3155434,691.097182 73.6844566,691.097182 73.2942432,690.708454 L57.2942432,674.769371 C56.9029727,674.37959 56.9017674,673.746423 57.291551,673.355155 L73.291551,657.294238 C73.6823803,656.901921 74.3176197,656.901921 74.708449,657.294238 Z M74,659.416908 L59.4142161,674.058225 L74,688.588476 L88.5857839,674.058225 L74,659.416908 Z M98,661 L122,661 C122.552285,661 123,661.447715 123,662 L123,686 C123,686.552285 122.552285,687 122,687 L98,687 C97.4477153,687 97,686.552285 97,686 L97,662 C97,661.447715 97.4477153,661 98,661 Z M99,663 L99,685 L121,685 L121,663 L99,663 Z M98,697 L122,697 C122.552285,697 123,697.447715 123,698 L123,722 C123,722.552285 122.552285,723 122,723 L98,723 C97.4477153,723 97,722.552285 97,722 L97,698 C97,697.447715 97.4477153,697 98,697 Z M99,721 L121,721 L121,699 L99,699 L99,721 Z M62,697 L86,697 C86.5522847,697 87,697.447715 87,698 L87,722 C87,722.552285 86.5522847,723 86,723 L62,723 C61.4477153,723 61,722.552285 61,722 L61,698 C61,697.447715 61.4477153,697 62,697 Z M63,721 L85,721 L85,699 L63,699 L63,721 Z" transform="translate(-57 -657)"></path></svg>