<svg height='100px' width='100px'  fill="#000000" xmlns="http://www.w3.org/2000/svg" xmlns:xlink="http://www.w3.org/1999/xlink" version="1.1" x="0px" y="0px" viewBox="0 0 100 100" enable-background="new 0 0 100 100" xml:space="preserve"><g><path d="M29.573,81.784h58.27c0.829,0,1.5-0.671,1.5-1.5s-0.671-1.5-1.5-1.5h-58.27c-0.829,0-1.5,0.671-1.5,1.5   S28.745,81.784,29.573,81.784z"></path><path d="M33.809,46.288c0.295,0.31,0.69,0.466,1.087,0.466c0.372,0,0.743-0.137,1.034-0.413l14.907-14.174   c0.6-0.571,0.624-1.52,0.053-2.121c-0.571-0.6-1.519-0.624-2.121-0.053L33.862,44.167C33.262,44.738,33.238,45.688,33.809,46.288z"></path><path d="M31.108,77.814c0.372,0,0.743-0.137,1.034-0.413l38.565-36.667c0.288-0.274,0.456-0.651,0.466-1.049   c0.01-0.397-0.138-0.783-0.413-1.071L51.81,18.682c-0.571-0.6-1.52-0.623-2.121-0.053L11.124,55.297   c-0.288,0.274-0.456,0.651-0.466,1.049c-0.01,0.397,0.138,0.783,0.413,1.071l18.951,19.931   C30.316,77.658,30.712,77.814,31.108,77.814z M50.669,21.836l16.884,17.757L39.101,66.645L22.218,48.888L50.669,21.836z    M20.044,50.955l16.883,17.757l-5.766,5.482L14.278,56.437L20.044,50.955z"></path></g></svg>