<svg height='100px' width='100px'  fill="#000000" xmlns="http://www.w3.org/2000/svg" xmlns:xlink="http://www.w3.org/1999/xlink" version="1.1" x="0px" y="0px" viewBox="0 0 512 512" style="enable-background:new 0 0 512 512;" xml:space="preserve"><g><g><g><g><path d="M260,270h-50.21c-5.228,0-9.574-4.027-9.971-9.24C197.65,232.296,173.571,210,145,210s-52.65,22.296-54.818,50.76      c-0.397,5.213-4.743,9.24-9.971,9.24H30c-5.523,0-10-4.478-10-10V30c0-5.523,4.477-10,10-10h230c5.522,0,10,4.477,10,10v41.523      c15.232,3.091,29.155,10.856,39.902,22.395C322.862,107.833,330,125.974,330,145s-7.138,37.167-20.098,51.082      c-10.747,11.539-24.67,19.304-39.902,22.395V260C270,265.522,265.522,270,260,270z M218.477,250H250v-40.21      c0-5.228,4.027-9.574,9.24-9.971C287.704,197.65,310,173.571,310,145s-22.296-52.65-50.76-54.818      c-5.213-0.397-9.24-4.743-9.24-9.971V40H40v210h31.523c3.091-15.232,10.856-29.155,22.395-39.902      C107.833,197.137,125.974,190,145,190s37.167,7.137,51.082,20.098C207.621,220.845,215.386,234.768,218.477,250z"></path></g><g><path d="M200,80H90c-5.523,0-10-4.477-10-10s4.477-10,10-10h110c5.523,0,10,4.477,10,10S205.523,80,200,80z"></path></g><g><path d="M190,460H80c-5.523,0-10-4.478-10-10s4.477-10,10-10h110c5.523,0,10,4.478,10,10S195.523,460,190,460z"></path></g><g><path d="M450,460c-5.522,0-10-4.478-10-10V340c0-5.522,4.478-10,10-10s10,4.478,10,10v110C460,455.522,455.522,460,450,460z"></path></g><g><path d="M260,500H30c-5.523,0-10-4.478-10-10V260c0-5.523,4.477-10,10-10h41.523c3.091-15.232,10.856-29.155,22.395-39.902      C107.833,197.137,125.974,190,145,190s37.167,7.137,51.082,20.098c11.539,10.747,19.304,24.67,22.395,39.902H260      c5.522,0,10,4.477,10,10v50.21c0,5.229-4.027,9.574-9.24,9.971C232.296,322.35,210,346.429,210,375s22.296,52.65,50.76,54.819      c5.213,0.396,9.24,4.742,9.24,9.971V490C270,495.522,265.522,500,260,500z M40,480h210v-31.522      c-15.232-3.092-29.155-10.856-39.902-22.396C197.137,412.167,190,394.025,190,375s7.137-37.167,20.098-51.082      c10.747-11.539,24.67-19.304,39.902-22.396V270h-40.21c-5.228,0-9.574-4.027-9.971-9.24C197.65,232.296,173.571,210,145,210      s-52.65,22.296-54.818,50.76c-0.397,5.213-4.743,9.24-9.971,9.24H40V480z"></path></g><g><path d="M375.21,330c-19.025,0-37.167-7.138-51.082-20.098c-13.837-12.888-22.246-30.341-23.678-49.143      c-0.42-5.507,3.704-10.312,9.211-10.731c5.512-0.423,10.312,3.704,10.73,9.211C322.56,287.704,346.639,310,375.21,310      c28.572,0,52.651-22.296,54.819-50.76c0.42-5.506,5.221-9.625,10.73-9.211c5.507,0.419,9.631,5.224,9.211,10.731      c-1.432,18.803-9.841,36.255-23.678,49.143C412.378,322.862,394.236,330,375.21,330z"></path></g><g><path d="M490,500H260c-5.523,0-10-4.478-10-10v-41.522c-15.232-3.092-29.155-10.856-39.902-22.396      C197.137,412.167,190,394.025,190,375s7.137-37.167,20.098-51.082c10.747-11.539,24.67-19.304,39.902-22.396V260      c0-5.523,4.477-10,10-10h50c5.522,0,10,4.477,10,10c0,5.522-4.478,10-10,10h-40v40.21c0,5.229-4.027,9.574-9.24,9.971      C232.296,322.35,210,346.429,210,375s22.296,52.65,50.76,54.819c5.213,0.396,9.24,4.742,9.24,9.971V480h210V270h-40      c-5.522,0-10-4.478-10-10c0-5.523,4.478-10,10-10h50c5.522,0,10,4.477,10,10v230C500,495.522,495.522,500,490,500z"></path></g></g></g></g></svg>