<svg height='100px' width='100px'  fill="#000000" xmlns:x="http://ns.adobe.com/Extensibility/1.0/" xmlns:i="http://ns.adobe.com/AdobeIllustrator/10.0/" xmlns:graph="http://ns.adobe.com/Graphs/1.0/" xmlns="http://www.w3.org/2000/svg" xmlns:xlink="http://www.w3.org/1999/xlink" version="1.1" x="0px" y="0px" viewBox="0 0 100 100" style="enable-background:new 0 0 100 100;" xml:space="preserve"><g><g i:extraneous="self"><g><path d="M79.4,31.7c-1.9,0-3.4,1.5-3.4,3.4v29.8c0,1.9,1.5,3.4,3.4,3.4s3.4-1.5,3.4-3.4V35.1C82.8,33.2,81.3,31.7,79.4,31.7z"></path><path d="M64.7,23.9c-1.9,0-3.4,1.5-3.4,3.4v45.4c0,1.9,1.5,3.4,3.4,3.4s3.4-1.5,3.4-3.4V27.3C68.1,25.4,66.6,23.9,64.7,23.9z"></path><path d="M35.3,39.5c-1.9,0-3.4,1.5-3.4,3.4v14.1c0,1.9,1.5,3.4,3.4,3.4c1.9,0,3.4-1.5,3.4-3.4V42.9C38.7,41,37.2,39.5,35.3,39.5z     "></path><path d="M20.6,31.7c-1.9,0-3.4,1.5-3.4,3.4v29.8c0,1.9,1.5,3.4,3.4,3.4s3.4-1.5,3.4-3.4V35.1C24,33.2,22.5,31.7,20.6,31.7z"></path><path d="M94.1,39.5c-1.9,0-3.4,1.5-3.4,3.4v14.1c0,1.9,1.5,3.4,3.4,3.4c1.9,0,3.4-1.5,3.4-3.4V42.9C97.5,41,96,39.5,94.1,39.5z"></path><path d="M50,31.7c-1.9,0-3.4,1.5-3.4,3.4v29.8c0,1.9,1.5,3.4,3.4,3.4s3.4-1.5,3.4-3.4V35.1C53.4,33.2,51.9,31.7,50,31.7z"></path><path d="M5.9,39.5c-1.9,0-3.4,1.5-3.4,3.4v14.1c0,1.9,1.5,3.4,3.4,3.4s3.4-1.5,3.4-3.4V42.9C9.3,41,7.8,39.5,5.9,39.5z"></path></g></g></g></svg>