<svg height='100px' width='100px'  fill="#000000" xmlns="http://www.w3.org/2000/svg" viewBox="0 0 64 64" x="0px" y="0px"><title>Exam</title><g><path d="M2,63H43a1,1,0,0,0,1-1V2a1,1,0,0,0-1-1H2A1,1,0,0,0,1,2V62A1,1,0,0,0,2,63ZM3,3H42V61H3Z"></path><path d="M13.61,23h-7a1,1,0,0,0-1,1v7a1,1,0,0,0,1,1h7a1,1,0,0,0,1-1V24A1,1,0,0,0,13.61,23Zm-1,7h-5V25h5Z"></path><path d="M13.61,36h-7a1,1,0,0,0-1,1v7a1,1,0,0,0,1,1h7a1,1,0,0,0,1-1V37A1,1,0,0,0,13.61,36Zm-1,7h-5V38h5Z"></path><path d="M13.61,48h-7a1,1,0,0,0-1,1v7a1,1,0,0,0,1,1h7a1,1,0,0,0,1-1V49A1,1,0,0,0,13.61,48Zm-1,7h-5V50h5Z"></path><path d="M20.9,25.15l-2.63,2.63-1-1a1,1,0,0,0-1.41,0,1,1,0,0,0,0,1.42l1.67,1.66a1,1,0,0,0,1.41,0l3.33-3.33a1,1,0,0,0-1.41-1.42Z"></path><path d="M20.9,38.15l-2.63,2.63-1-1a1,1,0,0,0-1.41,0,1,1,0,0,0,0,1.42l1.67,1.66a1,1,0,0,0,1.41,0l3.33-3.33a1,1,0,0,0-1.41-1.42Z"></path><path d="M20.9,50.15l-2.63,2.63-1-1a1,1,0,0,0-1.41,0,1,1,0,0,0,0,1.42l1.67,1.66a1,1,0,0,0,1.41,0l3.33-3.33a1,1,0,0,0-1.41-1.42Z"></path><path d="M38.61,27h-14a1,1,0,0,0,0,2h14a1,1,0,0,0,0-2Z"></path><path d="M38.61,40h-14a1,1,0,0,0,0,2h14a1,1,0,0,0,0-2Z"></path><path d="M38.61,52h-14a1,1,0,0,0,0,2h14a1,1,0,0,0,0-2Z"></path><path d="M14.61,10h16a1,1,0,0,0,0-2h-16a1,1,0,0,0,0,2Z"></path><path d="M31.61,14a1,1,0,0,0-1-1h-16a1,1,0,0,0,0,2h16A1,1,0,0,0,31.61,14Z"></path><path d="M50.61,14.75a1,1,0,0,0-1,1V29a1,1,0,0,0,2,0V15.75A1,1,0,0,0,50.61,14.75Z"></path><path d="M54.61,13.86V12a1,1,0,0,0-1-1V9a1,1,0,0,0-1-1h-4a1,1,0,0,0-1,1v2a1,1,0,0,0-1,1V55.69a.93.93,0,0,0,.12.46l3,5.72a1,1,0,0,0,.88.54,1,1,0,0,0,.89-.54l3-5.72a1,1,0,0,0,.11-.46V15.86h1a2,2,0,0,1,1.41.58,2,2,0,0,1,.58,1.41v21a1,1,0,0,0,2,0v-21a4,4,0,0,0-4-4ZM48.61,54V13h4V54Zm1-44h2v1h-2Zm1,49.23L48.92,56H52.3Z"></path></g></svg>