<svg height='100px' width='100px'  fill="#000000" xmlns="http://www.w3.org/2000/svg" xmlns:xlink="http://www.w3.org/1999/xlink" version="1.1" x="0px" y="0px" viewBox="0 0 100 100" enable-background="new 0 0 100 100" xml:space="preserve"><g><path d="M50,72.895c-12.624,0-22.893-10.271-22.893-22.895c0-12.624,10.269-22.893,22.893-22.893   c12.623,0,22.895,10.269,22.895,22.893C72.895,62.623,62.623,72.895,50,72.895z M50,33.809c-8.928,0-16.191,7.264-16.191,16.191   c0,8.93,7.264,16.193,16.191,16.193c8.93,0,16.193-7.264,16.193-16.193C66.193,41.072,58.93,33.809,50,33.809z"></path><path d="M50,21.816c-1.85,0-3.351-1.5-3.351-3.351V3.732c0-1.851,1.5-3.351,3.351-3.351c1.85,0,3.35,1.5,3.35,3.351v14.734   C53.35,20.316,51.85,21.816,50,21.816z"></path><path d="M27.701,31.052c-0.857,0-1.714-0.327-2.369-0.981L14.914,19.652c-1.309-1.309-1.309-3.429,0-4.738s3.429-1.309,4.738,0   L30.07,25.332c1.309,1.309,1.309,3.429,0,4.738C29.416,30.725,28.559,31.052,27.701,31.052z"></path><path d="M3.732,53.35c-1.851,0-3.351-1.5-3.351-3.35c0-1.85,1.5-3.351,3.351-3.351l14.732-0.001c1.85,0,3.351,1.5,3.351,3.351   c0,1.851-1.5,3.351-3.351,3.351H3.732z"></path><path d="M17.283,86.068c-0.857,0-1.715-0.328-2.369-0.982c-1.309-1.307-1.309-3.43,0-4.738l10.417-10.42   c1.309-1.309,3.429-1.309,4.738,0c1.309,1.309,1.309,3.43,0,4.738l-10.417,10.42C18.998,85.74,18.14,86.068,17.283,86.068z"></path><path d="M50,99.619c-1.85,0-3.351-1.5-3.351-3.352l-0.003-14.73c0-1.85,1.499-3.35,3.351-3.35l0,0c1.851,0,3.351,1.5,3.351,3.35   l0.002,14.73C53.35,98.119,51.852,99.619,50,99.619L50,99.619z"></path><path d="M82.717,86.068c-0.857,0-1.715-0.328-2.369-0.982L69.93,74.672c-1.309-1.309-1.309-3.43,0-4.738s3.43-1.309,4.738,0   l10.418,10.414c1.309,1.307,1.309,3.43,0,4.738C84.432,85.74,83.574,86.068,82.717,86.068z"></path><path d="M81.537,53.354c-1.85,0-3.35-1.5-3.35-3.35c0-1.851,1.498-3.351,3.35-3.351l14.73-0.003l0,0c1.852,0,3.352,1.5,3.352,3.351   c0,1.85-1.5,3.35-3.352,3.35L81.537,53.354L81.537,53.354z"></path><path d="M72.303,31.053c-0.857,0-1.715-0.327-2.369-0.981c-1.309-1.307-1.309-3.429-0.002-4.738l10.416-10.42   c1.307-1.309,3.43-1.309,4.738,0c1.309,1.307,1.309,3.429,0.002,4.738l-10.416,10.42C74.018,30.726,73.16,31.053,72.303,31.053z"></path></g></svg>