<svg height='100px' width='100px'  fill="#000000" xmlns="http://www.w3.org/2000/svg" viewBox="0 0 66 58" x="0px" y="0px"><path fill="#000000" fill-rule="evenodd" d="M82,587 L58,587 C57.2409409,587 56.7586273,586.187523 57.1221044,585.521148 L81.1221044,541.521148 C81.5011211,540.826284 82.4988789,540.826284 82.8778956,541.521148 L95.6845422,565 L109,565 C109.552285,565 110,565.447715 110,566 L110,577.181376 C110.648552,577.062247 111.317007,577 112,577 C118.075132,577 123,581.924868 123,588 C123,594.075132 118.075132,599 112,599 C107.725315,599 104.02013,596.561676 102.199419,593 L83,593 C82.4477153,593 82,592.552285 82,592 L82,587 Z M82,544.088327 L59.6845422,585 L82,585 L82,566 C82,565.447715 82.4477153,565 83,565 L93.4063669,565 L82,544.088327 Z M108,567 L84,567 L84,591 L101.414299,591 C101.140861,590.033435 101,589.026195 101,588 C101,583.412953 103.832853,579.374936 108,577.749953 L108,567 Z M112,597 C116.970563,597 121,592.970563 121,588 C121,583.029437 116.970563,579 112,579 C107.029437,579 103,583.029437 103,588 C103,592.970563 107.029437,597 112,597 Z" transform="translate(-57 -541)"></path></svg>