<svg height='100px' width='100px'  fill="#000000" xmlns="http://www.w3.org/2000/svg" viewBox="0 0 58 66" x="0px" y="0px"><path fill="#000000" fill-rule="evenodd" d="M210.5,297.133975 L238.212813,313.133975 C238.522214,313.312607 238.712813,313.642734 238.712813,314 L238.712813,346 C238.712813,346.357266 238.522214,346.687393 238.212813,346.866025 L210.5,362.866025 C210.190599,363.044658 209.809401,363.044658 209.5,362.866025 L181.787187,346.866025 C181.477786,346.687393 181.287187,346.357266 181.287187,346 L181.287187,314 C181.287187,313.642734 181.477786,313.312607 181.787187,313.133975 L209.5,297.133975 C209.809401,296.955342 210.190599,296.955342 210.5,297.133975 Z M211,314.732051 L211,328.267949 L222.722432,321.5 L211,314.732051 Z M223.722432,323.232051 L212,330 L223.722432,336.767949 L223.722432,323.232051 Z M222.722432,338.5 L211,331.732051 L211,345.267949 L222.722432,338.5 Z M209,345.267949 L209,331.732051 L197.277568,338.5 L209,345.267949 Z M196.277568,336.767949 L208,330 L196.277568,323.232051 L196.277568,336.767949 Z M197.277568,321.5 L209,328.267949 L209,314.732051 L197.277568,321.5 Z M224.722432,320.345299 L235.712813,314 L211,299.732051 L211,312.42265 L224.722432,320.345299 Z M225.722432,337.92265 L236.712813,344.267949 L236.712813,315.732051 L225.722432,322.07735 L225.722432,337.92265 Z M211,347.57735 L211,360.267949 L235.712813,346 L224.722432,339.654701 L211,347.57735 Z M195.277568,339.654701 L184.287187,346 L209,360.267949 L209,347.57735 L195.277568,339.654701 Z M194.277568,322.07735 L183.287187,315.732051 L183.287187,344.267949 L194.277568,337.92265 L194.277568,322.07735 Z M209,312.42265 L209,299.732051 L184.287187,314 L195.277568,320.345299 L209,312.42265 Z" transform="translate(-181 -297)"></path></svg>