<svg height='100px' width='100px'  fill="#000000" xmlns="http://www.w3.org/2000/svg" xmlns:xlink="http://www.w3.org/1999/xlink" version="1.1" x="0px" y="0px" viewBox="0 0 66 66" enable-background="new 0 0 66 66" xml:space="preserve"><g><path d="M33,1C15.4,1,1,15.4,1,33s14.4,32,32,32s32-14.4,32-32S50.6,1,33,1z M33,3c16.5,0,30,13.5,30,30   c0,0,0,0,0,0c0,8-6.5,14.5-14.5,14.5C40.5,47.5,34,41,34,33c0-9.1-7.4-16.5-16.5-16.5c-5,0-9.5,2.2-12.5,5.8C9.3,11,20.2,3,33,3z    M33,63C16.5,63,3,49.5,3,33c0,0,0,0,0,0c0-8,6.5-14.5,14.5-14.5C25.5,18.5,32,25,32,33c0,9.1,7.4,16.5,16.5,16.5   c5,0,9.5-2.2,12.5-5.8C56.7,55,45.8,63,33,63z"></path><path d="M23.3,32h-4.8v-4.8c0-0.6-0.4-1-1-1s-1,0.4-1,1V32h-4.8c-0.6,0-1,0.4-1,1s0.4,1,1,1h4.8v4.8   c0,0.6,0.4,1,1,1s1-0.4,1-1V34h4.8c0.6,0,1-0.4,1-1S23.9,32,23.3,32z"></path><path d="M42.7,34h11.7c0.6,0,1-0.4,1-1s-0.4-1-1-1H42.7c-0.6,0-1,0.4-1,1S42.1,34,42.7,34z"></path></g></svg>