<svg height='100px' width='100px'  fill="#000000" xmlns="http://www.w3.org/2000/svg" viewBox="0 0 58 66" x="0px" y="0px"><path fill="#000000" fill-rule="evenodd" d="M330.5,297.133975 L358.212813,313.133975 C358.522214,313.312607 358.712813,313.642734 358.712813,314 L358.712813,346 C358.712813,346.357266 358.522214,346.687393 358.212813,346.866025 L330.5,362.866025 C330.190599,363.044658 329.809401,363.044658 329.5,362.866025 L301.787187,346.866025 C301.477786,346.687393 301.287187,346.357266 301.287187,346 L301.287187,314 C301.287187,313.642734 301.477786,313.312607 301.787187,313.133975 L329.5,297.133975 C329.809401,296.955342 330.190599,296.955342 330.5,297.133975 Z M329,350.267949 L329,341.57735 L303.287187,326.732051 L303.287187,335.42265 L329,350.267949 Z M303.287187,337.732051 L303.287187,345.42265 L329,360.267949 L329,352.57735 L303.287187,337.732051 Z M303.287187,324.42265 L329,339.267949 L329,330.57735 L303.287187,315.732051 L303.287187,324.42265 Z M340.712813,344.660254 L347.712813,340.618802 L347.712813,331.928203 L340.712813,335.969655 L340.712813,344.660254 Z M340.712813,354.660254 L347.712813,350.618802 L347.712813,342.928203 L340.712813,346.969655 L340.712813,354.660254 Z M340.712813,333.660254 L347.712813,329.618802 L347.712813,320.928203 L340.712369,324.969911 C340.712664,324.979905 340.712813,324.989935 340.712813,325 L340.712813,333.660254 Z M338.712813,345.814955 L338.712813,337.124356 L331,341.57735 L331,350.267949 L338.712813,345.814955 Z M338.712813,355.814955 L338.712813,348.124356 L331,352.57735 L331,360.267949 L338.712813,355.814955 Z M338.712813,326.124356 L331,330.57735 L331,339.267949 L338.712813,334.814955 L338.712813,326.124356 Z M349.712813,339.464102 L356.712813,335.42265 L356.712813,326.732051 L349.712813,330.773503 L349.712813,339.464102 Z M349.712813,349.464102 L356.712813,345.42265 L356.712813,337.732051 L349.712813,341.773503 L349.712813,349.464102 Z M349.712813,319.773503 L349.712813,328.464102 L356.712813,324.42265 L356.712813,315.732051 L349.712813,319.773503 Z M321.169873,304.252777 L313.839928,308.484723 L339.554739,323.328868 L346.882686,319.098076 L321.169873,304.252777 Z M337.554661,324.483614 L311.83985,309.639468 L304.287187,314 L330,328.845299 L337.554661,324.483614 Z M323.169873,303.098076 L348.882686,317.943376 L355.712813,314 L330,299.154701 L323.169873,303.098076 Z" transform="translate(-301 -297)"></path></svg>