<svg height='100px' width='100px'  fill="#000000" xmlns="http://www.w3.org/2000/svg" xmlns:xlink="http://www.w3.org/1999/xlink" version="1.0" x="0px" y="0px" viewBox="0 0 100 100" enable-background="new 0 0 100 100" xml:space="preserve"><g><path d="M73.6914063,62.6850586c-0.5151367-0.1938477-1.0932617,0.0654297-1.2885742,0.5825195   c-0.425293,1.1269531-1.0761719,2.1337891-1.9350586,2.9926758c-1.5996094,1.5996094-3.7260742,2.4804688-5.9882813,2.4804688   s-4.3886719-0.8808594-5.9882813-2.4804688c-3.3012695-3.3017578-3.3012695-8.6738281,0-11.9760742   c3.3017578-3.3017578,8.6743164-3.3022461,11.9760742-0.0004883c0.4482422,0.4492188,0.8451996,0.9453125,1.1796875,1.4750977   c0.2958984,0.4672852,0.9130859,0.6069336,1.3793945,0.3120117c0.4672852-0.2949219,0.6069336-0.9121094,0.3120117-1.3793945   c-0.4130859-0.6547852-0.9033203-1.2675781-1.456543-1.8212891c-4.0820313-4.0820313-10.7236328-4.0820313-14.8046875,0   c-4.081543,4.081543-4.081543,10.7231445,0,14.8041992c2.0410156,2.0410156,4.7216797,3.0615234,7.4023438,3.0615234   s5.3613281-1.0205078,7.4023438-3.0615234c1.0610352-1.0610352,1.8657227-2.3061523,2.3920898-3.7006836   C74.46875,63.4570313,74.2080078,62.8798828,73.6914063,62.6850586z"></path><path d="M73.6660156,57.7641602c-0.5454102,0.0883789-0.9155273,0.6020508-0.8276367,1.1469727   c0.097168,0.6005859,0.1298828,1.2128906,0.097168,1.8208008c-0.0297852,0.5512695,0.3930664,1.0224609,0.9448242,1.0522461   c0.0180664,0.0009766,0.0366211,0.0014648,0.0546875,0.0014648c0.5273438,0,0.96875-0.4130859,0.9975586-0.9462891   c0.0405273-0.75,0-1.5063477-0.1196289-2.2475586C74.7250977,58.0463867,74.2119141,57.6782227,73.6660156,57.7641602z"></path><path d="M87.5878906,78.6826172L77.043457,68.1376953c3.6733398-5.8311157,2.8674316-13.4220581-2.0717773-18.3603516   c-5.7841949-5.7841797-15.1977539-5.7817383-20.9829102,0.0043945c-2.8022461,2.8022461-4.3461914,6.527832-4.3476563,10.4907227   c-0.0014648,3.9643555,1.5410156,7.6904297,4.3432617,10.4921875c2.8852539,2.8847656,6.6757813,4.3642578,10.4921875,4.3637695   c2.718811,0,5.4474487-0.7599487,7.8721924-2.2888794l10.5408936,10.5413208   c0.6074219,0.6074219,1.4052734,0.9111328,2.2036133,0.9111328c0.7978516,0,1.5957031-0.3037109,2.203125-0.9111328   l0.2915039-0.2915039C88.1762695,82.5009766,88.5,81.71875,88.5,80.8857422S88.1762695,79.2705078,87.5878906,78.6826172z    M71.9013672,70.7436523c-5.1142578,3.640625-12.0541992,3.0551758-16.5029297-1.3930664   c-2.4238281-2.4243164-3.7583008-5.6479492-3.7573242-9.0771484s1.3369141-6.652832,3.7617188-9.0776367   c2.5043945-2.5039063,5.7929688-3.7558594,9.081543-3.7558594c3.2861328,0,6.5722656,1.2504883,9.0732422,3.7514648   c4.4492188,4.4487305,5.0351563,11.3891602,1.3901367,16.5068359c-0.4130859,0.5869141-0.8808594,1.1430664-1.3901367,1.6523438   C73.0498047,69.8583984,72.4936523,70.3261719,71.9013672,70.7436523z M86.1738281,81.675293l-0.2915039,0.2915039   c-0.4355469,0.4345703-1.1430664,0.4345703-1.5786133,0l-10.309082-10.3100586   c0.0092773-0.0077515,0.0174561-0.0166626,0.0267334-0.0244141c0.3295288-0.276001,0.6477661-0.5651245,0.9503174-0.8676758   c0.3043213-0.3040161,0.5944214-0.6235352,0.8706055-0.9534912c0.006958-0.0083618,0.0150146-0.015686,0.0219727-0.0240479   L86.1738281,80.097168C86.3842773,80.3071289,86.5,80.5874023,86.5,80.8857422   C86.5,81.1845703,86.3842773,81.4648438,86.1738281,81.675293z"></path><path d="M57.7563477,39.6474609c-0.5522461,0-1,0.4477539-1,1v2.2885742c0,0.5522461,0.4477539,1,1,1s1-0.4477539,1-1v-2.2885742   C58.7563477,40.0952148,58.3085938,39.6474609,57.7563477,39.6474609z"></path><path d="M71.6269531,77.4794922l-12.8706055,4.144043v-4.9711914c0-0.5522461-0.4477539-1-1-1s-1,0.4477539-1,1v4.9713745   L36.128418,74.9814453V18.0795898l20.6279297,6.6424561v8.9464111c0,0.5522461,0.4477539,1,1,1s1-0.4477539,1-1V24.722168   l20.628418-6.6425781v34.4633789c0,0.5522461,0.4477539,1,1,1s1-0.4477539,1-1V16.7070313   c0-0.3198242-0.152832-0.6201172-0.4111328-0.8081055c-0.2583008-0.1884766-0.5898438-0.2426758-0.8955078-0.1435547   l-22.3217773,7.1878662l-22.3212891-7.1878662c-0.0234985-0.0077515-0.0477905-0.0084229-0.0715332-0.0143433   c-0.0388184-0.0095215-0.0770874-0.0186768-0.1167603-0.0234375c-0.0423584-0.005249-0.0841064-0.0056152-0.1264648-0.0053101   c-0.0341187,0.0003052-0.0678101,0.0004272-0.1019287,0.0042725c-0.0455322,0.0050659-0.0895996,0.0150757-0.1340332,0.0264282   c-0.020752,0.0053101-0.0419922,0.0057373-0.062561,0.0123901l-22.628418,7.2866211   C11.7802734,23.1748047,11.5,23.5595703,11.5,23.9936523v59.0024414c0,0.3198242,0.152832,0.6201172,0.4111328,0.8081055   c0.1733398,0.1264648,0.3798828,0.1918945,0.5888672,0.1918945c0.1030273,0,0.2060547-0.015625,0.3066406-0.0483398   L35.128418,76.760376l22.3190918,7.1867065c0,0,0.0014648,0.0004272,0.0021973,0.0006714   c0.1020508,0.0332031,0.2050781,0.0488281,0.3066406,0.0488281c0.1065674,0,0.2110596-0.0175171,0.3101807-0.0499878   l14.1737061-4.5637817c0.5253906-0.1689453,0.8144531-0.7324219,0.6450195-1.2583008   C72.7163086,77.5991211,72.1552734,77.3071289,71.6269531,77.4794922z M34.128418,74.9814453L13.5,81.6235352V24.722168   l20.628418-6.6425781V74.9814453z"></path></g></svg>