<svg height='100px' width='100px'  fill="#000000" xmlns="http://www.w3.org/2000/svg" viewBox="0 0 64 64" x="0px" y="0px"><title>calculator</title><g><path d="M52,4H12a2,2,0,0,0-2,2V58a2,2,0,0,0,2,2H52a2,2,0,0,0,2-2V6A2,2,0,0,0,52,4Zm0,54H12V6H52Z"></path><path d="M50,8H14v9H50Zm-2,7H16V10H48Z"></path><path d="M24,19H14V29H24Zm-2,8H16V21h6Z"></path><path d="M26,29H37V19H26Zm2-8h7v6H28Z"></path><path d="M39,29H50V19H39Zm2-8h7v6H41Z"></path><path d="M24,31H14V41H24Zm-2,8H16V33h6Z"></path><path d="M26,41H37V31H26Zm2-8h7v6H28Z"></path><path d="M39,56H50V31H39Zm2-23h7V54H41Z"></path><path d="M24,43H14V56H24ZM22,54H16V45h6Z"></path><path d="M26,56H37V43H26Zm2-11h7v9H28Z"></path></g></svg>