<svg height='100px' width='100px'  fill="#000000" xmlns="http://www.w3.org/2000/svg" xmlns:xlink="http://www.w3.org/1999/xlink" version="1.1" x="0px" y="0px" viewBox="0 0 512 512" style="enable-background:new 0 0 512 512;" xml:space="preserve"><g><g><g><path d="M366,375.725c-1.815,0-3.627-0.494-5.227-1.475c-2.966-1.817-4.773-5.047-4.773-8.525V26.276     c0-3.479,1.808-6.708,4.773-8.526c2.968-1.818,6.664-1.964,9.764-0.385C449.098,57.366,496,124.146,496,196     c0,71.855-46.902,138.635-125.463,178.636C369.108,375.363,367.553,375.725,366,375.725z M376,43.141v305.718     C438.932,311.915,476,255.717,476,196C476,136.284,438.933,80.085,376,43.141z"></path></g><g><path d="M366,375.725c-1.553,0-3.108-0.361-4.537-1.089C282.902,334.635,236,267.855,236,196     c0-71.854,46.902-138.634,125.463-178.635c3.099-1.578,6.796-1.433,9.764,0.385c2.966,1.818,4.773,5.047,4.773,8.526v339.449     c0,3.479-1.808,6.708-4.773,8.525C369.627,375.23,367.815,375.725,366,375.725z M356,43.141C293.067,80.085,256,136.284,256,196     c0,59.717,37.068,115.915,100,152.859V43.141z"></path></g><g><path d="M366,495.725c-5.522,0-10-4.478-10-10v-130c0-5.522,4.478-10,10-10s10,4.478,10,10v130     C376,491.247,371.522,495.725,366,495.725z"></path></g><g><path d="M366.008,165.725c-3.041,0-6.043-1.381-8.008-4l-60-80c-3.313-4.418-2.418-10.687,2-14s10.687-2.418,14,2l60,80     c3.313,4.418,2.418,10.687-2,14C370.201,165.073,368.096,165.725,366.008,165.725z"></path></g><g><path d="M366.007,225.725c-2.935,0-5.84-1.285-7.815-3.753c-3.45-4.313-2.751-10.605,1.562-14.056l100-80     c4.314-3.451,10.605-2.75,14.056,1.562c3.45,4.313,2.751,10.605-1.562,14.056l-100,80     C370.403,225.008,368.197,225.725,366.007,225.725z"></path></g><g><path d="M365.994,275.725c-2.228,0-4.468-0.74-6.326-2.261l-110-90c-4.274-3.498-4.904-9.798-1.407-14.072     c3.498-4.275,9.797-4.905,14.072-1.407l110,90.001c4.274,3.497,4.905,9.797,1.407,14.071     C371.763,274.473,368.89,275.725,365.994,275.725z"></path></g><g><path d="M366.009,315.727c-3.541,0-6.973-1.886-8.788-5.214c-2.645-4.848-0.857-10.923,3.991-13.567l110-60     c4.845-2.645,10.923-0.859,13.567,3.99c2.645,4.849,0.857,10.923-3.991,13.567l-110,60.001     C369.269,315.333,367.627,315.727,366.009,315.727z"></path></g><g><path d="M191.021,440.42c-2.621,0-5.173-1.031-7.071-2.929L27.512,281.054c-2.459-2.46-3.464-6.021-2.653-9.404     s3.323-6.101,6.631-7.177c18.512-6.021,36.97-9.073,54.86-9.073c35.588,0,66.304,11.905,88.826,34.428     c34.061,34.06,43.539,87.774,25.354,143.686c-1.076,3.309-3.794,5.819-7.177,6.631C192.58,440.329,191.797,440.42,191.021,440.42     z M53.818,279.075l132.109,132.109c9.429-42.534,0.549-81.774-24.892-107.215c-18.69-18.69-44.516-28.57-74.684-28.57     C75.727,275.399,64.836,276.633,53.818,279.075z"></path></g><g><path d="M139.253,449.004c-35.587,0-66.302-11.904-88.826-34.427C16.367,380.516,6.889,326.801,25.073,270.89     c1.076-3.309,3.794-5.819,7.177-6.631c3.383-0.812,6.943,0.192,9.404,2.652l156.438,156.438c2.459,2.46,3.464,6.021,2.653,9.404     s-3.323,6.101-6.631,7.177C175.602,445.951,157.145,449.004,139.253,449.004z M39.677,293.219     c-9.428,42.533-0.548,81.774,24.893,107.216c18.691,18.69,44.516,28.569,74.684,28.569c10.624,0,21.515-1.233,32.533-3.677     L39.677,293.219z"></path></g><g><path d="M246.324,495.725c-2.559,0-5.119-0.977-7.071-2.929l-59.912-59.912c-3.905-3.905-3.905-10.237,0-14.143     c3.905-3.904,10.237-3.904,14.143,0l59.912,59.912c3.905,3.905,3.905,10.237,0,14.143     C251.443,494.748,248.883,495.725,246.324,495.725z"></path></g><g><path d="M94.253,343.642c-0.471,0-0.947-0.033-1.427-0.102l-64.521-9.219c-5.467-0.781-9.266-5.847-8.485-11.313     c0.781-5.469,5.847-9.264,11.314-8.485l64.521,9.219c5.467,0.781,9.266,5.847,8.485,11.313     C103.427,340.043,99.148,343.642,94.253,343.642z"></path></g><g><path d="M121.904,371.292c-0.369,0-0.741-0.021-1.117-0.063c-5.489-0.609-9.444-5.554-8.834-11.043l9.218-82.955     c0.61-5.488,5.546-9.448,11.043-8.834c5.489,0.609,9.444,5.554,8.834,11.043l-9.218,82.955     C131.262,367.509,126.932,371.292,121.904,371.292z"></path></g><g><path d="M52.75,403.554c-5.075,0-9.422-3.849-9.938-9.006c-0.55-5.495,3.459-10.396,8.955-10.945l92.172-9.219     c5.492-0.552,10.396,3.459,10.945,8.955c0.55,5.495-3.459,10.396-8.955,10.945l-92.172,9.219     C53.42,403.537,53.083,403.554,52.75,403.554z"></path></g><g><path d="M163.374,412.772c-0.935,0-1.884-0.132-2.826-0.409c-5.298-1.559-8.33-7.117-6.772-12.415l23.043-78.348     c1.559-5.299,7.116-8.331,12.416-6.772c5.298,1.559,8.33,7.117,6.772,12.415l-23.043,78.348     C171.682,409.947,167.695,412.772,163.374,412.772z"></path></g><g><path d="M486,495.725H26c-5.523,0-10-4.478-10-10s4.477-10,10-10h460c5.522,0,10,4.478,10,10S491.522,495.725,486,495.725z"></path></g></g></g></svg>