<svg height='100px' width='100px'  fill="#000000" xmlns="http://www.w3.org/2000/svg" xmlns:xlink="http://www.w3.org/1999/xlink" version="1.1" x="0px" y="0px" viewBox="0 0 69 69" style="enable-background:new 0 0 69 69;" xml:space="preserve"><g><path d="M65.06441,11.38135l-7.44726-7.44727c-1.9043-1.90625-5.00586-1.90625-6.91016,0   C36.12799,18.51341,23.2684,31.37331,8.58101,46.06104c-0.00793,0.00793-0.01025,0.01868-0.01782,0.02679   c-0.35809,0.3825-0.00405-0.13998-6.01538,19.11285c-0.10938,0.35449-0.01465,0.74023,0.24805,1.00195   c0.26573,0.26573,0.65457,0.35682,1.00195,0.24805c19.54327-6.1007,18.74112-5.66547,19.11383-6.0144   c0.00812-0.00757,0.01886-0.00989,0.02679-0.01782c4.14412-4.14421,38.84088-38.84178,42.12598-42.12695   C66.96693,16.38898,66.98177,13.29871,65.06441,11.38135z M43.52047,13.94873l5.05786,5.05835l-32.8186,32.8186l-5.05762-5.05762   L43.52047,13.94873z M5.01753,63.98096l4.73633-15.33301l10.59766,10.59766L5.01753,63.98096z M22.2314,58.29736l-5.05762-5.05762   l32.8186-32.8186l5.05737,5.05786L22.2314,58.29736z M63.65035,16.87744l-7.18652,7.1875   c-4.03228-4.03262-7.49702-7.49766-11.5293-11.53027l7.18652-7.18652c1.125-1.125,2.95703-1.125,4.08203,0l7.44727,7.44727   C64.77748,13.92053,64.78001,15.7498,63.65035,16.87744z"></path></g></svg>