<svg height='100px' width='100px'  fill="#000000" xmlns="http://www.w3.org/2000/svg" xmlns:xlink="http://www.w3.org/1999/xlink" version="1.1" x="0px" y="0px" viewBox="0 0 100 100" style="enable-background:new 0 0 100 100;" xml:space="preserve"><path d="M89.1,4.8h-50c-3.3,0-6,2.7-6,6v20c0,3.3,2.7,6,6,6h14v2c0,3,2.2,5.4,5,5.9v2.1c0,2.6,1.7,4.8,4,5.6v5c0,0.7-0.4,1.4-1,1.8  l-33.5,18l-1.5-2.7c-0.5-1-1.8-1.3-2.7-0.8L8.5,82.1c-3.4,1.9-4.6,6.1-2.7,9.5c0.6,1.2,1.6,2.1,2.6,2.7c1.1,0.6,2.3,0.9,3.5,0.9  c1.1,0,2.3-0.3,3.4-0.9L30.2,86c1-0.5,1.3-1.8,0.8-2.7l-1.4-2.6l33.4-18c1.9-1,3.2-3.1,3.2-5.3v-5c2.3-0.8,4-3,4-5.6v-2.1  c2.8-0.5,5-2.9,5-5.9v-2h14c3.3,0,6-2.7,6-6v-20C95.1,7.5,92.4,4.8,89.1,4.8z M13.4,90.8c-1.4,0.8-3.3,0.3-4.1-1.2  c-0.2-0.5-0.4-1-0.4-1.4c0-1.1,0.6-2.1,1.5-2.6l13.1-7.3l2.9,5.2L13.4,90.8z M43.1,32.8h-4c-1.1,0-2-0.9-2-2v-20c0-1.1,0.9-2,2-2h4  V32.8z M66.1,46.8c0,1.1-0.9,2-2,2c-1.1,0-2-0.9-2-2v-2h4V46.8z M71.1,38.8c0,1.1-0.9,2-2,2h-10c-1.1,0-2-0.9-2-2v-2h14V38.8z   M77.1,32.8h-30v-24h30V32.8z M91.1,30.8c0,1.1-0.9,2-2,2h-8v-10h4c1.1,0,2-0.9,2-2c0-1.1-0.9-2-2-2h-4v-10h8c1.1,0,2,0.9,2,2V30.8z  "></path></svg>