<svg height='100px' width='100px'  fill="#000000" xmlns="http://www.w3.org/2000/svg" xmlns:xlink="http://www.w3.org/1999/xlink" version="1.1" x="0px" y="0px" viewBox="0 0 100 100" enable-background="new 0 0 100 100" xml:space="preserve"><path d="M802.48,289.746h-28.649l-9.856-5.913h-15.063v9.721h-8.643v41.988h53.568v-9.721h8.643V289.746z M790.838,332.542H743.27  v-35.988h11.232l9.856,5.913h26.479V332.542z M799.48,322.821h-5.643v-23.354h-28.649l-9.856-5.913h-3.42v-6.721h11.232l9.856,5.913  h26.479V322.821z"></path><g><path d="M84.063,39.551H70.566V17.762H29.434v21.789H15.937V69.01h13.497v13.229h41.133V69.01h13.497V39.551z M32.434,20.762   h35.133v18.789H32.434V20.762z M67.566,79.238H32.434V55.779h35.133V79.238z M81.063,66.01H70.566v-13.23H29.434v13.23H18.937   V42.551h10.497h41.133h10.497V66.01z"></path><rect x="36.875" y="61.677" width="26.25" height="3"></rect><rect x="36.875" y="70.927" width="26.25" height="3"></rect><rect x="23.708" y="45.927" width="4.25" height="3"></rect><rect x="30.958" y="45.927" width="5.917" height="3"></rect></g></svg>