<svg height='100px' width='100px'  fill="#000000" xmlns="http://www.w3.org/2000/svg" viewBox="0 0 64 64" x="0px" y="0px"><g><path d="M61,7H58V3a1,1,0,0,0-1-1H3A1,1,0,0,0,2,3V57a5.006,5.006,0,0,0,5,5H57a5.006,5.006,0,0,0,5-5V8A1,1,0,0,0,61,7ZM56,18H6v2H56V60H7a3,3,0,0,1-3-3V4H56Zm4,39a3.006,3.006,0,0,1-2,2.829V9h2Z"></path><polygon points="12 8 13.307 8 16.307 16 21 16 21 6 19 6 19 14 17.693 14 14.693 6 10 6 10 16 12 16 12 8"></polygon><path d="M33,16h2a1,1,0,0,0,.929-.628L37,12.692l1.071,2.68A1,1,0,0,0,39,16h2a1,1,0,0,0,.994-.89l1-9-1.988-.22L40.1,14h-.428L37.929,9.628a1,1,0,0,0-1.858,0L34.323,14H33.9l-.9-8.11-1.988.22,1,9A1,1,0,0,0,33,16Z"></path><polygon points="29 14 25 14 25 12 29 12 29 10 25 10 25 8 29 8 29 6 23 6 23 16 29 16 29 14"></polygon><path d="M51,15V11a1,1,0,0,0-1-1H47V8h4V6H46a1,1,0,0,0-1,1v4a1,1,0,0,0,1,1h3v2H45v2h5A1,1,0,0,0,51,15Z"></path><path d="M28,22H6V40H28ZM26,38H8V24H26Z"></path><path d="M54,40H30V58H54ZM52,56H32V42H52Z"></path><rect x="32" y="23" width="22" height="2"></rect><rect x="48" y="27" width="6" height="2"></rect><rect x="44" y="27" width="2" height="2"></rect><rect x="39" y="27" width="3" height="2"></rect><rect x="32" y="27" width="5" height="2"></rect><rect x="32" y="31" width="22" height="2"></rect><rect x="34" y="35" width="20" height="2"></rect><rect x="6" y="43" width="20" height="2"></rect><rect x="7" y="47" width="20" height="2"></rect><rect x="6" y="51" width="22" height="2"></rect><rect x="6" y="55" width="18" height="2"></rect></g></svg>