<svg height='100px' width='100px'  fill="#000000" xmlns="http://www.w3.org/2000/svg" viewBox="0 0 58 66" x="0px" y="0px"><path fill="#000000" fill-rule="evenodd" d="M90.5,297.133975 L118.212813,313.133975 C118.522214,313.312607 118.712813,313.642734 118.712813,314 L118.712813,346 C118.712813,346.357266 118.522214,346.687393 118.212813,346.866025 L90.5,362.866025 C90.1905989,363.044658 89.8094011,363.044658 89.5,362.866025 L61.7871871,346.866025 C61.477786,346.687393 61.2871871,346.357266 61.2871871,346 L61.2871871,314 C61.2871871,313.642734 61.477786,313.312607 61.7871871,313.133975 L89.5,297.133975 C89.8094011,296.955342 90.1905989,296.955342 90.5,297.133975 Z M79.0096189,322.5 L90,328.845299 L100.990381,322.5 L90,316.154701 L79.0096189,322.5 Z M101.990381,324.232051 L91,330.57735 L91,343.267949 L101.990381,336.92265 L101.990381,324.232051 Z M89,343.267949 L89,330.57735 L78.0096189,324.232051 L78.0096189,336.92265 L89,343.267949 Z M102.990381,321.345299 L115.712813,314 L90,299.154701 L64.2871871,314 L77.0096189,321.345299 L89.5,314.133975 C89.8094011,313.955342 90.1905989,313.955342 90.5,314.133975 L102.990381,321.345299 Z M91,345.57735 L91,360.267949 L116.712813,345.42265 L116.712813,315.732051 L103.990381,323.07735 L103.990381,337.5 C103.990381,337.857266 103.799782,338.187393 103.490381,338.366025 L91,345.57735 Z M76.0096189,323.07735 L63.2871871,315.732051 L63.2871871,345.42265 L89,360.267949 L89,345.57735 L76.5096189,338.366025 C76.2002179,338.187393 76.0096189,337.857266 76.0096189,337.5 L76.0096189,323.07735 Z" transform="translate(-61 -297)"></path></svg>