<svg height='100px' width='100px'  fill="#000000" xmlns="http://www.w3.org/2000/svg" viewBox="0 0 66 60" x="0px" y="0px"><path fill="#000000" fill-rule="evenodd" d="M580.499291,557.959903 C581.873118,557.343104 583.396491,557 585,557 C591.075132,557 596,561.924868 596,568 C596,571.821862 594.050904,575.188489 591.092499,577.160093 L602.875578,598.516923 C603.24329,599.183402 602.761188,600 602,600 L538,600 C537.238812,600 536.75671,599.183402 537.124422,598.516923 L569.124422,540.516923 C569.504687,539.827692 570.495313,539.827692 570.875578,540.516923 L580.499291,557.959903 Z M585,577 C589.970563,577 594,572.970563 594,568 C594,563.029437 589.970563,559 585,559 C580.029437,559 576,563.029437 576,568 C576,572.970563 580.029437,577 585,577 Z M570,543.070062 L539.693827,598 L600.306173,598 L589.334051,578.11303 C587.97895,578.69455 586.510794,579 585,579 C578.924868,579 574,574.075132 574,568 C574,564.326062 575.817149,560.969287 578.756849,558.94185 L570,543.070062 Z" transform="translate(-537 -540)"></path></svg>