<svg height='100px' width='100px'  fill="#000000" xmlns="http://www.w3.org/2000/svg" data-name="Layer 2" viewBox="0 0 64 64" x="0px" y="0px"><title>1</title><path d="M55.14,26.14A5.87,5.87,0,0,0,49.37,31H42.63l-3-5.21L45,20.42A5.86,5.86,0,1,0,43.58,19l-5,5-.69-1.2a1,1,0,0,0-.87-.5H33V14.63a5.86,5.86,0,1,0-2,0V22.3H27a1,1,0,0,0-.87.5L25.41,24l-5-5A5.89,5.89,0,1,0,19,20.42l5.38,5.38-3,5.21H14.63a5.86,5.86,0,1,0,0,2h6.74l3,5.21L19,43.58A5.86,5.86,0,1,0,20.42,45l5-5,.69,1.2a1,1,0,0,0,.87.5h4v7.67a5.86,5.86,0,1,0,2,0V41.7h4a1,1,0,0,0,.87-.5l.69-1.2,5,5A5.86,5.86,0,1,0,45,43.58l-5.38-5.37,3-5.21h6.74a5.86,5.86,0,1,0,5.77-6.86ZM45.63,12.91a3.86,3.86,0,1,1,0,5.46A3.85,3.85,0,0,1,45.63,12.91Zm-17.49-4A3.86,3.86,0,1,1,32,12.72,3.86,3.86,0,0,1,28.14,8.86ZM12.91,18.37a3.86,3.86,0,1,1,5.46,0A3.86,3.86,0,0,1,12.91,18.37Zm5.46,32.72a3.86,3.86,0,1,1,0-5.46A3.86,3.86,0,0,1,18.37,51.09Zm17.49,4A3.86,3.86,0,1,1,32,51.28,3.86,3.86,0,0,1,35.86,55.14Zm15.23-9.51a3.86,3.86,0,1,1-2.73-1.13A3.86,3.86,0,0,1,51.09,45.63ZM8.86,35.86A3.86,3.86,0,1,1,12.72,32,3.86,3.86,0,0,1,8.86,35.86ZM36.45,39.7h-8.9L23.1,32l4.45-7.7h8.9L40.9,32Zm18.69-3.84A3.86,3.86,0,1,1,59,32,3.86,3.86,0,0,1,55.14,35.86Z"></path></svg>