<svg height='100px' width='100px'  fill="#000000" xmlns="http://www.w3.org/2000/svg" xmlns:xlink="http://www.w3.org/1999/xlink" viewBox="0 0 84 84" version="1.1" x="0px" y="0px"><title>Planet4</title><desc>Created with Sketch.</desc><g stroke="none" stroke-width="1" fill="none" fill-rule="evenodd"><g fill="#000000"><path d="M70.0910171,31.4462087 C71.3250147,34.7291726 72,38.2857607 72,42 C72,42.4962817 71.9879493,42.9897488 71.9641247,43.4801247 C75.9832997,40.6451549 78.1084028,37.8800269 77.6113336,35.7269835 C77.1959978,33.9279667 74.5682414,32.3496466 70.0910171,31.4462087 L70.0910171,31.4462087 Z M68.0217293,27.0610072 C62.8433271,18.0603538 53.1293993,12 42,12 C25.4314575,12 12,25.4314575 12,42 C12,47.525765 13.4939613,52.7025967 16.1000064,57.1486174 C10.0436849,56.4995207 6.07395365,54.8249981 5.50794877,52.3733616 C5.19875009,51.0340749 6.04244179,49.2143228 8.20472905,47.1029796 C8.99503201,46.3312964 9.01012628,45.0650564 8.23844305,44.2747534 C7.46675982,43.4844504 6.20051983,43.4693562 5.41021687,44.2410394 C2.35203322,47.2271715 0.92516228,50.3047784 1.61046851,53.2731658 C2.74654785,58.1940661 9.46941615,60.9091599 19.1149533,61.398757 C24.6178505,67.8841774 32.8282743,72 42,72 C56.2657208,72 68.2057875,62.0426913 71.2492509,48.6990234 C78.5130891,44.2979844 82.5562877,39.3642874 81.5088138,34.8271793 C80.5245747,30.5639713 75.5949917,28.015458 68.0217293,27.0610072 L68.0217293,27.0610072 Z M64.7591722,29.4195204 C60.3263916,21.4173353 51.795839,16 42,16 C27.6405965,16 16,27.6405965 16,42 C16,47.7817031 17.887183,53.122631 21.079164,57.4403987 C27.5787368,57.5458371 35.5776058,56.7205794 44.0341028,54.7682433 C53.4144386,52.6026221 61.6807558,49.4374016 67.6727221,46.1367236 C67.8881046,44.7895558 68,43.4078452 68,42 C68,37.7705206 66.9901049,33.7769149 65.1982983,30.2471663 C64.9907776,30.0121748 64.8385363,29.7290912 64.7591722,29.4195204 L64.7591722,29.4195204 Z M66.2487375,51.400123 C62.4806809,61.1134945 53.0445552,68 42,68 C35.3748109,68 29.3283867,65.5220132 24.7369966,61.4423089 C30.8369507,61.2515743 37.7368943,60.3272848 44.933907,58.6657235 C52.9885477,56.8061632 60.3039426,54.27972 66.2487375,51.400123 L66.2487375,51.400123 Z M20,42 C20,43.1045695 20.8954305,44 22,44 C23.1045695,44 24,43.1045695 24,42 C24,40.2333829 24.2539277,38.5029837 24.7482494,36.8457484 C25.0639753,35.7872632 24.46185,34.6732449 23.4033648,34.357519 C22.3448796,34.0417931 21.2308614,34.6439184 20.9151354,35.7024036 C20.3104361,37.7296848 20,39.8451624 20,42 L20,42 Z M42,20 C39.822214,20 37.6846959,20.3170852 35.6379004,20.9344838 C31.3954608,22.2141799 27.6448358,24.755612 24.8704939,28.1938324 C24.1768579,29.0534502 24.3114127,30.3126113 25.1710305,31.0062474 C26.0306483,31.6998834 27.2898094,31.5653286 27.9834454,30.7057108 C30.2552669,27.8902599 33.3250984,25.8101352 36.793058,24.7640544 C38.4662212,24.2593588 40.2145973,24 42,24 C43.1422781,24 44.2699122,24.1061464 45.3733558,24.3152085 C46.4586185,24.5208261 47.5050837,23.8077327 47.7107012,22.72247 C47.9163187,21.6372072 47.2032254,20.590742 46.1179627,20.3851245 C44.7693514,20.1296121 43.3924326,20 42,20 L42,20 Z M78,10 C78,6.13400675 74.8659932,3 71,3 C67.1340068,3 64,6.13400675 64,10 C64,13.8659932 67.1340068,17 71,17 C74.8659932,17 78,13.8659932 78,10 L78,10 Z M68,10 C68,8.34314575 69.3431458,7 71,7 C72.6568542,7 74,8.34314575 74,10 C74,11.6568542 72.6568542,13 71,13 C69.3431458,13 68,11.6568542 68,10 L68,10 Z M9,21 C10.6568542,21 12,19.6568542 12,18 C12,16.3431458 10.6568542,15 9,15 C7.34314575,15 6,16.3431458 6,18 C6,19.6568542 7.34314575,21 9,21 L9,21 Z"></path></g></g></svg>