<svg height='100px' width='100px'  fill="#000000" xmlns="http://www.w3.org/2000/svg" xmlns:xlink="http://www.w3.org/1999/xlink" version="1.1" x="0px" y="0px" viewBox="0 0 64 64" enable-background="new 0 0 64 64" xml:space="preserve"><g><g><path d="M45.945,62.585H18.054c-4.411,0-8-3.589-8-8V9.415c0-4.411,3.589-8,8-8h27.891c4.411,0,8,3.589,8,8v45.17    C53.945,58.996,50.356,62.585,45.945,62.585z M18.054,3.415c-3.309,0-6,2.691-6,6v45.17c0,3.309,2.691,6,6,6h27.891    c3.309,0,6-2.691,6-6V9.415c0-3.309-2.691-6-6-6H18.054z"></path></g><g><path d="M38.193,40.789c-2.389,0-4.621-0.999-6.194-2.725c-1.573,1.726-3.805,2.725-6.193,2.725c-4.613,0-8.366-3.718-8.366-8.288    c0-4.083,2.591-6.028,5.592-8.28c2.651-1.99,5.657-4.246,8.095-8.606c0.175-0.313,0.505-0.509,0.864-0.512    c0.003,0,0.006,0,0.009,0c0.355,0,0.685,0.188,0.863,0.496c2.4,4.111,5.391,6.504,8.029,8.616    c3.039,2.432,5.664,4.533,5.664,8.287C46.557,37.071,42.805,40.789,38.193,40.789z M32,35.434L32,35.434    c0.339,0,0.654,0.172,0.839,0.455c1.18,1.816,3.181,2.9,5.354,2.9c3.509,0,6.363-2.821,6.363-6.288    c0-2.792-2.062-4.442-4.914-6.725c-2.346-1.877-5.202-4.164-7.625-7.765c-2.481,3.83-5.395,6.016-7.785,7.81    c-2.886,2.166-4.793,3.597-4.793,6.681c0,3.467,2.856,6.288,6.366,6.288c2.173,0,4.175-1.084,5.355-2.9    C31.346,35.604,31.662,35.434,32,35.434z"></path><path d="M37.752,48.898H26.247c-0.475,0-0.885-0.334-0.98-0.8c-0.095-0.466,0.151-0.934,0.588-1.12    c0.039-0.017,4.183-1.861,5.167-6.438c0.099-0.461,0.506-0.79,0.978-0.79l0,0c0.471,0,0.879,0.329,0.978,0.79    c0.981,4.568,5.002,6.367,5.173,6.441c0.434,0.188,0.677,0.657,0.58,1.121C38.634,48.565,38.226,48.898,37.752,48.898z     M29.504,46.898h5.008c-0.878-0.792-1.8-1.851-2.509-3.213C31.296,45.051,30.379,46.108,29.504,46.898z"></path></g></g></svg>