<svg height='100px' width='100px'  fill="#000000" xmlns="http://www.w3.org/2000/svg" xmlns:xlink="http://www.w3.org/1999/xlink" version="1.1" x="0px" y="0px" viewBox="0 0 69 69" style="enable-background:new 0 0 69 69;" xml:space="preserve"><g><path d="M24.9265,26.16577c-0.39063-0.39063-1.02344-0.39063-1.41406,0l-1.76587,1.76569l-1.76587-1.76569   c-0.39063-0.39063-1.02344-0.39063-1.41406,0s-0.39063,1.02344,0,1.41406l1.76581,1.76563l-1.76581,1.76563   c-0.39063,0.39063-0.39063,1.02344,0,1.41406c0.19531,0.19531,0.45117,0.29297,0.70703,0.29297s0.51172-0.09766,0.70703-0.29297   l1.76587-1.76569l1.76587,1.76569c0.19531,0.19531,0.45117,0.29297,0.70703,0.29297s0.51172-0.09766,0.70703-0.29297   c0.39063-0.39063,0.39063-1.02344,0-1.41406l-1.76581-1.76563l1.76581-1.76563   C25.31713,27.18921,25.31713,26.5564,24.9265,26.16577z"></path><path d="M33.78831,32.52515c0.19531,0.19531,0.45117,0.29297,0.70703,0.29297s0.51172-0.09766,0.70703-0.29297   c0.39063-0.39063,0.39063-1.02344,0-1.41406l-1.76581-1.76563l1.76581-1.76563c0.39063-0.39063,0.39063-1.02344,0-1.41406   s-1.02344-0.39063-1.41406,0l-1.76587,1.76569l-1.76587-1.76569c-0.39063-0.39063-1.02344-0.39063-1.41406,0   s-0.39063,1.02344,0,1.41406l1.76581,1.76563l-1.76581,1.76563c-0.39063,0.39063-0.39063,1.02344,0,1.41406   c0.19531,0.19531,0.45117,0.29297,0.70703,0.29297s0.51172-0.09766,0.70703-0.29297l1.76587-1.76569L33.78831,32.52515z"></path><path d="M24.9265,36.47437c-0.39063-0.39063-1.02344-0.39063-1.41406,0l-1.76587,1.76569l-1.76587-1.76569   c-0.39063-0.39063-1.02344-0.39063-1.41406,0s-0.39063,1.02344,0,1.41406l1.76581,1.76563l-1.76581,1.76563   c-0.39063,0.39063-0.39063,1.02344,0,1.41406c0.19531,0.19531,0.45117,0.29297,0.70703,0.29297s0.51172-0.09766,0.70703-0.29297   l1.76587-1.76569l1.76587,1.76569c0.19531,0.19531,0.45117,0.29297,0.70703,0.29297s0.51172-0.09766,0.70703-0.29297   c0.39063-0.39063,0.39063-1.02344,0-1.41406l-1.76581-1.76563l1.76581-1.76563   C25.31713,37.4978,25.31713,36.86499,24.9265,36.47437z"></path><path d="M66.0266,42.14722c-2.25488-1.40137-6.64551-6.1377-7.96289-8.58789c-0.3335-0.61914-0.56396-1.23828-0.70508-1.8916   c-0.20654-0.95508-0.19092-2.01465,0.0459-3.06348c0.58643-2.60187,0.75238-4.71582,0.55334-6.62128l0.00385-0.00293L60.0717,20.37   c2.63926-2.01076,2.92717-5.90175,0.57001-8.27997c-2.35462-2.37567-6.22425-2.15484-8.29004,0.47998l-0.28998,0.37   l-0.00073,0.00092c-0.55847-0.33191-1.17816-0.60693-1.86737-0.74487c-1.51953-0.30176-3.49609,0.22559-4.33398,1.8252   c-0.25635,0.48828-0.06787,1.09277,0.42139,1.34961c0.49023,0.25879,1.09424,0.06738,1.3501-0.42188   c0.37744-0.7207,1.40332-0.94531,2.17041-0.79199c0.35144,0.0705,0.68231,0.21503,1.0022,0.3833l-4.29199,5.49976   c-4.45001-6.02002-11.59003-9.93005-19.63-9.93005c-13.44,0-24.38,10.94-24.38,24.39001s10.94,24.39001,24.38,24.39001   c16.13131,0,27.91222-15.49845,23.45001-31.08002l5.70953-4.362c0.00562,1.37482-0.17932,2.90582-0.58789,4.7168   c-0.49379,2.19076-0.23983,4.31569,0.84863,6.3418c1.46094,2.7168,6.15918,7.7793,8.66797,9.33984   c0.16455,0.10156,0.34717,0.15039,0.52734,0.15039c0.33398,0,0.66064-0.16699,0.8501-0.47168   C66.6389,43.0564,66.49535,42.43921,66.0266,42.14722z M54.16118,17.43085c0.34302,0.37689,0.65509,0.76801,0.91901,1.17004   c-0.28967,0.18958-0.58899,0.33923-0.86847,0.41913c-0.39001,0.10999-0.60004,0.06-0.63,0.02997   C53.48174,18.9201,53.57164,18.24042,54.16118,17.43085z M56.53264,17.17834c-0.27893-0.38855-0.58783-0.75555-0.91046-1.10864   c0.32306-0.20499,1.07408-0.5724,1.39954-0.40967C57.20781,15.93946,56.79343,16.79637,56.53264,17.17834z M26.8817,56.89001   c-12.34003,0-22.38-10.04999-22.38-22.39001c0-12.33997,10.03998-22.39001,22.38-22.39001   c7.58996,0,14.29999,3.79004,18.33996,9.58002l-1.94995,2.5c-3.43005-5.44-9.5-9.06-16.39001-9.06   c-10.67999,0-19.35999,8.69-19.35999,19.37s8.67999,19.35999,19.35999,19.35999c11.93165,0,21.16106-10.77189,19.08002-22.70996   L48.61168,29.12C52.12904,43.2718,41.33677,56.89001,26.8817,56.89001z M30.6317,41.76001   c0.20001,0.19,0.45001,0.28998,0.70996,0.28998c0.22003,0,0.43005-0.06,0.61005-0.19995l12.19-9.31   c0.07001,0.63995,0.10999,1.29999,0.10999,1.95996c0,9.57001-7.78998,17.35999-17.36999,17.35999   c-9.57001,0-17.35999-7.78998-17.35999-17.35999c0-9.57996,7.78998-17.37,17.35999-17.37c6.44,0,12.08002,3.52002,15.07001,8.75   L30.56169,40.44C30.2517,40.83002,30.28166,41.40002,30.6317,41.76001z M36.9417,35.52002   c24.41325-31.20351-0.21172,0.27076,15.48334-19.7915c0.02606,0.02399,0.05713,0.04926,0.08252,0.073   c0.07355,0.0686,0.14893,0.1394,0.22357,0.20923c-0.46967,0.58978-0.81952,1.21954-1.00946,1.82928   c-0.31995,1.04999-0.15997,2.01001,0.44,2.62c1.34704,1.34684,3.68247,0.34846,5.13-1.08002   c1.41259-1.41258,2.50118-3.73377,1.15002-5.13c-0.95001-0.95996-2.66998-0.77997-4.27002,0.37   c-0.00061,0.00043-0.00122,0.00104-0.00183,0.00146c-0.26801-0.25113-0.13845-0.13859-0.50726-0.4726l0.2691-0.34888   c1.28508-1.65815,3.76704-1.83293,5.28998-0.31c1.50382,1.52502,1.3076,4.02669-0.37,5.29004   C55.7948,21.11559,40.04564,33.1485,36.9417,35.52002z"></path></g></svg>