<svg height='100px' width='100px'  fill="#000000" xmlns="http://www.w3.org/2000/svg" xmlns:xlink="http://www.w3.org/1999/xlink" version="1.1" x="0px" y="0px" viewBox="0 0 64 64" style="enable-background:new 0 0 64 64;" xml:space="preserve"><path d="M61.3,31.8c-0.4-1.7-1.9-2.8-3.6-2.8H39v-0.9c0-1.7-1.4-3.1-3.1-3.1H33V12.8l5.8-1.4c1.3-0.3,2.3-1.5,2.2-2.9  c-0.2-2.9-2.8-3.1-3.6-2.9c-0.5,0.1-0.9,0.7-0.7,1.2c0.1,0.5,0.7,0.9,1.2,0.7C38.5,7.4,39,8.1,39,8.5c0,0.4-0.3,0.8-0.7,0.9l-12.1,3  c-0.3,0.1-1.1,0-1.2-0.9c0-0.4,0.3-0.8,0.7-0.9l8.4-2.1c0.5-0.1,0.9-0.7,0.7-1.2c-0.1-0.5-0.7-0.9-1.2-0.7l-8.4,2.1  c-1.3,0.3-2.3,1.5-2.2,2.9c0.3,3.3,3.4,2.9,3.7,2.9l4.3-1.1V25h-2.9c-1.7,0-3.1,1.4-3.1,3.1V29H10.3c-0.6,0-1,0.4-1,1s0.4,1,1,1  h47.3c0.8,0,1.5,0.5,1.7,1.3c2.2,8.9,2.2,18.4,0,27.3c-0.2,0.8-0.9,1.3-1.7,1.3c-0.6,0-1,0.4-1,1s0.4,1,1,1c1.7,0,3.2-1.2,3.6-2.8  C63.6,50.9,63.6,41.1,61.3,31.8z M37,29H27v-0.9c0-0.6,0.5-1.1,1.1-1.1h7.9c0.6,0,1.1,0.5,1.1,1.1V29z"></path><path d="M53.9,61H52c-0.6,0-1,0.4-1,1s0.4,1,1,1h1.9c0.6,0,1-0.4,1-1S54.4,61,53.9,61z"></path><path d="M48,61H6.4c-0.8,0-1.5-0.5-1.7-1.3c-2.2-8.9-2.2-18.4,0-27.3C4.9,31.5,5.6,31,6.4,31c0.6,0,1-0.4,1-1s-0.4-1-1-1  c-1.7,0-3.2,1.2-3.7,2.8c-2.3,9.3-2.3,19,0,28.3C3.2,61.8,4.7,63,6.4,63H48c0.6,0,1-0.4,1-1S48.6,61,48,61z"></path><path d="M57,58c0-0.6-0.4-1-1-1H41V36.1c0-1.7-1.4-3.1-3.1-3.1H26.1c-1.7,0-3.1,1.4-3.1,3.1V46c0,0.6,0.4,1,1,1s1-0.4,1-1v-9.9  c0-0.6,0.5-1.1,1.1-1.1H31v22h-6v-6.8c0-0.6-0.4-1-1-1s-1,0.4-1,1V57H8c-0.6,0-1,0.4-1,1s0.4,1,1,1h48C56.6,59,57,58.6,57,58z   M39,57h-6V35h4.9c0.6,0,1.1,0.5,1.1,1.1V57z"></path><path d="M55.6,45c-0.6,0-1,0.4-1,1s0.4,1,1,1c0.9,0,3.4-1,3-3.5l-1.3-7.9c-0.2-1.5-1.5-2.5-3-2.5H46c-0.8,0-1.6,0.3-2.2,0.9  C43.3,34.5,43,35.2,43,36V44c0,1.7,1.4,3,3,3h6c0.6,0,1-0.4,1-1s-0.4-1-1-1h-6c-0.6,0-1-0.5-1-1V36c0-0.3,0.1-0.5,0.3-0.7  c0.2-0.2,0.4-0.3,0.7-0.3h8.3c0.5,0,0.9,0.4,1,0.9l1.3,7.9C56.9,44.7,55.9,45,55.6,45z"></path><path d="M5.4,43.8c-0.1,0.8,0,3.1,2.7,3.2h10.1c1.5,0,2.8-1.2,2.8-2.8v-8.4c0-1.5-1.2-2.8-2.8-2.8H9.5c-1.4,0-2.5,1-2.7,2.3  L5.4,43.8z M7.3,44.1l1.4-8.4C8.8,35.3,9.1,35,9.5,35h8.7c0.4,0,0.8,0.3,0.8,0.8v8.4c0,0.4-0.3,0.8-0.8,0.8H8.1  C7.3,45,7.3,44.4,7.3,44.1z"></path><path d="M12.7,40.7l2-2c0.4-0.4,0.4-1,0-1.4s-1-0.4-1.4,0l-2,2c-0.4,0.4-0.4,1,0,1.4C11.7,41.1,12.5,40.9,12.7,40.7z"></path><path d="M13.3,42.7c0.5,0.5,1.2,0.2,1.4,0l2-2c0.4-0.4,0.4-1,0-1.4s-1-0.4-1.4,0l-2,2C12.9,41.7,12.9,42.3,13.3,42.7z"></path><path d="M50.7,37.3c-0.4-0.4-1-0.4-1.4,0l-2,2c-0.4,0.4-0.4,1,0,1.4c0.5,0.5,1.2,0.2,1.4,0l2-2C51.1,38.3,51.1,37.7,50.7,37.3z"></path><path d="M50.7,42.7l2-2c0.4-0.4,0.4-1,0-1.4s-1-0.4-1.4,0l-2,2c-0.4,0.4-0.4,1,0,1.4C49.8,43.1,50.5,42.9,50.7,42.7z"></path><path d="M2.3,19l18.6-5c0.5-0.1,0.9-0.7,0.7-1.2c-0.1-0.5-0.7-0.9-1.2-0.7L1.7,17c-0.5,0.1-0.9,0.7-0.7,1.2C1.4,19.2,2.2,19,2.3,19z  "></path><path d="M43.5,8l18.7-5c0.5-0.1,0.9-0.7,0.7-1.2c-0.1-0.5-0.7-0.8-1.2-0.7L43,6c-0.5,0.1-0.8,0.7-0.7,1.2C42.5,8.1,43.5,8,43.5,8z"></path></svg>