<svg height='100px' width='100px'  fill="#000000" xmlns="http://www.w3.org/2000/svg" xmlns:xlink="http://www.w3.org/1999/xlink" version="1.1" x="0px" y="0px" viewBox="0 0 100 100" enable-background="new 0 0 100 100" xml:space="preserve"><path fill-rule="evenodd" clip-rule="evenodd" d="M36.384,62.292c0.555-0.504,0.781-1.289,1.129-2.141  c0.17-0.414,2.67-6.877,2.734-7.131c0.182-0.723-0.773-3.99,0.594-6.479c0.678-1.234,1.794-1.994,2.266-2.467  c0.17-3.127,4.151-27.777,3.9-30.273c-0.053-0.524-0.887-0.864-0.876-3.158c0.01-2.228,0.982-3.388,2.238-4.705  c0.58-0.583,1.066-2.552,1.922-2.724c1.436-0.291,3.092,0.148,3.625,1.07c0.396,0.688,0.469,1.564,0.831,2.317  c1.396,1.223,1.538,3.387,1.368,5.468c-0.076,0.924-0.78,1.723-0.892,2.556c-0.084,0.63,1.799,29.269,2.377,30.251  c1.04,0.766,2.247,1.54,2.675,2.853c0.279,0.857,0.437,2.155,0.178,3.269c-0.092,0.399-0.475,0.857-0.475,1.367  c0,0.371,3.272,9.561,3.685,10.043c0.459,0.539,1.339-0.098,2.496,0.951c1.669,1.512,1.739,2.678,1.724,3.15  c-0.014,0.402-0.363,1.662,0.357,2.556c0.304,0.378,12.794,23.904,12.837,24.13c0.129,0.683-0.23,1.922-0.773,2.497  c-0.207,0.219-1.414,0.995-1.663,1.068c-0.447,0.133-15.773,0.166-16.226,0c-0.297-0.107-1.376-0.839-1.485-0.95  C60.785,95.665,59.606,83.711,50,83.711c-9.468,0-9.572,9.115-10.228,10.496c-0.124,0.261-1.255,1.696-2.14,2.08  c-1.549,0.672-16.035-0.628-16.938-0.416c-0.752-0.661-1.588-1.317-1.724-2.556c-0.036-0.326-0.106-0.689-0.06-0.951  c0.098-0.546,12.482-21.859,13.075-22.228c0.06-0.628-1.86-2.966,1.427-6.835C34.008,62.602,35.494,61.945,36.384,62.292z   M51.167,7.992c-1.083,0.792-2.239,1.228-2.183,3.425c0.021,0.792,0.73,1.52,0.892,2.258c0.317,1.455-3.621,31.945-4.219,32.392  c-0.253,1.452-1.995,1.414-2.497,2.615c-0.074,0.986,0.336,1.771,0.416,2.437c0.097,0.812,0.153,1.885-0.119,2.614  c-0.084,0.228-0.426,1.186-0.476,1.367c-0.112,0.409-2.385,5.411-2.496,5.646c-0.357,0.756-1.143,2.575-1.308,2.852  c-0.169,0.285-0.17,0.667-0.297,0.833c-0.625,0.812-3.031-0.095-3.924,1.803c-1.335,2.147-0.104,4.198-0.415,5.092  c-0.514,0.438-12.271,20.917-12.362,21.634c1.712,0.407,12.846,0.584,14.323,0.476c0.563-0.735,1.033-12.673,14.224-12.659  c10.398,0.011,11.829,12.201,12.758,13.075c3.262,0.082,13.089,0.168,14.264-0.357c0.184-0.702-12.17-22.075-12.714-23.545  c-0.263-0.712,0.661-2.025-0.067-3.419c-0.54-0.772-1.431-0.297-2.069-0.462c-0.456-0.117-1.986-1.792-2.266-2.47  c-0.108-0.262-3.59-9.756-3.625-9.925c-0.324-1.553,0.333-2.656,0.475-3.862c0.206-1.739-1.542-1.923-2.317-2.972  c-0.182-0.245-1.187-6.01-1.188-6.062c-0.034-0.674-1.391-24.174-1.558-25.734c-0.072-0.664-0.272-1.86,0.429-2.972  C54.338,9.705,51.137,7.743,51.167,7.992z"></path></svg>