<svg height='100px' width='100px'  fill="#000000" xmlns="http://www.w3.org/2000/svg" xmlns:xlink="http://www.w3.org/1999/xlink" version="1.1" x="0px" y="0px" viewBox="0 0 512 512" style="enable-background:new 0 0 512 512;" xml:space="preserve"><path d="M496,256c0-81.1-63.9-147.6-144-151.8V64c0-4.4-3.6-8-8-8h-80V16h-16v40h-80c-4.4,0-8,3.6-8,8v40.2  C79.9,108.4,16,174.9,16,256s63.9,147.6,144,151.8V432c0,4.4,3.6,8,8,8v56h16v-56h16v56h16v-56h16v56h16v-56h16v56h16v-56h16v56h16  v-56h16v56h16v-56c4.4,0,8-3.6,8-8v-24.2C432.1,403.6,496,337.1,496,256z M336,424H176v-16h160V424z M172.6,133.7l14.4-13.7h49.7  c-70.3,77-70.3,195,0,272h-49.7l-14.4-13.7c-67.6-64-70.4-170.6-6.4-238.2C168.3,137.9,170.4,135.8,172.6,133.7z M256,388.9  c-73.4-71.8-74.7-189.5-2.9-263c1-1,1.9-1.9,2.9-2.9c73.4,71.8,74.7,189.5,2.9,263C257.9,387,257,388,256,388.9z M339.4,378.3  L324.9,392h-49.7c70.3-77,70.3-195,0-272h49.7l14.4,13.7c67.6,64,70.4,170.6,6.4,238.2C343.7,374.1,341.6,376.2,339.4,378.3  L339.4,378.3z M176,72h160v32H176V72z M32,256c0-73.6,58.7-133.7,131.7-135.9l-2.1,2c-74,70.1-77.1,186.8-7.1,260.8  c2.3,2.4,4.6,4.8,7.1,7.1l2.1,2C90.7,389.7,32,329.6,32,256z M348.3,391.9l2.1-2c74-70.1,77.1-186.8,7.1-260.8  c-2.3-2.4-4.6-4.8-7.1-7.1l-2.1-2c73,2.3,131.7,62.4,131.7,135.9S421.3,389.7,348.3,391.9z"></path></svg>