<svg height='100px' width='100px'  fill="#000000" xmlns="http://www.w3.org/2000/svg" data-name="Layer 1" viewBox="0 0 100 100" x="0px" y="0px"><title>A</title><path d="M14.74817,68.89856a2.00966,2.00966,0,0,0,2.842,0l2.38434-2.38434A39.09928,39.09928,0,0,0,44.39136,76.631V90.98029H25.11908a2.00986,2.00986,0,0,0,0,4.01971H67.68433a2.00986,2.00986,0,0,0,0-4.01971H48.41107V76.63068A39.42226,39.42226,0,0,0,75.66431,10.82446L78.05817,8.4306a2.00963,2.00963,0,0,0-2.842-2.842L66.99078,13.8139A31.19187,31.19187,0,0,0,22.96985,57.83484l-8.22168,8.22168A2.00966,2.00966,0,0,0,14.74817,68.89856ZM81.82074,37.24847A35.41205,35.41205,0,0,1,22.82361,63.66516l2.98822-2.98822A31.19189,31.19189,0,0,0,69.83289,16.65588l2.98254-2.98254A35.11964,35.11964,0,0,1,81.82074,37.24847ZM44.52649,56.43152c-6.692,3.34125-13.05139,4.08649-16.851,1.52344l9.18725-9.1872Zm-5.68073-9.64679,7.556-7.55591,9.27991,9.28A48.6149,48.6149,0,0,1,47.095,55.034Zm7.81507,11.78113L52.957,64.862a28.52173,28.52173,0,0,1-19.83643-2.51782C37.17029,62.43359,41.86951,61.1217,46.66083,58.56586Zm2.51532-1.45075a52.70864,52.70864,0,0,0,8.4884-6.62341l7.79858,7.79864a28.18586,28.18586,0,0,1-9.44592,5.6659Zm10.47143-8.60644a52.70024,52.70024,0,0,0,6.62384-8.489l6.84095,6.841a28.18768,28.18768,0,0,1-5.6662,9.44665Zm8.07459-11.00428c2.5556-4.79113,3.86743-9.49,3.77795-13.53967a28.52188,28.52188,0,0,1,2.518,19.83563ZM67.111,18.51959c2.56293,3.79956,1.81781,10.15869-1.52313,16.85047l-7.66364-7.6637Zm-2.92071,19.419a48.61415,48.61415,0,0,1-6.52558,8.58722l-9.28-9.28,7.55646-7.5564ZM46.40173,35.26276,37.12128,25.9823a48.61353,48.61353,0,0,1,8.5874-6.52545l8.24945,8.24951Zm-1.983,1.983-7.556,7.55591L28.6131,36.55206a48.60631,48.60631,0,0,1,6.52521-8.58673Zm-9.539,9.53894-9.18726,9.18719c-2.56329-3.79986-1.81817-10.15942,1.523-16.8515ZM65.12793,16.53662l-9.18677,9.18671L48.2771,18.05927C54.96887,14.71832,61.32819,13.97333,65.12793,16.53662ZM59.68225,12.147c-4.04962-.08941-8.74847,1.22235-13.53949,3.77784L39.84729,9.62939A28.522,28.522,0,0,1,59.68225,12.147ZM36.787,10.53516l6.84039,6.84039a52.70938,52.70938,0,0,0-8.489,6.6239l-7.79816-7.79816A28.18505,28.18505,0,0,1,36.787,10.53516ZM25.3573,18.18427l7.7981,7.79815a52.71,52.71,0,0,0-6.62354,8.48841l-6.84051-6.84058A28.18371,28.18371,0,0,1,25.3573,18.18427ZM18.78552,30.69043l6.29566,6.29572c-2.55579,4.79125-3.86768,9.49023-3.77826,13.54A28.52169,28.52169,0,0,1,18.78552,30.69043Z"></path></svg>