<svg height='100px' width='100px'  fill="#000000" xmlns="http://www.w3.org/2000/svg" xmlns:xlink="http://www.w3.org/1999/xlink" version="1.1" x="0px" y="0px" viewBox="0 0 48 48" enable-background="new 0 0 48 48" xml:space="preserve"><path d="M35.284,2.263c-0.716,0-1.423,0.188-2.048,0.542c-3.525,2.005-5.441,5.756-5.297,9.555h-7.884  c0.112-2.84-0.906-5.717-3.076-7.873c-0.66-0.656-1.405-1.222-2.214-1.682c-0.624-0.355-1.332-0.542-2.046-0.542  c-1.49,0-2.873,0.804-3.608,2.098C8.563,5.324,8.424,6.441,8.718,7.51c0.293,1.068,0.985,1.958,1.949,2.505  c0.624,0.354,1.331,0.542,2.047,0.542c1.355,0,2.628-0.663,3.403-1.773c0.001,0,0.117,0.024,0.117,0.024  c0.655,3.188-0.416,6.547-2.816,8.789c-2.685,2.825-4.108,6.526-4.009,10.422c0.101,3.896,1.711,7.52,4.536,10.203  c1.22,1.158,2.611,2.087,4.144,2.764c-1.138,0.771-2.101,1.742-2.865,2.895c-0.363,0.551-0.213,1.294,0.336,1.658  c0.197,0.131,0.426,0.199,0.662,0.199h15.543c0.658,0,1.195-0.537,1.195-1.195c0-0.234-0.068-0.463-0.199-0.662  c-0.766-1.153-1.729-2.125-2.863-2.894c7.187-3.177,10.594-11.548,7.6-18.867c-0.734-1.797-1.803-3.405-3.175-4.779  c-2.236-2.242-3.191-5.432-2.554-8.533l-0.49-0.101l0.607,0.076c0.775,1.11,2.047,1.773,3.403,1.773  c0.851,0,1.671-0.258,2.371-0.747c1.875-1.309,2.335-3.899,1.026-5.774C37.912,2.926,36.641,2.263,35.284,2.263z M29.296,17.134  c0.458,0.808,1.024,1.552,1.683,2.214c3.797,3.822,3.797,10.042,0,13.864c-0.996,1.002-2.172,1.753-3.451,2.244V13.359h0.5  C28.201,14.651,28.613,15.933,29.296,17.134z M24.502,36.09v-22.73h0.512v22.702C24.846,36.079,24.673,36.081,24.502,36.09z   M21.477,35.777V13.359h0.513v22.546C21.816,35.87,21.646,35.823,21.477,35.777z M22.989,13.359h0.513v22.73  c-0.171-0.009-0.343-0.011-0.513-0.029V13.359z M26.014,13.359h0.514v22.417c-0.17,0.045-0.34,0.094-0.514,0.129V13.359z   M20.477,13.359v22.097c-1.261-0.483-2.421-1.222-3.407-2.201c-1.863-1.853-2.894-4.318-2.901-6.945  c-0.009-2.627,1.007-5.1,2.858-6.963c1.674-1.684,2.646-3.799,2.941-5.988L20.477,13.359L20.477,13.359z M37.089,8.991  c-0.53,0.371-1.153,0.567-1.799,0.567c-1.028,0-1.995-0.503-2.583-1.346c-0.324-0.464-1.014-0.59-1.484-0.263  c-0.226,0.157-0.379,0.391-0.435,0.659c-0.704,3.431,0.353,6.96,2.827,9.44c1.275,1.28,2.271,2.778,2.955,4.452  c2.838,6.935-0.495,14.886-7.43,17.723c-0.398,0.163-0.592,0.62-0.43,1.021c0.063,0.15,0.167,0.277,0.313,0.369  c1.166,0.725,2.144,1.674,2.902,2.819c0.022,0.034,0.034,0.071,0.034,0.11c0,0.107-0.088,0.195-0.196,0.195H16.222  c-0.039,0-0.077-0.011-0.109-0.033c-0.09-0.06-0.114-0.183-0.055-0.271c0.76-1.146,1.738-2.096,2.905-2.821  c0.366-0.228,0.479-0.71,0.252-1.077c-0.086-0.14-0.217-0.25-0.368-0.313c-1.567-0.641-2.984-1.557-4.212-2.725  c-2.632-2.5-4.133-5.875-4.226-9.504c-0.093-3.628,1.233-7.076,3.712-9.687c2.633-2.456,3.817-6.173,3.094-9.699  c-0.102-0.494-0.54-0.852-1.044-0.852c-0.071,0-0.144,0.007-0.216,0.022c-0.268,0.056-0.502,0.21-0.658,0.434  c-0.897,1.287-2.765,1.713-4.136,0.935C10.43,8.73,9.904,8.056,9.682,7.246c-0.222-0.81-0.117-1.659,0.299-2.39  c0.559-0.982,1.607-1.592,2.739-1.592c0.541,0,1.078,0.142,1.552,0.412c0.731,0.416,1.405,0.928,2.003,1.521  c3.719,3.696,3.738,9.728,0.043,13.447c-2.04,2.053-3.159,4.777-3.149,7.671c0.009,2.894,1.144,5.611,3.196,7.651  c1.657,1.646,3.756,2.681,6.024,3.018c0.033,0.008,0.064,0.02,0.101,0.02c0.006,0,0.01-0.002,0.016-0.002  c0.493,0.067,0.99,0.115,1.496,0.115h0.001l0,0l0,0c0.506,0,1.003-0.048,1.495-0.115c0.006,0,0.011,0.002,0.018,0.002  c0.037,0,0.07-0.014,0.105-0.021c2.29-0.342,4.404-1.392,6.066-3.063c4.185-4.211,4.185-11.063,0-15.274  c-0.596-0.598-1.106-1.272-1.521-2.003c-2.593-4.56-0.992-10.376,3.564-12.968c1.375-0.779,3.238-0.352,4.138,0.935  C38.861,6.032,38.512,7.997,37.089,8.991z"></path></svg>