<svg height='100px' width='100px'  fill="#000000" xmlns:dc="http://purl.org/dc/elements/1.1/" xmlns:cc="http://creativecommons.org/ns#" xmlns:rdf="http://www.w3.org/1999/02/22-rdf-syntax-ns#" xmlns:svg="http://www.w3.org/2000/svg" xmlns="http://www.w3.org/2000/svg" xmlns:sodipodi="http://sodipodi.sourceforge.net/DTD/sodipodi-0.dtd" xmlns:inkscape="http://www.inkscape.org/namespaces/inkscape" viewBox="0 0 72 80.000002" version="1.1" x="0px" y="0px"><g transform="translate(0,-972.3622)"><path style="color:#000000;font-style:normal;font-variant:normal;font-weight:normal;font-stretch:normal;font-size:medium;line-height:normal;font-family:sans-serif;text-indent:0;text-align:start;text-decoration:none;text-decoration-line:none;text-decoration-style:solid;text-decoration-color:#000000;letter-spacing:normal;word-spacing:normal;text-transform:none;direction:ltr;block-progression:tb;writing-mode:lr-tb;baseline-shift:baseline;text-anchor:start;white-space:normal;clip-rule:nonzero;display:inline;overflow:visible;visibility:visible;opacity:1;isolation:auto;mix-blend-mode:normal;color-interpolation:sRGB;color-interpolation-filters:linearRGB;solid-color:#000000;solid-opacity:1;fill:#000000;fill-opacity:1;fill-rule:evenodd;stroke:none;stroke-width:1.44000006;stroke-linecap:butt;stroke-linejoin:miter;stroke-miterlimit:4;stroke-dasharray:none;stroke-dashoffset:0;stroke-opacity:1;color-rendering:auto;image-rendering:auto;shape-rendering:auto;text-rendering:auto;enable-background:accumulate" d="m 7.1992188,997.42188 0,1.43945 64.8007812,0 0,-1.43945 -64.8007812,0 z"></path><path style="opacity:1;fill:#000000;fill-opacity:1;stroke:none;stroke-width:16;stroke-linecap:round;stroke-linejoin:round;stroke-miterlimit:4;stroke-dasharray:none;stroke-dashoffset:0;stroke-opacity:1" d="m 23.71906,994.4519 a 6.7529162,6.7529162 0 0 1 -6.68772,-6.74972 6.7529162,6.7529162 0 0 1 6.66891,-6.75 7.2504994,7.2504994 0 0 0 -2.62665,-0.5005 7.2504994,7.2504994 0 0 0 -7.25049,7.2505 7.2504994,7.2504994 0 0 0 7.25049,7.2505 7.2504994,7.2504994 0 0 0 2.64546,-0.50078 z"></path><path transform="matrix(0.03582298,-0.00372325,0.00372325,0.03582298,17.29189,958.61258)" style="opacity:1;fill:#000000;fill-opacity:1;stroke:none;stroke-width:16;stroke-linecap:round;stroke-linejoin:round;stroke-miterlimit:4;stroke-dasharray:none;stroke-dashoffset:0;stroke-opacity:1" d="m 146.50581,739.61128 -23.35626,-19.523 -26.929948,14.23771 11.349998,-28.24607 -21.862676,-21.21221 30.370946,2.06598 13.41807,-27.34757 7.42028,29.5229 30.1555,4.31048 -25.78496,16.18019 z"></path><path transform="matrix(0.03582298,-0.00372325,0.00372325,0.03582298,21.56752,961.7327)" style="opacity:1;fill:#000000;fill-opacity:1;stroke:none;stroke-width:16;stroke-linecap:round;stroke-linejoin:round;stroke-miterlimit:4;stroke-dasharray:none;stroke-dashoffset:0;stroke-opacity:1" d="m 146.50581,739.61128 -23.35626,-19.523 -26.929948,14.23771 11.349998,-28.24607 -21.862676,-21.21221 30.370946,2.06598 13.41807,-27.34757 7.42028,29.5229 30.1555,4.31048 -25.78496,16.18019 z"></path><path transform="matrix(0.03582298,-0.00372325,0.00372325,0.03582298,13.01617,961.7327)" style="opacity:1;fill:#000000;fill-opacity:1;stroke:none;stroke-width:16;stroke-linecap:round;stroke-linejoin:round;stroke-miterlimit:4;stroke-dasharray:none;stroke-dashoffset:0;stroke-opacity:1" d="m 146.50581,739.61128 -23.35626,-19.523 -26.929948,14.23771 11.349998,-28.24607 -21.862676,-21.21221 30.370946,2.06598 13.41807,-27.34757 7.42028,29.5229 30.1555,4.31048 -25.78496,16.18019 z"></path><path transform="matrix(0.03582298,-0.00372325,0.00372325,0.03582298,14.65633,966.46561)" style="opacity:1;fill:#000000;fill-opacity:1;stroke:none;stroke-width:16;stroke-linecap:round;stroke-linejoin:round;stroke-miterlimit:4;stroke-dasharray:none;stroke-dashoffset:0;stroke-opacity:1" d="m 146.50581,739.61128 -23.35626,-19.523 -26.929948,14.23771 11.349998,-28.24607 -21.862676,-21.21221 30.370946,2.06598 13.41807,-27.34757 7.42028,29.5229 30.1555,4.31048 -25.78496,16.18019 z"></path><path transform="matrix(0.03582298,-0.00372325,0.00372325,0.03582298,19.92745,966.46561)" style="opacity:1;fill:#000000;fill-opacity:1;stroke:none;stroke-width:16;stroke-linecap:round;stroke-linejoin:round;stroke-miterlimit:4;stroke-dasharray:none;stroke-dashoffset:0;stroke-opacity:1" d="m 146.50581,739.61128 -23.35626,-19.523 -26.929948,14.23771 11.349998,-28.24607 -21.862676,-21.21221 30.370946,2.06598 13.41807,-27.34757 7.42028,29.5229 30.1555,4.31048 -25.78496,16.18019 z"></path><path style="color:#000000;font-style:normal;font-variant:normal;font-weight:normal;font-stretch:normal;font-size:medium;line-height:normal;font-family:sans-serif;text-indent:0;text-align:start;text-decoration:none;text-decoration-line:none;text-decoration-style:solid;text-decoration-color:#000000;letter-spacing:normal;word-spacing:normal;text-transform:none;direction:ltr;block-progression:tb;writing-mode:lr-tb;baseline-shift:baseline;text-anchor:start;white-space:normal;clip-rule:nonzero;display:inline;overflow:visible;visibility:visible;opacity:1;isolation:auto;mix-blend-mode:normal;color-interpolation:sRGB;color-interpolation-filters:linearRGB;solid-color:#000000;solid-opacity:1;fill:#000000;fill-opacity:1;fill-rule:nonzero;stroke:none;stroke-width:1.43999994;stroke-linecap:butt;stroke-linejoin:miter;stroke-miterlimit:4;stroke-dasharray:none;stroke-dashoffset:0;stroke-opacity:1;color-rendering:auto;image-rendering:auto;shape-rendering:auto;text-rendering:auto;enable-background:accumulate" d="m 7.1992188,1019.7422 0,-0.7207 0,-42.47853 64.8007812,0 0,43.19923 -64.8007812,0 z m 1.4414062,-1.4395 61.919922,0 0,-40.32028 -61.919922,0 0,40.32028 z"></path><path style="color:#000000;font-style:normal;font-variant:normal;font-weight:normal;font-stretch:normal;font-size:medium;line-height:normal;font-family:sans-serif;text-indent:0;text-align:start;text-decoration:none;text-decoration-line:none;text-decoration-style:solid;text-decoration-color:#000000;letter-spacing:normal;word-spacing:normal;text-transform:none;direction:ltr;block-progression:tb;writing-mode:lr-tb;baseline-shift:baseline;text-anchor:start;white-space:normal;clip-rule:nonzero;display:inline;overflow:visible;visibility:visible;opacity:1;isolation:auto;mix-blend-mode:normal;color-interpolation:sRGB;color-interpolation-filters:linearRGB;solid-color:#000000;solid-opacity:1;fill:#000000;fill-opacity:1;fill-rule:nonzero;stroke:none;stroke-width:1.44000006;stroke-linecap:butt;stroke-linejoin:round;stroke-miterlimit:4;stroke-dasharray:none;stroke-dashoffset:0;stroke-opacity:1;color-rendering:auto;image-rendering:auto;shape-rendering:auto;text-rendering:auto;enable-background:accumulate" d="M 0.72070312,972.58203 A 0.72007203,0.72007203 0 0 0 0,973.30273 l 0,78.11917 a 0.72007203,0.72007203 0 0 0 0.72070312,0.7207 l 7.19921878,0 a 0.72007203,0.72007203 0 0 0 0.7207031,-0.7207 l 0,-32.4004 -1.4414062,0 0,31.6816 -5.7597657,0 0,-76.68162 5.7597657,0 0,3.41993 1.4414062,0 0,-4.13868 a 0.72007203,0.72007203 0 0 0 -0.7207031,-0.7207 l -7.19921878,0 z"></path></g></svg>