<svg height='100px' width='100px'  fill="#000000" xmlns="http://www.w3.org/2000/svg" viewBox="0 0 48 48" x="0px" y="0px"><title>15-origami</title><g data-name="15-origami"><path d="M40.10791,23.07648,47.86816,9.49609A.99961.99961,0,0,0,47,8H30a.9936.9936,0,0,0-.81744.43884c-.00617.00885-.01752.01148-.02338.02063L20.98505,21.1748,9.83209,4.44537A1.26481,1.26481,0,0,0,9,4a1.1501,1.1501,0,0,0-.707.293l-8,8A.99991.99991,0,0,0,1,14H8v9a1.37412,1.37412,0,0,0,.10547.42914c.10179.13545.207.29724.21191.30182l15,14.00049A1.36205,1.36205,0,0,0,24,38a1.36261,1.36261,0,0,0,.68262-.26855l7.08288-6.61091L46.34473,43.75586a1.00033,1.00033,0,0,0,1.584-1.127ZM8,12H3.41406L8,7.41406Zm37.27637-2L38.94922,21.07227,31.832,10ZM10,13V8.30273L19.13184,22H10ZM23,34.69855,11.53711,24H23ZM22.832,22,30,10.84912,37.168,22ZM25,34.69855V24H36.46289Zm8.4668-4.75128,5.168-5.168L44.541,39.5459Z"></path></g></svg>