<svg height='100px' width='100px'  fill="#000000" xmlns="http://www.w3.org/2000/svg" xmlns:xlink="http://www.w3.org/1999/xlink" version="1.1" x="0px" y="0px" viewBox="0 0 59.21 52" enable-background="new 0 0 59.21 52" xml:space="preserve"><g><path d="M58.57,24.75C58.12,24.27,57.49,24,56.84,24h-0.19c0.88-1.51,1.36-3.23,1.36-5c0-3.99-2.39-7.58-6.01-9.16   C51.91,4.4,47.46,0,42,0c-5.46,0-9.9,4.4-9.99,9.84c-0.2-0.05-0.41-0.08-0.63-0.08c-0.89,0-1.73,0.43-2.24,1.16l-0.25,0.35   c-0.2,0.28-0.6,0.39-0.91,0.25l-0.39-0.18c-0.37-0.17-0.75-0.26-1.15-0.26c-1.43,0-2.6,1.07-2.73,2.49l-0.04,0.43   c-0.01,0.15-0.08,0.37-0.17,0.6c-0.23-0.11-0.39-0.33-0.42-0.6l-0.04-0.43c-0.08-0.83-0.52-1.54-1.16-1.99l3.14-4.46   c1.27-1.8,0.84-4.3-0.97-5.57c-0.68-0.48-1.47-0.73-2.3-0.73c-1.31,0-2.53,0.63-3.28,1.69l-5.76,8.17   c-0.19,0.28-0.34,0.57-0.45,0.87c-0.1,0-0.2-0.01-0.29-0.05l-0.39-0.18c-0.37-0.17-0.75-0.25-1.15-0.25c-1.43,0-2.6,1.07-2.73,2.49   l-0.04,0.43c-0.03,0.36-0.31,0.64-0.67,0.67l-0.43,0.04c-0.89,0.08-1.68,0.59-2.12,1.36c-0.44,0.77-0.49,1.71-0.11,2.52l0.18,0.39   c0.15,0.32,0.05,0.71-0.25,0.91l-0.35,0.25c-0.73,0.51-1.16,1.35-1.16,2.24c0,0.59,0.21,1.15,0.55,1.62H2.37   c-0.65,0-1.28,0.27-1.73,0.75c-0.45,0.48-0.68,1.14-0.64,1.8c0.59,8.75,6.16,13.14,14.33,17.04c0.91,0.44,1.67,1.16,2.12,2.04   c0.45,0.86,0.38,1.97-0.19,2.92c-0.43,0.71-0.44,1.57-0.03,2.29c0.41,0.72,1.15,1.16,1.98,1.16H41c0.83,0,1.57-0.43,1.98-1.16   c0.41-0.72,0.4-1.58-0.04-2.31c-0.56-0.93-0.63-2.04-0.18-2.9c0.46-0.88,1.21-1.61,2.12-2.04c8.17-3.9,13.74-8.29,14.33-17.04   C59.25,25.89,59.02,25.23,58.57,24.75z M56,19c0,1.82-0.62,3.58-1.77,5H49v-4c0-0.55-0.45-1-1-1s-1,0.45-1,1v4h-3.53   c0.08-0.11,0.15-0.23,0.21-0.35c0-0.01,0.01-0.01,0.01-0.02c0.09-0.17,0.15-0.35,0.2-0.54c0.01-0.05,0.02-0.09,0.03-0.14   c0.04-0.19,0.07-0.38,0.07-0.58c0-0.89-0.43-1.73-1.16-2.24l-0.23-0.16c0.08,0,0.16-0.02,0.24-0.02c0.12-0.01,0.24-0.02,0.36-0.04   c0.2-0.02,0.39-0.05,0.59-0.09c0.11-0.02,0.23-0.04,0.34-0.06c0.21-0.05,0.41-0.1,0.62-0.16c0.09-0.03,0.18-0.05,0.27-0.08   c0.28-0.09,0.56-0.19,0.84-0.31c0.08-0.03,0.15-0.07,0.22-0.1c0.2-0.09,0.4-0.18,0.59-0.28c0.11-0.06,0.21-0.12,0.32-0.18   c0.15-0.09,0.3-0.18,0.45-0.28c0.11-0.07,0.22-0.15,0.32-0.22c0.14-0.1,0.27-0.2,0.4-0.3c0.11-0.08,0.21-0.17,0.32-0.26   c0.12-0.1,0.24-0.21,0.36-0.33c0.1-0.09,0.2-0.19,0.3-0.28c0.11-0.11,0.21-0.23,0.32-0.35c0.2-0.22,0.39-0.45,0.57-0.69   c0.06-0.09,0.13-0.17,0.19-0.25c0.11-0.16,0.21-0.32,0.31-0.48c0.05-0.08,0.1-0.16,0.15-0.25c0.1-0.17,0.19-0.35,0.28-0.54   c0.04-0.07,0.07-0.14,0.1-0.22c0.09-0.2,0.18-0.4,0.26-0.61c0.02-0.04,0.03-0.09,0.05-0.13c0.18-0.49,0.33-0.99,0.44-1.51   C54.36,13.35,56,16.04,56,19z M42,2c4.41,0,8,3.59,8,8c0,0.15-0.01,0.3-0.02,0.45c0,0,0,0.01,0,0.01   c-0.06,1.05-0.32,2.04-0.74,2.95c0,0.01-0.01,0.02-0.01,0.03c-0.1,0.21-0.21,0.41-0.32,0.6c-0.01,0.02-0.03,0.05-0.04,0.07   c-0.11,0.18-0.22,0.35-0.34,0.52c-0.03,0.04-0.05,0.07-0.08,0.11c-0.11,0.15-0.23,0.3-0.36,0.45c-0.04,0.05-0.08,0.09-0.12,0.14   c-0.12,0.13-0.24,0.26-0.37,0.38c-0.05,0.05-0.1,0.1-0.16,0.15c-0.12,0.11-0.25,0.22-0.37,0.32c-0.07,0.05-0.13,0.11-0.2,0.16   c-0.12,0.09-0.25,0.18-0.38,0.27c-0.08,0.05-0.15,0.11-0.23,0.16c-0.12,0.08-0.25,0.15-0.38,0.22c-0.09,0.05-0.18,0.1-0.27,0.15   c-0.13,0.06-0.26,0.12-0.39,0.18c-0.1,0.04-0.2,0.09-0.3,0.13c-0.13,0.05-0.26,0.09-0.39,0.14c-0.11,0.04-0.22,0.08-0.33,0.11   c-0.13,0.04-0.26,0.07-0.38,0.1c-0.12,0.03-0.24,0.06-0.36,0.08c-0.12,0.02-0.25,0.04-0.38,0.06c-0.13,0.02-0.26,0.04-0.39,0.05   c-0.03,0-0.05,0-0.08,0c0-0.01,0-0.03,0-0.04c0.03-0.18,0.04-0.36,0.04-0.54c0-0.06-0.01-0.12-0.01-0.18   c-0.01-0.14-0.04-0.28-0.07-0.42c-0.01-0.06-0.03-0.11-0.04-0.17c-0.06-0.19-0.13-0.37-0.23-0.55c-0.44-0.77-1.24-1.28-2.12-1.36   l-0.43-0.04c-0.27-0.02-0.49-0.19-0.6-0.42l2.14-2.14c0.39-0.39,0.39-1.02,0-1.41s-1.02-0.39-1.41,0l-1.41,1.41   c-0.5-0.63-1.27-1.04-2.14-1.04c-0.4,0-0.78,0.09-1.15,0.25l-0.39,0.18c-0.1,0.05-0.2,0.06-0.31,0.06c-0.01,0-0.02,0-0.03,0   c-0.1-0.01-0.21-0.04-0.3-0.09c-0.1-0.5-0.15-1-0.15-1.49C34,5.59,37.59,2,42,2z M25.67,14.19l0.04-0.43   c0.05-0.58,0.63-0.8,1.04-0.6l0.39,0.18c1.17,0.54,2.64,0.14,3.39-0.91l0.25-0.35c0.28-0.4,0.93-0.4,1.21,0l0.25,0.35   c0.41,0.58,1.05,0.96,1.73,1.09c0.02,0,0.04,0.01,0.06,0.01c0.11,0.02,0.22,0.03,0.33,0.04c0.05,0,0.1,0,0.15,0   c0.09,0,0.18,0,0.27-0.01c0.08-0.01,0.16-0.02,0.24-0.04c0.06-0.01,0.13-0.02,0.19-0.04c0.14-0.04,0.29-0.09,0.42-0.15l0.39-0.18   c0.41-0.19,0.99,0.03,1.04,0.6l0.04,0.43c0.12,1.32,1.16,2.36,2.48,2.48L40,16.71c0.24,0.02,0.45,0.16,0.57,0.37   c0.12,0.21,0.13,0.46,0.03,0.68l-0.18,0.4c-0.01,0.02-0.01,0.04-0.02,0.06c-0.35,0.81-0.28,1.72,0.14,2.45   c0.01,0.01,0.01,0.02,0.02,0.03c0.05,0.09,0.11,0.18,0.18,0.26c0.03,0.05,0.07,0.09,0.11,0.13c0.05,0.06,0.1,0.11,0.15,0.17   c0.1,0.1,0.21,0.2,0.33,0.28l0.35,0.25c0.2,0.14,0.31,0.36,0.31,0.6s-0.11,0.46-0.31,0.6l-0.36,0.25c0,0-0.01,0.01-0.01,0.01   c-0.13,0.09-0.25,0.2-0.36,0.31c-0.04,0.05-0.08,0.1-0.12,0.14c-0.06,0.07-0.12,0.14-0.17,0.22c-0.02,0.03-0.05,0.05-0.07,0.08   H27.47c0.08-0.11,0.15-0.23,0.21-0.35c0,0,0.01-0.01,0.01-0.01c0.09-0.17,0.15-0.35,0.2-0.54c0.01-0.05,0.02-0.09,0.03-0.14   c0.04-0.19,0.07-0.38,0.07-0.58c0,0,0,0,0,0c0,0,0,0,0,0c0,0,0,0,0,0c0-0.13-0.03-0.25-0.05-0.38c-0.01-0.09-0.01-0.19-0.03-0.28   c-0.04-0.17-0.11-0.33-0.18-0.48c-0.02-0.04-0.03-0.09-0.05-0.13c-0.01-0.02-0.03-0.04-0.04-0.06c-0.2-0.36-0.47-0.67-0.81-0.92   l-0.35-0.25c-0.29-0.21-0.39-0.59-0.24-0.91l0.18-0.39c0.09-0.19,0.15-0.39,0.19-0.6c0.01-0.06,0.01-0.12,0.02-0.18   c0.02-0.14,0.03-0.29,0.03-0.43c0-0.08-0.01-0.15-0.02-0.22c-0.01-0.13-0.03-0.26-0.06-0.38c-0.02-0.08-0.05-0.16-0.08-0.24   c-0.02-0.07-0.04-0.14-0.06-0.2c-0.02-0.04-0.05-0.07-0.07-0.1c-0.03-0.05-0.04-0.11-0.07-0.16c-0.05-0.09-0.13-0.17-0.19-0.25   c-0.05-0.07-0.1-0.14-0.15-0.21c-0.12-0.14-0.26-0.25-0.4-0.36c-0.04-0.03-0.07-0.08-0.12-0.1C25.55,14.85,25.64,14.51,25.67,14.19   z M20.12,3.68c0.37-0.53,0.99-0.84,1.64-0.84c0.41,0,0.81,0.12,1.14,0.36c0.9,0.64,1.12,1.89,0.48,2.79l-3.9,5.54c0,0,0,0,0,0   l-1.86,2.64c-0.52,0.74-1.55,1.01-2.38,0.69c-0.14-0.05-0.28-0.12-0.41-0.21c0,0,0,0-0.01,0c-0.14-0.1-0.27-0.23-0.37-0.36   c-0.03-0.03-0.05-0.07-0.08-0.1c-0.1-0.13-0.18-0.28-0.24-0.43c0,0-0.01-0.01-0.01-0.01c-0.06-0.16-0.1-0.34-0.12-0.51   c0-0.03-0.01-0.06-0.01-0.09c-0.01-0.18,0-0.36,0.03-0.54c0,0,0-0.01,0-0.01c0.06-0.25,0.16-0.5,0.32-0.72L20.12,3.68z M5.43,23.23   l-0.35-0.25c-0.2-0.14-0.31-0.36-0.31-0.6s0.11-0.46,0.31-0.6l0.35-0.25c1.08-0.76,1.46-2.19,0.91-3.39l-0.18-0.39   c-0.1-0.22-0.09-0.47,0.03-0.68c0.12-0.21,0.33-0.34,0.57-0.37l0.43-0.04c1.32-0.12,2.36-1.16,2.48-2.48l0.04-0.43   c0.05-0.58,0.63-0.79,1.04-0.6l0.39,0.18c0.29,0.13,0.59,0.21,0.9,0.23c0,0.02,0.01,0.03,0.01,0.05c0.03,0.17,0.07,0.32,0.12,0.49   c0.03,0.09,0.04,0.19,0.08,0.28c0.06,0.16,0.14,0.32,0.23,0.48c0.04,0.08,0.07,0.16,0.12,0.24c0.1,0.17,0.23,0.32,0.36,0.47   c0.04,0.05,0.08,0.11,0.13,0.17c0.18,0.2,0.39,0.38,0.62,0.54c0.17,0.12,0.35,0.22,0.53,0.31c0.55,0.27,1.15,0.41,1.77,0.41   c0,0,0,0,0,0c0,0,0,0,0,0c1.3,0,2.53-0.63,3.28-1.69l1.47-2.09c0.17,0.11,0.3,0.29,0.32,0.54l0.04,0.43   c0.12,1.32,1.16,2.36,2.48,2.48L24,16.71c0.09,0.01,0.18,0.05,0.26,0.09c0.04,0.02,0.08,0.04,0.11,0.06   c0.05,0.04,0.1,0.09,0.14,0.15c0.03,0.03,0.06,0.07,0.08,0.1c0.05,0.09,0.08,0.19,0.09,0.29c0,0,0,0.01,0,0.01   c0,0.11-0.02,0.23-0.07,0.33l-0.18,0.39c-0.21,0.45-0.28,0.93-0.24,1.4c0,0.01,0,0.01,0,0.02c0.01,0.15,0.04,0.3,0.08,0.44   c0.16,0.6,0.53,1.15,1.07,1.53l0.24,0.17l0.11,0.08c0.2,0.14,0.31,0.36,0.31,0.6c0,0.12-0.03,0.24-0.08,0.34   c-0.01,0.01-0.02,0.02-0.03,0.04c-0.05,0.08-0.11,0.16-0.2,0.22l-0.08,0.06l-0.28,0.19c-0.14,0.1-0.26,0.21-0.38,0.33   c-0.04,0.04-0.06,0.08-0.1,0.12c-0.08,0.09-0.15,0.18-0.21,0.27c-0.01,0.02-0.03,0.03-0.04,0.05H6.16   C5.97,23.7,5.72,23.44,5.43,23.23z M44.01,41.79c-1.3,0.62-2.38,1.66-3.04,2.93c-0.76,1.47-0.67,3.33,0.26,4.87   c0.07,0.11,0.04,0.21,0,0.28C41.2,49.92,41.13,50,41,50H18.21c-0.13,0-0.2-0.08-0.24-0.14c-0.04-0.06-0.06-0.16,0.01-0.29   c0.92-1.52,1.01-3.38,0.25-4.85c-0.66-1.27-1.73-2.31-3.04-2.93C7.44,38.08,2.53,34.22,2,26.41c-0.01-0.15,0.06-0.25,0.1-0.3   C2.16,26.06,2.24,26,2.37,26h3.15h19.72h16h0.06h13.39h2.14c0.13,0,0.22,0.06,0.27,0.12c0.04,0.05,0.12,0.15,0.1,0.3   C56.68,34.22,51.77,38.08,44.01,41.79z"></path><path d="M37,43h-8.71c-0.55,0-1,0.45-1,1s0.45,1,1,1H37c0.55,0,1-0.45,1-1S37.55,43,37,43z"></path><path d="M22,45h3.39c0.55,0,1-0.45,1-1s-0.45-1-1-1H22c-0.55,0-1,0.45-1,1S21.45,45,22,45z"></path><path d="M37,46H22c-0.55,0-1,0.45-1,1s0.45,1,1,1h15c0.55,0,1-0.45,1-1S37.55,46,37,46z"></path><path d="M39.88,9.29c0.2,0.2,0.45,0.29,0.71,0.29s0.51-0.1,0.71-0.29c0.39-0.39,0.39-1.02,0-1.41l-2.83-2.83   c-0.39-0.39-1.02-0.39-1.41,0s-0.39,1.02,0,1.41L39.88,9.29z"></path><path d="M45.54,14.95c0.2,0.2,0.45,0.29,0.71,0.29s0.51-0.1,0.71-0.29c0.39-0.39,0.39-1.02,0-1.41l-2.83-2.83   c-0.39-0.39-1.02-0.39-1.41,0s-0.39,1.02,0,1.41L45.54,14.95z"></path><path d="M43.41,9.59c0.26,0,0.51-0.1,0.71-0.29l2.83-2.83c0.39-0.39,0.39-1.02,0-1.41c-0.39-0.39-1.02-0.39-1.41,0l-2.83,2.83   c-0.39,0.39-0.39,1.02,0,1.41C42.9,9.49,43.16,9.59,43.41,9.59z"></path><path d="M49,18c0,0.55,0.45,1,1,1h4c0.55,0,1-0.45,1-1s-0.45-1-1-1h-4C49.45,17,49,17.45,49,18z"></path><path d="M30.5,18.5c0.26,0,0.51-0.1,0.71-0.29l1.5-1.5c0.39-0.39,0.39-1.02,0-1.41s-1.02-0.39-1.41,0l-1.5,1.5   c-0.39,0.39-0.39,1.02,0,1.41C29.99,18.4,30.24,18.5,30.5,18.5z"></path><path d="M35.29,20.71C35.49,20.9,35.74,21,36,21s0.51-0.1,0.71-0.29c0.39-0.39,0.39-1.02,0-1.41l-1-1c-0.39-0.39-1.02-0.39-1.41,0   s-0.39,1.02,0,1.41L35.29,20.71z"></path><path d="M31.29,20.29l-1,1c-0.39,0.39-0.39,1.02,0,1.41C30.49,22.9,30.74,23,31,23s0.51-0.1,0.71-0.29l1-1   c0.39-0.39,0.39-1.02,0-1.41S31.68,19.9,31.29,20.29z"></path></g></svg>