<svg height='100px' width='100px'  fill="#000000" xmlns="http://www.w3.org/2000/svg" viewBox="0 0 64 64" x="0px" y="0px"><g><path d="M53,29A18.012,18.012,0,0,0,43,12.887V7a1,1,0,0,0-1-1H33V2H31V6H22a1,1,0,0,0-1,1v5.914A17.949,17.949,0,0,0,21,45.1V62h2V52h2V62h2V52h2V62h2V52h2V62h2V52h2V62h2V52h2V62h2V45.113A18.011,18.011,0,0,0,53,29Zm-9,0c0,6.882-3.282,12.746-7.864,15h-.687C37.128,40.607,38,34.792,38,29s-.872-11.607-2.551-15h.687C40.718,16.254,44,22.118,44,29ZM20,29c0-6.882,3.282-12.746,7.864-15h.688C26.872,17.393,26,23.208,26,29s.871,11.606,2.549,15h-.685C23.282,41.746,20,35.882,20,29ZM30.8,44C29.477,41.979,28,36.912,28,29s1.479-12.985,2.805-15H33.2C34.521,16.017,36,21.082,36,29s-1.477,12.979-2.8,15ZM23,8H41v4H23ZM13,29A16.012,16.012,0,0,1,23.485,14h.82C20.514,17.221,18,22.732,18,29s2.511,11.778,6.3,15h-.824A16.01,16.01,0,0,1,13,29ZM23,46H41v4H23Zm17.515-2H39.7c3.789-3.222,6.3-8.734,6.3-15S43.5,17.225,39.712,14h.8a15.972,15.972,0,0,1,0,30Z"></path><polygon points="10 46 8 46 8 48 6 48 6 50 8 50 8 52 10 52 10 50 12 50 12 48 10 48 10 46"></polygon><polygon points="55 16 57 16 57 14 59 14 59 12 57 12 57 10 55 10 55 12 53 12 53 14 55 14 55 16"></polygon><path d="M8,17a1,1,0,0,0,1-1,3.827,3.827,0,0,1,4-4,1,1,0,0,0,0-2A3.827,3.827,0,0,1,9,6,1,1,0,0,0,7,6a3.827,3.827,0,0,1-4,4,1,1,0,0,0,0,2,3.827,3.827,0,0,1,4,4A1,1,0,0,0,8,17ZM8,9.454A5.551,5.551,0,0,0,9.546,11,5.551,5.551,0,0,0,8,12.546,5.551,5.551,0,0,0,6.454,11,5.551,5.551,0,0,0,8,9.454Z"></path><path d="M61,47a3.827,3.827,0,0,1-4-4,1,1,0,0,0-2,0,3.827,3.827,0,0,1-4,4,1,1,0,0,0,0,2,3.827,3.827,0,0,1,4,4,1,1,0,0,0,2,0,3.827,3.827,0,0,1,4-4,1,1,0,0,0,0-2Zm-5,2.546A5.551,5.551,0,0,0,54.454,48,5.551,5.551,0,0,0,56,46.454,5.551,5.551,0,0,0,57.546,48,5.551,5.551,0,0,0,56,49.546Z"></path></g></svg>