<svg height='100px' width='100px'  fill="#000000" xmlns:dc="http://purl.org/dc/elements/1.1/" xmlns:cc="http://creativecommons.org/ns#" xmlns:rdf="http://www.w3.org/1999/02/22-rdf-syntax-ns#" xmlns:svg="http://www.w3.org/2000/svg" xmlns="http://www.w3.org/2000/svg" xmlns:sodipodi="http://sodipodi.sourceforge.net/DTD/sodipodi-0.dtd" xmlns:inkscape="http://www.inkscape.org/namespaces/inkscape" version="1.1" x="0px" y="0px" viewBox="0 0 100 100"><g transform="translate(0,-952.36218)"><path style="text-indent:0;text-transform:none;direction:ltr;block-progression:tb;baseline-shift:baseline;color:#000000;enable-background:accumulate;" d="m 18,956.36217 c -2.209199,0 -4,1.7908 -4,4 0,1.47925 0.8062,2.74543 2,3.4375 l 0,82.56253 c 0,1.1046 0.8954,2 2,2 1.1046,0 2,-0.8954 2,-2 l 0,-82.56253 c 1.193801,-0.69207 2,-1.95825 2,-3.4375 0,-2.2092 -1.790799,-4 -4,-4 z m 4.9375,14.1875 c -0.5689,0.35676 -0.9351,1.016 -0.9375,1.6875 l 0,36.12503 c 0,0.7278 0.4466,1.4481 1.0938,1.7812 0.647101,0.3332 1.468401,0.2644 2.0624,-0.1562 0,0 14.8397,-10.47788 33.0626,-2.5938 8.709801,3.7684 15.2845,4.5276 19.75,4.2813 4.4652,-0.2464 7.0312,-1.625 7.0312,-1.625 0.6008,-0.3469 0.9954,-1.0251 1,-1.7188 l 0,-36.12498 c 0,-1.38433 -1.7575,-2.42036 -2.9688,-1.75 0,0 -1.4474,0.84405 -5.25,1.03125 -3.8024,0.1871 -9.730099,-0.4126 -18,-3.875 -4.5162,-1.891 -9.2177,-2.99305 -13.9374,-3.21875 -7.9957,-0.28803 -17.164,2.59635 -22.9063,6.15625 z m 22.7187,-2.1563 c 4.236901,0.2095 8.4553,1.18675 12.5626,2.90625 8.7444,3.6611 15.306,4.4062 19.75,4.1875 1.736801,-0.085 2.9143,-0.37875 4.0312,-0.65625 l 0,32.15623 c -0.8073,0.2766 -2.0549,0.5977 -4.25,0.7188 -3.802499,0.2097 -9.7498,-0.4129 -17.9688,-3.9688 -14.952,-6.46918 -28.0164,-1.7047 -33.7812,1.1875 l 0,-31.53123 c 6.8672,-3.41696 12.835701,-5.21054 19.6562,-5 z" fill="#000000" fill-opacity="1" stroke="none" marker="none" visibility="visible" display="inline" overflow="visible"></path></g></svg>