<svg height='100px' width='100px'  fill="#000000" xmlns="http://www.w3.org/2000/svg" viewBox="0 0 128 128" x="0px" y="0px"><title>drum, chinese, china, culture, newyear, tradition</title><path d="M64,63.111a6.246,6.246,0,1,0,6.246,6.246A6.253,6.253,0,0,0,64,63.111ZM64,72.6a3.246,3.246,0,1,1,3.246-3.246A3.25,3.25,0,0,1,64,72.6Z"></path><path d="M38.238,61.907a6.246,6.246,0,1,0,6.245,6.246A6.253,6.253,0,0,0,38.238,61.907Zm0,9.491a3.246,3.246,0,1,1,3.245-3.245A3.249,3.249,0,0,1,38.238,71.4Z"></path><path d="M89.762,61.907a6.246,6.246,0,1,0,6.246,6.246A6.252,6.252,0,0,0,89.762,61.907Zm0,9.491a3.246,3.246,0,1,1,3.246-3.245A3.249,3.249,0,0,1,89.762,71.4Z"></path><path d="M121.412,3.078a5.035,5.035,0,0,0-7.041-1.014L88.048,21.77c-4.322-2.644-10.332-2.142-15.036,1.378a15.569,15.569,0,0,0-6.172,10.1,12.374,12.374,0,0,0,.933,6.907c-2.5-.026-5.045-.026-7.546,0a12.374,12.374,0,0,0,.933-6.907,15.569,15.569,0,0,0-6.172-10.1c-4.7-3.521-10.714-4.022-15.036-1.379L13.629,2.064A5.034,5.034,0,0,0,6.588,3.078h0A5.038,5.038,0,0,0,7.6,10.12l26.322,19.7a12.667,12.667,0,0,0,2.786,11.4c-10.414.933-14.823,2.15-16.683,3.274A8.935,8.935,0,0,0,13.3,52.326a5.975,5.975,0,0,0,2.59,5.212c-.015.291-.028.584-.041.876a6.243,6.243,0,0,0,.024,12.259c.052,1.177.1,2.353.176,3.526.991,14.823,3.9,31.672,6.625,38.348,0,.01.011.018.015.028a3.046,3.046,0,0,0-.323,1.325c0,5.748,19.6,13.04,41.63,13.04s41.63-7.292,41.63-13.04a3.058,3.058,0,0,0-.322-1.324l.01-.019c2.727-6.686,5.638-23.535,6.629-38.365.073-1.167.124-2.343.176-3.519a6.243,6.243,0,0,0,.024-12.259c-.014-.292-.026-.585-.041-.876a5.975,5.975,0,0,0,2.59-5.212,8.935,8.935,0,0,0-6.722-7.828c-1.86-1.124-6.269-2.341-16.683-3.274a12.667,12.667,0,0,0,2.786-11.4L120.4,10.119a5.031,5.031,0,0,0,1.012-7.041ZM8.605,6.381a2.021,2.021,0,0,1,.384-1.5h0a2.012,2.012,0,0,1,1.336-.792,1.938,1.938,0,0,1,.294-.021,2.013,2.013,0,0,1,1.212.4L40.039,25.582a2.031,2.031,0,0,1-.928,3.637,2.012,2.012,0,0,1-1.506-.385L9.4,7.719A2.024,2.024,0,0,1,8.605,6.381Zm28,25.337a5.014,5.014,0,0,0,6.242-1.5,5.035,5.035,0,0,0-.329-6.412c3.187-1.381,7.315-.771,10.669,1.74a12.551,12.551,0,0,1,5,8.122,9.094,9.094,0,0,1-1.622,6.817c-3.284,4.387-10.141,4.825-15.288.981C37.929,38.955,36.184,35.165,36.609,31.718Zm72.518,38.8c-.037.839-.077,1.677-.125,2.51-9.437,3.172-32.192,5.1-45,5.1s-35.566-1.934-45-5.1c-.048-.834-.088-1.672-.125-2.51a6.244,6.244,0,0,0,1.168-11.456c1,.063,3.05-.08,7.413-1.377a2.185,2.185,0,0,1,2.1.5c1.838,1.625,4.74,3.562,8.13,3.562a16.1,16.1,0,0,0,7.4-2.077,2.144,2.144,0,0,1,2.367.168,14.355,14.355,0,0,0,7.565,2.982,15.321,15.321,0,0,0,7.942-2.02,2.119,2.119,0,0,1,2.073,0,15.823,15.823,0,0,0,7.368,2.034c.19,0,.381,0,.573-.014a14.362,14.362,0,0,0,7.565-2.981,2.141,2.141,0,0,1,2.367-.17,16.091,16.091,0,0,0,7.4,2.078c3.39,0,6.292-1.937,8.13-3.562a2.184,2.184,0,0,1,2.105-.5c4.363,1.3,6.412,1.441,7.411,1.378a6.243,6.243,0,0,0,1.169,11.455Zm-95.32-5.974a3.246,3.246,0,1,1,3.245,3.246A3.249,3.249,0,0,1,13.807,64.541Zm18.341,53.772a.041.041,0,0,1,.027-.077C40.7,120.327,55.089,121.43,64,121.43s23.275-1.1,31.8-3.189a.041.041,0,0,1,.026.077C89.067,121.094,77.739,123.94,64,123.94,50.245,123.94,38.908,121.088,32.148,118.313Zm70.389-6.879c-.326.814-1.846,1.935-3.691,2.724C92.889,116.676,75.7,118.43,64,118.43s-28.889-1.754-34.84-4.269c-1.851-.792-3.371-1.913-3.7-2.737-2.446-6-5.16-21.414-6.248-35.189C29.834,79.394,51.73,81.13,64,81.13s34.165-1.736,44.789-4.895C107.7,90.015,104.987,105.425,102.537,111.434Zm11.656-46.893a3.246,3.246,0,1,1-3.245-3.245A3.249,3.249,0,0,1,114.193,64.541Zm-2.5-12.215c0,1.013,0,2.9-3.654,3.7-.7.155-2.818-.084-6.639-1.221a5.2,5.2,0,0,0-4.947,1.126c-1.187,1.049-3.564,2.81-6.144,2.81a13.1,13.1,0,0,1-5.976-1.718,5.171,5.171,0,0,0-5.572.4,11.437,11.437,0,0,1-5.929,2.4,12.607,12.607,0,0,1-6.367-1.661,5.2,5.2,0,0,0-4.935,0,12.524,12.524,0,0,1-6.368,1.661,11.429,11.429,0,0,1-5.929-2.4,5.173,5.173,0,0,0-5.572-.393,13.11,13.11,0,0,1-5.976,1.717c-2.58,0-4.957-1.761-6.144-2.81A5.2,5.2,0,0,0,26.6,54.807c-3.823,1.137-5.936,1.377-6.639,1.221-3.655-.8-3.655-2.689-3.655-3.7a5.841,5.841,0,0,1,2.826-4.255c1.026,1.266,4.2,2.566,13.7,3.66A287.431,287.431,0,0,0,64,53.22a287.431,287.431,0,0,0,31.17-1.489c9.5-1.094,12.674-2.394,13.7-3.66A5.841,5.841,0,0,1,111.7,52.326ZM64,50.22c-22.844,0-37.84-1.917-41.661-3.533,1.868-.755,6.889-1.889,17.316-2.7a15.756,15.756,0,0,0,9.239,3.091,12.53,12.53,0,0,0,9.315-3.9c3.8-.064,7.778-.064,11.581,0a12.525,12.525,0,0,0,9.315,3.9,15.779,15.779,0,0,0,9.239-3.091c10.428.808,15.449,1.942,17.317,2.7C101.84,48.3,86.844,50.22,64,50.22Zm22.722-8.751c-5.146,3.844-12.007,3.409-15.291-.979a9.1,9.1,0,0,1-1.621-6.817,12.551,12.551,0,0,1,5-8.122c3.353-2.51,7.482-3.12,10.669-1.74a5.024,5.024,0,0,0,2.983,8.377,4.962,4.962,0,0,0,2.93-.469C91.816,35.165,90.071,38.955,86.722,41.469ZM118.6,7.718,90.394,28.835a2.031,2.031,0,0,1-2.842-.409,2.034,2.034,0,0,1,.408-2.843L116.168,4.467a2.013,2.013,0,0,1,1.212-.4,1.938,1.938,0,0,1,.294.021,2.012,2.012,0,0,1,1.336.792h0A2.035,2.035,0,0,1,118.6,7.718Z"></path></svg>