<svg height='100px' width='100px'  fill="#000000" xmlns="http://www.w3.org/2000/svg" viewBox="0 0 64 64" x="0px" y="0px"><g data-name="12-Hat"><path d="M63,51H1a1,1,0,0,1-1-1c0-.08.1-8,9-8H55c8.9,0,9,7.92,9,8A1,1,0,0,1,63,51ZM2.112,49H61.88c-.346-1.711-1.687-5-6.88-5H9C3.769,44,2.446,47.289,2.112,49Z"></path><path d="M56,43H54V38H23V36H55a1,1,0,0,1,1,1Z"></path><rect x="19" y="36" width="1.999" height="2"></rect><path d="M10,43H8V37a1,1,0,0,1,1-1h8v2H10Z"></path><path d="M53.025,37.225C52.9,36.689,50,24.056,50,19c0-3.793-1.815-3.99-2.022-4a11.1,11.1,0,0,0-4.34,1.322A25.8,25.8,0,0,1,32,19a25.8,25.8,0,0,1-11.638-2.678A11.082,11.082,0,0,0,16,15c-.185.01-2,.207-2,4,0,5.056-2.9,17.689-3.025,18.225l-1.95-.45C9.056,36.646,12,23.829,12,19c0-5.931,3.96-6,4-6a12.645,12.645,0,0,1,5.174,1.494A24.067,24.067,0,0,0,32,17a24.07,24.07,0,0,0,10.826-2.506A12.64,12.64,0,0,1,48,13c.04,0,4,.069,4,6,0,4.829,2.944,17.646,2.975,17.775Z"></path><path d="M10.629,35.929C10.4,35.836,5,33.544,5,22a1,1,0,0,1,1-1c.365,0,3.658.154,6.857,5.485l-1.714,1.03a10.029,10.029,0,0,0-4.117-4.194c.36,8.908,4.317,10.738,4.359,10.756Z"></path><path d="M11.553,31.9A11.584,11.584,0,0,1,5,22H6l1,0a9.59,9.59,0,0,0,5.447,8.108Z"></path></g></svg>