<svg height='100px' width='100px'  fill="#000000" xmlns="http://www.w3.org/2000/svg" xmlns:xlink="http://www.w3.org/1999/xlink" version="1.1" x="0px" y="0px" viewBox="0 0 100 100" enable-background="new 0 0 100 100" xml:space="preserve"><g><path d="M38.2,65.1c-0.6-1.7-2-2.8-2.6-4.6c-0.4,0.8-0.5,1.4-0.2,2.1c0.2,0.7-0.1,1.3-0.5,1.7c-0.5,0.5-0.9-0.2-1.3-0.4   c-0.3-0.1-0.5-0.3-0.8-0.4c-0.6-0.3-0.9-0.6-0.5-1.3c0.4-0.7,0-0.9-0.7-0.9c-0.3,0-0.5,0.1-0.8,0c-1.2-0.5-2-0.1-2.5,1   C28,63,27.6,63,27.2,62.6c-0.3-0.3-0.7-0.6-1-0.2c-0.6,0.8-1.8,1.3-2.2,2.1c-0.6,1.5-1.7,1.4-2.8,1.5c-0.9,0.1-2.5,1.3-2.3,1.8   c0.4,1.1,0.1,2.2,0.7,3.3c0.4,0.6,1.8,1.6,0.3,2.7c-0.4,0.3,0.2,0.8,0.6,1c0.5,0.2,1.1,0.2,1.6-0.1c1.2-0.8,2.9-0.2,3.7-1.8   c0-0.1,0.2-0.1,0.3-0.1c0.9,0.2,1.7-0.2,2.5-0.4c0.9-0.2,2.3,0.8,2.5,1.7c0.2,0.7,0.5,0.3,0.8,0.1c0.3-0.2,0.8-0.7,0.8-0.6   c0.3,1,1.6,1,1.6,2.1c0,0.3,0.1,0.5,0.5,0.7c1.4,0.7,2.7,0.6,4.1,0.1c0.5-0.2,1.1-0.3,1.2-0.9c0.2-0.7,0.6-1.2,0.9-1.8   c1.1-1.8,0.8-4.4-0.5-6.1C39.9,66.8,38.5,66.1,38.2,65.1z"></path><path d="M29.7,54.5c-0.1-0.1-0.4,0.1-0.5,0.3c-0.2,0.2,0,0.4,0.2,0.4c1.4,0,0.5,0.8,0.4,1.4c1.3,0,2.4,0.4,3.4,1.1   c0.5,0.4,0.7,0.8-0.2,1.3c0.7,0.3,1.2-0.1,1.5,0.5c0.7,1.1,1.2,0.7,1.8-0.1c0.5-0.7,1.1-0.8,1.6,0c0.3,0.5,0.7,0.8,1.2,1   c0.3,0.1,0.6,0.4,0.8,0.1c0.3-0.3,0.1-0.7-0.2-0.9c-0.6-0.6-1.1-1.4-1.7-2c-0.7-0.7-1.6-1.2-2.4-1.7C33.8,54.6,31.5,55.8,29.7,54.5   z"></path><path d="M19.8,56.6c0.3-0.1,1,0.2,0.9-0.5c-0.2-1.4,2.1-2.3,0.7-3.8c-0.1-0.1,0.3-0.3,0.3-0.5c0.1-0.5-0.4-0.8-0.6-1.2   c-0.1-0.3-0.5,0-0.6,0.3c-0.9,1.2-2.1,2-3.5,2.4c-0.5,0.2-0.5,0.3-0.5,0.7C16.6,55.7,17.6,56.5,19.8,56.6z"></path><path d="M28.8,36.2c0.4,0.1,0.7,0,0.8-0.4c0.1-0.3,0.3-0.4,0.6-0.4c1.6-0.1,2.9-0.8,4.2-1.6c0.8-0.5,1.1-1.7,0.9-2.4   c-0.4-1.1-0.1-1.3,0.9-1.5c0.6-0.1,1.6,0.2,1.6-0.6c0-0.7-0.9-0.4-1.5-0.6c-0.9-0.3-2,0.5-1.9,1.3c-0.2,1.6-0.4,2.8-2.1,3.5   c-1.2,0.4-2.6-0.1-3.6,1.1c-0.2,0.2-0.5,0.3-0.4,0.6C28.3,35.7,28.4,36.1,28.8,36.2z"></path><path d="M19.6,59.3c0-0.7-0.5-0.6-0.9-0.8c-0.9-0.3-1.8,0-2.6-0.2c-1.5-0.3-1.6-0.6-1.2-2c0.1-0.3,0.3-0.5-0.1-0.7   C13,54.5,11.6,53,10,51.8c-0.4-0.3-0.8-0.6-1.8-0.4c1.9,1.2,2.9,2.7,3.6,4.4c0.1,0.2,0.3,0.4,0.5,0.6c1.5,0.8,2.3,3,4.6,2.5   c0.1,0,0.2,0.1,0.3,0.2C18,59.4,18.8,59.4,19.6,59.3z"></path><path d="M53.7,77.9c-0.3-0.3-0.6,0-0.8,0.2c-0.7,0.8-1.7,1.3-2.5,1.8c-0.3,0.2-0.8,0.5-0.7,1c0.2,0.5,0.7,0.4,1.1,0.4   c0.7,0,3-1.9,3.2-2.6C54.1,78.3,54,78.1,53.7,77.9z"></path><path d="M11.9,52.5c0.4,0.6,0.8,0.9,1.4,1.2c0.1,0.1,0.3,0.1,0.5,0c0.2-0.1,0.1-0.3,0.1-0.4c-0.7-1.6-1.6-3.1-2.9-4.2   c-0.1-0.1-0.3-0.2-0.4-0.3c-0.1,0.1-0.3,0.1-0.3,0.2c0,0.2-0.1,0.5,0,0.6C11.3,50.3,11.3,51.6,11.9,52.5z"></path><path d="M23,46.1c0.5,0.4,0.6,0.8,0,1.2c-0.2,0.1-0.5,0.3-0.2,0.6c0.8-0.4,1.2-1.5,2.3-1.5c-0.8-0.4-2.3-0.4-0.8-1.8   c0.3-0.3-0.4-1-0.6-0.8c-0.4,0.5-1,0.9-1.3,1.5C22.3,45.6,22.7,45.9,23,46.1z"></path><path d="M23,56.3c0.5-0.3,0.5,0.1,0.6,0.4c0.1,0.5,0.6,0.9,0.9,0.7c0.5-0.3,0.1-0.8-0.1-1.2c-0.1-0.2-0.4-0.3-0.5-0.5   c0.2-0.4,0.9,0,0.8-0.6c-0.1-0.4-0.6-0.2-0.9-0.2c-0.2,0-0.5,0-0.7,0c-0.4-0.1-0.5,0.1-0.5,0.5c0,0.4-0.5,0.8-0.2,1.2   C22.5,56.8,22.8,56.5,23,56.3z"></path><path d="M56,76.3c-1.2,0.1-1.4-1-2.2-1.6c0.1,0.8,0.8,1.6-0.1,2.3c-0.1,0.1,0.2,0.2,0.3,0.3c0.2,0.1,0.5,0,0.5,0.4   c0,0.9,0.4,0.6,0.7,0.2c0.3-0.3,0.5-0.7,0.7-1C56.2,76.6,56.3,76.2,56,76.3z"></path><path d="M23.9,50.1c0.7,0,1.1,0.6,1.6,0.7c0.6,0.2,1-0.3,1.1-0.9c-0.1-0.4-0.4-0.9-0.5-0.8c-0.7,0.4-1.5,0.1-2.2,0.5   C23.7,49.8,23.6,50.1,23.9,50.1z"></path><path d="M37,78.3c0.5,0.3,0.3,1.4,1.2,1.1c0.7-0.2,0.8-0.8,0.9-1.5C38.4,78.1,37.8,78.5,37,78.3z"></path><path d="M25.2,60.3c0.5-0.3,1.2-0.3,1.4-0.9c0.1-0.3-0.3-0.4-0.6-0.5c-0.5,0.2-0.9,0.6-1.1,1.1C24.9,60.3,25.1,60.4,25.2,60.3z"></path><path d="M23,53.9c0.9,0.5,1.8,0.5,2.6-0.3C24.7,53.8,23.9,53.9,23,53.9z"></path><path d="M23.2,41.5c0.4-0.2,0.6-0.6,0.7-1c0.1-0.2,0-0.4-0.3-0.4c-0.5,0.2-0.6,0.6-0.7,1.1C22.8,41.4,22.9,41.6,23.2,41.5z"></path><path d="M96,50C96,24.7,75.4,4.1,50.1,4.1C24.8,4.1,4.2,24.7,4.2,50c0,0,0,0,0,0s0,0,0,0c0,25.3,20.6,45.9,45.9,45.9   C75.4,95.9,96,75.3,96,50C96,50,96,50,96,50C96,50,96,50,96,50z M33.3,11.2c0.1,0,0.2,0,0.3,0c0.3,0,0.6,0,0.8,0.3   c0.1,0.4-0.1,0.7-0.3,0.9c-0.2,0.3-0.6,0.3-0.9,0.4c-1.3,0.5-2.9-0.3-4.2,0.6c-0.1,0.1-0.2,0.1-0.3,0   C30.2,12.7,31.7,11.9,33.3,11.2z M88.5,67.7C88.5,67.7,88.5,67.7,88.5,67.7c-0.3,0.6-0.5,1.1-0.8,1.6c0,0.1-0.1,0.1-0.1,0.2   c-0.3,0.5-0.5,1-0.8,1.4c0,0.1-0.1,0.1-0.1,0.2c-0.3,0.5-0.5,0.9-0.8,1.4c0,0.1-0.1,0.1-0.1,0.2c-0.3,0.5-0.6,0.9-0.9,1.4   c0,0-0.1,0.1-0.1,0.1c-1.7,2.4-3.5,4.6-5.6,6.5c-0.1,0.1-0.2,0.2-0.3,0.3c-0.3,0.3-0.6,0.6-1,0.9c-0.2,0.1-0.3,0.3-0.5,0.4   c-0.3,0.3-0.6,0.5-0.9,0.8c-0.2,0.1-0.4,0.3-0.6,0.4c-0.3,0.2-0.6,0.5-0.9,0.7c-0.2,0.2-0.4,0.3-0.6,0.5c-0.3,0.2-0.6,0.4-0.9,0.6   c-0.2,0.2-0.5,0.3-0.7,0.4c-0.3,0.2-0.6,0.4-0.9,0.6c-0.3,0.2-0.5,0.3-0.8,0.4c-0.3,0.2-0.6,0.3-0.9,0.5c-0.3,0.2-0.6,0.3-0.9,0.5   c-0.3,0.2-0.7,0.3-1,0.5c-0.5,0.2-1,0.5-1.5,0.7c-0.3,0.1-0.5,0.2-0.8,0.3c-0.4,0.1-0.7,0.3-1.1,0.4c-0.3,0.1-0.5,0.2-0.8,0.3   c-0.4,0.1-0.7,0.2-1.1,0.4c-0.3,0.1-0.6,0.2-0.8,0.3c-0.4,0.1-0.7,0.2-1.1,0.3c-0.3,0.1-0.6,0.1-0.9,0.2c-0.4,0.1-0.7,0.2-1.1,0.3   c-0.3,0.1-0.6,0.1-0.9,0.2c-0.4,0.1-0.8,0.1-1.1,0.2c-0.3,0-0.6,0.1-0.8,0.1C55.8,91.9,55.4,92,55,92c-0.3,0-0.5,0.1-0.8,0.1   c-0.5,0-0.9,0.1-1.4,0.1c-0.2,0-0.5,0-0.7,0c-0.7,0-1.4,0.1-2.1,0.1c-1.5,0-2.9-0.1-4.3-0.2c-0.4,0-0.8-0.1-1.2-0.1   c-0.3,0-0.6-0.1-1-0.1c-0.3-0.1-0.7-0.1-1-0.2c-0.4-0.1-0.7-0.1-1.1-0.2c-0.5-0.1-1-0.2-1.4-0.3c-0.2,0-0.4-0.1-0.6-0.1   c-0.4-0.1-0.7-0.2-1.1-0.3c-0.3-0.1-0.6-0.2-0.9-0.3c-0.3-0.1-0.7-0.2-1-0.3c-0.3-0.1-0.6-0.2-0.9-0.3c-0.5-0.2-0.9-0.4-1.4-0.6   C34,89.1,33.8,89,33.7,89c-0.5-0.2-1.1-0.5-1.6-0.7c-0.1,0-0.2-0.1-0.3-0.1c-0.4-0.2-0.9-0.4-1.3-0.7c-0.2-0.1-0.3-0.2-0.5-0.3   c-0.5-0.3-0.9-0.5-1.4-0.8c-0.1-0.1-0.3-0.1-0.4-0.2c-0.5-0.3-1-0.6-1.4-0.9c-0.1-0.1-0.2-0.1-0.3-0.2c-0.5-0.3-0.9-0.7-1.4-1   c-0.1-0.1-0.2-0.1-0.3-0.2c-10.3-7.7-17-20-17-33.8c0,0,0,0,0-0.1c0-1.6,0.1-3.2,0.3-4.7c0,0.2,0,0.4,0,0.6   c0.3-0.2,0.4-0.2,0.5-0.3c0.4-0.3,0.6-1,1.2-0.7c0.4,0.2,0.2,0.8,0.3,1.2c0.2,0.8-0.1,1.8,0.8,2.4c0.5-0.5,0.4-1.1,0.7-1.5   c0.6,0.1,1,0.5,1.3,0.9c0.7,0.9,1.3,2.4,2.7,0.7c0,0,0.1,0,0.1,0c1.3-0.6,1.6-1.6,0.8-2.8c-0.5-0.7-1.1-1.3-1.6-2   c-0.5-0.7,0.2-1,0.5-1.3c0.3-0.2,0.5-0.7,0.9-0.4c0.4,0.4-0.1,0.8-0.2,1.1c-0.1,0.4-0.2,0.7,0.1,1.1c0.2,0.2,0.5,0.2,0.7,0   c0.2-0.3,0.7-0.5,0.4-1.1c-0.5-1,0.1-1.2,0.9-1.2c2.6,0,3.9-2.2,5.5-3.7c0.2-0.2,0.1-0.6,0.2-0.8c0.1-1.3-0.6-2.1-1.3-3   c0.4-0.6,1.5-0.4,1.3-1.2c-0.1-0.6-1,0-1.5-0.3c-0.3-0.2-0.7-0.4-0.8-0.8c-0.1-0.5,0.4-0.5,0.7-0.6c0.4-0.2,0.7-0.7,1.2-0.6   c-0.1,0.8,0.1,1.2,0.9,0.7c0.2-0.2,0.7-0.4,0.7-0.1c0.1,0.8,0.4,1.3,1.1,1.5c0.2,0.1,0.1,0.5,0,0.7c-0.1,0.3-0.5,0.7,0,1   c0.4,0.2,0.9,0.1,1.2-0.3c0.5-0.6,0.8-1.2,0.2-1.9c-0.4-0.5-0.6-0.7,0.1-1.4c0.9-0.8,1.5-1.8,2.9-1.4c0.1,0,0.2-0.1,0.3-0.2   c1.4-1.4,3.4-2.2,3.7-4.5c0-0.1,0.1-0.3,0.5-0.3c0,0.8,0,1.6,0,2.5c0,0.3,0.3,0.6,0.6,0.6c0.3,0,0.3-0.2,0.3-0.4   c0-1.1,0.5-2.2,0-3.4c-0.1-0.3-0.2-0.5-0.5-0.6c-1.3-0.2-2.6-0.1-3.9-0.6c0.6-0.8,1.7-0.7,2.2-1.4c1.8-2,4.2-1.1,6.2-1.2   c1.2,0,2.1,0,3.1-0.6c0.8-0.5,1.6-1.9,2.7-0.3c0.1,0.1,0.3-0.1,0.4,0.2c-0.6,0.6-1.4,0.7-2.1,1.1c-0.8,0.5-1.7,1.1-1.4,2.1   c0.3,0.9,0.5,1.7,0.1,2.7c1.2-0.8,2-1.9,3-2.5c0.9-0.6,1.2-1.2,1.3-2.1c0.1-0.9,0.6-1.5,1.4-1.3c2.9,0.6,5.3-1.4,8-1.4   c0.3-0.6-1.1-0.7-0.2-1.2c1.1-0.6,0.1-1.5,0.4-2.3c0.2-0.4-0.8-0.6-1.3-0.7c-0.7-0.1-1.4,0.2-2.1-0.1c-0.7-0.2-1.4-0.5-1.8,0.4   c-0.1,0.2-0.3,0.2-0.6,0.1c-1.3-0.9-2.7-0.4-4.1-0.4c-0.5,0-1,0.1-1.5-0.2c-0.8-0.6-1.7-0.7-2.7-0.6c-1.3,0.1-2.6,0.1-3.8-0.7   c-0.4-0.3-0.9-0.3-1.5-0.2c-0.9,0.2-1.7-0.2-2.4-0.8c0.6-0.2,1-0.3,1.6-0.5c-0.5-0.4-1.3-0.6-2.1-0.6c4.7-1.8,9.8-2.8,15.1-2.8   c14.6,0,27.4,7.4,35,18.7c-0.6,0.1-1.2,0.4-1.8,1c0.8,0.2,1.5,0.1,2.1,0c0.1,0,0.1,0,0.2,0c0.1,0.2,0.3,0.4,0.4,0.6   c-0.1,0-0.3,0-0.4,0.1c-0.5,0.3-1,0.2-1.5,0.2c-1.2-0.1-2.4-0.1-2.7,1.4c1.1,0.5,2.3,1.1,3.5,0c0.2-0.2,0.4,0.1,0.5,0.2   c0.4,0.4,0.8,0.9,1.2,1.3c0,0.1-0.1,0.2-0.1,0.3c-1.4-0.4-2.9-0.8-4.4-0.8c-0.5,0-1,0.3-1.4,0.2c-1-0.3-1.9-0.3-3,0   c-0.9,0.3-2-0.3-2.9,0.6c-0.2,0.2-0.4-0.1-0.7-0.2c-0.4-0.1-0.7-0.3-1.1-0.3c-1.7,0.1-3.3-0.4-4.9-0.4c-1.4,0-2.7-0.1-4.1-0.4   c-0.4-0.1-0.7-0.6-1.2-0.2c-1.2,0.9-2.8,0.5-4,1.5c-0.2,0.2-0.8-0.2-0.8,0.3c0,0.4,0.5,0.3,0.8,0.4c0.6,0.3,1.4,0.2,1.8,1.1   c-0.7,0.1-1.1-0.2-1.6-0.3c-0.7-0.1-1.8-0.1-1.9,0.6c-0.2,0.7,0.9,0.6,1.5,0.8c0.8,0.3,1.4-0.4,2.2-0.3c-0.3,0.8-1,0.5-1.5,0.7   c-0.5,0.2-1.2,0.4-1.3,0.9C58,36,58.6,36.3,59,36.6c0.6,0.5,0.9-0.3,1.3-0.3c0.3,1.5,1.8,0.5,2.6,1.3c-1.3,0.6-2.6,1.2-3.8,1.8   c0,0.1,0.1,0.3,0.1,0.4c1.2-0.4,2.4-0.7,3.6-1.2c0.6-0.2,1.1-0.7,1.8-0.2c0.4,0.3,0.8-0.1,1.1-0.4c0.2-0.1,0.3-0.3,0.1-0.5   c-0.6-0.7,0-1.1,0.6-1.8c-0.2,1-0.1,1.2,0.7,0.9c0.7-0.3,1.2-1,2-0.9c1.6,0.3,3.2,0.5,4.7,1.1c0.6,0.2,1,0.7,1.5,1   c0.9,0.7,1.6,1.4,1.9,2.5c0.1,0.2,0.5,0.5,0.9,0.4c0.4-0.5-0.6-0.9-0.2-1.4c1.3,1,1.7,2.9,3.4,3.6c0.4,0.2,0.6,0.6,0.6,1.1   c0,0.8,0.1,1.5,0,2.3c-0.2,2.2,1.3,3.6,2.7,4.7c0.7,0.6,1.2,1.1,1.7,1.9c0.7,1,0.9,2.4,2.2,3.1c0.6,0.3,0.8,1.2,1.5,1.5   c0.2,0.1,0.4,0.4,0.6,0.2c0.3-0.3,0-0.5-0.2-0.7c-1-1-1.6-2.5-2.7-3.4c-0.2-0.2-0.3-0.4,0-0.6c0.2-0.2,0.4,0,0.5,0.1   c0.9,1.5,2.2,2.7,3.4,3.9C91.2,60.8,90.1,64.4,88.5,67.7z"></path></g></svg>