<svg height='100px' width='100px'  fill="#000000" xmlns="http://www.w3.org/2000/svg" xmlns:xlink="http://www.w3.org/1999/xlink" version="1.1" x="0px" y="0px" viewBox="0 0 512 512" style="enable-background:new 0 0 512 512;" xml:space="preserve"><g><g><g><g><g><path d="M302.267,424.333c-5.522,0-10-4.477-10-10V135.667c0-5.523,4.478-10,10-10s10,4.477,10,10v278.666       C312.267,419.856,307.789,424.333,302.267,424.333z"></path></g><g><path d="M272.267,430c-5.522,0-10-4.477-10-10V135.667c0-5.523,4.478-10,10-10s10,4.477,10,10V420       C282.267,425.523,277.789,430,272.267,430z"></path></g><g><path d="M242.267,430c-5.522,0-10-4.477-10-10V135.667c0-5.523,4.478-10,10-10c5.523,0,10,4.477,10,10V420       C252.267,425.523,247.79,430,242.267,430z"></path></g><g><path d="M212.267,424.333c-5.522,0-10-4.477-10-10V135.667c0-5.523,4.478-10,10-10c5.523,0,10,4.477,10,10v278.666       C222.267,419.856,217.79,424.333,212.267,424.333z"></path></g></g><g><path d="M256.001,500.333c-0.495,0-0.99-0.001-1.485-0.005C145.054,499.532,56,409.812,56,300.324l0.001-0.703      c0.118-34.285,11.719-69.938,34.479-105.959c1.832-2.899,5.023-4.658,8.453-4.658l76-0.004c3.262,0,6.319,1.591,8.19,4.262      c1.872,2.672,2.323,6.088,1.209,9.153c-2.414,6.644-7.657,12.104-11.87,16.49c-0.853,0.887-1.683,1.75-2.451,2.588      c-19.782,21.561-30.677,49.561-30.677,78.84c0,63.195,51.384,115.523,114.544,116.647c5.521,0.099,9.919,4.655,9.82,10.177      c-0.098,5.462-4.555,9.822-9.995,9.822c-0.06,0-0.12-0.001-0.182-0.002c-35.984-0.641-69.712-15.14-94.971-40.824      c-25.289-25.718-39.217-59.747-39.217-95.82c0-33.835,12.421-66.213,35.005-91.332l-49.829,0.003      c-18.82,31.173-28.408,61.663-28.509,90.696L76,300.324c0,98.539,80.146,179.288,178.661,180.004l1.34,0.005      c29.707,0,59.144-7.386,85.128-21.36c4.864-2.616,10.929-0.793,13.543,4.07c2.616,4.864,0.794,10.928-4.07,13.544      C321.716,492.122,289.004,500.333,256.001,500.333z M386.298,448.619c-2.657,0-5.308-1.053-7.275-3.138      c-3.79-4.017-3.606-10.346,0.411-14.136l0.68-0.646c3.991-3.814,10.322-3.671,14.139,0.322      c3.815,3.993,3.671,10.323-0.322,14.139l-0.771,0.731C391.227,447.715,388.76,448.619,386.298,448.619z M302.551,428.065      c-3.973,0-7.73-2.384-9.292-6.299c-2.045-5.13,0.455-10.947,5.585-12.992l0.851-0.344c5.113-2.086,10.951,0.369,13.036,5.481      c2.087,5.114-0.368,10.951-5.481,13.037l-0.997,0.402C305.037,427.836,303.783,428.065,302.551,428.065z M418.311,409.142      c-1.774,0-3.572-0.473-5.198-1.464c-4.715-2.877-6.205-9.03-3.329-13.745c17.152-28.116,26.218-60.482,26.217-93.599      c0-31.22-8.974-62.684-25.999-91.33h-52.326c0.338,0.387,0.665,0.759,0.977,1.113c21.935,24.938,34.015,56.977,34.015,90.215      v0.268c-0.074,36.552-14.541,70.924-40.736,96.806c-3.927,3.883-10.259,3.845-14.142-0.085      c-3.882-3.928-3.844-10.26,0.085-14.142c22.373-22.106,34.729-51.44,34.793-82.6v-0.247c0-28.374-10.311-55.722-29.032-77.006      c-5.579-6.342-11.228-13.229-13.638-21.535c-0.877-3.021-0.281-6.277,1.607-8.792s4.851-3.995,7.996-3.995h76      c3.431,0,6.621,1.759,8.454,4.658C444.953,226.739,456,263.625,456,300.333c0.001,36.793-10.076,72.761-29.143,104.016      C424.973,407.437,421.682,409.142,418.311,409.142z"></path></g><g><path d="M415.6,209.004h-76c-5.522,0-10-4.477-10-10V72.334c0-33.452,27.215-60.667,60.667-60.667s60.667,27.215,60.667,60.667      c0,19.585-9.575,37.977-25.334,49.3v77.37C425.6,204.527,421.122,209.004,415.6,209.004z M349.6,189.004h56v-72.799      c0-3.569,1.902-6.868,4.991-8.655c12.548-7.262,20.343-20.756,20.343-35.216c0-22.424-18.243-40.667-40.667-40.667      S349.6,49.91,349.6,72.334V189.004z"></path></g><g><path d="M174.934,209.004h-76c-5.523,0-10-4.477-10-10v-77.37c-15.759-11.323-25.333-29.715-25.333-49.3      c0-33.452,27.215-60.667,60.666-60.667c33.452,0,60.667,27.215,60.667,60.667v126.67      C184.934,204.527,180.456,209.004,174.934,209.004z M108.934,189.004h56V72.334c0-22.424-18.243-40.667-40.667-40.667      S83.601,49.91,83.601,72.334c0,14.46,7.794,27.954,20.342,35.216c3.089,1.788,4.991,5.086,4.991,8.655V189.004z"></path></g><g><path d="M339.6,145.667H174.934c-5.523,0-10-4.478-10-10v-38c0-5.523,4.477-10,10-10H339.6c5.522,0,10,4.477,10,10v38      C349.6,141.189,345.122,145.667,339.6,145.667z M184.934,125.667H329.6v-18H184.934V125.667z"></path></g><g><path d="M377.6,449.667c-2.56,0-5.118-0.976-7.071-2.929l-38-38c-3.905-3.905-3.905-10.237,0-14.143      c3.906-3.905,10.236-3.905,14.143,0l38,38c3.905,3.905,3.905,10.237,0,14.143C382.718,448.691,380.159,449.667,377.6,449.667z"></path></g><g><path d="M340,410c-5.514,0-9.989-4.464-10-9.979l-0.4-200.996c-0.011-5.523,4.457-10.009,9.98-10.021c0.007,0,0.014,0,0.02,0      c5.514,0,9.989,4.464,10,9.98L350,399.98c0.011,5.522-4.457,10.009-9.98,10.02C340.013,410,340.006,410,340,410z"></path></g><g><path d="M136.934,449.667c-2.56,0-5.119-0.977-7.071-2.929c-3.905-3.905-3.905-10.237,0-14.142l35.071-35.071V199.004      c0-5.522,4.477-10,10-10c5.522,0,10,4.478,10,10v202.663c0,2.652-1.054,5.196-2.929,7.071l-38,38      C142.052,448.69,139.492,449.667,136.934,449.667z"></path></g></g></g></g></svg>