<svg height='100px' width='100px'  fill="#000000" xmlns="http://www.w3.org/2000/svg" xmlns:xlink="http://www.w3.org/1999/xlink" version="1.1" x="0px" y="0px" viewBox="0 0 128 128" style="enable-background:new 0 0 128 128;" xml:space="preserve"><path d="M127,75.3c0.7-3.7,1-7.4,1-11.3s-0.4-7.6-1-11.3H97.9v-7.5h27.3C117.1,19,92.8,0,64,0S10.9,19,2.8,45.2h27.3v7.5H1  C0.4,56.4,0,60.1,0,64s0.4,7.6,1,11.3h29.1v7.5H2.8C10.9,109,35.2,128,64,128s53.1-19,61.2-45.2H97.9v-7.5H127z M14.3,37.6  C23.8,19.9,42.5,7.8,64,7.8c21.5,0,40.2,12.1,49.7,29.9H75.3V24.2c4.5,1.3,8.7,3.3,12.4,5.9h11.8C91.4,21.6,80.2,16,67.8,15.1v30.1  h22.6v7.5H37.6v-7.5h22.6V15.1C47.8,16,36.6,21.6,28.5,30.1h11.8c3.7-2.6,7.9-4.6,12.4-5.9v13.4H14.3z M113.7,90.4  c-9.4,17.8-28.1,29.9-49.7,29.9c-21.5,0-40.2-12.1-49.7-29.9h38.4v13.4c-4.5-1.3-8.7-3.3-12.4-5.9H28.5c8.1,8.5,19.3,14.1,31.8,15.1  V82.8H37.6v-7.5h52.7v7.5H67.8v30.1c12.5-0.9,23.6-6.5,31.8-15.1H87.7c-3.7,2.6-7.9,4.6-12.4,5.9V90.4H113.7z M7.9,67.8  c-0.1-1.2-0.1-2.5-0.1-3.8s0.1-2.5,0.1-3.8h112.2c0.1,1.2,0.1,2.5,0.1,3.8s-0.1,2.5-0.1,3.8H7.9z"></path></svg>