<svg height='100px' width='100px'  fill="#000000" xmlns="http://www.w3.org/2000/svg" viewBox="0 0 48 48" x="0px" y="0px"><title>Restaurant vol.1</title><g data-name="Layer 15"><path d="M43.45508,5.90625a1,1,0,1,0-.22461-1.9873L17.75391,6.78839V2.89258a1,1,0,0,0-.35059-.76074.9882.9882,0,0,0-.80664-.22657l-2.62952.41913a.95672.95672,0,0,0-.2113-.04266.97193.97193,0,0,0-.50555.15692l-2.39649.382a.93972.93972,0,0,0-.096-.01935.98258.98258,0,0,0-.42462.10236l-2.73065.43524a.99964.99964,0,0,0-.84277.9873V8.02661L5.041,8.22021a1,1,0,1,0,.22461,1.98731l1.49414-.16827v2.28057H5.15332a1,1,0,0,0,0,2H6.75977V29.05469H6.21094a.99942.99942,0,0,0-1,1,17.36475,17.36475,0,1,0,34.72949,0,.99942.99942,0,0,0-1-1h-.37689a9.80935,9.80935,0,0,0-19.5127,0H17.75391V14.31982H42.95215a1,1,0,0,0,0-2H17.75391V8.801ZM15.75391,7.01361l-.998.11243V4.22351l.998-.15906Zm-3.9961,22.04108V14.31982h.99805V29.05469Zm0-16.73487V9.47632l.99805-.11243v2.95593Zm0-4.85614V4.70135l.99805-.159v2.809ZM8.75977,5.1792l.998-.15906V7.689l-.998.11243Zm0,4.63476.998-.11242v2.61828h-.998Zm0,4.50586h.998V29.05469h-.998ZM33.45215,40.916a15.38337,15.38337,0,0,1-26.209-9.86133h30.666A15.24037,15.24037,0,0,1,33.45215,40.916Zm-.78-11.86133a3.99157,3.99157,0,0,0-7.72888,0h-.78308a4.75707,4.75707,0,0,1,9.293,0Zm-2.136,0H27.07324a2.00677,2.00677,0,0,1,3.46289,0Zm-1.71386-6.791a7.80443,7.80443,0,0,1,7.72851,6.791H35.47693a6.74593,6.74593,0,0,0-13.34021,0H21.06445A7.82355,7.82355,0,0,1,28.82227,22.26367Zm-13.06836,6.791h-.998V14.31982h.998Zm0-16.73487h-.998V9.13861l.998-.11236Z"></path></g></svg>