<svg height='100px' width='100px'  fill="#000000" xmlns="http://www.w3.org/2000/svg" viewBox="0 0 480 480" x="0px" y="0px"><path d="m144 352v56c0 4.417969 3.582031 8 8 8v64h16v-64h16v64h16v-64h16v64h16v-64h16v64h16v-64h16v64h16v-64h16v64h16v-64c4.417969 0 8-3.582031 8-8v-56c79.527344 0 144-64.472656 144-144s-64.472656-144-144-144v-24c0-4.417969-3.582031-8-8-8h-80v-32h-16v32h-80c-4.417969 0-8 3.582031-8 8v24c-79.527344 0-144 64.472656-144 144s64.472656 144 144 144zm176 48h-160v-48h160zm144-192c-.097656 66.453125-50.988281 121.796875-117.199219 127.457031 47.453125-24.804687 77.195313-73.914062 77.195313-127.457031s-29.742188-102.652344-77.195313-127.457031c66.210938 5.660156 117.101563 61.003906 117.199219 127.457031zm-56 0c-.082031 70.65625-57.34375 127.917969-128 128h-12.175781c38.03125-28.769531 60.320312-73.75 60.175781-121.441406v-13.117188c.144531-47.691406-22.144531-92.671875-60.175781-121.441406h12.175781c70.65625.082031 127.917969 57.34375 128 128zm-168 126.992188c-44.464844-23.699219-72.171875-70.046876-72-120.433594v-13.117188c-.171875-50.386718 27.535156-96.734375 72-120.433594 44.464844 23.699219 72.171875 70.046876 72 120.433594v13.117188c.171875 50.386718-27.535156 96.734375-72 120.433594zm-80-286.992188h160v16h-160zm40 32h12.175781c-38.03125 28.769531-60.320312 73.75-60.175781 121.441406v13.117188c-.144531 47.691406 22.144531 92.671875 60.175781 121.441406h-12.175781c-70.691406 0-128-57.308594-128-128s57.308594-128 128-128zm-66.800781.542969c-47.453125 24.804687-77.195313 73.914062-77.195313 127.457031s29.742188 102.652344 77.195313 127.457031c-66.257813-5.5625-117.207031-60.964843-117.207031-127.457031s50.949218-121.894531 117.207031-127.457031zm0 0"></path><path d="m176 368h32v16h-32zm0 0"></path><path d="m272 368h32v16h-32zm0 0"></path><path d="m224 368h32v16h-32zm0 0"></path></svg>