<svg height='100px' width='100px'  fill="#000000" xmlns:dc="http://purl.org/dc/elements/1.1/" xmlns:cc="http://creativecommons.org/ns#" xmlns:rdf="http://www.w3.org/1999/02/22-rdf-syntax-ns#" xmlns:svg="http://www.w3.org/2000/svg" xmlns="http://www.w3.org/2000/svg" xmlns:sodipodi="http://sodipodi.sourceforge.net/DTD/sodipodi-0.dtd" xmlns:inkscape="http://www.inkscape.org/namespaces/inkscape" viewBox="0 0 72 80.000002" version="1.1" x="0px" y="0px"><g transform="translate(0,-972.3622)"><path d="m 15.75154,1001.6188 c 0,0 0,1.3131 0,2.0707 1.80153,0 5.336928,-1.3804 5.336928,-5.82505 0,-4.44462 -3.771165,-5.26958 -4.899162,-5.26958 -1.127998,0 -4.612927,0.80813 -4.612927,4.44461 0,3.63652 3.417638,3.97322 4.091047,3.97322 0.673409,0 3.198693,-0.6061 2.912581,-3.33349 0,0.77446 -0.875407,2.40749 -2.710583,2.40749 -1.835052,0 -2.979873,-1.36369 -2.979873,-2.71049 0,-1.34691 1.111051,-3.14832 3.047164,-3.14832 1.936113,0 3.350223,1.71718 3.350223,3.45132 0,1.73408 -1.363517,3.93959 -3.535398,3.93959 z" style="" fill="#000000" fill-opacity="1" stroke="none"></path><path style="" d="m 14.173284,998.92296 0.107246,0.0694 c 0,0 0.852399,-1.94448 3.144142,-3.32711 -0.290441,0.15781 -1.824661,0.92175 -3.251388,3.25768 z" fill="#000000" stroke="none"></path><path style="" d="m 14.394208,998.58834 c 0,0 -0.265084,-0.54294 -0.03154,-0.78281 0.233541,-0.23994 0.126295,0.63762 0.126295,0.63762 l 0.100937,-0.14519 c 0,0 -0.157838,-0.66294 0.01893,-0.80181 0.176764,-0.13888 0.08844,0.63762 0.08844,0.63762 l 0.107245,-0.13887 c 0,0 -0.113554,-0.64393 0.0569,-0.76393 0.170455,-0.11994 0.06321,0.60611 0.06321,0.60611 l 0.126171,-0.14524 c 0,0 -0.09463,-0.61238 0.113678,-0.75756 0.208307,-0.14525 0.02523,0.58081 0.02523,0.58081 l 0.138913,-0.15149 c 0,0 -0.06321,-0.56195 0.113678,-0.6882 0.176763,-0.12624 0.02523,0.53032 0.02523,0.53032 l 0.126171,-0.13257 c 0,0 -0.03785,-0.52399 0.132604,-0.64393 0.170455,-0.12 0.01262,0.49875 0.01262,0.49875 l 0.132604,-0.12632 c 0,0 -0.03154,-0.52399 0.183072,-0.62499 0.214615,-0.101 -0.03785,0.49244 -0.03785,0.49244 l 0.145221,-0.12626 c 0,0 0.04416,-0.61237 0.227232,-0.66924 0.183072,-0.0568 -0.08201,0.54299 -0.08201,0.54299 l 0.132604,-0.10737 c 0,0 0.06939,-0.524 0.271392,-0.58713 0.202122,-0.0631 -0.126295,0.47981 -0.126295,0.47981 l 0.132604,-0.101 c 0,0 0.145221,-0.52399 0.334602,-0.58081 0.189504,-0.0568 -0.19569,0.49244 -0.19569,0.49244 l 0.126295,-0.0884 c 0,0 0.208307,-0.47356 0.378762,-0.50512 0.170455,-0.0316 -0.189381,0.39144 -0.189381,0.39144 l 0.157838,-0.0947 c 0,0 0.271516,-0.49244 0.366145,-0.34093 0.09475,0.15155 -0.378762,0.37249 -0.378762,0.37249 l -0.157838,0.0884 c 0,0 0.574575,-0.27144 0.643969,-0.13257 0.06939,0.13888 -0.78919,0.22732 -0.78919,0.22732 l -0.138912,0.0947 c 0,0 0.574575,-0.15787 0.505057,-0.0126 -0.0694,0.14519 -0.637537,0.11362 -0.637537,0.11362 l -0.132604,0.0947 c 0,0 0.574451,-0.13887 0.498748,-0.006 -0.07583,0.13257 -0.63766,0.11994 -0.63766,0.11994 l -0.138912,0.11369 c 0,0 0.561834,-0.14525 0.479822,0.0252 -0.08213,0.17044 -0.719795,0.16412 -0.719795,0.16412 l -0.157715,0.14519 c 0,0 0.593377,-0.20199 0.542908,-0.0442 -0.05047,0.15787 -0.726104,0.23995 -0.726104,0.23995 l -0.151529,0.15149 c 0,0 0.63766,-0.21463 0.44828,-0.0189 -0.189381,0.19575 -0.650278,0.24626 -0.650278,0.24626 l -0.183072,0.22093 c 0,0 0.631352,-0.37881 0.542908,-0.16413 -0.08832,0.21463 -0.707055,0.35988 -0.707055,0.35988 l -0.126171,0.1515 c 0,0 0.568142,-0.32831 0.511365,-0.14519 -0.0569,0.18306 -0.663019,0.37875 -0.663019,0.37875 l -0.100937,0.13894 c 0,0 0.669204,-0.39775 0.612303,-0.19575 -0.05678,0.20206 -0.694438,0.34724 -0.694438,0.34724 l -0.08201,0.12626 c 0,0 0.618735,-0.3535 0.625043,-0.18307 0.0062,0.17044 -0.726104,0.34094 -0.726104,0.34094 l -0.01262,-0.14525 z" fill="#000000" stroke="none"></path><path d="m 17.810485,998.92296 -0.107246,0.0694 c 0,0 -0.852399,-1.94448 -3.144143,-3.32711 0.290442,0.15781 1.824662,0.92175 3.251389,3.25768 z" style="" fill="#000000" fill-opacity="1" stroke="none"></path><path d="m 17.589561,998.58834 c 0,0 0.265084,-0.54294 0.03154,-0.78281 -0.233541,-0.23994 -0.126295,0.63762 -0.126295,0.63762 l -0.100937,-0.14519 c 0,0 0.157838,-0.66294 -0.01893,-0.80181 -0.176764,-0.13888 -0.08844,0.63762 -0.08844,0.63762 l -0.107245,-0.13887 c 0,0 0.113554,-0.64393 -0.0569,-0.76393 -0.170455,-0.11994 -0.06321,0.60611 -0.06321,0.60611 l -0.126171,-0.14524 c 0,0 0.09463,-0.61238 -0.113678,-0.75756 -0.208307,-0.14525 -0.02523,0.58081 -0.02523,0.58081 L 16.65515,997.3636 c 0,0 0.06321,-0.56195 -0.113678,-0.6882 -0.176763,-0.12624 -0.02523,0.53032 -0.02523,0.53032 l -0.126171,-0.13257 c 0,0 0.03785,-0.52399 -0.132604,-0.64393 -0.170455,-0.12 -0.01262,0.49875 -0.01262,0.49875 l -0.132604,-0.12632 c 0,0 0.03154,-0.52399 -0.183072,-0.62499 -0.214615,-0.101 0.03785,0.49244 0.03785,0.49244 L 15.8218,996.54284 c 0,0 -0.04416,-0.61237 -0.227232,-0.66924 -0.183072,-0.0568 0.08201,0.54299 0.08201,0.54299 l -0.132604,-0.10737 c 0,0 -0.06939,-0.524 -0.271392,-0.58713 -0.202122,-0.0631 0.126295,0.47981 0.126295,0.47981 l -0.132604,-0.101 c 0,0 -0.145221,-0.52399 -0.334602,-0.58081 -0.189504,-0.0568 0.19569,0.49244 0.19569,0.49244 l -0.126295,-0.0884 c 0,0 -0.208307,-0.47356 -0.378762,-0.50512 -0.170455,-0.0316 0.189381,0.39144 0.189381,0.39144 l -0.157838,-0.0947 c 0,0 -0.271393,-0.49244 -0.366145,-0.34093 -0.09475,0.15155 0.378762,0.37249 0.378762,0.37249 l 0.157838,0.0884 c 0,0 -0.574575,-0.27144 -0.643969,-0.13257 -0.0694,0.13888 0.78919,0.22732 0.78919,0.22732 l 0.138912,0.0947 c 0,0 -0.574575,-0.15787 -0.505057,-0.0126 0.06939,0.14519 0.637537,0.11362 0.637537,0.11362 l 0.132727,0.0947 c 0,0 -0.574574,-0.13887 -0.498748,-0.006 0.0757,0.13257 0.637537,0.11994 0.637537,0.11994 l 0.138912,0.11369 c 0,0 -0.561834,-0.14525 -0.479822,0.0252 0.08213,0.17044 0.719795,0.16412 0.719795,0.16412 l 0.157715,0.14519 c 0,0 -0.593377,-0.20199 -0.542909,-0.0442 0.05047,0.15787 0.726105,0.23995 0.726105,0.23995 l 0.151529,0.15149 c 0,0 -0.63766,-0.21463 -0.44828,-0.0189 0.189381,0.19575 0.650278,0.24626 0.650278,0.24626 l 0.183072,0.22093 c 0,0 -0.631352,-0.37881 -0.542908,-0.16413 0.08832,0.21463 0.707055,0.35988 0.707055,0.35988 l 0.126171,0.1515 c 0,0 -0.568142,-0.32831 -0.511365,-0.14519 0.0569,0.18306 0.663019,0.37875 0.663019,0.37875 l 0.100937,0.13894 c 0,0 -0.669204,-0.39775 -0.612303,-0.19575 0.05678,0.20206 0.694438,0.34724 0.694438,0.34724 l 0.08201,0.12626 c 0,0 -0.618735,-0.3535 -0.625043,-0.18307 -0.0062,0.17044 0.726104,0.34094 0.726104,0.34094 l 0.01262,-0.14525 z" style="" fill="#000000" fill-opacity="1" stroke="none"></path><path style="color:#000000;font-style:normal;font-variant:normal;font-weight:normal;font-stretch:normal;font-size:medium;line-height:normal;font-family:sans-serif;text-indent:0;text-align:start;text-decoration:none;text-decoration-line:none;text-decoration-style:solid;text-decoration-color:#000000;letter-spacing:normal;word-spacing:normal;text-transform:none;direction:ltr;block-progression:tb;writing-mode:lr-tb;baseline-shift:baseline;text-anchor:start;white-space:normal;clip-rule:nonzero;display:inline;overflow:visible;visibility:visible;opacity:1;isolation:auto;mix-blend-mode:normal;color-interpolation:sRGB;color-interpolation-filters:linearRGB;solid-color:#000000;solid-opacity:1;fill:#000000;fill-opacity:1;fill-rule:nonzero;stroke:none;stroke-width:1.43999994;stroke-linecap:butt;stroke-linejoin:miter;stroke-miterlimit:4;stroke-dasharray:none;stroke-dashoffset:0;stroke-opacity:1;color-rendering:auto;image-rendering:auto;shape-rendering:auto;text-rendering:auto;enable-background:accumulate" d="m 7.1992188,1019.7422 0,-0.7207 0,-42.47853 64.8007812,0 0,43.19923 -64.8007812,0 z m 1.4414062,-1.4395 61.919922,0 0,-40.32028 -61.919922,0 0,40.32028 z"></path><path style="color:#000000;font-style:normal;font-variant:normal;font-weight:normal;font-stretch:normal;font-size:medium;line-height:normal;font-family:sans-serif;text-indent:0;text-align:start;text-decoration:none;text-decoration-line:none;text-decoration-style:solid;text-decoration-color:#000000;letter-spacing:normal;word-spacing:normal;text-transform:none;direction:ltr;block-progression:tb;writing-mode:lr-tb;baseline-shift:baseline;text-anchor:start;white-space:normal;clip-rule:nonzero;display:inline;overflow:visible;visibility:visible;opacity:1;isolation:auto;mix-blend-mode:normal;color-interpolation:sRGB;color-interpolation-filters:linearRGB;solid-color:#000000;solid-opacity:1;fill:#000000;fill-opacity:1;fill-rule:evenodd;stroke:none;stroke-width:1.44000006;stroke-linecap:butt;stroke-linejoin:miter;stroke-miterlimit:4;stroke-dasharray:none;stroke-dashoffset:0;stroke-opacity:1;color-rendering:auto;image-rendering:auto;shape-rendering:auto;text-rendering:auto;enable-background:accumulate" d="m 8.4921875,976.83789 -0.7832031,1.20899 29.5175776,19.10546 34.773438,0 0,-1.43945 -34.347656,0 -29.1601565,-18.875 z"></path><path style="color:#000000;font-style:normal;font-variant:normal;font-weight:normal;font-stretch:normal;font-size:medium;line-height:normal;font-family:sans-serif;text-indent:0;text-align:start;text-decoration:none;text-decoration-line:none;text-decoration-style:solid;text-decoration-color:#000000;letter-spacing:normal;word-spacing:normal;text-transform:none;direction:ltr;block-progression:tb;writing-mode:lr-tb;baseline-shift:baseline;text-anchor:start;white-space:normal;clip-rule:nonzero;display:inline;overflow:visible;visibility:visible;opacity:1;isolation:auto;mix-blend-mode:normal;color-interpolation:sRGB;color-interpolation-filters:linearRGB;solid-color:#000000;solid-opacity:1;fill:#000000;fill-opacity:1;fill-rule:evenodd;stroke:none;stroke-width:1.44000006;stroke-linecap:butt;stroke-linejoin:miter;stroke-miterlimit:4;stroke-dasharray:none;stroke-dashoffset:0;stroke-opacity:1;color-rendering:auto;image-rendering:auto;shape-rendering:auto;text-rendering:auto;enable-background:accumulate" d="m 8.484375,981.33398 -0.7695312,1.2168 24.6875002,15.5918 -24.6875002,15.59182 0.7695312,1.2168 26.613281,-16.80862 -26.613281,-16.8086 z"></path><path style="color:#000000;font-style:normal;font-variant:normal;font-weight:normal;font-stretch:normal;font-size:medium;line-height:normal;font-family:sans-serif;text-indent:0;text-align:start;text-decoration:none;text-decoration-line:none;text-decoration-style:solid;text-decoration-color:#000000;letter-spacing:normal;word-spacing:normal;text-transform:none;direction:ltr;block-progression:tb;writing-mode:lr-tb;baseline-shift:baseline;text-anchor:start;white-space:normal;clip-rule:nonzero;display:inline;overflow:visible;visibility:visible;opacity:1;isolation:auto;mix-blend-mode:normal;color-interpolation:sRGB;color-interpolation-filters:linearRGB;solid-color:#000000;solid-opacity:1;fill:#000000;fill-opacity:1;fill-rule:evenodd;stroke:none;stroke-width:1.44000006;stroke-linecap:butt;stroke-linejoin:miter;stroke-miterlimit:4;stroke-dasharray:none;stroke-dashoffset:0;stroke-opacity:1;color-rendering:auto;image-rendering:auto;shape-rendering:auto;text-rendering:auto;enable-background:accumulate" d="m 37.21875,999.08203 -29.5097656,19.06447 0.78125,1.2109 29.1542966,-18.8359 34.347657,0 0,-1.43947 -34.773438,0 z"></path><path style="color:#000000;font-style:normal;font-variant:normal;font-weight:normal;font-stretch:normal;font-size:medium;line-height:normal;font-family:sans-serif;text-indent:0;text-align:start;text-decoration:none;text-decoration-line:none;text-decoration-style:solid;text-decoration-color:#000000;letter-spacing:normal;word-spacing:normal;text-transform:none;direction:ltr;block-progression:tb;writing-mode:lr-tb;baseline-shift:baseline;text-anchor:start;white-space:normal;clip-rule:nonzero;display:inline;overflow:visible;visibility:visible;opacity:1;isolation:auto;mix-blend-mode:normal;color-interpolation:sRGB;color-interpolation-filters:linearRGB;solid-color:#000000;solid-opacity:1;fill:#000000;fill-opacity:1;fill-rule:nonzero;stroke:none;stroke-width:1.44000006;stroke-linecap:butt;stroke-linejoin:round;stroke-miterlimit:4;stroke-dasharray:none;stroke-dashoffset:0;stroke-opacity:1;color-rendering:auto;image-rendering:auto;shape-rendering:auto;text-rendering:auto;enable-background:accumulate" d="M 0.72070312,972.58203 A 0.72007203,0.72007203 0 0 0 0,973.30273 l 0,78.11917 a 0.72007203,0.72007203 0 0 0 0.72070312,0.7207 l 7.19921878,0 a 0.72007203,0.72007203 0 0 0 0.7207031,-0.7207 l 0,-32.4004 -1.4414062,0 0,31.6816 -5.7597657,0 0,-76.68162 5.7597657,0 0,3.41993 1.4414062,0 0,-4.13868 a 0.72007203,0.72007203 0 0 0 -0.7207031,-0.7207 l -7.19921878,0 z"></path></g></svg>