<svg height='100px' width='100px'  fill="#000000" xmlns="http://www.w3.org/2000/svg" viewBox="0 0 64 64" x="0px" y="0px"><g><path d="M3.068,34.847a1,1,0,0,0,.121.207,1,1,0,0,0,.069.1.972.972,0,0,0,.3.226l27.471,13.26a15.3,15.3,0,0,0,3.316,8.888l.877,1.1a1,1,0,1,0,1.56-1.25L35.9,56.28a13.306,13.306,0,0,1-2.655-5.734,15.142,15.142,0,0,0,7.092,3.191l.494.083a1,1,0,0,0,.33-1.973l-.495-.082a13.164,13.164,0,0,1-6.955-3.483l26.729-12.9a.988.988,0,0,0,.3-.226.827.827,0,0,0,.068-.1,1,1,0,0,0,.122-.209.986.986,0,0,0,.035-.132A.967.967,0,0,0,61,34.493a.933.933,0,0,0-.012-.148c-.006-.04,0-.081-.01-.121a29.71,29.71,0,0,0-3.953-8.766h0A29.895,29.895,0,0,0,32.053,12.011c-.018,0-.034-.011-.053-.011s-.035.01-.053.011A29.952,29.952,0,0,0,6.708,25.879a29.478,29.478,0,0,0-3.685,8.344c-.01.041,0,.081-.01.123A1.042,1.042,0,0,0,3,34.493a1.091,1.091,0,0,0,.032.221A1.047,1.047,0,0,0,3.068,34.847Zm21.949,8.669a7.12,7.12,0,0,1,.928-3.027l3.274,5.057ZM31,44.616l-3.719-5.743a6.5,6.5,0,0,1,3.1-1.678c.015,0,.029-.009.045-.012.082-.019.166-.027.249-.043.11-.021.219-.04.329-.056Zm2,0V37.084c.136.019.272.041.407.069.056.011.114.016.17.029.192.044.38.1.568.165.066.021.134.035.2.058.137.048.269.112.4.169.113.048.229.089.34.143.2.1.38.236.571.354s.417.232.6.375c.167.127.3.286.457.428Zm1.781.93,3.264-5.041a7,7,0,0,1,.938,3.011Zm6.1-2.948a8.979,8.979,0,0,0-4.908-6.675h0A9.185,9.185,0,0,0,32.015,35L32,35l-.009,0-.031,0a9.071,9.071,0,0,0-3.931.922h0a8.956,8.956,0,0,0-2.786,2.136A8.8,8.8,0,0,0,23.52,41a8.657,8.657,0,0,0-.406,1.6l-1.852-.9c0-.021.007-.041.011-.061a10.888,10.888,0,0,1,.337-1.2c.028-.085.06-.168.091-.252a10.634,10.634,0,0,1,2.757-4.187,10.658,10.658,0,0,1,3.191-2.1.985.985,0,0,0,.117-.059A10.991,10.991,0,0,1,31.807,33h.1c.027,0,.06,0,.089,0h.193a11,11,0,0,1,4.039.84.884.884,0,0,0,.119.06,10.659,10.659,0,0,1,3.192,2.1A11.692,11.692,0,0,1,41.7,38.854a10.706,10.706,0,0,1,.557,1.237c.034.089.069.177.1.267a10.644,10.644,0,0,1,.364,1.266c.006.026.01.052.015.079Zm17.937-8.654-14.23,6.864c-.017-.068-.046-.133-.064-.2q-.148-.544-.343-1.072c-.044-.12-.087-.239-.135-.357q-.114-.284-.242-.559L55.968,27.563A27.62,27.62,0,0,1,58.819,33.944ZM54.86,25.868,42.81,36.819A12.933,12.933,0,0,0,41.5,35.155L50.6,21.1A28.022,28.022,0,0,1,54.86,25.868ZM43.06,16.3a27.718,27.718,0,0,1,5.986,3.52L40.014,33.772c-.071-.056-.148-.1-.221-.16-.212-.16-.423-.321-.643-.466-.116-.077-.238-.143-.356-.216-.2-.122-.4-.247-.6-.358-.078-.042-.16-.079-.239-.119ZM33,14.032a28.026,28.026,0,0,1,8.2,1.524L36.1,31.666a12.911,12.911,0,0,0-3.1-.614V26.9a5,5,0,0,0,0-9.8ZM32,19a3,3,0,1,1-3,3A3,3,0,0,1,32,19Zm-1-4.968V17.1a5,5,0,0,0,0,9.8v4.153a12.911,12.911,0,0,0-3.1.614L22.8,15.556A28.019,28.019,0,0,1,31,14.032ZM20.94,16.3l5.107,16.157c-.08.041-.162.077-.241.12-.193.1-.378.222-.565.337-.131.08-.265.152-.393.237-.2.134-.4.283-.593.43-.089.067-.182.126-.269.2L14.954,19.815A27.771,27.771,0,0,1,20.94,16.3ZM13.4,21.1l9.1,14.055a13.043,13.043,0,0,0-1.441,1.855L8.877,26.258A27.763,27.763,0,0,1,13.4,21.1Zm-5.61,6.866,12.3,10.861c-.066.154-.131.308-.191.465-.047.119-.089.24-.131.361-.109.307-.2.617-.291.931-.02.075-.05.147-.069.222L5.181,33.944A27.341,27.341,0,0,1,7.793,27.968Z"></path><path d="M38.439,60.83a.782.782,0,0,0,.181.09.636.636,0,0,0,.18.06A1.487,1.487,0,0,0,39,61a.838.838,0,0,0,.38-.08,1.169,1.169,0,0,0,.33-.21A1.052,1.052,0,0,0,40,60a1,1,0,0,0-.08-.38,1.155,1.155,0,0,0-.21-.33,1.169,1.169,0,0,0-.33-.21.956.956,0,0,0-.58-.06.636.636,0,0,0-.18.06.782.782,0,0,0-.181.09l-.149.12a1.155,1.155,0,0,0-.21.33A1,1,0,0,0,38,60a1.047,1.047,0,0,0,.29.71Z"></path><path d="M44.439,53.83a.782.782,0,0,0,.181.09.636.636,0,0,0,.18.06A1.487,1.487,0,0,0,45,54a1.2,1.2,0,0,0,.189-.02.609.609,0,0,0,.191-.06.568.568,0,0,0,.17-.09c.059-.04.11-.08.16-.12a1.032,1.032,0,0,0,.21-.33A1,1,0,0,0,46,53a1.052,1.052,0,0,0-.29-.71c-.05-.04-.1-.08-.16-.12a.568.568,0,0,0-.17-.09.609.609,0,0,0-.191-.06.852.852,0,0,0-.389,0,.636.636,0,0,0-.18.06.782.782,0,0,0-.181.09l-.149.12A1.047,1.047,0,0,0,44,53a.838.838,0,0,0,.08.38,1.032,1.032,0,0,0,.21.33Z"></path></g></svg>