<svg height='100px' width='100px'  fill="#000000" xmlns="http://www.w3.org/2000/svg" xmlns:xlink="http://www.w3.org/1999/xlink" version="1.1" x="0px" y="0px" viewBox="0 0 100 100" style="enable-background:new 0 0 100 100;" xml:space="preserve"><g><path d="M77.3,19.62l-6.53-1.35l1.82-8.81L50.93,5l-1.81,8.81l-6.53-1.35l-3.98,19.3l-3.83-0.79l-0.6,2.94l3.83,0.79l-3.49,16.91   l-3.83-0.79l-0.6,2.94l3.83,0.79l-3.49,16.91l-3.83-0.79L26,73.61l3.83,0.79L26.2,92h-3.49v3h44.31v-3H62.4l2.15-10.45l3.82,0.79   l0.6-2.94l-3.82-0.78l3.49-16.92l3.82,0.79l0.6-2.94l-3.82-0.79l3.48-16.91l3.83,0.79l0.6-2.94l-3.82-0.79L77.3,19.62z M53.26,8.54   l15.78,3.25l-1.21,5.88l-15.78-3.25L53.26,8.54z M40.98,84.72L39.47,92h-3.86l1.65-8.05c0.22-1.02,1.22-1.69,2.24-1.47   c0.5,0.1,0.93,0.39,1.21,0.81C40.99,83.71,41.08,84.22,40.98,84.72z M53.94,87.39L52.99,92H49.1l1.11-5.37   c0.21-1.03,1.22-1.69,2.26-1.48c0.5,0.11,0.92,0.4,1.2,0.82C53.95,86.39,54.05,86.9,53.94,87.39z M59.33,92h-3.28l0.83-4   c0.27-1.28,0.02-2.59-0.7-3.68c-0.72-1.09-1.82-1.84-3.1-2.11c-2.66-0.54-5.26,1.16-5.81,3.81L46.04,92h-3.5l1.38-6.67   c0.27-1.29,0.02-2.6-0.7-3.69c-0.72-1.09-1.82-1.84-3.11-2.1c-2.64-0.55-5.23,1.16-5.78,3.81L32.54,92h-2.86l-0.4-0.08l3.48-16.91   l28.85,5.94L59.33,92z M39.45,73.32l1.79-8.67c0.1-0.5,0.39-0.93,0.81-1.2c0.42-0.28,0.93-0.38,1.43-0.27   c0.5,0.1,0.93,0.39,1.21,0.81c0.27,0.42,0.37,0.93,0.27,1.43l-1.79,8.67L39.45,73.32z M52.41,75.99l1.78-8.67   c0.21-1.02,1.23-1.68,2.25-1.47c1.02,0.21,1.68,1.21,1.47,2.24l-1.78,8.67L52.41,75.99z M62.21,78.01l-3.14-0.65l1.78-8.67   c0.27-1.28,0.02-2.59-0.7-3.68c-0.72-1.09-1.82-1.84-3.11-2.1c-2.64-0.55-5.24,1.16-5.79,3.81l-1.78,8.66l-3.36-0.69l1.79-8.67   c0.26-1.28,0.01-2.59-0.71-3.68c-0.72-1.09-1.82-1.84-3.1-2.1c-1.29-0.27-2.6-0.02-3.69,0.7c-1.09,0.72-1.84,1.82-2.1,3.11   l-1.79,8.67l-3.14-0.65l3.48-16.91L65.7,61.1L62.21,78.01z M43.54,53.47l1.67-8.12c0.21-1.02,1.22-1.68,2.25-1.48   c1.02,0.22,1.69,1.22,1.47,2.25l-1.67,8.12L43.54,53.47z M56.5,56.14l1.67-8.12c0.1-0.5,0.39-0.92,0.82-1.2   c0.42-0.28,0.93-0.38,1.42-0.28c0.5,0.11,0.93,0.4,1.21,0.82c0.28,0.42,0.37,0.93,0.27,1.43l-1.67,8.12L56.5,56.14z M66.3,58.16   l-3.14-0.65l1.67-8.12c0.26-1.28,0.01-2.59-0.71-3.68c-0.71-1.09-1.82-1.84-3.1-2.1c-1.28-0.27-2.58-0.02-3.68,0.7   c-1.09,0.72-1.84,1.82-2.11,3.11l-1.67,8.11l-3.36-0.69l1.67-8.12c0.55-2.64-1.16-5.24-3.81-5.78c-2.64-0.55-5.24,1.16-5.79,3.81   l-1.67,8.11l-3.14-0.64l3.48-16.92l28.85,5.95L66.3,58.16z M47.63,33.62l1.56-7.57c0.1-0.5,0.39-0.93,0.81-1.21   c0.43-0.27,0.93-0.37,1.43-0.27c0.5,0.11,0.93,0.4,1.21,0.82c0.28,0.42,0.37,0.93,0.27,1.43l-1.56,7.56L47.63,33.62z M60.59,36.29   l1.56-7.57c0.1-0.5,0.39-0.92,0.81-1.2c0.43-0.28,0.94-0.38,1.43-0.28c1.03,0.21,1.69,1.22,1.48,2.25l-1.56,7.56L60.59,36.29z    M70.39,38.31l-3.14-0.65l1.56-7.57c0.26-1.28,0.01-2.59-0.71-3.68c-0.72-1.09-1.82-1.84-3.11-2.11c-1.27-0.26-2.58-0.01-3.67,0.71   c-1.1,0.72-1.85,1.82-2.11,3.1l-1.56,7.57l-3.36-0.69l1.56-7.57c0.26-1.28,0.01-2.59-0.7-3.68c-0.72-1.09-1.83-1.84-3.11-2.11   c-1.29-0.26-2.59-0.01-3.69,0.71c-1.09,0.72-1.83,1.82-2.1,3.1l-1.56,7.57l-3.14-0.64l3.37-16.36l28.84,5.94L70.39,38.31z"></path></g></svg>