<svg height='100px' width='100px'  fill="#000000" xmlns="http://www.w3.org/2000/svg" xmlns:xlink="http://www.w3.org/1999/xlink" version="1.1" x="0px" y="0px" viewBox="0 0 100 100" enable-background="new 0 0 100 100" xml:space="preserve"><path d="M87.277,16.953c-2.159,0.166-4.941,0.708-6.436,1.446c-0.14-1.328-0.465-2.887-1.127-4.57  c-1.473-3.752-7.984-8.628-8.695-8.27c-0.713,0.359-0.946,5.338-5.541,8.627c-3.318,2.374-5.104,3.137-5.817,3.376  c-0.772-1.225-2.128-2.047-3.681-2.047c-0.432,0-0.822,0.061-1.22,0.196c-1.2-1.321-2.928-2.15-4.844-2.15  c-1.963,0-3.729,0.863-4.938,2.229c-0.587-0.188-1.256-0.275-1.764-0.275c-1.542,0-2.892,0.811-3.667,2.023  c-0.755-0.263-2.528-1.049-5.746-3.351c-4.595-3.289-4.784-8.248-5.502-8.629s-7.262,4.52-8.734,8.271  c-0.635,1.614-0.96,3.045-1.108,4.249c-1.343-0.572-3.904-0.984-5.736-1.125c-0.606-0.047,0.75,10.448,2.309,12.941  c-0.575-0.148-2.194-0.032-2.682,0.327c-0.574,0.423,0.765,7.393,3.752,9.994c-0.316,0.022-2.895,0.568-2.86,1.138  c0.406,6.873,1.834,9.263,2.303,9.72c1.1,1.069,3.756,2.09,5.654,2.722c0.187,3.956,0.965,8.498,3.282,11.241  c-0.647,3.801-7.654,8.81-6.976,9.659c0.424,0.529,4.263,5.175,8.707,5.323c1.291,0.034,2.518-0.134,3.621-0.407  c0,0-0.396,5.497-3.77,9.983c-0.428,0.569,10.547-0.378,14.835-6.239c2.821,7.722,1.469,10.83,2.493,11.082  c1.203,0.296,2.711-2.058,3.37-3.564c0.61-1.393,1.241-3.324,1.941-5.226c0.324-0.881,0.646-1.763,0.952-2.597  c0.329,0.846,0.678,1.741,1.027,2.637c0.743,1.903,1.37,3.86,2.063,5.229c1.317,2.599,3.153,3.603,3.438,3.516  c1.003-0.304-0.434-3.136,2.475-11.07c4.288,5.861,14.311,6.85,13.962,6.233c-2.62-4.632-2.896-9.982-2.896-9.982  c1.103,0.273,2.336,0.446,3.62,0.407c4.445-0.148,8.285-4.795,8.709-5.324c0.679-0.85-5.678-4.649-7.146-9.906  c1.749-2.235,2.764-5.854,3.027-10.805c2.219-0.606,5.395-1.664,6.607-3.002c1.245-1.373,1.95-5.115,2.217-9.629  c0.034-0.569-2.544-1.115-2.86-1.138c2.987-2.602,4.326-9.571,3.752-9.994c-0.486-0.359-2.105-0.475-2.682-0.327  C86.527,27.402,87.884,16.907,87.277,16.953z M67.807,17.439c2.958-2.117,4.494-4.367,5.287-6.225  c1.179,1.26,2.385,2.771,2.898,4.078c0.292,0.742,0.498,1.45,0.642,2.106c-0.424,0.046-6.76,3.23-9.015,4.914  c-1.365-0.487-2.772-0.726-4.385-0.726h-0.127c-0.008,0-0.019,0-0.028,0h-2.977C61.274,21.353,63.595,20.454,67.807,17.439z   M55.981,17.515c1.301,0,2.358,1.058,2.358,2.358c0,0.531-0.181,1.039-0.497,1.447c-0.352-0.537-0.818-0.992-1.365-1.329  c-0.021-0.879-0.214-1.715-0.546-2.476C55.948,17.515,55.965,17.515,55.981,17.515z M56.553,23.702c0,1.277-1.021,2.321-2.289,2.358  c0.008-0.104,0.012-0.209,0.012-0.315c0-1.48-0.741-2.79-1.873-3.578c0.44-0.515,1.09-0.823,1.792-0.823  C55.495,21.344,56.553,22.402,56.553,23.702z M49.918,15.561c2.243,0,4.113,1.639,4.491,3.788c-1.581-0.07-3.109,0.732-3.931,2.074  c-0.55-0.07-1.135-0.034-1.662,0.104c-0.666-1.245-1.916-2.05-3.422-2.168C45.771,17.204,47.656,15.561,49.918,15.561z   M52.275,25.745c0,1.301-1.058,2.358-2.358,2.358s-2.359-1.058-2.359-2.358s1.059-2.358,2.359-2.358S52.275,24.445,52.275,25.745z   M45.004,21.344c0.918,0,1.662,0.419,2.044,1.122c-0.913,0.8-1.49,1.974-1.49,3.279c0,0.084,0.002,0.167,0.007,0.249  c-0.183,0.045-0.37,0.067-0.561,0.067c-1.301,0-2.358-1.059-2.358-2.359S43.703,21.344,45.004,21.344z M43.217,17.515  c0.193,0,0.418,0.022,0.635,0.059c-0.278,0.653-0.455,1.359-0.508,2.1c-0.817,0.337-1.51,0.917-1.988,1.648  c-0.316-0.408-0.497-0.916-0.497-1.448C40.858,18.572,41.916,17.515,43.217,17.515z M40.647,23.586  c-0.001,0.039-0.002,0.077-0.002,0.116c0,2.403,1.955,4.359,4.358,4.359c0.385,0,0.764-0.05,1.132-0.148  c0.753,1.308,2.166,2.19,3.781,2.19c1.568,0,2.945-0.832,3.713-2.078c0.188,0.023,0.376,0.036,0.564,0.036  c2.403,0,4.358-1.956,4.358-4.359c0-0.039-0.001-0.077-0.002-0.116h2.636c-3.3,4.767-9.509,13.99-8.713,21.345  c0.005,0.987,0.135,1.945,0.376,2.859c-0.56-0.082-1.164-0.101-1.784-0.101h-2.298c-0.557,0-1.101,0.015-1.611,0.077  c0.237-0.906,0.365-1.857,0.37-2.836c0.796-7.354-5.478-16.608-8.767-21.345H40.647z M58.233,50.921  c1.231,0,2.233-1.002,2.233-2.234c0-1.231-1.002-2.233-2.233-2.233c-1.232,0-2.234,1.002-2.234,2.233  c0,0.165,0.018,0.326,0.053,0.481c-0.086-0.318-0.131-0.652-0.131-0.997c0-2.131,1.734-3.865,3.866-3.865  c2.131,0,3.865,1.734,3.865,3.865c0,2.132-1.734,3.866-3.865,3.866c-1.015,0-1.938-0.393-2.629-1.034  c-0.263-0.301-0.499-0.625-0.706-0.969C56.86,50.572,57.507,50.921,58.233,50.921z M65.652,48.171c0-3.234-2.631-5.865-5.865-5.865  c-1.334,0-2.564,0.447-3.551,1.199c1.118-2.175,3.387-3.667,5.996-3.667c3.715,0,6.737,3.022,6.737,6.737  c0,3.583-2.811,6.521-6.342,6.727C64.43,52.3,65.652,50.375,65.652,48.171z M70.97,46.575c0-4.817-3.92-8.737-8.737-8.737  c-2.965,0-5.59,1.484-7.17,3.749c1.339-3.602,4.811-6.174,8.872-6.174c5.217,0,9.461,4.244,9.461,9.461  c0,4.062-2.572,7.533-6.174,8.871C69.485,52.165,70.97,49.54,70.97,46.575z M65.481,64.253c-1.592,3.543-5.113,5.833-8.971,5.833  H42.64c-3.763,0-7.383-2.367-9.007-5.891c-0.006-0.012-0.014-0.022-0.02-0.034c0.061-0.037,0.12-0.064,0.182-0.102  c2.134,1.841,5.494,3.748,8.845,3.748h13.871c0.09,0,0.179-0.001,0.269-0.004c0.098,0.01,0.193,0.004,0.284-0.014  c3.037-0.196,6.097-1.963,8.187-3.758c0.096,0.054,0.187,0.092,0.282,0.142C65.518,64.202,65.495,64.224,65.481,64.253z   M35.519,62.892c0.019-0.014,0.037-0.026,0.057-0.04c0.007-0.005,0.015-0.011,0.022-0.016h6.118v2.91  C39.516,65.468,37.223,64.255,35.519,62.892z M43.716,65.807v-2.971h2.609v2.971H43.716z M48.325,65.807v-2.971h2.61v2.971H48.325z   M52.936,65.807v-2.971h2.938v2.971H52.936z M57.873,65.671v-2.835h5.41c0.051,0.032,0.103,0.065,0.153,0.098  C61.917,64.127,59.891,65.285,57.873,65.671z M38.648,60.836c2.659-1.541,6.149-2.921,11.161-2.921  c4.178,0,7.472,1.371,10.217,2.921H38.648z M50.044,55.611h-0.255c-2.12,0-3.845-1.738-3.851-3.878  c0.002-1.707,0.238-2.043,2.829-2.043h2.298c2.591,0,2.827,0.336,2.829,2.043C53.889,53.872,52.164,55.611,50.044,55.611z   M40.895,46.512c-1.231,0-2.233,1.002-2.233,2.234c0,1.231,1.002,2.233,2.233,2.233c0.879,0,1.642-0.51,2.006-1.25  c-0.601,1.358-1.96,2.308-3.537,2.308c-2.131,0-3.865-1.734-3.865-3.866c0-2.131,1.734-3.865,3.865-3.865s3.865,1.734,3.865,3.865  c0,0.4-0.062,0.787-0.175,1.151c0.049-0.184,0.075-0.377,0.075-0.576C43.129,47.514,42.127,46.512,40.895,46.512z M39.363,42.306  c-3.234,0-5.865,2.631-5.865,5.865c0,2.092,1.101,3.932,2.753,4.971c-2.987-0.69-5.221-3.372-5.221-6.566  c0-3.715,3.022-6.737,6.737-6.737c3.193,0,5.875,2.233,6.565,5.221C43.294,43.406,41.455,42.306,39.363,42.306z M37.768,37.838  c-4.817,0-8.737,3.92-8.737,8.737c0,2.965,1.484,5.59,3.748,7.17c-3.602-1.338-6.174-4.81-6.174-8.871  c0-5.217,4.244-9.461,9.461-9.461c4.062,0,7.533,2.572,8.872,6.174C43.357,39.322,40.732,37.838,37.768,37.838z M23.29,15.292  c0.512-1.303,1.719-2.814,2.899-4.076c0.793,1.856,2.329,4.106,5.286,6.223c4.213,3.015,6.536,3.914,7.708,4.147h-2.317  c-0.01,0-0.021,0-0.028,0h-0.921c-1.362,0-2.568,0.163-3.703,0.466c-2.642-1.998-9.083-4.734-9.594-4.593  C22.764,16.812,22.978,16.087,23.29,15.292z M23.728,50.4c-2.379-0.712-4.9-1.738-5.371-2.169c-0.266-0.329-0.688-1.67-0.959-4.138  c1.846-0.192,4.289-0.619,5.293-1.509c0.511-0.452,1.331-1.759,0.649-1.81c-2.507-0.187-4.746-1.291-6.422-6.447  c1.421,0.04,2.806-0.306,3.725-0.817c0.64-0.355,1.033-1.032,1.027-1.764c-0.006-0.731-3.701-0.544-5.588-10.293  c4.918,0,8.464,8.404,9.248,9.021c0.708,0.558-0.613-6.31-0.927-7.349c2.513,0.088,6.347,0.629,9.388,6.817  c0,0,3.146-2.74,0.354-6.236c0.562-0.072,1.142-0.121,1.772-0.121h0.408c0.162,0.233,0.337,0.486,0.524,0.756  c1.937,2.784,5.192,7.468,7.139,12.258c-2.06-1.973-4.853-3.187-7.923-3.187c-6.319,0-11.461,5.142-11.461,11.461  s5.142,11.46,11.461,11.46c3.121,0,5.954-1.254,8.023-3.284c0.284,1.237,0.957,2.327,1.882,3.13  c-5.504,0.791-8.923,3.193-11.546,5.035c-0.287,0.203-0.566,0.398-0.836,0.583c-0.165,0.046-0.321,0.136-0.449,0.268  c-0.026,0.026-0.05,0.055-0.072,0.083c-0.652,0.428-1.25,0.769-1.802,0.959c-0.009,0.003-0.015,0.01-0.023,0.014  c-0.021,0.006-0.042,0.008-0.063,0.015l-0.151,0.052c-1.6,0.548-2.402,0.179-2.867-0.148c-1.779-1.25-2.932-5.37-3.007-10.752  C25.142,51.414,24.564,50.65,23.728,50.4z M76.613,73.588c-1.199,1.12-2.909,2.395-4.403,2.434  c-5.772,0.149-6.673-2.142-7.348-1.589c-0.673,0.552,2.817,10.874,2.817,10.874c-6.492-2.073-8.125-7.723-8.968-7.723  c-0.222,0-0.447,0.034-0.669,0.106c-1.333,0.431-2.856,2.946-3.803,6.114c-0.959-2.457-3.815-8.438-4.642-8.438  c-0.007,0-0.013,0-0.02,0c-0.834,0.008-3.486,5.783-4.353,8.141c-0.951-3.03-2.422-5.406-3.713-5.823  c-1.069-0.348-3.014,5.362-9.636,7.618c0,0,3.489-10.313,2.819-10.865c-0.67-0.552-1.072,1.943-7.352,1.584  c-1.48-0.085-3.194-1.315-4.397-2.436c1.692-1.532,4.288-4.042,5.868-6.35c0.834,0.229,0.826,0.317,1.982,0.128  c2.535,4.132,7.021,6.723,11.841,6.723h13.871c4.895,0,9.401-2.612,11.88-6.773c1.296,0.214,1.383,0.085,2.271-0.197  C72.237,69.461,74.892,72.03,76.613,73.588z M78.33,31.746c-0.612,0.4,0.388,1.408,1.027,1.764c0.919,0.511,2.309,0.839,3.725,0.817  c-0.465,1.742-3.165,6.344-6.422,6.447c-0.683,0.022,0.139,1.357,0.649,1.81c1.005,0.89,3.449,1.316,5.295,1.509  c-0.37,3.439-0.994,4.168-1.017,4.193c-0.543,0.527-3.374,1.548-6.058,2.184c-0.886,0.21-1.519,0.992-1.539,1.903  c-0.119,5.513-1.18,9.382-2.909,10.614c-0.454,0.323-1.241,0.697-2.849,0.181c-0.06-0.019-0.125-0.016-0.187-0.029  c-0.06-0.034-0.112-0.079-0.18-0.101c-1.099-0.353-2.387-1.174-3.878-2.124c-2.584-1.646-5.913-3.768-10.261-4.62  c1.028-0.841,1.77-2.027,2.047-3.381c2.08,2.11,4.97,3.421,8.16,3.421c6.319,0,11.461-5.141,11.461-11.46  s-5.142-11.461-11.461-11.461c-3.085,0-5.89,1.226-7.952,3.215c1.942-4.829,5.218-9.553,7.162-12.356  c0.167-0.241,0.325-0.469,0.471-0.681c0.777,0.02,1.483,0.115,2.166,0.267c-2.489,3.48,0.428,6.084,0.428,6.084  c4.166-6.209,6.791-6.6,9.318-6.589c-0.292,0.958-1.566,7.678-0.857,7.12c0.784-0.616,4.288-9.057,9.248-9.021  C82.961,25.722,81.25,29.838,78.33,31.746z"></path></svg>