<svg height='100px' width='100px'  fill="#000000" xmlns="http://www.w3.org/2000/svg" viewBox="0 0 64 64" x="0px" y="0px"><g><path d="M11,3V58.5a3.5,3.5,0,0,0,7,0V51a1.5,1.5,0,0,1,3,0v3a3.5,3.5,0,0,0,7,0V48.5A1.5,1.5,0,0,1,29.5,47h10A1.5,1.5,0,0,1,41,48.5v5a3.5,3.5,0,0,0,7,0v-5A1.5,1.5,0,0,1,49.5,47H55a1,1,0,0,0,1-1A44.049,44.049,0,0,0,12,2,1,1,0,0,0,11,3ZM46,48.5v5a1.5,1.5,0,0,1-3,0v-5A3.5,3.5,0,0,0,39.5,45h-10A3.5,3.5,0,0,0,26,48.5V54a1.5,1.5,0,0,1-3,0V51a3.5,3.5,0,0,0-7,0v7.5a1.5,1.5,0,0,1-3,0V9.025A37.03,37.03,0,0,1,48.976,45.053,3.5,3.5,0,0,0,46,48.5ZM53.988,45H50.975A39.033,39.033,0,0,0,13,7.025V4.012A42.048,42.048,0,0,1,53.988,45Z"></path><path d="M21,16a4,4,0,0,0,0,8V22a2,2,0,1,1,2-2h2A4,4,0,0,0,21,16Z"></path><path d="M20,39a2,2,0,0,1,0-4V33a4,4,0,1,0,4,4H22A2,2,0,0,1,20,39Z"></path><path d="M38,25a4,4,0,0,0-4-4v2a2,2,0,1,1-2,2H30a4,4,0,0,0,8,0Z"></path><path d="M37,34a4,4,0,0,0-4,4h2a2,2,0,1,1,2,2v2a4,4,0,0,0,0-8Z"></path><rect x="26" y="42" width="2" height="2"></rect><rect x="44" y="42" width="2" height="2"></rect><rect x="15" y="43" width="2" height="2"></rect><rect x="26" y="30" width="2" height="2"></rect><rect x="16" y="27" width="2" height="2"></rect><rect x="40" y="30" width="2" height="2"></rect><rect x="28" y="16" width="2" height="2"></rect><rect x="15" y="12" width="2" height="2"></rect><rect x="7" y="27" width="2" height="25"></rect><rect x="7" y="54" width="2" height="2"></rect><path d="M54.086,27.4l1.828-.808A48.413,48.413,0,0,0,35.485,4.128l-.98,1.744A46.405,46.405,0,0,1,54.086,27.4Z"></path></g></svg>