<svg height='100px' width='100px'  fill="#000000" xmlns="http://www.w3.org/2000/svg" xmlns:xlink="http://www.w3.org/1999/xlink" version="1.1" x="0px" y="0px" viewBox="0 0 66 66" enable-background="new 0 0 66 66" xml:space="preserve"><g><path d="M55,28.8c0-9.6-4.9-18.3-12.6-22.4V2c0-0.6-0.4-1-1-1H24.6c-0.6,0-1,0.4-1,1v4.4c-16.7,9-16.7,35.9,0,44.9   v4.4c0,0.6,0.4,1,1,1h0.8v3.8c0,0.6,0.4,1,1,1s1-0.4,1-1v-3.8h2.4V64c0,0.6,0.4,1,1,1s1-0.4,1-1v-7.3h2.4V64c0,0.6,0.4,1,1,1   s1-0.4,1-1v-7.3h2.4v3.8c0,0.6,0.4,1,1,1s1-0.4,1-1v-3.8h0.8c0.6,0,1-0.4,1-1v-4.4C50.1,47.2,55,38.4,55,28.8z M25.6,3h14.8v3H25.6   V3z M40.4,54.7H25.6v-3h14.8V54.7z M30.2,49.7c-5.8-8.3-5.9-33.3,0-41.7h5.5c5.8,8.3,5.9,33.3,0,41.7H30.2z M24.8,8h3.1   c-5.4,9.7-5.4,32,0,41.7h-3.1C9.1,41.6,9.1,16.1,24.8,8z M41.2,49.7h-3.1c2.5-4.5,4-12.3,4-20.9c0-8.5-1.6-16.4-4-20.9h3.1   C48.3,11.7,53,19.8,53,28.8C53,37.8,48.3,46,41.2,49.7z"></path></g></svg>