<svg height='100px' width='100px'  fill="#000000" xmlns="http://www.w3.org/2000/svg" xmlns:xlink="http://www.w3.org/1999/xlink" version="1.1" x="0px" y="0px" viewBox="0 0 91 91" enable-background="new 0 0 91 91" xml:space="preserve"><g><path d="M59.038,90.748c0.034,0.002,0.069,0.002,0.104,0.002c1.21,0,2.217-0.951,2.272-2.174   c0.006-0.132,0.735-13.312,12.336-18.693c1.13-0.523,1.63-1.861,1.119-2.997c-0.222-0.494-5.597-12.031-21.39-13.02   c-0.812-1.461-1.793-2.834-2.945-4.083c-1.789-1.936-3.461-3.426-4.976-4.427c-3.711-2.45-8.266-3.188-10.069-3.392   c-0.811-1.456-1.789-2.822-2.937-4.065c-1.783-1.933-3.458-3.422-4.979-4.427c-4.631-3.061-10.602-3.429-10.85-3.471   c-1.365-0.23-2.507,1.043-2.519,2.328c-0.001,0.144-0.854,14.442-12.169,18.626c-0.593,0.221-1.068,0.673-1.312,1.256   c-0.243,0.58-0.234,1.236,0.023,1.813c0.218,0.485,5.417,11.586,20.538,12.937c1.463,2.353,3.375,4.406,5.648,5.991   c0.171,0.124,0.348,0.241,0.531,0.362c4.477,2.962,9.388,4.08,11.175,4.409c1.525,2.822,3.653,5.286,6.28,7.118   c0.171,0.121,0.35,0.245,0.529,0.362c5.265,3.477,11.113,4.411,11.79,4.512C57.626,90.308,58.278,90.713,59.038,90.748z    M6.101,54.126c5.01-2.614,8.03-6.782,9.86-10.762l2.353,15.543c0.165,1.089,0.438,2.145,0.762,3.181   C11.85,60.7,7.892,56.606,6.101,54.126z M29.982,69.524l-0.428-0.292c-3.606-2.518-6.06-6.529-6.739-11.006l-3.514-23.235   c1.717,0.378,3.921,1.062,5.764,2.278c1.214,0.803,2.608,2.052,4.143,3.717c1.564,1.696,2.717,3.687,3.46,5.835l3.629,23.976   c0.09,0.593,0.218,1.177,0.356,1.758C34.749,71.986,32.288,71.048,29.982,69.524z M47.956,81.405l-0.42-0.288   c-2.749-1.917-4.821-4.706-5.953-7.904l-3.654-24.13c-0.109-0.73-0.271-1.447-0.455-2.155c1.694,0.387,3.804,1.059,5.574,2.226   c1.208,0.801,2.602,2.05,4.141,3.717c2.263,2.456,3.722,5.49,4.222,8.779l3.458,22.859C52.929,83.945,50.341,82.979,47.956,81.405z    M55.411,58.64c8.081,1.18,12.37,5.691,14.2,8.279c-5.95,3.501-9.125,8.682-10.82,13.076l-2.878-19.029   C55.794,60.178,55.617,59.403,55.411,58.64z"></path><path d="M79.493,27.254c1.915-0.394,3.508-0.889,4.738-1.476c3.775-1.795,6.343-5.469,6.441-5.631   c0.785-1.309-0.006-2.934-0.665-3.31c-0.088-0.05-8.271-5.689-6.717-13.826c0.117-0.62-0.026-1.26-0.399-1.771   c-0.372-0.508-0.938-0.84-1.564-0.916c-0.385-0.049-9.392-0.996-16.067,7.898c-1.978,0.068-3.934,0.488-5.74,1.291l-0.435,0.202   c-3.357,1.595-5.833,4.041-6.883,5.187c-2.308-0.063-4.63,0.362-6.819,1.336c0,0-4.512,2.381-7.591,5.753   c-0.591,0.101-1.143,0.426-1.502,0.965c-0.7,1.042-0.42,2.454,0.617,3.157c0.313,0.21,7.639,5.276,6.69,14.009   c-0.136,1.239,0.751,2.354,1.988,2.505c0.076,0.01,0.48,0.054,1.127,0.054c2.742,0,9.878-0.813,15.296-8.418   c0.072,0,0.145,0.01,0.216,0.01c1.079,0,2.159-0.111,3.214-0.327c1.914-0.395,3.507-0.889,4.74-1.476   c2.799-1.334,4.928-3.701,5.883-4.897C76.135,27.573,78.439,27.472,79.493,27.254z M78.534,4.937   c-0.043,3.102,0.856,5.813,2.096,8.079l-8.707-3.604c-0.42-0.175-0.848-0.317-1.28-0.455C73.497,6.166,76.533,5.219,78.534,4.937z    M61.049,13.821l0.313-0.146c2.74-1.219,5.963-1.235,8.822-0.058l14.806,6.128c-0.751,0.706-1.68,1.43-2.713,1.924   c-0.887,0.42-2.167,0.811-3.701,1.126c-1.517,0.315-3.079,0.288-4.586-0.023L57.866,16.1c-0.071-0.029-0.147-0.049-0.222-0.078   C58.579,15.256,59.731,14.449,61.049,13.821z M48.228,38.037c-0.104-3.824-1.384-6.99-2.934-9.462l10.854,4.493   c0.249,0.103,0.505,0.179,0.758,0.27C53.802,36.726,50.37,37.757,48.228,38.037z M68.22,28.359   c-0.887,0.422-2.167,0.811-3.698,1.126c-2.22,0.455-4.545,0.237-6.633-0.624l-14.492-5.998c1.2-0.851,3.908-2.497,3.908-2.497   c2.067-0.918,4.409-1.155,6.655-0.714c0,0,16.617,6.854,16.802,6.924C70.039,27.235,69.182,27.902,68.22,28.359z"></path></g></svg>