<svg height='100px' width='100px'  fill="#000000" xmlns="http://www.w3.org/2000/svg" xmlns:xlink="http://www.w3.org/1999/xlink" version="1.1" x="0px" y="0px" viewBox="0 0 512 512" style="enable-background:new 0 0 512 512;" xml:space="preserve"><g><g><path d="M130.851,122.748L130.851,122.748c-34.742,60.92-24.134,137.259,25.021,186.42c27.623,27.627,64.112,43.87,104.278,45.305    c97.632,3.281,172.576-82.631,158.684-177.472C408.132,104.109,346.898,47.31,270.84,44.674    C210.884,42.654,158.364,74.503,130.851,122.748z M353.611,97.299l-37.669,37.669c-13.437-12.588-27.54-23.521-41.693-32.469    c7.071-11.485,13.274-23.254,18.49-35.183C315.191,71.896,336.055,82.124,353.611,97.299z M397.656,172.35    c-11.898,5.208-23.639,11.396-35.097,18.45c-8.997-14.236-19.948-28.325-32.474-41.69l37.663-37.662    C383.205,129.359,393.171,150.4,397.656,172.35z M177.349,301.847l37.668-37.669c13.437,12.589,27.541,23.521,41.693,32.468    c-7.071,11.486-13.274,23.256-18.49,35.184C215.768,327.249,194.904,317.022,177.349,301.847z M133.303,226.797    c11.893-5.205,23.628-11.39,35.08-18.439c8.843,14,19.729,28.076,32.489,41.68l-37.661,37.662    C147.754,269.787,137.789,248.746,133.303,226.797z M256.91,92.55c-16.185-8.354-32.093-13.918-46.776-16.181    c19.592-8.809,40.801-12.646,61.84-11.636C267.59,74.143,262.547,83.439,256.91,92.55z M388.667,254.789    c-2.521-16.108-8.72-32.218-16.158-46.65c9.09-5.623,18.366-10.655,27.754-15.032C401.26,214.096,397.389,235.272,388.667,254.789    z M364.277,239.52c6.519,19.211,7.242,35.694,2.325,47.033l-41.743-41.743c9.865-9.261,20.214-17.787,30.915-25.481    C359.173,226.132,362.027,232.889,364.277,239.52z M274.049,306.596c16.187,8.354,32.096,13.918,46.779,16.181    c-19.563,8.798-40.751,12.646-61.843,11.638C263.369,325.004,268.413,315.706,274.049,306.596z M335.14,303.927    c-1.26-0.199-19.267,1.284-49.88-14.094c7.688-10.688,16.206-21.025,25.457-30.881l41.771,41.771    C347.646,302.848,341.851,303.927,335.14,303.927z M142.362,144.202c2.224,14.568,7.677,30.475,16.079,46.812    c-9.086,5.621-18.359,10.651-27.745,15.026C129.696,184.995,133.591,163.763,142.362,144.202z M166.683,159.627    c-6.518-19.211-7.242-35.695-2.325-47.034l41.743,41.743c-9.865,9.261-20.214,17.787-30.915,25.482    C171.788,173.015,168.933,166.258,166.683,159.627z M220.248,168.484l31.089,31.089l-36.316,36.316    c-11.601-12.427-21.697-25.457-29.941-38.552C197.292,188.684,209.068,179.018,220.248,168.484z M265.48,213.716l31.088,31.088    c-10.517,11.163-20.17,22.919-28.813,35.111c-13.054-8.223-26.153-18.306-38.588-29.887L265.48,213.716z M310.711,230.662    l-31.088-31.088l36.316-36.317c11.601,12.427,21.697,25.458,29.94,38.552C333.668,210.461,321.892,220.128,310.711,230.662z     M265.48,185.431l-31.09-31.089c10.518-11.163,20.171-22.919,28.814-35.111c13.054,8.223,26.153,18.306,38.587,29.888    L265.48,185.431z M220.243,140.193l-41.771-41.771c4.844-2.124,10.64-3.204,17.353-3.204c14.606,0,31.884,5.055,49.876,14.093    C238.012,120.001,229.494,130.338,220.243,140.193z"></path><path d="M428.592,327.34c-3.906-3.904-10.236-3.904-14.143,0l-5.326,5.326L395.204,318.3c-3.841-3.964-10.174-4.066-14.14-0.223    c-65.343,63.307-170.008,61.651-233.315-3.69c-63.455-65.493-61.813-169.853,3.688-233.316c3.967-3.843,4.066-10.174,0.224-14.141    l-13.948-14.396l8.035-8.035c3.904-3.905,3.904-10.237,0-14.143c-3.905-3.905-10.237-3.905-14.143,0L117.62,44.341    c-0.808,0.604-1.352,1.137-2.003,2.003L103.321,58.64c-3.905,3.905-3.905,10.237,0,14.143c3.904,3.904,10.237,3.905,14.143,0    l6.105-6.105l6.953,7.177c-66.422,71.536-66.004,183.372,2.862,254.449c14.119,14.573,30.076,26.308,47.15,35.219    c-0.105,1.008-0.035-0.465-0.056,31.052h-5c-15.701,0-27.667,14.432-24.497,30h-9.074c-33.872,0-61.429,22.43-61.429,50    c0,5.522,4.477,10,10,10c4.344,0,271.976,0,270.018,0c5.808,0,10.395-4.928,9.974-10.733    c-0.484-27.232-27.852-49.267-61.421-49.267h-33.493c3.171-15.573-8.802-30-24.498-30h-10.581v-11.889    c52.877,7.383,106.49-8.109,147.136-43.478l7.366,7.603l-8.815,8.815c-3.905,3.905-3.905,10.237,0,14.143    c3.907,3.905,10.236,3.904,14.143,0l28.285-28.285C432.497,337.577,432.497,331.245,428.592,327.34z M348.111,464.573H102.846    c5.699-11.641,21.058-20,39.063-20c21.499,0,149.44,0,167.142,0C327.054,444.573,342.412,452.933,348.111,464.573z     M256.06,419.573c0,2.757-2.244,5-5.001,5h-75.579c-2.757,0-5-2.243-5-5s2.243-5,5-5c16.778,0,58.166,0,75.579,0    C253.815,414.573,256.06,416.816,256.06,419.573z M220.478,394.573h-19.998v-22.105c6.563,2.485,13.239,4.586,19.998,6.3V394.573z    "></path></g></g></svg>