<svg height='100px' width='100px'  fill="#000000" xmlns="http://www.w3.org/2000/svg" viewBox="0 0 100 100" x="0px" y="0px"><title>10Locations-MiniPack-Icons</title><g><path d="M62.14,96.83H37.86a1.27,1.27,0,0,1-1.27-1.27V51.42a1.27,1.27,0,0,1,1.27-1.28H62.14a1.27,1.27,0,0,1,1.27,1.28V95.56A1.27,1.27,0,0,1,62.14,96.83Zm-23-2.55H60.86V52.69H39.14Z"></path><path d="M63.08,22.58H36.92a1.28,1.28,0,0,1-1.17-1.79L40.46,10a1.27,1.27,0,0,1,1.16-.76H58.38a1.27,1.27,0,0,1,1.16.76l4.71,10.76a1.28,1.28,0,0,1-1.17,1.79ZM38.87,20H61.13l-3.59-8.21H42.46Z"></path><path d="M65,52.69H35a1.27,1.27,0,0,1-1.27-1.27V21.31A1.27,1.27,0,0,1,35,20H65a1.27,1.27,0,0,1,1.27,1.28V51.42A1.27,1.27,0,0,1,65,52.69Zm-28.8-2.55H63.76V22.58H36.24Z"></path><path d="M50,89.88a1.28,1.28,0,0,1-1.28-1.27V58.91a1.28,1.28,0,0,1,2.56,0v29.7A1.28,1.28,0,0,1,50,89.88Z"></path><path d="M56.42,89.88a1.27,1.27,0,0,1-1.27-1.27V58.91a1.28,1.28,0,1,1,2.55,0v29.7A1.27,1.27,0,0,1,56.42,89.88Z"></path><path d="M43.58,89.88a1.27,1.27,0,0,1-1.28-1.27V58.91a1.28,1.28,0,1,1,2.55,0v29.7A1.27,1.27,0,0,1,43.58,89.88Z"></path><path d="M50,30a6.31,6.31,0,1,1-6.3,6.3A6.31,6.31,0,0,1,50,30m0-2.55a8.86,8.86,0,1,0,8.86,8.85A8.86,8.86,0,0,0,50,27.44Z"></path><path d="M50,11.41a1.28,1.28,0,0,1-1.28-1.28V4.28a1.28,1.28,0,0,1,2.56,0v5.85A1.28,1.28,0,0,1,50,11.41Z"></path><path d="M52.66,38.93H49.25A1.27,1.27,0,0,1,48,37.65V33.29a1.28,1.28,0,0,1,2.55,0v3.09h2.13a1.28,1.28,0,0,1,0,2.55Z"></path><path d="M71.86,97H28.14a1.28,1.28,0,1,1,0-2.55H71.86a1.28,1.28,0,1,1,0,2.55Z"></path></g></svg>