<svg height='100px' width='100px'  fill="#000000" xmlns="http://www.w3.org/2000/svg" xmlns:xlink="http://www.w3.org/1999/xlink" version="1.1" x="0px" y="0px" viewBox="0 0 128 128" style="enable-background:new 0 0 128 128;" xml:space="preserve"><path d="M64,0C28.7,0,0,28.7,0,64s28.7,64,64,64s64-28.7,64-64S99.3,0,64,0z M60.2,8.1v37.1H26.9c4-7.9,10.4-14.3,18.3-18.2v10.7  h7.5V16.8C35,21,21,35,16.8,52.7h94.5C107,35,93,21,75.3,16.8v20.9h7.5V26.9c7.8,4,14.3,10.4,18.3,18.2H67.8V8.1  c28,1.9,50.3,24.2,52.1,52.1H8.1C9.9,32.3,32.3,9.9,60.2,8.1z M67.8,119.9V82.8h33.3c-4,7.9-10.4,14.3-18.3,18.2V90.4h-7.5v20.9  C93,107,107,93,111.2,75.3H16.8C21,93,35,107,52.7,111.2V90.4h-7.5v10.7c-7.8-4-14.3-10.4-18.3-18.2h33.3v37.1  c-28-1.9-50.3-24.2-52.1-52.1h111.8C118.1,95.7,95.7,118.1,67.8,119.9z"></path></svg>