<svg height='100px' width='100px'  fill="#000000" xmlns="http://www.w3.org/2000/svg" viewBox="0 0 64 64" x="0px" y="0px"><title>fan-asian-chinese-new-year</title><g><path d="M60.533,29.729a30,30,0,0,0-57.066,0,1,1,0,0,0,.642,1.26h0L11.7,33.455l4.78,1.553h0l11.543,3.748c0,.083-.025.161-.025.244a4,4,0,0,0,3,3.858v2.326A3,3,0,0,0,29,48v2.172a5.789,5.789,0,0,1-1.707,4.121,1,1,0,1,0,1.414,1.414A7.764,7.764,0,0,0,30.955,51H31v7a1,1,0,0,0,2,0V51h.045a7.764,7.764,0,0,0,2.248,4.707,1,1,0,0,0,1.414-1.414A5.789,5.789,0,0,1,35,50.172V48a3,3,0,0,0-2-2.816V42.858A4,4,0,0,0,36,39c0-.083-.02-.161-.025-.244l11.542-3.747h0l4.78-1.553,7.587-2.464h0A1,1,0,0,0,60.533,29.729Zm-8.176,1.605-4.53,1.471a17.09,17.09,0,0,0-1.52-2.97l8.918-6.478a28.049,28.049,0,0,1,3.08,6.044Zm-21.815,3.95L24.011,26.3A14.947,14.947,0,0,1,31,24.04v11.1A3.922,3.922,0,0,0,30.542,35.284Zm-8.149-7.806,6.536,8.99a3.883,3.883,0,0,0-.292.384L18.085,33.426A14.975,14.975,0,0,1,22.393,27.478ZM33,35.142V24.04A14.947,14.947,0,0,1,39.989,26.3l-6.531,8.982A3.922,3.922,0,0,0,33,35.142Zm2.071,1.326,6.536-8.99a14.975,14.975,0,0,1,4.308,5.948L35.363,36.852A3.883,3.883,0,0,0,35.071,36.468Zm3.13-13.3L41.6,12.7a27.913,27.913,0,0,1,6.049,3.07l-6.48,8.912A16.9,16.9,0,0,0,38.2,23.167ZM36.3,22.558a17.048,17.048,0,0,0-3.3-.52v-11a28.072,28.072,0,0,1,6.692,1.048Zm-5.3-.52a17.048,17.048,0,0,0-3.3.52l-3.4-10.471A28.072,28.072,0,0,1,31,11.039Zm-5.2,1.129a16.9,16.9,0,0,0-2.963,1.518l-6.48-8.912a27.913,27.913,0,0,1,6.049-3.07Zm28.256-1.432-8.918,6.478a16.887,16.887,0,0,0-2.352-2.355l6.476-8.907A27.859,27.859,0,0,1,54.055,21.735ZM14.739,16.951l6.476,8.907a16.887,16.887,0,0,0-2.352,2.355L9.945,21.735A27.859,27.859,0,0,1,14.739,16.951ZM8.775,23.357l8.918,6.478a17.09,17.09,0,0,0-1.52,2.97l-4.53-1.471L5.7,29.4A28.049,28.049,0,0,1,8.775,23.357ZM31,48a1,1,0,0,1,2,0v1H31Zm1-7a2,2,0,1,1,2-2A2,2,0,0,1,32,41Z"></path><rect x="31" y="5" width="2" height="2"></rect><rect x="41" y="7" width="2" height="2"></rect><rect x="21" y="7" width="2" height="2"></rect><rect x="11" y="11" width="2" height="2"></rect><rect x="4" y="18" width="2" height="2"></rect><rect x="58" y="18" width="2" height="2"></rect><rect x="51" y="11" width="2" height="2"></rect></g></svg>