<svg height='100px' width='100px'  fill="#000000" xmlns="http://www.w3.org/2000/svg" viewBox="0 0 64 64" x="0px" y="0px"><title>Chinese knot-amulet-lunar-chinese new year-hanging-china-protect</title><g data-name="Chinese knot-amulet-lunar-chinese new year-hanging-china-protect"><path d="M49.89,26.09c-2.41,0-5.94,3-7.43,4.37l-4.53-4.53,3.48-3.48a4.63,4.63,0,0,0,0-6.52l-.22-.22a4.62,4.62,0,0,0-6.53,0l-2.43,2.44V15.39a12.89,12.89,0,0,0,1.92-6.46c0-3.28-.75-7.11-2.89-7.11s-2.88,3.83-2.88,7.11a12.85,12.85,0,0,0,1.85,6.35v3l-3.15-3.15a5,5,0,0,0-7.1,7.1l4,4-4.19,4.2c-1.53-1.4-5-4.3-7.35-4.3a5.62,5.62,0,0,0,0,11.24c2.39,0,5.88-2.95,7.39-4.34l3.9,3.9-3.32,3.32a5.06,5.06,0,0,0,0,7.13l.27.26a5,5,0,0,0,7.12,0l2.53-2.53v1.74a2.21,2.21,0,0,0-.46,3.66,1.9,1.9,0,0,0-.46,1.13l-.6,9.45a1,1,0,0,0,.27.75,1,1,0,0,0,.73.32h3a1,1,0,0,0,.73-.32,1,1,0,0,0,.27-.74l-.56-9.45a1.91,1.91,0,0,0-.47-1.16,2.25,2.25,0,0,0,.75-1.66,2.22,2.22,0,0,0-1.24-2v-1.3l1.93,1.93a4.62,4.62,0,0,0,6.53,0l.39-.39a4.62,4.62,0,0,0,0-6.53L38,37.34l4.42-4.42c1.46,1.36,5,4.41,7.47,4.41a5.62,5.62,0,0,0,0-11.24Zm-13.81-9a2.61,2.61,0,0,1,3.69,0l.22.22A2.62,2.62,0,0,1,40,21l-3.47,3.47L32.6,20.6Zm-5,4.79,4,4L30.83,30.2l-4-4ZM31.26,4a10.71,10.71,0,0,1,.89,4.95,10.27,10.27,0,0,1-.89,4,10.19,10.19,0,0,1-.88-4A10.89,10.89,0,0,1,31.26,4ZM21.39,20.77a3,3,0,0,1,0-4.28,3.11,3.11,0,0,1,4.28,0l4,4-4.27,4.27ZM12.45,35.33a3.62,3.62,0,0,1,0-7.24c1.35,0,4,2,5.83,3.62C16.39,33.4,13.74,35.33,12.45,35.33Zm13-7.72,4,4-4.06,4.06-4-4ZM31.1,41.42l-4.33-4.33L30.83,33l4.33,4.33Zm-4.7,4.77a3,3,0,0,1-4.3,0l-.27-.27a3,3,0,0,1,0-4.29l3.33-3.32,4.56,4.56Zm5.18,2.6c0,.26-.47.26-.47,0a.23.23,0,0,1,.23-.23A.24.24,0,0,1,31.58,48.79Zm-.7,11.33.48-7.53.44,7.53Zm9.66-16.33a2.59,2.59,0,0,1-.77,1.85l-.38.38a2.68,2.68,0,0,1-3.7,0L32.5,42.84l4.09-4.09,3.18,3.19A2.57,2.57,0,0,1,40.54,43.79Zm-4-7.85-4.33-4.32,4.28-4.28,4.32,4.33Zm13.32-.61c-1.35,0-4-2-5.83-3.62,1.88-1.69,4.54-3.62,5.83-3.62a3.62,3.62,0,0,1,0,7.24Z"></path></g></svg>