<svg height='100px' width='100px'  fill="#000000" xmlns="http://www.w3.org/2000/svg" xmlns:xlink="http://www.w3.org/1999/xlink" version="1.1" x="0px" y="0px" viewBox="0 0 512 512" style="enable-background:new 0 0 512 512;" xml:space="preserve"><g><g><path d="M190.931,344.193c52.281,10.211,104.191-7.139,139.766-42.987c50.673-51.097,60.928-132.708,18.513-195.706    c-29.693-44.104-78.212-68.461-128.731-68.461c-70.719,0-132.3,48.298-149.874,116.124c-0.881,1.592-1.294,3.37-1.24,5.14    C50.25,244.015,105.722,327.558,190.931,344.193z M136.133,228.389l48.477,48.071c-18.944,10.396-35.021,15.333-46.122,15.333    c-5.918,0-10.333-1.37-13.149-4.053c-0.21-0.21-0.416-0.424-0.624-0.636C117.426,278.894,120.569,256.92,136.133,228.389z     M224.823,104.042c-14.35,9.865-28.974,21.757-43.179,35.277l-49.536-49.121c15.084-13.118,33.038-22.891,52.639-28.311    C185.753,63.444,183.943,61.213,224.823,104.042z M316.056,96.646c7.031,7.031,5.319,24.36-4.579,46.355    c-2.179,4.841-4.695,9.793-7.521,14.82l-47.722-49.88c19.096-10.528,35.302-15.524,46.471-15.524    C308.758,92.417,313.25,93.84,316.056,96.646z M293.039,175.343c-9.335,13.728-20.658,27.691-33.488,41.23l-63.703-63.17    c14.887-14.16,29.396-25.706,42.925-34.781L293.039,175.343z M323.247,279.736l-49.482-49.068    c12.585-13.256,23.85-26.967,33.389-40.573l41.851,43.744C343.431,250.97,334.579,266.49,323.247,279.736z M258.595,321.661    l-41.999-41.648c14.305-9.853,28.877-21.717,43.032-35.197l49.534,49.119C294.61,306.59,277.391,316.137,258.595,321.661z     M245.424,230.73c-14.995,14.271-29.609,25.893-43.224,35.007l-55.399-54.936c9.075-13.624,20.657-28.25,34.905-43.255    L245.424,230.73z M154.532,309.852c13.498-3.019,28.766-9.496,44.765-18.827l35.618,35.32    C206.869,329.307,178.578,323.313,154.532,309.852z M354.366,210.514l-36.022-37.652c8.445-14.164,16.46-30.737,20.002-46.9    C352.86,151.709,358.455,181.148,354.366,210.514z M286.819,74.325c-13.498,2.995-28.771,9.454-44.783,18.777l-33.952-35.488    C236.276,55.008,263.881,61.462,286.819,74.325z M118.023,104.396l49.481,49.067c-13.353,14.056-25.222,28.625-35.122,43.04    L90.762,155.23C96.174,136.138,105.612,118.904,118.023,104.396z M86.267,178.939l35.146,34.853    c-7.851,13.517-15.163,29.052-18.532,44.301C89.274,233.919,83.525,206.497,86.267,178.939z"></path><path d="M436.41,457.115h-60v-30c0-5.522-4.478-10-10-10h-30v-20c0-5.522-4.478-10-10-10h-20    c-0.02-31.634,0.044-29.971-0.048-30.954c17.273-9.049,33.178-20.902,47.142-35.315c68.744-70.95,69.389-182.802,2.863-254.449    l14.1-14.553c3.844-3.967,3.743-10.297-0.224-14.141c-3.967-3.843-10.298-3.743-14.14,0.224l-20.875,21.546    c-3.844,3.967-3.743,10.297,0.224,14.141c65.493,63.454,67.151,167.815,3.688,233.317    c-63.411,65.446-167.813,67.152-233.315,3.689c-3.952-3.828-10.289-3.753-14.141,0.224L70.81,332.389    c-3.843,3.966-3.743,10.297,0.224,14.14c3.967,3.843,10.297,3.743,14.141-0.224l14.1-14.553    c41.787,36.408,95.417,50.759,147.138,43.588v11.775h-50c-5.523,0-10,4.478-10,10v20h-30c-5.523,0-10,4.478-10,10v30h-70    c-5.523,0-10,4.478-10,10s4.477,10,10,10c13.923,0,339.442,0,359.999,0c5.522,0,10-4.478,10-10S441.933,457.115,436.41,457.115z     M266.412,371.422c6.797-1.722,13.473-3.819,19.998-6.295v21.988h-19.998V371.422z M206.412,407.115c24.127,0,86.853,0,109.999,0    v10H206.412V407.115z M166.412,457.115v-20c55.801,0,133.838,0,189.999,0v20H166.412z"></path></g></g></svg>