<svg height='100px' width='100px'  fill="#000000" xmlns="http://www.w3.org/2000/svg" data-name="Layer 2" viewBox="0 0 64 64" x="0px" y="0px"><title>-</title><path d="M36,41a1,1,0,0,1,0-2A11.013,11.013,0,0,0,47,28a1,1,0,0,1,2,0A13.015,13.015,0,0,1,36,41Z"></path><path d="M38,49H36a1,1,0,0,1,0-2h2a1,1,0,0,0,0-2H36a1,1,0,0,1,0-2h2a3,3,0,0,1,0,6Z"></path><path d="M46,47H44a1,1,0,0,1,0-2h2a1,1,0,0,0,0-2H44a1,1,0,0,1,0-2h2a3,3,0,0,1,0,6Z"></path><path d="M46,55H44a1,1,0,0,1,0-2h2a1,1,0,0,0,0-2H44a1,1,0,0,1,0-2h2a3,3,0,0,1,0,6Z"></path><path d="M60.213,22.521l.735-2.205A1,1,0,0,0,60,19H50.327L60.086,8.707a3.118,3.118,0,0,0,.585-3.6l-.023-.042a3.119,3.119,0,0,0-5.007-.738L51,9.418V8a3,3,0,0,0-6,0v7.586L41.586,19H36a9.013,9.013,0,0,0-8.945,8.007l-14.062.1c0-.036.007-.071.007-.107a4.063,4.063,0,0,0-.067-.666A1,1,0,0,0,13,26V20a7.009,7.009,0,0,1,7-7h9.64a11.055,11.055,0,0,0,4.919-1.161l1.888-.944a1,1,0,1,0-.894-1.79l-1.889.945A9.039,9.039,0,0,1,29.64,11H20a9.01,9.01,0,0,0-9,9v3.556a3.875,3.875,0,0,0-4,0V18A11.013,11.013,0,0,1,18,7H29.64a11.055,11.055,0,0,0,4.919-1.161l1.888-.944a1,1,0,1,0-.894-1.79l-1.889.945A9.039,9.039,0,0,1,29.64,5H18A13.015,13.015,0,0,0,5,18v8a1.008,1.008,0,0,0,.067.334A4.063,4.063,0,0,0,5,27a3.871,3.871,0,0,0,.036.528A3.992,3.992,0,0,0,7,35v1a3,3,0,0,0,2.539,2.953l3.754,3.754a1,1,0,0,0,1.414,0L18.414,39H22a3,3,0,0,1,0,6H14.414l-3.707-3.707a1,1,0,0,0-1.414,0L5.539,45.047a2.99,2.99,0,0,0-.2,5.875l1.762,3.525A8.191,8.191,0,0,0,14.472,59H16a1,1,0,0,0,.895-1.447L15.618,55h1.79a8.189,8.189,0,0,0,7.064,4H26a1,1,0,0,0,.895-1.447L25.618,55h1.79a8.189,8.189,0,0,0,7.064,4H36a1,1,0,0,0,.9-1.447L35.618,55h1.847l1.555,2.332A8.219,8.219,0,0,0,45.873,61H52a1,1,0,0,0,.9-.553l1.738-3.477a6.537,6.537,0,0,0,5.58-4.449l.735-2.2A1,1,0,0,0,60,49H53.618l1.015-2.03a6.537,6.537,0,0,0,5.58-4.449l.735-2.2A1,1,0,0,0,60,39H53.618l1.015-2.03a6.537,6.537,0,0,0,5.58-4.449l.735-2.205A1,1,0,0,0,60,29H53.618l1.015-2.03A6.537,6.537,0,0,0,60.213,22.521ZM46.707,16.707A1,1,0,0,0,47,16V8a1,1,0,0,1,2,0v4a1,1,0,0,0,1.739.674l6.348-6.968A1.12,1.12,0,0,1,58.88,6l.015.028a1.131,1.131,0,0,1-.242,1.287L47.57,19H44.414ZM43,28a6.994,6.994,0,0,1-11.99,4.9,5,5,0,1,0,0-9.8A6.994,6.994,0,0,1,43,28ZM32,25a3,3,0,1,1-3,3A3,3,0,0,1,32,25ZM7,33a1.994,1.994,0,0,1-.519-3.92,1,1,0,0,0,.666-1.338,2,2,0,1,1,3.706,0,1,1,0,0,0,.666,1.338,1.993,1.993,0,1,1-1.85,3.4,1,1,0,0,0-1.338,0A2,2,0,0,1,7,33Zm7,7.586L12.414,39h3.172Zm-4,2.828L11.586,45H8.414ZM6,49a1,1,0,0,1,0-2H22a5,5,0,0,0,0-10H10a1,1,0,0,1,0-2H22a7,7,0,0,1,0,14ZM53.105,25.553l-2,4A1,1,0,0,0,52,31h6.612l-.3.889A4.54,4.54,0,0,1,54,35a1,1,0,0,0-.9.553l-2,4A1,1,0,0,0,52,41h6.612l-.3.889A4.54,4.54,0,0,1,54,45a1,1,0,0,0-.9.553l-2,4A1,1,0,0,0,52,51h6.612l-.3.889A4.54,4.54,0,0,1,54,55a1,1,0,0,0-.9.553L51.382,59H45.873a6.224,6.224,0,0,1-5.189-2.777l-1.852-2.778A1,1,0,0,0,38,53H34a1,1,0,0,0-.9,1.447L34.382,57A6.2,6.2,0,0,1,28.9,53.553,1,1,0,0,0,28,53H24a1,1,0,0,0-.895,1.447L24.382,57A6.2,6.2,0,0,1,18.9,53.553,1,1,0,0,0,18,53H14a1,1,0,0,0-.895,1.447L14.382,57A6.2,6.2,0,0,1,8.9,53.553L7.618,51H22a9,9,0,0,0,0-18H14.444a3.888,3.888,0,0,0,.06-3.9l12.556-.089A9,9,0,1,0,41.637,21H58.612l-.3.889A4.54,4.54,0,0,1,54,25,1,1,0,0,0,53.105,25.553Z"></path></svg>