<svg height='100px' width='100px'  fill="#000000" xmlns:dc="http://purl.org/dc/elements/1.1/" xmlns:cc="http://creativecommons.org/ns#" xmlns:rdf="http://www.w3.org/1999/02/22-rdf-syntax-ns#" xmlns:svg="http://www.w3.org/2000/svg" xmlns="http://www.w3.org/2000/svg" xmlns:sodipodi="http://sodipodi.sourceforge.net/DTD/sodipodi-0.dtd" xmlns:inkscape="http://www.inkscape.org/namespaces/inkscape" viewBox="0 0 72 80.000002" version="1.1" x="0px" y="0px"><g transform="translate(0,-972.3622)"><path style="color:#000000;font-style:normal;font-variant:normal;font-weight:normal;font-stretch:normal;font-size:medium;line-height:normal;font-family:sans-serif;text-indent:0;text-align:start;text-decoration:none;text-decoration-line:none;text-decoration-style:solid;text-decoration-color:#000000;letter-spacing:normal;word-spacing:normal;text-transform:none;direction:ltr;block-progression:tb;writing-mode:lr-tb;baseline-shift:baseline;text-anchor:start;white-space:normal;clip-rule:nonzero;display:inline;overflow:visible;visibility:visible;opacity:1;isolation:auto;mix-blend-mode:normal;color-interpolation:sRGB;color-interpolation-filters:linearRGB;solid-color:#000000;solid-opacity:1;fill:#000000;fill-opacity:1;fill-rule:nonzero;stroke:none;stroke-width:1;stroke-linecap:butt;stroke-linejoin:miter;stroke-miterlimit:4;stroke-dasharray:none;stroke-dashoffset:0;stroke-opacity:1;color-rendering:auto;image-rendering:auto;shape-rendering:auto;text-rendering:auto;enable-background:accumulate" d="m 39.6,992.49459 c -3.119569,0 -5.647609,2.52804 -5.647609,5.64761 0,3.1196 2.52804,5.6476 5.647609,5.6476 3.119569,0 5.647609,-2.528 5.647609,-5.6476 0,-3.11957 -2.52804,-5.64761 -5.647609,-5.64761 z m 0,0.62977 c 0.124297,0 0.247131,0.006 0.369165,0.0149 -0.0025,0.0101 -0.0053,0.02 -0.0067,0.0305 -0.02081,0.15804 0.0913,0.30408 0.249336,0.32488 0.158036,0.0208 0.303919,-0.0913 0.324724,-0.24933 0.0014,-0.0109 7.2e-4,-0.0215 9.54e-4,-0.0322 0.244927,0.0463 0.483409,0.11054 0.714363,0.19109 -0.0052,0.009 -0.01038,0.0189 -0.0146,0.029 -0.061,0.14727 0.0094,0.31721 0.156648,0.37821 0.147266,0.061 0.317211,-0.009 0.378211,-0.15665 0.0044,-0.0106 0.0066,-0.0214 0.0097,-0.0322 0.223049,0.10789 0.436603,0.23198 0.639769,0.37043 -0.0074,0.008 -0.01463,0.0156 -0.02127,0.0243 -0.09704,0.12646 -0.07297,0.30879 0.05349,0.40583 0.126461,0.097 0.30879,0.0731 0.405826,-0.0533 0.0064,-0.008 0.01098,-0.0175 0.01635,-0.0263 0.186686,0.16114 0.361311,0.33565 0.52248,0.52232 -0.0088,0.005 -0.01768,0.0106 -0.02603,0.017 -0.126462,0.097 -0.150523,0.27936 -0.05349,0.40583 0.09704,0.12646 0.279525,0.15052 0.405985,0.0535 0.0088,-0.007 0.01587,-0.0147 0.02365,-0.0222 0.138682,0.20342 0.263024,0.41721 0.371069,0.64056 -0.01073,0.003 -0.02152,0.005 -0.03206,0.01 -0.147266,0.061 -0.21765,0.23094 -0.156649,0.37821 0.061,0.14726 0.230944,0.21764 0.37821,0.15665 0.0102,-0.004 0.01913,-0.0102 0.02857,-0.0154 0.08066,0.23116 0.145024,0.46984 0.191406,0.715 -0.01073,1.8e-4 -0.02132,-4.5e-4 -0.03222,9.5e-4 -0.158036,0.0208 -0.270143,0.16685 -0.249337,0.32488 0.02081,0.15804 0.166848,0.26999 0.324884,0.24918 0.01056,-0.001 0.02035,-0.005 0.03047,-0.007 0.0089,0.12224 0.01492,0.24528 0.01492,0.36979 0,0.12457 -0.006,0.24767 -0.01492,0.36996 -0.01018,-0.002 -0.02001,-0.006 -0.03063,-0.007 -0.01975,-0.003 -0.03925,-0.003 -0.05841,-0.002 -0.134093,0.01 -0.248113,0.11264 -0.266318,0.25092 -0.02081,0.15804 0.09114,0.30408 0.249179,0.32488 0.01095,0.001 0.02158,7.2e-4 0.03238,9.6e-4 -0.04637,0.24509 -0.110619,0.48374 -0.191247,0.71484 -0.0095,-0.005 -0.01849,-0.0112 -0.02873,-0.0154 -0.03682,-0.0153 -0.07493,-0.0222 -0.112526,-0.0219 -0.112792,9.7e-4 -0.219935,0.0683 -0.265684,0.17871 -0.061,0.14728 0.0094,0.31718 0.156649,0.37818 0.01054,0 0.02134,0.01 0.03206,0.01 -0.108045,0.2234 -0.232387,0.4372 -0.371069,0.6406 -0.0078,-0.01 -0.01488,-0.015 -0.02365,-0.022 -0.04742,-0.036 -0.10269,-0.056 -0.158394,-0.059 -0.09284,-0.01 -0.186784,0.034 -0.247432,0.1125 -0.09704,0.1265 -0.07313,0.309 0.05333,0.406 0.0084,0.01 0.01753,0.011 0.02634,0.016 -0.161298,0.1868 -0.336092,0.3615 -0.522955,0.5228 -0.0053,-0.01 -0.0098,-0.018 -0.01619,-0.026 -0.06065,-0.079 -0.154749,-0.1181 -0.24759,-0.1125 -0.0557,0 -0.110971,0.023 -0.158394,0.059 -0.126461,0.097 -0.150364,0.2795 -0.05333,0.406 0.0067,0.01 0.01475,0.016 0.02222,0.024 -0.203448,0.1387 -0.417325,0.263 -0.640721,0.371 -0.003,-0.011 -0.0053,-0.021 -0.0097,-0.032 -0.04575,-0.1105 -0.152734,-0.1776 -0.265525,-0.1786 -0.0376,-3e-4 -0.07587,0.01 -0.112686,0.022 -0.147267,0.061 -0.217648,0.231 -0.156648,0.3782 0.0042,0.01 0.01017,0.019 0.01539,0.029 -0.231155,0.081 -0.46984,0.145 -0.714997,0.1914 -1.8e-4,-0.011 4.5e-4,-0.021 -9.54e-4,-0.032 -0.01821,-0.1383 -0.132226,-0.2414 -0.266319,-0.2511 -0.01916,-0 -0.03881,-8e-4 -0.05856,0 -0.158036,0.021 -0.269984,0.1668 -0.249178,0.3248 0.0014,0.011 0.0047,0.02 0.0071,0.03 -0.122239,0.01 -0.245287,0.015 -0.369798,0.015 -0.124512,0 -0.24756,-0.01 -0.369799,-0.015 0.0025,-0.01 0.0058,-0.02 0.0071,-0.03 0.02081,-0.158 -0.0913,-0.304 -0.249336,-0.3248 -0.01976,-0 -0.03925,-0 -0.05841,-0 -0.134093,0.01 -0.248114,0.1128 -0.266318,0.2511 -0.0014,0.011 -7.2e-4,0.022 -9.54e-4,0.032 -0.245091,-0.046 -0.483742,-0.1106 -0.714839,-0.1912 0.0052,-0.01 0.01115,-0.019 0.0154,-0.029 0.061,-0.1472 -0.0094,-0.3173 -0.156649,-0.3783 -0.03682,-0.015 -0.07509,-0.022 -0.112686,-0.022 -0.112792,9e-4 -0.219935,0.068 -0.265684,0.1787 -0.0044,0.01 -0.0066,0.021 -0.0097,0.032 -0.223354,-0.108 -0.437145,-0.2323 -0.640561,-0.371 0.0075,-0.01 0.01549,-0.015 0.02222,-0.024 0.09704,-0.1264 0.07297,-0.3089 -0.05349,-0.406 -0.04742,-0.036 -0.10269,-0.056 -0.158395,-0.059 -0.09284,-0.01 -0.186942,0.034 -0.247591,0.1125 -0.0064,0.01 -0.01098,0.018 -0.01635,0.026 -0.18683,-0.1613 -0.361527,-0.336 -0.522799,-0.5228 0.0088,-0.01 0.01798,-0.01 0.02635,-0.016 0.12646,-0.097 0.150363,-0.2793 0.05333,-0.4058 -0.06065,-0.079 -0.154591,-0.1181 -0.247432,-0.1125 -0.0557,0 -0.110972,0.023 -0.158394,0.059 -0.0087,0.01 -0.01574,0.015 -0.02349,0.022 -0.138733,-0.2034 -0.263151,-0.4173 -0.371228,-0.6407 0.01072,-0 0.02152,-0.01 0.03206,-0.01 0.147266,-0.061 0.217649,-0.2309 0.156647,-0.37818 -0.04575,-0.11045 -0.152731,-0.17758 -0.265524,-0.17855 -0.0376,-3.6e-4 -0.07587,0.007 -0.112685,0.0219 -0.0102,0.004 -0.01913,0.0102 -0.02857,0.0154 -0.08066,-0.23116 -0.145025,-0.46984 -0.191407,-0.715 0.01075,-1.8e-4 0.02132,4.5e-4 0.03222,-9.6e-4 0.158036,-0.0208 0.270143,-0.16684 0.249337,-0.32488 -0.01821,-0.13828 -0.132225,-0.24126 -0.266318,-0.25092 -0.01916,-0.001 -0.03881,-8.1e-4 -0.05857,0.002 -0.01056,0.001 -0.02035,0.005 -0.03047,0.007 -0.0089,-0.12224 -0.01492,-0.24529 -0.01492,-0.3698 0,-0.12451 0.006,-0.24756 0.01492,-0.3698 0.01012,0.002 0.01992,0.006 0.03047,0.007 0.158036,0.0208 0.30392,-0.0911 0.324726,-0.24918 0.0208,-0.15804 -0.09114,-0.30408 -0.249179,-0.32488 -0.01087,-0.001 -0.02148,-7.2e-4 -0.03222,-9.6e-4 0.04639,-0.24521 0.110723,-0.48396 0.191407,-0.71515 0.0095,0.005 0.01846,0.0113 0.02873,0.0155 0.147266,0.061 0.317211,-0.009 0.37821,-0.15665 0.061,-0.14727 -0.0094,-0.31721 -0.156649,-0.37821 -0.01059,-0.004 -0.02144,-0.007 -0.03222,-0.01 0.108077,-0.22342 0.232496,-0.43725 0.371227,-0.64072 0.0077,0.007 0.01475,0.0155 0.02349,0.0222 0.126462,0.097 0.30895,0.073 0.405987,-0.0535 0.09704,-0.12646 0.07297,-0.30879 -0.05349,-0.40583 -0.0083,-0.006 -0.01714,-0.0115 -0.02587,-0.0168 0.161151,-0.18664 0.335662,-0.3612 0.522321,-0.52232 0.0054,0.009 0.0099,0.018 0.01635,0.0263 0.09704,0.12646 0.279365,0.15052 0.405826,0.0535 0.12646,-0.097 0.150522,-0.27936 0.05349,-0.40583 -0.0067,-0.009 -0.01385,-0.0167 -0.02127,-0.0244 0.203166,-0.13845 0.41672,-0.26253 0.639769,-0.37043 0.003,0.0107 0.0053,0.0215 0.0097,0.0321 0.061,0.14727 0.230945,0.21765 0.378212,0.15665 0.147265,-0.061 0.217647,-0.23095 0.156647,-0.37821 -0.0042,-0.0101 -0.0094,-0.0195 -0.0146,-0.0289 0.230904,-0.0805 0.469331,-0.14476 0.714204,-0.19109 1.8e-4,0.0108 -4.5e-4,0.0213 9.54e-4,0.0322 0.02081,0.15804 0.166846,0.27014 0.324883,0.24934 0.158036,-0.0208 0.269984,-0.16685 0.249178,-0.32489 -0.0014,-0.0105 -0.0042,-0.0204 -0.0067,-0.0305 0.122084,-0.009 0.244972,-0.0149 0.369322,-0.0149 z"></path><path style="color:#000000;font-style:normal;font-variant:normal;font-weight:normal;font-stretch:normal;font-size:medium;line-height:normal;font-family:sans-serif;text-indent:0;text-align:start;text-decoration:none;text-decoration-line:none;text-decoration-style:solid;text-decoration-color:#000000;letter-spacing:normal;word-spacing:normal;text-transform:none;direction:ltr;block-progression:tb;writing-mode:lr-tb;baseline-shift:baseline;text-anchor:start;white-space:normal;clip-rule:nonzero;display:inline;overflow:visible;visibility:visible;opacity:1;isolation:auto;mix-blend-mode:normal;color-interpolation:sRGB;color-interpolation-filters:linearRGB;solid-color:#000000;solid-opacity:1;fill:#000000;fill-opacity:1;fill-rule:nonzero;stroke:none;stroke-width:1;stroke-linecap:butt;stroke-linejoin:miter;stroke-miterlimit:4;stroke-dasharray:none;stroke-dashoffset:0;stroke-opacity:1;color-rendering:auto;image-rendering:auto;shape-rendering:auto;text-rendering:auto;enable-background:accumulate" d="m 39.55937,993.16269 -0.170775,2.98982 0.115066,0.95846 c -0.02613,0.002 -0.05175,0.006 -0.07729,0.0108 l -0.137127,-0.95608 -0.938781,-2.8438 -0.07841,0.021 0.60882,2.9322 0.359324,0.89656 c -0.02448,0.009 -0.04849,0.019 -0.07205,0.0298 l -0.379798,-0.88799 -1.642987,-2.504 -0.07031,0.0406 1.346989,2.67477 0.579299,0.77293 c -0.02126,0.0151 -0.04234,0.0303 -0.06237,0.047 l -0.596281,-0.75896 -2.234982,-1.99342 -0.05745,0.0575 1.993423,2.23498 0.758961,0.59628 c -0.01663,0.02 -0.03187,0.0411 -0.04698,0.0624 l -0.772927,-0.57914 -2.674775,-1.34699 -0.04063,0.0702 2.50384,1.64299 0.887994,0.37979 c -0.01086,0.0236 -0.02058,0.0477 -0.02968,0.0722 l -0.896564,-0.35949 -2.932205,-0.60881 -0.02111,0.0784 2.843801,0.93894 0.95624,0.13697 c -0.0043,0.0255 -0.0084,0.0512 -0.01079,0.0773 l -0.958463,-0.11506 -2.989975,0.17093 0,0.0811 2.989975,0.17077 0.958463,-0.1149 c 0.0024,0.0261 0.0065,0.0518 0.01079,0.0773 l -0.95624,0.13697 -2.843801,0.93894 0.02111,0.0784 2.932205,-0.60882 0.896564,-0.35948 c 0.0091,0.0245 0.01899,0.0485 0.02984,0.072 l -0.888153,0.37996 -2.50384,1.64287 0.04063,0.07 2.674775,-1.34702 0.772927,-0.5793 c 0.01513,0.0213 0.03048,0.0423 0.04714,0.0624 l -0.759119,0.59643 -1.993423,2.23501 0.05745,0.057 2.234982,-1.99329 0.596441,-0.75912 c 0.02,0.0166 0.04099,0.0319 0.06221,0.047 l -0.579299,0.77308 -1.346989,2.67475 0.07031,0.04 1.642987,-2.50384 0.379798,-0.88815 c 0.02361,0.0109 0.04769,0.0207 0.07221,0.0298 l -0.359483,0.89656 -0.60882,2.9324 0.07841,0.021 0.938781,-2.8438 0.137127,-0.95622 c 0.02554,0.004 0.05116,0.008 0.07729,0.0108 l -0.115066,0.95843 0.170774,2.99 0.08126,0 0.170775,-2.99 -0.115066,-0.95843 c 0.02613,-0.002 0.05175,-0.006 0.07729,-0.0108 l 0.137127,0.95622 0.938781,2.8438 0.0784,-0.021 -0.60882,-2.9324 -0.359483,-0.89656 c 0.02452,-0.009 0.0486,-0.019 0.07221,-0.0298 l 0.379798,0.88815 1.642987,2.50384 0.07031,-0.04 -1.34699,-2.67475 -0.579298,-0.77308 c 0.02123,-0.0151 0.04221,-0.0304 0.06221,-0.047 l 0.596441,0.75912 2.234982,1.99329 0.05745,-0.057 -1.993424,-2.23501 -0.759118,-0.59643 c 0.01665,-0.0201 0.03201,-0.0411 0.04714,-0.0624 l 0.772927,0.5793 2.674775,1.34702 0.04063,-0.07 -2.50384,-1.64287 -0.888153,-0.37996 c 0.01085,-0.0236 0.02074,-0.0476 0.02984,-0.072 l 0.896564,0.35948 2.932205,0.60882 0.02111,-0.0784 -2.843801,-0.93894 -0.95624,-0.13697 c 0.0043,-0.0255 0.0084,-0.0512 0.01079,-0.0773 l 0.958463,0.1149 2.989975,-0.17077 0,-0.0811 -2.989975,-0.17093 -0.958463,0.11506 c -0.0024,-0.0261 -0.0065,-0.0518 -0.01079,-0.0773 l 0.95624,-0.13697 2.843801,-0.93894 -0.02111,-0.0784 -2.932205,0.60881 -0.896564,0.35949 c -0.0091,-0.0245 -0.01882,-0.0486 -0.02968,-0.0722 l 0.887994,-0.37979 2.50384,-1.64299 -0.04063,-0.0702 -2.674775,1.34699 -0.772927,0.57914 c -0.01511,-0.0213 -0.03035,-0.0423 -0.04698,-0.0624 l 0.75896,-0.59628 1.993424,-2.23498 -0.05745,-0.0575 -2.234982,1.99342 -0.596281,0.75896 c -0.02003,-0.0166 -0.04112,-0.0319 -0.06237,-0.047 l 0.579298,-0.77293 1.34699,-2.67477 -0.07031,-0.0406 -1.642987,2.504 -0.379798,0.88799 c -0.02356,-0.0109 -0.04758,-0.0207 -0.07205,-0.0298 l 0.359324,-0.89656 0.60882,-2.9322 -0.0784,-0.021 -0.938781,2.8438 -0.137127,0.95608 c -0.02554,-0.004 -0.05116,-0.008 -0.07729,-0.0108 l 0.115066,-0.95846 -0.170775,-2.98982 -0.08126,0 z"></path><path style="color:#000000;font-style:normal;font-variant:normal;font-weight:normal;font-stretch:normal;font-size:medium;line-height:normal;font-family:sans-serif;text-indent:0;text-align:start;text-decoration:none;text-decoration-line:none;text-decoration-style:solid;text-decoration-color:#000000;letter-spacing:normal;word-spacing:normal;text-transform:none;direction:ltr;block-progression:tb;writing-mode:lr-tb;baseline-shift:baseline;text-anchor:start;white-space:normal;clip-rule:nonzero;display:inline;overflow:visible;visibility:visible;opacity:1;isolation:auto;mix-blend-mode:normal;color-interpolation:sRGB;color-interpolation-filters:linearRGB;solid-color:#000000;solid-opacity:1;fill:#000000;fill-opacity:1;fill-rule:nonzero;stroke:none;stroke-width:1.43999994;stroke-linecap:butt;stroke-linejoin:miter;stroke-miterlimit:4;stroke-dasharray:none;stroke-dashoffset:0;stroke-opacity:1;color-rendering:auto;image-rendering:auto;shape-rendering:auto;text-rendering:auto;enable-background:accumulate" d="m 72,1019.7422 -0.720703,0 -64.0800782,0 0,-43.19923 64.8007812,0 0,43.19923 z m -1.439453,-1.4395 0,-40.32028 -61.919922,0 0,40.32028 61.919922,0 z"></path><path style="color:#000000;font-style:normal;font-variant:normal;font-weight:normal;font-stretch:normal;font-size:medium;line-height:normal;font-family:sans-serif;text-indent:0;text-align:start;text-decoration:none;text-decoration-line:none;text-decoration-style:solid;text-decoration-color:#000000;letter-spacing:normal;word-spacing:normal;text-transform:none;direction:ltr;block-progression:tb;writing-mode:lr-tb;baseline-shift:baseline;text-anchor:start;white-space:normal;clip-rule:nonzero;display:inline;overflow:visible;visibility:visible;opacity:1;isolation:auto;mix-blend-mode:normal;color-interpolation:sRGB;color-interpolation-filters:linearRGB;solid-color:#000000;solid-opacity:1;fill:#000000;fill-opacity:1;fill-rule:evenodd;stroke:none;stroke-width:1.44000006;stroke-linecap:butt;stroke-linejoin:miter;stroke-miterlimit:4;stroke-dasharray:none;stroke-dashoffset:0;stroke-opacity:1;color-rendering:auto;image-rendering:auto;shape-rendering:auto;text-rendering:auto;enable-background:accumulate" d="m 7.1992188,1004.623 0,1.4395 64.8007812,0 0,-1.4395 -64.8007812,0 z"></path><path style="color:#000000;font-style:normal;font-variant:normal;font-weight:normal;font-stretch:normal;font-size:medium;line-height:normal;font-family:sans-serif;text-indent:0;text-align:start;text-decoration:none;text-decoration-line:none;text-decoration-style:solid;text-decoration-color:#000000;letter-spacing:normal;word-spacing:normal;text-transform:none;direction:ltr;block-progression:tb;writing-mode:lr-tb;baseline-shift:baseline;text-anchor:start;white-space:normal;clip-rule:nonzero;display:inline;overflow:visible;visibility:visible;opacity:1;isolation:auto;mix-blend-mode:normal;color-interpolation:sRGB;color-interpolation-filters:linearRGB;solid-color:#000000;solid-opacity:1;fill:#000000;fill-opacity:1;fill-rule:evenodd;stroke:none;stroke-width:1.44000006;stroke-linecap:butt;stroke-linejoin:miter;stroke-miterlimit:4;stroke-dasharray:none;stroke-dashoffset:0;stroke-opacity:1;color-rendering:auto;image-rendering:auto;shape-rendering:auto;text-rendering:auto;enable-background:accumulate" d="m 7.1992188,990.22266 0,1.43945 64.8007812,0 0,-1.43945 -64.8007812,0 z"></path><path style="color:#000000;font-style:normal;font-variant:normal;font-weight:normal;font-stretch:normal;font-size:medium;line-height:normal;font-family:sans-serif;text-indent:0;text-align:start;text-decoration:none;text-decoration-line:none;text-decoration-style:solid;text-decoration-color:#000000;letter-spacing:normal;word-spacing:normal;text-transform:none;direction:ltr;block-progression:tb;writing-mode:lr-tb;baseline-shift:baseline;text-anchor:start;white-space:normal;clip-rule:nonzero;display:inline;overflow:visible;visibility:visible;opacity:1;isolation:auto;mix-blend-mode:normal;color-interpolation:sRGB;color-interpolation-filters:linearRGB;solid-color:#000000;solid-opacity:1;fill:#000000;fill-opacity:1;fill-rule:nonzero;stroke:none;stroke-width:1.44000006;stroke-linecap:butt;stroke-linejoin:round;stroke-miterlimit:4;stroke-dasharray:none;stroke-dashoffset:0;stroke-opacity:1;color-rendering:auto;image-rendering:auto;shape-rendering:auto;text-rendering:auto;enable-background:accumulate" d="M 0.72070312,972.58203 A 0.72007203,0.72007203 0 0 0 0,973.30273 l 0,78.11917 a 0.72007203,0.72007203 0 0 0 0.72070312,0.7207 l 7.19921878,0 a 0.72007203,0.72007203 0 0 0 0.7207031,-0.7207 l 0,-32.4004 -1.4414062,0 0,31.6816 -5.7597657,0 0,-76.68162 5.7597657,0 0,3.41993 1.4414062,0 0,-4.13868 a 0.72007203,0.72007203 0 0 0 -0.7207031,-0.7207 l -7.19921878,0 z"></path></g></svg>