<svg height='100px' width='100px'  fill="#000000" xmlns="http://www.w3.org/2000/svg" viewBox="0 0 512 512" x="0px" y="0px"><g><path d="M200,96a11.243,11.243,0,0,1,8,3.313l2.343,2.344,11.314-11.314L219.313,88a27.312,27.312,0,0,0-38.626,0l-2.344,2.343,11.314,11.314L192,99.313A11.243,11.243,0,0,1,200,96Z"></path><path d="M299.313,88a27.312,27.312,0,0,0-38.626,0l-2.344,2.343,11.314,11.314L272,99.313a11.315,11.315,0,0,1,16,0l2.343,2.344,11.314-11.314Z"></path><rect x="146.726" y="148.705" width="32" height="16" transform="translate(-35.01 47.45) rotate(-14.998)"></rect><rect x="309.274" y="140.705" width="16" height="32" transform="translate(83.793 422.611) rotate(-75)"></rect><rect x="301.274" y="115.859" width="32" height="16" transform="translate(-21.246 86.336) rotate(-15)"></rect><rect x="154.726" y="107.859" width="16" height="32" transform="translate(0.971 248.983) rotate(-75)"></rect><path d="M40,496h64a71.624,71.624,0,0,0,42.715-14.072C173.149,491.268,204.494,496,240,496c40.925,0,76.053-6.215,104.638-18.492A24.042,24.042,0,0,0,368,496h64a24.027,24.027,0,0,0,24-24,39.96,39.96,0,0,0-16-31.98V384a39.967,39.967,0,0,0-16.2-32.13,189.39,189.39,0,0,0-4.582-32.743A72.115,72.115,0,0,0,480,248V166.629A24.042,24.042,0,0,0,496,144a40.045,40.045,0,0,0-40-40H424a40.045,40.045,0,0,0-40,40,24.042,24.042,0,0,0,16,22.629V224a16.019,16.019,0,0,1-16,16v.3a217.939,217.939,0,0,0-14.35-18.325,24,24,0,0,0-1.65-44.6V152a103.406,103.406,0,0,0-17.586-57.81L345,34.687a20.546,20.546,0,0,0-33.615-13.925L277.635,48.89A104.521,104.521,0,0,0,264,48H216a104.521,104.521,0,0,0-13.635.89L168.612,20.763A20.546,20.546,0,0,0,135,34.687l-5.41,59.5A103.406,103.406,0,0,0,112,152v25.371a24,24,0,0,0-1.653,44.6A217.54,217.54,0,0,0,96.2,240H88a40.045,40.045,0,0,0-40,40,24.032,24.032,0,0,0,13.777,21.712A71.954,71.954,0,0,0,32,360v64a72.012,72.012,0,0,0,1.549,14.892A40.156,40.156,0,0,0,16,472,24.027,24.027,0,0,0,40,496Zm392-16h-8V464H408v16H392V464H376v16h-8a8.009,8.009,0,0,1-8-8,24.027,24.027,0,0,1,24-24h32a24.027,24.027,0,0,1,24,24A8.009,8.009,0,0,1,432,480Zm-16-48H384a40.028,40.028,0,0,0-8,.8V384a24,24,0,0,1,48,0v48.8A40.028,40.028,0,0,0,416,432Zm8-312h32a24.027,24.027,0,0,1,24,24,8.009,8.009,0,0,1-8,8h-8V136H448v16H432V136H416v16h-8a8.009,8.009,0,0,1-8-8A24.027,24.027,0,0,1,424,120Zm-8,104V168h48v80a56.085,56.085,0,0,1-48.961,55.56,225.078,225.078,0,0,0-8.185-22.215,229.679,229.679,0,0,0-13.592-26.712A32.057,32.057,0,0,0,416,224ZM321.632,33.054a4.546,4.546,0,0,1,7.438,3.081L332.494,73.8a104.033,104.033,0,0,0-35.31-20.375ZM155.458,32a4.551,4.551,0,0,1,2.91,1.054l24.448,20.374A104.033,104.033,0,0,0,147.506,73.8l3.424-37.668A4.525,4.525,0,0,1,155.458,32ZM128,152a88.1,88.1,0,0,1,88-88h48a88.1,88.1,0,0,1,88,88v24H128Zm-8,40H360a8,8,0,0,1,0,16H120a8,8,0,0,1,0-16Zm136,48a16.008,16.008,0,0,1-8,13.852V240H232v13.852A16,16,0,1,1,256,240ZM130.295,224h82a32,32,0,1,0,55.41,0h82c31.681,32.1,53.246,77.779,57.518,120.654A40.017,40.017,0,0,0,360,384v56.02a40.171,40.171,0,0,0-13.906,19.2C318.3,473.009,282.627,480,240,480c-30.218,0-57.108-3.56-80.16-10.6A71.661,71.661,0,0,0,176,424V360a71.954,71.954,0,0,0-29.777-58.288A24.032,24.032,0,0,0,160,280a40.045,40.045,0,0,0-40-40h-3.843A194.613,194.613,0,0,1,130.295,224ZM88,256h32a24.027,24.027,0,0,1,24,24,8.009,8.009,0,0,1-8,8h-8V272H112v16H96V272H80v16H72a8.009,8.009,0,0,1-8-8A24.027,24.027,0,0,1,88,256ZM48,360a56,56,0,0,1,112,0v64a56,56,0,0,1-112,0Zm-8.964,95.031A72.456,72.456,0,0,0,58.793,480H40a8.009,8.009,0,0,1-8-8A24.087,24.087,0,0,1,39.036,455.031Z"></path><rect x="72" y="336" width="64" height="16"></rect><rect x="72" y="368" width="64" height="16"></rect><rect x="72" y="400" width="64" height="16"></rect><rect x="72" y="432" width="64" height="16"></rect><path d="M272,132a12,12,0,0,1-24,0v-4a8,8,0,0,0-16,0v4a12,12,0,0,1-24,0v-4H192v4a27.987,27.987,0,0,0,48,19.577A27.987,27.987,0,0,0,288,132v-4H272Z"></path></g></svg>