<svg height='100px' width='100px'  fill="#000000" xmlns="http://www.w3.org/2000/svg" viewBox="0 0 64 64" x="0px" y="0px"><path d="M57.9,60.553l-2-4A1,1,0,0,0,55,56H48V46.975c2.2-.1,7-.589,7-2.975a1,1,0,0,0-1.991-.137,7.809,7.809,0,0,1-3.71,1.022l-4.3-4.3V30.975c2.2-.1,7-.589,7-2.975a1,1,0,0,0-1.991-.137,6.335,6.335,0,0,1-2.826.906l-4.476-4.476A1,1,0,0,0,42,24V14.975c.419-.019.935-.055,1.493-.113l0,0v0C45.862,14.616,49,13.929,49,12a1,1,0,0,0-1.991-.137,6.806,6.806,0,0,1-3.077.94L33,6.426V3a1,1,0,0,0-2,0V6.426L20.068,12.8a6.806,6.806,0,0,1-3.077-.94A1,1,0,0,0,15,12c0,1.929,3.138,2.616,5.5,2.862v0l0,0c.558.058,1.074.094,1.493.113V24a1,1,0,0,0-.707.293l-4.476,4.476a6.335,6.335,0,0,1-2.826-.906A1,1,0,0,0,12,28c0,2.386,4.8,2.875,7,2.975v9.611l-4.3,4.3a7.809,7.809,0,0,1-3.71-1.022A1,1,0,0,0,9,44c0,2.386,4.8,2.875,7,2.975V56H9a1,1,0,0,0-.895.553l-2,4A1,1,0,0,0,7,62H57a1,1,0,0,0,.9-1.447ZM19.414,29l3-3H41.586l3,3ZM43,31v9H37V31Zm-8,0v9H29V31Zm-8,0v9H21V31Zm-3-7V15h4v9Zm6,0V15h4v9Zm6,0V15h4v9ZM32,8.158,40.3,13H23.7ZM20.414,42H43.586l3,3H17.414ZM46,47v9H38V47ZM36,47v9H28V47ZM26,47v9H18V47ZM8.618,60l1-2H54.382l1,2Z"></path></svg>