<svg height='100px' width='100px'  fill="#000000" xmlns="http://www.w3.org/2000/svg" xmlns:xlink="http://www.w3.org/1999/xlink" xml:space="preserve" version="1.1" style="shape-rendering:geometricPrecision;text-rendering:geometricPrecision;image-rendering:optimizeQuality;" viewBox="0 0 305 483" x="0px" y="0px" fill-rule="evenodd" clip-rule="evenodd"><defs><style type="text/css">
   
    .fil0 {fill:#000000}
   
  </style></defs><g><path class="fil0" d="M104 483l0 -15 -14 0 6 -17c18,-55 95,-54 113,0l6 17 -13 0 0 15 103 0 0 -15 -11 0 -56 -106 11 0 0 -15 -18 0 -27 -74 13 0 0 -15 -17 0 -23 -170 15 0 0 -15 -16 0 0 -25c0,-4 -3,-8 -7,-8l-9 0 0 -40 -15 0 0 40 -8 0c-5,0 -8,4 -8,8l0 25 -16 0 0 15 15 0 -22 170 -17 0 0 15 13 0 -27 74 -19 0 0 15 12 0 -57 106 -11 0 0 15 104 0zm40 -428l17 0 0 18 -17 0 0 -18zm-1 33l19 0 22 170 -63 0 22 -170zm-25 185l70 0 27 74 -24 0 -15 -51c-1,-3 -4,-6 -7,-6l-32 0c-4,0 -7,3 -8,6l-14 51 -24 0 27 -74zm57 74l-45 0 12 -42 21 0 12 42zm-90 15l136 0 56 106 -46 0 -7 -22c-23,-68 -120,-67 -142,0l-7 22 -47 0 57 -106z"></path></g></svg>