<svg height='100px' width='100px'  fill="#000000" xmlns="http://www.w3.org/2000/svg" xmlns:xlink="http://www.w3.org/1999/xlink" version="1.1" x="0px" y="0px" viewBox="0 0 100 100" enable-background="new 0 0 100 100" xml:space="preserve"><g><path d="M49.768,6c-24.262,0-44,19.738-44,44s19.738,44,44,44s44-19.738,44-44S74.029,6,49.768,6z M49.768,91.5   c-22.883,0-41.5-18.617-41.5-41.5c0-22.883,18.617-41.5,41.5-41.5c22.883,0,41.5,18.617,41.5,41.5   C91.268,72.883,72.65,91.5,49.768,91.5z"></path><path d="M49.768,12.438c-20.711,0-37.562,16.85-37.562,37.562c0,20.712,16.85,37.563,37.562,37.563   C70.479,87.563,87.33,70.712,87.33,50C87.33,29.289,70.479,12.438,49.768,12.438z M51.018,85.031v-6.224h-2.5v6.224   c-18.388-0.649-33.21-15.52-33.784-33.928h6.079v-2.5h-6.072c0.72-18.272,15.485-32.988,33.776-33.634v5.929h2.5V14.97   c18.292,0.646,33.057,15.361,33.777,33.634h-6.074v2.5h6.081C84.229,69.512,69.407,84.382,51.018,85.031z"></path><path d="M49.768,25.755v-2.5c-14.747,0-26.745,11.998-26.745,26.745h2.5C25.522,36.631,36.399,25.755,49.768,25.755z"></path><path d="M49.768,74.246v2.5c14.748,0,26.746-11.998,26.746-26.746h-2.5C74.014,63.369,63.137,74.246,49.768,74.246z"></path><path d="M58.24,56.903L71.13,29.46L43.686,42.35L58.24,56.903z M57.49,52.618l-9.519-9.52l17.95-8.431L57.49,52.618z"></path><path d="M41.297,44.74L28.406,72.182l27.444-12.887L41.297,44.74z M42.046,49.025l9.52,9.52l-17.951,8.43L42.046,49.025z"></path></g></svg>