<svg height='100px' width='100px'  fill="#000000" xmlns="http://www.w3.org/2000/svg" viewBox="0 0 48 48" x="0px" y="0px"><title>7-bullet train</title><g data-name="7-bullet train"><path d="M35,22a1,1,0,0,0-1,1v4a1,1,0,0,0,1,1h4a1,1,0,0,0,1-1V23a1,1,0,0,0-1-1Zm3,4H36V24h2Z"></path><path d="M47,22H43a1,1,0,0,0-1,1v4a1,1,0,0,0,1,1h4a1,1,0,0,0,1-1V23A1,1,0,0,0,47,22Zm-1,4H44V24h2Z"></path><path d="M47,32a1,1,0,0,0,0-2H12.94537a9.58376,9.58376,0,0,1,1.15009-2H30a.99985.99985,0,0,0,.89453-.55273l2-4A1.00009,1.00009,0,0,0,32,22H22.84814A4.46746,4.46746,0,0,1,26,20H47a1,1,0,0,0,0-2H26c-2.9292,0-4.95166,2.92871-5.63867,4.09131C18.16211,22.51172,10,24.76465,10,35a1,1,0,0,0,1,1H47a1,1,0,0,0,0-2H12.03076a13.18349,13.18349,0,0,1,.28943-2ZM29.38184,26H16.12622a11.3015,11.3015,0,0,1,4.935-2h9.32062Z"></path><path d="M47,38H1a1,1,0,0,0,0,2H2v7a1,1,0,0,0,1,1H9a1,1,0,0,0,1-1V40h4v7a1,1,0,0,0,1,1h6a1,1,0,0,0,1-1V40h4v7a1,1,0,0,0,1,1h6a1,1,0,0,0,1-1V40h4v7a1,1,0,0,0,1,1h6a1,1,0,0,0,1-1V40h1a1,1,0,0,0,0-2ZM8,46H4V40H8Zm12,0H16V40h4Zm12,0H28V40h4Zm12,0H40V40h4Z"></path><path d="M1,30H9a1,1,0,0,0,0-2H1a1,1,0,0,0,0,2Z"></path><path d="M2,32v4a1,1,0,0,0,2,0V32a1,1,0,0,0-2,0Z"></path><path d="M6,32v4a1,1,0,0,0,2,0V32a1,1,0,0,0-2,0Z"></path><path d="M1.52393,13.85156,14,6.17432l12.47607,7.67724a1.10958,1.10958,0,0,0,1.37549-.32763.99937.99937,0,0,0-.32763-1.37549L22.02386,8.76379a3.98563,3.98563,0,0,1,7.96357.11182l-1.62757,1.35632a.99986.99986,0,0,0,1.28028,1.53614L35.10156,7.2168l11.39453,6.647a1.13165,1.13165,0,0,0,1.36768-.35986,1,1,0,0,0-.35986-1.36768l-12-7a1.0026,1.0026,0,0,0-1.144.0957L31.7735,7.38727a5.9927,5.9927,0,0,0-11.60718.2334L14.52393,4.14844a.99747.99747,0,0,0-1.04786,0l-13,8a.99983.99983,0,1,0,1.04786,1.70312Z"></path><rect x="25" width="2" height="2"></rect><rect x="18" y="3" width="2" height="2"></rect><rect x="21" y="1" width="2" height="2"></rect><rect x="29" y="1" width="2" height="2"></rect><rect x="32" y="3" width="2" height="2"></rect></g></svg>