<svg height='100px' width='100px'  fill="#000000" xmlns="http://www.w3.org/2000/svg" xmlns:xlink="http://www.w3.org/1999/xlink" version="1.1" x="0px" y="0px" viewBox="0 0 100 100" style="enable-background:new 0 0 100 100;" xml:space="preserve"><path d="M84,51c0.5,0,1-0.2,1.3-0.5l8-7c0.4-0.4,0.7-0.9,0.7-1.5c0-0.6-0.2-1.1-0.7-1.5l-8-7C85,33.2,84.5,33,84,33H58V17  c0-4.4-3.6-8-8-8s-8,3.6-8,8v2H16c-0.5,0-1,0.2-1.3,0.5l-8,7C6.2,26.9,6,27.4,6,28c0,0.6,0.2,1.1,0.7,1.5l8,7C15,36.8,15.5,37,16,37  h26v29.7c-4.9,2.1-8.8,6.2-10.7,11.3H29c-5.4,0-9.9,3.9-10.8,9H14c-1.1,0-2,0.9-2,2c0,1.1,0.9,2,2,2h72c1.1,0,2-0.9,2-2  c0-1.1-0.9-2-2-2h-4.2c-1-5.1-5.4-9-10.8-9h-2.3c-1.9-5.1-5.9-9.2-10.7-11.3V51H84z M46,17c0-2.2,1.8-4,4-4s4,1.8,4,4v2h-8V17z   M16.8,33L11,28l5.7-5H54v10H16.8z M46,51h8v14.4c-1.3-0.3-2.6-0.4-4-0.4s-2.7,0.1-4,0.4V51z M65.4,80.5c0.2,0.9,1,1.5,1.9,1.5H71  c3.2,0,5.8,2.1,6.7,5H22.3c0.9-2.9,3.5-5,6.7-5h3.7c0.9,0,1.7-0.6,1.9-1.5C36.6,73.8,42.9,69,50,69S63.4,73.8,65.4,80.5z M46,47V37  h37.2l5.7,5l-5.7,5H46z"></path></svg>