<svg height='100px' width='100px'  fill="#000000" xmlns="http://www.w3.org/2000/svg" viewBox="0 0 100 100" x="0px" y="0px"><title>japanese pack</title><g data-name="Your Icon"><path d="M50,5.23A44.77,44.77,0,1,0,94.77,50,44.82,44.82,0,0,0,50,5.23Zm0,3.93a40.92,40.92,0,0,1,39.88,32A32.32,32.32,0,0,0,52,57.47c-.74-.05-1.48-.08-2.21-.08s-1.21,0-1.85.06A32.48,32.48,0,0,0,19.16,39.83a32.15,32.15,0,0,0-9,1.29A40.92,40.92,0,0,1,50,9.15ZM9.15,50a41,41,0,0,1,.38-5.53,29.13,29.13,0,0,1,9.63-1.64,29.47,29.47,0,0,1,25.56,15,31.94,31.94,0,0,0-8.36,2.52q-.38-.54-.78-1.06L35.33,59c-.2-.24-.39-.48-.6-.71l-.34-.36c-.19-.2-.37-.4-.57-.59l-.39-.36-.57-.52-.42-.35-.59-.47-.45-.33-.6-.42-.48-.31-.62-.38-.5-.28-.64-.34L28,53.27l-.66-.3-.53-.22-.68-.26-.54-.19-.71-.21-.54-.15-.74-.17-.54-.12-.78-.13-.51-.08-.88-.09-.44,0c-.44,0-.88,0-1.32,0s-.81,0-1.22,0H17.7q-.59,0-1.17.11l-.21,0q-.55.07-1.09.18l-.14,0c-.38.08-.76.16-1.14.26L13.7,52c-.38.1-.75.21-1.12.33l-.15.05q-.51.17-1,.38l-.19.08q-.54.22-1.06.47l-.22.11-.62.32C9.21,52.5,9.15,51.26,9.15,50ZM12.3,65.72A40.5,40.5,0,0,1,9.75,57c.22-.14.44-.28.67-.41l.08,0q.52-.29,1.06-.55l0,0c.36-.17.72-.32,1.09-.46l.13-.05c.36-.13.72-.26,1.08-.37l.18-.05q.54-.16,1.09-.28l.19,0q.55-.12,1.11-.2l.17,0c.38-.05.77-.1,1.16-.13h.12c.41,0,.82,0,1.24,0s.75,0,1.12,0l.37,0,.74.07.43.07.66.11.46.1.63.15L24,55l.6.18.45.16.59.22.44.18.57.26.43.2.57.3.4.22.58.35.36.23.62.43.28.2q.44.33.86.69h0q.41.35.81.74l.25.26.52.54.28.32.44.52.28.36.26.36c-.37.21-.73.44-1.1.66l-.29.18-.94.63-.24.16q-.55.39-1.09.81l-.23.19-.87.71-.26.22q-.51.44-1,.91l-.16.15-.55.53A9.38,9.38,0,0,0,12.3,65.72Zm1.42,3a6.36,6.36,0,0,1,5.44-3,6.41,6.41,0,0,1,1.48,12.64A41.06,41.06,0,0,1,13.72,68.76Zm42.57,21.6a41,41,0,0,1-12.89-.05c0-.2,0-.41,0-.61a6.4,6.4,0,0,1,4.87-6.22l.21,0a5.79,5.79,0,0,1,2.79,0l.21,0a6.35,6.35,0,0,1,4.84,6.88Zm3-.59s0,0,0-.07a9.4,9.4,0,0,0-7.75-9.26h0a9.6,9.6,0,0,0-1.19-.13H49.32a9.6,9.6,0,0,0-1.19.13h0a9.4,9.4,0,0,0-7.75,9.26,40.53,40.53,0,0,1-8.2-3A17.87,17.87,0,0,1,49.79,71.82h.13A17.87,17.87,0,0,1,67.56,86.88,40.53,40.53,0,0,1,59.33,89.77Zm11-4.36A20.88,20.88,0,0,0,49.91,68.82h-.13A20.88,20.88,0,0,0,29.39,85.26a41.06,41.06,0,0,1-6.31-4.56,9.39,9.39,0,0,0,5.49-8.55,9.28,9.28,0,0,0-.3-2.34l.21-.23.42-.44.53-.53.44-.42.56-.5.45-.39.59-.48.46-.36.63-.47.45-.33.68-.46.44-.29.78-.47.38-.22q.59-.33,1.19-.64a29,29,0,0,1,10.68-3.07c.93-.08,1.79-.12,2.61-.12,1,0,2,0,3,.15A29.24,29.24,0,0,1,71.4,69.91a9.28,9.28,0,0,0-.28,2.23,9.39,9.39,0,0,0,5.7,8.64A41.06,41.06,0,0,1,70.34,85.41Zm9-7A6.4,6.4,0,0,1,75,75.31c-1.59-2.12-1.25-5.38.93-7.63l.26-.25a1.87,1.87,0,0,1,.39-.34A6,6,0,0,1,82.65,66a6.47,6.47,0,0,1,3.6,2.79A41.06,41.06,0,0,1,79.3,78.43Zm8.38-12.67A9.4,9.4,0,0,0,72.9,67a32.19,32.19,0,0,0-6.68-5.19l.25-.34.28-.37.44-.53.28-.33c.18-.2.36-.38.54-.57l.23-.24q.4-.39.82-.76l.18-.15c.22-.19.45-.38.68-.56l.33-.24.57-.41.39-.25.55-.34.42-.23.56-.3.44-.21.57-.26.46-.19.58-.22.47-.16.6-.18.47-.13L77,54.7l.46-.1.67-.11.44-.07.75-.08.38,0c.38,0,.75,0,1.13,0s.83,0,1.25,0h.12c.39,0,.78.07,1.17.13l.17,0q.57.09,1.12.21l.18,0q.55.13,1.1.29l.17.05c.37.11.73.24,1.09.37l.13.05c.37.15.74.3,1.1.47l0,0q.55.26,1.08.56l.07,0c.23.13.45.27.67.41A40.5,40.5,0,0,1,87.68,65.76Zm2.37-12.32-.23-.11q-.52-.25-1.06-.48l-.2-.08q-.5-.2-1-.38l-.15-.05c-.37-.12-.74-.23-1.12-.34L86,51.93c-.38-.1-.76-.19-1.15-.26l-.14,0q-.54-.1-1.09-.18l-.21,0q-.58-.07-1.17-.11H82c-.41,0-.82,0-1.23,0s-.89,0-1.34,0l-.44,0-.88.09-.52.08-.79.13-.54.12-.74.17-.55.16-.71.22-.55.19-.68.26L72.5,53l-.66.3-.53.26-.64.34-.51.29-.62.38-.49.32-.6.42-.47.35-.58.47L67,56.5l-.56.52-.4.38c-.19.19-.37.38-.55.58l-.35.38c-.2.23-.39.46-.58.69l-.27.32q-.4.52-.77,1.06a32,32,0,0,0-8.3-2.6,29.46,29.46,0,0,1,25.58-15,29.14,29.14,0,0,1,9.69,1.66A41,41,0,0,1,90.85,50c0,1.27-.06,2.52-.17,3.76Z"></path></g></svg>