<svg height='100px' width='100px'  fill="#000000" xmlns="http://www.w3.org/2000/svg" xmlns:xlink="http://www.w3.org/1999/xlink" version="1.1" x="0px" y="0px" viewBox="0 0 100 100" enable-background="new 0 0 100 100" xml:space="preserve"><g><path fill="none" d="M76.429,38.65c-0.646,0.848-1.031,1.833-1.16,2.874l3.846,4.776c1.12-0.49,2.24-0.981,3.354-1.487   c1.491-0.676,3.072-0.894,4.593-0.73c3.075-5.484,5.487-13.423,3.887-14.641C89.006,27.967,79.338,34.829,76.429,38.65z"></path><path fill="none" d="M74.49,37.173c0.762-1,3.244-3.421,6.194-5.665c-2.397-5.315-7.814-12.616-10.187-11.93   c-1.782,0.521-2.862,6.447-2.405,13.034l5.287,6.565C73.659,38.47,74.018,37.792,74.49,37.173z"></path><path fill="none" d="M44.936,46.158c8.163-2.389,16.294-5.204,24.211-8.35l-9.509-11.808c-2.217-2.753-5.985-3.602-9.169-2.062   l-8.438,4.081c-1.396,0.675-2.885,1.11-4.426,1.295l-9.308,1.112c-3.509,0.419-6.228,3.166-6.611,6.679l-1.644,15.072   C28.407,50.558,36.773,48.547,44.936,46.158z"></path><path fill="none" d="M70.75,39.798c-8.208,3.288-16.653,6.219-25.129,8.699c-8.477,2.48-17.171,4.565-25.856,6.22l-1.044,9.573   c19.961-3.37,39.441-9.071,58.069-16.992L70.75,39.798z"></path><path fill="none" d="M86.121,46.459c-0.886,0-1.787,0.184-2.645,0.573C61.052,57.21,37.322,64.153,12.947,67.67   c-3.507,0.506-5.949,3.771-5.443,7.277c0.506,3.507,3.768,5.947,7.279,5.444c12.729-1.837,25.437-4.598,37.77-8.208   c12.332-3.609,24.524-8.133,36.236-13.448c1.562-0.709,2.756-1.985,3.36-3.592c0.604-1.607,0.545-3.353-0.164-4.916   C90.91,47.861,88.567,46.459,86.121,46.459z"></path><path d="M94.203,49.221c-0.969-2.135-2.689-3.693-4.706-4.521c2.129-4.041,6.644-14.368,2.929-17.198   c-2.149-1.636-6.079,0.096-9.737,2.564c-2.231-4.603-8.155-14.204-12.877-12.828c-3.602,1.054-4.232,7.823-4.251,12.232l-4.027-5   c-2.932-3.642-7.92-4.763-12.127-2.728l-8.438,4.081c-1.152,0.557-2.382,0.917-3.654,1.069l-9.308,1.112   c-4.642,0.554-8.238,4.187-8.745,8.835l-3.039,27.862c-1.207,0.192-2.415,0.381-3.626,0.556c-4.837,0.698-8.205,5.201-7.507,10.038   c0.636,4.41,4.436,7.599,8.768,7.599c0.419,0,0.844-0.03,1.271-0.092c12.843-1.853,25.664-4.639,38.106-8.28   c12.443-3.641,24.743-8.206,36.559-13.568c2.156-0.978,3.802-2.738,4.634-4.954C95.262,53.784,95.181,51.377,94.203,49.221z    M90.949,29.441c1.6,1.219-0.812,9.158-3.887,14.641c-1.521-0.164-3.102,0.055-4.593,0.73c-1.114,0.506-2.234,0.997-3.354,1.487   l-3.846-4.776c0.129-1.041,0.514-2.027,1.16-2.874C79.338,34.829,89.006,27.967,90.949,29.441z M70.497,19.578   c2.372-0.687,7.79,6.615,10.187,11.93c-2.95,2.245-5.432,4.665-6.194,5.665c-0.472,0.619-0.83,1.297-1.111,2.004l-5.287-6.565   C67.635,26.025,68.715,20.099,70.497,19.578z M28.297,30.425l9.308-1.112c1.541-0.184,3.03-0.62,4.426-1.295l8.438-4.081   c3.184-1.54,6.952-0.691,9.169,2.062l9.509,11.808c-7.917,3.146-16.048,5.962-24.211,8.35c-8.163,2.389-16.529,4.4-24.894,6.019   l1.644-15.072C22.069,33.591,24.788,30.844,28.297,30.425z M19.765,54.717c8.685-1.655,17.379-3.74,25.856-6.22   c8.476-2.48,16.922-5.411,25.129-8.699l6.04,7.5C58.162,55.22,38.682,60.92,18.721,64.291L19.765,54.717z M92.148,55.144   c-0.604,1.607-1.798,2.883-3.36,3.592c-11.712,5.315-23.904,9.84-36.236,13.448c-12.333,3.609-25.04,6.37-37.77,8.208   c-3.511,0.504-6.772-1.937-7.279-5.444c-0.506-3.507,1.936-6.771,5.443-7.277c24.375-3.517,48.105-10.46,70.529-20.638   c0.859-0.389,1.759-0.573,2.645-0.573c2.446,0,4.789,1.402,5.863,3.769C92.693,51.791,92.752,53.537,92.148,55.144z"></path></g></svg>