<svg height='100px' width='100px'  fill="#000000" xmlns="http://www.w3.org/2000/svg" xmlns:xlink="http://www.w3.org/1999/xlink" version="1.1" x="0px" y="0px" viewBox="0 0 100 100" style="enable-background:new 0 0 100 100;" xml:space="preserve"><g><path d="M95,46.24c0-2.97-2.4-5.38-5.37-5.4v-6.3h3.94v-10.8H63.23v8.4H59.3v10.8h0.09L41.11,59.4c-1.74,1.56-4.3,1.74-6.24,0.45   c-1.42-0.95-2.27-2.53-2.27-4.24V26.39l11.27-6.77l-1.54-2.57l-11.65,6.99H22.8l-11.43,36.2C7.51,63.15,5,67.75,5,72.94   c0,0.16,0.01,0.32,0.02,0.48l0.07,1.62h6.14c0.97,4.45,4.93,7.8,9.67,7.8c4.74,0,8.7-3.35,9.67-7.8h6.14l0.07-1.62   c0.01-0.16,0.02-0.32,0.02-0.48c0-0.1-0.01-0.2-0.02-0.3h24.07c-0.02,0.3-0.05,0.59-0.05,0.9v1.5h6.13c0.72,4.75,4.82,8.4,9.77,8.4   s9.05-3.65,9.77-8.4h6.13v-1.5c0-2.37-0.53-4.61-1.46-6.63c2.4-2.82,3.86-6.48,3.86-10.47V46.24z M66.23,26.74h24.34v4.8H66.23   V26.74z M62.3,35.14h24.33v4.8H62.3V35.14z M20.9,79.84c-3.07,0-5.68-2.02-6.57-4.8h13.14C26.58,77.82,23.97,79.84,20.9,79.84z    M8.03,72.04c0.47-6.7,6.06-12,12.87-12s12.4,5.3,12.87,12H8.03z M76.7,80.44c-3.29,0-6.04-2.32-6.73-5.4h13.46   C82.74,78.12,79.99,80.44,76.7,80.44z M63.89,72.04c0.74-6.41,6.2-11.4,12.81-11.4s12.07,4.99,12.81,11.4H63.89z M92,56.44   c0,2.87-0.94,5.53-2.5,7.7c-2.9-3.93-7.55-6.5-12.8-6.5c-7.42,0-13.65,5.11-15.4,12H36.45c-1.52-7.19-7.91-12.6-15.55-12.6   c-2.02,0-3.94,0.39-5.72,1.08L25,27.04h4.6v28.57c0,2.71,1.35,5.23,3.61,6.73c3.08,2.06,7.15,1.76,9.9-0.72l19.77-17.78H89.6   c1.32,0,2.4,1.07,2.4,2.4V56.44z"></path><path d="M19.1,25.26l-0.89-1.21l-0.31,0.23l-10.5-7.7V35.7l12.59-9.23L19.1,25.26z M10.4,29.78V22.5l4.96,3.64L10.4,29.78z"></path></g></svg>