<svg height='100px' width='100px'  fill="#000000" xmlns:dc="http://purl.org/dc/elements/1.1/" xmlns:cc="http://creativecommons.org/ns#" xmlns:rdf="http://www.w3.org/1999/02/22-rdf-syntax-ns#" xmlns:svg="http://www.w3.org/2000/svg" xmlns="http://www.w3.org/2000/svg" xmlns:sodipodi="http://sodipodi.sourceforge.net/DTD/sodipodi-0.dtd" xmlns:inkscape="http://www.inkscape.org/namespaces/inkscape" viewBox="0 0 72 80.000002" version="1.1" x="0px" y="0px"><g transform="translate(0,-972.3622)"><path style="color:#000000;font-style:normal;font-variant:normal;font-weight:normal;font-stretch:normal;font-size:medium;line-height:normal;font-family:sans-serif;text-indent:0;text-align:start;text-decoration:none;text-decoration-line:none;text-decoration-style:solid;text-decoration-color:#000000;letter-spacing:normal;word-spacing:normal;text-transform:none;direction:ltr;block-progression:tb;writing-mode:lr-tb;baseline-shift:baseline;text-anchor:start;white-space:normal;clip-rule:nonzero;display:inline;overflow:visible;visibility:visible;opacity:1;isolation:auto;mix-blend-mode:normal;color-interpolation:sRGB;color-interpolation-filters:linearRGB;solid-color:#000000;solid-opacity:1;fill:#000000;fill-opacity:1;fill-rule:evenodd;stroke:none;stroke-width:1.44000006;stroke-linecap:butt;stroke-linejoin:miter;stroke-miterlimit:4;stroke-dasharray:none;stroke-dashoffset:0;stroke-opacity:1;color-rendering:auto;image-rendering:auto;shape-rendering:auto;text-rendering:auto;enable-background:accumulate" d="m 38.880859,976.54297 0,20.87891 -31.6816402,0 0,1.43945 33.1210932,0 0,-22.31836 -1.439453,0 z"></path><path d="m 23.760008,979.6022 -0.908263,3.63306 a 4.563251,4.563251 0 0 1 0.908263,-0.0963 4.563251,4.563251 0 0 1 0.906946,0.091 l -0.906946,-3.62779 z m -4.049886,1.08531 1.030242,3.60124 a 4.563251,4.563251 0 0 1 1.573225,-0.90848 l -2.603467,-2.69276 z m 8.099772,0 -2.602151,2.69144 a 4.563251,4.563251 0 0 1 1.572567,0.90805 l 1.029584,-3.59949 z m -11.06457,2.9648 2.691442,2.60215 a 4.563251,4.563251 0 0 1 0.908042,-1.57257 l -3.599484,-1.02958 z m 14.029367,0 -3.601239,1.03024 a 4.563251,4.563251 0 0 1 0.908482,1.57323 l 2.692757,-2.60347 z m -2.547742,3.14162 a 4.563251,4.563251 0 0 1 0.09631,0.90827 4.563251,4.563251 0 0 1 -0.09105,0.90694 L 31.86,987.7022 28.226949,986.79393 Z m -8.939147,0.001 -3.627786,0.90694 3.633051,0.90827 a 4.563251,4.563251 0 0 1 -0.09631,-0.90826 4.563251,4.563251 0 0 1 0.09105,-0.90695 z m 0.15028,2.35336 -2.692758,2.60347 3.601021,-1.03024 a 4.563251,4.563251 0 0 1 -0.908263,-1.57323 z m 8.645168,0.001 a 4.563251,4.563251 0 0 1 -0.908043,1.57256 l 3.599484,1.02959 -2.691441,-2.60215 z m -1.303598,1.96571 a 4.563251,4.563251 0 0 1 -1.573225,0.90848 l 2.603467,2.69276 -1.030242,-3.60124 z m -6.039946,0.002 -1.029584,3.59948 2.602151,-2.69144 a 4.563251,4.563251 0 0 1 -1.572567,-0.90804 z m 3.928565,1.05174 a 4.563251,4.563251 0 0 1 -0.908263,0.0963 4.563251,4.563251 0 0 1 -0.906947,-0.091 l 0.906947,3.62779 0.908263,-3.63305 z" style="opacity:1;fill:#000000;fill-opacity:1;stroke:none;stroke-width:16;stroke-linecap:butt;stroke-linejoin:miter;stroke-miterlimit:4;stroke-dasharray:none;stroke-dashoffset:0;stroke-opacity:1"></path><path d="m 27.916073,987.7022 a 4.1560651,4.1560651 0 0 1 -4.156065,4.15606 4.1560651,4.1560651 0 0 1 -4.156065,-4.15606 4.1560651,4.1560651 0 0 1 4.156065,-4.15607 4.1560651,4.1560651 0 0 1 4.156065,4.15607 z" style="" fill="#000000" fill-opacity="1" stroke="none"></path><path style="color:#000000;font-style:normal;font-variant:normal;font-weight:normal;font-stretch:normal;font-size:medium;line-height:normal;font-family:sans-serif;text-indent:0;text-align:start;text-decoration:none;text-decoration-line:none;text-decoration-style:solid;text-decoration-color:#000000;letter-spacing:normal;word-spacing:normal;text-transform:none;direction:ltr;block-progression:tb;writing-mode:lr-tb;baseline-shift:baseline;text-anchor:start;white-space:normal;clip-rule:nonzero;display:inline;overflow:visible;visibility:visible;opacity:1;isolation:auto;mix-blend-mode:normal;color-interpolation:sRGB;color-interpolation-filters:linearRGB;solid-color:#000000;solid-opacity:1;fill:#000000;fill-opacity:1;fill-rule:nonzero;stroke:none;stroke-width:1.43999994;stroke-linecap:butt;stroke-linejoin:miter;stroke-miterlimit:4;stroke-dasharray:none;stroke-dashoffset:0;stroke-opacity:1;color-rendering:auto;image-rendering:auto;shape-rendering:auto;text-rendering:auto;enable-background:accumulate" d="m 72,1019.7422 -0.720703,0 -64.0800782,0 0,-43.19923 64.8007812,0 0,43.19923 z m -1.439453,-1.4395 0,-40.32028 -61.919922,0 0,40.32028 61.919922,0 z"></path><path style="color:#000000;font-style:normal;font-variant:normal;font-weight:normal;font-stretch:normal;font-size:medium;line-height:normal;font-family:sans-serif;text-indent:0;text-align:start;text-decoration:none;text-decoration-line:none;text-decoration-style:solid;text-decoration-color:#000000;letter-spacing:normal;word-spacing:normal;text-transform:none;direction:ltr;block-progression:tb;writing-mode:lr-tb;baseline-shift:baseline;text-anchor:start;white-space:normal;clip-rule:nonzero;display:inline;overflow:visible;visibility:visible;opacity:1;isolation:auto;mix-blend-mode:normal;color-interpolation:sRGB;color-interpolation-filters:linearRGB;solid-color:#000000;solid-opacity:1;fill:#000000;fill-opacity:1;fill-rule:nonzero;stroke:none;stroke-width:1.44000006;stroke-linecap:butt;stroke-linejoin:round;stroke-miterlimit:4;stroke-dasharray:none;stroke-dashoffset:0;stroke-opacity:1;color-rendering:auto;image-rendering:auto;shape-rendering:auto;text-rendering:auto;enable-background:accumulate" d="M 0.72070312,972.58203 A 0.72007203,0.72007203 0 0 0 0,973.30273 l 0,78.11917 a 0.72007203,0.72007203 0 0 0 0.72070312,0.7207 l 7.19921878,0 a 0.72007203,0.72007203 0 0 0 0.7207031,-0.7207 l 0,-32.4004 -1.4414062,0 0,31.6816 -5.7597657,0 0,-76.68162 5.7597657,0 0,3.41993 1.4414062,0 0,-4.13868 a 0.72007203,0.72007203 0 0 0 -0.7207031,-0.7207 l -7.19921878,0 z"></path></g></svg>