<svg height='100px' width='100px'  fill="#000000" xmlns="http://www.w3.org/2000/svg" xmlns:xlink="http://www.w3.org/1999/xlink" version="1.1" x="0px" y="0px" viewBox="0 0 64 64" style="enable-background:new 0 0 64 64;" xml:space="preserve"><g><path d="M58,7.3C57.9,4.9,55.9,3,53.5,3c-1.3,0-2.6,0.6-3.4,1.6c-0.5-0.2-1-0.4-1.6-0.4c-1.8,0-3.2,1.3-3.5,3h-0.2   c-2.1,0-3.9,1.7-3.9,3.9c0,2.1,1.7,3.9,3.9,3.9h0.1l-1.4,2.8c-5.3-1.9-10.9-2.7-16.5-2.3c0-2.3-1.8-4.2-4-4.4c0,0,0,0,0,0   c0-2.2-1.8-4-4-4c-0.4,0-0.8,0.1-1.1,0.2c-1-1.4-2.6-2.2-4.4-2.2C10.5,5,8,7.5,8,10.5c0,0.2,0,0.3,0,0.5H7.5C5,11,3,13,3,15.5   S5,20,7.5,20h15c1,0,1.9-0.3,2.7-0.9c3.8,0.2,7.5,1,11.2,2.3c1.1,0.4,2,1.1,2.7,2c0.7,0.9,1,2,1,3.2c0,2.3-1.4,4.3-3.5,5.1L34,32.8   c0-0.1,0-0.2,0-0.3c0-1.4-0.8-2.6-2-3.2c-0.1-2.4-2.1-4.3-4.5-4.3c-1.6,0-3,0.8-3.8,2.1C23.5,27,23.2,27,23,27   c-1.3,0-2.4,0.8-2.8,2c-1.8,0.2-3.2,1.7-3.2,3.5c0,1.9,1.6,3.5,3.5,3.5h5.8c-2,1-3.3,3-3.3,5.3v1.3c-4.1,0.6-7.7,1.6-8.7,3.4H11v7   c0,2.8,2.2,5,5,5v3h9v-3h14v3h9v-3c2.8,0,5-2.2,5-5v-7h-3.3c-1.1-2.1-5.9-3.1-10.7-3.6c0.2-1.2,1-2.2,2.1-2.8   c2.4-1.2,4.4-3,5.7-5.3c1.4-2.3,2.1-4.8,2.1-7.5v-7.8l0.5-4.1h7.6c2.1,0,3.9-1.7,3.9-3.9C61,9.3,59.7,7.7,58,7.3z M7.5,18   C6.1,18,5,16.9,5,15.5S6.1,13,7.5,13h3.2l-0.5-1.3c-0.1-0.4-0.2-0.8-0.2-1.2C10,8.6,11.6,7,13.5,7c1.3,0,2.5,0.7,3.1,1.9l0.5,0.9   L18,9.3C18.3,9.1,18.6,9,19,9c1.1,0,2,0.9,2,2c0,0.2,0,0.4-0.1,0.7L20.4,13h2.1c1.4,0,2.5,1.1,2.5,2.5c0,0.3,0,0.5-0.1,0.7   c-0.1,0.4-0.4,0.8-0.7,1.1c-0.5,0.4-1.1,0.7-1.7,0.7H7.5z M19,32.5c0-0.8,0.7-1.5,1.5-1.5H22v-1c0-0.6,0.4-1,1-1   c0.3,0,0.5,0.1,0.6,0.2l1.1,0.8l0.4-1.3c0.3-1,1.3-1.7,2.4-1.7c1.4,0,2.5,1.1,2.5,2.5c0,0.1,0,0.3,0,0.4l-0.1,1l1,0.2   c0.7,0.1,1.2,0.7,1.2,1.5c0,0.8-0.7,1.5-1.5,1.5h-10C19.7,34,19,33.3,19,32.5z M23,59h-5v-1h5V59z M46,59h-5v-1h5V59z M51,53   c0,1.7-1.3,3-3,3h-9H25h-9c-1.7,0-3-1.3-3-3v-5h1h36h1V53z M17.4,46c2.3-1,7.4-2,14.6-2s12.3,1,14.6,2H17.4z M47,18.9l0,7.9   c0,2.3-0.6,4.5-1.8,6.4c-1.2,1.9-2.9,3.5-4.9,4.5c-1.7,0.9-2.9,2.5-3.2,4.4C35.3,42.1,33.5,42,32,42c-2.1,0-4.5,0.1-7,0.4v-1.1   c0-1.6,0.9-3,2.4-3.6l9.9-4.1c2.8-1.2,4.7-3.9,4.7-7c0-1.6-0.5-3.1-1.4-4.3C39.7,21,38.5,20,37,19.5c-2.8-1-5.7-1.7-8.6-2.1   c5-0.2,9.9,0.6,14.6,2.3l1.5,0.5l2.6-5.2h0.4L47,18.9z M57.1,13H44.8c-1,0-1.9-0.8-1.9-1.9c0-1,0.8-1.9,1.9-1.9h2.5L47,8.1   c0-0.1,0-0.2,0-0.3c0-0.8,0.7-1.5,1.5-1.5c0.4,0,0.8,0.2,1.1,0.5l1,1.1l0.6-1.4C51.6,5.6,52.5,5,53.5,5C54.9,5,56,6.1,56,7.5   c0,0.2,0,0.4-0.1,0.5l-0.2,1.2h1.4c1,0,1.9,0.8,1.9,1.9C59,12.2,58.2,13,57.1,13z"></path></g></svg>