<svg height='100px' width='100px'  fill="#000000" xmlns="http://www.w3.org/2000/svg" viewBox="0 0 32 32" x="0px" y="0px"><title>gate, japan, sinto,</title><g data-name="Layer 14"><path d="M30.38,1.68a.5.5,0,0,0-.45-.17,98.46,98.46,0,0,1-27.86,0,.5.5,0,0,0-.54.65l1,3a.5.5,0,0,0,.4.34c.6.09,1.2.16,1.8.24l.8,2.42A.5.5,0,0,0,6,8.5h.5V9a.5.5,0,0,0,.5.5h.5v2H6a.5.5,0,0,0-.5.5v2a.5.5,0,0,0,.5.5H7.5v13H7a.5.5,0,0,0-.5.5v2a.5.5,0,0,0,.5.5h5a.5.5,0,0,0,.5-.5V28a.5.5,0,0,0-.5-.5h-.5v-13h9v13H20a.5.5,0,0,0-.5.5v2a.5.5,0,0,0,.5.5h5a.5.5,0,0,0,.5-.5V28a.5.5,0,0,0-.5-.5h-.5v-13H26a.5.5,0,0,0,.5-.5V12a.5.5,0,0,0-.5-.5H24.5v-2H25a.5.5,0,0,0,.5-.5V8.5H26a.5.5,0,0,0,.47-.34l.8-2.42c.6-.08,1.2-.15,1.8-.24a.5.5,0,0,0,.4-.34l1-3A.5.5,0,0,0,30.38,1.68ZM19.5,8.5V9a.5.5,0,0,0,.5.5h.5v2h-9v-2H12a.5.5,0,0,0,.5-.5V8.5Zm-13,5v-1h1v1Zm5,16h-4v-1h4Zm-3-2V9.5h2v18Zm3-14v-1h9v1Zm13,16h-4v-1h4Zm1-17v1h-1v-1Zm-2,15h-2V9.5h2Zm2.14-20H6.36L5.82,5.88A85.87,85.87,0,0,0,16,6.5a85.89,85.89,0,0,0,10.18-.61Zm3-2.95a84.88,84.88,0,0,1-25.24,0L2.73,2.61a99.47,99.47,0,0,0,26.54,0Z"></path></g></svg>