<svg height='100px' width='100px'  fill="#000000" xmlns="http://www.w3.org/2000/svg" viewBox="0 0 512 512" x="0px" y="0px"><g><path d="M495.353,484.849l-96-224a8,8,0,0,0-11.384-3.759l-3.107,1.813L399.983,24.515a8,8,0,0,0-15.639-2.835L310.17,266.452l-23-45.993a8,8,0,0,0-8.882-4.274L140.829,246.254,94.615,179.5A8,8,0,0,0,88,176H48a8,8,0,0,0-7.491,5.191l-24,64a8,8,0,0,0,9.689,10.5h0l42.955-12.273,2.165,18.041L22.291,272.185a8,8,0,0,0-3.2,14.13l60.9,47.363,8.073,67.275a8,8,0,0,0,4.365,6.2l63.919,31.96a8,8,0,0,0,7.544-.122l72-40-.322-.579L485.1,495.456a8,8,0,0,0,10.252-10.607ZM368.2,268.621l-32.619,19.028-14.052-3.513L379.554,92.658ZM195.969,369.09a7.983,7.983,0,0,0-2.483,2.267l-31.307,43.829L81.314,202l5.565-5.564L203.406,364.752ZM87.745,264.068l36.17,95.355-22.561,18.049Zm42.132,111.075,15.378,40.54-40.648-20.324Zm168.332-96.837L241.94,264.239A8,8,0,0,0,234.711,266l-50.341,43.15-8.558-12.362,100.921-61.43ZM193.526,322.372l17.827-15.281-12.646,22.764Zm23.742,34.294-8.407-12.143,35.152-63.273,71.778,17.944Zm17.714-114.629-68.293,41.57-16.012-23.128ZM53.544,192H68.686L44.458,216.228Zm-2.057,39.826L66.018,217.3l1.2,10.035Zm-9.1,52.341,30.845-6.747,4.068,33.9ZM187.137,407.772,202.9,385.71l14.09,5.479Zm31.218-33.217,169.857-99.084,84.929,198.167Z"></path></g></svg>