<svg height='100px' width='100px'  fill="#000000" xmlns:dc="http://purl.org/dc/elements/1.1/" xmlns:cc="http://creativecommons.org/ns#" xmlns:rdf="http://www.w3.org/1999/02/22-rdf-syntax-ns#" xmlns:svg="http://www.w3.org/2000/svg" xmlns="http://www.w3.org/2000/svg" xmlns:sodipodi="http://sodipodi.sourceforge.net/DTD/sodipodi-0.dtd" xmlns:inkscape="http://www.inkscape.org/namespaces/inkscape" viewBox="0 0 72 80.000002" version="1.1" x="0px" y="0px"><g transform="translate(0,-972.3622)"><path d="m 37.367932,988.46369 c -0.689491,0.7827 -0.667531,2.03195 -0.622981,3.224 l -1.37142,-2.17529 0.3465,2.54092 c -0.96858,-0.63085 -2.29446,-1.11573 -2.54853,-2.06244 -0.33678,0.96603 0.10296,2.14463 0.54,3.25951 l -2.055781,-1.5924 1.193221,2.26635 c -1.123921,-0.25771 -2.538451,-0.26407 -3.097801,-1.06331 -0.02709,1.02519 0.7992,1.97806 1.60299,2.87174 l -2.45709,-0.78767 1.90269,1.72723 c -1.14543,0.14103 -2.48031,0.61432 -3.280591,0.0543 0.33858,0.96451 1.438381,1.58186 2.496421,2.15121 l -2.585971,0.10073 c 0,0 1.225711,0.7968 1.850491,1.17912 -0.83727,0.2738 -1.626661,0.4882 -2.352151,0.4882 -0.8919,0 -1.87902,-0.3223 -2.93499,-0.6833 -1.056061,-0.361 -2.180791,-0.76061 -3.400831,-0.76061 -1.22004,0 -2.345041,0.39961 -3.401011,0.76061 -1.05606,0.361 -2.04309,0.6833 -2.935081,0.6833 -0.89181,0 -1.87902,-0.3223 -2.93499,-0.6833 -1.05597,-0.361 -2.1808807,-0.76061 -3.401011,-0.76061 l 0,1.44001 c 0.8919002,0 1.8792004,0.3223 2.935171,0.6833 1.05606,0.361 2.18079,0.7606 3.40083,0.7606 1.220131,0 2.344771,-0.3996 3.400921,-0.7606 1.05597,-0.361 2.043271,-0.6833 2.935171,-0.6833 0.8919,0 1.87902,0.3223 2.93499,0.6833 1.055971,0.361 2.180791,0.7606 3.400831,0.7606 1.22013,0 2.345041,-0.3996 3.401011,-0.7606 1.05606,-0.361 2.04318,-0.6833 2.935081,-0.6833 0.8919,0 1.8792,0.3223 2.93517,0.6833 1.055971,0.361 2.180791,0.7606 3.400831,0.7606 1.22013,0 2.345041,-0.3996 3.401011,-0.7606 1.05597,-0.361 2.04318,-0.6833 2.93499,-0.6833 0.891991,0 1.879201,0.3223 2.935261,0.6833 1.05597,0.361 2.180701,0.7606 3.400831,0.7606 1.22004,0 2.34486,-0.3996 3.400831,-0.7606 1.05597,-0.361 2.04327,-0.6833 2.93517,-0.6833 0.8919,0 1.879021,0.3223 2.935081,0.6833 1.05597,0.361 2.1807,0.7606 3.400831,0.7606 1.22004,0 2.34504,-0.3996 3.40101,-0.7606 1.055971,-0.361 2.043091,-0.6833 2.934991,-0.6833 l 0,-1.44001 c -1.22004,0 -2.34486,0.39961 -3.400831,0.76061 -1.05597,0.361 -2.04327,0.6833 -2.93517,0.6833 -0.891901,0 -1.879021,-0.3223 -2.935081,-0.6833 -1.05597,-0.361 -2.1807,-0.76061 -3.400831,-0.76061 -1.22004,0 -2.34504,0.39961 -3.40101,0.76061 -1.055971,0.361 -2.043091,0.6833 -2.934991,0.6833 -0.69156,0 -1.44099,-0.1946 -2.234701,-0.4499 l 1.731421,-1.21742 -2.550421,-0.0995 c 0.79029,-0.84423 1.485001,-2.06694 2.462311,-2.15244 -0.91278,-0.51108 -2.133271,-0.28277 -3.294091,-0.0425 l 1.91457,-1.73883 -2.45268,0.78645 c 0.45549,-1.0637 0.70992,-2.45571 1.6002,-2.87051 -1.02789,-0.17791 -2.09916,0.45731 -3.10923,1.08316 l 1.20285,-2.2862 -2.034181,1.57605 c 0.06417,-1.1555 -0.17415,-2.5486 0.52038,-3.24317 -1.01043,0.17809 -1.80855,1.14873 -2.55204,2.08706 l 0.34983,-2.56571 -1.34703,2.1368 c -0.34164,-1.09733 -1.057321,-2.30561 -0.64719,-3.18551 -0.852301,0.51659 -1.285021,1.71465 -1.678411,2.85785 l -0.55368,-2.55445 -0.54162,2.4982 c -0.69462,-0.92156 -1.7757,-1.82772 -1.69047,-2.8016 z" style="color:#000000;font-style:normal;font-variant:normal;font-weight:normal;font-stretch:normal;font-size:medium;line-height:normal;font-family:sans-serif;text-indent:0;text-align:start;text-decoration:none;text-decoration-line:none;text-decoration-style:solid;text-decoration-color:#000000;letter-spacing:normal;word-spacing:normal;text-transform:none;direction:ltr;block-progression:tb;writing-mode:lr-tb;baseline-shift:baseline;text-anchor:start;white-space:normal;clip-rule:nonzero;display:inline;overflow:visible;visibility:visible;opacity:1;isolation:auto;mix-blend-mode:normal;color-interpolation:sRGB;color-interpolation-filters:linearRGB;solid-color:#000000;solid-opacity:1;fill:#000000;fill-opacity:1;fill-rule:nonzero;stroke:none;stroke-width:16;stroke-linecap:butt;stroke-linejoin:miter;stroke-miterlimit:4;stroke-dasharray:none;stroke-dashoffset:0;stroke-opacity:1;color-rendering:auto;image-rendering:auto;shape-rendering:auto;text-rendering:auto;enable-background:accumulate"></path><path style="" d="m 50.766415,980.2472 c -2.254951,0.3192 -4.489201,0.68118 -6.763592,0.69013 -3.317131,0.0132 -4.134781,1.30628 -5.290201,2.45544 -0.44982,-1.04791 -1.46214,-1.52814 -2.647081,-1.68522 -1.58031,-0.20942 -5.216131,-0.42414 -7.632001,-1.11792 1.04562,1.02787 3.23361,1.54109 4.754341,1.77314 0.10674,0.0163 0.21267,0.0347 0.31896,0.0522 1.02375,0.5698 3.29751,0.81659 4.122181,1.539 l -0.662311,-0.0136 c -1.09773,-0.75143 -1.9305,-0.6561 -2.49795,-0.1902 l -1.62036,0.0491 c -0.229411,0.12496 0.18891,0.64688 0.52857,0.66594 l 1.66986,0.0145 c 0.77598,0.98006 2.280241,1.66121 3.716101,1.67015 1.00845,0.006 2.0763,-0.41661 3.232891,-0.89029 l 2.93337,0.0194 c 0.02097,-0.13971 -0.28296,-0.41784 -0.5436,-0.4585 -0.51768,-0.0814 -0.95571,-0.008 -1.4553,0.0614 0.79191,-0.31148 1.62567,-0.60301 2.51289,-0.76695 l -4.547431,-0.0936 c 0.52551,-0.61778 1.000531,-1.27292 1.282501,-1.28959 3.08169,-0.17903 6.809761,-1.47988 8.588162,-2.48452 z m -15.374074,3.43732 a 0.16862966,0.16862966 0 0 1 0.16848,0.16875 0.16862966,0.16862966 0 0 1 -0.16848,0.16858 0.16862966,0.16862966 0 0 1 -0.16866,-0.16858 0.16862966,0.16862966 0 0 1 0.16866,-0.16875 z m 2.688841,0.2783 0,9e-4 -0.0072,0 0.0072,0 z" fill="#000000" stroke="none"></path><path style="color:#000000;font-style:normal;font-variant:normal;font-weight:normal;font-stretch:normal;font-size:medium;line-height:normal;font-family:sans-serif;text-indent:0;text-align:start;text-decoration:none;text-decoration-line:none;text-decoration-style:solid;text-decoration-color:#000000;letter-spacing:normal;word-spacing:normal;text-transform:none;direction:ltr;block-progression:tb;writing-mode:lr-tb;baseline-shift:baseline;text-anchor:start;white-space:normal;clip-rule:nonzero;display:inline;overflow:visible;visibility:visible;opacity:1;isolation:auto;mix-blend-mode:normal;color-interpolation:sRGB;color-interpolation-filters:linearRGB;solid-color:#000000;solid-opacity:1;fill:#000000;fill-opacity:1;fill-rule:nonzero;stroke:none;stroke-width:1.44000018;stroke-linecap:butt;stroke-linejoin:miter;stroke-miterlimit:4;stroke-dasharray:none;stroke-dashoffset:0;stroke-opacity:1;color-rendering:auto;image-rendering:auto;shape-rendering:auto;text-rendering:auto;enable-background:accumulate" d="m 7.1992188,1019.7422 0,-0.7207 0,-42.47853 64.8007812,0 0,43.19923 -64.8007812,0 z m 1.4414062,-1.4395 61.919922,0 0,-40.32028 -61.919922,0 0,40.32028 z"></path><path d="m 7.2000148,1010.5987 0,3.1262 1.4400004,0 0,-1.6231 c 0.6939901,0.1101 1.4354998,0.3536 2.2151708,0.6201 1.05606,0.361 2.18079,0.7608 3.40083,0.7608 1.220131,0 2.344861,-0.3998 3.400921,-0.7608 1.05597,-0.361 2.043271,-0.6832 2.935171,-0.6832 0.8919,0 1.87902,0.3222 2.93499,0.6832 1.055971,0.361 2.180791,0.7608 3.400831,0.7608 1.22013,0 2.345041,-0.3998 3.401011,-0.7608 1.05606,-0.361 2.04318,-0.6832 2.935081,-0.6832 0.8919,0 1.8792,0.3222 2.93517,0.6832 1.055971,0.361 2.180791,0.7608 3.400831,0.7608 1.22013,0 2.345041,-0.3998 3.401011,-0.7608 1.05597,-0.361 2.04318,-0.6832 2.93499,-0.6832 0.891991,0 1.879201,0.3222 2.935261,0.6832 1.05597,0.361 2.180701,0.7608 3.400831,0.7608 1.22004,0 2.34486,-0.3998 3.400831,-0.7608 1.05597,-0.361 2.04327,-0.6832 2.93517,-0.6832 0.89199,0 1.879021,0.3222 2.935081,0.6832 1.05597,0.361 2.18079,0.7608 3.400831,0.7608 1.22004,0 2.34504,-0.3998 3.40101,-0.7608 1.055971,-0.361 2.043091,-0.6832 2.934991,-0.6832 l 0,-1.44 c -1.22004,0 -2.34486,0.3997 -3.400831,0.7607 -1.05597,0.361 -2.04327,0.6833 -2.93517,0.6833 -0.891901,0 -1.879021,-0.3223 -2.934991,-0.6833 -1.05606,-0.361 -2.18079,-0.7607 -3.400921,-0.7607 -1.22004,0 -2.34504,0.3997 -3.40101,0.7607 -1.055971,0.361 -2.043091,0.6833 -2.934991,0.6833 -0.89199,0 -1.879201,-0.3223 -2.935171,-0.6833 -1.05606,-0.361 -2.18079,-0.7607 -3.400921,-0.7607 -1.22004,0 -2.34477,0.3997 -3.40083,0.7607 -1.055971,0.361 -2.043271,0.6833 -2.935171,0.6833 -0.8919,0 -1.87902,-0.3223 -2.934991,-0.6833 -1.05606,-0.361 -2.18097,-0.7607 -3.40101,-0.7607 -1.220131,0 -2.344861,0.3997 -3.400921,0.7607 -1.05597,0.361 -2.043181,0.6833 -2.935171,0.6833 -0.8919,0 -1.87902,-0.3223 -2.93499,-0.6833 -1.056061,-0.361 -2.180791,-0.7607 -3.400831,-0.7607 -1.22004,0 -2.345041,0.3997 -3.401011,0.7607 -1.05606,0.361 -2.04309,0.6833 -2.935081,0.6833 -0.89181,0 -1.87902,-0.3223 -2.93499,-0.6833 -1.05597,-0.361 -2.1808807,-0.7607 -3.401011,-0.7607 l -0.7200002,0 z" style="color:#000000;font-style:normal;font-variant:normal;font-weight:normal;font-stretch:normal;font-size:medium;line-height:normal;font-family:sans-serif;text-indent:0;text-align:start;text-decoration:none;text-decoration-line:none;text-decoration-style:solid;text-decoration-color:#000000;letter-spacing:normal;word-spacing:normal;text-transform:none;direction:ltr;block-progression:tb;writing-mode:lr-tb;baseline-shift:baseline;text-anchor:start;white-space:normal;clip-rule:nonzero;display:inline;overflow:visible;visibility:visible;opacity:1;isolation:auto;mix-blend-mode:normal;color-interpolation:sRGB;color-interpolation-filters:linearRGB;solid-color:#000000;solid-opacity:1;fill:#000000;fill-opacity:1;fill-rule:nonzero;stroke:none;stroke-width:16;stroke-linecap:butt;stroke-linejoin:miter;stroke-miterlimit:4;stroke-dasharray:none;stroke-dashoffset:0;stroke-opacity:1;color-rendering:auto;image-rendering:auto;shape-rendering:auto;text-rendering:auto;enable-background:accumulate"></path><path d="m 7.920015,1013.6295 0,1.44 c 0.8919002,0 1.8792004,0.3223 2.935171,0.6833 1.05606,0.361 2.18079,0.7608 3.40083,0.7608 1.220131,0 2.344861,-0.3998 3.400921,-0.7608 1.05597,-0.361 2.043271,-0.6833 2.935171,-0.6833 0.8919,0 1.87902,0.3223 2.93499,0.6833 1.055971,0.361 2.180791,0.7608 3.400831,0.7608 1.22013,0 2.345041,-0.3998 3.401011,-0.7608 1.05606,-0.361 2.04318,-0.6833 2.935081,-0.6833 0.8919,0 1.8792,0.3223 2.93517,0.6833 1.055971,0.361 2.180791,0.7608 3.400831,0.7608 1.22013,0 2.345041,-0.3998 3.401011,-0.7608 1.05597,-0.361 2.04318,-0.6833 2.93499,-0.6833 0.891991,0 1.879201,0.3223 2.935261,0.6833 1.05597,0.361 2.180701,0.7608 3.400831,0.7608 1.22004,0 2.34486,-0.3998 3.400831,-0.7608 1.05597,-0.361 2.04327,-0.6833 2.93517,-0.6833 0.89199,0 1.879021,0.3223 2.935081,0.6833 1.05597,0.361 2.18079,0.7608 3.400831,0.7608 1.22004,0 2.34504,-0.3998 3.40101,-0.7608 1.055971,-0.361 2.043091,-0.6833 2.934991,-0.6833 l 0,-1.44 c -1.22004,0 -2.34486,0.3998 -3.400831,0.7608 -1.05597,0.361 -2.04327,0.6833 -2.93517,0.6833 -0.891901,0 -1.879021,-0.3223 -2.934991,-0.6833 -1.05606,-0.361 -2.18079,-0.7608 -3.400921,-0.7608 -1.22004,0 -2.34504,0.3998 -3.40101,0.7608 -1.055971,0.361 -2.043091,0.6833 -2.934991,0.6833 -0.89199,0 -1.879201,-0.3223 -2.935171,-0.6833 -1.05606,-0.361 -2.18079,-0.7608 -3.400921,-0.7608 -1.22004,0 -2.34477,0.3998 -3.40083,0.7608 -1.055971,0.361 -2.043271,0.6833 -2.935171,0.6833 -0.8919,0 -1.87902,-0.3223 -2.934991,-0.6833 -1.05606,-0.361 -2.18097,-0.7608 -3.40101,-0.7608 -1.220131,0 -2.344861,0.3998 -3.400921,0.7608 -1.05597,0.361 -2.043181,0.6833 -2.935171,0.6833 -0.8919,0 -1.87902,-0.3223 -2.93499,-0.6833 -1.056061,-0.361 -2.180791,-0.7608 -3.400831,-0.7608 -1.22004,0 -2.345041,0.3998 -3.401011,0.7608 -1.05606,0.361 -2.04309,0.6833 -2.935081,0.6833 -0.89181,0 -1.87902,-0.3223 -2.93499,-0.6833 -1.05597,-0.361 -2.1808807,-0.7608 -3.401011,-0.7608 z" style="color:#000000;font-style:normal;font-variant:normal;font-weight:normal;font-stretch:normal;font-size:medium;line-height:normal;font-family:sans-serif;text-indent:0;text-align:start;text-decoration:none;text-decoration-line:none;text-decoration-style:solid;text-decoration-color:#000000;letter-spacing:normal;word-spacing:normal;text-transform:none;direction:ltr;block-progression:tb;writing-mode:lr-tb;baseline-shift:baseline;text-anchor:start;white-space:normal;clip-rule:nonzero;display:inline;overflow:visible;visibility:visible;opacity:1;isolation:auto;mix-blend-mode:normal;color-interpolation:sRGB;color-interpolation-filters:linearRGB;solid-color:#000000;solid-opacity:1;fill:#000000;fill-opacity:1;fill-rule:nonzero;stroke:none;stroke-width:16;stroke-linecap:butt;stroke-linejoin:miter;stroke-miterlimit:4;stroke-dasharray:none;stroke-dashoffset:0;stroke-opacity:1;color-rendering:auto;image-rendering:auto;shape-rendering:auto;text-rendering:auto;enable-background:accumulate"></path><path d="m 7.2000148,1007.5678 0,3.1262 1.4400004,0 0,-1.6231 c 0.6939901,0.1102 1.4354998,0.3536 2.2151708,0.6201 1.05606,0.361 2.18079,0.7608 3.40083,0.7608 1.220131,0 2.344861,-0.3998 3.400921,-0.7608 1.05597,-0.361 2.043271,-0.6832 2.935171,-0.6832 0.8919,0 1.87902,0.3222 2.93499,0.6832 1.055971,0.361 2.180791,0.7608 3.400831,0.7608 1.22013,0 2.345041,-0.3998 3.401011,-0.7608 1.05606,-0.361 2.04318,-0.6832 2.935081,-0.6832 0.8919,0 1.8792,0.3222 2.93517,0.6832 1.055971,0.361 2.180791,0.7608 3.400831,0.7608 1.22013,0 2.345041,-0.3998 3.401011,-0.7608 1.05597,-0.361 2.04318,-0.6832 2.93499,-0.6832 0.891991,0 1.879201,0.3222 2.935261,0.6832 1.05597,0.361 2.180701,0.7608 3.400831,0.7608 1.22004,0 2.34486,-0.3998 3.400831,-0.7608 1.05597,-0.361 2.04327,-0.6832 2.93517,-0.6832 0.89199,0 1.879021,0.3222 2.935081,0.6832 1.05597,0.361 2.18079,0.7608 3.400831,0.7608 1.22004,0 2.34504,-0.3998 3.40101,-0.7608 1.055971,-0.361 2.043091,-0.6832 2.934991,-0.6832 l 0,-1.44 c -1.22004,0 -2.34486,0.3998 -3.400831,0.7608 -1.05597,0.3609 -2.04327,0.6832 -2.93517,0.6832 -0.891901,0 -1.879021,-0.3223 -2.934991,-0.6832 -1.05606,-0.361 -2.18079,-0.7608 -3.400921,-0.7608 -1.22004,0 -2.34504,0.3998 -3.40101,0.7608 -1.055971,0.3609 -2.043091,0.6832 -2.934991,0.6832 -0.89199,0 -1.879201,-0.3223 -2.935171,-0.6832 -1.05606,-0.361 -2.18079,-0.7608 -3.400921,-0.7608 -1.22004,0 -2.34477,0.3998 -3.40083,0.7608 -1.055971,0.3609 -2.043271,0.6832 -2.935171,0.6832 -0.8919,0 -1.87902,-0.3223 -2.934991,-0.6832 -1.05606,-0.361 -2.18097,-0.7608 -3.40101,-0.7608 -1.220131,0 -2.344861,0.3998 -3.400921,0.7608 -1.05597,0.3609 -2.043181,0.6832 -2.935171,0.6832 -0.8919,0 -1.87902,-0.3223 -2.93499,-0.6832 -1.056061,-0.361 -2.180791,-0.7608 -3.400831,-0.7608 -1.22004,0 -2.345041,0.3998 -3.401011,0.7608 -1.05606,0.3609 -2.04309,0.6832 -2.935081,0.6832 -0.89181,0 -1.87902,-0.3223 -2.93499,-0.6832 -1.05597,-0.361 -2.1808807,-0.7608 -3.401011,-0.7608 l -0.7200002,0 z" style="color:#000000;font-style:normal;font-variant:normal;font-weight:normal;font-stretch:normal;font-size:medium;line-height:normal;font-family:sans-serif;text-indent:0;text-align:start;text-decoration:none;text-decoration-line:none;text-decoration-style:solid;text-decoration-color:#000000;letter-spacing:normal;word-spacing:normal;text-transform:none;direction:ltr;block-progression:tb;writing-mode:lr-tb;baseline-shift:baseline;text-anchor:start;white-space:normal;clip-rule:nonzero;display:inline;overflow:visible;visibility:visible;opacity:1;isolation:auto;mix-blend-mode:normal;color-interpolation:sRGB;color-interpolation-filters:linearRGB;solid-color:#000000;solid-opacity:1;fill:#000000;fill-opacity:1;fill-rule:nonzero;stroke:none;stroke-width:16;stroke-linecap:butt;stroke-linejoin:miter;stroke-miterlimit:4;stroke-dasharray:none;stroke-dashoffset:0;stroke-opacity:1;color-rendering:auto;image-rendering:auto;shape-rendering:auto;text-rendering:auto;enable-background:accumulate"></path><path d="m 7.920015,1004.7791 0,1.44 c 0.8919002,0 1.8792004,0.3223 2.935171,0.6833 1.05606,0.361 2.18079,0.7608 3.40083,0.7608 1.220131,0 2.344861,-0.3998 3.400921,-0.7608 1.05597,-0.361 2.043271,-0.6833 2.935171,-0.6833 0.8919,0 1.87902,0.3223 2.93499,0.6833 1.055971,0.361 2.180791,0.7608 3.400831,0.7608 1.22013,0 2.345041,-0.3998 3.401011,-0.7608 1.05606,-0.361 2.04318,-0.6833 2.935081,-0.6833 0.8919,0 1.8792,0.3223 2.93517,0.6833 1.055971,0.361 2.180791,0.7608 3.400831,0.7608 1.22013,0 2.345041,-0.3998 3.401011,-0.7608 1.05597,-0.361 2.04318,-0.6833 2.93499,-0.6833 0.891991,0 1.879201,0.3223 2.935261,0.6833 1.05597,0.361 2.180701,0.7608 3.400831,0.7608 1.22004,0 2.34486,-0.3998 3.400831,-0.7608 1.05597,-0.361 2.04327,-0.6833 2.93517,-0.6833 0.89199,0 1.879021,0.3223 2.935081,0.6833 1.05597,0.361 2.18079,0.7608 3.400831,0.7608 1.22004,0 2.34504,-0.3998 3.40101,-0.7608 1.055971,-0.361 2.043091,-0.6833 2.934991,-0.6833 l 0,-1.44 c -1.22004,0 -2.34486,0.3998 -3.400831,0.7608 -1.05597,0.361 -2.04327,0.6833 -2.93517,0.6833 -0.891901,0 -1.879021,-0.3223 -2.934991,-0.6833 -1.05606,-0.361 -2.18079,-0.7608 -3.400921,-0.7608 -1.22004,0 -2.34504,0.3998 -3.40101,0.7608 -1.055971,0.361 -2.043091,0.6833 -2.934991,0.6833 -0.89199,0 -1.879201,-0.3223 -2.935171,-0.6833 -1.05606,-0.361 -2.18079,-0.7608 -3.400921,-0.7608 -1.22004,0 -2.34477,0.3998 -3.40083,0.7608 -1.055971,0.361 -2.043271,0.6833 -2.935171,0.6833 -0.8919,0 -1.87902,-0.3223 -2.934991,-0.6833 -1.05606,-0.361 -2.18097,-0.7608 -3.40101,-0.7608 -1.220131,0 -2.344861,0.3998 -3.400921,0.7608 -1.05597,0.361 -2.043181,0.6833 -2.935171,0.6833 -0.8919,0 -1.87902,-0.3223 -2.93499,-0.6833 -1.056061,-0.361 -2.180791,-0.7608 -3.400831,-0.7608 -1.22004,0 -2.345041,0.3998 -3.401011,0.7608 -1.05606,0.361 -2.04309,0.6833 -2.935081,0.6833 -0.89181,0 -1.87902,-0.3223 -2.93499,-0.6833 -1.05597,-0.361 -2.1808807,-0.7608 -3.401011,-0.7608 z" style="color:#000000;font-style:normal;font-variant:normal;font-weight:normal;font-stretch:normal;font-size:medium;line-height:normal;font-family:sans-serif;text-indent:0;text-align:start;text-decoration:none;text-decoration-line:none;text-decoration-style:solid;text-decoration-color:#000000;letter-spacing:normal;word-spacing:normal;text-transform:none;direction:ltr;block-progression:tb;writing-mode:lr-tb;baseline-shift:baseline;text-anchor:start;white-space:normal;clip-rule:nonzero;display:inline;overflow:visible;visibility:visible;opacity:1;isolation:auto;mix-blend-mode:normal;color-interpolation:sRGB;color-interpolation-filters:linearRGB;solid-color:#000000;solid-opacity:1;fill:#000000;fill-opacity:1;fill-rule:nonzero;stroke:none;stroke-width:16;stroke-linecap:butt;stroke-linejoin:miter;stroke-miterlimit:4;stroke-dasharray:none;stroke-dashoffset:0;stroke-opacity:1;color-rendering:auto;image-rendering:auto;shape-rendering:auto;text-rendering:auto;enable-background:accumulate"></path><path d="m 7.920015,1001.9905 0,1.44 c 0.8919002,0 1.8792004,0.3222 2.935171,0.6832 1.05606,0.361 2.18079,0.7608 3.40083,0.7608 1.220131,0 2.344861,-0.3998 3.400921,-0.7608 1.05597,-0.361 2.043271,-0.6832 2.935171,-0.6832 0.8919,0 1.87902,0.3222 2.93499,0.6832 1.055971,0.361 2.180791,0.7608 3.400831,0.7608 1.22013,0 2.345041,-0.3998 3.401011,-0.7608 1.05606,-0.361 2.04318,-0.6832 2.935081,-0.6832 0.8919,0 1.8792,0.3222 2.93517,0.6832 1.055971,0.361 2.180791,0.7608 3.400831,0.7608 1.22013,0 2.345041,-0.3998 3.401011,-0.7608 1.05597,-0.361 2.04318,-0.6832 2.93499,-0.6832 0.891991,0 1.879201,0.3222 2.935261,0.6832 1.05597,0.361 2.180701,0.7608 3.400831,0.7608 1.22004,0 2.34486,-0.3998 3.400831,-0.7608 1.05597,-0.361 2.04327,-0.6832 2.93517,-0.6832 0.89199,0 1.879021,0.3222 2.935081,0.6832 1.05597,0.361 2.18079,0.7608 3.400831,0.7608 1.22004,0 2.34504,-0.3998 3.40101,-0.7608 1.055971,-0.361 2.043091,-0.6832 2.934991,-0.6832 l 0,-1.44 c -1.22004,0 -2.34486,0.3997 -3.400831,0.7607 -1.05597,0.361 -2.04327,0.6833 -2.93517,0.6833 -0.891901,0 -1.879021,-0.3223 -2.934991,-0.6833 -1.05606,-0.361 -2.18079,-0.7607 -3.400921,-0.7607 -1.22004,0 -2.34504,0.3997 -3.40101,0.7607 -1.055971,0.361 -2.043091,0.6833 -2.934991,0.6833 -0.89199,0 -1.879201,-0.3223 -2.935171,-0.6833 -1.05606,-0.361 -2.18079,-0.7607 -3.400921,-0.7607 -1.22004,0 -2.34477,0.3997 -3.40083,0.7607 -1.055971,0.361 -2.043271,0.6833 -2.935171,0.6833 -0.8919,0 -1.87902,-0.3223 -2.934991,-0.6833 -1.05606,-0.361 -2.18097,-0.7607 -3.40101,-0.7607 -1.220131,0 -2.344861,0.3997 -3.400921,0.7607 -1.05597,0.361 -2.043181,0.6833 -2.935171,0.6833 -0.8919,0 -1.87902,-0.3223 -2.93499,-0.6833 -1.056061,-0.361 -2.180791,-0.7607 -3.400831,-0.7607 -1.22004,0 -2.345041,0.3997 -3.401011,0.7607 -1.05606,0.361 -2.04309,0.6833 -2.935081,0.6833 -0.89181,0 -1.87902,-0.3223 -2.93499,-0.6833 -1.05597,-0.361 -2.1808807,-0.7607 -3.401011,-0.7607 z" style="color:#000000;font-style:normal;font-variant:normal;font-weight:normal;font-stretch:normal;font-size:medium;line-height:normal;font-family:sans-serif;text-indent:0;text-align:start;text-decoration:none;text-decoration-line:none;text-decoration-style:solid;text-decoration-color:#000000;letter-spacing:normal;word-spacing:normal;text-transform:none;direction:ltr;block-progression:tb;writing-mode:lr-tb;baseline-shift:baseline;text-anchor:start;white-space:normal;clip-rule:nonzero;display:inline;overflow:visible;visibility:visible;opacity:1;isolation:auto;mix-blend-mode:normal;color-interpolation:sRGB;color-interpolation-filters:linearRGB;solid-color:#000000;solid-opacity:1;fill:#000000;fill-opacity:1;fill-rule:nonzero;stroke:none;stroke-width:16;stroke-linecap:butt;stroke-linejoin:miter;stroke-miterlimit:4;stroke-dasharray:none;stroke-dashoffset:0;stroke-opacity:1;color-rendering:auto;image-rendering:auto;shape-rendering:auto;text-rendering:auto;enable-background:accumulate"></path><path style="color:#000000;font-style:normal;font-variant:normal;font-weight:normal;font-stretch:normal;font-size:medium;line-height:normal;font-family:sans-serif;text-indent:0;text-align:start;text-decoration:none;text-decoration-line:none;text-decoration-style:solid;text-decoration-color:#000000;letter-spacing:normal;word-spacing:normal;text-transform:none;direction:ltr;block-progression:tb;writing-mode:lr-tb;baseline-shift:baseline;text-anchor:start;white-space:normal;clip-rule:nonzero;display:inline;overflow:visible;visibility:visible;opacity:1;isolation:auto;mix-blend-mode:normal;color-interpolation:sRGB;color-interpolation-filters:linearRGB;solid-color:#000000;solid-opacity:1;fill:#000000;fill-opacity:1;fill-rule:nonzero;stroke:none;stroke-width:1.4400003;stroke-linecap:butt;stroke-linejoin:round;stroke-miterlimit:4;stroke-dasharray:none;stroke-dashoffset:0;stroke-opacity:1;color-rendering:auto;image-rendering:auto;shape-rendering:auto;text-rendering:auto;enable-background:accumulate" d="M 0.72070312,972.58203 A 0.72007215,0.72007215 0 0 0 0,973.30273 l 0,78.11917 a 0.72007215,0.72007215 0 0 0 0.72070312,0.7207 l 7.19921878,0 a 0.72007215,0.72007215 0 0 0 0.7207031,-0.7207 l 0,-32.4004 -1.4414062,0 0,31.6816 -5.7597657,0 0,-76.68162 5.7597657,0 0,3.41993 1.4414062,0 0,-4.13868 a 0.72007215,0.72007215 0 0 0 -0.7207031,-0.7207 l -7.19921878,0 z"></path></g></svg>