<svg height='100px' width='100px'  fill="#000000" xmlns="http://www.w3.org/2000/svg" xmlns:xlink="http://www.w3.org/1999/xlink" version="1.1" x="0px" y="0px" viewBox="0 0 100 100" enable-background="new 0 0 100 100" xml:space="preserve"><path d="M93.668,93.439c-2.308-2.068-4.386-4.719-6.469-7.604c-0.563-3.267-1.813-7.112-3.916-9.3l1.629-7.125  c0.057-0.245,0.018-0.504-0.109-0.723l-2.854-4.901c-0.006-0.009-0.014-0.014-0.02-0.021c-0.019-0.115-0.048-0.229-0.105-0.333  c-0.137-0.24-0.366-0.414-0.635-0.479l-2.927-0.702c-0.499-0.121-1.016,0.164-1.179,0.656l-2.151,6.54  c-0.396,0.019-0.769,0.126-1.111,0.269c-2.698-2.049-5.731-3.459-9.29-3.817c2.048-4.874,0.189-7.412-1.622-9.862l-0.469-0.642  c-0.245-0.338-0.249-0.494-0.261-0.912c-0.005-0.159-0.014-0.322-0.029-0.488c0.079-0.029,0.157-0.063,0.239-0.115  c0.842-0.538,0.417-1.544,0.075-2.353c-0.621-1.468-1.355-3.053-2.24-4.599l8.327-7.529c0.371-0.336,0.436-0.895,0.151-1.306  c-0.287-0.412-0.833-0.547-1.276-0.317l-10.019,5.18c-0.357-0.402-0.729-0.79-1.12-1.154l3.645-11.084  c0.157-0.478-0.066-0.998-0.521-1.211c-0.453-0.214-0.997-0.055-1.267,0.369l-5.896,9.343c-0.58-0.228-1.182-0.42-1.818-0.553  l-2.643-12.937c-0.103-0.504-0.571-0.844-1.086-0.79c-0.512,0.058-0.896,0.496-0.884,1.011l0.267,12.637  c-0.576,0.095-1.123,0.209-1.621,0.354L34.201,28.566c-0.364-0.367-0.947-0.395-1.343-0.067c-0.397,0.329-0.477,0.907-0.185,1.332  l7.841,11.381c-0.822,0.848-1.386,1.819-1.758,2.845l-11.004-2.619c-0.5-0.12-1.017,0.167-1.177,0.661  c-0.031,0.096-0.035,0.193-0.037,0.289l-1.64-2.733l-2.061-6.3l-1.522-5.268c-0.067-0.231-0.216-0.431-0.419-0.561l-1.895-1.217  c2.316-1.048,3.895-2.854,4.062-4.937c0.001-0.005,0.005-0.01,0.006-0.016c0.067-0.297,0.181-0.725,0.309-1.205  c0.439-1.65,0.75-2.874,0.75-3.588c0-1.451-0.709-2.768-1.902-3.818c0.395-0.423,0.93-0.824,1.465-1.214  c1.312-0.956,3.293-2.399,1.836-4.542c-0.177-0.26-0.467-0.421-0.782-0.435c-0.323-0.02-0.617,0.123-0.815,0.368  c-0.605,0.747-1.066,0.848-1.439,0.848c-0.266,0-0.555-0.056-0.86-0.115c-0.34-0.065-0.692-0.134-1.071-0.138  c-0.043-0.104-0.103-0.2-0.18-0.286c-0.162-0.179-0.379-0.29-0.611-0.32c-0.01-0.052-0.021-0.104-0.033-0.16  c-0.088-0.404-0.416-0.711-0.824-0.773c-0.29-0.044-0.556-0.057-0.791-0.038c-0.009-0.018-0.018-0.035-0.027-0.053  c-0.108-0.214-0.229-0.451-0.325-0.72c-0.114-0.322-0.385-0.563-0.719-0.639c-0.33-0.075-0.681,0.025-0.924,0.267  c-0.549,0.549-1.418,0.656-2.424,0.781c-2.627,0.326-4.949,1.057-4.684,6.042c-2.042,1.018-3.603,2.639-3.603,4.943  c0,0.718,0.106,1.612,0.208,2.477c0.054,0.456,0.105,0.896,0.138,1.29c-0.034,0.225-0.054,0.452-0.054,0.683  c0,2.323,1.777,4.34,4.39,5.421v0.321h-0.99c-0.55,0-0.996,0.446-0.996,0.996v3.763c0,0.019,0.01,0.035,0.011,0.054  c0,0.019-0.011,0.035-0.011,0.055v3.763c0,0.549,0.446,0.995,0.996,0.995h0.99v3.025c0,1.659,1.35,3.008,3.009,3.008h0.261  c0.874,0,1.65-0.377,2.202-0.995l0.989,9.177c0.01,0.094,0.034,0.187,0.07,0.274c0.729,1.756,1.467,3.4,2.182,4.991  c1.58,3.52,3.071,6.854,4.185,10.755c-1.238,2.702-2.217,5.431-2.384,7.971c-0.104,2.416,0.748,3.468,1.369,4.236  c0.436,0.539,0.599,0.74,0.5,1.35c-0.167,1.036-0.259,2.32,0.506,3.055c0.708,0.677,1.636,0.486,2.314,0.35  c0.098-0.021,0.22-0.044,0.341-0.064c-1.633,3.557-3.006,7.619-3.427,10.524c-0.079,0.544,0.298,1.049,0.842,1.128  c0.048,0.008,0.096,0.011,0.144,0.011c0.486,0,0.913-0.357,0.984-0.854c0.645-4.445,3.796-12.09,6.36-15.431  c1.912-2.489,6.453-5.438,11.47-7.664c-7.521,4.908-14.621,13.443-16.325,20.766c-0.125,0.536,0.208,1.071,0.743,1.195  c0.076,0.018,0.152,0.026,0.227,0.026c0.453,0,0.861-0.311,0.969-0.77c1.35-5.799,6.534-12.587,12.435-17.33  c-2.756,3.129-5.027,7.066-6.795,11.813c-0.192,0.517,0.07,1.089,0.585,1.281c0.114,0.042,0.232,0.063,0.348,0.063  c0.403,0,0.784-0.248,0.933-0.648c3.589-9.637,9.337-15.729,17.117-18.197c-2.713,2.375-4.88,5.265-6.984,8.097  c-0.916,1.23-1.779,2.395-2.68,3.503c-0.016,0.018-0.021,0.042-0.034,0.062c-0.034,0.048-0.058,0.098-0.082,0.15  c-0.028,0.062-0.053,0.122-0.069,0.187c-0.013,0.054-0.018,0.106-0.022,0.162c-0.005,0.068-0.003,0.134,0.005,0.201  c0.007,0.054,0.019,0.105,0.035,0.157c0.021,0.069,0.052,0.133,0.089,0.197c0.017,0.03,0.021,0.063,0.041,0.093  c3.617,5.026,1.536,8.489-0.978,11.212c-0.373,0.403-0.348,1.034,0.057,1.407c0.191,0.176,0.434,0.264,0.675,0.264  c0.268,0,0.535-0.107,0.731-0.32c1.466-1.589,5.8-6.294,1.701-12.87c1.688-1.028,3.31-1.301,4.936-0.826  c4.89,1.419,8.49,9.029,10.202,13.438c0.005,0.015,0.017,0.026,0.022,0.041c0.016,0.034,0.038,0.065,0.057,0.099  c0.04,0.067,0.084,0.13,0.138,0.185c0.026,0.028,0.054,0.053,0.084,0.077c0.061,0.051,0.125,0.091,0.195,0.125  c0.032,0.016,0.062,0.034,0.096,0.045c0.107,0.04,0.22,0.065,0.336,0.065c0.001,0,0.002,0,0.003,0c0.021,0,0.042-0.001,0.063-0.003  c0.041-0.002,0.075-0.023,0.115-0.03c0.06-0.013,0.119-0.012,0.179-0.034c0.016-0.006,0.026-0.02,0.041-0.025  c0.064-0.029,0.117-0.071,0.174-0.112c0.05-0.036,0.101-0.066,0.143-0.109c0.044-0.048,0.073-0.103,0.108-0.157  c0.034-0.053,0.07-0.103,0.094-0.161c0.022-0.057,0.028-0.116,0.04-0.176c0.014-0.069,0.029-0.135,0.027-0.206  c0-0.016,0.007-0.029,0.006-0.046L60.606,76.06c1.41,5.08,2.754,10.446,3.769,14.496l0.264,1.057  c0.114,0.453,0.52,0.755,0.965,0.755c0.081,0,0.162-0.011,0.244-0.031c0.533-0.133,0.856-0.674,0.723-1.207l-0.265-1.058  c-1.548-6.185-3.861-15.42-6.027-22.099c4.765-0.646,8.639,0.698,11.995,3.134c-0.002,0.097-0.006,0.195-0.01,0.294  c-0.023,0.52-0.051,1.177,0.231,1.797c-0.34,0.191-0.637,0.43-0.865,0.66c-0.755,0.769-1.063,1.641-0.911,2.446  c-0.26,0.191-0.46,0.412-0.623,0.592c-0.066,0.073-0.135,0.148-0.207,0.222c-0.957,0.973-0.945,2.545,0.027,3.504l1.013,0.997  l-4.03,12.252c-0.1,0.303-0.048,0.636,0.139,0.895c0.188,0.259,0.487,0.412,0.807,0.412h3.513c0.433,0,0.817-0.281,0.949-0.695  l2.782-8.767l0.414,0.407l2.391,4.645v3.322c0,0.551,0.446,0.996,0.996,0.996h0.929c0.042-0.594,0.017-1.192,0.058-1.786  c0.001-0.014,0.006-0.024,0.008-0.037V93.26l0,0c-0.001-0.057,0.014-0.109,0.021-0.166h-0.02v-2.568c0-0.159-0.038-0.314-0.11-0.456  l-2.575-5.001c-0.048-0.093-0.111-0.179-0.187-0.252l-5.699-5.614c-0.19-0.188-0.193-0.497-0.005-0.688  c0.091-0.094,0.178-0.188,0.263-0.282c0.122-0.135,0.196-0.212,0.257-0.267l3.673,3.478c0.192,0.183,0.438,0.272,0.685,0.272  c0.263,0,0.526-0.104,0.722-0.312c0.379-0.398,0.361-1.028-0.038-1.406l-4.051-3.837c-0.135-0.136-0.323-0.344,0.23-0.906  c0.28-0.283,0.667-0.474,0.798-0.511l2.441,2.406c0.391,0.385,1.022,0.38,1.409-0.012c0.385-0.392,0.38-1.022-0.012-1.408  l-3.299-3.25c-0.132-0.129-0.154-0.354-0.143-0.772c0.294-0.148,0.59-0.28,0.79-0.28c0.052,0,0.128,0,0.261,0.132l5.699,5.612  c0.043,0.042,0.089,0.08,0.138,0.113c2.784,1.898,4.29,8.155,4.43,11.786c0.004,0.088,0.019,0.174,0.045,0.258l1.156,3.7  c0.055,0.123,0.083,0.253,0.093,0.386c0.018,0.054,0.019,0.11,0.028,0.165c0.146,0.499,0.243,1.001,0.34,1.505h0.914  c0.316,0,0.614-0.151,0.802-0.405c0.188-0.256,0.242-0.586,0.148-0.888l-1.144-3.658c1.398,1.764,2.854,3.406,4.396,4.789  c0.189,0.17,0.427,0.254,0.664,0.254c0.272,0,0.545-0.111,0.742-0.331C94.112,94.437,94.078,93.807,93.668,93.439z M78.688,64.4  l0.995,0.239l-2.041,6.436l-0.868-0.854L78.688,64.4z M62.567,65.438c-0.055,0.121-0.08,0.248-0.084,0.374  c-0.917,0.012-1.863,0.083-2.85,0.236c-0.069,0.011-0.126,0.045-0.188,0.069c-0.701-2.074-1.923-7.18-1.419-10.321  c0.618-0.342,1.131-0.792,1.418-1.423c0.24-0.529,0.269-1.123,0.133-1.763c0.576,0.958,0.599,1.479,0.611,1.925  c0.015,0.529,0.032,1.188,0.637,2.025l0.481,0.657C63.095,59.639,64.388,61.388,62.567,65.438z M47.404,40.41  c0.472-0.025,0.931-0.01,1.384,0.026l-0.697,1.944c-0.624-0.132-1.246-0.197-1.861-0.173L46.2,40.574  C46.578,40.506,46.978,40.45,47.404,40.41z M52.653,41.603l-1.356,1.985c-0.435-0.226-0.869-0.43-1.304-0.609l0.78-2.175  C51.418,40.999,52.044,41.264,52.653,41.603z M55.868,49.005c0.495,0.366,0.989,0.722,1.483,1.08  c-0.16-0.039-0.322-0.07-0.487-0.079c-0.408-0.021-0.991,0.044-1.63,0.401l-3.388-3.038c-0.085-0.076-0.184-0.137-0.288-0.18  c-3.364-1.376-6.118-1.636-8.573-0.808l-0.16-0.33C46.21,42.361,50.058,44.719,55.868,49.005z M42.268,55.944  c0-0.002-0.001-0.004-0.001-0.006l-0.002-0.008c0-0.003-0.002-0.005-0.003-0.009c-0.027-0.111-0.078-0.216-0.143-0.313  c-0.012-0.019-0.021-0.037-0.035-0.056c-0.008-0.011-0.013-0.023-0.022-0.033c-1.284-1.549-1.158-4.787,1.02-7.042  c2.074-0.894,4.486-0.743,7.565,0.489l3.852,3.456c0.379,0.338,0.951,0.338,1.33-0.001c0.333-0.3,0.635-0.442,0.926-0.428  c0.271,0.015,0.486,0.176,0.605,0.291c0.192,0.361,0.429,0.922,0.271,1.264c-0.317,0.699-2.175,1.083-3.285,1.313  c-0.016,0.003-0.026,0.015-0.041,0.018c-0.069,0.019-0.129,0.052-0.192,0.083c-0.053,0.026-0.108,0.047-0.156,0.082  c-0.052,0.038-0.09,0.09-0.133,0.137c-0.043,0.048-0.088,0.089-0.121,0.143c-0.03,0.051-0.045,0.108-0.066,0.163  c-0.026,0.066-0.054,0.131-0.064,0.203c-0.002,0.015-0.011,0.025-0.013,0.04l-0.368,3.404l-7.005,4.146  c-2.193-0.591-2.941-3.064-3.78-6.74L42.268,55.944z M47.023,65.096l7.561-4.472c0.273-0.162,0.425-0.436,0.465-0.728  c0.047-0.099,0.084-0.205,0.097-0.32l0.314-2.915c0.166-0.037,0.335-0.077,0.503-0.119c-0.127,2.77,0.5,6.865,1.342,9.498  c-3.08-0.532-7.012,0.108-10.995,1.396C46.389,66.563,46.604,65.7,47.023,65.096z M57.05,47.403c-0.344-0.254-0.69-0.51-1.04-0.765  l0.939-1.067c0.695,0.94,1.366,2.015,2.015,3.222C58.327,48.34,57.689,47.875,57.05,47.403z M54.378,45.478  c-0.448-0.309-0.898-0.608-1.351-0.893l1.267-1.854c0.467,0.382,0.923,0.81,1.368,1.289L54.378,45.478z M44.248,42.615  c-0.49,0.189-0.976,0.45-1.454,0.788l-0.207-1.379c0.461-0.348,0.997-0.654,1.632-0.903L44.248,42.615z M41.018,44.985  c-0.056,0.04-0.109,0.082-0.157,0.133c-0.188,0.205-0.363,0.411-0.532,0.616c0.128-0.575,0.307-1.126,0.556-1.64L41.018,44.985z   M38.924,56.134c0.451,0.565,0.998,0.935,1.587,1.049c0.709,3.107,1.539,6.516,4.34,7.762c-0.339,0.831-0.484,1.729-0.539,2.519  c-4.353-1.736-5.883-4.228-7.491-6.862c-0.625-1.022-1.271-2.07-2.083-3.086L38.924,56.134z M61.521,43.071l-2.371,2.143  c-0.153-0.227-0.307-0.454-0.467-0.676L61.521,43.071z M55.517,37.77l-0.885,2.693c-0.028-0.018-0.059-0.021-0.087-0.037  c-0.165-0.111-0.323-0.231-0.493-0.334L55.517,37.77z M48.35,38.43c-0.092-0.002-0.187,0-0.28-0.001l-0.032-1.521L48.35,38.43z   M42.463,39.751c-0.134,0.072-0.258,0.148-0.384,0.225l-1.39-2.019L42.463,39.751z M27.139,43.326l10.93,4.549  c-0.017,0.369-0.027,0.733-0.026,1.084c0.001,0.202,0.076,0.378,0.179,0.536c-0.297,0.918-0.436,1.802-0.454,2.622l-5.104,3.922  c-0.003,0-0.008,0-0.012,0l-2.45-7.497c-0.024-0.071-0.055-0.139-0.093-0.203l-3.033-5.055  C27.099,43.296,27.115,43.316,27.139,43.326z M10.104,28.747h1.26c0.056,0.073,0.142,0.254,0.142,0.524v0.723  c0,0.27-0.086,0.452-0.142,0.525h-1.26V28.747z M10.104,32.618h1.26c0.056,0.073,0.142,0.255,0.142,0.525v0.722  c0,0.27-0.086,0.452-0.142,0.525h-1.26V32.618z M17.137,24.393l-1.997-1.654c-0.129-0.107-0.284-0.18-0.449-0.212l-1.535-0.291  l-0.939-0.534c-0.03-0.018-0.064-0.021-0.095-0.035c0.559-0.445,1.345-0.685,2.114-0.721c1.277-0.069,2.766,0.413,3.005,1.598  C17.44,23.535,17.363,24.01,17.137,24.393z M13.947,7.556c0.799-0.099,1.67-0.207,2.467-0.574c0.063,0.124,0.117,0.238,0.126,0.264  c-0.034,0.473,0.271,0.905,0.728,1.031c0.212,0.059,0.429,0.044,0.622-0.03c0.024,0.22,0.122,0.426,0.276,0.585L18.08,9.037  c-0.199,0.472-0.007,1.019,0.444,1.262c0.453,0.245,1.015,0.106,1.3-0.32c0.315-0.469,0.527-0.469,0.699-0.469  c0.202,0,0.46,0.05,0.732,0.103c0.436,0.083,0.969,0.178,1.494,0.141c-0.073,0.054-0.149,0.11-0.229,0.169  c-0.67,0.488-1.403,1.023-1.963,1.691c-0.789-0.41-1.68-0.734-2.65-0.959c-0.032-0.007-0.064-0.016-0.096-0.023  c-0.444-0.099-0.902-0.176-1.375-0.231c-0.075-0.009-0.151-0.015-0.226-0.022c-0.469-0.046-0.946-0.078-1.437-0.078  c-0.292,0-0.593,0.015-0.9,0.037c-0.026,0.002-0.053,0.005-0.08,0.007c-0.916,0.071-1.879,0.24-2.817,0.513  C10.948,7.928,12.128,7.781,13.947,7.556z M10.5,13.142c0.288-0.117,0.59-0.224,0.901-0.319c0.077-0.023,0.154-0.043,0.231-0.065  c0.254-0.072,0.513-0.136,0.773-0.192c0.128-0.027,0.254-0.052,0.381-0.074c0.245-0.045,0.489-0.083,0.732-0.113  c0.089-0.011,0.179-0.022,0.266-0.031c0.335-0.033,0.667-0.054,0.986-0.054c0.256,0,0.51,0.009,0.763,0.025  c0.09,0.005,0.177,0.016,0.266,0.024c0.159,0.013,0.317,0.026,0.475,0.046c0.116,0.015,0.229,0.035,0.343,0.053  c0.125,0.02,0.25,0.038,0.372,0.061c0.129,0.025,0.253,0.054,0.379,0.083c0.104,0.023,0.208,0.045,0.309,0.072  c0.131,0.034,0.258,0.072,0.385,0.11c0.092,0.027,0.185,0.054,0.274,0.084c0.124,0.041,0.246,0.085,0.366,0.13  c0.09,0.034,0.181,0.068,0.269,0.105c0.109,0.045,0.216,0.092,0.322,0.141c0.1,0.046,0.197,0.094,0.293,0.143  c0.085,0.044,0.17,0.088,0.252,0.134c0.121,0.068,0.238,0.139,0.351,0.212c1.198,0.763,1.945,1.766,1.945,2.851  c0,0.238-0.093,0.715-0.219,1.254c-1.185-1.466-3.179-2.524-5.568-2.906c-0.148-0.024-0.297-0.044-0.447-0.064  c-0.154-0.019-0.308-0.038-0.465-0.051c-0.339-0.029-0.683-0.048-1.034-0.048c-0.323,0-0.641,0.015-0.955,0.04  c-0.174,0.013-0.343,0.036-0.513,0.057c-0.121,0.015-0.242,0.027-0.361,0.045c-0.244,0.037-0.483,0.083-0.72,0.134  c-0.018,0.004-0.036,0.008-0.054,0.012c-1.761,0.388-3.284,1.152-4.363,2.192c-0.019-0.241-0.028-0.465-0.028-0.665  C7.408,14.935,8.809,13.823,10.5,13.142z M7.701,21.014c0-0.278,0.047-0.55,0.131-0.815c0.003-0.012,0.005-0.024,0.009-0.037  c0.228-0.685,0.722-1.314,1.407-1.843c0.007-0.006,0.015-0.012,0.023-0.018c0.125-0.096,0.258-0.188,0.396-0.278  c0.022-0.014,0.044-0.026,0.065-0.04c0.126-0.079,0.257-0.155,0.393-0.228c0.035-0.019,0.071-0.038,0.107-0.056  c0.124-0.063,0.25-0.125,0.38-0.183c0.05-0.022,0.101-0.044,0.152-0.066c0.12-0.051,0.243-0.098,0.367-0.144  c0.064-0.023,0.127-0.046,0.192-0.068c0.117-0.04,0.237-0.077,0.357-0.112c0.074-0.022,0.147-0.044,0.223-0.064  c0.116-0.031,0.235-0.058,0.354-0.084c0.082-0.019,0.163-0.038,0.246-0.054c0.121-0.023,0.243-0.042,0.366-0.062  c0.084-0.013,0.167-0.028,0.252-0.039c0.135-0.017,0.272-0.029,0.411-0.042c0.074-0.006,0.147-0.016,0.222-0.021  c0.214-0.014,0.43-0.021,0.648-0.021c0.227,0,0.452,0.008,0.674,0.022c3.33,0.224,6.027,2.079,6.027,4.25  c0,1.091-0.687,2.099-1.788,2.862c0.039-0.479,0.016-1.039-0.124-1.726c-0.402-2.002-2.471-3.323-5.05-3.193  c-2.182,0.104-4.499,1.323-4.76,3.813c-0.033,0.316-0.049,0.655-0.029,1.01C8.332,23.029,7.701,22.059,7.701,21.014z M13.369,40.424  h-0.261c-0.561,0-1.017-0.457-1.017-1.018V36.25c0.823-0.323,1.408-1.249,1.408-2.384v-0.722c0-0.605-0.172-1.146-0.45-1.575  c0.278-0.429,0.45-0.97,0.45-1.575v-0.723c0-1.135-0.584-2.061-1.408-2.384v-0.569l0.737,0.28l1.383,1.636l0.122,1.553  c0.006,0.088,0.026,0.175,0.055,0.259l0.747,2.081l-0.188,2.332c-0.005,0.057-0.005,0.113,0.001,0.169l0.092,1.029l-0.652,3.802  C14.306,39.939,13.958,40.424,13.369,40.424z M18.523,50.24l-1.036-9.615l-0.549-6.091l0.198-2.462  c0.011-0.141-0.007-0.283-0.055-0.417l-0.775-2.157l-0.136-1.74c-0.017-0.208-0.097-0.406-0.232-0.565l-1.756-2.078  c-0.109-0.129-0.249-0.228-0.407-0.289l-1.465-0.556l-0.223-0.255l-0.006-0.101l0.234,0.133c0.095,0.054,0.198,0.092,0.306,0.113  l1.446,0.274l1.789,1.483l1.382,1.579c0.061,0.07,0.133,0.131,0.211,0.182l2.055,1.319l1.428,4.942l2.106,6.439  c0.024,0.071,0.055,0.138,0.093,0.203l5.21,8.684l2.296,7.024c-2.539,0.794-4.962,3.48-6.538,7.194  c-1.015-2.959-2.218-5.64-3.475-8.438C19.938,53.509,19.225,51.921,18.523,50.24z M24.904,81.626  c-0.149,0.031-0.373,0.077-0.526,0.092c-0.026-0.169-0.042-0.529,0.07-1.228c0.071-0.442,0.058-0.817-0.001-1.151  c0.029-1.503,0.217-2.864,0.521-4.121c0.162,1.149,0.411,2.309,0.67,3.49c0.2,0.909,0.403,1.851,0.576,2.819  C25.711,81.47,25.212,81.564,24.904,81.626z M28.967,77.68c-0.376,0.489-0.761,1.063-1.148,1.692  c-0.078-0.365-0.156-0.733-0.235-1.091c-0.704-3.207-1.311-5.98-0.163-8.702c1.308-2.034,2.919-3.84,4.571-5.688l0.95-1.066  c0.364-0.412,0.325-1.042-0.087-1.405c-0.412-0.362-1.042-0.326-1.406,0.088l-0.941,1.057c-3.345,3.742-6.778,7.599-7.768,13.633  c-0.11-0.386-0.167-0.863-0.14-1.499c0.206-3.125,1.961-6.917,3.651-10.213l0.215-0.421c1.518-2.974,3.086-6.045,6.074-6.045  c0.004,0,0.007,0,0.011,0c1.045,1.123,1.787,2.338,2.57,3.619c1.582,2.593,3.22,5.262,7.388,7.214  C36.554,71.342,31.095,74.909,28.967,77.68z M50.23,79.188c-1.199-0.349-2.406-0.397-3.608-0.148c0.082-0.11,0.163-0.22,0.244-0.33  c2.857-3.845,5.813-7.82,10.07-10.21c0.048-0.027,0.079-0.071,0.122-0.104c0.12-0.015,0.236-0.039,0.356-0.052  c0.153-0.017,0.288-0.072,0.41-0.146c0.113,0.031,0.226,0.064,0.335,0.102c-0.025,0.1-0.049,0.199-0.041,0.306l1.329,20.15  C57.299,84.639,54.189,80.338,50.23,79.188z M70.627,93.185H69.22l3.291-10.007l0.984,0.968L70.627,93.185z M79.233,72.644  l1.964-6.189l1.687,2.896l-1.286,5.622L79.233,72.644z"></path></svg>