<svg height='100px' width='100px'  fill="#000000" xmlns="http://www.w3.org/2000/svg" viewBox="0 0 512 512" x="0px" y="0px"><defs><style>.cls-1,.cls-2{stroke:#000000;stroke-linecap:round;stroke-linejoin:round;stroke-width:20px;}.cls-2{fill:none;}</style></defs><title>fish-animal-lucky-cerebration-china-chinese-new year</title><circle class="cls-1" cx="137.29" cy="154.89" r="6.75"></circle><path class="cls-2" d="M11,131.31s22,.88,39-5.66c25.93-10,39-60.85,39-60.85"></path><path class="cls-2" d="M83.84,80.7s80.44,9.07,119.78,66.37c50.76,73.93,31.85,147.8,110.63,162.62,48.73,9.16,85.89-30.11,85.89-30.11s-70.26-19-68.91-98.68c0,0,52.54,37.11,91.6,28.46s75.44-49.52,75.44-49.52S519.82,246,441.79,283.59c13.37,81.52-117.13,220.24-277.21,151.61S29.37,130.42,29.37,130.42"></path><path class="cls-2" d="M39.67,269.41s49.41,23.3,91.07,10.17c32.43-10.22,56-33.6,56-33.6"></path><path class="cls-2" d="M106.54,85.43s36.67-23.26,80.16-21.82,69.09-24.43,69.09-24.43"></path><path class="cls-2" d="M106.54,283.59s12.18,76.89,28.28,91.55c11.61,10.58,50.86-4.44,46.35-26.2s-44-71.58-44-71.58"></path><path class="cls-2" d="M68.73,346.52s20,90,44.46,126.3"></path></svg>