<svg height='100px' width='100px'  fill="#000000" xmlns="http://www.w3.org/2000/svg" viewBox="0 0 64 64" x="0px" y="0px"><title>spaghetti-food-pasta-italian</title><g><path d="M61,50H55.79A13.06,13.06,0,0,0,43,39h-.23A15.68,15.68,0,0,0,32,35a16,16,0,0,0-10.6,4c-.13,0-.26,0-.4,0A13.06,13.06,0,0,0,8.17,50H3a1,1,0,0,0-1,1A11,11,0,0,0,13,62H51A11,11,0,0,0,62,51,1,1,0,0,0,61,50Zm-7.23,0h-2a9,9,0,0,0-5.86-6.51,13.17,13.17,0,0,0-1.29-2.36A11.08,11.08,0,0,1,53.77,50ZM25.58,50a5,5,0,0,0-9.16,0H14.3a7,7,0,0,1,13.4,0Zm-2.35,0H18.77a3,3,0,0,1,4.46,0ZM32,41a10,10,0,0,1,7,2.92A8.9,8.9,0,0,0,37.3,45,8,8,0,0,0,32,43a7.89,7.89,0,0,0-5.32,2A8.47,8.47,0,0,0,25,43.92,10,10,0,0,1,32,41Zm3.86,9a4,4,0,0,0-6.71-1.8,9.3,9.3,0,0,0-1.06-1.74A5.92,5.92,0,0,1,32,45a6,6,0,0,1,5.91,5Zm-2.14,0H30.28a2,2,0,0,1,3.44,0Zm13.82,0a5,5,0,0,0-8-1.63,7.83,7.83,0,0,0-.93-1.85,7,7,0,0,1,11,3.48Zm-2.35,0H40.73a3,3,0,0,1,4.46,0ZM32,37c5,0,9.27,2.32,11.41,6L43,43a9,9,0,0,0-1.87.2A12,12,0,0,0,32,39a11.88,11.88,0,0,0-5.4,1.3,13.17,13.17,0,0,0-2.41-.89A13.9,13.9,0,0,1,32,37ZM21,41a10.88,10.88,0,0,1,3.54.61,13.1,13.1,0,0,0-1.65,1.6A8.95,8.95,0,0,0,12.23,50H10.18A11.08,11.08,0,0,1,21,41ZM51,60H13a9,9,0,0,1-8.94-8H59.94A9,9,0,0,1,51,60Z"></path><path d="M8.82,14H6v2H8.31c-.08.17-.16.34-.25.5a8.09,8.09,0,0,0,0,8,6.06,6.06,0,0,1,0,6,8,8,0,0,0,0,8,8.73,8.73,0,0,1,.53,1.37c.07.23.15.46.24.71l1.88-.68c-.08-.23-.15-.44-.21-.64A11.79,11.79,0,0,0,9.8,37.5a6.06,6.06,0,0,1,0-6,8.09,8.09,0,0,0,0-8,6.06,6.06,0,0,1,0-6,8.09,8.09,0,0,0,0-8,6.06,6.06,0,0,1,0-6,1,1,0,0,0,0-1A1,1,0,0,0,8.93,2H6V4H7.4A8,8,0,0,0,7,6H6V8H7.15a8,8,0,0,0,.66,2H6v2H8.67A6.11,6.11,0,0,1,8.82,14Z"></path><path d="M56.54,4.13,27.4,5,25.88,3.46A5,5,0,0,0,22.34,2H13a1,1,0,0,0-1,.86,8.11,8.11,0,0,0,.19,7.64,6.06,6.06,0,0,1,0,6,8.09,8.09,0,0,0,0,8,6.06,6.06,0,0,1,0,6,8.09,8.09,0,0,0,0,8,5.6,5.6,0,0,1,.36.74l1.86-.75a9,9,0,0,0-.48-1,6.06,6.06,0,0,1,0-6,8.09,8.09,0,0,0,0-8,6.06,6.06,0,0,1,0-6A8.34,8.34,0,0,0,14.6,16h1.84a4.59,4.59,0,0,1-.24.5,8.09,8.09,0,0,0,0,8,6.06,6.06,0,0,1,0,6A8.06,8.06,0,0,0,15.93,38l1.8-.86a6.05,6.05,0,0,1,.21-5.61,8.09,8.09,0,0,0,0-8,6.06,6.06,0,0,1,0-6,8.25,8.25,0,0,0,.64-1.5h3.76a5,5,0,0,0,3.54-1.46L27.39,13l29,1.71a5.3,5.3,0,0,0,4-9.1A5.32,5.32,0,0,0,56.54,4.13ZM59,11.84a3.25,3.25,0,0,1-2.46.89L27.06,11a1.06,1.06,0,0,0-.77.29l-1.83,1.83a3,3,0,0,1-2.12.88H15a8.39,8.39,0,0,0-.14-2H20V10H14.18c-.08-.17-.15-.34-.24-.5a5.88,5.88,0,0,1-.6-1.5H20V6H13.17a5.84,5.84,0,0,1,.51-2h8.66a3,3,0,0,1,2.12.88l1.83,1.83A1,1,0,0,0,27,7L56.6,6.13a3.26,3.26,0,0,1,2.4.93,3.31,3.31,0,0,1,0,4.78Z"></path></g></svg>