<svg height='100px' width='100px'  fill="#000000" xmlns="http://www.w3.org/2000/svg" xmlns:xlink="http://www.w3.org/1999/xlink" version="1.1" x="0px" y="0px" viewBox="0 0 100 100" style="enable-background:new 0 0 100 100;" xml:space="preserve"><g><path d="M95,46.48v-3H59.98L38.06,21.56l-0.5,0.51v-0.39H7.68v21.8H5v3h2.68v21.04H5v3h2.68v21.24H92.3V70.52H95v-3h-2.7V46.48H95z    M10.68,24.68h26.26l18.8,18.8H40.17v-9.12c0-2.98-2.42-5.41-5.41-5.41c-2.98,0-5.41,2.43-5.41,5.41v9.12h-4.4v-9.12   c0-2.98-2.43-5.41-5.42-5.41c-2.98,0-5.41,2.43-5.41,5.41v9.12h-3.44V24.68z M37.17,34.36v9.12h-4.82v-9.12   c0-1.33,1.08-2.41,2.41-2.41S37.17,33.03,37.17,34.36z M21.95,34.36v9.12h-4.83v-9.12c0-1.33,1.08-2.41,2.41-2.41   C20.86,31.95,21.95,33.03,21.95,34.36z M21.95,88.76h-4.83v-9.68c0-1.33,1.08-2.41,2.41-2.41c1.33,0,2.42,1.08,2.42,2.41V88.76z    M37.17,88.76h-4.82v-9.68c0-1.33,1.08-2.41,2.41-2.41s2.41,1.08,2.41,2.41V88.76z M52.42,88.76H47.6v-9.68   c0-1.33,1.07-2.41,2.41-2.41c1.33,0,2.41,1.08,2.41,2.41V88.76z M67.65,88.76h-4.82v-9.68c0-1.33,1.08-2.41,2.41-2.41   s2.41,1.08,2.41,2.41V88.76z M82.88,88.76h-4.83v-9.68c0-1.33,1.09-2.41,2.42-2.41c1.33,0,2.41,1.08,2.41,2.41V88.76z M89.3,88.76   h-3.42v-9.68c0-2.98-2.43-5.41-5.41-5.41c-2.99,0-5.42,2.43-5.42,5.41v9.68h-4.4v-9.68c0-2.98-2.43-5.41-5.41-5.41   c-2.99,0-5.41,2.43-5.41,5.41v9.68h-4.41v-9.68c0-2.98-2.42-5.41-5.43-5.41c-2.97,0-5.39,2.43-5.39,5.41v9.68h-4.43v-9.68   c0-2.98-2.42-5.41-5.41-5.41c-2.98,0-5.41,2.43-5.41,5.41v9.68h-4.4v-9.68c0-2.98-2.43-5.41-5.42-5.41c-2.98,0-5.41,2.43-5.41,5.41   v9.68h-3.44V70.52H89.3V88.76z M17.12,67.52v-10.8c0-1.33,1.08-2.41,2.41-2.41c1.33,0,2.42,1.08,2.42,2.41v10.8H17.12z    M32.35,67.52v-10.8c0-1.33,1.08-2.41,2.41-2.41s2.41,1.08,2.41,2.41v10.8H32.35z M47.6,67.52v-10.8c0-1.33,1.07-2.41,2.41-2.41   c1.33,0,2.41,1.08,2.41,2.41v10.8H47.6z M62.83,67.52v-10.8c0-1.33,1.08-2.41,2.41-2.41s2.41,1.08,2.41,2.41v10.8H62.83z    M78.05,67.52v-10.8c0-1.33,1.09-2.41,2.42-2.41c1.33,0,2.41,1.08,2.41,2.41v10.8H78.05z M89.3,67.52h-3.42v-10.8   c0-2.98-2.43-5.41-5.41-5.41c-2.99,0-5.42,2.43-5.42,5.41v10.8h-4.4v-10.8c0-2.98-2.43-5.41-5.41-5.41c-2.99,0-5.41,2.43-5.41,5.41   v10.8h-4.41v-10.8c0-2.98-2.42-5.41-5.43-5.41c-2.97,0-5.39,2.43-5.39,5.41v10.8h-4.43v-10.8c0-2.98-2.42-5.41-5.41-5.41   c-2.98,0-5.41,2.43-5.41,5.41v10.8h-4.4v-10.8c0-2.98-2.43-5.41-5.42-5.41c-2.98,0-5.41,2.43-5.41,5.41v10.8h-3.44V46.48H89.3   V67.52z"></path><path d="M68.43,8.24c-6.07,0-11,4.93-11,11s4.93,11,11,11s11-4.93,11-11S74.5,8.24,68.43,8.24z M68.43,27.24c-4.41,0-8-3.59-8-8   c0-4.41,3.59-8,8-8c4.41,0,8,3.59,8,8C76.43,23.65,72.84,27.24,68.43,27.24z"></path></g></svg>