<svg height='100px' width='100px'  fill="#000000" xmlns="http://www.w3.org/2000/svg" xmlns:xlink="http://www.w3.org/1999/xlink" version="1.1" x="0px" y="0px" viewBox="0 0 512 512" enable-background="new 0 0 512 512" xml:space="preserve"><g><path d="M119.177,223.253H94.451c-3.866,0-7,3.134-7,7c0,3.866,3.134,7,7,7h24.726c3.866,0,7-3.134,7-7   C126.177,226.387,123.043,223.253,119.177,223.253z"></path><path d="M119.177,254.9H94.451c-3.866,0-7,3.134-7,7c0,3.865,3.134,7,7,7h24.726c3.866,0,7-3.135,7-7   C126.177,258.034,123.043,254.9,119.177,254.9z"></path><path d="M119.177,286.549H94.451c-3.866,0-7,3.135-7,7c0,3.866,3.134,7,7,7h24.726c3.866,0,7-3.134,7-7   C126.177,289.684,123.043,286.549,119.177,286.549z"></path><path d="M119.177,318.157H94.451c-3.866,0-7,3.134-7,7s3.134,7,7,7h24.726c3.866,0,7-3.134,7-7S123.043,318.157,119.177,318.157z"></path><path d="M119.177,349.805H94.451c-3.866,0-7,3.135-7,7c0,3.866,3.134,7,7,7h24.726c3.866,0,7-3.134,7-7   C126.177,352.939,123.043,349.805,119.177,349.805z"></path><path d="M119.177,381.415H94.451c-3.866,0-7,3.134-7,7s3.134,7,7,7h24.726c3.866,0,7-3.134,7-7S123.043,381.415,119.177,381.415z"></path><path d="M119.177,413.063H94.451c-3.866,0-7,3.136-7,7c0,3.866,3.134,7.002,7,7.002h24.726c3.866,0,7-3.136,7-7.002   C126.177,416.197,123.043,413.063,119.177,413.063z"></path><path d="M119.177,444.709H94.451c-3.866,0-7,3.134-7,7s3.134,7,7,7h24.726c3.866,0,7-3.134,7-7S123.043,444.709,119.177,444.709z"></path><path d="M369.575,223.253h-24.729c-3.864,0-7,3.134-7,7c0,3.866,3.136,7,7,7h24.729c3.866,0,7-3.134,7-7   C376.575,226.387,373.441,223.253,369.575,223.253z"></path><path d="M369.575,254.9h-24.729c-3.864,0-7,3.134-7,7c0,3.865,3.136,7,7,7h24.729c3.866,0,7-3.135,7-7   C376.575,258.034,373.441,254.9,369.575,254.9z"></path><path d="M369.575,286.549h-24.729c-3.864,0-7,3.135-7,7c0,3.866,3.136,7,7,7h24.729c3.866,0,7-3.134,7-7   C376.575,289.684,373.441,286.549,369.575,286.549z"></path><path d="M369.575,318.157h-24.729c-3.864,0-7,3.134-7,7s3.136,7,7,7h24.729c3.866,0,7-3.134,7-7S373.441,318.157,369.575,318.157z"></path><path d="M369.575,349.805h-24.729c-3.864,0-7,3.135-7,7c0,3.866,3.136,7,7,7h24.729c3.866,0,7-3.134,7-7   C376.575,352.939,373.441,349.805,369.575,349.805z"></path><path d="M369.575,381.415h-24.729c-3.864,0-7,3.134-7,7s3.136,7,7,7h24.729c3.866,0,7-3.134,7-7S373.441,381.415,369.575,381.415z"></path><path d="M369.575,413.063h-24.729c-3.864,0-7,3.136-7,7c0,3.866,3.136,7.002,7,7.002h24.729c3.866,0,7-3.136,7-7.002   C376.575,416.197,373.441,413.063,369.575,413.063z"></path><path d="M369.575,444.709h-24.729c-3.864,0-7,3.134-7,7s3.136,7,7,7h24.729c3.866,0,7-3.134,7-7S373.441,444.709,369.575,444.709z"></path><path d="M485.995,464.947h-30.759L437.445,209.53c-0.256-3.668-3.309-6.514-6.983-6.514h-2.411l-10.031-52.411   c-0.53-2.781-2.674-4.895-5.344-5.495l-5.991-35.141c-0.547-3.207-3.223-5.587-6.428-5.803l-2.813-27.328   c-0.367-3.57-3.374-6.284-6.963-6.284h-2.284V40.333c0-3.866-3.136-7-7-7c-3.866,0-7,3.134-7,7v30.222h-2.301   c-3.591,0-6.598,2.714-6.965,6.283l-2.813,27.329c-3.205,0.216-5.881,2.596-6.428,5.802L349.7,145.11   c-2.671,0.6-4.813,2.714-5.347,5.498l-10.014,52.409h-2.408c-3.677,0-6.728,2.845-6.981,6.513l-3.268,46.83h-131.39l-3.266-46.83   c-0.256-3.668-3.306-6.513-6.983-6.513h-2.391l-10.013-52.409c-0.533-2.79-2.685-4.909-5.365-5.503l-5.99-35.135   c-0.545-3.201-3.213-5.579-6.41-5.802l-2.811-27.329c-0.367-3.57-3.375-6.284-6.963-6.284H137.8V40.333c0-3.866-3.134-7-7-7   c-3.866,0-7,3.134-7,7v30.222h-2.302c-3.588,0-6.596,2.714-6.963,6.284l-2.812,27.329c-3.197,0.223-5.865,2.601-6.41,5.802   l-5.989,35.135c-2.68,0.594-4.832,2.713-5.365,5.503l-10.014,52.409h-2.408c-3.677,0-6.728,2.845-6.983,6.514L56.761,464.947   H26.003c-3.866,0-7,3.134-7,7s3.134,7,7,7H62.57c0.237,0.022,0.476,0.037,0.717,0.037h135.026c0.007-0.001,0.014-0.001,0.02,0   c0.244,0,0.485-0.015,0.722-0.037h113.894c0.235,0.022,0.477,0.037,0.717,0.037H448.71c0.007,0.001,0.015,0.001,0.021,0   c0.242,0,0.482-0.015,0.722-0.037h36.544c3.866,0,7-3.134,7-7S489.861,464.947,485.995,464.947z M378.213,84.555h5.952   l2.004,19.479h-9.96L378.213,84.555z M368.501,118.146h25.376l4.501,26.401H364L368.501,118.146z M357.021,158.921h48.337   l8.438,44.095h-65.199L357.021,158.921z M127.815,84.555h5.97l2.004,19.479h-9.979L127.815,84.555z M118.121,118.146h25.358   l4.501,26.401h-34.359L118.121,118.146z M106.623,158.921h48.354l8.424,44.095H98.198L106.623,158.921z M70.794,464.947   l17.272-247.931h1.667h82.131h0.02h1.631l17.289,247.931H70.794z M197.781,363.741l-4.406-63.192h48.939L197.781,363.741z    M307.14,464.947H204.839l-5.515-79.092l56.487-80.155l56.812,80.614L307.14,464.947z M314.165,364.201l-44.856-63.652h49.295   L314.165,364.201z M319.572,286.549H255.67c-0.002,0-0.004,0-0.006,0h-63.25l-1.124-16.189h129.412L319.572,286.549z    M321.174,464.947l11.915-170.861c0.003-0.027,0.008-0.057,0.01-0.084l0.05-0.742l5.315-76.244h1.669h82.13h0.021h1.648   l17.271,247.931H321.174z"></path></g></svg>