<svg height='100px' width='100px'  fill="#000000" xmlns:dc="http://purl.org/dc/elements/1.1/" xmlns:cc="http://creativecommons.org/ns#" xmlns:rdf="http://www.w3.org/1999/02/22-rdf-syntax-ns#" xmlns:svg="http://www.w3.org/2000/svg" xmlns="http://www.w3.org/2000/svg" xmlns:sodipodi="http://sodipodi.sourceforge.net/DTD/sodipodi-0.dtd" xmlns:inkscape="http://www.inkscape.org/namespaces/inkscape" viewBox="0 0 72 80.000002" version="1.1" x="0px" y="0px"><g transform="translate(0,-972.3622)"><path style="" d="m 17.39385,981.58411 1.083421,3.33248 3.507121,0 -2.836981,2.06419 1.08081,3.33761 -2.834371,-2.06418 -2.839501,2.06418 1.08342,-3.33761 -2.836981,-2.06419 3.507032,0 1.08603,-3.33248" fill="#000000" fill-opacity="1" fill-rule="nonzero" stroke="none"></path><path style="" d="m 26.533804,979.84086 -0.07191,1.15275 1.070641,0.42619 -1.116811,0.28499 -0.07704,1.15275 -0.61623,-0.97561 -1.116811,0.28499 0.736831,-0.88833 -0.616141,-0.97561 1.070641,0.42876 0.73683,-0.89088" fill="#000000" fill-opacity="1" fill-rule="nonzero" stroke="none"></path><path style="" d="m 30.474726,983.57898 -0.52632,1.02696 0.81387,0.819 -1.137331,-0.18485 -0.52893,1.02952 -0.17721,-1.14249 -1.13994,-0.18239 1.02699,-0.52118 -0.1746,-1.13992 0.81126,0.81643 1.032121,-0.52119" fill="#000000" fill-opacity="1" fill-rule="nonzero" stroke="none"></path><path style="" d="m 29.291135,988.25678 0.35181,1.09884 1.157851,0.002 -0.93708,0.67522 0.35685,1.09885 -0.931951,-0.67779 -0.93708,0.67779 0.35937,-1.09885 -0.93195,-0.67779 1.15281,0.002 0.35937,-1.10141" fill="#000000" fill-opacity="1" fill-rule="nonzero" stroke="none"></path><path style="" d="m 26.528674,991.77924 -0.07704,1.15276 1.073161,0.42875 -1.119421,0.28242 -0.07434,1.15276 -0.61614,-0.97561 -1.119421,0.28498 0.736831,-0.88575 -0.616141,-0.97818 1.073161,0.42876 0.73944,-0.89089" fill="#000000" fill-opacity="1" fill-rule="nonzero" stroke="none"></path><path style="color:#000000;font-style:normal;font-variant:normal;font-weight:normal;font-stretch:normal;font-size:medium;line-height:normal;font-family:sans-serif;text-indent:0;text-align:start;text-decoration:none;text-decoration-line:none;text-decoration-style:solid;text-decoration-color:#000000;letter-spacing:normal;word-spacing:normal;text-transform:none;direction:ltr;block-progression:tb;writing-mode:lr-tb;baseline-shift:baseline;text-anchor:start;white-space:normal;clip-rule:nonzero;display:inline;overflow:visible;visibility:visible;opacity:1;isolation:auto;mix-blend-mode:normal;color-interpolation:sRGB;color-interpolation-filters:linearRGB;solid-color:#000000;solid-opacity:1;fill:#000000;fill-opacity:1;fill-rule:nonzero;stroke:none;stroke-width:1.44000053;stroke-linecap:butt;stroke-linejoin:miter;stroke-miterlimit:4;stroke-dasharray:none;stroke-dashoffset:0;stroke-opacity:1;color-rendering:auto;image-rendering:auto;shape-rendering:auto;text-rendering:auto;enable-background:accumulate" d="m 7.1992188,1019.7422 0,-0.7207 0,-42.47853 64.8007812,0 0,43.19923 -64.8007812,0 z m 1.4414062,-1.4395 61.919922,0 0,-40.32028 -61.919922,0 0,40.32028 z"></path><path style="color:#000000;font-style:normal;font-variant:normal;font-weight:normal;font-stretch:normal;font-size:medium;line-height:normal;font-family:sans-serif;text-indent:0;text-align:start;text-decoration:none;text-decoration-line:none;text-decoration-style:solid;text-decoration-color:#000000;letter-spacing:normal;word-spacing:normal;text-transform:none;direction:ltr;block-progression:tb;writing-mode:lr-tb;baseline-shift:baseline;text-anchor:start;white-space:normal;clip-rule:nonzero;display:inline;overflow:visible;visibility:visible;opacity:1;isolation:auto;mix-blend-mode:normal;color-interpolation:sRGB;color-interpolation-filters:linearRGB;solid-color:#000000;solid-opacity:1;fill:#000000;fill-opacity:1;fill-rule:nonzero;stroke:none;stroke-width:1.44000065;stroke-linecap:butt;stroke-linejoin:round;stroke-miterlimit:4;stroke-dasharray:none;stroke-dashoffset:0;stroke-opacity:1;color-rendering:auto;image-rendering:auto;shape-rendering:auto;text-rendering:auto;enable-background:accumulate" d="M 0.72070312,972.58203 A 0.72007233,0.72007233 0 0 0 0,973.30273 l 0,78.11917 a 0.72007233,0.72007233 0 0 0 0.72070312,0.7207 l 7.19921878,0 a 0.72007233,0.72007233 0 0 0 0.7207031,-0.7207 l 0,-32.4004 -1.4414062,0 0,31.6816 -5.7597657,0 0,-76.68162 5.7597657,0 0,3.41993 1.4414062,0 0,-4.13868 a 0.72007233,0.72007233 0 0 0 -0.7207031,-0.7207 l -7.19921878,0 z"></path></g></svg>