<svg height='100px' width='100px'  fill="#000000" xmlns="http://www.w3.org/2000/svg" data-name="Layer 1" viewBox="0 0 48 48" x="0px" y="0px"><title>Chinese decoration_expand</title><path d="M37.828,24l2.4-2.4a5.387,5.387,0,0,0-7.619-7.618l-2.4,2.4-4.792-4.793L27.813,9.2a5.387,5.387,0,1,0-7.618,0l2.4,2.395-4.8,4.794-2.4-2.4a5.387,5.387,0,0,0-7.618,7.618l2.4,2.4-2.4,2.4A5.387,5.387,0,1,0,15.4,34.02l2.4-2.4,4.791,4.79L20.2,38.8a5.388,5.388,0,1,0,7.618,0l-2.391-2.392,4.789-4.789,2.4,2.4A5.387,5.387,0,1,0,40.227,26.4Zm-7.617,4.8L25.416,24l4.795-4.8,4.8,4.8ZM17.8,28.8,13,24l4.8-4.8,4.8,4.8ZM34.022,15.4a3.468,3.468,0,0,1,4.79,0,3.385,3.385,0,0,1,0,4.79l-2.394,2.395L31.627,17.8ZM21.609,2.992a3.387,3.387,0,1,1,4.79,4.79l-2.394,2.395-2.4-2.395A3.392,3.392,0,0,1,21.609,2.992Zm2.4,10.013L28.8,17.8l-4.79,4.79L19.214,17.8ZM9.193,15.4a3.387,3.387,0,0,1,4.79,0l2.4,2.395-4.79,4.79-2.4-2.395A3.392,3.392,0,0,1,9.193,15.4Zm4.79,17.205a3.469,3.469,0,0,1-4.79,0,3.392,3.392,0,0,1,0-4.79l2.4-2.395,4.79,4.79ZM27.392,42.613a3.365,3.365,0,0,1-.993,2.4,3.468,3.468,0,0,1-4.79,0,3.392,3.392,0,0,1,0-4.79l2.4-2.4,2.394,2.4A3.365,3.365,0,0,1,27.392,42.613ZM24.005,35l-4.791-4.79,4.791-4.79,4.79,4.79Zm14.807-2.395a3.469,3.469,0,0,1-4.79,0l-2.395-2.4,4.791-4.79,2.394,2.395a3.385,3.385,0,0,1,0,4.79Z"></path></svg>