<svg height='100px' width='100px'  fill="#000000" xmlns="http://www.w3.org/2000/svg" viewBox="0 0 32 32" x="0px" y="0px"><title>map w- pin</title><path d="M25,13.25a.5.5,0,0,0,1,0V4a.48.48,0,0,0-.22-.41.47.47,0,0,0-.47,0L18,6.46,10.69,3.54h-.07l-.12,0-.11,0h-.08l-7.5,3A.49.49,0,0,0,2.5,7V25.29a.51.51,0,0,0,.22.42.54.54,0,0,0,.28.08.63.63,0,0,0,.19,0l7.31-2.93,7.31,2.92h0a.63.63,0,0,0,.19,0,.44.44,0,0,0,.25-.08h0l0,0,.1-.12,0,0a.54.54,0,0,0,.05-.22V7.34L25,4.74ZM3.5,7.34,10,4.74V22l-6.5,2.6ZM11,4.74l6.5,2.6V24.55L11,22ZM28,17.29a5.1,5.1,0,0,0-7.56,6.82L24,28.49a.5.5,0,0,0,.78,0l3.57-4.38A5.09,5.09,0,0,0,28,17.29Zm-.43,6.19-3.18,3.9-3.18-3.9a4.1,4.1,0,1,1,6.36,0Zm-4.89-4.35a2.42,2.42,0,1,0,3.42,0A2.43,2.43,0,0,0,22.69,19.13Zm2.71,2.72a1.42,1.42,0,0,1-2-2,1.44,1.44,0,0,1,1-.41,1.42,1.42,0,0,1,1,2.42Z"></path></svg>