<svg height='100px' width='100px'  fill="#000000" xmlns="http://www.w3.org/2000/svg" xmlns:xlink="http://www.w3.org/1999/xlink" version="1.1" x="0px" y="0px" viewBox="0 0 67 67" enable-background="new 0 0 67 67" xml:space="preserve"><g><g><path d="M64.5,61.78754h-2.38867V28.30219c0-2.36426-3.43945-3.20313-6.38477-3.20313c-2.35107,0-5.0127,0.53772-5.9917,1.95703    c-3.96159-1.502-2.59364-1.14518-4.02686-1.20215v-0.40649c0.15845-0.06592,0.30322-0.16064,0.41113-0.29956    c2.34277-3.02832,2.08398-7.11719-0.62988-9.94531c-3.29281-3.42499-9.77965-4.88965-10.98535-8.7168V4.18403    c0-0.55273-0.44727-1-1-1s-1,0.44727-1,1v2.3186c-1.30022,3.85781-7.67635,5.26376-10.99512,8.69897    c-2.7168,2.81836-2.97266,6.9082-0.62109,9.94629c0.10547,0.13599,0.24609,0.23083,0.40039,0.297v0.40906    c-0.42821,0.0117-0.82094-0.03892-1.09668,0.06738l-2.92627,1.13477c-0.979-1.41931-3.64063-1.95703-5.9917-1.95703    c-2.94531,0-6.38477,0.83887-6.38477,3.20313v33.48535H2.5c-0.55273,0-1,0.44727-1,1s0.44727,1,1,1    c3.03159,0.00227,55.59565,0.02832,58.61133,0.02832c0.0498,0,0.09253-0.02124,0.14038-0.02832H64.5c0.55273,0,1-0.44727,1-1    S65.05273,61.78754,64.5,61.78754z M51.34277,28.30219c0-0.42383,1.66406-1.20313,4.38379-1.20313    c2.7207,0,4.38477,0.7793,4.38477,1.20313v33.48535h-8.76855V28.36469V28.30219z M41.87988,61.78754h-2.32813v-6.12012    c0-3.779-3.57777-5.0288-5.27441-6.64063c-0.34863-0.2666-0.83105-0.27539-1.1875-0.01855    c-1.88317,1.68497-5.6416,2.79351-5.6416,6.75v6.0293h-2.32813V49.67719c0-5.3578,5.07672-6.65211,8.67676-9.7793    c3.27804,3.02734,8.08301,4.47781,8.08301,9.61133V61.78754z M37.55176,61.78754h-8.10352v-6.0293    c0-2.54242,2.42923-3.15934,4.20313-4.69336c1.6367,1.50598,3.90039,2.16721,3.90039,4.60254V61.78754z M43.87988,61.78754    V49.50922c0-6.51361-6.00013-8.40098-9.45703-11.64941c-0.34863-0.2666-0.83008-0.27539-1.1875-0.01855    c-3.56289,3.15253-10.11523,5.07341-10.11523,11.83594v12.11035h-1.56738V27.85395c5.54451,0,18.13652,0,23.89453,0v33.93359    H43.87988z M49.34277,61.78754h-1.89551V28.31391l1.89551,0.73535V61.78754z M22.94727,16.59028    c2.76933-2.86482,7.95844-4.07634,10.55371-7.72461c2.56059,3.6193,7.80309,4.86887,10.5459,7.72266    c1.92676,2.00781,2.21094,4.74609,0.76758,6.94727h-0.03809c-2.43237-2.11389-8.96558-2.3125-11.27832-2.3125    s-8.84595,0.19861-11.27832,2.3125h-0.02734C20.74121,21.32758,21.02051,18.5893,22.94727,16.59028z M23.45337,25.08344    c0.76538-0.77893,4.18262-1.86035,10.04468-1.86035c2.81543,0,5.53516,0.27832,7.46289,0.7627    c2.24219,0.56445,2.74707,1.22363,2.74707,1.41016v0.45801H23.28809C23.30511,25.20459,23.2259,25.42119,23.45337,25.08344z     M19.55273,61.78754h-1.89551V29.04926l1.89551-0.73535V61.78754z M6.88867,28.30219c0-0.42383,1.66406-1.20313,4.38477-1.20313    c2.71973,0,4.38379,0.7793,4.38379,1.20313v0.0625v33.42285H6.88867V28.30219z"></path></g><g><path d="M25.4834,30.33735c-0.55273,0-1,0.44727-1,1v3.44531c0,0.55273,0.44727,1,1,1s1-0.44727,1-1v-3.44531    C26.4834,30.78461,26.03613,30.33735,25.4834,30.33735z"></path></g><g><path d="M30.82813,30.33735c-0.55273,0-1,0.44727-1,1v3.44531c0,0.55273,0.44727,1,1,1s1-0.44727,1-1v-3.44531    C31.82813,30.78461,31.38086,30.33735,30.82813,30.33735z"></path></g><g><path d="M36.17188,30.33735c-0.55273,0-1,0.44727-1,1v3.44531c0,0.55273,0.44727,1,1,1s1-0.44727,1-1v-3.44531    C37.17188,30.78461,36.72461,30.33735,36.17188,30.33735z"></path></g><g><path d="M41.5166,30.33735c-0.55273,0-1,0.44727-1,1v3.44531c0,0.55273,0.44727,1,1,1s1-0.44727,1-1v-3.44531    C42.5166,30.78461,42.06934,30.33735,41.5166,30.33735z"></path></g></g></svg>