<svg height='100px' width='100px'  fill="#000000" xmlns:dc="http://purl.org/dc/elements/1.1/" xmlns:cc="http://creativecommons.org/ns#" xmlns:rdf="http://www.w3.org/1999/02/22-rdf-syntax-ns#" xmlns:svg="http://www.w3.org/2000/svg" xmlns="http://www.w3.org/2000/svg" xmlns:sodipodi="http://sodipodi.sourceforge.net/DTD/sodipodi-0.dtd" xmlns:inkscape="http://www.inkscape.org/namespaces/inkscape" viewBox="0 0 72 80.000002" version="1.1" x="0px" y="0px"><g transform="translate(0,-972.3622)"><path style="" d="m 14.05539,979.64389 -0.804058,2.5975 -2.552378,0 2.066067,1.57034 -0.76472,2.47028 2.025201,-1.51212 2.084718,1.58444 -0.782855,-2.55645 2.084461,-1.55649 -2.561064,0 -0.795372,-2.5975 z" fill="#000000" stroke="none"></path><path d="m 27.996165,979.64389 -0.804057,2.5975 -2.552379,0 2.066067,1.57034 -0.76472,2.47028 2.025202,-1.51212 2.084718,1.58444 -0.782855,-2.55645 2.08446,-1.55649 -2.561064,0 -0.795372,-2.5975 z" style="" fill="#000000" stroke="none"></path><path style="" d="m 27.994823,991.59144 -0.804058,2.5975 -2.552378,0 2.066067,1.57033 -0.76472,2.47029 2.025201,-1.51212 2.084718,1.58444 -0.782855,-2.55646 2.084461,-1.55648 -2.561064,0 -0.795372,-2.5975 z" fill="#000000" stroke="none"></path><path d="m 14.054047,991.59144 -0.804057,2.5975 -2.552379,0 2.066067,1.57033 -0.76472,2.47029 2.025201,-1.51212 2.084719,1.58444 -0.782855,-2.55646 2.08446,-1.55648 -2.561064,0 -0.795372,-2.5975 z" style="" fill="#000000" stroke="none"></path><path style="" d="m 21.025106,985.61766 -0.804057,2.5975 -2.552379,0 2.066067,1.57034 -0.76472,2.47029 2.025201,-1.51213 2.084719,1.58445 -0.782855,-2.55646 2.08446,-1.55649 -2.561064,0 -0.795372,-2.5975 z" fill="#000000" stroke="none"></path><path style="color:#000000;font-style:normal;font-variant:normal;font-weight:normal;font-stretch:normal;font-size:medium;line-height:normal;font-family:sans-serif;text-indent:0;text-align:start;text-decoration:none;text-decoration-line:none;text-decoration-style:solid;text-decoration-color:#000000;letter-spacing:normal;word-spacing:normal;text-transform:none;direction:ltr;block-progression:tb;writing-mode:lr-tb;baseline-shift:baseline;text-anchor:start;white-space:normal;clip-rule:nonzero;display:inline;overflow:visible;visibility:visible;opacity:1;isolation:auto;mix-blend-mode:normal;color-interpolation:sRGB;color-interpolation-filters:linearRGB;solid-color:#000000;solid-opacity:1;fill:#000000;fill-opacity:1;fill-rule:nonzero;stroke:none;stroke-width:1.43999994;stroke-linecap:butt;stroke-linejoin:miter;stroke-miterlimit:4;stroke-dasharray:none;stroke-dashoffset:0;stroke-opacity:1;color-rendering:auto;image-rendering:auto;shape-rendering:auto;text-rendering:auto;enable-background:accumulate" d="m 72,1019.7422 0,-0.7207 0,-42.47853 -64.8007812,0 0,43.19923 64.8007812,0 z m -1.439453,-1.4395 -61.919922,0 0,-40.32028 61.919922,0 0,40.32028 z"></path><path style="color:#000000;font-style:normal;font-variant:normal;font-weight:normal;font-stretch:normal;font-size:medium;line-height:normal;font-family:sans-serif;text-indent:0;text-align:start;text-decoration:none;text-decoration-line:none;text-decoration-style:solid;text-decoration-color:#000000;letter-spacing:normal;word-spacing:normal;text-transform:none;direction:ltr;block-progression:tb;writing-mode:lr-tb;baseline-shift:baseline;text-anchor:start;white-space:normal;clip-rule:nonzero;display:inline;overflow:visible;visibility:visible;opacity:1;isolation:auto;mix-blend-mode:normal;color-interpolation:sRGB;color-interpolation-filters:linearRGB;solid-color:#000000;solid-opacity:1;fill:#000000;fill-opacity:1;fill-rule:evenodd;stroke:none;stroke-width:1.44000006;stroke-linecap:butt;stroke-linejoin:miter;stroke-miterlimit:4;stroke-dasharray:none;stroke-dashoffset:0;stroke-opacity:1;color-rendering:auto;image-rendering:auto;shape-rendering:auto;text-rendering:auto;enable-background:accumulate" d="m 67.326172,976.57031 -59.8515626,39.14849 0.7890625,1.205 59.8496091,-39.14841 -0.787109,-1.20508 z"></path><path style="color:#000000;font-style:normal;font-variant:normal;font-weight:normal;font-stretch:normal;font-size:medium;line-height:normal;font-family:sans-serif;text-indent:0;text-align:start;text-decoration:none;text-decoration-line:none;text-decoration-style:solid;text-decoration-color:#000000;letter-spacing:normal;word-spacing:normal;text-transform:none;direction:ltr;block-progression:tb;writing-mode:lr-tb;baseline-shift:baseline;text-anchor:start;white-space:normal;clip-rule:nonzero;display:inline;overflow:visible;visibility:visible;opacity:1;isolation:auto;mix-blend-mode:normal;color-interpolation:sRGB;color-interpolation-filters:linearRGB;solid-color:#000000;solid-opacity:1;fill:#000000;fill-opacity:1;fill-rule:evenodd;stroke:none;stroke-width:1.44000006;stroke-linecap:butt;stroke-linejoin:miter;stroke-miterlimit:4;stroke-dasharray:none;stroke-dashoffset:0;stroke-opacity:1;color-rendering:auto;image-rendering:auto;shape-rendering:auto;text-rendering:auto;enable-background:accumulate" d="m 70.927734,979.26758 -60.300781,39.15042 0.785156,1.209 60.298829,-39.15044 -0.783204,-1.20898 z"></path><path style="color:#000000;font-style:normal;font-variant:normal;font-weight:normal;font-stretch:normal;font-size:medium;line-height:normal;font-family:sans-serif;text-indent:0;text-align:start;text-decoration:none;text-decoration-line:none;text-decoration-style:solid;text-decoration-color:#000000;letter-spacing:normal;word-spacing:normal;text-transform:none;direction:ltr;block-progression:tb;writing-mode:lr-tb;baseline-shift:baseline;text-anchor:start;white-space:normal;clip-rule:nonzero;display:inline;overflow:visible;visibility:visible;opacity:1;isolation:auto;mix-blend-mode:normal;color-interpolation:sRGB;color-interpolation-filters:linearRGB;solid-color:#000000;solid-opacity:1;fill:#000000;fill-opacity:1;fill-rule:nonzero;stroke:none;stroke-width:1.44000006;stroke-linecap:butt;stroke-linejoin:round;stroke-miterlimit:4;stroke-dasharray:none;stroke-dashoffset:0;stroke-opacity:1;color-rendering:auto;image-rendering:auto;shape-rendering:auto;text-rendering:auto;enable-background:accumulate" d="M 0.72070312,972.58203 A 0.72007203,0.72007203 0 0 0 0,973.30273 l 0,78.11917 a 0.72007203,0.72007203 0 0 0 0.72070312,0.7207 l 7.19921878,0 a 0.72007203,0.72007203 0 0 0 0.7207031,-0.7207 l 0,-32.4004 -1.4414062,0 0,31.6816 -5.7597657,0 0,-76.68162 5.7597657,0 0,3.41993 1.4414062,0 0,-4.13868 a 0.72007203,0.72007203 0 0 0 -0.7207031,-0.7207 l -7.19921878,0 z"></path></g></svg>