<svg height='100px' width='100px'  fill="#000000" xmlns="http://www.w3.org/2000/svg" data-name="Layer 1" viewBox="0 0 64 64" x="0px" y="0px"><title>Icon-79</title><path d="M41.52,27.71a1,1,0,0,0,.71.29,1,1,0,0,0,.71-.29l4.35-4.36,4.23,4.23a1,1,0,0,0,.71.3,1,1,0,0,0,.71-.3,1,1,0,0,0,0-1.41l-4.23-4.23,4.1-4.11a1,1,0,1,0-1.41-1.42l-4.11,4.11-4.23-4.23a1,1,0,0,0-1.41,0,1,1,0,0,0,0,1.42l4.23,4.23-4.36,4.35A1,1,0,0,0,41.52,27.71Z"></path><path d="M32,25.34a1,1,0,0,0,.73.32,1,1,0,0,0,.68-.26A9,9,0,0,1,39.48,23a1,1,0,0,0,0-2A11,11,0,0,0,32,23.93,1,1,0,0,0,32,25.34Z"></path><path d="M30.85,26.83a1,1,0,0,0-1.33.48,11,11,0,0,0-1,4.68v.26A9.45,9.45,0,0,1,28,34.89a1,1,0,0,0,.62,1.26,1,1,0,0,0,.33.06,1,1,0,0,0,.94-.68,11.1,11.1,0,0,0,.58-3.25V32a9,9,0,0,1,.85-3.83A1,1,0,0,0,30.85,26.83Z"></path><path d="M26.32,37.85a9,9,0,0,1-6,3.11,1,1,0,0,0,.1,2h.09a10.94,10.94,0,0,0,7.3-3.8,1,1,0,1,0-1.52-1.3Z"></path><path d="M16.67,41H9a1,1,0,0,0,0,2h7.63a1,1,0,0,0,0-2Z"></path><path d="M61.49,9l-22-6a1,1,0,0,0-.61,0L23.18,9,1.49,3a1,1,0,0,0-.87.17A1,1,0,0,0,.23,4V54A1,1,0,0,0,1,55l22,6a1,1,0,0,0,.61,0l15.7-5.89L61,61a.75.75,0,0,0,.26,0,1,1,0,0,0,1-1V10A1,1,0,0,0,61.49,9ZM60.23,58.69,39.49,53a1.06,1.06,0,0,0-.61,0L23.18,59,2.23,53.24V43h3a1,1,0,1,0,0-2h-3V5.31L23,11a.92.92,0,0,0,.61,0l15.7-5.88,20.95,5.71Z"></path></svg>