<svg height='100px' width='100px'  fill="#000000" xmlns="http://www.w3.org/2000/svg" viewBox="0 0 64 64" x="0px" y="0px"><title>hat-chinese-accessory-asian-oriental</title><g><path d="M51,28V25A18.036,18.036,0,0,0,35.784,7.237,3.938,3.938,0,0,0,36,6a4,4,0,0,0-8,0,3.928,3.928,0,0,0,.214,1.231A18.032,18.032,0,0,0,13,25v3a3,3,0,0,0-3,3V41a3,3,0,0,0,3,3h1.351a3.446,3.446,0,0,0,.707,4,3.482,3.482,0,0,0,2,5.955,3.468,3.468,0,0,0,5.124,3.6,3.448,3.448,0,0,0,5,2,3.448,3.448,0,0,0,5.007,2A.981.981,0,0,0,33,62h4a1,1,0,0,0,.927-.637l.9.3a6.566,6.566,0,0,0,2.08.337h1.55a6.575,6.575,0,0,0,3.385-.938l3.675-2.2a1,1,0,0,0-.2-1.8l-2.507-.836a1.208,1.208,0,0,1-.468-.289,6.58,6.58,0,0,0-8.3-.823l-.317.212A.991.991,0,0,0,37,55H33a.981.981,0,0,0-.814.452,3.37,3.37,0,0,0-3.365,0,3.448,3.448,0,0,0-5-2,3.485,3.485,0,0,0-2.876-2.4,3.338,3.338,0,0,0-1-3.045,3.446,3.446,0,0,0,.707-4H51a3,3,0,0,0,3-3V31A3,3,0,0,0,51,28Zm-2-3v3H40.962a35.6,35.6,0,0,0-5.98-18.851A16.014,16.014,0,0,1,49,25ZM32,10a3.928,3.928,0,0,0,1.051-.158A33.631,33.631,0,0,1,38.985,28H25.015A33.642,33.642,0,0,1,30.949,9.842,3.928,3.928,0,0,0,32,10Zm0-6a2,2,0,1,1-2,2A2,2,0,0,1,32,4ZM15,25A16.008,16.008,0,0,1,29.022,9.143,35.594,35.594,0,0,0,23.038,28H15ZM39.149,56.769a4.666,4.666,0,0,1,5.777.571,3.207,3.207,0,0,0,1.249.772l.446.15-1.81,1.086A4.586,4.586,0,0,1,42.455,60h-1.55a4.586,4.586,0,0,1-1.447-.234L38,59.279V57.535ZM34,57h2v3H34Zm-3.5,0A1.5,1.5,0,1,1,29,58.5,1.5,1.5,0,0,1,30.5,57Zm-5-2A1.5,1.5,0,1,1,24,56.5,1.5,1.5,0,0,1,25.5,55ZM22,54.5A1.5,1.5,0,1,1,20.5,53,1.5,1.5,0,0,1,22,54.5Zm-3-4A1.5,1.5,0,1,1,17.5,49,1.5,1.5,0,0,1,19,50.5Zm0-5A1.5,1.5,0,1,1,17.5,44,1.5,1.5,0,0,1,19,45.5ZM52,41a1,1,0,0,1-1,1H13a1,1,0,0,1-1-1V31a1,1,0,0,1,1-1H51a1,1,0,0,1,1,1Z"></path><path d="M32,31.5A4.5,4.5,0,1,0,36.5,36,4.505,4.505,0,0,0,32,31.5Zm0,7A2.5,2.5,0,1,1,34.5,36,2.5,2.5,0,0,1,32,38.5Z"></path><path d="M49.38,38.08a.991.991,0,0,0-.76,0,1.032,1.032,0,0,0-.33.21A1.05,1.05,0,0,0,48,39a.99.99,0,0,0,.29.71,1.155,1.155,0,0,0,.33.21.942.942,0,0,0,.76,0,1.155,1.155,0,0,0,.33-.21A.99.99,0,0,0,50,39a1.05,1.05,0,0,0-.29-.71A1.032,1.032,0,0,0,49.38,38.08Z"></path><path d="M45,38H41a1,1,0,0,0,0,2h4a1,1,0,0,0,0-2Z"></path></g></svg>