<svg height='100px' width='100px'  fill="#000000" xmlns="http://www.w3.org/2000/svg" viewBox="0 0 66 58" x="0px" y="0px"><path fill="#000000" fill-rule="evenodd" d="M193,559 L180,559 C179.511161,559 179.093971,558.646587 179.013606,558.164399 L177.013606,546.164399 C176.891395,545.431131 177.583577,544.825603 178.294086,545.044221 C178.387203,545.072873 178.578347,545.128954 178.864088,545.208563 C179.345545,545.3427 179.91476,545.49257 180.568305,545.654272 C182.441738,546.117801 184.611467,546.581915 187.050033,547.015437 C194.025909,548.255593 201.74913,549 210,549 C218.25087,549 225.974091,548.255593 232.949967,547.015437 C235.388533,546.581915 237.558262,546.117801 239.431695,545.654272 C240.08524,545.49257 240.654455,545.3427 241.135912,545.208563 C241.421653,545.128954 241.612797,545.072873 241.705914,545.044221 C242.416423,544.825603 243.108605,545.431131 242.986394,546.164399 L240.986394,558.164399 C240.906029,558.646587 240.488839,559 240,559 L227,559 L227,567 L238,567 C238.552285,567 239,567.447715 239,568 L239,576 C239,576.552285 238.552285,577 238,577 L227,577 L227,585 L230,585 C230.552285,585 231,585.447715 231,586 L231,601 L242,601 C242.552285,601 243,601.447715 243,602 C243,602.552285 242.552285,603 242,603 L178,603 C177.447715,603 177,602.552285 177,602 C177,601.447715 177.447715,601 178,601 L189,601 L189,586 C189,585.447715 189.447715,585 190,585 L193,585 L193,577 L182,577 C181.447715,577 181,576.552285 181,576 L181,568 C181,567.447715 181.447715,567 182,567 L193,567 L193,559 Z M195,559 L195,567 L209,567 L209,559 L195,559 Z M211,559 L211,567 L225,567 L225,559 L211,559 Z M225,577 L195,577 L195,585 L198,585 C198.552285,585 199,585.447715 199,586 L199,601 L221,601 L221,586 C221,585.447715 221.447715,585 222,585 L225,585 L225,577 Z M179.244079,547.381709 L180.847127,557 L239.152873,557 L240.755921,547.381709 C240.491438,547.450544 240.210051,547.521997 239.912055,547.595728 C237.996426,548.069699 235.783342,548.543085 233.300033,548.984563 C226.213409,550.244407 218.37413,551 210,551 C201.62587,551 193.786591,550.244407 186.699967,548.984563 C184.216658,548.543085 182.003574,548.069699 180.087945,547.595728 C179.789949,547.521997 179.508562,547.450544 179.244079,547.381709 Z M237,569 L183,569 L183,575 L237,575 L237,569 Z M197,587 L191,587 L191,601 L197,601 L197,587 Z M229,587 L223,587 L223,601 L229,601 L229,587 Z" transform="translate(-177 -545)"></path></svg>