<svg height='100px' width='100px'  fill="#000000" xmlns="http://www.w3.org/2000/svg" xmlns:xlink="http://www.w3.org/1999/xlink" version="1.1" x="0px" y="0px" viewBox="0 0 66 66" enable-background="new 0 0 66 66" xml:space="preserve"><g><path d="M60.2,58.4h-4.6v-15c4.2-0.2,7.4-2.5,8.4-4.8c0.1-0.3,0.1-0.6-0.1-0.9c-0.2-0.3-0.5-0.4-0.8-0.5   c-2.4-0.1-8.7-0.9-10.5-3.3c3.7-0.4,6.5-2.6,7.4-4.7c0.1-0.3,0.1-0.6-0.1-0.9c-0.2-0.3-0.5-0.4-0.8-0.5c-2.4-0.1-8.7-0.9-10.5-3.3   c3.7-0.4,6.5-2.6,7.4-4.7c0.1-0.3,0.1-0.6-0.1-0.9c-0.2-0.3-0.5-0.4-0.8-0.5c-2.7-0.1-10.5-1.2-10.9-4.3c-0.1-0.5-0.5-0.8-1-0.8   h-2.1c-3.8-2.4-6.5-6.6-7.3-11.7C33.9,1.3,33.5,1,33,1s-0.9,0.3-1,0.8c-0.8,5.1-3.5,9.4-7.3,11.7h-2.1c-0.5,0-0.9,0.4-1,0.8   c-0.4,3.1-8.2,4.2-10.9,4.3c-0.3,0-0.6,0.2-0.8,0.5S9.8,19.8,9.9,20c0.9,2.1,3.7,4.2,7.4,4.7c-1.8,2.4-8.1,3.2-10.5,3.3   c-0.3,0-0.6,0.2-0.8,0.5c-0.2,0.3-0.2,0.6-0.1,0.9c0.9,2.1,3.7,4.2,7.4,4.7c-1.7,2.4-8.1,3.2-10.5,3.3c-0.3,0-0.6,0.2-0.8,0.5   c-0.2,0.3-0.2,0.6-0.1,0.9c1,2.3,4.2,4.6,8.4,4.7v15H5.8c-2.7,0-4.8,2.2-4.8,4.8V64c0,0.5,0.4,1,1,1H64c0.5,0,1-0.4,1-1v-0.8   C65,60.6,62.8,58.4,60.2,58.4z M33,5.9c1.1,3.1,2.8,5.7,5,7.7H28C30.2,11.6,31.9,8.9,33,5.9z M38.3,58.4v-6.9   c0-2.9-2.4-5.3-5.3-5.3s-5.3,2.4-5.3,5.3v6.9H16.3v-15h33.5v15H38.3z M36.4,58.4h-6.7v-6.9c0-1.8,1.5-3.4,3.4-3.4   c1.9,0,3.4,1.5,3.4,3.4V58.4z M51.7,43.5h1.9v15h-1.9V43.5z M23.4,15.5h19.1c1.3,3.6,7.7,4.7,10.9,5c-1.1,1.2-3.2,2.4-6.2,2.4H18.7   c-2.9,0-5-1.2-6.2-2.4C15.8,20.2,22.1,19.1,23.4,15.5z M19.5,24.8h27c1.3,3.6,7.7,4.7,10.9,5c-1.1,1.2-3.2,2.4-6.2,2.4H14.8   c-2.9,0-5-1.2-6.2-2.4C11.8,29.5,18.2,28.4,19.5,24.8z M15.6,34.1h34.9c1.3,3.6,7.7,4.7,10.8,5c-1.2,1.2-3.4,2.4-6.2,2.4   c-2.5,0-46.6,0-44.2,0c-2.8,0-5-1.2-6.2-2.4C7.9,38.8,14.2,37.7,15.6,34.1z M12.4,43.5h1.9v15h-1.9V43.5z M2.9,63.1   c0.1-1.5,1.4-2.7,2.9-2.7c19.4,0,34.8,0,54.3,0c1.5,0,2.8,1.2,2.9,2.7H2.9z"></path></g></svg>