<svg height='100px' width='100px'  fill="#000000" xmlns:dc="http://purl.org/dc/elements/1.1/" xmlns:cc="http://creativecommons.org/ns#" xmlns:rdf="http://www.w3.org/1999/02/22-rdf-syntax-ns#" xmlns:svg="http://www.w3.org/2000/svg" xmlns="http://www.w3.org/2000/svg" xmlns:sodipodi="http://sodipodi.sourceforge.net/DTD/sodipodi-0.dtd" xmlns:inkscape="http://www.inkscape.org/namespaces/inkscape" viewBox="0 0 72 80.000002" version="1.1" x="0px" y="0px"><g transform="translate(0,-972.3622)"><path d="m 18.957091,994.41308 c -2.071583,0 -3.750599,1.67864 -3.750599,3.73976 0,2.07176 1.679016,3.75036 3.750599,3.75036 2.071956,0 3.750474,-1.6786 3.750474,-3.75036 0,-2.06112 -1.678518,-3.73976 -3.750474,-3.73976 z" style="" fill="#000000" fill-opacity="1" fill-rule="nonzero" stroke="none"></path><path d="m 11.647759,997.611 -0.552579,0.54184 0.05313,0.0531 0.499449,0.49935 7.15019,-0.56309 0,-0.0106 z" style="" fill="#000000" fill-opacity="1" fill-rule="nonzero" stroke="none"></path><path d="m 12.008722,997.23914 0.39294,-0.38246 6.417315,1.28554 z" style="" fill="#000000" fill-opacity="1" fill-rule="evenodd" stroke="none"></path><path d="m 12.008722,999.04528 0.39294,0.38248 6.417315,-1.28554 z" style="" fill="#000000" fill-opacity="1" fill-rule="evenodd" stroke="none"></path><path d="m 26.203089,997.611 0.552082,0.54184 -0.05263,0.0531 -0.49945,0.49935 -7.150189,-0.56309 0,-0.0106 z" style="" fill="#000000" fill-opacity="1" fill-rule="nonzero" stroke="none"></path><path d="m 25.841629,997.23914 -0.39294,-0.38246 -6.417315,1.28554 z" style="" fill="#000000" fill-opacity="1" fill-rule="evenodd" stroke="none"></path><path d="m 25.841629,999.04528 -0.39294,0.38248 -6.417315,-1.28554 z" style="" fill="#000000" fill-opacity="1" fill-rule="evenodd" stroke="none"></path><path d="m 19.45654,990.86454 -0.54163,-0.55246 -0.05326,0.0531 -0.499449,0.49934 0.56328,7.15019 0,0 z" style="" fill="#000000" fill-opacity="1" fill-rule="nonzero" stroke="none"></path><path d="m 19.828452,991.22577 0.382488,0.3931 -1.285454,6.4171 z" style="" fill="#000000" fill-opacity="1" fill-rule="evenodd" stroke="none"></path><path d="m 18.022396,991.22577 -0.382488,0.3931 1.285578,6.4171 z" style="" fill="#000000" fill-opacity="1" fill-rule="evenodd" stroke="none"></path><path d="m 19.45654,1005.4199 -0.54163,0.5524 -0.05326,-0.053 -0.499449,-0.4993 0.56328,-7.15019 0,0 z" style="" fill="#000000" fill-opacity="1" fill-rule="nonzero" stroke="none"></path><path d="m 19.828452,1005.0586 0.382488,-0.3931 -1.285454,-6.41704 z" style="" fill="#000000" fill-opacity="1" fill-rule="evenodd" stroke="none"></path><path d="m 18.022396,1005.0586 -0.382488,-0.3931 1.285578,-6.41704 z" style="" fill="#000000" fill-opacity="1" fill-rule="evenodd" stroke="none"></path><path d="m 14.154961,992.61756 -0.775429,0 0,0.0744 0,0.70119 5.460598,4.66409 0,-0.0106 z" style="" fill="#000000" fill-opacity="1" fill-rule="nonzero" stroke="none"></path><path d="m 14.675438,992.61756 0.552704,0 3.622937,5.45029 z" style="" fill="#000000" fill-opacity="1" fill-rule="evenodd" stroke="none"></path><path d="m 13.400561,993.89248 0,0.55247 5.450518,3.6229 z" style="" fill="#000000" fill-opacity="1" fill-rule="evenodd" stroke="none"></path><path d="m 24.44979,1002.9125 0,0.7756 -0.07428,0 -0.701269,0 -4.664017,-5.46089 0.01,0 z" style="" fill="#000000" fill-opacity="1" fill-rule="nonzero" stroke="none"></path><path d="m 24.44979,1002.392 0,-0.5525 -5.450021,-3.62291 z" style="" fill="#000000" fill-opacity="1" fill-rule="evenodd" stroke="none"></path><path d="m 23.174913,1003.6669 -0.552207,0 -3.622937,-5.45031 z" style="" fill="#000000" fill-opacity="1" fill-rule="evenodd" stroke="none"></path><path d="m 23.674238,992.61756 0.775552,0 0,0.0744 0,0.70119 -5.460597,4.66409 0,-0.0106 z" style="" fill="#000000" fill-opacity="1" fill-rule="nonzero" stroke="none"></path><path d="m 23.15376,992.61756 -0.55258,0 -3.622563,5.45029 z" style="" fill="#000000" fill-opacity="1" fill-rule="evenodd" stroke="none"></path><path d="m 24.428762,993.89248 0,0.55247 -5.450145,3.6229 z" style="" fill="#000000" fill-opacity="1" fill-rule="evenodd" stroke="none"></path><path d="m 13.379532,1002.9125 0,0.7756 0.07428,0 0.701146,0 4.664016,-5.46089 -0.01,0 z" style="" fill="#000000" fill-opacity="1" fill-rule="nonzero" stroke="none"></path><path d="m 13.379532,1002.392 0,-0.5525 5.450021,-3.62291 z" style="" fill="#000000" fill-opacity="1" fill-rule="evenodd" stroke="none"></path><path d="m 14.65441,1003.6669 0.552082,0 3.623061,-5.45031 z" style="" fill="#000000" fill-opacity="1" fill-rule="evenodd" stroke="none"></path><path transform="matrix(-0.03569065,-0.01614482,-0.01614482,0.03569065,49.898372,975.08945)" style="opacity:1;fill:#000000;fill-opacity:1;stroke:none;stroke-width:16;stroke-linecap:round;stroke-linejoin:round;stroke-miterlimit:4;stroke-dasharray:none;stroke-dashoffset:0;stroke-opacity:1" d="m 146.50581,739.61128 -23.35626,-19.523 -26.929948,14.23771 11.349998,-28.24607 -21.862676,-21.21221 30.370946,2.06598 13.41807,-27.34757 7.42028,29.5229 30.1555,4.31048 -25.78496,16.18019 z"></path><path transform="matrix(0.03785704,-0.00815833,0.00815833,0.03785704,0.27937484,987.7392)" style="opacity:1;fill:#000000;fill-opacity:1;stroke:none;stroke-width:16;stroke-linecap:round;stroke-linejoin:round;stroke-miterlimit:4;stroke-dasharray:none;stroke-dashoffset:0;stroke-opacity:1" d="m 146.50581,739.61128 -23.35626,-19.523 -26.929948,14.23771 11.349998,-28.24607 -21.862676,-21.21221 30.370946,2.06598 13.41807,-27.34757 7.42028,29.5229 30.1555,4.31048 -25.78496,16.18019 z"></path><path transform="matrix(0.02876597,-0.02143153,0.02143153,0.02876597,-7.9179106,965.33245)" style="opacity:1;fill:#000000;fill-opacity:1;stroke:none;stroke-width:16;stroke-linecap:round;stroke-linejoin:round;stroke-miterlimit:4;stroke-dasharray:none;stroke-dashoffset:0;stroke-opacity:1" d="m 146.50581,739.61128 -23.35626,-19.523 -26.929948,14.23771 11.349998,-28.24607 -21.862676,-21.21221 30.370946,2.06598 13.41807,-27.34757 7.42028,29.5229 30.1555,4.31048 -25.78496,16.18019 z"></path><path style="color:#000000;font-style:normal;font-variant:normal;font-weight:normal;font-stretch:normal;font-size:medium;line-height:normal;font-family:sans-serif;text-indent:0;text-align:start;text-decoration:none;text-decoration-line:none;text-decoration-style:solid;text-decoration-color:#000000;letter-spacing:normal;word-spacing:normal;text-transform:none;direction:ltr;block-progression:tb;writing-mode:lr-tb;baseline-shift:baseline;text-anchor:start;white-space:normal;clip-rule:nonzero;display:inline;overflow:visible;visibility:visible;opacity:1;isolation:auto;mix-blend-mode:normal;color-interpolation:sRGB;color-interpolation-filters:linearRGB;solid-color:#000000;solid-opacity:1;fill:#000000;fill-opacity:1;fill-rule:evenodd;stroke:none;stroke-width:1.43999922;stroke-linecap:butt;stroke-linejoin:miter;stroke-miterlimit:4;stroke-dasharray:none;stroke-dashoffset:0;stroke-opacity:1;color-rendering:auto;image-rendering:auto;shape-rendering:auto;text-rendering:auto;enable-background:accumulate" d="m 8.4960938,976.83984 -0.7910157,1.20313 30.5839839,20.09961 -30.5839839,20.09762 0.7910157,1.2032 L 40.910156,998.14258 8.4960938,976.83984 Z"></path><path style="color:#000000;font-style:normal;font-variant:normal;font-weight:normal;font-stretch:normal;font-size:medium;line-height:normal;font-family:sans-serif;text-indent:0;text-align:start;text-decoration:none;text-decoration-line:none;text-decoration-style:solid;text-decoration-color:#000000;letter-spacing:normal;word-spacing:normal;text-transform:none;direction:ltr;block-progression:tb;writing-mode:lr-tb;baseline-shift:baseline;text-anchor:start;white-space:normal;clip-rule:nonzero;display:inline;overflow:visible;visibility:visible;opacity:1;isolation:auto;mix-blend-mode:normal;color-interpolation:sRGB;color-interpolation-filters:linearRGB;solid-color:#000000;solid-opacity:1;fill:#000000;fill-opacity:1;fill-rule:nonzero;stroke:none;stroke-width:1.4399991;stroke-linecap:butt;stroke-linejoin:miter;stroke-miterlimit:4;stroke-dasharray:none;stroke-dashoffset:0;stroke-opacity:1;color-rendering:auto;image-rendering:auto;shape-rendering:auto;text-rendering:auto;enable-background:accumulate" d="m 7.1992188,1019.7422 0,-0.7207 0,-42.47853 64.8007812,0 0,43.19923 -64.8007812,0 z m 1.4414062,-1.4395 61.919922,0 0,-40.32028 -61.919922,0 0,40.32028 z"></path><path style="color:#000000;font-style:normal;font-variant:normal;font-weight:normal;font-stretch:normal;font-size:medium;line-height:normal;font-family:sans-serif;text-indent:0;text-align:start;text-decoration:none;text-decoration-line:none;text-decoration-style:solid;text-decoration-color:#000000;letter-spacing:normal;word-spacing:normal;text-transform:none;direction:ltr;block-progression:tb;writing-mode:lr-tb;baseline-shift:baseline;text-anchor:start;white-space:normal;clip-rule:nonzero;display:inline;overflow:visible;visibility:visible;opacity:1;isolation:auto;mix-blend-mode:normal;color-interpolation:sRGB;color-interpolation-filters:linearRGB;solid-color:#000000;solid-opacity:1;fill:#000000;fill-opacity:1;fill-rule:nonzero;stroke:none;stroke-width:1.43999922;stroke-linecap:butt;stroke-linejoin:round;stroke-miterlimit:4;stroke-dasharray:none;stroke-dashoffset:0;stroke-opacity:1;color-rendering:auto;image-rendering:auto;shape-rendering:auto;text-rendering:auto;enable-background:accumulate" d="M 0.72070312,972.58203 A 0.72007161,0.72007161 0 0 0 0,973.30273 l 0,78.11917 a 0.72007161,0.72007161 0 0 0 0.72070312,0.7207 l 7.19921878,0 a 0.72007161,0.72007161 0 0 0 0.7207031,-0.7207 l 0,-32.4004 -1.4414062,0 0,31.6816 -5.7597657,0 0,-76.68162 5.7597657,0 0,3.41993 1.4414062,0 0,-4.13868 a 0.72007161,0.72007161 0 0 0 -0.7207031,-0.7207 l -7.19921878,0 z"></path></g></svg>