<svg height='100px' width='100px'  fill="#000000" xmlns="http://www.w3.org/2000/svg" viewBox="0 0 64 64" x="0px" y="0px"><title>lantern-paper-china-chinese-decoration</title><g><path d="M13,28a18.959,18.959,0,0,0,8,15.475V47a1,1,0,0,0,1,1v7a1,1,0,0,0,2,0V48h1v5a1,1,0,0,0,2,0V48h1v3a1,1,0,0,0,2,0V48h1v5.184a2.982,2.982,0,0,0,0,5.632V61a1,1,0,0,0,2,0V58.816a2.982,2.982,0,0,0,0-5.632V48h1v3a1,1,0,0,0,2,0V48h1v5a1,1,0,0,0,2,0V48h1v7a1,1,0,0,0,2,0V48a1,1,0,0,0,1-1V43.475a18.967,18.967,0,0,0,0-30.95V9a1,1,0,0,0-1-1H33V3a1,1,0,0,0-2,0V8H22a1,1,0,0,0-1,1v3.525A18.959,18.959,0,0,0,13,28ZM32,57a1,1,0,1,1,1-1A1,1,0,0,1,32,57ZM24.623,39.01a26.058,26.058,0,0,1-.507-22.31l1.2-2.7h4.3l-1.188,3.564a33.211,33.211,0,0,0,0,20.872L29.613,42h-3.5ZM38.683,14l1.5,3.382a26.187,26.187,0,0,1,0,21.236L38.683,42h-4.3l1.188-3.564a33.211,33.211,0,0,0,0-20.872L34.387,14Zm-5,4.2a31.21,31.21,0,0,1,0,19.606l-1.4,4.2h-.558l-1.4-4.2a31.21,31.21,0,0,1,0-19.606l1.4-4.2h.558ZM31,44H41v2H23V44h8ZM49,28a16.972,16.972,0,0,1-7.364,14h-.764l1.143-2.569a28.2,28.2,0,0,0,0-22.862L40.872,14h.764A16.972,16.972,0,0,1,49,28ZM23,10H41v2H23Zm-.636,4h.764l-.84,1.888A28.052,28.052,0,0,0,22.834,39.9L23.882,42H22.364a16.99,16.99,0,0,1,0-28Z"></path><rect x="54" y="13" width="2" height="2"></rect><rect x="51" y="16" width="2" height="2"></rect><rect x="57" y="16" width="2" height="2"></rect><rect x="54" y="19" width="2" height="2"></rect><rect x="12" y="46" width="2" height="2"></rect><rect x="8" y="50" width="2" height="2"></rect><rect x="16" y="50" width="2" height="2"></rect><rect x="12" y="54" width="2" height="2"></rect></g></svg>