<svg height='100px' width='100px'  fill="#000000" xmlns="http://www.w3.org/2000/svg" xmlns:xlink="http://www.w3.org/1999/xlink" version="1.1" x="0px" y="0px" viewBox="0 0 100 100" style="enable-background:new 0 0 100 100;" xml:space="preserve"><g><path d="M10.01762,98.91517C4.49412,98.91517,0,94.42204,0,88.89853c0-5.5235,4.49412-10.01663,10.01762-10.01663   c5.52252,0,10.01664,4.49313,10.01664,10.01663C20.03426,94.42204,15.54014,98.91517,10.01762,98.91517z M10.01762,82.24831   c-3.66628,0-6.64925,2.98296-6.64925,6.65022c0,3.66727,2.98297,6.65023,6.64925,6.65023s6.64826-2.98296,6.64826-6.65023   C16.66588,85.23127,13.6839,82.24831,10.01762,82.24831z"></path><path d="M68.46472,98.91517c-5.55497,0-10.07366-4.49313-10.07366-10.01664c0-5.5235,4.51869-10.01663,10.07366-10.01663   c5.52351,0,10.01663,4.49313,10.01663,10.01663C78.48135,94.42204,73.98823,98.91517,68.46472,98.91517z M68.46472,82.24831   c-3.69872,0-6.70726,2.98296-6.70726,6.65022c0,3.66727,3.00853,6.65023,6.70726,6.65023   c3.66726,0,6.65023-2.98296,6.65023-6.65023C75.11495,85.23127,72.13198,82.24831,68.46472,82.24831z"></path><path d="M68.46472,82.24831h-58.4471c-0.93009,0-1.68419-0.75312-1.68419-1.6832c0-0.93009,0.7541-1.6832,1.68419-1.6832h58.4471   c0.93008,0,1.6832,0.75311,1.6832,1.6832C70.14793,81.49519,69.39481,82.24831,68.46472,82.24831z"></path><path d="M68.46472,98.91517h-58.4471c-0.93009,0-1.68419-0.75311-1.68419-1.6832c0-0.93008,0.7541-1.6832,1.68419-1.6832h58.4471   c0.93008,0,1.6832,0.75312,1.6832,1.6832C70.14793,98.16206,69.39481,98.91517,68.46472,98.91517z"></path><path d="M29.19553,90.58173h-1.65568c-0.93009,0-1.68419-0.75311-1.68419-1.6832c0-0.93008,0.7541-1.6832,1.68419-1.6832h1.65568   c0.93009,0,1.68419,0.75312,1.68419,1.6832C30.87972,89.82862,30.12562,90.58173,29.19553,90.58173z"></path><path d="M39.24068,90.58173H37.585c-0.93009,0-1.68419-0.75311-1.68419-1.6832c0-0.93008,0.7541-1.6832,1.68419-1.6832h1.65567   c0.93009,0,1.68419,0.75312,1.68419,1.6832C40.92487,89.82862,40.17077,90.58173,39.24068,90.58173z"></path><path d="M49.28583,90.58173h-1.65469c-0.93009,0-1.68419-0.75311-1.68419-1.6832c0-0.93008,0.7541-1.6832,1.68419-1.6832h1.65469   c0.93009,0,1.68419,0.75312,1.68419,1.6832C50.97002,89.82862,50.21592,90.58173,49.28583,90.58173z"></path><path d="M60.81558,73.2876h-43.1498c-2.81681,0-5.10959-2.29081-5.10959-5.1086V39.69726c0-2.81681,2.29278-5.1086,5.10959-5.1086   h28.93794c0.44636,0,0.87503,0.17796,1.19063,0.49356l17.63628,17.6353c0.31658,0.31658,0.49356,0.74525,0.49356,1.19161V68.179   C65.92419,70.99679,63.63337,73.2876,60.81558,73.2876z M17.66578,37.95703c-0.96057,0-1.74121,0.78065-1.74121,1.74023V68.179   c0,0.95958,0.78065,1.7422,1.74121,1.7422h43.1498c0.95958,0,1.7422-0.78262,1.7422-1.7422V54.60718L45.90664,37.95703H17.66578z"></path><path d="M64.24098,55.59233H37.47095c-0.93009,0-1.68419-0.75312-1.68419-1.6832V36.27284   c0-0.93009,0.7541-1.68419,1.68419-1.68419s1.68419,0.7541,1.68419,1.68419v15.95308h25.08584   c0.93008,0,1.6832,0.75312,1.6832,1.6832S65.17107,55.59233,64.24098,55.59233z"></path><path d="M27.99605,55.59233h-6.67776c-0.93009,0-1.68419-0.75312-1.68419-1.6832s0.7541-1.6832,1.68419-1.6832h6.67776   c0.93009,0,1.68419,0.75312,1.68419,1.6832S28.92614,55.59233,27.99605,55.59233z"></path><path d="M27.99605,46.63261h-6.67776c-0.93009,0-1.68419-0.7541-1.68419-1.68419s0.7541-1.68419,1.68419-1.68419h6.67776   c0.93009,0,1.68419,0.7541,1.68419,1.68419S28.92614,46.63261,27.99605,46.63261z"></path><path d="M27.99605,64.55499h-6.67776c-0.93009,0-1.68419-0.75311-1.68419-1.6832s0.7541-1.6832,1.68419-1.6832h6.67776   c0.93009,0,1.68419,0.75312,1.68419,1.6832S28.92614,64.55499,27.99605,64.55499z"></path><path d="M22.51679,82.24831c-0.93009,0-1.68419-0.75312-1.68419-1.6832v-8.96071c0-0.93008,0.7541-1.6832,1.68419-1.6832   c0.93009,0,1.68419,0.75311,1.68419,1.6832v8.96071C24.20098,81.49519,23.44688,82.24831,22.51679,82.24831z"></path><path d="M55.90755,82.24831c-0.93009,0-1.6832-0.75312-1.6832-1.6832v-8.96071c0-0.93008,0.75312-1.6832,1.6832-1.6832   s1.6832,0.75311,1.6832,1.6832v8.96071C57.59075,81.49519,56.83764,82.24831,55.90755,82.24831z"></path><path d="M80.5657,64.38196c-0.6253,0-1.22701-0.34805-1.51803-0.94975l-2.62509-5.42125   c-0.31461-0.65087-0.17894-1.42955,0.33822-1.93687c5.31113-5.20299,7.47807-12.87179,5.65328-20.01165   c-0.1986-0.78163,0.18287-1.59472,0.91239-1.93981l8.21938-3.8816c0.83767-0.39524,1.84052-0.03834,2.23969,0.79736   l6.05049,12.67122c0.1927,0.4031,0.21629,0.86716,0.06686,1.28797l-4.16672,11.75687   c-0.14944,0.4208-0.45816,0.76295-0.8593,0.95565l-13.58559,6.50668C81.05729,64.32887,80.80952,64.38196,80.5657,64.38196z    M79.96793,57.60391l1.38039,2.85122l11.44618-5.48024l3.70068-10.44432l-5.02602-10.52789l-5.48615,2.5897   C87.43616,44.09797,85.19451,51.9408,79.96793,57.60391z"></path><path d="M62.52828,15.63983c-4.0448,0-7.33452-3.26514-7.33452-7.2775s3.28972-7.2775,7.33452-7.2775   c4.01334,0,7.2775,3.26514,7.2775,7.2775S66.54162,15.63983,62.52828,15.63983z M62.52828,4.45321   c-2.18856,0-3.96811,1.75301-3.96811,3.90912s1.77956,3.90912,3.96811,3.90912c2.1571,0,3.91109-1.75301,3.91109-3.90912   S64.68538,4.45321,62.52828,4.45321z"></path><path d="M49.28386,40.64013c-0.27824,0-0.56041-0.06981-0.82096-0.21532c-0.81112-0.45423-1.10018-1.48067-0.64595-2.29179   l14.04079-25.05733c0.45423-0.81014,1.47477-1.10214,2.29278-0.64595c0.81013,0.45423,1.09919,1.48067,0.64497,2.29179   L50.7547,39.77886C50.44598,40.32944,49.87377,40.64013,49.28386,40.64013z M42.94825,37.95703   c-0.27824,0-0.56041-0.06981-0.82095-0.21532c-0.81113-0.45423-1.10018-1.47968-0.64595-2.29179L55.86428,9.76533   c0.45423-0.80916,1.48067-1.10411,2.29081-0.64595c0.81211,0.45423,1.10116,1.48067,0.64693,2.29179L44.41909,37.09576   C44.11037,37.64634,43.53816,37.95703,42.94825,37.95703z"></path><path d="M85.64481,36.58746c-0.4149,0-0.8298-0.15239-1.15622-0.45914L62.22742,15.12366   c-0.67643-0.63808-0.70592-1.70385-0.06882-2.38028c0.64103-0.67643,1.70483-0.70691,2.38126-0.06981l22.26116,21.00466   c0.67643,0.63808,0.70592,1.70385,0.06882,2.38028C86.53754,36.4095,86.09117,36.58746,85.64481,36.58746z M90.83797,34.13344   c-0.44047,0-0.88094-0.17206-1.21128-0.5142L66.91129,10.10256c-0.64497-0.66856-0.62727-1.73531,0.0413-2.38126   c0.66856-0.64693,1.7363-0.62825,2.38126,0.04129l22.71539,23.51668c0.64497,0.66856,0.62727,1.73531-0.04129,2.38126   C91.68153,33.97613,91.25877,34.13344,90.83797,34.13344z"></path></g></svg>