<svg height='100px' width='100px'  fill="#000000" xmlns:dc="http://purl.org/dc/elements/1.1/" xmlns:cc="http://creativecommons.org/ns#" xmlns:rdf="http://www.w3.org/1999/02/22-rdf-syntax-ns#" xmlns:svg="http://www.w3.org/2000/svg" xmlns="http://www.w3.org/2000/svg" xmlns:sodipodi="http://sodipodi.sourceforge.net/DTD/sodipodi-0.dtd" xmlns:inkscape="http://www.inkscape.org/namespaces/inkscape" viewBox="0 0 8.4666665 8.4666669" version="1.1" x="0px" y="0px"><g transform="translate(0,-288.53332)"><path style="" d="m 1.3882567,289.71154 a 0.83663121,0.83663121 0 1 0 0.4681882,1.51413 0.90391414,0.90391414 0 0 1 1.0604023,0 0.83663121,0.83663121 0 0 0 0.9808185,0 0.90391414,0.90391414 0 0 1 1.0603997,0 0.83663121,0.83663121 0 0 0 0.4898919,0.15864 0.90391414,0.90391414 0 0 1 0.8583454,0.6222 0.83663121,0.83663121 0 0 0 0.1173057,0.22995 0.90391414,0.90391414 0 0 1 0,1.06039 0.83663121,0.83663121 0 0 0 -0.1173057,0.22995 0.90391414,0.90391414 0 0 1 -0.8583454,0.6222 0.83663121,0.83663121 0 0 0 -0.4898919,0.15864 0.90391414,0.90391414 0 0 1 -1.0603997,0 0.83663121,0.83663121 0 0 0 -0.9808185,0 0.90391414,0.90391414 0 0 1 -1.0604023,0 0.83663121,0.83663121 0 1 0 0,1.35549 0.90391414,0.90391414 0 0 1 1.0604023,0 0.83663121,0.83663121 0 0 0 0.9808185,0 0.90391414,0.90391414 0 0 1 1.0603997,0 0.83663121,0.83663121 0 0 0 1.285711,-0.41704 0.90391414,0.90391414 0 0 1 0.8578268,-0.62219 0.83663121,0.83663121 0 0 0 0.6769629,-1.32705 0.90391414,0.90391414 0 0 1 0,-1.06039 0.83663121,0.83663121 0 0 0 -0.6769629,-1.32705 0.90391414,0.90391414 0 0 1 -0.8578268,-0.62219 0.83663121,0.83663121 0 0 0 -1.285711,-0.41704 0.90391414,0.90391414 0 0 1 -1.0603997,0 0.83663121,0.83663121 0 0 0 -0.9808185,0 0.90391414,0.90391414 0 0 1 -1.0604023,0 0.83663121,0.83663121 0 0 0 -0.4681882,-0.15864 z m 2.0040125,0.26408 a 0.57204795,0.57204795 0 1 1 -0.320392,1.03558 1.1684974,1.1684974 0 0 0 -1.3704596,0 0.57204795,0.57204795 0 1 1 -0.3172937,-1.03508 0.57204795,0.57204795 0 0 1 0.3172937,0.108 1.1684974,1.1684974 0 0 0 1.3704596,0 0.57204795,0.57204795 0 0 1 0.320392,-0.1085 z m 2.0329525,0 a 0.57204795,0.57204795 0 0 1 0.5668883,0.39327 1.1684974,1.1684974 0 0 0 1.1094932,0.8046 0.57204795,0.57204795 0 1 1 -0.5441527,0.75033 1.1684974,1.1684974 0 0 0 -1.1094932,-0.80459 0.57204795,0.57204795 0 0 1 -0.022728,-1.14361 z m -1.2236979,0.308 a 1.1684975,1.1684975 0 0 0 0.4532021,0 0.83663129,0.83663129 0 0 0 0,0.5271 1.1684975,1.1684975 0 0 0 -0.4532021,0 0.83663129,0.83663129 0 0 0 0,-0.5271 z m 2.6360146,2.25568 a 0.83663129,0.83663129 0 0 0 0.5270977,0 1.1684975,1.1684975 0 0 0 0,0.45371 0.83663129,0.83663129 0 0 0 -0.5270977,0 1.1684975,1.1684975 0 0 0 0,-0.45371 z m 0.2868031,0.67593 a 0.57204795,0.57204795 0 0 1 -0.022728,1.14358 1.1684975,1.1684975 0 0 0 -1.1094932,0.8046 0.57204795,0.57204795 0 1 1 -0.5441527,-0.75033 1.1684975,1.1684975 0 0 0 1.1094932,-0.8046 0.57204795,0.57204795 0 0 1 0.566891,-0.39325 z m -5.7433185,1.19785 a 0.57204795,0.57204795 0 0 1 0.3203946,0.10853 1.1684975,1.1684975 0 0 0 1.3704596,0 0.57204795,0.57204795 0 1 1 0,0.92707 1.1684975,1.1684975 0 0 0 -1.3704596,0 0.57204795,0.57204795 0 1 1 -0.3203946,-1.0356 z m 2.8205008,0.3085 a 1.1684975,1.1684975 0 0 0 0.4532021,0 0.83663129,0.83663129 0 0 0 0,0.5271 1.1684975,1.1684975 0 0 0 -0.4532021,0 0.83663129,0.83663129 0 0 0 0,-0.5271 z" fill="#000000" stroke="none"></path><path style="" d="m 5.6745325,294.98555 a 0.22598,0.22598 0 1 0 -0.4519599,0 0.22598,0.22598 0 1 0 0.4519599,0 z" fill="#000000" stroke="none"></path><path style="" d="m 7.3270726,293.78728 a 0.22598,0.22598 0 1 0 -0.4519599,0 0.22598,0.22598 0 1 0 0.4519599,0 z" fill="#000000" stroke="none"></path><path style="" d="m 7.3270726,291.74602 a 0.22598,0.22598 0 1 0 -0.4519599,0 0.22598,0.22598 0 1 0 0.4519599,0 z" fill="#000000" stroke="none"></path><path style="" d="m 5.6745325,290.54775 a 0.22598,0.22598 0 1 0 -0.4519599,0 0.22598,0.22598 0 1 0 0.4519599,0 z" fill="#000000" stroke="none"></path><path style="" d="m 3.6332625,294.98555 a 0.22597856,0.22597856 0 1 0 -0.4519498,0 0.22597856,0.22597856 0 1 0 0.4519498,0 z" fill="#000000" stroke="none"></path><path style="" d="m 1.5920027,294.98555 a 0.22598002,0.22598002 0 1 0 -0.45196,0 0.22598002,0.22598002 0 1 0 0.45196,0 z" fill="#000000" stroke="none"></path><path style="" d="m 3.6332625,290.54775 a 0.22597856,0.22597856 0 1 0 -0.4519498,0 0.22597856,0.22597856 0 1 0 0.4519498,0 z" fill="#000000" stroke="none"></path><path style="" d="m 1.5920027,290.54775 a 0.22598002,0.22598002 0 1 0 -0.45196,0 0.22598002,0.22598002 0 1 0 0.45196,0 z" fill="#000000" stroke="none"></path></g></svg>