<svg height='100px' width='100px'  fill="#000000" xmlns="http://www.w3.org/2000/svg" viewBox="0 0 66 66" x="0px" y="0px"><title>Artboard 27</title><g><path d="M58.18,34a3,3,0,1,0,0-2H54V24h7a1,1,0,0,0,1-1V8.82a3,3,0,1,0-2,0V22H54a3,3,0,0,0-3-3H44V13h5.18a3,3,0,1,0,0-2H43a1,1,0,0,0-1,1v7H34V7.82a3,3,0,1,0-2,0V19H24V14a1,1,0,0,0-1-1H16.82a3,3,0,1,0,0,2H22v4H15a3,3,0,0,0-3,3H6V8.82a3,3,0,1,0-2,0V23a1,1,0,0,0,1,1h7v8H7.82a3,3,0,1,0,0,2H12v8H5a1,1,0,0,0-1,1V57.18a3,3,0,1,0,2,0V44h6a3,3,0,0,0,3,3h7v4H16.82a3,3,0,1,0,0,2H23a1,1,0,0,0,1-1V47h8V58.18a3,3,0,1,0,2,0V47h8v7a1,1,0,0,0,1,1h6.18a3,3,0,1,0,0-2H44V47h7a3,3,0,0,0,3-3h6V57.18a3,3,0,1,0,2,0V43a1,1,0,0,0-1-1H54V34ZM61,32a1,1,0,1,1-1,1A1,1,0,0,1,61,32ZM61,5a1,1,0,1,1-1,1A1,1,0,0,1,61,5Zm-9,6a1,1,0,1,1-1,1A1,1,0,0,1,52,11ZM33,4a1,1,0,1,1-1,1A1,1,0,0,1,33,4ZM14,15a1,1,0,1,1,1-1A1,1,0,0,1,14,15ZM5,5A1,1,0,1,1,4,6,1,1,0,0,1,5,5ZM5,34a1,1,0,1,1,1-1A1,1,0,0,1,5,34ZM5,61a1,1,0,1,1,1-1A1,1,0,0,1,5,61Zm9-8a1,1,0,1,1,1-1A1,1,0,0,1,14,53Zm19,9a1,1,0,1,1,1-1A1,1,0,0,1,33,62Zm19-9a1,1,0,1,1-1,1A1,1,0,0,1,52,53Zm9,8a1,1,0,1,1,1-1A1,1,0,0,1,61,61ZM52,44a1,1,0,0,1-1,1H15a1,1,0,0,1-1-1V22a1,1,0,0,1,1-1H51a1,1,0,0,1,1,1Z"></path></g></svg>