<svg height='100px' width='100px'  fill="#000000" xmlns="http://www.w3.org/2000/svg" xmlns:xlink="http://www.w3.org/1999/xlink" viewBox="0 0 60 53" version="1.1" x="0px" y="0px"><title>47 -Bridge- (Outline)</title><desc>Created with Sketch.</desc><g stroke="none" stroke-width="1" fill="none" fill-rule="evenodd"><g transform="translate(-839.000000, -836.000000)" fill="#000000"><g transform="translate(839.000000, 835.000000)"><path d="M1.0001,29.9982 L59.0001,29.9982 C59.5523847,29.9982 60.0001,29.5504847 60.0001,28.9982 C60.0001,28.4459153 59.5523847,27.9982 59.0001,27.9982 L1.0001,27.9982 C0.44781525,27.9982 0.0001,28.4459153 0.0001,28.9982 C0.0001,29.5504847 0.44781525,29.9982 1.0001,29.9982 Z"></path><path d="M8,45.998 L14,45.998 L14,27.998 L8,27.998 L8,45.998 Z M10,29.998 L12,29.998 L12,43.998 L10,43.998 L10,29.998 Z"></path><path d="M12,27.9982 L10,27.9982 L10,3.9982 C10,3.44548475 10.4472847,2.9982 11,2.9982 C11.5527153,2.9982 12,3.44548475 12,3.9982 L12,27.9982 Z M8,29.9982 L14,29.9982 L14,3.9982 C14,2.34091525 12.6572847,0.9982 11,0.9982 C9.34271525,0.9982 8,2.34091525 8,3.9982 L8,29.9982 Z"></path><path d="M8,7.9982 C8,11.1115729 4.54351263,13.9982 1,13.9982 C0.44771525,13.9982 0,14.4459153 0,14.9982 C0,15.5504847 0.44771525,15.9982 1,15.9982 C5.57638452,15.9982 10,12.3038922 10,7.9982 C10,7.44591525 9.55228475,6.9982 9,6.9982 C8.44771525,6.9982 8,7.44591525 8,7.9982 Z"></path><path d="M46,45.998 L52,45.998 L52,27.998 L46,27.998 L46,45.998 Z M48,29.998 L50,29.998 L50,43.998 L48,43.998 L48,29.998 Z"></path><path d="M46,29.9982 L52,29.9982 L52,3.9982 C52,2.34091525 50.6572847,0.9982 49,0.9982 C47.3427153,0.9982 46,2.34091525 46,3.9982 L46,29.9982 Z M48,3.9982 C48,3.44548475 48.4472847,2.9982 49,2.9982 C49.5527153,2.9982 50,3.44548475 50,3.9982 L50,27.9982 L48,27.9982 L48,3.9982 Z"></path><path d="M50,7.9982 C50,12.3038922 54.4236155,15.9982 59,15.9982 C59.5522847,15.9982 60,15.5504847 60,14.9982 C60,14.4459153 59.5522847,13.9982 59,13.9982 C55.4564874,13.9982 52,11.1115729 52,7.9982 C52,7.44591525 51.5522847,6.9982 51,6.9982 C50.4477153,6.9982 50,7.44591525 50,7.9982 Z"></path><path d="M46.2507685,7.33589178 C46.2151406,7.37619559 46.1325728,7.46445799 46.003921,7.59384258 C45.7819129,7.81711538 45.5154364,8.06797692 45.2053715,8.33961282 C44.3117272,9.12250005 43.2535435,9.90781507 42.0380518,10.6416078 C38.5629641,12.7395195 34.5366435,13.9972 30,13.9972 C25.4637941,13.9972 21.437558,12.7395178 17.9623068,10.641598 C16.7467517,9.90779857 15.6884784,9.12247531 14.7947302,8.33957875 C14.4846281,8.06793861 14.2181153,7.81707264 13.9960729,7.59379528 C13.8673999,7.46440651 13.7848159,7.37613985 13.7491784,7.3358317 C13.3833625,6.92207191 12.7513915,6.88320572 12.3376317,7.24902163 C11.9238719,7.61483754 11.8850057,8.24680851 12.2508216,8.6605683 C12.4713188,8.90996383 12.8817645,9.32269251 13.4768948,9.84400875 C14.4558028,10.7015028 15.6080608,11.5565702 16.9286932,12.353802 C20.699692,14.6302572 25.0757059,15.9972 30,15.9972 C34.9247315,15.9972 39.3008484,14.6302555 43.0716982,12.3537922 C44.3922846,11.5565537 45.5444681,10.7014781 46.5232848,9.84397468 C47.1183623,9.32265028 47.5287619,8.90991286 47.7492315,8.66050822 C48.1150142,8.24671909 48.0760973,7.61475124 47.6623082,7.24896851 C47.2485191,6.88318578 46.6165512,6.92210266 46.2507685,7.33589178 Z"></path><path d="M17,11.9982 L17,28.9982 C17,29.5504847 17.4477153,29.9982 18,29.9982 C18.5522847,29.9982 19,29.5504847 19,28.9982 L19,11.9982 C19,11.4459153 18.5522847,10.9982 18,10.9982 C17.4477153,10.9982 17,11.4459153 17,11.9982 Z"></path><path d="M22,14.9982 L22,28.9982 C22,29.5504847 22.4477153,29.9982 23,29.9982 C23.5522847,29.9982 24,29.5504847 24,28.9982 L24,14.9982 C24,14.4459153 23.5522847,13.9982 23,13.9982 C22.4477153,13.9982 22,14.4459153 22,14.9982 Z"></path><path d="M41,11.9982 L41,28.9982 C41,29.5504847 41.4477153,29.9982 42,29.9982 C42.5522847,29.9982 43,29.5504847 43,28.9982 L43,11.9982 C43,11.4459153 42.5522847,10.9982 42,10.9982 C41.4477153,10.9982 41,11.4459153 41,11.9982 Z"></path><path d="M36,14.9982 L36,28.9982 C36,29.5504847 36.4477153,29.9982 37,29.9982 C37.5522847,29.9982 38,29.5504847 38,28.9982 L38,14.9982 C38,14.4459153 37.5522847,13.9982 37,13.9982 C36.4477153,13.9982 36,14.4459153 36,14.9982 Z"></path><polygon points="31 28.9982 31 14.9972 29 14.9972 29 28.9982"></polygon><path d="M1,23.9982 L9,23.9982 C9.55228475,23.9982 10,23.5504847 10,22.9982 C10,22.4459153 9.55228475,21.9982 9,21.9982 L1,21.9982 C0.44771525,21.9982 0,22.4459153 0,22.9982 C0,23.5504847 0.44771525,23.9982 1,23.9982 Z"></path><path d="M1,37.9982 L9,37.9982 C9.55228475,37.9982 10,37.5504847 10,36.9982 C10,36.4459153 9.55228475,35.9982 9,35.9982 L1,35.9982 C0.44771525,35.9982 0,36.4459153 0,36.9982 C0,37.5504847 0.44771525,37.9982 1,37.9982 Z"></path><path d="M13,37.9982 L47,37.9982 C47.5522847,37.9982 48,37.5504847 48,36.9982 C48,36.4459153 47.5522847,35.9982 47,35.9982 L13,35.9982 C12.4477153,35.9982 12,36.4459153 12,36.9982 C12,37.5504847 12.4477153,37.9982 13,37.9982 Z"></path><path d="M51,37.9982 L59,37.9982 C59.5522847,37.9982 60,37.5504847 60,36.9982 C60,36.4459153 59.5522847,35.9982 59,35.9982 L51,35.9982 C50.4477153,35.9982 50,36.4459153 50,36.9982 C50,37.5504847 50.4477153,37.9982 51,37.9982 Z"></path><path d="M51,23.9982 L59,23.9982 C59.5522847,23.9982 60,23.5504847 60,22.9982 C60,22.4459153 59.5522847,21.9982 59,21.9982 L51,21.9982 C50.4477153,21.9982 50,22.4459153 50,22.9982 C50,23.5504847 50.4477153,23.9982 51,23.9982 Z"></path><path d="M13,23.9982 L47,23.9982 C47.5522847,23.9982 48,23.5504847 48,22.9982 C48,22.4459153 47.5522847,21.9982 47,21.9982 L13,21.9982 C12.4477153,21.9982 12,22.4459153 12,22.9982 C12,23.5504847 12.4477153,23.9982 13,23.9982 Z"></path><path d="M6,53.998 L16,53.998 C16.5522847,53.998 17,53.5502847 17,52.998 L17,48.998 C17,48.4457153 16.5522847,47.998 16,47.998 L6,47.998 C5.44771525,47.998 5,48.4457153 5,48.998 L5,52.998 C5,53.5502847 5.44771525,53.998 6,53.998 Z M7,51.998 L7,49.998 L15,49.998 L15,51.998 L7,51.998 Z"></path><path d="M8,49.998 L14,49.998 C14.5522847,49.998 15,49.5502847 15,48.998 L15,44.998 C15,44.4457153 14.5522847,43.998 14,43.998 L8,43.998 C7.44771525,43.998 7,44.4457153 7,44.998 L7,48.998 C7,49.5502847 7.44771525,49.998 8,49.998 Z M9,47.998 L9,45.998 L13,45.998 L13,47.998 L9,47.998 Z"></path><path d="M44,53.998 L54,53.998 C54.5522847,53.998 55,53.5502847 55,52.998 L55,48.998 C55,48.4457153 54.5522847,47.998 54,47.998 L44,47.998 C43.4477153,47.998 43,48.4457153 43,48.998 L43,52.998 C43,53.5502847 43.4477153,53.998 44,53.998 Z M45,49.998 L53,49.998 L53,51.998 L45,51.998 L45,49.998 Z"></path><path d="M46,49.998 L52,49.998 C52.5522847,49.998 53,49.5502847 53,48.998 L53,44.998 C53,44.4457153 52.5522847,43.998 52,43.998 L46,43.998 C45.4477153,43.998 45,44.4457153 45,44.998 L45,48.998 C45,49.5502847 45.4477153,49.998 46,49.998 Z M47,45.998 L51,45.998 L51,47.998 L47,47.998 L47,45.998 Z"></path><path d="M22,42.9982 C22,43.5509153 21.5527153,43.9982 21,43.9982 C20.4472847,43.9982 20,43.5509153 20,42.9982 C20,42.4459153 19.5522847,41.9982 19,41.9982 C18.4477153,41.9982 18,42.4459153 18,42.9982 C18,44.6554847 19.3427153,45.9982 21,45.9982 C22.6572847,45.9982 24,44.6554847 24,42.9982 C24,42.4459153 23.5522847,41.9982 23,41.9982 C22.4477153,41.9982 22,42.4459153 22,42.9982 Z"></path><path d="M40,42.9982 C40,43.5509153 39.5527153,43.9982 39,43.9982 C38.4472847,43.9982 38,43.5509153 38,42.9982 C38,42.4459153 37.5522847,41.9982 37,41.9982 C36.4477153,41.9982 36,42.4459153 36,42.9982 C36,44.6554847 37.3427153,45.9982 39,45.9982 C40.6572847,45.9982 42,44.6554847 42,42.9982 C42,42.4459153 41.5522847,41.9982 41,41.9982 C40.4477153,41.9982 40,42.4459153 40,42.9982 Z"></path><path d="M31,47.9982 C31,48.5509153 30.5527153,48.9982 30,48.9982 C29.4472847,48.9982 29,48.5509153 29,47.9982 C29,47.4459153 28.5522847,46.9982 28,46.9982 C27.4477153,46.9982 27,47.4459153 27,47.9982 C27,49.6554847 28.3427153,50.9982 30,50.9982 C31.6572847,50.9982 33,49.6554847 33,47.9982 C33,47.4459153 32.5522847,46.9982 32,46.9982 C31.4477153,46.9982 31,47.4459153 31,47.9982 Z"></path></g></g></g></svg>