<svg height='100px' width='100px'  fill="#000000" xmlns="http://www.w3.org/2000/svg" xmlns:xlink="http://www.w3.org/1999/xlink" version="1.1" x="0px" y="0px" viewBox="0 0 66 66" enable-background="new 0 0 66 66" xml:space="preserve"><g><path d="M12.809,63.833c5.786-0.352,10.674-5.739,10.674-11.767V40.98h16.901c0.553,0,1-0.447,1-1v-1.599h22.621   c0.553,0,1-0.447,1-1v-9.833c0-0.553-0.447-1-1-1H41.384V24.95c0-0.553-0.447-1-1-1H23.483V13.931   c0-6.234-4.688-11.402-10.674-11.766C4.945,1.705-0.931,8.826,1.95,16.603c3.071,8.296,2.881,18.855-0.599,33.231   C-0.523,57.581,5.232,64.294,12.809,63.833z M63.006,28.548v7.833H41.384v-7.833H63.006z M39.384,25.95v13.03H23.483V25.95H39.384z    M3.295,50.305c3.578-14.78,3.747-25.71,0.53-34.397C1.428,9.435,6.329,3.793,12.688,4.162c4.932,0.3,8.795,4.591,8.795,9.77V24.95   v15.03v12.087c0,5.007-4.027,9.48-8.795,9.771C6.56,62.193,1.706,56.873,3.295,50.305z"></path><path d="M12.102,20.117c3.636,0,6.594-2.958,6.594-6.594c0-3.637-2.958-6.595-6.594-6.595c-3.637,0-6.595,2.958-6.595,6.595   C5.508,17.159,8.466,20.117,12.102,20.117z M12.102,8.928c2.533,0,4.594,2.062,4.594,4.595s-2.061,4.594-4.594,4.594   s-4.595-2.061-4.595-4.594S9.569,8.928,12.102,8.928z"></path><path d="M12.099,59.068c3.637,0,6.595-2.958,6.595-6.595c0-3.636-2.958-6.594-6.595-6.594c-3.636,0-6.594,2.958-6.594,6.594   C5.506,56.11,8.464,59.068,12.099,59.068z M12.099,47.879c2.533,0,4.595,2.061,4.595,4.594s-2.062,4.595-4.595,4.595   s-4.594-2.062-4.594-4.595S9.566,47.879,12.099,47.879z"></path></g></svg>