<svg height='100px' width='100px'  fill="#000000" xmlns="http://www.w3.org/2000/svg" xmlns:xlink="http://www.w3.org/1999/xlink" version="1.1" x="0px" y="0px" viewBox="0 0 66 66" enable-background="new 0 0 66 66" xml:space="preserve"><g><path d="M58.4,1.3c-0.3-0.3-0.7-0.4-1.1-0.2L43,6.5c-0.3,0.1-0.5,0.3-0.6,0.6l-1.9,6.3l-0.9,0.9v-3.9c0-0.6-0.4-1-1-1l-5.9,0   c0,0,0,0,0,0c-0.3,0-0.5,0.1-0.7,0.3c-0.2,0.2-0.3,0.4-0.3,0.7v8C14.4,20.3,1,35.2,1,52.8c0,2.2,1.8,3.9,3.9,3.9   c2.2,0,3.9-1.7,3.9-3.9C8.9,38.6,20.1,26.9,34,26c0,1.5,0.5,3.1,1.7,4.3c1.1,1.1,2.6,1.7,4.1,1.7c0.1,0,0.1,0,0.2,0   c-0.9,14-12.6,25.1-26.7,25.2c0,0,0,0,0,0c-2.2,0-3.9,1.7-3.9,3.9c0,2.2,1.8,3.9,3.9,3.9c17.5,0,32.5-13.5,34.4-30.8h8   c0.6,0,1-0.4,1-1v-5.9c0-0.6-0.4-1-1-1l-4,0l0.9-0.9l6.3-1.9c0.3-0.1,0.5-0.3,0.6-0.6l5.4-14.3c0.1-0.4,0-0.8-0.2-1.1L58.4,1.3z    M39.7,17l2.4-2.4c0.1-0.1,0.2-0.3,0.3-0.4l1.8-6l13.3-5l2,2l-5,5C53,9.4,51.1,9.6,50,10.7c-1.1,1.1-1.5,2.9-0.6,4.5l-6.3,6.2   c-1-0.7-2.1-1.1-3.3-1.1c-0.1,0-0.1,0-0.2,0v-3.3C39.7,17.1,39.7,17,39.7,17z M53.8,14.6c-0.7,0.7-1.8,0.7-2.5,0   c-0.7-0.7-0.7-1.8,0-2.5c0.7-0.7,1.8-0.7,2.5,0C54.5,12.8,54.5,13.9,53.8,14.6z M6.9,52.8c0,1.1-0.9,1.9-1.9,1.9   c-1.1,0-1.9-0.9-1.9-1.9C3,36,16.1,21.7,32.8,20.2c0.5,0,0.9-0.5,0.9-1v-7.9l3.9,0v9.5c-0.7,0.3-1.4,0.7-1.9,1.3   c-0.6,0.6-1,1.2-1.3,1.9C19.2,24.7,6.9,37.4,6.9,52.8z M37.1,28.9c-1.5-1.5-1.5-3.9,0-5.4c1.5-1.5,3.9-1.5,5.4,0c0,0,0,0,0,0   c0,0,0,0,0,0l0,0c1.5,1.5,1.5,3.9,0,5.4C41.1,30.3,38.6,30.3,37.1,28.9z M54.6,32.2h-7.9c-0.5,0-1,0.4-1,0.9   C44.3,49.9,30,63,13.2,63c-1.1,0-1.9-0.9-1.9-1.9c0-1.1,0.8-1.9,1.9-1.9h0c15.4,0,28.1-12.3,28.8-27.6c0.7-0.3,1.4-0.7,1.9-1.3   c0.6-0.6,1-1.2,1.3-1.9l9.5,0V32.2z M57.8,21.8c-7.6,2.3-5.5,1.1-8.8,4.5c0,0-0.1,0.1-0.1,0.1l-3.3,0c0-1.2-0.3-2.5-1-3.5l6.3-6.3   c1.5,0.9,3.3,0.5,4.5-0.6c1.2-1.2,1.4-3,0.6-4.5l5-5l2,2L57.8,21.8z"></path></g></svg>