<svg height='100px' width='100px'  fill="#000000" xmlns="http://www.w3.org/2000/svg" viewBox="0 0 64 64" x="0px" y="0px"><title>07 compass measure tool construction setting</title><rect x="7.77" y="40.94" width="19.38" height="2" transform="translate(-24.54 24.63) rotate(-45)"></rect><path d="M54.83,17a1,1,0,0,0-.17-.23L42.29,4.39a1,1,0,0,0-1.41,0L35.92,9.34a1,1,0,0,0,0,1.41l1.41,1.41-1.71,1.71-1.41-1.41a1,1,0,0,0-1.41,0l-7.07,7.07a1,1,0,0,0,0,1.41l1.41,1.41L21.49,28a1,1,0,0,0-.18.27l0,0L2.07,47.44a1,1,0,0,0,0,1.41l8.49,8.49a1,1,0,0,0,1.41,0l19.6-19.6h0L37,32.26l1.06,1.06a1,1,0,0,0,.29.2l13.08,6a1,1,0,0,0,1.13-.2l3.54-3.54a1,1,0,0,0,0-1.41L45.53,23.78l1.71-1.71L57.84,32.68a1,1,0,0,0,1.41,0l2.12-2.12a1,1,0,0,0,.17-1.18ZM11.26,55.22,4.19,48.15l18-18,7.07,7.07ZM51.68,37.43,39.39,31.78l-1.64-1.64a1,1,0,0,0-1.41,0L30.68,35.8l-7.07-7.07,5.66-5.66a1,1,0,0,0,0-1.41l-1.41-1.41,5.66-5.66L54,35.09ZM44.12,22.36,37,15.29l1.71-1.71,7.07,7.07Zm14.43,8.19L47.95,19.95h0l-8.48-8.49,0,0L38,10l3.54-3.54L53.15,18.08l6.29,11.59Z"></path><path d="M27.85,25.9a1,1,0,0,0,0,1.41l4.24,4.24a1,1,0,0,0,1.41,0l5.66-5.66a1,1,0,0,0,0-1.41l-4.24-4.24a1,1,0,0,0-1.41,0ZM37,25.19,32.8,29.43,30,26.6l4.24-4.24Z"></path></svg>