<svg height='100px' width='100px'  fill="#000000" xmlns="http://www.w3.org/2000/svg" xmlns:xlink="http://www.w3.org/1999/xlink" version="1.1" x="0px" y="0px" viewBox="0 0 64 64" style="enable-background:new 0 0 64 64;" xml:space="preserve"><path d="M30,36c0,2.757,2.243,5,5,5s5-2.243,5-5s-2.243-5-5-5S30,33.243,30,36z M38,36c0,1.654-1.346,3-3,3s-3-1.346-3-3  s1.346-3,3-3S38,34.346,38,36z"></path><path d="M61.737,6.965l0.526-1.93l-11-3c-0.298-0.08-0.616-0.02-0.863,0.165l-2.79,2.09C47.102,4.115,46.567,4,46,4  c-1.695,0-3.192,0.853-4.096,2.147L7.493,14.026C4.421,14.284,2,16.863,2,20c0,2.534,1.581,4.701,3.806,5.579l19.921,10.866  L18.336,54H17c-2.757,0-5,2.243-5,5v2c0,0.552,0.448,1,1,1h38c0.552,0,1-0.448,1-1v-2c0-2.757-2.243-5-5-5h-1.1l-1.906-18.103  c-0.047-4.127-2.886-7.586-6.712-8.592l-13.459-6.355l20.927-7.127C45.152,13.927,45.566,14,46,14c0.567,0,1.102-0.115,1.611-0.29  l2.79,2.09c0.175,0.131,0.386,0.2,0.6,0.2c0.088,0,0.176-0.012,0.263-0.035l11-3l-0.526-1.93l-10.528,2.872l-1.75-1.311  C50.405,11.685,51,10.413,51,9s-0.595-2.685-1.541-3.596l1.75-1.311L61.737,6.965z M26.151,34.398l-16.083-8.773  C12.359,24.78,14,22.581,14,20c0-0.548-0.08-1.076-0.218-1.581l18.859,8.905C29.326,28.227,26.77,30.976,26.151,34.398z M8,16  c2.206,0,4,1.794,4,4s-1.794,4-4,4c-0.494,0-0.963-0.102-1.4-0.266l-0.97-0.529C4.647,22.475,4,21.316,4,20C4,17.794,5.794,16,8,16z   M50,59v1H14v-1c0-1.654,1.346-3,3-3h30C48.654,56,50,57.346,50,59z M20.506,54l6.157-14.623C28.002,42.67,31.232,45,35,45  c3.138,0,5.903-1.617,7.514-4.06L43.889,54H20.506z M42,36c0,3.86-3.14,7-7,7s-7-3.14-7-7s3.14-7,7-7S42,32.14,42,36z M11.542,15.15  l29.52-6.758C41.037,8.593,41,8.792,41,9c0,1.362,0.55,2.595,1.436,3.498l-21.213,7.224L11.542,15.15z M43,9c0-1.654,1.346-3,3-3  s3,1.346,3,3s-1.346,3-3,3S43,10.654,43,9z"></path><rect x="39" y="50" width="2" height="2"></rect><rect x="35" y="50" width="2" height="2"></rect><rect x="31" y="50" width="2" height="2"></rect><rect x="7" y="19" width="2" height="2"></rect><rect x="45" y="8" width="2" height="2"></rect></svg>