<svg height='100px' width='100px'  fill="#000000" xmlns="http://www.w3.org/2000/svg" xmlns:xlink="http://www.w3.org/1999/xlink" version="1.1" x="0px" y="0px" viewBox="0 0 50 50" enable-background="new 0 0 50 50" xml:space="preserve"><g><path d="M47.2,19.1c-0.7-0.7-1.8-1-2.8-0.7c-0.2,0.1-0.5,0-0.7-0.2l-0.2-0.2c-0.2-0.2-0.3-0.5-0.2-0.7c0.3-1,0-2.1-0.7-2.8   l-0.7-0.7l0.1-0.1c1.7-1.7,1.7-4.5,0-6.2c-0.8-0.8-1.9-1.3-3.1-1.3c-1.2,0-2.3,0.5-3.1,1.3l0,0l-2.5-2.5C31.9,3.7,30.3,3,28.6,3   S25.2,3.7,24,4.9l-0.4,0.4c-0.5,0.5-0.7,1.2-0.5,1.9c0.2,0.7,0.8,1.2,1.6,1.3c0.7,0.1,1.2,0.4,1.7,0.9c1.1,1.1,1.2,2.8,0.4,4   c-0.5,0.8-0.4,1.8,0.2,2.4l0.1,0.1l-5.8,5.9l-4.6-4.6c0.6-2.7-0.3-5.4-2.1-7.3c-2.2-2.2-5.3-2.9-8.2-1.9C6.1,8.2,5.8,8.4,5.8,8.8   C5.7,9.1,5.8,9.5,6,9.7l3.2,3.2l-2.9,2.9l-3.2-3.2c-0.2-0.2-0.6-0.3-0.9-0.3c-0.3,0.1-0.6,0.3-0.7,0.6c-1,2.9-0.3,6,1.9,8.2   c1.9,1.9,4.5,2.7,7.3,2.2l4.7,4.6l-6.9,7c-1.6,1.6-1.6,4.3,0,6l0.2,0.2c1.6,1.6,4.3,1.7,5.9,0l6.9-6.9l3.2,3.2   c-0.1,0.5-0.2,1-0.2,1.6c0,2.1,0.8,4.2,2.3,5.7c1.5,1.5,3.5,2.3,5.6,2.3c0.9,0,1.7-0.1,2.6-0.4c0.3-0.1,0.6-0.4,0.7-0.7   c0.1-0.3,0-0.7-0.3-0.9l-3.2-3.2l2.9-2.9l3.2,3.2c0.2,0.2,0.6,0.3,0.9,0.3c0.3-0.1,0.6-0.3,0.7-0.6c1-2.9,0.3-6-1.9-8.2   c-1.5-1.5-3.5-2.3-5.6-2.3c0,0,0,0-0.1,0c-0.5,0-1.1,0.1-1.6,0.2L27.5,28l5.8-5.9l0.7,0.7c0.7,0.7,1.8,1,2.8,0.7   c0.2-0.1,0.5,0,0.7,0.2l0.2,0.2c0.2,0.2,0.3,0.5,0.2,0.7c-0.3,1,0,2.1,0.7,2.8l1,1c0.5,0.5,1.2,0.8,2,0.8c0.8,0,1.5-0.3,2-0.8   l4.5-4.5c1.1-1.1,1.1-2.9,0-4L47.2,19.1z M40.5,8.8c0.9,0.9,0.9,2.4,0,3.4l-3.4-3.4C38,7.9,39.6,7.9,40.5,8.8z M11.7,21.6   c-0.2-0.3-0.7-0.5-1.1-0.4c-1.9,0.6-4.2,0.2-5.9-1.5c-1.2-1.2-1.8-2.8-1.7-4.4l2.6,2.6c0.4,0.4,1,0.4,1.4,0l4.4-4.3   c0.2-0.2,0.3-0.4,0.3-0.7s-0.1-0.5-0.3-0.7L8.8,9.6c1.6,0,3.2,0.6,4.4,1.8c1.6,1.6,2.1,4,1.5,5.9c-0.1,0.3,0,0.8,0.3,1l0.1,0.1   c0,0,0,0,0,0l4.9,4.9l-3.2,3.3L11.7,21.6z M29.7,33c0.2,0.3,0.7,0.5,1.1,0.4c0.5-0.2,1.1-0.2,1.7-0.2c0,0,0,0,0,0   c1.6,0,3.1,0.6,4.3,1.7c1.2,1.2,1.8,2.8,1.7,4.4l-2.6-2.6c-0.4-0.4-1-0.4-1.4,0L30.1,41c-0.2,0.2-0.3,0.4-0.3,0.7s0.1,0.5,0.3,0.7   l2.5,2.5c-1.6,0.1-3.2-0.6-4.4-1.8c-1.1-1.1-1.7-2.6-1.7-4.2c0-0.6,0.1-1.1,0.3-1.6c0.1-0.3,0-0.8-0.3-1l-0.1-0.1c0,0,0,0,0,0   l-3.6-3.6l3.2-3.2L29.7,33z M25.4,27.3L25.4,27.3C25.4,27.3,25.4,27.3,25.4,27.3L13.2,39.6c-0.8,0.8-2.3,0.8-3.1,0l-0.2-0.2   c-0.9-0.9-0.9-2.3,0-3.1l7.6-7.7c0,0,0,0,0,0l0,0l11.2-11.2l3.4,3.4L25.4,27.3z M46.8,22.6l-4.5,4.5c-0.3,0.3-0.8,0.3-1.2,0l-1-1   c-0.2-0.2-0.3-0.5-0.2-0.8c0.3-0.9,0-2-0.7-2.7L39,22.4c-0.7-0.7-1.7-1-2.7-0.7c-0.3,0.1-0.6,0-0.8-0.2l-7-7c1.4-2,1.1-4.8-0.6-6.5   c-0.8-0.8-1.7-1.2-2.7-1.4l0.3-0.3c0.8-0.8,2-1.3,3.1-1.3s2.3,0.5,3.1,1.3l9.4,9.4c0.2,0.2,0.3,0.5,0.2,0.8c-0.3,0.9,0,2,0.7,2.7   l0.2,0.2c0.7,0.7,1.8,1,2.7,0.7c0.3-0.1,0.6,0,0.8,0.2l1,1C47.1,21.7,47.1,22.3,46.8,22.6z"></path></g></svg>