<svg height='100px' width='100px'  fill="#000000" xmlns="http://www.w3.org/2000/svg" xmlns:xlink="http://www.w3.org/1999/xlink" version="1.1" x="0px" y="0px" viewBox="0 0 66 66" enable-background="new 0 0 66 66" xml:space="preserve"><g><g><path d="M23.4,27.6c0,1.9,1.6,3.5,3.5,3.5c1.9,0,3.5-1.6,3.5-3.5C30.4,22.9,23.4,22.9,23.4,27.6z M26.9,29.1    c-0.8,0-1.5-0.7-1.5-1.5c0-0.8,0.7-1.5,1.5-1.5s1.5,0.7,1.5,1.5C28.4,28.4,27.7,29.1,26.9,29.1z"></path></g><g><path d="M44.1,11c1.7,0,3.1-1.4,3.1-3.1c0-1.7-1.4-3.1-3.1-3.1c-1.7,0-3.1,1.4-3.1,3.1C41,9.6,42.4,11,44.1,11z M44.1,6.7    c0.6,0,1.1,0.5,1.1,1.1S44.7,9,44.1,9S43,8.5,43,7.8S43.5,6.7,44.1,6.7z"></path></g><g><path d="M64.5,36l-4.9-2.9v-3.2c2.5-0.5,4.4-2.7,4.4-5.3c0-1.3-0.5-2.6-1.3-3.5c0,0,0,0,0,0L49.1,4c0,0,0,0,0,0    c-1.2-1.5-3-2.5-5-2.5c-1.8,0-3.4,0.7-4.5,1.9c0,0,0,0,0,0L22.4,21.8c-1.7,1.3-2.9,3.4-2.9,5.8c0,1.4,0.4,2.6,1,3.7v6.4h-3    c-2.8,0-5.1,2.3-5.1,5.1v2.3C6.1,45.6,1,51,1,57.5v6c0,0.6,0.4,1,1,1h47.5c0.6,0,1-0.4,1-1v-6c0-5.7-3.9-10.6-9.2-12.1v-2.7    c0-2.8-2.3-5.1-5.1-5.1h-3v-6.3l13.1-16.2l7.2,11.5c0.3,0.6,0.6,1.2,1.1,1.6c0,0,0,0,0,0c0.8,0.8,1.8,1.4,2.9,1.6v3.2L52.6,36    c-0.3,0.2-0.5,0.5-0.5,0.9v6.3c0,0.4,0.2,0.7,0.5,0.9l2.1,1.2v15.9c0,1,0.9,1.9,1.9,1.9h3.8c1,0,1.9-0.8,1.9-1.9V45.2l2.1-1.2    c0.3-0.2,0.5-0.5,0.5-0.9v-6.3C65,36.5,64.8,36.1,64.5,36z M58.6,28c-1,0-1.9-0.4-2.5-1.1l-0.7-1.1c-0.1-0.4-0.2-0.8-0.2-1.2    c0-1.9,1.5-3.4,3.4-3.4c1.9,0,3.4,1.5,3.4,3.4C62,26.5,60.5,28,58.6,28z M48.5,7.8c0,0.8-0.2,1.5-0.6,2.2    c-0.2,0.2-1.2,2.2-3.7,2.2c-2.4,0-4.3-2-4.3-4.3c0-2.4,2-4.3,4.3-4.3C46.5,3.5,48.5,5.4,48.5,7.8z M37.8,8.2    c0.2,3.3,3,5.9,6.3,5.9c0.1,0,0.3,0,0.4,0L34.2,27c-0.3-3.8-3.6-6.9-7.6-6.7L37.8,8.2z M26.9,32.9c-2.9,0-5.3-2.4-5.3-5.3    c0-2.9,2.4-5.3,5.3-5.3c2.9,0,5.3,2.4,5.3,5.3C32.2,30.5,29.9,32.9,26.9,32.9z M48.5,57.5v5H3v-5C3,51.7,7.7,47,13.5,47h1.3v4    l-2.4,0.6c-0.5-0.7-1.4-1.2-2.3-1.2c-1.6,0-2.9,1.3-2.9,2.9c0,1.6,1.3,2.9,2.9,2.9c1.6,0,2.9-1.2,2.9-2.8l3.1-0.8    c0.4-0.1,0.7-0.5,0.7-1V47h3.3v7.7l-0.9,1.2c-0.3-0.1-0.6-0.2-1-0.2c-1.6,0-2.9,1.3-2.9,2.9c0,1.6,1.3,2.9,2.9,2.9    c1.6,0,2.9-1.3,2.9-2.9c0-0.5-0.2-1-0.4-1.5l1.2-1.6c0.1-0.2,0.2-0.4,0.2-0.6V47h5.4v8.1c0,0.2,0.1,0.4,0.2,0.6l1.2,1.6    c-0.3,0.4-0.4,0.9-0.4,1.5c0,1.6,1.3,2.9,2.9,2.9s2.9-1.3,2.9-2.9c0-1.6-1.3-2.9-2.9-2.9c-0.3,0-0.7,0.1-1,0.2l-0.9-1.2V47h3.3    v4.8c0,0.5,0.3,0.8,0.7,1l3.1,0.8c0.1,1.6,1.4,2.8,2.9,2.8c1.6,0,2.9-1.3,2.9-2.9c0-1.6-1.3-2.9-2.9-2.9c-1,0-1.8,0.5-2.3,1.2    L34.9,51v-4h3C43.7,47,48.5,51.7,48.5,57.5z M11.1,53.5c0,0.5-0.4,0.9-0.9,0.9c-0.5,0-0.9-0.4-0.9-0.9c0-0.5,0.4-0.9,0.9-0.9    C10.6,52.5,11.1,52.9,11.1,53.5z M19.2,58.7c0,0.5-0.4,0.9-0.9,0.9c-0.5,0-0.9-0.4-0.9-0.9c0-0.5,0.4-0.9,0.9-0.9    C18.8,57.8,19.2,58.2,19.2,58.7z M31.5,57.8c0.5,0,0.9,0.4,0.9,0.9c0,0.5-0.4,0.9-0.9,0.9c-0.5,0-0.9-0.4-0.9-0.9    C30.5,58.2,31,57.8,31.5,57.8z M38.7,53.5c0-0.5,0.4-0.9,0.9-0.9c0.5,0,0.9,0.4,0.9,0.9c0,0.5-0.4,0.9-0.9,0.9    C39.1,54.4,38.7,54,38.7,53.5z M39.3,42.7V45h-1.4H14.5v-2.3c0-1.7,1.4-3.1,3.1-3.1c-0.1,0,4.5,0,18.6,0    C37.9,39.6,39.3,41,39.3,42.7z M22.6,37.6v-4.1c2.5,1.8,6,1.9,8.6,0v4.1H22.6z M50.4,8.8l8.2,10.4c0,0,0,0-0.1,0    c-2.4,0-4.4,1.5-5.1,3.6l-5.8-9.3C48.8,12,50.1,11.1,50.4,8.8z M60.4,61h-3.6c0-4.5,0-13.6,0-18.1l1.7-1.1l1.9,1.2    C60.4,47.4,60.4,56.5,60.4,61z M63,42.5l-0.6,0.4v-0.6c0-0.3-0.2-0.7-0.5-0.8L59,39.7c-0.2-0.1-0.3-0.2-0.5-0.2    c-0.2,0-0.4,0.1-0.5,0.2l-2.7,1.8c-0.3,0.2-0.5,0.5-0.5,0.8v0.6l-0.6-0.4v-5.1l4.4-2.6l4.4,2.6V42.5z"></path></g><g><path d="M57.6,24.6c0,0.6,0.5,1,1,1c0.6,0,1-0.4,1-1c0-0.3-0.1-0.5-0.3-0.7C58.7,23.3,57.6,23.6,57.6,24.6z"></path></g></g></svg>