<svg height='100px' width='100px'  fill="#000000" xmlns="http://www.w3.org/2000/svg" xmlns:xlink="http://www.w3.org/1999/xlink" version="1.1" x="0px" y="0px" viewBox="0 0 64 64" style="enable-background:new 0 0 64 64;" xml:space="preserve"><g><path d="M63,47V37h-4.769c-0.312-1.02-0.721-2.005-1.217-2.943l3.37-3.371l-5.737-5.737c0.148-0.639,0.239-1.291,0.289-1.95H57v-2   h-2.051c-0.081-1.051-0.281-2.067-0.598-3.034l1.89-0.783l-0.766-1.848l-1.896,0.785c-0.472-0.925-1.048-1.787-1.718-2.569   l1.452-1.452l-1.414-1.414l-1.452,1.452c-0.782-0.671-1.643-1.246-2.569-1.718l0.786-1.896l-1.848-0.766l-0.783,1.89   C45.067,9.332,44.051,9.131,43,9.051V7h-2v2.042C40.244,9.1,39.497,9.22,38.766,9.408C34.93,4.314,28.852,1,22,1   C10.421,1,1,10.42,1,22c0,11.242,8.887,20.422,20,20.949V47h4.769c0.312,1.02,0.721,2.005,1.217,2.943l-3.37,3.371l7.071,7.071   l3.37-3.371c0.938,0.497,1.924,0.905,2.943,1.218V63h10v-4.768c1.02-0.313,2.005-0.721,2.943-1.218l3.37,3.371l7.071-7.071   l-3.37-3.371c0.496-0.938,0.904-1.923,1.217-2.943H63z M42,11c6.065,0,11,4.935,11,11c0,0.732-0.093,1.454-0.234,2.163   l-2.822,2.823c-0.938-0.497-1.924-0.905-2.943-1.218V21h-4.051c-0.17-3.577-1.232-6.915-2.978-9.808C40.637,11.068,41.314,11,42,11   z M3,22C3,11.523,11.523,3,22,3s19,8.523,19,19s-8.523,19-19,19S3,32.477,3,22z M33.327,39.656   c2.536-1.633,4.696-3.792,6.329-6.329C40.417,33.121,41.201,33,42,33c4.963,0,9,4.038,9,9s-4.037,9-9,9s-9-4.038-9-9   C33,41.201,33.121,40.417,33.327,39.656z M57.557,53.313l-4.243,4.243l-3.039-3.04l-0.668,0.395   c-1.2,0.708-2.497,1.246-3.856,1.596L45,56.701V61h-6v-4.299l-0.75-0.193c-1.359-0.351-2.656-0.888-3.856-1.596l-0.668-0.395   l-3.039,3.04l-4.243-4.243l3.039-3.039l-0.394-0.667c-0.708-1.2-1.245-2.497-1.596-3.857L27.299,45H23v-2.051   c2.876-0.136,5.598-0.849,8.06-2.033C31.024,41.275,31,41.636,31,42c0,6.065,4.935,11,11,11s11-4.935,11-11s-4.935-11-11-11   c-0.364,0-0.724,0.024-1.084,0.059c1.184-2.462,1.897-5.183,2.033-8.059H45v4.299l0.75,0.193c1.359,0.351,2.656,0.888,3.856,1.596   l0.668,0.395l3.039-3.04l4.243,4.243l-3.039,3.039l0.394,0.667c0.708,1.2,1.245,2.497,1.596,3.857L56.701,39H61v6h-4.299   l-0.194,0.75c-0.351,1.36-0.888,2.657-1.596,3.857l-0.394,0.667L57.557,53.313z"></path><path d="M39,22c0-9.374-7.626-17-17-17S5,12.626,5,22s7.626,17,17,17S39,31.374,39,22z M21,36.949v-7.019   C21.328,29.972,21.661,30,22,30s0.672-0.028,1-0.069v7.019C22.668,36.971,22.338,37,22,37S21.332,36.971,21,36.949z M7,22   c0-1.659,0.282-3.251,0.782-4.745l6.304,3.64C14.035,21.257,14,21.624,14,22s0.035,0.743,0.086,1.105l-6.304,3.64   C7.282,25.251,7,23.659,7,22z M14.627,18.898l-6.072-3.506c0.296-0.6,0.618-1.186,0.989-1.738l6.093,3.518   C15.234,17.701,14.889,18.277,14.627,18.898z M14.627,25.102c0.262,0.621,0.607,1.196,1.01,1.726l-6.093,3.518   c-0.371-0.552-0.693-1.137-0.989-1.738L14.627,25.102z M16,22c0-3.309,2.691-6,6-6s6,2.691,6,6s-2.691,6-6,6S16,25.309,16,22z    M37,22c0,1.659-0.282,3.251-0.781,4.745l-6.304-3.64C29.965,22.743,30,22.376,30,22s-0.035-0.743-0.086-1.105l6.304-3.64   C36.718,18.749,37,20.341,37,22z M29.373,25.102l6.072,3.506c-0.296,0.6-0.618,1.186-0.989,1.738l-6.093-3.518   C28.766,26.299,29.111,25.723,29.373,25.102z M29.373,18.898c-0.262-0.621-0.607-1.196-1.01-1.726l6.093-3.518   c0.371,0.552,0.693,1.137,0.989,1.738L29.373,18.898z M25,36.698v-7.287c0.692-0.281,1.333-0.657,1.913-1.111l6.295,3.635   C31.091,34.32,28.24,36.037,25,36.698z M33.208,12.065L26.913,15.7c-0.58-0.453-1.221-0.83-1.913-1.111V7.302   C28.24,7.963,31.091,9.68,33.208,12.065z M23,7.051v7.019C22.672,14.028,22.339,14,22,14s-0.672,0.028-1,0.069V7.051   C21.332,7.029,21.662,7,22,7S22.668,7.029,23,7.051z M19,7.302v7.287c-0.692,0.281-1.333,0.657-1.913,1.111l-6.295-3.635   C12.909,9.68,15.76,7.963,19,7.302z M10.792,31.935l6.295-3.635c0.58,0.453,1.221,0.83,1.913,1.111v7.287   C15.76,36.037,12.909,34.32,10.792,31.935z"></path><path d="M22,26c2.206,0,4-1.794,4-4s-1.794-4-4-4s-4,1.794-4,4S19.794,26,22,26z M22,20c1.103,0,2,0.897,2,2s-0.897,2-2,2   s-2-0.897-2-2S20.897,20,22,20z"></path></g></svg>