<svg height='100px' width='100px'  fill="#000000" xmlns="http://www.w3.org/2000/svg" xmlns:xlink="http://www.w3.org/1999/xlink" version="1.1" x="0px" y="0px" viewBox="0 0 64 64" style="enable-background:new 0 0 64 64;" xml:space="preserve"><path d="M8,47.5c0-4.687,3.813-8.5,8.5-8.5h1.089c1.19,2.928,4.061,5,7.411,5h7c0.553,0,1-0.448,1-1v-3h5v-2h-5v-4h5v-2h-5v-3  c0-0.552-0.447-1-1-1h-7c-3.35,0-6.221,2.072-7.411,5H16.5C8.505,33,2,39.505,2,47.5S8.505,62,16.5,62H62v-2H16.5  C9.607,60,4,54.393,4,47.5S9.607,35,16.5,35h0.569C17.028,35.328,17,35.661,17,36s0.028,0.672,0.069,1H16.5C10.71,37,6,41.71,6,47.5  S10.71,58,16.5,58H62v-2H16.5C11.813,56,8,52.187,8,47.5z M31,42h-2V30h2V42z M25,30h2v12h-2c-3.309,0-6-2.691-6-6S21.691,30,25,30z  "></path><path d="M42.132,28.504c-2.643,4.624-2.643,10.369,0,14.992C42.31,43.808,42.642,44,43,44h14c0.358,0,0.69-0.192,0.868-0.504  c2.643-4.624,2.643-10.369,0-14.992C57.69,28.192,57.358,28,57,28H43C42.642,28,42.31,28.192,42.132,28.504z M56.405,30  c1.928,3.75,1.928,8.25,0,12H43.595c-1.928-3.75-1.928-8.25,0-12H56.405z"></path><rect x="49" y="38" width="2" height="2"></rect><rect x="45" y="32" width="2" height="5"></rect><rect x="53" y="32" width="2" height="5"></rect><path d="M18.817,27.407l1.826-0.814c-1.009-2.262-0.826-4.866,0.486-6.967c1.378-2.203,1.511-5.015,0.349-7.339l-0.025-0.051  l2.426,1.213c1.003,0.501,2.192,0.463,3.105-0.101c0.828-0.512,1.303-1.368,1.303-2.348V4.84l2.192,1.421  c6.535,4.158,10.429,8.409,11.261,12.293c0.579,2.704,0.18,5.536-1.125,7.974l1.764,0.943c1.527-2.854,1.995-6.169,1.316-9.336  c-0.96-4.483-5.045-9.046-12.135-13.557l-3.729-2.418c-0.308-0.201-0.7-0.215-1.021-0.04C26.487,2.296,26.287,2.633,26.287,3v8  c0,0.284-0.119,0.501-0.354,0.647c-0.321,0.2-0.776,0.205-1.159,0.013l-5.109-2.555c-0.385-0.191-0.85-0.118-1.154,0.188  c-0.305,0.304-0.38,0.769-0.188,1.154l1.367,2.734c0.853,1.705,0.755,3.768-0.255,5.384C17.768,21.232,17.537,24.537,18.817,27.407z  "></path><path d="M36.784,27.331c0.766-2.184,0.657-4.535-0.305-6.621l-4.676-10.129c-0.182-0.393-0.588-0.622-1.025-0.574  c-0.43,0.051-0.778,0.373-0.863,0.797l-1.443,7.219c-0.28,1.4-1.245,2.535-2.582,3.037c-2.491,0.934-4.055,3.276-3.983,5.967  l2-0.054c-0.037-1.386,0.644-3.275,2.686-4.041c1.988-0.746,3.425-2.435,3.841-4.517l0.842-4.208l3.389,7.342  c0.744,1.612,0.827,3.43,0.234,5.121L36.784,27.331z"></path><path d="M55.992,7.124c0.048-0.379-0.126-0.753-0.446-0.962c-0.321-0.208-0.732-0.216-1.061-0.02l-1.923,1.154  C50.365,8.615,49,11.025,49,13.588c0,0.24-0.16,0.342-0.255,0.382c-0.096,0.041-0.281,0.081-0.451-0.089  c-1.558-1.558-2.634-3.519-3.111-5.669l-1.206-5.428c-0.079-0.356-0.347-0.641-0.697-0.743c-0.348-0.103-0.728-0.006-0.986,0.253  l-2.466,2.465c-0.851,0.852-1.377,1.932-1.521,3.121l1.984,0.242c0.091-0.743,0.42-1.417,0.952-1.95l1.177-1.176l0.811,3.65  c0.562,2.522,1.823,4.822,3.65,6.65c0.692,0.692,1.725,0.897,2.631,0.522C50.415,15.442,51,14.567,51,13.588  c0-1.864,0.993-3.618,2.592-4.577l0.161-0.097l-0.513,4.101c-0.171,1.37-0.065,2.736,0.313,4.062  c0.817,2.856,0.019,5.937-2.082,8.038l-1.178,1.178l1.414,1.414l1.178-1.178c2.614-2.614,3.607-6.447,2.592-10.001  c-0.305-1.065-0.39-2.164-0.252-3.264L55.992,7.124z"></path></svg>