<svg height='100px' width='100px'  fill="#000000" xmlns="http://www.w3.org/2000/svg" xmlns:xlink="http://www.w3.org/1999/xlink" version="1.1" x="0px" y="0px" viewBox="0 0 67 67" enable-background="new 0 0 67 67" xml:space="preserve"><g><path d="M23.6537399,30.2802105h1.5107422c1.2900391,0,2.3388672-1.015625,2.3388672-2.2641602V7.8851905   c0-1.2485352-1.0488281-2.2641602-2.3388672-2.2641602h-1.5107422c-1.2900391,0-2.3388672,1.015625-2.3388672,2.2641602v20.1308594   C21.3148727,29.2645855,22.3637009,30.2802105,23.6537399,30.2802105z M22.8148727,7.8851905   c0-0.4213867,0.3759766-0.7641602,0.8388672-0.7641602h1.5107422c0.4628906,0,0.8388672,0.3427734,0.8388672,0.7641602v5.3706059   h-3.1884766V7.8851905z M22.8148727,14.7557964h3.1884766v6.875h-3.1884766V14.7557964z M22.8148727,23.1307964h3.1884766   v4.8852539c0,0.4213867-0.3759766,0.7641602-0.8388672,0.7641602h-1.5107422c-0.4628906,0-0.8388672-0.3427734-0.8388672-0.7641602   V23.1307964z"></path><path d="M19.3939743,48.0980797c0.1445313,0.1533203,0.34375,0.2353516,0.5458984,0.2353516   c0.0927734,0,0.1865234-0.0170898,0.2763672-0.0527344c0.2861328-0.1137695,0.4736328-0.3901367,0.4736328-0.6972656v-8.4335938   c0-0.2114258-0.0898438-0.4135742-0.2460938-0.5556641l-4.5205088-4.0991211   c-0.9082031-0.8227539-2.40625-0.7851563-3.2695313,0.0795898l-1.4658203,1.4663086   c-0.8955078,0.8955078-0.9306641,2.331543-0.0703125,3.2802734L19.3939743,48.0980797z M19.1898727,39.482357v6.2124023   l-3.6322641-3.8518066l2.6306772-3.2687988L19.1898727,39.482357z M12.2484655,37.1019859l1.4658203-1.4667969   c0.3272705-0.3282471,0.8560791-0.3415527,1.2011719-0.0288086l2.1600962,1.9587402l-2.5564585,3.1765137l-2.2999268-2.4389648   C11.9066687,37.9584312,11.919364,37.4310875,12.2484655,37.1019859z"></path><path d="M31.1234665,0.7499368c-1.2900391,0-2.3388672,1.015625-2.3388672,2.2641602c0,14.1296387,0,9.5469971,0,25.0019531   c0,1.2485352,1.0488281,2.2641602,2.3388672,2.2641602h1.5107422c1.2900391,0,2.3388672-1.015625,2.3388672-2.2641602V3.014097   c0-1.2485352-1.0488281-2.2641602-2.3388672-2.2641602H31.1234665z M33.4730759,28.0160503   c0,0.4213867-0.3759766,0.7641602-0.8388672,0.7641602h-1.5107422c-0.4628906,0-0.8388672-0.3427734-0.8388672-0.7641602   v-9.0727539h3.1884766V28.0160503z M33.4730759,17.4432964h-3.1884766v-6.875h3.1884766V17.4432964z M33.4730759,3.014097   v6.0541992h-3.1884766V3.014097c0-0.4213867,0.3759766-0.7641602,0.8388672-0.7641602h1.5107422   C33.0970993,2.2499368,33.4730759,2.5927103,33.4730759,3.014097z"></path><path d="M40.1039352,2.8373392h-1.5107422c-1.2900391,0-2.3388672,1.0161133-2.3388672,2.2646482   c0,14.7677002,0,8.1929932,0,22.9140625c0,1.2485352,1.0488281,2.2641602,2.3388672,2.2641602h1.5107422   c1.2900391,0,2.3388672-1.015625,2.3388672-2.2641602V5.1019874C42.4428024,3.8534524,41.3939743,2.8373392,40.1039352,2.8373392z    M40.9428024,28.0160503c0,0.4213867-0.3759766,0.7641602-0.8388672,0.7641602h-1.5107422   c-0.4628906,0-0.8388672-0.3427734-0.8388672-0.7641602V22.978941h3.1884766V28.0160503z M40.9428024,21.478941h-3.1884766v-6.875   h3.1884766V21.478941z M40.9428024,13.103941h-3.1884766V5.1019874c0-0.4213867,0.3759766-0.7646484,0.8388672-0.7646484h1.5107422   c0.4628906,0,0.8388672,0.3432617,0.8388672,0.7646484V13.103941z"></path><path d="M46.0629196,9.7963238c-1.2900391,0-2.3388672,1.0161133-2.3388672,2.2646484c0,5.5549316,0,10.3397217,0,15.9550781   c0,1.2485352,1.0488281,2.2641602,2.3388672,2.2641602h1.5107422c1.2900391,0,2.3388672-1.015625,2.3388672-2.2641602V12.0609722   c0-1.2485352-1.0488281-2.2646484-2.3388672-2.2646484H46.0629196z M48.412529,28.0160503   c0,0.4213867-0.3759766,0.7641602-0.8388672,0.7641602h-1.5107422c-0.4628906,0-0.8388672-0.3427734-0.8388672-0.7641602   v-2.8291016h3.1884766V28.0160503z M48.412529,23.6869488h-3.1884766v-6.8745117h3.1884766V23.6869488z M48.412529,12.0609722   v3.2514648h-3.1884766v-3.2514648c0-0.421875,0.3759766-0.7646484,0.8388672-0.7646484h1.5107422   C48.0365524,11.2963238,48.412529,11.6390972,48.412529,12.0609722z"></path><path d="M39.5111618,36.8139c0-0.4140625-0.3359375-0.75-0.75-0.75H28.4398727   c-1.5019531,0-2.7246094,1.2226563-2.7246094,2.7250977v6.6103516c0,0.4140625,0.3359375,0.75,0.75,0.75s0.75-0.3359375,0.75-0.75   v-6.6103516c0-0.675293,0.5498047-1.2250977,1.2246094-1.2250977h10.3212891   C39.1752243,37.5639,39.5111618,37.2279625,39.5111618,36.8139z"></path><path d="M44.7367477,38.0389977c-0.4140625,0-0.75,0.3359375-0.75,0.75v6.6103516   c0,0.675293-0.5498047,1.2250977-1.2246094,1.2250977H31.4408493c-0.4140625,0-0.75,0.3359375-0.75,0.75s0.3359375,0.75,0.75,0.75   h11.3212891c1.5019531,0,2.7246094-1.2226563,2.7246094-2.7250977v-6.6103516   C45.4867477,38.3749352,45.1508102,38.0389977,44.7367477,38.0389977z"></path><path d="M40.3207321,61.5199547c1.7783203,0,3.2255859-1.4467773,3.2255859-3.2246094s-1.4472656-3.2246094-3.2255859-3.2246094   s-3.2246094,1.4467773-3.2246094,3.2246094S38.5424118,61.5199547,40.3207321,61.5199547z M40.3207321,56.5707359   c0.9511719,0,1.7255859,0.7734375,1.7255859,1.7246094s-0.7744141,1.7246094-1.7255859,1.7246094   s-1.7246094-0.7734375-1.7246094-1.7246094S39.3695602,56.5707359,40.3207321,56.5707359z"></path><path d="M55.756279,66.249939c0.4140625,0,0.75-0.3359375,0.75-0.75v-4.2158241   c0-3.2016602-2.6044922-5.8066406-5.8066406-5.8066406h-3.8603516v-3.3728638   c1.4767456-0.1077881,2.6494141-1.3305054,2.6494141-2.8341675V34.9179039c0-1.5742188-1.28125-2.8549805-2.8554688-2.8549805   H24.568779c-1.5742188,0-2.8544922,1.2807617-2.8544922,2.8549805V49.270443c0,1.5039673,1.1723633,2.7269287,2.6494141,2.8342285   v13.3913612c0,0.4140625,0.3359375,0.75,0.75,0.75h20.9755859c0.4140625,0,0.75-0.3359375,0.75-0.75v-8.5185585h3.8603516   c2.375,0,4.3066406,1.9321289,4.3066406,4.3066406v4.2158241C55.006279,65.9140015,55.3422165,66.249939,55.756279,66.249939z    M45.3392868,64.7460327H25.8637009V52.1254234h19.4755859V64.7460327z M46.6337814,50.6253624   c-0.1429443-0.0004272-2.9064331-0.0025024-22.0650024,0.000061c-0.7470703,0-1.3544922-0.6079102-1.3544922-1.3549805V34.9179039   c0-0.7470703,0.6074219-1.3549805,1.3544922-1.3549805h22.0644531c0.7470703,0,1.3554688,0.6079102,1.3554688,1.3549805V49.270443   C47.9887009,50.0173302,47.3806686,50.6249962,46.6337814,50.6253624z"></path></g></svg>