<svg height='100px' width='100px'  fill="#000000" xmlns="http://www.w3.org/2000/svg" data-name="Layer 3" viewBox="0 0 64 64" x="0px" y="0px"><title>FIREWALL-fire-brickwall-architecture and city-architecture</title><path d="M59,35.07V2a1,1,0,0,0-1-1H2A1,1,0,0,0,1,2V52a1,1,0,0,0,1,1H30.53A17,17,0,1,0,59,35.07ZM29.75,41H24V33H35.07A17.08,17.08,0,0,0,29.75,41ZM10,41V33H22v8ZM57,21H52V13h5Zm-7,0H38V13H50ZM17,31V23H29v8Zm7-10V13H36v8Zm7-10V3H43v8Zm-2,0H17V3H29Zm-7,2v8H10V13ZM8,21H3V13H8Zm7,2v8H3V23ZM8,33v8H3V33Zm30-2H31V23H43v6.28A16.9,16.9,0,0,0,38,31Zm7-8H57v8H54a16.92,16.92,0,0,0-8-2c-.34,0-.67,0-1,.05ZM57,33v.06L56.93,33Zm0-22H45V3H57ZM15,3v8H3V3ZM3,43H15v8H3Zm14,8V43H29.28A17.43,17.43,0,0,0,29,46a17.19,17.19,0,0,0,.75,5ZM46,61A15,15,0,1,1,61,46,15,15,0,0,1,46,61Z"></path><path d="M51.2,43.2A8.9,8.9,0,0,1,48,36.36V36a1,1,0,0,0-.62-.92,1,1,0,0,0-1.09.21L42,39.64a13.36,13.36,0,0,0-4,9.53A7.82,7.82,0,0,0,45.83,57h.34a7.81,7.81,0,0,0,5-13.8ZM45.83,55h-.08l-.19-.67a12.47,12.47,0,0,1,.5-8.24,12.51,12.51,0,0,1,1.28,7.49l-.19,1.33a5.33,5.33,0,0,1-1,.09Zm4.46-1.71a6,6,0,0,1-1,.81l0-.24a14.48,14.48,0,0,0-1.91-9.47l-.54-.9a1,1,0,0,0-1.72,0,14.45,14.45,0,0,0-1.58,11,5.87,5.87,0,0,1-1.85-1.25A5.79,5.79,0,0,1,40,49.17a11.4,11.4,0,0,1,3.36-8.12l2.8-2.8a10.89,10.89,0,0,0,3.76,6.49,5.79,5.79,0,0,1,.37,8.55Z"></path></svg>