<svg height='100px' width='100px'  fill="#000000" xmlns:x="http://ns.adobe.com/Extensibility/1.0/" xmlns:i="http://ns.adobe.com/AdobeIllustrator/10.0/" xmlns:graph="http://ns.adobe.com/Graphs/1.0/" xmlns="http://www.w3.org/2000/svg" xmlns:xlink="http://www.w3.org/1999/xlink" version="1.1" x="0px" y="0px" viewBox="-255 347 100 100" style="enable-background:new -255 347 100 100;" xml:space="preserve"><g><g i:extraneous="self"><path d="M-189.8,409.5c0.7,0.7,0.7,1.9,0,2.6c-0.4,0.4-0.8,0.5-1.3,0.5c-0.5,0-1-0.2-1.3-0.5l-27.7-27.7c-0.7-0.7-0.7-1.9,0-2.6    c0.7-0.7,1.9-0.7,2.6,0L-189.8,409.5z M-165.8,410.3c4.6,4.6,6.5,11.4,4.9,17.8c-0.2,0.8-0.9,1.5-1.7,1.7c-0.8,0.2-1.7,0-2.3-0.6    l-6.8-6.8c-0.6-0.6-1.5-1-2.4-1c0,0,0,0,0,0c-0.9,0-1.7,0.3-2.4,1l-3.1,3.1c-0.6,0.6-1,1.5-1,2.4c0,0.9,0.3,1.7,1,2.4l7.2,7.2    c0.6,0.6,0.8,1.4,0.6,2.3c-0.2,0.8-0.8,1.5-1.6,1.7c-1.9,0.6-3.8,0.9-5.8,0.9c-4.9,0-9.6-1.9-13.2-5.5c-4-4-6-9.6-5.3-15.3    c0.3-2.3-0.5-4.5-2-6.1l-24.2-24.2c-1.5-1.5-3.7-2.3-6-2.2c-5.4,0.4-10.7-1.6-14.5-5.4c-4.6-4.6-6.5-11.4-4.9-17.8    c0.2-0.8,0.9-1.5,1.7-1.7c0.8-0.2,1.7,0,2.3,0.6l6.8,6.8c1.3,1.3,3.4,1.3,4.7,0l3.1-3.1c1.3-1.3,1.3-3.4,0-4.7l-7.2-7.2    c-0.6-0.6-0.8-1.4-0.6-2.3c0.2-0.8,0.8-1.5,1.6-1.7c6.7-2.1,14-0.4,18.9,4.6c4,4,6,9.6,5.3,15.3c-0.3,2.4,0.5,4.7,2.2,6.4    l23.8,23.8c0,0,0.1,0.1,0.1,0.1c1.5,1.5,3.7,2.3,6,2.2C-174.9,404.5-169.6,406.5-165.8,410.3z M-168.4,413c-3-3-7.3-4.6-11.6-4.3    c-3.2,0.2-6.3-0.9-8.6-3c-0.1-0.1-0.2-0.1-0.3-0.2l-23.9-23.9c-2.5-2.5-3.6-5.9-3.2-9.4c0.5-4.5-1.1-9-4.3-12.2    c-3.4-3.4-8.2-4.9-12.9-4.2l5.5,5.5c2.8,2.8,2.8,7.3,0,10l-3.1,3.1c-2.8,2.8-7.3,2.8-10,0l-5-5c-0.4,4.3,1.2,8.6,4.3,11.7    c3,3,7.3,4.6,11.6,4.3c3.3-0.2,6.6,1,8.9,3.3l23.8,23.8c0,0,0.1,0.1,0.1,0.1c0.1,0.1,0.1,0.2,0.2,0.2l0.4,0.4    c0.1,0.1,0.2,0.2,0.3,0.4c1.8,2.3,2.7,5.3,2.3,8.4c-0.5,4.5,1.1,9,4.3,12.2c3.4,3.4,8.2,4.9,12.9,4.2l-5.5-5.5    c-2.8-2.8-2.8-7.3,0-10l3.1-3.1c1.3-1.3,3.1-2.1,5-2.1c0,0,0,0,0,0c1.9,0,3.7,0.7,5,2.1l5,5C-163.7,420.4-165.3,416.1-168.4,413z"></path></g></g></svg>