<svg height='100px' width='100px'  fill="#000000" xmlns="http://www.w3.org/2000/svg" viewBox="0 0 68 64" x="0px" y="0px"><path fill="#000000" d="M424,720 L424,678 L420,678 C418.895431,678 418,677.104569 418,676 C418,674.895431 418.895431,674 420,674 L421,674 L421,664 L420,664 C418.895431,664 418,663.104569 418,662 C418,660.895431 418.895431,660 420,660 L480,660 C481.104569,660 482,660.895431 482,662 C482,663.104569 481.104569,664 480,664 L479,664 L479,674 L480,674 C481.104569,674 482,674.895431 482,676 C482,677.104569 481.104569,678 480,678 L476,678 L476,720 L482,720 C483.104569,720 484,720.895431 484,722 C484,723.104569 483.104569,724 482,724 L418,724 C416.895431,724 416,723.104569 416,722 C416,720.895431 416.895431,720 418,720 L424,720 Z M464,720 L472,720 L472,678 L428,678 L428,720 L436,720 L436,695.997352 C436,688.266263 442.267121,682 450,682 C457.734293,682 464,688.261611 464,695.997352 L464,720 Z M425,674 L475,674 L475,664 L425,664 L425,674 Z M460,695.997352 C460,690.471336 455.525739,686 450,686 C444.476137,686 440,690.475525 440,695.997352 L440,720 L460,720 L460,695.997352 Z M444,671 C442.895431,671 442,670.104569 442,669 C442,667.895431 442.895431,667 444,667 C445.104569,667 446,667.895431 446,669 C446,670.104569 445.104569,671 444,671 Z M456,671 C454.895431,671 454,670.104569 454,669 C454,667.895431 454.895431,667 456,667 C457.104569,667 458,667.895431 458,669 C458,670.104569 457.104569,671 456,671 Z M468,671 C466.895431,671 466,670.104569 466,669 C466,667.895431 466.895431,667 468,667 C469.104569,667 470,667.895431 470,669 C470,670.104569 469.104569,671 468,671 Z M432,671 C430.895431,671 430,670.104569 430,669 C430,667.895431 430.895431,667 432,667 C433.104569,667 434,667.895431 434,669 C434,670.104569 433.104569,671 432,671 Z" transform="translate(-416 -660)"></path></svg>