<svg height='100px' width='100px'  fill="#000000" xmlns="http://www.w3.org/2000/svg" xmlns:xlink="http://www.w3.org/1999/xlink" version="1.1" x="0px" y="0px" viewBox="0 0 66 66" enable-background="new 0 0 66 66" xml:space="preserve"><g><path d="M64,32.855c-0.553,0-1,0.447-1,1v0.973h-1.013c-0.269-2.171-2.104-3.863-4.347-3.863c-0.15,0-0.292,0.03-0.438,0.044   L39.063,22.31v-3.297c0-0.553-0.447-1-1-1h-0.236v-4.027c0-0.553-0.447-1-1-1h-12.13c-0.553,0-1,0.447-1,1v4.027h-0.235   c-0.553,0-1,0.447-1,1v3.298l-18.727,8.98c-0.005,0.003-0.009,0.007-0.014,0.009C2.126,31.963,1,33.533,1,35.365   c0,2.287,1.76,4.151,3.994,4.36l14.477,9.041l-1.248,2.846c-0.136,0.309-0.105,0.666,0.079,0.948   c0.185,0.283,0.499,0.453,0.837,0.453h23.246c0.008,0.001,0.015,0,0.02,0c0.553,0,1-0.447,1-1c0-0.212-0.065-0.407-0.177-0.569   l-1.177-2.683l14.6-9.116c0.319,0.074,0.647,0.121,0.988,0.121c1.911,0,3.526-1.232,4.132-2.938H63v0.973c0,0.553,0.447,1,1,1   s1-0.447,1-1v-3.945C65,33.303,64.553,32.855,64,32.855z M39.728,43.462c-0.159-0.364-0.519-0.599-0.916-0.599H22.713   c-0.397,0-0.757,0.235-0.916,0.599l-0.023,0.051l-10.702-6.685H50.45l-10.699,6.687L39.728,43.462z M37.063,20.013v6.947H24.462   v-6.947h0.235h12.13H37.063z M24.7,28.961h12.122l12.246,5.867H12.447L24.7,28.961z M54.767,32.059   c-0.755,0.657-1.284,1.556-1.455,2.586l-14.249-6.826v-3.29L54.767,32.059z M25.697,14.986h10.13v3.027h-10.13V14.986z    M22.462,27.814L9.561,33.992c-0.331-0.998-0.999-1.835-1.882-2.373l14.783-7.089V27.814z M3,35.365c0-1.323,1.077-2.4,2.401-2.4   c1.323,0,2.4,1.077,2.4,2.4c0,1.324-1.077,2.401-2.4,2.401C4.077,37.766,3,36.689,3,35.365z M7.738,39.08   c0.494-0.312,0.923-0.715,1.258-1.192l11.967,7.475l-0.68,1.551L7.738,39.08z M20.67,51.013l2.696-6.15h14.792l2.697,6.15H20.67z    M41.24,46.91l-0.677-1.544l13.084-8.178c0.237,0.517,0.569,0.979,0.977,1.365L41.24,46.91z M57.64,37.766   c-1.323,0-2.4-1.077-2.4-2.401c0-1.323,1.077-2.4,2.4-2.4c1.324,0,2.401,1.077,2.401,2.4C60.041,36.689,58.964,37.766,57.64,37.766   z"></path></g></svg>