<svg height='100px' width='100px'  fill="#000000" xmlns="http://www.w3.org/2000/svg" xmlns:xlink="http://www.w3.org/1999/xlink" xmlns:serif="http://www.serif.com/" viewBox="0 0 64 65" version="1.1" xml:space="preserve" style="" x="0px" y="0px" fill-rule="evenodd" clip-rule="evenodd" stroke-linejoin="round" stroke-miterlimit="1.41421"><rect serif:id="connection data transfer tech circuit" x="0" y="0.936" width="64" height="64" style="" fill="none"></rect><path d="M44.829,51.938c-0.035,0.102 -0.077,0.203 -0.124,0.301c-0.566,1.173 -1.947,1.899 -3.271,1.645c-1.216,-0.233 -2.231,-1.295 -2.404,-2.528c-0.128,-0.916 0.195,-1.884 0.85,-2.539c0.551,-0.551 1.316,-0.872 2.102,-0.879c0.013,0 0.026,0 0.038,0c1.12,0.01 2.2,0.694 2.685,1.699c0.047,0.098 0.089,0.198 0.124,0.301l15.173,0c0.074,0.008 0.148,0.016 0.222,0.025c0.071,0.025 0.144,0.041 0.212,0.074c0.596,0.287 0.767,1.222 0.189,1.683c-0.117,0.093 -0.254,0.159 -0.401,0.193c-0.072,0.016 -0.148,0.016 -0.222,0.025l-15.173,0Zm-16,-2l4.758,0l5.707,-5.708l0.152,-0.124c0.152,-0.081 0.188,-0.115 0.36,-0.149c0.064,-0.013 0.13,-0.013 0.195,-0.019l20.001,0c0.074,0.008 0.148,0.016 0.222,0.025c0.071,0.024 0.144,0.041 0.212,0.074c0.407,0.196 0.641,0.682 0.541,1.123c-0.084,0.367 -0.386,0.669 -0.753,0.753c-0.072,0.016 -0.148,0.016 -0.222,0.025l-19.587,0l-5.707,5.707l-0.151,0.124c-0.058,0.031 -0.113,0.068 -0.173,0.093c-0.163,0.067 -0.211,0.059 -0.383,0.076l-5.172,0c-0.036,0.102 -0.078,0.203 -0.125,0.301c-0.568,1.179 -1.96,1.905 -3.288,1.642c-1.215,-0.241 -2.224,-1.309 -2.389,-2.544c-0.123,-0.922 0.212,-1.895 0.878,-2.546c0.549,-0.536 1.304,-0.846 2.077,-0.853c0.012,0 0.025,0 0.038,0c1.112,0.01 2.188,0.686 2.676,1.682c0.051,0.103 0.095,0.21 0.133,0.318Zm-13.651,0c0.153,-0.431 0.4,-0.827 0.727,-1.147c0.549,-0.536 1.304,-0.846 2.076,-0.853c0.013,0 0.026,0 0.039,0c1.112,0.01 2.188,0.686 2.676,1.682c0.398,0.812 0.4,1.806 0.008,2.619c-0.568,1.179 -1.961,1.905 -3.289,1.642c-1.013,-0.201 -1.882,-0.978 -2.238,-1.943l-11.177,0c-0.061,-0.002 -0.076,-0.001 -0.136,-0.009c-0.605,-0.084 -1.037,-0.801 -0.781,-1.39c0.136,-0.313 0.442,-0.545 0.781,-0.592c0.06,-0.008 0.075,-0.007 0.136,-0.009l11.178,0Zm10.816,0c-0.44,0.004 -0.859,0.329 -0.965,0.762c-0.111,0.456 0.148,0.975 0.583,1.16c0.553,0.234 1.282,-0.149 1.377,-0.769c0.085,-0.554 -0.362,-1.14 -0.969,-1.153c-0.008,0 -0.017,0 -0.026,0Zm-8,0c-0.443,0.004 -0.863,0.332 -0.967,0.768c-0.108,0.454 0.152,0.97 0.585,1.154c0.553,0.234 1.282,-0.149 1.377,-0.769c0.085,-0.554 -0.363,-1.14 -0.969,-1.153c-0.009,0 -0.017,0 -0.026,0Zm24.001,0c-0.444,0.004 -0.863,0.332 -0.967,0.768c-0.108,0.455 0.151,0.97 0.585,1.154c0.552,0.234 1.282,-0.149 1.377,-0.769c0.085,-0.556 -0.37,-1.14 -0.969,-1.153c-0.009,0 -0.018,0 -0.026,0Zm-7.994,-4l-30.001,0c-0.074,-0.009 -0.15,-0.009 -0.222,-0.025c-0.581,-0.133 -0.953,-0.839 -0.679,-1.409c0.13,-0.271 0.386,-0.474 0.679,-0.541c0.072,-0.017 0.148,-0.017 0.222,-0.025l30.001,0c0.074,0.008 0.148,0.016 0.223,0.025c0.07,0.024 0.144,0.041 0.211,0.074c0.407,0.196 0.642,0.682 0.541,1.123c-0.084,0.367 -0.386,0.669 -0.752,0.753c-0.073,0.016 -0.149,0.016 -0.223,0.025Zm-22.823,-8.001c0.155,-0.435 0.406,-0.837 0.74,-1.158c0.547,-0.529 1.291,-0.834 2.063,-0.842c0.013,0 0.026,0 0.039,0c1.121,0.011 2.2,0.696 2.684,1.699c0.39,0.809 0.39,1.794 0,2.603c-0.566,1.174 -1.947,1.899 -3.27,1.645c-1.02,-0.196 -1.898,-0.974 -2.258,-1.947l-7.176,0c-0.66,-0.018 -1.189,-0.742 -0.924,-1.382c0.136,-0.328 0.458,-0.571 0.812,-0.611c0.05,-0.006 0.062,-0.005 0.112,-0.007l7.178,0Zm13.651,2c-0.036,0.103 -0.078,0.204 -0.125,0.302c-0.568,1.178 -1.96,1.905 -3.289,1.641c-1.215,-0.241 -2.223,-1.308 -2.388,-2.543c-0.122,-0.915 0.206,-1.882 0.865,-2.533c0.55,-0.544 1.317,-0.859 2.089,-0.867c0.013,0 0.026,0 0.039,0c1.108,0.011 2.177,0.679 2.668,1.667c0.054,0.108 0.101,0.219 0.14,0.333l35.174,0c0.074,0.009 0.148,0.017 0.222,0.025c0.071,0.025 0.144,0.042 0.212,0.074c0.596,0.288 0.767,1.222 0.189,1.683c-0.117,0.094 -0.254,0.16 -0.401,0.193c-0.072,0.017 -0.148,0.017 -0.222,0.025l-35.173,0Zm-2.835,-2c-0.441,0.005 -0.86,0.331 -0.965,0.762c-0.111,0.456 0.148,0.976 0.583,1.16c0.553,0.234 1.282,-0.148 1.377,-0.768c0.085,-0.553 -0.359,-1.14 -0.969,-1.153c-0.008,-0.001 -0.017,-0.001 -0.026,-0.001Zm-8,0c-0.444,0.005 -0.863,0.334 -0.967,0.768c-0.108,0.455 0.151,0.971 0.585,1.154c0.553,0.234 1.282,-0.148 1.377,-0.768c0.085,-0.555 -0.362,-1.14 -0.969,-1.153c-0.009,-0.001 -0.017,-0.001 -0.026,-0.001Zm19.183,-4l-7.176,0c-0.198,-0.019 -0.393,-0.06 -0.556,-0.168c-0.054,-0.037 -0.101,-0.083 -0.151,-0.125l-5.708,-5.707l-15.586,0l-0.222,-0.025c-0.071,-0.025 -0.145,-0.042 -0.212,-0.074c-0.602,-0.29 -0.756,-1.231 -0.189,-1.683c0.117,-0.093 0.254,-0.159 0.401,-0.193c0.072,-0.017 0.148,-0.017 0.222,-0.025l16.001,0c0.065,0.006 0.13,0.013 0.195,0.019c0.165,0.05 0.214,0.052 0.36,0.15c0.054,0.036 0.101,0.082 0.152,0.124l5.707,5.707l6.764,0c0.155,-0.436 0.406,-0.837 0.739,-1.159c0.548,-0.528 1.292,-0.833 2.064,-0.841c0.013,0 0.025,0 0.038,0c1.122,0.011 2.2,0.694 2.685,1.699c0.389,0.809 0.389,1.794 0,2.602c-0.569,1.18 -1.961,1.905 -3.289,1.642c-1.013,-0.201 -1.882,-0.977 -2.239,-1.943Zm13.652,0c-0.035,0.103 -0.077,0.203 -0.124,0.301c-0.569,1.18 -1.961,1.905 -3.289,1.642c-1.21,-0.24 -2.214,-1.301 -2.386,-2.524c-0.131,-0.934 0.209,-1.922 0.889,-2.578c0.547,-0.528 1.291,-0.833 2.063,-0.841c0.013,0 0.026,0 0.039,0c1.121,0.011 2.199,0.694 2.684,1.699c0.047,0.098 0.089,0.199 0.124,0.301l13.173,0l0.222,0.025c0.071,0.025 0.144,0.042 0.212,0.074c0.596,0.288 0.767,1.222 0.189,1.683c-0.117,0.094 -0.254,0.16 -0.401,0.193c-0.072,0.017 -0.148,0.017 -0.222,0.025l-13.173,0Zm-28.829,0l-14,0c-0.074,-0.008 -0.15,-0.008 -0.222,-0.025c-0.577,-0.131 -0.956,-0.834 -0.679,-1.409c0.13,-0.27 0.386,-0.474 0.679,-0.541c0.072,-0.016 0.148,-0.016 0.222,-0.025l14,0c0.075,0.009 0.149,0.017 0.223,0.025c0.07,0.025 0.144,0.042 0.211,0.074c0.407,0.196 0.642,0.683 0.541,1.124c-0.083,0.367 -0.386,0.669 -0.752,0.752c-0.073,0.017 -0.148,0.017 -0.223,0.025Zm17.994,-2c-0.443,0.004 -0.863,0.333 -0.966,0.768c-0.108,0.455 0.151,0.971 0.585,1.154c0.551,0.233 1.277,-0.144 1.376,-0.762c0.088,-0.556 -0.362,-1.146 -0.968,-1.16c-0.009,0 -0.018,0 -0.027,0Zm8.001,0c-0.444,0.004 -0.863,0.333 -0.967,0.768c-0.108,0.455 0.151,0.971 0.585,1.154c0.551,0.233 1.277,-0.144 1.376,-0.762c0.088,-0.556 -0.361,-1.146 -0.968,-1.16c-0.009,0 -0.018,0 -0.026,0Zm-11.166,-4c-0.036,0.103 -0.077,0.203 -0.125,0.301c-0.568,1.18 -1.96,1.905 -3.288,1.642c-1.215,-0.241 -2.224,-1.309 -2.389,-2.543c-0.122,-0.916 0.206,-1.882 0.865,-2.534c0.55,-0.543 1.317,-0.859 2.09,-0.866c0.012,0 0.025,0 0.038,0c1.114,0.011 2.2,0.694 2.684,1.699c0.048,0.098 0.089,0.198 0.125,0.301l27.173,0c0.074,0.008 0.148,0.017 0.222,0.025c0.071,0.025 0.144,0.042 0.212,0.074c0.596,0.287 0.767,1.222 0.189,1.683c-0.117,0.094 -0.254,0.16 -0.401,0.193c-0.072,0.017 -0.148,0.017 -0.222,0.025l-27.173,0Zm-2.835,-2c-0.444,0.004 -0.866,0.335 -0.968,0.774c-0.105,0.454 0.156,0.966 0.586,1.148c0.552,0.233 1.278,-0.144 1.376,-0.763c0.089,-0.555 -0.361,-1.145 -0.967,-1.159c-0.009,0 -0.018,0 -0.027,0Zm-12.815,-6c0.156,-0.441 0.412,-0.848 0.752,-1.171c0.546,-0.521 1.291,-0.822 2.05,-0.829c0.013,0 0.026,0 0.039,0c1.108,0.01 2.177,0.678 2.668,1.666c0.405,0.815 0.412,1.815 0.016,2.635c-0.566,1.173 -1.946,1.899 -3.27,1.645c-1.02,-0.195 -1.897,-0.974 -2.257,-1.946l-13.177,0c-0.074,-0.008 -0.15,-0.009 -0.222,-0.025c-0.581,-0.133 -0.953,-0.839 -0.679,-1.409c0.13,-0.271 0.386,-0.474 0.679,-0.541c0.072,-0.017 0.148,-0.017 0.222,-0.025l13.179,0Zm30.103,-2.306c-0.565,0.27 -1.213,0.374 -1.847,0.252c-1.216,-0.233 -2.232,-1.295 -2.405,-2.528c-0.128,-0.916 0.196,-1.885 0.85,-2.539c0.551,-0.551 1.316,-0.872 2.102,-0.879c0.013,0 0.026,0 0.039,0c1.121,0.01 2.199,0.693 2.684,1.699c0.388,0.805 0.39,1.787 0.004,2.594l3.707,3.707l7.586,0l0.068,0.002c0.06,0.006 0.076,0.006 0.135,0.019c0.632,0.131 1.021,0.979 0.614,1.556c-0.158,0.223 -0.41,0.376 -0.681,0.414c-0.06,0.008 -0.076,0.007 -0.136,0.009l-8,0c-0.264,-0.009 -0.513,-0.111 -0.708,-0.293l-4,-4l-0.012,-0.013Zm-1.281,4.306l-20,0c-0.074,-0.008 -0.15,-0.009 -0.223,-0.025c-0.703,-0.161 -1.079,-1.216 -0.401,-1.757c0.118,-0.094 0.255,-0.16 0.401,-0.193c0.073,-0.017 0.149,-0.017 0.223,-0.025l20,0c0.075,0.008 0.149,0.017 0.223,0.025c0.07,0.025 0.144,0.041 0.211,0.074c0.597,0.287 0.768,1.222 0.19,1.683c-0.118,0.093 -0.255,0.159 -0.401,0.193c-0.073,0.016 -0.148,0.017 -0.223,0.025Zm-26.007,-2c-0.445,0.004 -0.867,0.335 -0.968,0.774c-0.105,0.454 0.156,0.966 0.586,1.148c0.551,0.233 1.277,-0.144 1.376,-0.763c0.089,-0.555 -0.361,-1.146 -0.968,-1.159c-0.009,0 -0.017,0 -0.026,0Zm15.185,-6c0.148,-0.42 0.386,-0.807 0.701,-1.121c0.551,-0.551 1.316,-0.872 2.102,-0.879c0.013,0 0.026,0 0.038,0c1.122,0.01 2.2,0.693 2.685,1.699c0.389,0.808 0.389,1.793 0,2.602c-0.566,1.173 -1.947,1.899 -3.271,1.645c-1.019,-0.195 -1.898,-0.973 -2.257,-1.946l-31.177,0c-0.074,-0.009 -0.15,-0.009 -0.222,-0.025c-0.437,-0.1 -0.778,-0.517 -0.778,-0.975c0,-0.453 0.338,-0.875 0.778,-0.975c0.072,-0.017 0.148,-0.017 0.222,-0.025l31.179,0Zm24.871,0.001c0.409,0.029 0.779,0.309 0.903,0.69c0.187,0.577 -0.259,1.276 -0.903,1.308c-0.016,0 -0.032,0 -0.048,0.001l-6,0c-0.647,-0.016 -1.177,-0.718 -0.935,-1.355c0.142,-0.377 0.532,-0.636 0.935,-0.645l6,0c0.016,0 0.032,0 0.048,0.001Zm-22.055,-0.001c-0.444,0.004 -0.864,0.333 -0.967,0.767c-0.108,0.456 0.151,0.971 0.585,1.155c0.551,0.233 1.277,-0.144 1.376,-0.763c0.088,-0.555 -0.362,-1.146 -0.968,-1.159c-0.009,0 -0.018,0 -0.026,0Zm8,0c-0.444,0.004 -0.863,0.333 -0.967,0.767c-0.108,0.456 0.151,0.971 0.585,1.155c0.551,0.233 1.277,-0.144 1.376,-0.763c0.088,-0.555 -0.361,-1.146 -0.968,-1.159c-0.009,0 -0.017,0 -0.026,0Z" style="" fill-rule="nonzero"></path></svg>