<svg height='100px' width='100px'  fill="#000000" xmlns="http://www.w3.org/2000/svg" viewBox="0 0 64 64" x="0px" y="0px"><g><path d="M12,55a3,3,0,1,0-3,3A3,3,0,0,0,12,55ZM8,55a1,1,0,1,1,1,1A1,1,0,0,1,8,55Z"></path><path d="M32,58a3,3,0,1,0-3-3A3,3,0,0,0,32,58Zm0-4a1,1,0,1,1-1,1A1,1,0,0,1,32,54Z"></path><path d="M55,52a3,3,0,1,0,3,3A3,3,0,0,0,55,52Zm0,4a1,1,0,1,1,1-1A1,1,0,0,1,55,56Z"></path><path d="M55,48H39V35a1,1,0,0,0-1-1H26a1,1,0,0,0-1,1V48H9A7,7,0,0,0,9,62H55a7,7,0,0,0,0-14ZM27,36H37v2H27Zm0,4h4v4h2V40h4v3H35v2h2v3H27ZM37,55a5,5,0,1,1-5-5A5.006,5.006,0,0,1,37,55ZM4,55a5,5,0,1,1,5,5A5.006,5.006,0,0,1,4,55Zm9.889,5a6.977,6.977,0,0,0,0-10H27.111a6.977,6.977,0,0,0,0,10Zm23,0a6.977,6.977,0,0,0,0-10H50.111a6.977,6.977,0,0,0,0,10ZM55,60a5,5,0,1,1,5-5A5.006,5.006,0,0,1,55,60Z"></path><path d="M44,2H12a1,1,0,0,0-1,1V9a1,1,0,0,0,1,1h2V24a1,1,0,0,0,1,1H25.082a8.016,8.016,0,0,0,.576.857l-1.476,4.434L18.553,33.1a1,1,0,0,0-.448,1.342l3,6,1.79-.894-2.553-5.106L25.236,32H38.764l4.894,2.447-2.553,5.106,1.79.894,3-6a1,1,0,0,0-.448-1.342l-5.629-2.814-1.476-4.434a7.949,7.949,0,0,0,1.639-4.472c.754-.966,2.815-4.26,3-11.385H44a1,1,0,0,0,1-1V6.97c2.6-.129,9-.863,9-4.97H52c0,2-4.22,2.807-7,2.968V3A1,1,0,0,0,44,2ZM20,17H16V10h4Zm-4,6V19h8.263a7.736,7.736,0,0,0,0,4Zm16,4a6,6,0,1,1,6-6A6.006,6.006,0,0,1,32,27Zm-5.613,3,.858-2.581a7.941,7.941,0,0,0,9.51,0L37.613,30Zm13.1-11.806A7.984,7.984,0,0,0,25.082,17H22V10H40.98A22.862,22.862,0,0,1,39.482,18.194ZM43,8H13V4H43Z"></path><path d="M32,17a4,4,0,1,0,4,4A4,4,0,0,0,32,17Zm0,6a2,2,0,1,1,2-2A2,2,0,0,1,32,23Z"></path></g></svg>