<svg height='100px' width='100px'  fill="#000000" xmlns="http://www.w3.org/2000/svg" xmlns:xlink="http://www.w3.org/1999/xlink" version="1.1" x="0px" y="0px" viewBox="0 0 64 64" style="enable-background:new 0 0 64 64;" xml:space="preserve"><g><path d="M40,1c-1.654,0-3,1.346-3,3v7h2v2h-2v8h2v2h-2v8h2v2h-6v-2h2v-8h-2v-2h2v-8h-2v-2h2V4c0-1.654-1.346-3-3-3s-3,1.346-3,3v7   h2v2h-2v8h2v2h-2v8h2v2h-6v-2h2v-8h-2v-2h2v-8h-2v-2h2V4c0-1.654-1.346-3-3-3s-3,1.346-3,3v7h2v2h-2v8h2v2h-2v8h2v2h-6v-2h2v-8h-2   v-2h2v-8h-2v-2h2V4c0-1.654-1.346-3-3-3s-3,1.346-3,3v7h2v2h-2v8h2v2h-2v8h2v2h-2v19.205l3,7V63h2v-4.205L15.516,53H37v-2h-4   v-2.382l4-2v-3.802c1.161-0.414,2-1.514,2-2.816c0-1.654-1.346-3-3-3s-3,1.346-3,3c0,1.302,0.839,2.402,2,2.816v2.566l-4,2V51h-2   v-8.184c1.161-0.414,2-1.514,2-2.816c0-1.654-1.346-3-3-3s-3,1.346-3,3c0,1.302,0.839,2.402,2,2.816V51h-2v-3.618l-4-2v-2.566   c1.161-0.414,2-1.514,2-2.816c0-1.654-1.346-3-3-3s-3,1.346-3,3c0,1.302,0.839,2.402,2,2.816v3.802l4,2V51h-8V35h26v16h-2v2h1.382   L38,57.764V63h2v-4.764l3-6V33h-2v-2h2v-8h-2v-2h2v-8h-2v-2h2V4C43,2.346,41.654,1,40,1z M31,4c0-0.551,0.449-1,1-1s1,0.449,1,1v5   h-2V4z M31,15h2v4h-2V15z M31,25h2v4h-2V25z M23,4c0-0.551,0.449-1,1-1s1,0.449,1,1v5h-2V4z M23,15h2v4h-2V15z M23,25h2v4h-2V25z    M15,4c0-0.551,0.449-1,1-1s1,0.449,1,1v5h-2V4z M15,15h2v4h-2V15z M15,25h2v4h-2V25z M36,39c0.551,0,1,0.449,1,1s-0.449,1-1,1   s-1-0.449-1-1S35.449,39,36,39z M28,39c0.551,0,1,0.449,1,1s-0.449,1-1,1s-1-0.449-1-1S27.449,39,28,39z M20,39   c0.551,0,1,0.449,1,1s-0.449,1-1,1s-1-0.449-1-1S19.449,39,20,39z M41,29h-2v-4h2V29z M41,19h-2v-4h2V19z M41,9h-2V4   c0-0.551,0.449-1,1-1s1,0.449,1,1V9z"></path><path d="M55.549,23c-1.27,0-2.482,0.544-3.326,1.494l-4.074,4.583l2.653,2.399l-1.208,1.45l-2.661-2.48L45,32.62v15.197   l8.865-10.911l-2.806-2.615l1.227-1.473l2.825,2.554l3.892-4.791C59.646,29.791,60,28.794,60,27.775v-0.324   C60,24.997,58.003,23,55.549,23z M47,42.184V33.38l0.067-0.076l4.067,3.79L47,42.184z M58,27.775c0,0.561-0.195,1.11-0.549,1.545   l-2.562,3.154l-3.927-3.551l2.756-3.101C54.183,25.3,54.85,25,55.549,25C56.9,25,58,26.1,58,27.451V27.775z"></path></g></svg>