<svg height='100px' width='100px'  fill="#000000" xmlns="http://www.w3.org/2000/svg" xmlns:xlink="http://www.w3.org/1999/xlink" version="1.1" x="0px" y="0px" viewBox="0 0 64 64" style="enable-background:new 0 0 64 64;" xml:space="preserve"><path d="M62,21h-9.6L35,3.5C34.7,2.1,33.5,1,32,1s-2.7,1.1-3,2.5L11.6,21H2c-0.6,0-1,0.4-1,1v40c0,0.6,0.4,1,1,1h60c0.6,0,1-0.4,1-1  V22C63,21.4,62.6,21,62,21z M32,3c0.6,0,1,0.4,1,1s-0.4,1-1,1s-1-0.4-1-1S31.4,3,32,3z M29.6,5.8C30.2,6.5,31,7,32,7  s1.8-0.5,2.4-1.2L49.6,21H14.4L29.6,5.8z M61,61H3V23h58V61z"></path><path d="M6,27v30c0,0.6,0.4,1,1,1h50c0.6,0,1-0.4,1-1V27c0-0.6-0.4-1-1-1H7C6.4,26,6,26.4,6,27z M8,52.3l10.7-15.6L32.9,56H8V52.3z   M35.4,56l-8.7-11.7l5.1-5.5L44.3,56H35.4z M56,28v28h-9.2l-14-19.4c-0.2-0.2-0.5-0.4-0.8-0.4c-0.3,0-0.6,0.1-0.8,0.3l-5.7,6.2  l-6.1-8.3C19.3,34.1,19,34,18.6,34c-0.3,0-0.6,0.2-0.8,0.4L8,48.8V28H56z"></path><path d="M46.3,42.2c2.8,0,5-2.2,5-5s-2.2-5-5-5s-5,2.2-5,5S43.5,42.2,46.3,42.2z M46.3,34.2c1.7,0,3,1.3,3,3s-1.3,3-3,3s-3-1.3-3-3  S44.6,34.2,46.3,34.2z"></path></svg>