<svg height='100px' width='100px'  fill="#000000" xmlns="http://www.w3.org/2000/svg" xmlns:xlink="http://www.w3.org/1999/xlink" version="1.1" x="0px" y="0px" viewBox="0 0 100 100" enable-background="new 0 0 100 100" xml:space="preserve"><path d="M92.9,47.9L49.1,91.6c-1.1,1.1,0.6,2.9,1.8,1.8l43.8-43.8C95.8,48.5,94,46.7,92.9,47.9z"></path><path d="M36.1,59.5c0.5,0.5,1.3,0.4,1.8-0.1c0.5-0.5,0.4-1.3-0.1-1.8c-0.8-0.7-1.9-1-2.9-0.7c-1,0.2-1.9,1-2.3,1.9l-1.2,3  c-0.1,0.3-0.4,0.4-0.5,0.5c-0.1,0-0.4,0.1-0.7-0.2c-0.5-0.5-1.3-0.4-1.8,0.1c-0.5,0.5-0.4,1.3,0.1,1.8c0.6,0.5,1.4,0.8,2.1,0.8  c0.2,0,0.5,0,0.7-0.1c1-0.2,1.9-1,2.3-1.9l1.2-3c0.1-0.3,0.4-0.4,0.5-0.5C35.5,59.3,35.8,59.2,36.1,59.5z"></path><path d="M40.7,62.1c-0.5,0.5-0.6,1.2-0.1,1.8c0.2,0.3,0.2,0.6,0.2,0.7c0,0.1-0.1,0.4-0.5,0.5l-3,1.2c-1,0.4-1.7,1.2-1.9,2.3  c-0.2,1,0,2.1,0.7,2.9c0.2,0.3,0.6,0.4,0.9,0.4c0.3,0,0.6-0.1,0.8-0.3c0.5-0.5,0.6-1.2,0.1-1.8c-0.2-0.3-0.2-0.6-0.2-0.7  c0-0.1,0.1-0.4,0.5-0.5l3-1.2c1-0.4,1.7-1.2,1.9-2.3c0.2-1,0-2.1-0.7-2.9C42,61.7,41.2,61.7,40.7,62.1z"></path><path d="M94.6,7.9l-2.5-2.5c-0.5-0.5-1.3-0.5-1.8,0l-4.1,4.1l-0.4-0.4c-0.5-0.5-1.3-0.5-1.8,0s-0.5,1.3,0,1.8l0.4,0.4l-3.2,3.2  l-0.4-0.4c-0.5-0.5-1.3-0.5-1.8,0s-0.5,1.3,0,1.8l0.4,0.4L61.8,33.9c-2.8-1.9-6.1-3-9.6-3c-3.9,0-7.7,1.4-10.8,3.9l-10.3,8.6  c-1,0.8-1.2,2.3-0.4,3.4c0.7,1,0.5,2.4-0.4,3.1l-8.2,6.8c-0.6,0.5-1.6,0.4-2-0.4c-0.4-0.6-1-1.1-1.7-1.2c-0.7-0.1-1.5,0.1-2,0.5  l-5.3,4.4C7.3,63.3,5.2,67.3,5,71.7c-0.2,5.4,2.3,11.1,7.3,16C17,92.4,22.5,95,27.6,95c0,0,0,0,0,0c4.7,0,8.9-2.1,12.2-6.1l4.4-5.3  c0.5-0.6,0.7-1.3,0.5-2c-0.1-0.7-0.6-1.4-1.2-1.7c-0.7-0.4-0.9-1.4-0.4-2l6.8-8.2c0.8-0.9,2.2-1.1,3.1-0.4c1.1,0.8,2.5,0.6,3.4-0.4  l8.6-10.3c4.9-5.9,5.2-14.2,0.9-20.3L86.3,18l0.4,0.4c0.2,0.2,0.6,0.4,0.9,0.4s0.6-0.1,0.9-0.4c0.5-0.5,0.5-1.3,0-1.8L88,16.3  l3.2-3.2l0.4,0.4c0.2,0.2,0.6,0.4,0.9,0.4s0.6-0.1,0.9-0.4c0.5-0.5,0.5-1.3,0-1.8L93,11.3l1.6-1.6C95.1,9.1,95.1,8.4,94.6,7.9z   M44.1,56.6c-1.1,1.1,0.6,2.9,1.8,1.8l16.6-16.6c2.5,4.2,2.1,9.6-1.1,13.5L54,64.1c-0.7-0.2-1.4-0.3-2.1-0.3c-2.2,0-4.2,1-5.6,2.6  l-6.8,8.2c-1.8,2.2-2,5.2-0.5,7.5L36,85.7c-2.4,2.9-5.2,4.3-8.4,4.3h0c-3,0-6.3-1.3-9.4-3.8l11.4-10.3c1.2-1.1-0.5-2.9-1.7-1.9  L16.3,84.5l-0.8-0.8l10.5-11.6c1.1-1.2-0.8-2.9-1.9-1.7L13.8,81.8c-2.6-3.3-3.9-6.7-3.8-9.9c0.1-3,1.6-5.7,4.3-7.9l3.5-2.9  c2.2,1.4,5.4,1.3,7.5-0.5l8.2-6.8c2.3-1.9,3.1-5,2.3-7.7l8.8-7.3c2.1-1.8,4.8-2.7,7.6-2.7c2.1,0,4.2,0.6,5.9,1.6L41.6,54.1  c-1.1,1.1,0.6,2.9,1.8,1.8L91.3,8L92,8.8L44.1,56.6z"></path></svg>