<svg height='100px' width='100px'  fill="#000000" xmlns="http://www.w3.org/2000/svg" xmlns:xlink="http://www.w3.org/1999/xlink" version="1.1" x="0px" y="0px" viewBox="0 0 100 100" enable-background="new 0 0 100 100" xml:space="preserve"><path d="M80,7.5h-5c-0.6,0-1.3,0.3-1.8,0.7l-3,3l-2-2.7c-1-1.3-3-1.3-4,0l-1.8,2.3l-1.8-2.3c-1-1.3-3-1.3-4,0L55,10.8l-1.8-2.3  c-1-1.3-3-1.3-4,0l-1.8,2.3l-1.8-2.3c-1-1.3-3-1.3-4,0L40,10.8l-1.8-2.3c-1-1.3-3-1.3-4,0l-1.8,2.3l-1.8-2.3c-0.5-0.6-1.2-1-2-1H15  c-5.5,0-10,4.5-10,10v65c0,5.5,4.5,10,10,10h13.8c0.8,0,1.5-0.4,2-1l1.8-2.3l1.8,2.3c1,1.3,3,1.3,4,0l1.8-2.3l1.8,2.3  c1,1.3,3,1.3,4,0l1.8-2.3l1.8,2.3c1,1.3,3,1.3,4,0l1.8-2.3l1.8,2.3c1,1.3,3,1.3,4,0l1.8-2.3l1.8,2.3c1,1.3,3,1.3,4,0l2-2.7l3,3  c0.5,0.5,1.1,0.7,1.8,0.7h5c8.3,0,15-6.7,15-15v-55C95,14.2,88.3,7.5,80,7.5z M31.3,82.8c-0.3,0.2-0.5,0.4-0.8,0.7l-3,4H15  c-2.8,0-5-2.2-5-5v-65c0-2.8,2.2-5,5-5h12.5l3,4c0.2,0.3,0.5,0.5,0.8,0.7V82.8z M38.8,82.8c-0.3,0.2-0.5,0.4-0.8,0.7l-1.8,2.3  l-1.8-2.3c-0.2-0.3-0.5-0.5-0.8-0.7V17.2c0.3-0.2,0.5-0.4,0.8-0.7l1.8-2.3l1.8,2.3c0.2,0.3,0.5,0.5,0.8,0.7V82.8z M46.3,82.8  c-0.3,0.2-0.5,0.4-0.8,0.7l-1.8,2.3L42,83.5c-0.2-0.3-0.5-0.5-0.8-0.7V17.2c0.3-0.2,0.5-0.4,0.8-0.7l1.8-2.3l1.8,2.3  c0.2,0.3,0.5,0.5,0.8,0.7V82.8z M53.8,82.8c-0.3,0.2-0.5,0.4-0.8,0.7l-1.8,2.3l-1.8-2.3c-0.2-0.3-0.5-0.5-0.8-0.7V17.2  c0.3-0.2,0.5-0.4,0.8-0.7l1.8-2.3l1.8,2.3c0.2,0.3,0.5,0.5,0.8,0.7V82.8z M61.3,82.8c-0.3,0.2-0.5,0.4-0.8,0.7l-1.8,2.3L57,83.5  c-0.2-0.3-0.5-0.5-0.8-0.7V17.2c0.3-0.2,0.5-0.4,0.8-0.7l1.8-2.3l1.8,2.3c0.2,0.3,0.5,0.5,0.8,0.7V82.8z M68.8,82.8  c-0.3,0.2-0.5,0.4-0.8,0.7l-1.8,2.3l-1.8-2.3c-0.2-0.3-0.5-0.5-0.8-0.7V17.2c0.3-0.2,0.5-0.4,0.8-0.7l1.8-2.3l1.8,2.3  c0.2,0.3,0.5,0.5,0.8,0.7V82.8z M90,77.5c0,5.5-4.5,10-10,10h-4l-4.3-4.3c-0.2-0.2-0.3-0.3-0.5-0.4V17.2c0.2-0.1,0.4-0.2,0.5-0.4  l4.3-4.3h4c5.5,0,10,4.5,10,10V77.5z"></path><circle cx="20" cy="72.5" r="2.5"></circle><circle cx="20" cy="65" r="2.5"></circle><circle cx="20" cy="57.5" r="2.5"></circle><circle cx="20" cy="50" r="2.5"></circle><circle cx="20" cy="42.5" r="2.5"></circle><circle cx="20" cy="35" r="2.5"></circle><circle cx="20" cy="27.5" r="2.5"></circle><circle cx="83.8" cy="23.8" r="2.5"></circle><circle cx="83.8" cy="31.3" r="2.5"></circle><circle cx="83.8" cy="38.8" r="2.5"></circle><circle cx="83.8" cy="46.3" r="2.5"></circle><circle cx="78.8" cy="50" r="2.5"></circle><circle cx="78.8" cy="42.5" r="2.5"></circle><circle cx="78.8" cy="35" r="2.5"></circle><circle cx="78.8" cy="27.5" r="2.5"></circle></svg>