<svg height='100px' width='100px'  fill="#000000" xmlns="http://www.w3.org/2000/svg" xmlns:xlink="http://www.w3.org/1999/xlink" version="1.1" x="0px" y="0px" viewBox="0 0 100 100" enable-background="new 0 0 100 100" xml:space="preserve"><g><g><path d="M41.032,51.694c-2.291,0-4.508,0.953-6.083,2.613c-1.542,1.625-2.358,3.754-2.299,5.992s0.987,4.32,2.611,5.86    c1.564,1.484,3.613,2.303,5.769,2.303c2.291,0,4.508-0.953,6.084-2.615c3.181-3.354,3.041-8.67-0.313-11.853    C45.236,52.511,43.187,51.694,41.032,51.694z M44.455,63.325c-0.9,0.949-2.117,1.472-3.425,1.472c-1.213,0-2.366-0.46-3.247-1.296    c-0.915-0.867-1.436-2.037-1.469-3.298s0.426-2.458,1.294-3.373c0.899-0.948,2.115-1.471,3.424-1.471    c1.213,0,2.366,0.46,3.246,1.294C46.165,58.445,46.245,61.438,44.455,63.325z"></path><path d="M98.362,9.633L97.17,8.502l1.275-2.156l-6.548-6.21l-2.085,1.387l-1.193-1.132c-0.733-0.695-1.892-0.667-2.588,0.068    c-0.696,0.734-0.666,1.893,0.068,2.589l0.585,0.556l-1.042,0.693l-1.271-1.203c-0.732-0.695-1.892-0.668-2.588,0.068    c-0.695,0.733-0.666,1.892,0.068,2.588l0.662,0.628L80.648,7.62l0.321,3.445L50.974,40.168c-2.014-1.232-6.069-3.346-10.158-3.346    c-4.146,0-7.336,2.135-9.225,6.174c-3.647,7.802-9.546,11.052-10.362,11.472c-1.795,0.55-16.357,5.311-18.787,15.372    c-1.348,5.581,1.265,11.538,7.766,17.704l4.781,4.537c5.132,4.868,10.037,7.336,14.579,7.336    c12.493,0,17.336-18.011,17.845-20.059c0.381-0.851,3.296-6.877,10.881-10.924c3.062-1.634,4.91-3.948,5.492-6.88    c0.98-4.941-2.088-10.191-3.723-12.557l28.024-31.164l3.475,0.14l1.141-1.928l0.662,0.628c0.354,0.335,0.808,0.502,1.261,0.502    c0.484,0,0.968-0.191,1.328-0.571c0.696-0.734,0.667-1.893-0.068-2.589l-1.269-1.204l0.638-1.078l0.585,0.556    c0.354,0.336,0.809,0.503,1.261,0.503c0.484,0,0.969-0.191,1.328-0.571C99.126,11.488,99.097,10.329,98.362,9.633z M86.518,14.105    L56.342,47.661l-1.05,1.171l0.996,1.216c0.048,0.06,4.862,6.007,3.905,10.801c-0.364,1.824-1.55,3.248-3.622,4.354    c-9.375,5.001-12.475,12.576-12.602,12.896l-0.081,0.255c-0.042,0.175-4.249,17.401-14.321,17.401    c-3.573,0-7.63-2.131-12.059-6.331l-4.781-4.535C7.25,79.689,4.986,74.919,6,70.705c2.032-8.442,16.275-12.729,16.419-12.771    l0.253-0.095c0.313-0.146,7.737-3.666,12.236-13.292c1.278-2.734,3.21-4.063,5.907-4.063c4.438,0,9.254,3.464,9.302,3.499    l1.248,0.908l33.416-32.418L84.5,9.457l6.994-4.655l2.312,2.191l-4.279,7.233L86.518,14.105z"></path><path d="M28.265,69.339c-0.734-0.697-1.894-0.664-2.589,0.068c-0.696,0.732-0.666,1.893,0.068,2.588l4.429,4.2    c0.354,0.336,0.808,0.503,1.259,0.503c0.485,0,0.969-0.192,1.33-0.571c0.695-0.733,0.665-1.894-0.069-2.589L28.265,69.339z"></path></g></g></svg>