<svg height='100px' width='100px'  fill="#000000" xmlns="http://www.w3.org/2000/svg" viewBox="0 0 96 96" x="0px" y="0px"><title>Artboard 4</title><path d="M87.176,33.3368H31.3746L86.0921,22.3936A2,2,0,0,0,87.66,20.04L85.3069,8.2727a1.9894,1.9894,0,0,0-2.3535-1.5683L8.4311,21.6085a1.9993,1.9993,0,0,0-1.5683,2.3534L9.1772,35.534V87.336a1.9988,1.9988,0,0,0,2,2H87.176a1.9988,1.9988,0,0,0,2-2V35.3368A1.9988,1.9988,0,0,0,87.176,33.3368Zm-2,12H74.9133l5.3331-8h4.93Zm-26.2626,0,5.3332-8H75.4391l-5.3331,8Zm-16,0,5.3332-8H59.4394l-5.3332,8Zm-16,0,5.3331-8H43.44l-5.3332,8Zm-13.7369,0v-8H27.44l-5.3331,8Zm22.445-25.0875,6.7995,6.8-10.9764,2.195-6.7985-6.8Zm15.69-3.1376,6.7984,6.8L47.1351,26.106l-6.7994-6.8Zm15.6884-3.1377L73.8,20.7733,62.8236,22.9685l-6.7982-6.8ZM83.346,18.8644l-4.8324.9663-6.7995-6.7995,10.0636-2.0124ZM19.9336,23.3865l6.7982,6.8L12.7455,32.9833l-1.5684-7.8456Zm-6.7565,61.95V49.3366h71.999V85.336Z"></path></svg>