<svg height='100px' width='100px'  fill="#000000" xmlns="http://www.w3.org/2000/svg" xmlns:xlink="http://www.w3.org/1999/xlink" version="1.1" x="0px" y="0px" viewBox="0 0 100 100" enable-background="new 0 0 100 100" xml:space="preserve"><path d="M27,78c2.3,2.3,5.8-1.3,3.5-3.5l-5-5c-2.3-2.3-5.8,1.3-3.5,3.5L27,78z"></path><path d="M94.3,12L88,5.7c-1-1-2.7-0.9-3.7,0.1l-7.5,8.8c-1.1,1.3-0.5,2.7,0.5,3.8L50,45.7c-1.2-1-2.6-1.9-4-2.6l0-0.1  c0.5-1.3-0.1-2.7-1.4-3.3c-1.3-0.5-2.7,0.1-3.3,1.4l0,0.1c-1.7-0.5-3.4-0.9-5.2-1V40c0-1.4-1.1-2.5-2.5-2.5s-2.5,1.1-2.5,2.5v0.1  c-1.8,0.2-3.5,0.5-5.2,1l0-0.1c-0.5-1.3-2-1.9-3.3-1.4c-1.3,0.5-1.9,2-1.4,3.3l0,0.1c-1.6,0.8-3,1.8-4.4,2.9L17,45.9  c-1-1-2.6-1-3.5,0c-1,1-1,2.6,0,3.5l0.1,0.1c-1.1,1.4-2.1,2.8-2.9,4.4l-0.1,0c-1.3-0.5-2.7,0.1-3.3,1.4c-0.5,1.3,0.1,2.7,1.4,3.3  l0.1,0c-0.5,1.7-0.9,3.4-1,5.2H7.5c-1.4,0-2.5,1.1-2.5,2.5s1.1,2.5,2.5,2.5h0.1c0.2,1.8,0.5,3.5,1,5.2l-0.1,0  c-1.3,0.5-1.9,2-1.4,3.3c0.4,1,1.3,1.5,2.3,1.5c0.3,0,0.6-0.1,1-0.2l0.1,0c0.8,1.6,1.8,3,2.9,4.4L13.4,83c-1,1-1,2.6,0,3.5  c0.5,0.5,1.1,0.7,1.8,0.7s1.3-0.2,1.8-0.7l0.1-0.1c1.4,1.1,2.8,2.1,4.4,2.9l0,0.1c-0.5,1.3,0.1,2.7,1.4,3.3c0.3,0.1,0.6,0.2,1,0.2  c1,0,1.9-0.6,2.3-1.5l0-0.1c1.7,0.5,3.4,0.9,5.2,1v0.1c0,1.4,1.1,2.5,2.5,2.5s2.5-1.1,2.5-2.5v-0.1c1.8-0.2,3.5-0.5,5.2-1l0,0.1  c0.4,1,1.3,1.5,2.3,1.5c0.3,0,0.6-0.1,1-0.2c1.3-0.5,1.9-2,1.4-3.3l0-0.1c1.6-0.8,3-1.8,4.4-2.9l0.1,0.1c0.5,0.5,1.1,0.7,1.8,0.7  s1.3-0.2,1.8-0.7c1-1,1-2.6,0-3.5L54,83c1.1-1.4,2.1-2.8,2.9-4.4l0.1,0c0.3,0.1,0.6,0.2,1,0.2c1,0,1.9-0.6,2.3-1.5  c0.5-1.3-0.1-2.7-1.4-3.3l-0.1,0c0.5-1.7,0.9-3.4,1-5.2H60c1.4,0,2.5-1.1,2.5-2.5s-1.1-2.5-2.5-2.5h-0.1c-0.2-1.8-0.5-3.5-1-5.2  l0.1,0c1.3-0.5,1.9-2,1.4-3.3c-0.5-1.3-2-1.9-3.3-1.4l-0.1,0c-0.8-1.4-1.6-2.7-2.6-4l27.3-27.3c1,1,2.5,1.6,3.8,0.5l8.8-7.5  C95.2,14.7,95.3,13,94.3,12z M31.6,69.1c-1.1,1.1,0.6,2.9,1.8,1.8l17.4-17.4c2.7,3.6,4.3,7.9,4.3,12.7c0,11.7-9.5,21.3-21.3,21.3  c-4.7,0-9-1.5-12.5-4.1l3.2-2.4c1.3-1-0.2-3-1.5-2l-3.7,2.8c-0.4-0.3-0.7-0.7-1.1-1.1L21,77c1-1.3-1-2.8-2-1.5l-2.4,3.2  c-2.6-3.5-4.1-7.8-4.1-12.5C12.5,54.5,22,45,33.8,45c4.8,0,9.2,1.6,12.7,4.3L29.1,66.6c-1.1,1.1,0.6,2.9,1.8,1.8l47.9-47.9l0.7,0.7  L31.6,69.1z M83.9,17.8l-1.7-1.7l4.2-4.9l2.4,2.4L83.9,17.8z"></path></svg>