<svg height='100px' width='100px'  fill="#000000" xmlns:dc="http://purl.org/dc/elements/1.1/" xmlns:cc="http://creativecommons.org/ns#" xmlns:rdf="http://www.w3.org/1999/02/22-rdf-syntax-ns#" xmlns:svg="http://www.w3.org/2000/svg" xmlns="http://www.w3.org/2000/svg" xmlns:sodipodi="http://sodipodi.sourceforge.net/DTD/sodipodi-0.dtd" xmlns:inkscape="http://www.inkscape.org/namespaces/inkscape" viewBox="0 0 16.933333 16.933334" version="1.1" x="0px" y="0px"><g transform="translate(0,-280.06665)"><path style="color:#000000;font-style:normal;font-variant:normal;font-weight:normal;font-stretch:normal;font-size:medium;line-height:normal;font-family:sans-serif;font-variant-ligatures:normal;font-variant-position:normal;font-variant-caps:normal;font-variant-numeric:normal;font-variant-alternates:normal;font-feature-settings:normal;text-indent:0;text-align:start;text-decoration:none;text-decoration-line:none;text-decoration-style:solid;text-decoration-color:#000000;letter-spacing:normal;word-spacing:normal;text-transform:none;writing-mode:lr-tb;direction:ltr;text-orientation:mixed;dominant-baseline:auto;baseline-shift:baseline;text-anchor:start;white-space:normal;shape-padding:0;clip-rule:nonzero;display:inline;overflow:visible;visibility:visible;opacity:1;isolation:auto;mix-blend-mode:normal;color-interpolation:sRGB;color-interpolation-filters:linearRGB;solid-color:#000000;solid-opacity:1;vector-effect:none;fill:#000000;fill-opacity:1;fill-rule:nonzero;stroke:none;stroke-width:0.5291667;stroke-linecap:round;stroke-linejoin:round;stroke-miterlimit:4;stroke-dasharray:none;stroke-dashoffset:0;stroke-opacity:1;paint-order:stroke fill markers;color-rendering:auto;image-rendering:auto;shape-rendering:auto;text-rendering:auto;enable-background:accumulate" d="m 7.7385466,280.99217 c -0.2887134,0 -0.5291667,0.24046 -0.5291667,0.52917 v 1.58801 H 0.85989588 a 0.26460982,0.26460982 0 0 0 -0.26354878,0.26562 v 12.43335 a 0.26460982,0.26460982 0 0 0 0.26354878,0.26562 H 16.205729 a 0.26460982,0.26460982 0 0 0 0.265618,-0.26562 v -12.43335 a 0.26460982,0.26460982 0 0 0 -0.265618,-0.26562 H 9.8562451 v -1.58801 c 0,-0.28871 -0.2409692,-0.52917 -0.5296826,-0.52917 z m 0,0.52917 h 1.5880159 v 1.58801 H 7.7385466 Z m 0.7953004,0.26561 c -0.2892636,0 -0.5312357,0.23991 -0.5312357,0.52917 0,0.28927 0.2419721,0.52969 0.5312357,0.52969 0.2892611,0 0.5291667,-0.24042 0.5291667,-0.52969 0,-0.28926 -0.2399056,-0.52917 -0.5291667,-0.52917 z m -7.4104023,1.85157 H 15.94218 v 11.90625 H 1.1234447 Z m 0.7953004,0.52917 a 0.26460982,0.26460982 0 0 0 -0.2661338,0.26355 v 10.32082 a 0.26460982,0.26460982 0 0 0 0.2661338,0.26354 H 15.14688 a 0.26460982,0.26460982 0 0 0 0.265615,-0.26354 v -10.32082 a 0.26460982,0.26460982 0 0 0 -0.265615,-0.26355 z m 0.2635515,0.52916 H 14.883329 v 6.34432 l -4.072102,-3.11557 a 0.26460982,0.26460982 0 0 0 -0.174151,-0.0527 0.26460982,0.26460982 0 0 0 -0.160195,0.0625 l -1.8515675,1.58801 0.06046,0.0703 -1.5642431,-1.39061 a 0.26460982,0.26460982 0 0 0 -0.1953392,-0.0667 0.26460982,0.26460982 0 0 0 -0.1384909,0.0512 l -4.6054036,3.39514 z m 7.6941019,0.52245 a 0.26460982,0.26460982 0 0 0 -0.1395254,0.0346 l -0.4103106,0.20515 -0.4097946,-0.20515 a 0.26460982,0.26460982 0 0 0 -0.1291907,-0.0295 0.26460982,0.26460982 0 0 0 -0.1095534,0.50178 l 0.6485387,0.32453 0.6464724,-0.32453 a 0.26460982,0.26460982 0 0 0 -0.096636,-0.50695 z m 2.6463515,0.52917 a 0.26460982,0.26460982 0 0 0 -0.139528,0.0346 l -0.409792,0.20516 -0.412379,-0.20516 a 0.26460982,0.26460982 0 0 0 -0.127125,-0.0294 0.26460982,0.26460982 0 0 0 -0.109037,0.50229 l 0.648541,0.32401 0.646473,-0.32401 a 0.26460982,0.26460982 0 0 0 -0.09715,-0.50746 z m -7.4305554,0.5364 c -0.4352422,0 -0.7927154,0.358 -0.7927154,0.79323 0,0.43525 0.3574732,0.79272 0.7927154,0.79272 0.4352423,0 0.7953005,-0.35747 0.7953005,-0.79272 0,-0.43523 -0.3600582,-0.79323 -0.7953005,-0.79323 z m 4.7542319,0.262 a 0.26460982,0.26460982 0 0 0 -0.1095534,0.50385 l 0.6485389,0.32401 0.646472,-0.32401 a 0.26530925,0.26530925 0 0 0 -0.236678,-0.47491 l -0.409794,0.20722 -0.4123771,-0.20722 a 0.26460982,0.26460982 0 0 0 -0.1266084,-0.0289 z m -4.7542319,0.26769 c 0.1492594,0 0.2656179,0.11429 0.2656179,0.26354 0,0.14926 -0.1163585,0.26562 -0.2656179,0.26562 -0.1492567,0 -0.2635488,-0.11636 -0.2635488,-0.26562 0,-0.14925 0.1142921,-0.26354 0.2635488,-0.26354 z m 5.5665874,1.66191 4.224547,3.23133 v 2.77864 H 2.1822966 v -2.24741 l 4.7480299,-3.49694 4.6012685,4.08967 0.351917,-0.39429 -2.8685572,-2.55075 z"></path></g></svg>