<svg height='100px' width='100px'  fill="#000000" xmlns:dc="http://purl.org/dc/elements/1.1/" xmlns:cc="http://creativecommons.org/ns#" xmlns:rdf="http://www.w3.org/1999/02/22-rdf-syntax-ns#" xmlns:svg="http://www.w3.org/2000/svg" xmlns="http://www.w3.org/2000/svg" xmlns:sodipodi="http://sodipodi.sourceforge.net/DTD/sodipodi-0.dtd" xmlns:inkscape="http://www.inkscape.org/namespaces/inkscape" version="1.1" x="0px" y="0px" viewBox="0 0 100 100"><g transform="translate(0,-952.36218)"><path style="font-size:medium;font-style:normal;font-variant:normal;font-weight:normal;font-stretch:normal;text-indent:0;text-align:start;text-decoration:none;line-height:normal;letter-spacing:normal;word-spacing:normal;text-transform:none;direction:ltr;block-progression:tb;writing-mode:lr-tb;text-anchor:start;baseline-shift:baseline;opacity:1;color:#000000;fill:#000000;fill-opacity:1;stroke:none;stroke-width:3.99999976000000010;marker:none;visibility:visible;display:inline;overflow:visible;enable-background:accumulate;font-family:Sans;-inkscape-font-specification:Sans" d="M 86.75,6 C 86.66544,6.015433 86.581875,6.036324 86.5,6.0625 l -50,13.28125 c -0.851134,0.219832 -1.500375,1.058435 -1.5,1.9375 L 35,70.25 C 32.454098,67.638865 28.918313,66 25,66 c -7.708297,0 -14,6.2917 -14,14 0,7.7083 6.291703,14 14,14 7.708297,0 14,-6.2917 14,-14 0,-1.266294 0,-36.5 0,-36.5 L 85,31.28125 85,56.25 C 82.454098,53.638865 78.918313,52 75,52 c -7.708297,0 -14,6.2917 -14,14 0,7.7083 6.291703,14 14,14 7.708297,0 14,-6.2917 14,-14 0,-1.539587 0,-58 0,-58 0.0088,-1.1359289 -1.122935,-2.1419016 -2.25,-2 z M 85,10.5625 85,27.15625 39,39.40625 39,22.8125 z M 75,56 c 5.546537,0 10,4.4534 10,10 0,5.5465 -4.453463,10 -10,10 C 69.453463,76 65,71.5465 65,66 65,60.4534 69.453463,56 75,56 z M 25,70 c 5.546537,0 10,4.4535 10,10 0,5.5465 -4.453463,10 -10,10 -5.546537,0 -10,-4.4535 -10,-10 0,-5.5465 4.453463,-10 10,-10 z" transform="translate(0,952.36218)"></path></g></svg>