<svg height='100px' width='100px'  fill="#000000" xmlns="http://www.w3.org/2000/svg" xmlns:xlink="http://www.w3.org/1999/xlink" version="1.1" x="0px" y="0px" viewBox="0 0 512 512" enable-background="new 0 0 512 512" xml:space="preserve"><g><g><g><path d="M272.979,122.34H26.33c-4.96,0-9-4.04-9-9s4.04-9,9-9h246.65c4.96,0,9,4.04,9,9S277.939,122.34,272.979,122.34z"></path></g><g><path d="M272.979,192.72H26.33c-4.96,0-9-4.04-9-9s4.04-9,9-9h246.65c4.96,0,9,4.04,9,9S277.939,192.72,272.979,192.72z"></path></g><g><path d="M272.979,263.1H26.33c-4.96,0-9-4.04-9-9s4.04-9,9-9h246.65c4.96,0,9,4.04,9,9S277.939,263.1,272.979,263.1z"></path></g><g><path d="M272.979,333.51H26.33c-4.96,0-9-4.03-9-9c0-4.96,4.04-9,9-9h246.65c4.96,0,8.99,4.04,8.99,9     C281.97,329.479,277.939,333.51,272.979,333.51z"></path></g><g><path d="M265.399,465.46L265.399,465.46c-15.28,0-30.08-2.76-42.81-7.96c-6.34-2.61-12.03-5.75-16.9-9.32     c-5.1-3.75-9.34-8-12.6-12.649c-4.7-6.7-7.17-14.23-7.16-21.79c-0.01-7.54,2.46-15.07,7.16-21.771     c4.28-6.12,10.27-11.54,17.82-16.12c7.28-4.399,15.64-7.83,24.83-10.189c9.36-2.4,19.34-3.63,29.66-3.641l0,0l0,0     c15.28,0.011,30.08,2.761,42.82,7.98c6.35,2.609,12.03,5.74,16.9,9.319c5.1,3.75,9.34,8,12.609,12.65     c4.69,6.69,7.17,14.22,7.16,21.771c0.01,7.56-2.46,15.09-7.16,21.79c-4.279,6.119-10.279,11.539-17.819,16.119     c-7.29,4.4-15.65,7.83-24.841,10.181C285.7,464.229,275.72,465.45,265.399,465.46z M265.35,380.02     c-12.94,0-25.37,2.29-35.93,6.63c-9.53,3.881-17.39,9.58-21.57,15.62c-2.63,3.8-3.91,7.55-3.92,11.471     c0.01,3.939,1.3,7.699,3.92,11.489c2.78,3.99,7.06,7.811,12.39,11.03c11.69,7.12,28.09,11.2,45.02,11.2h0.19     c12.949,0,25.38-2.29,35.949-6.62c9.53-3.88,17.391-9.57,21.57-15.61c2.62-3.79,3.91-7.55,3.92-11.489     c-0.01-3.921-1.3-7.671-3.92-11.471c-2.78-3.989-7.07-7.81-12.39-11.029c-11.7-7.131-28.12-11.221-45.04-11.221h-0.141l0,0l0,0     H265.35z"></path></g><g><path d="M486.12,274.75c-3.5,0-6.7-2.061-8.17-5.24c-7.971-17.35-19.53-32.2-34.341-44.14c-12.229-9.85-26.779-17.82-43.27-23.68     c-29.76-10.63-57.22-11.17-62.43-11.17h-0.21c-0.61,0-1.011,0.01-1.19,0.01c-0.25,0.01-0.31,0.01-0.31,0.01     c-2.48,0.08-4.811-0.82-6.57-2.52c-1.74-1.69-2.74-4.05-2.74-6.47v-80.5c0-2.78,1.32-5.46,3.53-7.15     c2.18-1.67,5.149-2.26,7.82-1.54l0.029,0.01c2.101,0.58,21.19,6.04,45.54,19.1c14.84,7.96,28.58,17.1,40.83,27.15     c15.43,12.66,28.63,26.88,39.24,42.27c17.189,24.93,27.689,53.14,31.189,83.84c0.511,4.42-2.229,8.49-6.52,9.69     C487.76,274.64,486.939,274.75,486.12,274.75z M344.89,172.71c8.68,0.4,22.36,1.65,38.3,5.29     c28.061,6.43,52.19,17.65,71.71,33.35c3.57,2.87,7.03,5.94,10.29,9.13c-4.01-9.49-8.989-18.73-14.83-27.46     c-11.939-17.86-27.689-34-46.81-47.97c-23.38-17.11-46.76-27.08-58.66-31.52V172.71z"></path></g><g><path d="M335.89,422.74c-4.96,0-9-4.03-9-9V55.78c0-4.97,4.04-9,9-9s9,4.03,9,9v357.96     C344.89,418.71,340.85,422.74,335.89,422.74z"></path></g></g></g></svg>