<svg height='100px' width='100px'  fill="#000000" xmlns="http://www.w3.org/2000/svg" xmlns:xlink="http://www.w3.org/1999/xlink" version="1.1" x="0px" y="0px" viewBox="0 0 100 100" enable-background="new 0 0 100 100" xml:space="preserve"><g><g><g><path d="M31.94,85.162c-6.903,0-12.354-1.804-15.767-5.215c-10.081-10.081-3.7-40.325,11.771-55.796     C39.806,12.289,56.848,6.98,68.476,6.98c6.895,0,12.246,1.708,15.477,4.938c4.944,4.945,6.48,14.541,4.107,25.669     c-2.411,11.307-8.367,22.365-16.341,30.338C61.408,78.235,45.423,85.162,31.94,85.162z M68.476,10.147     c-10.975,0-27.071,5.022-38.292,16.243c-15.23,15.23-19.938,43.15-11.771,51.317c2.765,2.766,7.569,4.288,13.527,4.288     c12.698,0,27.784-6.555,37.539-16.31c7.554-7.553,13.196-18.035,15.483-28.759c2.148-10.075,0.934-18.586-3.25-22.77     C79.126,11.571,74.425,10.147,68.476,10.147z"></path></g><g><path d="M37.011,59.836c-0.384,0-0.768-0.146-1.061-0.439c-0.586-0.586-0.586-1.535,0-2.121L61.406,31.82     c0.586-0.586,1.535-0.586,2.121,0c0.586,0.585,0.586,1.536,0,2.121L38.071,59.396C37.778,59.689,37.395,59.836,37.011,59.836z"></path></g><g><g><path d="M64.588,41.451c-0.384,0-0.768-0.146-1.061-0.439l-9.192-9.192c-0.586-0.585-0.586-1.536,0-2.121      c0.586-0.586,1.535-0.586,2.121,0l9.192,9.192c0.586,0.585,0.586,1.536,0,2.121C65.355,41.305,64.972,41.451,64.588,41.451z"></path></g><g><path d="M59.638,46.401c-0.384,0-0.768-0.146-1.061-0.439l-9.192-9.192c-0.586-0.586-0.586-1.536,0-2.121      c0.586-0.586,1.536-0.586,2.122,0l9.191,9.192c0.586,0.586,0.586,1.536,0,2.121C60.405,46.255,60.021,46.401,59.638,46.401z"></path></g><g><path d="M54.688,51.352c-0.384,0-0.768-0.146-1.061-0.44l-9.192-9.192c-0.586-0.585-0.586-1.536,0-2.121      c0.586-0.586,1.535-0.586,2.121,0l9.192,9.192c0.586,0.585,0.586,1.536,0,2.121C55.456,51.205,55.072,51.352,54.688,51.352z"></path></g><g><path d="M49.032,57.008c-0.384,0-0.768-0.146-1.061-0.439l-9.192-9.192c-0.586-0.585-0.586-1.536,0-2.121      c0.586-0.586,1.535-0.586,2.121,0l9.192,9.192c0.586,0.586,0.586,1.535,0,2.121C49.799,56.861,49.416,57.008,49.032,57.008z"></path></g><g><path d="M44.082,61.957c-0.384,0-0.768-0.146-1.061-0.439l-9.192-9.191c-0.586-0.586-0.586-1.535,0-2.121      c0.585-0.586,1.535-0.586,2.121,0l9.192,9.191c0.586,0.586,0.586,1.535,0,2.121C44.85,61.811,44.465,61.957,44.082,61.957z"></path></g></g></g></g></svg>