<svg height='100px' width='100px'  fill="#000000" xmlns="http://www.w3.org/2000/svg" xmlns:xlink="http://www.w3.org/1999/xlink" version="1.1" x="0px" y="0px" viewBox="0 0 100 100" style="enable-background:new 0 0 100 100;" xml:space="preserve"><path d="M97.5,43.1c-0.3-5.5-5-9.7-10.4-9.4c-1,0.1-2,0.3-3,0.7c0.1-0.1,0.2-0.3,0.3-0.5c0.4-0.3,0.7-0.7,0.8-1.2  c0.3-0.2,0.5-0.5,0.6-0.8c0.4-0.3,0.7-0.7,0.8-1.1c0.2-0.2,0.4-0.5,0.5-0.8c0.4-0.3,0.7-0.7,0.8-1.1c0.4,0.1,0.7,0.1,1.1,0.1  c3.2,0,5.9-2.6,5.9-5.9c0-3.2-2.6-5.9-5.9-5.9c-3.2,0-5.9,2.6-5.9,5.9c0,1,0.3,2,0.8,2.9c0,0,0,0.1,0,0.1c-0.3,0.2-0.5,0.5-0.6,0.8  c-0.4,0.3-0.7,0.7-0.8,1.1c-0.2,0.2-0.4,0.5-0.5,0.8c-0.4,0.3-0.7,0.7-0.8,1.2c-0.3,0.2-0.5,0.5-0.6,0.8c-0.3,0.2-0.5,0.5-0.7,0.9  c-0.3,0.3-0.6,0.6-0.7,1c-0.4,0.3-0.7,0.7-0.8,1.2c-0.3,0.2-0.5,0.5-0.6,0.8c-0.4,0.3-0.7,0.8-0.9,1.3c-0.4,0.3-0.6,0.7-0.8,1.2  c-0.3,0.2-0.5,0.5-0.6,0.8c-0.4,0.3-0.7,0.7-0.8,1.1c-0.1,0.1-0.2,0.2-0.3,0.3c-2.7-1.7-5.8-2.6-9-2.6c-0.3,0-0.7,0-1,0  c0-0.5-0.2-1-0.5-1.3c0-0.3-0.1-0.7-0.3-1c0-0.5-0.2-0.9-0.4-1.3c0-0.3-0.1-0.6-0.3-0.9c0-0.3-0.1-0.6-0.2-0.8  c1.2-1.1,1.8-2.6,1.8-4.3c0-3.2-2.6-5.9-5.9-5.9c-3.2,0-5.9,2.6-5.9,5.9c0,3,2.3,5.5,5.2,5.8c0.1,0.2,0.1,0.4,0.2,0.5  c0,0.5,0.2,0.9,0.4,1.3c0,0.3,0.1,0.6,0.3,0.9c0,0.5,0.2,1,0.5,1.4c0,0.2,0.1,0.4,0.2,0.6c-0.6,0.2-1.1,0.4-1.7,0.7  c-2.3-1.2-4.8-1.8-7.3-1.8c-3.2,0-6.2,0.9-8.9,2.7c-0.1-0.1-0.2-0.1-0.3-0.2L41,39.4c-7.6-3.3-20.6-0.1-27.5,2.8  C7.8,44.3,4,50,4,56.2c0,6.5,4,12.2,10,14.2c1.9,0.7,4.6,1.1,8.4,1.2c0.9,6.8,4.9,11.6,9.6,11.6h3.4c5.1,0,9.3-5.7,9.8-13.1  c1-0.2,1.8-0.6,2.6-1.3c1.9,0.4,3.9,0.5,6,0.1c2.8,2.6,6.4,4.2,10.1,4.5c1.7,2,3.8,3,6,3h3.4c5.4,0,9.8-6.6,9.8-14.6  c0-1.3-0.1-2.6-0.4-3.9c0.1-1,0.2-1.8,0.2-2.6c0-1-0.1-2-0.3-3c1.7,1,3.6,1.5,5.6,1.4c2.6-0.2,5-1.3,6.8-3.3  C96.8,48.3,97.7,45.7,97.5,43.1z M73.3,74.8h-0.6c2.7-1.4,4.8-4.6,5.7-8.8c1.4-1.8,2.4-3.8,3-6.1c0.1,0.6,0.1,1.2,0.1,1.9  C81.5,69,77.8,74.8,73.3,74.8z M51.1,67.5c-1.2,0-2.5-0.2-3.6-0.5L47.2,67l-0.1,0.2c-0.7,0.8-1.5,1.3-2.4,1.4l-0.3,0  c0-7.5-4-13.6-8.9-13.6h-1.5c0.5,0,1-0.1,1.3-0.1c2.5-0.2,4.1-0.8,5.1-1.9c0.3-0.4,0.5-0.8,0.6-1.2c0.7-0.3,1.2-0.9,1.2-1.7  c0-1-0.8-1.8-1.8-1.8c-0.6-0.8-1.6-1.3-2.7-1.6c1.1-2,2.6-3.7,4.4-5.1c2.5-1.8,5.5-2.8,8.6-2.8c2.3,0,4.6,0.6,6.5,1.6  c-5,3-8.4,8.6-8.4,15c0,4.7,1.8,8.9,4.7,12C52.7,67.4,51.9,67.5,51.1,67.5z M35.4,81.6h-0.6c3.5-1.8,6.1-6.9,6.1-13  c0-6-2.6-11.2-6.1-13h0.6c4.5,0,8.2,5.8,8.2,13C43.6,75.8,39.9,81.6,35.4,81.6z M23.9,68.6c0-7.2,3.7-13,8.2-13s8.2,5.8,8.2,13  c0,7.2-3.7,13-8.2,13S23.9,75.8,23.9,68.6z M23.2,70c-3.5,0-6.6-0.3-8.5-1.1l-0.1,0C9.3,67.1,5.7,62,5.7,56.2c0-5.2,3-10,7.6-12.1  c-0.1,0.2-0.2,0.5-0.3,0.7c-2.6,1.6-4.4,4.5-4.4,7.8c0,5,4,9,8.9,9c3.9,0,7.3-2.6,8.4-6.2c1.6-0.1,3.2-0.2,4.7-0.2  c-4.2,1.1-7.4,6.7-7.4,13.5C23.2,69.1,23.2,69.5,23.2,70z M39.8,52.5c-0.8,0.9-2.3,1.5-4.6,1.7c-3.8,0.3-15.3,0.9-16.6,0.8  c-0.5,0-1-0.3-1.4-0.8c-0.5-0.5-0.7-1.2-0.7-1.7c0.1-1.1,0.5-2.1,2.6-2.5c0.6-0.1,1.8-0.3,3.3-0.6c4.2-0.8,11.3-2.1,12.8-2.2  c2.3-0.2,4.8,0.6,5.1,3.1C40.5,51.1,40.3,51.9,39.8,52.5z M23.8,46.2c-0.8-0.8-1.7-1.5-2.8-1.9c1.8-1.5,3.9-2.9,6.3-4.2  c0.5-0.1,1-0.1,1.5-0.2C26.6,41.3,24.4,43.5,23.8,46.2z M18.7,43.6c-0.4-0.1-0.8-0.1-1.2-0.1c-0.4,0-0.7,0-1.1,0.1  c0.5-0.4,1-0.9,1.6-1.3c0.8-0.3,1.7-0.5,2.5-0.8C19.9,42.2,19.3,42.9,18.7,43.6z M17.5,44.2c3,0,5.6,1.6,7,4c-0.7,0.1-1.4,0.3-2,0.4  c-1.5,0.3-2.7,0.5-3.3,0.6c-2.6,0.4-3.1,2-3.2,3.1c-0.1,0.7,0.2,1.6,0.8,2.3c0.5,0.6,1.2,1,1.9,1c0.1,0,0.2,0,0.4,0  c1.1,0,3.4-0.1,6.1-0.2c-1.2,3.2-4.2,5.5-7.7,5.5c-4.5,0-8.2-3.7-8.2-8.3S12.9,44.2,17.5,44.2z M35.2,46.4  c-1.2,0.1-5.9,0.9-10.1,1.7c-0.3-0.5-0.6-0.9-0.9-1.3c2.6-2.6,6.5-5.2,10.9-7.1c1.7,0.1,3.3,0.5,4.6,1c-1.5,1.6-2.7,3.6-3.5,5.7  C36,46.4,35.6,46.4,35.2,46.4z M55.6,24.9c0.7-0.9,1.8-1.4,3.1-1.4c2.2,0,4,1.8,4,4c0,0.3,0,0.6-0.1,0.9c-0.2-1.6-1.5-3-3.2-3.6  C58,24.3,56.7,24.4,55.6,24.9z M75.2,40.9c0-0.2,0.2-0.4,0.3-0.6c0,0.3,0.1,0.6,0.3,0.8c0.2,0.3,0.5,0.5,0.8,0.6  c-0.3,0-0.6,0.1-0.9,0.1c-0.2-0.1-0.3-0.3-0.5-0.4C75.2,41.2,75.1,41.1,75.2,40.9z M76.5,40.1c0.3,0.4,0.8,0.6,1.3,0.6  c0.1,0,0.3,0,0.4-0.1c-0.1,0.2-0.2,0.4-0.4,0.5c-0.6,0.4-1.4,0.3-1.8-0.3c-0.2-0.3-0.3-0.6-0.2-0.9c0-0.3,0.2-0.6,0.4-0.8  C76.2,39.5,76.3,39.9,76.5,40.1z M78.7,36.8c0.2,0.3,0.6,0.6,1,0.6c0.1,0,0.2,0,0.2,0c0.1,0,0.3,0,0.4-0.1c-0.1,0.2-0.2,0.4-0.4,0.5  c-0.6,0.4-1.4,0.3-1.8-0.3C78,37.3,77.9,37,78,36.7c0-0.3,0.2-0.6,0.4-0.8C78.4,36.2,78.5,36.5,78.7,36.8z M83.4,29.1  c0,0.3,0.1,0.6,0.3,0.8c0.2,0.3,0.6,0.6,1,0.6c0.1,0,0.2,0,0.2,0c0.2,0,0.4,0,0.5-0.1c-0.1,0.2-0.2,0.4-0.4,0.5  c-0.6,0.4-1.4,0.3-1.8-0.3C82.9,30.2,83,29.5,83.4,29.1z M93,24c-0.2-1.6-1.5-3-3.2-3.6c-1.3-0.5-2.7-0.4-3.7,0.1  c0.7-0.9,1.8-1.4,3.1-1.4c2.2,0,4,1.8,4,4C93.1,23.4,93.1,23.7,93,24z M87.3,27.7c-0.1,0.1-0.1,0.2-0.2,0.2  c-0.6,0.4-1.4,0.3-1.8-0.3c-0.2-0.3-0.3-0.6-0.2-0.9c0-0.2,0.1-0.3,0.2-0.5C85.8,26.8,86.5,27.4,87.3,27.7z M84.8,27.1  c0,0.3,0.1,0.5,0.3,0.7c0.3,0.4,0.8,0.6,1.3,0.6c0.2,0,0.3,0,0.5-0.1c-0.1,0.2-0.2,0.5-0.4,0.6c-0.6,0.4-1.4,0.3-1.8-0.3  C84.3,28.2,84.4,27.5,84.8,27.1z M85.7,29.5c0.1,0,0.3,0,0.4-0.1c-0.1,0.2-0.2,0.4-0.4,0.5c-0.3,0.2-0.6,0.3-0.9,0.2  c-0.3,0-0.6-0.2-0.8-0.5c-0.4-0.5-0.3-1.3,0.2-1.7c0,0.3,0.1,0.6,0.3,0.9C84.7,29.3,85.2,29.5,85.7,29.5z M83.1,30.8  c0.2,0.3,0.6,0.6,1,0.6c0.1,0,0.2,0,0.2,0c0.1,0,0.3,0,0.4-0.1c-0.1,0.2-0.2,0.4-0.4,0.5c-0.3,0.2-0.6,0.3-0.9,0.2  c-0.3,0-0.6-0.2-0.8-0.5c-0.2-0.3-0.3-0.6-0.2-0.9c0-0.3,0.2-0.6,0.4-0.8C82.8,30.2,82.9,30.5,83.1,30.8z M82.3,31.8  c0.2,0.3,0.6,0.6,1,0.6c0.1,0,0.2,0,0.2,0c0.2,0,0.3,0,0.5-0.1c-0.1,0.2-0.2,0.5-0.4,0.6c-0.6,0.4-1.4,0.3-1.8-0.3  c-0.4-0.5-0.3-1.2,0.2-1.7C82.1,31.3,82.2,31.6,82.3,31.8z M80.7,49.8c0.1,0.4,0.3,0.8,0.3,1.2c-0.7,0.4-1.2,1.7-1.2,3.1  c0,1.7,0.6,3,1.5,3.2c-0.1,0.4-0.1,0.9-0.2,1.3c-1-0.4-1.8-2.3-1.8-4.5C79.3,52.1,79.8,50.5,80.7,49.8z M80.4,47.9  c-1-2.1-2.3-4-4-5.5c4.4-0.5,9.1-1,10-1c0,0,0,0,0,0c0.5,0,1,0.3,1.4,0.7c0.5,0.5,0.8,1.2,0.8,1.7c0,1.1-0.4,2.2-2.5,2.7  c-0.6,0.1-1.8,0.4-3.3,0.8C82.1,47.4,81.3,47.7,80.4,47.9z M82.9,33.5c0.1,0,0.3,0,0.4-0.1c-0.1,0.2-0.2,0.4-0.4,0.5  c-0.3,0.2-0.6,0.3-0.9,0.2c-0.3,0-0.6-0.2-0.8-0.5c-0.4-0.5-0.3-1.3,0.2-1.7c0,0.3,0.1,0.6,0.3,0.9C81.9,33.3,82.4,33.5,82.9,33.5z   M82.1,34.5c0.1,0,0.3,0,0.4-0.1c-0.1,0.2-0.2,0.3-0.3,0.4c-0.6,0.4-1.4,0.3-1.8-0.3c-0.4-0.5-0.3-1.2,0.2-1.7c0,0.3,0.1,0.7,0.3,1  C81.2,34.3,81.7,34.5,82.1,34.5z M81.4,35.4c0.1,0,0.3,0,0.4-0.1c-0.1,0.2-0.2,0.4-0.4,0.5c-0.3,0.2-0.6,0.3-0.9,0.2  c-0.3,0-0.6-0.2-0.8-0.5c-0.4-0.5-0.3-1.3,0.2-1.7c0,0.3,0.1,0.6,0.3,0.9C80.5,35.2,81,35.4,81.4,35.4z M79.4,35.7  c0.3,0.4,0.8,0.6,1.3,0.6c0.2,0,0.3,0,0.5-0.1c-0.1,0.2-0.2,0.5-0.4,0.6c-0.3,0.2-0.6,0.3-0.9,0.2c-0.3,0-0.6-0.2-0.8-0.5  c-0.2-0.3-0.3-0.6-0.2-0.9c0-0.3,0.2-0.5,0.4-0.7C79.2,35.2,79.3,35.5,79.4,35.7z M78,37.8c0.3,0.4,0.8,0.6,1.3,0.6  c0.2,0,0.3,0,0.5-0.1c-0.1,0.3-0.2,0.6-0.5,0.8c-0.3,0.2-0.6,0.3-0.9,0.2c-0.3,0-0.6-0.2-0.8-0.5c-0.4-0.6-0.3-1.3,0.3-1.8  C77.7,37.3,77.8,37.6,78,37.8z M77.2,39c0.2,0.3,0.6,0.6,1,0.6c0.1,0,0.2,0,0.2,0c0.2,0,0.3,0,0.5-0.1c-0.1,0.2-0.2,0.5-0.4,0.6  c-0.6,0.4-1.4,0.3-1.8-0.3c-0.2-0.3-0.3-0.6-0.2-0.9c0-0.3,0.2-0.5,0.4-0.7C77,38.5,77,38.8,77.2,39z M61.6,32.6  c0,0.7-0.6,1.3-1.3,1.3c-0.7,0-1.2-0.5-1.3-1.1c0.2,0.1,0.5,0.2,0.8,0.2c0.7,0,1.3-0.5,1.5-1.1C61.5,32.1,61.6,32.4,61.6,32.6z   M60.4,34.2c0.7,0,1.2-0.4,1.4-1c0.1,0.2,0.1,0.4,0.1,0.6c0,0.7-0.6,1.3-1.3,1.3c-0.7,0-1.2-0.5-1.3-1.2  C59.7,34.1,60,34.2,60.4,34.2z M60.7,35.4c0.7,0,1.3-0.5,1.5-1.1c0.1,0.2,0.2,0.4,0.2,0.6c0,0.7-0.6,1.3-1.3,1.3  c-0.6,0-1.1-0.4-1.2-1C60.1,35.3,60.4,35.4,60.7,35.4z M61.1,36.4c0.7,0,1.2-0.4,1.4-1c0.1,0.2,0.2,0.4,0.2,0.6  c0,0.7-0.6,1.3-1.3,1.3c-0.7,0-1.2-0.5-1.3-1.2C60.4,36.3,60.8,36.4,61.1,36.4z M62.9,36.5c0.2,0.2,0.3,0.5,0.3,0.7  c0,0.7-0.6,1.3-1.3,1.3c-0.7,0-1.2-0.5-1.3-1.1c0.2,0.1,0.5,0.2,0.8,0.2C62.1,37.6,62.7,37.1,62.9,36.5z M61.9,38.8  c0.7,0,1.2-0.4,1.4-1c0.1,0.2,0.2,0.4,0.2,0.6c0,0.7-0.6,1.3-1.3,1.3c-0.7,0-1.2-0.5-1.3-1.2C61.2,38.7,61.5,38.8,61.9,38.8z   M63.3,43.5c0.7,0,1.2-0.4,1.4-1c0.1,0.2,0.2,0.4,0.2,0.6c0,0.7-0.6,1.3-1.3,1.3c-0.7,0-1.2-0.5-1.3-1.2  C62.6,43.4,63,43.5,63.3,43.5z M62.1,42c0.2,0.1,0.5,0.2,0.8,0.2c0.7,0,1.3-0.5,1.5-1.1c0.2,0.2,0.3,0.5,0.3,0.7  c0,0.7-0.6,1.3-1.3,1.3C62.7,43.2,62.1,42.7,62.1,42z M64.1,40.7c0,0.7-0.6,1.3-1.3,1.3c-0.7,0-1.2-0.5-1.3-1.2  c0.3,0.2,0.6,0.3,0.9,0.3c0.7,0,1.2-0.4,1.4-1C64.1,40.3,64.1,40.5,64.1,40.7z M63.8,39.5c0,0.7-0.6,1.3-1.3,1.3  c-0.7,0-1.2-0.5-1.3-1.1c0.3,0.2,0.6,0.3,1,0.3c0.7,0,1.2-0.4,1.4-1C63.7,39.2,63.8,39.3,63.8,39.5z M61.1,31.7  c-0.1,0.5-0.6,0.9-1.2,0.9c-0.3,0-0.6-0.1-0.8-0.3C59.8,32.3,60.5,32.1,61.1,31.7z M49.5,55.3c0-1.5,0.2-3,0.6-4.5  c2.3-3.6,6.3-6,10.7-6c7.1,0,12.9,6,12.9,13.4c0,0.2,0,0.4,0,0.6l5.3-1c-0.7-1.8-1.1-3.8-1.1-5.9c0-1.9,0.3-3.8,0.9-5.4  c0.2,0.3,0.4,0.6,0.5,0.9c-0.3,0.6-0.5,1.3-0.5,2c0,0.1,0,0.1,0.1,0.1c0,0,0,0,0,0c0.1,0,0.1,0,0.1-0.1c0.2-0.4,0.4-0.7,0.7-1.1  c0.2,0.4,0.4,0.9,0.5,1.3c-0.8,0.8-1.3,2.4-1.3,4.2c0,2.2,0.8,4.1,1.9,4.7c-1.5,7.5-7.9,13.2-15.6,13.2  C56.6,71.9,49.5,64.4,49.5,55.3z M65.4,72.6c4.7,0,8.9-2,12-5.3c-1.3,4.5-4.1,7.6-7.4,7.6C68.2,74.8,66.6,74,65.4,72.6  C65.3,72.6,65.4,72.6,65.4,72.6z M82.3,49.9c-0.5-0.4-0.9-1-1.3-1.5c0.7-0.2,1.4-0.3,2-0.5c1.5-0.4,2.7-0.7,3.2-0.8  c2.6-0.6,3-2.2,3-3.3c0-0.7-0.3-1.6-1-2.2c-0.6-0.6-1.3-0.9-1.9-0.9c0,0,0,0,0,0c-0.7,0-3.4,0.3-6.5,0.6c0.3-1.1,0.9-2.2,1.7-3.1  c1.4-1.7,3.4-2.7,5.6-2.8c0.2,0,0.3,0,0.5,0c4.3,0,7.9,3.4,8.2,7.8c0.3,4.6-3.2,8.5-7.7,8.8C86.1,52.1,84,51.4,82.3,49.9z M84,27.7  C84,27.7,84,27.7,84,27.7L84,27.7L84,27.7z M77.6,36.8C77.6,36.8,77.6,36.8,77.6,36.8L77.6,36.8L77.6,36.8z M30.7,72.5  c-1.4,0-2.5-1.7-2.5-3.9s1.1-3.9,2.5-3.9c1.4,0,2.5,1.7,2.5,3.9S32,72.5,30.7,72.5z M64.5,57.1c0,2.8,1.6,5.1,3.5,5.1  s3.5-2.3,3.5-5.1c0-2.8-1.6-5.1-3.5-5.1S64.5,54.3,64.5,57.1z M71.3,57.1c0,2.7-1.5,4.8-3.2,4.8s-3.2-2.2-3.2-4.8s1.5-4.8,3.2-4.8  S71.3,54.5,71.3,57.1z M68,53.8c1.2,0,2.2,1.5,2.2,3.3c0,1.8-1,3.3-2.2,3.3c-1.2,0-2.2-1.5-2.2-3.3C65.8,55.3,66.8,53.8,68,53.8z   M62.7,52.4c0.3-1.6,1.4-2.8,2.9-3.1c1.4-0.3,2.9,0.3,3.9,1.5c0,0.1,0,0.1,0,0.2c0,0-0.1,0.1-0.2,0c-0.9-0.5-2.2-0.6-3.4-0.3  c-1.2,0.3-2.3,0.9-3,1.8c0,0-0.1,0.1-0.1,0.1c0,0,0,0-0.1,0C62.7,52.5,62.7,52.5,62.7,52.4z M75.2,66c2.3,0.1,3.8-2.4,3.8-4.6  c-0.4,1-1.7,1.6-2.7,0.4c-1-1.1-3.6-0.8-3.8,0.4C72.5,62.7,72.9,65.9,75.2,66z M77.5,63.6c-0.3,0.8-1.1,1.5-2.3,1.3  C75.1,64.3,76.1,63.3,77.5,63.6z"></path></svg>