<svg height='100px' width='100px'  fill="#000000" xmlns="http://www.w3.org/2000/svg" xmlns:xlink="http://www.w3.org/1999/xlink" version="1.1" x="0px" y="0px" viewBox="0 0 100 100" enable-background="new 0 0 100 100" xml:space="preserve"><g><path fill="#000000" d="M51.852,88.713c-19.462,0-37.862-18.102-37.862-37.249c0-1.055,0.854-1.909,1.909-1.909   s1.909,0.854,1.909,1.909c0,18.518,18.624,33.431,34.044,33.431c1.055,0,1.908,0.855,1.908,1.909S52.907,88.713,51.852,88.713z"></path></g><g><path fill="#000000" d="M51.822,95.025C26.995,95.025,6.796,74.827,6.796,50c0-26.075,19.359-45,46.031-45   C78.95,5,92.616,23.933,92.616,34.083c0,0.825-0.529,1.557-1.314,1.814c-0.779,0.256-1.644-0.017-2.133-0.682   c-5.589-7.592-17.566-13.317-27.862-13.317c-14.934,0-23.858,10.485-23.858,20.621c0,5.384,2.489,10.439,6.829,13.868   c3.018,2.383,6.662,3.75,9.999,3.75c9.166,0,12.418-6.114,12.418-11.349c0-2.437-1.551-6.562-5.486-6.562   c-4.098,0-5.21,4.111-5.21,6.562v3.638c0,0.592,0.226,1.15-0.242,1.511c-0.47,0.362-0.826,0.483-1.4,0.336   c-0.435-0.114-10.535-2.896-10.535-11.286c0-10.583,9.684-15.32,19.219-15.32c14.239,0,30.135,11.547,30.135,28.117   c0,9.985-4.024,19.853-11.067,27.074C74.457,90.704,63.711,95.025,51.822,95.025z M52.827,8.818   c-24.46,0-42.213,17.32-42.213,41.182c0,22.721,18.485,41.207,41.208,41.207c24.402,0,37.569-18.251,37.569-35.424   c0-11.493-10.795-24.299-26.286-24.299c-7.076,0-15.43,3.012-15.43,11.502c0,3.455,3.326,5.576,5.326,6.669v-0.869   c0-6.403,3.359-10.38,8.619-10.38c6.049,0,8.849,5.38,8.849,10.38c0,7.55-4.998,15.167-16.214,15.167   c-4.18,0-8.675-1.667-12.354-4.572l0,0c-5.262-4.157-8.275-10.303-8.275-16.863c0-12.013,10.355-24.439,27.679-24.439   c8.94,0,18.731,3.725,25.65,9.387C82.659,18.939,70.95,8.818,52.827,8.818z"></path></g></svg>