<svg height='100px' width='100px'  fill="#000000" xmlns="http://www.w3.org/2000/svg" xmlns:xlink="http://www.w3.org/1999/xlink" version="1.1" x="0px" y="0px" viewBox="0 0 48.707 50.582" enable-background="new 0 0 48.707 50.582" xml:space="preserve"><path d="M9.651,41.297c3.09,3.09,6.943,5.139,11.134,5.971c1.397,0.277,2.832,0.42,4.288,0.42c5.822,0,11.295-2.268,15.412-6.387  c2.124-2.125,3.718-4.586,4.779-7.211c1.062-2.627,1.593-5.42,1.593-8.213c-0.002-5.585-2.128-11.171-6.379-15.425  c-4.118-4.119-9.594-6.388-15.418-6.388c-5.823,0-11.298,2.269-15.415,6.388c-2.125,2.125-3.719,4.584-4.781,7.21  c-1.061,2.625-1.592,5.418-1.591,8.21C3.274,31.457,5.399,37.043,9.651,41.297z M38.363,39.18c-3.55,3.551-8.27,5.506-13.29,5.506  c-5.022,0-9.748-1.957-13.301-5.512c-1.527-1.529-2.718-3.264-3.609-5.106c-3.119-6.455-2.36-14.329,2.315-20.066  c0.399-0.492,0.83-0.97,1.288-1.428c3.551-3.553,8.273-5.51,13.294-5.51c5.021,0,9.744,1.957,13.297,5.512  c1.833,1.834,3.208,3.955,4.125,6.22c2.521,6.229,1.577,13.544-2.831,18.958C39.252,38.246,38.821,38.721,38.363,39.18z"></path><path d="M17.303,15.967c-0.586-0.585-1.535-0.585-2.121,0c-0.585,0.584-0.585,1.535,0,2.121l7.771,7.774l-4.192,4.194  c-0.587,0.586-0.587,1.535,0,2.121h0.001c0.001,0.002,0.001,0.002,0.002,0.004c0.293,0.293,0.677,0.439,1.061,0.439  c0.385,0,0.769-0.146,1.062-0.439l5.237-5.24c0.002-0.004,0.004-0.008,0.006-0.012c0.002-0.002,0.007-0.002,0.009-0.004  c0.586-0.586,0.586-1.535,0-2.121L17.303,15.967z"></path></svg>