<svg height='100px' width='100px'  fill="#000000" xmlns="http://www.w3.org/2000/svg" xmlns:xlink="http://www.w3.org/1999/xlink" version="1.1" x="0px" y="0px" viewBox="0 0 48.707 50.582" enable-background="new 0 0 48.707 50.582" xml:space="preserve"><path d="M31.662,5.099c-2.086-0.664-4.305-1.024-6.606-1.025c-5.823,0-11.297,2.267-15.414,6.384  c-1.544,1.545-2.828,3.279-3.83,5.152c-1.668,3.121-2.554,6.623-2.554,10.264c0,1.503,0.153,2.972,0.444,4.39  c0.292,1.418,0.722,2.785,1.273,4.09c0.276,0.652,0.584,1.287,0.92,1.906c3.699,6.797,10.908,11.42,19.175,11.422h0.001  c0.001,0,0.006,0,0.008,0l0,0c5.096,0,9.926-1.736,13.812-4.928c0.555-0.457,1.091-0.943,1.605-1.457  c4.116-4.117,6.383-9.593,6.381-15.414C46.875,16.158,40.474,7.903,31.662,5.099z M38.375,39.174  c-3.552,3.551-8.273,5.506-13.297,5.506h-0.007c-8.427-0.002-15.579-5.57-17.967-13.221c-0.551-1.766-0.848-3.643-0.848-5.586  c0-0.627,0.029-1.25,0.091-1.867c0.422-4.316,2.308-8.32,5.414-11.427c3.55-3.551,8.271-5.506,13.301-5.506  c1.943,0,3.82,0.297,5.588,0.848c6.475,2.02,11.461,7.449,12.843,14.175c0.251,1.225,0.384,2.49,0.384,3.787  C43.879,30.902,41.924,35.623,38.375,39.174z"></path><path d="M26.567,25.872c0-0.004,0.001-0.007,0.001-0.011c0-0.828-0.671-1.5-1.5-1.5l-12.496-0.004c-0.827,0-1.5,0.672-1.5,1.5  c0,0.828,0.671,1.5,1.5,1.5l10.993,0.004l0.002,5.93c0,0.829,0.672,1.5,1.5,1.5c0.001,0,0.001,0,0.002,0s0.001,0,0.002,0  c0.829,0,1.5-0.672,1.5-1.5l-0.002-7.408C26.568,25.879,26.567,25.877,26.567,25.872z"></path></svg>