<svg height='100px' width='100px'  fill="#000000" xmlns="http://www.w3.org/2000/svg" xmlns:xlink="http://www.w3.org/1999/xlink" version="1.1" x="0px" y="0px" viewBox="0 0 48.707 50.582" enable-background="new 0 0 48.707 50.582" xml:space="preserve"><path d="M9.615,10.476C1.106,18.985,1.102,32.828,9.607,41.34c4.12,4.121,9.6,6.392,15.427,6.392c5.828,0,11.309-2.271,15.431-6.392  c8.509-8.508,8.512-22.351,0.006-30.86C36.35,6.356,30.869,4.085,25.04,4.085C19.211,4.085,13.734,6.354,9.615,10.476z   M38.343,39.219c-3.556,3.555-8.281,5.513-13.309,5.513c-5.028,0-9.753-1.958-13.307-5.513c-7.335-7.34-7.333-19.283,0.007-26.622  c3.554-3.555,8.278-5.512,13.305-5.512c5.026,0,9.754,1.959,13.31,5.516C45.685,19.94,45.683,31.881,38.343,39.219z"></path><path d="M35.062,33.814L20.853,19.596c-0.586-0.586-1.535-0.586-2.121,0c-0.586,0.585-0.586,1.535,0,2.121l14.207,14.218  c0.293,0.293,0.678,0.439,1.062,0.439c0.384,0,0.768-0.146,1.061-0.438C35.646,35.351,35.646,34.402,35.062,33.814z"></path></svg>