<svg height='100px' width='100px'  fill="#000000" xmlns="http://www.w3.org/2000/svg" xmlns:xlink="http://www.w3.org/1999/xlink" version="1.1" x="0px" y="0px" viewBox="0 0 48.707 50.582" enable-background="new 0 0 48.707 50.582" xml:space="preserve"><path d="M25.054,4.085c-5.83,0-11.312,2.269-15.433,6.39c-4.124,4.121-6.395,9.6-6.396,15.426  c-0.001,5.827,2.268,11.304,6.39,15.422c4.12,4.12,9.6,6.39,15.428,6.39c5.829,0,11.311-2.271,15.435-6.392  c4.122-4.12,6.394-9.599,6.394-15.425c0.001-5.826-2.27-11.304-6.391-15.425C36.36,6.353,30.882,4.085,25.054,4.085z M38.356,39.199  c-3.557,3.555-8.285,5.512-13.312,5.512c-5.026,0-9.752-1.957-13.308-5.511c-3.555-3.552-5.512-8.274-5.511-13.299  c0.001-5.024,1.96-9.75,5.517-13.305c3.556-3.555,8.284-5.514,13.312-5.514c5.026,0,9.752,1.957,13.306,5.51  c3.556,3.552,5.513,8.277,5.512,13.302C43.87,30.922,41.912,35.645,38.356,39.199z"></path><path d="M35.075,15.875c-0.586-0.585-1.535-0.583-2.121,0L18.735,30.084c-0.586,0.586-0.586,1.535,0,2.121  c0.293,0.293,0.678,0.439,1.062,0.439s0.768-0.146,1.061-0.439l14.218-14.207C35.661,17.413,35.661,16.461,35.075,15.875z"></path></svg>