<svg height='100px' width='100px'  fill="#000000" xmlns="http://www.w3.org/2000/svg" xmlns:xlink="http://www.w3.org/1999/xlink" version="1.1" x="0px" y="0px" viewBox="0 0 48.707 50.582" enable-background="new 0 0 48.707 50.582" xml:space="preserve"><path d="M25.054,4.076c-12.025,0-21.81,9.785-21.81,21.812c0,12.028,9.785,21.813,21.81,21.813c12.028,0,21.813-9.785,21.813-21.813  C46.867,13.86,37.082,4.076,25.054,4.076z M25.054,44.701c-10.372,0-18.811-8.438-18.811-18.812  c0-10.373,8.438-18.812,18.811-18.812c10.375,0,18.813,8.438,18.813,18.812C43.867,36.263,35.429,44.701,25.054,44.701z"></path><path d="M26.556,25.881c0-0.394-0.162-0.781-0.44-1.06l-5.244-5.24c-0.586-0.584-1.536-0.586-2.122,0  c-0.585,0.586-0.585,1.537,0.001,2.123l2.683,2.68h-8.876c-0.828,0-1.5,0.673-1.5,1.5c0,0.828,0.672,1.5,1.5,1.5h12.501  c0.162,0,0.416-0.039,0.563-0.112c0.374-0.151,0.672-0.45,0.824-0.823v-0.002C26.515,26.27,26.556,26.08,26.556,25.881  C26.556,25.684,26.556,26.08,26.556,25.881z"></path></svg>