<svg height='100px' width='100px'  fill="#000000" xmlns="http://www.w3.org/2000/svg" xmlns:xlink="http://www.w3.org/1999/xlink" version="1.1" x="0px" y="0px" viewBox="0 0 48.707 50.582" enable-background="new 0 0 48.707 50.582" xml:space="preserve"><path d="M25.062,4.078c-12.027,0-21.812,9.785-21.812,21.811c0,12.028,9.785,21.812,21.812,21.812  c12.026,0,21.812-9.784,21.812-21.812C46.874,13.862,37.089,4.078,25.062,4.078z M25.062,44.701  c-10.374,0-18.812-8.438-18.812-18.812c0-10.372,8.438-18.812,18.812-18.812c10.373,0,18.812,8.439,18.812,18.812  C43.874,36.264,35.435,44.701,25.062,44.701z"></path><path d="M25.062,24.395c-0.195,0-0.38,0.04-0.55,0.107c-0.007,0.002-0.012,0.003-0.017,0.005c-0.547,0.224-0.935,0.76-0.935,1.387  c0,0.42,0.175,0.799,0.453,1.072l5.23,5.229c0.293,0.293,0.677,0.439,1.061,0.439c0.385,0,0.769-0.146,1.062-0.439  c0.586-0.586,0.586-1.535,0-2.121l-2.683-2.682l8.877-0.002c0.83,0,1.5-0.672,1.5-1.5c0-0.829-0.672-1.5-1.5-1.5L25.062,24.395z"></path></svg>