<svg height='100px' width='100px'  fill="#000000" xmlns="http://www.w3.org/2000/svg" xmlns:xlink="http://www.w3.org/1999/xlink" version="1.1" x="0px" y="0px" viewBox="0 0 60 60" style="enable-background:new 0 0 60 60;" xml:space="preserve"><path d="M6,50c0,2.2060547,1.7939453,4,4,4h40c2.2060547,0,4-1.7939453,4-4V10c0-2.2060547-1.7939453-4-4-4H10  c-2.2060547,0-4,1.7939453-4,4V50z M8,10c0-1.1025391,0.8974609-2,2-2h40c1.1025391,0,2,0.8974609,2,2v40  c0,1.1025391-0.8974609,2-2,2H10c-1.1025391,0-2-0.8974609-2-2V10z"></path><path d="M41.9550781,19.0449219c0.2558594,0,0.5117188-0.0976563,0.7070313-0.2929688l1.9570313-1.9570313  c0.390625-0.390625,0.390625-1.0234375,0-1.4140625s-1.0234375-0.390625-1.4140625,0l-1.9570313,1.9570313  c-0.390625,0.390625-0.390625,1.0234375,0,1.4140625C41.4433594,18.9472656,41.6992188,19.0449219,41.9550781,19.0449219z"></path><path d="M16.0878906,44.9121094c0.2558594,0,0.5117188-0.0976563,0.7070313-0.2929688l1.9570313-1.9570313  c0.390625-0.390625,0.390625-1.0234375,0-1.4140625s-1.0234375-0.390625-1.4140625,0l-1.9570313,1.9570313  c-0.390625,0.390625-0.390625,1.0234375,0,1.4140625C15.5761719,44.8144531,15.8320313,44.9121094,16.0878906,44.9121094z"></path><path d="M43.2050781,44.6191406c0.1953125,0.1953125,0.4511719,0.2929688,0.7070313,0.2929688  s0.5117188-0.0976563,0.7070313-0.2929688c0.390625-0.390625,0.390625-1.0234375,0-1.4140625l-1.9570313-1.9570313  c-0.390625-0.390625-1.0234375-0.390625-1.4140625,0s-0.390625,1.0234375,0,1.4140625L43.2050781,44.6191406z"></path><path d="M17.3378906,18.7519531c0.1953125,0.1953125,0.4511719,0.2929688,0.7070313,0.2929688  s0.5117188-0.0976563,0.7070313-0.2929688c0.390625-0.390625,0.390625-1.0234375,0-1.4140625l-1.9570313-1.9570313  c-0.390625-0.390625-1.0234375-0.390625-1.4140625,0s-0.390625,1.0234375,0,1.4140625L17.3378906,18.7519531z"></path><path d="M21.6884766,39.3115234c0.2558594,0,0.5117188-0.0976563,0.7070313-0.2929688l6.3191528-6.3191528  C29.1057739,32.8865356,29.538269,33,30,33c0.4611816,0,0.8932495-0.1131592,1.2839966-0.2998657l5.1974487,5.1983032  c0.1953125,0.1953125,0.4511719,0.2929688,0.7070313,0.2929688s0.5117188-0.0976563,0.7070313-0.2929688  c0.390625-0.390625,0.390625-1.0234375,0-1.4140625l-5.1968384-5.1976929C32.8862305,30.8952026,33,30.4622803,33,30  c0-0.461731-0.1134644-0.8942261-0.3005981-1.2853394l2.0564575-2.0564575c0.390625-0.390625,0.390625-1.0234375,0-1.4140625  s-1.0234375-0.390625-1.4140625,0l-2.0564575,2.0564575C31.192688,27.2562256,31.0975952,27.2190552,31,27.1842651V17.0878906  c0-0.5527344-0.4472656-1-1-1s-1,0.4472656-1,1v10.0963745C27.838501,27.5983887,27,28.6980591,27,30  c0,0.461731,0.1134644,0.8942261,0.3005981,1.2853394l-6.3191528,6.3191528c-0.390625,0.390625-0.390625,1.0234375,0,1.4140625  C21.1767578,39.2138672,21.4326172,39.3115234,21.6884766,39.3115234z M30,29c0.5517578,0,1,0.4482422,1,1  c0,0.2711792-0.1101074,0.5158691-0.2857666,0.696106c-0.0036011,0.003479-0.0085449,0.0044556-0.012085,0.0079956  c-0.0032349,0.0032349-0.0040894,0.0076904-0.0072632,0.0109253C30.5147705,30.8900757,30.2706909,31,30,31  c-0.2722168,0-0.5180054-0.1105347-0.6984253-0.2873535c-0.0025024-0.0025635-0.0031738-0.0060425-0.0056763-0.0085449  s-0.0059814-0.0031738-0.0085449-0.0056763C29.1105347,30.5180054,29,30.2722168,29,30C29,29.4482422,29.4482422,29,30,29z"></path><path d="M30,14.0927734c0.5527344,0,1-0.4472656,1-1v-2.7675781c0-0.5527344-0.4472656-1-1-1s-1,0.4472656-1,1v2.7675781  C29,13.6455078,29.4472656,14.0927734,30,14.0927734z"></path><path d="M30,45.9072266c-0.5527344,0-1,0.4472656-1,1v2.7675781c0,0.5527344,0.4472656,1,1,1s1-0.4472656,1-1v-2.7675781  C31,46.3544922,30.5527344,45.9072266,30,45.9072266z"></path><path d="M46.9072266,31h2.7675781c0.5527344,0,1-0.4472656,1-1s-0.4472656-1-1-1h-2.7675781c-0.5527344,0-1,0.4472656-1,1  S46.3544922,31,46.9072266,31z"></path><path d="M10.3251953,31h2.7675781c0.5527344,0,1-0.4472656,1-1s-0.4472656-1-1-1h-2.7675781c-0.5527344,0-1,0.4472656-1,1  S9.7724609,31,10.3251953,31z"></path></svg>