<svg height='100px' width='100px'  fill="#000000" xmlns="http://www.w3.org/2000/svg" xmlns:xlink="http://www.w3.org/1999/xlink" version="1.1" x="0px" y="0px" viewBox="0 0 48.707 50.582" enable-background="new 0 0 48.707 50.582" xml:space="preserve"><path d="M25.062,47.699c12.027,0,21.812-9.784,21.812-21.811c0-12.028-9.784-21.813-21.812-21.813  c-12.026,0-21.811,9.785-21.811,21.813C3.25,37.915,13.035,47.699,25.062,47.699z M25.062,7.076  c10.373,0,18.812,8.439,18.812,18.813c0,10.372-8.438,18.811-18.812,18.811c-10.372,0-18.812-8.438-18.812-18.811  C6.25,15.515,14.689,7.076,25.062,7.076z"></path><path d="M23.67,25.356c-0.206,0.542-0.076,1.179,0.336,1.591l8.837,8.838c0.293,0.293,0.677,0.439,1.061,0.439  s0.768-0.146,1.061-0.439c0.586-0.586,0.586-1.535,0-2.121l-6.277-6.277h3.793c0.828,0,1.5-0.672,1.5-1.5c0-0.829-0.672-1.5-1.5-1.5  h-7.412C24.473,24.387,23.858,24.776,23.67,25.356C23.61,25.516,23.675,25.341,23.67,25.356z"></path></svg>