<svg height='100px' width='100px'  fill="#000000" xmlns="http://www.w3.org/2000/svg" xmlns:xlink="http://www.w3.org/1999/xlink" version="1.1" x="0px" y="0px" viewBox="0 0 48.707 50.582" enable-background="new 0 0 48.707 50.582" xml:space="preserve"><path d="M25.057,47.701c12.026,0,21.812-9.785,21.812-21.812c0-12.025-9.785-21.809-21.812-21.809  c-12.027,0-21.812,9.784-21.812,21.809C3.245,37.916,13.029,47.701,25.057,47.701z M25.057,7.077  c10.372,0,18.812,8.439,18.812,18.812c0,10.373-8.439,18.812-18.812,18.812c-10.373,0-18.812-8.438-18.812-18.812  C6.244,15.517,14.684,7.077,25.057,7.077z"></path><path d="M21.434,27.391l-2.683,2.684c-0.587,0.586-0.587,1.536,0,2.121c0.293,0.293,0.676,0.439,1.061,0.439  c0.384,0,0.768-0.146,1.061-0.439l5.24-5.242c0.917-0.924,0.258-2.562-1.059-2.562H12.557c-0.828,0-1.5,0.672-1.5,1.5  c0,0.828,0.672,1.5,1.5,1.5H21.434L21.434,27.391z"></path></svg>