<svg height='100px' width='100px'  fill="#000000" xmlns="http://www.w3.org/2000/svg" xmlns:xlink="http://www.w3.org/1999/xlink" version="1.1" x="0px" y="0px" viewBox="0 0 48.707 50.582" enable-background="new 0 0 48.707 50.582" xml:space="preserve"><path d="M25.061,47.701c12.026,0,21.812-9.785,21.812-21.812c0-12.027-9.785-21.812-21.812-21.812  c-12.027,0-21.812,9.785-21.812,21.812C3.249,37.916,13.033,47.701,25.061,47.701z M25.061,7.076  c10.373,0,18.812,8.439,18.812,18.813c0,10.373-8.438,18.811-18.812,18.811S6.248,36.262,6.248,25.889  C6.248,15.515,14.688,7.076,25.061,7.076z"></path><path d="M25.064,39.889c0.828,0,1.5-0.672,1.5-1.5V29.51l2.683,2.684c0.293,0.293,0.678,0.439,1.062,0.439s0.768-0.146,1.061-0.439  c0.586-0.586,0.586-1.535,0-2.121l-5.241-5.241c-0.275-0.276-0.672-0.439-1.062-0.439c-0.756,0-0.93,0.479-1.389,0.937  c-0.069,0.174-0.11,0.364-0.11,0.563v12.498C23.565,39.217,24.237,39.889,25.064,39.889C25.893,39.889,24.237,39.889,25.064,39.889z  "></path></svg>