<svg height='100px' width='100px'  fill="#000000" xmlns="http://www.w3.org/2000/svg" xmlns:xlink="http://www.w3.org/1999/xlink" version="1.1" x="0px" y="0px" viewBox="0 0 48.707 50.582" enable-background="new 0 0 48.707 50.582" xml:space="preserve"><path d="M25.053,4.072c-5.825,0-11.301,2.269-15.419,6.386c-4.117,4.119-6.385,9.593-6.383,15.417  c0.002,12.023,9.789,21.807,21.815,21.807c12.024,0,21.809-9.781,21.809-21.805C46.87,13.854,37.083,4.072,25.053,4.072z   M25.066,44.68h-0.002c-10.372,0-18.812-8.436-18.814-18.805c0-5.023,1.955-9.746,5.507-13.296C15.308,9.026,20.03,7.07,25.062,7.07  c10.37,0,18.811,8.437,18.812,18.807C43.874,36.246,35.437,44.68,25.066,44.68z"></path><path d="M32.841,15.981l-8.394,8.393l-6.807-0.002c-0.828,0-1.5,0.672-1.5,1.5c0,0.828,0.671,1.5,1.5,1.5l7.412,0.002  c0.377,0,0.806-0.168,1.074-0.438l8.834-8.833c0.586-0.586,0.586-1.535,0-2.121C34.374,15.396,33.427,15.396,32.841,15.981  C32.841,15.981,33.427,15.396,32.841,15.981z"></path></svg>