<svg height='100px' width='100px'  fill="#000000" xmlns="http://www.w3.org/2000/svg" xmlns:xlink="http://www.w3.org/1999/xlink" version="1.1" x="0px" y="0px" viewBox="0 0 48.707 50.582" enable-background="new 0 0 48.707 50.582" xml:space="preserve"><path d="M16.213,36.215c0.384,0,0.768-0.146,1.061-0.439l7.775-7.773l4.195,4.195c0.293,0.293,0.678,0.439,1.062,0.439  s0.768-0.146,1.061-0.439c0.001,0,0.001-0.002,0.003-0.004l0,0c0.586-0.586,0.586-1.535,0-2.121l-5.24-5.239  c-0.002-0.002-0.006-0.003-0.008-0.005c-0.004-0.003-0.005-0.008-0.008-0.011c-0.586-0.586-1.535-0.586-2.121,0l-8.84,8.837  c-0.585,0.586-0.585,1.535,0,2.121C15.446,36.068,15.831,36.215,16.213,36.215z"></path><path d="M25.062,47.701c12.027,0,21.812-9.784,21.812-21.812c0-12.026-9.785-21.811-21.812-21.811  c-12.026,0-21.811,9.785-21.811,21.811C3.251,37.917,13.036,47.701,25.062,47.701z M25.062,7.077  c10.373,0,18.812,8.439,18.812,18.812c0,10.373-8.439,18.812-18.812,18.812c-10.372,0-18.812-8.438-18.812-18.812  C6.251,15.517,14.69,7.077,25.062,7.077z"></path></svg>