<svg height='100px' width='100px'  fill="#000000" xmlns="http://www.w3.org/2000/svg" xmlns:xlink="http://www.w3.org/1999/xlink" version="1.1" x="0px" y="0px" viewBox="0 0 48.707 50.582" enable-background="new 0 0 48.707 50.582" xml:space="preserve"><path d="M25.056,47.699h0.002c12.028,0,21.813-9.785,21.813-21.812c0-12.021-9.786-21.807-21.814-21.81  c-12.026,0-21.81,9.784-21.81,21.81c0,5.826,2.268,11.305,6.388,15.424C13.755,45.432,19.23,47.699,25.056,47.699z M25.057,7.076  c10.374,0.003,18.814,8.44,18.814,18.811c0,10.373-8.439,18.812-18.813,18.812h-0.002c-0.001,0-0.001,0-0.002,0  c-5.022,0-9.746-1.957-13.298-5.51c-3.553-3.553-5.51-8.277-5.51-13.303C6.246,15.515,14.685,7.076,25.057,7.076z"></path><path d="M23.655,25.377c-0.062,0.16-0.099,0.346-0.099,0.517v7.414c0,0.828,0.672,1.5,1.5,1.5c0.828,0,1.5-0.672,1.5-1.5v-6.805  l8.397-8.398c0.586-0.586,0.586-1.535,0-2.121c-0.586-0.585-1.535-0.585-2.121,0l-8.837,8.839  C23.848,24.969,23.722,25.182,23.655,25.377C23.597,25.528,23.666,25.344,23.655,25.377z"></path></svg>