<svg height='100px' width='100px'  fill="#000000" xmlns="http://www.w3.org/2000/svg" xmlns:xlink="http://www.w3.org/1999/xlink" version="1.1" x="0px" y="0px" viewBox="0 0 48.707 50.582" enable-background="new 0 0 48.707 50.582" xml:space="preserve"><path d="M36.364,7.239c-3.298-2.006-7.168-3.163-11.303-3.163c-11.65,0-21.197,9.183-21.782,20.692  c-0.064,1.297-0.011,2.597,0.153,3.885c1.363,10.727,10.54,19.049,21.629,19.049c12.027,0,21.812-9.785,21.812-21.812  C46.875,17.996,42.66,11.068,36.364,7.239z M25.062,44.699c-10.372,0-18.811-8.438-18.811-18.811  c0-10.373,8.439-18.812,18.812-18.812c3.89,0,7.507,1.187,10.51,3.216c5.005,3.384,8.301,9.112,8.301,15.596  C43.873,36.261,35.435,44.699,25.062,44.699z"></path><path d="M25.047,39.887c0.828,0,1.5-0.672,1.5-1.5V27.391h5.934c0.828,0,1.5-0.672,1.5-1.5c0-0.001,0-0.001,0-0.002s0-0.001,0-0.002  c0-0.829-0.672-1.5-1.5-1.5h-7.412c-0.004,0-0.007,0.001-0.011,0.001s-0.007-0.001-0.011-0.001c-0.828,0-1.5,0.671-1.5,1.5v12.5  C23.547,39.215,24.219,39.887,25.047,39.887z"></path></svg>