<svg height='100px' width='100px'  fill="#000000" xmlns="http://www.w3.org/2000/svg" xmlns:xlink="http://www.w3.org/1999/xlink" version="1.1" x="0px" y="0px" viewBox="0 0 48.707 50.582" enable-background="new 0 0 48.707 50.582" xml:space="preserve"><path d="M9.659,10.438c-8.506,8.505-8.513,22.349-0.016,30.856c4.118,4.125,9.596,6.396,15.421,6.396c5.823,0,11.3-2.27,15.42-6.391  c8.504-8.504,8.51-22.345,0.013-30.854C36.379,6.321,30.902,4.05,25.075,4.05C19.253,4.05,13.778,6.319,9.659,10.438z   M38.363,39.182c-3.555,3.555-8.276,5.512-13.299,5.512c-5.023,0-9.748-1.96-13.298-5.518c-7.33-7.34-7.324-19.279,0.014-26.616  c3.553-3.553,8.274-5.51,13.295-5.51c5.024,0,9.747,1.959,13.299,5.517C45.703,19.907,45.698,31.847,38.363,39.182z"></path><path d="M20.893,19.562c-0.585-0.588-1.536-0.588-2.121-0.002c-0.587,0.585-0.588,1.534-0.002,2.121l4.191,4.198l-7.777,7.779  c-0.586,0.586-0.586,1.535,0,2.121c0.293,0.293,0.677,0.439,1.062,0.439c0.384,0,0.768-0.146,1.061-0.439l8.838-8.841  c0.586-0.586,0.586-1.534,0-2.12c-0.004-0.005-0.01-0.006-0.014-0.01c-0.002-0.001-0.002-0.003-0.003-0.004L20.893,19.562z"></path></svg>