<svg height='100px' width='100px'  fill="#000000" xmlns="http://www.w3.org/2000/svg" xmlns:xlink="http://www.w3.org/1999/xlink" version="1.1" x="0px" y="0px" viewBox="0 0 48.707 50.582" enable-background="new 0 0 48.707 50.582" xml:space="preserve"><path d="M25.058,4.078c-12.026,0-21.811,9.785-21.811,21.811c0,12.027,9.785,21.812,21.811,21.812  c12.027,0,21.812-9.784,21.812-21.812C46.87,13.862,37.086,4.078,25.058,4.078z M25.058,44.701  c-10.372,0-18.812-8.439-18.812-18.812c0-10.372,8.439-18.81,18.812-18.81c10.373,0,18.812,8.438,18.812,18.81  C43.87,36.262,35.433,44.701,25.058,44.701z"></path><path d="M25.054,24.387c-0.197,0-0.386,0.041-0.56,0.109c-0.223,0.109-0.325,0.155-0.502,0.331l-5.242,5.242  c-0.586,0.586-0.586,1.534,0,2.12c0.293,0.294,0.678,0.439,1.061,0.439c0.385,0,0.769-0.146,1.062-0.439l2.685-2.684v8.881  c0,0.828,0.672,1.5,1.5,1.5c0.827,0,1.5-0.672,1.5-1.5V25.885C26.554,25.059,25.882,24.387,25.054,24.387  C24.854,24.387,25.882,24.387,25.054,24.387z"></path></svg>