<svg height='100px' width='100px'  fill="#000000" xmlns="http://www.w3.org/2000/svg" xmlns:xlink="http://www.w3.org/1999/xlink" version="1.1" x="0px" y="0px" viewBox="0 0 100 100" enable-background="new 0 0 100 100" xml:space="preserve"><path fill="#000000" d="M24.616,60.035L46,47.689V23c0-2.209,1.791-4,4-4s4,1.791,4,4v27h-0.017  c-0.001,1.38-0.701,2.722-1.984,3.463L28.63,66.955c-0.005,0.003-0.009,0.007-0.014,0.01c-1.913,1.104-4.359,0.448-5.465-1.465  C22.047,63.587,22.703,61.141,24.616,60.035z M9.001,46.001C6.79,46.004,5,47.79,5,49.999c-0.002,2.21,1.787,4,3.999,4  c2.209,0,3.999-1.79,4.001-4.003C12.998,47.792,11.21,46.001,9.001,46.001z M16.493,26.038c-1.916-1.103-4.359-0.451-5.464,1.462  c-1.106,1.913-0.452,4.357,1.463,5.463c1.914,1.104,4.359,0.449,5.467-1.466C19.06,29.586,18.406,27.142,16.493,26.038z   M11.029,72.5c0.011,0.019,0.025,0.032,0.036,0.051l-0.012,0.007C18.843,85.977,33.367,95,50,95c24.853,0,45-20.147,45-45  S74.853,5,50,5c-2.209,0-4,1.791-4,4s1.791,4,4,4c0.003,0,0.005-0.001,0.008-0.001c20.429,0.004,36.988,16.568,36.988,37  c0,20.434-16.563,37-36.996,37c-13.732,0-25.717-7.483-32.1-18.595l-0.008,0.005c-1.131-1.838-3.52-2.46-5.4-1.373  C10.58,68.141,9.924,70.588,11.029,72.5z M32.964,12.495c-1.108-1.913-3.55-2.57-5.463-1.466c-1.915,1.103-2.57,3.547-1.465,5.463  c1.104,1.914,3.55,2.569,5.468,1.463C33.412,16.851,34.068,14.408,32.964,12.495z"></path></svg>