<svg height='100px' width='100px'  fill="#000000" xmlns="http://www.w3.org/2000/svg" xmlns:xlink="http://www.w3.org/1999/xlink" version="1.1" x="0px" y="0px" viewBox="0 0 48.707 50.582" enable-background="new 0 0 48.707 50.582" xml:space="preserve"><path d="M9.619,41.326c4.118,4.121,9.594,6.391,15.42,6.391c12.028,0,21.818-9.787,21.822-21.818  c0.003-5.826-2.264-11.306-6.383-15.425c-4.118-4.12-9.596-6.39-15.428-6.39c-12.022,0-21.809,9.785-21.813,21.812  C3.235,31.725,5.501,37.205,9.619,41.326z M25.055,7.083c5.025,0,9.75,1.957,13.303,5.512c3.552,3.552,5.506,8.277,5.504,13.302  c-0.004,10.378-8.447,18.82-18.822,18.82c-5.023,0-9.748-1.957-13.298-5.51c-3.552-3.556-5.506-8.281-5.504-13.31  C6.242,15.523,14.681,7.083,25.055,7.083z"></path><path d="M25.041,24.397l-12.665,0.002c-0.828,0-1.5,0.672-1.5,1.5c0,0.828,0.672,1.5,1.5,1.5h12.498  c0.007,0,0.013-0.002,0.021-0.002h0.146c0.828,0,1.5-0.672,1.5-1.5C26.541,25.069,25.869,24.397,25.041,24.397z"></path></svg>