<svg height='100px' width='100px'  fill="#000000" xmlns="http://www.w3.org/2000/svg" xmlns:xlink="http://www.w3.org/1999/xlink" version="1.1" x="0px" y="0px" viewBox="0 0 48.707 50.582" enable-background="new 0 0 48.707 50.582" xml:space="preserve"><path d="M25.056,4.076c-12.026,0-21.813,9.785-21.814,21.811c0,12.025,9.787,21.812,21.814,21.812  c12.026,0,21.812-9.785,21.812-21.812C46.867,13.862,37.082,4.076,25.056,4.076z M25.056,44.699  c-10.374-0.002-18.814-8.44-18.814-18.812C6.242,15.515,14.684,7.075,25.056,7.075c10.373,0,18.812,8.439,18.812,18.812  C43.867,36.26,35.429,44.699,25.056,44.699z"></path><path d="M26.556,18.469c0-0.829-0.672-1.5-1.5-1.5c-0.828,0-1.5,0.672-1.5,1.5l0.002,3.792l-6.278-6.276  c-0.586-0.585-1.535-0.585-2.121,0c-0.585,0.586-0.585,1.534,0,2.121l8.84,8.837c0.575,0.574,1.545,0.575,2.121,0  c0.278-0.279,0.437-0.668,0.438-1.062L26.556,18.469z"></path></svg>