<svg height='100px' width='100px'  fill="#000000" xmlns="http://www.w3.org/2000/svg" xmlns:xlink="http://www.w3.org/1999/xlink" version="1.1" x="0px" y="0px" viewBox="0 0 48.707 50.582" enable-background="new 0 0 48.707 50.582" xml:space="preserve"><path d="M37.556,24.391l-10.992-0.004l-0.001-5.93c0-0.83-0.672-1.5-1.5-1.5c-0.001,0-0.002,0-0.003,0s-0.002,0-0.003,0  c-0.829,0-1.5,0.672-1.5,1.5l0.002,7.408c0,0.004,0.001,0.006,0.001,0.01s-0.001,0.008-0.001,0.012c0,0.828,0.671,1.5,1.5,1.5  l12.497,0.004c0.827,0,1.5-0.671,1.5-1.5C39.056,25.063,38.385,24.391,37.556,24.391z"></path><g><path d="M43.7,14.567C43.668,14.516,43.658,14.497,43.7,14.567L43.7,14.567z"></path><path d="M43.707,14.577c0.012,0.019,0.021,0.033,0.032,0.055C43.728,14.612,43.723,14.604,43.707,14.577   c-0.004-0.006-0.004-0.006-0.007-0.012C43.703,14.571,43.705,14.573,43.707,14.577c-0.183-0.299-0.371-0.594-0.567-0.885   C39.215,7.891,32.572,4.07,25.054,4.07c-0.001,0-0.001,0-0.001,0c-3.292,0-6.462,0.748-9.349,2.121   c-2.22,1.057-4.279,2.473-6.068,4.262c-0.926,0.926-1.743,1.93-2.479,2.98c-2.531,3.625-3.908,7.921-3.906,12.435   c0.004,8.643,5.06,16.127,12.368,19.654c2.86,1.381,6.065,2.154,9.448,2.155c0.001,0,0.008,0,0.008,0   c5.822,0,11.296-2.269,15.413-6.388c2.573-2.573,4.424-5.678,5.449-9.064C47.719,26.342,46.905,19.829,43.707,14.577z    M43.289,30.463c-0.815,3.266-2.481,6.266-4.922,8.705c-3.55,3.553-8.271,5.508-13.294,5.508l-0.004,0.002   c-0.001,0-0.002,0-0.003,0v-0.002c-2.592,0-5.064-0.527-7.314-1.48c-6.75-2.861-11.498-9.553-11.501-17.328   c-0.002-5.021,1.953-9.742,5.506-13.292c3.551-3.551,8.273-5.506,13.301-5.506c7.778,0.002,14.472,4.748,17.332,11.494   c0.954,2.25,1.481,4.721,1.481,7.312C43.871,27.42,43.662,28.965,43.289,30.463z"></path><path d="M43.739,14.632C43.898,14.892,43.816,14.757,43.739,14.632L43.739,14.632z"></path></g></svg>