<svg height='100px' width='100px'  fill="#000000" xmlns="http://www.w3.org/2000/svg" xmlns:xlink="http://www.w3.org/1999/xlink" version="1.1" x="0px" y="0px" viewBox="0 0 48.707 50.582" enable-background="new 0 0 48.707 50.582" xml:space="preserve"><path d="M25.065,47.68c12.025,0,21.811-9.782,21.811-21.807c-0.003-12.022-9.79-21.804-21.817-21.804  c-5.827,0-11.304,2.268-15.423,6.387c-4.119,4.117-6.386,9.593-6.384,15.417C3.252,37.897,13.039,47.68,25.065,47.68z   M11.756,12.577c3.552-3.552,8.276-5.508,13.302-5.508c10.373,0,18.814,8.436,18.817,18.804c0,10.371-8.438,18.809-18.811,18.809  c-10.373,0-18.812-8.438-18.814-18.809C6.249,20.85,8.204,16.129,11.756,12.577z"></path><path d="M17.64,27.373h6.806l8.4,8.395c0.293,0.291,0.677,0.438,1.062,0.438c0.384,0,0.769-0.146,1.062-0.439  c0.585-0.586,0.585-1.535-0.001-2.121l-8.841-8.833c-0.022-0.021-0.054-0.029-0.077-0.051c-0.11-0.1-0.234-0.184-0.371-0.246  c-0.038-0.018-0.074-0.03-0.113-0.045c-0.146-0.055-0.304-0.086-0.469-0.092c-0.014,0-0.026-0.004-0.04-0.004  c-0.001,0-0.002,0-0.002,0h-7.414c-0.828,0-1.5,0.672-1.5,1.5C16.141,26.701,16.812,27.373,17.64,27.373z"></path></svg>