<svg height='100px' width='100px'  fill="#000000" xmlns="http://www.w3.org/2000/svg" xmlns:xlink="http://www.w3.org/1999/xlink" version="1.1" x="0px" y="0px" viewBox="0 0 48.707 50.582" enable-background="new 0 0 48.707 50.582" xml:space="preserve"><path d="M25.035,4.07c-5.82,0-11.292,2.267-15.406,6.384c-8.501,8.503-8.497,22.347,0.009,30.856  c4.121,4.123,9.599,6.395,15.426,6.395c5.821,0,11.295-2.268,15.411-6.387c8.498-8.5,8.496-22.339-0.006-30.851  C36.344,6.343,30.863,4.07,25.035,4.07z M38.353,39.199c-3.55,3.551-8.271,5.508-13.29,5.508c-5.025,0-9.749-1.961-13.304-5.518  c-7.337-7.342-7.341-19.281-0.01-26.614c3.548-3.551,8.267-5.506,13.285-5.506c5.026,0,9.754,1.961,13.312,5.521  C45.678,19.932,45.682,31.867,38.353,39.199z"></path><path d="M35.068,15.868c-0.586-0.585-1.535-0.585-2.121,0l-8.833,8.838c-0.004,0.004-0.004,0.008-0.008,0.012l-0.107,0.107  c-0.586,0.586-0.586,1.535,0,2.121c0.293,0.293,0.678,0.438,1.06,0.438c0.385,0,0.769-0.146,1.062-0.438l8.949-8.957  C35.654,17.403,35.654,16.452,35.068,15.868z"></path></svg>