<svg height='100px' width='100px'  fill="#000000" xmlns="http://www.w3.org/2000/svg" xmlns:xlink="http://www.w3.org/1999/xlink" version="1.1" x="0px" y="0px" viewBox="0 0 48.707 50.582" enable-background="new 0 0 48.707 50.582" xml:space="preserve"><path d="M40.988,11.021c-2.814-3.021-6.41-5.191-10.408-6.23c-1.785-0.465-3.635-0.729-5.527-0.729  c-5.823,0-11.296,2.269-15.411,6.388c-6.07,6.074-7.779,14.861-5.175,22.489c1.041,3.053,2.752,5.928,5.182,8.357  c4.117,4.119,9.591,6.389,15.415,6.389c5.824,0,11.3-2.27,15.418-6.389c2.077-2.076,3.638-4.477,4.699-7.034  C48.371,26.572,46.963,17.43,40.988,11.021 M25.052,7.062c5.021,0,9.745,1.957,13.301,5.512c0.978,0.98,1.838,2.082,2.583,3.246  c3.27,5.166,3.793,11.582,1.547,17.138c-0.916,2.266-2.291,4.385-4.123,6.217c-3.553,3.555-8.273,5.51-13.296,5.51  c-5.022,0-9.744-1.957-13.295-5.512c-1.667-1.668-2.936-3.579-3.846-5.613c-3.089-6.918-1.822-15.324,3.84-20.987  C15.311,9.017,20.031,7.062,25.052,7.062C30.074,7.062,20.031,7.062,25.052,7.062z"></path><path d="M32.82,35.781c0.292,0.293,0.678,0.438,1.061,0.438c0.385,0,0.769-0.146,1.062-0.438c0.586-0.586,0.586-1.535,0-2.121  l-7.771-7.775l4.192-4.195c0.586-0.586,0.586-1.535,0-2.121c-0.001,0-0.002,0-0.003-0.002c-0.001,0-0.001-0.002-0.002-0.002  c-0.586-0.584-1.536-0.586-2.122,0l-5.235,5.24c-0.004,0.004-0.004,0.008-0.008,0.012c-0.002,0.002-0.006,0.002-0.008,0.004  c-0.586,0.586-0.586,1.535,0,2.121L32.82,35.781z"></path></svg>