<svg height='100px' width='100px'  fill="#000000" xmlns="http://www.w3.org/2000/svg" xmlns:xlink="http://www.w3.org/1999/xlink" version="1.1" x="0px" y="0px" viewBox="0 0 48.707 50.582" enable-background="new 0 0 48.707 50.582" xml:space="preserve"><path d="M25.058,47.698c12.027,0,21.812-9.784,21.812-21.812c0-12.028-9.785-21.811-21.812-21.811  c-12.026,0-21.811,9.785-21.811,21.811S13.031,47.698,25.058,47.698z M25.058,7.075c10.373,0,18.812,8.439,18.812,18.812  c0,10.373-8.439,18.812-18.812,18.812c-10.372,0-18.812-8.438-18.812-18.812C6.246,15.513,14.686,7.075,25.058,7.075z"></path><path d="M23.556,26.502l-0.001,6.805c0,0.828,0.671,1.5,1.5,1.5c0.828,0,1.5-0.672,1.5-1.5l0.001-7.408  c0-0.02-0.005-0.039-0.006-0.059c-0.006-0.158-0.036-0.306-0.088-0.447c-0.016-0.045-0.03-0.086-0.051-0.129  c-0.062-0.135-0.145-0.256-0.242-0.365c-0.021-0.021-0.027-0.053-0.051-0.075l-8.836-8.839c-0.586-0.585-1.534-0.585-2.12,0  c-0.585,0.586-0.585,1.535,0,2.121L23.556,26.502z"></path></svg>