<svg height='100px' width='100px'  fill="#000000" xmlns="http://www.w3.org/2000/svg" xmlns:xlink="http://www.w3.org/1999/xlink" version="1.1" x="0px" y="0px" viewBox="0 0 100 100" enable-background="new 0 0 100 100" xml:space="preserve"><g><path d="M49.989,5.488C25.457,5.488,5.5,25.456,5.5,50s19.958,44.512,44.49,44.512C74.532,94.512,94.5,74.544,94.5,50   S74.532,5.488,49.989,5.488z M49.989,88.519c-21.228,0-38.498-17.28-38.498-38.519c0-21.239,17.271-38.52,38.498-38.52   c21.238,0,38.517,17.281,38.517,38.52C88.506,71.238,71.228,88.519,49.989,88.519z"></path><path d="M49.415,25.832c1.582,0,2.86-1.282,2.86-2.863V17.39c0-1.581-1.278-2.863-2.86-2.863c-1.581,0-2.863,1.282-2.863,2.863   v5.579C46.552,24.549,47.834,25.832,49.415,25.832z"></path><path d="M50.585,74.168c-1.579,0-2.862,1.281-2.862,2.863v5.578c0,1.582,1.283,2.862,2.862,2.862s2.862-1.28,2.862-2.862v-5.578   C53.447,75.449,52.164,74.168,50.585,74.168z"></path><path d="M74.168,49.414c0,1.583,1.282,2.862,2.862,2.862h5.578c1.582,0,2.864-1.279,2.864-2.862c0-1.58-1.282-2.863-2.864-2.863   H77.03C75.45,46.551,74.168,47.834,74.168,49.414z"></path><path d="M25.831,50.586c0-1.582-1.283-2.864-2.861-2.864h-5.58c-1.581,0-2.864,1.282-2.864,2.864c0,1.58,1.283,2.861,2.864,2.861   h5.58C24.548,53.447,25.831,52.166,25.831,50.586z"></path><path d="M69.122,21.028c-0.956-0.655-2.262-0.411-2.917,0.546l-1.638,2.393c-0.655,0.957-0.41,2.263,0.549,2.918   c0.36,0.248,0.772,0.366,1.181,0.366c0.671,0,1.33-0.319,1.736-0.914l1.638-2.392C70.322,22.988,70.079,21.683,69.122,21.028z"></path><path d="M34.886,73.113c-0.957-0.653-2.263-0.409-2.918,0.548l-1.64,2.394c-0.655,0.955-0.41,2.262,0.548,2.917   c0.361,0.248,0.776,0.367,1.184,0.367c0.668,0,1.328-0.319,1.734-0.914l1.638-2.391C36.088,75.076,35.841,73.77,34.886,73.113z"></path><path d="M73.949,36.245c0.382,0.697,1.101,1.093,1.843,1.093c0.341,0,0.687-0.083,1.006-0.258l2.544-1.39   c1.019-0.556,1.393-1.832,0.834-2.85c-0.554-1.017-1.83-1.391-2.847-0.835l-2.546,1.391C73.768,33.952,73.394,35.228,73.949,36.245   z"></path><path d="M23.2,62.916l-2.543,1.391c-1.018,0.556-1.392,1.831-0.834,2.849c0.379,0.699,1.101,1.092,1.842,1.092   c0.341,0,0.684-0.082,1.006-0.256l2.544-1.392c1.017-0.555,1.391-1.832,0.835-2.848C25.494,62.732,24.218,62.361,23.2,62.916z"></path><path d="M79.363,64.43l-2.488-1.487c-0.995-0.597-2.285-0.271-2.88,0.724c-0.594,0.995-0.27,2.285,0.727,2.88l2.487,1.486   c0.339,0.202,0.709,0.298,1.077,0.298c0.713,0,1.409-0.363,1.802-1.022C80.684,66.313,80.36,65.024,79.363,64.43z"></path><path d="M20.636,35.56l2.488,1.489c0.337,0.202,0.707,0.299,1.074,0.299c0.714,0,1.411-0.365,1.803-1.023   c0.596-0.995,0.273-2.284-0.723-2.879l-2.488-1.488c-0.996-0.595-2.285-0.27-2.879,0.724C19.315,33.677,19.64,34.966,20.636,35.56z   "></path><path d="M68.089,73.717c-0.617-0.981-1.913-1.277-2.893-0.659c-0.983,0.616-1.276,1.913-0.659,2.896l1.543,2.453   c0.4,0.636,1.081,0.981,1.779,0.981c0.381,0,0.769-0.104,1.115-0.321c0.981-0.619,1.277-1.914,0.66-2.896L68.089,73.717z"></path><path d="M31.913,26.274c0.397,0.634,1.082,0.981,1.779,0.981c0.381,0,0.767-0.104,1.115-0.322c0.982-0.618,1.279-1.914,0.661-2.896   l-1.545-2.454c-0.618-0.981-1.913-1.277-2.893-0.659c-0.983,0.618-1.276,1.913-0.661,2.895L31.913,26.274z"></path><path d="M49.997,52.99c0.521,0,1.044-0.136,1.518-0.413l16.237-9.539c1.428-0.838,1.905-2.675,1.065-4.103   c-0.838-1.426-2.672-1.904-4.101-1.065l-14.404,8.462l-7.712-6.544c-1.263-1.071-3.153-0.916-4.225,0.346   c-1.071,1.262-0.915,3.153,0.347,4.224l9.335,7.92C48.611,52.75,49.303,52.99,49.997,52.99z"></path></g></svg>