<svg height='100px' width='100px'  fill="#000000" xmlns="http://www.w3.org/2000/svg" xmlns:xlink="http://www.w3.org/1999/xlink" version="1.1" x="0px" y="0px" viewBox="0 0 100 100" enable-background="new 0 0 100 100" xml:space="preserve"><path fill="#000000" d="M50,19c2.209,0,4,1.791,4,4v54c0,2.209-1.791,4-4,4s-4-1.791-4-4V23C46,20.791,47.791,19,50,19z   M9.001,46.001C6.79,46.004,5,47.79,5,49.999c-0.002,2.21,1.787,4,3.999,4c2.209,0,3.999-1.79,4.001-4.003  C12.998,47.792,11.21,46.001,9.001,46.001z M26.035,83.508c-1.104,1.912-0.448,4.359,1.465,5.463  c1.912,1.105,4.359,0.449,5.464-1.463c1.104-1.914,0.448-4.36-1.464-5.465C29.587,80.938,27.141,81.594,26.035,83.508z   M16.493,26.038c-1.917-1.103-4.359-0.451-5.464,1.462c-1.107,1.913-0.453,4.357,1.463,5.463c1.913,1.104,4.358,0.449,5.467-1.466  C19.06,29.586,18.406,27.142,16.493,26.038z M12.492,67.037c-1.912,1.104-2.568,3.551-1.463,5.463  c1.103,1.913,3.551,2.568,5.463,1.465c1.914-1.105,2.568-3.553,1.465-5.465C16.852,66.587,14.406,65.932,12.492,67.037z   M32.963,12.495c-1.108-1.914-3.55-2.57-5.463-1.466c-1.915,1.103-2.57,3.547-1.465,5.463c1.105,1.913,3.551,2.568,5.468,1.463  C33.411,16.851,34.067,14.408,32.963,12.495z M46,91c0,2.209,1.791,4,4,4c24.853,0,45-20.147,45-45S74.853,5,50,5  c-2.209,0-4,1.791-4,4s1.791,4,4,4c0.003,0,0.005-0.001,0.008-0.001c20.429,0.004,36.988,16.568,36.988,37  c0,20.434-16.563,37-36.996,37C47.791,87,46,88.791,46,91z"></path></svg>