<svg height='100px' width='100px'  fill="#000000" xmlns="http://www.w3.org/2000/svg" viewBox="0 0 64 64" x="0px" y="0px"><title>hourglass</title><g><path d="M54,8V6a2,2,0,0,0-2-2H12a2,2,0,0,0-2,2V8a2,2,0,0,0,2,2h2A21.09,21.09,0,0,0,18.2,22.6,21.12,21.12,0,0,0,26,28.92a3.39,3.39,0,0,1,0,6.16A20.83,20.83,0,0,0,14,54H12a2,2,0,0,0-2,2v2a2,2,0,0,0,2,2H52a2,2,0,0,0,2-2V56a2,2,0,0,0-2-2H50A20.83,20.83,0,0,0,38,35.08a3.39,3.39,0,0,1,0-6.16A21.12,21.12,0,0,0,45.8,22.6,21.09,21.09,0,0,0,50,10h2A2,2,0,0,0,54,8ZM12,6H52V8H12ZM52,58H12V56H52ZM44.2,21.4a19,19,0,0,1-7.08,5.7,5.41,5.41,0,0,0,0,9.8,19,19,0,0,1,7.08,5.7A19.42,19.42,0,0,1,48,54H16A19.42,19.42,0,0,1,19.8,42.6a19,19,0,0,1,7.08-5.7,5.41,5.41,0,0,0,0-9.8,19,19,0,0,1-7.08-5.7A19.42,19.42,0,0,1,16,10H48A19.42,19.42,0,0,1,44.2,21.4Z"></path><path d="M27.73,25.29a7.42,7.42,0,0,1,3.38,3.22L32,30.15l.89-1.64a7.49,7.49,0,0,1,3.39-3.22,17.34,17.34,0,0,0,2.54-1.47L41.43,22H22.57l2.62,1.82A16.83,16.83,0,0,0,27.73,25.29ZM34.47,24A9.83,9.83,0,0,0,32,26.21,9.17,9.17,0,0,0,29.53,24Z"></path><path d="M32,33.85l-.89,1.64a7.54,7.54,0,0,1-3.39,3.22,17.08,17.08,0,0,0-6.34,5.1,16.85,16.85,0,0,0-3.09,7L18.07,52H45.93l-.23-1.19a16.85,16.85,0,0,0-3.09-7,17.08,17.08,0,0,0-6.34-5.1,7.42,7.42,0,0,1-3.38-3.22Zm3.41,6.67h0A14.92,14.92,0,0,1,41,45a14.76,14.76,0,0,1,2.45,5H20.54A14.76,14.76,0,0,1,23,45a14.92,14.92,0,0,1,5.59-4.5A9.57,9.57,0,0,0,32,37.79,9.34,9.34,0,0,0,35.42,40.52Z"></path></g></svg>