<svg height='100px' width='100px'  fill="#000000" xmlns="http://www.w3.org/2000/svg" xmlns:xlink="http://www.w3.org/1999/xlink" version="1.1" x="0px" y="0px" viewBox="0 0 100 100" enable-background="new 0 0 100 100" xml:space="preserve"><path fill="#000000" d="M17.959,31.497c-1.108,1.916-3.554,2.571-5.466,1.466c-1.916-1.106-2.57-3.551-1.464-5.463  c1.104-1.913,3.548-2.565,5.464-1.462C18.406,27.142,19.06,29.586,17.959,31.497z M32.963,12.495  c-1.107-1.913-3.549-2.57-5.462-1.466c-1.915,1.103-2.57,3.547-1.465,5.463c1.104,1.913,3.549,2.568,5.467,1.463  C33.411,16.851,34.068,14.408,32.963,12.495z M5,50L5,50c0,24.853,20.147,45,45,45s45-20.147,45-45S74.853,5,50,5  c-2.209,0-4,1.791-4,4s1.791,4,4,4c0.003,0,0.005-0.001,0.008-0.001c20.429,0.004,36.988,16.568,36.988,37  c0,20.434-16.563,37-36.996,37c-20.432,0-36.996-16.566-36.996-37H13c0-0.001,0-0.002,0-0.004c-0.002-2.205-1.79-3.995-3.999-3.995  C6.79,46.004,5,47.79,5,50C5,50,5,50,5,50z M19,49.999c-0.002,2.21,1.787,4,3.999,4H49.99C49.993,53.999,49.997,54,50,54  c2.209,0,4-1.791,4-4V23c0-2.209-1.791-4-4-4s-4,1.791-4,4V46H22.999v0.002C20.789,46.005,19,47.791,19,49.999z"></path></svg>