<svg height='100px' width='100px'  fill="#000000" xmlns="http://www.w3.org/2000/svg" xmlns:xlink="http://www.w3.org/1999/xlink" version="1.1" x="0px" y="0px" viewBox="0 0 48.707 50.582" enable-background="new 0 0 48.707 50.582" xml:space="preserve"><path d="M25.062,4.072c-12.028,0-21.814,9.781-21.814,21.803c0,12.024,9.786,21.807,21.814,21.807  c12.027,0,21.814-9.782,21.814-21.807C46.876,13.853,37.089,4.072,25.062,4.072z M25.062,44.68  c-10.374,0-18.814-8.436-18.814-18.805c0-10.368,8.44-18.805,18.814-18.805s18.814,8.437,18.814,18.805  C43.876,36.244,35.436,44.68,25.062,44.68z"></path><g><path d="M26.118,24.816l-8.841-8.834c-0.586-0.583-1.536-0.584-2.122,0.001c-0.584,0.586-0.584,1.535,0.001,2.122l6.278,6.272   l-3.793,0.002c-0.828,0-1.499,0.672-1.499,1.5c0,0.828,0.672,1.5,1.5,1.5h0.001l7.405-0.004c0.639,0,1.177-0.396,1.408-0.979   C26.658,25.855,26.529,25.227,26.118,24.816z"></path><path d="M26.458,26.397C26.515,26.242,26.449,26.418,26.458,26.397L26.458,26.397z"></path></g></svg>