<svg height='100px' width='100px'  fill="#000000" xmlns="http://www.w3.org/2000/svg" xmlns:xlink="http://www.w3.org/1999/xlink" version="1.1" x="0px" y="0px" viewBox="0 0 48.707 50.582" enable-background="new 0 0 48.707 50.582" xml:space="preserve"><path d="M25.058,47.701c12.027,0,21.812-9.785,21.812-21.812c0-12.026-9.785-21.81-21.812-21.81c-12.025,0-21.81,9.784-21.81,21.81  C3.248,37.916,13.03,47.701,25.058,47.701z M25.058,7.078c10.373,0,18.812,8.438,18.812,18.811c0,10.373-8.439,18.812-18.812,18.812  c-10.372,0-18.811-8.439-18.811-18.812C6.247,15.517,14.686,7.078,25.058,7.078z"></path><path d="M24.005,26.957l5.239,5.24c0.293,0.293,0.677,0.439,1.061,0.439s0.769-0.146,1.062-0.439c0.586-0.586,0.586-1.535,0-2.121  l-4.812-4.812V13.39c0-0.828-0.672-1.5-1.5-1.5c-0.828,0-1.5,0.672-1.5,1.5v12.497C23.554,26.307,23.727,26.684,24.005,26.957z"></path></svg>