<svg height='100px' width='100px'  fill="#000000" xmlns="http://www.w3.org/2000/svg" xmlns:xlink="http://www.w3.org/1999/xlink" version="1.1" x="0px" y="0px" viewBox="0 0 48.707 50.582" enable-background="new 0 0 48.707 50.582" xml:space="preserve"><path d="M25.06,4.078c-12.026,0-21.811,9.785-21.811,21.811c0,12.027,9.785,21.813,21.811,21.813  c12.027,0,21.812-9.786,21.812-21.813C46.873,13.862,37.088,4.078,25.06,4.078z M25.06,44.703c-10.372,0-18.812-8.439-18.812-18.814  c0-10.372,8.439-18.811,18.812-18.811c10.373,0,18.812,8.438,18.812,18.811C43.873,36.264,35.433,44.703,25.06,44.703z"></path><path d="M26.116,24.833c0.007,0-0.502-0.326-0.525-0.335c-0.344-0.131-0.715-0.132-1.059-0.003  c-0.571,0.223-0.958,0.756-0.972,1.375c0,0.611-0.002,1.225-0.002,1.836c0,1.867,0,3.734,0,5.602c0,1.936,3,1.936,3,0v-3.791  l6.276,6.275c1.373,1.373,3.484-0.758,2.121-2.121L26.116,24.833C26.115,24.833,26.116,24.833,26.116,24.833z"></path></svg>