<svg height='100px' width='100px'  fill="#000000" xmlns="http://www.w3.org/2000/svg" xmlns:xlink="http://www.w3.org/1999/xlink" version="1.1" x="0px" y="0px" viewBox="0 0 48.707 50.582" enable-background="new 0 0 48.707 50.582" xml:space="preserve"><path d="M9.634,10.464c-8.504,8.505-8.505,22.343-0.002,30.845c4.12,4.121,9.598,6.391,15.425,6.391  c5.826,0,11.305-2.27,15.425-6.389c8.503-8.502,8.502-22.341-0.001-30.849c-4.119-4.119-9.597-6.387-15.423-6.387  C19.232,4.075,13.754,6.343,9.634,10.464z M38.361,39.189c-3.555,3.553-8.278,5.509-13.305,5.509c-5.025,0-9.75-1.957-13.304-5.511  c-7.333-7.334-7.333-19.269,0.002-26.603c3.553-3.554,8.278-5.511,13.303-5.511c5.026,0,9.749,1.956,13.302,5.509  C45.693,19.92,45.693,31.855,38.361,39.189z"></path><path d="M23.987,24.833l-5.24,5.24c-0.586,0.586-0.586,1.535,0,2.121c0.293,0.293,0.677,0.439,1.061,0.439s0.769-0.146,1.062-0.439  l4.811-4.812h11.876c0.828,0,1.5-0.672,1.5-1.5c0-0.828-0.672-1.5-1.5-1.5H25.057C24.638,24.381,24.259,24.553,23.987,24.833z"></path></svg>