<svg height='100px' width='100px'  fill="#000000" xmlns="http://www.w3.org/2000/svg" xmlns:xlink="http://www.w3.org/1999/xlink" version="1.1" x="0px" y="0px" viewBox="0 0 48.707 50.582" enable-background="new 0 0 48.707 50.582" xml:space="preserve"><path d="M40.51,10.442c-4.117-4.119-9.593-6.388-15.42-6.388c-12.03,0-21.825,9.785-21.834,21.811  c-0.005,5.828,2.259,11.307,6.376,15.426c4.117,4.121,9.593,6.391,15.421,6.391h0.004c12.025,0,21.818-9.785,21.83-21.814  C46.893,20.04,44.627,14.563,40.51,10.442z M25.057,44.682h-0.004c-5.025,0-9.749-1.957-13.299-5.51  c-3.55-3.553-5.502-8.277-5.498-13.305C6.264,15.493,14.713,7.054,25.09,7.054c5.025,0,9.748,1.957,13.298,5.51  c3.552,3.552,5.503,8.275,5.499,13.302C43.877,36.24,35.43,44.682,25.057,44.682z"></path><path d="M12.574,27.383l12.501-0.002c0.827,0,1.5-0.672,1.5-1.5c0-0.006-0.002-0.012-0.002-0.02l0,0l0.007-7.412  c0.001-0.828-0.67-1.5-1.499-1.5H25.08c-0.828,0-1.499,0.67-1.5,1.498l-0.006,5.934l-11,0.002c-0.829,0-1.5,0.672-1.5,1.5  C11.074,26.711,11.746,27.383,12.574,27.383z"></path></svg>