<svg height='100px' width='100px'  fill="#000000" xmlns="http://www.w3.org/2000/svg" xmlns:xlink="http://www.w3.org/1999/xlink" version="1.1" x="0px" y="0px" viewBox="0 0 48.707 50.582" enable-background="new 0 0 48.707 50.582" xml:space="preserve"><path d="M25.059,47.699c12.028,0,21.813-9.784,21.813-21.812c0-12.026-9.785-21.811-21.813-21.811  c-12.027,0-21.812,9.784-21.812,21.811C3.247,37.915,13.031,47.699,25.059,47.699z M25.059,7.075  c10.374,0,18.813,8.439,18.813,18.812c0,10.375-8.439,18.812-18.813,18.812c-10.373,0-18.812-8.438-18.812-18.812  C6.246,15.515,14.686,7.075,25.059,7.075z"></path><path d="M24.431,27.383l4.812,4.814c0.293,0.293,0.678,0.439,1.062,0.439s0.768-0.146,1.062-0.439c0.586-0.586,0.586-1.535,0-2.121  l-5.226-5.226c-0.272-0.286-0.657-0.467-1.084-0.467H12.56c-0.828,0-1.5,0.672-1.5,1.5c0,0.828,0.672,1.5,1.5,1.5H24.431z"></path></svg>