<svg height='100px' width='100px'  fill="#000000" xmlns="http://www.w3.org/2000/svg" xmlns:xlink="http://www.w3.org/1999/xlink" version="1.1" x="0px" y="0px" viewBox="0 0 48.707 50.582" enable-background="new 0 0 48.707 50.582" xml:space="preserve"><path d="M25.063,4.068c-5.828,0-11.307,2.27-15.428,6.39c-4.12,4.119-6.389,9.596-6.391,15.421c0,5.824,2.268,11.301,6.387,15.418  c4.118,4.117,9.594,6.385,15.418,6.385c5.828,0,11.308-2.271,15.428-6.393c4.12-4.119,6.391-9.596,6.391-15.42  c0-5.824-2.269-11.3-6.389-15.419C36.361,6.333,30.887,4.068,25.063,4.068z M38.356,39.168c-3.554,3.555-8.279,5.514-13.307,5.514  c-5.023,0-9.746-1.955-13.298-5.506c-3.553-3.553-5.508-8.273-5.508-13.298c0.002-5.022,1.959-9.747,5.513-13.299  c3.554-3.555,8.28-5.512,13.307-5.512c5.021,0,9.744,1.955,13.295,5.504c3.553,3.55,5.51,8.273,5.51,13.296  C43.868,30.893,41.911,35.615,38.356,39.168z"></path><path d="M29.247,19.569l-5.232,5.229c-0.284,0.272-0.462,0.653-0.462,1.079v12.492c0,0.828,0.672,1.5,1.5,1.5  c0.828,0,1.5-0.672,1.5-1.5V26.502l4.815-4.812c0.586-0.584,0.586-1.535,0-2.121S29.831,18.983,29.247,19.569z"></path></svg>