<svg height='100px' width='100px'  fill="#000000" xmlns="http://www.w3.org/2000/svg" xmlns:xlink="http://www.w3.org/1999/xlink" version="1.1" x="0px" y="0px" viewBox="0 0 48.707 50.582" enable-background="new 0 0 48.707 50.582" xml:space="preserve"><path d="M25.062,4.077c-12.026,0-21.811,9.785-21.811,21.812s9.785,21.812,21.811,21.812c12.027,0,21.812-9.785,21.812-21.812  S37.09,4.077,25.062,4.077z M25.062,44.701c-10.372,0-18.812-8.439-18.812-18.812S14.69,7.077,25.062,7.077  c10.373,0,18.812,8.439,18.812,18.812S35.436,44.701,25.062,44.701z"></path><path d="M25.235,24.389c-0.007,0-0.013,0.002-0.02,0.002h-0.147c-0.828,0-1.5,0.671-1.5,1.5c0,0.828,0.672,1.5,1.5,1.5h7.412  c0.007,0,0.013-0.002,0.02-0.002h5.234c0.828,0,1.5-0.672,1.5-1.5c0-0.829-0.672-1.5-1.5-1.5H25.235z"></path></svg>