<svg height='100px' width='100px'  fill="#000000" xmlns="http://www.w3.org/2000/svg" xmlns:xlink="http://www.w3.org/1999/xlink" version="1.1" x="0px" y="0px" viewBox="0 0 48 48" enable-background="new 0 0 48 48" xml:space="preserve"><g><path d="M23.894,24.287l-2.636-3.108c-0.601-0.715-1.082-1.542-1.431-2.462l-0.509-1.341l16.008-0.152l-0.764,1.475   c-1.397,2.7-3.879,4.561-6.64,4.978L23.894,24.287z M22.381,19.347c0.126,0.189,0.261,0.371,0.406,0.542l1.911,2.254l2.927-0.443   c1.563-0.236,3.061-1.131,4.173-2.442L22.381,19.347z"></path><path d="M26.944,39.221l-15.169-5.687l1.181-3.154c1.205-3.207,4.001-5.585,7.125-6.058l4.028-0.61l2.637,3.107   c2.042,2.414,2.584,6.043,1.383,9.248L26.944,39.221z M14.349,32.362l11.425,4.284l0.48-1.282c0.951-2.536,0.545-5.383-1.036-7.252   l-1.915-2.256l-2.924,0.442c-2.419,0.367-4.598,2.244-5.552,4.783L14.349,32.362z"></path><path d="M30.012,48c-0.119,0-0.237-0.021-0.352-0.063L4.001,38.315c-0.249-0.094-0.45-0.281-0.56-0.522   c-0.109-0.242-0.119-0.517-0.025-0.766l1.845-4.916c0.194-0.517,0.77-0.777,1.287-0.585l2.507,0.938l1.166-3.11   c1.394-3.716,4.331-6.504,7.867-7.571c-1.965-3.132-2.344-7.165-0.949-10.879l1.167-3.111l-2.506-0.939   c-0.248-0.093-0.449-0.281-0.559-0.522c-0.11-0.242-0.119-0.517-0.026-0.765l1.844-4.918c0.194-0.517,0.771-0.776,1.288-0.585   L44,9.684c0.517,0.194,0.778,0.77,0.585,1.287l-1.842,4.917c-0.093,0.249-0.281,0.45-0.522,0.56   c-0.243,0.11-0.519,0.121-0.766,0.026l-2.504-0.94l-1.167,3.113c-1.392,3.717-4.329,6.505-7.867,7.571   c1.963,3.13,2.344,7.16,0.953,10.876l-1.169,3.113l2.506,0.939c0.517,0.194,0.778,0.771,0.585,1.287l-1.844,4.918   c-0.094,0.249-0.281,0.45-0.522,0.56C30.294,47.97,30.153,48,30.012,48z M5.64,36.794l23.787,8.919l1.142-3.046l-2.507-0.939   c-0.248-0.094-0.449-0.281-0.559-0.522c-0.11-0.242-0.119-0.518-0.026-0.766l1.521-4.049c1.336-3.568,0.743-7.465-1.546-10.166   c-0.234-0.276-0.301-0.658-0.174-0.998c0.128-0.339,0.429-0.583,0.787-0.638c3.503-0.528,6.51-3.074,7.847-6.645l1.519-4.05   c0.094-0.249,0.281-0.45,0.522-0.56c0.243-0.109,0.518-0.119,0.766-0.025l2.504,0.94l1.14-3.043L18.58,2.288l-1.142,3.045   l2.506,0.939c0.248,0.093,0.45,0.281,0.559,0.523c0.11,0.241,0.119,0.517,0.026,0.765l-1.52,4.048   c-1.339,3.567-0.749,7.463,1.543,10.168c0.234,0.277,0.3,0.658,0.173,0.998c-0.127,0.339-0.428,0.583-0.787,0.638   c-3.5,0.53-6.507,3.077-7.846,6.646l-1.516,4.046c-0.194,0.517-0.77,0.777-1.287,0.586L6.782,33.75L5.64,36.794z"></path></g></svg>