<svg height='100px' width='100px'  fill="#000000" xmlns="http://www.w3.org/2000/svg" xmlns:xlink="http://www.w3.org/1999/xlink" version="1.1" x="0px" y="0px" viewBox="0 0 48.707 50.582" enable-background="new 0 0 48.707 50.582" xml:space="preserve"><path d="M25.062,4.077c-12.026,0-21.81,9.785-21.81,21.812s9.784,21.812,21.81,21.812c12.027,0,21.812-9.785,21.812-21.812  S37.089,4.077,25.062,4.077z M25.062,44.701c-10.372,0-18.811-8.439-18.811-18.812S14.689,7.077,25.062,7.077  c10.373,0,18.812,8.439,18.812,18.812S35.435,44.701,25.062,44.701z"></path><path d="M32.844,15.992l-8.837,8.838c-0.824,0.962-0.313,2.561,1.062,2.561h7.411c0.828,0,1.5-0.672,1.5-1.5  c0-0.829-0.672-1.5-1.5-1.5h-3.792l6.277-6.278c0.586-0.586,0.586-1.536,0-2.121C34.379,15.406,33.43,15.406,32.844,15.992  C32.844,15.992,33.43,15.406,32.844,15.992z"></path></svg>