<svg height='100px' width='100px'  fill="#000000" xmlns="http://www.w3.org/2000/svg" xmlns:xlink="http://www.w3.org/1999/xlink" xmlns:sketch="http://www.bohemiancoding.com/sketch/ns" viewBox="0 0 48 96" version="1.1" x="0px" y="0px"><title>Hourglass</title><desc>Created with Sketch.</desc><g stroke="none" stroke-width="1" fill="none" fill-rule="evenodd" sketch:type="MSPage"><g sketch:type="MSArtboardGroup" transform="translate(-26.000000, -2.000000)" fill="#000000"><g sketch:type="MSLayerGroup" transform="translate(26.000000, 2.000000)"><path d="M30.1374815,48.027681 L30.8397037,47.2443681 C44.8711111,31.584 47.8162963,22.6919264 47.8162963,17.9908712 C47.8162963,11.752638 45.2657778,6.89256442 40.4408889,3.93717791 C36.5244444,1.53835583 31.0305185,0.322159509 24.1125926,0.322159509 C17.1946667,0.322159509 11.7007407,1.53835583 7.7842963,3.93717791 C2.95940741,6.89256442 0.408888889,11.7520491 0.408888889,17.9908712 C0.408888889,22.6925153 3.35407407,31.584589 17.3848889,47.2443681 L18.0871111,48.027681 L17.3848889,48.8109939 C3.35407407,64.470773 0.408888889,73.3622577 0.408888889,78.0644908 C0.408888889,84.3033129 2.95940741,89.1627975 7.7842963,92.1175951 C11.7007407,94.5164172 17.1946667,95.7332025 24.1125926,95.7332025 C31.0305185,95.7332025 36.5238519,94.5164172 40.4408889,92.1170061 C45.2657778,89.1627975 47.8162963,84.3033129 47.8162963,78.0644908 C47.8162963,73.3628466 44.8711111,64.471362 30.8397037,48.8109939 L30.1374815,48.027681 L30.1374815,48.027681 Z M24.1125926,93.3767853 C12.3306667,93.3767853 2.77925926,89.774135 2.77925926,78.0639018 C2.77925926,69.0169325 15.5075556,54.2694479 21.298963,48.027092 C15.5075556,41.7853252 2.77925926,27.0378405 2.77925926,17.9902822 C2.77925926,6.28063804 12.3306667,2.67798773 24.1125926,2.67798773 C35.8945185,2.67798773 45.4459259,6.28063804 45.4459259,17.9902822 C45.4459259,27.0378405 32.7176296,41.7853252 26.9262222,48.027092 C32.7176296,54.2694479 45.4459259,69.0169325 45.4459259,78.0639018 C45.4459259,89.774135 35.8945185,93.3767853 24.1125926,93.3767853 L24.1125926,93.3767853 Z" sketch:type="MSShapeGroup"></path><path d="M4.55703704,78.0639018 L4.55703704,78.0644908 C4.55703704,87.1791902 10.9540741,91.6105031 24.1125926,91.6105031 C37.2717037,91.6105031 43.6681481,87.1791902 43.6681481,78.0644908 L43.6681481,78.0639018 L24.0592593,72.1743313 L4.55703704,78.0639018" sketch:type="MSShapeGroup"></path><path d="M23.7173333,48.027681 L24.5084444,48.027681 L25.6195556,46.8303313 C27.3297778,44.9863067 28.9339259,43.1758528 30.4284444,41.4083926 L24.1125926,42.5032638 L17.7647407,41.3701104 C19.2681481,43.1493497 20.8835556,44.9733497 22.6062222,46.8303313 L23.7173333,48.027681" sketch:type="MSShapeGroup"></path></g></g></g></svg>