<svg height='100px' width='100px'  fill="#000000" xmlns="http://www.w3.org/2000/svg" xmlns:xlink="http://www.w3.org/1999/xlink" version="1.1" x="0px" y="0px" viewBox="0 0 48.707 50.582" enable-background="new 0 0 48.707 50.582" xml:space="preserve"><path d="M25.056,4.076c-12.025,0-21.81,9.785-21.81,21.811c0,12.027,9.784,21.814,21.81,21.814c12.028,0,21.812-9.787,21.812-21.816  c0.001-5.826-2.268-11.302-6.389-15.421C36.36,6.343,30.882,4.076,25.056,4.076z M25.056,44.701  c-10.372,0-18.811-8.439-18.811-18.814c0-10.372,8.438-18.81,18.811-18.81c5.025,0,9.75,1.957,13.305,5.51  c3.553,3.552,5.51,8.275,5.509,13.3C43.868,36.26,35.429,44.701,25.056,44.701z"></path><path d="M26.454,26.396c0.812-2.244-2.144-2.013-3.384-2.013c-1.812,0-3.621,0.002-5.432,0.002c-1.936,0-1.936,3,0,3l3.793-0.002  l-6.277,6.279c-1.363,1.363,0.748,3.494,2.121,2.121l8.839-8.841C26.269,26.789,26.375,26.598,26.454,26.396  C26.508,26.248,26.445,26.42,26.454,26.396z"></path></svg>