<svg height='100px' width='100px'  fill="#000000" xmlns="http://www.w3.org/2000/svg" xmlns:xlink="http://www.w3.org/1999/xlink" version="1.1" x="0px" y="0px" viewBox="0 0 48.707 50.582" enable-background="new 0 0 48.707 50.582" xml:space="preserve"><path d="M25.061,47.701c12.027,0,21.812-9.784,21.812-21.811c0-12.028-9.785-21.813-21.812-21.813  c-12.026,0-21.81,9.785-21.81,21.813C3.25,37.917,13.034,47.701,25.061,47.701z M25.061,7.078c10.373,0,18.812,8.439,18.812,18.813  c0,10.372-8.439,18.811-18.812,18.811c-10.372,0-18.811-8.438-18.811-18.811C6.25,15.517,14.688,7.078,25.061,7.078z"></path><path d="M23.996,26.951c0.02,0.02,0.045,0.025,0.065,0.043c0.116,0.107,0.248,0.197,0.395,0.263  c0.029,0.013,0.058,0.022,0.088,0.034c0.156,0.059,0.323,0.094,0.499,0.097c0.005,0,0.009,0.003,0.014,0.003  c0.002,0,0.003-0.001,0.004-0.001c0.003,0,0.006,0.001,0.009,0.001h7.412c0.828,0,1.5-0.672,1.5-1.5c0-0.829-0.672-1.5-1.5-1.5  h-6.804l-8.398-8.398c-0.586-0.586-1.535-0.586-2.121,0c-0.585,0.586-0.585,1.536,0,2.121L23.996,26.951z"></path></svg>