<svg height='100px' width='100px'  fill="#000000" xmlns="http://www.w3.org/2000/svg" xmlns:xlink="http://www.w3.org/1999/xlink" version="1.1" x="0px" y="0px" viewBox="0 0 48.707 50.582" enable-background="new 0 0 48.707 50.582" xml:space="preserve"><path d="M25.067,4.064c-5.83,0-11.31,2.271-15.431,6.394c-4.12,4.121-6.39,9.599-6.39,15.424c0,5.827,2.27,11.304,6.39,15.421  c4.115,4.115,9.588,6.383,15.409,6.383c5.83,0,11.312-2.271,15.434-6.396c8.501-8.506,8.502-22.343,0.001-30.847  C36.363,6.327,30.888,4.064,25.067,4.064z M38.358,39.168c-3.557,3.559-8.283,5.518-13.312,5.518c-5.02,0-9.739-1.955-13.288-5.504  c-3.555-3.552-5.512-8.275-5.512-13.3c0-5.024,1.958-9.75,5.512-13.303c3.555-3.557,8.281-5.516,13.31-5.516  c5.021,0,9.742,1.953,13.293,5.5C45.69,19.897,45.689,31.832,38.358,39.168z"></path><path d="M37.557,24.364l-8.875,0.004l2.682-2.684c0.585-0.586,0.585-1.537-0.001-2.123c-0.586-0.584-1.536-0.584-2.122,0.002  l-5.239,5.244C24,24.807,24,24.809,24,24.809c-0.14,0.139-0.25,0.307-0.326,0.49c-0.002,0.004-0.002,0.01-0.004,0.014  c-0.068,0.172-0.108,0.359-0.108,0.556c0,0.828,0.672,1.5,1.5,1.5h0.001l12.498-0.006c0.828,0,1.499-0.672,1.499-1.502  C39.058,25.034,38.386,24.364,37.557,24.364L37.557,24.364z"></path></svg>