<svg height='100px' width='100px'  fill="#000000" xmlns="http://www.w3.org/2000/svg" xmlns:xlink="http://www.w3.org/1999/xlink" version="1.1" x="0px" y="0px" viewBox="0 0 48.707 50.582" enable-background="new 0 0 48.707 50.582" xml:space="preserve"><path d="M25.036,4.087c-5.828,0-11.307,2.27-15.428,6.39c-4.121,4.119-6.39,9.599-6.389,15.426  c-0.001,12.033,9.787,21.826,21.819,21.83h0.004c12.027,0,21.813-9.788,21.814-21.819C46.859,13.88,37.073,4.089,25.036,4.087z   M25.043,44.732H25.04c-10.378-0.004-18.821-8.451-18.82-18.83c0-5.025,1.957-9.751,5.511-13.306c3.554-3.553,8.28-5.51,13.311-5.51  c10.377,0.002,18.818,8.447,18.817,18.825C43.857,36.291,35.417,44.732,25.043,44.732z"></path><path d="M37.718,24.413l-20.101-0.008c-0.828,0-1.5,0.672-1.5,1.5c0,0.828,0.671,1.5,1.5,1.5l20.099,0.008c0.001,0,0.001,0,0.001,0  c0.828,0,1.5-0.67,1.5-1.498C39.217,25.084,38.546,24.413,37.718,24.413z"></path></svg>