<svg height='100px' width='100px'  fill="#000000" xmlns="http://www.w3.org/2000/svg" xmlns:xlink="http://www.w3.org/1999/xlink" version="1.1" x="0px" y="0px" viewBox="0 0 48.707 50.582" enable-background="new 0 0 48.707 50.582" xml:space="preserve"><path d="M25.043,47.719c12.03-0.002,21.818-9.793,21.821-21.826c0-5.826-2.268-11.304-6.386-15.423  c-4.118-4.121-9.596-6.39-15.426-6.39C13.024,4.082,3.238,13.871,3.235,25.902c-0.002,5.826,2.266,11.307,6.382,15.426  c4.118,4.121,9.594,6.391,15.419,6.391H25.043z M6.235,25.902C6.237,15.524,14.68,7.081,25.058,7.079  c5.025,0,9.749,1.957,13.301,5.51c3.551,3.554,5.508,8.278,5.506,13.304c-0.002,10.379-8.444,18.824-18.821,18.826l-0.006,1.5v-1.5  c-5.023,0-9.746-1.957-13.297-5.51C8.189,35.654,6.234,30.93,6.235,25.902z"></path><path d="M26.546,33.322l0.002-7.416c0-0.002-0.001-0.004-0.001-0.008c0-0.002,0.001-0.004,0.001-0.006v-0.158  c0-0.004,0.001-0.008,0.001-0.01l0.004-12.503c0-0.828-0.671-1.5-1.5-1.5c-0.828,0-1.5,0.67-1.5,1.5l-0.002,5.242  c0,0.006-0.001,0.01-0.001,0.014l-0.002,7.416c0,0.002,0.001,0.004,0.001,0.006c0,0.004-0.001,0.006-0.001,0.008l-0.002,7.416  c0,0.828,0.671,1.5,1.5,1.5C25.874,34.822,26.546,34.15,26.546,33.322z"></path></svg>