<svg height='100px' width='100px'  fill="#000000" xmlns="http://www.w3.org/2000/svg" xmlns:xlink="http://www.w3.org/1999/xlink" version="1.1" x="0px" y="0px" viewBox="0 0 48.707 50.582" enable-background="new 0 0 48.707 50.582" xml:space="preserve"><path d="M25.05,4.066c-5.824,0-11.301,2.269-15.421,6.388c-8.496,8.505-8.49,22.341,0.016,30.843  c4.121,4.121,9.599,6.391,15.424,6.391c5.826,0,11.303-2.27,15.421-6.391c4.118-4.119,6.385-9.596,6.382-15.42  c-0.003-5.826-2.273-11.302-6.396-15.423S30.876,4.066,25.05,4.066z M38.368,39.176c-3.552,3.554-8.275,5.511-13.3,5.511  c-5.024,0-9.749-1.957-13.303-5.511c-7.335-7.334-7.341-19.267-0.014-26.603c3.552-3.552,8.274-5.509,13.298-5.509  c5.023,0,9.748,1.957,13.304,5.511c3.556,3.552,5.516,8.277,5.518,13.302C43.874,30.902,41.919,35.623,38.368,39.176z"></path><path d="M26.55,13.374c0-0.828-0.672-1.498-1.5-1.498h-0.002c-0.828,0-1.498,0.672-1.498,1.5l0.004,8.875l-2.684-2.682  c-0.586-0.584-1.535-0.584-2.122,0.002c-0.585,0.586-0.585,1.535,0.001,2.121l5.244,5.239c0.141,0.142,0.309,0.252,0.496,0.329  c0.073,0.072,0.48,0.111,0.566,0.111h0.001c0.814,0,1.499-0.688,1.499-1.5L26.55,13.374z"></path></svg>