<svg height='100px' width='100px'  fill="#000000" xmlns="http://www.w3.org/2000/svg" xmlns:xlink="http://www.w3.org/1999/xlink" version="1.1" x="0px" y="0px" viewBox="0 0 48.707 50.582" enable-background="new 0 0 48.707 50.582" xml:space="preserve"><path d="M25.052,4.06C13.031,4.064,3.252,13.852,3.254,25.877c0.002,12.027,9.784,21.812,21.806,21.812h0.004  c5.823-0.002,11.3-2.271,15.417-6.395c4.118-4.121,6.385-9.6,6.383-15.428C46.862,13.844,37.078,4.06,25.052,4.06z M38.359,39.176  c-3.551,3.555-8.272,5.514-13.295,5.514h-0.004c-10.367,0-18.805-8.439-18.807-18.812c-0.002-10.372,8.433-18.812,18.8-18.816  c10.369,0,18.809,8.438,18.811,18.811C43.865,30.896,41.91,35.621,38.359,39.176z"></path><path d="M34.951,15.966c-0.586-0.584-1.536-0.584-2.122,0.001l-6.271,6.277l-0.002-3.793c0-0.828-0.673-1.498-1.5-1.498  c0,0,0,0-0.001,0c-0.828,0-1.499,0.672-1.499,1.5l0.003,7.41c0,1.307,1.633,1.992,2.56,1.065l8.833-8.842  C35.537,17.5,35.537,16.552,34.951,15.966z"></path></svg>