<svg height='100px' width='100px'  fill="#000000" xmlns="http://www.w3.org/2000/svg" xmlns:xlink="http://www.w3.org/1999/xlink" version="1.1" x="0px" y="0px" viewBox="0 0 100 100" enable-background="new 0 0 100 100" xml:space="preserve"><path fill="#000000" d="M54,23v27c0,2.209-1.791,4-4,4s-4-1.791-4-4V23c0-2.209,1.791-4,4-4S54,20.791,54,23z M50,13  c-20.433,0-36.996,16.565-36.996,37c0,20.434,16.563,37,36.996,37c20.432,0,36.996-16.566,36.996-37C86.996,29.565,70.432,13,50,13z   M95,50c0,24.853-20.147,45-45,45S5,74.853,5,50S25.147,5,50,5S95,25.147,95,50z"></path></svg>