<svg height='100px' width='100px'  fill="#000000" xmlns="http://www.w3.org/2000/svg" xmlns:xlink="http://www.w3.org/1999/xlink" version="1.1" x="0px" y="0px" viewBox="0 0 48.707 50.582" enable-background="new 0 0 48.707 50.582" xml:space="preserve"><path d="M25.061,4.078c-12.026,0-21.811,9.785-21.811,21.813c0,12.026,9.785,21.811,21.811,21.811  c12.027,0,21.812-9.784,21.812-21.811C46.873,13.863,37.088,4.078,25.061,4.078z M25.061,44.701  c-10.372,0-18.812-8.438-18.812-18.811c0-10.374,8.439-18.813,18.812-18.813c10.373,0,18.812,8.439,18.812,18.813  C43.873,36.263,35.434,44.701,25.061,44.701z"></path><path d="M32.48,24.391l-20.092-0.002c-0.828,0-1.5,0.671-1.5,1.5c0,0.828,0.672,1.5,1.5,1.5l20.092,0.002c0.828,0,1.5-0.672,1.5-1.5  C33.98,25.062,33.309,24.391,32.48,24.391z"></path></svg>