<svg height='100px' width='100px'  fill="#000000" xmlns="http://www.w3.org/2000/svg" xmlns:xlink="http://www.w3.org/1999/xlink" version="1.1" x="0px" y="0px" viewBox="0 0 48.707 50.582" enable-background="new 0 0 48.707 50.582" xml:space="preserve"><path d="M25.059,4.072c-12.021,0-21.803,9.781-21.803,21.803c0,12.029,9.783,21.818,21.809,21.82h0.008  c12.021,0,21.803-9.783,21.803-21.811C46.874,13.861,37.091,4.076,25.059,4.072z M25.071,44.695h-0.007  c-10.372-0.002-18.81-8.443-18.81-18.82c0-10.368,8.434-18.804,18.808-18.804c10.373,0.004,18.812,8.443,18.812,18.813  C43.874,36.256,35.439,44.695,25.071,44.695z"></path><path d="M25.08,24.379c-0.007,0-0.014,0.002-0.02,0.002c-0.002,0-0.002,0-0.002,0l-7.411-0.004c0,0,0,0-0.001,0  c-0.828,0-1.499,0.67-1.5,1.498c0,0.828,0.671,1.502,1.499,1.502l5.935,0.002v11c0,0.828,0.671,1.5,1.5,1.5  c0.828,0,1.5-0.672,1.5-1.5v-12.5C26.58,25.051,25.908,24.379,25.08,24.379z"></path></svg>