<svg height='100px' width='100px'  fill="#000000" xmlns="http://www.w3.org/2000/svg" viewBox="0 0 70 70" x="0px" y="0px"><title>02</title><path d="M35,60.44A22.77,22.77,0,1,1,57.77,37.68,22.79,22.79,0,0,1,35,60.44Zm0-43.53A20.77,20.77,0,1,0,55.77,37.68,20.79,20.79,0,0,0,35,16.91Z"></path><path d="M35,56.31A18.64,18.64,0,1,1,53.63,37.68,18.65,18.65,0,0,1,35,56.31ZM35,21A16.64,16.64,0,1,0,51.63,37.68,16.65,16.65,0,0,0,35,21Z"></path><path d="M53.29,26.39a1,1,0,0,1-.71-.29,1,1,0,0,1,0-1.41,6.47,6.47,0,1,0-10.39-7.42,1,1,0,0,1-1.34.46,1,1,0,0,1-.46-1.34A8.47,8.47,0,1,1,54,26.1,1,1,0,0,1,53.29,26.39Z"></path><path d="M16.71,26.39A1,1,0,0,1,16,26.1a8.48,8.48,0,1,1,13.61-9.71,1,1,0,1,1-1.8.88,6.47,6.47,0,1,0-10.39,7.42,1,1,0,0,1,0,1.41A1,1,0,0,1,16.71,26.39Z"></path><path d="M50,64.82a1,1,0,0,1-.72-.3l-6.12-6.24a1,1,0,1,1,1.43-1.4l5.67,5.79,3.15-1.13-3.55-8.45a1,1,0,0,1,1.85-.78l3.95,9.42A1,1,0,0,1,55,63.06l-4.74,1.7A1,1,0,0,1,50,64.82Z"></path><path d="M20,64.82a1,1,0,0,1-.34-.06L15,63.06a1,1,0,0,1-.58-1.33l3.95-9.42a1,1,0,0,1,1.85.78l-3.55,8.45,3.15,1.13,5.67-5.79a1,1,0,1,1,1.43,1.4l-6.12,6.24A1,1,0,0,1,20,64.82Z"></path><path d="M35,23.84a1,1,0,0,1-1-1V20a1,1,0,0,1,2,0v2.8A1,1,0,0,1,35,23.84Z"></path><path d="M20.16,38.68H17.37a1,1,0,1,1,0-2h2.79a1,1,0,1,1,0,2Z"></path><path d="M35,56.31a1,1,0,0,1-1-1v-2.8a1,1,0,1,1,2,0v2.8A1,1,0,0,1,35,56.31Z"></path><path d="M52.63,38.68H49.84a1,1,0,0,1,0-2h2.79a1,1,0,0,1,0,2Z"></path><path d="M41.87,45.55a1,1,0,0,1-.71-.3l-6.87-6.87a1,1,0,0,1-.29-.7v-8.4a1,1,0,0,1,2,0v8l6.58,6.58a1,1,0,0,1-.71,1.71Z"></path><path d="M52,14.79a1,1,0,0,1-.7-.29,10.24,10.24,0,0,0-3.72-2.14,9.92,9.92,0,0,1-4.51-2.88c-1.84-2.3-6.19-2.3-8-2.3s-6.21,0-8,2.3a9.92,9.92,0,0,1-4.51,2.88,10.24,10.24,0,0,0-3.72,2.14,1,1,0,0,1-1.41,0,1,1,0,0,1,0-1.42A12.36,12.36,0,0,1,21.7,10.5a8.18,8.18,0,0,0,3.69-2.27C27.83,5.18,32.85,5.18,35,5.18s7.17,0,9.61,3.05A8.18,8.18,0,0,0,48.3,10.5a12.36,12.36,0,0,1,4.39,2.58,1,1,0,0,1,0,1.42A1,1,0,0,1,52,14.79Z"></path><path d="M64.49,49.57a1,1,0,0,1-.71-.29,1,1,0,0,1,0-1.42,14.41,14.41,0,0,0,0-20.37,1,1,0,0,1,0-1.41,1,1,0,0,1,1.42,0,16.43,16.43,0,0,1,0,23.2A1,1,0,0,1,64.49,49.57Z"></path><path d="M61.05,46.13a1,1,0,0,1-.71-1.71,9.55,9.55,0,0,0,0-13.49,1,1,0,0,1,0-1.41,1,1,0,0,1,1.42,0,11.56,11.56,0,0,1,0,16.31A1,1,0,0,1,61.05,46.13Z"></path><path d="M5.51,49.57a1,1,0,0,1-.71-.29,16.43,16.43,0,0,1,0-23.2,1,1,0,0,1,1.42,0,1,1,0,0,1,0,1.41,14.41,14.41,0,0,0,0,20.37,1,1,0,0,1,0,1.42A1,1,0,0,1,5.51,49.57Z"></path><path d="M9,46.13a1,1,0,0,1-.71-.3,11.56,11.56,0,0,1,0-16.31,1,1,0,0,1,1.42,0,1,1,0,0,1,0,1.41,9.55,9.55,0,0,0,0,13.49A1,1,0,0,1,9,46.13Z"></path></svg>