<svg height='100px' width='100px'  fill="#000000" xmlns="http://www.w3.org/2000/svg" xmlns:xlink="http://www.w3.org/1999/xlink" version="1.1" x="0px" y="0px" viewBox="0 0 48.707 50.582" enable-background="new 0 0 48.707 50.582" xml:space="preserve"><path d="M25.057,47.699c12.026,0,21.812-9.785,21.812-21.812c0-12.025-9.783-21.81-21.812-21.81c-12.027,0-21.81,9.785-21.81,21.81  C3.247,37.914,13.03,47.699,25.057,47.699z M25.057,7.075c10.373,0,18.812,8.439,18.812,18.812c0,10.373-8.438,18.812-18.812,18.812  c-10.373,0-18.811-8.438-18.811-18.812C6.246,15.515,14.685,7.075,25.057,7.075z"></path><path d="M19.807,32.631c0.384,0,0.769-0.146,1.062-0.438l5.235-5.233c0.28-0.273,0.456-0.652,0.456-1.074l0.001-12.497  c0-0.828-0.672-1.5-1.5-1.5c-0.828,0-1.5,0.672-1.5,1.5L23.56,25.26l-4.812,4.812c-0.586,0.585-0.586,1.535,0,2.121  C19.039,32.484,19.423,32.631,19.807,32.631z"></path></svg>