<svg height='100px' width='100px'  fill="#000000" xmlns="http://www.w3.org/2000/svg" xmlns:xlink="http://www.w3.org/1999/xlink" version="1.1" x="0px" y="0px" viewBox="0 0 48.707 50.582" enable-background="new 0 0 48.707 50.582" xml:space="preserve"><path d="M25.032,4.09c-5.826,0-11.306,2.268-15.428,6.387c-4.121,4.121-6.391,9.599-6.391,15.427  c-0.001,5.826,2.269,11.307,6.391,15.43s9.604,6.395,15.435,6.395c5.827,0,11.307-2.27,15.428-6.391  c4.122-4.119,6.393-9.598,6.394-15.426c0.002-5.828-2.27-11.308-6.392-15.429C36.345,6.36,30.864,4.09,25.032,4.09z M38.345,39.217  c-3.555,3.553-8.28,5.51-13.307,5.51c-5.03,0-9.758-1.957-13.312-5.514C8.17,35.656,6.213,30.93,6.213,25.902  c0-5.026,1.958-9.751,5.513-13.304c3.554-3.554,8.281-5.51,13.307-5.51c5.029,0,9.759,1.958,13.314,5.516  c3.556,3.554,5.513,8.279,5.513,13.306C43.859,30.938,41.9,35.662,38.345,39.217z"></path><path d="M31.348,19.602c-0.586-0.586-1.535-0.586-2.121,0L15.008,33.809c-0.585,0.586-0.585,1.534-0.001,2.121  c0.293,0.293,0.678,0.439,1.062,0.439c0.385,0,0.769-0.146,1.062-0.438l14.218-14.208C31.934,21.139,31.934,20.188,31.348,19.602z"></path></svg>