<svg height='100px' width='100px'  fill="#000000" xmlns="http://www.w3.org/2000/svg" viewBox="0 0 64 64" x="0px" y="0px"><title>10-udon</title><g data-name="10-udon"><rect x="54" y="21" width="2" height="2"></rect><rect x="51" y="24" width="2" height="2"></rect><rect x="54" y="27" width="2" height="2"></rect><path d="M60.63019,26.65393A3.96077,3.96077,0,0,0,61,25a4.00149,4.00149,0,0,0-1.48438-3.09717,3.9158,3.9158,0,0,0,.41364-1.19244C61.24817,20.10187,64,18.21216,64,13a1.0003,1.0003,0,0,0-1.24219-.97021,8.59,8.59,0,0,0-4.86511,3.647,8.75927,8.75927,0,0,0-3.338-5.50879A1.65528,1.65528,0,0,0,54,9.99971a1.05187,1.05187,0,0,0-.832.4456,6.48906,6.48906,0,0,0-.24823,6.67725A3.839,3.839,0,0,0,52,17a4.00427,4.00427,0,0,0-4,4c0,.042.001.084.002.126a3.99947,3.99947,0,0,0-2.06512,1.31646,14.97215,14.97215,0,0,0-25.75751-.2099A11.98991,11.98991,0,0,0,0,31c0,.24323.26819,20.45972,19,26.98621V61a1.00058,1.00058,0,0,0,.69531.95264A39.41563,39.41563,0,0,0,32,64a39.41563,39.41563,0,0,0,12.30469-2.04736A1.00058,1.00058,0,0,0,45,61V57.98621C63.73181,51.45972,64,31.24323,64,31A8.301,8.301,0,0,0,60.63019,26.65393Zm.21814,11.66254C56.99353,42.25208,45.13818,45,32,45S7.00647,42.25208,3.15167,38.31647a32.12511,32.12511,0,0,1-.94855-4.63971C5.74023,36.728,14.39844,42,32,42s26.25977-5.272,29.79688-8.32324A32.12511,32.12511,0,0,1,60.84833,38.31647ZM7,31a4.99108,4.99108,0,0,1,6.83282-4.64777,15.12973,15.12973,0,0,0-6.66418,5.898A4.99808,4.99808,0,0,1,7,31Zm13-4a12.91163,12.91163,0,0,1,9.72571,4.40454,14.97687,14.97687,0,0,0-1.56769,2.824A9.99193,9.99193,0,0,0,10.6889,36.356c-1.00238-.41681-1.90741-.84455-2.71923-1.27222A13.076,13.076,0,0,1,20,27Zm34.33551,8.91113c-.84869.3852-1.77155.76416-2.78418,1.12677A10.00006,10.00006,0,0,0,32,40c-1.03467,0-2.02588-.02527-2.99689-.06165a12.99553,12.99553,0,0,1,25.3324-4.02722Zm-7.60706,2.53675a4.97734,4.97734,0,0,0-9.71185,1.38775c-.97369.06317-1.97265.113-3.01532.13861A7.99855,7.99855,0,0,1,49.6499,37.66345C48.73511,37.942,47.76367,38.20538,46.72845,38.44788Zm-1.95428.41839c-1.75085.33887-3.66583.61353-5.74139.80951a2.98819,2.98819,0,0,1,5.74139-.80951ZM20,34a5.00251,5.00251,0,0,0-4.86731,3.89423q-1.36991-.38947-2.57782-.81965a7.98212,7.98212,0,0,1,14.781-.21221,14.98832,14.98832,0,0,0-.32758,2.97491A59.22676,59.22676,0,0,1,17.061,38.39661,3.00019,3.00019,0,0,1,23,39h2A5.00588,5.00588,0,0,0,20,34Zm10.0141-5.13977a2.97022,2.97022,0,0,1,4.95221-2.10046,15.07348,15.07348,0,0,0-3.964,3.07409C30.68658,29.49146,30.35632,29.169,30.0141,28.86023ZM36.9212,25.904a4.97545,4.97545,0,0,0-8.66174,1.5827A14.84132,14.84132,0,0,0,26.492,26.47174a6.979,6.979,0,0,1,12.4527-1.15716A14.817,14.817,0,0,0,36.9212,25.904Zm20.22437,8.56207a4.00628,4.00628,0,0,0,.82709-1.99975A3.99166,3.99166,0,0,0,60,29a3.84231,3.84231,0,0,0-.03009-.392,6.16138,6.16138,0,0,1,1.86749,2.22717A19.754,19.754,0,0,1,57.14557,34.46606Zm4.748-19.92553A5.63157,5.63157,0,0,1,59.71338,18.535a3.97416,3.97416,0,0,0-.53735-.93945A5.93344,5.93344,0,0,1,61.89355,14.54053Zm-7.581-1.91992a6.48868,6.48868,0,0,1,1.60614,3.38751,3.96192,3.96192,0,0,0-1.2077.22314A4.73064,4.73064,0,0,1,54.3125,12.62061ZM48.9707,23.00049h.001c.02539.00342.13086.01513.15625.0166a.97448.97448,0,0,0,.8623-.39941.99923.99923,0,0,0,.13868-.94043A1.96118,1.96118,0,0,1,50,21a2.00229,2.00229,0,0,1,2-2,1.97645,1.97645,0,0,1,.97852.27,1.001,1.001,0,0,0,1.33691-.335,1.99356,1.99356,0,1,1,3.03809,2.52539,1.00023,1.00023,0,0,0,.334,1.67187,1.98518,1.98518,0,0,1,.377,3.55274,1.00013,1.00013,0,0,0-.334,1.33935A1.95941,1.95941,0,0,1,58,29a1.99624,1.99624,0,0,1-1.34668,1.87744,1.00027,1.00027,0,0,0-.66992.99317A.617.617,0,0,0,56,32a1.981,1.981,0,0,1-.56189,1.35651,15.15569,15.15569,0,0,0-7.97748-7.30085q-.18612-.68251-.43225-1.3366A1.987,1.987,0,0,1,48.9707,23.00049ZM33,17a13.08241,13.08241,0,0,1,12.13226,8.34906A14.764,14.764,0,0,0,42,25c-.3175,0-.62793.02814-.94061.04767a8.97638,8.97638,0,0,0-16.44306.69086,14.987,14.987,0,0,0-3.63427-.68323A13.0855,13.0855,0,0,1,33,17ZM12,21a9.95749,9.95749,0,0,1,7.21967,3.1012q-.19941.46362-.3675.9436A14.82983,14.82983,0,0,0,16.2959,25.48,6.97916,6.97916,0,0,0,5.53485,33.64368,17.33532,17.33532,0,0,1,2.01672,30.6701,10.00473,10.00473,0,0,1,12,21ZM43,60.26465A36.93153,36.93153,0,0,1,32,62a36.93153,36.93153,0,0,1-11-1.73535V58.60522A41.00317,41.00317,0,0,0,32,60a41.00317,41.00317,0,0,0,11-1.39478ZM32,58C14.7439,58,7.41779,49.20557,4.30377,41.64771,9.86145,44.9137,20.32037,47,32,47s22.13855-2.0863,27.69623-5.35229C56.58221,49.20557,49.2561,58,32,58Z"></path></g></svg>