<svg height='100px' width='100px'  fill="#000000" xmlns="http://www.w3.org/2000/svg" xmlns:xlink="http://www.w3.org/1999/xlink" version="1.1" x="0px" y="0px" viewBox="0 0 512 512" style="enable-background:new 0 0 512 512;" xml:space="preserve"><g><g><g><path d="M330,80H180c-5.523,0-10-4.477-10-10s4.477-10,10-10h150c5.522,0,10,4.477,10,10S335.522,80,330,80z"></path></g><g><path d="M440,490H70c-5.523,0-10-4.478-10-10s4.477-10,10-10h370c5.522,0,10,4.478,10,10S445.522,490,440,490z"></path></g><g><path d="M150,350c-5.523,0-10-4.478-10-10v-80c0-5.523,4.477-10,10-10h50c5.523,0,10,4.477,10,10v30c0,5.522-4.477,10-10,10h-20     c-5.523,0-10-4.478-10-10s4.477-10,10-10h10v-10h-30v70C160,345.522,155.523,350,150,350z"></path></g><g><path d="M230,350c-5.523,0-10-4.478-10-10v-80c0-5.523,4.477-10,10-10h50c5.522,0,10,4.477,10,10v30c0,5.522-4.478,10-10,10h-20     c-5.523,0-10-4.478-10-10s4.477-10,10-10h10v-10h-30v70C240,345.522,235.523,350,230,350z"></path></g><g><path d="M320,350c-5.522,0-10-4.478-10-10v-80c0-5.523,4.478-10,10-10h50c5.522,0,10,4.477,10,10v30c0,5.522-4.478,10-10,10h-20     c-5.522,0-10-4.478-10-10s4.478-10,10-10h10v-10h-30v70C330,345.522,325.522,350,320,350z"></path></g><g><path d="M400.359,350H112.37c-4.738,0-8.826-3.325-9.791-7.964c-5.4-25.97-6.446-58.098-6.559-112.015     c-0.005-2.656,1.045-5.205,2.921-7.084s4.423-2.937,7.079-2.937h299.969c5.52,0,9.995,4.472,10,9.991     c0.048,56.094-0.812,87.159-5.828,111.989C409.219,346.646,405.119,350,400.359,350z M120.696,330H391.98     c3.182-20.591,3.948-47.274,4.007-90H116.055C116.255,280.485,117.215,308.465,120.696,330z"></path></g><g><g><path d="M294.586,490h-76.768c-2.688,0-5.262-1.082-7.143-3.001c-9.291-9.482-17.976-18.224-25.638-25.936      c-44.236-44.524-66.44-66.872-77.94-101.929c-11.263-34.332-11.195-78.863-11.062-167.582      c0.015-10.284,0.032-21.171,0.032-32.714c0-4,2.384-7.615,6.06-9.191l32.275-13.835c15.544-6.663,26.292-20.009,29.49-36.615      s-1.827-32.989-13.786-44.947l-0.408-0.408c-5.689-5.69-7.376-14.17-4.297-21.604C148.481,24.804,155.67,20,163.716,20h182.568      c8.046,0,15.235,4.803,18.314,12.237c3.079,7.434,1.393,15.914-4.297,21.604c-12.002,12.002-17.017,28.438-13.758,45.096      c3.26,16.657,14.099,29.992,29.739,36.585l33.452,14.103c3.706,1.563,6.115,5.193,6.115,9.215      c0,15.751,0.041,30.263,0.079,43.671c0.232,82.476,0.349,123.873-10.027,155.92c-10.61,32.769-31.099,53.684-71.916,95.354      c-9.479,9.679-20.225,20.647-32.177,33.132C299.923,488.886,297.313,490,294.586,490z M222.016,470h68.304      c10.849-11.295,20.647-21.299,29.379-30.212c38.626-39.433,58.014-59.226,67.176-87.52c9.395-29.016,9.281-69.349,9.055-149.702      c-0.033-11.521-0.067-23.855-0.077-37.09l-27.339-11.525c-21.555-9.087-37.105-28.217-41.598-51.174      c-4.464-22.817,2.614-46.249,18.941-62.774L164.143,40l0.106,0.107c16.48,16.481,23.689,39.984,19.282,62.871      c-4.407,22.887-19.827,42.034-41.249,51.217l-26.217,11.238c-0.005,9.129-0.018,17.836-0.03,26.15      c-0.131,86.58-0.196,130.037,10.065,161.317c10.023,30.556,31.112,51.78,73.125,94.066      C206.097,453.883,213.789,461.625,222.016,470z"></path></g></g><g><path d="M290,200H110c-5.523,0-10-4.477-10-10s4.477-10,10-10h180c5.522,0,10,4.477,10,10S295.522,200,290,200z"></path></g><g><path d="M380,390H200c-5.523,0-10-4.478-10-10s4.477-10,10-10h180c5.522,0,10,4.478,10,10S385.522,390,380,390z"></path></g><g><path d="M320,200c-2.63,0-5.21-1.07-7.07-2.93S310,192.63,310,190c0-2.63,1.069-5.21,2.93-7.07c1.86-1.86,4.44-2.93,7.07-2.93     s5.21,1.07,7.069,2.93c1.86,1.86,2.931,4.44,2.931,7.07c0,2.63-1.07,5.21-2.931,7.07C325.21,198.93,322.63,200,320,200z"></path></g><g><path d="M350,200c-2.63,0-5.21-1.07-7.07-2.93S340,192.63,340,190c0-2.63,1.069-5.21,2.93-7.07c1.86-1.86,4.44-2.93,7.07-2.93     s5.21,1.07,7.069,2.93c1.86,1.86,2.931,4.44,2.931,7.07c0,2.63-1.07,5.21-2.931,7.07C355.21,198.93,352.63,200,350,200z"></path></g><g><path d="M170,390c-2.63,0-5.21-1.07-7.07-2.931C161.07,385.21,160,382.63,160,380s1.07-5.21,2.93-7.07     c1.86-1.86,4.44-2.93,7.07-2.93c2.63,0,5.21,1.069,7.07,2.93S180,377.37,180,380s-1.07,5.21-2.93,7.069     C175.21,388.93,172.63,390,170,390z"></path></g></g></g></svg>