<svg height='100px' width='100px'  fill="#000000" xmlns="http://www.w3.org/2000/svg" xmlns:xlink="http://www.w3.org/1999/xlink" version="1.1" x="0px" y="0px" viewBox="0 0 24 24" style="enable-background:new 0 0 24 24;" xml:space="preserve"><g><path d="M6.11,15.68L4.6,17.7c-0.17,0.22-0.12,0.53,0.1,0.7c0.09,0.07,0.2,0.1,0.3,0.1c0.15,0,0.3-0.07,0.4-0.2l0.31-0.42   c1.14,0.76,2.43,1.28,3.79,1.49v2.12H8c-0.28,0-0.5,0.22-0.5,0.5s0.22,0.5,0.5,0.5h2h4h2c0.28,0,0.5-0.22,0.5-0.5   s-0.22-0.5-0.5-0.5h-1.5v-2.68c3.51-1.4,6-4.82,6-8.82c0-2.84-1.25-5.46-3.42-7.28L17.4,2.3c0.17-0.22,0.12-0.53-0.1-0.7   c-0.22-0.17-0.53-0.12-0.7,0.1l-0.59,0.79c0,0-0.01,0-0.01,0.01c0,0,0,0.01,0,0.01l-0.91,1.21C13.91,2.95,12.51,2.5,11,2.5   c-1.12,0-2.18,0.25-3.13,0.7C7.83,3.21,7.8,3.22,7.77,3.24c-2.2,1.05-3.8,3.14-4.17,5.63c0,0.01,0,0.02-0.01,0.03   C3.54,9.26,3.5,9.63,3.5,10C3.5,12.27,4.52,14.3,6.11,15.68z M4.5,10c0-0.2,0.01-0.4,0.03-0.59c0.85-0.13,1.91-0.1,2.48,0.36   C7.34,10.03,7.5,10.44,7.5,11c0,2.79,0.87,3.32,2.54,4.1c0.23,0.11,0.47,0.22,0.74,0.35c0.55,0.27,0.9,0.58,0.96,0.84   c0.02,0.06,0.01,0.12-0.01,0.17c-0.24,0.03-0.49,0.04-0.73,0.04C7.42,16.5,4.5,13.58,4.5,10z M13.5,21.5h-3v-2.02   c0.17,0.01,0.33,0.02,0.5,0.02c0.87,0,1.7-0.13,2.5-0.34V21.5z M16.48,3.53C18.4,5.15,19.5,7.48,19.5,10c0,4.69-3.81,8.5-8.5,8.5   c-1.69,0-3.29-0.51-4.68-1.43l0.59-0.79C8.09,17.05,9.49,17.5,11,17.5c1.34,0,2.6-0.36,3.69-0.98c0,0,0,0,0.01,0   c0.01,0,0.02-0.01,0.03-0.02c2.25-1.3,3.77-3.72,3.77-6.5c0-0.95-0.18-1.85-0.5-2.68c-0.01-0.03-0.02-0.05-0.03-0.08   c-0.45-1.13-1.17-2.13-2.08-2.92L16.48,3.53z M15.23,13.45l0.1-0.05c0.58-0.29,1.14-0.58,1.66-0.86c-0.47,1.12-1.26,2.07-2.23,2.77   C14.47,14.37,14.62,13.75,15.23,13.45z M16.88,7.24c-0.55,0.34-1.08,0.48-1.5,0.39c-0.38-0.09-0.68-0.37-0.92-0.85   c-0.88-1.77-1.94-1.6-3.06-1.42C10.98,5.43,10.52,5.5,10,5.5c-0.83,0-1.21-0.77-1.38-1.54C9.36,3.67,10.16,3.5,11,3.5   C13.6,3.5,15.83,5.03,16.88,7.24z M7.7,4.41C8.07,5.75,8.89,6.5,10,6.5c0.6,0,1.1-0.08,1.54-0.15C12.6,6.18,13,6.11,13.55,7.22   c0.38,0.75,0.92,1.22,1.59,1.37c0.17,0.04,0.35,0.06,0.51,0.06c0.59,0,1.14-0.22,1.58-0.47C17.41,8.76,17.5,9.37,17.5,10   c0,0.38-0.04,0.76-0.1,1.13c-0.69,0.45-1.57,0.9-2.52,1.37l-0.1,0.05c-0.67,0.34-1.61,1.21-0.89,3.26   c-0.36,0.18-0.75,0.33-1.15,0.44c-0.01-0.07-0.01-0.14-0.03-0.21c-0.14-0.57-0.64-1.08-1.49-1.5c-0.27-0.14-0.53-0.25-0.76-0.36   C8.99,13.51,8.5,13.28,8.5,11c0-0.87-0.29-1.55-0.86-2.01c-0.84-0.68-2.08-0.7-2.92-0.61C5.15,6.69,6.24,5.27,7.7,4.41z"></path></g></svg>