<svg height='100px' width='100px'  fill="#000000" xmlns="http://www.w3.org/2000/svg" xmlns:xlink="http://www.w3.org/1999/xlink" version="1.1" x="0px" y="0px" viewBox="22 131.9 468 248.6" style="enable-background:new 22 131.9 468 248.6;" xml:space="preserve"><path d="M486,334.5h-19.4v-43.4c0-2.2-1.8-4-4-4h-41.7l34.9-63.1c0.6-1.1,0.7-2.3,0.2-3.4c-0.5-1.1-1.4-2-2.5-2.3  c-1.6-0.5-35.7-10.5-68.2,7c5.9-19.9,8.1-30.3,4.8-35c-1.1-1.6-2.8-2.5-4.7-2.6c-8.4-0.4-34.3,0.2-57,18.4  c18.2-57.6,17.2-58.6,14.8-61.2c-1.1-1.1-2.7-1.6-4.2-1.2c-6.9,1.8-29.2,8.6-56.3,27.7l-1.5-35.6c-0.1-1.2-0.7-2.4-1.7-3.1  c-1-0.7-2.3-0.9-3.5-0.6c-0.9,0.3-22.6,7-48.9,22.9c-23.7,14.4-55.6,39.2-74,76.2c-5.7-1-10.8-1.6-15.3-2  c-31-32.5-99.4-16.8-102.4-16.1c-1.4,0.3-2.5,1.4-2.9,2.7c-0.4,1.4-0.1,2.8,0.9,3.9C64.9,254,86.4,294.3,93.7,309H88  c-0.3,0-0.7,0-1,0.1l-38.6,10.3c-1.7,0.5-3,2.1-3,3.9v11.2H26c-2.2,0-4,1.8-4,4v37.9c0,2.2,1.8,4,4,4h460c2.2,0,4-1.8,4-4v-37.9  C490,336.3,488.2,334.5,486,334.5z M446.1,224.8l-34.5,62.3h-20.7c-0.7,0-1.4,0.2-2,0.5l-11.1,6.4l-8.4,4.8c0-0.1,0-0.1,0-0.2  l2-11.7c0.6-3.3,1.3-6.7,1.9-10.2l1.9-9.3c0.2-1.1,0.4-2.2,0.7-3.3l1.2-5.8c0.2-0.8,0.4-1.7,0.5-2.5l4.1-18.9c0-0.2,0.1-0.3,0.1-0.5  C406.7,219.6,435,222.7,446.1,224.8z M147.5,309h-26.3l16.6-21.5L147.5,309z M142.5,278.5c0-0.1-0.1-0.2-0.1-0.3l-18.9-41.8  c8.9,0.1,27.2,1.3,50.3,7.6c0.2,0,0.3,0.1,0.5,0.1c0.8,0.2,1.6,0.4,2.4,0.7c0.1,0,0.1,0,0.2,0.1c27.6,8,66.3,24.7,104.4,59.9  c0.3,0.3,0.6,0.6,1,0.9c0.9,0.8,1.7,1.6,2.6,2.4c0.3,0.3,0.7,0.6,1,1H156.3L142.5,278.5z M383.6,195.6c0.6,5.2-4.5,22.1-6.5,28.7  c-1.2,3.9-2.1,6.9-2.5,8.9c-1.4,6.4-3,13.5-4.6,20.8l-0.4,1.8c0,0.1,0,0.2,0,0.2l-0.6,2.7c-0.1,0.7-0.3,1.3-0.4,2l-1,4.9  c0,0.1,0,0.1,0,0.2l-0.2,0.9c-0.5,2.7-1.1,5.3-1.6,8l-0.6,2.9c0,0.1,0,0.1,0,0.2l-1.3,6.6c0,0.1,0,0.2,0,0.3l-0.8,4.3l-0.2,1  c-0.8,4.7-1.6,9.2-2.2,13.2h-31.9c-0.4,0-0.7,0-1,0.1l-18.2,4.9c0,0,0-0.1,0-0.1c0-0.1,0-0.2,0-0.3c-0.1-0.4-0.1-0.7-0.1-1.1  c0-0.2,0-0.3,0-0.5c0-0.4-0.1-0.7-0.1-1.1c0-0.2,0-0.4,0-0.5c0-0.4,0-0.8-0.1-1.1c0-0.2,0-0.4,0-0.6c0-0.4,0-0.8,0-1.2  c0-0.2,0-0.4,0-0.6c0-0.4,0-0.9,0-1.3c0-0.2,0-0.4,0-0.6c0-0.5,0-1,0-1.5c0-0.2,0-0.4,0-0.5c0-0.6,0.1-1.2,0.1-1.8  c0-0.1,0-0.2,0-0.3c0.1-1.5,0.2-3.1,0.4-4.7c0,0,0-0.1,0-0.1c0.1-0.8,0.1-1.5,0.2-2.3c0-0.2,0-0.4,0.1-0.5c0.1-0.7,0.1-1.3,0.2-2  c0-0.2,0.1-0.5,0.1-0.7c0.1-0.6,0.2-1.3,0.3-2c0-0.3,0.1-0.5,0.1-0.8c0.1-0.7,0.2-1.3,0.3-2c0-0.3,0.1-0.5,0.1-0.8  c0.1-0.7,0.2-1.4,0.3-2.1c0-0.3,0.1-0.5,0.1-0.8c0.1-0.8,0.2-1.5,0.4-2.3c0-0.2,0.1-0.4,0.1-0.7c0.1-0.9,0.3-1.8,0.5-2.7  c0-0.1,0-0.2,0.1-0.4c0.6-3.2,1.2-6.5,1.9-9.9c0-0.1,0-0.2,0.1-0.3c0.2-1,0.4-2.1,0.6-3.2c0-0.2,0.1-0.4,0.1-0.6  c0.2-1,0.4-1.9,0.6-2.9c0.1-0.3,0.1-0.5,0.2-0.8c0.2-0.9,0.4-1.9,0.6-2.8c0.1-0.3,0.1-0.5,0.2-0.8c0.2-1,0.4-2,0.7-2.9  c0.1-0.2,0.1-0.5,0.2-0.7c0.2-1,0.5-2.1,0.7-3.1c0-0.2,0.1-0.4,0.1-0.6c0.3-1.2,0.6-2.3,0.9-3.5c0-0.1,0-0.2,0.1-0.3  c1.2-5,2.6-10.2,4-15.6C344.6,197.2,373.3,195.4,383.6,195.6z M320.3,204.6c-2.2,7.1-3.9,12.2-4.4,14.2c0,0,0,0,0,0  c-0.8,3.2-1.8,6.6-2.7,10.2c0,0.1,0,0.1-0.1,0.2c-0.2,0.8-0.4,1.7-0.6,2.5c0,0.1-0.1,0.3-0.1,0.4c-0.2,0.8-0.4,1.6-0.6,2.4  c0,0.2-0.1,0.4-0.1,0.6c-0.2,0.8-0.4,1.6-0.6,2.4c-0.1,0.2-0.1,0.4-0.2,0.6c-0.2,0.8-0.4,1.6-0.6,2.4c0,0.2-0.1,0.4-0.1,0.6  c-0.2,0.8-0.4,1.7-0.6,2.5c0,0.2-0.1,0.3-0.1,0.5c-0.9,3.9-1.8,7.8-2.6,11.8c0,0.1,0,0.2-0.1,0.3c-0.2,0.8-0.3,1.6-0.5,2.3  c-0.1,0.3-0.1,0.6-0.2,1c-0.1,0.7-0.3,1.4-0.4,2.1c-0.1,0.4-0.2,0.8-0.2,1.2c-0.1,0.7-0.2,1.3-0.4,2c-0.1,0.4-0.2,0.9-0.2,1.3  c-0.1,0.6-0.2,1.3-0.3,1.9c-0.1,0.5-0.2,0.9-0.2,1.4c-0.1,0.6-0.2,1.2-0.3,1.8c-0.1,0.5-0.2,0.9-0.2,1.4c-0.1,0.6-0.2,1.2-0.3,1.8  c-0.1,0.5-0.1,0.9-0.2,1.4c-0.1,0.6-0.2,1.2-0.3,1.8c-0.1,0.5-0.1,0.9-0.2,1.4c-0.1,0.6-0.2,1.2-0.2,1.7c-0.1,0.5-0.1,1-0.2,1.4  c-0.1,0.6-0.1,1.1-0.2,1.7c-0.1,0.5-0.1,1.1-0.2,1.6c-0.1,0.9-0.2,1.7-0.3,2.6c-0.1,0.6-0.1,1.1-0.2,1.7c0,0.5-0.1,0.9-0.1,1.4  c0,0.5-0.1,1-0.1,1.5c0,0.5-0.1,0.9-0.1,1.3c0,0.5-0.1,1-0.1,1.4c0,0.4,0,0.9-0.1,1.3c0,0.5,0,0.9,0,1.4c0,0.4,0,0.8,0,1.3  c0,0.4,0,0.9,0,1.3c0,0.4,0,0.8,0,1.2c0,0.4,0,0.9,0,1.3c0,0.4,0,0.8,0,1.1c0,0.4,0,0.8,0.1,1.2c0,0.4,0.1,0.7,0.1,1.1  c0,0.4,0.1,0.8,0.1,1.2c0,0.2,0,0.3,0.1,0.5l-4.5,0.5c-0.4-0.4-0.9-0.8-1.3-1.3c-0.7-0.7-1.4-1.4-2.2-2.1c-0.8-0.8-1.7-1.6-2.5-2.5  c-0.5-0.5-1-1-1.6-1.5c-1-1-2.1-2-3.2-3c-0.3-0.2-0.5-0.5-0.8-0.7c-20.7-18.9-43.3-34.3-67.5-45.8c0.2-0.4,0.5-0.8,0.7-1.1  c0.2-0.4,0.5-0.8,0.7-1.1c1-1.5,2-3,3-4.5c0.2-0.3,0.5-0.7,0.7-1c0.9-1.4,1.9-2.8,2.8-4.1c0.2-0.2,0.3-0.4,0.5-0.7  c1-1.5,2.1-2.9,3.2-4.4c0.2-0.3,0.5-0.7,0.7-1c1.1-1.4,2.1-2.8,3.2-4.2c0.2-0.3,0.4-0.6,0.7-0.9c1.1-1.4,2.3-2.9,3.4-4.3  c0.1-0.2,0.3-0.3,0.4-0.5c13.1-16.1,27.5-30.1,43.2-41.9c0.2-0.1,0.3-0.3,0.4-0.4c23.4-17.5,43.6-25.5,54-28.8  C333.1,164.2,324.4,191.7,320.3,204.6z M161.2,232.7c29.7-57.4,93.8-84.5,112.1-91.3l1.5,35.6c-4.4,3.4-8.9,7.1-13.5,11.1  c0,0,0,0,0,0c-1.3,1.2-2.7,2.4-4,3.7c-0.1,0.1-0.3,0.3-0.4,0.4c-1.2,1.1-2.4,2.2-3.5,3.4c-0.4,0.4-0.8,0.7-1.2,1.1  c-1.1,1.1-2.1,2.1-3.2,3.2c-0.5,0.5-0.9,0.9-1.4,1.4c-0.7,0.7-1.4,1.5-2.1,2.2c-0.6,0.6-1.1,1.2-1.7,1.8c-0.9,0.9-1.8,1.9-2.6,2.9  c-0.6,0.6-1.2,1.3-1.7,1.9c-0.6,0.6-1.1,1.3-1.7,2c-0.9,1-1.7,2-2.6,3.1c-0.6,0.7-1.1,1.3-1.7,2c-0.6,0.7-1.1,1.4-1.7,2.1  c-0.6,0.7-1.2,1.5-1.7,2.2c-0.8,1-1.6,2-2.4,3c-0.6,0.8-1.2,1.6-1.8,2.4c-0.5,0.7-1,1.3-1.5,2c-0.7,0.9-1.3,1.8-2,2.7  c-0.6,0.8-1.1,1.5-1.6,2.3c-0.8,1.1-1.6,2.2-2.3,3.3c-0.4,0.6-0.8,1.2-1.2,1.8c-0.7,1-1.4,2.1-2.1,3.2c-0.3,0.5-0.6,0.9-0.9,1.4  c-1,1.5-2,3-2.9,4.6c-0.1,0.1-0.2,0.3-0.3,0.4c-6.9-3-13.9-5.7-21-8.1c-0.7-0.2-1.4-0.5-2-0.7c-0.8-0.3-1.7-0.5-2.5-0.8  c-1.5-0.5-2.9-0.9-4.3-1.3c-0.6-0.2-1.1-0.3-1.7-0.5c-1.2-0.3-2.3-0.7-3.4-1c-0.4-0.1-0.8-0.2-1.2-0.3c-0.5-0.1-1-0.3-1.6-0.4  c-1.6-0.4-3.2-0.8-4.8-1.2c-0.4-0.1-0.9-0.2-1.3-0.3c-1.8-0.4-3.5-0.8-5.3-1.2C161.5,232.8,161.3,232.7,161.2,232.7z M43.9,219.5  c15.9-2.7,56.1-7.4,80.4,8.8c-4.4-0.1-7,0.1-7.3,0.1c-0.1,0-0.2,0-0.3,0c-0.1,0-0.1,0-0.2,0c-0.1,0-0.2,0-0.3,0.1  c-0.1,0-0.1,0-0.2,0c-0.1,0-0.2,0.1-0.3,0.1c-0.1,0-0.1,0-0.2,0.1c-0.1,0-0.2,0.1-0.3,0.1c-0.1,0-0.1,0.1-0.2,0.1  c-0.1,0.1-0.2,0.1-0.2,0.2c0,0-0.1,0.1-0.1,0.1c-0.1,0.1-0.2,0.1-0.2,0.2c0,0-0.1,0.1-0.1,0.1c-0.1,0.1-0.2,0.2-0.3,0.3  c0,0,0,0-0.1,0.1c-0.1,0.1-0.2,0.3-0.3,0.4c-0.3,0.5-0.5,1.1-0.5,1.7c0,0,0,0.1,0,0.1c0,0.1,0,0.2,0,0.2c0,0.3,0,0.6,0.1,0.8  c0.1,0.3,0.1,0.5,0.3,0.8l20.4,45.2l-23,29.7h-8.5C97.6,298.7,76.5,256.6,43.9,219.5z M53.4,326.4l35.1-9.4h11.5c0,0,0,0,0,0h13  c0,0,0,0,0,0h40.7h141.9h11.1c0.2,0,0.3,0,0.5,0c0.1,0,0.1,0,0.1,0c0,0,0,0,0.1,0c0,0,0.1,0,0.1,0c0,0,0.1,0,0.1,0c0,0,0,0,0,0  l21.6-5.8h33.9c0.1,0,0.3,0,0.4,0c0,0,0.1,0,0.1,0c0.1,0,0.2,0,0.3-0.1c0.1,0,0.1,0,0.2,0c0.1,0,0.2-0.1,0.3-0.1  c0.1,0,0.1,0,0.2-0.1c0.1,0,0.2-0.1,0.3-0.1c0.1,0,0.1,0,0.2-0.1l0.1,0c0,0,0,0,0,0l0,0l1-0.5c0,0,0.1,0,0.1-0.1l14.9-8.6l10.8-6.2  h66.6v39.4H53.4V326.4z M482,372.5H30v-11h226c2.2,0,4-1.8,4-4s-1.8-4-4-4H30v-11h19.4h413.1H482V372.5z"></path></svg>