<svg height='100px' width='100px'  fill="#000000" xmlns:dc="http://purl.org/dc/elements/1.1/" xmlns:cc="http://creativecommons.org/ns#" xmlns:rdf="http://www.w3.org/1999/02/22-rdf-syntax-ns#" xmlns:svg="http://www.w3.org/2000/svg" xmlns="http://www.w3.org/2000/svg" xmlns:sodipodi="http://sodipodi.sourceforge.net/DTD/sodipodi-0.dtd" xmlns:inkscape="http://www.inkscape.org/namespaces/inkscape" viewBox="0 0 72 80.000002" version="1.1" x="0px" y="0px"><g transform="translate(0,-972.3622)"><path style="" d="m 41.039377,986.89394 c -2.624216,-0.0682 -4.673121,1.86963 -5.282579,3.32613 -1.234227,2.94272 0.09539,6.65412 2.952598,8.00755 -0.634351,-0.48754 -1.465157,-1.13995 -1.692247,-2.99321 l -0.04131,-0.6699 c 0,-1.69114 0.820445,-2.65929 0.826348,-2.6652 l 0.108984,-0.009 0.0047,0.10617 c 0.0024,0 -0.194777,0.22742 -0.392519,0.6641 -0.197861,0.43976 -0.398321,1.08305 -0.398321,1.90354 l 0.04131,0.65232 c 0.210454,1.67879 0.889407,2.30593 1.493614,2.77594 -1.253234,-1.57577 -0.16862,-3.59683 1.054688,-4.17428 1.69704,-0.79687 2.107241,-2.78315 1.233633,-4.10537 -0.796871,-1.20121 0.02653,-2.04533 1.248399,-2.65922 -0.395853,-0.0989 -0.782456,-0.14952 -1.157344,-0.15926 z m -3.007091,3.211 0.522423,0.46635 0.608027,-0.3542 -0.280371,0.64336 0.522422,0.46933 -0.696621,-0.0708 -0.286172,0.64336 -0.147657,-0.68467 -0.699433,-0.0708 0.605039,-0.35718 -0.147657,-0.68467 z" fill="#000000" fill-opacity="1" fill-rule="nonzero" stroke="none"></path><path style="" d="m 45.130336,992.75326 c -2.957011,0.0616 -5.717033,2.35678 -6.101018,5.2933 0.269972,-0.75653 0.632603,-1.75048 2.329279,-2.53476 l 0.622793,-0.24487 c 1.61145,-0.51944 2.786068,-0.0354 2.794922,-0.0295 l 0.03814,0.0972 -0.09721,0.0413 c -0.0024,0 -0.277385,-0.11484 -0.755509,-0.17104 -0.478122,-0.0531 -1.148176,-0.0472 -1.933242,0.20373 l -0.605039,0.23906 c -1.535737,0.717 -1.923948,1.55719 -2.187599,2.27831 1.115412,-1.68274 3.375007,-1.27451 4.300842,-0.2802 1.277945,1.36649 3.296624,1.14508 4.282384,-0.0886 0.900169,-1.12743 1.956802,-0.60513 2.913048,0.37177 -0.215451,-3.25536 -3.190407,-5.00254 -4.987796,-5.15601 -0.20512,-0.0175 -0.410036,-0.0239 -0.614003,-0.0197 z m 0.289512,2.03256 0.525234,0.46934 0.605039,-0.35122 -0.280547,0.64038 0.522422,0.46933 -0.696445,-0.0679 -0.286348,0.64055 -0.14748,-0.68766 -0.702422,-0.068 0.61084,-0.35718 -0.150293,-0.68766 z" fill="#000000" fill-opacity="1" fill-rule="nonzero" stroke="none"></path><path style="" d="m 40.203713,998.20002 c -0.302329,0.005 -0.605891,0.0343 -0.908086,0.0902 0.802102,0.0218 1.860184,0.0579 3.131368,1.43913 l 0.422051,0.51658 c 0.991662,1.3754 0.888399,2.6414 0.888399,2.6503 l -0.08262,0.068 -0.06803,-0.08 c -0.0024,0 0.02361,-0.301 -0.07084,-0.7703 -0.09444,-0.4722 -0.309905,-1.1127 -0.788027,-1.7797 l -0.410274,-0.50471 c -1.158009,-1.24541 -2.077782,-1.35309 -2.84502,-1.38217 1.946344,0.54062 2.254495,2.81898 1.593808,4.00608 -0.911974,1.638 -0.08276,3.4913 1.39588,4.0521 1.348779,0.5135 1.174684,1.6764 0.537188,2.8865 3.031062,-1.2071 3.78377,-4.5718 3.382384,-6.3308 -0.650779,-2.8097 -3.364643,-4.90532 -6.178186,-4.86138 z m 3.026075,5.05638 0.525235,0.4693 0.608027,-0.3542 -0.286347,0.6434 0.522246,0.4691 -0.69627,-0.071 -0.286348,0.6405 -0.14748,-0.6848 -0.69961,-0.074 0.608027,-0.3512 -0.14748,-0.6876 z" fill="#000000" fill-opacity="1" fill-rule="nonzero" stroke="none"></path><path style="" d="m 39.152717,998.62312 c 0.222991,0.77093 0.507437,1.78718 -0.412032,3.41718 l -0.362988,0.5608 c -1.003467,1.3635 -2.240092,1.6556 -2.248946,1.6556 l -0.09141,-0.056 0.05625,-0.089 c 0,-0 0.292116,-0.068 0.711211,-0.3039 0.422047,-0.233 0.965153,-0.6346 1.452129,-1.2957 l 0.351211,-0.5459 c 0.831044,-1.4804 0.654992,-2.38899 0.446309,-3.12842 0.08026,2.01552 -1.992864,3.00472 -3.327189,2.74162 -1.835755,-0.3659 -3.3467,0.9946 -3.426505,2.5707 -0.07083,1.4402 -1.233625,1.6349 -2.582403,1.3988 2.077769,2.5176 5.513069,2.2019 7.062541,1.2752 2.741079,-1.6378 3.876506,-5.4154 2.371818,-8.20148 z m -4.653284,5.14368 0.522423,0.4694 0.61084,-0.3482 -0.289161,0.6403 0.522423,0.4722 -0.699435,-0.077 -0.286171,0.643 0,4e-4 -1.8e-4,0 1.8e-4,-4e-4 -0.144844,-0.6903 -0.699434,-0.071 0.611016,-0.3512 -0.147657,-0.6877 z" fill="#000000" fill-opacity="1" fill-rule="nonzero" stroke="none"></path><path style="" d="m 29.302283,991.73109 c -1.756068,2.74773 -0.401383,5.9206 0.956251,7.11 2.398382,2.10391 6.338914,2.02591 8.531194,-0.25787 -0.662078,0.44828 -1.544207,1.03293 -3.378165,0.65619 l -0.649336,-0.1742 c -1.602597,-0.53715 -2.26076,-1.62323 -2.263712,-1.62914 l 0,-0.002 0.02356,-0.10336 0.103535,0.0267 c 0.0024,0 0.156288,0.25669 0.504668,0.58429 0.354165,0.32761 0.903065,0.72013 1.682227,0.9828 l 0.628595,0.16541 c 1.661082,0.33415 2.472891,-0.11008 3.112911,-0.53315 -1.894893,0.69328 -3.473287,-0.97603 -3.629358,-2.32136 -0.21545,-1.86232 -1.97152,-2.88352 -3.500332,-2.47624 -1.390098,0.37188 -1.930075,-0.67295 -2.122033,-2.02763 z m 2.033263,3.87809 0.522422,0.47232 0.611016,-0.34822 -0.292325,0.64037 0.522423,0.47233 -0.696446,-0.0768 -0.292149,0.64635 -0.14168,-0.69065 -0.699433,-0.0766 0.611015,-0.3484 -0.144843,-0.69064 z" fill="#000000" fill-opacity="1" fill-rule="nonzero" stroke="none"></path><path style="color:#000000;font-style:normal;font-variant:normal;font-weight:normal;font-stretch:normal;font-size:medium;line-height:normal;font-family:sans-serif;text-indent:0;text-align:start;text-decoration:none;text-decoration-line:none;text-decoration-style:solid;text-decoration-color:#000000;letter-spacing:normal;word-spacing:normal;text-transform:none;direction:ltr;block-progression:tb;writing-mode:lr-tb;baseline-shift:baseline;text-anchor:start;white-space:normal;clip-rule:nonzero;display:inline;overflow:visible;visibility:visible;opacity:1;isolation:auto;mix-blend-mode:normal;color-interpolation:sRGB;color-interpolation-filters:linearRGB;solid-color:#000000;solid-opacity:1;fill:#000000;fill-opacity:1;fill-rule:nonzero;stroke:none;stroke-width:1.44000041;stroke-linecap:butt;stroke-linejoin:miter;stroke-miterlimit:4;stroke-dasharray:none;stroke-dashoffset:0;stroke-opacity:1;color-rendering:auto;image-rendering:auto;shape-rendering:auto;text-rendering:auto;enable-background:accumulate" d="m 7.1992188,1019.7422 0,-0.7207 0,-42.47853 64.8007812,0 0,43.19923 -64.8007812,0 z m 1.4414062,-1.4395 61.919922,0 0,-40.32028 -61.919922,0 0,40.32028 z"></path><path style="color:#000000;font-style:normal;font-variant:normal;font-weight:normal;font-stretch:normal;font-size:medium;line-height:normal;font-family:sans-serif;text-indent:0;text-align:start;text-decoration:none;text-decoration-line:none;text-decoration-style:solid;text-decoration-color:#000000;letter-spacing:normal;word-spacing:normal;text-transform:none;direction:ltr;block-progression:tb;writing-mode:lr-tb;baseline-shift:baseline;text-anchor:start;white-space:normal;clip-rule:nonzero;display:inline;overflow:visible;visibility:visible;opacity:1;isolation:auto;mix-blend-mode:normal;color-interpolation:sRGB;color-interpolation-filters:linearRGB;solid-color:#000000;solid-opacity:1;fill:#000000;fill-opacity:1;fill-rule:nonzero;stroke:none;stroke-width:1.44000053;stroke-linecap:butt;stroke-linejoin:round;stroke-miterlimit:4;stroke-dasharray:none;stroke-dashoffset:0;stroke-opacity:1;color-rendering:auto;image-rendering:auto;shape-rendering:auto;text-rendering:auto;enable-background:accumulate" d="M 0.72070312,972.58203 A 0.72007227,0.72007227 0 0 0 0,973.30273 l 0,78.11917 a 0.72007227,0.72007227 0 0 0 0.72070312,0.7207 l 7.19921878,0 a 0.72007227,0.72007227 0 0 0 0.7207031,-0.7207 l 0,-32.4004 -1.4414062,0 0,31.6816 -5.7597657,0 0,-76.68162 5.7597657,0 0,3.41993 1.4414062,0 0,-4.13868 a 0.72007227,0.72007227 0 0 0 -0.7207031,-0.7207 l -7.19921878,0 z"></path></g></svg>