<svg height='100px' width='100px'  fill="#000000" xmlns="http://www.w3.org/2000/svg" xmlns:xlink="http://www.w3.org/1999/xlink" version="1.1" x="0px" y="0px" viewBox="0 0 100 100" style="enable-background:new 0 0 100 100;" xml:space="preserve"><path d="M77.0874023,19.6789551V16.784668c0-1.5317383-1.2192383-2.777832-2.7177734-2.777832h-6.1660156V11  c0-0.5522461-0.4477539-1-1-1s-1,0.4477539-1,1v3.0068359h-6.1660156c-1.4985352,0-2.7177734,1.2460938-2.7177734,2.777832  v2.8998413c-2.1367798,1.0283813-4.085083,2.3737793-5.8105469,4.0119629  c-1.3776855-1.0418091-2.8747559-1.946167-4.4692383-2.7067261v-3.3896484c0-1.6699219-1.3276367-3.0288086-2.9599609-3.0288086  h-7.1757812V11c0-0.5522461-0.4477539-1-1-1s-1,0.4477539-1,1v3.5712891h-7.175293  c-1.6323242,0-2.9599609,1.3588867-2.9599609,3.0288086v3.3887939C15.7815552,25.2763062,10,34.3754883,10,44.3666992  c0,13.9487915,11.0830078,25.3514404,24.9042969,25.8794556v2.0529175  c-0.7521973,0.1783447-1.4683838,0.5467529-2.0537109,1.1320801c-0.815918,0.8154297-1.2646484,1.8999023-1.2646484,3.0537109  s0.4487305,2.2382812,1.2646484,3.0537109c0.190918,0.190979,0.3989258,0.3537598,0.6138916,0.5014038  c-1.5231934,0.859375-2.56604,2.4737549-2.56604,4.343811V89c0,0.5522461,0.4477539,1,1,1h8.012207c0.5522461,0,1-0.4477539,1-1  v-4.6162109c0-1.8699951-1.0427856-3.4844971-2.5661011-4.343811c0.2150269-0.147644,0.4230347-0.3103638,0.6139526-0.5014038  c1.684082-1.6835938,1.684082-4.4238281,0-6.1074219c-0.5856323-0.5856323-1.302002-0.9539795-2.0541992-1.1322021v-2.0527954  c7.8721313-0.3007202,14.8511353-4.1294556,19.4044189-9.9482422c3.0379028,1.6526489,6.4258423,2.59198,9.8948975,2.7438965  v1.6225586c-0.6542358,0.1641846-1.2719116,0.4768677-1.7636719,0.9689331  c-0.7387695,0.7382812-1.1450195,1.7197266-1.1450195,2.7636719s0.4067383,2.0258789,1.1450195,2.7641602  c0.1261597,0.1261597,0.2675171,0.2258911,0.4057007,0.3311768c-1.2865601,0.7955933-2.1532593,2.2075195-2.1532593,3.8280029  v4.0463867c0,0.5522461,0.4477539,1,1,1h7.0224609c0.5522461,0,1-0.4477539,1-1v-4.0463867  c0-1.6204224-0.8665771-3.0322876-2.1530762-3.8278809c0.1383057-0.1052856,0.2797241-0.2050781,0.4060059-0.3312988  c1.5239258-1.5244141,1.5239258-4.0043945,0-5.527832c-0.4918823-0.4918823-1.1097412-0.8046265-1.7641602-0.9688721v-1.6151123  c12.1253052-0.5256348,21.8286133-10.5507202,21.8286133-22.8032227  C90.0322266,31.4620972,84.9689941,23.4718018,77.0874023,19.6789551z M60.0375977,16.0068359h14.3320312  c0.3891602,0,0.7177734,0.3564453,0.7177734,0.777832v2.5065308l-15.7675781,0.019104V16.784668  C59.3198242,16.3632812,59.6484375,16.0068359,60.0375977,16.0068359z M70.472168,21.3017578  c0.1233521,0.1864624,12.0809326,18.7848511,0.1633911,39.4653931C69.5163574,60.9539185,68.375,61.074707,67.2036133,61.074707  c-1.1640015,0-2.3195801-0.1082153-3.4586182-0.2994995c-1.4351807-2.4887085-2.6018066-5.0667114-3.4556274-7.6721191  c0.9814453-2.7310791,1.5197144-5.6716309,1.5197144-8.7363892c0-3.9257812-0.8968506-7.7103882-2.5220337-11.1234741  c0.0021973-0.0091553,0.0083618-0.0161743,0.0103149-0.0254517c1.5253296-7.1519165,4.5505981-11.8311157,4.6044312-11.9130859  l6.5684204-0.0078125C70.4711914,21.2984009,70.4711914,21.3002319,70.472168,21.3017578z M58.512207,21.3110352  l3.0632324-0.0036011c-0.8973999,1.604126-2.5212402,4.8809204-3.7133179,9.3449707  c-1.3137207-2.1036377-2.9251099-4.0170288-4.7952881-5.675354C54.6870117,23.4748535,56.5064087,22.2332764,58.512207,21.3110352z   M27.7290039,16.5712891h16.3510742c0.5292969,0,0.9599609,0.4614258,0.9599609,1.0288086v3.0002441L26.769043,20.6227417v-3.022644  C26.769043,17.0327148,27.199707,16.5712891,27.7290039,16.5712891z M39.7504883,22.6748047  c0.1409912,0.2144165,13.8433228,21.5915527,0.1459961,45.256897c-1.2991943,0.2194214-2.6315308,0.3397827-3.9921875,0.3397827  c-1.3743286,0-2.7197266-0.1229858-4.03125-0.3468018C18.1824951,44.262207,31.881958,22.8891602,32.0229492,22.6748047  c0.0120239-0.0183716,0.0128784-0.0397949,0.0235596-0.0585938l7.6766968-0.0092773  C39.7353516,22.6287842,39.7365112,22.6535645,39.7504883,22.6748047z M12,44.3666992  c0-9.3442383,5.4711914-17.8549805,13.9575195-21.7431641l3.777771-0.0045776  c-2.5595093,4.5749512-11.6977539,23.605957-0.4815674,44.7040405C19.2998047,64.4342651,12,55.2398682,12,44.3666992z   M38.9106445,88h-6.012207v-3.6162109c0-1.6572266,1.3486328-3.0058594,3.0058594-3.0058594  c1.6577148,0,3.0063477,1.3486328,3.0063477,3.0058594V88z M37.5444336,78.1245117  c-0.9047852,0.9047852-2.3759766,0.9038086-3.2797852,0c-0.9038086-0.9042969-0.9038086-2.375,0-3.2792969  c0.9038086-0.902832,2.375-0.9038086,3.2797852,0C38.4482422,75.7495117,38.4482422,77.2202148,37.5444336,78.1245117z   M42.5131226,67.3349609c11.2393799-21.1279907,2.0639038-40.184021-0.4833984-44.730835l3.7686157-0.0045166  c8.5185547,3.8769531,14.0107422,12.3979492,14.0107422,21.7670898  C59.809082,55.255127,52.4887085,64.4599609,42.5131226,67.3349609z M59.1361084,55.8110962  c0.5706177,1.4661255,1.2335205,2.9177856,1.9805298,4.3455811c-1.2514648-0.3815918-2.4647827-0.880188-3.6246338-1.4924927  C58.0981445,57.7519531,58.6473389,56.7991943,59.1361084,55.8110962z M69.7148438,78.3666992h-5.0224609v-3.0463867  c0-1.3847656,1.1264648-2.5112305,2.5112305-2.5112305s2.5112305,1.1264648,2.5112305,2.5112305V78.3666992z M68.5537109,69.7470703  c-0.7441406,0.7441406-1.9555664,0.7441406-2.699707,0c-0.3603516-0.3608398-0.559082-0.840332-0.559082-1.3500977  s0.1982422-0.9887695,0.559082-1.3496094s0.8398438-0.559082,1.3496094-0.559082s0.9892578,0.1987305,1.3500977,0.559082  C69.2978516,67.7915039,69.2978516,69.0024414,68.5537109,69.7470703z M73.2508545,60.1727295  c9.5241089-18.1972656,1.8902588-34.5922241-0.4696655-38.8786011l3.0674438-0.0036011  c7.4082031,3.3837891,12.1835938,10.8007812,12.1835938,18.9555664  C88.0322266,49.6278076,81.7947388,57.574585,73.2508545,60.1727295z"></path></svg>