<svg height='100px' width='100px'  fill="#000000" xmlns="http://www.w3.org/2000/svg" xmlns:xlink="http://www.w3.org/1999/xlink" version="1.1" x="0px" y="0px" viewBox="40 10 430 490" enable-background="new 40 10 430 490" xml:space="preserve"><g><path d="M256,70c-52.383,0-95,42.617-95,95s42.617,95,95,95c52.383,0,95-42.617,95-95S308.383,70,256,70z M256,240   c-41.355,0-75-33.645-75-75s33.645-75,75-75c41.355,0,75,33.645,75,75S297.355,240,256,240z"></path><path d="M429.023,350.189L409.946,168.96c0.032-1.317,0.054-2.637,0.054-3.96c0-85.467-69.532-155-155-155   c-85.467,0-155,69.533-155,155c0,1.321,0.022,2.639,0.055,3.953L80.979,350.189C58.044,352.231,40,371.543,40,395   c0,24.813,20.187,45,45,45s45-20.187,45-45c0-19.253-12.156-35.713-29.194-42.127l13.028-123.775   c17.926,39.516,52.058,70.607,95.166,83.951V455c0,24.813,20.187,45,45,45c24.813,0,45-20.187,45-45V313.64   c30.208-8.955,57.395-27.213,77.193-52.009c8.072-10.11,14.749-20.984,19.982-32.441l13.019,123.683   C392.156,359.286,380,375.747,380,395c0,24.813,20.187,45,45,45s45-20.187,45-45C470,371.543,451.957,352.232,429.023,350.189z    M110,395c0,13.785-11.215,25-25,25s-25-11.215-25-25s11.215-25,25-25S110,381.215,110,395z M279,455c0,13.785-11.215,25-25,25   s-25-11.215-25-25V317.823c0.414,0.07,0.829,0.131,1.244,0.197c0.323,0.052,0.647,0.104,0.971,0.154   c1.39,0.214,2.784,0.414,4.181,0.59c0.248,0.031,0.497,0.057,0.745,0.087c1.167,0.141,2.335,0.268,3.505,0.383   c0.425,0.042,0.849,0.085,1.274,0.123c1.293,0.116,2.587,0.219,3.883,0.303c0.486,0.032,0.972,0.055,1.458,0.082   c0.93,0.052,1.861,0.095,2.793,0.13c0.532,0.02,1.063,0.043,1.595,0.058c1.22,0.034,2.441,0.052,3.663,0.057   C254.541,319.99,254.77,320,255,320c0.39,0,0.779-0.014,1.168-0.017c0.717-0.005,1.434-0.017,2.151-0.032   c0.603-0.013,1.206-0.023,1.809-0.042c1.168-0.038,2.336-0.091,3.503-0.155c0.533-0.03,1.066-0.067,1.599-0.102   c0.862-0.056,1.724-0.12,2.585-0.19c0.475-0.039,0.949-0.076,1.424-0.119c1.27-0.116,2.539-0.246,3.806-0.393   c0.315-0.037,0.63-0.079,0.945-0.118c1.083-0.132,2.164-0.277,3.243-0.432c0.349-0.05,0.699-0.1,1.048-0.152   c0.239-0.036,0.48-0.067,0.719-0.104V455z M286.663,296.258c-1.765,0.424-3.544,0.799-5.327,1.151   c-2.252,0.444-4.514,0.844-6.788,1.173c-15.966,2.306-32.394,1.749-48.112-1.623c-1.662-0.357-3.318-0.734-4.962-1.154   c-0.004-0.001-0.008-0.001-0.012-0.002C161.722,280.533,120,226.747,120,165c0-74.439,60.561-135,135-135s135,60.561,135,135   C390,227.662,347.507,281.637,286.663,296.258z M425,420c-13.785,0-25-11.215-25-25s11.215-25,25-25s25,11.215,25,25   S438.785,420,425,420z"></path></g></svg>