<svg height='100px' width='100px'  fill="#000000" xmlns="http://www.w3.org/2000/svg" xmlns:xlink="http://www.w3.org/1999/xlink" version="1.1" x="0px" y="0px" viewBox="0 0 90 90" enable-background="new 0 0 90 90" xml:space="preserve"><g><path d="M86,69.1L72.2,36.7c-0.2-0.5-0.6-1-1-1.4L62,26.7c-0.8-0.8-1.8-1.1-2.9-1.1c-0.9,0-1.7,0.3-2.5,0.8l-4.9,3.5   c0.1-0.7,0.1-1.4,0.1-2.1c0-13.4-8.7-14.3-12.8-14.4v0c0,0-0.1,0-0.1,0c0,0-0.1,0-0.1,0v0c-4.1,0-12.8,1-12.8,14.4   c0,0.6,0,1.3,0.1,1.9l-4.8,3.1c-0.7,0.4-1.2,1-1.5,1.8L4,68.7c-0.8,1.8-0.3,3.8,1.2,5.1c0.8,0.6,1.7,1,2.7,1c0.9,0,1.8-0.3,2.5-0.8   l17.9-13.2L40.2,75c0.8,0.9,1.8,1.5,3,1.5c0.1,0,0.2,0,0.2,0c1.1,0,2.1-0.4,2.9-1.2l16.3-15.8L79.4,74c0.8,0.7,1.8,1,2.8,1   c0.9,0,1.7-0.3,2.5-0.8C86.2,73,86.8,70.9,86,69.1z M32.5,17.8c2.1-1.5,4.7-1.7,6.4-1.7l0,0l0,0l0,0l0,0h0l0,0   c4.7,0.1,10.2,1.4,10.2,11.7c0,1.4-0.2,2.8-0.5,4.3c-0.2,1.1-0.5,2.2-0.9,3.2c-0.2,0.7-0.5,1.4-0.8,2.1c-0.2,0.4-0.4,0.9-0.5,1.3   c-0.2,0.6-0.5,1.1-0.8,1.6c-2.2,4.4-4.9,8.1-6.8,10.5c-1.6-1.9-3.8-4.9-5.7-8.3c-0.2-0.4-0.5-0.9-0.7-1.4c-1.4-2.6-2.5-5.5-3.2-8.4   c-0.2-0.7-0.3-1.5-0.4-2.3c-0.1-0.8-0.2-1.6-0.2-2.4c0-0.1,0-0.2,0-0.3C28.8,22.9,30,19.6,32.5,17.8z M7.9,70.5l15.9-34.1l3.3-2.1   c1,3.8,2.7,7.4,4.6,10.5L28.8,55L7.9,70.5z M43.2,72L29.7,55.8l2.6-9.7c2.9,4.6,5.9,7.9,6.6,8.6l0.1,0.1l0.1-0.1   c0.7-0.7,3.4-3.7,6.2-8.1L43.2,72z M44.3,71.6l2.3-27c1.5-2.6,2.9-5.5,3.9-8.5l8.3-6l3.5,24L44.3,71.6z M63.5,54.6l-3.6-24.1   l8.4,7.8l13.8,32.4L63.5,54.6z"></path><path d="M39.1,32.8c3.8,0,6.9-3.1,6.9-6.9c0-3.8-3.1-6.9-6.9-6.9c-3.8,0-6.9,3.1-6.9,6.9C32.2,29.7,35.3,32.8,39.1,32.8z    M39.1,21.6c2.4,0,4.3,1.9,4.3,4.3s-1.9,4.3-4.3,4.3c-2.4,0-4.3-1.9-4.3-4.3S36.7,21.6,39.1,21.6z"></path></g></svg>