<svg height='100px' width='100px'  fill="#000000" xmlns="http://www.w3.org/2000/svg" xmlns:xlink="http://www.w3.org/1999/xlink" version="1.1" x="0px" y="0px" viewBox="0 0 100 100" style="enable-background:new 0 0 100 100;" xml:space="preserve"><path d="M39.0249023,22.8045044v-5.2566528c0-1.6347656-1.3251953-2.9648438-2.9541016-2.9648438h-7.1503906v-3.5834961  c0-0.5522461-0.4477539-1-1-1s-1,0.4477539-1,1v3.5834961h-7.1508789c-1.628418,0-2.9536133,1.3300781-2.9536133,2.9648438  v5.2566528C12.8599854,24.1383057,10,27.8757935,10,32.2758789v25.9301758c0,5.0166626,3.7167969,9.170166,8.5390625,9.8809814  v5.8807373c0,0.3413086,0.1738281,0.6586914,0.4614258,0.8427734c0.2090454,0.1331787,2.1311646,1.2470703,7.9199219,1.3646851  v3.0151978c-1.0699463,0.1992188-2.0553589,0.7111816-2.8408203,1.5014648c-2.1137695,2.1254883-2.1137695,5.5834961,0,7.7089844  c1.0253906,1.03125,2.3896484,1.5996094,3.8408203,1.5996094c1.4506836,0,2.8149414-0.5683594,3.840332-1.5996094  c2.1137695-2.125,2.1137695-5.5834961,0-7.7089844c-0.7854004-0.7902222-1.770752-1.3021851-2.840332-1.5014038v-3.0152588  c5.7884521-0.1176147,7.7108765-1.2315063,7.9199219-1.3646851c0.2875977-0.1835938,0.4614258-0.5014648,0.4614258-0.8427734  v-5.8807373c4.8222656-0.7108154,8.5390625-4.8643188,8.5390625-9.8809814V32.2758789  C45.8408203,27.8757935,42.980835,24.1383057,39.0249023,22.8045044z M18.815918,17.5478516  c0-0.5322266,0.4277344-0.9648438,0.9536133-0.9648438h16.3012695c0.5258789,0,0.9541016,0.4326172,0.9541016,0.9648438v4.8046875  c-0.3890991-0.0462036-0.7827759-0.0766602-1.184082-0.0766602H20c-0.4013062,0-0.7949829,0.0304565-1.184082,0.0766602V17.5478516z   M20,24.2758789h15.8408203c4.326416,0,7.8531494,3.4545898,7.9873047,7.7490234H12.0126953  C12.1468506,27.7304688,15.673584,24.2758789,20,24.2758789z M12,56.4575195v-4.5298462  c3.4067993-0.3224487,6.081543-3.1970825,6.081543-6.6864624c0-3.4898071-2.6747437-6.364502-6.081543-6.6869507v-4.5293579  h31.8408203v4.5367432c-3.367981,0.3598633-6.0004883,3.2172852-6.0004883,6.6795654  c0,3.461853,2.6325073,6.3192139,6.0004883,6.6790771v4.5372314H12z M12,40.5864868  c2.298584,0.3150024,4.081543,2.2710571,4.081543,4.6547241S14.298584,49.5806274,12,49.8955078V40.5864868z M43.8408203,49.8873291  c-2.2597656-0.3491211-4.0004883-2.2900391-4.0004883-4.6461182s1.7407227-4.2973633,4.0004883-4.6466064V49.8873291z   M30.3427734,86.9907227c-1.2958984,1.3017578-3.5512695,1.3007812-4.8452148,0c-1.340332-1.3476562-1.340332-3.5410156,0-4.8886719  c0.6474609-0.6513672,1.5078125-1.0097656,2.4228516-1.0097656c0.9145508,0,1.7749023,0.3583984,2.4223633,1.0097656  C31.6831055,83.449707,31.6831055,85.6430664,30.3427734,86.9907227z M27.9204102,74.1870117  c-4.3349609,0-6.5166016-0.5639648-7.3813477-0.8701172v-5.1108398h14.7626953v5.1088867  C34.425293,73.6259766,32.2436523,74.1870117,27.9204102,74.1870117z M35.8408203,66.2060547H20  c-4.3262329,0-7.8528442-3.4543457-7.9872437-7.7485352H43.828064  C43.6936646,62.751709,40.1670532,66.2060547,35.8408203,66.2060547z"></path><path d="M27.8100586,38.5219727c-3.7045898,0-6.71875,3.0141602-6.71875,6.7192383c0,3.7045898,3.0141602,6.71875,6.71875,6.71875  c3.7050781,0,6.7192383-3.0141602,6.7192383-6.71875C34.5292969,41.5361328,31.5151367,38.5219727,27.8100586,38.5219727z   M27.8100586,49.9599609c-2.6020508,0-4.71875-2.1166992-4.71875-4.71875s2.1166992-4.7192383,4.71875-4.7192383  s4.7192383,2.1171875,4.7192383,4.7192383S30.4121094,49.9599609,27.8100586,49.9599609z"></path><path d="M83.184082,22.8045044v-5.2566528c0-1.6347656-1.3251953-2.9648438-2.9536133-2.9648438h-7.1508789v-3.5834961  c0-0.5522461-0.4477539-1-1-1s-1,0.4477539-1,1v3.5834961h-7.1503906c-1.6289062,0-2.9541016,1.3300781-2.9541016,2.9648438  v5.2566528c-3.9559326,1.3338013-6.815918,5.0712891-6.815918,9.4713745v25.9301758  c0,5.0166626,3.7167969,9.170166,8.5390625,9.8809814v5.8807373c0,0.3413086,0.1738281,0.6591797,0.4614258,0.8427734  c0.2090454,0.1331787,2.1314697,1.2470703,7.9199219,1.3646851v3.0152588  c-1.0695801,0.1992188-2.0549316,0.7111816-2.840332,1.5014038c-2.1142578,2.1254883-2.1142578,5.5834961,0,7.7089844  c1.0253906,1.03125,2.3896484,1.5996094,3.840332,1.5996094c1.4511719,0,2.8154297-0.5683594,3.8408203-1.5996094  c2.1137695-2.1254883,2.1137695-5.5834961,0-7.7089844c-0.7854614-0.7902832-1.770874-1.3022461-2.8408203-1.5014648v-3.0151978  c5.7887573-0.1176147,7.7108765-1.2315063,7.9199219-1.3646851c0.2875977-0.184082,0.4614258-0.5014648,0.4614258-0.8427734  v-5.8807373C86.2832031,67.3762207,90,63.2227173,90,58.2060547V32.2758789  C90,27.8757935,87.1400146,24.1383057,83.184082,22.8045044z M62.9750977,17.5478516  c0-0.5322266,0.4282227-0.9648438,0.9541016-0.9648438h16.3012695c0.5258789,0,0.9536133,0.4326172,0.9536133,0.9648438v4.8046875  C80.7949829,22.3063354,80.4013062,22.2758789,80,22.2758789H64.1591797c-0.4013062,0-0.7949829,0.0304565-1.184082,0.0766602  V17.5478516z M64.1591797,24.2758789H80c4.326416,0,7.8531494,3.4545898,7.9873047,7.7490234H56.171875  C56.3060303,27.7304688,59.8327637,24.2758789,64.1591797,24.2758789z M56.1591797,56.4575195v-4.5298462  c3.4067993-0.3224487,6.081543-3.1970825,6.081543-6.6864624c0-3.4898071-2.6747437-6.364502-6.081543-6.6869507v-4.5293579H88  v4.5368042c-3.3681641,0.3600464-6.0004883,3.2173462-6.0004883,6.6795044c0,3.4616699,2.6323242,6.3189697,6.0004883,6.6790161  v4.5372925H56.1591797z M56.1591797,40.5864868c2.298584,0.3150024,4.081543,2.2710571,4.081543,4.6547241  s-1.782959,4.3394165-4.081543,4.6542969V40.5864868z M88,49.8873291c-2.2596436-0.3493652-4.0004883-2.2902222-4.0004883-4.6461182  S85.7403564,40.9440918,88,40.5946655V49.8873291z M74.5024414,86.9907227c-1.2944336,1.3012695-3.5498047,1.3022461-4.8452148,0  c-1.340332-1.3476562-1.340332-3.5410156,0-4.8886719c0.6474609-0.6513672,1.5078125-1.0097656,2.4223633-1.0097656  c0.9150391,0,1.7753906,0.3583984,2.4228516,1.0097656C75.8427734,83.449707,75.8427734,85.6430664,74.5024414,86.9907227z   M72.0795898,74.1870117c-4.3344727,0-6.5166016-0.5639648-7.3813477-0.8701172v-5.1108398h14.7626953v5.1088867  C78.5844727,73.6259766,76.402832,74.1870117,72.0795898,74.1870117z M80,66.2060547H64.1591797  c-4.3262329,0-7.8528442-3.4543457-7.9872437-7.7485352h31.8153076C87.8528442,62.751709,84.3262329,66.2060547,80,66.2060547z"></path><path d="M71.9697266,38.5219727c-3.7050781,0-6.7192383,3.0141602-6.7192383,6.7192383  c0,3.7045898,3.0141602,6.71875,6.7192383,6.71875c3.7045898,0,6.71875-3.0141602,6.71875-6.71875  C78.6884766,41.5361328,75.6743164,38.5219727,71.9697266,38.5219727z M71.9697266,49.9599609  c-2.6020508,0-4.7192383-2.1166992-4.7192383-4.71875s2.1171875-4.7192383,4.7192383-4.7192383s4.71875,2.1171875,4.71875,4.7192383  S74.5717773,49.9599609,71.9697266,49.9599609z"></path></svg>