<svg height='100px' width='100px'  fill="#000000" xmlns="http://www.w3.org/2000/svg" data-name="1-lion head" viewBox="0 0 48 48" x="0px" y="0px"><title>1-lion head</title><path d="M44.85724,25.35419A9.09259,9.09259,0,0,1,47,25a1,1,0,0,0,.86816-1.49609l-2.8374-4.96534,1.72656.43164a1.00032,1.00032,0,0,0,1.21289-1.21289c-.84008-3.36047-3.539-6.001-4.76049-7.05694.8352-1.06128,1.18988-2.577,1.65649-4.92938l.11426-.57471a1.00109,1.00109,0,0,0-1.80762-.7583c-.01739.02533-1.77362,2.46533-6.73126,3.45843a5.8865,5.8865,0,0,0-3.26141-1.662L33.707,5.707a.99972.99972,0,0,0-.25976-1.60156,15.76126,15.76126,0,0,0-5.51136-1.07855C27.53247,1.38025,25.13324.35516,24.34961.063a1.00167,1.00167,0,0,0-.69922,0c-.78363.29217-3.18286,1.31726-3.5863,2.96393a15.76126,15.76126,0,0,0-5.51136,1.07855A.99972.99972,0,0,0,14.293,5.707l.52685.52735a5.887,5.887,0,0,0-3.26147,1.6621c-4.93408-.98858-6.697-3.41015-6.7312-3.458a.99979.99979,0,0,0-1.80762.75781l.11426.57471c.46661,2.35235.82129,3.8681,1.65649,4.92938C3.56879,11.75629.86987,14.39685.02979,17.75732a1.00032,1.00032,0,0,0,1.21289,1.21289l1.72656-.43164L.13184,23.50391A1.00128,1.00128,0,0,0,.99756,25a9.09172,9.09172,0,0,1,2.1452.35419A7.09553,7.09553,0,0,0,0,31c0,5.83154,2.71045,8,10,8a4.00256,4.00256,0,0,1,1.00061.99707L11,40v4a1,1,0,0,0,2,0V41.97028a12.39681,12.39681,0,0,0,2,1.22027V45a1,1,0,0,0,2,0v-.99048a18.6958,18.6958,0,0,0,2,.50842V46a1,1,0,0,0,2,0V44.82526q.94574.10455,2,.13983V47a1,1,0,0,0,2,0V44.96509q1.05387-.036,2-.13983V46a1,1,0,0,0,2,0V44.51794a18.6958,18.6958,0,0,0,2-.50842V45a1,1,0,0,0,2,0V43.19055a12.39681,12.39681,0,0,0,2-1.22027V44a1,1,0,0,0,2,0V40l-.00061-.00293A4.00256,4.00256,0,0,1,38,39c7.28955,0,10-2.16846,10-8A7.09544,7.09544,0,0,0,44.85724,25.35419ZM38.18066,18.7085A3.806,3.806,0,0,1,35,20c-3.2113,0-3.84357-1.88971-3.968-2.68121a13.26025,13.26025,0,0,1,.99713-1.031,2.992,2.992,0,1,0,4.52338-2.8421,11.07379,11.07379,0,0,1,1.6438-.46527q.48916-.09788.92389-.19953C39.30176,14.0141,39.561,16.99231,38.18066,18.7085ZM36,16a1,1,0,1,1-1-1A1.0013,1.0013,0,0,1,36,16Zm1.80371-4.98047a14.57023,14.57023,0,0,0-6.26514,3.03906,5.79334,5.79334,0,0,1,4.626-4.07226,16.48571,16.48571,0,0,0,6.23584-2.26221C41.8042,10.00439,41.061,10.36816,37.80371,11.01953ZM24.001,2.07812c1.0664.46045,1.95849,1.12842,1.999,1.42334-.01855.38819-.92627,1.38819-2.00049,2.24708C22.92334,4.88965,22.01465,3.8877,22,3.50342,22.03662,3.21143,22.93115,2.542,24.001,2.07812ZM24,15.11816l1.55273.77637a.97032.97032,0,0,0,.74268.05707L26.2793,16H21.7207l-.016-.048a.99277.99277,0,0,0,.74256-.0575Zm2.80377-.6914a.97489.97489,0,0,0-.3565-.32129L25,13.38184V13h1a1,1,0,0,0,0-2H25V10a1,1,0,0,0-2,0v1H22a1,1,0,0,0,0,2h1v.38184l-1.44727.72363a.97489.97489,0,0,0-.3565.32129L20.169,11.34521,24,8.28076l3.83105,3.06445ZM11.83545,9.98633a5.7964,5.7964,0,0,1,4.6123,4.061,14.57158,14.57158,0,0,0-6.25146-3.02783C6.939,10.36816,6.1958,10.00439,5.59961,7.72412A16.48571,16.48571,0,0,0,11.83545,9.98633ZM8.87982,12.78094q.43562.10209.92389.19953a10.97894,10.97894,0,0,1,1.642.46625,2.99193,2.99193,0,1,0,4.52466,2.84619,13.428,13.428,0,0,1,.99927,1.02966C16.8454,18.10077,16.21289,20,13,20a3.806,3.806,0,0,1-3.18066-1.2915C8.439,16.99231,8.69824,14.0141,8.87982,12.78094ZM14,16a1,1,0,1,1-1-1A1.0013,1.0013,0,0,1,14,16ZM2.62256,23.17578l3.2456-5.67969a1.00006,1.00006,0,0,0-1.11084-1.4663l-2.16015.54A15.341,15.341,0,0,1,6.405,11.95612q.25379.12441.54126.23858c-.21851,1.27887-.69391,5.26319,1.31055,7.76184A5.74736,5.74736,0,0,0,13,22c4.74609,0,6-3.27051,6-5,0-2.36908-1.08984-6.76068-4.96155-8.4389A8.70924,8.70924,0,0,1,17.00146,8,1.00026,1.00026,0,0,0,17.707,6.293l-.86084-.86084a21.05527,21.05527,0,0,1,3.685-.42291,9.55407,9.55407,0,0,0,1.85309,2.003l-4.00879,3.207a1.0005,1.0005,0,0,0-.32422,1.09717l2,6A1,1,0,0,0,21,18h6a1,1,0,0,0,.94873-.68359l2-6a1.0005,1.0005,0,0,0-.32422-1.09717l-4.00879-3.207a9.55407,9.55407,0,0,0,1.85309-2.003,21.05527,21.05527,0,0,1,3.685.42291L30.293,6.293A.99991.99991,0,0,0,31,8a8.61969,8.61969,0,0,1,2.96484.55945C30.09039,10.23651,29,14.63019,29,17c0,1.72949,1.25391,5,6,5a5.74736,5.74736,0,0,0,4.74316-2.04346c2.00446-2.49865,1.52906-6.483,1.31055-7.76184q.28738-.11379.54126-.23858a15.341,15.341,0,0,1,3.80786,4.6137l-2.16015-.54a1.00006,1.00006,0,0,0-1.11084,1.4663l3.2456,5.67969a10.88028,10.88028,0,0,0-2.65655.85449,15.38229,15.38229,0,0,0-2.446-.9917A.99973.99973,0,0,0,39.08105,24.394c.48536,1.13282,1.24463,3.84229.49122,4.98438C39.47119,29.53223,39.1626,30,38,30c-1.37354,0-1.83594-.59717-2.752-1.94775a9.42024,9.42024,0,0,0-4.92163-4.11817A.99118.99118,0,0,0,31,23a3,3,0,0,0-6,0c0,.00848.00464.0155.00482.02393C24.67688,23.01251,24.351,23,24,23s-.67688.01251-1.00482.02393C22.99536,23.0155,23,23.00848,23,23a3,3,0,0,0-6,0,.99118.99118,0,0,0,.67358.93408A9.42024,9.42024,0,0,0,12.752,28.05225C11.83594,29.40283,11.37354,30,10,30c-1.16162,0-1.47021-.46729-1.57178-.62061-.72363-1.09472-.08252-3.63964.49121-4.98632a1.00033,1.00033,0,0,0-1.19433-1.3545,15.38229,15.38229,0,0,0-2.446.9917A10.88028,10.88028,0,0,0,2.62256,23.17578Zm26.58917.41089a16.50364,16.50364,0,0,0-2.24591-.41742A.94757.94757,0,0,0,27,23a1,1,0,0,1,2,0A.97671.97671,0,0,0,29.21173,23.58667Zm-8.17755-.41742a16.50364,16.50364,0,0,0-2.24591.41742A.97671.97671,0,0,0,19,23a1,1,0,0,1,2,0A.94757.94757,0,0,0,21.03418,23.16925ZM24,43c-7.46375,0-10.44385-2.81512-11.51678-4.35406A6.45079,6.45079,0,0,0,15.535,36.5354C16.41138,38.24939,18.64966,41,24,41s7.58862-2.75061,8.465-4.4646a6.45267,6.45267,0,0,0,3.04657,2.10852C34.438,40.17444,31.45251,43,24,43Zm-5.56274-9.65222a6.06245,6.06245,0,0,0,11.12548,0,7.46276,7.46276,0,0,1,1.47809,1.4032c-.00445.01642-.01617.02862-.01983.04541C30.98389,34.96777,30.04053,39,24,39c-6.03027,0-6.98047-4.019-7.021-4.20312-.00354-.01709-.01532-.02948-.01965-.04615A7.46061,7.46061,0,0,1,18.43726,33.34778Zm1.80828-.86829A12.57719,12.57719,0,0,1,24,32a12.57749,12.57749,0,0,1,3.75458.47955,4.05662,4.05662,0,0,1-7.509-.00006ZM38,37c-2.69531,0-3.54541-1.1084-4.72119-2.64258C31.79053,32.416,29.938,30,24,30s-7.79053,2.416-9.27881,4.35742C13.54541,35.8916,12.69531,37,10,37c-6.84473,0-8-1.85107-8-6,0-2.67676,2.54883-4.39453,4.398-5.28857-.35107,1.47851-.53369,3.41259.35986,4.76757A3.60807,3.60807,0,0,0,10,32c2.4917,0,3.46533-1.43652,4.40723-2.8252C15.73389,27.21777,17.23779,25,24,25s8.26611,2.21777,9.59277,4.1748C34.53467,30.56348,35.5083,32,38,32a3.60807,3.60807,0,0,0,3.24219-1.521c.89453-1.35644.71045-3.29345.35888-4.77246C43.4502,26.59619,46,28.311,46,31,46,35.14893,44.84473,37,38,37Z"></path></svg>