<svg height='100px' width='100px'  fill="#000000" xmlns="http://www.w3.org/2000/svg" xmlns:xlink="http://www.w3.org/1999/xlink" version="1.1" x="0px" y="0px" viewBox="0 0 100 100" style="enable-background:new 0 0 100 100;" xml:space="preserve"><g><path d="M90.9,52.5c0-0.1,0-0.1,0-0.2c0-4.7-3.8-8.4-8.4-8.4c-0.5,0-1,0-1.5,0.1c-1.1-3.5-4.3-6-8.1-6c-1.3,0-2.6,0.3-3.7,0.9   c-1.2-1.2-2.7-2.1-4.4-2.4c0-0.1,0-0.1,0-0.2c0-4.7-3.8-8.4-8.4-8.4c-0.5,0-1,0-1.5,0.1c-1.1-3.5-4.3-6-8.1-6   c-1.3,0-2.6,0.3-3.7,0.9c-1.6-1.6-3.8-2.6-6.1-2.6c-2.3,0-4.5,1-6.1,2.6c-1.2-0.6-2.4-0.9-3.7-0.9c-3.8,0-7,2.5-8.1,6   c-0.5-0.1-1-0.1-1.5-0.1c-4.7,0-8.4,3.8-8.4,8.4c0,0.1,0,0.1,0,0.2c-3.9,0.7-6.9,4.2-6.9,8.3c0,1.9,0.7,3.8,1.8,5.2   c-1.2,1.5-1.8,3.3-1.8,5.2c0,4.7,3.8,8.4,8.4,8.4c4.5,0,8.1-0.5,11.8-1c1.9-0.3,3.8-0.5,6-0.7c0.2,1.5,0.8,2.9,1.8,4.1   c-1.2,1.5-1.8,3.3-1.8,5.2c0,4.7,3.8,8.4,8.4,8.4c4.5,0,8.1-0.5,11.8-1c4.1-0.6,8.4-1.2,14.5-1.2c6.1,0,10.3,0.6,14.5,1.2   c3.7,0.5,7.3,1,11.8,1c4.7,0,8.4-3.8,8.4-8.4c0-1.9-0.7-3.8-1.8-5.2c1.2-1.5,1.8-3.3,1.8-5.2C97.8,56.7,94.8,53.2,90.9,52.5z    M28.6,58.9c-2.3,0.2-4.4,0.5-6.5,0.8c-3.6,0.5-7.1,1-11.4,1c-3,0-5.4-2.4-5.4-5.4c0-1.6,0.7-3.1,1.9-4.1c0.3-0.3,0.5-0.7,0.5-1.1   c0-0.4-0.2-0.9-0.5-1.1c-1.2-1-1.9-2.5-1.9-4.1c0-3,2.4-5.4,5.4-5.4c0,0,0,0,0,0c0.1,0,0.1,0,0.2,0c0.5,0,0.9-0.2,1.2-0.6   c0.3-0.4,0.4-0.8,0.3-1.3c-0.1-0.4-0.1-0.8-0.1-1.2c0-3,2.4-5.4,5.4-5.4c0.7,0,1.4,0.1,2.1,0.4c0.4,0.2,0.9,0.1,1.4-0.1   c0.4-0.3,0.7-0.7,0.7-1.2c0.2-2.8,2.6-5,5.4-5c1.2,0,2.3,0.4,3.2,1.1c0.3,0.2,0.7,0.3,1.1,0.3c0.4-0.1,0.8-0.3,1-0.6   c1-1.5,2.7-2.4,4.5-2.4c1.8,0,3.5,0.9,4.5,2.4c0.2,0.3,0.6,0.6,1,0.6c0.4,0.1,0.8,0,1.1-0.3c0.9-0.7,2-1.1,3.2-1.1   c2.8,0,5.2,2.2,5.4,5c0,0.5,0.3,0.9,0.7,1.2c0.4,0.3,0.9,0.3,1.4,0.1c0.7-0.3,1.3-0.4,2.1-0.4c3,0,5.4,2.4,5.4,5.4c0,0,0,0.1,0,0.1   c-1.8,0.3-3.5,1.2-4.7,2.5c-0.1-0.1-0.3-0.1-0.4-0.2c-4.9-5.5-11.9-8.8-19.7-8.8c-12.3,0-22.8,8.3-25.6,20.2   c-0.2,0.8,0.3,1.6,1.1,1.8c0.8,0.2,1.6-0.3,1.8-1.1c2.5-10.6,11.8-17.9,22.7-17.9c5.6,0,10.7,1.9,14.8,5.2   c-3.1,0.6-5.6,2.9-6.5,5.9c-0.5-0.1-1-0.1-1.5-0.1c-4.7,0-8.4,3.8-8.4,8.4c0,0.1,0,0.1,0,0.2C32,53.1,29.3,55.7,28.6,58.9z    M92.9,67.2c1.2,1,1.9,2.5,1.9,4.1c0,3-2.4,5.4-5.4,5.4c-4.3,0-7.8-0.5-11.4-1c-4.2-0.6-8.6-1.2-14.9-1.2c-6.3,0-10.7,0.6-14.9,1.2   c-3.6,0.5-7.1,1-11.4,1c-3,0-5.4-2.4-5.4-5.4c0-1.6,0.7-3.1,1.9-4.1c0.3-0.3,0.5-0.7,0.5-1.1c0-0.4-0.2-0.9-0.5-1.1   c-1.2-1-1.9-2.5-1.9-4.1c0-3,2.4-5.4,5.4-5.4c0,0,0,0,0,0c0.1,0,0.1,0,0.2,0c0.5,0,0.9-0.2,1.2-0.6c0.3-0.4,0.4-0.8,0.3-1.3   c-0.1-0.4-0.1-0.8-0.1-1.2c0-3,2.4-5.4,5.4-5.4c0.7,0,1.4,0.1,2.1,0.4c0.4,0.2,0.9,0.1,1.4-0.1c0.4-0.3,0.7-0.7,0.7-1.2   c0.2-2.8,2.6-5,5.4-5c1.2,0,2.3,0.4,3.2,1.1c0.3,0.2,0.7,0.3,1.1,0.3c0.4-0.1,0.8-0.3,1-0.6c1-1.5,2.7-2.4,4.5-2.4   c1.8,0,3.5,0.9,4.5,2.4c0.2,0.3,0.6,0.6,1,0.6c0.4,0.1,0.8,0,1.1-0.3c0.9-0.7,2-1.1,3.2-1.1c2.8,0,5.2,2.2,5.4,5   c0,0.5,0.3,0.9,0.7,1.2c0.4,0.3,0.9,0.3,1.4,0.1c0.7-0.3,1.3-0.4,2.1-0.4c3,0,5.4,2.4,5.4,5.4c0,0.4,0,0.8-0.1,1.2   c-0.1,0.5,0,0.9,0.3,1.3s0.7,0.6,1.2,0.6c0.1,0,0.1,0,0.1,0c3,0,5.4,2.4,5.4,5.4c0,1.6-0.7,3.1-1.9,4.1c-0.3,0.3-0.5,0.7-0.5,1.1   C92.4,66.5,92.6,66.9,92.9,67.2z"></path><path d="M63.1,46c-12.3,0-22.8,8.3-25.6,20.2c-0.2,0.8,0.3,1.6,1.1,1.8c0.8,0.2,1.6-0.3,1.8-1.1C42.9,56.4,52.2,49,63.1,49   c10.9,0,20.2,7.4,22.7,17.9c0.2,0.7,0.8,1.2,1.5,1.2c0.1,0,0.2,0,0.3,0c0.8-0.2,1.3-1,1.1-1.8C85.9,54.3,75.3,46,63.1,46z"></path></g></svg>