<svg height='100px' width='100px'  fill="#000000" xmlns="http://www.w3.org/2000/svg" xmlns:xlink="http://www.w3.org/1999/xlink" version="1.1" x="0px" y="0px" viewBox="0 0 24 24" style="enable-background:new 0 0 24 24;" xml:space="preserve"><g><path d="M12,19c-3.032,0-5.5-2.468-5.5-5.5S8.968,8,12,8s5.5,2.468,5.5,5.5S15.032,19,12,19z M12,9c-2.481,0-4.5,2.019-4.5,4.5   S9.519,18,12,18s4.5-2.019,4.5-4.5S14.481,9,12,9z"></path><path d="M4,24H2c-0.141,0-0.273-0.059-0.368-0.162s-0.143-0.241-0.13-0.381l2-23C3.524,0.198,3.74,0,4,0h2   c0.141,0,0.273,0.059,0.368,0.162s0.143,0.241,0.13,0.381l-2,23C4.476,23.802,4.26,24,4,24z M2.545,23h0.997L5.455,1H4.458   L2.545,23z"></path><g><path d="M3.652,5H1C0.724,5,0.5,4.776,0.5,4.5v-2C0.5,2.224,0.724,2,1,2h2.826c0.141,0,0.273,0.059,0.368,0.162    s0.143,0.241,0.13,0.381l-0.174,2C4.128,4.802,3.912,5,3.652,5z M1.5,4h1.694l0.087-1H1.5V4z"></path><path d="M18.348,5H5.653C5.512,5,5.38,4.941,5.285,4.838s-0.143-0.241-0.13-0.381l0.174-2C5.351,2.198,5.567,2,5.827,2h12.348    c0.26,0,0.476,0.198,0.498,0.457l0.174,2c0.013,0.14-0.035,0.277-0.13,0.381S18.488,5,18.348,5z M6.197,4h11.605l-0.087-1H6.283    L6.197,4z"></path><path d="M23,5h-2.652c-0.26,0-0.476-0.198-0.498-0.457l-0.174-2c-0.013-0.14,0.035-0.277,0.13-0.381S20.034,2,20.174,2H23    c0.276,0,0.5,0.224,0.5,0.5v2C23.5,4.776,23.276,5,23,5z M20.806,4H22.5V3h-1.781L20.806,4z"></path></g><path d="M22,24h-2c-0.26,0-0.476-0.198-0.498-0.457l-2-23c-0.013-0.14,0.035-0.277,0.13-0.381S17.859,0,18,0h2   c0.26,0,0.476,0.198,0.498,0.457l2,23c0.013,0.14-0.035,0.277-0.13,0.381S22.141,24,22,24z M20.458,23h0.997L19.542,1h-0.997   L20.458,23z"></path><path d="M9.5,9.5c-0.191,0-0.374-0.11-0.457-0.297l-2-4.5c-0.112-0.252,0.002-0.548,0.254-0.66c0.252-0.111,0.548,0.001,0.66,0.254   l2,4.5c0.112,0.252-0.002,0.548-0.254,0.66C9.637,9.486,9.568,9.5,9.5,9.5z"></path><path d="M14.5,9.5c-0.068,0-0.137-0.014-0.203-0.043c-0.252-0.112-0.366-0.408-0.254-0.66l2-4.5   c0.112-0.253,0.408-0.365,0.66-0.254c0.252,0.112,0.366,0.408,0.254,0.66l-2,4.5C14.874,9.39,14.691,9.5,14.5,9.5z"></path><path d="M12.951,15.749c-0.103,0-0.204-0.031-0.291-0.093c-0.155-0.112-0.234-0.303-0.202-0.491   c0.058-0.337-0.034-0.654-0.251-0.872c-0.379-0.377-1.035-0.377-1.414,0c-0.062,0.062-0.111,0.154-0.164,0.26   c-0.087,0.171-0.257,0.275-0.458,0.273c-0.192-0.005-0.364-0.119-0.444-0.294C9.577,14.198,9.5,13.851,9.5,13.5   c0-1.379,1.121-2.5,2.5-2.5s2.5,1.121,2.5,2.5c0,0.909-0.502,1.748-1.31,2.188C13.115,15.729,13.033,15.749,12.951,15.749z    M11.5,13c0.534,0,1.036,0.208,1.414,0.586c0.178,0.178,0.315,0.385,0.41,0.61c0.113-0.211,0.176-0.449,0.176-0.696   c0-0.827-0.673-1.5-1.5-1.5c-0.744,0-1.363,0.544-1.48,1.256C10.815,13.089,11.151,13,11.5,13z"></path><path d="M11.5,17c-0.534,0-1.036-0.208-1.414-0.586c-0.779-0.779-0.779-2.049,0-2.828c0.756-0.756,2.072-0.756,2.828,0   c0.779,0.779,0.779,2.049,0,2.828C12.536,16.792,12.034,17,11.5,17z M11.5,14c-0.267,0-0.518,0.104-0.707,0.293   c-0.39,0.39-0.39,1.024,0,1.414c0.379,0.377,1.035,0.377,1.414,0c0.39-0.39,0.39-1.024,0-1.414C12.018,14.104,11.767,14,11.5,14z"></path><path d="M16,20c-0.128,0-0.256-0.049-0.354-0.146l-3.439-3.439c-0.195-0.195-0.195-0.512,0-0.707s0.512-0.195,0.707,0l3.439,3.439   c0.195,0.195,0.195,0.512,0,0.707C16.256,19.951,16.128,20,16,20z"></path></g></svg>