<svg height='100px' width='100px'  fill="#000000" xmlns="http://www.w3.org/2000/svg" xmlns:xlink="http://www.w3.org/1999/xlink" version="1.1" x="0px" y="0px" viewBox="0 0 512 512" style="enable-background:new 0 0 512 512;" xml:space="preserve"><path d="M465.7,134.3c-19.5-19.6-46-30.5-73.6-30.5H392c-14.2,0-28.2,2.9-41.2,8.5c0.5-2.7,0.7-5.5,0.7-8.3  c0-26.3-21.3-47.6-47.6-47.6c-12.6,0-24.7,5-33.7,13.9l-6.3,6.3V16h-16v60.7l-6.3-6.3c-18.6-18.6-48.7-18.6-67.3,0  c-11,11-16,26.8-13.2,42.1c-13-5.6-27-8.5-41.2-8.5h-0.1c-57.5,0-104.1,46.6-104.1,104.1c0,27.6,11,54.1,30.5,73.6l0.3,0.3  c30.1,30,75.4,38.7,114.4,22.1c-0.4,2.6-0.7,5.3-0.7,8c0,26.3,21.4,47.6,47.7,47.6c12.6,0,24.7-5,33.6-13.9l6.3-6.3V376h-8  c-4.4,0-8,3.6-8,8v46.9l-15.7,54.9l15.4,4.4L246,440h2v56h16v-56h2l14.3,50.2l15.4-4.4L280,430.9V384c0-4.4-3.6-8-8-8h-8v-36.7  l6.3,6.3c18.6,18.6,48.7,18.6,67.3,0c8.9-8.9,13.9-21,13.9-33.7c0-2.7-0.2-5.4-0.7-8.1c39.1,16.6,84.4,7.9,114.5-22.1l0.3-0.3  C506.3,240.9,506.3,175,465.7,134.3C465.7,134.3,465.7,134.3,465.7,134.3L465.7,134.3z M281.7,81.7c12.3-12.3,32.3-12.3,44.7,0  s12.3,32.3,0,44.7l0,0L312,140.7L267.3,96L281.7,81.7z M312.1,163.4l44.6,44.5l-44.7,44.7l-44.5-44.5L312.1,163.4z M256,107.3  l44.7,44.7L256,196.7l-44.6-44.6L256,107.3z M244.5,208.2l-44.6,44.6l-44.6-44.6l44.6-44.7L244.5,208.2z M185.7,81.7  c12.3-12.3,32.3-12.3,44.7,0L244.7,96l-44.6,44.7l-14.4-14.4C173.3,114,173.3,94,185.7,81.7C185.7,81.7,185.7,81.7,185.7,81.7  L185.7,81.7z M57.9,270.6l-0.3-0.3c-34.4-34.4-34.4-90.1,0-124.5c16.5-16.5,38.9-25.8,62.3-25.8h0.1c23.4,0,45.8,9.3,62.3,25.9  l6.4,6.4L144,196.9l-18.4-18.4c-16.4-16.4-42.9-16.4-59.3,0s-16.4,42.9,0,59.3c16.4,16.4,42.9,16.4,59.3,0l18.3-18.3l44.6,44.6  l-11.1,11.1C142.5,305.1,90.5,303.1,57.9,270.6z M132.7,208.2l-18.3,18.3c-10.1,10.1-26.5,10.1-36.7,0s-10.1-26.5,0-36.7  c10.1-10.1,26.5-10.1,36.7,0L132.7,208.2z M230.3,334.3c-12.3,12.3-32.3,12.4-44.7,0c-12.3-12.3-12.4-32.3,0-44.7c0,0,0,0,0,0  l14.4-14l44.5,44.5L230.3,334.3z M264,424h-16v-32h16V424z M255.8,308.7l-44.4-44.4l44.7-44.6l44.4,44.4L255.8,308.7z M326.3,334.3  c-12.3,12.3-32.3,12.3-44.7,0l-14.4-14.4l44.6-44.5l14.5,14.3C338.7,302,338.7,322,326.3,334.3C326.3,334.3,326.3,334.3,326.3,334.3  z M454.3,270.2l-0.3,0.3c-33,32.9-85.8,34.4-120.7,3.6l-10.1-10.1l44.7-44.7l18.4,18.4c16.4,16.4,42.9,16.4,59.3,0s16.4-42.9,0-59.3  s-42.9-16.4-59.3,0v0L368,196.6l-44.6-44.6l6.3-6.4c16.5-16.6,38.9-25.9,62.3-25.9h0.1c48.6,0,88.1,39.4,88.1,88.1  C480.2,231.3,470.9,253.7,454.3,270.2L454.3,270.2z M379.3,208l18.3-18.3c10.1-10.1,26.6-10.1,36.7,0c10.1,10.1,10.1,26.6,0,36.7  c-10.1,10.1-26.6,10.1-36.7,0L379.3,208z"></path></svg>