<svg height='100px' width='100px'  fill="#000000" xmlns="http://www.w3.org/2000/svg" xmlns:xlink="http://www.w3.org/1999/xlink" version="1.1" x="0px" y="0px" viewBox="0 0 512 512" style="enable-background:new 0 0 512 512;" xml:space="preserve"><g><g><g><g><path d="M197,117.187c-1.921,0-3.832-0.553-5.486-1.639c-2.817-1.848-4.514-4.991-4.514-8.361V51c0-5.523,4.477-10,10-10h120      c5.522,0,10,4.477,10,10v56.16c0,3.37-1.697,6.513-4.515,8.361c-2.815,1.849-6.374,2.155-9.467,0.813      c-17.702-7.683-36.524-11.578-55.943-11.578c-19.479,0-38.352,3.905-56.094,11.605C199.706,116.914,198.351,117.187,197,117.187      z M207,61v31.699c16.098-5.276,32.883-7.944,50.075-7.944c17.136,0,33.869,2.658,49.925,7.918V61H207z"></path></g><g><path d="M404.301,222.585c-1.41,0-2.821-0.298-4.139-0.896c-2.853-1.297-4.932-3.855-5.618-6.913      c-9.822-43.75-40.299-80.55-81.525-98.442l-0.384-0.161c-2.877-1.236-5.009-3.75-5.76-6.79c-0.751-3.04-0.034-6.257,1.937-8.691      C324.093,81.822,346.76,71,371,71c44.112,0,80,35.888,80,80c0,29.394-16.068,56.361-41.935,70.377      C407.582,222.181,405.942,222.585,404.301,222.585z M333.56,104.113c36.405,19.744,63.994,52.956,76.679,92.287      C423.275,185.131,431,168.648,431,151c0-33.084-26.916-60-60-60C357.208,91,344.094,95.673,333.56,104.113z"></path></g><g><path d="M107.7,222.585c-1.643,0-3.282-0.404-4.765-1.208C77.068,207.361,61,180.394,61,151c0-44.112,35.888-80,80-80      c24.241,0,46.907,10.822,62.188,29.691c1.969,2.432,2.687,5.646,1.938,8.685c-0.749,3.039-2.876,5.552-5.75,6.792l-0.348,0.146      c-41.273,17.912-71.75,54.713-81.572,98.462c-0.687,3.058-2.767,5.616-5.619,6.913      C110.521,222.287,109.108,222.585,107.7,222.585z M141,91c-33.084,0-60,26.916-60,60c0,17.648,7.725,34.131,20.762,45.4      c12.686-39.334,40.274-72.547,76.678-92.288C167.906,95.674,154.792,91,141,91z"></path></g><g><path d="M308.736,501H206.108c-3.604,0-6.928-1.938-8.703-5.074c-19.205-33.935-36.079-65.846-50.154-94.85      c-2.411-4.969-0.338-10.951,4.63-13.363c4.969-2.41,10.951-0.337,13.363,4.631c13.19,27.18,28.89,56.98,46.704,88.656h90.913      c61.374-110.494,95.118-193.893,95.118-235.191c0-7.63-0.62-15.304-1.843-22.807c-0.242-1.488-0.143-2.953,0.24-4.313      c-0.863-1.12-1.502-2.442-1.832-3.913c-9.822-43.75-40.299-80.55-81.525-98.442l-0.383-0.16      c-17.604-7.577-36.295-11.418-55.561-11.418c-19.479,0-38.352,3.905-56.094,11.605c-51.611,22.401-84.96,73.212-84.96,129.448      c0,13.799,3.667,32.178,10.9,54.627c1.694,5.257-1.195,10.892-6.452,12.585c-5.256,1.694-10.891-1.194-12.584-6.452      c-7.872-24.433-11.864-44.875-11.864-60.76c0-64.207,38.074-122.22,96.997-147.795c20.27-8.798,41.821-13.259,64.057-13.259      c22.001,0,43.353,4.389,63.462,13.045l0.438,0.184c47.071,20.429,81.866,62.451,93.083,112.411      c0.377,1.677,0.308,3.35-0.128,4.896c0.981,1.272,1.67,2.798,1.946,4.495c1.396,8.563,2.103,17.319,2.103,26.023      c0,58.051-54.659,168.031-100.513,250.07C315.698,499.041,312.358,501,308.736,501z M135.461,361.213      c-3.89,0-7.589-2.283-9.207-6.09l-0.396-0.932c-2.154-5.086,0.222-10.955,5.308-13.109c5.084-2.152,10.955,0.223,13.108,5.309      l0.385,0.908c2.161,5.082-0.208,10.954-5.29,13.115C138.093,360.957,136.767,361.213,135.461,361.213z"></path></g><g><path d="M286.347,441.002c-1.585,0-3.193-0.378-4.69-1.175c-4.875-2.595-6.724-8.651-4.128-13.526      c41.74-78.404,64.728-137.442,64.728-166.238c0-7.088-0.747-14.177-2.222-21.071c-6.325-29.583-25.892-54.438-52.338-66.489      l-0.251-0.109c-5.032-2.275-7.268-8.199-4.992-13.231c2.275-5.033,8.201-7.268,13.232-4.992l0.277,0.122      c32.209,14.676,55.985,44.772,63.63,80.519c1.767,8.266,2.663,16.762,2.663,25.253c0,41.033-36.475,118.16-67.073,175.637      C293.385,439.077,289.924,441.002,286.347,441.002z"></path></g><g><path d="M341,61H171c-5.523,0-10-4.477-10-10V21c0-5.523,4.477-10,10-10h170c5.522,0,10,4.477,10,10v30      C351,56.523,346.522,61,341,61z M181,41h150V31H181V41z"></path></g><g><path d="M461,501H51c-5.523,0-10-4.477-10-10s4.477-10,10-10h410c5.522,0,10,4.477,10,10S466.522,501,461,501z"></path></g></g></g></g></svg>