<svg height='100px' width='100px'  fill="#000000" xmlns="http://www.w3.org/2000/svg" xmlns:xlink="http://www.w3.org/1999/xlink" version="1.1" x="0px" y="0px" viewBox="0 0 60 60" style="enable-background:new 0 0 60 60;" xml:space="preserve"><path d="M52.4386597,6.6333008H7.5613403c-0.5161743,0-0.9346313,0.4180298-0.9346313,0.9346313v8.1455078v36.7185669  c0,0.5166016,0.418457,0.9346924,0.9346313,0.9346924h44.8773193c0.5161743,0,0.9346313-0.4180908,0.9346313-0.9346924V15.7134399  V7.5679321C53.373291,7.0513306,52.954834,6.6333008,52.4386597,6.6333008z M8.4960327,8.5026245h43.0079346v6.276123H8.4960327  V8.5026245z M51.5039673,51.4973755H8.4960327V16.6481323h43.0079346V51.4973755z"></path><path d="M11.8709717,10.7069702h-0.1674805c-0.5161743,0-0.9346924,0.4180298-0.9346924,0.9346313  c0,0.5166626,0.4185181,0.9346924,0.9346924,0.9346924h0.1674805c0.5161743,0,0.9346313-0.4180298,0.9346313-0.9346924  C12.805603,11.125,12.387146,10.7069702,11.8709717,10.7069702z"></path><path d="M15.2545776,10.7069702h-0.1674805c-0.5161743,0-0.9346924,0.4180298-0.9346924,0.9346313  c0,0.5166626,0.4185181,0.9346924,0.9346924,0.9346924h0.1674805c0.5161743,0,0.9346313-0.4180298,0.9346313-0.9346924  C16.189209,11.125,15.770752,10.7069702,15.2545776,10.7069702z"></path><path d="M18.6376953,10.7069702h-0.1669922c-0.5161743,0-0.9346924,0.4180298-0.9346924,0.9346313  c0,0.5166626,0.4185181,0.9346924,0.9346924,0.9346924h0.1669922c0.5161743,0,0.9346924-0.4180298,0.9346924-0.9346924  C19.5723877,11.125,19.1538696,10.7069702,18.6376953,10.7069702z"></path><path d="M47.2144775,10.7069702H36.1152954c-0.5161743,0-0.9346924,0.4180298-0.9346924,0.9346313  c0,0.5166626,0.4185181,0.9346924,0.9346924,0.9346924h11.0991821c0.5161743,0,0.9346313-0.4180298,0.9346313-0.9346924  C48.1491089,11.125,47.7306519,10.7069702,47.2144775,10.7069702z"></path><path d="M19.1611938,37.9547119c4.5300293,0,8.2157593-3.68573,8.2157593-8.2157593  c0-0.5166626-0.4185181-0.9346924-0.9346924-0.9346924h-6.3464355v-6.3464355c0-0.5166016-0.418457-0.9346313-0.9346313-0.9346313  c-4.5350952,0-8.2249146,3.68573-8.2249146,8.2157593S14.6260986,37.9547119,19.1611938,37.9547119z M19.1611938,36.0853882  c-1.4136963,0-2.7166138-0.4688721-3.7733765-1.2514038l4.1604004-4.1604004h5.8909302  C24.9859619,33.7313843,22.3430786,36.0853882,19.1611938,36.0853882z M18.2265015,23.4609375v5.8910522l-4.1621704,4.1621704  c-0.7869263-1.0565186-1.258728-2.3602905-1.258728-3.7752075C12.805603,26.5561523,15.163269,23.9136963,18.2265015,23.4609375z"></path><path d="M22.4324951,27.4022827h7.2811279c0.5161743,0,0.9346924-0.4180908,0.9346924-0.9346924  c0-4.5300293-3.68573-8.2157593-8.2158203-8.2157593c-0.5161133,0-0.9346313,0.4180298-0.9346313,0.9346924v7.2810669  C21.4978638,26.9841919,21.9163818,27.4022827,22.4324951,27.4022827z M23.3671875,20.1896362  c2.7528687,0.40802,4.9353027,2.5903931,5.3433228,5.3433228h-5.3433228V20.1896362z"></path><path d="M35.6479492,23.9091187h0.3148804c0.5161743,0,0.9346924-0.4180298,0.9346924-0.9346313  c0-0.5166626-0.4185181-0.9346924-0.9346924-0.9346924h-0.3148804c-0.5161743,0-0.9346924,0.4180298-0.9346924,0.9346924  C34.7132568,23.4910889,35.1317749,23.9091187,35.6479492,23.9091187z"></path><path d="M39.4628296,23.9091187h7.9204712c0.5161743,0,0.9346924-0.4180298,0.9346924-0.9346313  c0-0.5166626-0.4185181-0.9346924-0.9346924-0.9346924h-7.9204712c-0.5161743,0-0.9346924,0.4180298-0.9346924,0.9346924  C38.5281372,23.4910889,38.9466553,23.9091187,39.4628296,23.9091187z"></path><path d="M35.6479492,29.0379639h0.3148804c0.5161743,0,0.9346924-0.4180908,0.9346924-0.9346924  s-0.4185181-0.9346924-0.9346924-0.9346924h-0.3148804c-0.5161743,0-0.9346924,0.4180908-0.9346924,0.9346924  S35.1317749,29.0379639,35.6479492,29.0379639z"></path><path d="M39.4628296,29.0379639h7.9204712c0.5161743,0,0.9346924-0.4180908,0.9346924-0.9346924  s-0.4185181-0.9346924-0.9346924-0.9346924h-7.9204712c-0.5161743,0-0.9346924,0.4180908-0.9346924,0.9346924  S38.9466553,29.0379639,39.4628296,29.0379639z"></path><path d="M35.6479492,34.166748h0.3148804c0.5161743,0,0.9346924-0.4180298,0.9346924-0.9346924  c0-0.5166016-0.4185181-0.9346313-0.9346924-0.9346313h-0.3148804c-0.5161743,0-0.9346924,0.4180298-0.9346924,0.9346313  C34.7132568,33.7487183,35.1317749,34.166748,35.6479492,34.166748z"></path><path d="M39.4628296,34.166748h7.9204712c0.5161743,0,0.9346924-0.4180298,0.9346924-0.9346924  c0-0.5166016-0.4185181-0.9346313-0.9346924-0.9346313h-7.9204712c-0.5161743,0-0.9346924,0.4180298-0.9346924,0.9346313  C38.5281372,33.7487183,38.9466553,34.166748,39.4628296,34.166748z"></path><path d="M23.2138672,42.9484253c-0.1643066-0.1934814-0.3998413-0.3112793-0.6526489-0.3276978  c-0.2546387-0.0136719-0.5010986,0.071228-0.6886597,0.2418823l-5.9078369,5.3743286  c-0.382019,0.3468628-0.4098511,0.9383545-0.062561,1.3198853c0.1843872,0.2026367,0.4376831,0.3057861,0.6918945,0.3057861  c0.2240601,0,0.4495239-0.0803223,0.628418-0.2437134l5.192688-4.7235718l2.6502075,3.1188965  c0.1674805,0.1972046,0.4084473,0.3158569,0.6663208,0.3286133c0.2674561,0.019165,0.5097656-0.0821533,0.6955566-0.2619629  l5.7960205-5.5997925l4.0900879,5.0493774c0.1569824,0.1935425,0.3847046,0.3167725,0.6329956,0.3413696  c0.2473755,0.0228271,0.4960938-0.0501709,0.6882324-0.2089844l6.3669434-5.2575073  c0.3979492-0.3286133,0.4541016-0.9182739,0.1254883-1.3162231c-0.3276367-0.3970337-0.9172974-0.4526978-1.3157349-0.1259766  l-5.6394653,4.6569214l-4.1384888-5.1087036c-0.1647339-0.2035522-0.4075317-0.3286133-0.6690674-0.3441162  c-0.2697144-0.017334-0.5184326,0.0784912-0.7064819,0.2610474l-5.8128662,5.6162109L23.2138672,42.9484253z"></path></svg>