<svg height='100px' width='100px'  fill="#000000" xmlns="http://www.w3.org/2000/svg" data-name="Layer 1" viewBox="0 0 160 160" x="0px" y="0px"><title>Artboard 12</title><path d="M80,17.75A62.25,62.25,0,1,0,142.25,80,62.32,62.32,0,0,0,80,17.75Zm0,120A57.75,57.75,0,1,1,137.75,80,57.82,57.82,0,0,1,80,137.75Z"></path><path d="M122.88,66.13a2.25,2.25,0,0,0-1.59,2.76,43.15,43.15,0,0,1,1.19,6.28,2.25,2.25,0,0,0,2.23,2H125a2.25,2.25,0,0,0,2-2.49,47.47,47.47,0,0,0-1.31-6.94A2.25,2.25,0,0,0,122.88,66.13Z"></path><path d="M48.08,50.53a2.24,2.24,0,0,0,1.58-.65l.11-.11a43.29,43.29,0,0,1,4.84-4.17A2.25,2.25,0,1,0,51.93,42a47.79,47.79,0,0,0-5.37,4.63l-.06.06a2.25,2.25,0,0,0,1.58,3.85Z"></path><path d="M84.77,37.52A43,43,0,0,1,91,38.69a2.25,2.25,0,0,0,1.16-4.35A47.53,47.53,0,0,0,85.27,33a2.25,2.25,0,1,0-.5,4.47Z"></path><path d="M35.35,74a2.29,2.29,0,0,0,.41,0A2.25,2.25,0,0,0,38,72.16,42.87,42.87,0,0,1,39.6,66a2.25,2.25,0,1,0-4.25-1.47,47.3,47.3,0,0,0-1.8,6.83A2.25,2.25,0,0,0,35.35,74Z"></path><path d="M39.1,61.07a2.25,2.25,0,0,0,3-.95,42.66,42.66,0,0,1,3.39-5.41A2.25,2.25,0,1,0,41.9,52a47.35,47.35,0,0,0-3.75,6A2.25,2.25,0,0,0,39.1,61.07Z"></path><path d="M59,42.46a2.23,2.23,0,0,0,1-.26,42.71,42.71,0,0,1,5.85-2.55,2.25,2.25,0,1,0-1.48-4.25,47.13,47.13,0,0,0-6.47,2.82A2.25,2.25,0,0,0,59,42.46Z"></path><path d="M110.23,49.77c.75.75,1.47,1.53,2.16,2.32a2.25,2.25,0,0,0,3.4-2.94c-.76-.87-1.56-1.74-2.38-2.56s-1.72-1.66-2.61-2.43a2.25,2.25,0,0,0-2.94,3.41C108.67,48.27,109.47,49,110.23,49.77Z"></path><path d="M116.19,57.22a42.51,42.51,0,0,1,3,5.64,2.25,2.25,0,1,0,4.12-1.8A47,47,0,0,0,120,54.82a2.25,2.25,0,0,0-3.81,2.4Z"></path><path d="M35.55,87.39a2.25,2.25,0,0,0,2-2.49,43.11,43.11,0,0,1-.28-4.9q0-.74,0-1.48a2.25,2.25,0,0,0-2.17-2.33,2.21,2.21,0,0,0-2.33,2.17q0,.82,0,1.64a47.61,47.61,0,0,0,.31,5.41,2.25,2.25,0,0,0,2.23,2Z"></path><path d="M97.08,40.8a42.48,42.48,0,0,1,5.65,3,2.25,2.25,0,0,0,2.4-3.81,47.1,47.1,0,0,0-6.25-3.3,2.25,2.25,0,0,0-1.8,4.13Z"></path><path d="M125.05,79.38a2.27,2.27,0,0,0-2.33,2.17A43.15,43.15,0,0,1,122,87.9a2.25,2.25,0,1,0,4.42.83,47.74,47.74,0,0,0,.78-7A2.25,2.25,0,0,0,125.05,79.38Z"></path><path d="M94.19,120.34A42.79,42.79,0,0,1,88,122a2.25,2.25,0,1,0,.84,4.42,47.29,47.29,0,0,0,6.82-1.83,2.25,2.25,0,1,0-1.49-4.25Z"></path><path d="M81.68,122.72a43.53,43.53,0,0,1-6.39-.23A2.25,2.25,0,0,0,74.8,127a47.71,47.71,0,0,0,5.2.29q.93,0,1.85,0a2.25,2.25,0,0,0-.18-4.5Z"></path><path d="M105.44,114.36a42.56,42.56,0,0,1-5.4,3.41,2.25,2.25,0,1,0,2.11,4,47.05,47.05,0,0,0,6-3.77,2.25,2.25,0,1,0-2.68-3.61Z"></path><path d="M40.85,97.2a42.53,42.53,0,0,1-2.12-6,2.25,2.25,0,0,0-4.35,1.17A47.2,47.2,0,0,0,36.73,99a2.25,2.25,0,0,0,4.12-1.81Z"></path><path d="M123.24,92.69a2.25,2.25,0,0,0-2.86,1.39,42.68,42.68,0,0,1-2.54,5.86,2.25,2.25,0,1,0,4,2.1,47.18,47.18,0,0,0,2.81-6.48A2.25,2.25,0,0,0,123.24,92.69Z"></path><path d="M117.59,104.86a2.25,2.25,0,0,0-3.15.47,43.33,43.33,0,0,1-4.17,4.85,2.25,2.25,0,0,0,3.19,3.18,47.88,47.88,0,0,0,4.6-5.35A2.25,2.25,0,0,0,117.59,104.86Z"></path><path d="M43.85,102.83a2.25,2.25,0,1,0-3.8,2.41,47.33,47.33,0,0,0,4.21,5.67,2.25,2.25,0,0,0,3.4-2.95A42.75,42.75,0,0,1,43.85,102.83Z"></path><path d="M57.33,116.26a42.82,42.82,0,0,1-5.14-3.79,2.25,2.25,0,1,0-2.93,3.41,47.31,47.31,0,0,0,5.68,4.19,2.25,2.25,0,0,0,2.39-3.81Z"></path><path d="M69,121.32a42.66,42.66,0,0,1-6-2.09,2.25,2.25,0,0,0-1.79,4.13,47.21,47.21,0,0,0,6.67,2.31A2.25,2.25,0,0,0,69,121.32Z"></path><path d="M80.55,34.95a2.25,2.25,0,0,0-2.33-2.16,47.49,47.49,0,0,0-7,.79A2.25,2.25,0,1,0,72,38a43,43,0,0,1,6.35-.71A2.25,2.25,0,0,0,80.55,34.95Z"></path><path d="M100,82.16h.05v8.37a5.61,5.61,0,0,1-4.22-3.41,2.25,2.25,0,1,0-4,2,10.29,10.29,0,0,0,8.26,6V97a2.25,2.25,0,0,0,4.5,0V95a10.72,10.72,0,0,0,5.82-2.74,9.09,9.09,0,0,0,2.84-6.54c0-4-2.91-8.08-8.48-8.08h-.18V69.52a4.08,4.08,0,0,1,2.69,3.14,2.25,2.25,0,1,0,4.37-1.09,8.63,8.63,0,0,0-7.06-6.68V63a2.25,2.25,0,0,0-4.5,0v1.85c-5.12.76-8.07,4.46-8.38,8.13S93.83,81.09,100,82.16Zm4.73,0c2.93,0,4,1.85,4,3.58a4.57,4.57,0,0,1-1.44,3.28,6,6,0,0,1-2.71,1.39V82.19ZM100.09,69.4v8.16c-2.58-.65-4.07-2.23-3.9-4.24C96.33,71.7,97.62,70,100.09,69.4Z"></path><path d="M68.46,65.36a2.25,2.25,0,0,0-2.25,2.25V85.78L50.74,67a2.25,2.25,0,0,0-4,1.43V92.87a2.25,2.25,0,1,0,4.5,0V74.69l15.47,18.8a2.25,2.25,0,0,0,4-1.43V67.61A2.25,2.25,0,0,0,68.46,65.36Z"></path><path d="M89.75,94.79a2.25,2.25,0,0,0,0-4.5H78.39L91.82,68.8a2.25,2.25,0,0,0-1.91-3.44H74.43a2.25,2.25,0,0,0,0,4.5H85.86L72.42,91.35a2.25,2.25,0,0,0,1.91,3.44Z"></path></svg>