<svg height='100px' width='100px'  fill="#000000" xmlns="http://www.w3.org/2000/svg" data-name="Layer 1" viewBox="0 0 512 512" x="0px" y="0px"><title>Notes</title><path d="M238.521,138.779a75.861,75.861,0,1,0,75.862,75.861A75.947,75.947,0,0,0,238.521,138.779Zm0,139.722a63.861,63.861,0,1,1,63.862-63.861A63.933,63.933,0,0,1,238.521,278.5Z"></path><path d="M498.972,270.314A22.357,22.357,0,0,0,476.534,248H464V93.472c0-3.314-2.671-6.472-5.985-6.472H19.028C15.714,87,13,90.158,13,93.472V335.808A6.19,6.19,0,0,0,19.028,342H355.8a23.2,23.2,0,0,0,6.512,10.723,22.314,22.314,0,0,0,0,32.9A22.738,22.738,0,0,0,377.509,425h99.025a22.672,22.672,0,0,0,15.2-39.28,22.5,22.5,0,0,0,0-33.063,22.422,22.422,0,0,0,0-33,22.331,22.331,0,0,0,0-32.918A22.243,22.243,0,0,0,498.972,270.314Zm-12,.186A10.5,10.5,0,0,1,476.534,281H377.509a10.5,10.5,0,0,1,0-21h99.025A10.5,10.5,0,0,1,486.972,270.5ZM377.509,326h99.025a10.5,10.5,0,0,1,0,21H377.509a10.5,10.5,0,0,1,0-21Zm-10.438-22.5A10.5,10.5,0,0,1,377.509,293h99.025a10.5,10.5,0,0,1,0,21H377.509A10.5,10.5,0,0,1,367.071,303.5ZM355.61,298H114.351A49.528,49.528,0,0,0,96.81,267.351C86.632,258.924,73,254.061,57,252.864V176.409C88,173.991,110.4,156,114.354,131H363.267C367.193,156,389,173.974,420,176.405V248H377.509a22.358,22.358,0,0,0-22.438,22.314,21.92,21.92,0,0,0,7.239,16.279A24.17,24.17,0,0,0,355.61,298Zm.377,32H25V99H452V248H432V170.683a5.958,5.958,0,0,0-5.854-6c-30.177-.487-50.373-16.173-51.487-39.971a5.974,5.974,0,0,0-5.97-5.713H108.934a6,6,0,0,0-5.994,5.713,37.481,37.481,0,0,1-13.832,27.63c-9.364,7.823-22.566,12.09-38.233,12.342a5.975,5.975,0,0,0-5.875,6V258.6a5.975,5.975,0,0,0,5.875,6c30.557.494,50.991,16.038,52.079,39.824a5.864,5.864,0,0,0,5.98,5.58h247.3a21.094,21.094,0,0,0,6.072,9.6A22.938,22.938,0,0,0,355.987,330Zm120.547,29a10.5,10.5,0,0,1,0,21H377.509a10.5,10.5,0,0,1,0-21Zm0,54H377.509a10.5,10.5,0,0,1,0-21h99.025a10.5,10.5,0,0,1,0,21Z"></path></svg>