<svg height='100px' width='100px'  fill="#000000" xmlns="http://www.w3.org/2000/svg" data-name="Layer 1" viewBox="0 0 160 160" x="0px" y="0px"><title>Artboard 2</title><path d="M80,17.75A62.25,62.25,0,1,0,142.25,80,62.32,62.32,0,0,0,80,17.75Zm0,120A57.75,57.75,0,1,1,137.75,80,57.82,57.82,0,0,1,80,137.75Z"></path><path d="M48.08,50.53a2.24,2.24,0,0,0,1.59-.66l.1-.1a43.3,43.3,0,0,1,4.84-4.17A2.25,2.25,0,1,0,51.93,42a47.76,47.76,0,0,0-5.35,4.61l-.1.1a2.25,2.25,0,0,0,1.59,3.84Z"></path><path d="M40.85,97.2a42.66,42.66,0,0,1-2.12-6,2.25,2.25,0,1,0-4.34,1.17A47.25,47.25,0,0,0,36.73,99a2.25,2.25,0,0,0,4.12-1.81Z"></path><path d="M71.62,38A2.24,2.24,0,0,0,72,38a43.12,43.12,0,0,1,6.35-.71,2.25,2.25,0,0,0-.17-4.5,47.67,47.67,0,0,0-7,.79A2.25,2.25,0,0,0,71.62,38Z"></path><path d="M35.55,87.39a2.25,2.25,0,0,0,2-2.49,43.19,43.19,0,0,1-.28-4.9q0-.74,0-1.49a2.25,2.25,0,1,0-4.5-.16q0,.82,0,1.64a47.68,47.68,0,0,0,.31,5.41,2.25,2.25,0,0,0,2.23,2Z"></path><path d="M35.35,74a2.29,2.29,0,0,0,.41,0A2.25,2.25,0,0,0,38,72.16,42.75,42.75,0,0,1,39.6,66a2.25,2.25,0,1,0-4.25-1.47,47.41,47.41,0,0,0-1.8,6.83A2.25,2.25,0,0,0,35.35,74Z"></path><path d="M84.77,37.52a43,43,0,0,1,6.28,1.18,2.25,2.25,0,1,0,1.16-4.35A47.54,47.54,0,0,0,85.27,33a2.25,2.25,0,1,0-.5,4.47Z"></path><path d="M116.19,57.22a42.65,42.65,0,0,1,3,5.64,2.25,2.25,0,1,0,4.12-1.8A47.08,47.08,0,0,0,120,54.82a2.25,2.25,0,1,0-3.81,2.4Z"></path><path d="M122.88,66.13a2.25,2.25,0,0,0-1.59,2.76,43.07,43.07,0,0,1,1.19,6.28,2.25,2.25,0,0,0,2.23,2H125a2.25,2.25,0,0,0,2-2.49,47.64,47.64,0,0,0-1.31-6.94A2.25,2.25,0,0,0,122.88,66.13Z"></path><path d="M97.08,40.8a42.56,42.56,0,0,1,5.65,3A2.25,2.25,0,0,0,105.12,40a47.05,47.05,0,0,0-6.24-3.3,2.25,2.25,0,1,0-1.8,4.13Z"></path><path d="M110.23,49.77c.75.75,1.47,1.53,2.16,2.32a2.25,2.25,0,1,0,3.41-2.94c-.76-.87-1.56-1.74-2.38-2.56s-1.72-1.66-2.61-2.43a2.25,2.25,0,1,0-2.94,3.41C108.67,48.27,109.47,49,110.23,49.77Z"></path><path d="M39.1,61.07a2.25,2.25,0,0,0,3-.95,42.6,42.6,0,0,1,3.39-5.41A2.25,2.25,0,0,0,41.9,52a47.13,47.13,0,0,0-3.75,6A2.25,2.25,0,0,0,39.1,61.07Z"></path><path d="M105.44,114.36a42.6,42.6,0,0,1-5.4,3.41,2.25,2.25,0,1,0,2.11,4,47.21,47.21,0,0,0,6-3.77,2.25,2.25,0,0,0-2.68-3.61Z"></path><path d="M94.19,120.34A42.73,42.73,0,0,1,88,122a2.25,2.25,0,1,0,.84,4.42,47.32,47.32,0,0,0,6.82-1.83,2.25,2.25,0,1,0-1.49-4.25Z"></path><path d="M117.59,104.86a2.25,2.25,0,0,0-3.15.47,43.23,43.23,0,0,1-4.17,4.85,2.25,2.25,0,0,0,3.19,3.18,47.78,47.78,0,0,0,4.6-5.35A2.25,2.25,0,0,0,117.59,104.86Z"></path><path d="M125.05,79.38a2.24,2.24,0,0,0-2.33,2.17,43.18,43.18,0,0,1-.7,6.35,2.25,2.25,0,1,0,4.42.83,47.59,47.59,0,0,0,.78-7A2.25,2.25,0,0,0,125.05,79.38Z"></path><path d="M123.24,92.69a2.25,2.25,0,0,0-2.86,1.39,42.47,42.47,0,0,1-2.54,5.86,2.25,2.25,0,1,0,4,2.1,47.08,47.08,0,0,0,2.81-6.48A2.25,2.25,0,0,0,123.24,92.69Z"></path><path d="M81.68,122.72a43.37,43.37,0,0,1-6.39-.23A2.25,2.25,0,0,0,74.8,127a47.71,47.71,0,0,0,5.2.29q.93,0,1.85,0a2.25,2.25,0,1,0-.18-4.5Z"></path><path d="M43.85,102.83a2.25,2.25,0,0,0-3.8,2.41,47.4,47.4,0,0,0,4.21,5.67,2.25,2.25,0,0,0,3.4-2.95A42.91,42.91,0,0,1,43.85,102.83Z"></path><path d="M57.33,116.26a42.75,42.75,0,0,1-5.14-3.79,2.25,2.25,0,0,0-2.93,3.41,47.41,47.41,0,0,0,5.68,4.19,2.25,2.25,0,1,0,2.39-3.81Z"></path><path d="M65.87,39.64a2.25,2.25,0,1,0-1.48-4.25,47.09,47.09,0,0,0-6.47,2.82,2.25,2.25,0,1,0,2.1,4A42.58,42.58,0,0,1,65.87,39.64Z"></path><path d="M69,121.32a42.72,42.72,0,0,1-6-2.09,2.25,2.25,0,0,0-1.79,4.13,47.26,47.26,0,0,0,6.67,2.31A2.25,2.25,0,0,0,69,121.32Z"></path><path d="M65.75,63.76A2.25,2.25,0,0,0,68,66h8.7c4,0,6.24,2.18,7.08,4.73H71.4a2.25,2.25,0,0,0,0,4.5H83.82a6.23,6.23,0,0,1-1.42,2.42,7.66,7.66,0,0,1-5.69,2.09H68a2.25,2.25,0,0,0-2.1,3.05c.28.73,7,17.76,21.51,17.76a2.25,2.25,0,1,0,0-4.5c-8.15,0-13.44-7.46-15.83-11.81H76.7a11.92,11.92,0,0,0,8.94-3.47,10.83,10.83,0,0,0,2.82-5.54h2.9a2.25,2.25,0,0,0,0-4.5H88.44A10.8,10.8,0,0,0,86.32,66H92a2.25,2.25,0,0,0,0-4.5H68A2.25,2.25,0,0,0,65.75,63.76Z"></path></svg>