<svg height='100px' width='100px'  fill="#000000" xmlns:dc="http://purl.org/dc/elements/1.1/" xmlns:cc="http://creativecommons.org/ns#" xmlns:rdf="http://www.w3.org/1999/02/22-rdf-syntax-ns#" xmlns:svg="http://www.w3.org/2000/svg" xmlns="http://www.w3.org/2000/svg" xmlns:sodipodi="http://sodipodi.sourceforge.net/DTD/sodipodi-0.dtd" xmlns:inkscape="http://www.inkscape.org/namespaces/inkscape" version="1.1" x="0px" y="0px" viewBox="0 0 100 100"><g transform="translate(0,-952.36218)"><path style="text-indent:0;text-transform:none;direction:ltr;block-progression:tb;baseline-shift:baseline;color:#000000;enable-background:accumulate;" d="m 47.97305,960.44033 0,42.74997 -6.5625,0 0,-36.71872 c -1e-4,-1.04718 -0.9528,-1.9999 -2,-2 l -10.1562,0 c -1.7745,0.0752 -2.3345,0.87269 -2.375,2.40625 l 0,36.31247 -6.5626,0 0,-16.87501 c -10e-5,-1.0471 -0.9528,-1.99991 -2,-2 l -10.5311997,0 c -1.0472,9e-5 -1.9999,0.9529 -2,2 l 0,18.40631 c 0.028,1.831 0.8451,2.42 2.4062,2.4687 l 8.1249997,0 0,28.4063 c 0,1.4738 1.0256,1.9679 2.4376,2 l 10.125,0 c 1.0472,-10e-5 1.9999,-0.9528 2,-2 l 0,-28.4063 6.5312,0 0,11.0313 c 0.012,1.2914 0.8936,1.9953 2.0625,2 l 10.5,0 c 1.0472,-10e-5 1.9999,-0.9528 2,-2 l 0,-11.0313 6.5625,0 0,31.9688 c 0.023,1.5147 1.0101,1.9419 2.4062,2 l 10.125,0 c 1.0472,-10e-5 1.9999,-0.9528 2,-2 l 0,-31.9688 6.5313,0 0,37.375 c 1e-4,1.0472 0.9528,1.9999 2,2 l 10.187497,0 c 1.7727,-0.013 2.3567,-0.8597 2.375,-2.4062 l 0,-38.4688 c 0.3098,-1.1978 -0.7634,-2.5392 -2,-2.5 l -8.5625,0 0,-24.03122 c 0,-1.54098 -0.864597,-2.31704 -2.406297,-2.34375 l -9.7812,0 c -1.6335,0.037 -2.3012,0.83384 -2.3438,2.25 l 0,24.12497 -6.5312,0 0,-43.03122 c -1e-4,-1.04718 -0.9528,-1.9999 -2,-2 l -10.4062,0 c -1.5215,0.0229 -2.1591,1.05512 -2.1563,2.28125 z m 4,1.71875 6.5625,0 0,41.03122 -6.5625,0 z m -21.0937,6.3125 6.5312,0 0,34.71872 -6.5312,0 z m 42.1874,12.34375 6.5313,0 0,22.37497 -6.5313,0 z m -63.2811997,7.49996 6.5311997,0 0,14.87501 -6.5311997,0 z m 10.5311997,18.87501 6.5626,0 0,26.4063 -6.5626,0 z m 21.0938,0 6.5625,0 0,9.0313 -6.5625,0 z m 21.125,0 6.5312,0 0,29.9688 -6.5312,0 z m 21.062497,0 6.5625,0 0,35.375 -6.5625,0 z" fill="#000000" fill-opacity="1" fill-rule="evenodd" stroke="none" marker="none" visibility="visible" display="inline" overflow="visible"></path></g></svg>