<svg height='100px' width='100px'  fill="#000000" xmlns="http://www.w3.org/2000/svg" xmlns:xlink="http://www.w3.org/1999/xlink" version="1.1" x="0px" y="0px" viewBox="0 0 48.707 50.582" enable-background="new 0 0 48.707 50.582" xml:space="preserve"><path d="M17.649,27.377h7.408c0.007,0,0.014-0.002,0.021-0.002l0,0c0.828,0,1.5-0.67,1.5-1.5l0.004-12.495c0-0.828-0.67-1.5-1.5-1.5  c-0.828,0-1.5,0.672-1.5,1.5l-0.004,10.992l-5.93,0.002c-0.829,0-1.5,0.672-1.5,1.5c0,0.002,0,0.002,0,0.002  c0,0.002,0,0.002,0,0.002C16.149,26.705,16.821,27.377,17.649,27.377z"></path><path d="M42.409,12.687c-0.593-0.777-1.22-1.532-1.923-2.234c-3.088-3.09-6.939-5.136-11.131-5.967  c-1.396-0.276-2.832-0.419-4.289-0.419C13.046,4.068,3.263,13.854,3.261,25.879c-0.002,5.824,2.264,11.301,6.38,15.418  c4.115,4.119,9.589,6.389,15.411,6.389c0.001,0,0.006,0,0.006,0h0.001c0.073,0,0.147-0.006,0.221-0.006  c10.797-0.111,19.742-8.105,21.335-18.492c0.166-1.082,0.253-2.191,0.253-3.32C46.871,21.038,45.291,16.461,42.409,12.687z   M43.484,29.654c-1.76,8.564-9.354,15.027-18.426,15.031h-0.006c-5.021,0-9.741-1.956-13.289-5.508  c-3.55-3.553-5.504-8.274-5.503-13.299C6.263,15.507,14.698,7.067,25.07,7.065c5.022,0,9.744,1.956,13.294,5.508  c0.444,0.443,0.862,0.905,1.257,1.385c2.752,3.351,4.248,7.517,4.246,11.913C43.867,27.168,43.734,28.432,43.484,29.654z"></path></svg>