<svg height='100px' width='100px'  fill="#000000" xmlns="http://www.w3.org/2000/svg" xmlns:xlink="http://www.w3.org/1999/xlink" version="1.1" x="0px" y="0px" viewBox="0 0 48.707 50.582" enable-background="new 0 0 48.707 50.582" xml:space="preserve"><path d="M25.061,47.701c12.028,0,21.813-9.785,21.813-21.812c0-12.025-9.785-21.809-21.813-21.809  c-12.026,0-21.812,9.784-21.812,21.809C3.249,37.916,13.033,47.701,25.061,47.701z M25.061,7.077  c10.375,0,18.813,8.439,18.813,18.812c0,10.373-8.438,18.812-18.813,18.812c-10.373,0-18.812-8.438-18.812-18.812  C6.249,15.517,14.688,7.077,25.061,7.077z"></path><path d="M19.815,32.631c0.385,0,0.769-0.146,1.062-0.438l4.196-4.194l7.777,7.776c0.293,0.293,0.676,0.438,1.061,0.438  c0.384,0,0.768-0.146,1.061-0.438c0.586-0.587,0.586-1.535,0-2.121l-8.839-8.838c-0.586-0.586-1.536-0.586-2.121,0  c-0.004,0.005-0.005,0.009-0.008,0.014c-0.002,0.002-0.004,0.002-0.006,0.004l-5.242,5.239c-0.586,0.585-0.586,1.534,0,2.121  C19.047,32.484,19.431,32.631,19.815,32.631z"></path></svg>