<svg height='100px' width='100px'  fill="#000000" xmlns="http://www.w3.org/2000/svg" xmlns:xlink="http://www.w3.org/1999/xlink" version="1.1" x="0px" y="0px" viewBox="0 0 48.707 50.582" enable-background="new 0 0 48.707 50.582" xml:space="preserve"><path d="M25.062,47.701c12.027,0,21.812-9.785,21.812-21.812S37.09,4.077,25.062,4.077S3.25,13.861,3.25,25.889  S13.035,47.701,25.062,47.701z M25.062,7.077c10.373,0,18.812,8.439,18.812,18.812s-8.438,18.812-18.812,18.812  S6.25,36.262,6.25,25.889S14.689,7.077,25.062,7.077z"></path><path d="M25.047,27.391c0.004,0,0.007-0.001,0.011-0.001s0.007,0.001,0.011,0.001h7.412c0.828,0,1.5-0.672,1.5-1.5  c0-0.829-0.672-1.5-1.5-1.5h-5.934V13.392c0-0.829-0.672-1.5-1.5-1.5c-0.829,0-1.5,0.671-1.5,1.5v12.499  C23.547,26.719,24.218,27.391,25.047,27.391z"></path></svg>