<svg height='100px' width='100px'  fill="#000000" xmlns="http://www.w3.org/2000/svg" xmlns:xlink="http://www.w3.org/1999/xlink" version="1.1" x="0px" y="0px" viewBox="0 0 48.707 50.582" enable-background="new 0 0 48.707 50.582" xml:space="preserve"><path d="M25.061,47.701c12.028,0,21.813-9.785,21.813-21.812c0-12.027-9.785-21.812-21.813-21.812  c-12.026,0-21.812,9.785-21.812,21.812C3.249,37.916,13.033,47.701,25.061,47.701z M25.061,7.076  c10.375,0,18.813,8.439,18.813,18.813c0,10.373-8.438,18.811-18.813,18.811c-10.373,0-18.812-8.438-18.812-18.811  C6.249,15.515,14.688,7.076,25.061,7.076z"></path><path d="M23.995,26.943c0.003,0.004,0.004,0.008,0.008,0.012l5.242,5.24c0.293,0.293,0.677,0.439,1.062,0.439  c0.383,0,0.768-0.146,1.061-0.439c0.586-0.586,0.586-1.537,0-2.121l-4.196-4.194l7.779-7.779c0.586-0.586,0.586-1.535,0-2.121  c-0.586-0.585-1.535-0.585-2.121,0l-8.838,8.839c-0.586,0.586-0.586,1.535,0,2.121C23.991,26.941,23.993,26.941,23.995,26.943z"></path></svg>