<svg height='100px' width='100px'  fill="#000000" xmlns="http://www.w3.org/2000/svg" xmlns:xlink="http://www.w3.org/1999/xlink" version="1.1" x="0px" y="0px" viewBox="0 0 48.707 50.582" enable-background="new 0 0 48.707 50.582" xml:space="preserve"><path d="M25.062,4.06c-5.824,0.002-11.301,2.271-15.42,6.392c-4.118,4.121-6.384,9.597-6.382,15.419  c0.003,12.02,9.788,21.797,21.81,21.797c0,0,0.005,0,0.006,0c12.022-0.004,21.803-9.789,21.8-21.811  C46.873,13.837,37.093,4.06,25.062,4.06z M25.074,44.668H25.07c-10.369,0-18.809-8.434-18.812-18.799  c-0.002-5.021,1.953-9.744,5.505-13.298c3.551-3.554,8.275-5.512,13.309-5.513c10.365,0,18.801,8.433,18.803,18.797  C43.878,36.226,35.443,44.664,25.074,44.668z"></path><path d="M26.472,26.369c0.056-0.148,0.088-0.307,0.093-0.475c0-0.014,0.004-0.025,0.004-0.039l-0.002-7.412  c0-0.83-0.672-1.5-1.5-1.5c-0.828,0-1.5,0.672-1.5,1.5l0.002,6.803l-8.393,8.398c-0.585,0.586-0.585,1.535,0,2.12  c0.293,0.293,0.677,0.438,1.061,0.438c0.385,0,0.77-0.146,1.062-0.438l8.833-8.84c0.019-0.019,0.022-0.042,0.04-0.062  c0.107-0.117,0.198-0.25,0.265-0.397C26.45,26.435,26.46,26.404,26.472,26.369z"></path></svg>