<svg height='100px' width='100px'  fill="#000000" xmlns="http://www.w3.org/2000/svg" xmlns:xlink="http://www.w3.org/1999/xlink" version="1.1" x="0px" y="0px" viewBox="0 0 48.707 50.582" enable-background="new 0 0 48.707 50.582" xml:space="preserve"><path d="M25.053,4.064c-5.824,0-11.298,2.267-15.415,6.386c-8.5,8.503-8.497,22.341,0.008,30.847c4.12,4.121,9.598,6.39,15.421,6.39  c5.824,0,11.301-2.269,15.42-6.39c8.5-8.504,8.494-22.339-0.011-30.843C36.355,6.333,30.878,4.064,25.053,4.064z M38.363,39.176  c-3.553,3.553-8.274,5.51-13.298,5.51c-5.022,0-9.747-1.957-13.3-5.51c-7.334-7.338-7.338-19.271-0.008-26.604  c3.55-3.552,8.272-5.508,13.294-5.508c5.023,0,9.747,1.957,13.302,5.512C45.689,19.911,45.695,31.842,38.363,39.176z"></path><path d="M26.101,24.792l-5.226-5.228c-0.586-0.586-1.535-0.586-2.121,0c-0.586,0.587-0.586,1.535,0,2.121l4.812,4.811l0.006,11.877  c0,0.828,0.672,1.498,1.5,1.498l0,0c0.828,0,1.5-0.672,1.5-1.5l-0.006-12.5C26.565,25.448,26.386,25.065,26.101,24.792z"></path></svg>