<svg height='100px' width='100px'  fill="#000000" xmlns="http://www.w3.org/2000/svg" xmlns:xlink="http://www.w3.org/1999/xlink" version="1.1" x="0px" y="0px" viewBox="0 0 48.707 50.582" enable-background="new 0 0 48.707 50.582" xml:space="preserve"><path d="M25.059,4.074c-5.823,0-11.298,2.264-15.416,6.375c-4.122,4.113-6.393,9.583-6.396,15.405  c-0.002,5.824,2.267,11.305,6.391,15.428c4.124,4.121,9.607,6.391,15.438,6.391c5.822,0,11.3-2.266,15.419-6.377  c4.121-4.111,6.393-9.581,6.396-15.4c0.004-5.826-2.266-11.304-6.389-15.425C36.378,6.346,30.895,4.074,25.059,4.074z   M38.376,39.172c-3.554,3.547-8.276,5.5-13.3,5.5c-5.031,0-9.76-1.959-13.317-5.512c-3.557-3.557-5.514-8.282-5.512-13.307  c0.002-5.018,1.961-9.736,5.515-13.282c3.552-3.545,8.275-5.498,13.297-5.498c5.033,0,9.766,1.959,13.322,5.518  c3.557,3.554,5.514,8.279,5.51,13.302C43.889,30.91,41.93,35.627,38.376,39.172z"></path><path d="M29.259,19.575l-4.198,4.188l-7.779-7.776c-0.587-0.585-1.536-0.585-2.122,0c-0.585,0.586-0.585,1.535,0.001,2.121  L24,26.945c0.293,0.293,0.677,0.438,1.06,0.438c0.383,0,0.768-0.146,1.061-0.438c0.004-0.004,0.005-0.01,0.009-0.014  c0.002-0.002,0.003-0.003,0.005-0.004l5.243-5.23c0.586-0.584,0.588-1.533,0.002-2.121C30.796,18.991,29.848,18.991,29.259,19.575z"></path></svg>