<svg height='100px' width='100px'  fill="#000000" xmlns="http://www.w3.org/2000/svg" xmlns:xlink="http://www.w3.org/1999/xlink" version="1.1" x="0px" y="0px" viewBox="0 0 48.707 50.582" enable-background="new 0 0 48.707 50.582" xml:space="preserve"><path d="M25.062,4.058c-5.827,0-11.305,2.269-15.423,6.39s-6.383,9.597-6.38,15.419c0.002,5.826,2.272,11.301,6.395,15.42  c4.118,4.115,9.593,6.381,15.415,6.381c5.826,0,11.305-2.27,15.423-6.391c4.118-4.119,6.386-9.596,6.383-15.422  c-0.002-5.822-2.272-11.296-6.394-15.413C36.361,6.325,30.886,4.058,25.062,4.058z M38.369,39.156  c-3.554,3.555-8.276,5.512-13.303,5.512c-5.02,0-9.742-1.955-13.294-5.506c-3.555-3.551-5.514-8.271-5.517-13.297  c-0.002-5.021,1.953-9.744,5.503-13.296c3.552-3.555,8.277-5.512,13.302-5.512c5.023,0,9.746,1.955,13.299,5.506  c3.554,3.55,5.512,8.271,5.514,13.294C43.875,30.88,41.92,35.604,38.369,39.156z"></path><path d="M29.251,19.555l-4.81,4.812L12.569,24.37c-0.83,0-1.5,0.672-1.5,1.5c0,0.828,0.672,1.5,1.5,1.5l12.495-0.002  c0.425,0,0.805-0.178,1.076-0.459l5.23-5.232c0.586-0.586,0.586-1.535,0-2.121C30.786,18.969,29.835,18.969,29.251,19.555z"></path></svg>