<svg height='100px' width='100px'  fill="#000000" xmlns="http://www.w3.org/2000/svg" xmlns:xlink="http://www.w3.org/1999/xlink" version="1.1" x="0px" y="0px" viewBox="0 0 48.707 50.582" enable-background="new 0 0 48.707 50.582" xml:space="preserve"><path d="M40.484,41.299c8.499-8.506,8.495-22.343-0.011-30.845c-4.119-4.121-9.596-6.392-15.421-6.392  c-5.825,0-11.301,2.269-15.417,6.39c-8.5,8.501-8.496,22.339,0.009,30.843c4.119,4.121,9.597,6.39,15.422,6.39  C30.89,47.685,36.366,45.416,40.484,41.299z M11.757,12.573c3.551-3.554,8.272-5.511,13.296-5.511c5.024,0,9.747,1.958,13.3,5.513  c7.336,7.333,7.34,19.267,0.01,26.603c-3.552,3.553-8.272,5.508-13.296,5.508c-5.024,0-9.748-1.957-13.301-5.512  C4.43,31.838,4.427,19.907,11.757,12.573z"></path><path d="M39.057,25.879c0-0.828-0.671-1.5-1.5-1.5l-11.868-0.002l-4.812-4.814c-0.586-0.586-1.535-0.585-2.121-0.001  c-0.586,0.586-0.586,1.536-0.002,2.122l5.24,5.244h0.002c0.271,0.277,0.648,0.449,1.067,0.449l12.493,0.002  C38.385,27.379,39.057,26.707,39.057,25.879z"></path></svg>