<svg height='100px' width='100px'  fill="#000000" xmlns="http://www.w3.org/2000/svg" xmlns:xlink="http://www.w3.org/1999/xlink" version="1.1" x="0px" y="0px" viewBox="0 0 48.707 50.582" enable-background="new 0 0 48.707 50.582" xml:space="preserve"><path d="M32.85,15.991l-7.775,7.771l-4.193-4.193c-0.586-0.586-1.534-0.586-2.12,0c-0.001,0.002-0.001,0.002-0.002,0.002  c0,0.002-0.001,0.002-0.003,0.002c-0.586,0.586-0.586,1.537,0,2.121l5.24,5.236c0.002,0.003,0.006,0.004,0.01,0.006  c0.003,0.003,0.003,0.008,0.006,0.01c0.293,0.293,0.677,0.439,1.06,0.439c0.385,0,0.768-0.146,1.062-0.439l8.839-8.833  c0.586-0.584,0.586-1.535,0-2.121C34.387,15.405,33.436,15.405,32.85,15.991z"></path><path d="M33.694,5.849c-2.688-1.158-5.606-1.777-8.624-1.777c-5.828,0-11.307,2.269-15.43,6.39  c-4.12,4.119-6.389,9.594-6.389,15.417C3.25,31.703,5.518,37.178,9.637,41.293c0,0,0,0,0.001,0c0,0.002,0,0.002,0,0.002  c0.076,0.076,0.162,0.142,0.24,0.218c4.091,3.972,9.462,6.165,15.177,6.165c2.186,0,4.322-0.318,6.354-0.936  c3.393-1.027,6.5-2.879,9.077-5.455c4.119-4.117,6.389-9.592,6.389-15.416c0-5.824-2.27-11.298-6.389-15.417  C38.502,8.47,36.197,6.927,33.694,5.849z M25.057,44.676c-5.023,0-9.747-1.955-13.298-5.504C8.206,35.621,6.251,30.9,6.251,25.877  c0.002-5.022,1.959-9.744,5.514-13.296c3.554-3.553,8.279-5.51,13.307-5.51c3.642,0,7.118,1.041,10.112,2.959  c1.135,0.727,2.206,1.568,3.182,2.545c3.553,3.55,5.51,8.272,5.51,13.294c-0.002,5.021-1.959,9.744-5.514,13.297  c-2.109,2.109-4.638,3.64-7.39,4.549C29.086,44.336,27.1,44.676,25.057,44.676z"></path></svg>