<svg height='100px' width='100px'  fill="#000000" xmlns="http://www.w3.org/2000/svg" xmlns:xlink="http://www.w3.org/1999/xlink" version="1.1" x="0px" y="0px" viewBox="0 0 48.707 50.582" enable-background="new 0 0 48.707 50.582" xml:space="preserve"><path d="M25.04,47.709c5.829,0,11.31-2.27,15.433-6.389s6.395-9.596,6.396-15.42c0.001-5.826-2.268-11.306-6.389-15.426  c-4.118-4.12-9.598-6.389-15.426-6.389c-5.826,0-11.305,2.269-15.427,6.386c-4.124,4.119-6.395,9.597-6.398,15.423  C3.228,31.721,5.495,37.199,9.615,41.32C13.734,45.44,19.213,47.709,25.04,47.709z M11.749,12.595  c3.554-3.553,8.28-5.508,13.306-5.508c5.027,0,9.752,1.957,13.305,5.51c3.555,3.554,5.511,8.279,5.51,13.303  c-0.002,5.024-1.961,9.747-5.517,13.3c-3.558,3.555-8.284,5.512-13.312,5.512c-5.026,0-9.751-1.957-13.305-5.512  c-3.553-3.554-5.51-8.277-5.507-13.302C6.231,20.874,8.191,16.149,11.749,12.595z"></path><path d="M23.864,26.836c0.004,0.004,0.01,0.006,0.015,0.01l0.105,0.105c0.293,0.293,0.677,0.438,1.06,0.438  c0.384,0,0.769-0.146,1.062-0.438c0.586-0.586,0.586-1.535,0-2.121l-5.241-5.24c-0.004-0.004-0.008-0.004-0.012-0.008l-3.705-3.705  c-0.586-0.585-1.535-0.585-2.121,0c-0.585,0.586-0.585,1.535,0,2.121L23.864,26.836z"></path></svg>