<svg height='100px' width='100px'  fill="#000000" xmlns="http://www.w3.org/2000/svg" xmlns:xlink="http://www.w3.org/1999/xlink" version="1.1" x="0px" y="0px" viewBox="0 0 48.707 50.582" enable-background="new 0 0 48.707 50.582" xml:space="preserve"><path d="M25.06,47.701c12.027,0,21.812-9.785,21.812-21.812S37.087,4.077,25.06,4.077c-12.026,0-21.811,9.785-21.811,21.812  S13.033,47.701,25.06,47.701z M25.06,7.077c10.373,0,18.812,8.439,18.812,18.812S35.433,44.701,25.06,44.701  c-10.372,0-18.812-8.439-18.812-18.812S14.688,7.077,25.06,7.077z"></path><path d="M16.218,36.225c0.384,0,0.768-0.146,1.061-0.439l8.394-8.395h6.808c0.828,0,1.5-0.672,1.5-1.5c0-0.829-0.672-1.5-1.5-1.5  h-7.405c-0.374-0.007-0.814,0.17-1.08,0.436l-8.838,8.838c-0.585,0.586-0.585,1.535,0,2.121  C15.451,36.078,15.834,36.225,16.218,36.225S15.834,36.225,16.218,36.225z"></path></svg>