<svg height='100px' width='100px'  fill="#000000" xmlns="http://www.w3.org/2000/svg" xmlns:xlink="http://www.w3.org/1999/xlink" version="1.1" x="0px" y="0px" viewBox="0 0 48.707 50.582" enable-background="new 0 0 48.707 50.582" xml:space="preserve"><path d="M25.032,47.729c12.032,0,21.823-9.787,21.825-21.82c0.001-5.828-2.267-11.307-6.387-15.427  c-4.119-4.123-9.598-6.392-15.431-6.392c-12.031,0-21.823,9.787-21.827,21.819C3.212,37.938,13,47.727,25.032,47.729z M25.046,7.089  c5.024,0,9.75,1.957,13.303,5.513c3.554,3.555,5.51,8.28,5.509,13.307c-0.002,10.379-8.445,18.82-18.825,18.82  C14.656,44.727,6.213,36.285,6.214,25.91C6.217,15.532,14.664,7.089,25.046,7.089z"></path><path d="M25.032,40.084L25.032,40.084c0.828,0,1.5-0.672,1.5-1.5l0.004-5.242c0-0.004,0.001-0.008,0.001-0.012l0.003-6.805v-0.443  l0,0v-0.17c0-0.002-0.001-0.004-0.001-0.006s0.001-0.004,0.001-0.006l0.001-7.416c0-0.828-0.671-1.5-1.5-1.5  c-0.828,0-1.5,0.672-1.5,1.5L23.541,25.9c0,0.002,0,0.004,0,0.006s0,0.002,0,0.004v0.613l-0.008,12.059  C23.533,39.41,24.203,40.084,25.032,40.084z"></path></svg>