<svg height='100px' width='100px'  fill="#000000" xmlns="http://www.w3.org/2000/svg" xmlns:xlink="http://www.w3.org/1999/xlink" version="1.1" x="0px" y="0px" viewBox="0 0 48.707 50.582" enable-background="new 0 0 48.707 50.582" xml:space="preserve"><path d="M25.061,4.079c-12.027,0-21.812,9.785-21.812,21.812c0,12.027,9.785,21.812,21.812,21.812s21.812-9.785,21.812-21.812  C46.872,13.864,37.088,4.079,25.061,4.079z M25.061,44.703c-10.373,0-18.812-8.439-18.812-18.812  c0-10.373,8.439-18.812,18.812-18.812s18.812,8.439,18.812,18.812C43.872,36.264,35.434,44.703,25.061,44.703z"></path><path d="M26.242,24.954c-0.002-0.002-0.004-0.002-0.006-0.004l-0.113-0.113c-0.586-0.586-1.535-0.586-2.121,0  c-0.586,0.586-0.586,1.535,0,2.121l5.242,5.241c0.002,0.002,0.006,0.004,0.008,0.006l3.708,3.708  c0.293,0.293,0.677,0.438,1.062,0.438c0.384,0,0.768-0.146,1.061-0.438c0.586-0.587,0.586-1.535,0-2.121L26.242,24.954z"></path></svg>