<svg height='100px' width='100px'  fill="#000000" xmlns="http://www.w3.org/2000/svg" xmlns:xlink="http://www.w3.org/1999/xlink" version="1.1" x="0px" y="0px" viewBox="0 0 48.707 50.582" enable-background="new 0 0 48.707 50.582" xml:space="preserve"><path d="M40.479,10.448c-4.117-4.117-9.593-6.386-15.421-6.386C13.035,4.064,3.254,13.85,3.254,25.875  C3.252,31.701,5.52,37.178,9.638,41.297c4.117,4.119,9.592,6.389,15.416,6.389c0,0,0.004,0,0.005,0  c12.024-0.004,21.806-9.791,21.804-21.816C46.863,20.043,44.597,14.567,40.479,10.448z M25.058,44.686h-0.004  c-5.021,0-9.744-1.955-13.294-5.509C8.207,35.623,6.252,30.9,6.254,25.875c0-10.372,8.436-18.812,18.808-18.813  c5.023,0,9.745,1.956,13.296,5.508c3.552,3.552,5.506,8.275,5.505,13.3C43.864,36.242,35.428,44.682,25.058,44.686z"></path><path d="M23.565,25.914c0.006,0.162,0.037,0.314,0.089,0.457c0.016,0.045,0.032,0.086,0.053,0.129  c0.062,0.131,0.144,0.252,0.238,0.359c0.021,0.023,0.029,0.057,0.053,0.08l8.833,8.834c0.293,0.293,0.678,0.438,1.062,0.438  s0.769-0.145,1.062-0.438c0.586-0.586,0.586-1.535,0-2.121l-8.394-8.393l0.003-6.806c0-0.83-0.671-1.502-1.499-1.502  c-0.001,0-0.001,0-0.001,0c-0.828,0-1.5,0.672-1.5,1.5l-0.003,7.412v0.002C23.56,25.884,23.565,25.898,23.565,25.914z"></path></svg>