<svg height='100px' width='100px'  fill="#000000" xmlns="http://www.w3.org/2000/svg" xmlns:xlink="http://www.w3.org/1999/xlink" version="1.1" x="0px" y="0px" viewBox="0 0 48.707 50.582" enable-background="new 0 0 48.707 50.582" xml:space="preserve"><path d="M25.062,4.077c-12.028,0-21.813,9.784-21.813,21.812c0,12.026,9.786,21.812,21.813,21.812  c12.026,0,21.812-9.785,21.812-21.812C46.875,13.86,37.09,4.077,25.062,4.077z M25.062,44.701c-10.375,0-18.813-8.439-18.813-18.812  c0-10.372,8.439-18.812,18.813-18.812c10.373,0,18.812,8.439,18.812,18.812C43.875,36.262,35.436,44.701,25.062,44.701z"></path><path d="M25.059,24.374c-0.829,0-1.5,0.672-1.5,1.5c0,0.004,0.001,0.008,0.001,0.012s-0.001,0.006-0.001,0.01v7.41  c0,0.828,0.671,1.5,1.5,1.5c0.828,0,1.5-0.672,1.5-1.5v-5.932h11c0.828,0,1.5-0.672,1.5-1.5c0-0.828-0.672-1.5-1.5-1.5H25.059z"></path></svg>