<svg height='100px' width='100px'  fill="#000000" xmlns="http://www.w3.org/2000/svg" xmlns:xlink="http://www.w3.org/1999/xlink" version="1.1" x="0px" y="0px" viewBox="0 0 48.707 50.582" enable-background="new 0 0 48.707 50.582" xml:space="preserve"><path d="M25.055,4.078c-12.023,0-21.806,9.783-21.806,21.809C3.248,37.912,13.03,47.699,25.057,47.703h0.004  c12.024,0,21.809-9.783,21.809-21.809C46.869,13.867,37.083,4.08,25.055,4.078z M25.061,44.703v1.5l-0.004-1.5  C14.685,44.699,6.247,36.26,6.248,25.887c0-5.025,1.956-9.75,5.509-13.3c3.552-3.554,8.275-5.51,13.3-5.51  c10.373,0.002,18.812,8.443,18.812,18.817C43.869,36.266,35.432,44.703,25.061,44.703z"></path><path d="M26.555,25.896c0-0.83-0.672-1.5-1.5-1.5c-0.83,0-1.5,0.672-1.5,1.5l0.002,7.412v5.254c0,0.828,0.672,1.5,1.5,1.5  c0.828,0,1.5-0.672,1.5-1.5V26.064c0-0.008-0.002-0.014-0.002-0.02V25.896z"></path></svg>