<svg height='100px' width='100px'  fill="#000000" xmlns="http://www.w3.org/2000/svg" xmlns:xlink="http://www.w3.org/1999/xlink" version="1.1" x="0px" y="0px" viewBox="0 0 48.707 50.582" enable-background="new 0 0 48.707 50.582" xml:space="preserve"><path d="M25.058,4.079c-12.026,0-21.81,9.784-21.81,21.81c0,12.027,9.783,21.812,21.81,21.812c12.028,0,21.812-9.785,21.812-21.812  C46.87,13.862,37.085,4.079,25.058,4.079z M25.058,44.701c-10.372,0-18.811-8.439-18.811-18.812  c0-10.372,8.438-18.811,18.811-18.811c10.374,0,18.812,8.438,18.812,18.811C43.87,36.262,35.431,44.701,25.058,44.701z"></path><path d="M26.123,24.834c-0.002-0.002-0.005-0.002-0.007-0.004c-0.002-0.002-0.002-0.004-0.004-0.006L26,24.711  c-0.002-0.002-0.002-0.004-0.004-0.006l-8.838-8.838c-0.586-0.585-1.534-0.585-2.121,0c-0.585,0.586-0.585,1.535,0,2.121L18.75,21.7  c0.001,0.001,0.001,0.002,0.002,0.003l5.24,5.243c0.002,0.002,0.005,0.002,0.007,0.004s0.002,0.004,0.004,0.006l5.241,5.242  c0.294,0.293,0.678,0.439,1.062,0.439s0.769-0.146,1.062-0.439c0.586-0.586,0.586-1.535,0-2.121L26.123,24.834z"></path></svg>