<svg height='100px' width='100px'  fill="#000000" xmlns="http://www.w3.org/2000/svg" xmlns:xlink="http://www.w3.org/1999/xlink" version="1.1" x="0px" y="0px" viewBox="0 0 48.707 50.582" enable-background="new 0 0 48.707 50.582" xml:space="preserve"><path d="M25.059,47.701c12.026,0,21.812-9.785,21.812-21.812c0-12.026-9.785-21.811-21.812-21.811  c-12.027,0-21.812,9.785-21.812,21.811C3.247,37.916,13.031,47.701,25.059,47.701z M25.059,7.076  c10.373,0,18.812,8.438,18.812,18.812c0,10.373-8.438,18.812-18.812,18.812S6.246,36.262,6.246,25.889  C6.246,15.517,14.686,7.076,25.059,7.076z"></path><path d="M16.222,36.23c0.384,0,0.768-0.146,1.061-0.439l6.277-6.277v3.793c0,0.828,0.672,1.5,1.5,1.5c0.828,0,1.5-0.672,1.5-1.5  v-7.412c-0.01-1.298-1.631-1.994-2.561-1.062l-8.838,8.837c-0.585,0.586-0.585,1.535,0,2.121  C15.455,36.084,15.839,36.23,16.222,36.23S15.839,36.23,16.222,36.23z"></path></svg>