<svg height='100px' width='100px'  fill="#000000" xmlns="http://www.w3.org/2000/svg" xmlns:xlink="http://www.w3.org/1999/xlink" version="1.1" x="0px" y="0px" viewBox="0 0 100 100" enable-background="new 0 0 100 100" xml:space="preserve"><g><path d="M49.999,21.583c-18.355,0-33.289,14.934-33.289,33.289s14.934,33.289,33.289,33.289s33.288-14.933,33.288-33.289   S68.354,21.583,49.999,21.583z M49.999,85.161c-16.701,0-30.289-13.587-30.289-30.289c0-16.702,13.588-30.289,30.289-30.289   s30.288,13.587,30.288,30.289C80.287,71.574,66.7,85.161,49.999,85.161z"></path><path d="M49.999,34.848c0.828,0,1.5-0.671,1.5-1.5v-5.291c0-0.829-0.672-1.5-1.5-1.5s-1.5,0.671-1.5,1.5v5.291   C48.499,34.177,49.171,34.848,49.999,34.848z"></path><path d="M49.999,74.896c-0.828,0-1.5,0.671-1.5,1.5v5.291c0,0.829,0.672,1.5,1.5,1.5s1.5-0.671,1.5-1.5v-5.291   C51.499,75.568,50.827,74.896,49.999,74.896z"></path><path d="M65.219,41.153c0.384,0,0.768-0.146,1.061-0.439l3.74-3.741c0.586-0.586,0.586-1.536,0-2.122   c-0.586-0.585-1.535-0.585-2.121,0l-3.74,3.741c-0.586,0.586-0.586,1.536,0,2.122C64.451,41.006,64.835,41.153,65.219,41.153z"></path><path d="M33.718,69.032l-3.74,3.741c-0.586,0.586-0.586,1.536,0,2.122c0.293,0.292,0.677,0.439,1.061,0.439   s0.768-0.146,1.061-0.439l3.74-3.741c0.586-0.586,0.586-1.536,0-2.122C35.253,68.446,34.304,68.446,33.718,69.032z"></path><path d="M70.022,54.873c0,0.829,0.672,1.5,1.5,1.5h5.291c0.828,0,1.5-0.671,1.5-1.5s-0.672-1.5-1.5-1.5h-5.291   C70.694,53.373,70.022,54.044,70.022,54.873z"></path><path d="M28.475,53.373h-5.291c-0.828,0-1.5,0.671-1.5,1.5s0.672,1.5,1.5,1.5h5.291c0.828,0,1.5-0.671,1.5-1.5   S29.303,53.373,28.475,53.373z"></path><path d="M66.279,69.032c-0.586-0.586-1.535-0.585-2.121,0c-0.586,0.586-0.586,1.536,0,2.122l3.74,3.741   c0.293,0.293,0.677,0.439,1.061,0.439s0.768-0.146,1.061-0.439c0.586-0.586,0.586-1.536,0-2.122L66.279,69.032z"></path><path d="M32.099,34.851c-0.586-0.586-1.535-0.585-2.121,0c-0.586,0.586-0.586,1.536,0,2.122l3.74,3.741   c0.293,0.293,0.677,0.439,1.061,0.439s0.768-0.146,1.061-0.439c0.586-0.586,0.586-1.536,0-2.122L32.099,34.851z"></path><path d="M49.999,56.377h14.467c0.828,0,1.5-0.671,1.5-1.5s-0.672-1.5-1.5-1.5H51.499V38.901c0-0.829-0.672-1.5-1.5-1.5   s-1.5,0.671-1.5,1.5v15.976C48.499,55.706,49.171,56.377,49.999,56.377z"></path><path d="M88.878,14.591l-5.957-4.998c-2.502-2.1-5.673-3.104-8.927-2.815c-3.254,0.285-6.203,1.819-8.303,4.322   c-0.532,0.634-0.449,1.581,0.186,2.113l7.523,6.313l-1.456,1.736c-5.047-3.306-10.877-5.504-17.149-6.255v-3.333h3.431   c0.828,0,1.5-0.671,1.5-1.5V5c0-0.829-0.672-1.5-1.5-1.5H41.771c-0.828,0-1.5,0.671-1.5,1.5v5.174c0,0.829,0.672,1.5,1.5,1.5h3.431   v3.333c-6.271,0.75-12.1,2.948-17.146,6.253L26.6,19.525l7.523-6.313c0.635-0.532,0.718-1.479,0.186-2.113   c-2.1-2.503-5.049-4.038-8.303-4.322C22.74,6.49,19.58,7.492,17.079,9.592l-5.957,4.998c-2.503,2.1-4.037,5.048-4.322,8.303   s0.715,6.425,2.814,8.927c0.297,0.354,0.722,0.536,1.15,0.536c0.34,0,0.683-0.115,0.963-0.351l7.524-6.313l1.461,1.741   c-6.737,7.186-10.875,16.836-10.875,27.44c0,10.332,3.924,19.764,10.357,26.888l-4.717,5.621c-1.967,2.345-1.659,5.853,0.686,7.82   c1.009,0.847,2.257,1.299,3.558,1.299c0.164,0,0.329-0.007,0.494-0.022c1.477-0.129,2.814-0.826,3.768-1.961l4.716-5.62   c6.179,3.882,13.48,6.138,21.301,6.138c7.821,0,15.121-2.255,21.3-6.137l4.716,5.619c0.953,1.136,2.291,1.833,3.769,1.962   c0.165,0.015,0.329,0.022,0.493,0.022c1.302,0,2.55-0.453,3.558-1.299c2.345-1.967,2.652-5.475,0.686-7.82l-4.716-5.62   c6.433-7.124,10.358-16.556,10.358-26.888c0-10.603-4.138-20.253-10.874-27.439l1.461-1.742l7.524,6.313   c0.28,0.236,0.623,0.351,0.963,0.351c0.429,0,0.854-0.182,1.15-0.536c2.1-2.502,3.1-5.673,2.814-8.927S91.381,16.69,88.878,14.591z    M11.041,28.665c-0.982-1.65-1.424-3.561-1.253-5.511c0.215-2.456,1.374-4.681,3.262-6.266l5.957-4.998   c1.678-1.408,3.753-2.16,5.917-2.16c0.272,0,0.546,0.012,0.82,0.036c1.95,0.171,3.756,0.937,5.21,2.19L11.041,28.665z    M78.45,23.764l-1.286,1.533c-0.455-0.422-0.902-0.816-1.347-1.189c-0.444-0.374-0.91-0.745-1.405-1.121l1.286-1.533L78.45,23.764z    M43.271,6.5h13.454v2.174h-3.431h-6.593h-3.431V6.5z M48.202,14.756v-3.082h3.593v3.082c-0.577-0.028-1.124-0.04-1.671-0.042   c-0.042,0-0.083-0.003-0.125-0.003c0,0,0,0,0,0C49.411,14.71,48.823,14.726,48.202,14.756z M22.836,25.296l-1.286-1.533l2.753-2.31   l1.285,1.533c-0.495,0.375-0.96,0.747-1.404,1.12C23.739,24.479,23.293,24.873,22.836,25.296z M26.19,87.218l-4.507,5.371   c-0.438,0.522-1.053,0.842-1.73,0.901c-0.686,0.058-1.34-0.15-1.862-0.587c-1.077-0.904-1.219-2.517-0.314-3.594l4.513-5.378   c0.167,0.16,0.345,0.305,0.515,0.462c0.189,0.174,0.381,0.344,0.572,0.514C24.288,85.719,25.221,86.501,26.19,87.218z    M81.905,92.903c-0.521,0.437-1.191,0.644-1.86,0.587c-0.679-0.06-1.294-0.379-1.731-0.902l-4.507-5.37   c0.968-0.715,1.897-1.495,2.806-2.304c0.197-0.175,0.394-0.349,0.587-0.527c0.167-0.155,0.343-0.298,0.508-0.456l4.513,5.377   C83.125,90.387,82.983,91.999,81.905,92.903z M76.359,81.039c-0.097,0.097-0.195,0.192-0.293,0.288   c-0.356,0.351-0.715,0.698-1.085,1.035c-0.011,0.01-0.023,0.02-0.034,0.03c-6.6,5.989-15.355,9.643-24.948,9.643   c-9.599,0-18.359-3.658-24.96-9.653c-0.006-0.006-0.012-0.011-0.018-0.016c-0.378-0.344-0.745-0.698-1.109-1.057   c-0.087-0.086-0.175-0.17-0.261-0.257c-6.679-6.722-10.814-15.976-10.814-26.178c0-12.164,5.875-22.981,14.935-29.765   c0.007-0.005,0.015-0.011,0.022-0.016c5.419-4.05,11.977-6.649,19.097-7.241c0.518-0.043,1.008-0.076,1.483-0.099   c0.539-0.023,1.079-0.041,1.624-0.041c0.543,0,1.082,0.018,1.619,0.041c0.479,0.023,0.973,0.056,1.495,0.099   c19.038,1.589,34.048,17.58,34.048,37.022C87.161,65.069,83.031,74.317,76.359,81.039z M88.959,28.666l-9.957-8.355l-2.525-2.119   c0,0-0.001,0-0.001-0.001l-7.43-6.235c1.454-1.254,3.26-2.02,5.21-2.19c2.457-0.211,4.849,0.54,6.737,2.125l5.957,4.998   c1.888,1.585,3.047,3.81,3.262,6.266C90.383,25.105,89.941,27.016,88.959,28.666z"></path></g></svg>