<svg height='100px' width='100px'  fill="#000000" xmlns="http://www.w3.org/2000/svg" xmlns:xlink="http://www.w3.org/1999/xlink" version="1.1" x="0px" y="0px" viewBox="0 0 100.005 80.322" enable-background="new 0 0 100.005 80.322" xml:space="preserve"><path d="M99.76,70.853l-8.068-8.068c-0.235-0.235-0.55-0.305-0.857-0.178c-0.307,0.127-0.469,0.426-0.469,0.759v5.268h-9V39.854  c0-1.291-0.665-2.221-1.956-2.221H63.987c-1.291,0-2.621,0.929-2.621,2.221v28.779h-2v-38.83c0-1.291-1.276-2.17-2.568-2.17H41.376  c-0.62,0-1.051,0.162-1.489,0.601c-0.439,0.439-0.52,0.949-0.52,1.569v38.83h-3V22.265c0-1.291-0.888-2.632-2.179-2.632H18.764  c-0.62,0-1.245,0.393-1.683,0.832c-0.439,0.439-0.715,1.18-0.715,1.8v46.368h-5v-59h5.59c0.332,0,0.631-0.158,0.759-0.465  c0.127-0.307,0.057-0.639-0.178-0.874L9.469,0.238c-0.321-0.321-0.84-0.315-1.161,0.005L0.24,8.313  C0.006,8.548-0.065,8.86,0.063,9.167C0.19,9.474,0.489,9.633,0.821,9.633h5.545v61.974c0,1.291,1.057,2.026,2.348,2.026h81.652  v5.868c0,0.332,0.162,0.631,0.469,0.759c0.307,0.127,0.641,0.057,0.876-0.178l8.058-8.068C100.09,71.693,100.08,71.173,99.76,70.853  z M31.366,68.633h-10v-44h10V68.633z M54.366,68.633h-10v-36h10V68.633z M76.366,68.633h-10v-26h10V68.633z"></path></svg>