<svg height='100px' width='100px'  fill="#000000" xmlns="http://www.w3.org/2000/svg" data-name="Layer 1" viewBox="0 0 160 160" x="0px" y="0px"><title>Artboard 11</title><path d="M64.58,65V95a2.25,2.25,0,1,0,4.5,0V88.88a2.26,2.26,0,0,0,.34-.28l1.33-1.33,8.42,9.26a2.25,2.25,0,0,0,3.33-3l-8.56-9.42,4.49-4.49a2.25,2.25,0,0,0-3.18-3.18l-6.17,6.17V65a2.25,2.25,0,1,0-4.5,0Z"></path><path d="M98.92,79.59a7.58,7.58,0,0,0-8.68-2.23,9.29,9.29,0,0,0-1.15.49A2.24,2.24,0,0,0,84.91,79V95a2.25,2.25,0,0,0,4.5,0V84c0-.9,1-1.93,2.33-2.39a3.27,3.27,0,0,1,3.68.8,2.25,2.25,0,0,0,3.51-2.82Z"></path><path d="M80,17.75A62.25,62.25,0,1,0,142.25,80,62.32,62.32,0,0,0,80,17.75Zm0,120A57.75,57.75,0,1,1,137.75,80,57.82,57.82,0,0,1,80,137.75Z"></path><path d="M40.85,97.2a42.53,42.53,0,0,1-2.12-6,2.25,2.25,0,0,0-4.35,1.17A47.2,47.2,0,0,0,36.73,99a2.25,2.25,0,0,0,4.12-1.81Z"></path><path d="M35.55,87.39a2.25,2.25,0,0,0,2-2.49,43.11,43.11,0,0,1-.28-4.9q0-.74,0-1.48a2.25,2.25,0,0,0-2.17-2.33,2.23,2.23,0,0,0-2.33,2.17q0,.82,0,1.64a47.61,47.61,0,0,0,.31,5.41,2.25,2.25,0,0,0,2.23,2Z"></path><path d="M35.35,74a2.29,2.29,0,0,0,.41,0A2.25,2.25,0,0,0,38,72.16,42.87,42.87,0,0,1,39.6,66a2.25,2.25,0,1,0-4.25-1.47,47.3,47.3,0,0,0-1.8,6.83A2.25,2.25,0,0,0,35.35,74Z"></path><path d="M39.1,61.07a2.25,2.25,0,0,0,3-.95,42.66,42.66,0,0,1,3.39-5.41A2.25,2.25,0,1,0,41.9,52a47.35,47.35,0,0,0-3.75,6A2.25,2.25,0,0,0,39.1,61.07Z"></path><path d="M48.08,50.53a2.24,2.24,0,0,0,1.58-.65l.11-.11a43.29,43.29,0,0,1,4.84-4.17A2.25,2.25,0,1,0,51.93,42a47.79,47.79,0,0,0-5.37,4.63l-.06.06a2.25,2.25,0,0,0,1.58,3.85Z"></path><path d="M122.88,66.13a2.25,2.25,0,0,0-1.59,2.76,43.15,43.15,0,0,1,1.19,6.28,2.25,2.25,0,0,0,2.23,2H125a2.25,2.25,0,0,0,2-2.49,47.47,47.47,0,0,0-1.31-6.94A2.25,2.25,0,0,0,122.88,66.13Z"></path><path d="M116.19,57.22a42.51,42.51,0,0,1,3,5.64,2.25,2.25,0,1,0,4.12-1.8A47,47,0,0,0,120,54.82a2.25,2.25,0,0,0-3.81,2.4Z"></path><path d="M97.08,40.8a42.48,42.48,0,0,1,5.65,3,2.25,2.25,0,0,0,2.4-3.81,47.1,47.1,0,0,0-6.25-3.3,2.25,2.25,0,0,0-1.8,4.13Z"></path><path d="M110.23,49.77c.75.75,1.47,1.53,2.16,2.32a2.25,2.25,0,0,0,3.4-2.94c-.76-.87-1.56-1.74-2.38-2.56s-1.72-1.66-2.61-2.43a2.25,2.25,0,0,0-2.94,3.41C108.67,48.27,109.47,49,110.23,49.77Z"></path><path d="M71.62,38A2.24,2.24,0,0,0,72,38a43,43,0,0,1,6.35-.71,2.25,2.25,0,0,0-.17-4.5,47.49,47.49,0,0,0-7,.79A2.25,2.25,0,0,0,71.62,38Z"></path><path d="M65.87,39.64a2.25,2.25,0,1,0-1.48-4.25,47.13,47.13,0,0,0-6.47,2.82,2.25,2.25,0,1,0,2.1,4A42.71,42.71,0,0,1,65.87,39.64Z"></path><path d="M117.59,104.86a2.25,2.25,0,0,0-3.15.47,43.33,43.33,0,0,1-4.17,4.85,2.25,2.25,0,0,0,3.19,3.18,47.88,47.88,0,0,0,4.6-5.35A2.25,2.25,0,0,0,117.59,104.86Z"></path><path d="M94.19,120.34A42.79,42.79,0,0,1,88,122a2.25,2.25,0,1,0,.84,4.42,47.29,47.29,0,0,0,6.82-1.83,2.25,2.25,0,1,0-1.49-4.25Z"></path><path d="M43.85,102.83a2.25,2.25,0,1,0-3.8,2.41,47.33,47.33,0,0,0,4.21,5.67,2.25,2.25,0,0,0,3.4-2.95A42.75,42.75,0,0,1,43.85,102.83Z"></path><path d="M125.05,79.38a2.28,2.28,0,0,0-2.33,2.17A43.15,43.15,0,0,1,122,87.9a2.25,2.25,0,1,0,4.42.83,47.74,47.74,0,0,0,.78-7A2.25,2.25,0,0,0,125.05,79.38Z"></path><path d="M123.24,92.69a2.25,2.25,0,0,0-2.86,1.39,42.68,42.68,0,0,1-2.54,5.86,2.25,2.25,0,1,0,4,2.1,47.18,47.18,0,0,0,2.81-6.48A2.25,2.25,0,0,0,123.24,92.69Z"></path><path d="M105.44,114.36a42.56,42.56,0,0,1-5.4,3.41,2.25,2.25,0,1,0,2.11,4,47.05,47.05,0,0,0,6-3.77,2.25,2.25,0,1,0-2.68-3.61Z"></path><path d="M57.33,116.26a42.82,42.82,0,0,1-5.14-3.79,2.25,2.25,0,1,0-2.93,3.41,47.31,47.31,0,0,0,5.68,4.19,2.25,2.25,0,0,0,2.39-3.81Z"></path><path d="M91.63,38.77a2.25,2.25,0,0,0,.58-4.42A47.53,47.53,0,0,0,85.27,33a2.25,2.25,0,1,0-.5,4.47A43,43,0,0,1,91,38.69,2.25,2.25,0,0,0,91.63,38.77Z"></path><path d="M69,121.32a42.66,42.66,0,0,1-6-2.09,2.25,2.25,0,0,0-1.79,4.13,47.21,47.21,0,0,0,6.67,2.31A2.25,2.25,0,0,0,69,121.32Z"></path><path d="M81.68,122.72a43.53,43.53,0,0,1-6.39-.23A2.25,2.25,0,0,0,74.8,127a47.71,47.71,0,0,0,5.2.29q.93,0,1.85,0a2.25,2.25,0,0,0-.18-4.5Z"></path></svg>