<svg height='100px' width='100px'  fill="#000000" xmlns="http://www.w3.org/2000/svg" data-name="Layer 1" viewBox="0 0 100 100" x="0px" y="0px"><title>92all</title><path d="M33.67,58.18a7.5,7.5,0,1,0-7,12,7.58,7.58,0,0,0,1,.07,7.49,7.49,0,0,0,7-4.78l9,1.43a7.47,7.47,0,0,0,5.21,3.24,7.58,7.58,0,0,0,1,.07,7.49,7.49,0,0,0,7-10.1l6.28-5.8a7.46,7.46,0,0,0,2.82,1,7.58,7.58,0,0,0,1,.07,7.5,7.5,0,0,0,6.36-11.45l4.27-6.27A7.5,7.5,0,1,0,72,29.34h0a7.5,7.5,0,0,0,2.9,7L71.3,41.67A7.49,7.49,0,0,0,61,52.26L55.32,57.5a7.48,7.48,0,0,0-12.84,6.14l-7.28-1.16A7.44,7.44,0,0,0,33.67,58.18Zm-1.5,5.15a4.5,4.5,0,1,1-3.86-5.06A4.51,4.51,0,0,1,32.16,63.33ZM75,29.74a4.5,4.5,0,1,1,3.86,5.06A4.51,4.51,0,0,1,75,29.74ZM62.58,47.24a4.5,4.5,0,1,1,.88,3.33A4.51,4.51,0,0,1,62.58,47.24ZM45.45,62.09a4.5,4.5,0,1,1,3.86,5.06A4.51,4.51,0,0,1,45.45,62.09Z"></path><polygon points="10.52 17.77 10.52 82.23 89.48 82.23 89.48 79.23 13.52 79.23 13.52 17.77 10.52 17.77"></polygon></svg>