<svg height='100px' width='100px'  fill="#000000" xmlns:x="http://ns.adobe.com/Extensibility/1.0/" xmlns:i="http://ns.adobe.com/AdobeIllustrator/10.0/" xmlns:graph="http://ns.adobe.com/Graphs/1.0/" xmlns="http://www.w3.org/2000/svg" xmlns:xlink="http://www.w3.org/1999/xlink" version="1.1" x="0px" y="0px" viewBox="0 0 64 64" enable-background="new 0 0 64 64" xml:space="preserve"><metadata><sfw xmlns="http://ns.adobe.com/SaveForWeb/1.0/"><slices></slices><sliceSourceBounds y="-8160" x="-8165" width="16389" height="16384" bottomLeftOrigin="true"></sliceSourceBounds><optimizationSettings><targetSettings targetSettingsID="0" fileFormat="PNG24Format"><PNG24Format transparency="true" filtered="false" interlaced="false" noMatteColor="false" matteColor="#FFFFFF"></PNG24Format></targetSettings></optimizationSettings></sfw></metadata><g><path d="M39.001,36.026C39.016,40.977,43.046,45,48,45s8.984-4.023,8.999-8.974c0-0.004,0-0.008,0-0.012   C56.999,36.01,57,36.005,57,36c0-0.064-0.025-0.121-0.037-0.183c-0.012-0.062-0.01-0.127-0.034-0.188l-0.007-0.018l-0.001-0.001   l-7.992-19.982c-0.001-0.003-0.004-0.006-0.006-0.009c-0.007-0.017-0.019-0.029-0.026-0.045c-0.044-0.091-0.099-0.173-0.165-0.246   c-0.025-0.027-0.052-0.049-0.08-0.073c-0.062-0.055-0.13-0.101-0.205-0.138c-0.032-0.017-0.062-0.034-0.097-0.046   C48.239,15.029,48.123,15,48,15H36.898C36.5,13.044,34.956,11.5,33,11.101V8c0-0.552-0.448-1-1-1s-1,0.448-1,1v3.101   C29.044,11.5,27.5,13.044,27.101,15H16c-0.123,0-0.239,0.029-0.35,0.071c-0.034,0.013-0.064,0.03-0.097,0.046   c-0.075,0.038-0.143,0.083-0.206,0.139c-0.027,0.024-0.054,0.045-0.079,0.072c-0.067,0.073-0.123,0.155-0.167,0.247   c-0.007,0.016-0.019,0.027-0.025,0.043c-0.001,0.003-0.004,0.006-0.006,0.01L7.079,35.61l0,0l-0.007,0.019   c-0.025,0.063-0.023,0.129-0.035,0.193C7.025,35.882,7,35.937,7,36c0,0.005,0.001,0.01,0.001,0.015c0,0.004,0,0.008,0,0.013   C7.016,40.978,11.047,45,16,45s8.983-4.022,8.999-8.973c0-0.005,0-0.009,0-0.014C24.999,36.01,25,36.005,25,36   c0-0.062-0.024-0.117-0.036-0.176c-0.012-0.065-0.01-0.131-0.036-0.195l-0.007-0.019l0,0L17.478,17h9.624   c0.399,1.956,1.943,3.5,3.899,3.899V53H16c-0.552,0-1,0.447-1,1s0.448,1,1,1h32c0.553,0,1-0.447,1-1s-0.447-1-1-1H33V20.899   c1.956-0.399,3.5-1.943,3.898-3.899h9.624l-7.443,18.61c-0.001,0-0.001,0-0.001,0.001l-0.007,0.018   c-0.025,0.062-0.023,0.127-0.035,0.19C39.025,35.88,39,35.936,39,36c0,0.005,0.001,0.01,0.001,0.015   C39.001,36.019,39.001,36.022,39.001,36.026z M48,43c-3.521,0-6.442-2.612-6.929-6h13.857C54.442,40.388,51.521,43,48,43z    M41.478,35L48,18.692L54.522,35H41.478z M16,18.692L22.523,35H9.477L16,18.692z M16,43c-3.521,0-6.442-2.612-6.929-6h13.857   C22.442,40.388,19.521,43,16,43z M32,19c-1.654,0-3-1.346-3-3s1.346-3,3-3s3,1.346,3,3S33.654,19,32,19z"></path></g></svg>