<svg height='100px' width='100px'  fill="#000000" xmlns="http://www.w3.org/2000/svg" xmlns:xlink="http://www.w3.org/1999/xlink" version="1.1" x="0px" y="0px" viewBox="0 0 64 64" style="enable-background:new 0 0 64 64;" xml:space="preserve"><path d="M59,14.083L59.847,9H61c1.103,0,2-0.897,2-2V3c0-1.103-0.897-2-2-2H3C1.897,1,1,1.897,1,3v4c0,1.103,0.897,2,2,2h1.153  L5,14.083V55c-1.103,0-2,0.897-2,2v4H1v2h62v-2h-2v-4c0-1.103-0.897-2-2-2V14.083z M51,55V19h2v36H51z M43,57v4h-2v-4  c0-1.103-0.897-2-2-2V14.083L39.847,9h4.306L45,14.083V55C43.897,55,43,55.897,43,57z M7,16c0-0.552,0.449-1,1-1s1,0.448,1,1  s-0.449,1-1,1S7,16.552,7,16z M17,16c0,0.552-0.449,1-1,1s-1-0.448-1-1s0.449-1,1-1S17,15.448,17,16z M13,16c0,0.552-0.449,1-1,1  s-1-0.448-1-1s0.449-1,1-1S13,15.448,13,16z M13,19v36h-2V19H13z M15,19h2.012L17,55h-2V19z M19,55V14.083L19.847,9h4.306L25,14.083  V55c-1.103,0-2,0.897-2,2v4h-2v-4C21,55.897,20.103,55,19,55z M35,55V19h2.012L37,55H35z M37,16c0,0.552-0.449,1-1,1s-1-0.448-1-1  s0.449-1,1-1S37,15.448,37,16z M33,16c0,0.552-0.449,1-1,1s-1-0.448-1-1s0.449-1,1-1S33,15.448,33,16z M29,16c0,0.552-0.449,1-1,1  s-1-0.448-1-1s0.449-1,1-1S29,15.448,29,16z M27,19h2v36h-2V19z M31,19h2v36h-2V19z M37.153,13H26.836l-0.658-4H37.82L37.153,13z   M25,57h14v4H25V57z M53,16c0,0.552-0.449,1-1,1s-1-0.448-1-1s0.449-1,1-1S53,15.448,53,16z M49,16c0,0.552-0.449,1-1,1  s-1-0.448-1-1s0.449-1,1-1S49,15.448,49,16z M47,19h2v36h-2V19z M55,16c0-0.552,0.449-1,1-1s1,0.448,1,1s-0.449,1-1,1  S55,16.552,55,16z M57.153,13H46.836l-0.658-4H57.82L57.153,13z M3,3h58l0.001,4H3V3z M17.82,9l-0.667,4H6.836L6.178,9H17.82z M7,19  h2v36H7V19z M5,57h14v4H5V57z M45,61v-4h14v4H45z M55,55V19h2.012L57,55H55z"></path></svg>