<svg height='100px' width='100px'  fill="#000000" xmlns:dc="http://purl.org/dc/elements/1.1/" xmlns:cc="http://creativecommons.org/ns#" xmlns:rdf="http://www.w3.org/1999/02/22-rdf-syntax-ns#" xmlns:svg="http://www.w3.org/2000/svg" xmlns="http://www.w3.org/2000/svg" xmlns:sodipodi="http://sodipodi.sourceforge.net/DTD/sodipodi-0.dtd" xmlns:inkscape="http://www.inkscape.org/namespaces/inkscape" viewBox="0 0 16.933333 16.933334" version="1.1" x="0px" y="0px"><g transform="translate(0,-280.06665)"><path style="color:#000000;font-style:normal;font-variant:normal;font-weight:normal;font-stretch:normal;font-size:medium;line-height:normal;font-family:sans-serif;font-variant-ligatures:normal;font-variant-position:normal;font-variant-caps:normal;font-variant-numeric:normal;font-variant-alternates:normal;font-feature-settings:normal;text-indent:0;text-align:start;text-decoration:none;text-decoration-line:none;text-decoration-style:solid;text-decoration-color:#000000;letter-spacing:normal;word-spacing:normal;text-transform:none;writing-mode:lr-tb;direction:ltr;text-orientation:mixed;dominant-baseline:auto;baseline-shift:baseline;text-anchor:start;white-space:normal;shape-padding:0;clip-rule:nonzero;display:inline;overflow:visible;visibility:visible;opacity:1;isolation:auto;mix-blend-mode:normal;color-interpolation:sRGB;color-interpolation-filters:linearRGB;solid-color:#000000;solid-opacity:1;vector-effect:none;fill:#000000;fill-opacity:1;fill-rule:nonzero;stroke:none;stroke-width:0.5291667;stroke-linecap:round;stroke-linejoin:round;stroke-miterlimit:4;stroke-dasharray:none;stroke-dashoffset:0;stroke-opacity:1;color-rendering:auto;image-rendering:auto;shape-rendering:auto;text-rendering:auto;enable-background:accumulate" d="m 4.4973725,282.18435 c -0.737481,0 -1.3224007,-0.58699 -1.3224007,-1.32446 0.00212,-0.14917 -0.1200838,-0.27031 -0.2692215,-0.26769 -0.145505,0.003 -0.261628,0.12216 -0.2599188,0.26768 0,0.94019 0.7038738,1.71792 1.6123048,1.83607 0.11684,0.61018 0.6547115,1.07383 1.298112,1.07383 h 0.2656178 c 0.1511486,0 0.2635489,0.11498 0.2635489,0.26614 v 0.79271 c 0,0.35287 0.5291666,0.35287 0.5291666,0 v -0.79271 c 0,-0.43516 -0.3575553,-0.7953 -0.7927155,-0.79531 H 5.5562483 c -0.4443201,0 -0.7932341,-0.34839 -0.7937633,-0.79762 -0.00654,-0.14676 -0.1231344,-0.25872 -0.2651125,-0.25864 z m 9.2609595,-1.32447 c 0,0.73748 -0.584919,1.32447 -1.3224,1.32447 -0.141971,-8e-5 -0.258723,0.11187 -0.264584,0.25373 -8e-6,10e-4 -8e-6,0.002 0,0.003 -3.9e-5,0.003 -0.0011,0.004 -0.0011,0.007 0,0.44431 -0.348915,0.79271 -0.793235,0.79271 h -0.265618 c -0.43516,10e-6 -0.792716,0.36014 -0.792716,0.7953 v 0.79272 c 0,0.35287 0.529167,0.35287 0.529167,0 v -0.79272 c 0,-0.15115 0.1124,-0.26613 0.263549,-0.26613 h 0.265644 c 0.643402,0 1.181252,-0.46365 1.298113,-1.07384 0.908421,-0.11814 1.612305,-0.89588 1.612305,-1.83606 0.0021,-0.14553 -0.114422,-0.26512 -0.259932,-0.26768 -0.149161,-0.003 -0.270984,0.11851 -0.269235,0.26768 z m -5.2963184,0.26149 c -0.1453198,0.003 -0.2611358,0.12235 -0.259416,0.26768 v 0.52917 c 0.00799,0.34494 0.521417,0.34494 0.5291666,0 v -0.52917 c 0.00212,-0.14938 -0.1204012,-0.2706 -0.2697506,-0.26768 z m -3.023071,0.0139 c -0.3450193,0.008 -0.3450193,0.52149 0,0.52916 0.2947802,0 0.5459386,0.15562 0.6836781,0.38861 0.1723204,0.32968 0.6609344,0.0404 0.4547552,-0.26923 -0.2300711,-0.38915 -0.6552327,-0.64854 -1.1384333,-0.64854 z m 6.0564784,0 c -0.4832,0 -0.910439,0.25939 -1.140499,0.64854 -0.197361,0.30899 0.282099,0.59156 0.456819,0.26923 0.137739,-0.23299 0.3889,-0.38861 0.68368,-0.38861 0.34502,-0.008 0.34502,-0.52149 0,-0.52916 z m -4.6172906,1.31258 c -0.3450299,0.008 -0.3450299,0.52151 0,0.52917 0.1511618,0 0.2656179,0.11239 0.2656179,0.26354 v 1.05886 c -0.00799,0.36047 0.5369454,0.36047 0.5291667,0 v -1.05886 c 0,-0.43515 -0.3596243,-0.79271 -0.7947846,-0.79271 z m 3.1760346,0 c -0.4351602,0 -0.7932341,0.35756 -0.7932341,0.79271 v 1.05886 c 0,0.35312 0.5296853,0.35312 0.5296853,0 v -1.05886 c 0,-0.15115 0.1123897,-0.26354 0.2635488,-0.26354 0.345029,-0.008 0.345029,-0.52151 0,-0.52917 z m -1.6035205,0.26097 c -0.1489896,0.0165 -0.2505367,0.13202 -0.2480469,0.2682 v 1.3224 c -0.00799,0.36078 0.5372576,0.36078 0.5291666,0 v -1.3224 c 0.00299,-0.14916 -0.1182581,-0.27074 -0.2811197,-0.2682 z m -4.9676554,1.32963 c -0.1922092,0.0142 -0.3842226,0.0709 -0.561721,0.17312 -0.3174207,0.17252 -0.045402,0.64611 0.2635488,0.45888 0.3850111,-0.22175 0.8624227,-0.0941 1.0841726,0.29094 0.172548,0.31732 0.6460067,0.0454 0.4588854,-0.26355 -0.1817397,-0.31558 -0.4752049,-0.52945 -0.8025342,-0.61753 -0.081801,-0.022 -0.1658223,-0.0358 -0.2506318,-0.0419 -0.063601,-0.005 -0.1276483,-0.005 -0.1917198,0 z m 9.7766649,0 c -0.0848,0.006 -0.168799,0.0198 -0.25063,0.0419 -0.327329,0.0881 -0.620794,0.30195 -0.802534,0.61753 -0.187132,0.30894 0.286335,0.58087 0.458886,0.26355 0.221739,-0.38505 0.699161,-0.51269 1.084172,-0.29094 0.30897,0.18723 0.580959,-0.28636 0.263549,-0.45888 -0.23667,-0.13632 -0.499012,-0.1913 -0.753443,-0.17312 z m -7.4651775,1.58492 c -0.3531288,0.0179 -0.3262789,0.5476 0.026871,0.52968 h 5.0823785 c 0.0868,2.39436 1.273768,4.88874 2.498038,6.82181 1.105321,1.74523 1.892236,2.66252 2.160077,2.96726 H 1.3678728 c 0.2570004,-0.293 0.8885767,-1.03011 1.8851564,-2.53938 0.9483301,-1.4362 1.9547126,-3.24373 2.4753014,-5.10977 0.031099,-0.0133 0.064934,-0.0248 0.093535,-0.0248 0.1511591,0 0.2635489,0.11318 0.2635489,0.26355 v 1.32395 c 0,0.58174 0.4765939,1.05885 1.0583333,1.05885 0.5817394,0 1.0588493,-0.47711 1.0588493,-1.05885 v -1.32395 c 0,-0.15114 0.1124003,-0.26355 0.2635514,-0.26355 0.1511591,0 0.2656152,0.11241 0.2656152,0.26355 v 0.26562 c 0,0.58174 0.4771099,1.05833 1.058852,1.05833 0.5817383,0 1.0562633,-0.47659 1.0562633,-1.05833 v -0.26355 c 0.0323,-0.38253 -0.559419,-0.38253 -0.527098,0 v 0.26355 c 0,0.29774 -0.231428,0.52916 -0.5291653,0.52916 -0.2977409,0 -0.5296853,-0.23142 -0.5296853,-0.52916 v -0.26562 c 0,-0.43516 -0.3596137,-0.79324 -0.7947819,-0.79324 -0.4351602,0 -0.793234,0.35808 -0.793234,0.79324 v 1.32395 c 0,0.29774 -0.2314258,0.52968 -0.5291667,0.52968 -0.2977303,0 -0.5291667,-0.23195 -0.5291667,-0.52968 v -1.32395 c 0,-0.41984 -0.334182,-0.76498 -0.748792,-0.78858 0.056999,-0.25449 0.1052777,-0.50957 0.1410759,-0.7643 0.034301,-0.33852 -0.4645608,-0.40873 -0.5250313,-0.0739 -0.3057895,2.17575 -1.5226321,4.46906 -2.6701222,6.20686 -1.14749,1.7378 -2.21485084,2.9161 -2.21485084,2.9161 -0.1563,0.17055 -0.033906,0.44542 0.197403,0.44339 H 16.140098 c 0.230341,2.2e-4 0.350957,-0.27357 0.195337,-0.44339 0,0 -1.24269,-1.37206 -2.486668,-3.33623 -1.24397,-1.96417 -2.47272,-4.51659 -2.47272,-6.80475 -5.29e-4,-0.14532 -0.11824,-0.26297 -0.263549,-0.26355 H 5.8213476 c -0.009,-5.3e-4 -0.017859,-5.3e-4 -0.026871,0 z m -1.3275681,0.26773 c -0.5141092,0.0835 -0.8466323,0.49566 -0.9658323,0.93173 -0.1045502,0.3461 0.4225369,0.49136 0.5100478,0.14056 0.071398,-0.26108 0.2722245,-0.47877 0.5565537,-0.55656 0.3029294,-0.0753 0.2443507,-0.5718 -0.1007692,-0.51573 z m 7.9995136,0.001 c -0.338942,-0.0509 -0.393046,0.43522 -0.09974,0.51469 0.284332,0.0778 0.485195,0.29549 0.556556,0.55656 0.0807,0.36198 0.625859,0.21159 0.509529,-0.14056 -0.1192,-0.43606 -0.449979,-0.85317 -0.966348,-0.93069 z m -7.6527639,6.08903 c -0.096443,0.002 -0.1839648,0.057 -0.2284095,0.14263 -0.049199,0.0914 -0.099888,0.18092 -0.1503786,0.2713 -0.1719818,0.3087 0.291039,0.56656 0.4630209,0.25786 0.051901,-0.0928 0.101854,-0.18562 0.1524449,-0.27956 0.098179,-0.17826 -0.033208,-0.396 -0.2366777,-0.39223 z m -0.6170163,1.04852 c -0.087318,0.006 -0.1662403,0.0539 -0.2108411,0.12919 -0.4076304,0.65687 -0.8447247,1.27055 -1.2929448,1.82004 -0.2411386,0.27476 0.187714,0.62627 0.4097947,0.3359 0.4640104,-0.56884 0.9133179,-1.20187 1.3322194,-1.87689 0.1183958,-0.18228 -0.021299,-0.42165 -0.2382282,-0.40824 z"></path></g></svg>