<svg height='100px' width='100px'  fill="#000000" xmlns="http://www.w3.org/2000/svg" xmlns:xlink="http://www.w3.org/1999/xlink" viewBox="0 0 60 61" version="1.1" x="0px" y="0px"><title>014 - molecules</title><desc>Created with Sketch.</desc><g stroke="none" stroke-width="1" fill="none" fill-rule="evenodd"><g transform="translate(-1.000000, 0.000000)" fill="#000000" fill-rule="nonzero"><path d="M49,37 C48.83,37 48.665,37.016 48.5,37.023 L39.5,21.442 C44.1282045,16.7940593 44.1669002,9.29117315 39.5868836,4.59574155 C35.006867,-0.0996900401 27.505341,-0.247695225 22.7436791,4.26342495 C17.9820171,8.77454513 17.7247339,16.2731185 22.166,21.1 L12.988,37 C6.88520761,36.9991311 1.75374683,41.578813 1.0633308,47.6424259 C0.372914777,53.7060388 4.34346681,59.3220954 10.2902394,60.693216 C16.237012,62.0643365 22.2657358,58.7537679 24.3,53 L37.7,53 C39.7347768,58.7552052 45.7658584,62.0657562 51.7136599,60.6923079 C57.6614614,59.3188596 61.6303911,53.6991362 60.9357587,47.6344689 C60.2411263,41.5698017 55.1043144,36.993028 49,37 Z M22,51 C20.8954305,51 20,50.1045695 20,49 C20,47.8954305 20.8954305,47 22,47 L37.172,47 C36.9426685,48.3234722 36.9426685,49.6765278 37.172,51 L22,51 Z M37.694,45 L24.3,45 C23.5772763,42.9520312 22.3123221,41.1385845 20.64,39.753 L29.24,24.853 C29.8221709,24.9458966 30.4104849,24.9950342 31,25 C31.4263841,24.9974323 31.8523257,24.9720628 32.276,24.924 L41.013,40.051 C39.502271,41.3902362 38.3596464,43.0940172 37.694,45 Z M26.265,18 C26.8196165,17.0448252 28.0412918,16.7165139 29,17.265 C29.8932625,17.7896184 30.2448764,18.9049342 29.814,19.847 C29.7907749,19.8995458 29.7643934,19.9506391 29.735,20 L18.994,38.608 C17.8136836,37.9238612 16.5245987,37.4476 15.183,37.2 L26.265,18 Z M34.351,24.516 C35.644287,24.1409018 36.8645905,23.549178 37.96,22.766 L48.594,41.189 C48.8597565,41.648659 48.9318288,42.1951281 48.7943329,42.7079709 C48.656837,43.2208138 48.3210586,43.6579359 47.861,43.923 C46.9024625,44.4458023 45.7022658,44.1225199 45.136,43.189 L34.351,24.516 Z M21,13 C20.9999447,7.69078666 25.1488686,3.30701144 30.4500471,3.0150297 C35.7512255,2.72304795 40.356497,6.62465392 40.9395218,11.9017581 C41.5225465,17.1788623 37.8800633,21.9916962 32.643,22.864 C31.8785579,22.9876156 31.1022585,23.0211781 30.33,22.964 L31.477,20.978 C31.5414544,20.8661872 31.5992224,20.7506512 31.65,20.632 C32.4804901,18.7599455 31.7696586,16.5628299 30,15.532 C28.0843077,14.4350514 25.6423558,15.0908848 24.534,17 L23.222,19.273 C21.7774025,17.5023204 20.9920593,15.2851925 21,13 Z M13,59 C7.4771525,59 3,54.5228475 3,49 C3,43.4771525 7.4771525,39 13,39 C13.177,39 13.336,39 13.509,39.008 C17.2951034,39.2004911 20.6449248,41.5223106 22.154,45 L22,45 C19.790861,45 18,46.790861 18,49 C18,51.209139 19.790861,53 22,53 L22.156,53 C20.5612702,56.6365176 16.9708073,58.9893767 13,59 Z M49,59 C44.5276005,58.9907701 40.6023889,56.0198325 39.379,51.718 C38.8716544,49.9377748 38.8716544,48.0512252 39.379,46.271 C39.8540032,44.5805649 40.7719848,43.0477187 42.038,41.831 L43.4,44.183 C44.0850211,45.4756419 45.4210704,46.2912087 46.8838883,46.3096757 C48.3467061,46.3281426 49.7029182,45.5465635 50.420353,44.2716264 C51.1377877,42.9966894 51.1019875,41.4317947 50.327,40.191 L49.658,39.033 C55.042154,39.3825425 59.1768327,43.9426119 58.9991242,49.3351729 C58.8214158,54.7277339 54.3954853,59.0056938 49,59 Z"></path><path d="M32,11 C33.6568542,11 35,9.65685425 35,8 C35,6.34314575 33.6568542,5 32,5 C30.3431458,5 29,6.34314575 29,8 C29,9.65685425 30.3431458,11 32,11 Z M32,7 C32.5522847,7 33,7.44771525 33,8 C33,8.55228475 32.5522847,9 32,9 C31.4477153,9 31,8.55228475 31,8 C31,7.44771525 31.4477153,7 32,7 Z"></path><path d="M9,43 C7.34314575,43 6,44.3431458 6,46 C6,47.6568542 7.34314575,49 9,49 C10.6568542,49 12,47.6568542 12,46 C12,44.3431458 10.6568542,43 9,43 Z M9,47 C8.44771525,47 8,46.5522847 8,46 C8,45.4477153 8.44771525,45 9,45 C9.55228475,45 10,45.4477153 10,46 C10,46.5522847 9.55228475,47 9,47 Z"></path><path d="M46,51 C44.3431458,51 43,52.3431458 43,54 C43,55.6568542 44.3431458,57 46,57 C47.6568542,57 49,55.6568542 49,54 C49,52.3431458 47.6568542,51 46,51 Z M46,55 C45.4477153,55 45,54.5522847 45,54 C45,53.4477153 45.4477153,53 46,53 C46.5522847,53 47,53.4477153 47,54 C47,54.5522847 46.5522847,55 46,55 Z"></path></g></g></svg>