<svg height='100px' width='100px'  fill="#000000" xmlns="http://www.w3.org/2000/svg" viewBox="0 0 64 64" x="0px" y="0px"><title>Science experiment</title><g data-name="Science experiment"><path d="M16,43a3,3,0,1,0,3,3A3,3,0,0,0,16,43Zm0,4a1,1,0,1,1,1-1A1,1,0,0,1,16,47Z"></path><circle cx="12" cy="41" r="2"></circle><path d="M59,15H54V10A7.992,7.992,0,0,0,41.5,3.393a7.965,7.965,0,0,0-9,0A7.992,7.992,0,0,0,20,10v2H16a3,3,0,0,0,0,6v6.681A19,19,0,1,0,40,43,18.88,18.88,0,0,0,26,24.681V18a3,3,0,0,0,0-6H22V10a6,6,0,0,1,8.945-5.226,8,8,0,0,0-1.11,8.786,2.994,2.994,0,0,0,5.33,0,8,8,0,0,0-1.11-8.785,6.119,6.119,0,0,1,5.89,0,8,8,0,0,0-1.11,8.786,2.994,2.994,0,0,0,5.33,0,8,8,0,0,0-1.11-8.785A6,6,0,0,1,52,10v5H47a3,3,0,0,0,0,6V57a5.006,5.006,0,0,0,5,5h2a5.006,5.006,0,0,0,5-5V21a3,3,0,0,0,0-6ZM26,14a1,1,0,0,1,0,2H25a1,1,0,0,0-1,1v8.462a1,1,0,0,0,.778.976,17,17,0,1,1-7.556,0A1,1,0,0,0,18,25.462V17a1,1,0,0,0-1-1H16a1,1,0,0,1,0-2h4V34.6a8.948,8.948,0,0,0-2.19-.243,8.426,8.426,0,0,0-3.57.71,6.45,6.45,0,0,1-2.84.57,6.507,6.507,0,0,1-1.63-.17,7.038,7.038,0,0,1-1.2-.4q-.33-.135-.72-.27A13.115,13.115,0,0,0,7,36.62,14.78,14.78,0,0,0,6,42a15,15,0,0,0,30,0,14.862,14.862,0,0,0-.69-4.5H35.3a14.034,14.034,0,0,0-.97-2.37c-.05-.02-.11-.04-.16-.06a8.15,8.15,0,0,0-2.63-.67,9.185,9.185,0,0,0-.94-.04,8.5,8.5,0,0,0-3.57.71,6.352,6.352,0,0,1-2.82.57A6.294,6.294,0,0,1,22,35.308V14ZM21,44a1,1,0,0,0,1-1V37.391a8.9,8.9,0,0,0,2.21.249,8.5,8.5,0,0,0,3.57-.71,6.352,6.352,0,0,1,2.82-.57,6.41,6.41,0,0,1,2.27.35h.01a13,13,0,1,1-24,.59,8.435,8.435,0,0,0,2.52.34,8.518,8.518,0,0,0,3.58-.71,6.368,6.368,0,0,1,2.83-.57,6.281,6.281,0,0,1,2.19.327V43A1,1,0,0,0,21,44ZM33.375,12.667a.995.995,0,0,1-1.75,0,5.976,5.976,0,0,1,.875-6.62,5.974,5.974,0,0,1,.875,6.619Zm9,0a.995.995,0,0,1-1.75,0,5.976,5.976,0,0,1,.875-6.62,5.974,5.974,0,0,1,.875,6.619ZM46,18a1,1,0,0,1,1-1h5v9.8a3.323,3.323,0,0,0-1.368.271,1.6,1.6,0,0,1-1.259,0c-.1-.041-.231-.087-.373-.13V20a1,1,0,0,0-1-1H47A1,1,0,0,1,46,18Zm8,42H52a3,3,0,0,1-3-3V29.059a3.621,3.621,0,0,0,2.375-.13A1.35,1.35,0,0,1,52,28.8V43a1,1,0,0,0,2,0V29.2h0a3.321,3.321,0,0,0,1.372-.271,1.588,1.588,0,0,1,1.254,0c.1.041.23.087.371.13V57A3,3,0,0,1,54,60Zm5-41H58a1,1,0,0,0-1,1v6.94a3.609,3.609,0,0,0-2.37.132A1.364,1.364,0,0,1,54,27.2h0V17h5a1,1,0,0,1,0,2Z"></path></g></svg>