<svg height='100px' width='100px'  fill="#000000" xmlns="http://www.w3.org/2000/svg" viewBox="0 0 36 36" x="0px" y="0px"><title>Монтажная область 7</title><path d="M35.51,12.32,31.68,5.67H25.12L21.83,0H14.16L10.88,5.67H4.32L.49,12.32,3.77,18,.49,23.68l3.83,6.65h6.56L14.16,36h7.67l3.29-5.68h6.56l3.83-6.65L32.23,18ZM25.12,28.4l-2.73-4.72L25.12,19h5.45l2.72,4.72L30.57,28.4Zm-9.85,5.69-2.72-4.72,2.72-4.73h5.46l2.72,4.73-2.72,4.72ZM10.88,7.59l2.73,4.73L10.88,17H5.43L2.71,12.32,5.43,7.59Zm9.85-5.68,2.72,4.72-2.72,4.73H15.27L12.55,6.63l2.72-4.72ZM25.12,17l-2.73-4.72,2.73-4.73h5.45l2.72,4.73L30.57,17Zm-9.85,5.68L12.55,18l2.72-4.72h5.46L23.45,18l-2.72,4.72ZM5.43,19h5.45l2.73,4.72L10.88,28.4H5.43L2.71,23.68Z"></path></svg>