<svg height='100px' width='100px'  fill="#000000" xmlns="http://www.w3.org/2000/svg" viewBox="0 0 64 64" x="0px" y="0px"><title>Science</title><path d="M61.43,10.17,53.22,4.46a4,4,0,0,0-5.57,1l-.57.83a4,4,0,0,0-.33,4l-6,8.6A23,23,0,0,0,22,21.16V10.08a4.89,4.89,0,0,0,2.89-4.45V4.89A4.89,4.89,0,0,0,20,0H5.74A4.9,4.9,0,0,0,.85,4.89v.74A5,5,0,0,0,2.29,9.11a5,5,0,0,0,1.45,1V54.85a9.15,9.15,0,0,0,16.89,4.89l.17.13A22.89,22.89,0,0,0,33.92,64a23.17,23.17,0,0,0,4.14-.37A23.07,23.07,0,0,0,52.27,26.86l6-8.6a4,4,0,0,0,3.62-1.7l.57-.82a4,4,0,0,0-1-5.57ZM5.74,6.52a.88.88,0,0,1-.62-.24.94.94,0,0,1-.27-.65V4.89A.89.89,0,0,1,5.74,4H20a.88.88,0,0,1,.89.89v.74a.88.88,0,0,1-.89.89H14.5a2,2,0,0,0,0,4H18V24.24c-.45.43-.89.88-1.31,1.36h-9V8.52A2,2,0,0,0,5.74,6.52ZM12.89,60a5.14,5.14,0,0,1-5.15-5.15V29.6h6.12a23.14,23.14,0,0,0,3.65,27.49A5.11,5.11,0,0,1,12.89,60Zm36.75-8.19A19.08,19.08,0,0,1,16.38,33.54c6.48-2.65,11.34-1.33,16.47.07a37.06,37.06,0,0,0,10,1.75,22.64,22.64,0,0,0,8.72-1.8A19,19,0,0,1,49.64,51.81Zm8.94-37.54-2.47-1.71a2,2,0,0,0-2.28,3.29l.82.57-6.53,9.4a2,2,0,0,0,.15,2.47A20.27,20.27,0,0,1,49.62,30c-6.09,2.34-10.78,1.07-15.71-.28-4.19-1.14-8.8-2.39-14.35-1.32a19,19,0,0,1,21.27-5.31,2,2,0,0,0,2.36-.72l7.68-11a2,2,0,0,0-.5-2.78l.57-.82,8.21,5.7Z"></path></svg>