<svg height='100px' width='100px'  fill="#000000" xmlns="http://www.w3.org/2000/svg" xmlns:xlink="http://www.w3.org/1999/xlink" viewBox="0 0 100 100" version="1.1" x="0px" y="0px"><title>Medical Copy 5</title><desc>Created with Sketch.</desc><g stroke="none" stroke-width="1" fill="none" fill-rule="evenodd"><g fill="#000000"><path d="M57,50 C58.104,50 59,50.896 59,52 C59,53.104 58.104,54 57,54 C55.896,54 55,53.104 55,52 C55,50.896 55.896,50 57,50 Z"></path><path d="M46,46 C44.896,46 44,46.896 44,48 C44,49.104 44.896,50 46,50 C47.104,50 48,49.104 48,48 C48,46.896 47.104,46 46,46"></path><path d="M55,42 C56.104,42 57,41.104 57,40 C57,38.896 56.104,38 55,38 C53.896,38 53,38.896 53,40 C53,41.104 53.896,42 55,42"></path><path d="M48,30 C46.896,30 46,30.896 46,32 C46,33.104 46.896,34 48,34 C49.104,34 50,33.104 50,32 C50,30.896 49.104,30 48,30"></path><path d="M46,63 C44.896,63 44,63.896 44,65 C44,66.104 44.896,67 46,67 C47.104,67 48,66.104 48,65 C48,63.896 47.104,63 46,63"></path><path d="M56,71 C54.896,71 54,71.896 54,73 C54,74.104 54.896,75 56,75 C57.104,75 58,74.104 58,73 C58,71.896 57.104,71 56,71"></path><path d="M55,63 C56.104,63 57,62.104 57,61 C57,59.896 56.104,59 55,59 C53.896,59 53,59.896 53,61 C53,62.104 53.896,63 55,63"></path><path d="M44,77 C42.896,77 42,77.896 42,79 C42,80.104 42.896,81 44,81 C45.104,81 46,80.104 46,79 C46,77.896 45.104,77 44,77"></path><path d="M52,83 C50.896,83 50,83.896 50,85 C50,86.104 50.896,87 52,87 C53.104,87 54,86.104 54,85 C54,83.896 53.104,83 52,83"></path><path d="M38,23 L62,23 L62,8 L38,8 L38,23 Z M50,92 C43.383,92 38,86.617 38,80.001 L38,27 L62,27 L62,80.001 C62,86.617 56.617,92 50,92 L50,92 Z M68.003,4 L63.998,4 L36.002,4 L31.997,4 C30.892,4 30,4.896 30,6 C30,7.112 30.894,8 31.997,8 L34,8 L34,80.001 C34,88.838 41.164,96 50,96 C58.838,96 66,88.837 66,80.001 L66,8 L68.003,8 C69.108,8 70,7.104 70,6 C70,4.888 69.105,4 68.003,4 L68.003,4 Z"></path></g></g></svg>