<svg height='100px' width='100px'  fill="#000000" xmlns="http://www.w3.org/2000/svg" data-name="Layer 1" viewBox="0 0 64 64" x="0px" y="0px"><title>Medical Equipment</title><path d="M34.86,38a8.81,8.81,0,0,0,.45,2.78L35,40.68a10.64,10.64,0,0,0-6,0l-.31.09A8.81,8.81,0,0,0,29.14,38a3.2,3.2,0,0,1,.61-2.25A3.2,3.2,0,0,1,32,35.13a3.2,3.2,0,0,1,2.25.61A3.2,3.2,0,0,1,34.86,38Z"></path><path d="M63.61,25.9V37.19a8.91,8.91,0,0,1-8.27,8.88,12.13,12.13,0,0,0,4.86-9.7V29.81A8.78,8.78,0,0,0,51.41,21H12.59A8.78,8.78,0,0,0,3.8,29.81v6.56a12.13,12.13,0,0,0,4.86,9.7A8.9,8.9,0,0,1,.39,37.19V25.9A8.9,8.9,0,0,1,9.77,17l17.46,1.29a64.55,64.55,0,0,0,9.53,0L54.23,17A8.9,8.9,0,0,1,63.61,25.9Z"></path><path d="M51.41,22.51H12.59a7.3,7.3,0,0,0-7.3,7.3v6.56a10.63,10.63,0,0,0,5.89,9.51l.41.2a10.58,10.58,0,0,0,4.33.92h1.61a10.82,10.82,0,0,0,9.16-5.35l.18-.35A7.53,7.53,0,0,0,27.66,38a4.47,4.47,0,0,1,1-3.3,4.47,4.47,0,0,1,3.3-1,4.47,4.47,0,0,1,3.3,1,4.47,4.47,0,0,1,1,3.3,7.53,7.53,0,0,0,.79,3.32l.18.35a9.75,9.75,0,0,0,2.23,2.71A10.92,10.92,0,0,0,46.47,47h1.61a10.58,10.58,0,0,0,4.33-.92l.41-.2a10.63,10.63,0,0,0,5.89-9.51V29.81A7.3,7.3,0,0,0,51.41,22.51Zm5.07,13.86a8.41,8.41,0,0,1-7.65,8.37h0c-.25,0-.5,0-.76,0H46.47a8.73,8.73,0,0,1-5.37-2l-.12-.1-.38-.34a6.07,6.07,0,0,1-2-4.34c0-4.67-2.58-6.57-6.57-6.57s-6.57,1.9-6.57,6.57a6.07,6.07,0,0,1-2,4.34l-.38.34-.12.1a8.73,8.73,0,0,1-5.37,2H15.92c-.25,0-.51,0-.76,0h0a8.41,8.41,0,0,1-7.65-8.37V29.81a5.08,5.08,0,0,1,5.07-5.07H30V25a2,2,0,0,0,4,0v-.3H51.41a5.08,5.08,0,0,1,5.07,5.07Z"></path></svg>