<svg height='100px' width='100px'  fill="#000000" xmlns="http://www.w3.org/2000/svg" viewBox="0 0 64 64" x="0px" y="0px"><title>disaster-ground-homes-cracked-earthquake</title><g data-name="Layer 15"><path d="M20,31h4a1,1,0,0,0,1-1V26a1,1,0,0,0-1-1H20a1,1,0,0,0-1,1v4A1,1,0,0,0,20,31Zm1-4h2v2H21Z"></path><path d="M4,9H14a3,3,0,0,0,.233-5.991,3.061,3.061,0,0,0-3.37-.785,3.981,3.981,0,0,0-6.35.82A3,3,0,1,0,4,9ZM4,5a1,1,0,0,1,.54.162,1,1,0,0,0,1.518-.614,1.985,1.985,0,0,1,3.683-.5,1,1,0,0,0,1.569.238,1.012,1.012,0,0,1,1.555.235,1.006,1.006,0,0,0,1,.5L14,5a1,1,0,0,1,0,2H4A1,1,0,0,1,4,5Z"></path><path d="M25,11H35a3,3,0,0,0,.233-5.991,3.063,3.063,0,0,0-3.37-.785,3.981,3.981,0,0,0-6.35.82A3,3,0,1,0,25,11Zm0-4a1,1,0,0,1,.54.162,1,1,0,0,0,1.518-.614,1.985,1.985,0,0,1,3.683-.5,1,1,0,0,0,1.569.238,1.013,1.013,0,0,1,1.555.235,1,1,0,0,0,1,.5L35,7a1,1,0,0,1,0,2H25a1,1,0,0,1,0-2Z"></path><path d="M61.776,31.137a3,3,0,1,0-5.607-2.132,3.011,3.011,0,0,0-3,2A3.024,3.024,0,0,0,50,34a2.966,2.966,0,0,0,.184,1H46V33h2V31H46V27.714A4.43,4.43,0,0,0,47.5,28,4.505,4.505,0,0,0,52,23.5a4.341,4.341,0,0,0-.041-.592A4.984,4.984,0,0,0,54,14.022V14a3.9,3.9,0,0,0-.443-1.811A3.454,3.454,0,0,0,54,10.5,3.5,3.5,0,0,0,50.5,7a3.466,3.466,0,0,0-1.819.519,2.986,2.986,0,0,0-4.153.79A3.925,3.925,0,0,0,43,8a4,4,0,0,0-4,4c0,.057,0,.113,0,.17A3.006,3.006,0,0,0,37,15q0,.063,0,.126A4,4,0,0,0,38,23a4,4,0,0,0,4,4,3.937,3.937,0,0,0,2-.551V29H42v2h2v4H41a1,1,0,0,0-.98,1.2l.868,4.343-5.443,3.629a1,1,0,0,0-.152,1.539l3.375,3.376-4.032,5.185.35-2.1a1,1,0,0,0-.279-.871l-4.354-4.355,4.415-5.3a1,1,0,0,0,.089-1.156l-3-5A1,1,0,0,0,31,35H29V23h3a1,1,0,0,0,.555-1.832l-15-10a1,1,0,0,0-1.11,0l-15,10A1,1,0,0,0,2,23H5V35H2a1,1,0,0,0-1,1V62a1,1,0,0,0,1,1H62a1,1,0,0,0,1-1V34A3.98,3.98,0,0,0,61.776,31.137ZM43.529,24.268a1.985,1.985,0,0,1-3.315-2.143,1,1,0,0,0-1.339-1.339,1.992,1.992,0,1,1-.832-3.778h.016l.135.017a1,1,0,0,0,.955-1.512A.985.985,0,0,1,39,15a1,1,0,0,1,.985-1h0l.109.013a1,1,0,0,0,1.032-1.337A1.972,1.972,0,0,1,41,12a1.99,1.99,0,0,1,3.345-1.467,1,1,0,0,0,1.67-.635.99.99,0,0,1,1.8-.47,1,1,0,0,0,.763.422.985.985,0,0,0,.8-.336A1.48,1.48,0,0,1,50.5,9,1.5,1.5,0,0,1,52,10.5a1.48,1.48,0,0,1-.39.995,1,1,0,0,0-.043,1.283A1.978,1.978,0,0,1,52,14a1.912,1.912,0,0,1-.038.349,1,1,0,0,0,.495,1.048A2.988,2.988,0,0,1,51,21a.723.723,0,0,1-.1-.012l-.177-.021a1,1,0,0,0-.987,1.438A2.47,2.47,0,0,1,50,23.5,2.5,2.5,0,0,1,47.5,26a2.469,2.469,0,0,1-1.5-.528V21.5l3.6-2.7-1.2-1.6L46,19V14H44v5l-2.4-1.8-1.2,1.6L44,21.5v2.473A.978.978,0,0,0,43.529,24.268ZM52,34a1.007,1.007,0,0,1,1.513-.851,1,1,0,0,0,1.071-.029,1.008,1.008,0,0,0,.433-.987A.834.834,0,0,1,55,32a1.007,1.007,0,0,1,1.513-.851,1,1,0,0,0,1.071-.029,1.008,1.008,0,0,0,.433-.987A.834.834,0,0,1,58,30a1,1,0,1,1,1.719.69,1,1,0,0,0,.238,1.569A2,2,0,0,1,61,34v1H53A1,1,0,0,1,52,34ZM17,13.2,28.7,21H5.3ZM7,23H27V35H17V26a1,1,0,0,0-1-1H10a1,1,0,0,0-1,1v9H7Zm8,12H11V27h4ZM61,61H3V37H30.434l2.343,3.905-4.545,5.454a1,1,0,0,0,.061,1.348l4.636,4.636-.915,5.493a1,1,0,0,0,1.776.778l7-9a1,1,0,0,0-.083-1.321L37.57,45.155l4.985-3.323A1,1,0,0,0,42.98,40.8L42.22,37H61Z"></path><rect x="5" y="39" width="2" height="2"></rect><rect x="9" y="43" width="2" height="2"></rect><rect x="5" y="47" width="2" height="2"></rect><rect x="13" y="39" width="2" height="2"></rect><rect x="17" y="43" width="2" height="2"></rect><rect x="13" y="47" width="2" height="2"></rect><rect x="21" y="39" width="2" height="2"></rect><rect x="25" y="43" width="2" height="2"></rect><rect x="21" y="47" width="2" height="2"></rect><rect x="45" y="39" width="2" height="2"></rect><rect x="49" y="43" width="2" height="2"></rect><rect x="45" y="47" width="2" height="2"></rect><rect x="53" y="39" width="2" height="2"></rect><rect x="57" y="43" width="2" height="2"></rect><rect x="53" y="47" width="2" height="2"></rect></g></svg>