<svg height='100px' width='100px'  fill="#000000" xmlns="http://www.w3.org/2000/svg" xmlns:xlink="http://www.w3.org/1999/xlink" viewBox="0 0 60 60" version="1.1" x="0px" y="0px"><title>Group 25</title><desc>Created with Sketch.</desc><g stroke="none" stroke-width="1" fill="none" fill-rule="evenodd"><g transform="translate(-600.000000, -285.000000)" fill="#000000"><g transform="translate(600.000000, 285.000000)"><path d="M8,5 C8,4.448 7.552,4 7,4 C5.346,4 4,5.346 4,7 C4,7.552 4.448,8 5,8 C5.552,8 6,7.552 6,7 C6,6.449 6.449,6 7,6 C7.552,6 8,5.552 8,5"></path><path d="M36,8 C36.552,8 37,7.552 37,7 C37,6.449 37.449,6 38,6 C38.552,6 39,5.552 39,5 C39,4.448 38.552,4 38,4 C36.346,4 35,5.346 35,7 C35,7.552 35.448,8 36,8"></path><path d="M7,35 C5.346,35 4,36.346 4,38 C4,38.552 4.448,39 5,39 C5.552,39 6,38.552 6,38 C6,37.449 6.449,37 7,37 C7.552,37 8,36.552 8,36 C8,35.448 7.552,35 7,35"></path><path d="M38,35 C36.346,35 35,36.346 35,38 C35,38.552 35.448,39 36,39 C36.552,39 37,38.552 37,38 C37,37.449 37.449,37 38,37 C38.552,37 39,36.552 39,36 C39,35.448 38.552,35 38,35"></path><path d="M20,23 C20.552,23 21,22.552 21,22 C21,21.449 21.449,21 22,21 C22.552,21 23,20.552 23,20 C23,19.448 22.552,19 22,19 C20.346,19 19,20.346 19,22 C19,22.552 19.448,23 20,23"></path><path d="M51,23 C51.553,23 52,22.552 52,22 C52,21.449 52.448,21 53,21 C53.553,21 54,20.552 54,20 C54,19.448 53.553,19 53,19 C51.346,19 50,20.346 50,22 C50,22.552 50.447,23 51,23"></path><path d="M22,50 C20.346,50 19,51.346 19,53 C19,53.552 19.448,54 20,54 C20.552,54 21,53.552 21,53 C21,52.449 21.449,52 22,52 C22.552,52 23,51.552 23,51 C23,50.448 22.552,50 22,50"></path><path d="M53,50 C51.346,50 50,51.346 50,53 C50,53.552 50.447,54 51,54 C51.553,54 52,53.552 52,53 C52,52.449 52.448,52 53,52 C53.553,52 54,51.552 54,51 C54,50.448 53.553,50 53,50"></path><path d="M53,58 C50.243,58 48,55.757 48,53 C48,50.243 50.243,48 53,48 C55.757,48 58,50.243 58,53 C58,55.757 55.757,58 53,58 L53,58 Z M22,58 C19.243,58 17,55.757 17,53 C17,50.243 19.243,48 22,48 C24.757,48 27,50.243 27,53 C27,55.757 24.757,58 22,58 L22,58 Z M2,38 C2,35.243 4.243,33 7,33 C9.757,33 12,35.243 12,38 C12,40.757 9.757,43 7,43 C4.243,43 2,40.757 2,38 L2,38 Z M2,7 C2,4.243 4.243,2 7,2 C9.757,2 12,4.243 12,7 C12,9.757 9.757,12 7,12 C4.243,12 2,9.757 2,7 L2,7 Z M38,2 C40.757,2 43,4.243 43,7 C43,9.757 40.757,12 38,12 C35.243,12 33,9.757 33,7 C33,4.243 35.243,2 38,2 L38,2 Z M58,22 C58,24.757 55.757,27 53,27 C50.243,27 48,24.757 48,22 C48,19.243 50.243,17 53,17 C55.757,17 58,19.243 58,22 L58,22 Z M22,17 C24.757,17 27,19.243 27,22 C27,24.757 24.757,27 22,27 C19.243,27 17,24.757 17,22 C17,19.243 19.243,17 22,17 L22,17 Z M37,31.071 C36.961,31.077 36.926,31.091 36.887,31.097 C36.549,31.151 36.217,31.223 35.897,31.324 C35.879,31.33 35.862,31.338 35.843,31.344 C35.533,31.444 35.235,31.57 34.945,31.711 C34.893,31.737 34.839,31.761 34.787,31.788 C34.499,31.938 34.223,32.107 33.96,32.294 C33.909,32.33 33.861,32.368 33.811,32.405 C33.278,32.805 32.805,33.278 32.405,33.811 C32.368,33.861 32.33,33.909 32.294,33.96 C32.107,34.223 31.938,34.499 31.788,34.787 C31.761,34.839 31.737,34.893 31.711,34.945 C31.57,35.235 31.444,35.533 31.344,35.843 C31.338,35.862 31.33,35.879 31.324,35.897 C31.223,36.217 31.151,36.549 31.097,36.887 C31.091,36.926 31.077,36.961 31.071,37 L23,37 L23,28.929 C23.039,28.923 23.074,28.909 23.113,28.903 C23.451,28.849 23.783,28.777 24.103,28.676 C24.121,28.67 24.138,28.662 24.157,28.656 C24.467,28.556 24.765,28.43 25.055,28.289 C25.107,28.263 25.161,28.239 25.213,28.212 C25.501,28.063 25.777,27.893 26.04,27.706 C26.091,27.67 26.139,27.632 26.189,27.595 C26.722,27.195 27.195,26.722 27.595,26.189 C27.632,26.139 27.67,26.091 27.706,26.04 C27.893,25.777 28.063,25.501 28.212,25.213 C28.239,25.161 28.263,25.107 28.289,25.055 C28.43,24.765 28.556,24.467 28.656,24.157 C28.662,24.138 28.67,24.121 28.676,24.103 C28.777,23.783 28.849,23.451 28.903,23.113 C28.909,23.074 28.923,23.039 28.929,23 L37,23 L37,31.071 Z M38,43 C35.243,43 33,40.757 33,38 C33,35.243 35.243,33 38,33 C40.757,33 43,35.243 43,38 C43,40.757 40.757,43 38,43 L38,43 Z M42.731,12.145 L47.855,17.27 C46.922,18.284 46.286,19.572 46.08,21 L39,21 L39,13.92 C40.428,13.714 41.716,13.078 42.731,12.145 L42.731,12.145 Z M13.212,10.213 C13.239,10.161 13.263,10.107 13.289,10.055 C13.43,9.765 13.556,9.467 13.656,9.157 C13.662,9.138 13.67,9.121 13.676,9.103 C13.777,8.783 13.849,8.451 13.903,8.113 C13.909,8.074 13.923,8.039 13.929,8 L31.071,8 C31.077,8.039 31.091,8.074 31.097,8.113 C31.151,8.451 31.223,8.783 31.324,9.103 C31.33,9.121 31.338,9.138 31.344,9.157 C31.444,9.467 31.57,9.765 31.711,10.055 C31.737,10.107 31.761,10.161 31.788,10.213 C31.938,10.501 32.107,10.777 32.294,11.04 C32.33,11.091 32.368,11.139 32.405,11.189 C32.805,11.722 33.278,12.195 33.811,12.595 C33.861,12.632 33.909,12.67 33.96,12.706 C34.223,12.893 34.499,13.062 34.787,13.212 C34.839,13.239 34.893,13.263 34.945,13.289 C35.235,13.43 35.533,13.556 35.843,13.656 C35.862,13.662 35.879,13.67 35.897,13.676 C36.217,13.777 36.549,13.849 36.887,13.903 C36.926,13.909 36.961,13.923 37,13.929 L37,21 L28.92,21 C28.432,17.613 25.519,15 22,15 C20.43,15 18.985,15.526 17.816,16.402 L12.599,11.185 C12.635,11.136 12.671,11.089 12.706,11.04 C12.893,10.777 13.062,10.501 13.212,10.213 L13.212,10.213 Z M11.189,32.405 C11.139,32.368 11.091,32.33 11.04,32.294 C10.777,32.107 10.501,31.938 10.213,31.788 C10.161,31.761 10.107,31.737 10.055,31.711 C9.765,31.57 9.467,31.444 9.157,31.344 C9.138,31.338 9.121,31.33 9.103,31.324 C8.783,31.223 8.451,31.151 8.113,31.097 C8.074,31.091 8.039,31.077 8,31.071 L8,13.929 C8.039,13.923 8.074,13.909 8.113,13.903 C8.451,13.849 8.783,13.777 9.103,13.676 C9.121,13.67 9.138,13.662 9.157,13.656 C9.467,13.556 9.765,13.43 10.055,13.289 C10.107,13.263 10.161,13.239 10.213,13.212 C10.501,13.062 10.777,12.893 11.04,12.706 C11.089,12.671 11.136,12.635 11.185,12.599 L16.402,17.816 C15.526,18.985 15,20.43 15,22 C15,25.519 17.613,28.432 21,28.92 L21,37 L13.929,37 C13.923,36.961 13.909,36.926 13.903,36.887 C13.849,36.549 13.777,36.217 13.676,35.897 C13.67,35.879 13.662,35.862 13.656,35.843 C13.556,35.533 13.43,35.235 13.289,34.945 C13.263,34.893 13.239,34.839 13.212,34.787 C13.062,34.499 12.893,34.223 12.706,33.96 C12.67,33.909 12.632,33.861 12.595,33.811 C12.195,33.278 11.722,32.805 11.189,32.405 L11.189,32.405 Z M17.269,47.855 L12.145,42.731 C13.078,41.716 13.714,40.428 13.92,39 L21,39 L21,46.08 C19.572,46.286 18.284,46.922 17.269,47.855 L17.269,47.855 Z M46.789,49.786 C46.761,49.839 46.737,49.894 46.71,49.948 C46.57,50.236 46.444,50.534 46.344,50.843 C46.338,50.862 46.33,50.879 46.324,50.897 C46.223,51.217 46.152,51.549 46.097,51.887 C46.091,51.925 46.077,51.961 46.071,52 L28.929,52 C28.923,51.961 28.909,51.926 28.903,51.887 C28.849,51.549 28.777,51.217 28.676,50.897 C28.67,50.879 28.662,50.862 28.656,50.843 C28.556,50.533 28.43,50.235 28.289,49.945 C28.263,49.893 28.239,49.839 28.212,49.787 C28.063,49.499 27.893,49.223 27.706,48.96 C27.67,48.909 27.632,48.861 27.595,48.811 C27.195,48.278 26.722,47.805 26.189,47.405 C26.139,47.368 26.091,47.33 26.04,47.294 C25.777,47.107 25.501,46.937 25.213,46.788 C25.161,46.761 25.107,46.737 25.055,46.711 C24.765,46.57 24.467,46.444 24.157,46.344 C24.138,46.338 24.121,46.33 24.103,46.324 C23.783,46.223 23.451,46.151 23.113,46.097 C23.074,46.091 23.039,46.077 23,46.071 L23,39 L31.08,39 C31.568,42.387 34.481,45 38,45 C39.57,45 41.016,44.474 42.184,43.598 L47.401,48.815 C47.365,48.864 47.328,48.912 47.292,48.962 C47.106,49.224 46.938,49.499 46.789,49.786 L46.789,49.786 Z M50.898,46.324 C50.878,46.33 50.86,46.339 50.84,46.345 C50.532,46.445 50.236,46.57 49.948,46.71 C49.894,46.737 49.839,46.761 49.785,46.789 C49.498,46.938 49.224,47.106 48.962,47.292 C48.912,47.327 48.864,47.364 48.816,47.401 L43.598,42.184 C44.474,41.015 45,39.57 45,38 C45,34.481 42.387,31.568 39,31.08 L39,23 L46.071,23 C46.077,23.039 46.091,23.075 46.097,23.113 C46.152,23.451 46.223,23.783 46.324,24.103 C46.33,24.121 46.338,24.138 46.344,24.157 C46.444,24.466 46.57,24.764 46.71,25.052 C46.737,25.106 46.761,25.161 46.789,25.214 C46.938,25.501 47.106,25.776 47.292,26.038 C47.329,26.09 47.369,26.14 47.407,26.191 C47.606,26.457 47.818,26.713 48.052,26.947 L48.053,26.947 C48.287,27.182 48.542,27.393 48.808,27.592 C48.859,27.631 48.909,27.671 48.962,27.708 C49.224,27.894 49.498,28.062 49.785,28.211 C49.839,28.239 49.894,28.263 49.948,28.29 C50.236,28.43 50.532,28.555 50.84,28.655 C50.86,28.661 50.878,28.67 50.898,28.676 C51.218,28.777 51.549,28.848 51.887,28.903 C51.925,28.909 51.961,28.923 52,28.929 L52,46.071 C51.961,46.077 51.925,46.091 51.887,46.097 C51.549,46.152 51.218,46.223 50.898,46.324 L50.898,46.324 Z M54,46.08 L54,28.92 C57.386,28.432 60,25.519 60,22 C60,18.14 56.859,15 53,15 C51.688,15 50.464,15.369 49.414,16 L44,10.586 C44.631,9.536 45,8.312 45,7 C45,3.14 41.86,0 38,0 C34.481,0 31.568,2.613 31.08,6 L13.92,6 C13.432,2.613 10.519,0 7,0 C3.14,0 0,3.14 0,7 C0,10.519 2.613,13.432 6,13.92 L6,31.08 C2.613,31.568 0,34.481 0,38 C0,41.86 3.14,45 7,45 C8.312,45 9.536,44.631 10.586,44 L16,49.414 C15.369,50.464 15,51.688 15,53 C15,56.86 18.14,60 22,60 C25.519,60 28.432,57.387 28.92,54 L46.08,54 C46.568,57.387 49.481,60 53,60 C56.859,60 60,56.86 60,53 C60,49.481 57.386,46.568 54,46.08 L54,46.08 Z"></path></g></g></g></svg>