<svg height='100px' width='100px'  fill="#000000" xmlns="http://www.w3.org/2000/svg" xmlns:xlink="http://www.w3.org/1999/xlink" version="1.1" x="0px" y="0px" viewBox="0 0 100 100" style="enable-background:new 0 0 100 100;" xml:space="preserve"><g><g><path d="M70.4,92H17.3c-2,0-3.7-1.1-4.6-2.8c-0.9-1.7-0.7-3.8,0.4-5.4l21.4-29.5V17.4c0-1.1,0.9-2,2-2h14.7c1.1,0,2,0.9,2,2v36.9    l21.4,29.5c1.1,1.6,1.3,3.6,0.4,5.4C74.1,90.9,72.4,92,70.4,92z M38.5,19.3v35.6c0,0.4-0.1,0.8-0.4,1.2l-21.8,30    c-0.4,0.6-0.2,1.1-0.1,1.3c0.1,0.2,0.4,0.7,1.1,0.7h53.1c0.7,0,1-0.5,1.1-0.7c0.1-0.2,0.3-0.7-0.1-1.3l-21.8-30    c-0.2-0.3-0.4-0.7-0.4-1.2V19.3H38.5z"></path></g><g><path d="M50.4,19.3H37.3c-3.1,0-5.7-2.5-5.7-5.7c0-3.1,2.5-5.7,5.7-5.7h13.1c3.1,0,5.7,2.5,5.7,5.7C56.1,16.8,53.6,19.3,50.4,19.3    z M37.3,11.9c-1,0-1.7,0.8-1.7,1.7c0,1,0.8,1.7,1.7,1.7h13.1c1,0,1.7-0.8,1.7-1.7c0-1-0.8-1.7-1.7-1.7H37.3z"></path></g><g><path d="M51.2,48.9H36.5c-1.1,0-2-0.9-2-2c0-1.1,0.9-2,2-2h14.7c1.1,0,2,0.9,2,2C53.2,48,52.3,48.9,51.2,48.9z"></path></g><g><path d="M82.2,19.3H69c-3.1,0-5.7-2.5-5.7-5.7c0-3.1,2.5-5.7,5.7-5.7h13.1c3.1,0,5.7,2.5,5.7,5.7C87.8,16.8,85.3,19.3,82.2,19.3z     M69,11.9c-1,0-1.7,0.8-1.7,1.7c0,1,0.8,1.7,1.7,1.7h13.1c1,0,1.7-0.8,1.7-1.7c0-1-0.8-1.7-1.7-1.7H69z"></path></g><g><path d="M75.6,67.7c-5.1,0-9.3-4.2-9.3-9.3v-43h18.7v43C84.9,63.5,80.8,67.7,75.6,67.7z M70.2,19.3v39c0,3,2.4,5.4,5.4,5.4    c3,0,5.4-2.4,5.4-5.4v-39H70.2z"></path></g><g><rect x="68.2" y="28" width="14.7" height="3.9"></rect></g></g></svg>