<svg height='100px' width='100px'  fill="#000000" xmlns="http://www.w3.org/2000/svg" viewBox="0 0 64 64" x="0px" y="0px"><title>1</title><g data-name="Layer 5"><path d="M57.66,49.89a4.39,4.39,0,0,0-4.38-1.08L51.66,46l3.75-6.5a1,1,0,0,0,0-1L51.66,32l3.75-6.5a1,1,0,0,0,0-1l-4-7a1,1,0,0,0-.87-.5H43l-3.75-6.5a1,1,0,0,0-.87-.5H30.87L27.12,3.5a1,1,0,0,0-.87-.5H18.17a1,1,0,0,0-.87.5l-4,7a1,1,0,0,0,0,1L17,18l-3.35,5.81a4.35,4.35,0,0,0-1.1-1.92,4.4,4.4,0,1,0,0,6.22A4.36,4.36,0,0,0,13.72,26h.41a1,1,0,0,0,.87-.5l4-7a1,1,0,0,0,0-1L15.29,11l3.46-6h6.93l3.46,6-3.75,6.5a1,1,0,0,0,0,1L29.14,25l-3.75,6.5a1,1,0,0,0,0,1l1.9,3.3-.11.09A4.46,4.46,0,1,0,29,34.81L27.41,32l3.46-6h6.93l3.75,6.5a1,1,0,0,0,.87.5h7.51l3.46,6-3.75,6.5a1,1,0,0,0,0,1l1.91,3.29-.11.09a4.41,4.41,0,0,0,0,6.22l.11.09L49.93,59H43l-3.75-6.5a1,1,0,0,0-.87-.5H30.87l-3.75-6.5a1,1,0,0,0-.87-.5H18.17a1,1,0,0,0-.87.5l-4,7a1,1,0,0,0,0,1l4,7a1,1,0,0,0,.87.5h8.08a1,1,0,0,0,.87-.5L30.88,54h6.93l3.75,6.5a1,1,0,0,0,.87.5h8.08a1,1,0,0,0,.87-.5l1.91-3.31a4.39,4.39,0,0,0,4.38-7.3ZM7.75,26.7a2.4,2.4,0,1,1,4.1-1.7h0a2.4,2.4,0,0,1-4.1,1.7ZM30.3,36.6a2.4,2.4,0,1,1-1.7.7A2.4,2.4,0,0,1,30.3,36.6ZM30.88,24l-3.46-6,3.46-6h6.93l3.46,6-3.46,6Zm8.66,1L43,19h6.93l3.46,6-3.46,6H43ZM25.68,59H18.75l-3.46-6,3.46-6h6.93l3.46,6Zm30.57-4.3a2.4,2.4,0,0,1-2.89.37h0a2.37,2.37,0,0,1-.5-.37,2.4,2.4,0,1,1,3.4,0Z"></path></g></svg>