<svg height='100px' width='100px'  fill="#000000" xmlns="http://www.w3.org/2000/svg" viewBox="0 0 64 64" x="0px" y="0px"><title>earth,science,chemistry,chemical,education</title><g><path d="M32,61A29,29,0,1,0,3,32,29,29,0,0,0,32,61ZM32,5A27,27,0,1,1,5,32,27,27,0,0,1,32,5Z"></path><path d="M32,56.76A24.76,24.76,0,0,0,32,7.24a1,1,0,0,0-1,1V55.76A1,1,0,0,0,32,56.76ZM33,28A4.07,4.07,0,0,1,33,36Zm0,10a6.08,6.08,0,0,0,0-12V22a10,10,0,0,1,0,20Zm0,6a12,12,0,0,0,0-24V15.23a16.8,16.8,0,0,1,0,33.54Zm0,6.79a18.79,18.79,0,0,0,0-37.54v-4a22.75,22.75,0,0,1,0,45.46Z"></path><path d="M18.27,43v.85a4,4,0,0,1-.06.7L18,46l1.39-.22a2.24,2.24,0,0,1,.35,0h3.39a2.82,2.82,0,0,1,2.82,2.82,2.82,2.82,0,0,1-2.5,2.8l-.9.09v4.32a1,1,0,0,0,2,0V53.15a4.83,4.83,0,0,0,3.39-4.6,4.82,4.82,0,0,0-4.82-4.82H20.27V43a6.08,6.08,0,0,0-8.06-5.76V35.4a4,4,0,0,0,3-3.83V31.3h7.64V17.65a5.3,5.3,0,0,0,.42-.36,4.39,4.39,0,0,0-3.11-7.5,1,1,0,0,0,0,2,2.4,2.4,0,0,1,1.71,4.07,2.59,2.59,0,0,1-.5.38l-.51.29V29.3H13.18v2.27a2,2,0,0,1-3.94,0V28.18a2,2,0,0,1,1.13-1.78,1,1,0,1,0-.86-1.81,4,4,0,0,0-2.27,3.59v3.39a4,4,0,0,0,3,3.83v3A6.07,6.07,0,0,0,8.09,43a1,1,0,1,0,2,0,4.09,4.09,0,0,1,8.18,0Z"></path><path d="M16.58,33.7v.85a1,1,0,0,0,2,0V33.7a1,1,0,0,0-2,0Z"></path><path d="M27.05,12.34a1,1,0,0,0,1.41-1.41L25.92,8.38A1,1,0,0,0,24.5,9.8Z"></path></g></svg>