<svg height='100px' width='100px'  fill="#000000" xmlns="http://www.w3.org/2000/svg" data-name="Layer 1" viewBox="0 0 64 64" x="0px" y="0px"><path d="M51.258,31.982c-.035-4.437-2.989-8.708-8.105-11.72l-3.366,1.683,1.764,1.039c.324.19.617.394.918.595h-2.55a1.579,1.579,0,1,0,0,3.158h6.09a9.4,9.4,0,0,1,1.86,3.624l-11.131.03a1.58,1.58,0,0,0-1.575,1.579h0a1.58,1.58,0,0,0,1.584,1.579l11.183-.03a9.214,9.214,0,0,1-1.82,3.744H40.965a1.579,1.579,0,1,0,0,3.158H42.66c-.313.213-.619.429-.957.632l-1.206.723,2.83,1.985C48.4,40.718,51.293,36.425,51.258,31.982Z"></path><path d="M15.2,52.374a15.674,15.674,0,0,0-2.18,4.029,11.882,11.882,0,0,0-.485,4.018,1.579,1.579,0,1,0,3.158,0,9.565,9.565,0,0,1,.759-3.892q.2-.446.433-.881c4.079.018,14.4.029,19.518.034q.228.426.422.861a9.579,9.579,0,0,1,.752,3.878,1.579,1.579,0,0,0,3.158,0c-.024-5.79-3.769-10.448-8.591-13.339L29.7,45.62l3.1-1.859-2.83-1.985-3.344,2.006-4.54-2.729c-.337-.2-.644-.419-.957-.632h3.337a1.579,1.579,0,1,0,0-3.158H17.68a9.231,9.231,0,0,1-1.807-3.694l4.376-.011A1.579,1.579,0,0,0,20.24,30.4l-4.333.011a9.368,9.368,0,0,1,1.874-3.674h5.64a1.579,1.579,0,1,0,0-3.158h-2.1c.3-.2.595-.405.919-.595L26.632,20.4l2.629,1.546,3.365-1.683-2.881-1.7,2.643-1.556A19.326,19.326,0,0,0,38.6,11.4a13.126,13.126,0,0,0,2.137-7.821,1.579,1.579,0,1,0-3.158,0V5.222a8.709,8.709,0,0,1-.865,3.094H16.555a8.709,8.709,0,0,1-.865-3.094V3.579a1.579,1.579,0,1,0-3.158,0A13.3,13.3,0,0,0,14.6,11.308a18.88,18.88,0,0,0,6.275,5.7l2.643,1.556-2.881,1.7c-5.116,3.011-8.071,7.283-8.106,11.72s2.856,8.736,7.931,11.779l3.1,1.859-2.438,1.462A19.9,19.9,0,0,0,15.2,52.374Zm7.28-38.084a17.838,17.838,0,0,1-3.664-2.816H34.451a17.845,17.845,0,0,1-3.665,2.816l-4.154,2.445Zm4.144,33.178,3.9,2.323a18.033,18.033,0,0,1,3.519,2.735H19.229a18.033,18.033,0,0,1,3.519-2.735Z"></path></svg>