<svg height='100px' width='100px'  fill="#000000" xmlns="http://www.w3.org/2000/svg" data-name="Layer 1" viewBox="0 0 128 128" x="0px" y="0px"><title>Miscellaneous 60 expandlines</title><path d="M76.044,60.56463V42H78a2,2,0,0,0,0-4H68.00629c.00043-.05829.00824-.11511.00348-.17432-.04248-.53467-.82422-13.19141,18.80908-22.001a2,2,0,0,0-1.6377-3.64941A45.39719,45.39719,0,0,0,72.27,20.53515,12.01857,12.01857,0,0,1,79.14307,7.19481c3.19678-1.52979,6.81543-1.69434,10.646-1.86914a46.61293,46.61293,0,0,0,7.95215-.82324c.43213,3.13477.7085,9.36523-2.72607,14.25879-2.92383,4.166-8.00488,6.60449-15.10059,7.24707A1.99992,1.99992,0,0,0,80.09229,30c.06055,0,.12158-.00244.18262-.0083,8.3374-.75488,14.40479-3.76953,18.03369-8.96045,5.82715-8.335,3.05469-19.09229,2.93359-19.5459A2,2,0,0,0,98.67285.104a33.22735,33.22735,0,0,1-9.06543,1.22607c-4.06152.18506-8.26074.376-12.19043,2.25635A15.93167,15.93167,0,0,0,69.04346,23.7871a1.96642,1.96642,0,0,0,.09753.19836C63.892,30.74108,63.94647,36.836,64.01343,38H50a2,2,0,0,0,0,4h1.95593v18.5625C38.56006,65.51409,29,77.48186,29,92.70586a35.00123,35.00123,0,1,0,70,0C99,77.48229,89.439,65.51665,76.044,60.56463ZM64,124a31.083,31.083,0,0,1-29.50433-21.7019,24.75378,24.75378,0,0,0,11.85687,2.68921,38.62171,38.62171,0,0,0,10.70508-1.5625c2.42627-.71582,4.77734-1.585,7.05029-2.42578a56.94649,56.94649,0,0,1,12.16895-3.51221c7.65314-1.02759,13.84381-.38794,18.0246,1.81293A31.11984,31.11984,0,0,1,64,124Zm30.89813-28.873c-4.84894-2.11981-11.27222-2.66388-19.15448-1.604A60.83971,60.83971,0,0,0,62.7207,97.24706c-2.21143.81787-4.49756,1.66357-6.79492,2.34082-7.03418,2.07568-17.14258,2.521-22.48242-3.0459a1.97511,1.97511,0,0,0-.22644-.19312A31.73484,31.73484,0,0,1,33,92.70586c0-12.87439,7.79492-23.75336,20.34277-28.39148l2.61316-.96594V58H58a2,2,0,0,0,0-4H55.95593V50H58a2,2,0,0,0,0-4H55.95593V42H72.044v4H70a2,2,0,0,0,0,4h2.044v4H70a2,2,0,0,0,0,4h2.044v5.35046l2.613.966C87.205,68.95531,95,79.83349,95,92.70586,95,93.52135,94.95911,94.327,94.89813,95.12694Z"></path><path d="M42.73,30.35839a17.92185,17.92185,0,0,0,9.82422,2.71338,28.63054,28.63054,0,0,0,7.55908-1.10352,2.00031,2.00031,0,0,0,1.43945-2.2793c-.06689-.374-1.71436-9.20459-9.00732-13.69043-4.63037-2.84961-10.38477-3.272-17.09912-1.25635a1.99977,1.99977,0,0,0-1.397,2.251C34.11035,17.352,35.62744,25.83544,42.73,30.35839Zm7.69385-10.96924c3.99268,2.44287,5.89844,6.749,6.69678,9.18652-4.87842,1-8.98047.47314-12.21338-1.57324-3.87061-2.4502-5.688-6.58057-6.4458-8.92383C43.20605,16.99169,47.22217,17.43114,50.42383,19.38915Z"></path><path d="M72,77a6,6,0,1,0,6,6A6.00656,6.00656,0,0,0,72,77Zm0,8a2,2,0,1,1,2-2A2.002,2.002,0,0,1,72,85Z"></path><circle cx="63" cy="70.99999" r="2"></circle><path d="M48,81a7,7,0,1,0,7,7A7.00786,7.00786,0,0,0,48,81Zm0,10a3,3,0,1,1,3-3A3.00328,3.00328,0,0,1,48,91Z"></path><path d="M17,30a6,6,0,1,0,6,6A6.00656,6.00656,0,0,0,17,30Zm0,8a2,2,0,1,1,2-2A2.002,2.002,0,0,1,17,38Z"></path><path d="M43,50a9,9,0,1,0-9,9A9.01047,9.01047,0,0,0,43,50ZM29,50a5,5,0,1,1,5,5A5.00589,5.00589,0,0,1,29,50Z"></path><path d="M111,30a6,6,0,1,0,6,6A6.00656,6.00656,0,0,0,111,30Zm0,8a2,2,0,1,1,2-2A2.002,2.002,0,0,1,111,38Z"></path><path d="M94,41a9,9,0,1,0,9,9A9.01047,9.01047,0,0,0,94,41Zm0,14a5,5,0,1,1,5-5A5.00589,5.00589,0,0,1,94,55Z"></path></svg>