<svg height='100px' width='100px'  fill="#000000" xmlns="http://www.w3.org/2000/svg" xmlns:xlink="http://www.w3.org/1999/xlink" version="1.1" x="0px" y="0px" viewBox="0 0 100 100" style="enable-background:new 0 0 100 100;" xml:space="preserve"><g><path d="M97.5,10h-35c-1.382,0-2.5,1.118-2.5,2.5s1.118,2.5,2.5,2.5H65v35.152L55.894,30V5h2.5c1.382,0,2.5-1.113,2.5-2.5   c0-1.377-1.118-2.5-2.5-2.5h-35c-1.382,0-2.5,1.123-2.5,2.5c0,1.387,1.118,2.5,2.5,2.5h2.5v25L1.04,85c0,0-5.801,15,10,15H80   c8.286,0,15-6.719,15-15V15h2.5c1.382,0,2.5-1.118,2.5-2.5S98.882,10,97.5,10z M30.894,31.077V5h20v26.077l9.458,20.932   c-2.412,1.712-8.616,5.292-17.69-3.776c-5.348-5.346-10.792-7.821-16.204-7.34L30.894,31.077z M11.04,95   c-7.378,0-7.194-2.93-5.371-8.104l18.196-40.267c5.048-2.106,10.245,0.125,15.261,5.138c8.784,8.784,17.033,8.848,23.313,4.861   L65,62.295V85c0,3.842,1.446,7.346,3.822,10H11.04z M90,85c0,5.516-4.487,10-10,10s-10-4.484-10-10v-7.5h10v-5H70v-5h4.484v-5H70   v-5h10v-5H70V40.613c2.319-0.555,5.475-0.624,8.613,1.467c4.538,3.027,8.857,2.851,11.387,2.412V85z M90,39.388   c-2.32,0.556-5.477,0.625-8.613-1.468c-4.108-2.739-8.179-2.971-11.387-2.416V15h20V39.388z M35.894,57.5h-10v-5h10V57.5z    M35.894,77.5h-10v-5h10V77.5z M25.894,82.5h15v5h-15V82.5z M25.894,62.5h15v5h-15V62.5z"></path></g></svg>