<svg height='100px' width='100px'  fill="#000000" xmlns="http://www.w3.org/2000/svg" viewBox="0 0 64 64" x="0px" y="0px"><title>1</title><g data-name="Layer 12"><path d="M30.91,47.31a4.75,4.75,0,1,0-2.53-2.61A4.74,4.74,0,0,0,30.91,47.31Zm-.63-5.45a2.75,2.75,0,1,1,0,2.1A2.73,2.73,0,0,1,30.28,41.86Z"></path><path d="M20.78,36.42a3.5,3.5,0,1,0-3.26-2.22A3.48,3.48,0,0,0,20.78,36.42Zm-1.38-4.1a1.5,1.5,0,0,1,2.77,0h0a1.5,1.5,0,1,1-2.77,0Z"></path><path d="M60,56H55.33a3.67,3.67,0,0,0,.44-1.72V12.94a2.63,2.63,0,0,0,2.08-2.57V8.63A2.63,2.63,0,0,0,55.22,6H46a2.63,2.63,0,0,0-2.63,2.63v1.74a2.63,2.63,0,0,0,2.08,2.57V54.28A3.67,3.67,0,0,0,45.88,56H33.05a16.89,16.89,0,0,0,7.33-25.19,1,1,0,0,0-.07-.1A17,17,0,0,0,25.4,23.5l-4.26-10.8.43-.17A2.74,2.74,0,0,0,23.1,9l-.68-1.72a2.74,2.74,0,0,0-3.55-1.54L8.25,9.91a2.73,2.73,0,0,0-1.54,3.55l.68,1.72a2.73,2.73,0,0,0,3.55,1.54l.43-.17,4.26,10.8a17,17,0,0,0-5.34,18.21,1,1,0,0,0,0,.13c.1.32.2.63.33.94a16.84,16.84,0,0,0,9,9.33l.1,0H4a1,1,0,0,0,0,2H60a1,1,0,0,0,0-2ZM9.25,14.45l-.68-1.72a.73.73,0,0,1,.41-1L19.61,7.58a.74.74,0,0,1,1,.41l.68,1.72a.73.73,0,0,1-.41,1L10.2,14.86A.73.73,0,0,1,9.25,14.45Zm8.17,14,0,0a1,1,0,0,0,.14-.16.86.86,0,0,0,.2-.7,1,1,0,0,0,0-.2s0,0,0-.06L13.22,15.82l6.06-2.39,4.53,11.48,0,.05a1,1,0,0,0,.12.18,1,1,0,0,0,.1.12,1,1,0,0,0,.18.13l.14.07a1,1,0,0,0,.2,0l.19,0h.07a15,15,0,0,1,12.59,4.77,17.84,17.84,0,0,0-6,1.35,17.56,17.56,0,0,0-8,6,15.65,15.65,0,0,1-7.2,5.4A17.09,17.09,0,0,1,12,44.16,15,15,0,0,1,17.42,28.46ZM12.6,46.1A19.55,19.55,0,0,0,17,44.9a17.54,17.54,0,0,0,8-6,15.68,15.68,0,0,1,7.22-5.4A14.82,14.82,0,0,1,39,32.32,14.95,14.95,0,1,1,12.6,46.1ZM47.44,13h6.33V24.84a7.48,7.48,0,0,0-3.24,1.31,5.44,5.44,0,0,1-3.09,1.08ZM45.35,8.63A.63.63,0,0,1,46,8h9.24a.63.63,0,0,1,.63.63v1.74a.63.63,0,0,1-.63.63H46a.63.63,0,0,1-.63-.63ZM49.15,56a1.72,1.72,0,0,1-1.72-1.72v-25a7.35,7.35,0,0,0,4.17-1.39,5.83,5.83,0,0,1,2.16-1V54.28A1.72,1.72,0,0,1,52.05,56Z"></path></g></svg>