<svg height='100px' width='100px'  fill="#000000" xmlns="http://www.w3.org/2000/svg" xmlns:xlink="http://www.w3.org/1999/xlink" version="1.1" x="0px" y="0px" viewBox="0 0 90 90" style="enable-background:new 0 0 90 90;" xml:space="preserve"><g><path d="M4.6,63.3c-0.8,0-1.5-0.7-1.5-1.5s0.7-1.5,1.5-1.5c8,0,15.6-10.6,22.3-20c3.2-4.5,6.3-8.7,9.1-11.4   c5.5-5.3,10.1-8.6,17.2-10.1c7.6-1.6,14.9,0.4,19.3,5.5c4,4.5,5.8,11.3,4.1,15.8c-1,2.6-3,4.3-5.7,4.6c-0.8,0.1-1.6-0.5-1.7-1.3   c-0.1-0.8,0.5-1.6,1.3-1.7c1.6-0.2,2.8-1.1,3.3-2.7c1.3-3.5-0.3-9.1-3.5-12.8c-3.7-4.2-9.8-5.9-16.4-4.5C47.4,23,43.4,26,38.2,31   c-2.7,2.6-5.6,6.7-8.8,11C22.2,52,14.1,63.3,4.6,63.3z"></path><path d="M16.4,63.3c-0.8,0-1.5-0.7-1.5-1.5s0.7-1.5,1.5-1.5c5.9,0,10.9-6.6,16.6-14.2c1.8-2.5,3.7-5,5.8-7.5   c6-7.2,12.2-10.5,19.1-10C64.7,29,69.8,33,71.7,39c1,3.4,0.6,7-1.3,9.5c-1.3,1.8-4,3.9-9.1,3.9c-0.8,0-1.5-0.7-1.5-1.5   s0.7-1.5,1.5-1.5c3.1,0,5.4-0.9,6.7-2.7c1.5-2,1.4-4.9,0.8-6.8c-1.5-4.9-5.7-8-11.2-8.4c-5.9-0.4-11.2,2.4-16.5,8.9   c-2,2.5-3.9,5-5.8,7.4C29.2,56.1,23.8,63.3,16.4,63.3z"></path><path d="M28.6,63.3c-0.8,0-1.5-0.7-1.5-1.5s0.7-1.5,1.5-1.5c3.8,0,6.6-4.6,9.7-9.4c1.8-2.8,3.6-5.7,5.8-8   c3.1-3.3,7.3-4.9,11.3-4.2c2.7,0.5,5.1,1.9,6.5,4c1.3,2,1.7,4.4,1,7c-0.8,3.1-3.8,6.1-7.7,6.1c-0.1,0-0.2,0-0.3,0   c-2.2-0.1-4.2-1.6-4.8-3.8c-0.6-2.2,0.4-4.4,2.6-5.8c0.7-0.4,1.6-0.3,2.1,0.4c0.4,0.7,0.3,1.6-0.4,2.1c-1.1,0.7-1.6,1.6-1.3,2.5   c0.2,0.9,1.1,1.6,2,1.6c0.1,0,0.1,0,0.2,0c2.6,0,4.4-2.3,4.8-3.8c0.4-1.7,0.2-3.4-0.6-4.7c-0.9-1.4-2.5-2.4-4.4-2.7   c-3-0.5-6.3,0.7-8.6,3.2c-2,2.2-3.7,4.9-5.4,7.6C37.3,58,34,63.3,28.6,63.3z"></path><path d="M70.8,70.8c-0.7,0-1.4-0.3-1.9-0.8c-0.9-0.9-2.4-5.2-2.6-5.7l-0.3-1l1,0.3c0.5,0.2,4.8,1.7,5.7,2.6   c1,1,1,2.7,0,3.8C72.2,70.5,71.5,70.8,70.8,70.8z M67.7,65c0.6,1.7,1.5,3.9,2,4.3c0.7,0.7,1.7,0.7,2.4,0s0.7-1.7,0-2.4   C71.5,66.5,69.4,65.6,67.7,65z"></path><path d="M79.9,65.9c-0.4,0-0.7-0.1-1.1-0.2c-1.2-0.5-4.1-4-4.5-4.4l-0.7-0.8l1,0c0.5,0,5.1-0.2,6.2,0.3   c1.3,0.6,2,2.2,1.4,3.5C81.9,65.3,80.9,65.9,79.9,65.9z M75.8,61.5c1.2,1.4,2.8,3,3.4,3.3c0.8,0.4,1.8,0,2.2-0.9   c0.4-0.8,0-1.8-0.9-2.2C80,61.4,77.7,61.4,75.8,61.5z"></path><path d="M83.3,54.7c-1.6,0-5.3-1-5.7-1.2l-1-0.3l0.8-0.6c0.4-0.3,4.1-3,5.3-3.2c0.7-0.1,1.4,0,2,0.4   c0.6,0.4,1,1,1.1,1.7c0.1,0.7,0,1.4-0.4,2s-1,1-1.7,1.1C83.6,54.7,83.5,54.7,83.3,54.7z M78.9,52.9c1.8,0.5,4,1,4.7,0.8   c0.4-0.1,0.8-0.3,1.1-0.7c0.3-0.4,0.3-0.8,0.3-1.2c-0.1-0.4-0.3-0.8-0.7-1.1c-0.4-0.3-0.8-0.4-1.2-0.3   C82.3,50.6,80.4,51.8,78.9,52.9z"></path></g></svg>