<svg height='100px' width='100px'  fill="#000000" xmlns="http://www.w3.org/2000/svg" xmlns:xlink="http://www.w3.org/1999/xlink" version="1.1" x="0px" y="0px" viewBox="0 0 24 24" style="enable-background:new 0 0 24 24;" xml:space="preserve"><g><path d="M22.25,12.99l-4.75-2.71V4.86c0-0.18-0.1-0.35-0.25-0.43l-5-2.86c-0.15-0.09-0.34-0.09-0.5,0l-5,2.86   C6.6,4.51,6.5,4.68,6.5,4.86v5.42l-4.75,2.71C1.6,13.08,1.5,13.25,1.5,13.43v5.71c0,0.18,0.1,0.34,0.25,0.43l5,2.86   C6.83,22.48,6.91,22.5,7,22.5s0.17-0.02,0.25-0.07L12,19.72l4.75,2.72c0.08,0.04,0.16,0.07,0.25,0.07s0.17-0.02,0.25-0.07l5-2.86   c0.16-0.09,0.25-0.25,0.25-0.43v-5.71C22.5,13.25,22.4,13.08,22.25,12.99z M12,2.58l4.5,2.57v5.13L12,12.85l-4.5-2.57V5.15L12,2.58   z M7,21.42l-4.5-2.57v-5.13L7,11.15l4.5,2.57v5.13L7,21.42z M21.5,18.85L17,21.42l-4.5-2.57v-5.13l4.5-2.57l4.5,2.57V18.85z"></path></g></svg>