<svg height='100px' width='100px'  fill="#000000" xmlns="http://www.w3.org/2000/svg" xmlns:xlink="http://www.w3.org/1999/xlink" xml:space="preserve" version="1.1" style="shape-rendering:geometricPrecision;text-rendering:geometricPrecision;image-rendering:optimizeQuality;" viewBox="0 0 847 847" x="0px" y="0px" fill-rule="evenodd" clip-rule="evenodd"><defs><style type="text/css">
   
    .fil0 {fill:#000000}
   
  </style></defs><g><path class="fil0" d="M646 201c-5,68 -12,135 -15,204 -2,32 -8,193 13,216 48,45 94,0 102,-53l3 -24 79 0 -2 29c-19,323 -382,294 -373,47l0 -1 0 -1c13,-139 21,-278 34,-417l-107 0c-8,144 -29,475 -92,562 -78,109 -295,28 -159,-158 96,-130 114,-251 127,-404 -82,0 -109,8 -158,94l-8 14 -78 0 9 -34c47,-172 103,-240 288,-240 163,0 326,0 489,0l27 0 0 166 -179 0zm152 -139l0 112 -178 0c-4,65 -43,421 5,467 61,56 135,14 148,-69l26 0c-17,287 -327,261 -319,49 12,-131 23,-305 37,-447l-163 0c-6,107 -25,487 -88,573 -55,77 -231,33 -115,-126 106,-143 121,-273 134,-447 -113,0 -150,1 -211,108l-27 0c45,-165 94,-220 262,-220 163,0 326,0 489,0z"></path></g></svg>