<svg height='100px' width='100px'  fill="#000000" xmlns="http://www.w3.org/2000/svg" viewBox="0 0 32 32" x="0px" y="0px"><title>safety</title><g data-name="72-safety"><path d="M16,31a1.0016,1.0016,0,0,1-.4731-.1191A24.93,24.93,0,0,1,2,9.1436a21.8644,21.8644,0,0,1,.3706-4.0811,1,1,0,0,1,1.2324-.78,12.2949,12.2949,0,0,0,3.1114.3848A12.4346,12.4346,0,0,0,15.3052,1.28a1.0025,1.0025,0,0,1,1.39,0A12.4346,12.4346,0,0,0,25.2856,4.667a12.2949,12.2949,0,0,0,3.1114-.3848,1,1,0,0,1,1.2324.78A21.8644,21.8644,0,0,1,30,9.1436,24.93,24.93,0,0,1,16.4731,30.8809,1.0016,1.0016,0,0,1,16,31ZM4.1724,6.4492A20.6546,20.6546,0,0,0,4,9.1436,22.8821,22.8821,0,0,0,16,28.8584,22.8821,22.8821,0,0,0,28,9.1436a20.6546,20.6546,0,0,0-.1724-2.6944,14.7492,14.7492,0,0,1-2.542.2178A14.5429,14.5429,0,0,1,16,3.3447,14.5427,14.5427,0,0,1,6.7144,6.667,14.7492,14.7492,0,0,1,4.1724,6.4492ZM15.2593,20.15l6-7A1,1,0,0,0,19.7407,11.85l-5.1885,6.0527L12.3,14.9A1,1,0,1,0,10.7,16.1l3,4a.9964.9964,0,0,0,.7671.3994c.0112.001.022.001.0327.001A.9987.9987,0,0,0,15.2593,20.15Z"></path></g></svg>