<svg height='100px' width='100px'  fill="#000000" xmlns="http://www.w3.org/2000/svg" xmlns:xlink="http://www.w3.org/1999/xlink" viewBox="0 0 60 60" version="1.1" x="0px" y="0px"><title>018 - sound wave</title><desc>Created with Sketch.</desc><g stroke="none" stroke-width="1" fill="none" fill-rule="evenodd"><g fill="#000000" fill-rule="nonzero"><path d="M60,57 C60,56.4477153 59.5522847,56 59,56 L4,56 L4,1 C4,0.44771525 3.55228475,3.38176876e-17 3,0 L1,0 C0.44771525,-3.38176876e-17 6.76353751e-17,0.44771525 0,1 C-6.76353751e-17,1.55228475 0.44771525,2 1,2 L2,2 L2,8 L1,8 C0.44771525,8 6.76353751e-17,8.44771525 0,9 C-6.76353751e-17,9.55228475 0.44771525,10 1,10 L2,10 L2,16 L1,16 C0.44771525,16 6.76353751e-17,16.4477153 0,17 C-6.76353751e-17,17.5522847 0.44771525,18 1,18 L2,18 L2,24 L1,24 C0.44771525,24 6.76353751e-17,24.4477153 0,25 C-6.76353751e-17,25.5522847 0.44771525,26 1,26 L2,26 L2,32 L1,32 C0.44771525,32 6.76353751e-17,32.4477153 0,33 C-6.76353751e-17,33.5522847 0.44771525,34 1,34 L2,34 L2,40 L1,40 C0.44771525,40 6.76353751e-17,40.4477153 0,41 C-6.76353751e-17,41.5522847 0.44771525,42 1,42 L2,42 L2,48 L1,48 C0.44771525,48 6.76353751e-17,48.4477153 0,49 C-6.76353751e-17,49.5522847 0.44771525,50 1,50 L2,50 L2,56 L1,56 C0.44771525,56 6.76353751e-17,56.4477153 0,57 C-6.76353751e-17,57.5522847 0.44771525,58 1,58 L2,58 L2,59 C2,59.5522847 2.44771525,60 3,60 C3.55228475,60 4,59.5522847 4,59 L4,58 L10,58 L10,59 C10,59.5522847 10.4477153,60 11,60 C11.5522847,60 12,59.5522847 12,59 L12,58 L18,58 L18,59 C18,59.5522847 18.4477153,60 19,60 C19.5522847,60 20,59.5522847 20,59 L20,58 L26,58 L26,59 C26,59.5522847 26.4477153,60 27,60 C27.5522847,60 28,59.5522847 28,59 L28,58 L34,58 L34,59 C34,59.5522847 34.4477153,60 35,60 C35.5522847,60 36,59.5522847 36,59 L36,58 L42,58 L42,59 C42,59.5522847 42.4477153,60 43,60 C43.5522847,60 44,59.5522847 44,59 L44,58 L50,58 L50,59 C50,59.5522847 50.4477153,60 51,60 C51.5522847,60 52,59.5522847 52,59 L52,58 L59,58 C59.5522847,58 60,57.5522847 60,57 Z"></path><path d="M59,28 L48.145,28 L44.005,10.406 C43.7136496,9.02187952 42.4706926,8.04665578 41.057,8.093 C39.6471312,8.08552222 38.4294608,9.07768254 38.152,10.46 L34.369,28 L31,28 L31,6 C31,5.44771525 30.5522847,5 30,5 C29.4477153,5 29,5.44771525 29,6 L29,28 L25.145,28 L21.005,10.406 C20.6840367,9.04043737 19.4596225,8.07960389 18.0569069,8.0925454 C16.6541912,8.10548691 15.4477133,9.08874789 15.152,10.46 L11.369,28 L7,28 C6.44771525,28 6,28.4477153 6,29 C6,29.5522847 6.44771525,30 7,30 L10.938,30 L6.022,52.789 C5.90546794,53.3291345 6.24886554,53.8614679 6.78900001,53.978 C7.32913448,54.094532 7.8614679,53.7511345 7.978,53.211 L12.984,30 L14,30 C14.5522847,30 15,29.5522847 15,29 C15,28.4477153 14.5522847,28 14,28 L13.415,28 L17.107,10.881 C17.1911878,10.4155589 17.6021584,10.0810085 18.075,10.093 C18.5517659,10.0603268 18.9761416,10.3931789 19.058,10.864 L23.09,28 L22,28 C21.4477153,28 21,28.4477153 21,29 C21,29.5522847 21.4477153,30 22,30 L23.561,30 L27,44.594 C27.2241515,45.6254712 27.989634,46.4544887 29,46.76 L29,53 C29,53.5522847 29.4477153,54 30,54 C30.5522847,54 31,53.5522847 31,53 L31,46.711 C31.9486928,46.3537635 32.6468596,45.5335685 32.848,44.54 L35.984,30 L38,30 C38.5522847,30 39,29.5522847 39,29 C39,28.4477153 38.5522847,28 38,28 L36.415,28 L40.107,10.881 C40.1911878,10.4155589 40.6021584,10.0810085 41.075,10.093 C41.5519114,10.0598532 41.9765668,10.3929248 42.058,10.864 L46.09,28 L46,28 C45.4477153,28 45,28.4477153 45,29 C45,29.5522847 45.4477153,30 46,30 L46.56,30 L52.026,53.229 C52.1524732,53.7669253 52.6910747,54.1004732 53.229,53.9739999 C53.7669253,53.8475267 54.1004732,53.3089253 53.974,52.771 L48.615,30 L59,30 C59.5522847,30 60,29.5522847 60,29 C60,28.4477153 59.5522847,28 59,28 Z M30.893,44.119 C30.8088122,44.5844411 30.3978416,44.9189915 29.925,44.907 C29.4467657,44.9444899 29.0195302,44.6093947 28.942,44.136 L25.616,30 L29,30 L29,37 C29,37.5522847 29.4477153,38 30,38 C30.5522847,38 31,37.5522847 31,37 L31,30 L33.938,30 L30.893,44.119 Z"></path></g></g></svg>