<svg height='100px' width='100px'  xmlns:dc="http://purl.org/dc/elements/1.1/" xmlns:cc="http://creativecommons.org/ns#" xmlns:rdf="http://www.w3.org/1999/02/22-rdf-syntax-ns#" xmlns:svg="http://www.w3.org/2000/svg" xmlns="http://www.w3.org/2000/svg" xmlns:sodipodi="http://sodipodi.sourceforge.net/DTD/sodipodi-0.dtd" xmlns:inkscape="http://www.inkscape.org/namespaces/inkscape" fill="#000000" version="1.1" x="0px" y="0px" viewBox="0 0 100 100"><path style="text-indent:0;text-transform:none;direction:ltr;block-progression:tb;baseline-shift:baseline;color:#000000;enable-background:accumulate;" d="m 49.984619,6 c -3.013628,0 -5.774734,1.5179781 -8.059322,3.90625 -2.284588,2.388272 -4.206273,5.692018 -5.810208,9.65625 -0.438469,1.083704 -0.860933,2.223459 -1.249507,3.40625 C 33.085932,22.583093 31.362221,22.306686 29.711364,22.125 28.880159,19.188031 26.183386,17 22.995263,17 c -3.840789,0 -6.99724,3.157696 -6.99724,7 0,0.01042 -4.6e-5,0.02084 0,0.03125 a 1.9994113,2.0001999 0 0 0 -0.124951,0.0625 c -1.50068,0.899589 -2.767535,2.11057 -3.623571,3.625 -1.500388,2.65439 -1.580262,5.865341 -0.687229,9.09375 0.893033,3.228409 2.75261,6.600702 5.341643,10.03125 0.783221,1.03779 1.6756,2.080848 2.592728,3.125 -0.922922,1.046678 -1.806049,2.085442 -2.592728,3.125 -2.589294,3.421627 -4.448154,6.778456 -5.341643,10 -0.893488,3.221544 -0.814006,6.412676 0.687229,9.0625 1.781584,3.144669 5.220866,5.176747 9.43378,5.8125 a 1.9994114,2.0002 0 1 0 0.624753,-3.9375 c -3.29447,-0.497155 -5.503118,-1.978405 -6.559913,-3.84375 -0.860441,-1.518762 -1.014176,-3.500857 -0.312376,-6.03125 0.701799,-2.530393 2.280139,-5.518761 4.654414,-8.65625 0.64997,-0.858905 1.392465,-1.717036 2.1554,-2.59375 2.714854,2.727863 5.845552,5.439345 9.340066,8.03125 0.465257,4.367389 1.18177,8.483213 2.1554,12.21875 C 32.311661,73.531498 30.960859,73.851021 29.742602,74 a 2.0147698,2.0155644 0 1 0 0.499803,4 c 1.536726,-0.187924 3.08005,-0.557804 4.623177,-0.96875 0.388574,1.182789 0.811038,2.322547 1.249507,3.40625 1.603935,3.964227 3.525619,7.267984 5.810208,9.65625 C 44.209886,92.482016 46.970993,94 49.984619,94 c 3.013621,0 5.774733,-1.517984 8.059321,-3.90625 2.284588,-2.388266 4.206271,-5.692023 5.810209,-9.65625 0.453257,-1.120252 0.880861,-2.305265 1.280745,-3.53125 1.758225,0.379707 3.459885,0.662891 5.091741,0.84375 0.787857,3.001116 3.51337,5.25 6.747339,5.25 3.840789,0 6.997241,-3.157696 6.997241,-7 0,-0.06253 0.0017,-0.125345 0,-0.1875 1.553791,-0.90393 2.873017,-2.107385 3.748521,-3.65625 1.500406,-2.654385 1.580257,-5.865346 0.687229,-9.09375 -0.893028,-3.228404 -2.752608,-6.600707 -5.341643,-10.03125 -0.766763,-1.015981 -1.633909,-2.040327 -2.530252,-3.0625 0.895325,-1.017995 1.764214,-2.018964 2.530252,-3.03125 2.589292,-3.421634 4.448153,-6.778448 5.341643,-10 0.893491,-3.221552 0.813989,-6.41267 -0.687229,-9.0625 C 85.468304,23.900969 80.723162,22.136249 75.099713,22 c -3.013897,-0.07302 -6.380244,0.290881 -9.964819,1.0625 -0.397264,-1.21592 -0.830928,-2.388248 -1.280745,-3.5 C 62.250212,15.598269 60.328527,12.294522 58.04394,9.90625 55.759353,7.5179784 52.998243,6 49.984619,6 z m 0,4 c 1.678943,0 3.403942,0.825135 5.185455,2.6875 1.781512,1.862365 3.495545,4.738722 4.966791,8.375 0.382321,0.944932 0.748096,1.957541 1.093319,3 -3.57796,1.016907 -7.348743,2.360011 -11.18309,4.09375 -3.874933,-1.760499 -7.663694,-3.157849 -11.276802,-4.1875 0.336268,-1.009453 0.690895,-1.98884 1.062081,-2.90625 1.471244,-3.636278 3.185277,-6.512635 4.966791,-8.375 C 46.580677,10.825135 48.30567,10 49.984619,10 z M 22.995263,21 c 1.679882,0 2.998817,1.319456 2.998817,3 0,1.680544 -1.318935,3 -2.998817,3 -1.679881,0 -2.998817,-1.319456 -2.998817,-3 0,-1.680544 1.318936,-3 2.998817,-3 z m 50.417616,5 c 0.538445,-0.01774 1.054806,-0.01229 1.561884,0 4.864285,0.117855 7.955328,1.564945 9.246353,3.84375 0.860431,1.518765 1.01418,3.469593 0.312377,6 -0.701803,2.530407 -2.280143,5.518755 -4.654414,8.65625 -0.633856,0.837612 -1.351564,1.676596 -2.092925,2.53125 -2.726238,-2.741583 -5.888033,-5.457199 -9.402542,-8.0625 -0.462171,-4.298878 -1.199808,-8.34553 -2.1554,-12.03125 2.595147,-0.552265 5.014597,-0.866004 7.184667,-0.9375 z m -43.76399,0.15625 c 1.304223,0.156744 2.671632,0.385881 4.092136,0.6875 -0.97363,3.735542 -1.690143,7.851362 -2.1554,12.21875 -3.494573,2.587369 -6.624344,5.278137 -9.340066,8 -0.768085,-0.883784 -1.501561,-1.758643 -2.1554,-2.625 C 17.715628,41.291175 16.138007,38.288752 15.435745,35.75 14.733482,33.211248 14.886861,31.242436 15.748121,29.71875 16.115002,29.069694 16.607944,28.495874 17.24753,28 c 1.269711,1.81086 3.387598,3 5.747733,3 3.086892,0 5.734264,-2.048228 6.653626,-4.84375 z m 7.996846,1.65625 c 2.463536,0.700836 5.036287,1.579914 7.684469,2.65625 -1.629688,0.845225 -3.267192,1.755513 -4.904315,2.71875 -1.514944,0.891353 -2.978873,1.812078 -4.404513,2.75 0.427342,-2.882553 0.966623,-5.604216 1.624359,-8.125 z m 24.64653,0.125 c 0.01953,-0.0056 0.04296,0.0055 0.06247,0 0.636623,2.459159 1.174723,5.104842 1.593122,7.90625 -1.425683,-0.939455 -2.889517,-1.856593 -4.404513,-2.75 -1.562611,-0.921486 -3.129056,-1.780617 -4.685652,-2.59375 2.562117,-1.028405 5.047339,-1.883535 7.434568,-2.5625 z m -12.213933,4.65625 c 2.457866,1.172014 4.944199,2.468906 7.434568,3.9375 2.483533,1.464563 4.839479,3.01108 7.059715,4.59375 0.256119,2.854343 0.40609,5.826832 0.40609,8.875 0,3.014668 -0.155394,5.955779 -0.40609,8.78125 -2.211223,1.575257 -4.552631,3.137043 -7.028478,4.59375 -2.521804,1.483748 -5.037048,2.818933 -7.528281,4 C 47.506083,66.185394 44.965562,64.841874 42.4251,63.34375 39.941571,61.879199 37.582595,60.332667 35.365384,58.75 35.116669,55.935164 34.990532,53.002346 34.990532,50 c 0,-3.014658 0.155394,-5.955782 0.40609,-8.78125 2.211222,-1.575261 4.55263,-3.137026 7.028478,-4.59375 2.556663,-1.504267 5.128295,-2.839397 7.653232,-4.03125 z m 18.742608,11.75 c 2.294785,1.851803 4.386421,3.747385 6.247536,5.625 -1.855988,1.872317 -3.959694,3.746551 -6.247536,5.59375 0.0954,-1.825447 0.156188,-3.672839 0.156188,-5.5625 0,-1.922126 -0.05752,-3.80068 -0.156188,-5.65625 z M 31.148298,44.4375 c -0.0954,1.825444 -0.156189,3.672845 -0.156189,5.5625 0,1.878837 0.06186,3.715855 0.156189,5.53125 -2.269424,-1.834237 -4.340078,-3.702417 -6.185061,-5.5625 1.84057,-1.851875 3.922407,-3.704389 6.185061,-5.53125 z m 46.637856,8.46875 c 0.741972,0.856067 1.459298,1.691677 2.092925,2.53125 2.374531,3.14632 3.952157,6.148758 4.654414,8.6875 0.702257,2.538742 0.548894,4.507565 -0.312377,6.03125 -0.378105,0.66891 -0.901077,1.241462 -1.561884,1.75 C 81.383429,70.147311 79.293752,69 76.973974,69 c -3.053142,0 -5.675911,2.001539 -6.622388,4.75 -1.306037,-0.156567 -2.668224,-0.417151 -4.092136,-0.71875 0.955552,-3.693655 1.663839,-7.754623 2.124162,-12.0625 3.521946,-2.601742 6.671907,-5.324519 9.402542,-8.0625 z m -41.764778,11.125 c 1.417695,0.934442 2.866019,1.861163 4.373275,2.75 1.621669,0.956308 3.226134,1.847852 4.84184,2.6875 -2.621678,1.057678 -5.181953,1.934904 -7.621994,2.625 -0.649255,-2.503294 -1.170479,-5.20458 -1.593121,-8.0625 z m 27.926486,0.03125 c -0.422006,2.846554 -0.946196,5.536939 -1.593122,8.03125 -2.439247,-0.691578 -4.970476,-1.598066 -7.590756,-2.65625 1.588037,-0.826933 3.183889,-1.686274 4.779365,-2.625 1.514944,-0.891344 2.978872,-1.813272 4.404513,-2.75 z m -13.963243,7.71875 c 3.859871,1.746733 7.645845,3.13399 11.245565,4.15625 -0.345223,1.042457 -0.710998,2.055069 -1.093319,3 -1.471246,3.636273 -3.18528,6.512641 -4.966791,8.375 C 53.388562,89.174859 51.663564,90 49.984619,90 c -1.678952,0 -3.403943,-0.825141 -5.185455,-2.6875 -1.781513,-1.862359 -3.495547,-4.738727 -4.966791,-8.375 -0.378947,-0.93659 -0.750803,-1.936311 -1.093319,-2.96875 3.600683,-1.019844 7.385986,-2.437686 11.245565,-4.1875 z M 76.973974,73 c 1.679882,0 2.998818,1.319456 2.998818,3 0,1.680544 -1.318936,3 -2.998818,3 -1.679881,0 -2.998817,-1.319456 -2.998817,-3 0,-1.680544 1.318936,-3 2.998817,-3 z" fill="#000000" fill-opacity="1" stroke="none" marker="none" visibility="visible" display="inline" overflow="visible"></path></svg>