<svg height='100px' width='100px'  fill="#000000" xmlns="http://www.w3.org/2000/svg" xmlns:xlink="http://www.w3.org/1999/xlink" version="1.1" x="0px" y="0px" viewBox="0 0 60 60" style="enable-background:new 0 0 60 60;" xml:space="preserve"><path d="M8,12v37c0,2.75,2.08,5,4.65,5c0,0,0,0,0,0h0H51c0.12,0,0.24-0.03,0.35-0.07c0.03-0.01,0.06-0.03,0.09-0.04  c0.08-0.04,0.15-0.09,0.21-0.14c0.03-0.02,0.05-0.04,0.07-0.07c0.08-0.08,0.14-0.17,0.19-0.28c0,0,0,0,0-0.01  c0.01-0.01,0.01-0.03,0.01-0.04c0.04-0.1,0.06-0.21,0.06-0.31c0-0.02,0.01-0.03,0.01-0.04c0-0.02-0.01-0.03-0.01-0.05  c-0.01-0.1-0.02-0.19-0.06-0.28c-0.01-0.02-0.01-0.05-0.02-0.07c-0.04-0.1-0.1-0.19-0.17-0.27c-2.1-2.3-2.1-4.35,0-6.65  c0.07-0.08,0.13-0.17,0.17-0.27c0.01-0.02,0.01-0.05,0.02-0.07c0.03-0.09,0.05-0.18,0.06-0.28c0-0.02,0.01-0.03,0.01-0.05V7  c0-0.55-0.45-1-1-1H14C10.69,6,8,8.69,8,12z M49.02,52H12.65C11.19,52,10,50.65,10,49s1.19-3,2.65-3h36.37  C47.88,47.99,47.88,50.01,49.02,52z M18,8h32v36H18V8z M16,44h-3.35c-0.99,0-1.9,0.34-2.65,0.9V12c0-2.21,1.79-4,4-4h2V44z"></path><path d="M45.84,20.63c-0.91-2-3.33-3.01-6.44-3C38.12,14.78,36.19,13,34,13s-4.12,1.78-5.39,4.63c-3.12-0.02-5.54,1-6.44,3  c-0.71,1.56-0.39,3.44,0.87,5.37c-1.26,1.94-1.58,3.82-0.87,5.37c0.9,1.98,3.29,3,6.37,3c0.02,0,0.05,0,0.07,0  C29.88,37.22,31.81,39,34,39s4.12-1.78,5.39-4.63c0.02,0,0.05,0,0.07,0c3.08,0,5.47-1.02,6.37-3c0.72-1.59,0.34-3.49-0.88-5.37  C46.18,24.11,46.56,22.21,45.84,20.63z M23.98,30.55c-0.35-0.76-0.2-1.76,0.37-2.86c0.85,0.91,1.87,1.78,3.02,2.57  c0.13,0.72,0.29,1.42,0.49,2.08C25.87,32.22,24.45,31.57,23.98,30.55z M27.05,27.49c-0.56-0.48-1.07-0.98-1.51-1.49  c0.44-0.51,0.95-1.01,1.51-1.49C27.02,25,27,25.49,27,26S27.02,27,27.05,27.49z M27.38,21.74c-1.15,0.8-2.17,1.66-3.02,2.57  c-0.57-1.1-0.72-2.1-0.37-2.86c0.47-1.02,1.89-1.67,3.88-1.8C27.67,20.31,27.51,21.01,27.38,21.74z M38.05,19.71  c0.06,0.18,0.12,0.38,0.17,0.57c-0.31-0.16-0.63-0.32-0.95-0.47C37.54,19.77,37.8,19.74,38.05,19.71z M34,15  c1.12,0,2.3,1.03,3.24,2.79c-1.04,0.15-2.13,0.4-3.24,0.74c-1.11-0.34-2.2-0.59-3.24-0.74C31.7,16.03,32.88,15,34,15z M29.95,19.71  c0.25,0.03,0.51,0.06,0.77,0.1c-0.32,0.15-0.64,0.31-0.95,0.47C29.83,20.09,29.88,19.9,29.95,19.71z M29.95,32.29  c-0.06-0.19-0.12-0.38-0.18-0.58c0.31,0.16,0.63,0.32,0.95,0.47C30.46,32.23,30.2,32.26,29.95,32.29z M34,37  c-1.12,0-2.3-1.03-3.24-2.79c1.04-0.15,2.13-0.39,3.24-0.74c1.11,0.34,2.2,0.59,3.24,0.74C36.3,35.97,35.12,37,34,37z M38.05,32.29  c-0.25-0.03-0.51-0.06-0.78-0.1c0.32-0.15,0.64-0.31,0.95-0.47C38.17,31.91,38.11,32.11,38.05,32.29z M38.79,29.08  c-0.82,0.52-1.73,1.02-2.72,1.47c-0.7,0.32-1.39,0.59-2.07,0.82c-0.68-0.23-1.37-0.5-2.07-0.82c-0.96-0.44-1.87-0.93-2.72-1.47  C29.08,28.12,29,27.09,29,26s0.08-2.12,0.22-3.09c0.84-0.53,1.75-1.03,2.72-1.47c0.7-0.32,1.39-0.59,2.07-0.82  c0.68,0.23,1.37,0.5,2.07,0.82c0.99,0.45,1.89,0.95,2.72,1.47C38.92,23.88,39,24.91,39,26S38.92,28.12,38.79,29.08z M44.02,21.45  c0.34,0.75,0.19,1.75-0.39,2.85c-0.83-0.9-1.84-1.76-3-2.57c-0.13-0.72-0.29-1.42-0.49-2.08C42.13,19.78,43.55,20.43,44.02,21.45z   M40.95,24.51c0.57,0.49,1.07,0.99,1.5,1.49c-0.43,0.5-0.93,0.99-1.5,1.49C40.98,27,41,26.5,41,26S40.98,25,40.95,24.51z   M44.02,30.55c-0.46,1.02-1.89,1.67-3.88,1.79c0.19-0.66,0.35-1.35,0.48-2.08c1.16-0.81,2.17-1.67,3-2.57  C44.2,28.8,44.36,29.8,44.02,30.55z"></path></svg>