<svg height='100px' width='100px'  fill="#000000" xmlns="http://www.w3.org/2000/svg" xmlns:xlink="http://www.w3.org/1999/xlink" viewBox="0 0 45 60" version="1.1" x="0px" y="0px"><title>002 - Pulley Weight </title><desc>Created with Sketch.</desc><g stroke="none" stroke-width="1" fill="none" fill-rule="evenodd"><g fill="#000000" fill-rule="nonzero"><path d="M16.639,22.775 C17.0293819,22.3845001 17.0293819,21.7514999 16.639,21.361 C14.0632819,18.7876771 13.2917452,14.9159599 14.6842834,11.5518625 C16.0768216,8.18776499 19.3590778,5.99407932 23,5.99407932 C26.6409222,5.99407932 29.9231784,8.18776499 31.3157166,11.5518625 C32.7082548,14.9159599 31.9367181,18.7876771 29.361,21.361 C29.1010434,21.6120745 28.9967874,21.9838779 29.0883028,22.3335073 C29.1798183,22.6831368 29.4528632,22.9561817 29.8024927,23.0476972 C30.1521221,23.1392126 30.5239255,23.0349566 30.775,22.775 C33.9228393,19.6297286 34.8655983,14.8977283 33.1635335,10.7862079 C31.4614687,6.67468751 27.4499017,3.99365211 23,3.99365211 C18.5500983,3.99365211 14.5385313,6.67468751 12.8364665,10.7862079 C11.1344017,14.8977283 12.0771607,19.6297286 15.225,22.775 C15.6154999,23.1653819 16.2485001,23.1653819 16.639,22.775 Z"></path><path d="M23,11 C20.790861,11 19,12.790861 19,15 C19,17.209139 20.790861,19 23,19 C25.209139,19 27,17.209139 27,15 C27,13.939134 26.5785726,12.9217184 25.8284271,12.1715729 C25.0782816,11.4214274 24.060866,11 23,11 Z M23,17 C21.8954305,17 21,16.1045695 21,15 C21,13.8954305 21.8954305,13 23,13 C24.1045695,13 25,13.8954305 25,15 C25,16.1045695 24.1045695,17 23,17 Z"></path><path d="M2.354,60 L15.646,60 C16.2807285,60.0001235 16.8778337,59.6989481 17.2549998,59.1884326 C17.6321658,58.6779171 17.7446102,58.018677 17.558,57.412 L14.173,46.412 C13.9176123,45.5706058 13.1402924,44.99656 12.261,45 L9,45 C8.19076867,45.000232 7.46114303,44.5127919 7.15156438,43.7651179 C6.84198573,43.0174438 7.01346878,42.1568946 7.586,41.585 C8.37798211,40.831222 9.62201789,40.831222 10.414,41.585 C10.8061093,41.9642591 11.4298267,41.9592848 11.8158372,41.57382 C12.2018476,41.1883551 12.2077042,40.5646454 11.829,40.172 C11.3227853,39.6707895 10.6910351,39.3150198 10,39.142 L10,22.451 C12.6638241,27.118729 17.6256486,30.0000362 23,30.0000362 C28.3743514,30.0000362 33.3361759,27.118729 36,22.451 L36,28.141 C34.732339,28.4622123 33.7036016,29.3860933 33.2484804,30.6120649 C32.7933591,31.8380366 32.9700246,33.2094031 33.721,34.28 C33.3070349,34.5069329 32.9878294,34.8743739 32.821,35.316 L29.548,44.316 C29.3248013,44.9292741 29.4148624,45.6128752 29.7892802,46.1474163 C30.1636979,46.6819574 30.7753724,47.0001958 31.428,47 L42.572,47 C43.2246276,47.0001958 43.8363021,46.6819574 44.2107198,46.1474163 C44.5851376,45.6128752 44.6751987,44.9292741 44.452,44.316 L41.179,35.316 C40.890273,34.5269625 40.1402028,34.001634 39.3,34 L37,34 C36.1907687,34.000232 35.461143,33.5127919 35.1515644,32.7651179 C34.8419857,32.0174438 35.0134688,31.1568946 35.586,30.585 C36.3779821,29.831222 37.6220179,29.831222 38.414,30.585 C38.8061093,30.9642591 39.4298267,30.9592848 39.8158372,30.57382 C40.2018476,30.1883551 40.2077042,29.5646454 39.829,29.172 C39.3227853,28.6707895 38.6910351,28.3150198 38,28.142 L38,15 C38,6.71572875 31.2842712,5.07265313e-16 23,0 C14.7157288,-5.07265313e-16 8,6.71572875 8,15 L8,39.141 C6.78164055,39.4457747 5.78000632,40.310283 5.30041419,41.4710063 C4.82082206,42.6317297 4.92010511,43.9511192 5.568,45.027 C4.75832548,45.0873673 4.0678775,45.6366323 3.827,46.412 L0.442,57.412 C0.2553898,58.018677 0.367834204,58.6779171 0.74500023,59.1884326 C1.12216626,59.6989481 1.71927148,60.0001235 2.354,60 Z M42.576,45 L31.428,45 L34.7,36 L39.3,36 L42.576,45 Z M23,2 C30.1797017,2 36,7.82029825 36,15 C36,22.1797017 30.1797017,28 23,28 C15.8202983,28 10,22.1797017 10,15 C10.008266,7.82372494 15.8237249,2.00826602 23,2 Z M5.739,47 L12.261,47 L15.646,58 L2.354,58 L5.739,47 Z"></path><path d="M6.29,54.29 C6.10743496,54.481743 6.00388039,54.7352731 6,55 C6.00170607,55.0670699 6.00839112,55.1339204 6.02,55.2 C6.03088731,55.2626625 6.05111232,55.3233376 6.08,55.38 C6.10185535,55.4437381 6.13212275,55.5042729 6.17,55.56 C6.20691278,55.6123935 6.2469872,55.6624865 6.29,55.71 C6.6843361,56.0967403 7.3156639,56.0967403 7.71,55.71 C7.89419577,55.5193164 7.99802571,55.2651121 8,55 C8.00236262,54.5937349 7.75869622,54.22642 7.38348151,54.070629 C7.00826679,53.9148381 6.57609046,54.0015401 6.29,54.29 Z"></path><path d="M10.29,54.29 C10.107435,54.481743 10.0038804,54.7352731 10,55 C10.0017061,55.0670699 10.0083911,55.1339204 10.02,55.2 C10.0308873,55.2626625 10.0511123,55.3233376 10.08,55.38 C10.1018554,55.4437381 10.1321227,55.5042729 10.17,55.56 C10.2069128,55.6123935 10.2469872,55.6624865 10.29,55.71 C10.6843361,56.0967403 11.3156639,56.0967403 11.71,55.71 C11.8941958,55.5193164 11.9980257,55.2651121 12,55 C12.0023626,54.5937349 11.7586962,54.22642 11.3834815,54.070629 C11.0082668,53.9148381 10.5760905,54.0015401 10.29,54.29 Z"></path><path d="M34.29,41.29 C34.1058042,41.4806836 34.0019743,41.7348879 34,42 C33.9972989,42.2660353 34.1017882,42.5219616 34.2899133,42.7100867 C34.4780384,42.8982118 34.7339647,43.0027011 35,43 C35.2651121,42.9980257 35.5193164,42.8941958 35.71,42.71 C36.1021221,42.3178778 36.1021221,41.6821222 35.71,41.29 C35.3178778,40.8978779 34.6821222,40.8978779 34.29,41.29 Z"></path><path d="M39,43 C39.4062651,43.0023626 39.77358,42.7586962 39.929371,42.3834815 C40.0851619,42.0082668 39.9984599,41.5760905 39.71,41.29 C39.616074,41.197469 39.5036026,41.1258964 39.38,41.08 C39.0066327,40.9332746 38.582129,41.0150597 38.29,41.29 C38.0015401,41.5760905 37.9148381,42.0082668 38.070629,42.3834815 C38.22642,42.7586962 38.5937349,43.0023626 39,43 Z"></path></g></g></svg>