<svg height='100px' width='100px'  fill="#000000" xmlns="http://www.w3.org/2000/svg" xmlns:xlink="http://www.w3.org/1999/xlink" viewBox="0 0 60 59" version="1.1" x="0px" y="0px"><title>006 - gravity</title><desc>Created with Sketch.</desc><g stroke="none" stroke-width="1" fill="none" fill-rule="evenodd"><g fill="#000000" fill-rule="nonzero"><path d="M22,15 C22.5522847,15 23,14.5522847 23,14 C23,13.4477153 22.5522847,13 22,13 C21.1916472,12.9994238 20.4631191,12.5122994 20.1537219,11.765501 C19.8443246,11.0187026 20.0148984,10.1590817 20.586,9.587 C21.3779821,8.83322202 22.6220179,8.83322202 23.414,9.587 C23.7901653,9.96086217 24.0011697,10.4696493 24,11 C24,11.5522847 24.4477153,12 25,12 C25.5522847,12 26,11.5522847 26,11 C26.0032503,9.93872822 25.5815519,8.92031407 24.829,8.172 C23.2454419,6.6634285 20.7565581,6.6634285 19.173,8.172 C18.0294968,9.31584828 17.6873771,11.0357754 18.3060964,12.5301565 C18.9248157,14.0245377 20.3825984,14.9992504 22,15 Z"></path><path d="M34,27 C34.5522847,27 35,26.5522847 35,26 C34.9982984,25.4694474 35.2089547,24.9602712 35.585,24.586 C36.3769821,23.832222 37.6210179,23.832222 38.413,24.586 C38.9846875,25.1578598 39.1557792,26.0177022 38.8465477,26.7648475 C38.5373162,27.5119928 37.8086098,27.9994232 37,28 C36.4477153,28 36,28.4477153 36,29 C36,29.5522847 36.4477153,30 37,30 C38.6171444,29.9992508 40.0747486,29.0248441 40.6936336,27.5308099 C41.3125187,26.0367758 40.9709171,24.3170704 39.828,23.173 C38.2444419,21.6644285 35.7555581,21.6644285 34.172,23.173 C33.4197057,23.9211582 32.9977277,24.9390183 33,26 C33,26.5522847 33.4477153,27 34,27 Z"></path><path d="M52,45 C54.209139,45 56,43.209139 56,41 C56,38.790861 54.209139,37 52,37 C51.4477153,37 51,37.4477153 51,38 C51,38.5522847 51.4477153,39 52,39 C52.8083528,39.0005762 53.5368809,39.4877006 53.8462781,40.234499 C54.1556754,40.9812974 53.9851016,41.8409183 53.414,42.413 C52.6220179,43.166778 51.3779821,43.166778 50.586,42.413 C50.2098347,42.0391378 49.9988303,41.5303507 50,41 C50,40.4477153 49.5522847,40 49,40 C48.4477153,40 48,40.4477153 48,41 C48,43.209139 49.790861,45 52,45 Z"></path><path d="M2,59 L56.586,59 C57.3947918,58.9998273 58.1238681,58.512545 58.433356,57.7653091 C58.7428438,57.0180732 58.5718158,56.1579885 58,55.586 L51.381,48.967 C51.587,48.982 51.793,48.996 52,48.996 C55.2933261,48.9995837 58.2523414,46.9845788 59.4556143,43.9189396 C60.6588872,40.8533004 59.8605206,37.3635115 57.4440284,35.1259738 C55.0275363,32.8884361 51.4867453,32.3604059 48.5225567,33.7955348 C45.558368,35.2306638 43.776534,38.3356732 44.033,41.619 L36.381,33.967 C36.587,33.982 36.793,33.996 37,33.996 C40.2933261,33.9995837 43.2523414,31.9845788 44.4556143,28.9189396 C45.6588872,25.8533004 44.8605206,22.3635115 42.4440284,20.1259738 C40.0275363,17.8884361 36.4867453,17.3604059 33.5225567,18.7955348 C30.558368,20.2306638 28.776534,23.3356732 29.033,26.619 L21.381,18.967 C21.587,18.982 21.793,18.996 22,18.996 C25.2933261,18.9995837 28.2523414,16.9845788 29.4556143,13.9189396 C30.6588872,10.8533004 29.8605206,7.36351146 27.4440284,5.12597376 C25.0275363,2.88843606 21.4867453,2.36040591 18.5225567,3.79553483 C15.558368,5.23066375 13.776534,8.33567323 14.033,11.619 L3.414,1 C2.84201149,0.428184169 1.98192677,0.257156188 1.23469088,0.566644044 C0.487455,0.8761319 0.000172696028,1.6052082 0,2.414 L0,57 C-8.67738547e-17,58.1045695 0.8954305,59 2,59 Z M47.757,36.757 C50.1002506,34.4141463 53.8990558,34.4143607 56.2420418,36.7574791 C58.5850279,39.1005974 58.5850279,42.8994026 56.2420418,45.2425209 C53.8990558,47.5856393 50.1002506,47.5858537 47.757,45.243 C45.4172346,42.8981746 45.4172346,39.1018254 47.757,36.757 Z M32.757,21.757 C35.1002506,19.4141463 38.8990558,19.4143607 41.2420418,21.7574791 C43.5850279,24.1005974 43.5850279,27.8994026 41.2420418,30.2425209 C38.8990558,32.5856393 35.1002506,32.5858537 32.757,30.243 C31.6276241,29.1198468 30.9926217,27.5927846 30.9926217,26 C30.9926217,24.4072154 31.6276241,22.8801532 32.757,21.757 Z M17.757,6.757 C20.1002506,4.41414625 23.8990558,4.41436074 26.2420418,6.75747909 C28.5850279,9.10059744 28.5850279,12.8994026 26.2420418,15.2425209 C23.8990558,17.5856393 20.1002506,17.5858537 17.757,15.243 C16.6276241,14.1198468 15.9926217,12.5927846 15.9926217,11 C15.9926217,9.40721538 16.6276241,7.88015316 17.757,6.757 Z M2,2.414 L56.6,57 L2,57 L2,2.414 Z"></path><path d="M5,9 C4.44771525,9 4,9.44771525 4,10 L4,25 C4,25.5522847 4.44771525,26 5,26 C5.55228475,26 6,25.5522847 6,25 L6,10 C6,9.44771525 5.55228475,9 5,9 Z"></path><path d="M5,28 C4.44771525,28 4,28.4477153 4,29 L4,54 C4,54.5522847 4.44771525,55 5,55 C5.55228475,55 6,54.5522847 6,54 L6,29 C6,28.4477153 5.55228475,28 5,28 Z"></path><path d="M11.707,15.293 C11.3146211,14.9140278 10.6909152,14.9194476 10.3051814,15.3051814 C9.91944763,15.6909152 9.91402779,16.3146211 10.293,16.707 L40.586,47 L36,47 C35.4477153,47 35,47.4477153 35,48 C35,48.5522847 35.4477153,49 36,49 L43,49 C43.4043959,48.9999137 43.7689341,48.7562725 43.923678,48.3826546 C44.0784219,48.0090366 43.9929079,47.5789943 43.707,47.293 L11.707,15.293 Z"></path></g></g></svg>