<svg height='100px' width='100px'  fill="#000000" xmlns="http://www.w3.org/2000/svg" xmlns:xlink="http://www.w3.org/1999/xlink" version="1.1" x="0px" y="0px" viewBox="0 0 32 32" style="enable-background:new 0 0 32 32;" xml:space="preserve"><g><g><path d="M10.8,28c-2.2,0-4-1.8-4-4V0.8C6.8,0.3,7.1,0,7.5,0H14c0.4,0,0.8,0.3,0.8,0.8V24C14.8,26.2,13,28,10.8,28z M8.3,1.5V24    c0,1.4,1.1,2.5,2.5,2.5s2.5-1.1,2.5-2.5V1.5H8.3z"></path></g><g><path d="M27.3,32H4.8C4.3,32,4,31.7,4,31.3s0.3-0.8,0.8-0.8h22.5c0.4,0,0.8,0.3,0.8,0.8S27.7,32,27.3,32z"></path></g><g><path d="M23.4,15.6c-2.5,0-4.6-2-4.6-4.6s2-4.6,4.6-4.6s4.6,2,4.6,4.6S26,15.6,23.4,15.6z M23.4,8c-1.7,0-3.1,1.4-3.1,3.1    s1.4,3.1,3.1,3.1s3.1-1.4,3.1-3.1S25.1,8,23.4,8z"></path></g><g><path d="M23.4,8c-0.4,0-0.8-0.3-0.8-0.8V0.8C22.7,0.3,23,0,23.4,0s0.8,0.3,0.8,0.8v6.5C24.2,7.7,23.9,8,23.4,8z"></path></g><g><path d="M23.4,32c-0.4,0-0.8-0.3-0.8-0.8V14.9c0-0.4,0.3-0.8,0.8-0.8s0.8,0.3,0.8,0.8v16.4C24.2,31.7,23.9,32,23.4,32z"></path></g><g><path d="M19.6,11.8H14c-0.4,0-0.8-0.3-0.8-0.8s0.3-0.8,0.8-0.8h5.6c0.4,0,0.8,0.3,0.8,0.8S20,11.8,19.6,11.8z"></path></g><g><g><path d="M10.8,7.5H7.5c-0.4,0-0.8-0.3-0.8-0.8S7.1,6,7.5,6h3.3c0.4,0,0.8,0.3,0.8,0.8S11.2,7.5,10.8,7.5z"></path></g><g><path d="M9.1,11.1H7.5c-0.4,0-0.8-0.3-0.8-0.8s0.3-0.8,0.8-0.8h1.6c0.4,0,0.8,0.3,0.8,0.8S9.5,11.1,9.1,11.1z"></path></g><g><path d="M10.8,14.8H7.5c-0.4,0-0.8-0.3-0.8-0.8s0.3-0.8,0.8-0.8h3.3c0.4,0,0.8,0.3,0.8,0.8S11.2,14.8,10.8,14.8z"></path></g><g><path d="M9.1,18.4H7.5c-0.4,0-0.8-0.3-0.8-0.8s0.3-0.8,0.8-0.8h1.6c0.4,0,0.8,0.3,0.8,0.8S9.5,18.4,9.1,18.4z"></path></g><g><path d="M10.8,22H7.5c-0.4,0-0.8-0.3-0.8-0.8s0.3-0.8,0.8-0.8h3.3c0.4,0,0.8,0.3,0.8,0.8S11.2,22,10.8,22z"></path></g></g><g><path d="M15.4,1.5H6.1c-0.4,0-0.8-0.3-0.8-0.8S5.7,0,6.1,0h9.3c0.4,0,0.8,0.3,0.8,0.8S15.8,1.5,15.4,1.5z"></path></g></g></svg>