<svg height='100px' width='100px'  fill="#000000" xmlns="http://www.w3.org/2000/svg" xmlns:xlink="http://www.w3.org/1999/xlink" version="1.1" x="0px" y="0px" viewBox="0 0 100 100" enable-background="new 0 0 100 100" xml:space="preserve"><g><path d="M68,29H56v3.6c15.299,2.851,26.999,16.35,26.999,32.399v26.999c0,3.3-2.7,6-6,6H23.002c-3.301,0-6-2.7-6-6V64.999   C17.002,48.949,28.701,35.45,44,32.6V29H32.001c-9.899,0-17.999-8.1-17.999-17.999c-2.551,0-4.5-1.949-4.5-4.499   c0-2.551,1.949-4.5,4.5-4.5h71.997c2.55,0,4.499,1.949,4.499,4.5c0,2.55-1.949,4.499-4.499,4.499C85.999,20.9,77.899,29,68,29z    M85.999,8.001c0.899,0,1.5-0.6,1.5-1.499c0-0.9-0.601-1.5-1.5-1.5H14.002c-0.9,0-1.5,0.6-1.5,1.5c0,0.899,0.6,1.499,1.5,1.499   H85.999z M68,26c8.249,0,14.999-6.749,14.999-14.999H17.002c0,8.25,6.75,14.999,14.999,14.999H68z M79.999,64.999   C79.999,48.5,66.5,35,50,35c-16.499,0-29.998,13.5-29.998,29.999v26.999c0,1.65,1.35,3,3,3h53.997c1.649,0,3-1.35,3-3V64.999z    M50,41c13.199,0,24,10.799,24,23.999c0,13.199-10.801,23.999-24,23.999s-23.998-10.8-23.998-23.999C26.002,51.799,36.801,41,50,41   z M50,85.998c11.55,0,21-9.449,21-20.999S61.55,44,50,44c-11.549,0-20.999,9.449-20.999,20.999S38.451,85.998,50,85.998z M50,47   c9.9,0,18,8.1,18,17.999s-8.1,17.999-18,17.999c-9.899,0-17.999-8.1-17.999-17.999S40.101,47,50,47z M50,79.998   c8.25,0,15-6.75,15-14.999C65,56.749,58.25,50,50,50s-14.999,6.749-14.999,14.999C35.001,73.248,41.75,79.998,50,79.998z M53,32.15   V29h-6v3.15C47.9,32,48.95,32,50,32C50.9,32,51.95,32,53,32.15z M48.5,62.449V54.5c0-0.9,0.601-1.5,1.5-1.5c0.9,0,1.5,0.6,1.5,1.5   v7.949c0.9,0.449,1.5,1.5,1.5,2.55c0,1.649-1.35,3-3,3c-1.649,0-3-1.351-3-3C47,63.949,47.601,62.898,48.5,62.449z"></path></g></svg>