<svg height='100px' width='100px'  xmlns="http://www.w3.org/2000/svg" viewBox="0 0 14 31" fill="none" x="0px" y="0px"><path d="M6 24.5858C6.55273 24.5858 7 24.1381 7 23.5858C7 23.0335 6.55273 22.5858 6 22.5858C5.44727 22.5858 5 23.0335 5 23.5858C5 24.1381 5.44727 24.5858 6 24.5858Z" fill="black"></path><path d="M9 26.5858C9 27.1381 8.55273 27.5858 8 27.5858C7.44727 27.5858 7 27.1381 7 26.5858C7 26.0335 7.44727 25.5858 8 25.5858C8.55273 25.5858 9 26.0335 9 26.5858Z" fill="black"></path><path d="M7 20.5858C8.10449 20.5858 9 19.6904 9 18.5858C9 17.4813 8.10449 16.5858 7 16.5858C5.89551 16.5858 5 17.4813 5 18.5858C5 19.6904 5.89551 20.5858 7 20.5858Z" fill="black"></path><path fill-rule="evenodd" clip-rule="evenodd" d="M2.8877 2.91461L3.16699 4.58582H1C0.447266 4.58582 0 5.03351 0 5.58582C0 6.13812 0.447266 6.58582 1 6.58582H2V25.5858C2 28.3472 4.23828 30.5858 7 30.5858C9.76172 30.5858 12 28.3472 12 25.5858V6.58582H13C13.5527 6.58582 14 6.13812 14 5.58582C14 5.03351 13.5527 4.58582 13 4.58582H10.833L11.1123 2.91461C11.3154 1.69556 10.375 0.585815 9.13867 0.585815H4.86133C3.625 0.585815 2.68457 1.69556 2.8877 2.91461ZM9.13867 2.58582H4.86133L5.19434 4.58582H8.80566L9.13867 2.58582ZM10 6.58582V13.5858H4V6.58582H10ZM7 28.5858C8.65723 28.5858 10 27.2427 10 25.5858V15.5858H4V25.5858C4 27.2427 5.34277 28.5858 7 28.5858Z" fill="black"></path></svg>