<svg height='100px' width='100px'  fill="#000000" xmlns="http://www.w3.org/2000/svg" xmlns:xlink="http://www.w3.org/1999/xlink" version="1.1" x="0px" y="0px" viewBox="0 0 64 64" style="enable-background:new 0 0 64 64;" xml:space="preserve"><g><path d="M63,6.95C63,3.669,60.331,1,57.05,1c-1.589,0-3.083,0.619-4.207,1.743L48,7.586l-0.672-0.672   C46.747,6.333,45.943,6,45.121,6C43.4,6,42,7.4,42,9.121c0,0.822,0.333,1.626,0.914,2.207L43.586,12l-9.841,9.841   C30.451,19.987,26.757,19,23,19C10.869,19,1,28.869,1,41s9.869,22,22,22s22-9.869,22-22c0-3.757-0.987-7.451-2.841-10.745   L52,20.414l0.672,0.672C53.253,21.667,54.057,22,54.879,22C56.6,22,58,20.6,58,18.879c0-0.822-0.333-1.626-0.914-2.207L56.414,16   l4.843-4.843C62.381,10.033,63,8.539,63,6.95z M43,41c0,11.028-8.972,20-20,20S3,52.028,3,41s8.972-20,20-20   c3.228,0,6.409,0.796,9.278,2.308l-1.479,1.479C28.375,23.62,25.697,23,23,23c-9.925,0-18,8.075-18,18s8.075,18,18,18   s18-8.075,18-18c0-2.697-0.62-5.375-1.787-7.799l1.479-1.479C42.204,34.591,43,37.772,43,41z M29,39h0.414l3-3h1.929   c1.255,0,2.429-0.474,3.351-1.312C38.547,36.675,39,38.831,39,41c0,8.822-7.178,16-16,16S7,49.822,7,41s7.178-16,16-16   c2.169,0,4.325,0.453,6.312,1.307C28.474,27.228,28,28.402,28,29.657v1.929l-3,3V35C25,37.206,26.794,39,29,39z M36.465,33.121   C35.898,33.688,35.145,34,34.343,34h-2.757l-2.964,2.964c-0.801-0.153-1.433-0.785-1.586-1.586L30,32.414v-2.757   c0-0.802,0.312-1.556,0.879-2.122L33,25.414l2.293,2.293l1.414-1.414L34.414,24L36,22.414l3.293,3.293l1.414-1.414L37.414,21   L39,19.414l2.293,2.293l1.414-1.414L40.414,18L42,16.414l3.293,3.293l1.414-1.414L43.414,15L45,13.414L50.586,19L36.465,33.121z    M54.879,20c-0.295,0-0.584-0.119-0.793-0.328l-9.758-9.758C44.119,9.705,44,9.416,44,9.121C44,8.503,44.503,8,45.121,8   c0.295,0,0.584,0.119,0.793,0.328l9.758,9.758C55.881,18.295,56,18.584,56,18.879C56,19.497,55.497,20,54.879,20z M59.843,9.743   L55,14.586L49.414,9l4.843-4.843C55.003,3.411,55.995,3,57.05,3C59.228,3,61,4.772,61,6.95C61,8.005,60.589,8.997,59.843,9.743z"></path><path d="M20.914,44.672C20.333,45.253,20,46.057,20,46.879C20,48.6,21.4,50,23.121,50c0.822,0,1.626-0.333,2.207-0.914l3.758-3.758   C29.667,44.747,30,43.943,30,43.121C30,41.4,28.6,40,26.879,40c-0.822,0-1.626,0.333-2.207,0.914L20.914,44.672z M26.879,42   C27.497,42,28,42.503,28,43.121c0,0.295-0.119,0.584-0.328,0.793l-3.758,3.758C23.705,47.881,23.416,48,23.121,48   C22.503,48,22,47.497,22,46.879c0-0.295,0.119-0.584,0.328-0.793l3.758-3.758C26.295,42.119,26.584,42,26.879,42z"></path><path d="M18.672,36.086C19.253,36.667,20.057,37,20.879,37C22.6,37,24,35.6,24,33.879c0-0.822-0.333-1.626-0.914-2.207   l-3.758-3.758C18.747,27.333,17.943,27,17.121,27C15.4,27,14,28.4,14,30.121c0,0.822,0.333,1.626,0.914,2.207L18.672,36.086z    M17.121,29c0.295,0,0.584,0.119,0.793,0.328l3.758,3.758C21.881,33.295,22,33.584,22,33.879C22,34.497,21.497,35,20.879,35   c-0.295,0-0.584-0.119-0.793-0.328l-3.758-3.758C16.119,30.705,16,30.416,16,30.121C16,29.503,16.503,29,17.121,29z"></path><path d="M15,43c0-1.654-1.346-3-3-3s-3,1.346-3,3s1.346,3,3,3S15,44.654,15,43z M12,44c-0.552,0-1-0.448-1-1s0.448-1,1-1   s1,0.448,1,1S12.552,44,12,44z"></path><rect x="11.5" y="34.379" transform="matrix(0.7071 -0.7071 0.7071 0.7071 -22.1482 19.5294)" width="2" height="4.243"></rect><rect x="35" y="38" width="2" height="4"></rect><rect x="12.379" y="48.5" transform="matrix(0.7071 -0.7071 0.7071 0.7071 -30.7548 24.7513)" width="4.243" height="2"></rect><rect x="17" y="41" width="4" height="2"></rect><path d="M30,48c-1.654,0-3,1.346-3,3s1.346,3,3,3s3-1.346,3-3S31.654,48,30,48z M30,52c-0.552,0-1-0.448-1-1s0.448-1,1-1   s1,0.448,1,1S30.552,52,30,52z"></path><rect x="32.5" y="43.379" transform="matrix(0.7071 -0.7071 0.7071 0.7071 -22.3614 37.0147)" width="2" height="4.243"></rect><rect x="18" y="52" width="4" height="2"></rect><rect x="22.5" y="26.379" transform="matrix(0.7071 -0.7071 0.7071 0.7071 -13.2696 24.9645)" width="2" height="4.243"></rect></g></svg>