<svg height='100px' width='100px'  fill="#000000" xmlns="http://www.w3.org/2000/svg" viewBox="0 0 128 128" x="0px" y="0px"><title>Chinese, dessert, sweet, chopsticks, newyear, bowl</title><path d="M115.866,12.382a4.372,4.372,0,0,0-7.966-1.346L92.2,36.074q-.421-.617-.893-1.193L103.872,8.552A4.372,4.372,0,0,0,95.98,4.785L84.066,29.75A16.671,16.671,0,0,0,64,37.017a16.685,16.685,0,0,0-30.6,4.44A16.737,16.737,0,0,0,18.517,57.512c-1.529.918-2.436,1.979-2.476,3.209,0,.023-.008.045-.008.069-.019,2.133.045,4.825.2,8.232a94.435,94.435,0,0,0,1.086,10.891c2.625,16.212,9.75,27.128,21.583,32.944l.388,4.394a4.948,4.948,0,0,0,3.227,4.188A63.557,63.557,0,0,0,64,124.733a63.556,63.556,0,0,0,21.489-3.3,4.951,4.951,0,0,0,3.226-4.194l.384-4.355c9.5-4.65,15.962-12.585,19.514-23.9.016-.04.5-1.648.7-2.431q.764-2.85,1.3-5.966l.174-1.065c.427-2.738.73-5.633.918-8.814q.04-.684.074-1.387c0-.023.227-6.239.207-8.534a1.588,1.588,0,0,0-.032-.3,3.564,3.564,0,0,0-1.421-2.257c0-.05-.04-1.57-.127-2.262A16.774,16.774,0,0,0,98.745,42.1l16.564-26.413A4.346,4.346,0,0,0,115.866,12.382Zm-17.178-6.3a1.373,1.373,0,0,1,2.477,1.183l-12.1,25.355a16.689,16.689,0,0,0-2.278-1.6ZM78.4,31.755a13.74,13.74,0,0,1,13.13,9.76,16.748,16.748,0,0,0-12.687,9.174,18.644,18.644,0,0,0-13.983-7.335A13.728,13.728,0,0,1,78.4,31.755ZM64,46.311A15.7,15.7,0,0,1,79.686,62,15.5,15.5,0,0,1,79,66.528c-4.516.252-9.514.4-14.991.4S53.521,66.78,49,66.528A15.5,15.5,0,0,1,48.314,62,15.7,15.7,0,0,1,64,46.311ZM49.6,31.755A13.737,13.737,0,0,1,62.43,40.628a16.768,16.768,0,0,0-.6,2.819A18.652,18.652,0,0,0,49.787,49.9,16.742,16.742,0,0,0,36.5,41.4,13.744,13.744,0,0,1,49.6,31.755Zm-14.387,12.6a13.718,13.718,0,0,1,12.6,8.345,18.525,18.525,0,0,0-1.987,13.629c-11.475-.807-19.423-2.3-23.542-3.708a13.591,13.591,0,0,1-.8-4.54A13.742,13.742,0,0,1,35.215,44.353ZM20.276,79.432a91.368,91.368,0,0,1-1.049-10.527,2.458,2.458,0,0,1,2.165,2.439.166.166,0,0,0,.183.127,2.428,2.428,0,0,1,.77-.125,2.468,2.468,0,0,1,.77,4.812.212.212,0,0,0-.081.252,2.463,2.463,0,0,1-.54,3.447,2.349,2.349,0,0,1-2.074.384C20.373,79.97,20.32,79.706,20.276,79.432Zm65.451,37.542a1.937,1.937,0,0,1-1.258,1.643A60.6,60.6,0,0,1,64,121.733a60.57,60.57,0,0,1-20.468-3.116,1.936,1.936,0,0,1-1.259-1.637l-.241-2.737q9.287,3.632,22,3.623,12.684,0,21.93-3.6Zm-21.692-2.108c-20.959,0-34.35-7.785-40.631-23.708,8.738,3.221,24.244,6.121,40.6,6.121,16.38,0,31.9-2.9,40.643-6.121C98.369,107.08,84.992,114.866,64.035,114.866Zm43.794-35.811s-.194,1.161-.2,1.222a2.281,2.281,0,0,1-1.061-.351,2.4,2.4,0,0,1-.575-3.378.2.2,0,0,0-.08-.252,2.321,2.321,0,0,1-1.585-2.987,2.626,2.626,0,0,1,2.464-1.839,2.344,2.344,0,0,1,.614.081c.058.011.173-.069.173-.138a2.608,2.608,0,0,1,1.211-2.2A92.194,92.194,0,0,1,107.829,79.055Zm1.088-13.114a5.55,5.55,0,0,0-3.652,2.749,5.683,5.683,0,0,0-3.8,3.715,5.48,5.48,0,0,0,.428,4.276,5.311,5.311,0,0,0,.658.929,5.519,5.519,0,0,0,.09,1.406,5.233,5.233,0,0,0,4.4,4.218q-.479,2.154-1.086,4.16C98.415,90.784,81.51,94.279,64,94.279c-17.482,0-34.372-3.5-41.9-6.886q-.594-1.959-1.065-4.06h.015a5.478,5.478,0,0,0,5.4-4.624,5.461,5.461,0,0,0,.047-1.325,5.516,5.516,0,0,0,.736-1.1,5.473,5.473,0,0,0-3.641-7.794,5.469,5.469,0,0,0-4.475-2.6c-.016-.508-.031-1-.042-1.47,10.287,5.437,43.292,5.511,44.944,5.511s34.665-.074,44.948-5.513C108.948,64.912,108.934,65.422,108.917,65.941Zm-1.374-7.862a13.587,13.587,0,0,1-.641,4.1c-3.67,1.524-12.047,3.254-24.73,4.144a18.474,18.474,0,0,0-1.387-12.49,13.713,13.713,0,0,1,26.758,4.241Zm5.224-43.991L95.607,41.452c-.334-.036-.674-.044-1.013-.06a16.709,16.709,0,0,0-.756-2.285l16.6-26.478a1.364,1.364,0,0,1,.856-.608,1.4,1.4,0,0,1,.308-.035,1.373,1.373,0,0,1,1.161,2.1Z"></path><path d="M81.711,82.4a5.41,5.41,0,0,0,.087,1.419,5.251,5.251,0,0,0,2.273,3.4A5.306,5.306,0,0,0,87,88.1a5.531,5.531,0,0,0,2.434-.566,5.425,5.425,0,0,0,1.763.293A5.6,5.6,0,0,0,96.743,81.7a5.492,5.492,0,0,0,.986-5.325,5.3,5.3,0,0,0-4.013-3.461,5.262,5.262,0,0,0-4.407-2.328h0q-.177,0-.357.012a5.585,5.585,0,0,0-4.531,2.882,5.671,5.671,0,0,0-3.8,3.723,5.449,5.449,0,0,0,.413,4.244A5.3,5.3,0,0,0,81.711,82.4ZM83.482,78.1a2.619,2.619,0,0,1,2.46-1.839,2.361,2.361,0,0,1,.61.08.182.182,0,0,0,.177-.141,2.617,2.617,0,0,1,2.418-2.608c.055,0,.108-.006.162-.006a2.288,2.288,0,0,1,2.305,2.3.159.159,0,0,0,.179.118,2.489,2.489,0,0,1,.923-.179,2.282,2.282,0,0,1,2.178,1.536,2.584,2.584,0,0,1-1.524,3.194.206.206,0,0,0-.076.252,2.5,2.5,0,0,1-.507,3.457,2.54,2.54,0,0,1-1.588.567,2.292,2.292,0,0,1-1.829-.885.187.187,0,0,0-.241.016A2.6,2.6,0,0,1,87,85.1a2.31,2.31,0,0,1-1.279-.379,2.4,2.4,0,0,1-.575-3.386.19.19,0,0,0-.08-.243A2.322,2.322,0,0,1,83.482,78.1Z"></path><path d="M59.335,74.231a5.477,5.477,0,0,0-2.9,8.9A5.465,5.465,0,0,0,64,88.647a5.468,5.468,0,0,0,7.57-5.514,5.523,5.523,0,0,0,.741-1.112,5.471,5.471,0,0,0-3.644-7.79,5.467,5.467,0,0,0-9.33,0Zm7.135,2.854a.171.171,0,0,0,.18.13,2.469,2.469,0,1,1,1.547,4.69.2.2,0,0,0-.079.249,2.47,2.47,0,0,1-4,2.905.19.19,0,0,0-.244,0,2.471,2.471,0,0,1-4-2.905.2.2,0,0,0-.079-.249,2.469,2.469,0,1,1,1.548-4.69.171.171,0,0,0,.18-.13,2.47,2.47,0,1,1,4.94,0Z"></path><path d="M44.177,73.476a5.585,5.585,0,0,0-4.531-2.882c-.119-.008-.238-.012-.356-.012a5.265,5.265,0,0,0-4.408,2.328,5.3,5.3,0,0,0-4.011,3.458,5.5,5.5,0,0,0,.984,5.328A5.6,5.6,0,0,0,37.4,87.822a5.385,5.385,0,0,0,1.76-.293A5.545,5.545,0,0,0,41.6,88.1a5.284,5.284,0,0,0,5.2-4.273,5.407,5.407,0,0,0,.087-1.419,5.3,5.3,0,0,0,.678-.96A5.447,5.447,0,0,0,47.98,77.2,5.672,5.672,0,0,0,44.177,73.476Zm-.646,7.611a.192.192,0,0,0-.081.243,2.4,2.4,0,0,1-.574,3.386A2.313,2.313,0,0,1,41.6,85.1a2.594,2.594,0,0,1-2.127-1.142.188.188,0,0,0-.242-.016,2.29,2.29,0,0,1-1.828.885,2.543,2.543,0,0,1-1.589-.567,2.5,2.5,0,0,1-.506-3.457.207.207,0,0,0-.076-.252,2.584,2.584,0,0,1-1.524-3.194,2.28,2.28,0,0,1,2.178-1.536,2.484,2.484,0,0,1,.922.179.159.159,0,0,0,.18-.118,2.288,2.288,0,0,1,2.3-2.3c.053,0,.107,0,.161.006A2.615,2.615,0,0,1,41.869,76.2a.183.183,0,0,0,.177.141,2.374,2.374,0,0,1,.611-.08A2.617,2.617,0,0,1,45.116,78.1,2.321,2.321,0,0,1,43.531,81.087Z"></path></svg>