<svg height='100px' width='100px'  fill="#000000" xmlns="http://www.w3.org/2000/svg" xmlns:xlink="http://www.w3.org/1999/xlink" version="1.1" x="0px" y="0px" viewBox="0 0 58 58" style="enable-background:new 0 0 58 58;" xml:space="preserve"><g><path d="M57.163,35.076C57.646,34.997,58,34.579,58,34.09V17c0-0.041-0.019-0.076-0.023-0.116   c-0.009-0.074-0.019-0.146-0.043-0.215c-0.019-0.053-0.045-0.1-0.072-0.148c-0.033-0.06-0.068-0.116-0.113-0.168   c-0.037-0.043-0.078-0.079-0.123-0.116c-0.051-0.042-0.104-0.079-0.164-0.11c-0.053-0.028-0.107-0.049-0.165-0.068   c-0.034-0.011-0.061-0.032-0.096-0.039L25.86,9.61c-0.463-0.098-0.932,0.148-1.119,0.585C24.27,11.291,23.194,12,22,12   c-1.647,0-2.993-1.339-3-2.985c-0.002-0.474-0.336-0.88-0.8-0.975l-5-1.02c-0.28-0.058-0.57,0.009-0.8,0.18l-12,9   c-0.022,0.017-0.036,0.041-0.057,0.059c-0.033,0.029-0.061,0.059-0.089,0.092c-0.053,0.061-0.096,0.125-0.132,0.195   c-0.018,0.035-0.037,0.067-0.051,0.104c-0.04,0.107-0.066,0.219-0.067,0.334C0.003,16.99,0,16.995,0,17v0.005   c0,0.001,0,0.001,0,0.002V24c0,0.553,0.448,1,1,1c2.757,0,5,2.243,5,5s-2.243,5-5,5c-0.552,0-1,0.447-1,1v14c0,0.553,0.448,1,1,1   h56c0.553,0,1-0.447,1-1v-4.09c0-0.489-0.354-0.907-0.837-0.986C54.751,44.524,53,42.454,53,40S54.751,35.475,57.163,35.076z    M13.241,9.069l3.832,0.781C17.478,12.202,19.537,14,22,14c1.713,0,3.281-0.874,4.188-2.281L47.12,16H4L13.241,9.069z M51,40   c0,3.146,2.058,5.843,5,6.706V49H2V36.929C5.388,36.442,8,33.52,8,30s-2.612-6.442-6-6.929V18h54v15.294   C53.058,34.157,51,36.853,51,40z"></path><path d="M38,25c-2.757,0-5,2.243-5,5s2.243,5,5,5s5-2.243,5-5S40.757,25,38,25z M38,33c-1.654,0-3-1.346-3-3s1.346-3,3-3   s3,1.346,3,3S39.654,33,38,33z"></path><path d="M17,34c-2.757,0-5,2.243-5,5s2.243,5,5,5s5-2.243,5-5S19.757,34,17,34z M17,42c-1.654,0-3-1.346-3-3s1.346-3,3-3   s3,1.346,3,3S18.654,42,17,42z"></path><circle cx="48" cy="28" r="1"></circle><circle cx="13" cy="13" r="1"></circle><circle cx="20" cy="26" r="1"></circle><circle cx="31" cy="38" r="1"></circle></g></svg>