<svg height='100px' width='100px'  fill="#000000" xmlns="http://www.w3.org/2000/svg" xmlns:xlink="http://www.w3.org/1999/xlink" version="1.1" x="0px" y="0px" viewBox="0 0 100 100" enable-background="new 0 0 100 100" xml:space="preserve"><path fill="#000000" d="M96.6,29.7c-0.4-0.5-1-0.8-1.6-0.8h-8.8c-0.6,0-1.1,0.3-1.5,0.7c-4.6,5.5-8.8,6.1-10.4,6.1  c-1.4-1.6-3-3.2-4.7-4.5c0-0.1,0-0.2,0-0.3c0-3.5-5.6-7.8-12.8-9.5c0.2-0.6,0.3-1.1,0.3-1.7c0-3.5-2.8-6.3-6.3-6.3  c-3.5,0-6.3,2.8-6.3,6.3c0,0.6,0.1,1.2,0.3,1.7c-7.3,1.6-12.8,5.9-12.8,9.5c0,0.1,0,0.2,0,0.3c-0.5,0.4-0.9,0.7-1.3,1.1  c-2-0.7-4.2-1-6.5-1C12.5,31.3,3,40.7,3,52.4C3,64,12.5,73.4,24.1,73.4c0.5,0,0.9,0,1.4,0c5.6,7.9,14.8,13.1,25.2,13.1  c10.4,0,19.6-5.2,25.2-13.1c18-1,19.5-26.8,19.5-34.8c0-1.1,0.9-4.8,1.6-7.1C97.1,30.8,97,30.2,96.6,29.7z M50.7,17.4  c1.3,0,2.3,1,2.3,2.3s-1,2.3-2.3,2.3c-1.3,0-2.3-1-2.3-2.3S49.4,17.4,50.7,17.4z M47.3,25c1,0.6,2.2,1,3.4,1c1.3,0,2.4-0.4,3.4-1  c6.6,1,11.2,4.6,11.5,5.9c-0.5,1-5.5,3.3-14.9,3.3c-9.4,0-14.4-2.3-14.9-3.3C36.1,29.5,40.8,26,47.3,25z M6.9,52.4  c0-9.4,7.7-17.1,17.1-17.1c1.1,0,2.2,0.1,3.2,0.3c-0.8,0.9-1.5,1.9-2.2,2.9c-0.3,0-0.7,0-1,0c-7.7,0-14,6.3-14,14  c0,6.9,5,12.6,11.6,13.8c0.4,1.1,0.9,2.3,1.4,3.3C14.1,69,6.9,61.5,6.9,52.4z M20.4,61.7c-3.7-1.5-6.4-5.1-6.4-9.4  c0-5.1,3.9-9.4,8.8-10c-2,4.1-3,8.6-3,13.3C19.8,57.7,20,59.8,20.4,61.7z M50.7,82.6c-14.8,0-26.9-12.1-26.9-26.9  c0-8,3.5-15.5,9.6-20.6c1.7,0.8,3.9,1.4,6.5,1.9c3.6,0.9,7.7,1.2,10.9,1.2c3.2,0,7.4-0.3,11-1.2c2.5-0.5,4.7-1.1,6.3-1.8  c6.1,5.1,9.6,12.6,9.6,20.6C77.6,70.5,65.5,82.6,50.7,82.6z M91.4,38.6c0,6.6-1,27-12.9,30.4c1.9-4,3-8.5,3-13.3  c0-5.9-1.6-11.5-4.6-16.3c2.7-0.6,6.4-2.3,10.2-6.5h5.4C92,34.8,91.4,37.3,91.4,38.6z"></path></svg>