<svg height='100px' width='100px'  fill="#000000" xmlns="http://www.w3.org/2000/svg" xmlns:xlink="http://www.w3.org/1999/xlink" version="1.1" x="0px" y="0px" viewBox="0 0 44 44" style="enable-background:new 0 0 44 44;" xml:space="preserve"><g><g><path d="M32,20c-2.2,0-4.2,0.6-6,1.6l-1.5-1.5c2.2-1.4,4.7-2.2,7.4-2.2c0.6,0,1-0.4,1-1s-0.4-1-1-1c-2.5,0-4.9,0.6-7,1.6L8.4,1    C7.8,0.3,6.9,0,6,0C5.1,0,4.2,0.3,3.6,1L1,3.6C0.4,4.2,0,5.1,0,6s0.4,1.8,1,2.4L17.6,25c-1,2.1-1.6,4.5-1.6,7c0,0.6,0.4,1,1,1    s1-0.4,1-1c0-2.7,0.8-5.3,2.2-7.4l1.5,1.5c-1,1.8-1.6,3.8-1.6,6c0,6.6,5.4,12,12,12s12-5.4,12-12S38.6,20,32,20z M2.4,7    C2.1,6.7,2,6.4,2,6s0.1-0.7,0.4-1L5,2.4c0.5-0.5,1.5-0.5,2,0l16.2,16.2c-1.8,1.2-3.4,2.8-4.6,4.6L2.4,7z M21.3,22.9    c0.5-0.6,1-1.1,1.6-1.6l1.4,1.4c-0.6,0.5-1.1,1-1.6,1.6L21.3,22.9z M32,42c-5.5,0-10-4.5-10-10s4.5-10,10-10s10,4.5,10,10    S37.5,42,32,42z"></path><circle cx="6" cy="6" r="1"></circle><circle cx="32" cy="32" r="2"></circle></g></g></svg>