<svg height='100px' width='100px'  fill="#000000" xmlns="http://www.w3.org/2000/svg" viewBox="0 0 64 64" x="0px" y="0px"><title>Artboard 12</title><g data-name="12-matcha"><path d="M54,50H43.64a9,9,0,0,0,2.83-4H49a8,8,0,0,0,0-16H14a1,1,0,0,0-1,1V43a9,9,0,0,0,3.36,7H10a3,3,0,0,0,0,6h2.1A5,5,0,0,0,17,60H47a5,5,0,0,0,4.9-4H54a3,3,0,0,0,0-6ZM47,36h2a2,2,0,0,1,0,4H47Zm8,2a6,6,0,0,1-6,6H47V42h2a4,4,0,0,0,0-8H47V32h2A6,6,0,0,1,55,38ZM15,43V32H45V43a7,7,0,0,1-7,7H22A7,7,0,0,1,15,43ZM47,58H17a3,3,0,0,1-2.83-2H49.83A3,3,0,0,1,47,58Zm7-4H10a1,1,0,0,1,0-2H54a1,1,0,0,1,0,2Z"></path><path d="M25.88,20l2.28,3.54A1,1,0,0,0,29,24a1,1,0,0,0,.54-.16,1,1,0,0,0,.3-1.38L27.36,18.6c.91-2,2.73-6.71.75-10.13C25.63,4.16,18.29,4,18,4a.94.94,0,0,0-.89.51c-.15.27-3.69,6.71-1.2,11C18.21,19.56,24.79,20,25.88,20ZM18.56,6c2.14.15,6.38.94,7.82,3.44,1.21,2.1.42,5.12-.33,7.09l-5.21-8.1a1,1,0,0,0-1.38-.3,1,1,0,0,0-.3,1.38l5.36,8.34c-2.26-.29-5.64-1.17-6.9-3.35C16.05,11.81,17.84,7.53,18.56,6Z"></path><path d="M33.53,28.88a1,1,0,0,0,1.35-.41L36.22,26c1.3,0,7.62-.52,9.89-4.46,2.49-4.31-1-10.75-1.2-11A1,1,0,0,0,44,10c-.31,0-7.65.16-10.13,4.47-2,3.45-.12,8.26.78,10.18l-1.55,2.88A1,1,0,0,0,33.53,28.88Zm2.09-13.41c1.57-2.72,6.17-3.31,7.83-3.44.94,1.93,2.37,6,.93,8.5s-5,3.12-7,3.36l4.53-8.42a1,1,0,1,0-1.76-.94l-4.24,7.86C35.11,20.29,34.5,17.41,35.62,15.47Z"></path></g></svg>