<svg height='100px' width='100px'  fill="#000000" xmlns="http://www.w3.org/2000/svg" xmlns:xlink="http://www.w3.org/1999/xlink" xml:space="preserve" version="1.1" style="shape-rendering:geometricPrecision;text-rendering:geometricPrecision;image-rendering:optimizeQuality;" viewBox="0 0 333 333" x="0px" y="0px" fill-rule="evenodd" clip-rule="evenodd"><defs><style type="text/css">
   
    .fil1 {fill:#000000}
    .fil0 {fill:#000000;fill-rule:nonzero}
   
  </style></defs><g><path class="fil0" d="M283 45c-3,3 -7,7 -12,12 -22,-18 -43,-21 -59,-23 -46,66 -97,104 -165,145 -2,0 -4,1 -6,2 -12,7 -17,19 -20,34 -7,34 5,75 41,82 21,4 35,1 44,-9 7,-7 37,-38 76,-74 44,-40 97,-78 119,-94 20,-15 16,-39 2,-57 -5,-7 -12,-13 -19,-17l-1 -1zm-167 216c3,-18 2,-52 1,-63 5,-2 15,-8 33,-20 51,-34 92,-74 134,-118 15,12 28,37 10,51 -21,15 -77,55 -120,94 -23,22 -44,42 -58,56zm-19 19c-6,7 -16,9 -32,6 -33,-7 -40,-48 -31,-77 9,-28 37,-24 46,-4l-36 32c1,3 3,23 21,28 13,4 24,-8 28,-22 2,-9 3,-20 0,-33 -2,-15 -12,-26 -25,-31 63,-39 106,-72 149,-132 18,3 30,7 45,18 -42,43 -128,124 -157,124 0,6 3,57 -1,75 -1,6 -3,12 -7,16zm-14 -62c1,11 0,25 -7,32 -7,9 -16,0 -19,-9l26 -23z"></path><path class="fil1" d="M270 255c0,0 -7,-21 -19,-36 -12,-15 -35,-24 -35,-24 0,0 15,16 21,39 7,23 8,33 8,33l-14 -7 -11 20c0,0 5,-27 -7,-51 -11,-24 -19,-31 -19,-31 3,-43 -18,-66 -61,-69l32 -29c38,-1 60,40 56,75 29,16 56,39 80,61l-22 4 -9 15z"></path></g></svg>