<svg height='100px' width='100px'  fill="#000000" xmlns="http://www.w3.org/2000/svg" viewBox="0 0 64 64" x="0px" y="0px"><g><path d="M53,48h1V2H17a7.008,7.008,0,0,0-7,7V52a6.006,6.006,0,0,0,6,6h5v3.869L25,59.2l4,2.667V58H54V56H53a4,4,0,0,1,0-8ZM15,4.424V46.089a6,6,0,0,0-3,1.442V9A5,5,0,0,1,15,4.424ZM27,58.131,25,56.8l-2,1.333V53h4ZM48.532,56H29V53H44a1,1,0,0,0,0-2H15a1,1,0,0,0,0,2h6v3H16a4,4,0,1,1,0-8H48.532a5.988,5.988,0,0,0,0,8ZM17,46V4H52V46Z"></path><path d="M49,12H36V10a1,1,0,0,0-2,0v2H21a1,1,0,0,0,0,2h2.382l-2.277,4.553.01,0A.978.978,0,0,0,21,19v1a5,5,0,0,0,10,0V19a.978.978,0,0,0-.115-.443l.01,0L28.618,14H34V32H30v2H40V32H36V14h5.382L39.1,18.553l.01,0A.978.978,0,0,0,39,19v1a5,5,0,0,0,10,0V19a.978.978,0,0,0-.115-.443l.01,0L46.618,14H49a1,1,0,0,0,0-2ZM25.618,14h.764l2,4H23.618ZM29,20a3,3,0,0,1-6,0Zm14.618-6h.764l2,4H41.618ZM47,20a3,3,0,0,1-6,0Z"></path><rect x="23" y="36" width="24" height="2"></rect><rect x="23" y="40" width="24" height="2"></rect></g></svg>