<svg height='100px' width='100px'  fill="#000000" xmlns="http://www.w3.org/2000/svg" viewBox="0 0 48 48" x="0px" y="0px"><title>Brief Case</title><g data-name="Brief Case"><path d="M48,13a4,4,0,0,0-4-4H33V7a4,4,0,0,0-4-4H19a4,4,0,0,0-4,4V9H4a4,4,0,0,0-4,4c0,4.57-.49,7.57,2,10.64V41a4,4,0,0,0,4,4H42a4,4,0,0,0,4-4V23.64C48.43,20.64,48,18.1,48,13ZM17,7a2,2,0,0,1,2-2H29a2,2,0,0,1,2,2V9H17ZM42,43H6a2,2,0,0,1-2-2V25.48C6.88,27.41,8.36,27,20,27v1a1,1,0,0,0,0,2c0,2-.13,2.45.45,2.83C23.7,35,23.59,35,24,35s.27,0,3.55-2.17c.57-.37.45-.73.45-2.83a1,1,0,0,0,0-2V27c11.21,0,13,.49,16-1.52V41A2,2,0,0,1,42,43ZM20,22V20h8v2Zm6,2v4H22V24Zm-4,6h4v1.46L24,32.8l-2-1.34ZM46,18a7,7,0,0,1-7,7H28V24a2,2,0,0,0,2-2V20a2,2,0,0,0-2-2H20a2,2,0,0,0-2,2v2a2,2,0,0,0,2,2v1H9a7,7,0,0,1-7-7V13a2,2,0,0,1,2-2H44a2,2,0,0,1,2,2Z"></path></g></svg>