<svg height='100px' width='100px'  fill="#000000" xmlns="http://www.w3.org/2000/svg" xmlns:xlink="http://www.w3.org/1999/xlink" version="1.1" x="0px" y="0px" viewBox="0 0 512 512" style="enable-background:new 0 0 512 512;" xml:space="preserve"><g><path d="M334.506,282.524c1.869,2.552,4.096,4.709,6.503,6.581c-1.895,4.768-1.989,10.225,0.408,15.212l6.1,12.72   c3.262,6.833,10.095,10.809,17.199,10.809c2.76,0,5.559-0.598,8.204-1.872l79.738-38.219c4.594-2.2,8.049-6.061,9.748-10.848   c1.679-4.806,1.39-9.979-0.811-14.564l-6.1-12.74c-1.956-4.092-5.338-6.934-9.18-8.738c0.343-3.822,0.159-7.711-0.858-11.51   c-5.559-20.914-13.628-42.456-23.954-64.036c-10.288-21.474-22.043-41.24-34.918-58.757c-1.638-2.223-3.55-4.116-5.598-5.832   c0.898-4.125,0.718-8.387-1.139-12.255l-6.1-12.73c-2.201-4.594-6.061-8.049-10.848-9.738c-4.768-1.679-9.941-1.409-14.554,0.791   l-79.767,38.238c-9.449,4.546-13.463,15.934-8.937,25.402l6.109,12.73c1.858,3.862,5.051,6.652,8.809,8.532   c0.042,2.725,0.378,5.457,1.093,8.117c2.899,10.858,6.517,21.87,10.702,32.942L45.384,308.293   c-8.117,3.88-14.226,10.694-17.218,19.187c-2.982,8.474-2.49,17.623,1.399,25.73c3.899,8.107,10.713,14.226,19.196,17.218   c3.658,1.293,7.441,1.93,11.205,1.93c4.97,0,9.921-1.12,14.535-3.339l240.973-115.51   C321.502,263.737,327.836,273.47,334.506,282.524z M445.823,273.5l-79.738,38.229c-1.351,0.637-3.667-0.135-4.324-1.525l-6.1-12.72   c-0.656-1.37,0.154-3.648,1.525-4.324l79.719-38.229c0.463-0.212,0.946-0.318,1.409-0.318c1.216,0,2.374,0.676,2.934,1.834   l6.1,12.73C448.004,270.557,447.194,272.844,445.823,273.5z M407.257,172.153c9.883,20.692,17.604,41.307,22.912,61.285   c0.647,2.413,0.583,4.828,0.201,7.159c-0.09,0.041-0.188,0.027-0.279,0.07l-77.429,37.14c-2.035-1.153-3.929-2.608-5.417-4.635   c-12.276-16.677-23.51-35.594-33.413-56.238c-9.864-20.586-17.565-41.172-22.893-61.208c-0.325-1.177-0.048-2.343-0.119-3.534   c0.106-0.048,0.227-0.025,0.332-0.076l79.758-38.229c0.145-0.069,0.232-0.208,0.374-0.28c0.852,0.781,1.847,1.346,2.56,2.316   C386.14,132.65,397.374,151.567,407.257,172.153z M275.421,119.293l79.758-38.238c0.347-0.154,0.733-0.232,1.139-0.232   c1.255,0,2.683,0.724,3.185,1.757l6.1,12.73c0.656,1.38-0.154,3.658-1.525,4.314l-79.758,38.238   c-1.486,0.666-3.648-0.174-4.304-1.525l-6.109-12.72C273.134,122.005,273.819,120.065,275.421,119.293z M67.668,354.773   c-4.324,2.065-9.169,2.336-13.656,0.733c-4.507-1.583-8.117-4.826-10.182-9.13s-2.336-9.149-0.743-13.647   c1.583-4.497,4.826-8.126,9.13-10.192l239.65-114.879l15.442,32.225L67.668,354.773z"></path><path d="M477.846,386.989h-10.62l-15.458-37.987c-1.197-2.992-4.092-4.941-7.316-4.941H241.13c-3.021,0-5.781,1.737-7.103,4.459   l-18.751,38.47h-10.984c-4.362,0-7.904,3.552-7.904,7.914v44.261c0,4.362,3.542,7.914,7.904,7.914h273.555   c4.362,0,7.914-3.552,7.914-7.914v-44.261C485.76,390.541,482.208,386.989,477.846,386.989z M246.072,359.889h193.054   l11.041,27.101H232.859L246.072,359.889z M469.932,431.25H212.196v-28.433h8.011h241.715h8.011V431.25z"></path></g></svg>