<svg height='100px' width='100px'  fill="#000000" xmlns="http://www.w3.org/2000/svg" xmlns:xlink="http://www.w3.org/1999/xlink" version="1.1" x="0px" y="0px" viewBox="0 0 48 48" enable-background="new 0 0 48 48" xml:space="preserve"><g><g><ellipse fill="none" stroke="#000000" stroke-width="2" stroke-linecap="round" stroke-miterlimit="10" cx="24.179" cy="6.306" rx="4.161" ry="3.885"></ellipse><g><path fill="none" stroke="#000000" stroke-width="2" stroke-linecap="round" stroke-miterlimit="10" d="M24.18,17.014h-7.85     c0-5.068,4.36-7.98,4.36-7.98"></path><path fill="none" stroke="#000000" stroke-width="2" stroke-linecap="round" stroke-miterlimit="10" d="M24.18,17.014h7.849     c0-5.068-4.359-7.98-4.359-7.98"></path></g></g><g><ellipse fill="none" stroke="#000000" stroke-width="2" stroke-linecap="round" stroke-miterlimit="10" cx="8.85" cy="35.089" rx="4.161" ry="3.806"></ellipse><g><path fill="none" stroke="#000000" stroke-width="2" stroke-linecap="round" stroke-miterlimit="10" d="M8.85,45.578H1     c0-4.964,4.36-7.817,4.36-7.817"></path><path fill="none" stroke="#000000" stroke-width="2" stroke-linecap="round" stroke-miterlimit="10" d="M8.85,45.578h7.849     c0-4.964-4.359-7.817-4.359-7.817"></path></g></g><g><ellipse fill="none" stroke="#000000" stroke-width="2" stroke-linecap="round" stroke-miterlimit="10" cx="39.151" cy="35.089" rx="4.161" ry="3.806"></ellipse><g><path fill="none" stroke="#000000" stroke-width="2" stroke-linecap="round" stroke-miterlimit="10" d="M39.151,45.578h-7.849     c0-4.964,4.359-7.817,4.359-7.817"></path><path fill="none" stroke="#000000" stroke-width="2" stroke-linecap="round" stroke-miterlimit="10" d="M39.151,45.578H47     c0-4.964-4.358-7.817-4.358-7.817"></path></g></g><polyline fill="none" stroke="#000000" stroke-width="2" stroke-linecap="round" stroke-miterlimit="10" points="9.029,27.353    9.029,23.934 39.33,23.934 39.33,27.353  "></polyline><line fill="none" stroke="#000000" stroke-width="2" stroke-linecap="round" stroke-miterlimit="10" x1="24.18" y1="20.513" x2="24.18" y2="23.934"></line></g></svg>