<svg height='100px' width='100px'  fill="#000000" xmlns="http://www.w3.org/2000/svg" xmlns:xlink="http://www.w3.org/1999/xlink" version="1.1" x="0px" y="0px" viewBox="0 0 100 100" enable-background="new 0 0 100 100" xml:space="preserve"><g><path d="M49.581,68.605c-4.189,0-7.969-1.847-11.233-5.488c-0.313-0.35-0.284-0.887,0.065-1.2c0.349-0.314,0.887-0.285,1.2,0.065   c2.928,3.267,6.282,4.923,9.967,4.923c4.162,0,7.611-2.747,9.771-5.051c0.321-0.342,0.859-0.36,1.202-0.039   c0.342,0.321,0.36,0.859,0.039,1.202C57.165,66.672,53.357,68.605,49.581,68.605z"></path><path d="M68.185,43.29H65.62c-0.376,0-0.708-0.248-0.815-0.609l-1.024-3.464c-0.133-0.45,0.124-0.923,0.574-1.056   c0.451-0.132,0.923,0.124,1.056,0.574l0.844,2.855h1.93c0.469,0,0.85,0.381,0.85,0.85S68.654,43.29,68.185,43.29z"></path><path d="M33.738,43.29h-2.272c-0.469,0-0.85-0.381-0.85-0.85s0.381-0.85,0.85-0.85h1.662l0.924-2.746   c0.15-0.445,0.63-0.686,1.077-0.535c0.445,0.15,0.685,0.632,0.535,1.077l-1.119,3.325C34.427,43.057,34.103,43.29,33.738,43.29z"></path><path d="M93.119,94.34c-0.006,0-0.013-0.001-0.02,0H6.901c-0.445,0-0.868-0.198-1.153-0.54c-0.285-0.342-0.403-0.793-0.322-1.231   c0.952-5.172,3.368-17.398,5.244-19.226c0.97-0.943,14.163-6.192,25.84-10.724c-3.305-4.405-4.867-9.398-5.42-11.513   c-1.376-1.271-2.399-3.683-2.406-5.81c-0.004-1.511,0.486-2.836,1.401-3.835l-1.012-2.92h-1.651c-0.431,0-0.842-0.186-1.126-0.51   c-0.285-0.324-0.417-0.755-0.361-1.183l0.744-5.76c0.082-0.629,0.545-1.125,1.139-1.267c0.956-9.368,2.4-15.886,9.779-19.653   c1.638-2.992,4.82-4.508,9.468-4.508h4.633c3.417,0,6.125,0.672,8.145,3.869c8.491,3.577,10.227,10.968,11.24,20.285   c0.608,0.132,1.085,0.634,1.168,1.273l0.745,5.76c0.055,0.428-0.076,0.859-0.361,1.183c-0.285,0.324-0.695,0.51-1.126,0.51h-1.355   l-0.786,2.71c0.886,1.101,1.333,2.576,1.272,4.257c-0.077,2.142-0.961,4.352-2.169,5.542c-0.826,3.204-2.902,7.672-5.982,11.496   c7.095,2.847,25.617,10.368,27.518,12.038c1.983,1.743,3.687,11.792,4.545,17.805c0.045,0.143,0.069,0.294,0.069,0.452   C94.619,93.668,93.948,94.34,93.119,94.34z M8.71,91.34h82.652c-0.997-6.508-2.474-13.5-3.369-14.533   c-1.329-1.084-15.725-7.134-28.577-12.258c-0.46-0.184-0.801-0.583-0.909-1.067c-0.107-0.484,0.031-0.99,0.37-1.352   c3.634-3.876,6.064-9.058,6.784-12.232c0.082-0.359,0.292-0.676,0.592-0.89c0.539-0.384,1.327-1.942,1.387-3.608   c0.029-0.806-0.106-1.907-0.914-2.575c-0.46-0.381-0.65-1-0.484-1.574l1.342-4.629c0.186-0.641,0.773-1.082,1.44-1.082h0.776   l-0.36-2.788c-0.638-0.124-1.138-0.653-1.205-1.322c-0.948-9.383-2.218-16.26-9.969-19.305c-0.319-0.125-0.585-0.356-0.755-0.653   c-1.213-2.129-2.625-2.813-5.813-2.813h-4.633c-3.679,0-5.968,1.069-6.998,3.268c-0.147,0.313-0.398,0.567-0.71,0.716   c-6.866,3.291-7.772,9.279-8.682,18.779c-0.063,0.665-0.554,1.193-1.185,1.325l-0.361,2.792h1.012c0.639,0,1.208,0.405,1.417,1.009   l1.69,4.877c0.22,0.636-0.01,1.341-0.563,1.724c-0.677,0.469-1.005,1.168-1.002,2.136c0.005,1.595,0.958,3.304,1.586,3.734   c0.307,0.21,0.524,0.526,0.611,0.887c0.418,1.74,2.104,7.774,6.215,12.362c0.329,0.367,0.457,0.872,0.342,1.351   c-0.115,0.479-0.458,0.872-0.917,1.049c-9.503,3.677-24.977,9.802-26.796,10.872C11.874,76.755,10.066,84.304,8.71,91.34z"></path><path d="M62.019,40.77H37.271c-0.156,0-5.915-3.455-5.915-3.455l-3.674-0.01c-0.469-0.001-0.849-0.383-0.848-0.853   c0.001-0.469,0.382-0.848,0.85-0.848c0.001,0,0.001,0,0.002,0l3.911,0.011c0.155,0,0.307,0.043,0.439,0.124l5.472,3.33h24.263   l5.467-3.468c0.136-0.086,0.294-0.132,0.455-0.132h3.13c0.469,0,0.85,0.381,0.85,0.85s-0.381,0.85-0.85,0.85h-2.883   C67.941,37.17,62.18,40.77,62.019,40.77z"></path><path d="M43.149,31.421c-0.341,0-0.663-0.207-0.793-0.544c-5.723-14.812-5.31-16.454-4.561-19.435l0.088-0.353   c0.111-0.456,0.572-0.734,1.028-0.623c0.456,0.112,0.735,0.573,0.623,1.028l-0.09,0.362c-0.665,2.644-1.03,4.1,4.498,18.408   c0.169,0.438-0.049,0.93-0.487,1.099C43.354,31.402,43.251,31.421,43.149,31.421z"></path><path d="M55.722,31.5c-0.102,0-0.206-0.018-0.306-0.057c-0.438-0.169-0.656-0.662-0.487-1.099   c5.015-12.98,4.108-15.919,3.38-18.281c-0.118-0.382-0.231-0.752-0.322-1.14c-0.107-0.457,0.177-0.915,0.634-1.021   c0.451-0.105,0.915,0.176,1.021,0.634c0.082,0.349,0.185,0.682,0.291,1.025c0.806,2.613,1.809,5.864-3.418,19.395   C56.384,31.294,56.062,31.5,55.722,31.5z"></path><path d="M49.365,27.81h-0.16c-3.601,0-6.53-2.93-6.53-6.53v-0.16c0-3.601,2.93-6.53,6.53-6.53h0.16c3.601,0,6.53,2.93,6.53,6.53   v0.16C55.895,24.88,52.966,27.81,49.365,27.81z M49.205,16.29c-2.664,0-4.83,2.167-4.83,4.83v0.16c0,2.664,2.167,4.83,4.83,4.83   h0.16c2.663,0,4.83-2.167,4.83-4.83v-0.16c0-2.664-2.167-4.83-4.83-4.83H49.205z"></path><path d="M69.625,32.13h-8.64c-0.469,0-0.85-0.381-0.85-0.85s0.381-0.85,0.85-0.85h8.64c0.469,0,0.85,0.381,0.85,0.85   S70.094,32.13,69.625,32.13z"></path><path d="M39.025,32.13h-9.72c-0.469,0-0.85-0.381-0.85-0.85s0.381-0.85,0.85-0.85h9.72c0.469,0,0.85,0.381,0.85,0.85   S39.494,32.13,39.025,32.13z"></path><path d="M48.569,93.69c-0.22,0-0.439-0.085-0.606-0.254l-10.804-10.98c-0.227-0.23-0.303-0.57-0.197-0.876l1.645-4.72l-6.272,0.448   c-0.461,0.03-0.87-0.314-0.908-0.778l-0.821-9.988c-0.039-0.468,0.31-0.878,0.777-0.917c0.472-0.037,0.878,0.31,0.917,0.777   l0.752,9.15l6.721-0.48c0.278-0.021,0.562,0.104,0.735,0.331s0.222,0.526,0.128,0.796l-1.896,5.441l10.434,10.603   c0.329,0.334,0.325,0.873-0.01,1.202C49,93.608,48.785,93.69,48.569,93.69z"></path><path d="M48.569,93.33c-0.36,0-0.694-0.23-0.81-0.591l-9.365-29.324c-0.143-0.447,0.104-0.926,0.551-1.068   c0.448-0.146,0.926,0.104,1.068,0.551l9.365,29.324c0.143,0.447-0.104,0.926-0.551,1.068C48.742,93.317,48.655,93.33,48.569,93.33z   "></path><path d="M50.534,93.69c-0.224,0-0.447-0.088-0.614-0.262c-0.325-0.339-0.313-0.877,0.026-1.202l11.065-10.602L59.121,76.2   c-0.094-0.27-0.046-0.569,0.128-0.796c0.173-0.227,0.44-0.353,0.735-0.331l6.724,0.48l0.75-8.825   c0.04-0.468,0.445-0.811,0.919-0.775c0.468,0.04,0.814,0.452,0.775,0.919l-0.822,9.66c-0.04,0.463-0.445,0.806-0.908,0.775   l-6.272-0.448l1.646,4.72c0.109,0.314,0.025,0.664-0.215,0.894l-11.46,10.98C50.957,93.611,50.745,93.69,50.534,93.69z"></path><path d="M50.534,93.33c-0.084,0-0.169-0.013-0.254-0.039c-0.448-0.14-0.698-0.617-0.557-1.065l9.22-29.455   c0.14-0.447,0.617-0.7,1.065-0.557c0.448,0.14,0.698,0.617,0.557,1.065l-9.22,29.455C51.231,93.097,50.896,93.33,50.534,93.33z"></path><path d="M49.45,73.661c-1.152,0-2.254-0.595-3.024-1.632c-0.805-1.084-1.231-2.597-1.231-4.375c0-0.469,0.381-0.85,0.85-0.85   s0.85,0.381,0.85,0.85c0,1.781,0.487,2.811,0.896,3.361c0.453,0.61,1.042,0.946,1.66,0.946c1.285,0,2.585-1.498,2.585-4.36   c0-0.469,0.381-0.85,0.85-0.85s0.85,0.381,0.85,0.85C53.735,71.764,51.514,73.661,49.45,73.661z"></path><path d="M44.833,81.63c-0.075,0-0.15-0.01-0.226-0.031c-0.453-0.125-0.719-0.592-0.594-1.045l2.477-9   c0.125-0.452,0.591-0.72,1.045-0.594c0.453,0.125,0.719,0.592,0.594,1.045l-2.477,9C45.549,81.382,45.207,81.63,44.833,81.63z"></path><path d="M54.15,81.63c-0.371,0-0.712-0.245-0.818-0.62l-2.537-9c-0.127-0.452,0.136-0.921,0.588-1.049   c0.451-0.127,0.921,0.136,1.049,0.588l2.537,9c0.127,0.452-0.136,0.921-0.588,1.049C54.304,81.62,54.227,81.63,54.15,81.63z"></path><path d="M77.545,87.57h-12.24c-0.469,0-0.85-0.381-0.85-0.85s0.381-0.85,0.85-0.85h12.24c0.469,0,0.85,0.381,0.85,0.85   S78.014,87.57,77.545,87.57z"></path></g></svg>