<svg height='100px' width='100px'  fill="#000000" xmlns="http://www.w3.org/2000/svg" xmlns:xlink="http://www.w3.org/1999/xlink" version="1.1" x="0px" y="0px" viewBox="0 0 48 48" enable-background="new 0 0 48 48" xml:space="preserve"><g><g><path d="M39,47H19l0-3.6L4.8,30.3l0.3-0.7c1-2,3.3-4,8.3-1.4l2.6,1.3L17,9c0-1.6,1.3-3,3-3s3,1.3,3,3l0.9,11    c5.9,0.2,13.7,2.2,17.8,6.3l0.3,0.3l0,2.4c0,3.8-0.4,10.4-3,13.4V47z M21,45h16v-3.4l0.3-0.3C39,39.6,40,35,40,29l0-1.6    C36.2,23.9,28.6,22,23,22h-1l0-0.9l0,0l-1-12C21,8.4,20.5,8,20,8s-1,0.4-1,1l-1.1,23.7L12.5,30c-1.7-0.8-3-1.1-4-0.9    c-0.5,0.1-1,0.4-1.3,0.8L21,42.6L21,45z"></path></g></g></svg>