<svg height='100px' width='100px'  fill="#000000" xmlns="http://www.w3.org/2000/svg" xmlns:xlink="http://www.w3.org/1999/xlink" version="1.1" x="0px" y="0px" viewBox="0 0 10 10" enable-background="new 0 0 10 10" xml:space="preserve"><g><path d="M2.277,4.932H5H5h2.722c0.119,0,0.217-0.09,0.229-0.208l0.323-3.465c0.011-0.108-0.058-0.21-0.163-0.241   c-0.102-0.03-0.217,0.018-0.267,0.114C7.583,1.634,7.16,2.234,6.688,2.212C6.023,2.189,5.396,1.078,5.209,0.651   C5.206,0.642,5.198,0.635,5.193,0.627c-0.01-0.016-0.019-0.032-0.032-0.045c-0.013-0.013-0.026-0.02-0.04-0.029   C5.11,0.546,5.103,0.538,5.092,0.533c-0.002,0-0.004,0-0.006-0.001C5.072,0.526,5.054,0.524,5.036,0.521   C5.023,0.519,5.012,0.514,5,0.514c-0.013,0-0.024,0.005-0.036,0.007C4.948,0.524,4.929,0.526,4.914,0.532   C4.912,0.533,4.911,0.533,4.91,0.533C4.898,0.538,4.89,0.546,4.88,0.553C4.866,0.562,4.851,0.569,4.839,0.582   C4.826,0.595,4.817,0.611,4.808,0.627C4.802,0.636,4.794,0.642,4.791,0.651C4.606,1.078,3.978,2.189,3.313,2.212   c-0.486,0.026-0.896-0.578-1.157-1.08C2.107,1.036,1.994,0.988,1.89,1.018C1.785,1.049,1.716,1.15,1.726,1.259L2.05,4.724   C2.061,4.842,2.16,4.932,2.277,4.932z M3.329,2.668C4.104,2.642,4.7,1.79,5,1.251C5.302,1.79,5.896,2.642,6.672,2.668   c0.378,0.013,0.731-0.17,1.062-0.546l-0.22,2.353H5H5H2.485L2.266,2.123C2.597,2.499,2.954,2.681,3.329,2.668z"></path><path d="M8.563,8.798C8.035,8.246,7.786,6.824,7.75,6.606V5.56c0-0.126-0.103-0.229-0.229-0.229S7.292,5.434,7.292,5.56v1.05   c0,1.334-1.028,2.419-2.292,2.419c-1.263,0-2.291-1.085-2.291-2.419V5.56c0-0.126-0.102-0.229-0.228-0.229   c-0.127,0-0.229,0.102-0.229,0.229v1.032c-0.025,0.16-0.275,1.639-0.816,2.206c-0.065,0.068-0.082,0.17-0.042,0.255   c0.038,0.081,0.118,0.132,0.206,0.132c0.006,0,0.011,0,0.017,0l1.941-0.131C3.978,9.326,4.472,9.486,5,9.486   c0.53,0,1.022-0.16,1.442-0.433l1.94,0.131c0.005,0,0.01,0,0.015,0c0.089,0,0.17-0.051,0.207-0.132   C8.645,8.968,8.628,8.867,8.563,8.798z M2.463,7.713C2.601,8.058,2.8,8.368,3.047,8.63l-0.98,0.066   C2.235,8.397,2.366,8.042,2.463,7.713z M6.955,8.63C7.201,8.369,7.4,8.06,7.537,7.716c0.099,0.329,0.229,0.681,0.397,0.979   L6.955,8.63z"></path><path d="M4.997,7.399c0.126,0,0.228-0.103,0.228-0.229V5.857c0-0.127-0.102-0.229-0.228-0.229H3.478   c-0.127,0-0.229,0.102-0.229,0.229c0,0.126,0.102,0.229,0.229,0.229h1.289V7.17C4.767,7.296,4.87,7.399,4.997,7.399z"></path></g></svg>