<svg height='100px' width='100px'  fill="#000000" xmlns="http://www.w3.org/2000/svg" xmlns:xlink="http://www.w3.org/1999/xlink" version="1.1" x="0px" y="0px" viewBox="0 0 50 50" style="enable-background:new 0 0 50 50;" xml:space="preserve"><style type="text/css">
	.st0{fill:none;stroke:#000000;stroke-width:2;stroke-miterlimit:10;}
	.st1{fill:none;stroke:#000000;stroke-width:2;stroke-miterlimit:10;stroke-dasharray:2,3.5;}
	.st2{fill:none;stroke:#000000;stroke-width:2;stroke-miterlimit:10;stroke-dasharray:2,2;}
</style><g><circle class="st0" cx="25" cy="35.3" r="7.5"></circle><path class="st0" d="M31,23V7c0-3.3-2.7-6-6-6h0c-3.3,0-6,2.7-6,6V23c-4.7,2.3-7.9,7.1-7.7,12.7   c0.2,7.1,6,13,13.1,13.3c7.8,0.3,14.3-5.9,14.3-13.7C38.7,29.9,35.5,25.2,31,23z"></path><line class="st0" x1="25" y1="27.8" x2="25" y2="8.2"></line><line class="st0" x1="19" y1="8.6" x2="14.7" y2="8.6"></line><line class="st0" x1="19" y1="12.9" x2="14.7" y2="12.9"></line><line class="st0" x1="19" y1="17.3" x2="14.7" y2="17.3"></line></g></svg>