<svg height='100px' width='100px'  fill="#000000" xmlns="http://www.w3.org/2000/svg" xmlns:xlink="http://www.w3.org/1999/xlink" version="1.1" x="0px" y="0px" viewBox="0 0 100 100" style="enable-background:new 0 0 100 100;" xml:space="preserve"><g><path d="M52.377,60.394c-0.166-0.114-0.266-0.303-0.266-0.504V14.14c0-6.141-4.996-11.137-11.137-11.137   c-6.143,0-11.141,4.996-11.141,11.137v45.75c0,0.203-0.097,0.391-0.264,0.504c-5.427,3.731-8.667,9.908-8.667,16.525   c0,11.071,9.004,20.078,20.072,20.078c11.071,0,20.078-9.007,20.078-20.078C61.053,70.304,57.81,64.127,52.377,60.394z    M40.975,7.479c3.673,0,6.661,2.988,6.661,6.661v31.854H34.31V14.14C34.31,10.467,37.3,7.479,40.975,7.479z M40.975,92.521   c-8.6,0-15.596-6.998-15.596-15.602c0-5.143,2.515-9.94,6.722-12.833c1.383-0.947,2.209-2.516,2.209-4.196v-9.418h13.326v9.418   c0,1.677,0.825,3.244,2.207,4.193c4.217,2.898,6.733,7.696,6.733,12.836C56.576,85.522,49.578,92.521,40.975,92.521z"></path><path d="M63.745,12.825h13.114c1.235,0,2.238-1.002,2.238-2.238c0-1.236-1.003-2.238-2.238-2.238H63.745   c-1.235,0-2.238,1.002-2.238,2.238C61.507,11.823,62.51,12.825,63.745,12.825z"></path><path d="M63.745,23.974h7.414c1.235,0,2.238-1.002,2.238-2.238c0-1.236-1.003-2.238-2.238-2.238h-7.414   c-1.235,0-2.238,1.002-2.238,2.238C61.507,22.971,62.51,23.974,63.745,23.974z"></path><path d="M76.859,30.646H63.745c-1.235,0-2.238,1.002-2.238,2.238c0,1.236,1.003,2.238,2.238,2.238h13.114   c1.235,0,2.238-1.002,2.238-2.238C79.098,31.648,78.095,30.646,76.859,30.646z"></path><path d="M63.745,46.273h7.414c1.235,0,2.238-1.002,2.238-2.238s-1.003-2.238-2.238-2.238h-7.414c-1.235,0-2.238,1.002-2.238,2.238   S62.51,46.273,63.745,46.273z"></path><path d="M76.859,52.949H63.745c-1.235,0-2.238,1.002-2.238,2.238c0,1.235,1.003,2.238,2.238,2.238h13.114   c1.235,0,2.238-1.003,2.238-2.238C79.098,53.951,78.095,52.949,76.859,52.949z"></path></g></svg>