<svg height='100px' width='100px'  fill="#000000" xmlns="http://www.w3.org/2000/svg" xmlns:xlink="http://www.w3.org/1999/xlink" viewBox="0 0 60 60" version="1.1" x="0px" y="0px"><title>007 - Oscillation </title><desc>Created with Sketch.</desc><g stroke="none" stroke-width="1" fill="none" fill-rule="evenodd"><g transform="translate(0.000000, -1.000000)" fill="#000000" fill-rule="nonzero"><path d="M25.16,27.439 C25.2352698,27.4573954 25.3125163,27.4664634 25.39,27.466 C25.8982575,27.46623 26.325841,27.0851721 26.3839054,26.5802422 C26.4419698,26.0753122 26.1120429,25.6071445 25.617,25.492 C25.049,25.359 24.479,25.192 23.924,25.008 C23.5832915,24.8843897 23.2023685,24.954807 22.9283677,25.1920524 C22.6543668,25.4292977 22.5301833,25.7962301 22.6037846,26.1511169 C22.6773859,26.5060037 22.9372496,26.7932871 23.283,26.902 C23.9,27.11 24.529,27.291 25.16,27.439 Z"></path><path d="M36.057,25.014 C35.505,25.2 34.935,25.362 34.357,25.497 C33.8240222,25.6273119 33.4955823,26.1627368 33.6209604,26.6968968 C33.7463384,27.2310568 34.2787035,27.5644335 34.814,27.444 C35.447,27.295 36.079,27.115 36.69,26.909 C37.2013657,26.7242304 37.4713952,26.1647356 37.2979057,25.6494336 C37.1244162,25.1341316 36.5709894,24.8518744 36.052,25.014 L36.057,25.014 Z"></path><path d="M5.174,39.172 C4.42239668,39.9211974 3.9999475,40.9387723 3.9999475,42 C3.9999475,43.0612277 4.42239668,44.0788026 5.174,44.828 C5.42394243,45.0937743 5.79879039,45.2023371 6.15208061,45.1112699 C6.50537082,45.0202026 6.78102789,44.7439599 6.8713451,44.3904772 C6.96166231,44.0369945 6.85230422,43.6623778 6.586,43.413 C5.80590235,42.6321149 5.80590235,41.3668851 6.586,40.586 C7.37662561,39.829801 8.62237439,39.829801 9.413,40.586 C10.1924319,41.3667702 10.1924319,42.6312298 9.413,43.412 C9.14669578,43.6613778 9.03733769,44.0359945 9.1276549,44.3894772 C9.21797211,44.7429599 9.49362918,45.0192026 9.84691939,45.1102699 C10.2002096,45.2013371 10.5750576,45.0927743 10.825,44.827 C11.5762966,44.0778426 11.998551,43.0604823 11.998551,41.9995 C11.998551,40.9385177 11.5762966,39.9211574 10.825,39.172 C9.2441428,37.6615139 6.7548572,37.6615139 5.174,39.172 Z"></path><path d="M52,34 C50.8345624,34.0014094 49.6837019,34.2591666 48.629,34.755 L33.991,11.468 C35.8501969,9.81180047 36.4932967,7.17942314 35.6071837,4.85253391 C34.7210706,2.52564467 32.4899016,0.987830472 30,0.987830472 C27.5100984,0.987830472 25.2789294,2.52564467 24.3928163,4.85253391 C23.5067033,7.17942314 24.1498031,9.81180047 26.009,11.468 L11.371,34.755 C7.54789819,32.9942928 3.01467237,34.5082473 1.01684846,38.2129601 C-0.980975461,41.9176728 0.24467895,46.5371929 3.81631444,48.7642127 C7.38794994,50.9912325 12.075449,50.0587375 14.5228351,46.6343399 C16.9702211,43.2099424 16.3345827,38.4730491 13.071,35.815 L19.688,25.289 L19.731,25.314 C19.8803776,25.3987778 20.0492418,25.4432339 20.221,25.443 C20.6662704,25.4444604 21.0583016,25.1499122 21.1808424,24.7218332 C21.3033832,24.2937542 21.1265961,23.8363775 20.748,23.602 L27.7,12.539 C28.1178996,12.7114574 28.5540248,12.8359208 29,12.91 L29,26 C28.475742,26.0289069 28.0654495,26.4624457 28.0654495,26.9875 C28.0654495,27.5125543 28.475742,27.9460931 29,27.975 L29,45.075 C24.8093778,45.6029688 21.7511984,49.2977772 22.0157019,53.5132372 C22.2802055,57.7286972 25.7762499,61.0122539 30,61.0122539 C34.2237501,61.0122539 37.7197945,57.7286972 37.9842981,53.5132372 C38.2488016,49.2977772 35.1906222,45.6029688 31,45.075 L31,27.975 C31.5337831,27.9309611 31.9380951,27.4741811 31.917,26.939 C31.9002294,26.4359264 31.5025347,26.0286905 31,26 L31,12.91 C31.4459752,12.8359208 31.8821004,12.7114574 32.3,12.539 L39.256,23.6 C38.8387389,23.903843 38.7212905,24.4753389 38.9849091,24.9191098 C39.2485277,25.3628807 39.8065848,25.5330979 40.273,25.312 L40.316,25.287 L46.933,35.813 C43.9261396,38.2788998 43.1296344,42.5506669 45.0457655,45.934498 C46.9618967,49.318329 51.0348671,50.8327026 54.6962357,49.5226451 C58.3576044,48.2125876 60.5453468,44.4580971 59.8798586,40.6267792 C59.2143705,36.7954614 55.8886848,33.9986364 52,34 Z M14,42 C14.0091004,44.7477027 12.1565371,47.1528874 9.49755273,47.8455313 C6.8385684,48.5381751 4.04800682,47.3424868 2.71540619,44.9395451 C1.38280555,42.5366035 1.84637663,39.5362691 3.84206364,37.6475694 C5.83775064,35.7588697 8.85905311,35.461152 11.185,36.924 L11.191,36.924 C12.9374669,38.0208052 13.9982485,39.9376894 14,42 Z M30,3 C32.209139,3 34,4.790861 34,7 C34,9.209139 32.209139,11 30,11 C27.790861,11 26,9.209139 26,7 C26,4.790861 27.790861,3 30,3 Z M36,53 C36,56.3137085 33.3137085,59 30,59 C26.6862915,59 24,56.3137085 24,53 C24,49.6862915 26.6862915,47 30,47 C33.3123376,47.0033074 35.9966926,49.6876624 36,53 Z M52,48 C49.3274816,48.0019136 46.9764431,46.2345842 46.2356313,43.6667921 C45.4948194,41.099 46.5431624,38.350944 48.806,36.929 L48.813,36.929 C50.9719173,35.5636823 53.7585615,35.7149479 55.7570035,37.3059368 C57.7554454,38.8969258 58.527464,41.5787637 57.6807867,43.9887748 C56.8341095,46.3987859 54.554397,48.0084996 52,48 Z"></path><path d="M49.174,39.172 C48.4223967,39.9211974 47.9999475,40.9387723 47.9999475,42 C47.9999475,43.0612277 48.4223967,44.0788026 49.174,44.828 C49.4239424,45.0937743 49.7987904,45.2023371 50.1520806,45.1112699 C50.5053708,45.0202026 50.7810279,44.7439599 50.8713451,44.3904772 C50.9616623,44.0369945 50.8523042,43.6623778 50.586,43.413 C49.8059024,42.6321149 49.8059024,41.3668851 50.586,40.586 C51.3766256,39.829801 52.6223744,39.829801 53.413,40.586 C54.1924319,41.3667702 54.1924319,42.6312298 53.413,43.412 C53.1466958,43.6613778 53.0373377,44.0359945 53.1276549,44.3894772 C53.2179721,44.7429599 53.4936292,45.0192026 53.8469194,45.1102699 C54.2002096,45.2013371 54.5750576,45.0927743 54.825,44.827 C55.5762966,44.0778426 55.998551,43.0604823 55.998551,41.9995 C55.998551,40.9385177 55.5762966,39.9211574 54.825,39.172 C53.2441428,37.6615139 50.7548572,37.6615139 49.174,39.172 Z"></path><path d="M27.174,50.172 C26.4223967,50.9211974 25.9999475,51.9387723 25.9999475,53 C25.9999475,54.0612277 26.4223967,55.0788026 27.174,55.828 C27.4239424,56.0937743 27.7987904,56.2023371 28.1520806,56.1112699 C28.5053708,56.0202026 28.7810279,55.7439599 28.8713451,55.3904772 C28.9616623,55.0369945 28.8523042,54.6623778 28.586,54.413 C27.8059024,53.6321149 27.8059024,52.3668851 28.586,51.586 C29.3766256,50.829801 30.6223744,50.829801 31.413,51.586 C32.1924319,52.3667702 32.1924319,53.6312298 31.413,54.412 C31.1466958,54.6613778 31.0373377,55.0359945 31.1276549,55.3894772 C31.2179721,55.7429599 31.4936292,56.0192026 31.8469194,56.1102699 C32.2002096,56.2013371 32.5750576,56.0927743 32.825,55.827 C33.5762966,55.0778426 33.998551,54.0604823 33.998551,52.9995 C33.998551,51.9385177 33.5762966,50.9211574 32.825,50.172 C31.2441428,48.6615139 28.7548572,48.6615139 27.174,50.172 Z"></path></g></g></svg>