<svg height='100px' width='100px'  fill="#000000" xmlns:dc="http://purl.org/dc/elements/1.1/" xmlns:cc="http://creativecommons.org/ns#" xmlns:rdf="http://www.w3.org/1999/02/22-rdf-syntax-ns#" xmlns:svg="http://www.w3.org/2000/svg" xmlns="http://www.w3.org/2000/svg" xmlns:sodipodi="http://sodipodi.sourceforge.net/DTD/sodipodi-0.dtd" xmlns:inkscape="http://www.inkscape.org/namespaces/inkscape" version="1.1" x="0px" y="0px" viewBox="0 0 100 100"><g transform="translate(0,-952.36218)"><path style="text-indent:0;text-transform:none;direction:ltr;block-progression:tb;baseline-shift:baseline;color:#000000;enable-background:accumulate;" d="m 71.843751,953.3697 c -0.57587,0.042 -1.12742,0.3467 -1.46875,0.8124 l -7.65625,10.5305 -2.1875,0.8749 c -0.36768,0.1524 -0.68781,0.4172 -0.90625,0.75 l -25.281252,37.9033 c -0.5771,0.8549 -0.341131,2.1527 0.5,2.7498 l 10.000002,6.9994 c 0.87105,0.6096 2.2238,0.354 2.8125,-0.5311 l 11.15625,-16.6863 c 1.3768,0.6941 2.93943,1.1255 4.5625,1.2499 4.48034,4.6393 6.8125,7.9474 6.8125,14.1865 0,9.9872 -8.08185,19.0921 -17.65625,19.0921 -3.17392,-0.137 -6.09724,-0.5758 -8.65625,-1.9998 l 1.125,0 c 1.33333,0 2.69637,-0.3028 3.875,-1.0936 1.17863,-0.7912 2.125,-2.2661 2.125,-3.9373 0,-1.6621 -0.98154,-3.1282 -2.15625,-3.9059 -1.17471,-0.7778 -2.51042,-1.0624 -3.84375,-1.0624 l -24.000002,0 c -1.333331,0 -2.694001,0.2944 -3.875,1.0936 -1.181,0.7993 -2.125,2.2911 -2.125,3.9685 0,1.6569 0.98411,3.0739 2.15625,3.8435 1.17214,0.7692 2.510419,1.0936 3.84375,1.0936 l 2.75,0 c 2.102279,4.1107 5.31715,7.3488 9.21875,9.6867 -2.35941,1.7085 -4.682321,3.2019 -6.5,5.2808 -1.470741,1.831 -1.46875,2.8816 -1.46875,5.0935 10e-5,1.0471 0.95283,1.9997 2,1.9998 l 52.000002,0 c 1.04717,-10e-5 1.9999,-0.9527 2,-1.9998 0.18482,-1.9576 -0.289089,-3.7773 -1.53125,-5.0935 -1.99588,-1.9787 -4.35961,-3.4865 -6.5,-5.0933 8.505951,-6.5488 12.03125,-16.4861 12.03125,-26.9665 0,-9.5073 -4.355439,-19.6344 -13.28125,-27.9355 -0.48155,-1.5197 -1.147189,-2.7262 -2.1875,-3.5934 l 4.0625,-6.0933 c 0.200791,-0.3155 0.31045,-0.6884 0.3125,-1.0625 l 0.0625,-2.5622 6.71875,-10.5305 c 0.58184,-0.9087 0.247971,-2.2744 -0.6875,-2.8123 l -7,-3.9997 c -0.34875,-0.1965 -0.75746,-0.2848 -1.15625,-0.2499 z m 0.71875,4.6246 3.625,2.0623 -5.875,9.218 c -0.18976,0.2981 -0.299299,0.647 -0.3125,1 l -4.28125,-2.8748 z m -10.46875,11.8429 6.8125,4.5621 -3.0625,4.5934 c -1.18172,-0.3126 -2.55195,-0.334 -3.625,-0.1875 -2.857609,0.4061 -5.77391,2.0556 -7.53125,5.3121 -1.88506,4.0294 -0.96664,7.5662 0.9688,10.1549 l -5.40625,8.0932 -6.71875,-4.6871 z m 5.09375,14.0609 c 0.62114,0.5227 0.82064,0.9885 0.8125,1.4062 -0.0141,0.5726 0.23187,1.1465 0.65625,1.5312 8.48121,7.7067 12.34375,16.9405 12.34375,25.3731 0,10.5273 -3.59959,19.6983 -12.6875,25.3417 -3.09019,1.5794 -9.9026,1.8123 -18.75,1.8123 -8.96567,0 -16.926883,-3.6125 -21.187502,-10.0617 l 10.125,0 c 1.09384,1.9735 2.948223,3.4134 5.093753,4.3433 2.64065,1.1449 5.76687,1.6562 8.9375,1.6562 12.0528,0 21.65625,-10.9706 21.65625,-23.0918 0,-7.5936 -3.42898,-12.3475 -8.4375,-17.4675 -0.36911,-0.3899 -0.90063,-0.6209 -1.4375,-0.6249 -2.38118,0 -4.52132,-1.0326 -5.6875,-2.4999 -1.15408,-1.452 -1.54698,-3.2076 -0.40625,-5.5933 1.21852,-2.0209 2.83458,-3.0229 4.5312,-3.2806 1.55435,-0.1662 3.17025,0.3231 4.43755,1.1557 z m -4.1875,0.4692 c -2.20914,0 -4,1.7908 -4,3.9997 0,2.2089 1.79086,3.9997 4,3.9997 2.20914,0 4,-1.7908 4,-3.9997 0,-2.2089 -1.79086,-3.9997 -4,-3.9997 z m -21.6875,16.6549 6.6875,4.6873 -2.53125,3.8121 -6.718753,-4.6871 z m -20.312502,22.2795 24.000002,0 c 1,0.05 2,0.05 2,0.9687 0,1.0809 -1,1.0809 -2,1.0312 -8.000002,0 -16.000002,0 -24.000002,0 -1,0.05 -2,0.05 -2,-0.9374 0,-1.0128 1,-1.0128 2,-1.0625 z m 16.09375,17.7487 c 3.833753,1.5256 8.087312,2.3123 12.468752,2.3123 8.39415,0 15.10126,0.1604 19.84375,-1.906 2.49274,2.1509 5.3335,3.5994 7.40625,5.9057 l -47.687502,0 c 2.220969,-2.5982 5.20285,-4.4692 7.96875,-6.312 z" fill="#000000" fill-opacity="1" stroke="none" marker="none" visibility="visible" display="inline" overflow="visible"></path></g></svg>