<svg height='100px' width='100px'  fill="#000000" xmlns="http://www.w3.org/2000/svg" viewBox="0 0 48 48" x="0px" y="0px"><title>Science</title><g><path d="M40.81,24.08q.78-.73,1.5-1.47A4,4,0,0,0,47,16.4c3.3-6.52-.71-11.79-15-7C28.06-3.09,20-3.16,16,9.31-.43,3.88-5.42,11.94,7.48,24.09c-.52.49-1,1-1.48,1.46-4.1-2.38-8.11,3.1-4.77,6.32C-.32,35,.11,37,.78,38.08c2.49,4.16,10.7,2.29,15.31.77,4,12.24,11.9,12.2,15.85-.09C48.73,44.42,53.78,36.29,40.81,24.08ZM44,21a2,2,0,1,1,2-2A2,2,0,0,1,44,21Zm1.35-5.75a4,4,0,0,0-4.59,6.08c-.45.47-.93.93-1.43,1.4-8.66-7.55-4-.52-6.79-11.39C40.06,8.79,48.8,8.1,45.35,15.25Zm-21.2,18a73,73,0,0,1-8-4.77,54.64,54.64,0,0,1,0-8.77,73.7,73.7,0,0,1,8-4.76,72.77,72.77,0,0,1,7.66,4.57,56.13,56.13,0,0,1,0,9.17A74.45,74.45,0,0,1,24.15,33.24Zm7.37-2a42.36,42.36,0,0,1-.93,4.88c-1.38-.53-2.8-1.14-4.24-1.82C28.42,33.21,29.78,32.4,31.52,31.27Zm-9.58,3.06c-1.53.72-3,1.37-4.51,1.92a43.66,43.66,0,0,1-1-5.19C18.45,32.36,19.92,33.24,21.94,34.33ZM14.08,27c-1.28-.95-2.49-1.92-3.62-2.89,1.13-1,2.33-1.94,3.61-2.88C14,23.18,14,25,14.08,27Zm2.34-9.84a40.31,40.31,0,0,1,1-5.23c1.48.56,3,1.21,4.54,1.94C19.76,15,18.24,16,16.42,17.14Zm10-3.29q2.18-1,4.26-1.82a42.2,42.2,0,0,1,.92,4.89C29.66,15.7,28.13,14.81,26.37,13.85ZM33.92,21c1.39,1,2.7,2.05,3.9,3.1-1.21,1.05-2.52,2.1-3.91,3.12A56.15,56.15,0,0,0,33.92,21ZM30.09,10.09c-1.92.73-3.92,1.6-5.94,2.61A66.92,66.92,0,0,0,17.94,10C21.36-.82,26.81-.42,30.09,10.09Zm-14.6,1.14C12.59,22.52,17.28,15.48,9,22.74-2.55,12,1.16,6.48,15.49,11.23ZM4,27a2,2,0,1,1-2,2A2,2,0,0,1,4,27ZM3,32.85A4,4,0,0,0,7.42,27c.49-.51,1-1,1.54-1.52,8.36,7.29,3.62.22,6.57,11.48C8,39.42-.51,40,3,32.85Zm15,5.33a65.72,65.72,0,0,0,6.16-2.7c2,1,4,1.87,5.89,2.6C26.75,48.43,21.37,48.7,18,38.18Zm14.5-1.35c2.83-10.89-1.86-3.83,6.83-11.4C50.73,36.1,47.46,41.91,32.49,36.83Z"></path></g></svg>