<svg height='100px' width='100px'  fill="#000000" xmlns="http://www.w3.org/2000/svg" xmlns:xlink="http://www.w3.org/1999/xlink" version="1.1" x="0px" y="0px" viewBox="0 0 512 512" style="enable-background:new 0 0 512 512;" xml:space="preserve"><g><g><g><path d="M371.412,418.781H132.588c-2.199,0-4.338-0.725-6.083-2.063c-22.642-17.354-40.315-39.158-52.532-64.805     c-12.122-25.451-18.27-53.42-18.27-83.133c0-3.426,0.105-6.984,0.313-10.576c0.306-5.291,4.685-9.423,9.983-9.423h370     c5.299,0,9.678,4.133,9.983,9.423c0.208,3.598,0.313,7.156,0.313,10.576c0,61.393-24.435,113.93-68.801,147.938     C375.75,418.057,373.611,418.781,371.412,418.781z M136.035,398.781H367.96c37.651-30.189,58.337-76.213,58.337-130H75.703     C75.703,321.641,97.099,367.668,136.035,398.781z"></path></g><g><path d="M376,458.781H136c-5.523,0-10-4.477-10-10v-40c0-5.521,4.477-10,10-10h240c5.522,0,10,4.479,10,10v40     C386,454.305,381.522,458.781,376,458.781z M146,438.781h220v-20H146V438.781z"></path></g><g><path d="M466,458.781H46c-5.523,0-10-4.477-10-10c0-5.521,4.477-10,10-10h420c5.522,0,10,4.479,10,10     C476,454.305,471.522,458.781,466,458.781z"></path></g><g><path d="M346,308.781H76c-5.523,0-10-4.477-10-10c0-5.521,4.477-10,10-10h270c5.522,0,10,4.479,10,10     C356,304.305,351.522,308.781,346,308.781z"></path></g><g><path d="M376,308.781c-2.63,0-5.21-1.07-7.07-2.93s-2.93-4.439-2.93-7.07c0-2.629,1.069-5.209,2.93-7.07     c1.86-1.859,4.44-2.93,7.07-2.93s5.21,1.07,7.069,2.93c1.86,1.861,2.931,4.441,2.931,7.07c0,2.631-1.07,5.211-2.931,7.07     C381.21,307.711,378.63,308.781,376,308.781z"></path></g><g><path d="M349.37,228.782h-98.043c-3.691,0-7.082-2.033-8.821-5.289c-1.738-3.256-1.543-7.205,0.51-10.272     c1.64-2.449,3.523-4.744,5.602-6.822l106.065-106.066c8.499-8.499,19.801-13.18,31.819-13.18c0.001,0,0,0,0.001,0     c12.02,0,23.32,4.681,31.819,13.181c8.499,8.499,13.181,19.8,13.181,31.82c0,12.02-4.682,23.32-13.181,31.82l-61.881,61.881     C354.565,227.728,352.022,228.782,349.37,228.782z M274.518,208.782h70.71l58.952-58.952c4.723-4.722,7.323-11,7.323-17.678     c0-6.678-2.601-12.956-7.323-17.678c-4.722-4.722-11-7.323-17.677-7.323c-6.678,0-12.956,2.601-17.678,7.322L274.518,208.782z"></path></g><g><path d="M436,268.781H66c-5.523,0-10-4.477-10-10v-40c0-5.523,4.477-10,10-10h370c5.522,0,10,4.477,10,10v40     C446,264.305,441.522,268.781,436,268.781z M76,248.782h350v-20H76V248.782z"></path></g><g><path d="M101,143.218c-13.785,0-25-11.215-25-25s11.215-25,25-25s25,11.215,25,25S114.785,143.218,101,143.218z M101,113.218     c-2.757,0-5,2.243-5,5s2.243,5,5,5s5-2.243,5-5S103.757,113.218,101,113.218z"></path></g><g><path d="M206,193.218c-13.785,0-25-11.215-25-25s11.215-25,25-25s25,11.215,25,25S219.785,193.218,206,193.218z M206,163.218     c-2.757,0-5,2.243-5,5s2.243,5,5,5s5-2.243,5-5S208.757,163.218,206,163.218z"></path></g><g><path d="M276,113.218c-16.542,0-30-13.458-30-30s13.458-30,30-30s30,13.458,30,30S292.542,113.218,276,113.218z M276,73.218     c-5.514,0-10,4.486-10,10s4.486,10,10,10s10-4.486,10-10S281.514,73.218,276,73.218z"></path></g></g></g></svg>