<svg height='100px' width='100px'  fill="#000000" xmlns="http://www.w3.org/2000/svg" viewBox="0 0 64 64" x="0px" y="0px"><title>Erlenmeyer Flask_3</title><g data-name="Erlenmeyer Flask"><path d="M49.671,50.939,41,15.878V10a4,4,0,0,0,0-8H23a4,4,0,0,0,0,8v5.878L14.326,50.951A8.993,8.993,0,0,0,23.09,62H40.91a8.993,8.993,0,0,0,8.761-11.061ZM21,6a2,2,0,0,1,2-2H41a2,2,0,0,1,0,4H40a1,1,0,0,0-1,1v7a1.023,1.023,0,0,0,.029.24l.443,1.791A5.113,5.113,0,0,0,37.4,17.64a5.216,5.216,0,0,0-2.181.432,3.681,3.681,0,0,1-2.857,0,5.663,5.663,0,0,0-4.334,0,3.671,3.671,0,0,1-2.853,0c-.175-.07-.376-.146-.6-.215l.4-1.617A1.023,1.023,0,0,0,25,16V9a1,1,0,0,0-1-1H23A2,2,0,0,1,21,6ZM46.4,57.347A6.968,6.968,0,0,1,40.91,60H23.09a6.993,6.993,0,0,1-6.819-8.58L24.09,19.8c.111.038.221.079.341.128a5.671,5.671,0,0,0,4.342,0,3.657,3.657,0,0,1,2.845,0,5.689,5.689,0,0,0,4.342,0,3.719,3.719,0,0,1,2.87,0,5.492,5.492,0,0,0,1.2.348l7.7,31.134A6.953,6.953,0,0,1,46.4,57.347Z"></path><path d="M29,49h6a1,1,0,0,0,0-2H29a1,1,0,0,0,0,2Z"></path><path d="M38,43H26a1,1,0,0,0,0,2H38a1,1,0,0,0,0-2Z"></path><path d="M38,55H26a1,1,0,0,0,0,2H38a1,1,0,0,0,0-2Z"></path><path d="M29,53h6a1,1,0,0,0,0-2H29a1,1,0,0,0,0,2Z"></path><path d="M29,41h6a1,1,0,0,0,0-2H29a1,1,0,0,0,0,2Z"></path><path d="M29,37h6a1,1,0,0,0,0-2H29a1,1,0,0,0,0,2Z"></path><path d="M38,31H26a1,1,0,0,0,0,2H38a1,1,0,0,0,0-2Z"></path><path d="M29,29h6a1,1,0,0,0,0-2H29a1,1,0,0,0,0,2Z"></path><path d="M29,25h6a1,1,0,0,0,0-2H29a1,1,0,0,0,0,2Z"></path></g></svg>