<svg height='100px' width='100px'  fill="#000000" xmlns="http://www.w3.org/2000/svg" viewBox="0 0 64 64" x="0px" y="0px"><title>Science experiment_2</title><g data-name="Science experiment"><path d="M40.02,19a1,1,0,0,0-1-1h-.01a1,1,0,1,0,1.01,1Z"></path><path d="M42.02,23a1,1,0,1,0,0-2h-.01a1,1,0,0,0,.01,2Z"></path><path d="M60,60H14V35h1.938A1.108,1.108,0,0,0,17,33.938V32H32v1.938A1.108,1.108,0,0,0,33.062,35H35V47.938A5.068,5.068,0,0,0,40.062,53h1.876A5.068,5.068,0,0,0,47,47.938V35h1.938A1.108,1.108,0,0,0,50,33.938V28.062A1.108,1.108,0,0,0,48.938,27H47V9a3,3,0,0,0,0-6H35a3,3,0,0,0,0,6V27H33.062A1.108,1.108,0,0,0,32,28.062V30H17V28.062A1.108,1.108,0,0,0,15.938,27H14V3a1,1,0,0,0-2,0V27H10.062A1.108,1.108,0,0,0,9,28.062v5.876A1.108,1.108,0,0,0,10.062,35H12V60H4a1,1,0,0,0,0,2H60a1,1,0,0,0,0-2ZM48,33H44V29h4ZM34,6a1,1,0,0,1,1-1H47a1,1,0,0,1,0,2H46a1,1,0,0,0-1,1v4.94a3.609,3.609,0,0,0-2.37.132,1.594,1.594,0,0,1-1.254,0,3.609,3.609,0,0,0-2.744,0,1.6,1.6,0,0,1-1.259,0c-.1-.041-.231-.087-.373-.13V8.062A1.108,1.108,0,0,0,35.938,7H35A1,1,0,0,1,34,6Zm3,9.059a3.621,3.621,0,0,0,2.375-.13,1.6,1.6,0,0,1,1.257,0,3.606,3.606,0,0,0,2.743,0,1.588,1.588,0,0,1,1.254,0c.1.041.23.087.371.13V27H43.062A1.108,1.108,0,0,0,42,28.062v5.876A1.108,1.108,0,0,0,43.062,35H45V47.938A3.065,3.065,0,0,1,41.938,51H40.062A3.065,3.065,0,0,1,37,47.938V35h1.938A1.108,1.108,0,0,0,40,33.938V28.062A1.108,1.108,0,0,0,38.938,27H37ZM34,29h4v4H34ZM11,29h4v4H11Z"></path></g></svg>