<svg height='100px' width='100px'  fill="#000000" xmlns="http://www.w3.org/2000/svg" xmlns:xlink="http://www.w3.org/1999/xlink" version="1.1" x="0px" y="0px" viewBox="0 0 64 64" style="enable-background:new 0 0 64 64;" xml:space="preserve"><g><circle cx="54" cy="22" r="1"></circle><path d="M54,17c-2.757,0-5,2.243-5,5s2.243,5,5,5s5-2.243,5-5S56.757,17,54,17z M54,25c-1.654,0-3-1.346-3-3s1.346-3,3-3   s3,1.346,3,3S55.654,25,54,25z"></path><circle cx="10" cy="54" r="1"></circle><path d="M10,49c-2.757,0-5,2.243-5,5s2.243,5,5,5s5-2.243,5-5S12.757,49,10,49z M10,57c-1.654,0-3-1.346-3-3s1.346-3,3-3   s3,1.346,3,3S11.654,57,10,57z"></path><circle cx="28" cy="54" r="1"></circle><path d="M28,49c-2.757,0-5,2.243-5,5s2.243,5,5,5s5-2.243,5-5S30.757,49,28,49z M28,57c-1.654,0-3-1.346-3-3s1.346-3,3-3   s3,1.346,3,3S29.654,57,28,57z"></path><circle cx="14" cy="10" r="1"></circle><path d="M14,5c-2.757,0-5,2.243-5,5s2.243,5,5,5s5-2.243,5-5S16.757,5,14,5z M14,13c-1.654,0-3-1.346-3-3s1.346-3,3-3s3,1.346,3,3   S15.654,13,14,13z"></path><circle cx="32" cy="10" r="1"></circle><path d="M32,5c-2.757,0-5,2.243-5,5s2.243,5,5,5s5-2.243,5-5S34.757,5,32,5z M32,13c-1.654,0-3-1.346-3-3s1.346-3,3-3s3,1.346,3,3   S33.654,13,32,13z"></path><circle cx="42" cy="34" r="1"></circle><path d="M42,29c-2.757,0-5,2.243-5,5s2.243,5,5,5s5-2.243,5-5S44.757,29,42,29z M42,37c-1.654,0-3-1.346-3-3s1.346-3,3-3   s3,1.346,3,3S43.654,37,42,37z"></path><path d="M54,13c-1.239,0-2.418,0.255-3.494,0.71c-3.775-0.594-7.191-2.504-9.672-5.41C40.036,4.148,36.381,1,32,1   c-2.06,0-4.053,0.708-5.654,2h-6.691C18.053,1.708,16.06,1,14,1c-4.963,0-9,4.038-9,9s4.037,9,9,9c2.06,0,4.053-0.708,5.654-2   h6.691c1.602,1.292,3.595,2,5.654,2c2.195,0,4.206-0.792,5.77-2.102c2.814,0.796,5.285,2.57,6.942,4.975l-3.136,3.136   C36.81,25.232,33,29.179,33,34c0,1.169,0.231,2.283,0.638,3.308c-0.739,3.292-2.927,6.144-5.923,7.704   c-1.958,0.062-3.842,0.756-5.369,1.988h-6.691c-1.602-1.292-3.595-2-5.654-2c-4.963,0-9,4.037-9,9s4.037,9,9,9   c2.06,0,4.053-0.708,5.654-2h6.691c1.602,1.292,3.595,2,5.654,2c4.963,0,9-4.037,9-9c0-1.219-0.246-2.38-0.687-3.441   c0.39-3.09,2.074-5.853,4.616-7.629C41.281,42.972,41.637,43,42,43c4.82,0,8.769-3.81,8.99-8.576l3.434-3.434   C59.19,30.768,63,26.821,63,22C63,17.038,58.963,13,54,13z M32,17c-1.702,0-3.346-0.622-4.63-1.751L27.087,15h-8.174l-0.283,0.249   C17.346,16.378,15.702,17,14,17c-3.859,0-7-3.14-7-7s3.141-7,7-7c1.702,0,3.346,0.622,4.63,1.751L18.913,5h8.174l0.283-0.249   C28.654,3.622,30.298,3,32,3c3.859,0,7,3.14,7,7S35.859,17,32,17z M39.278,15.273c0.85-1.17,1.423-2.548,1.629-4.046   c2.06,1.873,4.516,3.235,7.197,3.991c-1.279,1.114-2.238,2.579-2.729,4.247C43.736,17.579,41.633,16.122,39.278,15.273z M28,61   c-1.702,0-3.346-0.622-4.63-1.751L23.087,59h-8.174l-0.283,0.249C13.346,60.378,11.702,61,10,61c-3.859,0-7-3.141-7-7s3.141-7,7-7   c1.702,0,3.346,0.622,4.63,1.751L14.913,49h8.174l0.283-0.249C24.654,47.622,26.298,47,28,47c3.859,0,7,3.141,7,7S31.859,61,28,61z    M34.813,48.136c-1.074-1.246-2.48-2.198-4.083-2.71c1.911-1.506,3.389-3.511,4.27-5.781c0.932,1.153,2.14,2.074,3.525,2.656   C36.779,43.877,35.5,45.89,34.813,48.136z M54,29h-0.414L49,33.586V34c0,3.859-3.141,7-7,7s-7-3.141-7-7c0-3.86,3.141-7,7-7h0.414   L47,22.414V22c0-3.86,3.141-7,7-7s7,3.14,7,7S57.859,29,54,29z"></path></g></svg>