<svg height='100px' width='100px'  fill="#000000" xmlns="http://www.w3.org/2000/svg" xmlns:xlink="http://www.w3.org/1999/xlink" version="1.1" x="0px" y="0px" viewBox="0 0 100 100" style="enable-background:new 0 0 100 100;" xml:space="preserve"><style type="text/css">
	.st0{fill:none;stroke:#000000;stroke-width:3;stroke-linecap:round;stroke-linejoin:round;stroke-miterlimit:10;}
</style><g><g><path d="M83.2,53.5H72.2c-0.8,0-1.4-0.6-1.4-1.4V36.3c0-3.8-3.1-6.9-6.9-6.9c-3.8,0-6.9,3.1-6.9,6.9V52c0,0.8-0.6,1.4-1.4,1.4h-11    c-0.8,0-1.4-0.6-1.4-1.4V36.3c0-3.8-3.1-6.9-6.9-6.9c-3.8,0-6.9,3.1-6.9,6.9V52c0,0.8-0.6,1.4-1.4,1.4H16.8    c-0.8,0-1.4-0.6-1.4-1.4V36.3c0-3.8-3.1-6.9-6.9-6.9c-0.8,0-1.4-0.6-1.4-1.4v-8.2c0-0.8,0.6-1.4,1.4-1.4h82.9    c0.8,0,1.4,0.6,1.4,1.4V28c0,0.8-0.6,1.4-1.4,1.4c-3.8,0-6.9,3.1-6.9,6.9V52C84.7,52.8,84.1,53.5,83.2,53.5z M73.6,50.6h8.2V36.3    c0-4.9,3.6-8.9,8.3-9.6v-5.4H10v5.4c4.7,0.7,8.3,4.7,8.3,9.6v14.3h8.2V36.3c0-5.4,4.4-9.7,9.7-9.7c5.4,0,9.7,4.4,9.7,9.7v14.3h8.2    V36.3c0-5.4,4.4-9.7,9.7-9.7c5.3,0,9.7,4.4,9.7,9.7V50.6z"></path></g></g><path class="st0" d="M91.9,65.2c-1.3,1.8-2.6,3.6-6,3.6c-6.6,0-5.3-7.2-12-7.2s-5.3,7.2-12,7.2s-5.3-7.2-12-7.2s-5.3,7.2-12,7.2  s-5.3-7.2-12-7.2s-5.3,7.2-12,7.2c-3.3,0-4.6-1.8-6-3.6"></path><path class="st0" d="M91.9,78c-1.3,1.8-2.6,3.6-6,3.6c-6.6,0-5.3-7.2-12-7.2s-5.3,7.2-12,7.2s-5.3-7.2-12-7.2s-5.3,7.2-12,7.2  s-5.3-7.2-12-7.2s-5.3,7.2-12,7.2c-3.3,0-4.6-1.8-6-3.6"></path></svg>