<svg height='100px' width='100px'  fill="#000000" xmlns:x="http://ns.adobe.com/Extensibility/1.0/" xmlns:i="http://ns.adobe.com/AdobeIllustrator/10.0/" xmlns:graph="http://ns.adobe.com/Graphs/1.0/" xmlns="http://www.w3.org/2000/svg" xmlns:xlink="http://www.w3.org/1999/xlink" version="1.1" x="0px" y="0px" viewBox="0 0 100 100" style="enable-background:new 0 0 100 100;" xml:space="preserve"><g><g i:extraneous="self"><g><path d="M71.5,55.9c1.8-0.2,3.1-1.7,3.1-3.5v-0.8h10.9c0.7,2.5,3.1,4.4,5.8,4.4c3.4,0,6.1-2.7,6.1-6.1s-2.7-6.1-6.1-6.1     c-2.8,0-5.1,1.9-5.8,4.4H74.6v-0.8c0-1.8-1.3-3.3-3.1-3.5l-5-0.5c-0.1-0.2-0.2-0.5-0.3-0.7l3.2-3.9c0.5-0.6,0.7-1.2,0.7-1.9h7.6     c0.7,0,1.4-0.5,1.6-1.1l2.2-6.1h4c0.7,2.5,3.1,4.4,5.8,4.4c3.4,0,6.1-2.7,6.1-6.1c0-3.4-2.7-6.1-6.1-6.1c-2.8,0-5.1,1.9-5.8,4.4     h-5.2c-0.7,0-1.4,0.5-1.6,1.1l-2.2,6.1h-8l-2.2-2.2v-8l6.1-2.2c0.7-0.2,1.1-0.9,1.1-1.6v-5.2c2.5-0.7,4.4-3.1,4.4-5.8     c0-3.4-2.7-6.1-6.1-6.1c-3.4,0-6.1,2.7-6.1,6.1c0,2.8,1.9,5.1,4.4,5.8v4l-6.1,2.2c-0.7,0.2-1.1,0.9-1.1,1.6v7.6     c-0.7,0.1-1.4,0.3-1.9,0.7l-3.9,3.2c-0.2-0.1-0.5-0.2-0.7-0.3l-0.5-5c-0.2-1.8-1.7-3.1-3.5-3.1h-0.8V14.5     c2.5-0.7,4.4-3.1,4.4-5.8c0-3.4-2.7-6.1-6.1-6.1s-6.1,2.7-6.1,6.1c0,2.8,1.9,5.1,4.4,5.8v10.9h-0.8c-1.8,0-3.3,1.3-3.5,3.1     l-0.5,5c-0.2,0.1-0.5,0.2-0.7,0.3L39,30.6c-0.6-0.5-1.2-0.7-1.9-0.7v-7.6c0-0.7-0.5-1.4-1.1-1.6l-6.1-2.2v-4     c2.5-0.7,4.4-3.1,4.4-5.8c0-3.4-2.7-6.1-6.1-6.1c-3.4,0-6.1,2.7-6.1,6.1c0,2.8,1.9,5.1,4.4,5.8v5.2c0,0.7,0.5,1.4,1.1,1.6     l6.1,2.2v8l-2.2,2.2h-8l-2.2-6.1c-0.2-0.7-0.9-1.1-1.6-1.1h-5.2c-0.7-2.5-3.1-4.4-5.8-4.4c-3.4,0-6.1,2.7-6.1,6.1     c0,3.4,2.7,6.1,6.1,6.1c2.8,0,5.1-1.9,5.8-4.4h4l2.2,6.1c0.2,0.7,0.9,1.1,1.6,1.1h7.6c0.1,0.7,0.3,1.4,0.7,1.9l3.2,3.9     c-0.1,0.2-0.2,0.5-0.3,0.7l-5,0.5c-1.8,0.2-3.1,1.7-3.1,3.5v0.8H14.5c-0.7-2.5-3.1-4.4-5.8-4.4c-3.4,0-6.1,2.7-6.1,6.1     s2.7,6.1,6.1,6.1c2.8,0,5.1-1.9,5.8-4.4h10.9v0.8c0,1.8,1.3,3.3,3.1,3.5l5,0.5c0.1,0.2,0.2,0.5,0.3,0.7L30.6,61     c-0.5,0.6-0.7,1.2-0.7,1.9h-7.6c-0.7,0-1.4,0.5-1.6,1.1l-2.2,6.1h-4c-0.7-2.5-3.1-4.4-5.8-4.4c-3.4,0-6.1,2.7-6.1,6.1     c0,3.4,2.7,6.1,6.1,6.1c2.8,0,5.1-1.9,5.8-4.4h5.2c0.7,0,1.4-0.5,1.6-1.1l2.2-6.1h8l2.2,2.2v8l-6.1,2.2c-0.7,0.2-1.1,0.9-1.1,1.6     v5.2c-2.5,0.7-4.4,3.1-4.4,5.8c0,3.4,2.7,6.1,6.1,6.1c3.4,0,6.1-2.7,6.1-6.1c0-2.8-1.9-5.1-4.4-5.8v-4l6.1-2.2     c0.7-0.2,1.1-0.9,1.1-1.6v-7.6c0.7-0.1,1.4-0.3,1.9-0.7l3.9-3.2c0.2,0.1,0.5,0.2,0.7,0.3l0.5,5c0.2,1.8,1.7,3.1,3.5,3.1h0.8v10.9     c-2.5,0.7-4.4,3.1-4.4,5.8c0,3.4,2.7,6.1,6.1,6.1s6.1-2.7,6.1-6.1c0-2.8-1.9-5.1-4.4-5.8V74.6h0.8c1.8,0,3.3-1.3,3.5-3.1l0.5-5     c0.2-0.1,0.5-0.2,0.7-0.3l3.9,3.2c0.6,0.5,1.2,0.7,1.9,0.7v7.6c0,0.7,0.5,1.4,1.1,1.6l6.1,2.2v4c-2.5,0.7-4.4,3.1-4.4,5.8     c0,3.4,2.7,6.1,6.1,6.1c3.4,0,6.1-2.7,6.1-6.1c0-2.8-1.9-5.1-4.4-5.8v-5.2c0-0.7-0.5-1.4-1.1-1.6l-6.1-2.2v-8l2.2-2.2h8l2.2,6.1     c0.2,0.7,0.9,1.1,1.6,1.1h5.2c0.7,2.5,3.1,4.4,5.8,4.4c3.4,0,6.1-2.7,6.1-6.1c0-3.4-2.7-6.1-6.1-6.1c-2.8,0-5.1,1.9-5.8,4.4h-4     l-2.2-6.1c-0.2-0.7-0.9-1.1-1.6-1.1h-7.6c-0.1-0.7-0.3-1.4-0.7-1.9l-3.2-3.9c0.1-0.2,0.2-0.5,0.3-0.7L71.5,55.9z M91.4,47.3     c1.5,0,2.7,1.2,2.7,2.7s-1.2,2.7-2.7,2.7c-1.5,0-2.7-1.2-2.7-2.7S89.9,47.3,91.4,47.3z M91.4,25.4c1.5,0,2.7,1.2,2.7,2.7     c0,1.5-1.2,2.7-2.7,2.7c-1.5,0-2.7-1.2-2.7-2.7C88.7,26.6,89.9,25.4,91.4,25.4z M69.1,8.6c0-1.5,1.2-2.7,2.7-2.7     c1.5,0,2.7,1.2,2.7,2.7s-1.2,2.7-2.7,2.7C70.4,11.3,69.1,10.1,69.1,8.6z M47.3,8.6c0-1.5,1.2-2.7,2.7-2.7s2.7,1.2,2.7,2.7     s-1.2,2.7-2.7,2.7S47.3,10.1,47.3,8.6z M25.4,8.6c0-1.5,1.2-2.7,2.7-2.7c1.5,0,2.7,1.2,2.7,2.7s-1.2,2.7-2.7,2.7     C26.6,11.3,25.4,10.1,25.4,8.6z M8.6,30.9c-1.5,0-2.7-1.2-2.7-2.7c0-1.5,1.2-2.7,2.7-2.7c1.5,0,2.7,1.2,2.7,2.7     C11.3,29.6,10.1,30.9,8.6,30.9z M8.6,52.7c-1.5,0-2.7-1.2-2.7-2.7s1.2-2.7,2.7-2.7c1.5,0,2.7,1.2,2.7,2.7S10.1,52.7,8.6,52.7z      M8.6,74.6c-1.5,0-2.7-1.2-2.7-2.7c0-1.5,1.2-2.7,2.7-2.7c1.5,0,2.7,1.2,2.7,2.7C11.3,73.4,10.1,74.6,8.6,74.6z M30.9,91.4     c0,1.5-1.2,2.7-2.7,2.7c-1.5,0-2.7-1.2-2.7-2.7c0-1.5,1.2-2.7,2.7-2.7C29.6,88.7,30.9,89.9,30.9,91.4z M52.7,91.4     c0,1.5-1.2,2.7-2.7,2.7s-2.7-1.2-2.7-2.7c0-1.5,1.2-2.7,2.7-2.7S52.7,89.9,52.7,91.4z M74.6,91.4c0,1.5-1.2,2.7-2.7,2.7     c-1.5,0-2.7-1.2-2.7-2.7c0-1.5,1.2-2.7,2.7-2.7C73.4,88.7,74.6,89.9,74.6,91.4z M91.4,69.1c1.5,0,2.7,1.2,2.7,2.7     c0,1.5-1.2,2.7-2.7,2.7c-1.5,0-2.7-1.2-2.7-2.7C88.7,70.4,89.9,69.1,91.4,69.1z M65.4,53.1c-0.9,0.1-1.6,0.7-1.9,1.5     c-0.2,0.6-0.4,1.1-0.7,1.7c-0.4,0.8-0.3,1.7,0.3,2.4l3.6,4.6l-3.6,3.5l-4.4-3.6c-0.7-0.6-1.6-0.7-2.4-0.3     c-0.5,0.3-1.1,0.5-1.7,0.7c-0.8,0.3-1.4,1-1.5,1.9l-0.7,5.8l-5-0.1l-0.6-5.7c-0.1-0.9-0.7-1.6-1.5-1.9c-0.6-0.2-1.1-0.4-1.7-0.7     c-0.3-0.2-0.6-0.2-1-0.2c-0.5,0-1,0.2-1.4,0.5l-4.6,3.6l-3.5-3.6l3.6-4.5c0.5-0.7,0.6-1.6,0.3-2.4c-0.3-0.5-0.5-1.1-0.7-1.7     c-0.3-0.8-1-1.4-1.9-1.5l-5.8-0.7l0.1-5l5.7-0.6c0.9-0.1,1.6-0.7,1.9-1.5c0.2-0.6,0.4-1.1,0.7-1.7c0.4-0.8,0.3-1.7-0.3-2.4     l-3.6-4.6l3.6-3.5l4.5,3.6c0.7,0.5,1.6,0.7,2.4,0.3c0.5-0.3,1.1-0.5,1.7-0.7c0.8-0.3,1.4-1,1.5-1.9l0.6-5.7l0.1-0.1l5,0.1     l0.6,5.7c0.1,0.9,0.7,1.6,1.5,1.9c0.6,0.2,1.1,0.4,1.7,0.7c0.8,0.4,1.7,0.3,2.4-0.3l4.6-3.6l3.5,3.6l-3.6,4.5     c-0.5,0.7-0.6,1.6-0.3,2.4c0.3,0.5,0.5,1.1,0.7,1.7c0.3,0.8,1,1.4,1.9,1.5l5.8,0.7l-0.1,5L65.4,53.1z"></path><path d="M50,40.1c-5.5,0-9.9,4.5-9.9,9.9s4.5,9.9,9.9,9.9s9.9-4.5,9.9-9.9S55.5,40.1,50,40.1z M50,56.6c-3.6,0-6.6-2.9-6.6-6.6     s2.9-6.6,6.6-6.6s6.6,2.9,6.6,6.6S53.6,56.6,50,56.6z"></path></g></g></g></svg>