<svg height='100px' width='100px'  fill="#000000" xmlns="http://www.w3.org/2000/svg" xmlns:xlink="http://www.w3.org/1999/xlink" version="1.1" x="0px" y="0px" viewBox="0 0 68 68" enable-background="new 0 0 68 68" xml:space="preserve"><g><path d="M63.4039993,1.3029525c-0.300293-0.3007813-0.7568359-0.3789062-1.140625-0.1943359l-4.7802734,2.2998047   c-0.2275391,0.109375-0.4052734,0.3017578-0.4975586,0.5361328L55.4625931,7.82932L36.4497147,26.9372292l-0.6033325-0.6020508   c-0.5950928-0.6196289-1.632019-0.6435547-2.276062-0.105957l-9.0379028-9.0288086   c-0.0683594-0.0683594-0.0991211-0.171875-0.0712891-0.2597656c1.3110352-4.2597647,0.1694336-8.8623037-2.9785156-12.0107412   c-3.3591309-3.3583987-8.1772451-4.293335-12.3500967-2.8691409C8.8058558,2.1720932,8.559762,2.4435775,8.4811487,2.7804916   C8.4030237,3.1164291,8.5036097,3.4689682,8.747262,3.7131088l4.109375,4.1181641l-0.5634766,4.8828125l-4.871582,0.5556641   L3.3024378,9.150609C3.0582972,8.9064684,2.7023401,8.8039293,2.368844,8.8840075   c-0.3364258,0.078125-0.6088867,0.3242188-0.7202148,0.6513672c-1.487793,4.3710938-0.3881836,9.1113272,2.8696289,12.3691397   c3.1069336,3.1064453,7.605957,4.2919922,12.0722647,2.9667969c0.0678711,0,0.1342773,0.0292969,0.1879883,0.0830078   l6.4929199,6.4934082L1.8986292,52.8205299c-1.190918,1.1889648-1.1923218,3.1134033,0,4.3037109l8.9692383,8.9697304   c0.5756836,0.5761719,1.340332,0.8935547,2.1523438,0.8935547s1.5766602-0.3173828,2.1523438-0.8935547l21.3730469-21.3730507   l6.4926758,6.4931641c0.0756836,0.0761719,0.1044922,0.1796875,0.081543,0.2587891   c-1.3139648,4.2578125-0.1762695,8.8564453,2.96875,12.0019531c2.2675781,2.2675819,5.2851563,3.5156288,8.4975586,3.5156288   c1.3212891,0,2.6235352-0.2138672,3.8701172-0.6357422c0.3271484-0.1113281,0.5742188-0.3828125,0.652832-0.7197266   c0.0786133-0.3359375-0.0214844-0.6894531-0.265625-0.9335938l-4.1191406-4.1279335l0.5634766-4.8740234l4.8725586-0.5634766   l4.1181641,4.1181641c0.2436523,0.2441406,0.5957031,0.3417969,0.9321289,0.2675781   c0.3364258-0.078125,0.6083984-0.3232422,0.7207031-0.6494141c1.4775391-4.2998047,0.3510742-9.1523438-2.8686523-12.3623047   c-3.1074219-3.1064453-7.6220703-4.2929688-12.0761719-2.9667969c-0.0644531,0-0.1313477-0.0302734-0.184082-0.0830078   l-8.9981689-8.9985352c0.5557251-0.6616211,0.5302734-1.6486816-0.0921631-2.2729492l-0.5367432-0.5356445l19.010376-19.1030273   l3.8823242-1.5224609c0.2353516-0.0917969,0.4267578-0.2695313,0.5361328-0.4970703l2.300293-4.7802734   c0.1845703-0.3828125,0.1064453-0.8398438-0.1938477-1.140625L63.4039993,1.3029525z M33.0427322,29.5363503l1.6010132-1.5771484   c0.3945313,0.3937988,5.5343018,5.5239258,5.4306641,5.4208984l-1.7436523,1.7177734l-5.4257202-5.4257813L33.0427322,29.5363503z    M18.1925735,23.5402565c-0.4311523-0.4316406-1-0.6689453-1.6020508-0.6689453   c-0.2241211,0-0.4467773,0.0341797-0.6577139,0.0996094c-0.953125,0.2910156-1.9438477,0.4394531-2.9438477,0.4394531   c-2.6669922,0-5.1733398-1.0371094-7.0566406-2.9199219c-2.3139648-2.3144531-3.3208008-5.5263662-2.7998047-8.6816397   l3.2158203,3.2158203c0.215332,0.2158203,0.5205078,0.3242188,0.8203125,0.2861328l6.1401367-0.7001953   c0.4619141-0.0527344,0.8266602-0.4169922,0.8798828-0.8789063l0.7099609-6.1503906   c0.0351563-0.3027344-0.0698242-0.6044922-0.2851563-0.8203125L11.40693,3.5470932   c3.0644531-0.4941406,6.2960196,0.4318848,8.6616201,2.7968752c2.6225586,2.6230469,3.5732422,6.4580078,2.4838867,9.999999   c-0.25,0.7851563-0.027832,1.6767578,0.5664063,2.2705078l9.0166016,9.0078125l-0.6484375,0.6396484l-0.3598633-0.3564453   c-0.5703735-0.578125-1.3594971-0.8676758-2.1500854-0.8685303c-0.5928345-0.0006104-1.1864624,0.1610107-1.6893311,0.4852295   c-0.1676025,0.1081543-0.3251343,0.2342529-0.4691772,0.378418l-2.1333008,2.1328125L18.1925735,23.5402565z    M35.8395462,42.5988503c-0.0079346,0.0079346-0.0107422,0.0192871-0.0183716,0.0273438L13.7580042,64.6799088   c-0.3955078,0.3955078-1.0791016,0.3964844-1.4755859,0l-8.9697266-8.9697304   c-0.4101563-0.4101563-0.4094238-1.0661621,0-1.4755859l24.9204102-24.9199219   c0.394043-0.3935547,1.0742188-0.4052734,1.4785156,0.0039063l0.0004272,0.0004883l8.972229,8.9604492   c0.4038086,0.4101563,0.4038086,1.0751953,0.0053711,1.4794922L35.8395462,42.5988503z M49.3883743,44.8742409   c0.5859375,0.5869141,1.5097656,0.8076172,2.2490234,0.5693359c0.9560547-0.2910156,1.9492188-0.4394531,2.9501953-0.4394531   c2.6699219,0,5.1772461,1.0371094,7.0620117,2.9208984c2.2822266,2.2753906,3.3022461,5.5410156,2.7978516,8.6699219   l-3.2148438-3.2148438c-0.215332-0.2158203-0.5195313-0.3261719-0.8217773-0.2861328l-6.1401367,0.7099609   c-0.4614258,0.0527344-0.8251953,0.4169922-0.878418,0.8779297l-0.7099609,6.140625   c-0.0351563,0.3037109,0.0698242,0.6054688,0.2851563,0.8212891l3.2133789,3.2207069   c-0.5253906,0.0839844-1.0581055,0.1259766-1.5947266,0.1259766c-2.6782227,0-5.1938477-1.0400429-7.0834961-2.9296913   c-2.6191406-2.6201172-3.5664063-6.4511719-2.4663086-10.015625c0.2294922-0.7949219,0.0058594-1.6552734-0.5839844-2.2451172   l-6.4912109-6.4921875l2.1459961-2.1386719c0.2922363-0.2958984,0.5114136-0.6381836,0.6574707-1.0039063   c0.3166504-0.7927246,0.2772827-1.6901855-0.0941772-2.4660645c-0.1426392-0.2980957-0.3238525-0.5822754-0.5681763-0.829834   l-0.1864014-0.1862793l-0.1709595-0.1711426l0.6455078-0.6357422L49.3883743,44.8742409z M62.9723587,9.3088121   l-3.7119141,1.4560547c-0.1293945,0.0498047-0.2460938,0.1269531-0.3442383,0.2255859L39.7595901,30.2402077l-1.8942871-1.8903809   L57.0270462,9.0929918c0.0966797-0.0966797,0.171875-0.2128906,0.222168-0.3398438l1.4550781-3.7128906l3.7871094-1.8212893   l2.3037109,2.3027346L62.9723587,9.3088121z"></path><path d="M33.644722,37.4826393L11.4821253,59.6457253c-0.390625,0.390625-0.390625,1.0234375,0,1.4140625   s1.0234375,0.390625,1.4140625,0l22.1625977-22.1630859c0.390625-0.390625,0.390625-1.0234375,0-1.4140625   S34.035347,37.0920143,33.644722,37.4826393z"></path><path d="M30.5119095,32.9357643c-0.390625-0.390625-1.0234375-0.390625-1.4140625,0L6.9352503,55.0988503   c-0.390625,0.390625-0.390625,1.0234375,0,1.4140625s1.0234375,0.390625,1.4140625,0l22.1625977-22.1630859   C30.9025345,33.9592018,30.9025345,33.3263893,30.5119095,32.9357643z"></path></g></svg>