<svg height='100px' width='100px'  fill="#000000" xmlns="http://www.w3.org/2000/svg" xmlns:xlink="http://www.w3.org/1999/xlink" version="1.1" x="0px" y="0px" viewBox="11.457 11.435 489.089 489.13" style="enable-background:new 11.457 11.435 489.089 489.13;" xml:space="preserve"><g><path d="M326.521,179.454H185.458c-3.313,0-6,2.687-6,6v141.071c0,3.313,2.687,6,6,6h141.063c3.313,0,6-2.687,6-6V185.454   C332.521,182.141,329.835,179.454,326.521,179.454z M320.521,320.525H191.458V191.454h129.063V320.525z"></path><path d="M484.13,299.91c-6.929,0-12.854,4.325-15.255,10.412h-10.95l-12.288-12.303c-1.125-1.127-2.652-1.76-4.245-1.76h-44.696   v-4.056c0-3.313-2.687-6-6-6h-16.749v-14.162h16.749c3.313,0,6-2.687,6-6v-4.051h66.985c2.402,6.099,8.334,10.433,15.27,10.433   c9.068,0,16.445-7.372,16.445-16.433c0-9.049-7.377-16.411-16.445-16.411c-6.934,0-12.864,4.324-15.268,10.411h-66.988v-4.054   c0-3.313-2.687-6-6-6h-16.749v-14.158h16.749c3.313,0,6-2.687,6-6v-4.056h44.696c1.593,0,3.12-0.633,4.245-1.76l12.288-12.302   h10.949c2.401,6.089,8.327,10.416,15.256,10.416c9.052,0,16.416-7.364,16.416-16.416c0-9.049-7.364-16.411-16.416-16.411   c-6.928,0-12.854,4.324-15.255,10.411h-13.437c-1.593,0-3.12,0.633-4.245,1.76l-12.288,12.302h-42.209v-4.046c0-3.313-2.687-6-6-6   h-16.749v-14.162h16.443c3.313,0,6-2.687,6-6v-4.056h27.316c2.399,6.101,8.327,10.437,15.259,10.437   c9.049,0,16.411-7.374,16.411-16.437c0-9.044-7.361-16.405-16.411-16.407c-6.928,0-12.853,4.323-15.255,10.407h-27.32v-4.05   c0-3.313-2.687-6-6-6h-16.443v-3.352c0-3.313-2.687-6-6-6h-3.396V121.29c0-3.313-2.687-6-6-6h-4.029V90.98   c6.086-2.402,10.409-8.329,10.409-15.259c0-9.047-7.361-16.407-16.409-16.407c-9.047,0-16.407,7.36-16.407,16.407   c0,6.929,4.323,12.856,10.407,15.258v24.31h-4.068c-3.313,0-6,2.687-6,6v16.767h-14.122V121.29c0-3.313-2.687-6-6-6h-4.078V73.099   l12.327-12.304c1.128-1.125,1.762-2.653,1.762-4.247V43.11c6.086-2.402,10.41-8.329,10.41-15.259   c0-9.052-7.361-16.416-16.41-16.416c-9.047,0-16.407,7.364-16.407,16.416c0,6.93,4.323,12.856,10.407,15.259v10.949l-12.327,12.304   c-1.128,1.125-1.762,2.653-1.762,4.247v44.68h-4.068c-3.313,0-6,2.687-6,6v16.767h-14.117V121.29c0-3.313-2.687-6-6-6h-4.076   V48.275c6.088-2.402,10.413-8.329,10.413-15.259c0-9.049-7.363-16.411-16.413-16.411c-9.05,0-16.413,7.362-16.413,16.411   c0,6.93,4.325,12.857,10.413,15.259v67.015h-4.037c-3.313,0-6,2.687-6,6v16.767h-14.156V121.29c0-3.313-2.687-6-6-6h-4.072V70.61   c0-1.593-0.633-3.121-1.761-4.246L201.641,54.06V43.111c6.088-2.402,10.414-8.329,10.414-15.26c0-9.052-7.363-16.416-16.414-16.416   c-9.049,0-16.411,7.364-16.411,16.416c0,6.93,4.324,12.857,10.411,15.26v13.437c0,1.593,0.633,3.121,1.761,4.246l12.324,12.304   v42.192h-4.032c-3.313,0-6,2.687-6,6v16.767h-14.162v-16.468c0-3.313-2.687-6-6-6h-4.071V88.275   c6.088-2.402,10.414-8.331,10.414-15.264c0-9.059-7.363-16.428-16.414-16.428c-9.049,0-16.411,7.37-16.411,16.428   c0,6.932,4.324,12.861,10.411,15.264v27.314h-4.067c-3.313,0-6,2.687-6,6v16.468h-3.352c-3.313,0-6,2.687-6,6v3.352h-16.757   c-3.313,0-6,2.687-6,6v4.05H91.024c-2.4-6.097-8.329-10.429-15.261-10.429c-9.071,0-16.45,7.37-16.45,16.429   c0,4.393,1.717,8.52,4.836,11.621c3.106,3.089,7.23,4.79,11.611,4.79c0.001,0,0.002,0,0.003,0c6.93,0,12.857-4.324,15.259-10.411   h24.264v4.056c0,3.313,2.687,6,6,6h16.757v14.162h-16.757c-3.313,0-6,2.687-6,6v4.046H73.097L60.81,191.421   c-1.125-1.126-2.652-1.76-4.245-1.76H43.131c-2.4-6.096-8.328-10.428-15.259-10.428c-9.051,0-16.414,7.37-16.414,16.428   c0,9.05,7.363,16.415,16.414,16.416c6.93,0,12.857-4.327,15.258-10.416h10.949l12.287,12.302c1.125,1.126,2.652,1.76,4.245,1.76   h44.675v4.056c0,3.313,2.687,6,6,6h16.757v14.158h-16.757c-3.313,0-6,2.687-6,6v4.054H48.317   c-2.401-6.096-8.33-10.428-15.263-10.428c-9.071,0-16.45,7.37-16.45,16.428c0,9.052,7.379,16.415,16.45,16.415   c6.931,0,12.859-4.326,15.261-10.415h66.97v4.051c0,3.313,2.687,6,6,6h16.757v14.162h-16.757c-3.313,0-6,2.687-6,6v4.056H70.61   c-1.593,0-3.12,0.633-4.245,1.76l-12.287,12.303H43.128c-2.402-6.087-8.328-10.412-15.257-10.412   c-9.051,0-16.414,7.362-16.414,16.412c0,9.049,7.363,16.41,16.414,16.41c6.929,0,12.855-4.324,15.257-10.41h13.437   c1.593,0,3.12-0.633,4.245-1.76l12.287-12.303h42.188v4.046c0,3.313,2.687,6,6,6h16.757v14.163h-16.451c-3.313,0-6,2.687-6,6v4.051   H88.294c-2.402-6.087-8.33-10.411-15.261-10.411c-9.07,0-16.448,7.362-16.448,16.411s7.378,16.41,16.448,16.41   c6.931,0,12.858-4.324,15.261-10.41h27.297v4.055c0,3.313,2.687,6,6,6h16.451v3.352c0,3.313,2.687,6,6,6h3.388v16.772   c0,3.313,2.687,6,6,6h4.031v24.305c-6.087,2.401-10.411,8.327-10.411,15.255c0,9.049,7.362,16.411,16.411,16.411   c9.051,0,16.414-7.362,16.414-16.411c0-6.929-4.326-12.854-10.414-15.255v-24.304h4.071c3.313,0,6-2.687,6-6v-16.772h14.162v16.772   c0,3.313,2.687,6,6,6h4.032v42.186l-12.324,12.305c-1.127,1.126-1.761,2.653-1.761,4.246v13.437   c-6.087,2.403-10.411,8.332-10.411,15.264c0,9.06,7.362,16.43,16.411,16.43c9.051,0,16.414-7.37,16.414-16.43   c0-6.933-4.326-12.862-10.414-15.264v-10.948l12.324-12.305c1.127-1.126,1.761-2.653,1.761-4.246v-44.674h4.072   c3.313,0,6-2.687,6-6v-16.772h14.156v16.772c0,3.313,2.687,6,6,6h4.037v67.008c-6.088,2.402-10.413,8.33-10.413,15.26   c0,9.052,7.363,16.415,16.413,16.415c9.05,0,16.413-7.363,16.413-16.415c0-6.93-4.325-12.858-10.413-15.26v-67.008h4.076   c3.313,0,6-2.687,6-6v-16.772h14.117v16.772c0,3.313,2.687,6,6,6h4.068v44.674c0,1.593,0.634,3.121,1.762,4.247l12.327,12.304   v10.949c-6.084,2.403-10.407,8.332-10.407,15.263c0,9.06,7.36,16.43,16.407,16.43c9.049,0,16.41-7.37,16.41-16.43   c0-6.932-4.324-12.861-10.41-15.264v-13.437c0-1.593-0.634-3.121-1.762-4.247l-12.327-12.304v-42.186h4.078c3.313,0,6-2.687,6-6   v-16.772h14.157v16.473c0,3.313,2.687,6,6,6h4.033v27.316c-6.084,2.405-10.407,8.338-10.407,15.275   c0,9.047,7.36,16.407,16.407,16.407c4.384,0,8.506-1.71,11.606-4.814c3.098-3.101,4.804-7.219,4.803-11.593   c0-6.937-4.324-12.87-10.409-15.276v-27.315h4.071c3.313,0,6-2.687,6-6v-16.473h3.354c3.313,0,6-2.687,6-6v-3.352h16.749   c3.313,0,6-2.687,6-6v-4.055h24.281c2.401,6.096,8.331,10.429,15.265,10.429c9.068,0,16.445-7.37,16.445-16.429   c0-4.381-1.715-8.503-4.827-11.606c-3.108-3.099-7.233-4.805-11.615-4.805c-0.001,0-0.002,0-0.003,0   c-6.932,0-12.86,4.325-15.263,10.411h-24.284v-4.051c0-3.313-2.687-6-6-6h-16.749v-14.163h16.749c3.313,0,6-2.687,6-6v-4.046   h42.209l12.288,12.303c1.125,1.127,2.652,1.76,4.245,1.76h13.435c2.4,6.096,8.327,10.428,15.257,10.428   c9.052,0,16.416-7.369,16.416-16.428C500.546,307.272,493.182,299.91,484.13,299.91z M478.951,251.58   c2.451,0,4.445,1.979,4.445,4.411c0,2.444-1.994,4.433-4.445,4.433c-2.438,0-4.42-1.988-4.42-4.433   C474.531,253.559,476.514,251.58,478.951,251.58z M374.24,251.937h10.455v8.105H374.24V251.937z M484.13,191.25   c2.435,0,4.416,1.979,4.416,4.411c0,2.435-1.981,4.416-4.416,4.416c-2.43,0-4.406-1.981-4.406-4.416   C479.724,193.229,481.7,191.25,484.13,191.25z M374.24,205.677h10.455v8.102H374.24V205.677z M438.963,159.052   c2.434,0,4.413,1.978,4.413,4.407c0,2.447-1.979,4.437-4.411,4.437c-2.43,0-4.407-1.99-4.407-4.437   C434.558,161.029,436.535,159.052,438.963,159.052z M348.521,71.314c2.432,0,4.409,1.977,4.409,4.407   c0,2.432-1.978,4.411-4.409,4.411c-2.43,0-4.407-1.979-4.407-4.411C344.114,73.291,346.092,71.314,348.521,71.314z M352.551,127.29   v10.463h-8.098V127.29H352.551z M316.342,23.435c2.432,0,4.41,1.981,4.41,4.416c0,2.43-1.975,4.407-4.404,4.41   c-0.002,0-0.004,0-0.006,0s-0.004,0-0.006,0c-2.427-0.004-4.401-1.981-4.401-4.41C311.935,25.416,313.912,23.435,316.342,23.435z    M306.331,127.29v10.463h-8.146V127.29H306.331z M255.991,28.605c2.434,0,4.413,1.979,4.413,4.411s-1.979,4.411-4.413,4.411   s-4.413-1.979-4.413-4.411S253.558,28.605,255.991,28.605z M260.067,127.29v10.463h-8.113V127.29H260.067z M195.641,23.435   c2.434,0,4.414,1.981,4.414,4.416c0,2.43-1.977,4.407-4.408,4.41c-0.002,0-0.004,0-0.006,0s-0.004,0-0.006,0   c-2.429-0.004-4.405-1.981-4.405-4.41C191.23,25.416,193.209,23.435,195.641,23.435z M213.798,127.29v10.463h-8.104V127.29H213.798   z M163.461,68.583c2.434,0,4.414,1.986,4.414,4.428c0,2.435-1.98,4.416-4.414,4.416c-2.432,0-4.411-1.981-4.411-4.416   C159.05,70.569,161.029,68.583,163.461,68.583z M167.532,127.589v10.467h-8.138v-10.467H167.532z M75.761,167.87   C75.761,167.87,75.761,167.87,75.761,167.87c-1.19,0-2.31-0.461-3.151-1.299c-0.837-0.832-1.298-1.938-1.298-3.112   c0-2.442,1.997-4.429,4.45-4.429c2.432,0,4.411,1.987,4.411,4.429C80.173,165.891,78.194,167.87,75.761,167.87z M137.735,167.515   h-10.45v-8.106h10.45V167.515z M27.872,200.077c-2.435,0-4.415-1.981-4.415-4.416c0-2.442,1.98-4.428,4.414-4.428   c2.429,0,4.404,1.983,4.408,4.422c0,0.002,0,0.004,0,0.006s0,0.004,0,0.006C32.276,198.1,30.3,200.077,27.872,200.077z    M137.735,213.779h-10.45v-8.102h10.45V213.779z M33.054,260.406c-2.454,0-4.45-1.98-4.45-4.415c0-2.442,1.997-4.428,4.45-4.428   c2.433,0,4.413,1.986,4.413,4.428C37.467,258.426,35.487,260.406,33.054,260.406z M137.735,260.042h-10.45v-8.105h10.45V260.042z    M27.871,320.732c-2.434,0-4.414-1.979-4.414-4.41c0-2.433,1.98-4.412,4.414-4.412c2.429,0,4.404,1.976,4.408,4.406   c0,0.002,0,0.004,0,0.006s0,0.004,0,0.006C32.276,318.757,30.3,320.732,27.871,320.732z M137.735,306.306h-10.45v-8.102h10.45   V306.306z M73.033,352.93c-2.453,0-4.448-1.979-4.448-4.41c0-2.433,1.996-4.411,4.448-4.411c2.433,0,4.413,1.979,4.413,4.411   C77.446,350.951,75.466,352.93,73.033,352.93z M138.041,352.574h-10.45v-8.105h10.45V352.574z M163.461,440.669   c-2.432,0-4.411-1.979-4.411-4.411c0-2.43,1.979-4.406,4.411-4.406c2.434,0,4.414,1.977,4.414,4.406   C167.875,438.69,165.895,440.669,163.461,440.669z M163.461,384.697c-0.007,0-0.013,0.001-0.019,0.001h-4.011v-10.473h8.102v10.473   h-4.052C163.474,384.698,163.467,384.697,163.461,384.697z M195.641,488.565c-2.432,0-4.411-1.987-4.411-4.43   c0-2.432,1.976-4.412,4.405-4.415c0.002,0,0.004,0,0.006,0s0.004,0,0.006,0c2.431,0.004,4.408,1.983,4.408,4.415   C200.055,486.578,198.075,488.565,195.641,488.565z M209.726,384.697c-0.007,0-0.013,0.001-0.019,0.001h-4.013v-10.473h8.104   v10.473h-4.052C209.739,384.698,209.733,384.697,209.726,384.697z M255.991,483.381c-2.434,0-4.413-1.98-4.413-4.415   c0-2.433,1.979-4.411,4.413-4.411s4.413,1.979,4.413,4.411C260.404,481.4,258.425,483.381,255.991,483.381z M255.991,384.697   c-0.007,0-0.013,0.001-0.019,0.001h-4.018v-10.473h8.113v10.473h-4.057C256.004,384.698,255.998,384.697,255.991,384.697z    M316.342,488.565c-2.43,0-4.407-1.987-4.407-4.43c0-2.432,1.974-4.412,4.401-4.415c0.002,0,0.004,0,0.006,0s0.004,0,0.006,0   c2.429,0.004,4.404,1.983,4.404,4.415C320.752,486.578,318.773,488.565,316.342,488.565z M302.253,384.697   c-0.007,0-0.013,0.001-0.019,0.001h-4.049v-10.473h8.146v10.473h-4.059C302.266,384.698,302.259,384.697,302.253,384.697z    M351.639,442.102c-0.834,0.835-1.941,1.295-3.117,1.295c-2.43,0-4.407-1.978-4.407-4.407c0-2.442,1.978-4.429,4.407-4.429   c2.432,0,4.409,1.986,4.409,4.43C352.931,440.162,352.472,441.267,351.639,442.102z M436.243,344.108L436.243,344.108   c1.186,0,2.302,0.463,3.145,1.303c0.838,0.836,1.3,1.939,1.3,3.108c0,2.442-1.994,4.429-4.445,4.429   c-2.435,0-4.415-1.986-4.415-4.429C431.827,346.087,433.808,344.108,436.243,344.108z M374.24,344.469h10.455v8.105H374.24V344.469   z M150.042,361.926V150.057h211.904v3.333c0,0.007-0.001,0.013-0.001,0.019v20.106c0,0.007,0.001,0.013,0.001,0.019v188.391h-3.354   h-20.104H150.042z M384.39,159.409v8.106h-10.443v-8.106H384.39z M352.593,384.398h-4.052c-0.007,0-0.013-0.001-0.019-0.001   s-0.013,0.001-0.019,0.001h-4.014v-10.473h8.104V384.398z M384.695,306.306H374.24v-8.102h10.455V306.306z M484.13,320.75   c-2.43,0-4.406-1.986-4.406-4.428c0-2.433,1.977-4.412,4.406-4.412c2.435,0,4.416,1.979,4.416,4.412   C488.546,318.764,486.564,320.75,484.13,320.75z"></path></g></svg>