<svg height='100px' width='100px'  fill="#000000" xmlns:dc="http://purl.org/dc/elements/1.1/" xmlns:cc="http://creativecommons.org/ns#" xmlns:rdf="http://www.w3.org/1999/02/22-rdf-syntax-ns#" xmlns:svg="http://www.w3.org/2000/svg" xmlns="http://www.w3.org/2000/svg" xmlns:sodipodi="http://sodipodi.sourceforge.net/DTD/sodipodi-0.dtd" xmlns:inkscape="http://www.inkscape.org/namespaces/inkscape" version="1.1" x="0px" y="0px" viewBox="0 0 100 100"><g transform="translate(0,-952.36218)"><path style="text-indent:0;text-transform:none;direction:ltr;block-progression:tb;baseline-shift:baseline;color:#000000;enable-background:accumulate;" d="m 49.9375,959.36296 a 3.0003,3.0002728 0 0 0 -1.0625,0.21875 l -40,15.99985 A 3.0003,3.0002728 0 0 0 7,978.36279 l 0,47.99961 a 3.0003,3.0002728 0 0 0 1.875,2.7812 l 40,15.9998 a 3.0003,3.0002728 0 0 0 2.25,0 l 40,-15.9998 A 3.0003,3.0002728 0 0 0 93,1026.3624 l 0,-47.99961 a 3.0003,3.0002728 0 0 0 -1.875,-2.78123 l -40,-15.99985 a 3.0003,3.0002728 0 0 0 -1.1875,-0.21875 z m 0.0625,6.21869 37,14.81237 0,27.93728 -37,14.7811 -37,-14.7811 0,-27.93728 37,-14.81237 z m 0,11.78115 c -5.844031,0 -11.193757,1.72169 -15.21875,4.68745 C 30.756257,985.01602 28,989.39651 28,994.36264 c 0,4.96614 2.756257,9.34666 6.78125,12.31236 4.024993,2.9658 9.374719,4.6875 15.21875,4.6875 5.84403,0 11.193757,-1.7217 15.21875,-4.6875 C 69.243743,1003.7093 72,999.32878 72,994.36264 72,989.39651 69.243743,985.01602 65.21875,982.05025 61.193757,979.08449 55.844031,977.3628 50,977.3628 z m 0,5.99994 c 4.649374,0 8.804594,1.39877 11.65625,3.49997 2.851656,2.1012 4.34375,4.73413 4.34375,7.49993 0,0.40801 -0.02923,0.81896 -0.09375,1.21874 -4.076016,-3.31196 -9.722801,-5.2187 -15.90625,-5.2187 -6.18345,0 -11.830234,1.90674 -15.90625,5.2187 C 34.029235,995.1816 34,994.77065 34,994.36264 c 0,-2.7658 1.492094,-5.39873 4.34375,-7.49993 2.851656,-2.1012 7.006875,-3.49997 11.65625,-3.49997 z m 0,12.99988 c 5.343469,0 10.00504,1.8751 12.84375,4.46868 -0.370695,0.342 -0.753296,0.6801 -1.1875,1 -2.851656,2.1012 -7.006875,3.5312 -11.65625,3.5312 -4.649375,0 -8.804594,-1.43 -11.65625,-3.5312 -0.434204,-0.3199 -0.816805,-0.658 -1.1875,-1 2.83871,-2.59357 7.500282,-4.46868 12.84375,-4.46868 z m -37,18.40608 34,13.6249 0,9.5624 -34,-13.6249 0,-9.5624 z m 74,0 0,9.5624 -34,13.6249 0,-9.5624 34,-13.6249 z" fill="#000000" fill-opacity="1" stroke="none" marker="none" visibility="visible" display="inline" overflow="visible"></path></g></svg>