<svg height='100px' width='100px'  fill="#000000" xmlns="http://www.w3.org/2000/svg" xmlns:xlink="http://www.w3.org/1999/xlink" version="1.1" x="0px" y="0px" viewBox="0 0 64 64" style="enable-background:new 0 0 64 64;" xml:space="preserve"><g><path d="M32,37c1.654,0,3-1.346,3-3s-1.346-3-3-3s-3,1.346-3,3S30.346,37,32,37z M32,33c0.551,0,1,0.448,1,1s-0.449,1-1,1   s-1-0.448-1-1S31.449,33,32,33z"></path><path d="M60.991,14.908l-0.004-0.004C62.23,13.64,63,11.909,63,10c0-3.86-3.14-7-7-7H23V1h-8v3.356C13.349,2.312,10.826,1,8,1H1v6   h7c1.654,0,3,1.346,3,3s-1.346,3-3,3H1v6h7c2.826,0,5.349-1.312,7-3.356V19h8v-2h16.101L27.05,29.05l0.002,0.002   C25.785,30.32,25,32.07,25,34v20h-2v4c0,1.103-0.897,2-2,2v2h22v-2c-1.103,0-2-0.897-2-2v-4h-2V36.899L60.991,14.908z M61,10   c0,2.757-2.243,5-5,5s-5-2.243-5-5s2.243-5,5-5S61,7.243,61,10z M8,17H3v-2h5c2.757,0,5-2.243,5-5s-2.243-5-5-5H3V3h5   c3.86,0,7,3.14,7,7S11.86,17,8,17z M23,15V9h-2v8h-4V3h4v4h2V5h28.11c-0.005,0.005-0.01,0.008-0.014,0.013l-0.004-0.004L41.101,15   H23z M41.929,17H42v-0.071l7.004-7.004C49.004,9.95,49,9.975,49,10c0,3.86,3.14,7,7,7c0.025,0,0.05-0.004,0.075-0.004L39,34.071V34   c0-3.86-3.14-7-7-7c-0.025,0-0.05,0.004-0.075,0.004L41.929,17z M32,29c2.757,0,5,2.243,5,5s-2.243,5-5,5s-5-2.243-5-5   S29.243,29,32,29z M35,54v2h4v2c0,0.728,0.195,1.411,0.537,2H24.463C24.805,59.411,25,58.728,25,58v-2h8v-2h-6V38.889   C28.272,40.19,30.042,41,32,41s3.728-0.81,5-2.111V54H35z"></path><path d="M56,13c1.654,0,3-1.346,3-3s-1.346-3-3-3s-3,1.346-3,3S54.346,13,56,13z M56,9c0.551,0,1,0.449,1,1s-0.449,1-1,1   s-1-0.449-1-1S55.449,9,56,9z"></path><rect x="37.722" y="22.5" transform="matrix(0.7071 -0.7071 0.7071 0.7071 -3.2904 39.0564)" width="15.556" height="2"></rect><rect x="25" y="7" width="19" height="2"></rect><rect x="33" y="43" width="2" height="9"></rect></g></svg>