<svg height='100px' width='100px'  fill="#000000" xmlns="http://www.w3.org/2000/svg" xmlns:xlink="http://www.w3.org/1999/xlink" version="1.1" x="0px" y="0px" viewBox="0 0 66 66" enable-background="new 0 0 66 66" xml:space="preserve"><g><g><path d="M45.9,44c0,2.1,1.7,3.9,3.9,3.9c2.1,0,3.9-1.7,3.9-3.9c0-2.1-1.7-3.9-3.9-3.9C47.6,40.1,45.9,41.8,45.9,44z M51.6,44    c0,1-0.8,1.9-1.9,1.9c-1,0-1.9-0.8-1.9-1.9s0.8-1.9,1.9-1.9C50.8,42.1,51.6,42.9,51.6,44z"></path></g><g><path d="M31.2,52.1h8.7c0.6,0,1-0.4,1-1c0-0.6-0.4-1-1-1h-8.7c-0.6,0-1,0.4-1,1C30.2,51.7,30.7,52.1,31.2,52.1z"></path></g><g><path d="M27.2,52.1h1c0.6,0,1-0.4,1-1c0-0.6-0.4-1-1-1h-1c-0.6,0-1,0.4-1,1C26.2,51.7,26.7,52.1,27.2,52.1z"></path></g><g><path d="M65,13.4c0-3.1-2.5-5.6-5.6-5.6h-18V5c0-1.6-1.3-2.8-2.8-2.8H21.1c-1.6,0-2.8,1.3-2.8,2.8v16.7c0,1.6,1.3,2.8,2.8,2.8h5.6    v11c0,0.6,0.4,1,1,1h4.2c0.6,0,1-0.4,1-1v-11h5.6c1.6,0,2.8-1.3,2.8-2.8V19h9.1L40.4,33.2c-1.7,2.4-0.9,5.8,1.8,7.2    c-0.2,0.6-0.3,1.3-0.3,1.9V43H18.8c-0.3,0-0.6,0.2-0.8,0.4l-6.3,8.7c-0.1,0.2-0.2,0.4-0.2,0.6v4.6H2c-0.6,0-1,0.4-1,1v4.6    c0,0.6,0.4,1,1,1h59.5c0.6,0,1-0.4,1-1v-4.6c0-0.6-0.4-1-1-1h-3.9V42.4c0-3.8-2.7-7-6.3-7.7c8.4-12.4,10.4-13.5,10.3-16.2    C63.7,17.6,65,15.6,65,13.4z M30.9,34.6h-2.2v-10h2.2V34.6z M39.3,21.7c0,0.5-0.4,0.8-0.8,0.8c-6,0-11.4,0-17.3,0    c-0.5,0-0.8-0.4-0.8-0.8V5c0-0.5,0.4-0.8,0.8-0.8h17.3c0.5,0,0.8,0.4,0.8,0.8v2.7h-4.9c-3.1,0-5.6,2.5-5.6,5.6    c0,3.1,2.5,5.6,5.6,5.6h4.9V21.7z M41.9,53.3h-18v-4.4h18V53.3z M13.5,53l5.8-8h22.6v1.9h-19c-0.6,0-1,0.4-1,1v6.4    c0,0.6,0.4,1,1,1h19v1.9H13.5V53z M60.5,61.8H3v-2.6h57.5V61.8z M55.6,42.4v14.8H43.9c0-0.1,0-14.9,0-14.8c0-3.2,2.6-5.9,5.9-5.9    S55.6,39.2,55.6,42.4z M49.3,34.2c-0.1,0.1-0.1,0.2-0.1,0.4c-2.7,0.2-5,1.8-6.2,4c-1.6-0.9-1.9-2.8-0.9-4.2L54.3,17    c1.5-2.1,4.8-1.4,5.3,1.2C60,20.4,58.3,20.8,49.3,34.2z M61.1,16.5c-1.6-3.3-6.3-3.8-8.4-0.7L51.9,17H34.5c-2,0-3.6-1.6-3.6-3.6    c0-2,1.6-3.6,3.6-3.6c8.6,0,16,0,24.9,0c2,0,3.6,1.6,3.6,3.6C63,14.7,62.3,15.9,61.1,16.5z"></path></g><g><path d="M53.1,22L49,27.8c-0.3,0.4-0.2,1.1,0.2,1.4c0.4,0.3,1.1,0.2,1.4-0.2l4.1-5.8c0.3-0.4,0.2-1.1-0.2-1.4    C54,21.5,53.4,21.6,53.1,22z"></path></g></g></svg>