<svg xmlns="http://www.w3.org/2000/svg" viewBox="0 0 96 96" x="0px" y="0px"><title>Emoticon</title><g data-name="Artboard 2"><path fill="#000000" d="M48,91.21A43.21,43.21,0,1,1,91.21,48,43.26,43.26,0,0,1,48,91.21ZM48,10.8A37.21,37.21,0,1,0,85.21,48,37.25,37.25,0,0,0,48,10.8ZM65.24,72.06a3,3,0,0,0,1.1-4.1,21.19,21.19,0,0,0-36.68,0,3,3,0,0,0,5.2,3,15.18,15.18,0,0,1,26.29,0,3,3,0,0,0,4.09,1.09Zm-29-34a4.5,4.5,0,1,0-4.5,4.49A4.49,4.49,0,0,0,36.21,38.08Zm32.58,0a4.5,4.5,0,1,0-4.5,4.49A4.5,4.5,0,0,0,68.79,38.08Z"></path></g></svg>