<svg xmlns="http://www.w3.org/2000/svg" viewBox="0 0 96 96" x="0px" y="0px"><title>Emoticon</title><g data-name="Artboard 1"><path fill="#000000" d="M48,91.21A43.21,43.21,0,1,1,91.2,48,43.25,43.25,0,0,1,48,91.21ZM48,10.8A37.21,37.21,0,1,0,85.2,48,37.25,37.25,0,0,0,48,10.8ZM66.34,61.88a3,3,0,0,0-5.2-3,15.19,15.19,0,0,1-26.29,0,3,3,0,0,0-5.19,3,21.19,21.19,0,0,0,36.68,0ZM36.21,38.08a4.5,4.5,0,1,0-4.5,4.49A4.5,4.5,0,0,0,36.21,38.08Zm32.57,0a4.5,4.5,0,1,0-4.5,4.49A4.49,4.49,0,0,0,68.78,38.08Z"></path></g></svg>