<svg height='100px' width='100px'  fill="#000000" xmlns="http://www.w3.org/2000/svg" xmlns:xlink="http://www.w3.org/1999/xlink" version="1.1" x="0px" y="0px" viewBox="0 0 64 64" style="enable-background:new 0 0 64 64;" xml:space="preserve"><path d="M61,2H45c-0.553,0-1,0.448-1,1v22c0,0.552,0.447,1,1,1h7v2H41c-0.553,0-1,0.448-1,1v3h-7v-6h7c0.553,0,1-0.448,1-1V3  c0-0.552-0.447-1-1-1H24c-0.553,0-1,0.448-1,1v22c0,0.552,0.447,1,1,1h7v6h-7v-3c0-0.552-0.447-1-1-1H12v-2h7c0.553,0,1-0.448,1-1V3  c0-0.552-0.447-1-1-1H3C2.447,2,2,2.448,2,3v22c0,0.552,0.447,1,1,1h7v3c0,0.552,0.447,1,1,1h11v2h-5c-0.553,0-1,0.448-1,1v4  c0,0.414,0.255,0.785,0.641,0.934L29,42.687V52c0,0.404,0.243,0.769,0.617,0.924C29.741,52.975,29.871,53,30,53  c0.26,0,0.516-0.102,0.707-0.293l4-4C34.895,48.52,35,48.265,35,48v-5.313l12.359-4.753C47.745,37.785,48,37.414,48,37v-4  c0-0.552-0.447-1-1-1h-5v-2h11c0.553,0,1-0.448,1-1v-3h7c0.553,0,1-0.448,1-1V3C62,2.448,61.553,2,61,2z M25,4h14v20H25V4z M4,4h14  v20H4V4z M46,36.313l-12.359,4.753C33.255,41.215,33,41.586,33,42v5.586l-2,2V42c0-0.414-0.255-0.785-0.641-0.934L18,36.313V34h28  V36.313z M60,24H46V4h14V24z"></path><rect x="6" y="7" width="10" height="2"></rect><rect x="6" y="11" width="10" height="2"></rect><rect x="6" y="15" width="10" height="2"></rect><rect x="6" y="19" width="10" height="2"></rect><rect x="27" y="7" width="10" height="2"></rect><rect x="27" y="11" width="10" height="2"></rect><rect x="27" y="15" width="10" height="2"></rect><rect x="27" y="19" width="10" height="2"></rect><rect x="48" y="7" width="10" height="2"></rect><rect x="48" y="11" width="10" height="2"></rect><rect x="48" y="15" width="10" height="2"></rect><rect x="48" y="19" width="10" height="2"></rect><path d="M31,54v4.586l-1.293-1.293l-1.414,1.414l3,3C31.488,61.902,31.744,62,32,62s0.512-0.098,0.707-0.293l3-3l-1.414-1.414  L33,58.586V54H31z"></path></svg>