<svg height='100px' width='100px'  fill="#000000" xmlns="http://www.w3.org/2000/svg" xmlns:xlink="http://www.w3.org/1999/xlink" version="1.1" x="0px" y="0px" viewBox="0 0 48 48" enable-background="new 0 0 48 48" xml:space="preserve"><g><g><polyline fill="none" stroke="#000000" stroke-width="2" stroke-linecap="round" stroke-linejoin="round" stroke-miterlimit="10" points="    20.279,14.294 24.063,11.047 46.974,19.352 27.173,39.388 3.324,28.84 8.606,24.308   "></polyline><path fill="none" stroke="#000000" stroke-width="2" stroke-linecap="round" stroke-linejoin="round" stroke-miterlimit="10" d="    M3.324,28.84c-1.768,0.574-4.614,5.844,1.069,8.271C11.19,40.014,27.367,47,27.367,47L45.25,28.822"></path><path fill="none" stroke="#000000" stroke-width="2" stroke-linecap="round" stroke-linejoin="round" stroke-miterlimit="10" d="    M44.109,22.356c0,0-2.222,4.178,0.112,7.513"></path><path fill="none" stroke="#000000" stroke-width="2" stroke-linecap="round" stroke-linejoin="round" stroke-miterlimit="10" d="    M27.061,39.963c0,0-2.222,3.648,0.112,6.561"></path></g><path fill="none" stroke="#000000" stroke-width="2" stroke-linecap="round" stroke-linejoin="round" stroke-miterlimit="10" d="   M7.369,3.799c-0.277-3.475,6.689-2.912,8.594-2.463c2.619,0.618,4.421,2.391,6.662,3.735c3.754,2.252,8.788,3.428,13.153,3.298"></path><ellipse transform="matrix(0.9275 -0.3739 0.3739 0.9275 -4.7332 5.4784)" fill="none" stroke="#000000" stroke-width="2" stroke-linecap="round" stroke-linejoin="round" stroke-miterlimit="10" cx="11.754" cy="14.939" rx="8.164" ry="11.691"></ellipse><line fill="none" stroke="#000000" stroke-width="2" stroke-linecap="round" stroke-linejoin="round" stroke-miterlimit="10" x1="8.952" y1="7.986" x2="10.63" y2="12.15"></line></g></svg>