<svg height='100px' width='100px'  fill="#000000" xmlns:x="http://ns.adobe.com/Extensibility/1.0/" xmlns:i="http://ns.adobe.com/AdobeIllustrator/10.0/" xmlns:graph="http://ns.adobe.com/Graphs/1.0/" xmlns="http://www.w3.org/2000/svg" xmlns:xlink="http://www.w3.org/1999/xlink" version="1.1" x="0px" y="0px" viewBox="0 0 100 100" style="enable-background:new 0 0 100 100;" xml:space="preserve"><g><g i:extraneous="self"><g><path d="M47.2,82.6c0.4,0.4,0.9,0.5,1.3,0.5c0.5,0,1-0.2,1.3-0.5l6.7-6.5c0.8-0.7,0.8-1.9,0-2.7c-0.7-0.8-1.9-0.8-2.7,0l-5.3,5.2     l-2.4-2.4c-0.8-0.7-2-0.7-2.7,0c-0.7,0.8-0.7,2,0,2.7L47.2,82.6z"></path><path d="M55.5,18.9c-1-2-3-3.1-5.4-3.1c-3.9,0-5.7,2.7-6.1,5.3c0,0.3,0,0.6,0.3,0.9c0.2,0.2,0.5,0.4,0.8,0.4h1.4     c0.5,0,1-0.4,1.1-0.9c0.2-1.4,1.1-2.1,2.6-2.1c1.4,0,2,0.7,2.2,1.2c0.3,0.6,0.3,1.4-0.1,1.9c-0.4,0.6-0.8,0.8-1.3,1.2     c-1.2,0.8-2.2,1.7-2.4,4.2c0,0.3,0.1,0.6,0.3,0.8c0.2,0.2,0.5,0.4,0.8,0.4H51c0.6,0,1-0.4,1.1-1c0.1-0.9,0.3-1.1,0.9-1.5     c0.6-0.4,1.3-0.9,2.1-2C56.2,22.9,56.4,20.7,55.5,18.9L55.5,18.9z"></path><circle cx="50.3" cy="32.5" r="2.1"></circle><path d="M95.6,64.5h-9.9V53.1c0-1.1-0.9-1.9-1.9-1.9H51.9v-9.4h9.9c1.1,0,1.9-0.9,1.9-1.9V10.4c0-1.1-0.9-1.9-1.9-1.9H38.1     c-1.1,0-1.9,0.9-1.9,1.9V40c0,1.1,0.9,1.9,1.9,1.9h9.9v9.4H16.3c-1.1,0-1.9,0.9-1.9,1.9v11.3H4.4c-1.1,0-1.9,0.9-1.9,1.9v23.2     c0,1.1,0.9,1.9,1.9,1.9h23.7c1.1,0,1.9-0.9,1.9-1.9V66.4c0-1.1-0.9-1.9-1.9-1.9h-9.9v-9.4h29.9v9.4h-9.9c-1.1,0-1.9,0.9-1.9,1.9     v23.2c0,1.1,0.9,1.9,1.9,1.9h23.7c1.1,0,1.9-0.9,1.9-1.9V66.4c0-1.1-0.9-1.9-1.9-1.9h-9.9v-9.4h29.9v9.4h-9.9     c-1.1,0-1.9,0.9-1.9,1.9v23.2c0,1.1,0.9,1.9,1.9,1.9h23.7c1.1,0,1.9-0.9,1.9-1.9V66.4C97.5,65.3,96.6,64.5,95.6,64.5z M40.1,12.3     h19.9v25.8H40.1V12.3z M26.2,87.7H6.3V68.3h19.9V87.7z M59.9,87.7H40.1V68.3h19.9V87.7z M93.7,87.7H73.8V68.3h19.9V87.7z"></path><path d="M11.1,83.2c0.4,0.4,0.9,0.6,1.3,0.6s1-0.2,1.3-0.6l2.5-2.5l2.5,2.5c0.4,0.4,0.9,0.6,1.3,0.6s1-0.2,1.3-0.6     c0.7-0.7,0.7-1.9,0-2.7L18.9,78l2.5-2.5c0.7-0.7,0.7-1.9,0-2.7c-0.7-0.7-1.9-0.7-2.7,0l-2.5,2.5l-2.5-2.5c-0.7-0.7-1.9-0.7-2.7,0     c-0.7,0.7-0.7,1.9,0,2.7l2.5,2.5l-2.5,2.5C10.4,81.2,10.4,82.4,11.1,83.2z"></path><path d="M78.6,83.2c0.4,0.4,0.9,0.6,1.3,0.6c0.5,0,1-0.2,1.3-0.6l2.5-2.5l2.5,2.5c0.4,0.4,0.9,0.6,1.3,0.6s1-0.2,1.3-0.6     c0.7-0.7,0.7-1.9,0-2.7L86.4,78l2.5-2.5c0.7-0.7,0.7-1.9,0-2.7c-0.7-0.7-1.9-0.7-2.7,0l-2.5,2.5l-2.5-2.5c-0.7-0.7-1.9-0.7-2.7,0     c-0.7,0.7-0.7,1.9,0,2.7l2.5,2.5l-2.5,2.5C77.8,81.2,77.8,82.4,78.6,83.2z"></path></g></g></g></svg>