<svg height='100px' width='100px'  fill="#000000" xmlns="http://www.w3.org/2000/svg" xmlns:xlink="http://www.w3.org/1999/xlink" version="1.1" x="0px" y="0px" viewBox="0 0 96 96" enable-background="new 0 0 96 96" xml:space="preserve"><path d="M78.19,64.917l-0.776-0.038c-0.074-0.001-0.147-0.002-0.222-0.002h-1v0.043c-3.752,0.306-7.168,2.324-9.252,5.469  l-15.583-7.794l15.605-7.802c2.269,3.426,6.104,5.517,10.226,5.517c6.788,0,12.311-5.522,12.311-12.311s-5.522-12.311-12.311-12.311  c-4.122,0-7.959,2.092-10.229,5.52l-15.607-7.804l15.584-7.792c2.266,3.42,6.111,5.508,10.251,5.508  c6.789,0,12.312-5.522,12.312-12.311c0-6.788-5.522-12.311-12.31-12.311c-6.79,0-12.313,5.523-12.313,12.311  c0,1.391,0.246,2.771,0.731,4.114l-17.607,8.804l-17.61-8.805c0.485-1.34,0.731-2.719,0.731-4.112  c0-6.789-5.523-12.312-12.312-12.312c-6.788,0-12.31,5.523-12.31,12.312c0,6.453,4.989,11.763,11.312,12.273l0.842,0.039  c0.052,0,0.104,0.001,0.156,0.001h1v-0.042c3.751-0.306,7.167-2.325,9.251-5.469l15.584,7.792l-15.607,7.803  c-2.269-3.427-6.107-5.52-10.23-5.52c-6.786,0-12.307,5.522-12.307,12.31c0,6.788,5.523,12.311,12.311,12.311  c4.122,0,7.959-2.092,10.229-5.519l15.607,7.804l-15.584,7.792c-2.265-3.42-6.109-5.508-10.25-5.508  c-6.788,0-12.311,5.522-12.311,12.312s5.523,12.312,12.311,12.312c6.789,0,12.312-5.522,12.312-12.312  c0-1.392-0.246-2.771-0.731-4.114l17.609-8.803l17.608,8.805c-0.485,1.338-0.73,2.718-0.73,4.112  c0,6.789,5.523,12.312,12.313,12.312c6.787,0,12.31-5.522,12.31-12.312C89.502,70.737,84.513,65.427,78.19,64.917z M68.843,43.895  l0.028-0.057c1.592-3.176,4.78-5.149,8.319-5.149c5.133,0,9.309,4.176,9.309,9.31s-4.178,9.311-9.313,9.311  c-3.539,0-6.726-1.974-8.317-5.151c-0.658-1.313-0.992-2.711-0.992-4.158C67.878,46.572,68.203,45.191,68.843,43.895z M77.188,9.498  c5.134,0,9.311,4.177,9.311,9.311s-4.177,9.311-9.311,9.311c-3.542,0-6.729-1.974-8.333-5.176c-0.65-1.313-0.979-2.704-0.979-4.135  C67.876,13.675,72.054,9.498,77.188,9.498z M27.129,22.968c-1.593,3.179-4.781,5.154-8.319,5.154h-0.138  c-5.071-0.073-9.174-4.222-9.174-9.312c0-5.135,4.176-9.312,9.31-9.312c5.135,0,9.312,4.177,9.312,9.312  C28.12,20.258,27.787,21.657,27.129,22.968z M27.128,52.156l-0.022,0.047c-1.6,3.151-4.775,5.106-8.296,5.106  c-5.134,0-9.31-4.177-9.31-9.311c0-5.134,4.177-9.311,9.311-9.311c3.54,0,6.728,1.974,8.319,5.152  c0.658,1.313,0.992,2.712,0.992,4.158C28.12,49.445,27.786,50.845,27.128,52.156z M18.81,86.5c-5.134,0-9.31-4.177-9.31-9.312  s4.177-9.312,9.311-9.312c3.541,0,6.728,1.974,8.331,5.175c0.65,1.313,0.98,2.705,0.98,4.137C28.122,82.323,23.945,86.5,18.81,86.5z   M48,60.918l-17.596-8.799c0.476-1.324,0.716-2.705,0.716-4.12c0-1.415-0.241-2.797-0.716-4.121l17.595-8.797l17.595,8.798  c-0.476,1.324-0.716,2.706-0.716,4.12s0.24,2.797,0.717,4.121L48,60.918z M77.192,86.502c-5.135,0-9.313-4.177-9.313-9.312  c0-1.448,0.334-2.848,0.991-4.158c1.595-3.179,4.782-5.153,8.319-5.153h0.194c5.045,0.103,9.117,4.24,9.117,9.312  C86.502,82.325,82.326,86.502,77.192,86.502z"></path></svg>