<svg height='100px' width='100px'  fill="#000000" xmlns="http://www.w3.org/2000/svg" xmlns:xlink="http://www.w3.org/1999/xlink" version="1.1" x="0px" y="0px" viewBox="0 0 64 64" style="enable-background:new 0 0 64 64;" xml:space="preserve"><path d="M62.86,11.43H1.14C0.51,11.43,0,11.94,0,12.57v38.86c0,0.63,0.51,1.14,1.14,1.14h61.71c0.63,0,1.14-0.51,1.14-1.14V12.57  C64,11.94,63.49,11.43,62.86,11.43z M2.29,15.18l18.39,16.55L2.29,48.76V15.18z M32,38.86L4.08,13.71h55.85L32,38.86z M22.38,33.26  l8.85,7.97c0.43,0.39,1.09,0.39,1.52,0l8.68-7.82l18.9,16.87H4L22.38,33.26z M43.15,31.89l18.56-16.71v33.28L43.15,31.89z"></path></svg>