<svg height='100px' width='100px'  fill="#000000" xmlns="http://www.w3.org/2000/svg" data-name="Layer 1" viewBox="0 0 128 128" x="0px" y="0px"><title>USER INTERFACE final</title><path d="M112.2,39.53a2,2,0,0,0-2-1.61H99.63v4h8.94L113,63.84h-6.92l-.23.25-3.8,3.75h11.76l4.43,21.73H94.19L92.9,76.91l-3.68,3.63.92,9H66V73.41l-4,4V89.57H37.86L40,68.82l-4.51,4.44L33.81,89.57H9.72l4.43-21.73h8.8l4.05-4H15l4.47-21.92H30.54v-4H17.78a2.05,2.05,0,0,0-2,1.61L0,116.89a2.06,2.06,0,0,0,2,2.41H126a2,2,0,0,0,2-2.41Zm-81,75.76H4.47L8.9,93.57H33.4Zm30.79,0H35.24l2.21-21.72H62Zm4,0V93.57H90.54l2.21,21.72Zm30.79,0L94.6,93.57h24.5l4.43,21.72Z"></path><path d="M21.51,81,41.9,60.86,55.82,74.59a2,2,0,0,0,2.84,0l8-7.89L80.46,80.3a2,2,0,0,0,2.84,0L102.83,61c1.83-1.81-1-4.66-2.84-2.84L81.88,76.07,68.09,62.46a2,2,0,0,0-2.84,0l-8,7.89L43.32,56.62a2,2,0,0,0-2.84,0L18.66,78.13C16.85,79.92,19.67,82.78,21.51,81Z"></path><path d="M51.92,59V37.26a2,2,0,0,0-2-2h-13a2,2,0,0,0-2,2V56.07l2.54-2.51a6.3,6.3,0,0,1,1.49-1.09V39.26h9V55.06Z"></path><path d="M71.15,59.41l2.45,2.42V23.07a2,2,0,0,0-2-2h-13a2,2,0,0,0-2,2V63.61l.68.67L60.59,61V25.07h9v33.2A6.31,6.31,0,0,1,71.15,59.41Z"></path><path d="M95.29,56.77V10.7a2,2,0,0,0-2-2h-13a2,2,0,0,0-2,2V66.41L81.88,70l.39-.39V12.7h9v48Z"></path></svg>