<svg height='100px' width='100px'  fill="#000000" xmlns="http://www.w3.org/2000/svg" viewBox="0 0 64 64" x="0px" y="0px"><g><path d="M33,13A13.015,13.015,0,0,0,20,26a12.33,12.33,0,0,0,6,10.563V42a1.842,1.842,0,0,0,.105.447l2,4A1,1,0,0,0,29,47h8a1,1,0,0,0,.9-.553l2-4A1.842,1.842,0,0,0,40,42V36.563A12.33,12.33,0,0,0,46,26,13.015,13.015,0,0,0,33,13Zm3.382,32H29.618l-1-2h8.764ZM38,41H28V39H38Zm-6-4V31h2v6Zm6.5-1.865A1,1,0,0,0,38,36v1H36V31h2V29H28v2h2v6H28V36a1,1,0,0,0-.5-.865A10.318,10.318,0,0,1,22,26a11,11,0,0,1,22,0A10.318,10.318,0,0,1,38.5,35.135Z"></path><path d="M33,17l0,2c.286,0,7,.117,7,7h2C42,18.881,36.113,17,33,17Z"></path><rect x="40" y="28" width="2" height="2"></rect><path d="M6.03,41.758a2.415,2.415,0,0,0,.519,2.371c1.1,1.169,3.384,1.128,4.717.985A30.2,30.2,0,0,1,12,52a3.84,3.84,0,0,0,1.428,3.111c2.02,1.621,5.65,1.368,7.572,1.083V61a1,1,0,0,0,1,1H50a1,1,0,0,0,1-1,26.2,26.2,0,0,0-.962-5.607c-1.158-4.813-2.47-10.268.775-14.812A29.334,29.334,0,0,0,56,25a23,23,0,0,0-46,0,19.1,19.1,0,0,0,.6,4.432A12.117,12.117,0,0,1,11,32c0,.655-.955,2.138-1.8,3.446A22.308,22.308,0,0,0,6.03,41.758ZM13,32a13.677,13.677,0,0,0-.449-3.007A17.242,17.242,0,0,1,12,25a21,21,0,0,1,42,0,27.687,27.687,0,0,1-4.813,14.419C45.41,44.705,46.9,50.891,48.094,55.86A37.213,37.213,0,0,1,48.937,60H23V55a1,1,0,0,0-1.216-.977c-1.423.315-5.471.841-7.1-.472A1.836,1.836,0,0,1,14,52a28.456,28.456,0,0,0-1.052-8.316,1,1,0,0,0-1.129-.667c-1.472.27-3.355.23-3.813-.257-.035-.038-.13-.14-.036-.518a20.871,20.871,0,0,1,2.915-5.713C12.066,34.693,13,33.244,13,32Z"></path><rect x="32" y="6" width="2" height="5"></rect><rect x="48" y="24" width="4" height="2"></rect><rect x="14" y="24" width="4" height="2"></rect><rect x="22" y="9.172" width="2" height="5.657" transform="translate(-1.749 19.778) rotate(-45)"></rect><rect x="40.172" y="11" width="5.657" height="2" transform="translate(4.109 33.92) rotate(-45)"></rect><rect x="45.764" y="17" width="4.472" height="2" transform="translate(-2.982 23.367) rotate(-26.565)"></rect><rect x="17" y="15.764" width="2" height="4.472" transform="translate(-6.15 26.05) rotate(-63.435)"></rect><rect x="48" y="28.764" width="2" height="4.472" transform="translate(-0.641 60.963) rotate(-63.435)"></rect><rect x="14.764" y="30" width="4.472" height="2" transform="translate(-12.069 10.875) rotate(-26.565)"></rect><rect x="44" y="56" width="2" height="2"></rect><rect x="40" y="56" width="2" height="2"></rect></g></svg>