<svg height='100px' width='100px'  fill="#000000" xmlns="http://www.w3.org/2000/svg" xmlns:xlink="http://www.w3.org/1999/xlink" version="1.1" x="0px" y="0px" viewBox="0 0 96 96" enable-background="new 0 0 96 96" xml:space="preserve"><g><path d="M23.305,11.783c-5.269,0-10.537,0-15.805,0c-0.818,0-1.5,0.682-1.5,1.5c0,5.268,0,10.537,0,15.805   c0,0.441,0.161,0.777,0.402,1.017c0.012,0.015,0.026,0.028,0.04,0.042c0.014,0.013,0.027,0.027,0.042,0.04   c0.24,0.241,0.576,0.402,1.017,0.402c0.333,0,0.667,0,1,0c0.818,0,1.5-0.682,1.5-1.5c0-4.435,0-8.87,0-13.305   c4.435,0,8.87,0,13.305,0c0.818,0,1.5-0.682,1.5-1.5c0-0.333,0-0.667,0-1C24.805,12.465,24.123,11.783,23.305,11.783z"></path><path d="M88.5,11.783c-5.269,0-10.536,0-15.805,0c-0.441,0-0.777,0.161-1.018,0.402c-0.015,0.012-0.027,0.026-0.041,0.04   c-0.013,0.014-0.027,0.027-0.039,0.042c-0.241,0.24-0.402,0.576-0.402,1.017c0,0.333,0,0.667,0,1c0,0.818,0.683,1.5,1.5,1.5   c4.435,0,8.87,0,13.305,0c0,4.435,0,8.87,0,13.305c0,0.818,0.683,1.5,1.5,1.5c0.333,0,0.667,0,1,0c0.817,0,1.5-0.682,1.5-1.5   c0-5.268,0-10.537,0-15.805C90,12.465,89.317,11.783,88.5,11.783z"></path><path d="M88.5,65.412c-0.333,0-0.667,0-1,0c-0.817,0-1.5,0.683-1.5,1.5c0,4.435,0,8.87,0,13.305c-4.435,0-8.87,0-13.305,0   c-0.817,0-1.5,0.683-1.5,1.5c0,0.333,0,0.667,0,1c0,0.817,0.683,1.5,1.5,1.5c5.269,0,10.536,0,15.805,0c0.817,0,1.5-0.683,1.5-1.5   c0-5.269,0-10.536,0-15.805C90,66.095,89.317,65.412,88.5,65.412z"></path><path d="M23.305,80.217c-4.435,0-8.87,0-13.305,0c0-4.435,0-8.87,0-13.305c0-0.441-0.161-0.777-0.402-1.018   c-0.012-0.015-0.026-0.027-0.04-0.041c-0.014-0.013-0.027-0.027-0.042-0.039c-0.24-0.241-0.576-0.402-1.017-0.402   c-0.333,0-0.667,0-1,0c-0.818,0-1.5,0.683-1.5,1.5c0,5.269,0,10.536,0,15.805c0,0.817,0.682,1.5,1.5,1.5c5.269,0,10.537,0,15.805,0   c0.818,0,1.5-0.683,1.5-1.5c0-0.333,0-0.667,0-1C24.805,80.899,24.123,80.217,23.305,80.217z"></path><path d="M57,46c-2.333,0-4.667,0-7,0c0-2.333,0-4.667,0-7c0-0.441-0.161-0.777-0.402-1.017c-0.012-0.015-0.026-0.028-0.039-0.042   c-0.014-0.013-0.026-0.027-0.041-0.04c-0.24-0.241-0.576-0.402-1.018-0.402c-0.333,0-0.667,0-1,0c-0.818,0-1.5,0.682-1.5,1.5   c0,2.333,0,4.667,0,7c-2.333,0-4.667,0-7,0c-0.818,0-1.5,0.682-1.5,1.5c0,0.333,0,0.667,0,1c0,0.817,0.682,1.5,1.5,1.5   c2.333,0,4.667,0,7,0c0,2.333,0,4.667,0,7c0,0.817,0.682,1.5,1.5,1.5c0.333,0,0.667,0,1,0c0.817,0,1.5-0.683,1.5-1.5   c0-2.333,0-4.667,0-7c2.333,0,4.667,0,7,0c0.817,0,1.5-0.683,1.5-1.5c0-0.333,0-0.667,0-1C58.5,46.682,57.817,46,57,46z"></path></g></svg>