<svg height='100px' width='100px'  fill="#000000" xmlns="http://www.w3.org/2000/svg" xmlns:xlink="http://www.w3.org/1999/xlink" version="1.1" x="0px" y="0px" viewBox="0 0 1024 1024" style="enable-background:new 0 0 1024 1024;" xml:space="preserve"><g><g><g><path d="M709,322.9c-35.7,0-71.3,0-107,0c-5,0-10.1,0-15.1,0c-10.8,0-20,9.2-20,20c0,20.2,0,40.3,0,60.5     c0,48.4,0,96.8,0,145.2c0,58.5,0,117,0,175.5c0,50.3,0,100.6,0,150.9c0,24.6-0.9,49.3,0,73.9c0,0.3,0,0.7,0,1     c6.7-6.7,13.3-13.3,20-20c-43.6,0-87.2,0-130.7,0c-6.1,0-12.2,0-18.3,0c6.7,6.7,13.3,13.3,20,20c0-20.2,0-40.3,0-60.5     c0-48.4,0-96.8,0-145.2c0-58.5,0-117,0-175.5c0-50.3,0-100.6,0-150.9c0-24.6,0.5-49.3,0-73.9c0-0.3,0-0.7,0-1     c0-10.8-9.2-20-20-20c-35.8,0-71.6,0-107.4,0c-5.1,0-10.3,0-15.4,0c5.8,10,11.5,20.1,17.3,30.1c22.2-30.3,44.3-60.5,66.5-90.8     c35.4-48.3,70.7-96.5,106.1-144.8c8.1-11.1,16.3-22.2,24.4-33.3c-11.5,0-23,0-34.5,0c22.2,30.3,44.3,60.5,66.5,90.8     c35.4,48.3,70.7,96.5,106.1,144.8c8.1,11.1,16.3,22.2,24.4,33.3c6.2,8.4,17.6,13.4,27.4,7.2c8.3-5.4,13.8-18.3,7.2-27.4     c-22.2-30.3-44.3-60.5-66.5-90.8c-35.4-48.3-70.7-96.5-106.1-144.8c-8.1-11.1-16.3-22.2-24.4-33.3c-9.3-12.8-25.2-12.8-34.5,0     c-22.2,30.3-44.3,60.5-66.5,90.8c-35.4,48.3-70.7,96.5-106.1,144.8c-8.1,11.1-16.3,22.2-24.4,33.3c-9.2,12.6,3.3,30.1,17.3,30.1     c35.8,0,71.6,0,107.4,0c5.1,0,10.3,0,15.4,0c-6.7-6.7-13.3-13.3-20-20c0,20.2,0,40.3,0,60.5c0,48.4,0,96.8,0,145.2     c0,58.5,0,117,0,175.5c0,50.3,0,100.6,0,150.9c0,24.6-0.5,49.3,0,73.9c0,0.3,0,0.7,0,1c0,10.8,9.2,20,20,20     c43.6,0,87.2,0,130.7,0c6.1,0,12.2,0,18.3,0c10.8,0,20-9.2,20-20c0-20.2,0-40.3,0-60.5c0-48.4,0-96.8,0-145.2     c0-58.5,0-117,0-175.5c0-50.3,0-100.6,0-150.9c0-24.6,0.9-49.3,0-73.9c0-0.3,0-0.7,0-1c-6.7,6.7-13.3,13.3-20,20     c35.7,0,71.3,0,107,0c5,0,10.1,0,15.1,0c10.5,0,20.5-9.2,20-20C728.5,332.1,720.2,322.9,709,322.9z"></path></g></g><g><g><path d="M353.2,604.9c-25.4,0-50.9,0-76.3,0c-10.8,0-20,9.2-20,20c0,36.8,0,73.6,0,110.4c0,58.2,0,116.4,0,174.6     c0,13.3,0,26.7,0,40c6.7-6.7,13.3-13.3,20-20c-43.8,0-87.6,0-131.4,0c-6.2,0-12.4,0-18.6,0c6.7,6.7,13.3,13.3,20,20     c0-36.8,0-73.6,0-110.4c0-58.2,0-116.4,0-174.6c0-13.3,0-26.7,0-40c0-10.8-9.2-20-20-20c-25.2,0-50.4,0-75.5,0     c5.8,10,11.5,20.1,17.3,30.1c22.1-30.2,44.1-60.4,66.2-90.6c17.9-24.5,35.8-49,53.7-73.4c10.4-14.2,20.7-28.3,31.1-42.5     c-11.5,0-23,0-34.5,0c22,30.1,43.9,60.1,65.9,90.2c18.1,24.8,36.2,49.6,54.4,74.4c10.2,14,20.4,28,30.7,41.9     c6.2,8.4,17.6,13.4,27.4,7.2c8.3-5.4,13.8-18.3,7.2-27.4c-22.1-30.2-44.1-60.4-66.2-90.6c-17.9-24.5-35.8-49-53.7-73.5     c-10.4-14.2-20.7-28.3-31.1-42.5c-9.3-12.8-25.2-12.8-34.5,0c-22,30-43.9,60.1-65.9,90.1c-18.1,24.8-36.2,49.6-54.4,74.4     c-10.2,14-20.4,28-30.7,42c-9.2,12.6,3.3,30.1,17.3,30.1c25.2,0,50.4,0,75.5,0c-6.7-6.7-13.3-13.3-20-20c0,36.8,0,73.6,0,110.4     c0,58.2,0,116.4,0,174.6c0,13.3,0,26.7,0,40c0,10.8,9.2,20,20,20c43.8,0,87.6,0,131.4,0c6.2,0,12.4,0,18.6,0c10.8,0,20-9.2,20-20     c0-36.8,0-73.6,0-110.4c0-58.2,0-116.4,0-174.6c0-13.3,0-26.7,0-40c-6.7,6.7-13.3,13.3-20,20c25.4,0,50.9,0,76.3,0     c10.5,0,20.5-9.2,20-20C372.7,614.1,364.4,604.9,353.2,604.9z"></path></g></g><g><g><path d="M972.7,604.9c-25.3,0-50.5,0-75.8,0c-10.8,0-20,9.2-20,20c0,36.8,0,73.6,0,110.4c0,58.2,0,116.4,0,174.6     c0,13.3,0,26.7,0,40c6.7-6.7,13.3-13.3,20-20c-43.8,0-87.6,0-131.4,0c-6.2,0-12.4,0-18.6,0c6.7,6.7,13.3,13.3,20,20     c0-36.8,0-73.6,0-110.4c0-58.2,0-116.4,0-174.6c0-13.3,0-26.7,0-40c0-10.8-9.2-20-20-20c-25.3,0-50.7,0-76,0     c5.8,10,11.5,20.1,17.3,30.1c22.1-30.2,44.1-60.3,66.2-90.5c17.9-24.5,35.8-48.9,53.7-73.4c10.3-14.1,20.7-28.3,31-42.4     c-11.5,0-23,0-34.5,0c22.1,30.2,44.1,60.3,66.2,90.5c18.1,24.8,36.2,49.5,54.4,74.3c10.1,13.8,20.2,27.7,30.4,41.5     c6.2,8.4,17.6,13.4,27.4,7.2c8.3-5.4,13.8-18.3,7.2-27.4c-22.1-30.1-44.1-60.3-66.2-90.4c-17.9-24.5-35.8-48.9-53.7-73.4     c-10.3-14.1-20.7-28.3-31-42.4c-9.3-12.8-25.2-12.8-34.5,0c-22.1,30.1-44.1,60.3-66.2,90.4c-18.1,24.8-36.2,49.5-54.4,74.3     c-10.1,13.8-20.2,27.7-30.4,41.5c-9.2,12.6,3.3,30.1,17.3,30.1c25.3,0,50.7,0,76,0c-6.7-6.7-13.3-13.3-20-20     c0,36.8,0,73.6,0,110.4c0,58.2,0,116.4,0,174.6c0,13.3,0,26.7,0,40c0,10.8,9.2,20,20,20c43.8,0,87.6,0,131.4,0     c6.2,0,12.4,0,18.6,0c10.8,0,20-9.2,20-20c0-36.8,0-73.6,0-110.4c0-58.2,0-116.4,0-174.6c0-13.3,0-26.7,0-40     c-6.7,6.7-13.3,13.3-20,20c25.3,0,50.5,0,75.8,0c10.5,0,20.5-9.2,20-20C992.2,614.1,983.9,604.9,972.7,604.9z"></path></g></g></g></svg>