<svg height='100px' width='100px'  fill="#000000" xmlns="http://www.w3.org/2000/svg" viewBox="0 0 64 64" x="0px" y="0px"><g><path d="M27,12A25,25,0,1,0,52,37,25.028,25.028,0,0,0,27,12ZM50,37a22.873,22.873,0,0,1-4.689,13.9L43,48.586V44a1,1,0,0,0-.293-.707L39,39.586V36.414l1.707-1.707A1,1,0,0,0,41,34V28a1,1,0,0,0-.293-.707l-5-5A1,1,0,0,0,35,22H30.414L27,18.586V14A23.025,23.025,0,0,1,50,37ZM17.6,16.016l2.4,2.4v3.172l-3.707,3.707A1,1,0,0,0,16,26v3.586L12.586,33H10a1,1,0,0,0-1,1v3a1,1,0,0,0,.293.707L14,42.414v2.172l-2.707,2.707A1,1,0,0,0,11,48v2.586L9.586,52A22.967,22.967,0,0,1,17.6,16.016Zm9.105,40.277L25,54.586V51a1,1,0,0,0-1-1H20.414L19,48.586V46.414L22.414,43h7.172L34,47.414v3.172l-1.707,1.707A1,1,0,0,0,32,53v3.586l-2.707,2.707a.986.986,0,0,0-.274.613C28.353,59.964,27.681,60,27,60V57A1,1,0,0,0,26.707,56.293Zm5.251,3.163,1.749-1.749A1,1,0,0,0,34,57V53.414l1.707-1.707A1,1,0,0,0,36,51V47a1,1,0,0,0-.293-.707l-5-5A1,1,0,0,0,30,41H22a1,1,0,0,0-.707.293l-4,4A1,1,0,0,0,17,46v3a1,1,0,0,0,.293.707l2,2A1,1,0,0,0,20,52h3v3a1,1,0,0,0,.293.707L25,57.414v2.494a22.927,22.927,0,0,1-14.044-6.45l1.751-1.751A1,1,0,0,0,13,51V48.414l2.707-2.707A1,1,0,0,0,16,45V42a1,1,0,0,0-.293-.707L11,36.586V35h2a1,1,0,0,0,.707-.293l4-4A1,1,0,0,0,18,30V26.414l3.707-3.707A1,1,0,0,0,22,22V18a1,1,0,0,0-.293-.707l-2.075-2.075A22.845,22.845,0,0,1,25,14.092V19a1,1,0,0,0,.293.707l4,4A1,1,0,0,0,30,24h4.586L39,28.414v5.172l-1.707,1.707A1,1,0,0,0,37,36v4a1,1,0,0,0,.293.707L41,44.414V49a1,1,0,0,0,.293.707l2.737,2.737A23.014,23.014,0,0,1,31.958,59.456Z"></path><path d="M33,27H27a1,1,0,0,0-1,1v2a1,1,0,0,0,.293.707L28,32.414V36a1,1,0,0,0,1,1h2a1,1,0,0,0,.707-.293l2-2A1,1,0,0,0,34,34V28A1,1,0,0,0,33,27Zm-1,6.586L30.586,35H30V32a1,1,0,0,0-.293-.707L28,29.586V29h4Z"></path><path d="M61.263,17.025l-2.779-2.877a1,1,0,0,0-1.414-.025L54.193,16.9,52.8,15.463l.718-.693a1,1,0,0,0,.026-1.415L50.77,10.478a1,1,0,0,0-1.415-.026l-.72.7L47.246,9.709l2.877-2.778a1,1,0,0,0,.025-1.414L47.37,2.639a1,1,0,0,0-.7-.306,1.1,1.1,0,0,0-.712.28L38.763,9.561a1,1,0,0,0-.026,1.414l2.779,2.877a1,1,0,0,0,1.414.025L45.807,11.1,47.2,12.537l-.718.693a1,1,0,0,0-.026,1.415l2.778,2.877a1,1,0,0,0,1.415.026l.72-.7,1.389,1.439-2.877,2.778a1,1,0,0,0-.025,1.414l2.778,2.878a1,1,0,0,0,.7.306h.018a1.006,1.006,0,0,0,.694-.28l7.193-6.948A1,1,0,0,0,61.263,17.025ZM46.626,4.747l1.389,1.44L45.857,8.27,44.468,6.831Zm-4.366,7-1.389-1.438,2.158-2.084,1.389,1.438Zm7.715,3.671-1.389-1.439,1.439-1.389,1.389,1.439Zm3.4,7.839-1.389-1.44,2.158-2.083,1.389,1.439Zm3.6-3.474-1.389-1.438,2.158-2.084L59.129,17.7Z"></path><path d="M27,5A31.826,31.826,0,0,1,38.636,7.182l.728-1.864A34.041,34.041,0,0,0,3.3,12.619L4.7,14.053A31.828,31.828,0,0,1,27,5Z"></path><path d="M56.818,25.364A32.036,32.036,0,0,1,49.947,59.3L51.381,60.7a34.041,34.041,0,0,0,7.3-36.061Z"></path><path d="M52.68,52.518a30.086,30.086,0,0,0,3.164-23.793l-1.922.55a28.093,28.093,0,0,1-2.953,22.207Z"></path><path d="M11.482,11.32l1.036,1.711A28.094,28.094,0,0,1,33.76,9.821l.48-1.941a30.09,30.09,0,0,0-22.758,3.44Z"></path></g></svg>