<svg height='100px' width='100px'  fill="#000000" xmlns="http://www.w3.org/2000/svg" xmlns:xlink="http://www.w3.org/1999/xlink" version="1.1" x="0px" y="0px" viewBox="0 0 500 500" enable-background="new 0 0 500 500" xml:space="preserve"><g><g><g><path d="M288.6,415.9C288.6,415.9,288.6,415.9,288.6,415.9c-2.4,3.2-4.9,6.4-7.3,9.6     C365.2,413,435.1,347,452.2,263.7c8.6-42.1,4-85.9-13.1-125.3c-16.3-37.5-44.2-69.7-78.7-91.6C288.9,1.4,193.1,5.3,125.7,56.6     c-33,25.1-58.1,59.5-71.4,98.9c-12.8,37.8-14.2,79.4-4.2,118c18.1,69.9,73.6,126.7,143,146.6c8.4,2.4,17,4.2,25.7,5.5     c5.3,0.8,10.7-1.3,12.3-7c1.3-4.7-1.6-11.5-7-12.3c-64.5-9.6-121.2-52.3-146.3-112.9c-28.2-68.1-13.2-148.6,38.2-201.6     C169.4,36.6,254.6,19.1,325,50.6c34.1,15.2,63.3,40.2,83.1,71.9c20.3,32.5,30.1,70.6,28.2,108.9     c-3.9,77.2-57.6,145.9-131.5,168.5c-9.5,2.9-19.1,5-28.9,6.5c-4.3,0.6-7.3,5.6-7.3,9.6c0,0,0,0,0,0     C268.6,428.8,288.6,428.8,288.6,415.9L288.6,415.9z"></path></g></g><g><g><g><path d="M271.4,259.5c-14.2,0-28.4,0-42.6,0c3.3,3.3,6.7,6.7,10,10c-0.7-19.9-1.4-39.8-2.1-59.7      c-1.1-31.6-2.2-63.2-3.3-94.7c-0.3-7.3-0.5-14.7-0.8-22c-3.3,3.3-6.7,6.7-10,10c18.4,0,36.7,0,55.1,0c-3.3-3.3-6.7-6.7-10-10      c-0.7,19.9-1.4,39.8-2.1,59.7c-1.1,31.6-2.2,63.2-3.3,94.7c-0.3,7.3-0.5,14.7-0.8,22c-0.5,12.9,19.5,12.9,20,0      c0.7-19.9,1.4-39.8,2.1-59.7c1.1-31.6,2.2-63.2,3.3-94.7c0.3-7.3,0.5-14.7,0.8-22c0.2-5.4-4.7-10-10-10c-18.4,0-36.7,0-55.1,0      c-5.3,0-10.2,4.6-10,10c0.7,19.9,1.4,39.8,2.1,59.7c1.1,31.6,2.2,63.2,3.3,94.7c0.3,7.3,0.5,14.7,0.8,22c0.2,5.4,4.4,10,10,10      c14.2,0,28.4,0,42.6,0C284.3,279.5,284.3,259.5,271.4,259.5z"></path></g></g><g><g><path d="M272.6,340.9c-15,0-30,0-45,0c3.3,3.3,6.7,6.7,10,10c0-13.5,0-26.9,0-40.4c-3.3,3.3-6.7,6.7-10,10      c15,0,30,0,45,0c-3.3-3.3-6.7-6.7-10-10c0,13.5,0,26.9,0,40.4c0,12.9,20,12.9,20,0c0-13.5,0-26.9,0-40.4c0-5.4-4.6-10-10-10      c-15,0-30,0-45,0c-5.4,0-10,4.6-10,10c0,13.5,0,26.9,0,40.4c0,5.4,4.6,10,10,10c15,0,30,0,45,0      C285.4,360.9,285.5,340.9,272.6,340.9z"></path></g></g></g><g><g><path d="M212.7,421c9.5,19.6,19.1,39.2,28.6,58.9c3.2,6.5,14.1,6.5,17.3,0c9.5-19.6,19.1-39.3,28.6-58.9     c2.4-4.9,1.3-10.8-3.6-13.7c-4.4-2.6-11.3-1.3-13.7,3.6c-9.5,19.6-19.1,39.3-28.6,58.9c5.8,0,11.5,0,17.3,0     c-9.5-19.6-19.1-39.2-28.6-58.9c-2.4-4.9-9.3-6.2-13.7-3.6C211.4,410.2,210.4,416.1,212.7,421L212.7,421z"></path></g></g></g></svg>