<svg height='100px' width='100px'  fill="#000000" xmlns="http://www.w3.org/2000/svg" data-name="Слой 1" viewBox="0 0 128 128" x="0px" y="0px"><title>ic_verification_tasks</title><path d="M102,52A26,26,0,1,0,76,26,26,26,0,0,0,102,52Zm0-48A22,22,0,1,1,80,26,22,22,0,0,1,102,4Z"></path><path d="M102,76A26,26,0,0,0,76.1,99.83,12,12,0,0,1,66,88V40A16,16,0,0,0,51.93,24.13a26,26,0,1,0,0,4A12,12,0,0,1,62,40V88a16,16,0,0,0,14.07,15.87A26,26,0,1,0,102,76ZM26,48A22,22,0,1,1,48,26,22,22,0,0,1,26,48Zm76,76a22,22,0,1,1,22-22A22,22,0,0,1,102,124Z"></path><path d="M26,76a26,26,0,1,0,26,26A26,26,0,0,0,26,76Zm0,48a22,22,0,1,1,22-22A22,22,0,0,1,26,124Z"></path><path d="M26,12a7.58,7.58,0,0,0-7.57,7.57,2,2,0,0,0,4,0,3.57,3.57,0,0,1,7.14,0c0,1.29-.67,2.06-1.94,3.42C26.1,24.63,24,26.88,24,31a2,2,0,0,0,4,0c0-2.55,1.13-3.75,2.55-5.28s3-3.22,3-6.15A7.58,7.58,0,0,0,26,12Z"></path><circle cx="26" cy="37.77" r="2.23"></circle><path d="M26,88a7.58,7.58,0,0,0-7.57,7.57,2,2,0,0,0,4,0,3.57,3.57,0,0,1,7.14,0c0,1.29-.67,2.06-1.94,3.42-1.53,1.64-3.63,3.89-3.63,8a2,2,0,0,0,4,0c0-2.55,1.13-3.75,2.55-5.28s3-3.22,3-6.15A7.58,7.58,0,0,0,26,88Z"></path><circle cx="26" cy="113.77" r="2.23"></circle><path d="M112.67,93.09,99.58,106.17l-8.25-8.25a2,2,0,0,0-2.83,2.83l9.67,9.66a2,2,0,0,0,2.83,0l14.5-14.5a2,2,0,1,0-2.83-2.82Z"></path><circle cx="110" cy="26" r="2"></circle><circle cx="102" cy="26" r="2"></circle><circle cx="94" cy="26" r="2"></circle></svg>