<svg height='100px' width='100px'  fill="#000000" xmlns="http://www.w3.org/2000/svg" xmlns:xlink="http://www.w3.org/1999/xlink" version="1.1" x="0px" y="0px" viewBox="0 0 60 60" style="enable-background:new 0 0 60 60;" xml:space="preserve"><path d="M33.145752,5.6855469c-0.281189-0.0324707-0.5557861,0.0512695-0.7647705,0.2355957  c-0.2090454,0.1851807-0.3287354,0.4501953-0.3287354,0.7296143v20.3238525c0,0.5377197,0.4351196,0.9729004,0.9729004,0.9729004  H53.348938c0.2793579,0,0.5443726-0.119873,0.7296753-0.3288574c0.1843262-0.2089844,0.2698364-0.4873047,0.2355957-0.7647705  C52.9309082,15.7731934,44.2263794,7.0688477,33.145752,5.6855469z M33.9979858,26.001709v-18.22229  c9.3106689,1.6265869,16.5957642,8.9116211,18.22229,18.22229H33.9979858z"></path><path d="M53.348938,31.8626709H37.168335c-0.3933105,0-0.7486572,0.2374268-0.8987427,0.6004639  c-0.151062,0.3637695-0.0674438,0.7818604,0.2109375,1.0603027l11.4416504,11.4406738  c0.1833496,0.1833496,0.4303589,0.2849121,0.6878052,0.2849121c0.0199585,0,0.039917-0.0008545,0.0608521-0.0018311  c0.2783813-0.0170898,0.5358276-0.1539307,0.7068481-0.3743896c2.6886597-3.458252,4.3950195-7.5786133,4.9365234-11.916626  c0.0342407-0.2774658-0.0512695-0.5557861-0.2355957-0.7647705C53.8933105,31.9824219,53.6282959,31.8626709,53.348938,31.8626709z   M48.4988403,42.7893066l-8.9819336-8.980957h12.7023926C51.6530762,37.0349121,50.381897,40.1025391,48.4988403,42.7893066z"></path><path d="M28.1370239,28.6799316V6.6507568c0-0.2794189-0.1196899-0.5444336-0.3287354-0.7296143  c-0.2080688-0.1843262-0.4835815-0.2680664-0.7647705-0.2355957C14.8636475,7.2055664,5.6784058,17.6182861,5.6784058,29.9055176  c0,5.4162598,1.7414551,10.548584,5.0353394,14.842041c0.1691284,0.2211914,0.4265747,0.3590088,0.7049561,0.3789063  c0.0218506,0.0009766,0.0446777,0.0019531,0.0665283,0.0019531c0.2545776,0,0.5006714-0.0997314,0.6830444-0.2802734  L27.847229,29.3725586C28.0325317,29.189209,28.1370239,28.9401855,28.1370239,28.6799316z M26.1912842,28.2733154  L11.6049194,42.6706543c-2.6079712-3.7613525-3.9807739-8.1516113-3.9807739-12.7651367  c0-10.9371338,7.9064331-20.2602539,18.5671387-22.1260986V28.2733154z"></path><path d="M30.7687378,33.3476563c-0.3781738-0.3781738-0.9909668-0.380127-1.3709717-0.0047607l-14.4780884,14.289917  c-0.1985474,0.1966553-0.3040161,0.4683838-0.2878418,0.7468262c0.0151978,0.2783203,0.1500854,0.5375977,0.3685913,0.7097168  c4.3446655,3.4230957,9.5643311,5.2319336,15.0946655,5.2319336c5.4724121,0,10.6483765-1.7746582,14.9673462-5.1331787  c0.220459-0.1710205,0.3572388-0.4285889,0.3743286-0.7069092c0.0171509-0.2783203-0.0855103-0.5510254-0.2830811-0.7485352  L30.7687378,33.3476563z M30.0950928,52.3754883c-4.7189941,0-9.1918945-1.4316406-13.0054321-4.1507568l12.9864502-12.8182373  l12.9038086,12.9038086C39.1920166,50.9732666,34.7608643,52.3754883,30.0950928,52.3754883z"></path></svg>