<svg height='100px' width='100px'  fill="#000000" xmlns="http://www.w3.org/2000/svg" xmlns:xlink="http://www.w3.org/1999/xlink" version="1.1" x="0px" y="0px" viewBox="0 0 59 59" enable-background="new 0 0 59 59" xml:space="preserve"><path d="M58.899,28.773l-7.598-16.297c-0.113-0.24-0.316-0.427-0.564-0.518c-0.248-0.09-0.525-0.078-0.766,0.033L43.8,14.871  c-1.117,0.096-7.088,0.641-9.957,1.557c-3.236-1.157-6.652-2.029-8.742-1.551c-3.385,0.779-8.953,0.122-9.879,0.004l-6.193-2.889  c-0.24-0.111-0.516-0.125-0.766-0.033C8.015,12.05,7.812,12.236,7.7,12.477l-7.6,16.297c-0.232,0.5-0.018,1.096,0.484,1.328  l6.217,2.9c0.617,0.506,3.887,3.127,7.154,4.602c-0.033,0.586,0.076,1.188,0.371,1.744c0.744,1.41,2.363,2.069,3.846,1.66  c0.021,0.484,0.15,0.962,0.385,1.402c0.416,0.791,1.117,1.371,1.971,1.635c0.725,0.223,1.488,0.195,2.186-0.075  c0.029,0.466,0.156,0.925,0.381,1.351c0.6,1.133,1.762,1.781,2.963,1.781c0.5,0,1.008-0.113,1.482-0.35  c1.381-0.488,18.439-6.635,24.725-13.781l6.152-2.869C58.917,29.869,59.134,29.273,58.899,28.773z M9.089,14.229l4.521,2.107  L6.856,30.82l-4.52-2.108L9.089,14.229z M14.653,35.725c-2.449-1.129-4.961-2.995-6.074-3.865l6.959-14.926  c1.846,0.209,6.721,0.649,10.012-0.107c3.172-0.73,11.928,3.034,15.713,4.99c-0.156,0.153-0.477,0.387-1.049,0.62  c-2.08,0.847-5.883,1.071-10.318-0.831c-0.443-0.189-0.955-0.039-1.223,0.357c-0.041,0.06-4.086,5.914-9.855,4.437  c-0.09-0.024-0.441-0.138-1.598-0.55l-0.131-0.046l-0.666,1.886l0.127,0.045c0.801,0.285,1.277,0.449,1.553,0.537l-1.9,1.004  c-1.629,0.861-2.254,2.888-1.395,4.518c0.223,0.422,0.523,0.777,0.877,1.055C15.271,35.072,14.927,35.375,14.653,35.725z   M26.813,44.889c-0.047,0.016-0.092,0.035-0.135,0.059c-0.654,0.346-1.469,0.094-1.814-0.561c-0.168-0.318-0.201-0.682-0.096-1.024  s0.338-0.624,0.654-0.791c0.002,0,0.002-0.001,0.002-0.001l0,0l5.756-3.047l-0.936-1.768l-8.105,4.281  c-0.318,0.167-0.682,0.201-1.023,0.096s-0.623-0.338-0.791-0.656c-0.168-0.316-0.201-0.68-0.096-1.023  c0.107-0.342,0.34-0.623,0.656-0.79l6.986-3.69l-0.936-1.769l-9.025,4.769c-0.656,0.346-1.471,0.095-1.816-0.559  c-0.346-0.656-0.094-1.471,0.559-1.816l9.678-5.111l-0.936-1.769l-7.002,3.7c-0.656,0.346-1.471,0.096-1.816-0.559  s-0.094-1.47,0.561-1.815l4.666-2.466c4.055-0.467,6.928-3.479,8.029-4.839c6.529,2.521,12.307,1.005,13.357-1.219  c0.371-0.782,0.213-1.847-0.971-2.46c-0.051-0.027-2.221-1.143-5.078-2.345c2.33-0.408,5.059-0.688,6.311-0.806l7.021,15.059  C44.159,38.738,26.991,44.826,26.813,44.889z M52.144,30.82l-6.752-14.484l4.52-2.107l6.754,14.483L52.144,30.82z"></path></svg>