<svg height='100px' width='100px'  fill="#000000" xmlns="http://www.w3.org/2000/svg" data-name="Layer 1" viewBox="0 0 128 128" x="0px" y="0px"><title>outline</title><path d="M6,40H34a6.00656,6.00656,0,0,0,6-6V6a6.00656,6.00656,0,0,0-6-6H6A6.00656,6.00656,0,0,0,0,6V34A6.00656,6.00656,0,0,0,6,40ZM4,6A2.00229,2.00229,0,0,1,6,4H34a2.00229,2.00229,0,0,1,2,2V34a2.00229,2.00229,0,0,1-2,2H6a2.00229,2.00229,0,0,1-2-2Z"></path><path d="M50,40H78a6.00656,6.00656,0,0,0,6-6V6a6.00656,6.00656,0,0,0-6-6H50a6.00656,6.00656,0,0,0-6,6V34A6.00656,6.00656,0,0,0,50,40ZM48,6a2.00229,2.00229,0,0,1,2-2H78a2.00229,2.00229,0,0,1,2,2V34a2.00229,2.00229,0,0,1-2,2H50a2.00229,2.00229,0,0,1-2-2Z"></path><path d="M94,40h28a6.00656,6.00656,0,0,0,6-6V6a6.00656,6.00656,0,0,0-6-6H94a6.00656,6.00656,0,0,0-6,6V34A6.00656,6.00656,0,0,0,94,40ZM92,6a2.00229,2.00229,0,0,1,2-2h28a2.00229,2.00229,0,0,1,2,2V34a2.00229,2.00229,0,0,1-2,2H94a2.00229,2.00229,0,0,1-2-2Z"></path><path d="M6,84H34a6.00656,6.00656,0,0,0,6-6V50a6.00656,6.00656,0,0,0-6-6H6a6.00656,6.00656,0,0,0-6,6V78A6.00656,6.00656,0,0,0,6,84ZM4,50a2.00229,2.00229,0,0,1,2-2H34a2.00229,2.00229,0,0,1,2,2V78a2.00229,2.00229,0,0,1-2,2H6a2.00229,2.00229,0,0,1-2-2Z"></path><path d="M50,84H78a6.00656,6.00656,0,0,0,6-6V50a6.00656,6.00656,0,0,0-6-6H50a6.00656,6.00656,0,0,0-6,6V78A6.00656,6.00656,0,0,0,50,84ZM48,50a2.00229,2.00229,0,0,1,2-2H78a2.00229,2.00229,0,0,1,2,2V78a2.00229,2.00229,0,0,1-2,2H50a2.00229,2.00229,0,0,1-2-2Z"></path><path d="M64.69434,71.76221a1.5389,1.5389,0,0,0-.74414-.40527,5.27378,5.27378,0,0,0-2.28516.042,1.54521,1.54521,0,0,0-.7207.43262,1.6185,1.6185,0,0,0-.37109.77637,5.35976,5.35976,0,0,0-.08691,1.18262,5.18025,5.18025,0,0,0,.12988,1.15332A1.46149,1.46149,0,0,0,61.751,76.0874a4.46747,4.46747,0,0,0,1.1582.10352,4.36924,4.36924,0,0,0,1.12793-.14551,1.58557,1.58557,0,0,0,.72852-.4248,1.559,1.559,0,0,0,.37109-.75977,5.15166,5.15166,0,0,0,.08789-1.15723,5.4255,5.4255,0,0,0-.13086-1.17871A1.61149,1.61149,0,0,0,64.69434,71.76221Z"></path><path d="M59.082,56.71533a7.69907,7.69907,0,0,1,1.11523-.38867,6.08272,6.08272,0,0,1,1.50391-.19531,4.66226,4.66226,0,0,1,1.63672.22852,3.02674,3.02674,0,0,1,1.16895.72363,3.10537,3.10537,0,0,1,.708,1.14355,4.60568,4.60568,0,0,1,.25391,1.46973,4.67641,4.67641,0,0,1-.168,1.35938A2.90251,2.90251,0,0,1,64.71,62.17236a3.04356,3.04356,0,0,1-1.04883.77246,3.74839,3.74839,0,0,1-1.52734.31348l-.23437.00488a2.30139,2.30139,0,0,0-.63477.08691.893.893,0,0,0-.43848.28418,1.12433,1.12433,0,0,0-.23242.541,3.87666,3.87666,0,0,0-.03418.87109l.22363,3.94824a.51892.51892,0,0,0,.12207.2998.68153.68153,0,0,0,.32227.17871,2.75009,2.75009,0,0,0,.5957.08008c.251.0127.56152.01563.92969.00879a4.49517,4.49517,0,0,0,1.32813-.17578q.4585-.15967.46875-.46094l.07422-3.26758a6.66153,6.66153,0,0,0,2.19043-.65918A5.46178,5.46178,0,0,0,68.498,63.67627a5.75047,5.75047,0,0,0,1.06934-1.92871,7.32639,7.32639,0,0,0,.34766-2.48437,7.49445,7.49445,0,0,0-.46484-2.50488,5.721,5.721,0,0,0-1.35254-2.084,6.37451,6.37451,0,0,0-2.33008-1.42383A9.39716,9.39716,0,0,0,62.376,52.769a10.23262,10.23262,0,0,0-1.67187.165,12.40877,12.40877,0,0,0-1.45117.35352,7.57453,7.57453,0,0,0-1.11426.43945,2.4722,2.4722,0,0,0-.62891.40527.81053.81053,0,0,0-.209.43945,5.15875,5.15875,0,0,0-.03516.85449,8.84064,8.84064,0,0,0,.05957.93652C57.35742,56.60791,58.77148,56.855,59.082,56.71533Z"></path><path d="M94,84h28a6.00656,6.00656,0,0,0,6-6V50a6.00656,6.00656,0,0,0-6-6H94a6.00656,6.00656,0,0,0-6,6V78A6.00656,6.00656,0,0,0,94,84ZM92,50a2.00229,2.00229,0,0,1,2-2h28a2.00229,2.00229,0,0,1,2,2V78a2.00229,2.00229,0,0,1-2,2H94a2.00229,2.00229,0,0,1-2-2Z"></path><path d="M6,128H34a6.00656,6.00656,0,0,0,6-6V94a6.00656,6.00656,0,0,0-6-6H6a6.00656,6.00656,0,0,0-6,6v28A6.00656,6.00656,0,0,0,6,128ZM4,94a2.00229,2.00229,0,0,1,2-2H34a2.00229,2.00229,0,0,1,2,2v28a2.00229,2.00229,0,0,1-2,2H6a2.00229,2.00229,0,0,1-2-2Z"></path><path d="M50,128H78a6.00656,6.00656,0,0,0,6-6V94a6.00656,6.00656,0,0,0-6-6H50a6.00656,6.00656,0,0,0-6,6v28A6.00656,6.00656,0,0,0,50,128ZM48,94a2.00229,2.00229,0,0,1,2-2H78a2.00229,2.00229,0,0,1,2,2v28a2.00229,2.00229,0,0,1-2,2H50a2.00229,2.00229,0,0,1-2-2Z"></path><path d="M94,128h28a6.00656,6.00656,0,0,0,6-6V94a6.00656,6.00656,0,0,0-6-6H94a6.00656,6.00656,0,0,0-6,6v28A6.00656,6.00656,0,0,0,94,128ZM92,94a2.00229,2.00229,0,0,1,2-2h28a2.00229,2.00229,0,0,1,2,2v28a2.00229,2.00229,0,0,1-2,2H94a2.00229,2.00229,0,0,1-2-2Z"></path><path d="M109.44434,27.76221a1.5389,1.5389,0,0,0-.74414-.40527,5.27378,5.27378,0,0,0-2.28516.042,1.54521,1.54521,0,0,0-.7207.43262,1.6185,1.6185,0,0,0-.37109.77637,5.35977,5.35977,0,0,0-.08691,1.18262,5.18025,5.18025,0,0,0,.12988,1.15332A1.46149,1.46149,0,0,0,106.501,32.0874a4.46747,4.46747,0,0,0,1.1582.10352,4.36924,4.36924,0,0,0,1.12793-.14551,1.58557,1.58557,0,0,0,.72852-.4248,1.559,1.559,0,0,0,.37109-.75977,5.15167,5.15167,0,0,0,.08789-1.15723,5.4255,5.4255,0,0,0-.13086-1.17871A1.61149,1.61149,0,0,0,109.44434,27.76221Z"></path><path d="M103.832,12.71533a7.69907,7.69907,0,0,1,1.11523-.38867,6.08272,6.08272,0,0,1,1.50391-.19531,4.66226,4.66226,0,0,1,1.63672.22852,3.02674,3.02674,0,0,1,1.16895.72363,3.10537,3.10537,0,0,1,.708,1.14355,4.60568,4.60568,0,0,1,.25391,1.46973,4.67641,4.67641,0,0,1-.168,1.35938,2.90251,2.90251,0,0,1-.59082,1.11621,3.04356,3.04356,0,0,1-1.04883.77246,3.74839,3.74839,0,0,1-1.52734.31348l-.23437.00488a2.30139,2.30139,0,0,0-.63477.08691.893.893,0,0,0-.43848.28418,1.12433,1.12433,0,0,0-.23242.541,3.87666,3.87666,0,0,0-.03418.87109l.22363,3.94824a.51892.51892,0,0,0,.12207.2998.68153.68153,0,0,0,.32227.17871,2.75009,2.75009,0,0,0,.5957.08008c.251.0127.56152.01563.92969.00879a4.49517,4.49517,0,0,0,1.32813-.17578q.4585-.15967.46875-.46094l.07422-3.26758a6.66153,6.66153,0,0,0,2.19043-.65918,5.46178,5.46178,0,0,0,1.68359-1.32227,5.75047,5.75047,0,0,0,1.06934-1.92871,7.32639,7.32639,0,0,0,.34766-2.48437,7.49445,7.49445,0,0,0-.46484-2.50488,5.721,5.721,0,0,0-1.35254-2.084,6.37451,6.37451,0,0,0-2.33008-1.42383A9.39716,9.39716,0,0,0,107.126,8.769a10.23261,10.23261,0,0,0-1.67187.165,12.40876,12.40876,0,0,0-1.45117.35352,7.57453,7.57453,0,0,0-1.11426.43945,2.4722,2.4722,0,0,0-.62891.40527.81053.81053,0,0,0-.209.43945,5.15874,5.15874,0,0,0-.03516.85449,8.84066,8.84066,0,0,0,.05957.93652C102.10742,12.60791,103.52148,12.855,103.832,12.71533Z"></path><path d="M64.78418,115.76221a1.5389,1.5389,0,0,0-.74414-.40527,5.27378,5.27378,0,0,0-2.28516.042,1.54521,1.54521,0,0,0-.7207.43262,1.6185,1.6185,0,0,0-.37109.77637,5.35976,5.35976,0,0,0-.08691,1.18262,5.18026,5.18026,0,0,0,.12988,1.15332,1.46149,1.46149,0,0,0,1.13477,1.14355,4.46747,4.46747,0,0,0,1.1582.10352,4.36924,4.36924,0,0,0,1.12793-.14551,1.58557,1.58557,0,0,0,.72852-.4248,1.559,1.559,0,0,0,.37109-.75977,5.15166,5.15166,0,0,0,.08789-1.15723,5.4255,5.4255,0,0,0-.13086-1.17871A1.61149,1.61149,0,0,0,64.78418,115.76221Z"></path><path d="M57.53418,100.93018a.55981.55981,0,0,0,.17285.27344.366.366,0,0,0,.21875.07129,1.1612,1.1612,0,0,0,.47461-.17578q.30615-.17432.77148-.38379a7.69907,7.69907,0,0,1,1.11523-.38867,6.08272,6.08272,0,0,1,1.50391-.19531,4.66226,4.66226,0,0,1,1.63672.22852,3.02674,3.02674,0,0,1,1.16895.72363,3.10537,3.10537,0,0,1,.708,1.14355,4.60568,4.60568,0,0,1,.25391,1.46973,4.67641,4.67641,0,0,1-.168,1.35938,2.90251,2.90251,0,0,1-.59082,1.11621,3.04356,3.04356,0,0,1-1.04883.77246,3.74839,3.74839,0,0,1-1.52734.31348l-.23437.00488a2.30139,2.30139,0,0,0-.63477.08691.893.893,0,0,0-.43848.28418,1.12433,1.12433,0,0,0-.23242.541,3.87666,3.87666,0,0,0-.03418.87109l.22363,3.94824a.51892.51892,0,0,0,.12207.2998.68153.68153,0,0,0,.32227.17871,2.75009,2.75009,0,0,0,.5957.08008c.251.0127.56152.01563.92969.00879a4.49517,4.49517,0,0,0,1.32813-.17578q.4585-.15967.46875-.46094l.07422-3.26758a6.66153,6.66153,0,0,0,2.19043-.65918,5.46178,5.46178,0,0,0,1.68359-1.32227,5.75047,5.75047,0,0,0,1.06934-1.92871,7.32639,7.32639,0,0,0,.34766-2.48437A7.49445,7.49445,0,0,0,69.54,100.7583a5.72087,5.72087,0,0,0-1.35255-2.084,6.37432,6.37432,0,0,0-2.33006-1.42383,9.39716,9.39716,0,0,0-3.3916-.48145,10.23262,10.23262,0,0,0-1.67187.165,12.40877,12.40877,0,0,0-1.45117.35352,7.57453,7.57453,0,0,0-1.11426.43945,2.4722,2.4722,0,0,0-.62891.40527.81053.81053,0,0,0-.209.43945,5.15875,5.15875,0,0,0-.03516.85449,8.84064,8.84064,0,0,0,.05957.93652A2.94456,2.94456,0,0,0,57.53418,100.93018Z"></path></svg>