<svg height='100px' width='100px'  fill="#000000" xmlns="http://www.w3.org/2000/svg" xmlns:xlink="http://www.w3.org/1999/xlink" version="1.1" x="0px" y="0px" viewBox="0 0 66 66" enable-background="new 0 0 66 66" xml:space="preserve"><g><path d="M62.9,37.4H64c0.6,0,1-0.4,1-1v-3.9c0-0.6-0.4-1-1-1H48.9c1.9-14.4-9.2-27.3-23.9-27.3C11.8,4.3,1,15.1,1,28.3   c0,13.3,10.8,24.1,24.1,24.1h0v0c1,0,1.9-0.2,2.9-0.7c-0.5,3.2,0.2,6.3,2.1,9.6c0.2,0.3,0.5,0.5,0.9,0.5H64c0.6,0,1-0.4,1-1v-3.9   c0-0.6-0.4-1-1-1h-1.1v0c-0.9,0-0.9-4.2,0-4.2H64c0.6,0,1-0.4,1-1v-3.9v-3.9c0-0.6-0.4-1-1-1h-1.1C62,41.7,62,37.4,62.9,37.4z    M63,35.4L63,35.4H33.5c-0.4,0-0.8,0.2-0.9,0.6c-1.7,4.3-0.3,5.6,0,7c0.2,0.4,0.5,0.6,0.9,0.6h29.5H63v1.9H31.5   c-2.3-4-2.3-7.9,0-12.1h16.3H63V35.4z M26.1,50.3V38.6c0.6,0,1.1,0.1,1.7,0.1c-0.2,2.8,0.6,5.4,2,7.9c-0.3,0.6-0.6,1.2-0.9,1.8   C28.2,49.1,27.2,50,26.1,50.3z M30.9,31.5c-0.4,0-0.7,0.2-0.9,0.5c-0.9,1.5-1.6,3.2-2,4.8c-0.7-0.1-1.3-0.1-2-0.2v-7.3h8.4   c0,0.7,0,1.5-0.1,2.2H30.9z M24.1,18.1c-2.4-0.1-4.8-0.6-7-1.4c1.4-5.2,3.7-9.5,7-10.2V18.1z M24.1,20.1v7.2h-8.4   c0.1-2.7,0.4-5.8,1-8.7C19,19.5,21.5,20,24.1,20.1z M24.1,29.3v7.2c-2.6,0.1-5.1,0.6-7.4,1.5c-0.6-2.9-1-6-1-8.7H24.1z M24.1,38.6   v11.7c-3.3-0.7-5.6-5.1-7-10.2C19.3,39.2,21.7,38.7,24.1,38.6z M26.1,27.3v-7.2c2.6-0.1,5-0.6,7.4-1.5c0.6,2.9,1,5.9,1,8.7H26.1z    M26.1,18.1V6.4c3.2,0.8,5.5,5.1,6.9,10.2C30.8,17.5,28.5,18,26.1,18.1z M30.5,7c3.6,0.9,6.8,2.7,9.6,5.2c-1.6,1.5-3.4,2.7-5.3,3.7   C33.9,12.4,32.5,9.1,30.5,7z M15.3,15.8c-1.9-0.9-3.6-2.2-5.2-3.6c2.6-2.5,5.9-4.3,9.5-5.2C17.6,9.1,16.2,12.3,15.3,15.8z    M14.8,17.8c-0.7,3.2-1.1,6.6-1.1,9.5H3c0.2-5.3,2.3-10,5.6-13.7C10.5,15.4,12.5,16.8,14.8,17.8z M13.6,29.3   c0.1,2.9,0.4,6.3,1.1,9.5c-2.2,1.1-4.3,2.5-6.1,4.2C5.3,39.4,3.3,34.6,3,29.3H13.6z M15.3,40.9c1,3.5,2.4,6.7,4.3,8.8   c-3.6-0.9-6.9-2.8-9.5-5.2C11.6,43,13.4,41.8,15.3,40.9z M36.4,31.5c0-0.7,0.1-1.5,0.1-2.2h10.6c0,0.7-0.1,1.5-0.2,2.2H36.4z    M47.1,27.3H36.5c-0.1-2.7-0.4-6.1-1.2-9.5c2.2-1.1,4.3-2.5,6.2-4.2C45,17.5,46.9,22.4,47.1,27.3z M60.6,55.8H34.2   c-0.6-1.7-0.6-2.5,0-4.2h26.4C60.1,52.8,60.1,54.5,60.6,55.8z M63,49.6L63,49.6L63,49.6c-0.1,0-0.1,0-0.2,0H33.5   c-0.4,0-0.8,0.2-0.9,0.6c-1.1,2.8-1.1,4.2,0,7c0.2,0.4,0.5,0.6,0.9,0.6H63v1.9H31.5c-2.4-4.2-2.3-8.1,0-12.1H63V49.6z M34.2,41.7   c-0.6-1.8-0.6-2.6,0-4.2h26.4c-0.4,1.2-0.4,3,0,4.2H34.2z"></path></g></svg>