<svg height='100px' width='100px'  fill="#000000" xmlns:x="http://ns.adobe.com/Extensibility/1.0/" xmlns:i="http://ns.adobe.com/AdobeIllustrator/10.0/" xmlns:graph="http://ns.adobe.com/Graphs/1.0/" xmlns="http://www.w3.org/2000/svg" xmlns:xlink="http://www.w3.org/1999/xlink" version="1.1" x="0px" y="0px" viewBox="0 0 100 100" style="enable-background:new 0 0 100 100;" xml:space="preserve"><g><g i:extraneous="self"><g><path d="M53.8,22.5H20.9c-1.5,0-2.8,1.2-2.8,2.8c0,1.5,1.2,2.8,2.8,2.8h32.9c1.5,0,2.8-1.2,2.8-2.8     C56.5,23.7,55.3,22.5,53.8,22.5z"></path><path d="M53.8,37.4H20.9c-1.5,0-2.8,1.2-2.8,2.8s1.2,2.8,2.8,2.8h32.9c1.5,0,2.8-1.2,2.8-2.8S55.3,37.4,53.8,37.4z"></path><path d="M45.6,52.4H20.9c-1.5,0-2.8,1.2-2.8,2.8s1.2,2.8,2.8,2.8h24.7c1.5,0,2.8-1.2,2.8-2.8S47.1,52.4,45.6,52.4z"></path><path d="M96.3,80.4L76.7,47.6c-1.1-1.8-2.7-3-4.5-3.6V17.8c0-6.1-5-11-11-11H13.5c-6.1,0-11,5-11,11v68.1c0,1,0.6,2,1.5,2.5     c0.4,0.2,0.8,0.3,1.3,0.3c0.6,0,1.1-0.2,1.6-0.5l20.4-14.6h19.3l-4.1,6.8c-1.6,2.7-1.6,5.9-0.1,8.6c1.5,2.7,4.3,4.3,7.4,4.3H89     c3.1,0,5.9-1.6,7.4-4.3C97.9,86.2,97.9,83,96.3,80.4z M26.4,68.1c-0.6,0-1.1,0.2-1.6,0.5L8,80.5V17.8c0-3,2.5-5.5,5.5-5.5h47.6     c3,0,5.5,2.5,5.5,5.5V44c-1.9,0.6-3.5,1.9-4.5,3.6L49.9,68.1H26.4z M91.6,86.2c-0.3,0.5-1,1.5-2.6,1.5H49.8     c-1.6,0-2.3-1.1-2.6-1.5c-0.3-0.5-0.8-1.7,0-3l19.6-32.8c0.8-1.3,2-1.5,2.6-1.5c0.5,0,1.8,0.1,2.6,1.5l19.6,32.8     C92.3,84.6,91.8,85.8,91.6,86.2z"></path><path d="M69.2,73.8c1.1,0.1,2.1-0.7,2.2-1.8l1-11.5c0-0.2,0-0.4,0-0.5c-0.1-1.7-1.6-2.9-3.3-2.7c-1.7,0.1-2.9,1.6-2.7,3.3l1,11.5     C67.5,72.9,68.2,73.7,69.2,73.8z"></path><circle cx="69.4" cy="79.6" r="3.2"></circle></g></g></g></svg>