<svg height='100px' width='100px'  fill="#000000" xmlns="http://www.w3.org/2000/svg" xmlns:xlink="http://www.w3.org/1999/xlink" version="1.1" x="0px" y="0px" viewBox="0 0 64 64" enable-background="new 0 0 64 64" xml:space="preserve"><g><g><path d="M44.736,11.251c-0.391,0.391-0.391,1.023,0,1.414c0.944,0.944,1.465,2.2,1.465,3.535c0,1.336-0.521,2.592-1.465,3.536    c-0.391,0.391-0.391,1.023,0,1.414c0.195,0.195,0.451,0.293,0.707,0.293s0.512-0.098,0.707-0.293    c1.322-1.321,2.051-3.08,2.051-4.95c0-1.869-0.729-3.628-2.051-4.949C45.76,10.86,45.127,10.86,44.736,11.251z"></path><path d="M13,13h15c0.552,0,1-0.447,1-1s-0.448-1-1-1H13c-0.552,0-1,0.447-1,1S12.448,13,13,13z"></path><path d="M13,19h15c0.552,0,1-0.447,1-1s-0.448-1-1-1H13c-0.552,0-1,0.447-1,1S12.448,19,13,19z"></path><path d="M13,25h15c0.552,0,1-0.447,1-1s-0.448-1-1-1H13c-0.552,0-1,0.447-1,1S12.448,25,13,25z"></path><path d="M13,31h22c0.553,0,1-0.447,1-1s-0.447-1-1-1H13c-0.552,0-1,0.447-1,1S12.448,31,13,31z"></path><path d="M13,37h36c0.553,0,1-0.447,1-1s-0.447-1-1-1H13c-0.552,0-1,0.447-1,1S12.448,37,13,37z"></path><path d="M50,42c0-0.553-0.447-1-1-1H13c-0.552,0-1,0.447-1,1s0.448,1,1,1h36C49.553,43,50,42.553,50,42z"></path><path d="M61,57h-3V36.967C58.057,36.977,58.112,37,58.17,37c0.256,0,0.512-0.098,0.707-0.293l2.83-2.83    c0.391-0.391,0.391-1.023,0-1.414L58,28.756V2c0-0.553-0.447-1-1-1H7C6.448,1,6,1.447,6,2v56c0,2.757,2.243,5,5,5h4h1h41    c2.757,0,5-2.243,5-5C62,57.447,61.553,57,61,57z M59.586,33.17l-1.416,1.416l-0.461-0.462c-0.001,0-0.001-0.001-0.001-0.001    l-6.604-6.613l1.413-1.408L59.586,33.17z M14,58c0,1.654-1.346,3-3,3s-3-1.346-3-3V3h48v23.756l-2.773-2.772    c-0.39-0.39-1.021-0.39-1.411-0.003l-0.712,0.709l-2.16-2.16c1.463-1.781,2.258-3.993,2.258-6.328c0-2.672-1.04-5.183-2.93-7.071    c-1.888-1.89-4.399-2.93-7.07-2.93s-5.183,1.04-7.07,2.93c-1.889,1.889-2.93,4.399-2.93,7.071c0,2.671,1.041,5.182,2.93,7.07    c1.888,1.889,4.399,2.929,7.07,2.929c2.335,0,4.548-0.795,6.328-2.257l2.158,2.158l-0.704,0.701    c-0.391,0.391-0.391,1.023-0.001,1.414L56,35.244V57H15C14.448,57,14,57.447,14,58z M46.857,21.857    c-1.511,1.511-3.52,2.343-5.656,2.343s-4.146-0.832-5.656-2.343c-1.512-1.511-2.344-3.52-2.344-5.656    c0-2.138,0.832-4.146,2.344-5.657c1.511-1.512,3.52-2.344,5.656-2.344s4.146,0.832,5.656,2.344    c1.512,1.511,2.344,3.52,2.344,5.657C49.201,18.338,48.369,20.347,46.857,21.857z M57,61H16h-1h-0.023    c0.008-0.011,0.016-0.021,0.023-0.032v0.028c0.084-0.112,0.16-0.23,0.234-0.35c0.017-0.027,0.037-0.053,0.053-0.08    c0.126-0.211,0.233-0.434,0.329-0.662c0.023-0.057,0.044-0.112,0.065-0.17c0.089-0.237,0.166-0.481,0.218-0.734H57h2.829    C59.416,60.164,58.304,61,57,61z"></path></g></g></svg>