<svg height='100px' width='100px'  fill="#000000" xmlns="http://www.w3.org/2000/svg" data-name="Layer 1" viewBox="0 0 64 64" x="0px" y="0px"><title>text_message</title><path d="M17,39H41a1,1,0,0,0,0-2H17a1,1,0,0,0,0,2Z"></path><path d="M16,28a1,1,0,0,0,1,1H41a1,1,0,0,0,0-2H17A1,1,0,0,0,16,28Z"></path><path d="M41,19a1,1,0,0,0,0-2H29a1,1,0,0,0,0,2Z"></path><path d="M55,2H17a9,9,0,0,0-9,9V49a1,1,0,0,0,2,0V11a7,7,0,0,1,7-7H50.11s0,0,0,0A6.89,6.89,0,0,0,48,9V55a5,5,0,0,1-10,0V53a1,1,0,0,0-1-1H3a1,1,0,0,0-1,1,9,9,0,0,0,9,9H43a7,7,0,0,0,7-7V12H61a1,1,0,0,0,1-1V9A7,7,0,0,0,55,2ZM11,60a7,7,0,0,1-6.93-6H36v1a6.89,6.89,0,0,0,2,4.94l.06.06ZM60,10H50V9A5,5,0,0,1,60,9Z"></path></svg>