<svg height='100px' width='100px'  fill="#000000" xmlns="http://www.w3.org/2000/svg" viewBox="0 0 64 64" x="0px" y="0px"><path d="M16,32a4,4,0,1,0,4,4A4,4,0,0,0,16,32Zm0,6a2,2,0,1,1,2-2A2,2,0,0,1,16,38Z"></path><path d="M36.939,50.344l-1.878-.688L32.007,58.01A3.009,3.009,0,0,1,29.181,60H15a5.006,5.006,0,0,1-5-5V52h4V50H10V47a1,1,0,0,0-1-1H4.421c1.48-4.138,5.851-16.368,6.243-17.723A17.027,17.027,0,0,1,17.6,18.833l-1.108-1.666A19.038,19.038,0,0,0,8.742,27.723C8.387,28.954,4.215,40.65,2.059,46.662A1,1,0,0,0,3,48H8v7a7.009,7.009,0,0,0,7,7H45a1,1,0,0,0,1-1V49H44V60H33.178a4.939,4.939,0,0,0,.71-1.311Z"></path><path d="M42,18a6,6,0,1,0,6,6A6.006,6.006,0,0,0,42,18Zm0,10a4,4,0,1,1,4-4A4,4,0,0,1,42,28Z"></path><path d="M57.981,24a16.8,16.8,0,0,0,3.748-6.329,5.845,5.845,0,0,0-.428-4.616,5,5,0,0,0-1.355-1.474A3.7,3.7,0,0,0,60,11a3.989,3.989,0,0,0-7.884-.87q-1.068.1-2.2.313C48.1,5.281,45.261,2,42,2s-6.1,3.279-7.915,8.436c-5.432-1-9.738-.179-11.386,2.619a5.118,5.118,0,0,0-.675,2.489A3.986,3.986,0,0,0,24,23a3.84,3.84,0,0,0,1.078-.161c.3.387.611.772.945,1.156a16.819,16.819,0,0,0-3.752,6.334,5.845,5.845,0,0,0,.428,4.616c1.2,2.043,3.818,3.036,7.257,3.036a23.25,23.25,0,0,0,4.129-.416C35.9,42.722,38.741,46,42,46a4.7,4.7,0,0,0,1.178-.176,3.991,3.991,0,1,0,5.645-5.642,23.932,23.932,0,0,0,1.1-2.616,23.162,23.162,0,0,0,4.123.415c3.438,0,6.055-.993,7.257-3.036a5.845,5.845,0,0,0,.428-4.616A16.8,16.8,0,0,0,57.981,24ZM56,9a2,2,0,0,1,2,2,1.978,1.978,0,0,1-.131.685A1.992,1.992,0,0,1,54,11.029v0c0-.02,0-.04,0-.063A2,2,0,0,1,56,9Zm-3.836,3.117c.031.107.079.206.119.309.028.074.052.15.085.221a3.968,3.968,0,0,0,.318.571c.01.015.017.032.028.047a3.989,3.989,0,0,0,.45.537c.054.054.114.1.17.152a4.153,4.153,0,0,0,.371.3c.072.051.147.1.222.143a3.945,3.945,0,0,0,.4.216c.081.038.16.074.244.107a4.017,4.017,0,0,0,.467.145c.076.019.149.043.227.058A3.965,3.965,0,0,0,56,15a3.9,3.9,0,0,0,.8-.093c.067-.014.133-.03.2-.048a3.973,3.973,0,0,0,.691-.247c.018-.008.038-.014.057-.023a4.05,4.05,0,0,0,.659-.418c.055-.042.106-.086.159-.13a4.058,4.058,0,0,0,.49-.491c.018-.022.042-.038.059-.06a2.773,2.773,0,0,1,.46.58,3.937,3.937,0,0,1,.219,3.083,14.575,14.575,0,0,1-3.186,5.376,40.565,40.565,0,0,0-4.944-4.183,39.293,39.293,0,0,0-1.152-5.995Q51.36,12.2,52.164,12.117ZM51.9,21.032A37.406,37.406,0,0,1,55.251,24,36.977,36.977,0,0,1,51.9,26.968C51.96,25.991,52,25,52,24S51.96,22,51.9,21.032Zm-2.45-4.2c-.777-.5-1.574-.987-2.4-1.453-.85-.481-1.7-.919-2.543-1.337a36.948,36.948,0,0,1,4.069-1.277A35.288,35.288,0,0,1,49.453,16.835ZM42,4c2.168,0,4.421,2.532,5.982,6.867A41.074,41.074,0,0,0,42.009,12.9a40.4,40.4,0,0,0-5.988-2.038C37.582,6.529,39.834,4,42,4Zm-6.574,8.744a36.479,36.479,0,0,1,4.087,1.291c-.86.424-1.718.866-2.568,1.347-.824.466-1.621.954-2.4,1.453A35.347,35.347,0,0,1,35.426,12.744Zm-9.5,6.788a2,2,0,0,1-.547.9,2.061,2.061,0,0,1-.443.32,1.988,1.988,0,1,1-1.58-3.633A1.966,1.966,0,0,1,24,17a2,2,0,0,1,2,2A1.969,1.969,0,0,1,25.926,19.532ZM24.082,15h0a2.922,2.922,0,0,1,.344-.931c1.1-1.87,4.469-2.554,9.07-1.744a39.277,39.277,0,0,0-1.159,6.02A40.509,40.509,0,0,0,27.4,22.522c-.2-.23-.4-.461-.586-.691.02-.02.035-.046.055-.066a3.992,3.992,0,0,0,.383-.46c.034-.048.069-.1.1-.146a3.983,3.983,0,0,0,.33-.605c.008-.02.013-.041.021-.061a3.945,3.945,0,0,0,.189-.609c.014-.059.027-.117.037-.177A3.87,3.87,0,0,0,28,19a4.032,4.032,0,0,0-.072-.725c-.008-.039-.013-.078-.022-.116a3.86,3.86,0,0,0-.208-.678l-.02-.046A3.935,3.935,0,0,0,24.082,15ZM32.1,26.964A36.592,36.592,0,0,1,28.753,24,37.159,37.159,0,0,1,32.1,21.032C32.04,22,32,22.989,32,24S32.04,25.994,32.1,26.964ZM24.422,33.93a3.937,3.937,0,0,1-.219-3.083,14.582,14.582,0,0,1,3.19-5.38,39.756,39.756,0,0,0,4.94,4.185,39.342,39.342,0,0,0,1.159,6.023C28.891,36.484,25.523,35.8,24.422,33.93Zm10.124-2.768c.779.5,1.574.989,2.4,1.456.856.485,1.71.93,2.56,1.35a36.486,36.486,0,0,1-4.079,1.289A35.37,35.37,0,0,1,34.546,31.162ZM42,43a4.124,4.124,0,0,0,.041.556c.008.057.022.113.033.171.016.09.028.181.051.269-.042,0-.084,0-.125,0-2.166,0-4.416-2.527-5.977-6.853A40.457,40.457,0,0,0,42,35.111a40.576,40.576,0,0,0,5.944,2.027c-.257.709-.527,1.4-.828,2.025l-.014,0a3.665,3.665,0,0,0-.374-.082c-.057-.011-.113-.029-.17-.037A3.859,3.859,0,0,0,46,39,4,4,0,0,0,42,43Zm4,2a2,2,0,0,1,0-4,2.022,2.022,0,0,1,2,2A2,2,0,0,1,46,45Zm2.549-9.751A36.586,36.586,0,0,1,44.5,33.968c.85-.42,1.7-.866,2.559-1.35.818-.463,1.61-.947,2.382-1.443A35.437,35.437,0,0,1,48.549,35.249Zm1.231-6.705c-1.173.816-2.415,1.6-3.71,2.334-1.385.784-2.744,1.467-4.069,2.063-1.326-.6-2.686-1.279-4.071-2.063-1.3-.733-2.537-1.523-3.718-2.346C34.077,27.1,34,25.585,34,24s.077-3.1.212-4.539c1.176-.818,2.42-1.6,3.718-2.339,1.352-.765,2.721-1.448,4.086-2.056,1.32.595,2.674,1.275,4.054,2.056,1.3.735,2.542,1.521,3.718,2.339C49.923,20.9,50,22.413,50,24,50,25.551,49.922,27.071,49.78,28.544Zm9.8,5.386c-1.1,1.868-4.467,2.552-9.067,1.744a39.745,39.745,0,0,0,1.15-6.016,40.673,40.673,0,0,0,4.95-4.187A14.575,14.575,0,0,1,59.8,30.847,3.937,3.937,0,0,1,59.578,33.93Z"></path></svg>