<svg height='100px' width='100px'  fill="#000000" xmlns="http://www.w3.org/2000/svg" xmlns:xlink="http://www.w3.org/1999/xlink" version="1.1" x="0px" y="0px" viewBox="0 0 70 70" enable-background="new 0 0 70 70" xml:space="preserve"><path d="M59,14h-8c-0.5522461,0-1,0.4472656-1,1v43h-2V37c0-0.5527344-0.4477539-1-1-1h-8c-0.5522461,0-1,0.4472656-1,1v21h-2V31  c0-0.5527344-0.4477539-1-1-1h-8c-0.5522461,0-1,0.4472656-1,1v27h-2V43c0-0.5527344-0.4477539-1-1-1h-8  c-0.5522461,0-1,0.4472656-1,1v15h-2V11c0-0.5527344-0.4477539-1-1-1s-1,0.4472656-1,1v48c0,0.5527344,0.4477539,1,1,1h4h8h4h8h4h8  h4h8c0.5522461,0,1-0.4472656,1-1V15C60,14.4472656,59.5522461,14,59,14z M16,58V44h6v14H16z M28,58V32h6v26H28z M40,58V38h6v20H40z   M52,58V16h6v42H52z"></path></svg>