<svg height='100px' width='100px'  fill="#000000" xmlns="http://www.w3.org/2000/svg" xmlns:xlink="http://www.w3.org/1999/xlink" version="1.1" x="0px" y="0px" viewBox="0 0 48 48" enable-background="new 0 0 48 48" xml:space="preserve"><g><path fill="#000000" d="M47.2,20.1L31.3,4.2l-0.7,0.7c0,0,0,0,0,0L19.5,16L7.7,27.9l0.6,0.6c0.1,0.1,0.2,0.2,0.3,0.3l15,15l0.7-0.7   c0,0,0,0,0,0l22.2-22.2c0.1-0.1,0.2-0.2,0.2-0.3L47.2,20.1z M34,30.6L24.6,40V28.9h6.7c0.6,0,1-0.4,1-1v-0.1v-6.6h11.1L34,30.6z    M30.3,8.1v12.1v6.7h-6.7H11.5l9.4-9.4L30.3,8.1z M22.6,28.9V40L11.5,28.9H22.6z M32.3,19.2V8.1l11.1,11.1H32.3z"></path><rect x="5.6" y="12.4" fill="#000000" width="10.5" height="2"></rect><rect x="0.8" y="23" fill="#000000" width="6.8" height="2"></rect><rect x="3.7" y="33.6" fill="#000000" width="7.2" height="2"></rect></g></svg>