<svg height='100px' width='100px'  fill="#000000" xmlns="http://www.w3.org/2000/svg" xmlns:xlink="http://www.w3.org/1999/xlink" xml:space="preserve" version="1.1" style="shape-rendering:geometricPrecision;text-rendering:geometricPrecision;image-rendering:optimizeQuality;" viewBox="0 0 333 333" x="0px" y="0px" fill-rule="evenodd" clip-rule="evenodd"><defs><style type="text/css">
   
    .str0 {stroke:black;stroke-width:9.99606}
    .fil0 {fill:none}
   
  </style></defs><g><path class="fil0 str0" d="M46 25l158 0 0 27c-1,0 -2,-1 -4,-1 -37,0 -67,31 -67,68 0,37 30,67 67,67 2,0 3,0 4,0l0 113 -192 0 0 -240 34 -34z"></path><polygon class="fil0 str0" points="46,25 50,25 50,64 12,64 12,59 "></polygon><line class="fil0 str0" x1="39" y1="90" x2="70" y2="90"></line><line class="fil0 str0" x1="81" y1="90" x2="134" y2="90"></line><line class="fil0 str0" x1="40" y1="114" x2="133" y2="114"></line><line class="fil0 str0" x1="40" y1="135" x2="61" y2="135"></line><line class="fil0 str0" x1="73" y1="135" x2="129" y2="135"></line><line class="fil0 str0" x1="38" y1="156" x2="124" y2="156"></line><line class="fil0 str0" x1="38" y1="175" x2="106" y2="175"></line><line class="fil0 str0" x1="121" y1="175" x2="162" y2="175"></line><line class="fil0 str0" x1="38" y1="194" x2="60" y2="194"></line><line class="fil0 str0" x1="69" y1="194" x2="174" y2="194"></line><circle class="fil0 str0" cx="200" cy="119" r="67"></circle><circle class="fil0 str0" cx="200" cy="119" r="50"></circle><path class="fil0 str0" d="M258 154l57 57 -16 15 -56 -55c6,-5 11,-11 15,-17z"></path><path class="fil0 str0" d="M320 233l1 -2c4,-3 4,-10 0,-13l-6 -7 -16 15 7 7c4,4 10,4 14,0z"></path><line class="fil0 str0" x1="222" y1="165" x2="222" y2="73"></line><line class="fil0 str0" x1="150" y1="114" x2="180" y2="114"></line></g></svg>