<svg height='100px' width='100px'  fill="#000000" xmlns="http://www.w3.org/2000/svg" xmlns:xlink="http://www.w3.org/1999/xlink" version="1.1" x="0px" y="0px" viewBox="0 0 100 100" style="enable-background:new 0 0 100 100;" xml:space="preserve"><g><path d="M86.4,20H13.6c-3.3,0-6,2.7-6,6v48c0,3.3,2.7,6,6,6h72.8c3.3,0,6-2.7,6-6V26C92.4,22.7,89.7,20,86.4,20z M88.4,26v7.7H72.7   V24h13.7C87.5,24,88.4,24.9,88.4,26z M27.3,48H11.6V37.7h15.7V48z M27.3,52v10.3H11.6V52H27.3z M31.3,24h37.5v52H31.3V24z M72.7,52   h15.7v10.3H72.7V52z M72.7,48V37.7h15.7V48H72.7z M13.6,24h13.7v9.7H11.6V26C11.6,24.9,12.5,24,13.6,24z M11.6,74v-7.7h15.7V76   H13.6C12.5,76,11.6,75.1,11.6,74z M86.4,76H72.7v-9.7h15.7V74C88.4,75.1,87.5,76,86.4,76z"></path><path d="M61.9,48.3L42.3,36.5c-0.6-0.4-1.4-0.4-2,0c-0.6,0.4-1,1-1,1.7v23.5c0,0.7,0.4,1.4,1,1.7c0.3,0.2,0.6,0.3,1,0.3   c0.4,0,0.7-0.1,1-0.3l19.6-11.8c0.6-0.4,1-1,1-1.7S62.5,48.6,61.9,48.3z M43.3,58.2V41.8L57,50L43.3,58.2z"></path></g></svg>