<svg height='100px' width='100px'  fill="#000000" xmlns="http://www.w3.org/2000/svg" xmlns:xlink="http://www.w3.org/1999/xlink" version="1.1" x="0px" y="0px" viewBox="0 0 100 100" enable-background="new 0 0 100 100" xml:space="preserve"><path d="M78.36,70.8L56.97,49.41l9.71-14.94c0.19,0.02,0.38,0.03,0.58,0.03c1.34,0,2.59-0.52,3.54-1.46  c0.94-0.95,1.46-2.2,1.46-3.54c0-1.33-0.52-2.59-1.46-3.54c-0.95-0.94-2.2-1.46-3.54-1.46c-1.33,0-2.59,0.52-3.529,1.47  c-0.95,0.94-1.471,2.2-1.471,3.53c0,0.2,0.01,0.39,0.03,0.58L47.36,39.8L25.33,17.77c-0.36-0.36-0.89-0.52-1.39-0.4  c-0.5,0.11-0.91,0.47-1.08,0.96c-5.51,15.38,3.94,29.72,11.66,38.2c-0.01,0.02-0.02,0.05-0.02,0.09v23c0,0.02,0,0.05,0.01,0.07  C28.44,80.21,23.23,82.22,23.23,90.1c0,0.83,0.68,1.4,1.5,1.4h32.3c0,0,1.52-0.57,1.52-1.4c0-0.08-0.01-0.17-0.02-0.25  c-0.11-7.569-5.12-9.59-11.03-10.13V67.77C53.37,71.66,60.63,74.9,68.46,74.9c3.19,0,6.34-0.551,9.35-1.62  c0.48-0.181,0.841-0.58,0.96-1.09C78.88,71.69,78.73,71.17,78.36,70.8z M65.85,28.09c0.381-0.38,0.881-0.59,1.41-0.59  c0.54,0,1.04,0.21,1.42,0.59c0.37,0.37,0.58,0.88,0.58,1.41c0,0.54-0.21,1.04-0.58,1.42c-0.38,0.38-0.89,0.56-1.41,0.56h-0.01  c-0.47,0-0.939-0.15-1.29-0.46c-0.04-0.03-0.08-0.06-0.12-0.1c-0.38-0.38-0.59-0.88-0.59-1.42C65.26,28.97,65.47,28.46,65.85,28.09z   M63.55,32.84c0.05,0.07,0.12,0.14,0.181,0.2c0.06,0.06,0.13,0.12,0.189,0.17l-9.13,14.02l-5.26-5.26L63.55,32.84z M55.45,88.6  H26.32c0.65-5.47,5.17-6.08,14.56-6.08C50.27,82.52,54.8,83.13,55.45,88.6z M44.51,79.55c-1.21-0.03-2.43-0.03-3.63-0.03  c-1.11,0-2.25,0-3.38,0.03V59.63c1.84,1.811,4.22,3.95,7,6.03V79.5C44.5,79.52,44.5,79.53,44.51,79.55z M68.46,71.9  c-12.58,0-23.79-9.33-29.34-14.881C32.08,49.98,21.27,36.33,24.98,21.66l49.5,49.5C72.51,71.65,70.5,71.9,68.46,71.9z   M77.263,31.002c-0.828,0-1.5-0.671-1.5-1.5c0-4.688-3.813-8.501-8.5-8.501c-0.828,0-1.5-0.671-1.5-1.5s0.672-1.5,1.5-1.5  c6.341,0,11.5,5.16,11.5,11.501C78.763,30.331,78.091,31.002,77.263,31.002z M85.265,31.001c-0.828,0-1.5-0.671-1.5-1.5  C83.763,20.403,76.36,13,67.263,13c-0.828,0-1.5-0.671-1.5-1.5s0.672-1.5,1.5-1.5c10.751,0,19.5,8.748,19.502,19.501  C86.765,30.33,86.094,31.001,85.265,31.001z"></path></svg>