<svg height='100px' width='100px'  fill="#000000" xmlns:x="http://ns.adobe.com/Extensibility/1.0/" xmlns:i="http://ns.adobe.com/AdobeIllustrator/10.0/" xmlns:graph="http://ns.adobe.com/Graphs/1.0/" xmlns="http://www.w3.org/2000/svg" xmlns:xlink="http://www.w3.org/1999/xlink" version="1.1" x="0px" y="0px" viewBox="0 0 100 100" style="enable-background:new 0 0 100 100;" xml:space="preserve"><g><g i:extraneous="self"><g><path d="M57.5,17.4c-0.7-0.8-1.9-0.8-2.7,0l-6.6,6.5l-3.1-3.1c-0.8-0.7-2-0.7-2.7,0s-0.7,2,0,2.7l4.5,4.4     c0.4,0.4,0.9,0.5,1.3,0.5c0.5,0,1-0.2,1.3-0.5l7.9-7.8C58.3,19.3,58.3,18.1,57.5,17.4z"></path><path d="M45,75.7h1.4c0.5,0,1-0.4,1.1-0.9c0.2-1.4,1.1-2.1,2.6-2.1c1.4,0,2,0.7,2.2,1.2c0.3,0.6,0.3,1.4-0.1,1.9     c-0.4,0.6-0.8,0.8-1.3,1.2c-1.2,0.8-2.2,1.7-2.4,4.2c0,0.3,0.1,0.6,0.3,0.8c0.2,0.2,0.5,0.4,0.8,0.4H51c0.6,0,1-0.4,1.1-1     c0.1-0.9,0.3-1.1,0.9-1.5c0.6-0.4,1.3-0.9,2.1-2c1.2-1.6,1.4-3.8,0.4-5.6h0c-1-2-3-3.1-5.4-3.1c-3.9,0-5.7,2.7-6.1,5.3     c0,0.3,0,0.6,0.3,0.9C44.4,75.6,44.7,75.7,45,75.7z"></path><circle cx="50.3" cy="85.9" r="2.1"></circle><path d="M11.3,75.7h1.4c0.5,0,1-0.4,1.1-0.9c0.2-1.4,1.1-2.1,2.6-2.1c1.4,0,2,0.7,2.2,1.2c0.3,0.6,0.3,1.4-0.1,1.9     c-0.4,0.6-0.8,0.8-1.3,1.2c-1.2,0.8-2.2,1.7-2.4,4.2c0,0.3,0.1,0.6,0.3,0.8c0.2,0.2,0.5,0.4,0.8,0.4h1.4c0.6,0,1-0.4,1.1-1     c0.1-0.9,0.3-1.1,0.9-1.5c0.6-0.4,1.3-0.9,2.1-2c1.2-1.6,1.4-3.8,0.4-5.6h0c-1-2-3-3.1-5.4-3.1c-3.9,0-5.7,2.7-6.1,5.3     c0,0.3,0,0.6,0.3,0.9C10.7,75.6,11,75.7,11.3,75.7z"></path><circle cx="16.5" cy="85.9" r="2.1"></circle><path d="M95.6,61.9h-9.9V50.6c0-1.1-0.9-1.9-1.9-1.9H51.9v-8.9c8.8-1,15.7-8.4,15.7-17.5c0-9.7-7.9-17.6-17.6-17.6     s-17.6,7.9-17.6,17.6c0,9.1,6.9,16.5,15.7,17.5v8.9H16.3c-1.1,0-1.9,0.9-1.9,1.9v11.3H4.4c-1.1,0-1.9,0.9-1.9,1.9v29.6     c0,1.1,0.9,1.9,1.9,1.9h23.7c1.1,0,1.9-0.9,1.9-1.9V63.8c0-1.1-0.9-1.9-1.9-1.9h-9.9v-9.4h29.9v9.4h-9.9c-1.1,0-1.9,0.9-1.9,1.9     v29.6c0,1.1,0.9,1.9,1.9,1.9h23.7c1.1,0,1.9-0.9,1.9-1.9V63.8c0-1.1-0.9-1.9-1.9-1.9h-9.9v-9.4h29.9v9.4h-9.9     c-1.1,0-1.9,0.9-1.9,1.9v29.6c0,1.1,0.9,1.9,1.9,1.9h23.7c1.1,0,1.9-0.9,1.9-1.9V63.8C97.5,62.8,96.6,61.9,95.6,61.9z M36.2,22.3     c0-7.6,6.2-13.8,13.8-13.8c7.6,0,13.8,6.2,13.8,13.8c0,7.6-6.2,13.8-13.8,13.8C42.4,36.1,36.2,29.9,36.2,22.3z M26.2,91.5H6.3     V65.7h19.9V91.5z M59.9,91.5H40.1V65.7h19.9V91.5z M93.7,91.5H73.8V65.7h19.9V91.5z"></path><path d="M78.8,75.7h1.4c0.5,0,1-0.4,1.1-0.9c0.2-1.4,1.1-2.1,2.6-2.1c1.4,0,2,0.7,2.2,1.2c0.3,0.6,0.3,1.4-0.1,1.9     c-0.4,0.6-0.8,0.8-1.3,1.2c-1.2,0.8-2.2,1.7-2.4,4.2c0,0.3,0.1,0.6,0.3,0.8c0.2,0.2,0.5,0.4,0.8,0.4h1.4c0.6,0,1-0.4,1.1-1     c0.1-0.9,0.3-1.1,0.9-1.5c0.6-0.4,1.3-0.9,2.1-2c1.2-1.6,1.4-3.8,0.4-5.6h0c-1-2-3-3.1-5.4-3.1c-3.9,0-5.7,2.7-6.1,5.3     c0,0.3,0,0.6,0.3,0.9C78.2,75.6,78.5,75.7,78.8,75.7z"></path><circle cx="84" cy="85.9" r="2.1"></circle></g></g></g></svg>