<svg height='100px' width='100px'  fill="#000000" xmlns="http://www.w3.org/2000/svg" xmlns:xlink="http://www.w3.org/1999/xlink" xml:space="preserve" version="1.0" style="shape-rendering:geometricPrecision;text-rendering:geometricPrecision;image-rendering:optimizeQuality;" viewBox="0 0 10000 10000" x="0px" y="0px" fill-rule="evenodd" clip-rule="evenodd"><defs><style type="text/css">
   
    .fil0 {fill:#000000;fill-rule:nonzero}
   
  </style></defs><g><path class="fil0" d="M1262 8244c-108,0 -193,-86 -190,-205l-72 -6090c-1,-106 84,-192 190,-192l0 -1 2540 0c54,0 103,23 138,59l666 667 3260 0c105,0 190,85 190,190l0 1213 826 0 0 0c124,0 216,118 183,239l-1063 3968c-18,87 -95,152 -186,152l-6482 0zm236 -381l6100 0 964 -3597c-2097,0 -4195,0 -6292,0l-772 3597zm619 -3978l5486 0 0 -1022 -3148 0c-48,0 -97,-19 -134,-56l-670 -670 -2269 0 50 4221 496 -2311c14,-92 93,-162 189,-162z"></path></g></svg>