<svg height='100px' width='100px'  fill="#000000" xmlns:x="http://ns.adobe.com/Extensibility/1.0/" xmlns:i="http://ns.adobe.com/AdobeIllustrator/10.0/" xmlns:graph="http://ns.adobe.com/Graphs/1.0/" xmlns="http://www.w3.org/2000/svg" xmlns:xlink="http://www.w3.org/1999/xlink" version="1.1" x="0px" y="0px" viewBox="0 0 100 100" style="enable-background:new 0 0 100 100;" xml:space="preserve"><g><g i:extraneous="self"><path d="M87.7,54.2l-4.1-1.9c-0.8-0.4-1.5-0.8-2.2-1.3c2.7-3,4.4-7.2,4.4-11.8c0-9-6.4-16.4-14.3-16.4s-14.3,7.3-14.3,16.4    c0,4.6,1.7,8.8,4.4,11.8c-0.7,0.5-1.4,0.9-2.2,1.3l-4.1,1.9c-0.8,0.4-1.5,0.8-2.3,1.2c-1.7-3.5-4.5-6.4-8.2-8l-4.1-1.9    c-0.8-0.4-1.5-0.8-2.2-1.3c2.7-3,4.4-7.2,4.4-11.8c0-9-6.4-16.4-14.3-16.4c-7.9,0-14.3,7.3-14.3,16.4c0,4.6,1.7,8.8,4.4,11.8    c-0.7,0.5-1.4,0.9-2.2,1.3l-4.1,1.9c-6,2.7-9.9,8.7-9.9,15.3v7.2c0,4,3.3,7.3,7.3,7.3h35.6c0.3,3.8,3.4,6.8,7.3,6.8h37.5    c4,0,7.3-3.3,7.3-7.3v-7.2C97.5,62.9,93.6,56.9,87.7,54.2z M71.4,26.6c5.9,0,10.6,5.7,10.6,12.7c0,7-4.8,12.7-10.6,12.7    s-10.6-5.7-10.6-12.7C60.8,32.2,65.6,26.6,71.4,26.6z M28.6,19.8c5.9,0,10.6,5.7,10.6,12.7c0,7-4.8,12.7-10.6,12.7    c-5.9,0-10.6-5.7-10.6-12.7C17.9,25.5,22.7,19.8,28.6,19.8z M45.4,69.4v4H9.8c-2,0-3.6-1.6-3.6-3.6v-7.2c0-5.1,3-9.8,7.7-11.9    l4.1-1.9c1.3-0.6,2.5-1.3,3.6-2.2c2.1,1.3,4.5,2.1,7,2.1s4.9-0.8,7-2.1c1.1,0.9,2.3,1.6,3.6,2.2l4.1,1.9c3.2,1.4,5.6,4,6.8,7.1    C47.1,60.9,45.4,65.1,45.4,69.4z M93.8,76.6c0,2-1.6,3.6-3.6,3.6H52.7c-2,0-3.6-1.6-3.6-3.6v-7.2c0-5.1,3-9.8,7.7-11.9l4.1-1.9    c1.3-0.6,2.5-1.3,3.6-2.2c2.1,1.3,4.5,2.1,7,2.1c2.5,0,4.9-0.8,7-2.1c1.1,0.9,2.3,1.6,3.6,2.2l4.1,1.9v0c4.7,2.1,7.7,6.8,7.7,11.9    V76.6z"></path></g></g></svg>