<svg height='100px' width='100px'  fill="#000000" xmlns:dc="http://purl.org/dc/elements/1.1/" xmlns:cc="http://creativecommons.org/ns#" xmlns:rdf="http://www.w3.org/1999/02/22-rdf-syntax-ns#" xmlns:svg="http://www.w3.org/2000/svg" xmlns="http://www.w3.org/2000/svg" xmlns:sodipodi="http://sodipodi.sourceforge.net/DTD/sodipodi-0.dtd" xmlns:inkscape="http://www.inkscape.org/namespaces/inkscape" viewBox="0 0 32 32.000001" version="1.1" x="0px" y="0px"><g transform="translate(0,-1020.3622)"><path style="color:#000000;font-style:normal;font-variant:normal;font-weight:normal;font-stretch:normal;font-size:medium;line-height:normal;font-family:sans-serif;text-indent:0;text-align:start;text-decoration:none;text-decoration-line:none;text-decoration-style:solid;text-decoration-color:#000000;letter-spacing:normal;word-spacing:normal;text-transform:none;direction:ltr;block-progression:tb;writing-mode:lr-tb;baseline-shift:baseline;text-anchor:start;white-space:normal;clip-rule:nonzero;display:inline;overflow:visible;visibility:visible;opacity:1;isolation:auto;mix-blend-mode:normal;color-interpolation:sRGB;color-interpolation-filters:linearRGB;solid-color:#000000;solid-opacity:1;fill:#000000;fill-opacity:1;fill-rule:nonzero;stroke:none;stroke-width:1;stroke-linecap:round;stroke-linejoin:round;stroke-miterlimit:4;stroke-dasharray:none;stroke-dashoffset:0.40000001;stroke-opacity:1;color-rendering:auto;image-rendering:auto;shape-rendering:auto;text-rendering:auto;enable-background:accumulate" d="m 16.095703,2.0019531 0,0.00195 c -0.560297,-0.021 -1.126826,0.1437 -1.599609,0.5 l -0.002,0 C 13.712243,3.0933961 13.370984,4.0731232 13.560547,5 L 11.5,5 c -0.276145,0.00431 -0.496509,0.2316675 -0.492188,0.5078125 L 11,5.4960938 11,6 6.5,6 6.5,6.0056311 6,6 6,29.5 c 2.76e-5,0.276131 0.2238691,0.499972 0.5,0.5 l 19,0 c 0.276131,-2.8e-5 0.499972,-0.223869 0.5,-0.5 L 26,6.0067615 25.5,6.0016852 25.5,6 21,6 l 0,-0.5058594 -0.0078,0.00977 C 20.99434,5.2292778 20.774603,5.0043095 20.5,5 L 18.445312,5 C 18.619354,4.1419859 18.336882,3.2264988 17.652344,2.6230469 17.208273,2.2315469 16.656,2.0234531 16.095703,2.0019531 Z M 16.058594,3 c 0.335173,0.012713 0.665346,0.1366469 0.933594,0.3730469 0.536538,0.473 0.664046,1.2504937 0.308593,1.8710937 -0.125012,0.2192059 -0.06724,0.4971956 0.134766,0.6484375 l 0.002,0.00195 c 0.0064,0.00471 0.01291,0.00927 0.01953,0.013672 0.01262,0.00907 0.02566,0.017539 0.03906,0.025391 l 0.0098,0.00391 C 17.580569,5.9788349 17.664618,6.0003516 17.75,6 L 20,6 20,6.4179688 c -0.009,0.054315 -0.009,0.1097479 0,0.1640624 l 0,1.8359376 c -0.009,0.054315 -0.009,0.1097479 0,0.1640624 L 20,9 12,9 12,8.578125 c 0.0086,-0.053039 0.0086,-0.1071175 0,-0.1601562 L 12,6.578125 c 0.0086,-0.053039 0.0086,-0.1071175 0,-0.1601562 L 12,6 14.25,6 c 0.394342,0.00592 0.640015,-0.425667 0.433594,-0.7617188 -0.0098,-0.032495 -0.02289,-0.063907 -0.03906,-0.09375 C 14.337578,4.4985313 14.526539,3.7332344 15.097656,3.3027344 15.383249,3.0874844 15.723421,2.9872875 16.058594,3 Z M 7,7 11,7 11,8 8.5,8 C 8.2238691,8.0000276 8.0000276,8.2238691 8,8.5 l 0,19 c 2.76e-5,0.276131 0.2238691,0.499972 0.5,0.5 l 11.908203,0 c 0.18751,0.03466 0.378413,-0.04033 0.492188,-0.193359 l 2.910156,-2.908203 C 23.957919,24.785813 24.030845,24.600867 24,24.417969 L 24,8.5 C 23.999972,8.2238691 23.776131,8.0000276 23.5,8 L 21,8 21,7 25,7 25,29 7,29 Z m 2,2 2,0 0,0.4960938 c 4.43e-4,0.2163259 0.139939,0.4078378 0.345703,0.4746093 0.01475,0.00526 0.02974,0.00982 0.04492,0.013672 l 0.01367,0 c 0.0078,1.831e-4 0.01563,1.831e-4 0.02344,0 0.02189,0.00474 0.04408,0.008 0.06641,0.00977 l 0.0059,0 9,0 c 0.276131,-2.76e-5 0.499972,-0.223869 0.5,-0.5 L 21,9 l 2,0 0,15.001953 -2.5,0 c -0.276131,2.8e-5 -0.499972,0.223869 -0.5,0.5 L 20,27 9,27 Z m 4.509766,3 c -0.12976,0.0036 -0.253031,0.05754 -0.34375,0.150391 l -1.65625,1.644531 -0.652344,-0.646484 c -0.472611,-0.489355 -1.1970367,0.239083 -0.705078,0.708984 l 1.003906,0.998047 c 0.195039,0.193886 0.510039,0.193886 0.705078,0 l 2.007813,-1.996094 C 14.196416,12.542887 13.964914,11.989293 13.509766,12 Z m 1.947265,0 c -0.666666,0.03385 -0.615885,1.033854 0.05078,1 l 3,0 c 0.676161,0.0096 0.676161,-1.009563 0,-1 l -3,0 c -0.01692,-8.6e-4 -0.03386,-8.6e-4 -0.05078,0 z m 0.01172,2 c -0.666666,0.03385 -0.615885,1.033854 0.05078,1 l 5.960938,0 c 0.676161,0.0096 0.676161,-1.009563 0,-1 l -5.960938,0 c -0.01692,-8.6e-4 -0.03387,-8.6e-4 -0.05078,0 z m -1.958984,3 c -0.12976,0.0036 -0.253031,0.05754 -0.34375,0.150391 l -1.65625,1.644531 -0.652344,-0.646484 c -0.472611,-0.489355 -1.1970367,0.239083 -0.705078,0.708984 l 1.003906,0.998047 c 0.195039,0.193886 0.510039,0.193886 0.705078,0 l 2.007813,-1.996094 C 14.196416,17.542887 13.964914,16.989293 13.509766,17 Z m 1.947265,0 c -0.666666,0.03385 -0.615885,1.033854 0.05078,1 l 3,0 c 0.676161,0.0096 0.676161,-1.009563 0,-1 l -3,0 c -0.01692,-8.6e-4 -0.03386,-8.6e-4 -0.05078,0 z m 0.01172,2 c -0.666666,0.03385 -0.615885,1.033854 0.05078,1 l 5.960938,0 c 0.676161,0.0096 0.676161,-1.009563 0,-1 l -5.960938,0 c -0.01692,-8.6e-4 -0.03387,-8.6e-4 -0.05078,0 z m -1.958984,3 c -0.12976,0.0036 -0.253031,0.05754 -0.34375,0.150391 l -1.65625,1.644531 -0.652344,-0.646484 c -0.472611,-0.489355 -1.1970367,0.239083 -0.705078,0.708984 l 1.003906,0.998047 c 0.195039,0.193886 0.510039,0.193886 0.705078,0 l 2.007813,-1.996094 C 14.196416,22.542887 13.964914,21.989293 13.509766,22 Z m 1.947265,0 c -0.666666,0.03385 -0.615885,1.033854 0.05078,1 l 3,0 c 0.676161,0.0096 0.676161,-1.009563 0,-1 l -3,0 c -0.01692,-8.6e-4 -0.03386,-8.6e-4 -0.05078,0 z m 0.01172,2 c -0.666666,0.03385 -0.615885,1.033854 0.05078,1 l 2.960938,0 c 0.676161,0.0096 0.676161,-1.009563 0,-1 l -2.960938,0 c -0.01692,-8.6e-4 -0.03387,-8.6e-4 -0.05078,0 z M 21,25.001953 l 1.292969,0 L 21,26.292969 Z" transform="translate(0,1020.3622)"></path></g></svg>