<svg height='100px' width='100px'  fill="#000000" xmlns="http://www.w3.org/2000/svg" xmlns:xlink="http://www.w3.org/1999/xlink" xml:space="preserve" version="1.1" style="shape-rendering:geometricPrecision;text-rendering:geometricPrecision;image-rendering:optimizeQuality;" viewBox="0 0 846.66 846.66" x="0px" y="0px" fill-rule="evenodd" clip-rule="evenodd"><defs><style type="text/css">
   
    .fil0 {fill:#000000}
   
  </style></defs><g><path class="fil0" d="M773.85 27.11l0 715.01 -280.42 0c3.36,-10.97 5.24,-22.49 5.37,-34.3l240.75 0 0 -646.41 -69.23 0 0 40.44c14.42,6.53 24.45,21.04 24.45,37.9 0,22.98 -18.62,41.6 -41.6,41.6 -22.97,0 -41.6,-18.62 -41.6,-41.6 0,-16.86 10.04,-31.37 24.45,-37.9l0 -40.44 -86.09 0 0 40.44c14.41,6.53 24.45,21.04 24.45,37.9 0,22.98 -18.63,41.6 -41.6,41.6 -22.98,0 -41.6,-18.62 -41.6,-41.6 0,-16.86 10.03,-31.37 24.45,-37.9l0 -40.44 -86.08 0 0 40.44c14.42,6.53 24.45,21.04 24.45,37.9 0,22.98 -18.63,41.6 -41.6,41.6 -22.97,0 -41.6,-18.62 -41.6,-41.6 0,-16.86 10.03,-31.37 24.45,-37.9l0 -40.44 -86.08 0 0 40.44c14.42,6.53 24.45,21.04 24.45,37.9 0,22.98 -18.62,41.6 -41.6,41.6 -22.97,0 -41.6,-18.62 -41.6,-41.6 0,-16.86 10.04,-31.37 24.45,-37.9l0 -40.44 -69.22 0 0 316.81c-11.62,-3.63 -23.17,-4.99 -34.3,-4.38l0 -346.73c200.83,0 401.67,0 602.5,0zm-676.79 516.55l210.96 210.95c85.04,85.04 198.01,-27.93 112.96,-112.97l-198.33 -198.35c-59.67,-59.67 -132.9,14.45 -74.89,72.46l197.16 197.17c27.02,27.02 61.61,-7.14 34.38,-34.38l-195.62 -195.61 24.25 -24.26 195.62 195.62c59.16,59.16 -23.57,142.2 -82.88,82.88l-197.16 -197.16c-90.11,-90.12 31.69,-212.67 123.39,-120.97l198.34 198.35c117.15,117.15 -44.32,278.62 -161.48,161.47l-210.95 -210.95 24.25 -24.25z"></path></g></svg>