<svg height='100px' width='100px'  fill="#000000" xmlns:dc="http://purl.org/dc/elements/1.1/" xmlns:cc="http://creativecommons.org/ns#" xmlns:rdf="http://www.w3.org/1999/02/22-rdf-syntax-ns#" xmlns:svg="http://www.w3.org/2000/svg" xmlns="http://www.w3.org/2000/svg" xmlns:sodipodi="http://sodipodi.sourceforge.net/DTD/sodipodi-0.dtd" xmlns:inkscape="http://www.inkscape.org/namespaces/inkscape" viewBox="0 0 16.933333 16.933334" version="1.1" x="0px" y="0px"><g transform="translate(0,-280.06665)"><path style="color:#000000;font-style:normal;font-variant:normal;font-weight:normal;font-stretch:normal;font-size:medium;line-height:normal;font-family:sans-serif;font-variant-ligatures:normal;font-variant-position:normal;font-variant-caps:normal;font-variant-numeric:normal;font-variant-alternates:normal;font-feature-settings:normal;text-indent:0;text-align:start;text-decoration:none;text-decoration-line:none;text-decoration-style:solid;text-decoration-color:#000000;letter-spacing:normal;word-spacing:normal;text-transform:none;writing-mode:lr-tb;direction:ltr;text-orientation:mixed;dominant-baseline:auto;baseline-shift:baseline;text-anchor:start;white-space:normal;shape-padding:0;clip-rule:nonzero;display:inline;overflow:visible;visibility:visible;opacity:1;isolation:auto;mix-blend-mode:normal;color-interpolation:sRGB;color-interpolation-filters:linearRGB;solid-color:#000000;solid-opacity:1;vector-effect:none;fill:#000000;fill-opacity:1;fill-rule:nonzero;stroke:none;stroke-width:0.5291667;stroke-linecap:butt;stroke-linejoin:miter;stroke-miterlimit:4;stroke-dasharray:none;stroke-dashoffset:0;stroke-opacity:1;color-rendering:auto;image-rendering:auto;shape-rendering:auto;text-rendering:auto;enable-background:accumulate" d="m 5.9785156,285.62891 v 5.9414 l 5.1464844,-2.9707 -0.398438,-0.22852 z m 0.5292969,0.91601 3.5585935,2.05469 -3.5585935,2.05469 z m 9.7167965,5.75781 v 2.64649 h 0.529297 v -2.64649 z m -2.646484,0 v 2.64649 h 0.529297 v -2.64649 z m -2.644531,0 v 2.64649 h 0.529297 v -2.64649 z m -2.6464846,0 v 2.64649 h 0.5292968 v -2.64649 z m -2.6464844,0 v 2.64649 h 0.5292969 v -2.64649 z m -2.6445312,0 v 2.64649 h 0.5292968 v -2.64649 z m -2.64648442,0 v 2.64649 h 0.52929687 v -2.64649 z M 16.224609,282.25 v 2.64453 h 0.529297 V 282.25 Z m -2.646484,0 v 2.64453 h 0.529297 V 282.25 Z m -2.644531,0 v 2.64453 h 0.529297 V 282.25 Z m -2.6464846,0 v 2.64453 H 8.8164062 V 282.25 Z m -2.6464844,0 v 2.64453 H 6.1699219 V 282.25 Z m -2.6445312,0 v 2.64453 H 3.5253906 V 282.25 Z m -2.64648442,0 v 2.64453 H 0.87890625 V 282.25 Z m 0,2.38086 v 0.26367 7.67383 H 16.753906 v -7.9375 z m 0.52929687,0.5293 H 16.224609 v 6.8789 H 0.87890625 Z M 0.34960938,281.98438 V 282.25 295.21484 H 16.753906 v -13.23046 z m 0.52929687,0.52929 H 16.224609 v 12.17188 H 0.87890625 Z"></path></g></svg>