<svg height='100px' width='100px'  fill="#000000" xmlns="http://www.w3.org/2000/svg" data-name="Layer 1" viewBox="0 0 66 66" x="0px" y="0px"><path d="M56,21a1,1,0,0,1-.71-.29,1,1,0,0,1,0-1.42l.92-.92a1,1,0,0,0,.3-.7,1,1,0,0,0-.29-.7l-2.4-2.4a1,1,0,0,0-1.41,0l-.93.94A1,1,0,0,1,50,14.12l.93-.93a3.06,3.06,0,0,1,4.25,0l2.4,2.39a3,3,0,0,1,0,4.24l-.91.92A1,1,0,0,1,56,21Z"></path><path d="M10.05,21a1,1,0,0,1-.71-.29l-.92-.92a3,3,0,0,1,0-4.24l2.4-2.4a3,3,0,0,1,2.12-.88h0a2.94,2.94,0,0,1,2.12.89l.93.92a1,1,0,0,1-1.42,1.42l-.93-.93a1,1,0,0,0-.7-.3h0a1,1,0,0,0-.7.29L9.83,17a.93.93,0,0,0-.29.7,1,1,0,0,0,.29.7l.93.92a1,1,0,0,1,0,1.42A1,1,0,0,1,10.05,21Z"></path><path d="M36.6,13h-.14a25.06,25.06,0,0,0-6.92,0,1,1,0,0,1-.79-.23A1,1,0,0,1,28.4,12V6.61a1,1,0,0,1,1-1h7.2a1,1,0,0,1,1,1V12a1,1,0,0,1-.34.76A1.07,1.07,0,0,1,36.6,13ZM33,10.79c.88,0,1.75,0,2.6.12V7.61H30.4v3.3C31.25,10.83,32.12,10.79,33,10.79Z"></path><path d="M38.25,7.62H27.75a3.31,3.31,0,1,1,0-6.62h10.5a3.31,3.31,0,1,1,0,6.62ZM27.75,3a1.31,1.31,0,1,0,0,2.62h10.5a1.31,1.31,0,1,0,0-2.62Z"></path><path d="M33,65A27.11,27.11,0,1,1,60.1,37.9,27.13,27.13,0,0,1,33,65Zm0-52.21A25.11,25.11,0,1,0,58.1,37.9,25.13,25.13,0,0,0,33,12.79Z"></path><path d="M33,60A22.11,22.11,0,1,1,55.1,37.9,22.13,22.13,0,0,1,33,60Zm0-42.21A20.11,20.11,0,1,0,53.1,37.9,20.12,20.12,0,0,0,33,17.79Z"></path><path d="M33,22.76a1,1,0,0,1-1-1v-1.6a1,1,0,1,1,2,0v1.6A1,1,0,0,1,33,22.76Z"></path><path d="M33,56.64a1,1,0,0,1-1-1V54a1,1,0,0,1,2,0v1.61A1,1,0,0,1,33,56.64Z"></path><path d="M44.41,27.48a1,1,0,0,1-.71-1.7l1.14-1.14a1,1,0,0,1,1.41,0,1,1,0,0,1,0,1.42l-1.13,1.13A1,1,0,0,1,44.41,27.48Z"></path><path d="M20.46,51.44a1,1,0,0,1-.71-1.71l1.13-1.13a1,1,0,0,1,1.41,0,1,1,0,0,1,0,1.41l-1.13,1.14A1,1,0,0,1,20.46,51.44Z"></path><path d="M50.74,38.9h-1.6a1,1,0,0,1,0-2h1.6a1,1,0,0,1,0,2Z"></path><path d="M16.86,38.9h-1.6a1,1,0,1,1,0-2h1.6a1,1,0,0,1,0,2Z"></path><path d="M45.54,51.44a1,1,0,0,1-.7-.29L43.7,50a1,1,0,0,1,0-1.41,1,1,0,0,1,1.42,0l1.13,1.13a1,1,0,0,1-.71,1.71Z"></path><path d="M21.59,27.48a1,1,0,0,1-.71-.29l-1.13-1.13a1,1,0,0,1,0-1.42,1,1,0,0,1,1.41,0l1.13,1.14a1,1,0,0,1,0,1.41A1,1,0,0,1,21.59,27.48Z"></path><path d="M45.54,51.44a1,1,0,0,1-.7-.29L43.7,50a1,1,0,0,1,0-1.41,1,1,0,0,1,1.42,0l1.13,1.13a1,1,0,0,1-.71,1.71Z"></path><path d="M21.59,27.48a1,1,0,0,1-.71-.29l-1.13-1.13a1,1,0,0,1,0-1.42,1,1,0,0,1,1.41,0l1.13,1.14a1,1,0,0,1,0,1.41A1,1,0,0,1,21.59,27.48Z"></path><path d="M45.54,51.44a1,1,0,0,1-.7-.29L43.7,50a1,1,0,0,1,0-1.41,1,1,0,0,1,1.42,0l1.13,1.13a1,1,0,0,1-.71,1.71Z"></path><path d="M21.59,27.48a1,1,0,0,1-.71-.29l-1.13-1.13a1,1,0,0,1,0-1.42,1,1,0,0,1,1.41,0l1.13,1.14a1,1,0,0,1,0,1.41A1,1,0,0,1,21.59,27.48Z"></path><path d="M27.68,41.94a1,1,0,0,1-.87-.51,1,1,0,0,1,.38-1.36l2.59-1.44a1,1,0,1,1,1,1.74l-2.59,1.44A1,1,0,0,1,27.68,41.94Z"></path><path d="M35.88,37.38a1,1,0,0,1-.87-.51,1,1,0,0,1,.38-1.36l6.71-3.74a1,1,0,0,1,1,1.74l-6.71,3.74A1,1,0,0,1,35.88,37.38Z"></path><path d="M33.08,42.15A4.21,4.21,0,0,1,29.4,40h0a4.16,4.16,0,0,1-.37-3.2,4.2,4.2,0,0,1,5.2-2.9,4.17,4.17,0,0,1,2.52,2,4.22,4.22,0,0,1-1.63,5.73A4.14,4.14,0,0,1,33.08,42.15ZM31.15,39a2.2,2.2,0,1,0-.2-1.67,2.17,2.17,0,0,0,.2,1.67Z"></path></svg>