<svg height='100px' width='100px'  fill="#000000" xmlns="http://www.w3.org/2000/svg" viewBox="0 0 64 64" x="0px" y="0px"><title>Library</title><g><path d="M7,53a1.07,1.07,0,0,1-.46-.11A1,1,0,0,1,6,52V25a1,1,0,0,1,1.58-.81l18.75,13.5a1,1,0,0,1,0,1.62L7.58,52.81A.94.94,0,0,1,7,53ZM8,27v23.1L24,38.5Z"></path><path d="M57,53a.94.94,0,0,1-.58-.19L37.67,39.31a1,1,0,0,1,0-1.62l18.75-13.5A1,1,0,0,1,58,25V52a1,1,0,0,1-.54.89A1.07,1.07,0,0,1,57,53ZM40,38.5,56,50.05V27Z"></path><path d="M7,26a1,1,0,0,1-.81-.42,1,1,0,0,1,.23-1.39l7-5a1,1,0,0,1,1.16,1.62l-7,5A1,1,0,0,1,7,26Z"></path><path d="M57,26a1,1,0,0,1-.58-.19l-7-5a1,1,0,0,1,1.16-1.62l7,5a1,1,0,0,1,.23,1.39A1,1,0,0,1,57,26Z"></path><path d="M57,58H7a1,1,0,0,1-1-1V52a1,1,0,0,1,.42-.81l19-13.68a11.23,11.23,0,0,1,13.16,0l19,13.68A1,1,0,0,1,58,52v5A1,1,0,0,1,57,58ZM8,56H56V52.51L37.42,39.13a9.27,9.27,0,0,0-10.84,0L8,52.51Z"></path><path d="M38.25,39.5a.94.94,0,0,1-.58-.19l-.25-.18a9.27,9.27,0,0,0-10.84,0l-.25.18a1,1,0,0,1-1.16,0L13.42,30.85A1,1,0,0,1,13,30V7a1,1,0,0,1,1-1H42a1,1,0,0,1,.71.29l8,8A1,1,0,0,1,51,15V30a1,1,0,0,1-.42.81L38.83,39.31A.94.94,0,0,1,38.25,39.5ZM15,29.53l10.76,7.74a11.25,11.25,0,0,1,12.48,0L49,29.53V15.41L41.59,8H15Z"></path><path d="M50,16H42a1,1,0,0,1-1-1V7a1,1,0,0,1,.62-.92,1,1,0,0,1,1.09.21l8,8a1,1,0,0,1,.21,1.09A1,1,0,0,1,50,16Zm-7-2h4.59L43,9.41Z"></path><path d="M43,21H21a1,1,0,0,1,0-2H43a1,1,0,0,1,0,2Z"></path><path d="M43,27H21a1,1,0,0,1,0-2H43a1,1,0,0,1,0,2Z"></path><path d="M43,33H21a1,1,0,0,1,0-2H43a1,1,0,0,1,0,2Z"></path><path d="M29,15H21a1,1,0,0,1,0-2h8a1,1,0,0,1,0,2Z"></path></g></svg>