<svg height='100px' width='100px'  fill="#000000" xmlns="http://www.w3.org/2000/svg" xmlns:xlink="http://www.w3.org/1999/xlink" version="1.1" x="0px" y="0px" viewBox="0 0 512 512" enable-background="new 0 0 512 512" xml:space="preserve"><path d="M487.312,288.375l1.844-3.234c15.078-26.203,22.719-54.203,22.719-83.219  C511.875,90.594,397.094,0,256,0S0.125,90.594,0.125,201.922c0,46.047,19.172,89.422,55.469,125.469l2.047,2.062L41.375,433.422  c-0.078,0.531-0.141,1.047-0.141,1.594c0,6.141,6.75,10.703,12.344,8.516l126.281-48.797l4.531,1.109l2.328,2.906  c22.844,53.562,86.453,89.547,158.266,89.547c16.625,0,32.984-1.922,48.641-5.672l1.75-0.422l75.875,29.266  c0.797,0.188,2.516,0.531,3.062,0.531c5.016,0,9.094-4.078,9.094-9.109c-0.016-0.594-0.156-1.656-0.156-1.703l-9.453-60.719  l2.078-2.047c23.547-23.391,36-51.531,36-81.391c0-23.062-7.734-45.75-22.359-65.656L487.312,288.375z M178.078,357.031  c0,4.562,0.328,9.203,0.938,13.797l0.594,4.484L61.781,420.828l15.297-97.766l-8.672-8.609  c-16.062-15.938-28.516-33.609-37.031-52.547c-8.641-19.266-13.031-39.453-13.031-59.984c0-24.047,5.969-47.453,17.75-69.562  c11.609-21.797,28.375-41.484,49.797-58.5c21.859-17.344,47.406-31,75.906-40.562c59.562-19.984,128.859-19.984,188.422,0  c28.5,9.562,54.031,23.203,75.906,40.562c21.438,17.031,38.203,36.719,49.797,58.516c11.781,22.094,17.75,45.5,17.75,69.547  c0,22.594-5.281,44.656-15.703,65.609l-3.312,6.641l-5.578-4.891c-31.641-27.688-76.875-43.562-124.094-43.562  C252.953,225.719,178.078,284.625,178.078,357.031z M463.031,425.484l-8.641,8.609l8.484,54.656l-66.234-25.578l-7.25,1.734  c-33.891,8.141-71.344,6.625-103.984-4.344c-17.891-6-33.906-14.562-47.609-25.422c-26.766-21.25-41.5-48.984-41.5-78.109  c0-29.156,14.734-56.906,41.5-78.156c13.703-10.844,29.719-19.391,47.609-25.406c37.688-12.672,81.484-12.656,119.156,0  c17.906,6.016,33.922,14.562,47.625,25.406c26.75,21.25,41.484,49,41.484,78.156C493.672,388.469,477.031,411.609,463.031,425.484z"></path></svg>