<svg height='100px' width='100px'  fill="#000000" xmlns="http://www.w3.org/2000/svg" xmlns:xlink="http://www.w3.org/1999/xlink" version="1.1" x="0px" y="0px" viewBox="0 0 100 100" style="enable-background:new 0 0 100 100;" xml:space="preserve"><g><path d="M93.082,53.673c-0.001-0.019,0.001-0.037-0.001-0.055l-3.51-30.3c-0.066-0.566-0.447-1.046-0.983-1.239L41.308,5.089   c-0.017-0.006-0.035-0.008-0.053-0.013c-0.054-0.017-0.107-0.03-0.161-0.04c-0.044-0.009-0.087-0.018-0.131-0.022   c-0.053-0.006-0.105-0.007-0.158-0.007c-0.045,0-0.09,0-0.134,0.004c-0.052,0.005-0.102,0.014-0.153,0.023   c-0.043,0.008-0.086,0.017-0.128,0.029c-0.051,0.015-0.1,0.034-0.149,0.053c-0.039,0.016-0.079,0.031-0.117,0.051   c-0.048,0.024-0.093,0.052-0.138,0.082c-0.036,0.023-0.072,0.047-0.106,0.073c-0.041,0.032-0.078,0.067-0.116,0.103   c-0.034,0.032-0.067,0.065-0.098,0.101c-0.032,0.037-0.06,0.076-0.088,0.117c-0.03,0.043-0.059,0.086-0.084,0.132   c-0.01,0.017-0.022,0.031-0.031,0.049l-7.02,13.85c-0.084,0.165-0.136,0.344-0.155,0.528l-0.296,2.951l-7.439-0.982   c-0.031-0.004-0.06-0.001-0.09-0.003c-0.023-0.002-0.046-0.002-0.069-0.002c-0.079-0.002-0.157,0.001-0.234,0.011   c-0.013,0.002-0.025,0.004-0.037,0.006c-0.085,0.014-0.168,0.033-0.249,0.061c-0.007,0.002-0.014,0.005-0.021,0.008   c-0.084,0.03-0.164,0.067-0.241,0.111c-0.007,0.004-0.014,0.009-0.02,0.013c-0.076,0.045-0.147,0.096-0.214,0.154   c-0.007,0.006-0.014,0.013-0.021,0.019c-0.066,0.06-0.127,0.124-0.182,0.195c-0.005,0.007-0.01,0.014-0.015,0.021   c-0.055,0.074-0.103,0.152-0.145,0.236c-0.002,0.004-0.004,0.006-0.006,0.01l-6.28,13.04c-0.194,0.403-0.198,0.872-0.01,1.279   l2.358,5.106l-4.647,1.02c-0.456,0.1-0.839,0.406-1.037,0.829L7.051,57.83c-0.269,0.574-0.147,1.256,0.303,1.702l35.404,35.034   C43.044,94.849,43.425,95,43.813,95c0.173,0,0.348-0.03,0.517-0.092L78.07,82.532c0.347-0.127,0.634-0.378,0.808-0.703l2.377-4.465   l1.764,0.085c0.024,0.001,0.048,0.002,0.072,0.002c0.529,0,1.022-0.28,1.292-0.739l7.17-12.19c0.008-0.013,0.011-0.027,0.018-0.04   c0.026-0.048,0.047-0.097,0.068-0.147c0.018-0.042,0.036-0.084,0.05-0.127c0.015-0.047,0.023-0.094,0.033-0.142   c0.01-0.048,0.021-0.095,0.026-0.143c0.005-0.048,0.004-0.096,0.005-0.144c0.001-0.048,0.003-0.095-0.001-0.142   c-0.004-0.049-0.014-0.097-0.023-0.146c-0.009-0.047-0.016-0.094-0.029-0.14c-0.013-0.044-0.031-0.088-0.048-0.131   c-0.019-0.05-0.038-0.099-0.063-0.146c-0.007-0.013-0.01-0.027-0.017-0.04l-1.863-3.36l3.156-5.092   c0.009-0.015,0.014-0.032,0.023-0.047c0.028-0.048,0.05-0.098,0.073-0.149c0.018-0.041,0.036-0.082,0.05-0.124   c0.016-0.048,0.027-0.096,0.038-0.146c0.011-0.048,0.021-0.095,0.027-0.143c0.006-0.046,0.007-0.092,0.008-0.139   C93.086,53.778,93.086,53.726,93.082,53.673z M32.179,26.203l-0.247,2.44c0,0.001,0,0.002,0,0.003l-0.608,5.999l-4.886-9.2   L32.179,26.203z M79.935,30.756l7.808,2.848l0.815,7.038l-13.021-4.778l-0.185-6.78l1.833,0.669   c0.113,0.041,0.229,0.061,0.343,0.061c0.408,0,0.792-0.252,0.939-0.657c0.189-0.519-0.078-1.093-0.597-1.282l-2.578-0.94   l-0.177-6.508l11.581,4.162l0.787,6.794l-6.865-2.504c-0.52-0.188-1.093,0.078-1.282,0.597   C79.148,29.992,79.416,30.566,79.935,30.756z M58.754,83.945c-0.488-0.256-1.093-0.068-1.351,0.419l-1.662,3.163l-9.554,3.505   l4.519-8.905l9.566-3.219l-1.411,2.685c-0.257,0.488-0.069,1.093,0.42,1.35c0.148,0.078,0.308,0.115,0.464,0.115   c0.36,0,0.707-0.194,0.886-0.535l2.386-4.538l5.155-1.734c0.236-0.08,0.413-0.245,0.531-0.444l1.06,0.036   c0.002,0,0.005,0.001,0.007,0.001c0.001,0,0.003,0,0.004,0l1.92,0.064l-3.88,7.192L58.541,86.5l0.633-1.204   C59.431,84.807,59.243,84.202,58.754,83.945z M33.766,76.177c-0.488-0.259-1.093-0.071-1.352,0.416l-1.221,2.309l-10.298-10.19   l5.219-10.897l3.083,3.112l5.621,11.123l-1.043,1.973c-0.258,0.488-0.072,1.094,0.416,1.352c0.149,0.079,0.309,0.116,0.467,0.116   c0.359,0,0.706-0.193,0.885-0.532l0.385-0.728c0.017,0.029,0.037,0.055,0.056,0.081c0.015,0.022,0.027,0.044,0.044,0.064   c0.076,0.09,0.165,0.164,0.266,0.222c0.008,0.005,0.012,0.012,0.02,0.017c0.032,0.017,0.066,0.025,0.099,0.039   c0.035,0.015,0.069,0.031,0.107,0.042c0.056,0.016,0.113,0.023,0.17,0.029c0.023,0.002,0.044,0.011,0.068,0.011l4.772,0.16   c0.054,0.155,0.133,0.301,0.263,0.418l6.969,6.229l-4.981,9.815L32.678,80.371l1.504-2.843   C34.44,77.04,34.254,76.435,33.766,76.177z M38.947,53.271l3.974,7.073l-6.099,11.237l-5.678-11.236l4.324-8.221L38.947,53.271z    M62.194,60.938l-17.518-1.553l-2.914-5.186L62.194,60.938z M62.527,76.038l-0.553-0.458l1.741,0.058L62.527,76.038z    M59.098,75.484c0.042,0.221,0.145,0.433,0.332,0.588l0.866,0.717l-10.064,3.386l-5.799-5.183L59.098,75.484z M38.441,72.79   l6.188-11.401l14.535,1.286l-5.468,10.627L38.441,72.79z M55.906,73.376l5.408-10.511l9.185,0.813l3.659,1.207l-4.964,8.937   L55.906,73.376z M50.958,55.127l3.478-6.469c0.261-0.486,0.079-1.093-0.407-1.354c-0.489-0.263-1.094-0.079-1.354,0.407   l-3.555,6.612c-0.031,0.057-0.036,0.119-0.054,0.179l-16.763-5.529l7.281-12.621l16.116,5.731l-1.561,2.905   c-0.261,0.486-0.079,1.093,0.408,1.354c0.15,0.081,0.313,0.119,0.472,0.119c0.356,0,0.701-0.19,0.882-0.526l1.706-3.174   l15.838,5.632l-6.305,12.07L50.958,55.127z M40.175,34.44l0.536-9.227l15.42,5.659v9.242L40.175,34.44z M40.832,23.128l0.377-6.499   l14.922,5.443v6.67L40.832,23.128z M58.131,22.802l15.2,5.545l0.184,6.775l-15.384-5.646V22.802z M58.131,20.673v-6.351   l14.965,5.377l0.177,6.497L58.131,20.673z M56.131,19.944l-14.801-5.399l0.356-6.132l14.445,5.191V19.944z M39.278,15.382   l-4.252,7.583l0.219-2.187l4.201-8.288L39.278,15.382z M33.9,29.062l5.113-9.119l-0.205,3.522l-5.305,9.506L33.9,29.062z    M32.996,37.984l5.546-9.939l-0.394,6.791l-5.862,10.161L32.996,37.984z M58.131,40.826v-9.22l15.443,5.667l0.249,9.133   L58.131,40.826z M75.843,47.125l-0.248-9.11l13.22,4.852l1.072,9.253L75.843,47.125z M24.694,26.424l4.632,8.722l-3.082,6.231   c-0.245,0.495-0.042,1.095,0.453,1.34c0.143,0.07,0.294,0.104,0.442,0.104c0.369,0,0.723-0.204,0.897-0.557l2.444-4.942   l0.479,0.903l-1.135,11.212c-0.012,0.121,0,0.239,0.029,0.351c0.006,0.023,0.02,0.042,0.028,0.064   c0.031,0.092,0.071,0.18,0.126,0.259c0.023,0.033,0.054,0.059,0.081,0.089c0.056,0.061,0.115,0.117,0.185,0.163   c0.017,0.012,0.027,0.03,0.046,0.04c0.043,0.025,0.089,0.037,0.134,0.055c0.019,0.007,0.033,0.021,0.052,0.028l3.034,1.001   l-3.505,6.665l-4.981-9.858l1.756-3.55c0.245-0.495,0.042-1.095-0.453-1.34c-0.497-0.245-1.095-0.042-1.34,0.453l-1.09,2.205   l-1.221-2.416c0.001-0.012,0.001-0.025,0.002-0.037c0.004-0.048,0.011-0.096,0.009-0.145c-0.001-0.059-0.012-0.119-0.021-0.178   c-0.005-0.036-0.005-0.072-0.013-0.109c-0.001-0.003-0.002-0.006-0.003-0.009c-0.01-0.046-0.029-0.09-0.044-0.135   c-0.017-0.052-0.031-0.107-0.054-0.156c-0.001-0.002-0.001-0.005-0.002-0.007l-2.844-6.157L24.694,26.424z M26.265,55.125   l-9.109-9.197l4.016-0.882L26.265,55.125z M15.424,47.021l9.197,9.285l-5.229,10.917l-9.175-9.079L15.424,47.021z M70.646,82.06   l3.279-6.078l4.584,0.154l-2.011,3.778L70.646,82.06z M71.439,73.897l4.652-8.375l7.059,2.328c0.104,0.034,0.209,0.051,0.313,0.051   c0.339,0,0.664-0.173,0.85-0.474l1.794-2.894l1.896,0.104l-5.661,9.625L71.439,73.897z M87.621,62.093l0.298,0.538l-0.611-0.034   L87.621,62.093z M86.696,58.84c-0.01,0.017-0.016,0.035-0.025,0.051c-0.027,0.048-0.05,0.097-0.072,0.147   c-0.018,0.042-0.036,0.084-0.05,0.128c-0.015,0.047-0.026,0.094-0.037,0.142c-0.01,0.048-0.021,0.095-0.026,0.143   c-0.006,0.047-0.007,0.095-0.008,0.143c-0.001,0.049-0.002,0.096,0.001,0.145c0.003,0.048,0.011,0.095,0.019,0.142   c0.008,0.049,0.017,0.097,0.03,0.144c0.002,0.009,0.003,0.018,0.006,0.027l-3.504,5.654l-13.966-4.607l6.283-12.028l14.262,5.072   L86.696,58.84z"></path></g></svg>