<svg height='100px' width='100px'  fill="#000000" xmlns="http://www.w3.org/2000/svg" xmlns:xlink="http://www.w3.org/1999/xlink" version="1.1" x="0px" y="0px" viewBox="0 0 100 100" enable-background="new 0 0 100 100" xml:space="preserve"><path d="M89.49,85.5h-79c-0.828,0-1.5,0.672-1.5,1.5s0.672,1.5,1.5,1.5h79c0.83,0,1.5-0.672,1.5-1.5S90.32,85.5,89.49,85.5z"></path><path d="M80.99,40.5h6v18.504h2.52c0.162,0,0.322,0.012,0.48,0.024V40c0-1.379-1.121-2.5-2.5-2.5h-7c-1.377,0-2.5,1.121-2.5,2.5  v8.744l3,4.558V40.5z"></path><path d="M77.99,67.809V80c0,1.379,1.123,2.5,2.5,2.5h7c1.379,0,2.5-1.121,2.5-2.5v-9.021c-0.158,0.013-0.318,0.024-0.48,0.024h-2.52  V79.5h-6v-9.723C79.943,69.239,78.938,68.566,77.99,67.809z"></path><path d="M10.51,70.504h4c3.059,0,8.215-4.259,11.514-8.267l1.287-1.564c1.436-1.742,3.471-2.819,5.729-3.031  c2.258-0.208,4.459,0.467,6.193,1.913l2.635,2.195c2.371,1.976,5.303,2.843,8.256,2.436c2.951-0.405,5.541-2.029,7.291-4.572  l5.18-7.525c1.207-1.752,2.742-2.715,4.328-2.715c0.014,0,0.027,0,0.041,0c1.6,0.017,3.131,1.013,4.311,2.805l3.486,5.297  c2.951,4.487,7.594,9.029,10.75,9.029h4c0.828,0,1.5-0.672,1.5-1.5s-0.672-1.5-1.5-1.5h-4c-1.301,0-5.16-2.991-8.244-7.678  l-3.486-5.297c-1.746-2.652-4.156-4.128-6.787-4.155c-0.023-0.001-0.049-0.001-0.074-0.001c-2.602,0-5.012,1.423-6.795,4.014  l-5.18,7.525c-1.266,1.84-3.123,3.012-5.23,3.302c-2.105,0.287-4.209-0.339-5.926-1.769l-2.635-2.195  c-2.352-1.96-5.326-2.881-8.395-2.596c-3.059,0.288-5.816,1.748-7.764,4.112l-1.287,1.564c-3.604,4.379-7.855,7.173-9.197,7.173h-4  c-0.828,0-1.5,0.672-1.5,1.5S9.682,70.504,10.51,70.504z"></path><path d="M63.99,14.5h6v27.798c1.045,0.29,2.051,0.731,3,1.306V14c0-1.379-1.121-2.5-2.5-2.5h-7c-1.377,0-2.5,1.121-2.5,2.5v29.517  c0.955-0.557,1.959-0.982,3-1.258V14.5z"></path><path d="M61.121,62.164c-0.041,0.06-0.088,0.111-0.131,0.17V80c0,1.379,1.123,2.5,2.5,2.5h7c1.379,0,2.5-1.121,2.5-2.5V62.678  c-0.969-1.22-1.668-2.238-1.99-2.729l-1.01-1.533V79.5h-6V57.995L61.121,62.164z"></path><path d="M46.668,55.987c0.107,0.091,0.215,0.169,0.322,0.241V35.499h6v17.313l3-4.358V34.999c0-1.379-1.121-2.5-2.5-2.5h-7  c-1.377,0-2.5,1.121-2.5,2.5v18.763c0.014,0.011,0.029,0.02,0.043,0.031L46.668,55.987z"></path><path d="M43.99,67.98V80c0,1.379,1.123,2.5,2.5,2.5h7c1.379,0,2.5-1.121,2.5-2.5V66.842c-0.951,0.537-1.955,0.968-3,1.285V79.5h-6  V68.654C45.973,68.533,44.969,68.308,43.99,67.98z"></path><path d="M29.99,26.5h6v23.764c1.025,0.138,2.027,0.374,3,0.706V26c0-1.379-1.121-2.5-2.5-2.5h-7c-1.377,0-2.5,1.121-2.5,2.5v25.654  c0.957-0.453,1.961-0.81,3-1.064V26.5z"></path><path d="M29.5,65.097c-0.262,0.317-1.176,1.403-2.51,2.747V80c0,1.379,1.123,2.5,2.5,2.5h7c1.379,0,2.5-1.121,2.5-2.5V65.211  c0-0.002-0.002-0.003-0.004-0.004l-2.635-2.194c-0.113-0.095-0.24-0.165-0.361-0.245V79.5h-6V64.499L29.5,65.097z"></path><path d="M12.99,63.004V52.5h6v6.373c0.414-0.44,0.83-0.901,1.244-1.402l1.285-1.563c0.15-0.182,0.314-0.345,0.471-0.519V52  c0-1.379-1.121-2.5-2.5-2.5h-7c-1.377,0-2.5,1.121-2.5,2.5v11.03c0.172-0.015,0.344-0.026,0.52-0.026H12.99z"></path><path d="M10.51,75.004c-0.176,0-0.348-0.012-0.52-0.026V80c0,1.379,1.123,2.5,2.5,2.5h7c1.379,0,2.5-1.121,2.5-2.5v-7.893  c-0.961,0.668-1.971,1.26-3,1.743V79.5h-6v-4.496H10.51z"></path></svg>