<svg height='100px' width='100px'  fill="#000000" xmlns="http://www.w3.org/2000/svg" viewBox="0 0 64 64" x="0px" y="0px"><title>Knowledge-Book-education-learning</title><g><rect x="12" y="40" width="16" height="2"></rect><rect x="12" y="44" width="16" height="2"></rect><rect x="12" y="48" width="12" height="2"></rect><rect x="18" y="36" width="10" height="2"></rect><rect x="37" y="48" width="8" height="2"></rect><rect x="37" y="28" width="8" height="2"></rect><path d="M61,13H57V7a4,4,0,0,0-4-4H50a1,1,0,0,0-1,1V9H37a1,1,0,0,0-.707.293L32,13.586,27.707,9.293A1,1,0,0,0,27,9H8a1,1,0,0,0-1,1v3H3a1,1,0,0,0-1,1V60a1,1,0,0,0,1,1H61a1,1,0,0,0,1-1V14A1,1,0,0,0,61,13ZM51,5h2a2,2,0,0,1,2,2V48.537A3.97,3.97,0,0,0,53,48H51ZM9,11H26.586L31,15.414V55h2V15.414L37.414,11H49v5H43v2h6v2H37v2H49v2H37v2H49V36H43v2h6v2H37v2H49v2H37v2H49v3a1,1,0,0,0,1,1h3a2,2,0,0,1,0,4H37a1,1,0,0,0-.707.293L32,58.586l-4.293-4.293A1,1,0,0,0,27,54H9ZM4,15H7V55a1,1,0,0,0,1,1H26.586l3,3H4ZM60,59H34.414l3-3H53a4,4,0,0,0,4-4V15h3Z"></path><rect x="39" y="16" width="2" height="2"></rect><rect x="39" y="36" width="2" height="2"></rect><rect x="14" y="36" width="2" height="2"></rect><path d="M19,28.618V31h2V28.618L24.447,26.9A1,1,0,0,0,25,26V22h2V20H24.236L21,18.382V16H19v2.382l-3.447,1.723A1,1,0,0,0,15,21v4H13v2h2.764Zm-2-7,3-1.5,3,1.5v3.764l-3,1.5-3-1.5Z"></path><rect x="25" y="16" width="2" height="2"></rect><rect x="13" y="29" width="2" height="2"></rect></g></svg>