<svg height='100px' width='100px'  fill="#000000" xmlns="http://www.w3.org/2000/svg" xmlns:xlink="http://www.w3.org/1999/xlink" viewBox="0 0 64 64" version="1.1" xml:space="preserve" style="" x="0px" y="0px" fill-rule="evenodd" clip-rule="evenodd" stroke-linejoin="round" stroke-miterlimit="1.41421"><g transform="matrix(1,0,0,1,-96,-192)"><g transform="matrix(2,0,0,2,96,192)"><rect x="0" y="0" width="32" height="32" style="" fill="none"></rect><g transform="matrix(0.5,0,0,0.5,-48,-96)"><path d="M128,231L123,231L123,242L122.993,242.121C122.985,242.161 122.98,242.201 122.971,242.241C122.941,242.359 122.89,242.471 122.821,242.571C122.585,242.91 122.151,243.071 121.751,242.968C121.633,242.938 121.521,242.886 121.422,242.816C121.389,242.793 121.359,242.765 121.327,242.74L99.327,222.74C99.3,222.712 99.27,222.685 99.244,222.655C99.192,222.595 99.148,222.529 99.111,222.458C98.964,222.173 98.964,221.827 99.111,221.542C99.148,221.471 99.192,221.405 99.244,221.345C99.27,221.315 99.3,221.288 99.327,221.26L121.327,201.26C121.411,201.193 121.43,201.171 121.525,201.12C121.632,201.062 121.75,201.024 121.87,201.008C121.91,201.003 121.951,201.003 121.991,201C122.032,201.002 122.072,201.004 122.112,201.006C122.219,201.025 122.247,201.025 122.348,201.063C122.616,201.162 122.832,201.377 122.934,201.644C122.963,201.719 122.983,201.798 122.993,201.879C122.998,201.919 122.998,201.96 123,202L123,213L128,213C132.07,213 136.141,212.976 140.211,213.001C140.842,213.013 141.47,213.052 142.096,213.13C143.404,213.292 144.692,213.607 145.927,214.067C148.407,214.989 150.659,216.495 152.46,218.435C154.114,220.217 155.376,222.352 156.14,224.66C156.532,225.847 156.793,227.076 156.917,228.32C156.972,228.878 156.997,229.437 157,229.997L157,245.87C157.001,245.942 157.002,246.014 156.996,246.086C156.993,246.122 156.99,246.152 156.98,246.201L156.979,246.202C156.978,246.208 156.977,246.215 156.975,246.222L156.975,246.223C156.974,246.228 156.972,246.234 156.971,246.24L156.971,246.24L156.971,246.24L156.967,246.257L156.966,246.258L156.966,246.259L156.964,246.265L156.962,246.274L156.961,246.275L156.961,246.278L156.958,246.285L156.957,246.29L156.956,246.293L156.955,246.297L156.952,246.304L156.952,246.307L156.951,246.309L156.949,246.316L156.946,246.323L156.946,246.324L156.946,246.324C156.926,246.383 156.9,246.44 156.869,246.495C156.854,246.521 156.838,246.546 156.821,246.571L156.82,246.573L156.818,246.575L156.816,246.578L156.814,246.58C156.782,246.625 156.746,246.668 156.707,246.707C156.628,246.786 156.535,246.852 156.434,246.901C156.364,246.935 156.29,246.96 156.216,246.976C156.147,246.991 156.077,247 156.006,247C155.901,247.001 155.797,246.985 155.697,246.953C155.597,246.921 155.502,246.874 155.417,246.813L155.411,246.808L155.405,246.804L155.402,246.801L155.399,246.799L155.396,246.797L155.391,246.793L155.381,246.786L155.381,246.785L155.38,246.785L155.377,246.782C155.289,246.712 155.213,246.627 155.153,246.532C155.117,246.474 155.086,246.412 155.062,246.347L155.062,246.346L155.061,246.344L155.056,246.33L155.055,246.326L155.054,246.324L155.049,246.31L155.047,246.304L155.047,246.303C155.044,246.295 155.042,246.286 155.039,246.277L155.039,246.277L155.039,246.275L155.034,246.259L155.032,246.251L155.032,246.25L155.031,246.248L155.028,246.236L155.026,246.224L155.025,246.223L155.025,246.221L155.023,246.214C155.013,246.168 155.009,246.139 155.006,246.11C155.003,246.085 155.003,246.06 155.002,246.036L155,246.006C154.999,245.817 154.999,245.817 154.995,245.628C154.98,245.133 154.947,244.641 154.886,244.15C154.75,243.057 154.493,241.979 154.122,240.942C153.314,238.686 151.961,236.636 150.204,235.006C148.677,233.588 146.855,232.496 144.885,231.818C143.843,231.459 142.762,231.215 141.666,231.093C141.112,231.031 140.555,231.003 139.997,231L128,231L128,231ZM128,215L122,215C121.96,214.998 121.919,214.998 121.879,214.993C121.799,214.983 121.721,214.964 121.645,214.935C121.38,214.834 121.166,214.62 121.065,214.355C121.036,214.279 121.017,214.201 121.007,214.121C121.002,214.081 121.002,214.04 121,214L121,204.261L101.487,222L121,239.739L121,230L121.007,229.879C121.027,229.774 121.027,229.746 121.065,229.645C121.166,229.38 121.38,229.166 121.645,229.065C121.721,229.036 121.799,229.017 121.879,229.007C121.919,229.002 121.96,229.002 122,229L128,229L128,229C132.071,229 136.141,228.976 140.211,229.001C140.772,229.012 141.331,229.043 141.888,229.105C142.992,229.228 144.084,229.46 145.142,229.796C147.191,230.447 149.111,231.488 150.774,232.85C152.502,234.266 153.945,236.024 154.997,237.995L155.012,238.022C155.016,235.286 155.016,232.55 154.999,229.814C154.99,229.319 154.962,228.826 154.907,228.334C154.785,227.238 154.541,226.157 154.182,225.115C153.504,223.145 152.412,221.323 150.994,219.796C149.364,218.039 147.314,216.686 145.058,215.878C143.963,215.486 142.822,215.222 141.666,215.093C141.112,215.031 140.555,215.003 139.997,215L128,215L128,215Z"></path></g></g></g></svg>