<svg height='100px' width='100px'  fill="#000000" xmlns="http://www.w3.org/2000/svg" xmlns:xlink="http://www.w3.org/1999/xlink" version="1.1" x="0px" y="0px" viewBox="0 0 100 100" enable-background="new 0 0 100 100" xml:space="preserve"><g><path fill="#000000" d="M28.3,21.6c-0.1,0-0.3,0-0.4-0.1l-14.5-6.4c-0.4-0.2-0.6-0.5-0.6-0.9s0.2-0.8,0.6-0.9l14.5-6.4   c0.3-0.1,0.5-0.1,0.8,0l14.5,6.4c0.4,0.2,0.6,0.5,0.6,0.9s-0.2,0.8-0.6,0.9l-14.5,6.4C28.6,21.5,28.5,21.6,28.3,21.6z M16.3,14.1   l12.1,5.3l12.1-5.3L28.3,8.8L16.3,14.1z"></path><rect x="27.3" y="20.6" fill="#000000" width="2" height="72.1"></rect><path fill="#000000" d="M28.3,93.7c-0.1,0-0.3,0-0.4-0.1l-14.5-6.4c-0.4-0.2-0.6-0.5-0.6-0.9V14.1h2v71.5l13.5,6l13.5-6V14.1h2   v72.1c0,0.4-0.2,0.8-0.6,0.9l-14.5,6.4C28.6,93.6,28.5,93.7,28.3,93.7z"></path><path fill="#000000" d="M50.8,35.7c-0.1,0-0.3,0-0.4-0.1l-7.9-3.5l0.8-1.8l7.5,3.3l12.1-5.3L50.8,23l-7.5,3.3l-0.8-1.8l7.9-3.5   c0.3-0.1,0.5-0.1,0.8,0l14.5,6.4c0.4,0.2,0.6,0.5,0.6,0.9s-0.2,0.8-0.6,0.9l-14.5,6.4C51,35.7,50.9,35.7,50.8,35.7z"></path><rect x="49.8" y="34.7" fill="#000000" width="2" height="48.1"></rect><path fill="#000000" d="M50.8,83.8c-0.1,0-0.3,0-0.4-0.1l-7.9-3.5l0.8-1.8l7.5,3.3l13.5-6V28.3h2v48.1c0,0.4-0.2,0.8-0.6,0.9   l-14.5,6.4C51,83.8,50.9,83.8,50.8,83.8z"></path><path fill="#000000" d="M72.8,50.1c-0.1,0-0.3,0-0.4-0.1l-7.5-3.3l0.8-1.8l7.1,3.1l12.1-5.3l-12.1-5.3l-7.1,3.1l-0.8-1.8l7.5-3.3   c0.3-0.1,0.5-0.1,0.8,0l14.5,6.4c0.4,0.2,0.6,0.5,0.6,0.9s-0.2,0.8-0.6,0.9L73.2,50C73.1,50,73,50.1,72.8,50.1z"></path><rect x="71.8" y="49.1" fill="#000000" width="2" height="23.9"></rect><path fill="#000000" d="M72.8,73.9c-0.1,0-0.3,0-0.4-0.1l-7.6-3.3l0.8-1.8l7.2,3.2l13.5-6V42.7h2v23.9c0,0.4-0.2,0.8-0.6,0.9   l-14.5,6.4C73.1,73.9,73,73.9,72.8,73.9z"></path></g></svg>