<svg height='100px' width='100px'  fill="#000000" xmlns="http://www.w3.org/2000/svg" xmlns:xlink="http://www.w3.org/1999/xlink" version="1.1" x="0px" y="0px" viewBox="0 0 64 64" style="enable-background:new 0 0 64 64;" xml:space="preserve"><g><rect x="13" y="11" width="16" height="2"></rect><rect x="13" y="15" width="16" height="2"></rect><rect x="13" y="19" width="16" height="2"></rect><rect x="13" y="23" width="16" height="2"></rect><rect x="13" y="27" width="16" height="2"></rect><rect x="13" y="31" width="16" height="2"></rect><rect x="13" y="47" width="16" height="2"></rect><rect x="13" y="43" width="16" height="2"></rect><rect x="13" y="51" width="16" height="2"></rect><path d="M62.447,35.105L47,27.382V6c0-2.757-2.243-5-5-5H6C3.243,1,1,3.243,1,6v2c0,0.553,0.447,1,1,1h7v49c0,2.757,2.243,5,5,5h36   c2.757,0,5-2.243,5-5v-2c0-0.553-0.447-1-1-1h-7v-7.024c1.715-0.054,3.429-0.242,5.109-0.578l2.087-0.417   C54.663,46.887,55,46.477,55,46v-6.307l2-0.75v8.241c-1.161,0.414-2,1.514-2,2.816v2c0,1.654,1.346,3,3,3s3-1.346,3-3v-2   c0-1.302-0.839-2.402-2-2.816v-8.991l3.352-1.257c0.372-0.14,0.626-0.487,0.647-0.884C63.02,35.655,62.803,35.283,62.447,35.105z    M59,52c0,0.552-0.448,1-1,1s-1-0.448-1-1v-2c0-0.552,0.448-1,1-1s1,0.448,1,1V52z M3,6c0-1.654,1.346-3,3-3h32.002   C37.373,3.836,37,4.875,37,6v1H3V6z M53,58c0,1.654-1.346,3-3,3H17.998C18.627,60.164,19,59.125,19,58v-1h34V58z M18,55   c-0.553,0-1,0.447-1,1v2c0,1.654-1.346,3-3,3s-3-1.346-3-3V9h27c0.553,0,1-0.447,1-1V6c0-1.654,1.346-3,3-3s3,1.346,3,3v21.382   l-15.447,7.724c-0.355,0.178-0.572,0.55-0.552,0.947c0.021,0.396,0.275,0.744,0.647,0.884L37,39.693V46   c0,0.477,0.337,0.887,0.804,0.98l2.087,0.417c1.669,0.334,3.373,0.522,5.109,0.578V55H18z M53,45.18l-1.283,0.257   c-3.683,0.736-7.638,0.76-11.434,0L39,45.18V36.82l1.283-0.257c3.683-0.736,7.638-0.76,11.434,0L53,36.82V45.18z M55,37.557V36   c0-0.477-0.337-0.887-0.804-0.98l-2.087-0.417c-3.94-0.787-8.166-0.811-12.219,0l-2.087,0.417C37.337,35.113,37,35.523,37,36v1.557   l-4.502-1.688L46,29.118l13.502,6.751L55,37.557z"></path></g></svg>