<svg height='100px' width='100px'  fill="#000000" xmlns="http://www.w3.org/2000/svg" xmlns:xlink="http://www.w3.org/1999/xlink" version="1.1" x="0px" y="0px" viewBox="0 0 128 128" style="enable-background:new 0 0 128 128;" xml:space="preserve"><g><g><path d="M40.959,81.168c-0.573,0-1.151-0.055-1.727-0.167c-3.465-0.673-6.229-3.46-6.881-6.935    c-0.548-2.922,0.384-5.895,2.493-7.951c0.114-0.111,0.065-0.223,0.049-0.259c-0.018-0.042-0.137-0.12-0.298-0.12H18.944    c-1.104,0-2-0.896-2-2v-16.52c-1.636,1.618-3.863,2.541-6.166,2.541c-2.63,0-5.1-1.165-6.775-3.197    c-1.675-2.031-2.343-4.7-1.834-7.323c0.667-3.438,3.428-6.199,6.869-6.87c2.908-0.567,5.835,0.32,7.906,2.372V18.946    c0-1.104,0.896-2,2-2h15.792c-1.619-1.636-2.541-3.864-2.541-6.167c0-2.632,1.166-5.102,3.198-6.777    c2.031-1.674,4.702-2.342,7.321-1.833c3.487,0.677,6.257,3.487,6.891,6.992c0.518,2.862-0.375,5.747-2.395,7.786h16.518    c1.104,0,2,0.896,2,2s-0.896,2.061-2,2.061c-0.169,0-0.333-0.021-0.491-0.061H46.906c-2.139,0-3.879-1.74-3.879-3.879    c0-1.066,0.44-2.089,1.208-2.806c1.21-1.132,1.733-2.732,1.434-4.388c-0.338-1.865-1.866-3.418-3.718-3.777    c-1.467-0.286-2.892,0.068-4.014,0.993c-1.107,0.913-1.742,2.258-1.742,3.691c0,1.334,0.541,2.573,1.523,3.488    c1.291,1.203,1.573,3.211,0.671,4.775c-0.676,1.174-1.988,1.903-3.424,1.903H20.944v14.097c0,2.139-1.74,3.879-3.879,3.879    c-1.066,0-2.089-0.44-2.806-1.208c-1.15-1.23-2.776-1.748-4.456-1.42C7.945,36.656,6.456,38.146,6.096,40    c-0.285,1.467,0.068,2.894,0.994,4.016c0.912,1.106,2.257,1.741,3.688,1.741c1.334,0,2.573-0.541,3.487-1.523    c0.712-0.764,1.732-1.201,2.799-1.201c2.139,0,3.879,1.74,3.879,3.879v14.824h13.651c1.74,0,3.296,0.989,3.965,2.521    c0.71,1.629,0.348,3.483-0.923,4.723c-1.166,1.137-1.659,2.722-1.354,4.35c0.346,1.848,1.873,3.388,3.711,3.745    c1.463,0.286,2.892-0.068,4.014-0.994c1.107-0.913,1.742-2.257,1.742-3.69c0-1.296-0.515-2.51-1.45-3.419    c-1.267-1.231-1.625-3.149-0.891-4.773c0.676-1.496,2.219-2.462,3.932-2.462h16.371c1.104,0,2,0.896,2,2s-0.896,2-2,2H47.341    c-0.165,0-0.273,0.08-0.287,0.11c-0.062,0.136-0.005,0.22,0.034,0.257c1.717,1.668,2.662,3.901,2.662,6.288    c0,2.631-1.165,5.101-3.197,6.776C44.968,80.475,42.995,81.168,40.959,81.168z"></path><path d="M40.959,125.998c-0.574,0-1.152-0.055-1.728-0.167c-3.464-0.672-6.229-3.459-6.88-6.934    c-0.548-2.922,0.384-5.895,2.493-7.951c0.114-0.111,0.065-0.223,0.049-0.259c-0.018-0.042-0.137-0.12-0.298-0.12H18.944    c-1.104,0-2-0.896-2-2v-16.52c-1.637,1.619-3.864,2.541-6.166,2.541c-2.63,0-5.1-1.165-6.775-3.197    c-1.675-2.031-2.343-4.7-1.834-7.323c0.667-3.438,3.428-6.199,6.869-6.869c2.908-0.566,5.835,0.32,7.906,2.372V63.776    c0-1.104,0.896-2,2-2h15.937c0.078,0,0.156,0.004,0.233,0.014c1.54,0.181,2.86,1.126,3.445,2.468    c0.71,1.629,0.348,3.483-0.923,4.723c-1.166,1.137-1.659,2.722-1.354,4.35c0.346,1.848,1.873,3.388,3.711,3.745    c1.463,0.286,2.892-0.068,4.014-0.994c1.107-0.913,1.742-2.257,1.742-3.69c0-1.296-0.515-2.51-1.45-3.419    c-1.267-1.231-1.625-3.149-0.891-4.773c0.6-1.326,1.872-2.227,3.405-2.409c0.079-0.009,0.158-0.014,0.237-0.014h16.676    c1.104,0,2,0.896,2,2v15.653c0,0.162,0.079,0.281,0.121,0.299c0.036,0.016,0.148,0.064,0.258-0.049    c2.056-2.109,5.027-3.042,7.949-2.493c3.474,0.65,6.261,3.416,6.934,6.881l0,0c0.509,2.623-0.159,5.292-1.834,7.323    c-1.675,2.032-4.145,3.197-6.775,3.197c-2.387,0-4.619-0.946-6.287-2.663c-0.038-0.039-0.12-0.095-0.256-0.034    c-0.03,0.014-0.11,0.123-0.11,0.288v16.389c0,1.104-0.896,2-2,2H47.341c-0.165,0-0.274,0.08-0.288,0.11    c-0.061,0.136-0.005,0.219,0.034,0.257c1.717,1.667,2.662,3.9,2.662,6.287c0,2.631-1.166,5.102-3.197,6.777    C44.968,125.304,42.995,125.998,40.959,125.998z M20.944,106.566h13.651c1.74,0,3.296,0.989,3.965,2.521    c0.71,1.629,0.348,3.482-0.923,4.722c-1.166,1.137-1.659,2.723-1.354,4.351c0.346,1.848,1.873,3.388,3.711,3.745    c1.469,0.286,2.893-0.068,4.015-0.993c1.107-0.913,1.742-2.258,1.742-3.69c0-1.296-0.515-2.51-1.449-3.418    c-1.268-1.231-1.626-3.15-0.892-4.774c0.676-1.496,2.219-2.462,3.932-2.462h14.386V92.179c-0.001-1.711,0.965-3.256,2.461-3.933    c1.625-0.734,3.543-0.376,4.775,0.892c0.907,0.935,2.121,1.449,3.417,1.449c1.432,0,2.776-0.635,3.689-1.741    c0.926-1.123,1.279-2.549,0.994-4.016c-0.357-1.84-1.897-3.367-3.744-3.712c-1.63-0.306-3.213,0.189-4.349,1.354    c-1.241,1.271-3.093,1.632-4.723,0.923c-1.531-0.668-2.52-2.225-2.52-3.965V65.776H47.21c-0.099,0.025-0.15,0.066-0.159,0.077    c-0.058,0.129-0.002,0.213,0.037,0.251c1.717,1.668,2.662,3.901,2.662,6.288c0,2.631-1.165,5.101-3.197,6.776    c-2.031,1.675-4.702,2.343-7.321,1.834c-3.465-0.673-6.229-3.46-6.881-6.935c-0.548-2.922,0.384-5.895,2.493-7.951    c0.114-0.111,0.065-0.223,0.049-0.259c-0.01-0.014-0.068-0.056-0.169-0.081h-13.78v14.097c0,2.139-1.74,3.879-3.879,3.879    c-1.066,0-2.089-0.44-2.806-1.208c-1.15-1.23-2.776-1.748-4.456-1.42c-1.857,0.361-3.347,1.85-3.707,3.705    c-0.285,1.468,0.068,2.894,0.994,4.017c0.912,1.106,2.257,1.741,3.688,1.741c1.334,0,2.573-0.541,3.487-1.523    c0.71-0.763,1.731-1.201,2.799-1.201c2.139,0,3.879,1.74,3.879,3.879V106.566z"></path><path d="M85.802,125.998c-0.574,0-1.152-0.055-1.728-0.167c-3.464-0.672-6.229-3.459-6.88-6.935    c-0.547-2.922,0.384-5.894,2.492-7.951c0.114-0.111,0.066-0.222,0.05-0.258c-0.019-0.043-0.137-0.121-0.298-0.121H63.786    c-1.104,0-2-0.896-2-2s0.896-2,2-2h15.651c1.741,0,3.297,0.99,3.965,2.521c0.71,1.628,0.348,3.482-0.924,4.722    c-1.165,1.136-1.658,2.722-1.353,4.35c0.346,1.848,1.872,3.388,3.711,3.745c1.469,0.286,2.893-0.068,4.015-0.993    c1.107-0.913,1.742-2.258,1.742-3.69c0-1.296-0.515-2.51-1.449-3.418c-1.268-1.231-1.626-3.15-0.892-4.774    c0.676-1.496,2.219-2.462,3.932-2.462h14.385V92.179c0-1.712,0.966-3.256,2.46-3.933c1.625-0.735,3.543-0.377,4.775,0.891    c0.908,0.935,2.122,1.45,3.417,1.45c1.432,0,2.776-0.635,3.688-1.741c0.926-1.123,1.279-2.549,0.994-4.016    c-0.357-1.84-1.896-3.367-3.744-3.712c-1.625-0.304-3.213,0.188-4.349,1.354c-1.241,1.271-3.094,1.632-4.723,0.923    c-1.531-0.668-2.52-2.225-2.52-3.965V65.776H91.748c-2.139,0-3.879-1.74-3.879-3.879c0-1.066,0.439-2.088,1.206-2.805    c1.211-1.133,1.734-2.732,1.434-4.39c-0.337-1.864-1.865-3.417-3.717-3.776c-1.466-0.284-2.892,0.068-4.015,0.993    c-1.107,0.913-1.742,2.258-1.742,3.69c0,1.334,0.541,2.574,1.523,3.489c1.291,1.203,1.573,3.211,0.671,4.775    c-0.677,1.174-1.989,1.903-3.424,1.903H63.786c-1.104,0-2-0.896-2-2s0.896-2,2-2h15.792c-1.619-1.637-2.541-3.865-2.541-6.167    c0-2.632,1.166-5.102,3.197-6.777c2.031-1.674,4.701-2.343,7.321-1.833c3.488,0.677,6.257,3.486,6.891,6.991    c0.518,2.863-0.375,5.748-2.395,7.786h16.518c1.104,0,2,0.896,2,2v15.653c0,0.162,0.079,0.281,0.121,0.299    c0.036,0.016,0.147,0.064,0.258-0.049c2.056-2.109,5.025-3.04,7.95-2.493c3.475,0.651,6.261,3.416,6.934,6.882    c0.509,2.623-0.159,5.292-1.834,7.323c-1.675,2.032-4.145,3.197-6.775,3.197c-2.387,0-4.619-0.946-6.287-2.663    c-0.039-0.04-0.122-0.097-0.257-0.034c-0.03,0.013-0.11,0.123-0.11,0.289v16.388c0,1.104-0.896,2-2,2H92.184    c-0.165,0-0.274,0.08-0.288,0.11c-0.061,0.136-0.005,0.219,0.034,0.257c1.717,1.667,2.662,3.9,2.662,6.287    c0,2.631-1.166,5.102-3.197,6.777C89.811,125.304,87.837,125.998,85.802,125.998z"></path><path d="M63.786,65.797c-1.104,0-2.074-0.896-2.074-2v-16.52c-1.636,1.618-3.863,2.541-6.166,2.541c-2.63,0-5.1-1.165-6.775-3.197    c-1.675-2.031-2.343-4.7-1.834-7.323c0.667-3.438,3.428-6.199,6.869-6.87c2.906-0.566,5.835,0.32,7.906,2.372V19.007    c0-1.104,0.896-2,2-2h15.791c-1.618-1.636-2.541-3.864-2.541-6.167c0-2.632,1.166-5.102,3.198-6.777    c2.031-1.674,4.7-2.34,7.321-1.833c3.487,0.677,6.257,3.487,6.891,6.992c0.518,2.862-0.375,5.747-2.395,7.786h16.518    c1.104,0,2,0.896,2,2V34.66c0,0.162,0.078,0.281,0.12,0.299c0.041,0.019,0.148,0.065,0.259-0.048    c2.057-2.109,5.032-3.041,7.949-2.494c3.475,0.651,6.262,3.417,6.935,6.881c0.509,2.623-0.159,5.292-1.834,7.323    c-1.675,2.032-4.145,3.197-6.775,3.197c-2.387,0-4.619-0.946-6.287-2.663c-0.038-0.039-0.119-0.096-0.255-0.034    c-0.031,0.014-0.111,0.124-0.111,0.289v16.366c0,1.104-0.896,2-2,2s-2-0.896-2-2V47.41c0-1.712,0.966-3.256,2.461-3.933    c1.623-0.734,3.542-0.377,4.774,0.891c0.908,0.935,2.122,1.45,3.417,1.45c1.432,0,2.776-0.635,3.689-1.741    c0.926-1.123,1.279-2.549,0.994-4.016c-0.357-1.839-1.897-3.366-3.745-3.712c-1.624-0.305-3.211,0.188-4.348,1.354    c-1.24,1.271-3.093,1.633-4.723,0.923c-1.53-0.667-2.52-2.224-2.52-3.965V21.007H91.674c-2.139,0-3.879-1.74-3.879-3.879    c0-1.066,0.44-2.089,1.208-2.806c1.21-1.132,1.733-2.732,1.434-4.388c-0.338-1.865-1.866-3.418-3.718-3.777    c-1.469-0.285-2.892,0.068-4.014,0.993c-1.107,0.913-1.742,2.258-1.742,3.691c0,1.335,0.541,2.574,1.522,3.488    c1.291,1.203,1.573,3.211,0.672,4.776c-0.677,1.174-1.989,1.903-3.424,1.903H65.712v14.097c0,2.139-1.74,3.879-3.879,3.879    c-1.066,0-2.089-0.44-2.806-1.208c-1.15-1.231-2.776-1.749-4.456-1.42c-1.857,0.361-3.347,1.851-3.707,3.705    c-0.285,1.467,0.068,2.894,0.994,4.016c0.912,1.106,2.257,1.741,3.688,1.741c1.334,0,2.573-0.541,3.487-1.523    c0.712-0.764,1.732-1.201,2.8-1.201c2.139,0,3.879,1.74,3.879,3.879V63.42c0.024,0.122,0.037,0.248,0.037,0.377    C65.749,64.902,64.89,65.797,63.786,65.797z"></path></g></g></svg>