<svg height='100px' width='100px'  fill="#000000" xmlns="http://www.w3.org/2000/svg" xmlns:sodipodi="http://sodipodi.sourceforge.net/DTD/sodipodi-0.dtd" viewBox="0 0 100 100" x="0px" y="0px"><path d="m 66.0715,5 c 7.103944,0 12.857143,5.75877 12.857143,12.857143 0,7.097636 -5.752466,12.857143 -12.857143,12.857143 -7.103941,0 -12.857143,-5.758774 -12.857143,-12.857143 C 53.214357,10.759508 58.966829,5 66.0715,5 z m 0,3.214286 c -5.325603,0 -9.642857,4.317254 -9.642857,9.642857 0,5.325603 4.317254,9.642857 9.642857,9.642857 5.325603,0 9.642857,-4.317254 9.642857,-9.642857 0,-5.325603 -4.317254,-9.642857 -9.642857,-9.642857 z"></path><path d="m 71.753608,14.447878 -3.409265,3.409265 3.409265,3.409265 -2.272843,2.272843 -3.409265,-3.409265 -3.409265,3.409265 -2.272843,-2.272843 3.409265,-3.409265 -3.409265,-3.409265 2.272843,-2.272843 3.409265,3.409265 3.409265,-3.409265 2.272843,2.272843 z" color="#000"></path><path d="m 33.928643,5 c 7.103944,0 12.857143,5.75877 12.857143,12.857143 0,7.097636 -5.752466,12.857143 -12.857143,12.857143 -7.103941,0 -12.857143,-5.758774 -12.857143,-12.857143 C 21.0715,10.759508 26.823972,5 33.928643,5 z m 0,3.214286 c -5.325603,0 -9.642857,4.317254 -9.642857,9.642857 0,5.325603 4.317254,9.642857 9.642857,9.642857 5.325603,0 9.642857,-4.317254 9.642857,-9.642857 0,-5.325603 -4.317254,-9.642857 -9.642857,-9.642857 z"></path><path d="M 33.928643,37.142857 C 26.824699,37.142857 21.0715,42.901627 21.0715,50 c 0,7.097638 5.752466,12.857143 12.857143,12.857143 7.103941,0 12.857143,-5.758772 12.857143,-12.857143 0,-7.097635 -5.752472,-12.857143 -12.857143,-12.857143 z m 0,3.214286 c 5.325603,0 9.642857,4.317254 9.642857,9.642857 0,5.325602 -4.317254,9.642857 -9.642857,9.642857 -5.325603,0 -9.642857,-4.317255 -9.642857,-9.642857 0,-5.325603 4.317254,-9.642857 9.642857,-9.642857 z"></path><path d="M 28.246535,46.590735 31.6558,50 l -3.409265,3.409264 2.272843,2.272847 3.409265,-3.40927 3.409265,3.40927 2.272843,-2.272847 L 36.201486,50 l 3.409265,-3.409265 -2.272843,-2.272843 -3.409265,3.409265 -3.409265,-3.409265 -2.272843,2.272843 z" color="#000"></path><path d="m 66.0715,37.142857 c -7.103944,0 -12.857143,5.75877 -12.857143,12.857143 0,7.097638 5.752466,12.857143 12.857143,12.857143 7.103941,0 12.857143,-5.758772 12.857143,-12.857143 0,-7.097635 -5.752472,-12.857143 -12.857143,-12.857143 z m 0,3.214286 c 5.325603,0 9.642857,4.317254 9.642857,9.642857 0,5.325602 -4.317254,9.642857 -9.642857,9.642857 -5.325603,0 -9.642857,-4.317255 -9.642857,-9.642857 0,-5.325603 4.317254,-9.642857 9.642857,-9.642857 z"></path><path d="m 33.928643,69.285714 c -7.103944,0 -12.857143,5.758772 -12.857143,12.857143 C 21.0715,89.240495 26.823966,95 33.928643,95 c 7.103941,0 12.857143,-5.758772 12.857143,-12.857143 0,-7.097638 -5.752472,-12.857143 -12.857143,-12.857143 z m 0,3.214286 c 5.325603,0 9.642857,4.317255 9.642857,9.642857 0,5.325602 -4.317254,9.642857 -9.642857,9.642857 -5.325603,0 -9.642857,-4.317255 -9.642857,-9.642857 0,-5.325602 4.317254,-9.642857 9.642857,-9.642857 z"></path><path d="m 28.246535,78.733593 3.409265,3.409264 -3.409265,3.409264 2.272843,2.272848 3.409265,-3.409271 3.409265,3.409271 2.272843,-2.272848 -3.409265,-3.409264 3.409265,-3.409264 -2.272843,-2.272847 -3.409265,3.40927 -3.409265,-3.40927 -2.272843,2.272847 z" color="#000"></path><path d="m 66.0715,69.285714 c -7.103944,0 -12.857143,5.758772 -12.857143,12.857143 C 53.214357,89.240495 58.966823,95 66.0715,95 c 7.103941,0 12.857143,-5.758772 12.857143,-12.857143 0,-7.097638 -5.752472,-12.857143 -12.857143,-12.857143 z m 0,3.214286 c 5.325603,0 9.642857,4.317255 9.642857,9.642857 0,5.325602 -4.317254,9.642857 -9.642857,9.642857 -5.325603,0 -9.642857,-4.317255 -9.642857,-9.642857 0,-5.325602 4.317254,-9.642857 9.642857,-9.642857 z"></path></svg>