<svg height='100px' width='100px'  fill="#000000" xmlns="http://www.w3.org/2000/svg" viewBox="0 0 64 64" x="0px" y="0px"><title>caution, exclamation, danger, notice, warning</title><g><path d="M58.65,44.67,39.22,11a8.35,8.35,0,0,0-14.44,0L5.35,44.67a8.33,8.33,0,0,0,7.21,12.49H51.44a8.33,8.33,0,0,0,7.21-12.49ZM55.19,51a4.31,4.31,0,0,1-3.75,2.16H12.56a4.33,4.33,0,0,1-3.75-6.49L28.25,13a4.34,4.34,0,0,1,7.5,0L55.19,46.67A4.3,4.3,0,0,1,55.19,51ZM34,22.42V37.24a2,2,0,1,1-4,0V22.42a2,2,0,0,1,4,0Zm0,21.85V46a2,2,0,1,1-4,0V44.27a2,2,0,0,1,4,0Z"></path></g></svg>