<svg height='100px' width='100px'  fill="#000000" xmlns="http://www.w3.org/2000/svg" xmlns:xlink="http://www.w3.org/1999/xlink" version="1.1" x="0px" y="0px" viewBox="0 0 100 100" style="enable-background:new 0 0 100 100;" xml:space="preserve"><g><path d="M11.578,73.049l37.672,21.75C49.482,94.933,49.741,95,50,95s0.518-0.067,0.75-0.201l37.672-21.75   c0.464-0.268,0.75-0.763,0.75-1.299v-43.5c0-0.536-0.286-1.031-0.75-1.299L50.75,5.201c-0.465-0.268-1.035-0.268-1.5,0   l-37.672,21.75c-0.464,0.268-0.75,0.763-0.75,1.299v43.5C10.828,72.286,11.114,72.781,11.578,73.049z M25.386,22.443l5.791,3.344   c0.157,0.091,0.329,0.134,0.499,0.134c0.346,0,0.682-0.18,0.867-0.5c0.276-0.479,0.112-1.09-0.366-1.366l-4.791-2.766l10.557-6.095   L48,21l-10.557,6.095l-2.475-1.429c-0.478-0.277-1.09-0.113-1.366,0.366c-0.276,0.479-0.112,1.09,0.366,1.366l1.475,0.852   L25.136,34.2L15.08,28.394L25.386,22.443z M72.614,21.289l-10.057,5.806L52,21l10.057-5.806L72.614,21.289z M84.921,28.394   l-10.057,5.806l-5.1-2.945c-0.479-0.276-1.09-0.112-1.366,0.366s-0.112,1.09,0.366,1.366l4.099,2.367l-10.557,6.095L52,35.5   l10.557-6.095l3.377,1.95c0.157,0.091,0.329,0.134,0.499,0.134c0.346,0,0.682-0.18,0.867-0.5c0.276-0.479,0.112-1.09-0.366-1.366   l-2.377-1.372l10.057-5.806L84.921,28.394z M37.442,78.75c-0.69,0-1.25,0.56-1.25,1.25v3.796l-10.307-5.951V66.232l10.557,6.095   v4.506c0,0.553,0.447,1,1,1s1-0.447,1-1v-3.351l10.308,5.951v11.613l-10.058-5.807V80C38.692,79.31,38.133,78.75,37.442,78.75z    M13.828,44.77l10.058,5.807v12.19L13.828,56.96V44.77z M25.886,51.732l10.557,6.095v12.191l-10.557-6.095V51.732z M86.172,42.46   l-10.058,5.807V36.367l10.058-5.807V42.46z M74.114,49.422l-10.557,6.095V43.616l10.557-6.095V49.422z M51.25,50.722l10.308-5.951   v11.901L51.25,62.624V50.722z M50,48.556l-10.307-5.951L50,36.655l10.307,5.951L50,48.556z M37.693,41.45l-10.556-6.095   l10.306-5.95L48,35.5L37.693,41.45z M48.75,50.722v11.902l-10.308-5.952V44.771L48.75,50.722z M48.75,64.933v12.191l-10.308-5.952   V58.982L48.75,64.933z M51.25,79.433l10.308-5.951v11.613L51.25,91.046V79.433z M63.558,72.327l10.557-6.095v11.613L63.558,83.94   V72.327z M63.558,70.018v-4.351c0-0.553-0.447-1-1-1s-1,0.447-1,1v5.505L51.25,77.124V64.933l10.308-5.951v3.601   c0,0.553,0.447,1,1,1s1-0.447,1-1v-4.756l10.557-6.095v12.19L63.558,70.018z M76.114,50.577l10.058-5.807v12.19l-10.058,5.807   V50.577z M60.557,28.25L50,34.345L39.443,28.25L50,22.155L60.557,28.25z M23.886,36.366v7.259c0,0.553,0.447,1,1,1s1-0.447,1-1   v-6.104l10.557,6.095v11.902l-10.557-6.095v-2.547c0-0.553-0.447-1-1-1s-1,0.447-1,1v1.392L13.828,42.46V30.559L23.886,36.366z    M13.828,59.27l10.058,5.807v11.614l-10.058-5.807V59.27z M76.114,76.691V65.077l10.058-5.807v11.614L76.114,76.691z M50,8.232   l10.057,5.806L50,19.845l-10.057-5.806L50,8.232z"></path></g></svg>