<svg height='100px' width='100px'  fill="#000000" xmlns="http://www.w3.org/2000/svg" xmlns:xlink="http://www.w3.org/1999/xlink" version="1.1" x="0px" y="0px" viewBox="0 0 512 512" style="enable-background:new 0 0 512 512;" xml:space="preserve"><g><g><path d="M226,16H26c-5.522,0-10,4.477-10,10c0,26.708,0,433.934,0,460c0,5.522,4.478,10,10,10h200c5.523,0,10-4.478,10-10    c0-26.076,0-433.295,0-460C236,20.477,231.523,16,226,16z M216,36v110H36V36H216z M216,346H36V166h180V346z M36,476V366h180v110    H36z"></path><path d="M486,206c5.523,0,10-4.477,10-10v-40c0-5.523-4.477-10-10-10H326c-3.844,0-7.348,2.204-9.013,5.668    c-1.665,3.465-1.196,7.577,1.204,10.579L393.194,256l-75.003,93.753c-2.4,3.002-2.869,7.114-1.204,10.579S322.156,366,326,366h160    c5.523,0,10-4.478,10-10v-40c0-5.522-4.477-10-10-10c-5.522,0-10,4.478-10,10v30H346.807l67.002-83.753    c2.922-3.652,2.922-8.842,0-12.494L346.807,166H476v30C476,201.523,480.478,206,486,206z"></path></g></g></svg>