<svg height='100px' width='100px'  fill="#000000" xmlns:dc="http://purl.org/dc/elements/1.1/" xmlns:cc="http://creativecommons.org/ns#" xmlns:rdf="http://www.w3.org/1999/02/22-rdf-syntax-ns#" xmlns:svg="http://www.w3.org/2000/svg" xmlns="http://www.w3.org/2000/svg" xmlns:sodipodi="http://sodipodi.sourceforge.net/DTD/sodipodi-0.dtd" xmlns:inkscape="http://www.inkscape.org/namespaces/inkscape" version="1.1" x="0px" y="0px" viewBox="0 0 100 100"><g transform="translate(0,-952.36218)"><path d="m 26.000002,970.36215 c -9.93735,0 -18,8.06265 -18,18 l 0,27.99995 c 0,9.9374 8.06265,18.0001 18,18.0001 l 48,0 c 9.937346,0 17.999996,-8.0627 17.999996,-18.0001 l 0,-27.99995 c 0,-9.93735 -8.06265,-18 -17.999996,-18 z m 0,4 48,0 c 7.79054,0 13.999996,6.20946 13.999996,14 l 0,27.99995 c 0,7.7906 -6.209456,14.0001 -13.999996,14.0001 l -48,0 c -7.79054,0 -14,-6.2095 -14,-14.0001 l 0,-27.99995 c 0,-7.79054 6.20946,-14 14,-14 z m 13.875,11.84375 c -0.98352,0.0524 -1.84005,1.07136 -1.8125,2.15625 l 0,27.99995 c -0.0187,0.7529 0.36188,1.5019 0.95408,1.8776 0.5922,0.3757 1.37096,0.3622 1.95217,-0.034 l 22,-14 c 1.19511,-0.7182 1.19511,-2.9694 0,-3.6875 l -22,-14.00002 c -0.32505,-0.22198 -0.7118,-0.33248 -1.09375,-0.3125 z m 2.03125,5.8125 16.25,10.3437 -16.25,10.3125 z" style="text-indent:0;text-transform:none;direction:ltr;block-progression:tb;baseline-shift:baseline;color:#000000;enable-background:accumulate;" fill="#000000" fill-opacity="1" stroke="none" marker="none" visibility="visible" display="inline" overflow="visible"></path></g></svg>