<svg height='100px' width='100px'  fill="#000000" xmlns="http://www.w3.org/2000/svg" data-name="Layer 1" viewBox="0 0 64 64" x="0px" y="0px"><path d="M29.97932,19.42023A19.79932,19.79932,0,0,1,39.159,18.644a1,1,0,0,0,.3222-1.97374A20.502,20.502,0,0,0,29.66,17.472a1.0004,1.0004,0,0,0,.31933,1.94824Z"></path><path d="M29.97932,24.42023a20.53131,20.53131,0,0,1,7.20022-.99063,1.00013,1.00013,0,0,0,.10736-1.99717A20.43429,20.43429,0,0,0,29.66,22.472a1.00043,1.00043,0,0,0,.31933,1.94824Z"></path><path d="M29.97932,29.42023a20.4881,20.4881,0,0,1,7.20022-.99063,1.00013,1.00013,0,0,0,.10736-1.99717A20.41433,20.41433,0,0,0,29.66,27.472a1.00043,1.00043,0,0,0,.31933,1.94824Z"></path><path d="M22.42952,18.41144c-1.25008-.66907-7.60069-2.88272-7.62014-.59044a1.00022,1.00022,0,0,0,.99514,1.00548,13.34423,13.34423,0,0,1,5.74609,1.38183A1.00037,1.00037,0,0,0,22.42952,18.41144Z"></path><path d="M22.46272,23.42853a15.98061,15.98061,0,0,0-5.12012-1.73389,1.00027,1.00027,0,0,0-.30658,1.97657c1.72357.16434,3.3095,1.06265,4.953,1.63888A1.00574,1.00574,0,0,0,22.46272,23.42853Z"></path><path d="M22.46272,28.42853a15.98061,15.98061,0,0,0-5.12012-1.73389,1.00027,1.00027,0,0,0-.30658,1.97657c1.72357.16434,3.3095,1.06265,4.953,1.63888A1.00574,1.00574,0,0,0,22.46272,28.42853Z"></path><path d="M60.83089,49.35675a9.23068,9.23068,0,0,0-1.358.04273,7.91946,7.91946,0,0,0-11.28454-6.111V15.36017a2.00466,2.00466,0,0,0-.91211-1.68945,20.35544,20.35544,0,0,0-21.89533-.16163C21.112,8.511,15.4883,5.57794,10.53108,5.83283a.99984.99984,0,0,0-.95019.99853v4.114a20.26808,20.26808,0,0,0-6.48047,2.72632,1.999,1.999,0,0,0-.91211,1.688v30.666A1.99347,1.99347,0,0,0,5.16292,47.762a18.5188,18.5188,0,0,1,19.45215.8794.99413.99413,0,0,0,.97418.09363c-.04279.20392-.07215.41241-.09882.6217H24.4051a1,1,0,1,0,0,2h1.08533c1.32014,9.10468,14.30656,9.0974,15.62329,0H43.843c1.32555,9.12773,14.35591,9.08779,15.62988-.04272a9.28755,9.28755,0,0,0,1.358.04273A1.00019,1.00019,0,0,0,60.83089,49.35675ZM39.681,45.74518a18.48758,18.48758,0,0,1,4.69922,1.5805,7.81984,7.81984,0,0,0-.53723,2.03107H41.11372A7.82764,7.82764,0,0,0,39.681,45.74518Zm6.50733-30.385v29.3305a7.94464,7.94464,0,0,0-.80121.90564,20.59208,20.59208,0,0,0-8.35388-2.18011,7.85616,7.85616,0,0,0-9.97138,2.14361c-.29467.14649-.58856.29468-.87353.45466v-30.665A18.34292,18.34292,0,0,1,46.18831,15.36017ZM11.58089,7.82941c4.19921.19824,9.01855,2.99218,12.60351,7.35595V45.18878c-3.77441-3.86719-8.37207-6.20312-12.60351-6.3623ZM4.18831,46.0257l-.002-30.6753a18.29111,18.29111,0,0,1,5.39454-2.35058V39.83136a.99919.99919,0,0,0,1.0498.99854c3.0199-.15473,6.44263,1.15087,9.54028,3.49157A20.51161,20.51161,0,0,0,4.18831,46.0257ZM33.30159,56.23908c-7.7732-.24713-7.77137-11.51869.00013-11.76466C41.07615,44.72127,41.07432,55.99339,33.30159,56.23908Zm18.35351,0c-7.77455-.24685-7.77273-11.519.00013-11.76466C59.4283,44.72155,59.42648,55.99311,51.6551,56.23908Z"></path></svg>