<svg height='100px' width='100px'  fill="#000000" xmlns="http://www.w3.org/2000/svg" xmlns:xlink="http://www.w3.org/1999/xlink" version="1.1" x="0px" y="0px" viewBox="-255 347 100 100" style="enable-background:new -255 347 100 100;" xml:space="preserve"><g><polygon points="-176.7,377.8 -205,349.5 -234.3,378.8 -223.2,389.9 -213.1,379.8 -215.1,377.8 -223.2,385.9 -230.3,378.8    -205,353.5 -197.9,360.6 -207,369.7 -187.8,388.9 -185.8,386.9 -203,369.7 -195.9,362.6 -178.7,379.8  "></polygon><polygon points="-157.5,397 -167.6,386.9 -169.6,388.9 -161.5,397 -177.7,413.2 -184.8,406.1 -176.7,398 -178.7,396 -188.8,406.1    -179.7,415.2 -186.8,422.3 -204,405.1 -206,407.1 -188.8,424.3 -205,440.5 -221.2,424.3 -214.1,417.2 -206,425.3 -204,423.3    -221.2,406.1 -205,389.9 -196.9,398 -194.9,396 -205,385.9 -225.2,406.1 -216.1,415.2 -223.2,422.3 -239.4,406.1 -231.3,398    -233.3,396 -241.4,404.1 -248.5,397 -240.4,388.9 -242.4,386.9 -252.5,397 -205,444.5  "></polygon></g></svg>