<svg height='100px' width='100px'  fill="#000000" xmlns="http://www.w3.org/2000/svg" xmlns:xlink="http://www.w3.org/1999/xlink" version="1.1" x="0px" y="0px" viewBox="0 0 64 64" style="enable-background:new 0 0 64 64;" xml:space="preserve"><g><path d="M40.01,0.596L3.576,35.99l27.412,27.412L60,35.425V20.586L40.01,0.596z M53.414,28L58,23.414v9.172L53.414,28z    M55.086,32.5L53,34.586L33.414,15L39,9.414L54.086,24.5l-3.5,3.5L55.086,32.5z M6.424,36.01L39.99,3.404L57.586,21L55.5,23.086   L39,6.586L30.586,15L53,37.414l3.5-3.5l1.073,1.073l-26.56,25.612L6.424,36.01z"></path><path d="M20.586,48L31,58.414L41.414,48L31,37.586L20.586,48z M31,55.586L23.414,48L31,40.414L38.586,48L31,55.586z"></path><rect x="38" y="13.444" transform="matrix(0.7071 -0.7071 0.7071 0.7071 -9.0833 36.0711)" width="2" height="31.113"></rect><rect x="35" y="16.444" transform="matrix(0.7071 -0.7071 0.7071 0.7071 -12.0833 34.8284)" width="2" height="31.113"></rect><rect x="32" y="19.444" transform="matrix(0.7071 -0.7071 0.7071 0.7071 -15.0833 33.5858)" width="2" height="31.113"></rect><rect x="23.066" y="24.902" transform="matrix(0.7071 -0.7071 0.7071 0.7071 -15.6251 26.4086)" width="2" height="14.327"></rect><rect x="20" y="27.929" transform="matrix(0.7071 -0.7071 0.7071 0.7071 -18.598 25.1005)" width="2" height="14.142"></rect><rect x="17" y="30.929" transform="matrix(0.7071 -0.7071 0.7071 0.7071 -21.598 23.8579)" width="2" height="14.142"></rect><rect x="14" y="33.929" transform="matrix(0.7071 -0.7071 0.7071 0.7071 -24.598 22.6152)" width="2" height="14.142"></rect></g></svg>