<svg height='100px' width='100px'  fill="#000000" xmlns="http://www.w3.org/2000/svg" xmlns:xlink="http://www.w3.org/1999/xlink" version="1.1" x="0px" y="0px" viewBox="0 0 70 70" style="enable-background:new 0 0 70 70;" xml:space="preserve"><style type="text/css">
	.st0{fill:none;stroke:#000000;stroke-width:2;stroke-linecap:round;stroke-linejoin:round;stroke-miterlimit:10;}
	.st1{fill:none;stroke:#000000;stroke-width:2;}
	.st2{fill:none;stroke:#000000;stroke-width:2;stroke-linecap:round;}
	.st3{fill:none;}
	.st4{fill:none;stroke:#000000;stroke-width:2;stroke-linecap:round;stroke-linejoin:round;}
</style><g><g><path d="M35,59.0002441c-6.1025391,0-11.9208984-2.2973633-16.3818359-6.4682617    c-0.2050781-0.1914063-0.3203125-0.4599609-0.3173828-0.7397461c0.0029297-0.2802734,0.1230469-0.5463867,0.3310547-0.7338867    l17.7666016-15.9902344l-0.6601563-0.7329102c-0.0253906-0.027832-0.0488281-0.0566406-0.0703125-0.0869141L20.4160156,17.3010254    c-0.1875-0.2080078-0.2792969-0.4853516-0.2519531-0.7646484c0.0263672-0.2788086,0.1689453-0.5336914,0.3925781-0.7026367    C24.7460938,12.6716309,29.7402344,10.9997559,35,10.9997559c13.2333984,0,24,10.7666016,24,24.0004883    C59,48.2336426,48.2333984,59.0002441,35,59.0002441z M20.7998047,51.7976074    C24.7705078,55.1604004,29.7714844,57.0002441,35,57.0002441c12.1308594,0,22-9.8691406,22-22    c0-12.1313477-9.8691406-22.0004883-22-22.0004883c-4.4550781,0-8.7011719,1.3081055-12.3505859,3.793457l14.5800781,16.2001953    c0.0253906,0.027832,0.0488281,0.0566406,0.0703125,0.0869141l1.2539063,1.3930664    c0.1777344,0.1967773,0.2695313,0.456543,0.2558594,0.7211914c-0.0146484,0.2651367-0.1328125,0.5136719-0.3300781,0.690918    L20.7998047,51.7976074z"></path></g><g><path d="M16.6230469,49.8303223c-0.0322266,0-0.0634766-0.0014648-0.0957031-0.0043945    c-0.2792969-0.0273438-0.5341797-0.1699219-0.703125-0.3935547C12.6679688,45.2443848,11,40.2541504,11,35.0002441    c0-6.097168,2.2929688-11.9116211,6.4570313-16.3720703c0.1923828-0.2045898,0.4443359-0.2797852,0.7402344-0.3173828    c0.2802734,0.0024414,0.546875,0.1225586,0.734375,0.3310547l13.9775391,15.5302734    c0.3691406,0.4106445,0.3359375,1.0429688-0.0742188,1.4121094L17.2919922,49.5734863    C17.1074219,49.739502,16.8691406,49.8303223,16.6230469,49.8303223z M18.1933594,20.810791    C14.8359375,24.7800293,13,29.7770996,13,35.0002441c0,4.4492188,1.3046875,8.6923828,3.7851563,12.3388672l13.96875-12.5722656    L18.1933594,20.810791z"></path></g></g></svg>