<svg height='100px' width='100px'  fill="#000000" xmlns="http://www.w3.org/2000/svg" viewBox="0 0 96 96" x="0px" y="0px"><title>Artboard 10</title><path d="M80,56.3684V42a2.0023,2.0023,0,0,0-.7812-1.5859,1.9558,1.9558,0,0,0-1.7344-.3457L70.0425,42.053a18.0506,18.0506,0,0,0-12.1592-9.5676,16,16,0,1,0-19.7666,0A18.0506,18.0506,0,0,0,25.9575,42.053l-7.4419-1.9846a1.9484,1.9484,0,0,0-1.7343.3457A2.0021,2.0021,0,0,0,16,42V56.3684A5.99,5.99,0,0,0,12,62v4a5.99,5.99,0,0,0,4,5.6316V82a1.9982,1.9982,0,0,0,1.4844,1.9316l30,8a1.9775,1.9775,0,0,0,1.0312,0l30-8A1.9982,1.9982,0,0,0,80,82V71.6316A5.99,5.99,0,0,0,84,66V62A5.99,5.99,0,0,0,80,56.3684ZM36,20A12,12,0,1,1,48,32,12.0131,12.0131,0,0,1,36,20ZM16,62a2.0026,2.0026,0,0,1,2-2h2a4,4,0,0,1,0,8H18a2.0026,2.0026,0,0,1-2-2ZM46,87.3965,20,80.4629V72a8,8,0,0,0,0-16V44.6035l26,6.9336Zm2-39.4656L29.8823,43.1A14.0228,14.0228,0,0,1,42,36H54a14.0228,14.0228,0,0,1,12.1177,7.1Zm28,32.532L50,87.3965V51.5371l26-6.9336V56a8,8,0,0,0,0,16ZM80,66a2.0026,2.0026,0,0,1-2,2H76a4,4,0,0,1,0-8h2a2.0026,2.0026,0,0,1,2,2Z"></path></svg>