<svg height='100px' width='100px'  fill="#000000" xmlns="http://www.w3.org/2000/svg" xmlns:xlink="http://www.w3.org/1999/xlink" version="1.1" x="0px" y="0px" viewBox="0 0 96 96" style="enable-background:new 0 0 96 96;" xml:space="preserve"><g><g><path d="M78,4H30c-7.7,0-14,6.3-14,14v4.2C9.2,23.1,4,29,4,36v24c0,7.7,6.3,14,14,14h34.9l11.4,17.1c0.4,0.6,1,0.9,1.7,0.9    c0.2,0,0.4,0,0.6-0.1c0.8-0.3,1.4-1,1.4-1.9V73.8c6.8-1,12-6.8,12-13.8v-4.2c6.8-1,12-6.8,12-13.8V18C92,10.3,85.7,4,78,4z M76,60    c0,5.5-4.5,10-10,10c-1.1,0-2,0.9-2,2v11.4l-8.3-12.5c0,0,0,0,0,0c-0.1-0.1-0.2-0.2-0.3-0.3c0,0-0.1-0.1-0.1-0.1    c-0.1,0-0.1-0.1-0.2-0.1c-0.1,0-0.1-0.1-0.2-0.1c0,0-0.1-0.1-0.1-0.1c-0.1,0-0.2-0.1-0.3-0.1c0,0-0.1,0-0.1,0c-0.1,0-0.3,0-0.4,0    c0,0,0,0,0,0H18c-5.5,0-10-4.5-10-10V36c0-5.5,4.5-10,10-10h48c5.5,0,10,4.5,10,10V60z M88,42c0,4.8-3.4,8.9-8,9.8V36    c0-7.7-6.3-14-14-14H20v-4c0-5.5,4.5-10,10-10h48c5.5,0,10,4.5,10,10V42z"></path><path d="M20,40c-4.4,0-8,3.6-8,8s3.6,8,8,8s8-3.6,8-8S24.4,40,20,40z M20,52c-2.2,0-4-1.8-4-4s1.8-4,4-4s4,1.8,4,4S22.2,52,20,52z    "></path><path d="M42,40c-4.4,0-8,3.6-8,8s3.6,8,8,8s8-3.6,8-8S46.4,40,42,40z M42,52c-2.2,0-4-1.8-4-4s1.8-4,4-4s4,1.8,4,4S44.2,52,42,52z    "></path><path d="M64,40c-4.4,0-8,3.6-8,8s3.6,8,8,8s8-3.6,8-8S68.4,40,64,40z M64,52c-2.2,0-4-1.8-4-4s1.8-4,4-4s4,1.8,4,4S66.2,52,64,52z    "></path></g></g></svg>