<svg height='100px' width='100px'  fill="#000000" xmlns="http://www.w3.org/2000/svg" xmlns:xlink="http://www.w3.org/1999/xlink" version="1.1" x="0px" y="0px" viewBox="0 0 64 64" style="enable-background:new 0 0 64 64;" xml:space="preserve"><g><g><g><path d="M62,33H32c-0.6,0-1-0.4-1-1V2c0-0.6,0.4-1,1-1c17.1,0,31,13.9,31,31C63,32.6,62.6,33,62,33z M33,31h28     C60.5,15.8,48.2,3.5,33,3V31z"></path></g><g><path d="M32,63C14.9,63,1,49.1,1,32c0-8,3-15.5,8.5-21.3C15.5,4.4,23.4,1,32,1c0.6,0,1,0.4,1,1v29.6l21.4,20.4     c0.5,0.4,0.2,1.2,0,1.4C48.5,59.6,40.6,63,32,63z M31,3c-7.6,0.3-14.7,3.4-20,9c-5.2,5.4-8,12.5-8,20c0,16,13,29,29,29     c7.7,0,14.8-3,20.3-8.3l-21-19.9C31.1,32.5,31,32.3,31,32V3z"></path></g><g><path d="M53,53.4L31.3,32.7C31,32.4,31.1,31,32,31h30c0.6,0,1,0.4,1,1c0,8-3,15.5-8.5,21.3C54.3,53.5,53.4,53.8,53,53.4z      M34.5,33l19.2,18.2c4.5-5.1,7.1-11.5,7.3-18.2H34.5z"></path></g></g></g></svg>