<svg height='100px' width='100px'  fill="#000000" xmlns="http://www.w3.org/2000/svg" data-name="Layer 1" viewBox="0 0 128 128" x="0px" y="0px"><title>Miscellaneous 76 final</title><path d="M125.64362,92.43762a1.99985,1.99985,0,0,0,.71387-3.93549c-.42279-.07617-42.69476-7.41223-98.11359,11.61969-16.43707-.37122-26.366,1.33636-26.60126,1.3783a1.99994,1.99994,0,1,0,.71484,3.93549c.54883-.09863,55.64063-9.58295,122.7832,22.37006a1.99974,1.99974,0,0,0,1.71875-3.61133A246.37378,246.37378,0,0,0,39.6377,100.682C88.94489,86.10358,125.25775,92.3681,125.64362,92.43762Z"></path><path d="M120.54108,59.722a1.99923,1.99923,0,0,0-1.40234-.57422h-.01855a1.99946,1.99946,0,0,0-1.40918.59961l-9.74219,9.93842L89.52252,48.03845a2.00032,2.00032,0,0,0-2.93652-.11719l-9.60449,9.60345-17.98145-17.525V28.33832c20.62012,8.96875,35.3418-7.19916,35.49414-7.372a1.99961,1.99961,0,0,0-2.25684-3.17773C75.84088,24.5473,58.79694,1.07574,58.627.83746a1.99995,1.99995,0,0,0-3.627,1.16309v36.4032a1.96164,1.96164,0,0,0-.16406.11908L33.5274,57.306l-6.30566-4.86621a1.99648,1.99648,0,0,0-2.44824.00293l-24,18.62494a2.00028,2.00028,0,0,0,2.45312,3.16016L26.003,56.55206l6.34436,4.89526a1.97792,1.97792,0,0,0,.45251.48755l20,14.99994a1.9998,1.9998,0,1,0,2.40039-3.19922L36.68842,59.85181,56.0899,42.74939,74.1535,60.3537,63.586,70.92114a1.99979,1.99979,0,1,0,2.82813,2.82813l12-11.99994,9.46875-9.46777,18.46,21.663c.00977.01147.0224.01965.03241.03088l7.07892,8.62823a1.99976,1.99976,0,0,0,3.0918-2.53711l-5.99261-7.30414,8.61078-8.78363,5.43359,5.34467a1.99986,1.99986,0,1,0,2.80469-2.85156ZM59.00006,7.62653c5.14941,5.787,15.18262,15.1347,26.46582,15.40814a26.54511,26.54511,0,0,1-26.46582.89063Z"></path></svg>