<svg height='100px' width='100px'  fill="#000000" xmlns:dc="http://purl.org/dc/elements/1.1/" xmlns:cc="http://creativecommons.org/ns#" xmlns:rdf="http://www.w3.org/1999/02/22-rdf-syntax-ns#" xmlns:svg="http://www.w3.org/2000/svg" xmlns="http://www.w3.org/2000/svg" xmlns:sodipodi="http://sodipodi.sourceforge.net/DTD/sodipodi-0.dtd" xmlns:inkscape="http://www.inkscape.org/namespaces/inkscape" version="1.1" x="0px" y="0px" viewBox="0 0 100 100"><g transform="translate(0,-952.36218)"><path d="m 17,957.36217 c -1.0472,10e-5 -1.9999,0.95283 -2,2 l 0,86.00003 c 0,0.9868 0.8983,1.997 2,2 l 66,0 c 1.0472,-10e-5 1.9999,-0.9528 2,-2 l 0,-72.00003 c 0,-0.52203 -0.2225,-1.03918 -0.5938,-1.40625 l -14,-14 C 70.0391,957.5847 69.522,957.36617 69,957.36217 z m 2,4 48,0 0,12 c 0.013,0.92829 0.7847,1.99801 2,2 l 12,0 0,68.00003 -62,0 z m 52,2.84375 7.1562,7.15625 -7.1562,0 z m -46,3.15625 c -1.0848,-5e-4 -1.9975,1.077 -2,2 l 0,14 c 10e-5,1.0472 0.9528,1.9999 2,2 l 18,0 c 1.0472,-10e-5 1.9999,-0.9528 2,-2 l 0,-14 c -1e-4,-1.0472 -0.9528,-1.9999 -2,-2 z m 2,4 14,0 0,10 -14,0 z m 24,3 c -1.1046,0 -2,0.8954 -2,2 0,1.1046 0.8954,2 2,2 l 12,0 c 1.1046,0 2,-0.8954 2,-2 0,-1.1046 -0.8954,-2 -2,-2 z m -4.1875,14.96875 c -0.5861,0.0563 -1.1403,0.38638 -1.4687,0.875 l -7.875,11.37498 -4.3438,-2.90622 c -0.8754,-0.5891 -2.2234,-0.3442 -2.8125,0.5312 -0.589,0.87542 -0.3129,2.22352 0.5625,2.81252 l 6,4 c 0.8669,0.5901 2.193,0.3368 2.7812,-0.5312 l 9,-13.00002 c 0.4487,-0.6237 0.4813,-1.5241 0.094,-2.18751 -0.3875,-0.66342 -1.1738,-1.05328 -1.9375,-0.96875 z M 25,991.36218 c -1.0822,0.034 -2.0028,1.0796 -2,2 l 0,18.00002 c 10e-5,1.0472 0.9528,1.9999 2,2 l 18,0 c 1.0472,-10e-5 1.9999,-0.9528 2,-2 l 0,-2 c 0.015,-1.0566 -0.9433,-2.0313 -2,-2.0313 -1.0567,0 -2.0149,0.9747 -2,2.0313 l -14,0 0,-14.00002 10,0 c 1.0566,0.015 2.0312,-0.9433 2.0312,-2 0,-1.0567 -0.9746,-2.0149 -2.0312,-2 z m 26,9.00002 c -1.1046,0 -2,0.8954 -2,2 0,1.1046 0.8954,2 2,2 l 24,0 c 1.1046,0 2,-0.8954 2,-2 0,-1.1046 -0.8954,-2 -2,-2 z m -26,19 c -1.0848,-5e-4 -1.9975,1.077 -2,2 l 0,14 c 10e-5,1.0472 0.9528,1.9999 2,2 l 18,0 c 1.0472,-10e-5 1.9999,-0.9528 2,-2 l 0,-14 c -1e-4,-1.0472 -0.9528,-1.9999 -2,-2 z m 2,4 14,0 0,10 -14,0 z m 24,3 c -1.1046,0 -2,0.8954 -2,2 0,1.1046 0.8954,2 2,2 l 24,0 c 1.1046,0 2,-0.8954 2,-2 0,-1.1046 -0.8954,-2 -2,-2 z" style="text-indent:0;text-transform:none;direction:ltr;block-progression:tb;baseline-shift:baseline;color:#000000;enable-background:accumulate;" fill="#000000" fill-opacity="1" stroke="none" marker="none" visibility="visible" display="inline" overflow="visible"></path></g></svg>