<svg height='100px' width='100px'  fill="#000000" xmlns="http://www.w3.org/2000/svg" xmlns:xlink="http://www.w3.org/1999/xlink" version="1.1" x="0px" y="0px" viewBox="0 0 91 91" style="enable-background:new 0 0 91 91;" xml:space="preserve"><g><g><path d="M19.8,42.7c10.5,0,19-8.5,19-19c0-2.7-0.6-5.3-1.6-7.8c-0.4-0.9-1.5-1.3-2.4-0.9c-0.9,0.4-1.3,1.5-0.9,2.4    c0.9,2,1.3,4.1,1.3,6.3c0,8.5-6.9,15.3-15.3,15.3S4.5,32.2,4.5,23.7S11.3,8.4,19.8,8.4c2.5,0,4.9,0.6,7,1.7    c0.3,0.4,0.8,0.6,1.3,0.6h55.5v26H39.5c-1,0-1.8,0.8-1.8,1.8s0.8,1.8,1.8,1.8h45.9c1,0,1.8-0.8,1.8-1.8V8.9c0-1-0.8-1.8-1.8-1.8    H28.9c-2.8-1.5-5.9-2.3-9.1-2.3c-10.5,0-19,8.5-19,19S9.3,42.7,19.8,42.7z"></path><path d="M88.6,59.4c-0.4-0.9-1.5-1.3-2.4-0.9c-0.9,0.4-1.3,1.5-0.9,2.4c0.9,2,1.3,4.1,1.3,6.3c0,8.5-6.9,15.3-15.3,15.3    S56,75.6,56,67.2s6.9-15.3,15.3-15.3c2.6,0,5.2,0.7,7.5,1.9c0.9,0.5,2,0.2,2.5-0.7s0.2-2-0.7-2.5c-2.8-1.6-6-2.4-9.3-2.4    c-10.5,0-19,8.5-19,19c0,5,2,9.6,5.2,13H7.8v-26h43c1,0,1.8-0.8,1.8-1.8s-0.8-1.8-1.8-1.8H6c-1,0-1.8,0.8-1.8,1.8V82    c0,1,0.8,1.8,1.8,1.8h55.6c0.1,0,0.3-0.1,0.4-0.1c2.7,1.5,5.9,2.4,9.2,2.4c10.5,0,19-8.5,19-19C90.2,64.4,89.7,61.8,88.6,59.4z"></path><path d="M15.6,61.8H34c1,0,1.8-0.8,1.8-1.8S35,58.2,34,58.2H15.6c-1,0-1.8,0.8-1.8,1.8S14.6,61.8,15.6,61.8z"></path><path d="M40.2,61.8c1,0,1.8-0.8,1.8-1.8s-0.8-1.8-1.8-1.8h-0.7c-1,0-1.8,0.8-1.8,1.8s0.8,1.8,1.8,1.8H40.2z"></path><path d="M15.6,68.7h9.6c1,0,1.8-0.8,1.8-1.8s-0.8-1.8-1.8-1.8h-9.6c-1,0-1.8,0.8-1.8,1.8C13.8,67.9,14.6,68.7,15.6,68.7z"></path><path d="M46.1,66.8c0-1-0.8-1.8-1.8-1.8h-14c-1,0-1.8,0.8-1.8,1.8s0.8,1.8,1.8,1.8h13.9C45.2,68.7,46.1,67.9,46.1,66.8z"></path><path d="M16,76.1h19.5c1,0,1.8-0.8,1.8-1.8s-0.8-1.8-1.8-1.8H16c-1,0-1.8,0.8-1.8,1.8C14.2,75.3,15,76.1,16,76.1z"></path><path d="M42.8,72.5h-1.7c-1,0-1.8,0.8-1.8,1.8s0.8,1.8,1.8,1.8h1.7c1,0,1.8-0.8,1.8-1.8S43.8,72.5,42.8,72.5z"></path><path d="M64.2,14.7h-20c-1,0-1.8,0.8-1.8,1.8s0.8,1.8,1.8,1.8h20c1,0,1.8-0.8,1.8-1.8S65.2,14.7,64.2,14.7z"></path><path d="M71.3,18.4c1,0,1.8-0.8,1.8-1.8s-0.8-1.8-1.8-1.8h-0.7c-1,0-1.8,0.8-1.8,1.8s0.8,1.8,1.8,1.8H71.3z"></path><path d="M44.3,25.3h5c1,0,1.8-0.8,1.8-1.8s-0.8-1.8-1.8-1.8h-5c-1,0-1.8,0.8-1.8,1.8S43.2,25.3,44.3,25.3z"></path><path d="M53.6,23.4c0,1,0.8,1.8,1.8,1.8h20.3c1,0,1.8-0.8,1.8-1.8s-0.8-1.8-1.8-1.8H55.5C54.5,21.6,53.6,22.4,53.6,23.4z"></path><path d="M44.7,29c-1,0-1.8,0.8-1.8,1.8s0.8,1.8,1.8,1.8h19.5c1,0,1.8-0.8,1.8-1.8S65.2,29,64.2,29H44.7z"></path><path d="M74.2,29h-3.5c-1,0-1.8,0.8-1.8,1.8s0.8,1.8,1.8,1.8h3.5c1,0,1.8-0.8,1.8-1.8S75.2,29,74.2,29z"></path></g></g><circle cx="19.5" cy="30.9" r="1.7"></circle><path d="M25.4,21.8c0-3.2-2.6-5.8-5.8-5.8s-5.8,2.6-5.8,5.8c0,1,0.8,1.8,1.8,1.8s1.8-0.8,1.8-1.8c0-1.2,1-2.2,2.2-2.2s2.2,1,2.2,2.2  c0,1.2-1,2.2-2.2,2.2c-1,0-1.8,0.8-1.8,1.8s0.8,1.8,1.8,1.8C22.8,27.6,25.4,25,25.4,21.8z"></path><path d="M77.1,71.6H65.5c-0.6,0-1.2-0.3-1.5-0.9s-0.3-1.2,0-1.8l5.8-10c0.3-0.5,0.9-0.9,1.5-0.9s1.2,0.3,1.5,0.9l5.8,10  c0.3,0.5,0.3,1.2,0,1.8C78.3,71.2,77.7,71.6,77.1,71.6z M68.6,68.1h5.5l-2.7-4.7L68.6,68.1z"></path></svg>