<svg height='100px' width='100px'  fill="#000000" xmlns="http://www.w3.org/2000/svg" xmlns:xlink="http://www.w3.org/1999/xlink" version="1.1" x="0px" y="0px" viewBox="0 0 1024 1024" style="enable-background:new 0 0 1024 1024;" xml:space="preserve"><g><g><g><path d="M986.4,792.6c-14-37.7-36.5-71.4-66-98.7c-28.6-26.6-62.3-47.4-97.8-63.4     c-36.1-16.3-73.8-28.4-112.4-37.3c-36.1-8.3-72.8-14-109.6-17.9c-28-2.9-56.1-4.7-84.2-5.4c-2.7-0.1-5.3-0.1-8-0.1     c-10.8-0.2-20,9.3-20,20c0,32.7,0.2,65.4,0,98.2c0,0.4,0,0.8,0,1.2c0,0.2-0.3,2.2-0.1,2.6c-1.1-2.1,0.9-4.1,0.1-1.8     c-1.4,3.9-0.7,0.4,0.5-0.4c-0.5,0.4-2.1,3.2-2.3,3.9c0.9-3,2.5-2.9,0.6-1.1c-0.7,0.6-2.6,1.9,0,0.3c3.3-2.1-2.4,1.1-2.6,1.4     c0.2-0.4,4.8-1.6,1.7-0.8c-0.9,0.2-1.8,0.4-2.6,0.7c-2.3,0.9,4.5,0,2.1-0.2c-0.9-0.1-1.9,0-2.8,0.1c-2,0.1-1.3-1.3,2,0.4     c-0.5-0.3-1.7-0.3-2.2-0.5c-0.5-0.1-1.8-0.8-2.2-0.7c2.6-0.4,3.5,1.9,1.6,0.5c-1.8-1.2-2.7-2.7,0,0.3c-0.3-0.3-0.7-0.6-1.1-0.9     c-6.6-5.6-13.2-11.1-19.9-16.6c-29.6-24.8-59.2-49.6-88.8-74.5c-33.8-28.3-67.6-56.6-101.3-84.9c-16.8-14.1-33.9-27.8-50.4-42.2     c0,0,0,0-0.1-0.1c-0.7-0.6-1.3-1.2-2-1.9c-2.4-2.2,1.1,0.8,0.6,1c-0.2,0-1.2-1.9-1.4-2.2c-2.1-3.2,0.8,1.1,0.5,1.3     c-0.1,0-0.6-2.2-0.7-2.4c-1.3-3.7-0.2,4,0.1,0.3c0,0.1,0.1-2.5,0.1-2.5c1.2,1-1.1,4.3-0.1,1.6c-0.1,0.2,0.7-2.4,0.7-2.4     c0.2,0.1-2,4.4-0.2,0.7c0.3-0.6,1.8-3.2,0.3-0.7c-1.4,2.4,0,0.1,0.6-0.5c0.5-0.5,1-1,1.5-1.4c1.4-1.2,2.8-2.3,4.2-3.5     c8.6-7.2,17.2-14.4,25.8-21.6c31.4-26.3,62.9-52.7,94.3-79c32.7-27.4,65.4-54.8,98.1-82.3c10.3-8.6,20.5-17.2,30.8-25.8     c2.4-2,4.8-4,7.2-6.1c0.4-0.3,0.8-0.6,1.1-1c0.1-0.1-2,1.6-2,1.6c0,0,2.4-1.4,2.6-1.5c1.7-1.6-3.9,1.1-1.6,0.6     c0.7-0.1,1.5-0.4,2.2-0.6c2.8-0.9,1.4,1.1-1.4,0.1c0.6,0.2,6.9,0.1,2.8-0.1c-3.9-0.2,2,1,2.6,1c-0.6,0-4.3-2.3-1.8-0.6     c0.6,0.4,1.3,0.8,1.9,1.1c2.1,1.2-0.6,0.9-1.4-1.1c0.1,0.2,1.3,1.3,1.6,1.5c2.3,1.9-0.9-0.9-1-1.5c0.1,0.6,1.4,2.3,1.8,2.9     c1.7,2.7-0.8-1.2-0.6-1.6c0,0.1,0.6,1.9,0.7,2.2c1.1,3.1-0.5-1.2-0.1-1.8c-0.1,0.2,0.1,2.1,0.1,2.5c0,0.4,0,0.8,0,1.2     c0,6.6,0,13.2,0,19.8c0,21.4,0,42.9,0,64.3c0,4.4,0,8.8,0,13.2c0,11,9.2,19.8,20,20c13.4,0.3,26.7,1,40.1,2.2     c7.9,0.7,15.9,1.5,23.8,2.5c2.1,0.3,4.1,0.5,6.2,0.8c-1.8-0.3-5.7-0.8-2-0.3c1.3,0.2,2.7,0.4,4,0.6c4.3,0.6,8.7,1.3,13,2     c39.3,6.5,78.1,16.8,115.1,31.6c2.3,0.9,4.7,1.9,7,2.9c3.8,1.6-4.8-2.1-0.5-0.2c1.4,0.6,2.9,1.2,4.3,1.9c5.1,2.2,10.2,4.6,15.2,7     c9.9,4.8,19.7,10,29.2,15.6c9.9,5.8,19.5,12,28.9,18.5c2.3,1.7,4.7,3.3,7,5c1,0.7,1.9,1.4,2.9,2.2c0.7,0.5,1.4,1.1,2.2,1.7     c2.7,2-3.9-3.1-1.2-0.9c4.6,3.6,9.1,7.3,13.5,11.1c9,7.7,17.7,15.9,25.9,24.5c4.3,4.5,8.5,9.1,12.6,13.9c2,2.3,4,4.7,6,7.1     c0.8,1,1.6,2,2.5,3c0.6,0.8,1.2,1.5,1.8,2.3c1.1,1.4,2,4-0.7-0.9c3,5.4,7.7,10.3,11.2,15.3c3.7,5.3,7.2,10.8,10.6,16.3     c7.1,11.6,13.6,23.6,19.4,35.9c1.5,3.1,2.9,6.3,4.3,9.5c0.6,1.4,1.1,2.7,1.8,4.1c-2.9-6.2,0.4,1,1,2.4c2.7,6.7,5.2,13.5,7.6,20.3     c4.9,14.4,9.1,29,12.6,43.8c1.9,8,3.6,16.1,5,24.2c0.7,4.1,1.4,8.1,2.1,12.2c0.3,1.7,0.5,3.5,0.8,5.2c0.2,1.1,0.3,2.2,0.5,3.3     c0.7,5.3-0.4-3.5,0.1,0.7c2.2,17.7,3.8,35.4,4.5,53.2c0.4,9.5,0.6,18.9,0.6,28.4c0,10.5,9.2,20.5,20,20c10.8-0.5,20-8.8,20-20     c-0.1-68.8-9.5-139-35.6-203c-21-51.7-51.6-98.9-92.2-137.5c-34.8-33-75.6-59.4-119.3-78.7c-39.3-17.4-80.3-30-122.5-37.9     c-33-6.2-66.6-10.1-100.2-11.3c-2.9-0.1-5.9-0.2-8.8-0.3c6.7,6.7,13.3,13.3,20,20c0-32.7,0.6-65.5,0-98.3     c-0.4-19.9-12.9-36.9-32-42.9c-15.4-4.8-30.8,0.1-42.9,10c-6,4.9-11.9,10-17.9,15c-30.2,25.3-60.3,50.6-90.5,75.8     c-34.8,29.1-69.6,58.3-104.3,87.4c-11.9,10-23.7,19.9-35.6,29.9c-5.2,4.4-11.3,8.6-15.9,13.7c-15.9,18-15.6,46.7,2.9,63     c1.2,1.1,2.5,2.1,3.7,3.1c8.8,7.4,17.5,14.7,26.3,22.1c32.7,27.4,65.4,54.8,98.1,82.2c33.2,27.8,66.4,55.6,99.5,83.4     c9.6,8,19.1,16,28.7,24.1c1.7,1.4,3.4,2.9,5.1,4.3c14.6,12,32.7,15.1,50.1,6.9c15.6-7.3,24.4-23.5,24.6-40.3     c0.1-6.4,0-12.8,0-19.2c0-22,0-43.9,0-65.9c0-4.6,0-9.1,0-13.7c-6.7,6.7-13.3,13.3-20,20c26.2,0.4,52.3,1.8,78.4,4.1     c8.1,0.7,16.1,1.6,24.2,2.5c4,0.5,8,1,12,1.5c1,0.1,2,0.3,3.1,0.4c4,0.5-5.2-0.7-1.2-0.2c2.1,0.3,4.1,0.6,6.2,0.9     c17.8,2.6,35.6,5.7,53.3,9.3c36.3,7.6,72.2,17.8,106.6,31.7c1.5,0.6,8.8,3.9,2.6,1.1c2.1,0.9,4.2,1.8,6.3,2.7     c4.5,2,9,4.1,13.4,6.2c8.5,4.1,16.9,8.5,25,13.2c7.8,4.5,15.4,9.2,22.8,14.2c3.7,2.5,7.3,5.1,10.9,7.7c0.9,0.7,1.8,1.3,2.7,2     c3.3,2.5-3.8-3-0.5-0.4c2,1.6,4,3.2,6,4.9c7.9,6.5,15.5,13.5,22.6,20.9c3.3,3.4,6.5,6.9,9.6,10.6c1.7,1.9,3.3,3.9,4.9,5.9     c0.7,0.9,1.3,1.7,2,2.6c-4.1-4.9-0.6-0.8,0.2,0.3c6.2,8.3,11.8,17,16.8,26.1c2.5,4.6,4.9,9.3,7.1,14.1c0.5,1,0.9,2.1,1.4,3.1     c2.2,5.1-1.1-2.8,0.2,0.5c1,2.5,2,5,2.9,7.5c3.6,9.8,13.7,17.5,24.6,14C982,814.1,990.3,803.1,986.4,792.6z"></path></g></g><g><g><path d="M347.6,689.2c0,0.6-0.1,1.3-0.1,1.9c0,2.6,1.2-4,0.2-1.7c-0.3,0.7-1.6,4.6-0.2,1.5     c1.5-3.2-0.7,0.9-1.1,1.6c-0.3,0.5-1.6,2.3,0.2-0.2c1.9-2.7-0.1-0.2-0.7,0.4c-2.1,2.4,3.4-2,0.6-0.4c-0.9,0.5-4.6,2.3-1.5,1.1     c3.4-1.3-1.1,0.2-1.7,0.4c-2.8,1,4.6,0,0.4,0c-0.7,0-1.5-0.1-2.2,0c-1.7,0.3,2.3,0.3,2.5,0.4c-0.8-0.4-2.4-0.6-3.3-0.8     c-3-0.7,3.7,2,0-0.1c-1.6-0.9-2.1-2.4,0.5,0.6c-0.2-0.2-0.4-0.4-0.7-0.5c-4.2-3.7-8.6-7.2-12.9-10.8     c-20.5-17.2-41-34.3-61.4-51.5c-27.5-23-55-46.1-82.5-69.1c-24.3-20.4-48.6-40.7-72.8-61.1c-10.4-8.7-21.1-17.3-31.3-26.2     c-0.7-0.7-3.7-4.3-2.1-1.9c1.6,2.5-0.5-1.3-0.9-1.8c-1.5-1.9,0.8,3.6,0.6,1.2c0-0.5-0.3-1.3-0.5-1.8c-0.2-0.6-0.5-2.9-0.1,0.2     c0.5,3.4,0.2-0.3,0.1-1.1c-0.3-3.4-1.1,3.5-0.1,0.3c0.1-0.3,0.6-2.5,0.7-2.4c0.3,0.2-2.1,3.6-0.8,1.8c0.3-0.5,0.7-1.2,0.9-1.7     c1-2.2,1.3,0.2-0.8,0.9c0.8-0.3,2.2-2.3,2.9-2.9c0.7-0.6,1.5-1.3,2.3-1.9c5.4-4.6,10.9-9.1,16.3-13.7     c21.9-18.3,43.7-36.7,65.6-55c27.6-23.2,55.3-46.3,82.9-69.5c23.2-19.4,46.4-38.9,69.6-58.3c6.6-5.5,13.2-11.1,19.9-16.6     c1.5-1.2,2.9-2.4,4.4-3.7c0.2-0.2,0.4-0.3,0.6-0.5c-1.2,1.3-2.9,2.1-0.5,0.6c3.7-2.3-3.1,0.6,0-0.1c0.9-0.2,2.5-0.4,3.3-0.8     c-0.5,0.3-5,0.2-2,0.4c0.7,0.1,1.5,0,2.2,0c3.1,0-4.6-1.4-0.4,0.1c0.8,0.3,4.5,1.5,1.2,0.3c-3.3-1.3,0.7,0.6,1.5,1.1     c2.8,1.6-2.7-2.8-0.6-0.4c0,0.1,1.3,1.5,1.5,1.6c-0.3-0.1-2.1-3.5-1.4-1.9c0.3,0.8,1.3,2.9,2,3.4c-0.4-0.3-1-3.8-1-2.1     c0,0.4,0.3,1.3,0.5,1.7c1.1,3.1-0.5-1.2-0.1-1.8c-0.1,0.2,0.1,2.5,0.1,2.5c0.3,10.5,9,20.5,20,20c10.6-0.5,20.3-8.8,20-20     c-0.4-16.4-9.3-32.7-24.6-39.7c-17.1-7.9-34.8-5.4-49.4,6.4c-3.2,2.6-6.3,5.3-9.5,7.9c-19.9,16.7-39.8,33.4-59.7,50.1     c-28.7,24.1-57.4,48.1-86.1,72.2c-25.3,21.2-50.7,42.5-76,63.7c-7.7,6.5-15.5,13-23.2,19.5c-5.6,4.7-10.5,8.7-14.8,14.8     c-12.9,18.6-7.9,44.6,9,58.8c5.4,4.5,10.7,9,16.1,13.5c22.7,19.1,45.5,38.1,68.2,57.2c29,24.3,58,48.6,87,72.9     c23.1,19.4,46.2,38.7,69.3,58.1c5.7,4.8,11.4,9.5,17,14.3c1.1,0.9,2.1,1.8,3.2,2.6c14.6,11.6,33.1,14.1,49.9,5.5     c14.7-7.5,23.3-23,23.6-39.3c0.3-10.5-9.4-20.5-20-20C356.5,669.7,347.9,678,347.6,689.2L347.6,689.2z"></path></g></g></g></svg>