<svg height='100px' width='100px'  fill="#000000" xmlns="http://www.w3.org/2000/svg" data-name="Layer 1" viewBox="0 0 64 64" x="0px" y="0px"><title>online, learning, school, academy, education, book, reading</title><path d="M23.91,56.64l-.12.16a1,1,0,0,0,1.51,1.31,3.69,3.69,0,0,0,.28-.36,1,1,0,1,0-1.66-1.11Z"></path><path d="M14.93,63a13.3,13.3,0,0,0,8-2.65,1,1,0,0,0-1.19-1.6A11.32,11.32,0,0,1,14.93,61,11.49,11.49,0,0,1,3.46,49.52V37.08h23V49.52a11.4,11.4,0,0,1-1,4.6,1,1,0,1,0,1.83.8,13.39,13.39,0,0,0,1.13-5.4V36.06A13.48,13.48,0,0,0,15.93,22.65V12a1,1,0,0,0-.87-1.49h-.13a1,1,0,0,0-1,1V22.65A13.48,13.48,0,0,0,1.47,36s0,0,0,0V49.52A13.49,13.49,0,0,0,14.93,63ZM26.36,35.08H15.93V24.64A11.5,11.5,0,0,1,26.36,35.08ZM13.93,24.64V35.08H3.51A11.49,11.49,0,0,1,13.93,24.64Z"></path><path d="M61.54,38.12a1,1,0,0,0-1,1v.32a1,1,0,0,0,2,0v-.32A1,1,0,0,0,61.54,38.12Z"></path><path d="M58.44,22.54a2.74,2.74,0,0,0-.63-1,3,3,0,0,0-3.26-.65,2.92,2.92,0,0,0-1.48-1.56,3,3,0,0,0-2.18-.12V13.68a2,2,0,0,0-.06-.52A2.93,2.93,0,0,0,50,11.59,3,3,0,0,0,48,10.74a2.91,2.91,0,0,0-2.89,2.42,3,3,0,0,0,0,.52v9.49A2.93,2.93,0,0,0,41.12,26V39a1,1,0,0,0,.29.71L44.69,43v7.12a1,1,0,0,0,1,1H61.54a1,1,0,0,0,1-1V42.48A1,1,0,0,0,61,41.61H46.1l-3-3V26a.94.94,0,0,1,1.6-.66,1,1,0,0,1,.28.65V30a1,1,0,0,0,2,0V26s0,0,0,0V13.68a1,1,0,0,1,0-.18.92.92,0,0,1,.92-.76,1,1,0,0,1,.66.28.93.93,0,0,1,.25.5s0,.14,0,.16V22h0v3.43a1,1,0,0,0,2,0V22.05h0a.9.9,0,0,1,.08-.38,1,1,0,0,1,1.24-.48,1.12,1.12,0,0,1,.27.18,1,1,0,0,1,.29.67v1.6h0V25.7a1,1,0,0,0,2,0V23.64h0a1,1,0,0,1,.94-.94.89.89,0,0,1,.67.3.88.88,0,0,1,.27.64V25.7a1,1,0,0,0,2,0v-.46h0a.94.94,0,0,1,.94-.92,1,1,0,0,1,.66.26,1,1,0,0,1,.29.68V36.08a1,1,0,1,0,2,0V25.25a3,3,0,0,0-.87-2.1A3.05,3.05,0,0,0,58.44,22.54Zm2.09,26.6H46.69V43.61H60.54Z"></path><path d="M55.49,7.34a1,1,0,1,0,1.73-1,10.72,10.72,0,0,0-18.54,0,1,1,0,1,0,1.73,1,8.72,8.72,0,0,1,15.09,0Z"></path><path d="M47.95,5.68a6.08,6.08,0,0,0-5.84,4.43,1,1,0,1,0,1.93.54,4.06,4.06,0,0,1,7.83,0,1,1,0,0,0,1.93-.54A6.08,6.08,0,0,0,47.95,5.68Z"></path><path d="M18.11,10.52a1,1,0,0,0,0,2h.32a1,1,0,0,0,0-2Z"></path><path d="M34.42,63h19.5a1,1,0,0,0,1-1V53.76a1,1,0,0,0-2,0V61H35.42V11.52a1,1,0,0,0-1-1H21.47a1,1,0,0,0,0,2H33.42V62A1,1,0,0,0,34.42,63Z"></path></svg>