<svg height='100px' width='100px'  fill="#000000" xmlns="http://www.w3.org/2000/svg" xmlns:xlink="http://www.w3.org/1999/xlink" version="1.1" x="0px" y="0px" viewBox="0 0 100 100" enable-background="new 0 0 100 100" xml:space="preserve"><g><g><path d="M80.6,16.3c-0.5-1.8-1.7-3.2-3.3-4.1c-1.6-0.9-3.4-1.1-5.2-0.6L35.3,21.9c-0.4-1-0.9-1.8-1.8-2.4    c-0.7-0.5-1.6-0.7-2.5-0.7c-3.8,0-8.9,4.1-13,10.3c-0.7,1.1-1.4,2.3-2,3.4h-1.4c-3.8,0-6.9,3.1-6.9,6.9v35.8c0,0,0,0,0,0v0    c0,0.2,0,0.3,0.1,0.5c0,0.1,0,0.1,0.1,0.2c0,0.1,0.1,0.2,0.1,0.3c0,0.1,0.1,0.1,0.1,0.2c0.1,0.1,0.2,0.2,0.3,0.3    c0,0,0,0.1,0.1,0.1l13.9,11.4c0,0,0.1,0,0.1,0.1c0,0,0.1,0.1,0.1,0.1c0.1,0,0.1,0.1,0.2,0.1c0,0,0.1,0,0.1,0.1    c0.1,0,0.2,0.1,0.2,0.1c0,0,0.1,0,0.1,0c0.1,0,0.3,0,0.4,0c0,0,0,0,0,0h44.7c3.8,0,6.9-3.1,6.9-6.9V69.1l12.1-3.4    c3.6-1,5.8-4.8,4.8-8.5L80.6,16.3z M37.8,35.7C37.8,35.7,37.8,35.7,37.8,35.7l2.7,1.8c0.6,0.4,0.9,0.9,1.1,1.6    c0.1,0.7,0,1.3-0.4,1.9l-3,4.6c-0.4,0.6-0.9,1-1.6,1.1c-0.7,0.1-1.3,0-1.9-0.4L32,44.6c0,0,0,0,0,0l-4.3-2.8    c1.1-1.3,2.2-2.7,3.2-4.2c1-1.5,1.8-3.1,2.6-4.6L37.8,35.7z M51.8,34.7c-0.1,3.4-1.7,8.3-5,13.3c-2.6,3.9-5.6,7.1-8.6,9    c-2.5,1.6-4.7,2-5.8,1.3c-1.4-0.9-1.9-4.2-0.5-8.9l0.6,0.4c1.1,0.7,2.3,1.1,3.5,1.1c0.5,0,0.9,0,1.4-0.1c1.7-0.4,3.2-1.4,4.1-2.8    l3-4.6c1-1.5,1.3-3.2,0.9-4.9c-0.4-1.7-1.4-3.2-2.8-4.1l-0.6-0.4c3.7-3.2,6.9-4.1,8.4-3.2c0.9,0.6,1.4,1.9,1.4,3.8    c0,0,0,0.1,0,0.1C51.8,34.5,51.8,34.6,51.8,34.7z M30.9,22.7c0.2,0,0.3,0,0.4,0.1c0.9,0.6,0.7,5.7-3.7,12.5    c-1.5,2.2-2.9,4-4.3,5.3c0,0-0.1,0.1-0.1,0.1c-2.2,2.1-4.2,3.1-5.2,3.1c-0.2,0-0.3,0-0.4-0.1c-0.3-0.2-0.7-1.4-0.2-3.7    c0.3-1.5,0.9-3.1,1.7-4.8c0,0,0,0,0,0c0.1-0.2,0.2-0.4,0.3-0.6c0,0,0,0,0-0.1c0.6-1.1,1.2-2.3,1.9-3.4    C25.2,25.4,29.3,22.7,30.9,22.7z M21.6,82.5l-6.3-5.2h6.3V82.5z M71.1,81.8c0,1.6-1.3,2.9-2.9,2.9H25.6v-9.4c0-1.1-0.9-2-2-2H11.7    V39.4c0-1.5,1.1-2.7,2.5-2.8c-0.3,0.9-0.6,1.9-0.8,2.8c-1,5.1,0.8,7.1,1.9,7.9c0.7,0.5,1.6,0.7,2.5,0.7c2,0,4.4-1.2,6.9-3.2    l3.7,2.4c-2.4,6.8-1.8,12.3,1.7,14.6c1,0.7,2.2,1,3.6,1c2,0,4.2-0.8,6.6-2.3c3-1.9,6.1-4.9,8.7-8.6l5.1,3.3    c0.3,0.2,0.7,0.3,1.1,0.3c0.7,0,1.3-0.3,1.7-0.9c0.6-0.9,0.3-2.2-0.6-2.8l-5.1-3.3c2.5-4.2,4-8.4,4.4-12h12.6    c1.6,0,2.9,1.3,2.9,2.9V81.8z M86.2,61.8l-11,3.1V39.4c0-3.8-3.1-6.9-6.9-6.9H55.7c-0.3-2.3-1.3-4.2-3-5.3    c-3.5-2.3-8.8-0.6-14,4.3l-3.7-2.4c0.3-1.1,0.6-2.1,0.7-3.1l37.6-10.5c0.7-0.2,1.5-0.1,2.2,0.3c0.7,0.4,1.2,1,1.4,1.7l11.5,40.9    C88.6,59.8,87.7,61.4,86.2,61.8z"></path></g></g></svg>