<svg height='100px' width='100px'  fill="#000000" xmlns="http://www.w3.org/2000/svg" xmlns:xlink="http://www.w3.org/1999/xlink" version="1.1" x="0px" y="0px" viewBox="0 0 160 160" style="enable-background:new 0 0 160 160;" xml:space="preserve"><path d="M57.71,94.325c-0.03,0.15-0.07,0.31-0.11,0.46c0.04-0.15,0.07-0.31,0.1-0.46H57.71z"></path><path d="M105.52,56.135c-3.54,0-6.98,0.38-10.31,1.1V9.305c0-1.94-1.56-3.5-3.5-3.5H19.34c-7.66,0-13.88,6.22-13.88,13.87v90.23  c0,0.38,0.07,0.74,0.19,1.09c1.08,6.9,7.04,12.2,14.24,12.2h0.55v14.2c0,0.94,0.54,1.81,1.39,2.23c0.85,0.43,1.86,0.33,2.62-0.24  l7.07-5.35l7.06,5.35c0.44,0.33,0.98,0.51,1.51,0.51c0.38,0,0.76-0.09,1.11-0.27c0.85-0.42,1.39-1.29,1.39-2.23v-14.2h14.66  c-0.85-2.26-1.55-4.6-2.07-7H42.59v-4.94h3.61c1.38,0,2.5-1.12,2.5-2.5c0-1.38-1.12-2.5-2.5-2.5H22.94c-1.38,0-2.5,1.12-2.5,2.5  v7.44h-0.55c-4.1,0-7.43-3.34-7.43-7.44c0-4.1,3.33-7.43,7.43-7.43h34.24c0.18-2.38,0.52-4.72,1.01-7H19.89  c-2.72,0-5.26,0.77-7.43,2.08v-76.73c0-3.79,3.08-6.87,6.88-6.87h2.59v71.57c0,1.38,1.12,2.5,2.5,2.5s2.5-1.12,2.5-2.5v-71.57h61.28  v46.49c-15.22,5.77-26.84,18.9-30.5,35.03c-0.03,0.15-0.07,0.31-0.11,0.46c-0.06,0.3-0.12,0.59-0.18,0.89  c-0.12,0.58-0.22,1.17-0.32,1.76c-0.01,0.11-0.04,0.21-0.05,0.32c-0.11,0.71-0.2,1.42-0.27,2.13c-0.03,0.25-0.05,0.5-0.07,0.75  c-0.01,0.12-0.03,0.23-0.03,0.34c-0.01,0.12-0.02,0.24-0.03,0.35c-0.1,1.27-0.16,2.54-0.16,3.84c0,3.79,0.45,7.48,1.27,11.03  c0.05,0.25,0.11,0.49,0.17,0.74c0.06,0.26,0.12,0.52,0.19,0.78c0.13,0.47,0.26,0.93,0.4,1.4c0.13,0.43,0.26,0.86,0.4,1.28  c0.14,0.42,0.28,0.84,0.43,1.26c0.12,0.35,0.26,0.69,0.39,1.04c0.04,0.08,0.07,0.17,0.1,0.25c0.03,0.08,0.06,0.17,0.1,0.25  c7.2,18.13,24.91,31,45.58,31c27.03,0,49.02-22,49.02-49.03C154.54,78.125,132.55,56.135,105.52,56.135z M25.44,111.255h12.15v21.11  l-4.57-3.45c-0.44-0.34-0.97-0.51-1.5-0.51c-0.54,0-1.07,0.17-1.51,0.51l-4.45,3.36l-0.12,0.09V111.255z M121.75,68.245l1.57-1.14  c3.56,1.67,6.84,3.83,9.77,6.38c-0.16,0.04-0.32,0.05-0.49,0.01l-10.22-2.59c-1.02-0.26-2.09-0.25-3.1,0.03l-3.95,1.09  c-0.23,0.06-0.47,0.04-0.69-0.05c-0.41-0.16-0.56-0.49-0.62-0.67c-0.05-0.18-0.11-0.54,0.13-0.9l0.34-0.51  c0.2-0.31,0.53-0.49,0.89-0.49h2.8C119.47,69.405,120.71,69.005,121.75,68.245z M92.58,65.175l8.79,3.73  c0.19,0.08,0.28,0.29,0.22,0.48l-0.67,1.86c-0.05,0.15-0.2,0.26-0.36,0.26h-3.99c-2.07,0-3.98,1.21-4.87,3.09l-0.76,1.62  c-1.21,2.55-3.25,4.67-5.75,5.97l-0.47,0.25c-1.36,0.7-2.82,1.16-4.35,1.35l-5.45,0.7c-2.68,0.34-4.71,2.63-4.71,5.34v0.75  c0,1.14,0.35,2.23,1.02,3.15l1.54,2.13c0.01,0.03,0.03,0.06,0.04,0.09l-1.03,2.72l-6.31-6.24  C69.57,79.545,79.73,69.345,92.58,65.175z M63.49,105.165c0-2.41,0.21-4.77,0.6-7.07l5.79,5.73c-0.37,1.01-0.57,2.08-0.57,3.17  c0,1.54,0.38,3.07,1.12,4.42l2.37,4.37c0.77,1.42,2.13,2.42,3.71,2.74l3.75,0.76c0.21,0.04,0.37,0.23,0.37,0.45v13.1  c0,0.76,0.15,1.5,0.46,2.2l2.53,5.76c0.05,0.11,0.11,0.22,0.17,0.33C71.63,133.755,63.49,120.385,63.49,105.165z M89.08,138.595  c0,0.2-0.11,0.31-0.19,0.37c-0.09,0.07-0.23,0.13-0.41,0.07c-0.13-0.04-0.23-0.13-0.28-0.25l-2.54-5.76  c-0.02-0.06-0.03-0.12-0.03-0.19v-13.1c0-2.59-1.85-4.84-4.38-5.35l-3.74-0.76c-0.14-0.03-0.25-0.11-0.32-0.23l-2.37-4.37  c-0.33-0.62-0.51-1.32-0.51-2.03c0-1.19,0.5-2.33,1.37-3.13l2.82-2.6c0.1-0.09,0.21-0.12,0.3-0.12c0.03,0,0.05,0,0.07,0.01  c0.1,0.01,0.24,0.06,0.33,0.22l0.91,1.55c0.98,1.67,2.78,2.7,4.71,2.7h8.02c0.17,0,0.33,0.09,0.41,0.24l2.54,4.63  c0.95,1.74,2.79,2.83,4.78,2.83h1.99c0.25,0,0.46,0.2,0.46,0.46v4.25c0,0.17-0.1,0.32-0.25,0.4l-4.03,2.18  c-1.77,0.95-2.87,2.79-2.87,4.8v2.9c0,0.16-0.09,0.31-0.23,0.39l-3.91,2.35c-1.64,0.98-2.65,2.78-2.65,4.68V138.595z   M105.52,147.195c-5.69,0-11.12-1.15-16.07-3.2c0.85-0.14,1.67-0.47,2.38-0.98c1.41-1.03,2.25-2.68,2.25-4.42v-2.86  c0-0.16,0.08-0.31,0.22-0.39l3.92-2.35c1.63-0.98,2.65-2.77,2.65-4.68v-2.9c0-0.17,0.09-0.32,0.24-0.4l4.03-2.17  c1.78-0.96,2.88-2.8,2.88-4.81v-4.25c0-3.01-2.45-5.46-5.46-5.46h-1.99c-0.17,0-0.32-0.09-0.4-0.24l-2.54-4.63  c-0.96-1.74-2.79-2.83-4.79-2.83h-8.02c-0.16,0-0.31-0.09-0.4-0.23l-0.9-1.55c-0.84-1.43-2.27-2.39-3.91-2.64  c-0.6-0.09-1.21-0.08-1.79,0.03c0.03-1.18-0.3-2.33-1-3.3l-1.53-2.13c-0.05-0.07-0.08-0.15-0.08-0.23v-0.75  c0-0.19,0.15-0.36,0.34-0.38l5.45-0.69c2.11-0.27,4.14-0.91,6.03-1.89l0.47-0.24c3.46-1.8,6.29-4.74,7.96-8.28l0.76-1.62  c0.07-0.14,0.21-0.22,0.35-0.22h3.99c2.27,0,4.31-1.44,5.07-3.58l0.66-1.85c0.96-2.69-0.34-5.66-2.97-6.78l-2.2-0.93  c1.45-0.15,2.91-0.23,4.4-0.23c3.54,0,6.98,0.44,10.27,1.27h-0.41c-2.05,0-3.94,1.03-5.07,2.74l-0.34,0.51  c-0.99,1.52-1.26,3.39-0.72,5.12c0.53,1.74,1.8,3.14,3.48,3.83c1.24,0.51,2.63,0.59,3.93,0.24l3.95-1.09c0.18-0.05,0.36-0.05,0.54,0  l10.23,2.58c0.49,0.13,0.99,0.19,1.49,0.19c1.04,0,2.06-0.27,2.98-0.79l0.99-0.56c1.57,1.76,3,3.66,4.26,5.66l-6.93,2.81  c-0.65,0.26-1.36,0.32-2.05,0.18l-4.99-1.03c-0.91-0.19-1.7-0.72-2.22-1.5c-1.59-2.37-4.25-3.79-7.1-3.79h-2.91  c-2.61,0-5.1,0.97-7.02,2.73c-2.62,2.4-3.82,5.92-3.22,9.41l0.56,3.27c0.46,2.71,2.22,5.04,4.69,6.24l5.75,2.79  c1.84,0.9,3.95,1.1,5.93,0.57l1.98-0.52c0.98-0.27,2.03-0.09,2.87,0.47l0.35,0.23c1.3,0.87,1.88,2.46,1.42,3.97l-0.4,1.33  c-0.65,2.17-0.43,4.46,0.63,6.47l8.67,16.36C129.4,141.625,118.1,147.195,105.52,147.195z M132.86,114.125  c-0.44-0.84-0.53-1.79-0.26-2.69l0.4-1.33c1.09-3.62-0.29-7.47-3.44-9.57l-0.34-0.23c-2.04-1.36-4.57-1.78-6.94-1.15l-1.98,0.53  c-0.82,0.22-1.69,0.14-2.46-0.23l-5.75-2.8c-1.02-0.5-1.75-1.46-1.94-2.58l-0.56-3.27c-0.31-1.81,0.31-3.64,1.67-4.88  c0.99-0.91,2.29-1.42,3.64-1.42h2.91c1.18,0,2.28,0.59,2.94,1.57c1.26,1.87,3.16,3.16,5.36,3.61l5,1.04  c1.66,0.34,3.37,0.19,4.94-0.45l7.48-3.03c2.57,5.44,4.01,11.51,4.01,17.92c0,8.62-2.61,16.63-7.07,23.31L132.86,114.125z"></path><path d="M59.94,123.195h-0.01c-0.03-0.08-0.07-0.17-0.09-0.25C59.87,123.025,59.9,123.115,59.94,123.195z"></path><path d="M57.93,116.935c-0.07-0.25-0.13-0.49-0.19-0.74h0.02C57.81,116.445,57.87,116.685,57.93,116.935z"></path><path d="M56.68,100.975c-0.01,0.12-0.02,0.24-0.03,0.35h-0.01C56.65,101.205,56.66,101.095,56.68,100.975z"></path><path d="M80.081,42.083V25.885c0-1.381-1.119-2.5-2.5-2.5H38.564c-1.381,0-2.5,1.119-2.5,2.5v16.198c0,1.381,1.119,2.5,2.5,2.5  h39.018C78.962,44.583,80.081,43.464,80.081,42.083z M75.081,39.583H41.064V28.385h34.018V39.583z"></path><path d="M45.358,54.556h25.431c1.381,0,2.5-1.119,2.5-2.5s-1.119-2.5-2.5-2.5H45.358c-1.381,0-2.5,1.119-2.5,2.5  S43.977,54.556,45.358,54.556z"></path></svg>