<svg height='100px' width='100px'  fill="#000000" xmlns="http://www.w3.org/2000/svg" viewBox="0 0 64 64" x="0px" y="0px"><title>23, archive, document, office, education, stationary, stationery,</title><g data-name="Layer 2"><path d="M19,11H12a1,1,0,0,0-1,1V31a1,1,0,0,0,1,1h7a1,1,0,0,0,1-1V12A1,1,0,0,0,19,11ZM18,30H13V13h5Z"></path><path d="M15.5,43A4.5,4.5,0,1,0,20,47.5,4.51,4.51,0,0,0,15.5,43Zm0,7A2.5,2.5,0,1,1,18,47.5,2.5,2.5,0,0,1,15.5,50Z"></path><path d="M27,32h7a1,1,0,0,0,1-1V12a1,1,0,0,0-1-1H27a1,1,0,0,0-1,1V31A1,1,0,0,0,27,32Zm1-19h5V30H28Z"></path><path d="M30.5,52A4.5,4.5,0,1,0,26,47.5,4.51,4.51,0,0,0,30.5,52Zm0-7A2.5,2.5,0,1,1,28,47.5,2.5,2.5,0,0,1,30.5,45Z"></path><path d="M53.68,6.11A1,1,0,0,0,53,5.88L38.49,7.14A1,1,0,0,0,38,7H8A1,1,0,0,0,7,8V56a1,1,0,0,0,1,1H38a1,1,0,0,0,1-1V30l2.29,26.12a1,1,0,0,0,1,.91h.09l14.94-1.31a1,1,0,0,0,.91-1.08L54,6.79A1,1,0,0,0,53.68,6.11ZM9,9H22V55H9ZM37,55H24V9H37Zm6.19-.08-4-45.83L52.13,8l4,45.82Z"></path><path d="M52.06,30.05,50.4,11.12a1,1,0,0,0-.35-.68,1,1,0,0,0-.73-.23l-7,.61a1,1,0,0,0-.91,1.09l1.66,18.92a1,1,0,0,0,.35.68,1,1,0,0,0,.65.24h.08l7-.61A1,1,0,0,0,52.06,30.05ZM45,29.66,43.51,12.73l5-.44L50,29.23Z"></path><path d="M48.62,42.4a4.5,4.5,0,0,0,.38,9l.4,0a4.5,4.5,0,1,0-.78-9Zm2.88,4.26a2.49,2.49,0,0,1-.57,1.83,2.51,2.51,0,0,1-1.7.88,2.5,2.5,0,0,1-.44-5H49a2.48,2.48,0,0,1,1.6.58,2.51,2.51,0,0,1,.88,1.7Z"></path></g></svg>