<svg height='100px' width='100px'  fill="#000000" xmlns="http://www.w3.org/2000/svg" viewBox="0 0 48 48" x="0px" y="0px"><title>21. Discussion</title><g data-name="21. Discussion"><path d="M13,16c0,2.76-.22,3.58.62,3.92s.9,0,4.79-3.92H25a2,2,0,0,0,2-2V12h2.66c.6.67,1.7,1.77,3.63,3.71a1,1,0,0,0,1.09.21c.85-.35.62-1.08.62-3.92a2,2,0,0,0,2-2V2a2,2,0,0,0-2-2H23a2,2,0,0,0-2,2V4H13a2,2,0,0,0-2,2v8A2,2,0,0,0,13,16ZM23,2H35v8c-1.89,0-2-.36-2,2.59C30.53,10.12,30.55,10,30,10H27V6a2,2,0,0,0-2-2H23ZM13,6H25v8c-7.47,0-7.29-.12-7.71.29L15,16.59V15a1,1,0,0,0-1-1H13Z"></path><path d="M20,10.2a1,1,0,1,0-2,0A1,1,0,0,0,20,10.2Z"></path><path d="M21.08,10.38a1,1,0,1,0,0-.76A1,1,0,0,0,21.08,10.38Z"></path><path d="M17,10a1,1,0,0,0-2,0A1,1,0,0,0,17,10Z"></path><path d="M29.71,5.29a1,1,0,0,0-1.42,1.42A1,1,0,0,0,29.71,5.29Z"></path><path d="M32,7a1,1,0,1,0-.71-1.71A1,1,0,0,0,32,7Z"></path><path d="M19,29a5,5,0,1,0,5-5A5,5,0,0,0,19,29Zm8,0a3,3,0,1,1-3-3A3,3,0,0,1,27,29Z"></path><path d="M43,33c-2.86,0-2.12-.29-4,1.59C37.08,32.67,37.84,33,35,33a5,5,0,0,0-4.76,3.55A5,5,0,0,0,28,36c-2.86,0-2.12-.29-4,1.59C22.08,35.67,22.84,36,20,36a5,5,0,0,0-2.24.55A5,5,0,0,0,13,33c-2.86,0-2.12-.29-4,1.59C7.08,32.67,7.84,33,5,33a5,5,0,0,0-5,5v6a1,1,0,0,0,1,1H15v2a1,1,0,0,0,1,1H32a1,1,0,0,0,1-1V45H47a1,1,0,0,0,1-1V38A5,5,0,0,0,43,33ZM2,43V38a3,3,0,0,1,3-3H6.59l1.7,1.71a1,1,0,0,0,1.42,0L11.41,35H13a3,3,0,0,1,3,3,5.35,5.35,0,0,0-1,3v2Zm29,3H17V41a3,3,0,0,1,3-3h1.59l1.7,1.71a1,1,0,0,0,1.42,0L26.41,38H28a3,3,0,0,1,3,3Zm15-3H33V41a5.23,5.23,0,0,0-1-3,3,3,0,0,1,3-3h1.59l1.7,1.71a1,1,0,0,0,1.42,0L41.41,35H43a3,3,0,0,1,3,3Z"></path><path d="M34,26a5,5,0,1,0,5-5A5,5,0,0,0,34,26Zm5-3a3,3,0,1,1-3,3A3,3,0,0,1,39,23Z"></path><path d="M9,31a5,5,0,1,0-5-5A5,5,0,0,0,9,31Zm0-8a3,3,0,1,1-3,3A3,3,0,0,1,9,23Z"></path></g></svg>