<svg height='100px' width='100px'  fill="#000000" xmlns="http://www.w3.org/2000/svg" data-name="Layer 2" viewBox="0 0 24 24" x="0px" y="0px"><title>UI</title><path d="M1.883,21.5a.42.42,0,0,1-.07,0,.5.5,0,0,1-.43-.5c0-.141.147-13.9,12.7-14.258V3a.5.5,0,0,1,.853-.354l7.413,7.412a.5.5,0,0,1,0,.707l-7.413,7.412a.5.5,0,0,1-.853-.353v-3.73c-9.664.226-11.7,6.974-11.725,7.043A.5.5,0,0,1,1.883,21.5Zm13.2-17.293V7.235a.5.5,0,0,1-.5.5c-8.9,0-11.314,6.929-11.964,10.778,1.6-2.289,5.045-5.425,11.964-5.425a.5.5,0,0,1,.5.5v3.029l6.205-6.2Z"></path></svg>