<svg height='100px' width='100px'  fill="#000000" xmlns="http://www.w3.org/2000/svg" xmlns:xlink="http://www.w3.org/1999/xlink" version="1.1" x="0px" y="0px" viewBox="0 0 100 100" style="enable-background:new 0 0 100 100;" xml:space="preserve"><path d="M89.59,3.5H51.5h-3H10.4c-3.8,0-6.9,3.09-6.9,6.9v38.1v3v38.1c0,3.81,3.1,6.9,6.9,6.9h38.1h3h38.1c3.81,0,6.9-3.1,6.9-6.9  V51.5v-3V10.41C96.5,6.6,93.4,3.5,89.59,3.5z M6.5,10.4c0-2.15,1.75-3.9,3.9-3.9h38.1v10.47h-6.81c-5.3,0-9.88,3.81-10.67,8.87  c-0.48,3.06,0.4,6.15,2.4,8.49c2.01,2.35,4.92,3.69,8,3.69h7.09V48.5H35.03v9.81c0,3.08-1.76,5.83-4.33,7.08  c-0.05,0.03-0.11,0.05-0.16,0.07c-0.14,0.06-0.28,0.12-0.42,0.17c-0.12,0.05-0.25,0.09-0.37,0.13c-0.1,0.03-0.19,0.06-0.29,0.09  c-0.17,0.05-0.35,0.08-0.53,0.12c-0.07,0.01-0.14,0.03-0.21,0.04c-0.09,0.01-0.17,0.02-0.26,0.03c-0.19,0.02-0.37,0.05-0.56,0.06  c-0.14,0.01-0.29,0-0.44,0c-0.12,0-0.24,0-0.36,0c-0.2-0.01-0.4-0.04-0.6-0.06c-0.07-0.01-0.15-0.01-0.22-0.03  c-0.07-0.01-0.14-0.03-0.22-0.04c-0.17-0.03-0.35-0.07-0.52-0.12c-0.1-0.03-0.19-0.06-0.29-0.09c-0.13-0.04-0.25-0.08-0.38-0.13  c-0.14-0.05-0.28-0.11-0.41-0.17c-0.06-0.03-0.11-0.05-0.17-0.08c-2.57-1.25-4.33-3.99-4.33-7.07V48.5H6.5V10.4z M48.5,80.03V93.5  H10.4c-2.15,0-3.9-1.75-3.9-3.9V51.5h10.47v6.81v0.27c0,3.07,1.35,5.98,3.69,8c0.68,0.58,1.43,1.06,2.22,1.44  c0.17,0.09,0.35,0.17,0.53,0.25c0.09,0.04,0.19,0.08,0.29,0.12c0.3,0.12,0.61,0.22,0.92,0.31c0.01,0,0.02,0.01,0.03,0.01  c0.39,0.11,0.78,0.21,1.19,0.27c0.33,0.05,0.66,0.08,0.98,0.1c0.05,0,0.11,0,0.16,0.01c0.16,0.01,0.33,0.02,0.49,0.02  c0.1,0,0.2-0.01,0.3-0.01c0.15,0,0.3-0.01,0.45-0.02c0.18-0.01,0.35-0.03,0.52-0.05c0.14-0.02,0.27-0.02,0.41-0.04  c0.68-0.11,1.33-0.28,1.96-0.52c0.04-0.01,0.08-0.03,0.12-0.05c0.22-0.09,0.44-0.17,0.66-0.28c0.87-0.4,1.7-0.92,2.44-1.56  c2.35-2.01,3.69-4.92,3.69-8v-0.27V51.5H48.5v13.47h9.81c3.83,0,7.15,2.72,7.71,6.33c0.35,2.22-0.26,4.38-1.72,6.08  c-1.44,1.68-3.52,2.65-5.72,2.65H48.5z M93.5,89.6c0,2.15-1.75,3.9-3.9,3.9H51.5V83.03h7.09c3.07,0,5.98-1.35,8-3.69  c2-2.34,2.88-5.44,2.4-8.49c-0.79-5.06-5.38-8.87-10.67-8.87H51.5V51.5h13.47v-9.81c0-3.07,1.75-5.81,4.31-7.06  c0.07-0.03,0.14-0.07,0.21-0.1c0.12-0.05,0.24-0.11,0.37-0.15c0.14-0.05,0.29-0.1,0.44-0.15c0.08-0.02,0.15-0.05,0.23-0.07  c0.2-0.06,0.41-0.1,0.62-0.14c0.04-0.01,0.08-0.02,0.12-0.02c0.13-0.02,0.25-0.03,0.38-0.04c0.15-0.02,0.3-0.04,0.45-0.05  c0.17-0.01,0.34,0,0.51,0c0.1,0,0.19,0,0.29,0c0.2,0.01,0.4,0.04,0.6,0.06c0.08,0.01,0.15,0.01,0.23,0.03  c0.07,0.01,0.13,0.03,0.2,0.04c0.18,0.03,0.36,0.07,0.54,0.12c0.09,0.03,0.18,0.06,0.28,0.09c0.13,0.04,0.26,0.09,0.4,0.14  c0.13,0.05,0.26,0.1,0.39,0.16c0.06,0.03,0.13,0.06,0.19,0.09c2.56,1.25,4.32,3.99,4.32,7.07v9.81H93.5V89.6z M83.03,48.5v-6.81  v-0.27c0-3.07-1.35-5.98-3.69-8c-0.68-0.59-1.44-1.06-2.23-1.45c-0.17-0.08-0.33-0.16-0.5-0.24c-0.1-0.04-0.21-0.09-0.31-0.13  c-0.29-0.11-0.58-0.21-0.88-0.3c-0.03-0.01-0.05-0.02-0.08-0.02c-0.38-0.11-0.77-0.2-1.17-0.27c-0.25-0.04-0.5-0.05-0.74-0.08  c-0.11-0.01-0.22-0.03-0.33-0.03c-0.18-0.01-0.37,0-0.55,0c-0.21,0-0.42-0.01-0.63,0c-0.09,0.01-0.17,0.02-0.26,0.03  c-0.27,0.02-0.54,0.04-0.81,0.08c-0.4,0.06-0.8,0.16-1.18,0.27c-0.02,0-0.03,0.01-0.04,0.01c-0.31,0.09-0.61,0.19-0.91,0.31  c-0.1,0.04-0.2,0.08-0.29,0.12c-0.18,0.08-0.35,0.16-0.52,0.24c-0.79,0.39-1.54,0.86-2.22,1.45c-2.35,2.01-3.69,4.92-3.69,8v0.27  v6.81H51.5V35.03H41.41c-2.19,0-4.28-0.96-5.72-2.65c-1.45-1.7-2.06-3.86-1.72-6.08c0.56-3.61,3.88-6.33,7.71-6.33h9.81V6.5h38.09  c2.16,0,3.91,1.75,3.91,3.91V48.5H83.03z"></path></svg>