<svg height='100px' width='100px'  fill="#000000" xmlns="http://www.w3.org/2000/svg" xmlns:xlink="http://www.w3.org/1999/xlink" version="1.1" x="0px" y="0px" viewBox="0 0 100 100" style="enable-background:new 0 0 100 100;" xml:space="preserve"><path d="M92.5,5h-85C6.119,5,5,6.119,5,7.5v85C5,93.881,6.119,95,7.5,95H25c1.381,0,2.5-1.119,2.5-2.5V55  c0-12.407,10.094-22.5,22.5-22.5S72.5,42.593,72.5,55v37.5c0,1.381,1.119,2.5,2.5,2.5h17.5c1.381,0,2.5-1.119,2.5-2.5v-85  C95,6.119,93.881,5,92.5,5z M70.636,36.852c-0.116-0.131-0.229-0.265-0.346-0.394c-0.203-0.222-0.412-0.438-0.622-0.653  c-0.133-0.136-0.267-0.272-0.403-0.406c-0.113-0.111-0.22-0.228-0.334-0.337l4.095-4.726c1.741,1.625,3.291,3.437,4.654,5.389  l-5.256,3.378c-0.119-0.168-0.237-0.336-0.36-0.501c-0.121-0.162-0.249-0.319-0.373-0.479C71.351,37.69,71,37.266,70.636,36.852z   M30.333,35.806c-0.21,0.215-0.42,0.431-0.622,0.653c-0.118,0.129-0.231,0.263-0.346,0.394c-0.364,0.414-0.715,0.838-1.054,1.272  c-0.124,0.16-0.252,0.316-0.373,0.479c-0.123,0.165-0.241,0.333-0.36,0.501l-5.256-3.378c1.362-1.953,2.913-3.765,4.654-5.389  l4.095,4.726c-0.115,0.109-0.221,0.226-0.334,0.337C30.6,35.533,30.466,35.669,30.333,35.806z M15,56.25h7.5v2.5H10v-2.5H15z   M20.955,37.82l5.262,3.381c-0.063,0.108-0.117,0.22-0.178,0.328c-0.15,0.266-0.296,0.535-0.437,0.807  c-0.089,0.171-0.179,0.342-0.264,0.515c-0.171,0.345-0.332,0.695-0.489,1.048c-0.046,0.103-0.095,0.204-0.139,0.308  c-0.205,0.478-0.396,0.963-0.574,1.454c-0.014,0.039-0.026,0.079-0.04,0.118c-0.033,0.094-0.064,0.189-0.096,0.283l-5.993-1.759  C18.761,42.047,19.739,39.872,20.955,37.82z M23.29,48.46c-0.015,0.06-0.026,0.121-0.04,0.182c-0.084,0.354-0.164,0.709-0.234,1.067  c-0.02,0.1-0.035,0.2-0.054,0.299c-0.062,0.334-0.121,0.669-0.17,1.007c-0.022,0.147-0.037,0.295-0.056,0.443  c-0.038,0.291-0.076,0.582-0.104,0.876c-0.021,0.213-0.033,0.427-0.049,0.641c-0.017,0.233-0.038,0.466-0.049,0.7  c-0.001,0.025-0.004,0.05-0.005,0.076h-6.255c0.088-2.377,0.428-4.74,1.015-7.052L23.29,48.46z M67.036,33.432  c-0.174-0.137-0.347-0.274-0.524-0.407c-0.184-0.138-0.372-0.27-0.56-0.403c-0.343-0.245-0.69-0.482-1.044-0.711  c-0.249-0.162-0.498-0.323-0.753-0.477c-0.189-0.114-0.382-0.221-0.575-0.331c-0.253-0.145-0.508-0.287-0.767-0.424  c-0.089-0.047-0.176-0.1-0.265-0.147l2.598-5.69c2.125,1.07,4.122,2.374,5.98,3.869L67.036,33.432z M60.273,29.498  c-0.037-0.015-0.075-0.029-0.113-0.044c-0.14-0.056-0.28-0.113-0.421-0.166c-0.417-0.159-0.84-0.307-1.266-0.446  c-0.054-0.018-0.107-0.038-0.162-0.055c-1.005-0.319-2.035-0.58-3.086-0.783c-0.026-0.005-0.052-0.012-0.078-0.017l0.89-6.191  c2.341,0.424,4.626,1.11,6.83,2.021L60.273,29.498z M53.694,20.526l-1.022,7.106C51.793,27.547,50.902,27.5,50,27.5  s-1.793,0.047-2.672,0.132l-1.022-7.106H53.694z M44.853,27.987c-0.026,0.005-0.052,0.012-0.078,0.017  c-1.051,0.203-2.081,0.463-3.086,0.783c-0.054,0.017-0.108,0.037-0.162,0.055c-0.427,0.139-0.849,0.287-1.266,0.446  c-0.141,0.054-0.281,0.11-0.421,0.166c-0.037,0.015-0.075,0.029-0.113,0.044l-2.595-5.681c2.204-0.911,4.489-1.598,6.83-2.021  L44.853,27.987z M34.854,24.842l2.598,5.69c-0.09,0.046-0.176,0.099-0.265,0.147c-0.259,0.137-0.514,0.279-0.768,0.424  c-0.192,0.109-0.384,0.216-0.573,0.33c-0.255,0.154-0.505,0.316-0.755,0.478c-0.352,0.228-0.698,0.464-1.04,0.708  c-0.188,0.134-0.378,0.266-0.562,0.405c-0.177,0.133-0.35,0.27-0.523,0.407l-4.09-4.72C30.731,27.217,32.729,25.912,34.854,24.842z   M82.712,46.698c0.587,2.312,0.927,4.675,1.015,7.052h-6.255c-0.001-0.025-0.004-0.05-0.005-0.076  c-0.011-0.235-0.032-0.467-0.049-0.7c-0.016-0.214-0.028-0.427-0.049-0.641c-0.028-0.294-0.067-0.585-0.104-0.876  c-0.019-0.148-0.035-0.296-0.056-0.443c-0.049-0.338-0.109-0.673-0.17-1.007c-0.018-0.1-0.034-0.2-0.054-0.299  c-0.07-0.359-0.15-0.714-0.234-1.067c-0.014-0.06-0.025-0.121-0.04-0.182L82.712,46.698z M76.001,46.063  c-0.032-0.094-0.063-0.19-0.096-0.283c-0.014-0.039-0.026-0.079-0.04-0.118c-0.178-0.491-0.369-0.976-0.574-1.454  c-0.044-0.104-0.094-0.205-0.139-0.308c-0.156-0.353-0.318-0.703-0.489-1.048c-0.085-0.173-0.175-0.344-0.264-0.515  c-0.142-0.272-0.287-0.541-0.437-0.807c-0.061-0.109-0.115-0.221-0.178-0.328l5.262-3.381c1.217,2.052,2.194,4.228,2.949,6.483  L76.001,46.063z M77.5,56.25H85h5v2.5H77.5V56.25z M90,10v43.75h-3.795c-0.105-3.03-0.567-6.04-1.424-8.962  c-0.972-3.313-2.415-6.47-4.29-9.383c0,0,0-0.001-0.001-0.001c-1.872-2.906-4.146-5.527-6.757-7.792  c-2.616-2.269-5.534-4.147-8.674-5.584c-0.001,0-0.002,0-0.002-0.001c-2.772-1.268-5.69-2.155-8.679-2.686  c0.016-0.321-0.085-0.638-0.297-0.883c-0.237-0.274-0.582-0.432-0.944-0.432H44.863c-0.362,0-0.707,0.157-0.944,0.432  c-0.212,0.245-0.313,0.562-0.297,0.883c-2.989,0.532-5.907,1.418-8.679,2.686c-0.001,0-0.002,0-0.002,0.001  c-3.14,1.437-6.058,3.315-8.674,5.584c-2.611,2.264-4.885,4.886-6.757,7.792c0,0,0,0.001-0.001,0.001  c-1.876,2.913-3.319,6.07-4.29,9.383c-0.857,2.922-1.319,5.932-1.424,8.962H10V10H90z M10,90V61.25h12.5V90H10z M77.5,90V61.25H90  V90H77.5z"></path></svg>