<svg height='100px' width='100px'  fill="#000000" xmlns="http://www.w3.org/2000/svg" xmlns:xlink="http://www.w3.org/1999/xlink" version="1.1" x="0px" y="0px" viewBox="0 0 468.374 468.374" style="enable-background:new 0 0 468.374 468.374;" xml:space="preserve"><g><path d="M440.374,78.576H147.675v16h292.699c6.617,0,12,5.383,12,12v301.611c0,6.617-5.383,12-12,12h-382   c-23.159,0-42-18.841-42-42v-6.959c14.744-15.134,33.093-19.566,54.599-13.159c18.001,5.364,31.606,16.473,31.742,16.584   c5.115,4.226,13.1,0.459,13.1-6.164V90.123c0-31.946-25.978-57.936-57.907-57.936S0,58.177,0,90.123l0.374,288.064   c0,31.981,26.019,58,58,58h382c15.439,0,28-12.561,28-28V106.576C468.374,91.137,455.813,78.576,440.374,78.576z M16,90.123   C16,67,34.8,48.187,57.907,48.187S99.814,67,99.814,90.123v263.304C74.09,338.398,41.828,332.718,16,350.608V90.123z"></path><g><g><g><path d="M412.035,359.928l-7.916-52.861c-0.21-1.402-0.789-2.723-1.678-3.828c0,0-142.509-177.195-142.545-177.238      c-12.112-14.731-34.586-18.72-49.74-6.126c-14.715,12.23-16.348,35.05-3.641,50.868l142.104,176.891      c0.898,1.119,2.082,1.975,3.426,2.479l49.268,18.49C406.922,370.71,412.92,365.836,412.035,359.928z M218.989,160.722      c-7.273-9.054-6.648-21.858,1.394-28.543c8.334-6.926,20.597-3.99,27.112,3.93c0.076,0.094,1.361,1.692,3.613,4.492      l-28.752,24.312L218.989,160.722z M348.573,322.03L232.379,177.39l8.025-6.786l95.104,117.399l12.432-10.071l-95.315-117.66      l8.514-7.199c29.353,36.496,97.353,121.048,116.108,144.368L348.573,322.03z M359.719,335.903l-1.12-1.394l28.68-24.594      l1.338,1.663l5.58,37.265L359.719,335.903z"></path></g></g><g><g><path d="M276,369.113h-73.104c-4.418,0-8-3.582-8-8v-83.546c0-7.209,9.256-10.711,14.021-5.268l73.104,83.546      C286.46,360.917,282.721,369.113,276,369.113z M210.896,353.113h47.474l-47.474-54.254V353.113z"></path></g><path d="M362.164,388.707L167.897,166.691c-4.762-5.44-14.021-1.943-14.021,5.268v222.015c0,4.418,3.582,8,8,8h194.267     C362.863,401.975,366.605,393.781,362.164,388.707z M169.877,385.975v-25.899h13.808v-16h-13.808v-24.01h13.808v-16h-13.808     v-24.01h13.808v-16h-13.808v-24.01h13.808v-16h-13.808v-30.794l168.637,192.724H169.877z"></path></g></g></g></svg>