<svg height='100px' width='100px'  fill="#000000" xmlns="http://www.w3.org/2000/svg" xmlns:xlink="http://www.w3.org/1999/xlink" version="1.1" x="0px" y="0px" viewBox="0 0 512 512" style="enable-background:new 0 0 512 512;" xml:space="preserve"><title>Earthquakes-shake-destruction-disaster-quake</title><rect x="16" y="408" width="144" height="16"></rect><path d="M104,136h48V64h-48V136z M120,80h16v40h-16V80z"></path><path d="M184,64v72h48V64H184z M216,120h-16V80h16V120z"></path><path d="M104,232h48v-72h-48V232z M120,176h16v40h-16V176z"></path><path d="M184,232h48v-72h-48V232z M200,176h16v40h-16V176z"></path><path d="M438,221l-51.4,10.3L371.3,216h15.1l23.1-15.4l34.8,8.7l54.4-108.9L324.2,13.2l-52.2,111V32H64v264h43.3l20.7-20.7  l14.2,14.2l49.8-21.4v0.6L156.7,304h-24l-16,16H64v56H16v16h156.7l16,16l-24,24l24,24l-18.3,18.3l11.3,11.3l61.7-61.7H352v-16h-92.7  l-16-16h137.4l-16,16l32,32L376,460.7V496h16v-28.7l27.3-27.3l-32-32l16-16H496v-16H364.6L438,221z M331.8,34.8l145.5,72.8  l-41.6,83.1l-29.2-7.3L381.6,200h-48.9l48.7,48.7L410,243l-63,133H272v-71.1l3.6,1.8l31.2-62.3L272,227.1v-22.1l43.6,21.8l31.2-62.3  l-46.3-23.2L272,198.1v-36.3L331.8,34.8z M272,244.9l13.3,6.6L272,278.1V244.9z M290.7,196.4l16.8-33.7l17.7,8.8l-16.8,33.7  L290.7,196.4z M208,275.3V272h8v40h-24v-20.7L208,275.3z M204.7,376l32,32L200,444.7L187.3,432l24-24l-32-32H80v-40h43.3l16-16h24  l12.7-12.7V328h56v-72h-24v-12.1l-62.2,26.6L128,252.7L100.7,280H80V48h176v328H204.7z"></path><path d="M386.7,84.4l-46.3-23.2l-31.2,62.3l46.3,23.2L386.7,84.4z M330.7,116.4l16.8-33.7l17.7,8.8l-16.8,33.7L330.7,116.4z"></path><path d="M419.6,178.7l31.2-62.3l-46.3-23.2l-31.2,62.3L419.6,178.7z M411.6,114.7l17.7,8.8l-16.8,33.7l-17.7-8.8L411.6,114.7z"></path><path d="M301.3,315.6l46.3,23.2l31.2-62.3l-46.3-23.2L301.3,315.6z M357.3,283.6l-16.8,33.7l-17.7-8.8l16.8-33.7L357.3,283.6z"></path><path d="M448.8,267.9l-24.4,24.4l51.9,13l21.4-42.9l-38.1-38.1L448.8,267.9z M468.3,255.6l9.9,9.9l-10.6,21.1l-12.1-3l7.6-7.6  L468.3,255.6z"></path><rect x="420" y="327.1" transform="matrix(0.8944 -0.4472 0.4472 0.8944 -105.0786 226.8799)" width="16" height="17.9"></rect><rect x="472" y="340.7" transform="matrix(0.7071 -0.7071 0.7071 0.7071 -108.3129 442.5096)" width="16" height="22.6"></rect><path d="M480,40h16c0-13.2-10.8-24-24-24v16C476.4,32,480,35.6,480,40z"></path><polygon points="28.7,88 18.3,98.3 29.7,109.7 51.3,88 35.3,72 51.3,56 35.3,40 45.7,29.7 34.3,18.3 12.7,40 28.7,56 12.7,72 "></polygon><rect x="28.7" y="200" transform="matrix(0.7071 -0.7071 0.7071 0.7071 -135.3625 89.2061)" width="22.6" height="16"></rect><rect x="24" y="316.7" transform="matrix(0.7071 -0.7071 0.7071 0.7071 -222.5584 118.6964)" width="16" height="22.6"></rect><path d="M440,48c13.2,0,24,10.8,24,24h16c0-22.1-17.9-40-40-40c-7,0-13.9,1.8-20,5.4l8,13.8C431.7,49.1,435.8,48,440,48z"></path><rect x="416" y="408" width="80" height="16"></rect></svg>