<svg height='100px' width='100px'  fill="#000000" xmlns:x="http://ns.adobe.com/Extensibility/1.0/" xmlns:i="http://ns.adobe.com/AdobeIllustrator/10.0/" xmlns:graph="http://ns.adobe.com/Graphs/1.0/" xmlns="http://www.w3.org/2000/svg" xmlns:xlink="http://www.w3.org/1999/xlink" version="1.1" x="0px" y="0px" viewBox="0 0 100 100" style="enable-background:new 0 0 100 100;" xml:space="preserve"><g><g i:extraneous="self"><g><path d="M50,34.4c3.7,0,6.7-3,6.7-6.7s-3-6.7-6.7-6.7c-3.7,0-6.7,3-6.7,6.7S46.3,34.4,50,34.4z M50,25.1c1.4,0,2.6,1.2,2.6,2.6     s-1.2,2.6-2.6,2.6c-1.4,0-2.6-1.2-2.6-2.6S48.6,25.1,50,25.1z"></path><path d="M84.6,61.1c-0.6-1.2-2.1-1.6-3.2-1c-1.5,0.8-3,1.5-4.5,2.1L64,34.7c1-2.1,1.6-4.4,1.6-6.9c0-6.1-3.6-11.5-8.7-14V9.5     c0-3.9-3.1-7-7-7c-3.8,0-7,3.1-7,7v4.2c-5.2,2.6-8.7,7.9-8.7,14c0,2.5,0.6,4.8,1.6,6.9L23.2,62.1c-1.5-0.6-3-1.3-4.5-2.1     c-1.2-0.6-2.6-0.2-3.2,1c-0.6,1.2-0.2,2.6,1,3.2c1.5,0.8,3.1,1.5,4.7,2.2l-2.7,5.7c-0.1,0.3-0.2,0.6-0.2,1l1.4,22.4     c0.1,0.9,0.7,1.7,1.7,1.9c0.1,0,0.3,0,0.4,0c0.8,0,1.5-0.4,1.8-1.2L35.4,71c4,0.8,8.1,1.3,12.2,1.4v3.5c0,1.3,1.1,2.4,2.4,2.4     c1.3,0,2.4-1.1,2.4-2.4v-3.5c4.1-0.1,8.2-0.6,12.2-1.4l11.8,25.3c0.3,0.7,1.1,1.2,1.8,1.2c0.1,0,0.2,0,0.4,0     c0.9-0.2,1.6-0.9,1.7-1.9l1.4-22.4c0-0.3,0-0.7-0.2-1l-2.7-5.7c1.6-0.7,3.1-1.4,4.6-2.2C84.7,63.7,85.2,62.3,84.6,61.1z      M47.1,9.5c0-1.6,1.3-2.9,2.9-2.9c1.6,0,2.9,1.3,2.9,2.9v2.9C52,12.2,51,12.1,50,12.1c-1,0-2,0.1-2.9,0.3V9.5z M50,16.1     c6.4,0,11.6,5.2,11.6,11.6S56.4,39.4,50,39.4s-11.6-5.2-11.6-11.6S43.6,16.1,50,16.1z M23.3,87.4l-0.9-13.9l2.5-5.5     c2.1,0.8,4.3,1.4,6.4,2L23.3,87.4z M33.4,65.7c-2.2-0.5-4.3-1.2-6.5-2l11.7-25.1c1.6,1.6,3.5,2.9,5.6,3.8L33.4,65.7z M52.4,67.7     v-3.4c0-1.3-1.1-2.4-2.4-2.4c-1.3,0-2.4,1.1-2.4,2.4v3.4c-3.4-0.1-6.8-0.5-10.1-1.1l10.8-23.2c0.6,0.1,1.1,0.1,1.7,0.1     c0.6,0,1.1,0,1.7-0.1l10.8,23.2C59.2,67.2,55.8,67.5,52.4,67.7z M55.7,42.3c2.1-0.8,4.1-2.1,5.6-3.8l11.7,25.1     c-2.1,0.8-4.3,1.4-6.5,2L55.7,42.3z M76.7,87.4L68.6,70c2.2-0.6,4.3-1.2,6.5-2l2.5,5.5L76.7,87.4z"></path></g></g></g></svg>