<svg height='100px' width='100px'  fill="#000000" xmlns="http://www.w3.org/2000/svg" viewBox="0 0 64 64" x="0px" y="0px"><title>ruler</title><g data-name="Layer 12"><path d="M41.42,27.1V22a1,1,0,1,1,2,0V26.1h7.67a20,20,0,0,0-7.67-10.25v3a1,1,0,0,1-2,0V14.05a1,1,0,0,1,1.49-.87A21.89,21.89,0,0,1,53.38,26.86a1,1,0,0,1-.18.86,1,1,0,0,1-.79.38h-10A1,1,0,0,1,41.42,27.1ZM53.2,36.67a1,1,0,0,0-.79-.39H48.75a1,1,0,0,0,0,2h2.34a19.89,19.89,0,0,1-7.67,10.25V38.28h2.33a1,1,0,0,0,0-2H42.42a1,1,0,0,0-1,1v13a1,1,0,0,0,1,1,1,1,0,0,0,.49-.12A21.91,21.91,0,0,0,53.38,37.53,1,1,0,0,0,53.2,36.67ZM27.16,1V63a1,1,0,0,1-1,1H10.32a1,1,0,0,1-1-1V1a1,1,0,0,1,1-1H26.16A1,1,0,0,1,27.16,1Zm-2,1H11.32V5h8a1,1,0,0,1,0,2h-8V9.73h5a1,1,0,0,1,0,2h-5v2.72h5a1,1,0,0,1,0,2h-5v2.73H16a1,1,0,0,1,0,2H11.32v2.73h5a1,1,0,0,1,0,2h-5v2.73h5a1,1,0,0,1,0,2h-5v2.72h8a1,1,0,0,1,0,2h-8v2.73h5a1,1,0,0,1,0,2h-5v2.73H16a1,1,0,0,1,0,2H11.32v2.73h2.82a1,1,0,0,1,0,2H11.32v2.72h5a1,1,0,0,1,0,2h-5V57h5a1,1,0,0,1,0,2h-5v3H25.16Zm-5.8,17.18h-.79a1,1,0,0,0,0,2h.79a1,1,0,0,0,0-2Zm0,28.37H16.92a1,1,0,0,0,0,2h2.44a1,1,0,0,0,0-2ZM39.72,31.46a1,1,0,0,0-1.42,0,1,1,0,0,0-.29.7,1,1,0,0,0,.29.71,1,1,0,0,0,.71.29.68.68,0,0,0,.2,0l.18,0,.18-.1a.79.79,0,0,0,.15-.12,1,1,0,0,0,.29-.71,1,1,0,0,0-.29-.7ZM64,32.17v0a31.38,31.38,0,0,1-.43,5.26A31.77,31.77,0,0,1,32.23,64a1,1,0,0,1-1-1V1.38a1,1,0,0,1,1-1A31.8,31.8,0,0,1,63.61,26.94,30.79,30.79,0,0,1,64,32.15h0ZM54.93,51.54l-2.34-2.16A1,1,0,0,1,52.54,48,1,1,0,0,1,54,47.91L56.18,50A29.71,29.71,0,0,0,60,43.05l-2.45-1a1,1,0,0,1,.73-1.86l2.39.94a30.1,30.1,0,0,0,1-4,28.43,28.43,0,0,0,.36-4H58.88a1,1,0,1,1,0-2H62a27.79,27.79,0,0,0-1.39-8.09L58.28,24a.92.92,0,0,1-.36.07,1,1,0,0,1-.37-1.93l2.39-.94a29.65,29.65,0,0,0-3.81-6.83l-2.18,2a1,1,0,0,1-.68.27,1,1,0,0,1-.68-1.74l2.29-2.11a30,30,0,0,0-5.46-5l-1.57,2.32a1,1,0,0,1-.83.44,1,1,0,0,1-.56-.17A1,1,0,0,1,46.19,9l1.55-2.3A29.87,29.87,0,0,0,33.23,2.4V4.63h4.45a1,1,0,0,1,0,2H33.23V9.05H35a1,1,0,0,1,0,2H33.23v2.43H35a1,1,0,0,1,0,2H33.23V17.9h4.11a1,1,0,0,1,0,2H33.23v2.42H35a1,1,0,0,1,0,2H33.23v2.42H35a1,1,0,0,1,0,2H33.23v2.42h3.1a1,1,0,1,1,0,2h-3.1v2.42H35a1,1,0,1,1,0,2H33.23V40H35a1,1,0,0,1,0,2H33.23v2.42h4.11a1,1,0,0,1,0,2H33.23v2.42H35a1,1,0,0,1,0,2H33.23v2.42H35a1,1,0,0,1,0,2H33.23v2.42h4.11a1,1,0,0,1,0,2H33.23V62a29.63,29.63,0,0,0,8.86-1.66h0a29.52,29.52,0,0,0,5.59-2.64L46.07,55.3a1,1,0,0,1,.27-1.39,1,1,0,0,1,1.38.27l1.64,2.42A29.78,29.78,0,0,0,54.93,51.54Z"></path></g></svg>