<svg height='100px' width='100px'  fill="#000000" xmlns="http://www.w3.org/2000/svg" xmlns:xlink="http://www.w3.org/1999/xlink" version="1.1" x="0px" y="0px" viewBox="0 0 53 53" enable-background="new 0 0 53 53" xml:space="preserve"><g><path d="M1.73652,21.91331c0.14063,0.40088,0.51855,0.66895,0.94336,0.66895h3.37158v27.91553c0,0.55225,0.44775,1,1,1   c12.98973,0,24.52321,0,38.88281,0c0.55225,0,1-0.44775,1-1V22.58226H50.3c0.00732-0.00098,0.01318-0.00049,0.02002,0   c0.55225,0,1-0.44775,1-1c0-0.37256-0.2041-0.69775-0.50635-0.86963L27.11543,1.72191c-0.36621-0.29297-0.88477-0.29297-1.25098,0   l-7.73438,6.19788v-5.4176c0-0.55225-0.44775-1-1-1h-6.82031c-0.55225,0-1,0.44775-1,1v12.48566L2.05488,20.8015   C1.72334,21.06712,1.5959,21.51292,1.73652,21.91331z M17.58613,43.01854l3.83325,3.09753   c0.07928,0.06348,0.1734,0.11914,0.27344,0.15717c0.51611,0.19623,1.09351-0.06311,1.28973-0.57916   c0.94961-2.49771,2.8973-7.62061,3.84705-10.11865l4.71387,3.0979l0.03943,0.02588l0.03503,0.02179   c0.45502,0.26947,1.0423,0.11902,1.31177-0.336l2.91498-4.92273l3.46124,7.22937l-5.46179,5.49261   c-0.37793,0.38098-0.38965,0.99719-0.01892,1.39087l1.81067,1.92267H13.48939L17.58613,43.01854z M44.93428,49.49779h-6.55115   l-2.4386-2.58942l5.27606-5.30573l0.03857-0.03851c0.29718-0.29877,0.36194-0.77271,0.12994-1.14618l-4.94733-7.96405   l3.09052-5.21918c0.11072-0.1886,0.06238-0.43579-0.11877-0.56573c-0.19208-0.1377-0.45935-0.09363-0.59711,0.09839   l-6.97528,9.70831l-4.95428-3.25586c-0.05841-0.03784-0.12653-0.07349-0.19427-0.09918   c-0.51636-0.19604-1.09387,0.0636-1.28992,0.58002l-1.67047,4.3938l-3.84192-3.7887l2.75439-8.38531   c0.06628-0.20093-0.02649-0.42432-0.22284-0.51642c-0.2121-0.09955-0.46466-0.0083-0.56421,0.2038l-4.03876,8.60699   c-0.15924,0.34106-0.09741,0.76111,0.18597,1.04053l0.04132,0.04077l4.9093,4.84137l-1.35193,3.55597l-3.63379-2.93634   c-0.02954-0.02374-0.06146-0.04681-0.0943-0.0675c-0.46686-0.2951-1.08459-0.15582-1.3797,0.3111l-5.37256,8.49707H8.05146   V22.58226h36.88281V49.49779z M11.30976,3.50218h4.82031V9.5222l-0.42127,0.33783l-4.39905,3.52515V3.50218z M26.48994,3.78343   l20.96289,16.79883c-9.22294,0-31.25727,0-41.92432,0C7.59616,18.92525,14.14583,13.67856,26.48994,3.78343z"></path></g></svg>