<svg height='100px' width='100px'  fill="#000000" xmlns="http://www.w3.org/2000/svg" xmlns:xlink="http://www.w3.org/1999/xlink" viewBox="0 0 60 60" version="1.1" x="0px" y="0px"><title>42 -Arch- (Outline)</title><desc>Created with Sketch.</desc><g stroke="none" stroke-width="1" fill="none" fill-rule="evenodd"><g transform="translate(-220.000000, -850.000000)" fill="#000000"><g transform="translate(220.000000, 850.000000)"><path d="M39.0002,32 C38.4492,32 38.0002,32.449 38.0002,33 C38.0002,33.551 38.4492,34 39.0002,34 L57.0002,34 C57.5512,34 58.0002,33.551 58.0002,33 C58.0002,32.449 57.5512,32 57.0002,32 L39.0002,32 Z M57.0002,36 L39.0002,36 C37.3462,36 36.0002,34.654 36.0002,33 C36.0002,31.346 37.3462,30 39.0002,30 L57.0002,30 C58.6542,30 60.0002,31.346 60.0002,33 C60.0002,34.654 58.6542,36 57.0002,36 L57.0002,36 Z"></path><path d="M57.0002,60 L39.0002,60 C38.4482,60 38.0002,59.552 38.0002,59 L38.0002,35 C38.0002,34.448 38.4482,34 39.0002,34 C39.5522,34 40.0002,34.448 40.0002,35 L40.0002,58 L56.0002,58 L56.0002,35 C56.0002,34.448 56.4482,34 57.0002,34 C57.5522,34 58.0002,34.448 58.0002,35 L58.0002,59 C58.0002,59.552 57.5522,60 57.0002,60"></path><path d="M3.0002,32 C2.4492,32 2.0002,32.449 2.0002,33 C2.0002,33.551 2.4492,34 3.0002,34 L21.0002,34 C21.5512,34 22.0002,33.551 22.0002,33 C22.0002,32.449 21.5512,32 21.0002,32 L3.0002,32 Z M21.0002,36 L3.0002,36 C1.3462,36 0.0002,34.654 0.0002,33 C0.0002,31.346 1.3462,30 3.0002,30 L21.0002,30 C22.6542,30 24.0002,31.346 24.0002,33 C24.0002,34.654 22.6542,36 21.0002,36 L21.0002,36 Z"></path><path d="M21.0002,60 L3.0002,60 C2.4482,60 2.0002,59.552 2.0002,59 L2.0002,35 C2.0002,34.448 2.4482,34 3.0002,34 C3.5522,34 4.0002,34.448 4.0002,35 L4.0002,58 L20.0002,58 L20.0002,35 C20.0002,34.448 20.4482,34 21.0002,34 C21.5522,34 22.0002,34.448 22.0002,35 L22.0002,59 C22.0002,59.552 21.5522,60 21.0002,60"></path><path d="M4,22 L56,22 L56,12 L4,12 L4,22 Z M57,24 L3,24 C2.448,24 2,23.552 2,23 L2,11 C2,10.448 2.448,10 3,10 L57,10 C57.552,10 58,10.448 58,11 L58,23 C58,23.552 57.552,24 57,24 L57,24 Z"></path><path d="M3.7209,10 L56.2799,10 L57.6129,6 L2.3879,6 L3.7209,10 Z M56.9999,12 L2.9999,12 C2.5699,12 2.1879,11.725 2.0519,11.316 L0.0519,5.316 C-0.0501,5.011 0.0009,4.676 0.1889,4.416 C0.3769,4.154 0.6789,4 0.9999,4 L58.9999,4 C59.3219,4 59.6229,4.154 59.8109,4.416 C59.9989,4.676 60.0509,5.011 59.9489,5.316 L57.9489,11.316 C57.8129,11.725 57.4309,12 56.9999,12 L56.9999,12 Z"></path><path d="M4,4 L6,4 L6,2 L4,2 L4,4 Z M7,6 L3,6 C2.448,6 2,5.552 2,5 L2,1 C2,0.448 2.448,0 3,0 L7,0 C7.552,0 8,0.448 8,1 L8,5 C8,5.552 7.552,6 7,6 L7,6 Z"></path><path d="M14,4 L16,4 L16,2 L14,2 L14,4 Z M17,6 L13,6 C12.448,6 12,5.552 12,5 L12,1 C12,0.448 12.448,0 13,0 L17,0 C17.552,0 18,0.448 18,1 L18,5 C18,5.552 17.552,6 17,6 L17,6 Z"></path><path d="M24,4 L26,4 L26,2 L24,2 L24,4 Z M27,6 L23,6 C22.448,6 22,5.552 22,5 L22,1 C22,0.448 22.448,0 23,0 L27,0 C27.552,0 28,0.448 28,1 L28,5 C28,5.552 27.552,6 27,6 L27,6 Z"></path><path d="M34,4 L36,4 L36,2 L34,2 L34,4 Z M37,6 L33,6 C32.448,6 32,5.552 32,5 L32,1 C32,0.448 32.448,0 33,0 L37,0 C37.552,0 38,0.448 38,1 L38,5 C38,5.552 37.552,6 37,6 L37,6 Z"></path><path d="M44,4 L46,4 L46,2 L44,2 L44,4 Z M47,6 L43,6 C42.448,6 42,5.552 42,5 L42,1 C42,0.448 42.448,0 43,0 L47,0 C47.552,0 48,0.448 48,1 L48,5 C48,5.552 47.552,6 47,6 L47,6 Z"></path><path d="M54,4 L56,4 L56,2 L54,2 L54,4 Z M57,6 L53,6 C52.448,6 52,5.552 52,5 L52,1 C52,0.448 52.448,0 53,0 L57,0 C57.552,0 58,0.448 58,1 L58,5 C58,5.552 57.552,6 57,6 L57,6 Z"></path><path d="M9,18 L19,18 L19,16 L9,16 L9,18 Z M20,20 L8,20 C7.448,20 7,19.552 7,19 L7,15 C7,14.448 7.448,14 8,14 L20,14 C20.552,14 21,14.448 21,15 L21,19 C21,19.552 20.552,20 20,20 L20,20 Z"></path><path d="M41,18 L51,18 L51,16 L41,16 L41,18 Z M52,20 L40,20 C39.448,20 39,19.552 39,19 L39,15 C39,14.448 39.448,14 40,14 L52,14 C52.552,14 53,14.448 53,15 L53,19 C53,19.552 52.552,20 52,20 L52,20 Z"></path><path d="M25,18 L35,18 L35,16 L25,16 L25,18 Z M36,20 L24,20 C23.448,20 23,19.552 23,19 L23,15 C23,14.448 23.448,14 24,14 L36,14 C36.552,14 37,14.448 37,15 L37,19 C37,19.552 36.552,20 36,20 L36,20 Z"></path><path d="M44,54 L52,54 L52,40 L44,40 L44,54 Z M53,56 L43,56 C42.448,56 42,55.552 42,55 L42,39 C42,38.448 42.448,38 43,38 L53,38 C53.552,38 54,38.448 54,39 L54,55 C54,55.552 53.552,56 53,56 L53,56 Z"></path><path d="M8,54 L16,54 L16,40 L8,40 L8,54 Z M17,56 L7,56 C6.448,56 6,55.552 6,55 L6,39 C6,38.448 6.448,38 7,38 L17,38 C17.552,38 18,38.448 18,39 L18,55 C18,55.552 17.552,56 17,56 L17,56 Z"></path><path d="M57.0002,32 C56.4482,32 56.0002,31.552 56.0002,31 L56.0002,12 L4.0002,12 L4.0002,31 C4.0002,31.552 3.5522,32 3.0002,32 C2.4482,32 2.0002,31.552 2.0002,31 L2.0002,11 C2.0002,10.448 2.4482,10 3.0002,10 L57.0002,10 C57.5522,10 58.0002,10.448 58.0002,11 L58.0002,31 C58.0002,31.552 57.5522,32 57.0002,32"></path><path d="M38.942,32.0059 C38.434,32.0059 38.005,31.6229 37.948,31.1149 C37.502,27.0589 34.085,23.9999 30,23.9999 C25.915,23.9999 22.498,27.0589 22.052,31.1149 C21.995,31.6319 21.509,32.0369 21.033,32.0059 C21.003,32.0049 20.958,32.0009 20.921,31.9969 C20.405,31.9569 20,31.5259 20,30.9999 C20,30.8369 20.039,30.6829 20.109,30.5469 C20.819,25.6499 25.011,21.9999 30,21.9999 C35.048,21.9999 39.281,25.7389 39.916,30.7249 C39.944,30.8129 39.959,30.9059 39.959,31.0029 C39.959,31.5289 39.59,31.9579 39.077,31.9969 C39.028,32.0019 38.979,32.0059 38.942,32.0059"></path></g></g></g></svg>