<svg height='100px' width='100px'  fill="#000000" xmlns="http://www.w3.org/2000/svg" xmlns:xlink="http://www.w3.org/1999/xlink" version="1.1" x="0px" y="0px" viewBox="0 0 128 128" style="enable-background:new 0 0 128 128;" xml:space="preserve"><g><g><g><path d="M19.6,125.1c-4.2,0-8.2-1.5-11.3-4.6c-3-3-4.6-7-4.6-11.3c0-4.7,2-9.3,5.4-12.6l85.9-86c0.3-0.3,0.6-0.4,0.9-0.5     l27.6-7.1c0.7-0.2,1.4,0,1.9,0.5c0.5,0.5,0.7,1.2,0.5,1.9l-7.1,27.5c-0.1,0.3-0.3,0.7-0.5,0.9l-86,86     C28.8,123.3,24.2,125.1,19.6,125.1z M97.5,13.8L11.9,99.4c-2.7,2.6-4.2,6.2-4.2,9.8c0,3.3,1.2,6.3,3.4,8.5     c4.8,4.8,13.1,4.5,18.3-0.8l85.6-85.6l6.1-23.7L97.5,13.8z"></path><rect x="18.7" y="93.7" transform="matrix(0.7064 -0.7078 0.7078 0.7064 -70.4749 46.4043)" width="4" height="28.9"></rect><rect x="100.1" y="12.3" transform="matrix(0.7071 -0.7071 0.7071 0.7071 10.9597 80.0094)" width="4" height="28.9"></rect><rect x="3.5" y="65.6" transform="matrix(0.7072 -0.707 0.707 0.7072 -29.8783 63.0894)" width="115.5" height="4"></rect></g><path d="M40.7,69L2.6,31.9c-0.8-0.8-0.8-2,0-2.8L26.5,4.5c0.8-0.8,2-0.8,2.8,0L68.1,42l-2.8,2.9L28,8.7L6.8,30.4l36.7,35.7    L40.7,69z"></path><path d="M98.5,124.1c-0.5,0-1-0.2-1.4-0.6L60,87.5l2.8-2.9l35.6,34.6l21.2-21.8L84.4,63.4l2.8-2.9L123.8,96    c0.4,0.4,0.6,0.9,0.6,1.4c0,0.5-0.2,1-0.6,1.4l-24,24.6C99.5,123.9,99,124.1,98.5,124.1z"></path><rect x="13" y="31.7" transform="matrix(0.6931 -0.7209 0.7209 0.6931 -17.4165 26.4657)" width="18.7" height="4"></rect><rect x="25.7" y="43.9" transform="matrix(0.6909 -0.7229 0.7229 0.6909 -22.3879 39.5239)" width="18.7" height="4"></rect><rect x="85.4" y="102.6" transform="matrix(0.6942 -0.7198 0.7198 0.6942 -46.3471 100.2053)" width="18.7" height="4"></rect><rect x="75" y="91.4" transform="matrix(0.6919 -0.722 0.722 0.6919 -41.4494 89.6727)" width="18.7" height="4"></rect></g></g></svg>