<svg height='100px' width='100px'  fill="#000000" xmlns="http://www.w3.org/2000/svg" xmlns:xlink="http://www.w3.org/1999/xlink" version="1.1" x="0px" y="0px" viewBox="-55 147 500 500" style="enable-background:new -55 147 500 500;" xml:space="preserve"><g><path d="M445,373.2c0-1.5-0.6-2.9-1.6-3.9l-71.2-70.9c-2.2-2.2-5.7-2.2-7.8,0l-84.4,84l-42.9-133.1c-2.8-18.5-17.8-33.1-36.5-35.6   v-36.2c0-3-2.5-5.5-5.5-5.5c-3.1,0-5.5,2.5-5.5,5.5v36.2c-17.7,2.3-32.1,15.5-35.9,32.7l-43.8,135.7l-84.1-83.7   c-1-1-2.4-1.6-3.9-1.6s-2.9,0.6-3.9,1.6l-71.4,70.9c-2.2,2.2-2.2,5.6,0,7.8l43.6,43.4l0,0l0,0l81.1,80.8l-32.2,99.8   c-0.9,2.7,0.5,5.6,3.1,6.8c0.7,0.3,1.5,0.5,2.2,0.5c2,0,3.8-1,4.9-2.9l45.1-81.2l96.7,96.3c1,1,2.4,1.6,3.9,1.6s2.9-0.6,3.9-1.6   l26.2-26.1l0,0l0,0l70.2-69.9l44.9,80.9c1,1.8,2.9,2.9,4.9,2.9c0.7,0,1.5-0.1,2.2-0.5c2.6-1.1,4-4,3.1-6.8l-32.1-99.5l80-79.6l0,0   l0,0l45-44.8C444.4,376,445,374.6,445,373.2z M195,224.4c17.3,0,31.5,14,31.5,31.3S212.4,287,195,287s-31.5-14-31.5-31.3   S177.7,224.4,195,224.4z M59.7,474l13.6-13.5c2.2-2.2,2.2-5.6,0-7.8c-2.2-2.2-5.7-2.2-7.8,0l-13.6,13.5L2,416.5L15.5,403   c2.2-2.2,2.2-5.6,0-7.8c-2.2-2.2-5.7-2.2-7.8,0l-13.6,13.5l-35.7-35.6L21.8,310l84.2,83.8l-30.8,95.5L59.7,474z M156.3,273.8   l32.2,58L67.1,550.4L156.3,273.8z M239.1,423L195,466.9l-44.3-44.1l44.2-79.5L239.1,423z M279,525.1l-13.6-13.5   c-2.2-2.2-5.7-2.2-7.8,0c-2.2,2.2-2.2,5.6,0,7.8l13.6,13.5l-49.9,49.7L207.7,569c-2.2-2.2-5.7-2.2-7.8,0c-2.2,2.2-2.2,5.6,0,7.8   l13.6,13.5L195,608.7l-19.9-19.8l13.6-13.5c2.2-2.2,2.2-5.6,0-7.8s-5.7-2.2-7.8,0l-13.6,13.5l-49.9-49.7l13.6-13.5   c2.2-2.2,2.2-5.6,0-7.8s-5.7-2.2-7.8,0l-13.6,13.5L100,514l45.1-81.3l46,45.8c2.2,2.2,5.7,2.2,7.8,0l45.8-45.6l45.1,81.3L279,525.1   z M181.1,295.7c4.4,1.5,9,2.3,13.9,2.3c16.9,0,31.5-9.8,38.4-24.1l89.1,276.4L181.1,295.7z M394.4,410.2l-13.6-13.5   c-2.2-2.2-5.7-2.2-7.8,0c-2.2,2.2-2.2,5.6,0,7.8l13.6,13.5l-49.9,49.7l-13.6-13.5c-2.2-2.2-5.7-2.2-7.8,0c-2.2,2.2-2.2,5.6,0,7.8   l13.6,13.5l-14.3,14.2l-30.8-95.5l84.5-84.1l63.4,63.1L394.4,410.2z"></path><path d="M195,275.4c10.9,0,19.8-8.8,19.8-19.7c0-10.9-8.9-19.7-19.8-19.7c-10.9,0-19.8,8.8-19.8,19.7   C175.2,266.6,184.1,275.4,195,275.4z M195,247.1c4.8,0,8.7,3.9,8.7,8.6c0,4.8-3.9,8.6-8.7,8.6s-8.7-3.9-8.7-8.6   C186.3,250.9,190.2,247.1,195,247.1z"></path></g></svg>