<svg height='100px' width='100px'  fill="#000000" xmlns="http://www.w3.org/2000/svg" xmlns:xlink="http://www.w3.org/1999/xlink" version="1.1" x="0px" y="0px" viewBox="0 0 100 100" style="enable-background:new 0 0 100 100;" xml:space="preserve"><g><path d="M81.2,79.9c0-0.3-0.1-0.5-0.2-0.8L75.5,67h3.2c1.1,0,2-0.9,2-2c0-1.1-0.9-2-2-2h-5.1L61.2,35.6c0.4-1.1,0.6-2.3,0.6-3.6   c0-3.5-1.5-6.7-4-8.9V11c0-3.3-2.7-6-6-6h-4c-3.3,0-6,2.7-6,6v12.1c-2.5,2.2-4,5.4-4,8.9c0,1.5,0.3,2.9,0.8,4.2L26.3,63h-5.5   c-1.1,0-2,0.9-2,2c0,1.1,0.9,2,2,2h3.7l-5.5,12.1c-0.1,0.2-0.2,0.5-0.2,0.8l-0.4,13c0,0.8,0.4,1.5,1.2,1.9c0.3,0.1,0.5,0.2,0.8,0.2   c0.5,0,1-0.2,1.4-0.5l9.5-8.8c0.2-0.2,0.3-0.4,0.5-0.6l8.2-18h7.9v2c0,1.1,0.9,2,2,2s2-0.9,2-2v-2h8.4l8.2,18   c0.1,0.2,0.3,0.5,0.5,0.6l9.5,8.8c0.4,0.3,0.9,0.5,1.4,0.5c0.3,0,0.6-0.1,0.8-0.2c0.7-0.3,1.2-1.1,1.2-1.9L81.2,79.9z M45.8,11   c0-1.1,0.9-2,2-2h4c1.1,0,2,0.9,2,2v9.7c-1.2-0.5-2.6-0.7-4-0.7s-2.8,0.3-4,0.7V11z M49.8,24c4.4,0,8,3.6,8,8c0,4.4-3.6,8-8,8   s-8-3.6-8-8C41.8,27.6,45.3,24,49.8,24z M28.2,83l-5.7,5.3l0.2-7.8l18.3-40.2c1.4,1.5,3.1,2.6,5.1,3.2L28.2,83z M51.8,63v-2   c0-1.1-0.9-2-2-2s-2,0.9-2,2v2h-6.1L50,44.8L58.3,63H51.8z M71.8,83L53.7,43.3c2-0.7,3.7-1.9,5-3.4l18.5,40.6l0.3,7.8L71.8,83z"></path><circle cx="49.8" cy="32" r="2"></circle></g></svg>