<svg height='100px' width='100px'  fill="#000000" xmlns="http://www.w3.org/2000/svg" data-name="Layer 1" viewBox="0 0 48 48" x="0px" y="0px"><title>Ui vol.1</title><path d="M14.38135,14.41064a5.00032,5.00032,0,0,0,2.63769-.60839,4.17933,4.17933,0,0,1,3.81006-.12305c3.06983,1.06787,7.812,2.62305,9.67041,3.22949a1.92945,1.92945,0,0,1-.54443,1.04346c-.09522.07861-.38477.31592-1.13477.16553a27.58694,27.58694,0,0,1-5.457-1.792,1.00289,1.00289,0,0,0-1.38379.62549,6.83522,6.83522,0,0,1-3.01709,3.82715,5.17884,5.17884,0,0,1-4.29736-.14551,1.00006,1.00006,0,0,0-.75879,1.85059,7.06936,7.06936,0,0,0,5.93652.09082,8.17387,8.17387,0,0,0,3.65284-4.01514,28.50657,28.50657,0,0,0,4.93212,1.51953,3.22494,3.22494,0,0,0,2.79541-.58007,4.55588,4.55588,0,0,0,1.37012-3.28516,1.00045,1.00045,0,0,0-.6914-.95117c-.06495-.021-6.5669-2.1333-10.41553-3.47168a6.0803,6.0803,0,0,0-5.30664.19629,3.13315,3.13315,0,0,1-1.65039.42968,5.378,5.378,0,0,1-1.0708-.22168c-.02539-.01074-.05176-.021-.07862-.02978a.99049.99049,0,0,0-.13672-.03613,36.94317,36.94317,0,0,1-5.5957-2.55713.99969.99969,0,0,0-1.437.55615l-4.666,13.99853a1.00064,1.00064,0,0,0,.65625,1.27295l6.1084,1.8667a1.00077,1.00077,0,0,0,1.23975-.63672L13.70947,14.314A5.36238,5.36238,0,0,0,14.38135,14.41064ZM7.96484,25.06934,3.76611,23.78613,7.73193,11.8877a38.2328,38.2328,0,0,0,4.061,1.85107Z"></path><path d="M46.40234,23.4043,39.53027,9.5752A.99954.99954,0,0,0,38.147,9.147l-5.769,3.22412a1.00013,1.00013,0,0,0-.40869,1.31592l6.36114,12.88263a65.98127,65.98127,0,0,1-7.24395,5.58026c-4.13721,2.43311-9.728,5.27979-10.64551,5.31543a1.58993,1.58993,0,0,1-.65869-1.21875c-.01465-.32226.05615-.79.83984-1.12939,2.53613-1.09864,5.52441-2.54883,5.5542-2.56348a1,1,0,0,0-.874-1.79883c-.0293.01416-2.97852,1.44532-5.4751,2.52735a3.834,3.834,0,0,0-.96149.59271l-.01214.00592a10.28378,10.28378,0,0,1-3.188,1.80566,1.4996,1.4996,0,0,1-.39893-1.05908,1.17656,1.17656,0,0,1,.83106-1.07422c2.2705-.98486,7.80713-3.88769,8.042-4.01123A.99988.99988,0,1,0,23.21,27.77148c-.05664.02979-5.70508,2.99122-7.9082,3.94678a3.84527,3.84527,0,0,0-.77271.45,2.79516,2.79516,0,0,1-1.72973.15064.43974.43974,0,0,1-.231-.26416c.47363-.94483,4.72266-3.27588,9.26758-5.06983a1,1,0,1,0-.73438-1.86035,49.12062,49.12062,0,0,0-7.28113,3.43665,4.4083,4.4083,0,0,1-1.41857-1.21106,12.402,12.402,0,0,1,4.11084-2.03955,1,1,0,0,0-.60694-1.90576c-.67529.21533-4.09912,1.36181-5.165,2.8247a1.82755,1.82755,0,0,0-.30468,1.52637,4.00488,4.00488,0,0,0,1.62841,2.03577c-1.18536.9906-1.68036,1.89172-1.457,2.69567a2.48588,2.48588,0,0,0,1.31738,1.63038,3.14987,3.14987,0,0,0,1.36005.28741c-.00647.08221-.01837.16254-.01874.24677a3.18713,3.18713,0,0,0,1.63184,2.894,1.67576,1.67576,0,0,0,.68457.13281A5.16543,5.16543,0,0,0,17.86938,36.93a3.19468,3.19468,0,0,0,2.14527,2.489,1.15,1.15,0,0,0,.24316.02294c2.25782,0,10.21485-4.61084,11.84229-5.56835A72.20308,72.20308,0,0,0,40.13135,27.655l5.82275-2.91138A1,1,0,0,0,46.40234,23.4043ZM40.02,25.47461,34.18311,13.65332l4.02343-2.24853,5.96094,11.99609Z"></path></svg>