<svg xmlns="http://www.w3.org/2000/svg" xmlns:xlink="http://www.w3.org/1999/xlink" version="1.1" x="0px" y="0px" viewBox="0 0 512 512" style="enable-background:new 0 0 512 512;" xml:space="preserve"><g><g><path d="M266.048,260.332c-5.858,5.861-15.351,5.863-21.213,0c-3.904-3.904-10.237-3.905-14.142,0    c-3.905,3.904-3.906,10.236,0,14.143c13.679,13.678,35.816,13.678,49.498,0c3.905-3.906,3.905-10.238,0-14.143    C276.284,256.427,269.954,256.427,266.048,260.332z"></path><circle cx="281" cy="219.332" r="10"></circle><circle cx="231" cy="219.332" r="10"></circle><circle cx="291" cy="105.999" r="10"></circle><circle cx="411" cy="45.999" r="10"></circle><circle cx="461" cy="245.999" r="10"></circle><circle cx="441" cy="325.998" r="10"></circle><circle cx="131" cy="55.999" r="10"></circle><circle cx="81" cy="115.999" r="10"></circle><circle cx="81" cy="345.998" r="10"></circle><path d="M187.387,146c3.065,0,6.09-1.404,8.051-4.059c14.147-19.152,36.787-30.586,60.562-30.586c5.522,0,10-4.477,10-10    s-4.478-10-10-10c-30.094,0-58.748,14.469-76.649,38.704C174.419,136.734,179.326,146,187.387,146z"></path><path d="M394.696,387.111l-7.466-3.201l8.524-8.523c10.805-10.805,9.521-28.682-2.689-37.84l-12.131-9.098    c-2.486-1.865-2.747-5.496-0.547-7.695l4.653-4.654c11.215-11.215,9.342-29.863-3.827-38.643c-2.605-1.738-3.05-5.387-0.932-7.701    c13.522-14.758,18.362-35.842,12.629-55.021l-11.92-39.874c-0.093-9.509,1.664-18.995,6.067-29.388    c13.521-31.927-8.93-67.916-43.864-69.428c-8.025-0.347-15.975-2.753-22.987-6.96c-19.341-11.6-41.543-17.732-64.207-17.732    c-68.681,0-124.603,55.681-124.998,124.271l-5.816,40.511c-3.003,20.911,4.123,42.314,19.061,57.251    c1.44,1.439,1.44,3.783,0,5.223l-8.508,8.508c-10.583,10.582-8.817,28.182,3.611,36.467c2.126,1.418,2.208,4.496,0.168,6.027    l-6.794,5.094c-14.105,10.58-12.117,32.279,3.62,40.146l2.437,1.219l-25.764,11.041C81.418,400.654,61,431.619,61,465.998    c0,5.523,4.477,10,10,10c0.337,0,110.401,0,110.422,0c0.17,0,62.264,0.004,62.434,0.004c0.147,0,19.779-0.004,19.929-0.004    c0.024,0,0.049,0.004,0.073,0.004s0.05-0.004,0.074-0.004c10.021,0,162.703,0,172.781,0c5.522,0,10-4.477,10-10    C446.714,431.619,426.296,400.654,394.696,387.111z M145.288,356.963c-2.463-1.232-2.767-4.604-0.564-6.258l6.794-5.094    c13.06-9.799,12.514-29.609-1.074-38.668c-1.94-1.295-2.212-4.035-0.563-5.684l8.508-8.508c9.237-9.238,9.237-24.27,0-33.508    c-10.507-10.506-15.519-25.559-13.407-40.266c6.196-43.399,6.018-41.311,6.018-42.625c0-57.897,47.103-105,105-105    c19.041,0,37.687,5.146,53.92,14.883c9.86,5.914,21.067,9.3,32.411,9.79c21.207,0.921,34.331,22.712,26.312,41.645    c-5.253,12.397-7.827,24.903-7.653,37.171c0.022,1.669-0.069,2.703,0.43,4.374l12.33,41.245    c3.729,12.473,0.581,26.185-8.213,35.783c-10.404,11.356-8.218,29.317,4.584,37.852c2.679,1.785,3.064,5.574,0.778,7.859    l-4.653,4.654c-10.805,10.805-9.521,28.68,2.689,37.838l12.131,9.098c2.486,1.865,2.747,5.496,0.547,7.697l-14.182,14.182    l-26.46-11.34c-16.047-6.877-37.72-32.293-49.453-47.684c53.201-43.225,52.981-92.677,52.819-127.157    c-0.025-5.437-4.39-9.856-9.825-9.952c-20.472-0.358-39.142-7.942-51.222-20.806c-3.951-4.206-10.633-4.202-14.58,0    c-20.06,21.362-58.334,27.396-87.568,12.989c-6.542-3.224-14.248,1.433-14.418,8.737c-0.053,2.309-0.124,4.685-0.197,7.119    c-1.114,37.401-2.7,91.092,49.757,131.735c-19.656,35.938-52.057,45.617-53.422,46.682L145.288,356.963z M332.21,400.643    l-27.824,13.912c-7.209,3.604-7.405,13.865-0.31,17.727l23.08,12.566l-6.531,11.15h-42.893L308.064,365    c6.124,5.613,12.518,10.652,18.813,14.311L332.21,400.643z M251.065,455.998l-16.667-50h38.918l-16.667,50H251.065z     M188.039,455.998l-4.567-11.023l20.706-13.008c3.06-1.922,4.844-5.346,4.669-8.955c-0.176-3.607-2.285-6.842-5.516-8.457    l-27.825-13.912l5.253-21.014c6.984-3.455,13.575-7.541,19.706-12.191c3.345,10.037,27.539,82.617,29.521,88.561H188.039z     M252.851,318.592c-65.395-33.742-67.557-82.567-66.53-123.639c30.261,9.242,65.587,3.857,89.684-15.96    c13.075,10.728,29.976,17.609,48.342,19.666C324.122,236.154,319.168,280.543,252.851,318.592z M248.767,338.906    c2.9,1.402,6.309,1.322,9.149-0.229c6.259-3.422,12.051-6.916,17.438-10.469c4.101,5.424,10.03,12.928,16.985,20.721    l-12.356,37.068h-52.251l-11.094-33.281c6.216-6.773,11.682-14.258,16.271-22.344    C237.832,333.316,243.102,336.168,248.767,338.906z M120.896,405.494l36.713-15.734l-3.453,13.813    c-1.137,4.549,1.038,9.275,5.229,11.371l19.095,9.547l-12.799,8.041c-4.13,2.594-5.786,7.789-3.919,12.295l4.629,11.172H81.759    C85.161,433.756,99.771,414.547,120.896,405.494z M343.804,455.998l5.825-9.945c2.851-4.865,1.111-11.137-3.848-13.836    l-15.317-8.342l17.865-8.932c4.192-2.096,6.366-6.822,5.229-11.371l-3.453-13.813l36.712,15.734    c21.125,9.053,35.735,28.262,39.138,50.504H343.804z"></path><path d="M91,235.999c0-16.542-13.458-30-30-30s-30,13.458-30,30s13.458,30,30,30S91,252.541,91,235.999z M51,235.999    c0-5.514,4.486-10,10-10s10,4.486,10,10s-4.486,10-10,10S51,241.513,51,235.999z"></path><path d="M441,195.999c22.056,0,40-17.944,40-40s-17.944-40-40-40s-40,17.944-40,40S418.944,195.999,441,195.999z M441,135.999    c11.028,0,20,8.972,20,20s-8.972,20-20,20s-20-8.972-20-20S429.972,135.999,441,135.999z"></path></g></g></svg>