<svg height='100px' width='100px'  fill="#000000" xmlns="http://www.w3.org/2000/svg" viewBox="0 0 48 48" x="0px" y="0px"><title>Ui vol.1</title><g data-name="Layer 2"><path d="M40.189,17.68311a1.00934,1.00934,0,0,0-.19921-.02H31.332v-8.167A6.43,6.43,0,0,0,29.05908,4.0918c-2.86279-2.21436-7.30322-1.09619-7.49072-1.04688a.99942.99942,0,0,0-.74854.96778v9.085c0,5.0415-4.24591,6.19-6.06964,6.45166a.98162.98162,0,0,0-.78778-.4126H3.1582a1.00005,1.00005,0,0,0-1,1V43.627a1.00005,1.00005,0,0,0,1,1H13.9624a.98718.98718,0,0,0,.85578-.51342c1.504,1.16326,1.71276,1.16821,2.009,1.16821H35.97949a7.54928,7.54928,0,0,0,6.6958-3.64453,1.00827,1.00827,0,0,0,.09473-.26465c.10742-.52393,2.63477-12.8711,3.04443-17.21338C46.20508,20.02,42.30518,18.11328,40.189,17.68311ZM12.9624,42.627H4.1582V21.13672h8.8042ZM43.82324,23.97168c-.375,3.97363-2.67627,15.34814-2.97949,16.83789a5.62984,5.62984,0,0,1-4.86426,2.47217H17.06641c-.37555-.2478-1.2721-.939-2.104-1.60608V21.54742c3.16455-.40277,7.85742-2.498,7.85742-8.44976V4.833c1.33643-.2002,3.59913-.25488,5.01563.84033A4.55725,4.55725,0,0,1,29.332,9.49609v9.167a1.00006,1.00006,0,0,0,1,1h9.54639C40.51855,19.81641,44.12012,20.82373,43.82324,23.97168Z"></path></g></svg>