<svg height='100px' width='100px'  fill="#000000" xmlns:dc="http://purl.org/dc/elements/1.1/" xmlns:cc="http://creativecommons.org/ns#" xmlns:rdf="http://www.w3.org/1999/02/22-rdf-syntax-ns#" xmlns:svg="http://www.w3.org/2000/svg" xmlns="http://www.w3.org/2000/svg" xmlns:sodipodi="http://sodipodi.sourceforge.net/DTD/sodipodi-0.dtd" xmlns:inkscape="http://www.inkscape.org/namespaces/inkscape" viewBox="0 0 8.4666665 8.4666669" version="1.1" x="0px" y="0px"><g transform="translate(0,-288.53332)"><g transform="translate(146.11773,-123.14292)"><path style="color:#000000;font-style:normal;font-variant:normal;font-weight:normal;font-stretch:normal;font-size:medium;line-height:normal;font-family:sans-serif;font-variant-ligatures:normal;font-variant-position:normal;font-variant-caps:normal;font-variant-numeric:normal;font-variant-alternates:normal;font-feature-settings:normal;text-indent:0;text-align:start;text-decoration:none;text-decoration-line:none;text-decoration-style:solid;text-decoration-color:#000000;letter-spacing:normal;word-spacing:normal;text-transform:none;writing-mode:lr-tb;direction:ltr;text-orientation:mixed;dominant-baseline:auto;baseline-shift:baseline;text-anchor:start;white-space:normal;shape-padding:0;clip-rule:nonzero;display:inline;overflow:visible;visibility:visible;opacity:1;isolation:auto;mix-blend-mode:normal;color-interpolation:sRGB;color-interpolation-filters:linearRGB;solid-color:#000000;solid-opacity:1;vector-effect:none;fill:#000000;fill-opacity:1;fill-rule:nonzero;stroke:none;stroke-width:0.26458335;stroke-linecap:round;stroke-linejoin:round;stroke-miterlimit:4;stroke-dasharray:none;stroke-dashoffset:0;stroke-opacity:1;color-rendering:auto;image-rendering:auto;shape-rendering:auto;text-rendering:auto;enable-background:accumulate" d="m -139.39284,416.42282 a 0.1323049,0.1323049 0 0 0 -0.11524,0.1875 c 0.14553,0.32947 0.11456,0.6664 0.0684,0.875 -0.0347,0.15663 -0.11337,0.32223 -0.21485,0.46876 a 0.1323049,0.1323049 0 1 0 0.2168,0.15039 c 0.1179,-0.17024 0.21171,-0.36333 0.25586,-0.5625 0.0536,-0.24209 0.0935,-0.63532 -0.084,-1.03711 a 0.1323049,0.1323049 0 0 0 -0.12695,-0.082 z"></path><path style="color:#000000;font-style:normal;font-variant:normal;font-weight:normal;font-stretch:normal;font-size:medium;line-height:normal;font-family:sans-serif;font-variant-ligatures:normal;font-variant-position:normal;font-variant-caps:normal;font-variant-numeric:normal;font-variant-alternates:normal;font-feature-settings:normal;text-indent:0;text-align:start;text-decoration:none;text-decoration-line:none;text-decoration-style:solid;text-decoration-color:#000000;letter-spacing:normal;word-spacing:normal;text-transform:none;writing-mode:lr-tb;direction:ltr;text-orientation:mixed;dominant-baseline:auto;baseline-shift:baseline;text-anchor:start;white-space:normal;shape-padding:0;clip-rule:nonzero;display:inline;overflow:visible;visibility:visible;opacity:1;isolation:auto;mix-blend-mode:normal;color-interpolation:sRGB;color-interpolation-filters:linearRGB;solid-color:#000000;solid-opacity:1;vector-effect:none;fill:#000000;fill-opacity:1;fill-rule:nonzero;stroke:none;stroke-width:0.26458335;stroke-linecap:round;stroke-linejoin:round;stroke-miterlimit:4;stroke-dasharray:none;stroke-dashoffset:0;stroke-opacity:1;color-rendering:auto;image-rendering:auto;shape-rendering:auto;text-rendering:auto;enable-background:accumulate" d="m -140.32643,418.55564 a 0.1323049,0.1323049 0 0 0 -0.11915,0.0664 c 0,0 -0.0889,0.13788 -0.12695,0.25977 a 0.1323049,0.1323049 0 0 0 0,0.002 c -0.032,0.1029 -0.0469,0.20627 -0.0469,0.31641 0,0.35944 0.13375,0.75577 0.47071,0.91211 0.0759,0.0352 0.16313,0.0385 0.23828,0.0176 0.0752,-0.0209 0.1402,-0.0601 0.20703,-0.10743 0.28345,-0.1999 0.41015,-0.53103 0.41015,-0.88671 0,-0.0907 -0.009,-0.17761 -0.0312,-0.26563 -0.0262,-0.10416 -0.0898,-0.22851 -0.0898,-0.22851 a 0.1323049,0.1323049 0 1 0 -0.23828,0.11328 c 0,0 0.0631,0.14324 0.0723,0.17968 0.0165,0.0646 0.0234,0.12816 0.0234,0.20118 0,0.29513 -0.0958,0.52672 -0.29882,0.66992 a 0.1323049,0.1323049 0 0 0 0,0.002 c -0.0548,0.0388 -0.0981,0.0609 -0.125,0.0684 -0.0269,0.007 -0.0348,0.006 -0.0566,-0.004 -0.19717,-0.0915 -0.31641,-0.38053 -0.31641,-0.67187 0,-0.0879 0.009,-0.162 0.0332,-0.23828 0.0133,-0.0427 0.10351,-0.20313 0.10351,-0.20313 a 0.1323049,0.1323049 0 0 0 -0.10937,-0.20312 z"></path><path style="color:#000000;font-style:normal;font-variant:normal;font-weight:normal;font-stretch:normal;font-size:medium;line-height:normal;font-family:sans-serif;font-variant-ligatures:normal;font-variant-position:normal;font-variant-caps:normal;font-variant-numeric:normal;font-variant-alternates:normal;font-feature-settings:normal;text-indent:0;text-align:start;text-decoration:none;text-decoration-line:none;text-decoration-style:solid;text-decoration-color:#000000;letter-spacing:normal;word-spacing:normal;text-transform:none;writing-mode:lr-tb;direction:ltr;text-orientation:mixed;dominant-baseline:auto;baseline-shift:baseline;text-anchor:start;white-space:normal;shape-padding:0;clip-rule:nonzero;display:inline;overflow:visible;visibility:visible;opacity:1;isolation:auto;mix-blend-mode:normal;color-interpolation:sRGB;color-interpolation-filters:linearRGB;solid-color:#000000;solid-opacity:1;vector-effect:none;fill:#000000;fill-opacity:1;fill-rule:nonzero;stroke:none;stroke-width:0.26458332;stroke-linecap:round;stroke-linejoin:round;stroke-miterlimit:4;stroke-dasharray:none;stroke-dashoffset:0;stroke-opacity:1;color-rendering:auto;image-rendering:auto;shape-rendering:auto;text-rendering:auto;enable-background:accumulate" d="m -140.54128,412.07517 a 0.13230489,0.13230489 0 0 0 -0.12109,0.16601 c 0.16641,0.70135 -0.13993,1.13642 -0.61719,1.43164 -0.47726,0.29523 -1.13317,0.41377 -1.58008,0.39063 -0.25661,-0.0148 -0.51,0.0871 -0.66992,0.2832 -0.16032,0.1966 -0.2138,0.49074 -0.0879,0.80469 0.0436,0.10844 0.0819,0.27126 0.0625,0.37109 -0.0269,0.13829 -0.12811,0.26299 -0.23633,0.41602 a 0.13305143,0.13305143 0 1 0 0.2168,0.1543 c 0.0997,-0.14103 0.23602,-0.29722 0.2793,-0.51953 0.0379,-0.19483 -0.0226,-0.38609 -0.0762,-0.51954 -0.0969,-0.24168 -0.0545,-0.41475 0.0469,-0.53906 0.10137,-0.12431 0.27534,-0.19805 0.45117,-0.1875 0.50432,0.0261 1.19416,-0.0955 1.73437,-0.42969 0.54022,-0.33416 0.92468,-0.91669 0.73438,-1.71875 a 0.13230489,0.13230489 0 0 0 -0.13672,-0.10351 z"></path><path style="color:#000000;font-style:normal;font-variant:normal;font-weight:normal;font-stretch:normal;font-size:medium;line-height:normal;font-family:sans-serif;font-variant-ligatures:normal;font-variant-position:normal;font-variant-caps:normal;font-variant-numeric:normal;font-variant-alternates:normal;font-feature-settings:normal;text-indent:0;text-align:start;text-decoration:none;text-decoration-line:none;text-decoration-style:solid;text-decoration-color:#000000;letter-spacing:normal;word-spacing:normal;text-transform:none;writing-mode:lr-tb;direction:ltr;text-orientation:mixed;dominant-baseline:auto;baseline-shift:baseline;text-anchor:start;white-space:normal;shape-padding:0;clip-rule:nonzero;display:inline;overflow:visible;visibility:visible;opacity:1;isolation:auto;mix-blend-mode:normal;color-interpolation:sRGB;color-interpolation-filters:linearRGB;solid-color:#000000;solid-opacity:1;vector-effect:none;fill:#000000;fill-opacity:1;fill-rule:nonzero;stroke:none;stroke-width:0.26458335;stroke-linecap:round;stroke-linejoin:round;stroke-miterlimit:4;stroke-dasharray:none;stroke-dashoffset:0;stroke-opacity:1;color-rendering:auto;image-rendering:auto;shape-rendering:auto;text-rendering:auto;enable-background:accumulate" d="m -144.41823,415.13962 a 0.1323049,0.1323049 0 0 0 -0.11719,0.10547 c -0.0775,0.33837 -0.16696,0.6182 -0.0898,0.94727 0.0907,0.38673 0.30248,0.73693 0.63672,1.00976 0.14051,0.11469 0.27333,0.20545 0.35742,0.30078 0.0841,0.0953 0.1279,0.18302 0.11133,0.34571 -0.01,0.0973 -0.0488,0.16601 -0.0488,0.16601 a 0.13251487,0.13251487 0 1 0 0.23047,0.13086 c 0,0 0.0642,-0.11365 0.0801,-0.26953 0.0234,-0.22993 -0.0566,-0.41395 -0.17383,-0.54687 -0.11726,-0.13293 -0.26309,-0.22794 -0.39063,-0.33204 -0.29126,-0.23775 -0.46881,-0.53226 -0.54687,-0.86523 -0.0587,-0.2504 0.0119,-0.47932 0.0918,-0.82813 a 0.1323049,0.1323049 0 0 0 -0.14062,-0.16406 z"></path><path style="color:#000000;font-style:normal;font-variant:normal;font-weight:normal;font-stretch:normal;font-size:medium;line-height:normal;font-family:sans-serif;font-variant-ligatures:normal;font-variant-position:normal;font-variant-caps:normal;font-variant-numeric:normal;font-variant-alternates:normal;font-feature-settings:normal;text-indent:0;text-align:start;text-decoration:none;text-decoration-line:none;text-decoration-style:solid;text-decoration-color:#000000;letter-spacing:normal;word-spacing:normal;text-transform:none;writing-mode:lr-tb;direction:ltr;text-orientation:mixed;dominant-baseline:auto;baseline-shift:baseline;text-anchor:start;white-space:normal;shape-padding:0;clip-rule:nonzero;display:inline;overflow:visible;visibility:visible;opacity:1;isolation:auto;mix-blend-mode:normal;color-interpolation:sRGB;color-interpolation-filters:linearRGB;solid-color:#000000;solid-opacity:1;vector-effect:none;fill:#000000;fill-opacity:1;fill-rule:nonzero;stroke:none;stroke-width:0.26458335;stroke-linecap:round;stroke-linejoin:round;stroke-miterlimit:4;stroke-dasharray:none;stroke-dashoffset:0;stroke-opacity:1;color-rendering:auto;image-rendering:auto;shape-rendering:auto;text-rendering:auto;enable-background:accumulate" d="m -144.38112,416.42282 a 0.1323049,0.1323049 0 0 0 -0.1211,0.082 c -0.17747,0.40179 -0.13954,0.79502 -0.0859,1.03711 0.0442,0.19917 0.13797,0.39226 0.25586,0.5625 a 0.1323049,0.1323049 0 1 0 0.2168,-0.15039 c -0.10148,-0.14653 -0.17818,-0.31213 -0.21289,-0.46876 -0.0462,-0.2086 -0.0772,-0.54553 0.0684,-0.875 a 0.1323049,0.1323049 0 0 0 -0.12109,-0.1875 z"></path><path style="color:#000000;font-style:normal;font-variant:normal;font-weight:normal;font-stretch:normal;font-size:medium;line-height:normal;font-family:sans-serif;font-variant-ligatures:normal;font-variant-position:normal;font-variant-caps:normal;font-variant-numeric:normal;font-variant-alternates:normal;font-feature-settings:normal;text-indent:0;text-align:start;text-decoration:none;text-decoration-line:none;text-decoration-style:solid;text-decoration-color:#000000;letter-spacing:normal;word-spacing:normal;text-transform:none;writing-mode:lr-tb;direction:ltr;text-orientation:mixed;dominant-baseline:auto;baseline-shift:baseline;text-anchor:start;white-space:normal;shape-padding:0;clip-rule:nonzero;display:inline;overflow:visible;visibility:visible;opacity:1;isolation:auto;mix-blend-mode:normal;color-interpolation:sRGB;color-interpolation-filters:linearRGB;solid-color:#000000;solid-opacity:1;vector-effect:none;fill:#000000;fill-opacity:1;fill-rule:nonzero;stroke:none;stroke-width:0.26458338;stroke-linecap:round;stroke-linejoin:round;stroke-miterlimit:4;stroke-dasharray:none;stroke-dashoffset:0;stroke-opacity:1;color-rendering:auto;image-rendering:auto;shape-rendering:auto;text-rendering:auto;enable-background:accumulate" d="m -144.63112,417.75486 c -0.0807,-0.0327 -0.17444,-0.0234 -0.24414,0.0117 -0.0697,0.0351 -0.12183,0.0901 -0.16407,0.15234 -0.0845,0.12437 -0.13085,0.28409 -0.13085,0.44726 10e-6,0.16318 0.0464,0.32288 0.13085,0.44727 0.0422,0.0622 0.0944,0.11725 0.16407,0.15234 0.0697,0.0351 0.16348,0.0445 0.24414,0.0117 l 0.64648,-0.26367 -0.0996,-0.24414 -0.64648,0.26172 c -0.0113,0.005 -0.0109,0.005 -0.0254,-0.002 -0.0145,-0.007 -0.0403,-0.029 -0.0644,-0.0645 -0.0482,-0.071 -0.0859,-0.19236 -0.0859,-0.29883 0,-0.10645 0.0377,-0.22783 0.0859,-0.29882 0.0241,-0.0355 0.0499,-0.0571 0.0644,-0.0645 0.0146,-0.007 0.0141,-0.007 0.0254,-0.002 l 0.64648,0.26367 0.0996,-0.24609 z"></path><path style="color:#000000;font-style:normal;font-variant:normal;font-weight:normal;font-stretch:normal;font-size:medium;line-height:normal;font-family:sans-serif;font-variant-ligatures:normal;font-variant-position:normal;font-variant-caps:normal;font-variant-numeric:normal;font-variant-alternates:normal;font-feature-settings:normal;text-indent:0;text-align:start;text-decoration:none;text-decoration-line:none;text-decoration-style:solid;text-decoration-color:#000000;letter-spacing:normal;word-spacing:normal;text-transform:none;writing-mode:lr-tb;direction:ltr;text-orientation:mixed;dominant-baseline:auto;baseline-shift:baseline;text-anchor:start;white-space:normal;shape-padding:0;clip-rule:nonzero;display:inline;overflow:visible;visibility:visible;opacity:1;isolation:auto;mix-blend-mode:normal;color-interpolation:sRGB;color-interpolation-filters:linearRGB;solid-color:#000000;solid-opacity:1;vector-effect:none;fill:#000000;fill-opacity:1;fill-rule:nonzero;stroke:none;stroke-width:0.26458338;stroke-linecap:round;stroke-linejoin:round;stroke-miterlimit:4;stroke-dasharray:none;stroke-dashoffset:0;stroke-opacity:1;color-rendering:auto;image-rendering:auto;shape-rendering:auto;text-rendering:auto;enable-background:accumulate" d="m -143.00808,417.75486 -0.64648,0.26367 0.0996,0.24609 0.64649,-0.26367 c 0.0113,-0.005 0.009,-0.005 0.0234,0.002 0.0146,0.007 0.0403,0.0289 0.0644,0.0645 0.0482,0.071 0.0879,0.19238 0.0879,0.29882 -1e-5,0.10646 -0.0397,0.22783 -0.0879,0.29883 -0.0241,0.0355 -0.0499,0.0571 -0.0644,0.0645 -0.0145,0.007 -0.0121,0.007 -0.0234,0.002 l -0.64649,-0.2619 -0.0996,0.24414 0.64648,0.26367 c 0.0807,0.0328 0.17247,0.0234 0.24219,-0.0117 0.0697,-0.0351 0.12183,-0.0901 0.16406,-0.15234 0.0845,-0.12439 0.13281,-0.28408 0.13282,-0.44727 0,-0.16318 -0.0483,-0.32288 -0.13282,-0.44726 -0.0422,-0.0622 -0.0943,-0.11725 -0.16406,-0.15234 -0.0697,-0.0351 -0.16153,-0.0445 -0.24219,-0.0117 z"></path><path style="color:#000000;font-style:normal;font-variant:normal;font-weight:normal;font-stretch:normal;font-size:medium;line-height:normal;font-family:sans-serif;font-variant-ligatures:normal;font-variant-position:normal;font-variant-caps:normal;font-variant-numeric:normal;font-variant-alternates:normal;font-feature-settings:normal;text-indent:0;text-align:start;text-decoration:none;text-decoration-line:none;text-decoration-style:solid;text-decoration-color:#000000;letter-spacing:normal;word-spacing:normal;text-transform:none;writing-mode:lr-tb;direction:ltr;text-orientation:mixed;dominant-baseline:auto;baseline-shift:baseline;text-anchor:start;white-space:normal;shape-padding:0;clip-rule:nonzero;display:inline;overflow:visible;visibility:visible;opacity:1;isolation:auto;mix-blend-mode:normal;color-interpolation:sRGB;color-interpolation-filters:linearRGB;solid-color:#000000;solid-opacity:1;vector-effect:none;fill:#000000;fill-opacity:1;fill-rule:nonzero;stroke:none;stroke-width:0.26458335;stroke-linecap:round;stroke-linejoin:round;stroke-miterlimit:4;stroke-dasharray:none;stroke-dashoffset:0;stroke-opacity:1;color-rendering:auto;image-rendering:auto;shape-rendering:auto;text-rendering:auto;enable-background:accumulate" d="m -143.98659,417.93454 c -0.10514,0 -0.20313,0.084 -0.20313,0.19727 v 0.46875 c 0,0.11319 0.0978,0.19922 0.20313,0.19922 h 0.32031 c 0.10492,0 0.20313,-0.086 0.20313,-0.19922 v -0.46875 c 0,-0.11308 -0.0978,-0.19727 -0.20313,-0.19727 z m 0.0606,0.26368 h 0.19922 v 0.33593 h -0.19922 z"></path><path style="color:#000000;font-style:normal;font-variant:normal;font-weight:normal;font-stretch:normal;font-size:medium;line-height:normal;font-family:sans-serif;font-variant-ligatures:normal;font-variant-position:normal;font-variant-caps:normal;font-variant-numeric:normal;font-variant-alternates:normal;font-feature-settings:normal;text-indent:0;text-align:start;text-decoration:none;text-decoration-line:none;text-decoration-style:solid;text-decoration-color:#000000;letter-spacing:normal;word-spacing:normal;text-transform:none;writing-mode:lr-tb;direction:ltr;text-orientation:mixed;dominant-baseline:auto;baseline-shift:baseline;text-anchor:start;white-space:normal;shape-padding:0;clip-rule:nonzero;display:inline;overflow:visible;visibility:visible;opacity:1;isolation:auto;mix-blend-mode:normal;color-interpolation:sRGB;color-interpolation-filters:linearRGB;solid-color:#000000;solid-opacity:1;vector-effect:none;fill:#000000;fill-opacity:1;fill-rule:nonzero;stroke:none;stroke-width:0.26458335;stroke-linecap:round;stroke-linejoin:round;stroke-miterlimit:4;stroke-dasharray:none;stroke-dashoffset:0;stroke-opacity:1;color-rendering:auto;image-rendering:auto;shape-rendering:auto;text-rendering:auto;enable-background:accumulate" d="m -143.44558,418.55564 a 0.1323049,0.1323049 0 0 0 -0.10546,0.20312 c 0,0 0.0882,0.16041 0.10156,0.20313 0.0238,0.0763 0.0352,0.15041 0.0352,0.23828 0,0.29134 -0.11924,0.58039 -0.31641,0.67187 -0.0218,0.0101 -0.0297,0.0114 -0.0566,0.004 -0.0269,-0.007 -0.0702,-0.0295 -0.125,-0.0684 a 0.1323049,0.1323049 0 0 0 0,-0.002 c -0.20303,-0.1432 -0.29882,-0.37479 -0.29882,-0.66992 0,-0.073 0.007,-0.1366 0.0234,-0.20118 0.009,-0.0364 0.0723,-0.17968 0.0723,-0.17968 a 0.13280401,0.13280401 0 1 0 -0.24024,-0.11328 c 0,0 -0.0636,0.12435 -0.0898,0.22851 -0.0225,0.088 -0.0312,0.17494 -0.0312,0.26563 0,0.35568 0.12866,0.68681 0.41211,0.88671 0.0668,0.0473 0.12993,0.0865 0.20508,0.10743 0.0752,0.0209 0.16431,0.0177 0.24023,-0.0176 0.33695,-0.15634 0.46875,-0.55267 0.46875,-0.91211 0,-0.11014 -0.0148,-0.21351 -0.0469,-0.31641 a 0.1323049,0.1323049 0 0 0 0,-0.002 c -0.0381,-0.12189 -0.12695,-0.25977 -0.12695,-0.25977 a 0.1323049,0.1323049 0 0 0 -0.12109,-0.0664 z"></path><path style="color:#000000;font-style:normal;font-variant:normal;font-weight:normal;font-stretch:normal;font-size:medium;line-height:normal;font-family:sans-serif;font-variant-ligatures:normal;font-variant-position:normal;font-variant-caps:normal;font-variant-numeric:normal;font-variant-alternates:normal;font-feature-settings:normal;text-indent:0;text-align:start;text-decoration:none;text-decoration-line:none;text-decoration-style:solid;text-decoration-color:#000000;letter-spacing:normal;word-spacing:normal;text-transform:none;writing-mode:lr-tb;direction:ltr;text-orientation:mixed;dominant-baseline:auto;baseline-shift:baseline;text-anchor:start;white-space:normal;shape-padding:0;clip-rule:nonzero;display:inline;overflow:visible;visibility:visible;opacity:1;isolation:auto;mix-blend-mode:normal;color-interpolation:sRGB;color-interpolation-filters:linearRGB;solid-color:#000000;solid-opacity:1;vector-effect:none;fill:#000000;fill-opacity:1;fill-rule:nonzero;stroke:none;stroke-width:0.26458332;stroke-linecap:butt;stroke-linejoin:round;stroke-miterlimit:4;stroke-dasharray:none;stroke-dashoffset:0;stroke-opacity:1;color-rendering:auto;image-rendering:auto;shape-rendering:auto;text-rendering:auto;enable-background:accumulate" d="m -141.83034,413.96384 -0.0703,0.25391 c 0.0395,0.0108 0.0763,0.0208 0.11328,0.0293 0.30274,0.0691 0.60136,0.0931 0.85352,0.0801 0.17582,-0.0105 0.3498,0.0632 0.45117,0.1875 0.10137,0.12431 0.1438,0.29738 0.0469,0.53906 -0.0536,0.13345 -0.11413,0.32471 -0.0762,0.51954 0.0433,0.22231 0.17957,0.3785 0.2793,0.51953 l 0.21679,-0.1543 c -0.10821,-0.15303 -0.20941,-0.27773 -0.23633,-0.41602 -0.0195,-0.0998 0.0189,-0.26265 0.0625,-0.37109 0.12592,-0.31395 0.0724,-0.60809 -0.0879,-0.80469 -0.15992,-0.19611 -0.4133,-0.29803 -0.66992,-0.2832 h -0.002 c -0.22317,0.0114 -0.49857,-0.0106 -0.77734,-0.0742 -0.0358,-0.008 -0.0701,-0.0162 -0.10352,-0.0254 z"></path><path style="color:#000000;font-style:normal;font-variant:normal;font-weight:normal;font-stretch:normal;font-size:medium;line-height:normal;font-family:sans-serif;font-variant-ligatures:normal;font-variant-position:normal;font-variant-caps:normal;font-variant-numeric:normal;font-variant-alternates:normal;font-feature-settings:normal;text-indent:0;text-align:start;text-decoration:none;text-decoration-line:none;text-decoration-style:solid;text-decoration-color:#000000;letter-spacing:normal;word-spacing:normal;text-transform:none;writing-mode:lr-tb;direction:ltr;text-orientation:mixed;dominant-baseline:auto;baseline-shift:baseline;text-anchor:start;white-space:normal;shape-padding:0;clip-rule:nonzero;display:inline;overflow:visible;visibility:visible;opacity:1;isolation:auto;mix-blend-mode:normal;color-interpolation:sRGB;color-interpolation-filters:linearRGB;solid-color:#000000;solid-opacity:1;vector-effect:none;fill:#000000;fill-opacity:1;fill-rule:nonzero;stroke:none;stroke-width:0.26458335;stroke-linecap:round;stroke-linejoin:round;stroke-miterlimit:4;stroke-dasharray:none;stroke-dashoffset:0;stroke-opacity:1;color-rendering:auto;image-rendering:auto;shape-rendering:auto;text-rendering:auto;enable-background:accumulate" d="m -139.3694,415.13962 c -0.0837,0.003 -0.14323,0.0828 -0.12305,0.16406 0.0799,0.34881 0.15048,0.57773 0.0918,0.82813 -0.0781,0.33297 -0.25561,0.62748 -0.54688,0.86523 -0.12753,0.1041 -0.27141,0.19911 -0.38867,0.33204 -0.11725,0.13292 -0.1992,0.31694 -0.17578,0.54687 0.0159,0.15588 0.082,0.26953 0.082,0.26953 0.0871,0.0884 0.34458,-0.0108 0.22852,-0.13086 0,0 -0.037,-0.0687 -0.0469,-0.16601 -0.0166,-0.16269 0.0253,-0.25038 0.10937,-0.34571 0.0841,-0.0953 0.21887,-0.18609 0.35938,-0.30078 0.33424,-0.27283 0.54606,-0.62303 0.63672,-1.00976 0.0771,-0.32907 -0.0143,-0.6089 -0.0918,-0.94727 -0.0131,-0.0634 -0.0701,-0.10801 -0.13477,-0.10547 z"></path><path style="color:#000000;font-style:normal;font-variant:normal;font-weight:normal;font-stretch:normal;font-size:medium;line-height:normal;font-family:sans-serif;font-variant-ligatures:normal;font-variant-position:normal;font-variant-caps:normal;font-variant-numeric:normal;font-variant-alternates:normal;font-feature-settings:normal;text-indent:0;text-align:start;text-decoration:none;text-decoration-line:none;text-decoration-style:solid;text-decoration-color:#000000;letter-spacing:normal;word-spacing:normal;text-transform:none;writing-mode:lr-tb;direction:ltr;text-orientation:mixed;dominant-baseline:auto;baseline-shift:baseline;text-anchor:start;white-space:normal;shape-padding:0;clip-rule:nonzero;display:inline;overflow:visible;visibility:visible;opacity:1;isolation:auto;mix-blend-mode:normal;color-interpolation:sRGB;color-interpolation-filters:linearRGB;solid-color:#000000;solid-opacity:1;vector-effect:none;fill:#000000;fill-opacity:1;fill-rule:nonzero;stroke:none;stroke-width:0.26458332;stroke-linecap:round;stroke-linejoin:round;stroke-miterlimit:4;stroke-dasharray:none;stroke-dashoffset:0;stroke-opacity:1;color-rendering:auto;image-rendering:auto;shape-rendering:auto;text-rendering:auto;enable-background:accumulate" d="m -141.928,411.76658 c -0.66785,0.0441 -1.32868,0.2933 -1.83984,0.71093 -0.51536,0.42105 -0.84983,1.04174 -0.93359,1.66992 -0.0838,0.62819 0.0894,1.27467 0.60351,1.70899 0.15165,0.12812 0.28828,0.22564 0.375,0.33984 0.0867,0.11421 0.13687,0.2428 0.1211,0.47852 -0.008,0.12052 -0.0532,0.24904 -0.10743,0.3789 l -0.082,0.17383 a 0.13280401,0.13280401 0 1 0 0.24024,0.11328 l 0.084,-0.17968 a 0.13230489,0.13230489 0 0 0 0.002,-0.006 c 0.0577,-0.13834 0.11524,-0.29277 0.12695,-0.46289 0.0191,-0.28537 -0.0538,-0.49824 -0.17383,-0.65625 -0.11999,-0.15802 -0.27317,-0.26379 -0.41406,-0.38282 -0.43857,-0.37051 -0.58813,-0.91233 -0.51367,-1.4707 0.0745,-0.55837 0.38005,-1.12435 0.83984,-1.5 0.92796,-0.75817 2.4342,-0.90366 3.39258,-0.18164 0.47578,0.35844 0.79319,0.94966 0.87305,1.54492 0.0799,0.59527 -0.0729,1.1824 -0.50977,1.5625 -0.14093,0.12261 -0.29452,0.23241 -0.41406,0.39453 -0.11955,0.16213 -0.19284,0.3775 -0.17383,0.66992 a 0.13230489,0.13230489 0 0 0 0,0.002 c 0.0116,0.17374 0.0693,0.33234 0.12695,0.47461 a 0.13230489,0.13230489 0 0 0 0.002,0.004 l 0.084,0.18555 a 0.13287004,0.13287004 0 1 0 0.24219,-0.10937 l -0.084,-0.17969 -0.002,-0.004 v -0.002 c -0.0532,-0.13188 -0.0972,-0.26307 -0.10547,-0.38672 -0.0159,-0.24419 0.0359,-0.37983 0.12305,-0.49805 0.0872,-0.11821 0.22339,-0.21771 0.375,-0.34961 0.51577,-0.44872 0.68657,-1.13604 0.59765,-1.79882 -0.0889,-0.66279 -0.43307,-1.31273 -0.97461,-1.72071 -0.53812,-0.40541 -1.213,-0.56755 -1.88085,-0.52343 z"></path><path d="m -140.76073,417.75645 c -0.0807,-0.0327 -0.17249,-0.0253 -0.24219,0.01 -0.0697,0.0351 -0.12182,0.0902 -0.16406,0.15234 -0.0845,0.12437 -0.13281,0.28409 -0.13281,0.44727 1e-5,0.16317 0.0483,0.32483 0.13281,0.44922 0.0422,0.0622 0.0943,0.11529 0.16406,0.15039 0.0697,0.0351 0.16153,0.0445 0.24219,0.0117 l 0.64648,-0.26367 -0.0996,-0.24415 -0.64648,0.26368 c -0.0113,0.005 -0.009,0.003 -0.0234,-0.004 -0.0145,-0.007 -0.0403,-0.029 -0.0644,-0.0645 -0.0482,-0.071 -0.0879,-0.19237 -0.0879,-0.29883 0,-0.10645 0.0397,-0.22784 0.0879,-0.29883 0.0241,-0.0355 0.0499,-0.0571 0.0644,-0.0644 0.0146,-0.007 0.0121,-0.007 0.0234,-0.002 l 0.64648,0.26367 0.0996,-0.2461 z" style="color:#000000;font-style:normal;font-variant:normal;font-weight:normal;font-stretch:normal;font-size:medium;line-height:normal;font-family:sans-serif;font-variant-ligatures:normal;font-variant-position:normal;font-variant-caps:normal;font-variant-numeric:normal;font-variant-alternates:normal;font-feature-settings:normal;text-indent:0;text-align:start;text-decoration:none;text-decoration-line:none;text-decoration-style:solid;text-decoration-color:#000000;letter-spacing:normal;word-spacing:normal;text-transform:none;writing-mode:lr-tb;direction:ltr;text-orientation:mixed;dominant-baseline:auto;baseline-shift:baseline;text-anchor:start;white-space:normal;shape-padding:0;clip-rule:nonzero;display:inline;overflow:visible;visibility:visible;opacity:1;isolation:auto;mix-blend-mode:normal;color-interpolation:sRGB;color-interpolation-filters:linearRGB;solid-color:#000000;solid-opacity:1;vector-effect:none;fill:#000000;fill-opacity:1;fill-rule:nonzero;stroke:none;stroke-width:0.26458338;stroke-linecap:round;stroke-linejoin:round;stroke-miterlimit:4;stroke-dasharray:none;stroke-dashoffset:0;stroke-opacity:1;color-rendering:auto;image-rendering:auto;shape-rendering:auto;text-rendering:auto;enable-background:accumulate"></path><path d="m -139.13768,417.75645 -0.64649,0.26172 a 0.13274728,0.13274728 0 1 0 0.0996,0.2461 l 0.64649,-0.26367 c 0.0113,-0.005 0.009,-0.005 0.0234,0.002 0.0145,0.007 0.0403,0.029 0.0645,0.0644 0.0482,0.071 0.0879,0.19239 0.0879,0.29883 0,0.10646 -0.0397,0.22782 -0.0879,0.29883 -0.0241,0.0355 -0.0499,0.0571 -0.0645,0.0645 -0.0145,0.007 -0.0121,0.008 -0.0234,0.004 l -0.64649,-0.26368 a 0.13230492,0.13230492 0 1 0 -0.0996,0.24415 l 0.64649,0.26367 c 0.0807,0.0328 0.17246,0.0234 0.24218,-0.0117 0.0697,-0.0351 0.12183,-0.0882 0.16407,-0.15039 0.0845,-0.12439 0.1328,-0.28604 0.13281,-0.44922 0,-0.16319 -0.0483,-0.32289 -0.13281,-0.44727 -0.0422,-0.0622 -0.0944,-0.11725 -0.16407,-0.15234 -0.0697,-0.0351 -0.16152,-0.0425 -0.24218,-0.01 z" style="color:#000000;font-style:normal;font-variant:normal;font-weight:normal;font-stretch:normal;font-size:medium;line-height:normal;font-family:sans-serif;font-variant-ligatures:normal;font-variant-position:normal;font-variant-caps:normal;font-variant-numeric:normal;font-variant-alternates:normal;font-feature-settings:normal;text-indent:0;text-align:start;text-decoration:none;text-decoration-line:none;text-decoration-style:solid;text-decoration-color:#000000;letter-spacing:normal;word-spacing:normal;text-transform:none;writing-mode:lr-tb;direction:ltr;text-orientation:mixed;dominant-baseline:auto;baseline-shift:baseline;text-anchor:start;white-space:normal;shape-padding:0;clip-rule:nonzero;display:inline;overflow:visible;visibility:visible;opacity:1;isolation:auto;mix-blend-mode:normal;color-interpolation:sRGB;color-interpolation-filters:linearRGB;solid-color:#000000;solid-opacity:1;vector-effect:none;fill:#000000;fill-opacity:1;fill-rule:nonzero;stroke:none;stroke-width:0.26458338;stroke-linecap:round;stroke-linejoin:round;stroke-miterlimit:4;stroke-dasharray:none;stroke-dashoffset:0;stroke-opacity:1;color-rendering:auto;image-rendering:auto;shape-rendering:auto;text-rendering:auto;enable-background:accumulate"></path><path d="m -140.1162,417.93419 c -0.10514,0 -0.20313,0.084 -0.20313,0.19726 v 0.46875 c 0,0.1132 0.0978,0.19922 0.20313,0.19922 h 0.32031 c 0.10492,0 0.20313,-0.086 0.20313,-0.19922 v -0.46875 c 0,-0.11308 -0.0978,-0.19726 -0.20313,-0.19726 z m 0.0605,0.26367 h 0.19922 v 0.33594 h -0.19922 z" style="color:#000000;font-style:normal;font-variant:normal;font-weight:normal;font-stretch:normal;font-size:medium;line-height:normal;font-family:sans-serif;font-variant-ligatures:normal;font-variant-position:normal;font-variant-caps:normal;font-variant-numeric:normal;font-variant-alternates:normal;font-feature-settings:normal;text-indent:0;text-align:start;text-decoration:none;text-decoration-line:none;text-decoration-style:solid;text-decoration-color:#000000;letter-spacing:normal;word-spacing:normal;text-transform:none;writing-mode:lr-tb;direction:ltr;text-orientation:mixed;dominant-baseline:auto;baseline-shift:baseline;text-anchor:start;white-space:normal;shape-padding:0;clip-rule:nonzero;display:inline;overflow:visible;visibility:visible;opacity:1;isolation:auto;mix-blend-mode:normal;color-interpolation:sRGB;color-interpolation-filters:linearRGB;solid-color:#000000;solid-opacity:1;vector-effect:none;fill:#000000;fill-opacity:1;fill-rule:nonzero;stroke:none;stroke-width:0.26458335;stroke-linecap:round;stroke-linejoin:round;stroke-miterlimit:4;stroke-dasharray:none;stroke-dashoffset:0;stroke-opacity:1;color-rendering:auto;image-rendering:auto;shape-rendering:auto;text-rendering:auto;enable-background:accumulate"></path></g></g></svg>