<svg height='100px' width='100px'  fill="#000000" xmlns="http://www.w3.org/2000/svg" data-name="Layer 2" viewBox="0 0 100 100" x="0px" y="0px"><title>trade</title><path d="M26.28,61.72a6,6,0,1,0,6,6A6,6,0,0,0,26.28,61.72Zm0,10a4,4,0,1,1,4-4A4,4,0,0,1,26.28,71.73Z"></path><path d="M73.72,61.72a6,6,0,1,0,6,6A6,6,0,0,0,73.72,61.72Zm0,10a4,4,0,1,1,4-4A4,4,0,0,1,73.72,71.73Z"></path><path d="M73.75,55.84A14.33,14.33,0,0,0,62,62L51,55.38l0-11.27a14.37,14.37,0,1,0-2,0l0,11.31L38.46,62.65a14.33,14.33,0,1,0,.94,1.78L50,57.13,61,63.67a14.37,14.37,0,1,0,12.79-7.83ZM20.34,81.07a6,6,0,0,1,11.83,0,12.34,12.34,0,0,1-11.83,0Zm13.6-1.19a8,8,0,0,0-15.38,0,12.37,12.37,0,1,1,15.38,0ZM50,42.16a12.29,12.29,0,0,1-5.91-1.5,6,6,0,0,1,11.83,0A12.23,12.23,0,0,1,50,42.16ZM37.6,29.79a12.37,12.37,0,1,1,20.06,9.68A8,8,0,0,0,50,33.8a8,8,0,0,0-7.69,5.66A12.33,12.33,0,0,1,37.6,29.79ZM67.83,81.07a6,6,0,0,1,11.83,0,12.34,12.34,0,0,1-11.83,0Zm13.61-1.19a8,8,0,0,0-15.38,0,12.37,12.37,0,1,1,15.38,0Z"></path><path d="M50,33.32a6,6,0,1,0-6-6A6,6,0,0,0,50,33.32Zm0-10a4,4,0,1,1-4,4A4,4,0,0,1,50,23.31Z"></path></svg>