<svg height='100px' width='100px'  fill="#000000" xmlns="http://www.w3.org/2000/svg" xmlns:xlink="http://www.w3.org/1999/xlink" viewBox="0 0 24 30" version="1.1" x="0px" y="0px"><title>Group 34</title><desc>Created with Sketch.</desc><g stroke="none" stroke-width="1" fill="none" fill-rule="evenodd"><g transform="translate(-232.000000, -478.000000)" fill="#000000"><g transform="translate(232.000000, 478.000000)"><path d="M21,30 L9,30 C8.447,30 8,29.552 8,29 C8,27.462 7.266,26.572 6.153,25.226 C5.536,24.479 4.838,23.633 4.15,22.528 C2.256,19.48 0.617,15.979 0.21,14.604 C-0.186,13.264 0.08,12.402 0.432,11.931 C0.88,11.331 1.615,11 2.5,11 C3.669,11 4.947,12.004 6,13.301 L6,3 C6,1.346 7.346,0 9,0 C10.654,0 12,1.346 12,3 L12,7.171 C12.313,7.06 12.649,7 13,7 C14.061,7 14.994,7.553 15.528,8.386 C15.963,8.141 16.466,8 17,8 C18.381,8 19.548,8.939 19.895,10.211 C20.237,10.075 20.61,10 21,10 C22.654,10 24,11.346 24,13 L24,16 C24,18.551 23.479,20.659 22.976,22.697 C22.474,24.728 22,26.645 22,29 C22,29.552 21.553,30 21,30 L21,30 Z M9.924,28 L20.026,28 C20.138,25.844 20.593,24.004 21.034,22.217 C21.531,20.207 22,18.308 22,16 L22,12.8 C22,12.249 21.552,11.8 21,11.8 C20.448,11.8 20,12.249 20,12.8 L20,14 C20,14.552 19.553,15 19,15 C18.447,15 18,14.552 18,14 L18,10.8 C18,10.249 17.552,9.8 17,9.8 C16.448,9.8 16,10.249 16,10.8 L16,13 C16,13.552 15.553,14 15,14 C14.447,14 14,13.552 14,13 L14,9.8 C14,9.249 13.552,8.8 13,8.8 C12.448,8.8 12,9.249 12,9.8 L12,12 C12,12.552 11.553,13 11,13 C10.447,13 10,12.552 10,12 L10,2.8 C10,2.249 9.552,1.8 9,1.8 C8.448,1.8 8,2.249 8,2.8 L8,18 C8,18.552 7.553,19 7,19 C6.447,19 6,18.552 6,18 L6,17.179 C5.121,14.877 3.164,12.9 2.5,12.9 C2.268,12.9 2.109,12.953 2.033,13.128 C1.977,13.259 1.923,13.561 2.058,14.018 C2.371,15.075 3.901,18.338 5.85,21.472 C6.466,22.463 7.091,23.22 7.695,23.952 C8.737,25.213 9.659,26.33 9.924,28 L9.924,28 Z"></path></g></g></g></svg>