<svg height='100px' width='100px'  fill="#000000" xmlns="http://www.w3.org/2000/svg" xmlns:xlink="http://www.w3.org/1999/xlink" version="1.1" x="0px" y="0px" viewBox="0 0 10 10" enable-background="new 0 0 10 10" xml:space="preserve"><g><path d="M8.848,1.634c0-0.442-0.359-0.803-0.802-0.803c-0.441,0-0.802,0.36-0.802,0.803c0,0.209,0.083,0.398,0.216,0.541   c-0.256,0.32-0.516,0.482-0.769,0.482C6.363,2.648,5.989,2.356,5.63,1.837C5.8,1.672,5.907,1.442,5.907,1.188   c0-0.5-0.407-0.907-0.908-0.907c-0.499,0-0.905,0.407-0.905,0.907c0,0.255,0.106,0.485,0.276,0.649   c-0.358,0.518-0.729,0.809-1.057,0.82C3.062,2.662,2.798,2.498,2.54,2.175c0.133-0.143,0.215-0.332,0.215-0.541   c0-0.442-0.359-0.803-0.802-0.803c-0.441,0-0.801,0.36-0.801,0.803c0,0.387,0.275,0.71,0.641,0.784L2.05,5.169   c0.012,0.118,0.109,0.207,0.228,0.207h2.722H5h2.723c0.117,0,0.216-0.089,0.227-0.207l0.258-2.751   C8.572,2.344,8.848,2.021,8.848,1.634z M4.999,0.737c0.249,0,0.45,0.202,0.45,0.45s-0.201,0.45-0.45,0.45   c-0.248,0-0.449-0.202-0.449-0.45S4.751,0.737,4.999,0.737z M1.608,1.634c0-0.19,0.154-0.346,0.345-0.346s0.345,0.155,0.345,0.346   c0,0.189-0.154,0.344-0.345,0.344S1.608,1.823,1.608,1.634z M7.514,4.92H5H4.999H2.485L2.264,2.556   c0.32,0.363,0.664,0.559,1.027,0.559c0.013,0,0.025,0,0.038,0c0.604-0.022,1.103-0.553,1.44-1.053   c0.074,0.02,0.15,0.033,0.229,0.033c0.082,0,0.157-0.014,0.231-0.034c0.458,0.673,0.956,1.04,1.448,1.054c0.01,0,0.02,0,0.029,0   c0.363,0,0.707-0.195,1.026-0.559L7.514,4.92z M8.046,1.978c-0.189,0-0.344-0.154-0.344-0.344c0-0.19,0.154-0.346,0.344-0.346   c0.191,0,0.345,0.155,0.345,0.346C8.391,1.823,8.237,1.978,8.046,1.978z"></path><path d="M7.519,5.565c-0.125,0-0.228,0.103-0.228,0.229v1.049c0,1.335-1.028,2.419-2.292,2.419c-1.263,0-2.29-1.084-2.29-2.419   V5.795c0-0.127-0.103-0.229-0.229-0.229c-0.126,0-0.229,0.103-0.229,0.229v1.049c0,1.586,1.233,2.876,2.748,2.876   c1.516,0,2.75-1.29,2.75-2.876V5.795C7.749,5.668,7.646,5.565,7.519,5.565z"></path><path d="M3.878,7.443c0.125-0.024,0.205-0.146,0.18-0.269C4.033,7.05,3.907,6.971,3.79,6.995C3.513,7.051,3.378,7.197,3.315,7.31   C3.169,7.571,3.269,7.864,3.279,7.892C3.37,8.157,3.536,8.25,3.66,8.28c0.041,0.01,0.083,0.016,0.124,0.016   c0.308,0,0.596-0.256,0.667-0.324c0.219-0.242,0.444-0.273,0.53-0.275l0,0c0.014,0,0.296-0.024,0.579,0.287   c0.061,0.058,0.348,0.313,0.655,0.313c0.041,0,0.082-0.006,0.123-0.016C6.464,8.25,6.63,8.157,6.72,7.896   C6.731,7.864,6.83,7.571,6.685,7.31C6.62,7.197,6.487,7.051,6.21,6.995C6.089,6.971,5.966,7.05,5.94,7.175   C5.916,7.298,5.996,7.419,6.12,7.443C6.205,7.46,6.261,7.49,6.284,7.532C6.324,7.6,6.301,7.708,6.288,7.743   c-0.018,0.053-0.041,0.09-0.059,0.094C6.158,7.857,5.98,7.751,5.887,7.664C5.585,7.331,5.255,7.257,5.072,7.243   c-0.001,0-0.002-0.001-0.003-0.001C5.065,7.241,5.052,7.24,5.03,7.239c-0.007,0-0.01,0-0.017,0c-0.015,0-0.03,0-0.05,0   C4.946,7.24,4.933,7.241,4.931,7.242c-0.001,0-0.001,0.001-0.002,0.001c-0.182,0.012-0.51,0.083-0.803,0.408   C4.021,7.75,3.844,7.857,3.77,7.837c-0.018-0.004-0.04-0.041-0.061-0.098C3.703,7.72,3.674,7.604,3.714,7.534   C3.737,7.491,3.794,7.46,3.878,7.443z"></path></g></svg>