<svg height='100px' width='100px'  fill="#000000" xmlns="http://www.w3.org/2000/svg" xmlns:xlink="http://www.w3.org/1999/xlink" version="1.1" x="0px" y="0px" viewBox="0 0 100 100" style="enable-background:new 0 0 100 100;" xml:space="preserve"><g><g><path d="M42.9,92.1C42.7,92,42.7,92,42.9,92.1L42.9,92.1z M43,92.1L43,92.1C42.9,92.1,42.9,92.1,43,92.1    C42.9,92.1,43,92.1,43,92.1z M84.7,27.6H49.6c0.4-2.3,0.4-3.5,0.4-4.1C50,14,43.1,7.1,33.7,7.1c-4.5,0-8.2,3.7-8.2,8.2v5.3    l-9.3,11.7L1,38.3v40.1l41.9,13.7c0.6,0.2,2.9,0.8,5,0.8C56,92.9,62.7,87,64,79.3c3.9-3,6.3-7.7,6.3-12.9c0-0.5,0-0.9-0.1-1.4    c2.2-2.4,3.6-5.5,4-8.8h10.3c7.9,0,14.3-6.4,14.3-14.3S92.6,27.6,84.7,27.6z M84.7,48H63.5c1.7,1.5,2.8,3.7,2.8,6.1    c0,3.6-2.3,6.6-5.5,7.7c0.9,1.3,1.4,2.9,1.4,4.6c0,3.9-2.8,7.2-6.5,8c0.2,0.7,0.3,1.4,0.3,2.2c0,4.5-3.7,8.2-8.2,8.2    c-0.9,0-1.7-0.2-2.4-0.4L9.2,72.5V43.9l0,0l12-4.8l12.5-15.6c0,0,0-4.5,0-8.2c4.2,0,8.2,2.5,8.2,8.2c0,2.8-1.7,8.7-2.8,12.3h45.7    c3.4,0,6.1,2.7,6.1,6.1C90.8,45.2,88.1,48,84.7,48z"></path></g></g></svg>