<svg height='100px' width='100px'  fill="#000000" xmlns="http://www.w3.org/2000/svg" xmlns:xlink="http://www.w3.org/1999/xlink" xml:space="preserve" version="1.1" style="shape-rendering:geometricPrecision;text-rendering:geometricPrecision;image-rendering:optimizeQuality;" viewBox="0 0 698 698" x="0px" y="0px" fill-rule="evenodd" clip-rule="evenodd"><defs><style type="text/css">
   
    .fil0 {fill:#000000}
   
  </style></defs><g><path class="fil0" d="M415 493c-4,-10 -16,-15 -27,-11 -25,11 -54,11 -79,0 -10,-4 -22,1 -27,11 -4,11 1,23 11,27 35,15 76,15 111,0 11,-4 16,-16 11,-27zm0 -442c17,-30 39,-51 77,-51 30,0 57,16 71,42 67,-10 115,64 81,122 21,36 11,82 -23,107 65,58 32,167 -56,178 -4,16 -10,31 -18,45 84,16 151,92 151,183 0,11 -10,21 -21,21l-328 0 -329 0c-11,0 -20,-10 -20,-21 0,-91 67,-167 150,-183 -7,-14 -13,-29 -18,-45 -88,-11 -121,-120 -55,-178 -35,-25 -45,-71 -24,-107 -33,-58 14,-132 82,-122 14,-26 41,-42 71,-42 38,0 60,21 76,51 44,-13 90,-13 133,0zm-66 521c84,0 158,-57 178,-139 -16,10 -35,17 -56,17 -56,0 -102,-46 -102,-103 0,-5 1,-11 2,-16 -7,-3 -15,-4 -22,-4 -8,0 -15,1 -22,4 1,5 1,11 1,16 0,57 -45,103 -102,103 -20,0 -40,-7 -56,-17 21,82 95,139 179,139zm0 -286c12,0 25,2 36,7 18,-29 50,-48 86,-48 23,0 45,8 62,21 0,-102 -83,-184 -184,-184 -102,0 -184,82 -184,184 17,-13 38,-21 61,-21 36,0 68,19 86,48 12,-5 24,-7 37,-7zm105 -219c65,35 112,101 119,178 36,0 55,-41 31,-68 -7,-8 -7,-19 0,-27 29,-32 -5,-81 -46,-65 -11,4 -24,-2 -27,-14 -5,-18 -21,-30 -39,-30 -17,0 -32,10 -38,26zm-44 280c0,34 28,62 61,62 34,0 62,-28 62,-62 0,-33 -28,-61 -62,-61 -33,0 -61,28 -61,61zm164 -57c0,37 2,79 -1,115 55,-18 55,-96 1,-115zm-205 367l286 0c-9,-67 -66,-121 -133,-125 -37,44 -92,75 -153,80l0 45zm-125 -590c-66,35 -112,101 -119,178 -36,0 -55,-41 -31,-68 7,-8 7,-19 0,-27 -29,-32 5,-81 45,-65 12,4 24,-2 28,-14 4,-18 20,-30 39,-30 16,0 32,10 38,26zm43 280c0,34 -27,62 -61,62 -34,0 -61,-28 -61,-62 0,-33 27,-61 61,-61 34,0 61,28 61,61zm-163 -57c0,37 -2,79 1,115 -55,-18 -55,-96 -1,-115zm204 367l-286 0c10,-67 66,-121 134,-125 37,44 91,75 152,80l0 45z"></path></g></svg>