<svg height='100px' width='100px'  fill="#000000" xmlns="http://www.w3.org/2000/svg" xmlns:xlink="http://www.w3.org/1999/xlink" version="1.1" x="0px" y="0px" viewBox="0 0 48 48" enable-background="new 0 0 48 48" xml:space="preserve"><g><rect x="15.6" y="14.5" fill="#000000" width="16.9" height="2"></rect><path fill="#000000" d="M40.3,47.5H7.7v-15c0-4.1,3.3-7.4,7.4-7.4H20v2h-4.9c-3,0-5.4,2.4-5.4,5.4v13h28.7v-13c0-3-2.4-5.4-5.4-5.4   h-5.2v-2h5.2c4.1,0,7.4,3.3,7.4,7.4V47.5z"></path><path fill="#000000" d="M24,28.1c-4,0-7.5-2.4-9-6.2c-0.5-1.2-0.7-2.5-0.7-3.8c0-0.8,0.2-2.2,0.2-2.6v-5.4c0-0.8-0.2-1.5-0.7-2.1   c-0.6-0.8-0.9-1.7-0.9-2.6c0-2.8,2.9-5,6.4-5c1.1,0,2.2,0.2,3.1,0.6c1,0.4,2.1,0.4,3.1,0c1-0.4,2-0.6,3.2-0.6c3.5,0,6.4,2.2,6.4,5   c0,0.9-0.3,1.8-0.9,2.6c-0.4,0.6-0.7,1.3-0.7,2.1V16c0.1,0.7,0.2,1.4,0.2,2.1c0,1.3-0.2,2.6-0.7,3.8C31.5,25.7,28,28.1,24,28.1z    M19.3,2.5c-2.4,0-4.4,1.4-4.4,3c0,0.5,0.2,0.9,0.5,1.4c0.7,0.9,1.1,2.1,1.1,3.3l0,5.6c-0.1,0.4-0.2,1.7-0.2,2.3   c0,1.1,0.2,2.1,0.6,3.1c1.2,3,4,4.9,7.2,4.9c3.1,0,5.9-1.9,7.2-4.9c0.4-1,0.6-2,0.6-3.1c0-0.7-0.1-1.5-0.3-2.2l-0.4-1.3h0.4v-4.4   c0-1.2,0.4-2.4,1.1-3.3c0.3-0.4,0.5-0.9,0.5-1.4c0-1.6-2-3-4.4-3c-0.8,0-1.6,0.2-2.3,0.5c-1.5,0.7-3.2,0.7-4.7,0   C21,2.7,20.1,2.5,19.3,2.5z"></path><rect x="23" y="27.1" fill="#000000" width="2" height="19.3"></rect><rect x="18.6" y="33.9" fill="#000000" width="2" height="1.8"></rect><rect x="18.6" y="39.2" fill="#000000" width="2" height="1.8"></rect></g></svg>