<svg height='100px' width='100px'  fill="#000000" xmlns="http://www.w3.org/2000/svg" xmlns:xlink="http://www.w3.org/1999/xlink" version="1.1" x="0px" y="0px" viewBox="0 0 10 10" enable-background="new 0 0 10 10" xml:space="preserve"><g><path d="M8.848,1.633c0-0.442-0.359-0.803-0.802-0.803c-0.441,0-0.802,0.36-0.802,0.803c0,0.209,0.084,0.399,0.216,0.542   C7.205,2.496,6.946,2.661,6.691,2.656C6.362,2.647,5.99,2.355,5.63,1.836C5.8,1.672,5.906,1.441,5.906,1.188   c0-0.5-0.407-0.907-0.907-0.907c-0.499,0-0.906,0.407-0.906,0.907c0,0.254,0.106,0.484,0.276,0.649   C4.012,2.354,3.642,2.645,3.313,2.656c-0.258,0.006-0.516-0.158-0.773-0.48c0.133-0.144,0.216-0.333,0.216-0.543   c0-0.442-0.359-0.803-0.802-0.803c-0.441,0-0.801,0.36-0.801,0.803c0,0.387,0.274,0.71,0.64,0.785l0.258,2.75   c0.011,0.118,0.109,0.208,0.228,0.208h2.722H5h2.722c0.118,0,0.217-0.09,0.228-0.208l0.257-2.75   C8.571,2.343,8.848,2.02,8.848,1.633z M4.999,0.737c0.249,0,0.45,0.201,0.45,0.45c0,0.248-0.201,0.449-0.45,0.449   c-0.247,0-0.45-0.201-0.45-0.449C4.549,0.938,4.752,0.737,4.999,0.737z M1.609,1.633c0-0.19,0.154-0.345,0.344-0.345   s0.345,0.154,0.345,0.345c0,0.189-0.155,0.344-0.345,0.344S1.609,1.822,1.609,1.633z M7.514,4.919H5H4.999H2.484L2.264,2.555   c0.32,0.364,0.664,0.559,1.027,0.559c0.013,0,0.025,0,0.038,0c0.604-0.021,1.102-0.553,1.44-1.053   c0.074,0.02,0.15,0.033,0.229,0.033c0.081,0,0.157-0.014,0.231-0.033C5.688,2.733,6.188,3.1,6.679,3.113c0.01,0,0.02,0,0.03,0   c0.363,0,0.705-0.194,1.026-0.559L7.514,4.919z M8.046,1.977c-0.19,0-0.344-0.154-0.344-0.344c0-0.19,0.153-0.345,0.344-0.345   s0.345,0.154,0.345,0.345C8.391,1.822,8.236,1.977,8.046,1.977z"></path><path d="M7.52,5.565c-0.127,0-0.229,0.103-0.229,0.229v1.05c0,1.334-1.028,2.419-2.292,2.419s-2.29-1.085-2.29-2.419v-1.05   c0-0.126-0.104-0.229-0.229-0.229c-0.127,0-0.229,0.103-0.229,0.229v1.05c0,1.586,1.232,2.876,2.747,2.876   c1.517,0,2.749-1.29,2.749-2.876v-1.05C7.748,5.668,7.646,5.565,7.52,5.565z"></path></g></svg>