<svg xmlns="http://www.w3.org/2000/svg" xmlns:xlink="http://www.w3.org/1999/xlink" version="1.1" x="0px" y="0px" viewBox="0 0 60 60" style="enable-background:new 0 0 60 60;" xml:space="preserve"><path d="M7,53h30.23H39h13c0.7,0,1.34-0.36,1.7-0.95c0.37-0.6,0.4-1.32,0.09-1.92l-4.85-10.47C48.33,38.42,48,37.03,48,35.64V30  c0-0.55-0.45-1-1-1h-5c-0.55,0-1,0.45-1,1v5.64c0,1.39-0.33,2.79-0.95,4.03c-0.01,0.03-0.03,0.06-0.04,0.09L40,39.78v-4.74  c0-1.84-1.42-3.44-3.38-3.81l-5.74-1.04c-1.96-0.35-3.34-1.67-3.74-3.5C30.12,24.69,32,20.7,32,17c0-0.78-0.09-1.54-0.24-2.27  c0-0.01,0-0.02,0-0.03c0,0,0-0.01-0.01-0.01C30.8,10.29,27.24,7,23,7c-4.26,0-7.83,3.31-8.76,7.74c0,0.01-0.01,0.01-0.01,0.02  c0,0.01,0,0.02,0,0.03C14.08,15.5,14,16.24,14,17c0,3.7,1.88,7.69,4.87,9.7c-0.41,1.82-1.79,3.14-3.75,3.49l-5.75,1.04  C7.42,31.6,6,33.2,6,35.04V52C6,52.55,6.45,53,7,53z M41.86,40.51C42.6,39.01,43,37.32,43,35.64V31h3v4.64c0,1.7,0.4,3.4,1.15,4.89  L52,51l-14.77,0l2.66-5.32c0.01-0.02,0.01-0.03,0.02-0.05c0-0.01,0-0.01,0.01-0.02c0-0.01,0.01-0.02,0.01-0.03L41.86,40.51z   M38,35.04v9.95l-2.56,5.11c-0.14,0.28-0.2,0.59-0.2,0.89h-6.68l5.34-11.51c0.14-0.31,0.12-0.66-0.06-0.95  c-0.18-0.29-0.49-0.46-0.83-0.47l-1.73-0.04l1.44-5.48l3.52,0.64C37.27,33.38,38,34.16,38,35.04z M30.76,32.2l-1.72,6.55  c-0.08,0.3-0.02,0.61,0.17,0.86c0.18,0.24,0.47,0.39,0.78,0.4l1.47,0.04L26.36,51h-2.11l4.36-19.49c0.59,0.29,1.23,0.52,1.92,0.65  L30.76,32.2z M23,47.42l-2.61-11.69c0.86,0.16,1.72,0.25,2.59,0.25c0.88,0,1.76-0.09,2.64-0.26L23,47.42z M23,9  c3.01,0,5.58,2.19,6.57,5.25c-2.54,0.36-3.55-1.46-3.67-1.69c-0.13-0.28-0.39-0.48-0.7-0.55c-0.3-0.06-0.62,0.02-0.86,0.22  c-2.61,2.25-6.18,2.16-7.9,1.95C17.45,11.17,20,9,23,9z M16,17c0-0.28,0.01-0.56,0.04-0.83c1.82,0.25,5.57,0.41,8.73-1.73  c0.82,0.94,2.21,1.87,4.16,1.87c0.33,0,0.68-0.03,1.04-0.08C29.99,16.48,30,16.74,30,17c0,4.71-3.34,9-7,9S16,21.71,16,17z M23,28  c0.81,0,1.58-0.15,2.31-0.4c0.3,1.01,0.82,1.9,1.53,2.63l-0.75,3.33c-2.05,0.54-4.16,0.54-6.19,0.01l-0.75-3.34  c0.71-0.73,1.23-1.62,1.53-2.63C21.42,27.85,22.19,28,23,28z M17.39,31.51L21.75,51h-2.11l-5.09-10.97L16.02,40  c0.31-0.01,0.59-0.15,0.78-0.4c0.18-0.24,0.25-0.56,0.17-0.86l-1.72-6.55l0.24-0.04C16.17,32.03,16.81,31.8,17.39,31.51z M8,35.04  c0-0.88,0.73-1.66,1.74-1.85l3.53-0.64l1.44,5.48l-1.73,0.04c-0.34,0.01-0.65,0.19-0.83,0.47c-0.18,0.29-0.2,0.64-0.06,0.95  L17.43,51H8V35.04z"></path></svg>