<svg xmlns="http://www.w3.org/2000/svg" xmlns:xlink="http://www.w3.org/1999/xlink" version="1.1" x="0px" y="0px" viewBox="0 0 64 64" style="enable-background:new 0 0 64 64;" xml:space="preserve"><g><path d="M61,53c0,4.411-4.038,8-9,8s-9-3.589-9-8c0-3.5,2.521-6.564,6.272-7.625L50,45.169V40h2v4c0,1.654,1.346,3,3,3   c0.351,0,0.687-0.061,1-0.171V49c0,1.654,1.346,3,3,3s3-1.346,3-3V33c0-2.757-2.243-5-5-5c-0.817,0-1.624,0.209-2.348,0.602   C53.718,27.584,52.412,27,51,27c-2.757,0-5,2.243-5,5c0,0.712,0.154,1.386,0.424,2H44v6h4v3.682c-4.217,1.488-7,5.149-7,9.318   c0,5.514,4.935,10,11,10s11-4.486,11-10H61z M46,36h2v-0.026C48.838,36.609,49.87,37,51,37v-2c-1.654,0-3-1.346-3-3s1.346-3,3-3   c1.056,0,2.016,0.551,2.566,1.475l0.605,1.015l0.901-0.764C55.461,30.394,56.113,30,57,30c1.654,0,3,1.346,3,3v16   c0,0.551-0.449,1-1,1s-1-0.449-1-1v-5v-4h-2v4c0,0.551-0.449,1-1,1s-1-0.449-1-1v-8h-2v2h-6V36z"></path><path d="M48.598,50.075l-1.195-1.604C45.875,49.61,45,51.261,45,53c0,1.74,0.876,3.39,2.403,4.529l1.195-1.604   C47.583,55.168,47,54.102,47,53C47,51.898,47.583,50.833,48.598,50.075z"></path><path d="M52,59v-2c-0.589,0-1.165-0.082-1.712-0.242l-0.563,1.919C50.455,58.891,51.221,59,52,59z"></path><rect x="50" y="31" width="2" height="2"></rect><rect x="56" y="36" width="2" height="2"></rect><path d="M15.442,27.944c0.51,1.755,1.452,3.364,2.78,4.692l3.9,3.9C23.066,37.48,24.321,38,25.657,38h4.687   c1.335,0,2.591-0.52,3.535-1.464l3.9-3.9c1.328-1.328,2.27-2.938,2.78-4.692C43.05,27.662,45,25.566,45,23   c0-1.641-0.806-3.088-2.031-4H43v-3c0-8.271-6.729-15-15-15S13,7.729,13,16v3h0.031C11.806,19.912,11,21.359,11,23   C11,25.566,12.95,27.662,15.442,27.944z M38.641,20H39v4.858c0,0.063-0.008,0.124-0.009,0.187C38.966,25.574,38.535,26,38,26h-5.93   c-0.335,0-0.646-0.167-0.832-0.445l-0.852-1.277C29.854,23.478,28.961,23,28,23c-0.962,0-1.854,0.478-2.386,1.277l-0.852,1.277   C24.576,25.833,24.265,26,23.93,26H18c-0.535,0-0.966-0.426-0.991-0.955C17.008,24.982,17,24.921,17,24.858V20H38.641z M29.414,18   l1.332-1.332c0.936-0.935,2.644-0.814,3.438,0.245L35,18H29.414z M36.364,31.222l-3.9,3.9C31.906,35.68,31.133,36,30.343,36h-4.687   c-0.79,0-1.562-0.32-2.121-0.878l-3.9-3.9c-0.94-0.94-1.636-2.055-2.08-3.267C17.702,27.977,17.848,28,18,28h5.93   c1.005,0,1.938-0.5,2.496-1.336l0.853-1.278c0.321-0.483,1.121-0.484,1.444,0l0.852,1.277C30.132,27.5,31.065,28,32.07,28H38   c0.152,0,0.298-0.023,0.444-0.045C38,29.167,37.304,30.282,36.364,31.222z M40.953,25.83c0.02-0.231,0.028-0.464,0.034-0.698   C40.989,25.087,41,25.045,41,25h-0.007C40.994,24.952,41,24.906,41,24.858v-4.674c1.161,0.414,2,1.514,2,2.816   C43,24.319,42.138,25.43,40.953,25.83z M28,3c7.168,0,13,5.832,13,13v2h-1h-1.359c-0.714,0-1.396-0.341-1.825-0.913l-1.031-1.375   C34.98,14.64,33.7,14,32.359,14c-1.144,0-2.219,0.445-3.027,1.254l-2.078,2.078C26.823,17.763,26.25,18,25.641,18H15v-2   C15,8.832,20.832,3,28,3z M15,20.184v4.674c0,0.048,0.006,0.094,0.007,0.142H15c0,0.045,0.011,0.087,0.013,0.132   c0.006,0.234,0.014,0.467,0.034,0.698C13.862,25.43,13,24.319,13,23C13,21.698,13.839,20.598,15,20.184z"></path><path d="M41.225,55.966l-2.904-3.872l3.787-3.787l-1.695-6.782l4.56,1.52l0.633-1.897L37,38.279V37h-2v1.446l-7,4.375l-7-4.375V37   h-2v1.279l-8.604,2.868c-3.875,1.292-6.7,4.598-7.372,8.627L0.819,63H43v-2h-5.132L41.225,55.966z M19.869,40.098L28,45.179   l8.131-5.082l2.032,0.677l1.73,6.918l-4.213,4.213l3.096,4.128L35.465,61h-3.232l3.746-17.794l-1.957-0.412L30.189,61h-4.377   l-3.833-18.206l-1.957,0.412L23.768,61h-3.232l-3.311-4.966l3.096-4.128l-4.213-4.213l1.73-6.918L19.869,40.098z M4.997,50.104   c0.549-3.297,2.861-6.001,6.032-7.059l4.56-1.52l-1.695,6.782l3.787,3.787l-2.904,3.872L18.132,61h-6.026l0.89-8.9l-1.99-0.199   l-0.91,9.1H3.181L4.997,50.104z"></path></g></svg>