<svg height='100px' width='100px'  fill="#000000" xmlns="http://www.w3.org/2000/svg" xmlns:xlink="http://www.w3.org/1999/xlink" version="1.1" x="0px" y="0px" viewBox="0 0 1024 1024" enable-background="new 0 0 1024 1024" xml:space="preserve"><g><g><g><g><path d="M882.8,581.1c0,2.3-0.1,4.6-0.3,6.9c-0.1,0.9-0.2,1.8-0.3,2.7c0.3-2.9,0.1-0.5,0,0.1      c-0.8,4.4-1.8,8.8-3.2,13c-0.6,1.7-1.2,3.3-1.8,5c1.1-2.7,0,0-0.3,0.6c-0.5,1-0.9,2-1.4,3c-1.8,3.5-3.8,6.9-6.1,10.1      c0.1-0.1-2.5,3.3-1.1,1.6c1.3-1.7-1.3,1.6-1.3,1.5c-1.1,1.3-2.3,2.6-3.5,3.9c-1.3,1.4-2.7,2.8-4.2,4.1c-0.8,0.7-1.6,1.4-2.4,2.1      c-0.5,0.4-3.6,2.8-1,0.9c-3.1,2.3-6.4,4.5-9.9,6.4c-1.5,0.8-3.1,1.6-4.7,2.4c-0.8,0.4-1.6,0.7-2.4,1.1c2.9-1.3-0.7,0.2-1.3,0.5      c-3.8,1.4-7.6,2.5-11.5,3.3c-1.1,0.2-2.2,0.4-3.3,0.6c-0.8,0.1-3.8,0.4-0.7,0.1c-2.3,0.2-4.6,0.4-6.9,0.5      c-4.2,0.1-8.3-0.1-12.5-0.5c3,0.3-1.7-0.3-2.7-0.5c-2.2-0.4-4.4-0.9-6.5-1.5c-2.1-0.6-4.2-1.3-6.3-2c-0.8-0.3-1.6-0.6-2.5-0.9      c2.6,1,0.5,0.2-0.1,0c-3.9-1.9-7.8-3.9-11.4-6.3c-1.5-1-2.9-2-4.3-3c2.3,1.7,0,0-0.5-0.5c-0.8-0.7-1.7-1.4-2.5-2.1      c-3.1-2.8-5.9-5.7-8.5-8.9c-0.3-0.3-2-2.5-0.9-1c1.3,1.7-1.2-1.7-1.1-1.6c-1-1.4-2-2.9-2.9-4.4c-1.1-1.9-2.2-3.8-3.2-5.7      c-0.4-0.8-0.8-1.6-1.2-2.4c-0.1-0.3-1.8-4.3-0.6-1.2c-1.5-3.7-2.7-7.5-3.7-11.4c-0.4-1.7-0.8-3.5-1.1-5.3c0,0.1-0.6-4.3-0.3-2      c0.2,1.8-0.2-2.3-0.2-2.8c-0.3-3.9-0.3-7.9,0-11.8c0.1-1.1,0.2-2.3,0.3-3.4c0.2-2.6-0.7,3.5,0.1-0.7c0.4-2.2,0.8-4.4,1.3-6.6      c0.9-3.9,2.2-7.7,3.7-11.4c-1.1,2.8,0.7-1.5,1.2-2.4c1.1-2.2,2.2-4.3,3.5-6.3c1-1.7,2.1-3.3,3.2-4.9c0.5-0.7,1-1.4,1.5-2.1      c-1.6,2.2-0.3,0.4,0.1,0c2.8-3.3,5.7-6.5,9-9.4c0.6-0.6,1.3-1.1,2-1.7c-0.1,0.1,3.2-2.6,1.5-1.3c-1.7,1.3,1.7-1.2,1.6-1.1      c0.7-0.5,1.4-1,2.2-1.5c3.5-2.3,7.1-4.2,10.9-6c0.7-0.3,3.4-1.4,0.6-0.3c0.8-0.3,1.6-0.6,2.5-0.9c1.9-0.7,3.8-1.3,5.7-1.8      c1.9-0.6,3.9-1,5.9-1.5c0.9-0.2,1.8-0.4,2.7-0.5c0.4-0.1,4.7-0.6,1.4-0.2c4.2-0.4,8.3-0.6,12.5-0.5c1.8,0.1,3.7,0.2,5.5,0.4      c4.3,0.3-1.8-0.3,0.8,0.1c1.3,0.2,2.7,0.4,4,0.7c4.6,0.9,9,2.4,13.4,3.9c2.7,0.9,0.7,0.2,0.1,0c1.2,0.5,2.4,1.1,3.6,1.7      c2,1,3.9,2,5.8,3.1c2.1,1.2,4,2.6,6,3.9c0.6,0.4,2.9,2.2,0.6,0.4c1,0.8,2,1.6,3,2.5c3.3,2.8,6.3,5.9,9.1,9.2      c0.6,0.7,1.1,1.3,1.6,2c-2-2.5,0.4,0.6,0.8,1.1c1.4,2,2.7,4,3.9,6c1.1,1.9,2.1,3.8,3.1,5.8c0.5,1,0.9,2,1.4,3      c-1.1-2.4,0.1,0.4,0.5,1.3c1.5,4.2,2.7,8.5,3.6,12.9c0.2,0.9,0.3,1.8,0.5,2.7c0.6,3.5,0-1.9,0.2,1.4      C882.6,575.6,882.8,578.3,882.8,581.1c0.1,7.8,6.9,15.4,15,15c8.1-0.4,15.1-6.6,15-15c-0.3-42.6-27.3-80.2-67.2-94.7      c-38.2-13.9-84.1-1.5-109.9,30c-27,32.9-31.7,80.2-9.1,116.9c22.2,36.1,64.8,54.2,106.2,46.1c46.3-9,79.7-51.7,80-98.3      c0.1-7.8-6.9-15.4-15-15C889.6,566.5,882.9,572.7,882.8,581.1z"></path></g></g><g><g><path d="M1005.7,862c-12.8,0-25.5,0-38.3,0c-30.8,0-61.7,0-92.5,0c-37.2,0-74.3,0-111.5,0c-32.3,0-64.5,0-96.8,0      c-15.5,0-31.3-1-46.8,0c-0.2,0-0.4,0-0.7,0c5,5,10,10,15,15c0-3.6,0-7.2,0.1-10.8c0.1-2.3,0.2-4.6,0.4-6.9      c0.1-1.4,0.2-2.8,0.4-4.1c0.1-0.6,0.8-6.3,0.3-2.8c1.5-10.2,3.9-20.4,7.2-30.2c0.8-2.3,1.6-4.6,2.5-6.9c0.4-1,0.8-2.1,1.2-3.1      c-1.3,3.1,0.4-0.9,0.6-1.3c2.2-4.8,4.6-9.5,7.2-14.1c2.4-4.2,5-8.2,7.7-12.2c0.7-1.1,1.5-2.1,2.3-3.2c0.2-0.3,2.9-3.8,0.8-1.1      c1.6-2.1,3.3-4.1,5-6.1c6.8-7.9,14.4-15.1,22.6-21.7c2.2-1.8,0.5-0.4,0.1-0.1c1-0.8,2.1-1.6,3.2-2.3c2.1-1.5,4.3-3,6.5-4.4      c4.4-2.9,8.9-5.5,13.6-8c2.1-1.1,4.3-2.2,6.5-3.2c1-0.5,2-0.9,3-1.4c4-1.8-2.8,1,1.3-0.6c5-2,10-3.8,15.1-5.3      c4.7-1.4,9.5-2.6,14.4-3.6c2.7-0.5,5.4-1,8-1.4c4.5-0.7-3.1,0.3,1.4-0.2c1.4-0.1,2.7-0.3,4.1-0.4c12.4-1.1,24.9-0.7,37.3-0.7      c11,0,21.9,0,32.9,0c5.1,0,10.2,0.2,15.3,0.7c0.9,0.1,1.8,0.2,2.7,0.3c0.4,0,4.9,0.6,1.5,0.1c3.1,0.4,6.3,1,9.4,1.6      c10.1,2,19.9,5.1,29.5,8.9c4.1,1.6-2.7-1.3,1.3,0.6c0.8,0.4,1.6,0.7,2.4,1.1c2.4,1.1,4.8,2.3,7.1,3.5c4.7,2.4,9.2,5.1,13.6,8      c2.2,1.4,4.4,2.9,6.5,4.4c0.9,0.6,1.8,1.3,2.6,1.9c2,1.5-2.7-2.2,0.6,0.5c4.1,3.3,8,6.7,11.8,10.3c4.1,3.9,8,8.1,11.6,12.4      c0.8,1,1.7,2,2.5,3c0.5,0.7,1.1,1.4,1.6,2c-1-1.3-1-1.3,0,0.1c1.5,2.1,3.1,4.2,4.5,6.4c3.2,4.7,6.1,9.6,8.8,14.6      c1.4,2.7,2.8,5.5,4.1,8.3c0.6,1.2,1.1,2.4,1.6,3.6c-1.3-2.9,0.3,0.7,0.5,1.3c4.4,11,7.6,22.5,9.5,34.3c0.2,1.1,0.4,2.2,0.5,3.4      c-0.5-3.4,0.2,2.2,0.3,2.8c0.3,3,0.5,6,0.7,9c0.2,4.3,0.2,8.6,0.2,12.9c0,7.8,6.9,15.4,15,15c8.1-0.4,15-6.6,15-15      c0-21.3-2.5-42.6-9.4-62.9c-7.6-22.1-19.2-42.3-34.3-60.1c-30-35.3-73.2-57.1-119.1-62.1c-13.3-1.4-26.8-1-40.1-1      c-11.4,0-22.9-0.1-34.3,0c-46.5,0.4-91.8,19.1-125,51.6c-18.5,18.1-32.6,40-42.2,64.1c-8.9,22.5-12.2,46.3-12.2,70.4      c0,8.1,6.9,15,15,15c12.8,0,25.5,0,38.3,0c30.8,0,61.7,0,92.5,0c37.2,0,74.3,0,111.5,0c32.3,0,64.5,0,96.8,0      c15.6,0,31.2,0.5,46.8,0c0.2,0,0.4,0,0.7,0c7.8,0,15.4-6.9,15-15C1020.4,868.9,1014.1,862,1005.7,862z"></path></g></g></g><g><g><g><path d="M281.8,232.1c0,2.3-0.1,4.6-0.3,6.9c-0.1,0.9-0.2,1.8-0.3,2.7c0.3-2.9,0.1-0.5,0,0.1      c-0.8,4.4-1.8,8.8-3.2,13c-0.6,1.7-1.2,3.3-1.8,5c1.1-2.7,0,0-0.3,0.6c-0.5,1-0.9,2-1.4,3c-1.8,3.5-3.8,6.9-6.1,10.1      c0.1-0.1-2.5,3.3-1.1,1.6c1.3-1.7-1.3,1.6-1.3,1.5c-1.1,1.3-2.3,2.6-3.5,3.9c-1.3,1.4-2.7,2.8-4.2,4.1c-0.8,0.7-1.6,1.4-2.4,2.1      c-0.5,0.4-3.6,2.8-1,0.9c-3.1,2.3-6.4,4.5-9.9,6.4c-1.5,0.8-3.1,1.6-4.7,2.4c-0.8,0.4-1.6,0.7-2.4,1.1c2.9-1.3-0.7,0.2-1.3,0.5      c-3.8,1.4-7.6,2.5-11.5,3.3c-1.1,0.2-2.2,0.4-3.3,0.6c-0.8,0.1-3.8,0.4-0.7,0.1c-2.3,0.2-4.6,0.4-6.9,0.5      c-4.2,0.1-8.3-0.1-12.5-0.5c3,0.3-1.7-0.3-2.7-0.5c-2.2-0.4-4.4-0.9-6.5-1.5c-2.1-0.6-4.2-1.3-6.3-2c-0.8-0.3-1.6-0.6-2.5-0.9      c2.6,1,0.5,0.2-0.1,0c-3.9-1.9-7.8-3.9-11.4-6.3c-1.5-1-2.9-2-4.3-3c2.3,1.7,0,0-0.5-0.5c-0.8-0.7-1.7-1.4-2.5-2.1      c-3.1-2.8-5.9-5.7-8.5-8.9c-0.3-0.3-2-2.5-0.9-1c1.3,1.7-1.2-1.7-1.1-1.6c-1-1.4-2-2.9-2.9-4.4c-1.1-1.9-2.2-3.8-3.2-5.7      c-0.4-0.8-0.8-1.6-1.2-2.4c-0.1-0.3-1.8-4.3-0.6-1.2c-1.5-3.7-2.7-7.5-3.7-11.4c-0.4-1.7-0.8-3.5-1.1-5.3c0,0.1-0.6-4.3-0.3-2      c0.2,1.8-0.2-2.3-0.2-2.8c-0.3-3.9-0.3-7.9,0-11.8c0.1-1.1,0.2-2.3,0.3-3.4c0.2-2.6-0.7,3.5,0.1-0.7c0.4-2.2,0.8-4.4,1.3-6.6      c0.9-3.9,2.2-7.7,3.7-11.4c-1.1,2.8,0.7-1.5,1.2-2.4c1.1-2.2,2.2-4.3,3.5-6.3c1-1.7,2.1-3.3,3.2-4.9c0.5-0.7,1-1.4,1.5-2.1      c-1.6,2.2-0.3,0.4,0.1,0c2.8-3.3,5.7-6.5,9-9.4c0.6-0.6,1.3-1.1,2-1.7c-0.1,0.1,3.2-2.6,1.5-1.3c-1.7,1.3,1.7-1.2,1.6-1.1      c0.7-0.5,1.4-1,2.2-1.5c3.5-2.3,7.1-4.2,10.9-6c0.7-0.3,3.4-1.4,0.6-0.3c0.8-0.3,1.6-0.6,2.5-0.9c1.9-0.7,3.8-1.3,5.7-1.8      c1.9-0.6,3.9-1,5.9-1.5c0.9-0.2,1.8-0.4,2.7-0.5c0.4-0.1,4.7-0.6,1.4-0.2c4.2-0.4,8.3-0.6,12.5-0.5c1.8,0.1,3.7,0.2,5.5,0.4      c4.3,0.3-1.8-0.3,0.8,0.1c1.3,0.2,2.7,0.4,4,0.7c4.6,0.9,9,2.4,13.4,3.9c2.7,0.9,0.7,0.2,0.1,0c1.2,0.5,2.4,1.1,3.6,1.7      c2,1,3.9,2,5.8,3.1c2.1,1.2,4,2.6,6,3.9c0.6,0.4,2.9,2.2,0.6,0.4c1,0.8,2,1.6,3,2.5c3.3,2.8,6.3,5.9,9.1,9.2      c0.6,0.7,1.1,1.3,1.6,2c-2-2.5,0.4,0.6,0.8,1.1c1.4,2,2.7,4,3.9,6c1.1,1.9,2.1,3.8,3.1,5.8c0.5,1,0.9,2,1.4,3      c-1.1-2.4,0.1,0.4,0.5,1.3c1.5,4.2,2.7,8.5,3.6,12.9c0.2,0.9,0.3,1.8,0.5,2.7c0.6,3.5,0-1.9,0.2,1.4      C281.6,226.6,281.8,229.3,281.8,232.1c0.1,7.8,6.9,15.4,15,15c8.1-0.4,15.1-6.6,15-15c-0.3-42.6-27.3-80.2-67.2-94.7      c-38.2-13.9-84.1-1.5-109.9,30c-27,32.9-31.7,80.2-9.1,116.9c22.2,36.1,64.8,54.2,106.2,46.1c46.3-9,79.7-51.7,80-98.3      c0.1-7.8-6.9-15.4-15-15C288.7,217.5,281.9,223.7,281.8,232.1z"></path></g></g><g><g><path d="M404.8,513c-12.8,0-25.5,0-38.3,0c-30.8,0-61.7,0-92.5,0c-37.2,0-74.3,0-111.5,0c-32.3,0-64.5,0-96.8,0      c-15.5,0-31.3-1-46.8,0c-0.2,0-0.4,0-0.7,0c5,5,10,10,15,15c0-3.6,0-7.2,0.1-10.8c0.1-2.3,0.2-4.6,0.4-6.9      c0.1-1.4,0.2-2.8,0.4-4.1c0.1-0.6,0.8-6.3,0.3-2.8c1.5-10.2,3.9-20.4,7.2-30.2c0.8-2.3,1.6-4.6,2.5-6.9c0.4-1,0.8-2.1,1.2-3.1      c-1.3,3.1,0.4-0.9,0.6-1.3c2.2-4.8,4.6-9.5,7.2-14.1c2.4-4.2,5-8.2,7.7-12.2c0.7-1.1,1.5-2.1,2.3-3.2c0.2-0.3,2.9-3.8,0.8-1.1      c1.6-2.1,3.3-4.1,5-6.1c6.8-7.9,14.4-15.1,22.6-21.7c2.2-1.8,0.5-0.4,0.1-0.1c1-0.8,2.1-1.6,3.2-2.3c2.1-1.5,4.3-3,6.5-4.4      c4.4-2.9,8.9-5.5,13.6-8c2.1-1.1,4.3-2.2,6.5-3.2c1-0.5,2-0.9,3-1.4c4-1.8-2.8,1,1.3-0.6c5-2,10-3.8,15.1-5.3      c4.7-1.4,9.5-2.6,14.4-3.6c2.7-0.5,5.4-1,8-1.4c4.5-0.7-3.1,0.3,1.4-0.2c1.4-0.1,2.7-0.3,4.1-0.4c12.4-1.1,24.9-0.7,37.3-0.7      c11,0,21.9,0,32.9,0c5.1,0,10.2,0.2,15.3,0.7c0.9,0.1,1.8,0.2,2.7,0.3c0.4,0,4.9,0.6,1.5,0.1c3.1,0.4,6.3,1,9.4,1.6      c10.1,2,19.9,5.1,29.5,8.9c4.1,1.6-2.7-1.3,1.3,0.6c0.8,0.4,1.6,0.7,2.4,1.1c2.4,1.1,4.8,2.3,7.1,3.5c4.7,2.4,9.2,5.1,13.6,8      c2.2,1.4,4.4,2.9,6.5,4.4c0.9,0.6,1.8,1.3,2.6,1.9c2,1.5-2.7-2.2,0.6,0.5c4.1,3.3,8,6.7,11.8,10.3c4.1,3.9,8,8.1,11.6,12.4      c0.8,1,1.7,2,2.5,3c0.5,0.7,1.1,1.4,1.6,2c-1-1.3-1-1.3,0,0.1c1.5,2.1,3.1,4.2,4.5,6.4c3.2,4.7,6.1,9.6,8.8,14.6      c1.4,2.7,2.8,5.5,4.1,8.3c0.6,1.2,1.1,2.4,1.6,3.6c-1.3-2.9,0.3,0.7,0.5,1.3c4.4,11,7.6,22.5,9.5,34.3c0.2,1.1,0.4,2.2,0.5,3.4      c-0.5-3.4,0.2,2.2,0.3,2.8c0.3,3,0.5,6,0.7,9c0.2,4.3,0.2,8.6,0.2,12.9c0,7.8,6.9,15.4,15,15c8.1-0.4,15-6.6,15-15      c0-21.3-2.5-42.6-9.4-62.9c-7.6-22.1-19.2-42.3-34.3-60.1c-30-35.3-73.2-57.1-119.1-62.1c-13.3-1.4-26.8-1-40.1-1      c-11.4,0-22.9-0.1-34.3,0c-46.5,0.4-91.8,19.1-125,51.6c-18.5,18.1-32.6,40-42.2,64.1C6.5,480.1,3.3,504,3.3,528      c0,8.1,6.9,15,15,15c12.8,0,25.5,0,38.3,0c30.8,0,61.7,0,92.5,0c37.2,0,74.3,0,111.5,0c32.3,0,64.5,0,96.8,0      c15.6,0,31.2,0.5,46.8,0c0.2,0,0.4,0,0.7,0c7.8,0,15.4-6.9,15-15C419.4,519.9,413.2,513,404.8,513z"></path></g></g></g><g><g><g><path d="M826.7,426.4c0-20.3,0-40.5,0-60.8c0-32.5,0-65,0-97.5c0-7.4,0-14.9,0-22.3c0-8.1-6.9-15-15-15      c-11.7,0-23.5,0-35.2,0c-28.4,0-56.8,0-85.2,0c-34.2,0-68.4,0-102.6,0c-29.7,0-59.4,0-89.1,0c-14.4,0-28.8-0.5-43.1,0      c-0.2,0-0.4,0-0.6,0c-7.8,0-15.4,6.9-15,15c0.4,8.1,6.6,15,15,15c11.7,0,23.5,0,35.2,0c28.4,0,56.8,0,85.2,0      c34.2,0,68.4,0,102.6,0c29.7,0,59.4,0,89.1,0c14.3,0,28.9,0.8,43.1,0c0.2,0,0.4,0,0.6,0c-5-5-10-10-15-15c0,20.3,0,40.5,0,60.8      c0,32.5,0,65,0,97.5c0,7.4,0,14.9,0,22.3c0,7.8,6.9,15.4,15,15C819.8,441,826.7,434.8,826.7,426.4L826.7,426.4z"></path></g></g><g><g><path d="M551,295.1c-25.7-18.3-51.4-36.7-77-55c-3.7-2.6-7.3-5.2-11-7.8c0,8.6,0,17.3,0,25.9      c25.7-18.3,51.4-36.7,77-55c3.7-2.6,7.3-5.2,11-7.8c6.6-4.7,9.7-13.1,5.4-20.5c-3.8-6.5-13.9-10.1-20.5-5.4      c-25.7,18.3-51.4,36.7-77,55c-3.7,2.6-7.3,5.2-11,7.8c-9.6,6.9-9.6,19.1,0,25.9c25.7,18.3,51.4,36.7,77,55      c3.7,2.6,7.3,5.2,11,7.8c6.6,4.7,16.7,1.2,20.5-5.4C560.7,308.1,557.6,299.8,551,295.1L551,295.1z"></path></g></g></g><g><g><g><path d="M194.3,594.5c0,20.3,0,40.5,0,60.8c0,32.5,0,65,0,97.5c0,7.4,0,14.9,0,22.3c0,8.1,6.9,15,15,15      c11.7,0,23.5,0,35.2,0c28.4,0,56.8,0,85.2,0c34.2,0,68.4,0,102.6,0c29.7,0,59.4,0,89.1,0c14.4,0,28.8,0.5,43.1,0      c0.2,0,0.4,0,0.6,0c7.8,0,15.4-6.9,15-15c-0.4-8.1-6.6-15-15-15c-11.7,0-23.5,0-35.2,0c-28.4,0-56.8,0-85.2,0      c-34.2,0-68.4,0-102.6,0c-29.7,0-59.4,0-89.1,0c-14.3,0-28.9-0.8-43.1,0c-0.2,0-0.4,0-0.6,0c5,5,10,10,15,15      c0-20.3,0-40.5,0-60.8c0-32.5,0-65,0-97.5c0-7.4,0-14.9,0-22.3c0-7.8-6.9-15.4-15-15C201.1,579.8,194.3,586.1,194.3,594.5      L194.3,594.5z"></path></g></g><g><g><path d="M470,725.8c25.7,18.3,51.4,36.7,77,55c3.7,2.6,7.3,5.2,11,7.8c0-8.6,0-17.3,0-25.9      c-25.7,18.3-51.4,36.7-77,55c-3.7,2.6-7.3,5.2-11,7.8c-6.6,4.7-9.7,13.1-5.4,20.5c3.8,6.5,13.9,10.1,20.5,5.4      c25.7-18.3,51.4-36.7,77-55c3.7-2.6,7.3-5.2,11-7.8c9.6-6.9,9.6-19.1,0-25.9c-25.7-18.3-51.4-36.7-77-55      c-3.7-2.6-7.3-5.2-11-7.8c-6.6-4.7-16.7-1.2-20.5,5.4C460.2,712.8,463.4,721.1,470,725.8L470,725.8z"></path></g></g></g></g></svg>