<svg height='100px' width='100px'  fill="#000000" xmlns="http://www.w3.org/2000/svg" xmlns:xlink="http://www.w3.org/1999/xlink" version="1.1" x="0px" y="0px" viewBox="0 0 100 100" enable-background="new 0 0 100 100" xml:space="preserve"><g><path d="M61.9,25.662c-0.119,0-0.239-0.025-0.354-0.078c-3.093-1.419-7.193-2.201-11.546-2.201c-4.396,0-8.506,0.767-11.573,2.157   c-0.429,0.194-0.931,0.004-1.125-0.424c-0.194-0.427-0.005-0.931,0.423-1.125c3.283-1.488,7.642-2.308,12.275-2.308   c4.592,0,8.945,0.836,12.255,2.355c0.427,0.195,0.614,0.7,0.418,1.127C62.53,25.478,62.222,25.662,61.9,25.662z"></path><path d="M87.833,94.695c-0.007,0-0.013,0-0.02,0H12.187c-0.426,0-0.832-0.182-1.117-0.498c-0.284-0.317-0.42-0.741-0.375-1.164   c0.407-3.737,1.564-12.641,3.513-14.59c1.236-1.236,20.278-5.53,22.17-7.332c1.071-1.02,1.432-3.117,1.522-4.637l-13.596,0.329   c-0.405,0-0.794-0.144-1.084-0.427c-0.289-0.282-0.452-0.669-0.452-1.073c0-0.946-0.017-2-0.035-3.14   c-0.17-10.792-0.48-30.442,12.977-38.391c-7.438-6.102-7.438-7.456-7.438-8.059c0-7.191,10.913-10.41,21.727-10.41   c10.815,0,21.727,3.219,21.727,10.41c0,0.662,0,1.64-7.517,8.079c14.186,8.363,14.111,29.685,14.074,40.169l-0.004,1.542   c0,0.402-0.162,0.788-0.449,1.07s-0.687,0.415-1.078,0.43l-14.59-0.267c0.653,2.013,1.352,3.901,1.663,4.319   c1.684,1.66,20.123,5.939,21.569,7.385c2,2,3.432,11.154,3.872,14.307c0.044,0.141,0.067,0.291,0.067,0.446   C89.333,94.023,88.662,94.695,87.833,94.695z M13.874,91.695h72.204c-0.781-5.015-1.997-10.301-2.805-11.132   c-0.908-0.908-19.266-5.112-21.609-7.431c-0.899-0.89-2.121-4.573-2.987-7.508c-0.135-0.458-0.044-0.953,0.245-1.334   c0.29-0.38,0.755-0.602,1.221-0.591l15.142,0.277v-0.025c0.04-11.132,0.114-31.853-14.369-38.498   c-0.467-0.214-0.792-0.653-0.861-1.162c-0.069-0.51,0.128-1.02,0.521-1.35c3.398-2.854,7.318-6.409,8.138-7.527   c-0.391-4.621-9.826-7.11-18.714-7.11c-8.942,0-18.438,2.52-18.721,7.195c0.686,1.126,4.65,4.635,8.09,7.372   c0.409,0.325,0.619,0.84,0.555,1.358c-0.064,0.518-0.394,0.966-0.869,1.182C25.254,31.67,25.554,50.729,25.733,62.117   c0.009,0.572,0.018,1.123,0.024,1.65l13.609-0.33c0.785-0.039,1.477,0.596,1.533,1.396c0.041,0.587,0.321,5.81-2.453,8.45   c-2.495,2.377-21.424,6.599-22.118,7.281C15.562,81.414,14.508,86.701,13.874,91.695z"></path><path d="M52.279,93.865c-0.293,0-0.579-0.152-0.736-0.424l-13.36-23.044c-0.235-0.406-0.097-0.927,0.309-1.162   c0.406-0.236,0.926-0.097,1.162,0.309l13.36,23.044c0.235,0.406,0.097,0.927-0.309,1.162C52.57,93.828,52.423,93.865,52.279,93.865   z"></path><path d="M50.208,89.744c-0.149,0-0.301-0.04-0.438-0.123c-0.402-0.243-0.531-0.766-0.288-1.167l11.375-18.819   c0.243-0.402,0.765-0.531,1.167-0.288c0.402,0.243,0.531,0.766,0.288,1.167L50.936,89.333   C50.776,89.598,50.496,89.744,50.208,89.744z"></path><path d="M54.991,93.844c-0.17,0-0.341-0.05-0.491-0.156c-0.383-0.271-0.474-0.802-0.203-1.185l13.129-18.544   c0.272-0.384,0.802-0.476,1.185-0.202c0.383,0.271,0.474,0.802,0.203,1.185L55.686,93.485C55.52,93.72,55.257,93.844,54.991,93.844   z"></path><path d="M50.014,71.665c-10.043,0-16.163-15.348-16.719-26.428c-0.419-8.341,2.163-13.605,6.905-14.083   c3.766-0.379,6.875,0.346,8.75,2.042c0.457,0.413,0.835,0.882,1.13,1.398c0.231-0.353,0.507-0.684,0.825-0.988   c1.833-1.754,4.994-2.62,8.893-2.456c4.903,0.217,7.619,4.702,7.452,12.308C67.001,54.688,60.001,71.665,50.014,71.665z    M40.37,32.846c-5.532,0.589-5.515,9.561-5.377,12.307c0.589,11.736,6.903,24.813,15.021,24.813c8.673,0,15.3-15.856,15.536-26.545   c0.068-3.099-0.363-10.331-5.827-10.571c-3.387-0.159-6.169,0.575-7.642,1.985c-0.787,0.753-1.186,1.695-1.186,2.803   c0,0.477-0.394,0.846-0.873,0.85c-0.479-0.01-0.873-0.372-0.873-0.85c0-1.307-0.451-2.376-1.34-3.181   C46.587,33.352,43.031,32.563,40.37,32.846z"></path><path d="M35.401,23.179c-0.181,0-0.363-0.057-0.518-0.176c-0.372-0.286-0.442-0.819-0.156-1.191   c3.118-4.059,8.66-6.521,14.825-6.59c6.392-0.115,12.189,2.355,15.515,6.492c0.294,0.365,0.236,0.9-0.13,1.194   c-0.366,0.296-0.901,0.236-1.195-0.13c-3.001-3.732-8.273-5.953-14.171-5.857c-5.647,0.063-10.693,2.278-13.496,5.926   C35.909,23.064,35.656,23.179,35.401,23.179z"></path><path d="M38.211,25.471c-0.206,0-0.415-0.042-0.614-0.132l-14.87-6.684c-0.756-0.34-1.093-1.228-0.753-1.983   c0.34-0.755,1.229-1.093,1.983-0.753l14.87,6.684c0.756,0.34,1.093,1.228,0.753,1.983C39.33,25.142,38.784,25.471,38.211,25.471z"></path><path d="M24.942,28.262c-0.719,0-1.354-0.519-1.478-1.252c-0.137-0.816,0.414-1.59,1.231-1.728l12.132-2.038   c0.818-0.133,1.59,0.414,1.728,1.231c0.137,0.816-0.414,1.59-1.231,1.728l-12.132,2.038C25.108,28.255,25.024,28.262,24.942,28.262   z"></path><path d="M21.527,18.955c-1.411,0-2.559-1.147-2.559-2.558c0-1.411,1.148-2.559,2.559-2.559s2.559,1.147,2.559,2.559   C24.085,17.808,22.938,18.955,21.527,18.955z M21.527,15.538c-0.473,0-0.858,0.386-0.858,0.859c0,0.473,0.385,0.858,0.858,0.858   s0.858-0.386,0.858-0.858C22.385,15.924,22,15.538,21.527,15.538z"></path><path d="M23.235,29.205c-1.411,0-2.559-1.147-2.559-2.558s1.148-2.558,2.559-2.558s2.559,1.147,2.559,2.558   S24.646,29.205,23.235,29.205z M23.235,25.789c-0.473,0-0.858,0.386-0.858,0.858s0.385,0.858,0.858,0.858s0.858-0.386,0.858-0.858   S23.708,25.789,23.235,25.789z"></path><path d="M62.529,25.471c-0.573,0-1.119-0.329-1.369-0.885c-0.34-0.756-0.002-1.644,0.753-1.983l14.87-6.684   c0.755-0.339,1.644-0.001,1.983,0.753c0.34,0.756,0.002,1.644-0.753,1.983l-14.87,6.684C62.944,25.429,62.735,25.471,62.529,25.471   z"></path><path d="M75.799,28.262c-0.083,0-0.167-0.007-0.25-0.021l-12.133-2.038c-0.817-0.138-1.368-0.911-1.231-1.728   c0.138-0.817,0.914-1.362,1.728-1.231l12.133,2.038c0.817,0.138,1.368,0.911,1.231,1.728   C77.153,27.743,76.518,28.262,75.799,28.262z"></path><path d="M79.213,18.955c-1.411,0-2.559-1.147-2.559-2.558c0-1.411,1.148-2.559,2.559-2.559s2.559,1.147,2.559,2.559   C81.772,17.808,80.624,18.955,79.213,18.955z M79.213,15.538c-0.473,0-0.858,0.386-0.858,0.859c0,0.473,0.385,0.858,0.858,0.858   s0.858-0.386,0.858-0.858C80.072,15.924,79.687,15.538,79.213,15.538z"></path><path d="M77.505,29.205c-1.411,0-2.558-1.147-2.558-2.558s1.147-2.558,2.558-2.558s2.559,1.147,2.559,2.558   S78.916,29.205,77.505,29.205z M77.505,25.789c-0.473,0-0.858,0.386-0.858,0.858s0.385,0.858,0.858,0.858s0.858-0.386,0.858-0.858   S77.978,25.789,77.505,25.789z"></path><path d="M44.648,93.865c-0.278,0-0.551-0.137-0.714-0.388L31.746,74.709c-0.256-0.394-0.144-0.92,0.25-1.176   c0.394-0.256,0.921-0.144,1.176,0.25L45.36,92.552c0.256,0.394,0.144,0.92-0.25,1.176C44.967,93.82,44.807,93.865,44.648,93.865z"></path></g></svg>