<svg height='100px' width='100px'  fill="#000000" xmlns="http://www.w3.org/2000/svg" viewBox="0 0 50 68" x="0px" y="0px"><path fill="#000000" d="M96.3984277,308.826314 C107.222079,311.679146 115,321.530099 115,333 L115,356 C115,356.530433 114.789286,357.039141 114.414214,357.414214 L108.414214,363.414214 C107.321388,364.507039 105.45488,364.000285 105.064765,362.504844 L99.0647655,339.504844 C98.7342001,338.237677 99.6904252,337 101,337 C102.656854,337 104,335.656854 104,334 L96,334 L96,344 C96,344.530433 95.7892863,345.039141 95.4142136,345.414214 L91.4142136,349.414214 C90.633165,350.195262 89.366835,350.195262 88.5857864,349.414214 L84.5857864,345.414214 C84.2107137,345.039141 84,344.530433 84,344 L84,334 L76,334 C76,335.656854 77.3431458,337 79,337 C80.3095748,337 81.2657999,338.237677 80.9352345,339.504844 L74.9352345,362.504844 C74.5451195,364.000285 72.6786116,364.507039 71.5857864,363.414214 L65.5857864,357.414214 C65.2107137,357.039141 65,356.530433 65,356 L65,333 C65,321.530099 72.777921,311.679146 83.6015723,308.826314 L82.0221273,298.296681 C81.840746,297.087473 82.7772637,296 84,296 L96,296 C97.2227363,296 98.159254,297.087473 97.9778727,298.296681 L96.3984277,308.826314 Z M94.9778727,318.296681 C94.8310167,319.275721 93.9899928,320 93,320 L87,320 C86.0100072,320 85.1689833,319.275721 85.0221273,318.296681 L84.1991684,312.810288 C75.3326494,315.347887 69,323.515952 69,333 L69,355.171573 L71.9459002,358.117473 L76.5284146,340.551168 C73.8820921,339.552272 72,336.995929 72,334 L72,332 C72,330.895431 72.8954305,330 74,330 L86,330 C87.1045695,330 88,330.895431 88,332 L88,343.171573 L90,345.171573 L92,343.171573 L92,332 C92,330.895431 92.8954305,330 94,330 L106,330 C107.104569,330 108,330.895431 108,332 L108,334 C108,336.995929 106.117908,339.552272 103.471585,340.551168 L108.0541,358.117473 L111,355.171573 L111,333 C111,323.515952 104.667351,315.347887 95.8008316,312.810288 L94.9778727,318.296681 Z M88.7223748,316 L91.2776252,316 L93.6776252,300 L86.3223748,300 L88.7223748,316 Z" transform="translate(-65 -296)"></path></svg>