<svg height='100px' width='100px'  fill="#000000" xmlns:dc="http://purl.org/dc/elements/1.1/" xmlns:cc="http://creativecommons.org/ns#" xmlns:rdf="http://www.w3.org/1999/02/22-rdf-syntax-ns#" xmlns:svg="http://www.w3.org/2000/svg" xmlns="http://www.w3.org/2000/svg" xmlns:sodipodi="http://sodipodi.sourceforge.net/DTD/sodipodi-0.dtd" xmlns:inkscape="http://www.inkscape.org/namespaces/inkscape" viewBox="0 0 511.99998 511.99998" version="1.1" x="0px" y="0px"><g transform="translate(-91.214475,-152.15558)"><path style="color:#000000;font-style:normal;font-variant:normal;font-weight:normal;font-stretch:normal;font-size:medium;line-height:normal;font-family:sans-serif;text-indent:0;text-align:start;text-decoration:none;text-decoration-line:none;text-decoration-style:solid;text-decoration-color:#000000;letter-spacing:normal;word-spacing:normal;text-transform:none;direction:ltr;block-progression:tb;writing-mode:lr-tb;baseline-shift:baseline;text-anchor:start;white-space:normal;clip-rule:nonzero;display:inline;overflow:visible;visibility:visible;opacity:1;isolation:auto;mix-blend-mode:normal;color-interpolation:sRGB;color-interpolation-filters:linearRGB;solid-color:#000000;solid-opacity:1;fill:#000000;fill-opacity:1;fill-rule:nonzero;stroke:none;stroke-width:15;stroke-linecap:round;stroke-linejoin:round;stroke-miterlimit:4;stroke-dasharray:none;stroke-dashoffset:0;stroke-opacity:1;color-rendering:auto;image-rendering:auto;shape-rendering:auto;text-rendering:auto;enable-background:accumulate" d="m 215.12615,152.1574 c -1.76273,0.0153 -3.52649,0.13667 -5.28321,0.36328 -0.78077,0.10072 -1.5602,0.221 -2.33789,0.36329 -9.33235,1.7075 -18.41062,6.41229 -26.27929,14.05859 -10.49156,10.19507 -19.02579,25.41832 -24.89454,46.0625 -10.31243,36.27545 -1.64729,75.97009 9.09766,106.70312 9.49126,27.14719 20.91286,47.5481 23.45703,51.95313 1.63416,4.95698 6.7795,8.1463 11.97266,7.36328 L 271.70818,368.341 c 4.80376,-0.7243 8.31152,-4.72366 8.98047,-9.35938 0.0574,-0.20354 23.1395,-82.18143 -3.99024,-153.88281 -11.91031,-31.47785 -34.76015,-52.13268 -59.81054,-52.92188 -0.58712,-0.0185 -1.17415,-0.0246 -1.76172,-0.0195 z m -0.28711,15 c 0.52491,-0.009 1.05032,-0.005 1.57617,0.0117 16.82732,0.53015 35.82792,15.68337 46.25391,43.23828 24.27516,64.15702 4.61186,140.40333 3.7832,143.55664 l -64.76953,9.76563 c -0.97358,-1.64899 -12.30143,-20.95681 -22.09571,-48.9707 -10.22,-29.23154 -17.71867,-66.38547 -8.83007,-97.65235 5.3482,-18.81308 12.89894,-31.61006 20.92187,-39.40625 6.01718,-5.84715 12.18935,-8.9969 18.44922,-10.09375 1.56497,-0.27421 3.13621,-0.42098 4.71094,-0.44922 z m 267.5957,144.32032 c -25.05742,-0.51973 -48.9547,18.91541 -62.49219,49.72851 -30.8362,70.18717 -12.06816,153.25663 -12.02148,153.46289 0.42601,4.66432 3.72303,8.84231 8.48242,9.81641 l 70.19531,14.36719 c 5.1452,1.05308 10.44912,-1.86361 12.33985,-6.72852 2.77069,-4.26619 15.24107,-24.04161 26.13672,-50.65625 12.33483,-30.13013 23.06072,-69.3196 14.65625,-106.08398 -4.78293,-20.92242 -12.5101,-36.56992 -22.45508,-47.29883 -7.45873,-8.04669 -16.27929,-13.21776 -25.50977,-15.41016 -0.76919,-0.18269 -1.54,-0.34498 -2.31445,-0.48633 -2.32331,-0.42402 -4.66844,-0.66221 -7.01758,-0.71093 z m -0.31054,14.99609 c 2.10401,0.0436 4.18922,0.29155 6.2539,0.76562 6.19407,1.42217 12.19473,4.88964 17.89844,11.04297 7.60495,8.20443 14.47529,21.37867 18.83398,40.44532 7.24407,31.6883 -2.18379,68.39854 -13.91601,97.05664 -11.2435,27.46433 -23.56275,46.15604 -24.6211,47.75195 l -64.17187,-13.13477 c -0.6629,-3.19227 -16.31819,-80.36192 11.27344,-143.16406 11.85038,-26.97299 31.61715,-41.11278 48.44922,-40.76367 z m -201.9043,56.5625 c -0.65114,-0.0257 -1.31213,0.009 -1.97461,0.10937 l -78.14258,11.78321 c -5.36943,0.8096 -9.43425,5.66352 -9.26172,11.10156 -0.24848,2.02165 -2.09255,17.72761 -1.39648,36.01172 0.372,9.77207 1.45599,20.17598 4.11914,29.66601 2.66315,9.49004 6.86937,18.40244 14.71875,24.07422 13.89963,10.04349 32.78669,12.63017 50.6543,10.00196 17.86758,-2.62824 35.18878,-10.55577 45.25781,-24.58985 5.68213,-7.91968 6.69833,-17.76512 6.00976,-27.60547 -0.68857,-9.84033 -3.222,-20.01789 -6.22461,-29.36718 -5.58721,-17.39714 -12.71169,-31.53896 -13.71289,-33.49805 -1.37432,-4.37074 -5.48891,-7.50731 -10.04687,-7.6875 z m -2.90039,15.41797 c 1.10002,2.17082 7.29651,14.52828 12.3789,30.35351 2.77301,8.63444 4.98668,17.8763 5.54297,25.82618 0.55629,7.94987 -0.68492,14.26497 -3.23437,17.81836 -6.71839,9.36401 -20.43855,16.3112 -35.25196,18.49023 -14.81342,2.17898 -30.24562,-0.4959 -39.6875,-7.31836 -3.59415,-2.59705 -6.89738,-8.25538 -9.0625,-15.9707 -2.16512,-7.71532 -3.22835,-17.14961 -3.57226,-26.1836 -0.61816,-16.23759 0.85065,-29.37926 1.18164,-32.20312 l 71.70508,-10.8125 z M 407.13591,538.716 c -4.56115,-0.058 -8.83491,2.85931 -10.43554,7.15234 -1.10212,1.90414 -8.95549,15.65462 -15.44336,32.73633 -3.48664,9.17978 -6.54861,19.21099 -7.75,29.00195 -1.20138,9.79098 -0.70036,19.67727 4.56054,27.88281 9.32259,14.54064 26.2061,23.36046 43.91211,26.91797 17.70601,3.55747 36.7024,1.96036 51.10743,-7.34375 8.1348,-5.25423 12.80205,-13.93538 15.95703,-23.27343 3.15498,-9.33805 4.78043,-19.67084 5.66211,-29.41016 1.64972,-18.22283 0.62892,-34.0033 0.48632,-36.03516 0.45622,-5.42163 -3.35204,-10.48149 -8.67187,-11.57031 l -77.41992,-15.8457 c -0.65636,-0.13434 -1.31325,-0.2046 -1.96485,-0.21289 z m 2.08985,15.54883 71.04297,14.54101 c 0.18354,2.83725 0.96511,16.03753 -0.5,32.2207 -0.81509,9.00372 -2.37058,18.37113 -4.93555,25.96289 -2.56498,7.59176 -6.15994,13.06875 -9.88477,15.47461 -9.78521,6.32021 -25.33421,8.18573 -40.01367,5.23633 -14.67945,-2.94945 -28.01793,-10.60463 -34.23828,-20.30664 -2.36045,-3.68164 -3.27137,-10.05291 -2.30078,-17.96289 0.97058,-7.91 3.66278,-17.02212 6.88281,-25.5 5.90167,-15.5383 12.73541,-27.55559 13.94727,-29.66601 z"></path></g></svg>