<svg xmlns="http://www.w3.org/2000/svg" viewBox="0 0 64 64" x="0px" y="0px"><title>scientist-document-report-business woman-chemical-job-woman-avatar</title><g data-name="29-The scientist"><path d="M40.246,28.969l-.492-1.938.119-.03A4.117,4.117,0,0,0,43,23a1,1,0,0,0-1-1H41V20h1a3,3,0,0,1,3,3,6.112,6.112,0,0,1-4.639,5.94Z"></path><path d="M23.754,28.969l-.119-.031A6.109,6.109,0,0,1,19,23a3,3,0,0,1,3-3h1v2H22a1,1,0,0,0-1,1,4.114,4.114,0,0,0,3.123,4l.123.032Z"></path><path d="M52,64H12a1,1,0,0,1-1-1V47.685a6.987,6.987,0,0,1,5.3-6.79L27,38.22V33h2v6a1,1,0,0,1-.758.97L16.787,42.834A4.994,4.994,0,0,0,13,47.685V62H51V47.685a4.994,4.994,0,0,0-3.787-4.851L35.758,39.97A1,1,0,0,1,35,39V33h2v5.22L47.7,40.9a6.987,6.987,0,0,1,5.3,6.79V63A1,1,0,0,1,52,64Z"></path><path d="M32,35A10.011,10.011,0,0,1,22,25V17a1,1,0,0,1,1-1c1.888,0,3.615-3.238,4.072-4.372a1,1,0,0,1,.648-.587.989.989,0,0,1,.861.145C28.648,11.234,35.4,16,41,16a1,1,0,0,1,1,1v8A10.011,10.011,0,0,1,32,35ZM24,17.865V25a8,8,0,0,0,16,0V17.959c-4.66-.369-9.532-3.169-11.585-4.48C27.667,14.927,26.154,17.282,24,17.865Z"></path><rect x="46" y="22" width="2" height="20"></rect><path d="M18,32H16V16a16,16,0,0,1,32,0v4H46V16a14,14,0,0,0-28,0Z"></path><rect x="16" y="34" width="2" height="2"></rect><rect x="16" y="38" width="2" height="4"></rect><path d="M37,52H27a1,1,0,0,1-1-1V48a2,2,0,0,1,2-2h1a3,3,0,0,1,3.5-2.96A3.079,3.079,0,0,1,35,46h1a2,2,0,0,1,2,2v3A1,1,0,0,1,37,52Zm-9-2h8V48H34a1,1,0,0,1-1-1v-.893a1.083,1.083,0,0,0-.825-1.092.991.991,0,0,0-.822.222A1,1,0,0,0,31,46v1a1,1,0,0,1-1,1H28Z"></path><path d="M41,63H39V58a3,3,0,0,1,3-3h2V50H39V48h6a1,1,0,0,1,1,1v7a1,1,0,0,1-1,1H42a1,1,0,0,0-1,1Z"></path><path d="M49,63H47V56a1,1,0,0,0-1-1H45V53h1a3,3,0,0,1,3,3Z"></path><path d="M25,63H23V58a1,1,0,0,0-1-1H19a1,1,0,0,1-1-1V49a1,1,0,0,1,1-1h6v2H20v5h2a3,3,0,0,1,3,3Z"></path><path d="M17,63H15V56a3,3,0,0,1,3-3h1v2H18a1,1,0,0,0-1,1Z"></path><rect x="48" y="56" width="4" height="2"></rect><rect x="12" y="56" width="4" height="2"></rect><rect x="37" y="39" width="2" height="8"></rect><rect x="37.806" y="42.5" width="7.115" height="1.999" transform="translate(-8.831 76.419) rotate(-79.7)"></rect><rect x="25" y="39" width="2" height="8"></rect><rect x="21.637" y="39.943" width="1.999" height="7.115" transform="matrix(0.984, -0.179, 0.179, 0.984, -7.415, 4.75)"></rect><path d="M32,42a1,1,0,0,1-.447-.1l-4-2,.894-1.79L32,39.882,35.553,38.1l.894,1.79-4,2A1,1,0,0,1,32,42Z"></path><path d="M35,44a1,1,0,0,1-.555-.168l-3-2,1.11-1.664L35,41.8l2.445-1.63,1.11,1.664-3,2A1,1,0,0,1,35,44Z"></path><path d="M29,44a1,1,0,0,1-.555-.168l-3-2,1.11-1.664L29,41.8l2.445-1.63,1.11,1.664-3,2A1,1,0,0,1,29,44Z"></path><path d="M38,26H36a3,3,0,0,1-3-3V20a1,1,0,0,1,1-1h6a1,1,0,0,1,1,1v3A3,3,0,0,1,38,26Zm-3-5v2a1,1,0,0,0,1,1h2a1,1,0,0,0,1-1V21Z"></path><path d="M28,26H26a3,3,0,0,1-3-3V20a1,1,0,0,1,1-1h6a1,1,0,0,1,1,1v3A3,3,0,0,1,28,26Zm-3-5v2a1,1,0,0,0,1,1h2a1,1,0,0,0,1-1V21Z"></path><rect x="30" y="20" width="4" height="2"></rect></g></svg>