<svg height='100px' width='100px'  fill="#000000" xmlns="http://www.w3.org/2000/svg" xmlns:xlink="http://www.w3.org/1999/xlink" version="1.1" x="0px" y="0px" viewBox="0 0 100 100" style="enable-background:new 0 0 100 100;" xml:space="preserve"><path d="M60.21777,11.97363C58.94531,10.70117,57.25293,10,55.45312,10s-3.49121,0.70117-4.76367,1.97363L11.97363,50.68945  C10.70117,51.96191,10,53.65332,10,55.45312s0.70117,3.49219,1.97363,4.76465l27.80859,27.80859  C41.05469,89.29883,42.74707,90,44.54688,90s3.49121-0.70117,4.76367-1.97363l38.71582-38.71582  C89.29883,48.03809,90,46.34668,90,44.54688s-0.70117-3.49219-1.97363-4.76465L60.21777,11.97363z M86.6123,47.89648  L47.89648,86.6123C47.00195,87.50781,45.8125,88,44.54688,88s-2.45508-0.49316-3.35059-1.3877L13.3877,58.80371  C12.49316,57.9082,12,56.71875,12,55.45312s0.49219-2.45508,1.3877-3.34961L52.10352,13.3877  C52.99805,12.49219,54.1875,12,55.45312,12s2.45508,0.49316,3.35059,1.3877L86.6123,41.19629  C87.50684,42.0918,88,43.28125,88,44.54688S87.50781,47.00195,86.6123,47.89648z"></path><path d="M67.76953,33.64453l2.48633-2.48633c0.39062-0.39062,0.39062-1.02344,0-1.41406s-1.02344-0.39062-1.41406,0  l-2.48633,2.48633c-0.39062,0.39062-0.39062,1.02344,0,1.41406c0.19531,0.19531,0.45117,0.29297,0.70703,0.29297  S67.57422,33.83984,67.76953,33.64453z"></path><path d="M60.19043,39.80957c0.19531,0.19531,0.45117,0.29297,0.70703,0.29297s0.51172-0.09766,0.70703-0.29297l2.48633-2.48633  c0.39062-0.39062,0.39062-1.02344,0-1.41406s-1.02344-0.39062-1.41406,0l-2.48633,2.48633  C59.7998,38.78613,59.7998,39.41895,60.19043,39.80957z"></path><path d="M56.51172,42.07422l-2.48633,2.48633c-0.39062,0.39062-0.39062,1.02344,0,1.41406  c0.19531,0.19531,0.45117,0.29297,0.70703,0.29297s0.51172-0.09766,0.70703-0.29297l2.48633-2.48633  c0.39062-0.39062,0.39062-1.02344,0-1.41406S56.90234,41.68359,56.51172,42.07422z"></path><path d="M47.86035,52.13965c0.19531,0.19531,0.45117,0.29297,0.70703,0.29297s0.51172-0.09766,0.70703-0.29297l2.48633-2.48633  c0.39062-0.39062,0.39062-1.02344,0-1.41406s-1.02344-0.39062-1.41406,0l-2.48633,2.48633  C47.46973,51.11621,47.46973,51.74902,47.86035,52.13965z"></path><path d="M44.18164,54.4043l-2.48633,2.48633c-0.39062,0.39062-0.39062,1.02344,0,1.41406  c0.19531,0.19531,0.45117,0.29297,0.70703,0.29297s0.51172-0.09766,0.70703-0.29297l2.48633-2.48633  c0.39062-0.39062,0.39062-1.02344,0-1.41406S44.57227,54.01367,44.18164,54.4043z"></path><path d="M39.43066,60.56934c-0.39062-0.39062-1.02344-0.39062-1.41406,0l-2.48633,2.48633  c-0.39062,0.39062-0.39062,1.02344,0,1.41406c0.19531,0.19531,0.45117,0.29297,0.70703,0.29297s0.51172-0.09766,0.70703-0.29297  l2.48633-2.48633C39.82129,61.59277,39.82129,60.95996,39.43066,60.56934z"></path><path d="M31.85156,66.73438l-2.48633,2.48633c-0.39062,0.39062-0.39062,1.02344,0,1.41406  c0.19531,0.19531,0.45117,0.29297,0.70703,0.29297s0.51172-0.09766,0.70703-0.29297l2.48633-2.48633  c0.39062-0.39062,0.39062-1.02344,0-1.41406S32.24219,66.34375,31.85156,66.73438z"></path><path d="M55.45117,33.29199c3.80762,0,6.90527-3.09766,6.90527-6.90527s-3.09766-6.90527-6.90527-6.90527  s-6.90527,3.09766-6.90527,6.90527S51.64355,33.29199,55.45117,33.29199z M55.45117,31.29199  c-2.3623,0-4.33838-1.67847-4.80151-3.90527h9.60309C59.78961,29.61353,57.81348,31.29199,55.45117,31.29199z M55.45117,21.48145  c2.3623,0,4.33844,1.67847,4.80157,3.90527h-9.60309C51.11279,23.15991,53.08887,21.48145,55.45117,21.48145z"></path><path d="M40.72949,48.01367c3.80762,0,6.90527-3.09766,6.90527-6.90527s-3.09766-6.90527-6.90527-6.90527  s-6.90527,3.09766-6.90527,6.90527S36.92188,48.01367,40.72949,48.01367z M40.72949,46.01367  c-2.3623,0-4.33838-1.67847-4.80151-3.90527h9.60309C45.06793,44.33521,43.0918,46.01367,40.72949,46.01367z M40.72949,36.20312  c2.3623,0,4.33844,1.67847,4.80157,3.90527h-9.60309C36.39111,37.88159,38.36719,36.20312,40.72949,36.20312z"></path><path d="M32.91309,55.83008c0-3.80762-3.09766-6.90527-6.90527-6.90527s-6.90527,3.09766-6.90527,6.90527  s3.09766,6.90527,6.90527,6.90527S32.91309,59.6377,32.91309,55.83008z M26.00781,50.9248c2.3623,0,4.33844,1.67847,4.80157,3.90527  H21.2063C21.66943,52.60327,23.64551,50.9248,26.00781,50.9248z M26.00781,60.73535c-2.3623,0-4.33838-1.67847-4.80151-3.90527  h9.60309C30.34625,59.05688,28.37012,60.73535,26.00781,60.73535z"></path><path d="M73.37207,37.40137c-3.80859,0-6.90625,3.09766-6.90625,6.90527s3.09766,6.90527,6.90625,6.90527  c3.80762,0,6.90527-3.09766,6.90527-6.90527S77.17969,37.40137,73.37207,37.40137z M73.37207,39.40137  c2.3623,0,4.33844,1.67847,4.80157,3.90527h-9.60406C69.03296,41.07983,71.00977,39.40137,73.37207,39.40137z M73.37207,49.21191  c-2.3623,0-4.33911-1.67847-4.80249-3.90527h9.60406C77.71051,47.53345,75.73438,49.21191,73.37207,49.21191z"></path><path d="M58.64941,52.12305c-3.80762,0-6.90527,3.09766-6.90527,6.90625c0,3.80762,3.09766,6.90527,6.90527,6.90527  s6.90527-3.09766,6.90527-6.90527C65.55469,55.2207,62.45703,52.12305,58.64941,52.12305z M58.64941,54.12305  c2.36237,0,4.3385,1.67926,4.80157,3.90625H53.8479C54.31097,55.80231,56.28705,54.12305,58.64941,54.12305z M58.64941,63.93457  c-2.3623,0-4.33838-1.67847-4.80151-3.90527h9.60309C62.98785,62.2561,61.01172,63.93457,58.64941,63.93457z"></path><path d="M43.92773,66.8457c-3.80762,0-6.90527,3.09766-6.90527,6.90527s3.09766,6.90527,6.90527,6.90527  s6.90527-3.09766,6.90527-6.90527S47.73535,66.8457,43.92773,66.8457z M43.92773,68.8457c2.3623,0,4.33844,1.67847,4.80157,3.90527  h-9.60309C39.58936,70.52417,41.56543,68.8457,43.92773,68.8457z M43.92773,78.65625c-2.3623,0-4.33838-1.67847-4.80151-3.90527  h9.60309C48.26617,76.97778,46.29004,78.65625,43.92773,78.65625z"></path></svg>