<svg height='100px' width='100px'  fill="#000000" xmlns="http://www.w3.org/2000/svg" xmlns:xlink="http://www.w3.org/1999/xlink" version="1.1" x="0px" y="0px" viewBox="0 0 32 32" enable-background="new 0 0 32 32" xml:space="preserve"><path d="M13.148,24.563c0.179,0,0.355-0.079,0.474-0.231c0.575-0.741,1.441-1.166,2.378-1.166c0.934,0,1.8,0.425,2.375,1.164  c0.203,0.26,0.578,0.307,0.843,0.104c0.261-0.204,0.308-0.581,0.104-0.843c-0.806-1.033-2.016-1.625-3.322-1.625  c-1.31,0-2.521,0.594-3.325,1.629c-0.203,0.262-0.156,0.639,0.105,0.842C12.89,24.521,13.02,24.563,13.148,24.563z"></path><path d="M4.106,21.51c0.404,0.271,0.753,0.504,0.932,0.786l0.273,0.429c1.659,4.402,5.651,7.28,10.688,7.28  c5.038,0,9.03-2.878,10.689-7.281l0.273-0.43c0.179-0.28,0.527-0.514,0.931-0.784c0.826-0.553,1.854-1.241,2.068-2.819  c0.2-1.48-0.437-2.142-0.834-2.405c-0.499-0.33-1.153-0.386-1.74-0.192c-0.708-5.311-4.381-9.18-9.449-9.97  c-0.319-2.482-2.524-4.302-2.438-4.115c0.069-0.152-0.301,1.037-0.017,2.694c-0.609-1.022-1.78-1.959-3.983-1.058  c0,0,2.086,0.233,2.782,2.446c-5.182,0.71-8.951,4.614-9.67,10.001c-0.547-0.176-1.167-0.142-1.649,0.137  c-0.436,0.252-1.136,0.907-0.925,2.461C2.252,20.269,3.28,20.957,4.106,21.51z M27.525,17.983c0-0.215-0.019-0.422-0.027-0.633  l0.083-0.05c0.231-0.138,0.618-0.189,0.885-0.015c0.38,0.251,0.355,0.887,0.307,1.242c-0.136,1.002-0.773,1.463-1.462,1.926  C27.45,19.663,27.525,18.838,27.525,17.983z M16,7.162c5.983,0,10.326,4.551,10.326,10.822S21.983,28.806,16,28.806  S5.674,24.254,5.674,17.983S10.017,7.162,16,7.162z M3.563,17.268c0.29-0.167,0.704-0.089,0.922,0.078l0.017,0.013  c-0.009,0.209-0.027,0.413-0.027,0.625c0,0.854,0.075,1.679,0.215,2.471C4,19.991,3.363,19.53,3.228,18.528  C3.177,18.159,3.154,17.505,3.563,17.268z"></path><ellipse cx="10.772" cy="16.333" rx="1.497" ry="1.405"></ellipse><ellipse cx="21.228" cy="16.333" rx="1.497" ry="1.405"></ellipse></svg>