<svg height='100px' width='100px'  fill="#000000" xmlns="http://www.w3.org/2000/svg" xmlns:xlink="http://www.w3.org/1999/xlink" version="1.1" x="0px" y="0px" viewBox="0 0 512 512" style="enable-background:new 0 0 512 512;" xml:space="preserve"><title>doctor, health, medical, hospital</title><desc>doctor, health, medical, hospital</desc><metadata><?xpacket begin="&#65279;" id="W5M0MpCehiHzreSzNTczkc9d"?><x:xmpmeta xmlns:x="adobe:ns:meta/" x:xmptk="Adobe XMP Core 5.6-c148 79.164036, 2019/08/13-01:06:57        "></x:xmpmeta><?xpacket end="w"?></metadata><g><path d="M425.7,86.3C380.4,41,320.1,16,256,16S131.6,41,86.3,86.3S16,191.9,16,256s25,124.4,70.3,169.7S191.9,496,256,496   s124.4-25,169.7-70.3S496,320.1,496,256S471,131.6,425.7,86.3z M256,464c-114.7,0-208-93.3-208-208S141.3,48,256,48   s208,93.3,208,208S370.7,464,256,464z"></path><path d="M320,192v-88H192v88h-88v128h88v88h128v-88h88V192H320z M376,288h-88v88h-64v-88h-88v-64h88v-88h64v88h88V288z"></path></g></svg>