<svg height='100px' width='100px'  fill="#000000" xmlns="http://www.w3.org/2000/svg" xmlns:xlink="http://www.w3.org/1999/xlink" version="1.1" x="0px" y="0px" viewBox="0 0 100 100" enable-background="new 0 0 100 100" xml:space="preserve"><g><g><path fill="#000000" d="M30.402,19.534c-3.945,7.343-6.527,15.146-7.888,23.347c-0.495,2.985-0.698,6.018-1.041,9.028    c-0.045,0.393-0.128,0.781-0.194,1.171c0,2.08,0,4.16,0,6.24c0.244,2.38,0.433,4.766,0.74,7.138    c1.234,9.528,4.243,18.491,8.691,26.987c0.451,0.861,1.122,1.253,2.124,1.251c12.035-0.019,24.07-0.011,36.105-0.018    c0.355,0,0.776,0.028,1.057-0.14c4.083-2.451,7.678-5.395,8.337-10.475c0.42-3.238,0.492-6.534,0.54-9.806    c0.117-8.071,0.164-16.144,0.162-24.215c-0.001-2.231-0.122-4.487-0.476-6.685c-0.2-1.241-0.756-2.579-1.554-3.54    c-2.499-3.009-5.083-5.964-7.83-8.746c-3.79-3.837-7.709-7.55-11.681-11.2c-1.073-0.986-2.532-1.552-3.814-2.311    c-2.64,0-5.28,0-7.92,0c-0.909,0.074-1.817,0.205-2.727,0.213c-3.194,0.026-6.391,0.071-9.583-0.017    C31.979,17.716,31.096,18.242,30.402,19.534z M52.969,43.199c0.054-1.024,0.271-2.069,0.596-3.044    c0.479-1.439,2.026-1.897,3.207-0.965c3.204,2.532,5.954,5.365,7.917,8.716c0.038,0.184,0.097,0.363,0.187,0.533    c1.465,2.751,2.341,5.669,2.602,8.673c0.222,2.555-0.005,4.921-0.674,7.034c-0.104,0.329-0.113,0.672-0.046,1.001    c-0.521,1.363-1.247,2.658-2.245,3.86c-1.356,1.633-2.274,1.752-3.751,0.213c-1.012-1.055-1.946-2.256-2.627-3.544    C54.418,58.655,52.549,51.177,52.969,43.199z M71.769,59.181c0.009-3.362-0.668-6.571-1.887-9.681h4.925    c0.112,3.48,0.143,8.06,0.088,13.25h-3.387C71.688,61.592,71.775,60.403,71.769,59.181z M34.671,21.704    c5.638-0.01,11.276-0.057,16.914-0.143c1.269-0.02,2.273,0.311,3.233,1.188c6.557,5.993,12.915,12.175,18.675,18.952    c0.845,0.995,1.256,2.087,1.327,3.375c0.008,0.141,0.012,0.283,0.019,0.424h-6.924c-2.269-3.792-5.375-6.894-8.909-9.604    c-3.262-2.501-8.048-0.885-9.239,3.063c-0.523,1.736-0.782,3.604-0.837,5.421c-0.011,0.375,0.002,0.746,0.002,1.12h-17.06    c-1.104,0-2,0.896-2,2s0.896,2,2,2h17c0.495,4.393,1.688,9.146,3.314,13.25H31.902c-1.104,0-2,0.896-2,2s0.896,2,2,2h22.221    c1.041,2.043,2.304,3.949,4.029,5.545c3.062,2.832,6.624,2.599,9.311-0.587c1.303-1.544,2.264-3.205,2.957-4.958h4.692    c-0.108,5.28-0.316,10.559-0.577,15.837c-0.193,3.895-2.86,6.073-5.763,8.038c-0.289,0.195-0.769,0.146-1.16,0.146    c-5.44,0.008-10.88,0.006-16.32,0.006c-5.479,0-10.959-0.006-16.439,0.008c-0.636,0.001-1.078-0.066-1.413-0.758    c-10.839-22.419-10.932-44.856-0.184-67.331C33.557,22.067,33.874,21.706,34.671,21.704z"></path><path fill="#000000" d="M54,15.5v-8c0-1.104-0.896-2-2-2H33.333c-1.104,0-2,0.896-2,2v8h4v-6H50v6H54z"></path></g></g></svg>