<svg height='100px' width='100px'  fill="#000000" xmlns="http://www.w3.org/2000/svg" viewBox="0 0 64 64" x="0px" y="0px"><g data-name="Hand Dryer-Heat-Hand-Hygiene-Healthcare"><path d="M50.5,45h-.838A3.5,3.5,0,0,0,46.5,40H33.732l1.531-.884a3.5,3.5,0,1,0-3.5-6.062L16.269,42H14V41a1,1,0,0,0-1-1H2v2H12V60H2v2H13a1,1,0,0,0,1-1V60h2.764l3.789,1.9A1,1,0,0,0,21,62H41.5a3.5,3.5,0,0,0,3.162-5H46.5a3.5,3.5,0,0,0,3.162-5H50.5a3.5,3.5,0,0,0,0-7Zm0,5H34a1,1,0,0,0,0,2H46.5a1.5,1.5,0,0,1,0,3H34a1,1,0,0,0,0,2h7.5a1.5,1.5,0,0,1,0,3H21.236l-3.789-1.9A1,1,0,0,0,17,58H14V44h2.536a1,1,0,0,0,.5-.134l15.727-9.08a1.5,1.5,0,1,1,1.5,2.6L29.5,40.134A1,1,0,0,0,29,41v1a5.006,5.006,0,0,1-5,5H22v2h2a7.008,7.008,0,0,0,7-7H46.5a1.5,1.5,0,0,1,0,3H34a1,1,0,0,0,0,2H50.5a1.5,1.5,0,0,1,0,3Z"></path><path d="M24,24v2a3,3,0,0,0,6,0V13H28V26a1,1,0,0,1-2,0V24Z"></path><path d="M34,13V26a3,3,0,0,0,6,0V24H38v2a1,1,0,0,1-2,0V13Z"></path><path d="M42,13v9a3,3,0,0,0,6,0H46a1,1,0,0,1-2,0V13Z"></path><path d="M19,25a3,3,0,0,0,3-3V13H20v9a1,1,0,0,1-2,0H16A3,3,0,0,0,19,25Z"></path><path d="M11,28V26a3,3,0,1,0,3,3V20H12v9a1,1,0,1,1-1-1Z"></path><path d="M53,26v2a1,1,0,1,1-1,1V20H50v9a3,3,0,1,0,3-3Z"></path><path d="M60,2V15a1,1,0,0,1-1,1H55V12a3,3,0,0,0-3-3H12a3,3,0,0,0-3,3v4H5a1,1,0,0,1-1-1V2H2V15a3,3,0,0,0,3,3H18V16H11V12a1,1,0,0,1,1-1H52a1,1,0,0,1,1,1v4H46v2H59a3,3,0,0,0,3-3V2Z"></path></g></svg>