<svg height='100px' width='100px'  fill="#000000" xmlns="http://www.w3.org/2000/svg" xmlns:xlink="http://www.w3.org/1999/xlink" version="1.1" x="0px" y="0px" viewBox="0 0 512 512" style="enable-background:new 0 0 512 512;" xml:space="preserve"><g><g><g><g><path d="M256,105.777c-22.056,0-40-17.943-40-40c0-22.056,17.944-40,40-40s40,17.944,40,40      C296,87.834,278.056,105.777,256,105.777z M256,45.777c-11.027,0-20,8.973-20,20c0,11.028,8.973,20,20,20      c11.028,0,20-8.972,20-20C276,54.75,267.028,45.777,256,45.777z"></path></g><g><path d="M256.371,485.706c-1.329,0-2.679-0.266-3.976-0.829c-31.835-13.814-47.977-32.603-47.977-55.841      c0-31.015,30.74-58.883,42.126-68.141v-99.064c-35.953-19.542-54.168-44.684-54.168-74.798      c0-51.184,54.649-96.403,57.812-98.976c1.096-0.903,2.388-1.578,3.802-1.951c0.001,0,0.001,0,0.001,0      c0.009-0.002,0.017-0.004,0.024-0.006c0.001-0.001,0.002-0.001,0.002-0.001c0.007-0.002,0.013-0.003,0.02-0.005      c0.003-0.001,0.005-0.001,0.008-0.002c0.006-0.002,0.011-0.003,0.017-0.004c0.006-0.002,0.013-0.002,0.017-0.005      c0.938-0.238,1.903-0.336,2.86-0.299c1.383,0.054,2.694,0.388,3.878,0.948c1.219,0.574,2.338,1.403,3.273,2.48      c0.624,0.717,1.147,1.523,1.549,2.397c0,0.001,0.001,0.002,0.001,0.004c0.002,0.003,0.003,0.006,0.004,0.008      c0.002,0.003,0.003,0.006,0.004,0.008c0.001,0.003,0.002,0.004,0.003,0.006c0.001,0.003,0.003,0.007,0.004,0.01      c0.001,0.001,0.001,0.002,0.002,0.003c0.001,0.004,0.003,0.008,0.005,0.012c0,0.001,0.001,0.001,0.001,0.002      c0.604,1.336,0.895,2.768,0.883,4.19v153.858c32.234,17.385,48.566,37.225,48.566,59.028c0,31.359-34.743,54.834-48.566,62.932      v3.29c0,5.522-4.478,10-10,10c-1.979,0-3.823-0.575-5.376-1.566c-12.029,11.387-26.75,29.19-26.75,45.641      c0,14.53,12.091,27.146,35.938,37.494c5.066,2.198,7.392,8.088,5.193,13.154C263.914,483.454,260.233,485.706,256.371,485.706z       M266.545,272.834v75.088c13.267-9.452,28.566-24.042,28.566-39.182C295.111,294.721,281.63,282.32,266.545,272.834z       M246.545,119.182c-14.747,15.834-34.168,41.66-34.168,67.852c0,19.623,11.479,36.924,34.168,51.574V119.182z M256.545,435.962      c-5.522,0-10-4.478-10-10v-1c0-5.523,4.478-10,10-10s10,4.477,10,10v1C266.545,431.484,262.067,435.962,256.545,435.962z"></path></g><g><path d="M255.455,375.777c-1.538,0-3.078-0.354-4.496-1.067c-2.207-1.111-54.069-27.655-54.069-65.97      c0-23.012,18.191-43.836,54.069-61.895c3.099-1.562,6.786-1.403,9.742,0.418c2.954,1.821,4.754,5.043,4.754,8.514v110      c0,3.471-1.8,6.693-4.754,8.514C259.098,375.279,257.278,375.777,255.455,375.777z M245.455,272.834      c-15.085,9.486-28.565,21.887-28.565,35.906c0,15.139,15.297,29.727,28.565,39.181V272.834z"></path></g><g><path d="M255.456,485.777c-1.924,0-3.836-0.554-5.491-1.643c-2.814-1.849-4.51-4.99-4.51-8.357v-110      c0-3.762,2.111-7.205,5.465-8.912c3.352-1.706,7.378-1.388,10.421,0.828c1.888,1.374,46.24,34.09,46.24,71.344      c0,23.283-16.202,42.097-48.156,55.919C258.153,485.506,256.802,485.777,255.456,485.777z M265.455,387.932v71.575      c14.696-8.866,22.126-19.079,22.126-30.47C287.581,414.587,276.325,399.171,265.455,387.932z"></path></g><g><path d="M255.455,265.777c-1.823,0-3.643-0.498-5.246-1.486c-2.954-1.82-4.754-5.043-4.754-8.514v-160      c0-3.854,2.216-7.365,5.694-9.025c3.479-1.659,7.603-1.171,10.598,1.253c0.876,0.709,21.639,17.647,38.034,42.223      c13.162,19.726,19.836,38.835,19.836,56.797c0,11.861-2.938,23.169-8.734,33.607c-9.431,16.984-26.566,31.814-50.932,44.078      C258.533,265.424,256.993,265.777,255.455,265.777z M265.455,119.174v119.435c13.014-8.397,22.382-17.672,27.941-27.686      c4.128-7.434,6.221-15.474,6.221-23.898c0-13.94-5.542-29.315-16.473-45.696C277.469,132.821,271.117,125.257,265.455,119.174z"></path></g><g><path d="M188.747,486.223c-22.379,0-39.854-0.033-51.939-0.098c-6.714-0.036-11.891-0.083-15.386-0.139      c-1.884-0.03-3.343-0.064-4.334-0.101c-5.495-0.204-9.041-2.506-10.539-6.842c-1.804-5.221,0.966-10.914,6.186-12.718      c1.585-0.548,3.213-0.675,4.764-0.438c2.681,0.133,15.93,0.334,71.249,0.334c81.996,0,205.975-0.44,207.217-0.445      c0.013,0,0.024,0,0.037,0c5.506,0,9.979,4.454,9.999,9.965c0.02,5.522-4.441,10.016-9.964,10.035      C394.793,485.782,270.779,486.223,188.747,486.223z M124.659,470.772c0.287,0.497,0.534,1.024,0.737,1.582      C125.19,471.789,124.942,471.262,124.659,470.772z M118.125,466.005c0.985,0.215,1.93,0.577,2.803,1.07      C120.002,466.548,119.04,466.191,118.125,466.005z"></path></g><g><path d="M415.45,186.239c-3.377,0-6.876-0.17-10.4-0.507c-5.498-0.525-9.529-5.407-9.005-10.905s5.408-9.533,10.905-9.004      c2.896,0.276,5.755,0.416,8.5,0.416c37.718,0,49.229-26.301,49.34-26.566c2.145-5.091,8.01-7.478,13.098-5.335      c5.09,2.143,7.479,8.007,5.335,13.097C482.556,149.02,466.299,186.239,415.45,186.239z"></path></g><g><path d="M391.058,138.463c-1.951,0-3.972-0.098-6.006-0.292c-5.498-0.523-9.53-5.405-9.007-10.903      c0.523-5.497,5.404-9.529,10.903-9.007c1.407,0.135,2.789,0.202,4.109,0.202c16.372,0,21.641-10.346,22.188-11.525l-0.066,0.153      l18.432,7.762C431.205,115.816,421.321,138.463,391.058,138.463z"></path></g><g><path d="M96.55,186.239c-50.849,0-67.106-37.22-67.773-38.805c-2.143-5.09,0.246-10.953,5.336-13.097      c5.066-2.135,10.902,0.224,13.068,5.27c0.552,1.241,12.312,26.632,49.369,26.632c2.744,0,5.604-0.14,8.5-0.416      c5.5-0.518,10.381,3.506,10.905,9.004s-3.507,10.38-9.005,10.905C103.426,186.069,99.926,186.239,96.55,186.239z"></path></g><g><path d="M120.942,138.463c-30.263,0-40.146-22.646-40.553-23.61l18.433-7.762l-0.066-0.153      c0.547,1.18,5.815,11.525,22.187,11.525c1.32,0,2.703-0.067,4.109-0.202c5.507-0.526,10.38,3.509,10.903,9.007      c0.524,5.498-3.508,10.38-9.006,10.903C124.914,138.365,122.894,138.463,120.942,138.463z"></path></g></g><g><path d="M458.397,225.777H302.14c-3.543,0-6.821-1.874-8.618-4.928c-1.797-3.053-1.845-6.829-0.125-9.927     c4.128-7.434,6.221-15.474,6.221-23.898c0-13.94-5.542-29.315-16.473-45.696c-2.047-3.068-2.239-7.015-0.499-10.268     c1.739-3.252,5.129-5.283,8.817-5.283h26.935c8.161,0,15.196-5.527,17.11-13.442c1.298-5.367,6.703-8.669,12.069-7.37     c5.368,1.298,8.668,6.701,7.37,12.069c-4.091,16.924-19.121,28.743-36.55,28.743h-9.519     c7.135,14.229,10.738,28.048,10.738,41.247c0,6.431-0.864,12.698-2.578,18.753h141.358c9.706,0,17.603-7.896,17.603-17.603     v-21.855c0-5.808-2.859-11.234-7.648-14.518l-84.794-58.146c-1.724-1.182-2.961-2.808-3.664-4.619     c-1.628,1.012-3.562,1.561-5.62,1.497c-0.195-0.007-0.39-0.01-0.584-0.01c-5.522,0-10.035-4.478-10.035-10     c0-5.523,4.442-10,9.965-10h0.07c0.425,0,0.85,0.007,1.275,0.021c4.117,0.143,7.567,2.755,8.975,6.364     c3.268-2.025,7.556-2.061,10.929,0.252l84.794,58.145c10.23,7.015,16.338,18.607,16.338,31.013v21.855     C496,208.909,479.132,225.777,458.397,225.777z"></path></g><g><path d="M209.86,225.777H53.603C32.868,225.777,16,208.909,16,188.175v-21.855c0-12.404,6.107-23.998,16.337-31.013     l79.374-54.428c4.555-3.124,10.778-1.964,13.902,2.592c3.123,4.555,1.963,10.779-2.592,13.902l-79.374,54.428     C38.858,155.085,36,160.512,36,166.319v21.855c0,9.706,7.896,17.603,17.603,17.603h141.358     c-1.714-6.054-2.578-12.322-2.578-18.752c0-13.199,3.604-27.02,10.738-41.248h-9.519c-20.734,0-37.603-16.868-37.603-37.603     c0-2.089,0.64-4.027,1.735-5.632c-1.753-0.77-3.303-2.05-4.407-3.786c-0.112-0.176-0.228-0.35-0.346-0.521     c-3.137-4.546-1.993-10.773,2.553-13.91c4.546-3.136,10.773-1.994,13.91,2.554c0.26,0.376,0.513,0.758,0.759,1.145     c2.21,3.476,2.008,7.796-0.171,10.998c3.514,1.551,5.967,5.065,5.967,9.153c0,9.706,7.896,17.603,17.603,17.603h26.934     c3.688,0,7.078,2.03,8.817,5.283c1.74,3.252,1.549,7.198-0.499,10.267c-10.93,16.383-16.472,31.758-16.472,45.698     c0,8.424,2.093,16.465,6.22,23.898c1.72,3.097,1.673,6.873-0.124,9.926C216.682,223.903,213.403,225.777,209.86,225.777z"></path></g></g></g></svg>