<svg height='100px' width='100px'  fill="#000000" xmlns="http://www.w3.org/2000/svg" xmlns:xlink="http://www.w3.org/1999/xlink" version="1.1" x="0px" y="0px" viewBox="0 0 100 100" enable-background="new 0 0 100 100" xml:space="preserve"><path d="M14.012,60.638C18.694,76.524,33.329,87.521,50,87.521s31.306-10.997,35.988-26.883C91.796,60.57,96.5,55.824,96.5,50.001  c0-5.824-4.704-10.57-10.512-10.638C81.307,23.475,66.673,12.479,50,12.479c-0.176,0-0.351,0.008-0.527,0.011  c-0.106-0.001-0.212-0.011-0.319-0.009c-0.054,0.001-0.104,0.012-0.157,0.019c-16.253,0.431-30.398,11.295-34.985,26.864  C8.204,39.431,3.5,44.177,3.5,50.001C3.5,55.824,8.204,60.57,14.012,60.638z M14.138,42.362h1.013c0.682,0,1.279-0.46,1.451-1.121  c3.924-15.006,17.409-25.529,32.896-25.752c1.624,0.045,3.16,0.67,4.34,1.807c1.25,1.204,1.957,2.822,1.989,4.557  c0.024,1.308-0.462,2.547-1.369,3.489c-0.908,0.942-2.127,1.475-3.435,1.5c-1.999-0.012-3.647-1.555-3.686-3.55  c-0.013-0.693,0.245-1.349,0.725-1.848c0.481-0.499,1.127-0.781,1.819-0.794c0.542,0,1.043,0.22,1.39,0.63  c0.536,0.631,1.48,0.71,2.114,0.175c0.632-0.536,0.71-1.482,0.175-2.114c-0.932-1.101-2.269-1.737-3.735-1.689  c-1.494,0.028-2.888,0.636-3.924,1.712c-1.037,1.076-1.592,2.492-1.563,3.986c0.068,3.606,3.023,6.494,6.615,6.494  c0.042,0,0.083,0,0.125-0.001c2.109-0.04,4.077-0.898,5.54-2.417c1.463-1.52,2.248-3.518,2.208-5.627  c-0.039-2.072-0.745-4.025-1.996-5.632c12.725,2.565,23.188,12.16,26.566,25.077c0.172,0.66,0.769,1.121,1.451,1.121h1.013  c4.212,0,7.638,3.427,7.638,7.639c0,4.211-3.426,7.638-7.638,7.638h-1.014c-0.682,0-1.279,0.46-1.451,1.121  C79.43,73.927,65.697,84.521,50,84.521S20.57,73.927,16.603,58.759c-0.172-0.66-0.769-1.121-1.451-1.121h-1.014  c-4.212,0-7.638-3.426-7.638-7.638C6.5,45.789,9.926,42.362,14.138,42.362z"></path><path d="M14.138,56.122h0.146c0.829,0,1.5-0.671,1.5-1.5s-0.671-1.5-1.5-1.5h-0.146c-1.721,0-3.122-1.4-3.122-3.121  c0-1.722,1.4-3.122,3.122-3.122h0.146c0.829,0,1.5-0.671,1.5-1.5s-0.671-1.5-1.5-1.5h-0.146c-3.375,0-6.122,2.747-6.122,6.122  C8.017,53.376,10.763,56.122,14.138,56.122z"></path><path d="M85.862,53.122h-0.146c-0.829,0-1.5,0.671-1.5,1.5s0.671,1.5,1.5,1.5h0.146c3.375,0,6.122-2.746,6.122-6.121  c0-3.375-2.746-6.122-6.122-6.122h-0.146c-0.829,0-1.5,0.671-1.5,1.5s0.671,1.5,1.5,1.5h0.146c1.721,0,3.122,1.4,3.122,3.122  C88.983,51.722,87.583,53.122,85.862,53.122z"></path><path d="M32.09,50.538c0.27,0.507,0.789,0.796,1.326,0.796c0.237,0,0.479-0.057,0.703-0.176l8.464-4.5  c0.49-0.26,0.796-0.77,0.796-1.324s-0.306-1.064-0.796-1.324l-8.464-4.5c-0.731-0.39-1.639-0.111-2.028,0.62  c-0.389,0.731-0.111,1.64,0.62,2.028l5.973,3.176l-5.973,3.176C31.979,48.898,31.701,49.806,32.09,50.538z"></path><path d="M57.418,46.658l8.464,4.5c0.224,0.12,0.465,0.176,0.703,0.176c0.537,0,1.056-0.289,1.326-0.796  c0.389-0.731,0.111-1.64-0.62-2.028l-5.973-3.176l5.973-3.176c0.731-0.389,1.009-1.297,0.62-2.028  c-0.388-0.731-1.296-1.01-2.028-0.62l-8.464,4.5c-0.49,0.26-0.796,0.77-0.796,1.324S56.928,46.397,57.418,46.658z"></path><path d="M33.264,70.205c-0.142,0.456-0.059,0.951,0.224,1.335c0.283,0.384,0.731,0.611,1.208,0.611h30.608  c0.477,0,0.925-0.227,1.208-0.611c0.283-0.384,0.366-0.879,0.224-1.335C64.445,62.84,57.719,57.892,50,57.892  S35.555,62.84,33.264,70.205z M50,60.892c5.692,0,10.732,3.245,13.112,8.258H36.888C39.268,64.137,44.308,60.892,50,60.892z"></path></svg>