<svg height='100px' width='100px'  fill="#000000" xmlns="http://www.w3.org/2000/svg" xmlns:xlink="http://www.w3.org/1999/xlink" viewBox="0 0 73 100" version="1.1" x="0px" y="0px"><path d="M72.2965601,84.4369436 C65.3173095,78.0637629 57.751866,72.3638315 49.7009617,67.4130426 C49.1893503,67.0969419 48.5585362,67.0409237 47.9992286,67.2619235 C46.6851491,67.7941257 45.3250767,68.3526095 43.9978563,68.9176637 C44.0832715,67.3079162 44.1555459,65.5010568 44.2278202,63.5102262 L45.5418998,63.5102262 C46.5089565,63.5102262 47.2929109,62.7262719 47.2929109,61.7592152 C47.2929109,60.7921585 46.5089565,60.0082042 45.5418998,60.0082042 L44.3198058,60.0082042 C44.3198058,59.2263268 44.3592282,58.4181679 44.3789394,57.5968681 L45.5090478,57.5968681 C46.4761045,57.5968681 47.2600589,56.8129138 47.2600589,55.8458571 C47.2600589,54.8788004 46.4761045,54.0948461 45.5090478,54.0948461 L44.4643546,54.0948461 C44.4643546,53.3063983 44.4643546,52.5048098 44.503777,51.68351 L45.5221886,51.68351 C46.4892453,51.68351 47.2731997,50.8995557 47.2731997,49.932499 C47.2731997,48.9654423 46.4892453,48.1814879 45.5221886,48.1814879 L44.5497697,48.1814879 C44.5497697,47.3996106 44.5497697,46.6045924 44.5497697,45.8030039 C48.5815083,43.6149829 52.4290557,41.10342 56.0545365,38.2930391 C56.4664758,37.9640573 56.7079073,37.4667084 56.7115763,36.9395371 L56.7115763,10.7499311 C56.7134325,10.2484586 56.500592,9.7701653 56.1268108,9.43585149 C50.6865214,4.60003863 43.3342461,1.78133793 38.2750397,0.092745669 C37.9147483,-0.0279601733 37.5249339,-0.0279601733 37.1646425,0.092745669 C32.1054361,1.78133793 24.7531609,4.60003863 19.3522938,9.44899229 C18.9785127,9.7833061 18.7656721,10.2615994 18.7675284,10.7630719 L18.7675284,36.9395371 C18.7711973,37.4667084 19.0126288,37.9640573 19.4245682,38.2930391 C23.0291662,41.1002707 26.854626,43.6117587 30.8636309,45.8030039 C30.8636309,46.6111628 30.8636309,47.3996106 30.8636309,48.1880583 L29.7532337,48.1880583 C28.786177,48.1880583 28.0022226,48.9720127 28.0022226,49.9390694 C28.0022226,50.9061261 28.786177,51.6900804 29.7532337,51.6900804 L30.9359053,51.6900804 C30.9359053,52.5113802 30.9359053,53.3129687 30.9753277,54.1014164 L29.7532337,54.1014164 C29.1276576,54.1014164 28.5496015,54.4351572 28.2368135,54.9769219 C27.9240255,55.5186867 27.9240255,56.1861683 28.2368135,56.727933 C28.5496015,57.2696978 29.1276576,57.6034386 29.7532337,57.6034385 L31.0673132,57.6034385 C31.0673132,58.4247383 31.1067356,59.2394676 31.1264468,60.021345 L29.7532337,60.021345 C28.786177,60.021345 28.0022226,60.8052993 28.0022226,61.772356 C28.0022226,62.7394127 28.786177,63.523367 29.7532337,63.523367 L31.0673132,63.523367 L31.211862,63.523367 C31.277566,65.5339088 31.3564107,67.3670498 31.4418259,68.9899381 C30.0357608,68.3788911 28.6296956,67.7809849 27.2039193,67.2093603 C26.6447682,66.9822101 26.011063,67.033394 25.4956158,67.3473386 C16.9668302,72.533752 8.95579034,78.5271804 1.57279704,85.2451025 C1.02297091,85.6921116 0.766620077,86.4073134 0.907291526,87.1018186 C1.04796298,87.7963238 1.56241766,88.3553996 2.24285351,88.5532202 C2.92328936,88.7510408 3.65729778,88.554926 4.14839302,88.044092 C11.1132019,81.6963606 18.6534687,76.0103659 26.671717,71.0596134 C28.9100326,71.9750889 31.1220666,72.9431275 33.3078189,73.9637293 C30.7322229,75.3040905 28.207,76.7079655 25.7321501,78.1753544 C25.2122278,78.4857203 24.8707739,79.0247296 24.8122944,79.6274123 C24.2078178,85.7247416 23.74789,91.907486 23.4587925,98.0245264 C23.4216288,99.067253 24.2300184,99.9459374 25.2722223,99.9956458 L25.3642079,99.9956458 C26.3816393,99.9968321 27.2205065,99.1984618 27.2696232,98.182216 C27.54558,92.4659698 27.959515,86.6774493 28.5179989,80.9612031 C31.4790582,79.209097 34.5189623,77.5686876 37.6377111,76.0399751 C40.7038968,77.5686876 43.6912377,79.1850055 46.5997339,80.8889287 C47.4144632,86.6643085 48.0780734,92.4988218 48.5708533,98.2610608 C48.6561002,99.2462441 49.4808337,100.002216 50.4696983,100.002216 L50.6339582,100.002216 C51.1376173,99.9587859 51.6033739,99.7169867 51.928699,99.330047 C52.2540241,98.9431073 52.4122491,98.4427466 52.3685432,97.9391113 C51.8429114,91.80893 51.126738,85.5867632 50.2397343,79.4434412 C50.1575517,78.8732565 49.8218178,78.3708635 49.326449,78.0767984 C46.9216834,76.6532122 44.4687348,75.2865694 41.9676034,73.9768701 C44.1270741,72.9869302 46.3172068,72.042983 48.5380013,71.1450286 C56.0824074,75.8499908 63.1816072,81.2337706 69.7472457,87.2293627 C70.5237941,87.9405938 71.7298776,87.8876438 72.4411088,87.1110955 C73.15234,86.3345472 73.09939,85.1284636 72.3228417,84.4172324 L72.2965601,84.4369436 Z M35.0292632,70.573404 C35.0292632,70.540552 35.0292632,70.5077 35.0292632,70.4682776 C34.6744617,64.7323203 34.4379274,55.5994672 34.3722234,44.7583106 C34.3683566,44.1269368 34.0242543,43.5467352 33.4720789,43.2405487 C29.5622094,41.1330909 25.8095259,38.7462174 22.2432689,36.0985262 L22.2432689,11.5515196 C26.9476738,7.58956968 33.1501294,5.13881126 37.7494079,3.59476775 C42.2895529,5.13881126 48.5248605,7.58956968 53.222695,11.5449492 L53.222695,36.0985262 C49.6543524,38.7465234 45.8994622,41.1334039 41.9873146,43.2405487 C41.4351391,43.5467352 41.0910369,44.1269368 41.08717,44.7583106 C41.0017549,55.612608 40.7586501,64.7454611 40.4301303,70.4682776 C40.4301303,70.4682776 40.4301303,70.4682776 40.4301303,70.5077 C39.501514,70.9457265 38.577278,71.3837531 37.6574223,71.8217796 C36.7813693,71.3925136 35.9053162,70.9763884 35.0292632,70.573404 Z" fill="#000000" fill-rule="nonzero"></path></svg>