<svg height='100px' width='100px'  fill="#000000" xmlns="http://www.w3.org/2000/svg" xmlns:xlink="http://www.w3.org/1999/xlink" version="1.1" x="0px" y="0px" viewBox="0 0 48.99 48.32" enable-background="new 0 0 48.99 48.32" xml:space="preserve"><g><path d="M46.61,3.88c-0.23-0.27-0.47-0.53-0.72-0.79c-0.25-0.25-0.52-0.49-0.79-0.72C43.24,0.82,40.97,0,38.55,0   c-4.83,0-9.18,3.25-10.57,7.9c-0.42,1.4-0.88,2.66-1.38,3.79c-6.18-5.17-11.85-8.23-15.33-8.23c-1.17,0-2.1,0.34-2.77,1   c-1.69,1.69-1.24,5.03,1.3,9.66c0.26,0.48,0.55,0.98,0.86,1.47c-2.14,0.85-4.06,2.08-5.69,3.72c-6.63,6.63-6.63,17.41,0,24.04   c3.21,3.21,7.48,4.97,12.02,4.97c4.55,0,8.81-1.77,12.02-4.97c1.64-1.64,2.87-3.56,3.72-5.7c3.32,2.01,6.25,3.17,8.36,3.17   c1.17,0,2.11-0.34,2.77-1c3.07-3.07-1.28-10.81-6.65-17.4c1.16-0.51,2.44-0.98,3.88-1.41c3.58-1.07,6.35-3.86,7.44-7.46   C49.55,10.1,48.86,6.58,46.61,3.88z M21.92,29.16c0.08,0.07,0.15,0.15,0.23,0.22c0.13,0.12,0.26,0.25,0.4,0.37   c0.26,0.24,0.52,0.49,0.78,0.72c0.16,0.15,0.32,0.29,0.48,0.43c0.12,0.11,0.25,0.23,0.37,0.34c0.19,0.16,0.37,0.33,0.56,0.49   c0.17,0.15,0.34,0.29,0.51,0.43c0.3,0.26,0.6,0.51,0.9,0.76c0.17,0.14,0.35,0.28,0.52,0.42c0.28,0.23,0.57,0.45,0.85,0.68   c0.04,0.03,0.07,0.06,0.11,0.09c-0.49,1.89-1.47,3.61-2.86,5c-2.08,2.08-4.84,3.22-7.78,3.22c-2.94,0-5.7-1.14-7.78-3.22   c-4.29-4.29-4.29-11.27,0-15.56c1.39-1.39,3.11-2.37,5-2.86c0.09,0.11,0.18,0.22,0.26,0.33c0.4,0.5,0.8,1,1.22,1.51   c0.06,0.07,0.12,0.14,0.18,0.21c0.39,0.46,0.79,0.92,1.2,1.39c0.03,0.04,0.07,0.08,0.1,0.12c0.01,0.01,0.02,0.02,0.02,0.03   c0.1,0.11,0.21,0.23,0.31,0.34c0.35,0.39,0.7,0.77,1.06,1.16c0.02,0.02,0.03,0.04,0.05,0.05c0.07,0.07,0.14,0.15,0.21,0.22   c0.06,0.06,0.12,0.12,0.18,0.18c0.5,0.52,1,1.05,1.52,1.57C20.99,28.26,21.46,28.71,21.92,29.16z M31.03,36.57   c-0.75,2.03-1.9,3.83-3.43,5.36c-2.83,2.83-6.6,4.39-10.61,4.39c-4.01,0-7.78-1.56-10.61-4.39c-5.85-5.85-5.85-15.36,0-21.21   c1.53-1.53,3.33-2.68,5.36-3.43c0.13,0.2,0.27,0.39,0.41,0.59c0.21,0.31,0.42,0.61,0.65,0.92c0.05,0.06,0.09,0.12,0.13,0.19   c-1.93,0.63-3.68,1.7-5.14,3.15c-5.07,5.07-5.07,13.32,0,18.38c2.46,2.46,5.72,3.81,9.19,3.81c3.47,0,6.74-1.35,9.19-3.81   c1.45-1.45,2.52-3.21,3.15-5.14c0.05,0.03,0.09,0.06,0.13,0.09c0.28,0.2,0.56,0.4,0.84,0.59c0.17,0.12,0.34,0.24,0.5,0.35   C30.89,36.47,30.96,36.52,31.03,36.57z M42.45,38.4c-0.28,0.28-0.73,0.42-1.36,0.42c-1.85,0-4.57-1.13-7.68-3.08l0,0l-0.64-0.41   c-1.16-0.75-2.36-1.61-3.56-2.53c-1.14-0.88-2.29-1.82-3.43-2.82c-0.14-0.13-0.29-0.26-0.43-0.39c-0.42-0.38-0.84-0.76-1.27-1.15   c-0.16-0.15-0.33-0.3-0.49-0.46c-0.55-0.52-1.1-1.05-1.65-1.6c-0.55-0.55-1.08-1.1-1.6-1.65c-0.12-0.13-0.24-0.26-0.36-0.39   c-0.06-0.06-0.11-0.12-0.17-0.19c-0.37-0.4-0.74-0.8-1.1-1.21c-0.08-0.09-0.15-0.17-0.23-0.26c-0.1-0.11-0.19-0.22-0.29-0.33   c-0.41-0.47-0.81-0.93-1.19-1.4c-0.1-0.12-0.2-0.24-0.3-0.36c-0.4-0.49-0.79-0.98-1.17-1.47c-0.03-0.04-0.06-0.08-0.09-0.12   c-0.21-0.28-0.43-0.55-0.63-0.83c-0.2-0.28-0.4-0.55-0.59-0.83c-0.16-0.22-0.31-0.44-0.46-0.66c-0.18-0.27-0.36-0.53-0.53-0.79   c-0.61-0.93-1.17-1.84-1.65-2.72C9.23,8.91,9.19,6.61,9.92,5.87c0.28-0.28,0.73-0.42,1.35-0.42c3,0,8.61,3.16,14.42,8.09   c-0.1,0.18-0.2,0.38-0.3,0.56c-0.01,0.01-0.02,0.03-0.02,0.04c-0.23,0.39-0.47,0.76-0.72,1.09c-0.01,0.01-0.02,0.02-0.03,0.04   c-0.24,0.33-0.49,0.63-0.74,0.91c-0.01,0.01-0.02,0.02-0.03,0.04c-0.25,0.27-0.5,0.5-0.75,0.71c-0.02,0.01-0.03,0.02-0.05,0.04   c-0.25,0.2-0.51,0.38-0.77,0.52l-1.26,0.68l1.06,0.95c1.15,1.02,2.26,2.08,3.33,3.14c1.51,1.51,2.98,3.11,4.37,4.74l0.97,1.15l0,0   l0,0l0.68-1.35c0.13-0.26,0.3-0.53,0.5-0.79c0.01-0.02,0.02-0.03,0.03-0.05c0.2-0.26,0.44-0.51,0.7-0.77   c0.01-0.01,0.02-0.02,0.04-0.03c0.27-0.25,0.57-0.5,0.9-0.75c0.01-0.01,0.03-0.02,0.04-0.03c0.33-0.25,0.7-0.49,1.09-0.73   c0.02-0.01,0.03-0.02,0.05-0.03c0.17-0.1,0.37-0.2,0.56-0.31C41.66,30.93,43.92,36.93,42.45,38.4z M46.6,12.96   c-0.89,2.95-3.17,5.24-6.1,6.12c-1.47,0.44-3.08,1.02-4.63,1.74l-0.02-0.02l-0.7,0.35c-0.04,0.02-0.08,0.04-0.12,0.06   c-0.23,0.12-0.45,0.24-0.67,0.37c-1.12,0.62-2.08,1.28-2.85,1.97c-0.05,0.05-0.12,0.09-0.17,0.14c-0.34,0.32-0.65,0.65-0.91,0.98   c-0.46-0.53-0.94-1.05-1.42-1.57c-0.72-0.78-1.44-1.54-2.19-2.28c-0.79-0.79-1.62-1.58-2.46-2.36c0.33-0.27,0.65-0.58,0.97-0.92   c0.06-0.06,0.11-0.14,0.17-0.2c0.66-0.75,1.28-1.66,1.87-2.72c0.14-0.25,0.28-0.5,0.42-0.76c0.02-0.04,0.04-0.07,0.06-0.11   l0.34-0.69l-0.02-0.02c0.71-1.53,1.28-3.13,1.71-4.57C31.04,4.66,34.6,2,38.55,2c1.95,0,3.77,0.66,5.26,1.91   c0.22,0.19,0.44,0.39,0.66,0.6c0.21,0.21,0.41,0.43,0.6,0.65C46.88,7.34,47.44,10.18,46.6,12.96z"></path><path d="M37.98,4.69c-1.74,0-3.42,0.83-4.75,2.34c-0.36,0.42-0.32,1.05,0.09,1.41c0.42,0.37,1.05,0.32,1.41-0.09   c1.91-2.17,4.59-2.17,6.5,0c0.2,0.22,0.47,0.34,0.75,0.34c0.23,0,0.47-0.08,0.66-0.25c0.41-0.36,0.46-1,0.09-1.41   C41.4,5.52,39.72,4.69,37.98,4.69z"></path></g></svg>