<svg height='100px' width='100px'  fill="#000000" xmlns="http://www.w3.org/2000/svg" data-name="Layer 1" viewBox="0 0 64 64" x="0px" y="0px"><title>Medical Equipment</title><path d="M56.21,10.34l-.5-.5h0l7.64-7.64-3.23-1L53.6,7.73h0l-.5-.5a2.5,2.5,0,0,0-3.53,0L47.83,9h0l6.64,6.64h0l1.73-1.73A2.5,2.5,0,0,0,56.21,10.34Z"></path><path d="M12.38,59.73l-2-2L20.57,47.63l-4.76-4.76L5.66,53l-2-2a1.78,1.78,0,0,0-2.52,2.52l8.68,8.68a1.78,1.78,0,0,0,2.52-2.52Z"></path><path d="M31.29,50.25A1.73,1.73,0,0,0,30.78,49l-.94-.94L52.91,25a4.94,4.94,0,0,0,0-7L45.4,10.52a4.94,4.94,0,0,0-7,0L15.35,33.59l-.94-.94A1.73,1.73,0,0,0,12,35.1L28.33,51.48a1.73,1.73,0,0,0,3-1.22ZM49.42,24.3,47,21.87a1.48,1.48,0,0,0-2.1,2.1l2.43,2.43-3.5,3.5-2.43-2.43a1.48,1.48,0,0,0-2.1,2.1L41.72,32l-3.5,3.5-2.43-2.43a1.48,1.48,0,0,0-2.1,2.1l2.43,2.43-3.5,3.5-2.43-2.43a1.48,1.48,0,0,0-2.1,2.1l2.43,2.43L27.74,46,17.45,35.69,40.52,12.62a2,2,0,0,1,2.78,0l7.51,7.51a2,2,0,0,1,0,2.78Z"></path></svg>