<svg height='100px' width='100px'  fill="#000000" xmlns:dc="http://purl.org/dc/elements/1.1/" xmlns:cc="http://creativecommons.org/ns#" xmlns:rdf="http://www.w3.org/1999/02/22-rdf-syntax-ns#" xmlns:svg="http://www.w3.org/2000/svg" xmlns="http://www.w3.org/2000/svg" xmlns:sodipodi="http://sodipodi.sourceforge.net/DTD/sodipodi-0.dtd" xmlns:inkscape="http://www.inkscape.org/namespaces/inkscape" version="1.1" x="0px" y="0px" viewBox="0 0 100 100"><g transform="translate(0,-952.36218)"><path style="font-size:medium;font-style:normal;font-variant:normal;font-weight:normal;font-stretch:normal;text-indent:0;text-align:start;text-decoration:none;line-height:normal;letter-spacing:normal;word-spacing:normal;text-transform:none;direction:ltr;block-progression:tb;writing-mode:lr-tb;text-anchor:start;baseline-shift:baseline;opacity:1;color:#000000;fill:#000000;fill-opacity:1;stroke:none;stroke-width:3.99999951999999980;marker:none;visibility:visible;display:inline;overflow:visible;enable-background:accumulate;font-family:Sans;-inkscape-font-specification:Sans" d="M 58.71875 4.96875 A 2.0001998 2.0001998 0 0 0 57.21875 6.09375 C 56.711247 7.08967 55.037463 7.75588 52.8125 8.96875 C 51.700019 9.57519 50.480737 10.36758 49.53125 11.625 C 48.835751 12.54606 48.341767 13.739549 48.125 15.09375 C 31.834953 15.935061 18.618916 27.526635 13.5625 43.15625 C 7.3319474 43.877 3 48.9889 3 55 C 3 61.011 7.3273953 66.13525 13.5625 66.84375 C 14.004686 68.21595 14.435276 69.60155 15 70.90625 A 2.0001998 2.0001998 0 1 0 18.65625 69.3125 C 17.976863 67.7428 17.389948 66.1164 16.90625 64.4375 A 2.0001998 2.0001998 0 0 0 15 63 C 9.9742346 63 7 59.544 7 55 C 7 50.4559 9.9684723 47.01304 15 47 A 2.0001998 2.0001998 0 0 0 16.90625 45.53125 C 21.369821 30.13228 34.286357 19.0066 50 19 C 65.711561 18.993 78.662003 30.13423 83.125 45.53125 A 2.0001998 2.0001998 0 0 0 85.03125 47 C 90.062779 47.013 93.03125 50.4559 93.03125 55 C 93.03125 59.544 90.057015 63 85.03125 63 A 2.0001998 2.0001998 0 0 0 83.125 64.4375 C 78.686221 79.844 65.773055 90.9858 50.03125 91 C 38.779977 91 29.01117 85.33805 22.6875 76.46875 A 2.0001998 2.0001998 0 1 0 19.4375 78.78125 C 26.429422 88.58795 37.430691 95 50.03125 95 C 67.177144 94.985 81.194611 83.0781 86.4375 66.875 C 92.690873 66.1816 97.03125 61.0219 97.03125 55 C 97.03125 48.9889 92.699303 43.877 86.46875 43.15625 C 81.442341 27.623015 68.339652 16.02187 52.1875 15.0625 C 52.313101 14.650001 52.502405 14.31776 52.71875 14.03125 C 53.15144 13.45823 53.82549 12.98694 54.71875 12.5 C 56.50527 11.52613 59.334683 10.74499 60.78125 7.90625 A 2.0001998 2.0001998 0 0 0 58.71875 4.96875 z M 35 44 C 32.790875 44 31 45.79085 31 48 C 31 50.2091 32.790875 52 35 52 C 37.209125 52 39 50.2091 39 48 C 39 45.79085 37.209125 44 35 44 z M 65.03125 44 C 62.822125 44 61.03125 45.79085 61.03125 48 C 61.03125 50.2091 62.822125 52 65.03125 52 C 67.240375 52 69.03125 50.2091 69.03125 48 C 69.03125 45.79085 67.240375 44 65.03125 44 z M 59.78125 72.84375 A 2.0001998 2.0001998 0 0 0 58.25 74.0625 C 57.225209 76.0649 53.985124 78 50 78 C 46.005084 78 42.833137 76.09945 41.8125 74.09375 A 2.0001998 2.0001998 0 0 0 39.84375 72.96875 A 2.0001998 2.0001998 0 0 0 38.21875 75.90625 C 40.177685 79.75595 44.80273 82 50 82 C 55.193292 82 59.816439 79.74545 61.78125 75.90625 A 2.0001998 2.0001998 0 0 0 59.78125 72.84375 z " transform="translate(0,952.36218)"></path></g></svg>