<svg height='100px' width='100px'  fill="#000000" xmlns="http://www.w3.org/2000/svg" xmlns:xlink="http://www.w3.org/1999/xlink" version="1.1" x="0px" y="0px" viewBox="0 0 512 512" style="enable-background:new 0 0 512 512;" xml:space="preserve"><g><path d="M377.9,25c-43.8,0-82.3,22.7-104.6,56.9c-21.2,2.3-43.1,7.4-63.8,14.8c-30.3-10.4-63.9-16.3-92.5-16.3   c-40.2,0-71,11.3-88.9,32.6c-17,20.1-22.4,48.6-16.2,84.5c2.7,15.5,11,39.4,18.3,60.4c5,14.4,11.2,32.3,11.3,36.3   c-0.2,17.3,0,62.1,7.5,103.7c9.9,55.2,29,85,56.7,88.5c24.6,3.1,42.8-6.7,53.9-29.2c8-16.1,11.6-36.7,15.2-56.6   c6.7-37.8,12.2-60.8,31.5-60.8h0.3c19.3,0.2,24.7,23.2,31.5,61c3.5,19.8,7.2,40.4,15.1,56.4c9.8,19.7,25,29.7,45.1,29.7l0,0   c2.8,0,5.7-0.2,8.7-0.6c28.7-3.7,48.2-35.5,57.7-94.7c6.8-42.1,6.7-85.8,6.4-100.3c0.1-0.4,0.3-1,0.5-1.6c1.1-3.2,3-8.7,5.3-15.5   c0.3,0,0.6,0,0.9,0c68.7,0,124.6-55.9,124.6-124.6C502.6,80.9,446.6,25,377.9,25z M360.5,273.1c-1.7,5-3.1,9-3.9,11.5   c-1.4,4.2-1.4,4.2-1.4,5.5c0,0.1,0,0.1,0,0.2c0.3,12.5,0.7,56.6-6.2,98.8c-5.7,35.3-18,78.1-44,81.4c-2.3,0.3-4.6,0.5-6.7,0.5l0,0   c-29.3,0-36.7-28.9-44.5-73c-3.2-18-6.2-35.1-12.3-48.5c-7.6-16.9-19.3-25.5-34.8-25.7h-0.4c-15.6,0-27.3,8.6-34.9,25.4   c-6.1,13.4-9.1,30.5-12.3,48.6c-7.9,44.2-15.2,73.2-44.6,73.2c-2.1,0-4.4-0.1-6.7-0.4c-24.9-3.2-37.1-42.8-43-75.5   c-7.2-40.2-7.4-83.8-7.2-100.6c0.1-6.1-4.1-18.5-12.2-41.7c-7.1-20.5-15.2-43.7-17.6-57.9c-5.4-31.1-1.1-55.1,12.7-71.5   c18.7-22.2,52-26.9,76.7-26.9c27.7,0,60.5,6,89.9,16.3c1.8,0.6,3.7,0.6,5.5-0.1c16.6-6.2,34.2-10.8,51.5-13.5   c-0.2,0.3-0.3,0.7-0.4,1c-0.2,0.5-0.4,1-0.6,1.5c-0.2,0.4-0.3,0.8-0.5,1.2c-0.3,0.7-0.5,1.3-0.8,2c-0.1,0.2-0.2,0.5-0.3,0.7   c-0.3,0.8-0.6,1.6-0.9,2.5c0,0.1-0.1,0.2-0.1,0.4c-4.2,11.9-6.6,24.6-7,37.9v0.1c0,1.1,0,2.2,0,3.3c0,1,0,2.1,0,3.1   c0,0.3,0,0.7,0,1c0,0.7,0,1.4,0.1,2.1c0,0.4,0,0.8,0.1,1.1c0,0.6,0.1,1.3,0.1,1.9c0,0.4,0.1,0.8,0.1,1.1c0.1,0.6,0.1,1.3,0.2,1.9   c0,0.4,0.1,0.7,0.1,1.1c0.1,0.7,0.1,1.3,0.2,2c0,0.3,0.1,0.7,0.1,1c0.1,0.7,0.2,1.4,0.3,2.1c0,0.3,0.1,0.6,0.1,0.9   c0.1,0.8,0.3,1.6,0.4,2.3c0,0.2,0.1,0.4,0.1,0.6c0.2,0.9,0.3,1.9,0.5,2.8v0.1c9.9,48.5,48.1,87,97,97c0.1,0,0.2,0,0.2,0   c0.8,0.2,1.7,0.3,2.5,0.5c0.3,0.1,0.7,0.1,1,0.2c0.6,0.1,1.2,0.2,1.8,0.3c0.5,0.1,1,0.2,1.5,0.2C360,273,360.3,273,360.5,273.1z    M377.9,258.3c-2.1,0-4.1-0.1-6.1-0.2l0,0c-2.7-0.1-5.3-0.4-7.9-0.7c-0.3,0-0.5-0.1-0.8-0.1c-0.6-0.1-1.2-0.2-1.8-0.3   c-43-6.6-77.8-38.7-88.6-80.2l0,0c-0.2-0.8-0.4-1.6-0.6-2.5c0-0.1,0-0.1-0.1-0.2c-0.2-0.8-0.3-1.5-0.5-2.3c0-0.1-0.1-0.3-0.1-0.4   c-0.1-0.7-0.3-1.4-0.4-2.1c0-0.2-0.1-0.4-0.1-0.5c-0.1-0.7-0.2-1.3-0.3-2c0-0.2-0.1-0.5-0.1-0.7c-0.1-0.6-0.2-1.3-0.3-1.9   c0-0.3-0.1-0.5-0.1-0.8c-0.1-0.6-0.1-1.2-0.2-1.8c0-0.3-0.1-0.6-0.1-0.9c-0.1-0.6-0.1-1.2-0.2-1.8c0-0.3-0.1-0.6-0.1-0.9   c0-0.6-0.1-1.2-0.1-1.8c0-0.3,0-0.6-0.1-0.9c0-0.6-0.1-1.3-0.1-1.9c0-0.3,0-0.5,0-0.8c0-0.9,0-1.8,0-2.8c0-1.1,0-2.3,0.1-3.4   c0-0.3,0-0.6,0-0.9c0-0.9,0.1-1.8,0.1-2.7c0-0.2,0-0.4,0-0.7c0.2-2.4,0.4-4.7,0.7-7.1l0,0c1-7.2,2.7-14.4,5.1-21.2   c0-0.1,0.1-0.2,0.1-0.3c0.4-1.1,0.8-2.2,1.2-3.3c0,0,0,0,0-0.1c0.4-1,0.8-2.1,1.3-3.1c0.1-0.3,0.3-0.6,0.4-1   c0.3-0.6,0.6-1.3,0.9-1.9c0.2-0.4,0.4-0.9,0.6-1.3s0.4-0.9,0.7-1.3c0.5-1.1,1.1-2.1,1.7-3.2c0.1-0.2,0.2-0.3,0.3-0.5   c0.4-0.7,0.8-1.4,1.2-2.2c0,0,0,0,0-0.1C302.5,63,337.7,41,377.9,41c59.9,0,108.6,48.7,108.6,108.6   C486.6,209.6,437.8,258.3,377.9,258.3z"></path><path d="M449.3,119.9h-41.6V78.3c0-4.4-3.6-8-8-8h-43.6c-4.4,0-8,3.6-8,8v41.6h-41.6c-4.4,0-8,3.6-8,8v43.6c0,4.4,3.6,8,8,8h41.6   V221c0,4.4,3.6,8,8,8h43.6c4.4,0,8-3.6,8-8v-41.6h41.6c4.4,0,8-3.6,8-8v-43.6C457.3,123.4,453.7,119.9,449.3,119.9z M441.3,163.4   h-41.6c-4.4,0-8,3.6-8,8V213h-27.6v-41.6c0-4.4-3.6-8-8-8h-41.6v-27.6h41.6c4.4,0,8-3.6,8-8V86.3h27.6v41.6c0,4.4,3.6,8,8,8h41.6   V163.4z"></path></g></svg>