<svg height='100px' width='100px'  fill="#000000" xmlns="http://www.w3.org/2000/svg" xmlns:xlink="http://www.w3.org/1999/xlink" version="1.1" x="0px" y="0px" viewBox="0 0 100 100" enable-background="new 0 0 100 100" xml:space="preserve"><path fill="#000000" d="M80,69.699v-3.782c0-6.754-5.016-11.848-11.667-11.848C61.417,54.069,56,59.164,56,65.667v13.5  C56,83.254,52.879,86,48.233,86C43.771,86,40,82.306,40,77.934V65.01c1.032-0.517,1.831-1.411,2.223-2.508  c1.283-0.072,2.589-0.173,3.944-0.309c4.771-0.479,9.426-6.419,11.01-11.665c3.138-10.734,5.543-20.355,7.359-29.449  c0.462-2.562-0.241-5.255-1.979-7.581c-1.66-2.223-4.15-3.927-6.979-4.87C54.865,7.081,53.311,6,51.5,6C49.019,6,47,8.019,47,10.5  s2.019,4.5,4.5,4.5c1.634,0,3.054-0.884,3.842-2.191c1.627,0.714,3.033,1.772,4.011,3.082c1.067,1.428,1.51,3.019,1.254,4.44  c-1.787,8.942-4.165,18.453-7.265,29.058c-1.437,4.76-5.184,8.584-7.575,8.824c-1.382,0.138-2.712,0.241-4.018,0.31  C40.944,57.306,39.565,56.5,38,56.5s-2.944,0.806-3.75,2.022c-1.306-0.069-2.636-0.172-4.018-0.311  c-2.391-0.241-6.138-4.066-7.569-8.807c-3.106-10.63-5.485-20.141-7.265-29.037c-0.263-1.458,0.18-3.048,1.247-4.476  c0.979-1.31,2.385-2.368,4.013-3.083C21.446,14.116,22.866,15,24.5,15c2.481,0,4.5-2.019,4.5-4.5S26.981,6,24.5,6  c-1.811,0-3.365,1.081-4.079,2.627c-2.83,0.943-5.32,2.648-6.981,4.871c-1.737,2.326-2.44,5.018-1.972,7.617  c1.81,9.049,4.215,18.669,7.36,29.429c1.578,5.228,6.233,11.167,11.002,11.647c1.355,0.137,2.662,0.238,3.945,0.31  c0.392,1.097,1.191,1.991,2.223,2.508v12.924C36,84.587,41.488,90,48.233,90C55.051,90,60,85.444,60,79.167v-13.5  c0-4.26,3.66-7.598,8.333-7.598c5.033,0,7.667,3.948,7.667,7.848v3.782c-4.697,0.933-8.25,5.083-8.25,10.051  C67.75,85.402,72.348,90,78,90s10.25-4.598,10.25-10.25C88.25,74.783,84.697,70.632,80,69.699z M78,86  c-3.446,0-6.25-2.804-6.25-6.25S74.554,73.5,78,73.5s6.25,2.804,6.25,6.25S81.446,86,78,86z"></path></svg>