<svg height='100px' width='100px'  fill="#000000" xmlns="http://www.w3.org/2000/svg" xmlns:xlink="http://www.w3.org/1999/xlink" version="1.1" x="0px" y="0px" viewBox="0 0 64 64" style="enable-background:new 0 0 64 64;" xml:space="preserve"><g><path d="M17,61c0,1.654,1.346,3,3,3h24c1.654,0,3-1.346,3-3V25c0-3.859-3.14-7-7-7h-2v-3c0-1.654-1.346-3-3-3V6h5   c1.654,0,3-1.346,3-3s-1.346-3-3-3H20c-1.654,0-3,1.346-3,3v4c0,0.553,0.448,1,1,1h4c0.552,0,1-0.447,1-1V6h6v6   c-1.654,0-3,1.346-3,3v3h-2c-3.86,0-7,3.141-7,7V61z M45,52H19V30h26V52z M44,62H20c-0.551,0-1-0.448-1-1v-7h26v7   C45,61.552,44.551,62,44,62z M22,4c-0.552,0-1,0.447-1,1v1h-2V3c0-0.552,0.449-1,1-1h20c0.551,0,1,0.448,1,1s-0.449,1-1,1H22z    M31,6h2v6h-2V6z M28,15c0-0.552,0.449-1,1-1h6c0.551,0,1,0.448,1,1v3h-8V15z M24,20h16c2.757,0,5,2.243,5,5v3H19v-3   C19,22.243,21.243,20,24,20z"></path><path d="M27,44h2v2c0,0.553,0.448,1,1,1h4c0.552,0,1-0.447,1-1v-2h2c0.552,0,1-0.447,1-1v-4c0-0.553-0.448-1-1-1h-2v-2   c0-0.553-0.448-1-1-1h-4c-0.552,0-1,0.447-1,1v2h-2c-0.552,0-1,0.447-1,1v4C26,43.553,26.448,44,27,44z M28,40h2   c0.552,0,1-0.447,1-1v-2h2v2c0,0.553,0.448,1,1,1h2v2h-2c-0.552,0-1,0.447-1,1v2h-2v-2c0-0.553-0.448-1-1-1h-2V40z"></path><path d="M23,14c0-1.424-1.77-3.212-2.312-3.726c-0.386-0.365-0.99-0.365-1.376,0C18.769,10.788,17,12.576,17,14   c0,1.654,1.346,3,3,3C21.654,17,23,15.654,23,14z M19,14.002c0.013-0.261,0.442-0.909,1-1.553c0.557,0.644,0.987,1.291,1,1.553   C20.999,14.552,20.551,15,20,15C19.449,15,19,14.552,19,14.002z"></path></g></svg>