<svg height='100px' width='100px'  fill="#000000" xmlns="http://www.w3.org/2000/svg" data-name="Layer 2" viewBox="0 0 128 128" x="0px" y="0px"><title>Artboard 21</title><path d="M96.65088,3.48828a27.67557,27.67557,0,0,0-19.7002,8.16113L11.64893,76.9502a27.86028,27.86028,0,1,0,39.40039,39.40039L116.35107,51.0498A27.86133,27.86133,0,0,0,96.65088,3.48828ZM62.66418,97.66565,30.33386,65.33582,64.0321,31.63806,96.36243,63.9679Zm-15.15,15.14978A22.86082,22.86082,0,0,1,15.18408,80.48535L26.79865,68.87091,59.129,101.20081Zm65.30176-65.30078L99.89758,60.4328,67.56726,28.10291,80.48584,15.18457a22.86082,22.86082,0,0,1,32.33008,32.33008Z"></path><path d="M45.3833,61.54883A3.49365,3.49365,0,1,0,48.87744,65.042,3.49768,3.49768,0,0,0,45.3833,61.54883Zm0,5A1.50635,1.50635,0,1,1,46.88965,65.042,1.50779,1.50779,0,0,1,45.3833,66.54883Z"></path><path d="M59.83789,76.9502a3.49414,3.49414,0,1,0,3.49365,3.49414A3.49789,3.49789,0,0,0,59.83789,76.9502Zm0,5a1.50586,1.50586,0,1,1,1.50635-1.50586A1.508,1.508,0,0,1,59.83789,81.9502Z"></path><path d="M82.04541,63.5791a3.49365,3.49365,0,1,0,3.49365,3.49414A3.49789,3.49789,0,0,0,82.04541,63.5791Zm0,5a1.50635,1.50635,0,1,1,1.50635-1.50586A1.508,1.508,0,0,1,82.04541,68.5791Z"></path><path d="M65.98779,42.752a3.49414,3.49414,0,1,0,3.49365,3.49414A3.498,3.498,0,0,0,65.98779,42.752Zm0,5a1.50586,1.50586,0,1,1,1.50586-1.50586A1.508,1.508,0,0,1,65.98779,47.752Z"></path><path d="M65.37842,60.27637a3.49414,3.49414,0,1,0,3.49414,3.49414A3.49789,3.49789,0,0,0,65.37842,60.27637Zm0,5a1.50586,1.50586,0,1,1,1.50635-1.50586A1.50758,1.50758,0,0,1,65.37842,65.27637Z"></path></svg>