<svg height='100px' width='100px'  fill="#000000" xmlns:dc="http://purl.org/dc/elements/1.1/" xmlns:cc="http://creativecommons.org/ns#" xmlns:rdf="http://www.w3.org/1999/02/22-rdf-syntax-ns#" xmlns:svg="http://www.w3.org/2000/svg" xmlns="http://www.w3.org/2000/svg" xmlns:sodipodi="http://sodipodi.sourceforge.net/DTD/sodipodi-0.dtd" xmlns:inkscape="http://www.inkscape.org/namespaces/inkscape" viewBox="0 0 16.933333 16.933334" version="1.1" x="0px" y="0px"><svg:g><svg:path style="color:#000000;font-style:normal;font-variant:normal;font-weight:normal;font-stretch:normal;font-size:medium;line-height:normal;font-family:sans-serif;font-variant-ligatures:normal;font-variant-position:normal;font-variant-caps:normal;font-variant-numeric:normal;font-variant-alternates:normal;font-feature-settings:normal;text-indent:0;text-align:start;text-decoration:none;text-decoration-line:none;text-decoration-style:solid;text-decoration-color:#000000;letter-spacing:normal;word-spacing:normal;text-transform:none;writing-mode:lr-tb;direction:ltr;text-orientation:mixed;dominant-baseline:auto;baseline-shift:baseline;text-anchor:start;white-space:normal;shape-padding:0;clip-rule:nonzero;display:inline;overflow:visible;visibility:visible;opacity:1;isolation:auto;mix-blend-mode:normal;color-interpolation:sRGB;color-interpolation-filters:linearRGB;solid-color:#000000;solid-opacity:1;vector-effect:none;fill:#000000;fill-opacity:1;fill-rule:nonzero;stroke:none;stroke-width:0.5291667;stroke-linecap:round;stroke-linejoin:round;stroke-miterlimit:4;stroke-dasharray:none;stroke-dashoffset:0;stroke-opacity:1;color-rendering:auto;image-rendering:auto;shape-rendering:auto;text-rendering:auto;enable-background:accumulate" d="m 8.9956858,1.0581817 -1.05833,5.1e-4 c -0.435161,0 -0.793241,0.35756 -0.793241,0.79272 0,0.3037 0.212901,0.46406 0.343651,0.58808 0.13075,0.12403 0.179879,0.2134 0.17984,0.20309 l 0.001,0.33021 c -1.026665,0.14815 -1.962545,0.57464 -2.727495,1.20406 l -0.2403,-0.22014 c 0.0163,0.0149 0.003,0.0103 -0.006,-0.0408 -0.009,-0.0511 -0.0125,-0.1333899 -0.0155,-0.22685 -0.006,-0.18694 0.0171,-0.45179 -0.20878,-0.65785 -0.321527,-0.29322 -0.827596,-0.26876 -1.120866,0.0527 l -0.71312,0.78135 c -0.29321,0.32153 -0.2709,0.82761 0.0506,1.12086 0.22396,0.20422 0.48429,0.15547 0.66404,0.14263 0.17974,-0.0128 0.28083,0.0102 0.27389,0.004 l 0.245469,0.21808 c -0.462949,0.68146 -0.776079,1.47093 -0.898139,2.32286 h -0.32608 c 0.0221,0 0.008,0.004 -0.0331,-0.0274 -0.0409,-0.0318 -0.0991,-0.0911 -0.16433,-0.15813 -0.13042,-0.13404 -0.291611,-0.34417 -0.597381,-0.34417 v 5.3e-4 c -0.43515,0 -0.79323,0.35755 -0.79323,0.79272 v 1.05884 c 0,0.43518 0.35808,0.79272 0.79323,0.79272 0.30371,0 0.463551,-0.21289 0.587561,-0.34365 0.12402,-0.13075 0.21342,-0.17986 0.2031,-0.17983 l 0.33175,-10e-4 c 0.14519,1.0068103 0.55795,1.9257703 1.167369,2.6825303 l -0.221679,0.23874 c 0.015,-0.0161 0.008,-0.002 -0.0429,0.006 -0.0512,0.008 -0.13285,0.0102 -0.22634,0.0119 -0.18699,0.004 -0.45207,-0.0207 -0.66044,0.20308 -0.2965,0.31848 -0.27763,0.82431 0.0408,1.12086 l 0.7736,0.72296 c 0.31849,0.29648 0.82637,0.2771 1.12292,-0.0413 0.20653,-0.22183 0.15982,-0.48212 0.14884,-0.66198 -0.011,-0.17987 0.0138,-0.28024 0.008,-0.27337 l 0.22015,-0.24133 c 0.69188,0.48053 1.4984,0.80432 2.36988,0.92915 v 0.32556 c 0,-0.0221 0.004,-0.008 -0.0274,0.0336 -0.0318,0.0409 -0.0911,0.0985 -0.15813,0.16381 -0.13404,0.13042 -0.34417,0.29213 -0.34417,0.5979 0,0.43516 0.35808,0.79272 0.79324,0.79272 h 1.05833 c 0.43516,0 0.793225,-0.35756 0.793225,-0.79272 0,-0.3037 -0.2129,-0.46405 -0.34364,-0.58808 -0.130755,-0.12402 -0.179875,-0.21342 -0.179835,-0.20309 l -10e-4,-0.33073 C 10.29117,13.812322 11.22688,13.385912 11.9917,12.756472 l 0.24081,0.22014 c -0.0163,-0.0149 -0.003,-0.01 0.006,0.0413 0.009,0.0511 0.0125,0.13288 0.0155,0.22635 0.006,0.18693 -0.0171,0.45231 0.20877,0.65836 0.32151,0.29321 0.82812,0.26876 1.12138,-0.0527 l 0.71262,-0.78135 c 0.29332,-0.3215 0.27087,-0.82761 -0.0506,-1.12086 -0.22393,-0.2043 -0.48429,-0.15549 -0.66405,-0.14263 -0.17975,0.0129 -0.28032,-0.0123 -0.27337,-0.006 l -0.24598,-0.21807 c 0.46245,-0.68104 0.77547,-1.46965 0.89762,-2.3207903 h 0.3266 c -0.0221,0 -0.008,-0.004 0.0331,0.0274 0.0409,0.0318 0.0991,0.0911 0.16433,0.15814 0.13043,0.13404 0.29161,0.34364 0.59738,0.34364 0.43516,0 0.79324,-0.35754 0.79324,-0.79272 v -1.05884 c 0,-0.43517 -0.35808,-0.79272 -0.79324,-0.79272 -0.30371,0 -0.46354,0.21291 -0.58756,0.34366 -0.12402,0.13075 -0.21344,0.17778 -0.20309,0.17776 l -0.33124,0.002 c -0.14549,-1.00638 -0.55846,-1.92517 -1.16789,-2.68149 l 0.22169,-0.23823 c -0.015,0.0161 -0.008,0.002 0.0429,-0.006 0.0512,-0.008 0.13285,-0.0113 0.22635,-0.0134 0.18698,-0.004 0.45205,0.0222 0.66042,-0.2015399 0.29651,-0.31848 0.27764,-0.82432 -0.0408,-1.12087 L 13.129,2.6845717 c -0.31846,-0.29661 -0.82689,-0.27762 -1.12344,0.0408 -0.20654,0.22183 -0.15931,0.48262 -0.14832,0.66249 0.011,0.17987 -0.0139,0.28023 -0.008,0.27337 l -0.22014,0.24132 c -0.69185,-0.48021 -1.4986,-0.80388 -2.3698752,-0.92862 v -0.32661 c 0,0.0221 -0.004,0.008 0.0274,-0.0331 0.0318,-0.0409 0.0911,-0.0991 0.158125,-0.16433 0.1340399,-0.13043 0.34416,-0.2916 0.34416,-0.59738 0,-0.43516 -0.358065,-0.79323 -0.7932251,-0.79323 z m -1.05833,0.5296801 h 1.05833 c 0.151149,0 0.263549,0.11241 0.263549,0.26355 0,-0.0126 -0.053,0.0915 -0.18345,0.21859 -0.0653,0.0635 -0.139789,0.13223 -0.20722,0.21911 -0.0674,0.0869 -0.138499,0.20274 -0.138499,0.35708 v 0.46716 a 0.26460982,0.26460982 0 0 0 0,0.17208 v 0.94671 a 0.26465001,0.26465001 0 1 0 0.529169,0 v -0.72708 c 2.1402762,0.33894 3.8271662,2.02502 4.1682162,4.1646 l -0.99219,0.004 a 0.26460982,0.26460982 0 1 0 0,0.52761 l 1.17564,-0.004 a 0.26460982,0.26460982 0 0 0 0.2496,-5.3e-4 l 0.43201,-0.002 c 0.30352,-9.8e-4 0.4621,-0.21301 0.58602,-0.34365 0.12391,-0.13064 0.21364,-0.17983 0.20308,-0.17983 0.15115,0 0.26407,0.11446 0.26407,0.26562 v 1.05884 c 0,0.15117 -0.11292,0.26356 -0.26407,0.26356 0.0126,0 -0.0915,-0.053 -0.21859,-0.18346 -0.0635,-0.0653 -0.1317,-0.13978 -0.21859,-0.20722 -0.0869,-0.0674 -0.20325,-0.1385 -0.3576,-0.13849 h -0.46509 a 0.26460982,0.26460982 0 0 0 -0.0935,-0.0155 0.26460982,0.26460982 0 0 0 -0.0832,0.0155 h -1.20975 a 0.26465001,0.26465001 0 0 0 0,0.52917 h 0.99219 c -0.33979,2.1396602 -2.02636,3.8264602 -4.1656353,4.1671802 l -0.003,-0.7276 a 0.26465189,0.26465189 0 1 0 -0.52917,0.002 l 0.005,0.94568 a 0.26460982,0.26460982 0 0 0 5.29e-4,0.1757 l 0.003,0.47077 c 10e-4,0.30349 0.21303,0.4621 0.34365,0.58601 0.13063,0.12391 0.17777,0.21363 0.17777,0.20309 0,0.15114 -0.11292,0.26355 -0.26407,0.26355 h -1.05833 c -0.151149,0 -0.263549,-0.11241 -0.263549,-0.26355 0,0.0126 0.053,-0.0921 0.183449,-0.21911 0.0653,-0.0635 0.13978,-0.13171 0.207221,-0.21859 0.0674,-0.0869 0.13849,-0.20326 0.13849,-0.3576 v -0.51728 a 0.26498487,0.26498487 0 0 0 0,-0.076 v -0.99425 a 0.26460982,0.26460982 0 0 0 -0.26975,-0.26769 0.26460982,0.26460982 0 0 0 -0.25941,0.26769 v 0.7276 c -2.14014,-0.33949 -3.82724,-2.02534 -4.16771,-4.1651202 l 0.72812,-0.003 a 0.26465189,0.26465189 0 0 0 -0.002,-0.52917 l -0.931211,0.004 a 0.26460982,0.26460982 0 0 0 -0.13126,-0.0186 0.26460982,0.26460982 0 0 0 -0.0734,0.0196 l -0.45579,0.002 c -0.30349,0.001 -0.462101,0.2151 -0.586011,0.34573 -0.12391,0.13063 -0.21363,0.17777 -0.20309,0.17777 -0.15115,0 -0.26406,-0.11239 -0.26406,-0.26356 v -1.05884 c 0,-0.15116 0.11291,-0.26355 0.26406,-0.26355 -0.0126,0 0.0915,0.053 0.21859,0.18345 0.0635,0.0653 0.13171,0.13979 0.2186011,0.20722 0.0869,0.0674 0.20326,0.13849 0.3576,0.13849 l 0.49609,-5.3e-4 a 0.26460982,0.26460982 0 0 0 0.11575,-5e-4 l 0.97617,-10e-4 a 0.26460982,0.26460982 0 1 0 0,-0.52709 h -0.729139 c 0.33933,-2.14032 2.0262699,-3.82672 4.16615,-4.16719 l 0.003,0.7276 a 0.26465189,0.26465189 0 0 0 0.529159,-0.002 l -0.008,-1.59163 c -10e-4,-0.30348 -0.21353,-0.4621 -0.34416,-0.58601 -0.13063,-0.12391 -0.17777,-0.21362 -0.17777,-0.20309 0,-0.15114 0.11292,-0.26355 0.26407,-0.26355 z m 4.6395052,1.40974 c 0.067,-0.002 0.13536,0.0229 0.19068,0.0744 l 0.77308,0.72089 c 0.11062,0.1030101 0.11689,0.2624901 0.014,0.3731 0.009,-0.009 -0.1011,0.0311 -0.28318,0.0351 -0.091,0.002 -0.19221,0.002 -0.30077,0.0191 -0.10856,0.0176 -0.23897,0.0535 -0.34414,0.1664001 l -0.18709,0.2005 c -0.12387,-0.12683 -0.25213,-0.24923 -0.38758,-0.3638 l 0.18812,-0.20619 c 0.20384,-0.22345 0.15513,-0.48261 0.14416,-0.66197 -0.011,-0.17937 0.0149,-0.27858 0.008,-0.27131 0.0515,-0.0553 0.11744,-0.0843 0.18449,-0.0863 z M 3.9236448,3.3505417 c 0.0671,-0.003 0.135361,0.0204 0.191201,0.0713 -0.009,-0.008 0.0292,0.10114 0.0351,0.28319 0.003,0.091 0.005,0.1923801 0.0238,0.30075 0.0187,0.10837 0.0555,0.23757 0.1695,0.34158 l 0.20257,0.18449 c -0.1255901,0.12515 -0.244891,0.25663 -0.358121,0.39325 l -0.209289,-0.18706 c -0.22554,-0.20154 -0.48479,-0.15131 -0.66404,-0.13849 -0.17925,0.0128 -0.27711,-0.0107 -0.26975,-0.004 -0.11166,-0.10185 -0.1193801,-0.2614299 -0.0176,-0.3730999 L 3.7401567,3.4395517 c 0.0509,-0.0558 0.11639,-0.0857 0.18345,-0.0889 z m 5.863196,1.6707101 c -1.019726,0 -1.851555,0.8318099 -1.851555,1.85156 0,1.01974 0.831829,1.85157 1.851555,1.85157 1.0197602,0 1.8515702,-0.83183 1.8515702,-1.85157 0,-1.01975 -0.83181,-1.85156 -1.8515702,-1.85156 z m 0,0.5291599 c 0.7337702,0 1.3239602,0.58864 1.3239602,1.3224 0,0.73376 -0.59019,1.32447 -1.3239602,1.32447 -0.733745,0 -1.322385,-0.59071 -1.322385,-1.32447 0,-0.73376 0.58864,-1.3224 1.322385,-1.3224 z m 1.5916402,3.70313 c -0.43524,0 -0.79479,0.36006 -0.79478,0.7953003 -10e-6,0.43524 0.35954,0.79271 0.79478,0.79272 0.43525,0 0.79323,-0.35748 0.79323,-0.79272 0,-0.4352503 -0.35798,-0.7953103 -0.79323,-0.7953003 z m 0,0.52969 c 0.14926,0 0.26407,0.11636 0.26407,0.2656103 0,0.14926 -0.11481,0.26355 -0.26407,0.26355 -0.14926,0 -0.26562,-0.11429 -0.26562,-0.26355 0,-0.1492503 0.11636,-0.2656103 0.26562,-0.2656103 z m -2.1269962,0.002 c -0.5813701,0 -1.058329,0.4774803 -1.058329,1.0588503 0,0.58137 0.4769589,1.05678 1.058329,1.05678 0.581356,0 1.0588462,-0.47541 1.0588462,-1.05678 0,-0.58137 -0.4774902,-1.0588503 -1.0588462,-1.0588503 z m 0,0.5296803 c 0.295376,0 0.5296759,0.23379 0.5296759,0.52917 0,0.29538 -0.2343,0.52917 -0.5296759,0.52917 -0.29539,0 -0.52917,-0.23379 -0.52917,-0.52917 0,-0.29538 0.23378,-0.52917 0.52917,-0.52917 z m 3.4928062,1.69344 0.21032,0.18707 v -0.002 c 0.22555,0.20154 0.48481,0.15131 0.66404,0.13849 0.17924,-0.0128 0.27707,0.0123 0.26976,0.006 0.11165,0.10185 0.11943,0.26143 0.0176,0.37311 l -0.71261,0.78341 c -0.10186,0.11168 -0.26352,0.11735 -0.37516,0.0155 0.009,0.008 -0.0292,-0.10115 -0.0351,-0.28319 -0.003,-0.091 -0.005,-0.19031 -0.0238,-0.29869 -0.0187,-0.10837 -0.0555,-0.23964 -0.1695,-0.34365 l -0.20308,-0.18345 c 0.12542,-0.12501 0.24451,-0.25629 0.3576,-0.39274 z m -8.2511752,0.33796 c 0.1238699,0.12692 0.2521189,0.24967 0.38758,0.36432 l -0.187591,0.20566 c -0.203839,0.22344 -0.1551391,0.48312 -0.1441801,0.66249 0.011,0.17938 -0.0149,0.27652 -0.008,0.26924 -0.103009,0.11062 -0.2645601,0.11689 -0.3751791,0.014 l -0.773069,-0.72089 c -0.11063,-0.10301 -0.1169,-0.26251 -0.014,-0.37311 -0.009,0.009 0.1011101,-0.031 0.2831901,-0.0351 0.091,-0.002 0.1922,-0.002 0.3007489,-0.0196 0.108571,-0.0176 0.2384701,-0.053 0.343651,-0.16588 z"></svg:path></svg:g></svg>