<svg height='100px' width='100px'  fill="#000000" xmlns="http://www.w3.org/2000/svg" viewBox="0 0 100 100" x="0px" y="0px"><path d="m 49.999755 36.065855 c -1.424112 0 -2.608083 .907922 -2.608083 2.000005 c 0 1.092082 1.183971 1.999995 2.608083 1.999995 c 1.424111 0 2.608093 -.907913 2.608093 -1.999995 c 0 -1.092083 -1.183982 -2.000005 -2.608093 -2.000005 z"></path><path d="m 50.00002 5 c -14.94815 0 -27.06602 12.11787 -27.06602 27.06601 v 35.86797 c 0 14.94815 12.11787 27.06602 27.06602 27.06602 c 14.94814 0 27.06601 -12.11787 27.06601 -27.06602 v -35.86797 c 0 -14.94814 -12.11787 -27.06601 -27.06601 -27.06601 z m 0 2.42054 c 13.61132 0 24.64547 11.03415 24.64547 24.64547 v 13.91036 l -24.64547 24.64634 l -24.64548 -24.64548 v -13.91122 c 0 -13.61132 11.03415 -24.64547 24.64548 -24.64547 z m 24.64547 41.97948 v 18.53396 c 0 7.49035 -3.34607 14.19525 -8.61973 18.71534 l -14.31435 -14.31522 z m -49.29095 .002 l 38.74322 38.74236 c -3.99551 2.79242 -8.85332 4.43536 -14.09774 4.43536 c -13.61133 0 -24.64548 -11.03416 -24.64548 -24.64548 z" overflow="visible"></path><path d="m 49.99976 12.26145 c -10.92438 0 -19.8044 8.88003 -19.8044 19.80441 c 0 10.92437 8.88002 19.8044 19.8044 19.8044 c 10.92438 0 19.8044 -8.88003 19.8044 -19.8044 c 0 -10.92438 -8.88002 -19.80441 -19.8044 -19.80441 z m 0 2.42054 c 9.62389 0 17.38386 7.75998 17.38386 17.38387 c 0 9.62388 -7.75997 17.38386 -17.38386 17.38386 c -9.62389 0 -17.38386 -7.75998 -17.38386 -17.38386 c 0 -9.62389 7.75997 -17.38387 17.38386 -17.38387 z"></path><path d="m 43.72828 24.81907 c -1.14147 0 -2.09046 .94899 -2.09046 2.09047 c 0 1.14148 .94899 2.09046 2.09046 2.09046 c 1.14147 0 2.09047 -.94898 2.09047 -2.09046 c 0 -1.14148 -.949 -2.09047 -2.09047 -2.09047 z"></path><path d="m 56.27107 24.81907 c -1.14146 0 -2.09046 .94899 -2.09046 2.09047 c 0 1.14148 .949 2.09046 2.09046 2.09046 c 1.14146 0 2.09046 -.94898 2.09046 -2.09046 c 0 -1.14148 -.949 -2.09047 -2.09046 -2.09047 z"></path></svg>