<svg height='100px' width='100px'  fill="#000000" xmlns="http://www.w3.org/2000/svg" xmlns:xlink="http://www.w3.org/1999/xlink" version="1.1" x="0px" y="0px" viewBox="0 0 100 100" enable-background="new 0 0 100 100" xml:space="preserve"><path d="M14.139,49.762h0.146c0.828,0,1.5-0.671,1.5-1.5s-0.672-1.5-1.5-1.5h-0.146c-3.375,0-6.121,2.747-6.121,6.122  c0,3.375,2.746,6.121,6.121,6.121h0.146c0.828,0,1.5-0.671,1.5-1.5s-0.672-1.5-1.5-1.5h-0.146c-1.721,0-3.121-1.4-3.121-3.121  C11.018,51.163,12.418,49.762,14.139,49.762z"></path><path d="M85.862,46.762h-0.146c-0.828,0-1.5,0.671-1.5,1.5s0.672,1.5,1.5,1.5h0.146c1.722,0,3.122,1.4,3.122,3.122  c0,1.721-1.4,3.121-3.122,3.121h-0.146c-0.828,0-1.5,0.671-1.5,1.5s0.672,1.5,1.5,1.5h0.146c3.376,0,6.122-2.746,6.122-6.121  C91.984,49.509,89.238,46.762,85.862,46.762z"></path><path d="M34.119,54.041l8.464-4.5c0.49-0.26,0.796-0.77,0.796-1.324s-0.306-1.064-0.796-1.324l-8.464-4.5  c-0.729-0.389-1.639-0.112-2.028,0.62c-0.389,0.731-0.111,1.64,0.62,2.028l5.973,3.176l-5.973,3.176  c-0.731,0.389-1.009,1.297-0.62,2.028c0.27,0.507,0.789,0.796,1.325,0.796C33.654,54.217,33.895,54.161,34.119,54.041z"></path><path d="M67.91,43.013c-0.39-0.733-1.299-1.01-2.028-0.62l-8.463,4.5c-0.49,0.26-0.796,0.77-0.796,1.324s0.306,1.064,0.796,1.324  l8.463,4.5c0.225,0.12,0.465,0.176,0.703,0.176c0.536,0,1.056-0.289,1.325-0.796c0.389-0.731,0.111-1.64-0.62-2.028l-5.972-3.176  l5.972-3.176C68.021,44.652,68.299,43.744,67.91,43.013z"></path><path d="M50,60.775c-7.719,0-14.444,4.948-16.736,12.312c-0.142,0.456-0.058,0.951,0.225,1.335c0.283,0.384,0.731,0.611,1.208,0.611  h30.608c0.477,0,0.925-0.227,1.208-0.611c0.282-0.384,0.366-0.879,0.225-1.335C64.445,65.724,57.72,60.775,50,60.775z   M36.888,72.034c2.381-5.013,7.421-8.258,13.112-8.258c5.692,0,10.732,3.245,13.113,8.258H36.888z"></path><path d="M85.989,42.247c-2.932-9.952-9.822-18.18-19.118-22.863c0.076-0.553,0.12-1.128,0.12-1.728c0-4.746-2.546-8.06-6.191-8.06  c-0.987,0-2.004,0.245-3.021,0.729c-1.459,0.694-2.876,1.536-4.1,2.418c-0.439-0.189-0.923-0.295-1.431-0.295h-4.496  c-0.508,0-0.991,0.106-1.431,0.295c-1.224-0.882-2.64-1.724-4.099-2.417c-1.019-0.484-2.035-0.729-3.022-0.729  c-3.645,0-6.19,3.314-6.19,8.06c0,0.6,0.041,1.177,0.12,1.727c-9.296,4.683-16.187,12.911-19.118,22.864  C8.204,42.314,3.5,47.061,3.5,52.884c0,5.823,4.704,10.569,10.513,10.637C18.695,79.407,33.329,90.404,50,90.404  c16.672,0,31.306-10.997,35.988-26.883C91.796,63.453,96.5,58.708,96.5,52.884C96.5,47.061,91.797,42.315,85.989,42.247z   M59.067,13.034c0.611-0.291,1.194-0.438,1.732-0.438c1.909,0,3.191,2.033,3.191,5.06c0,0.797-0.091,1.539-0.263,2.196  c-0.005,0.017-0.013,0.04-0.018,0.058c-0.076,0.282-0.171,0.543-0.277,0.79c-0.033,0.077-0.075,0.157-0.114,0.235  c-0.08,0.162-0.168,0.311-0.261,0.453c-0.223,0.342-0.507,0.658-0.867,0.899c-0.051,0.034-0.099,0.077-0.151,0.107  c-0.127,0.072-0.271,0.123-0.415,0.172c-0.056,0.019-0.106,0.048-0.163,0.062c-0.205,0.054-0.425,0.085-0.664,0.085  c-0.537,0-1.119-0.147-1.73-0.438c-0.528-0.251-1.046-0.529-1.553-0.816c-0.129-0.073-0.257-0.147-0.384-0.222  c-0.452-0.267-0.892-0.542-1.306-0.826c-0.036-0.025-0.077-0.049-0.113-0.075c0.019-0.058,0.026-0.12,0.042-0.179  c0.001-0.004,0.004-0.006,0.005-0.01c0.015-0.045,0.029-0.097,0.039-0.136c0.002-0.008,0.001-0.017,0.003-0.025  c0.007-0.03,0.01-0.062,0.016-0.092c0.04-0.219,0.067-0.441,0.067-0.668v-3.146c0-0.227-0.027-0.449-0.067-0.668  c-0.012-0.062-0.028-0.12-0.043-0.181c-0.021-0.088-0.035-0.178-0.062-0.264C56.723,14.268,57.879,13.599,59.067,13.034z   M52.249,15.447c0.174,0,0.332,0.071,0.447,0.186c0.003,0.003,0.007,0.01,0.01,0.014c0.047,0.049,0.085,0.106,0.114,0.168  c0.034,0.073,0.063,0.16,0.063,0.268v3.146c0,0.108-0.029,0.195-0.064,0.268c-0.024,0.052-0.058,0.097-0.094,0.14  c-0.011,0.012-0.022,0.034-0.032,0.043c0,0,0,0,0,0c-0.001,0-0.002,0-0.002,0.001c-0.002,0.002-0.007,0.005-0.01,0.007  c-0.049,0.046-0.105,0.084-0.168,0.113c-0.071,0.034-0.158,0.062-0.265,0.062h-4.496c-0.106,0-0.192-0.028-0.265-0.062  c-0.067-0.031-0.131-0.071-0.183-0.123c-0.003-0.003-0.007-0.01-0.01-0.013c-0.047-0.049-0.085-0.107-0.114-0.169  c-0.034-0.073-0.063-0.16-0.063-0.268v-3.146c0-0.107,0.029-0.194,0.063-0.268c0.029-0.062,0.067-0.12,0.114-0.169  c0.003-0.003,0.007-0.01,0.01-0.013c0.115-0.114,0.273-0.186,0.447-0.186H52.249z M39.201,12.596c0.538,0,1.121,0.147,1.734,0.439  c1.188,0.564,2.344,1.233,3.355,1.936c-0.027,0.086-0.041,0.176-0.062,0.264c-0.015,0.061-0.031,0.119-0.043,0.181  c-0.04,0.219-0.067,0.441-0.067,0.668v3.146c0,0.224,0.025,0.442,0.065,0.658c0.002,0.019,0.001,0.037,0.005,0.056  c0.001,0.003,0.002,0.007,0.003,0.011c0.003,0.013,0.007,0.024,0.01,0.037c0.014,0.059,0.028,0.121,0.048,0.178  c0,0.001,0.001,0.002,0.002,0.003c0.015,0.056,0.022,0.114,0.04,0.169c-0.004,0.003-0.008,0.006-0.012,0.008  c-0.447,0.311-0.931,0.61-1.424,0.901c-0.122,0.072-0.245,0.143-0.37,0.213c-0.505,0.286-1.021,0.564-1.55,0.815  c-0.612,0.291-1.194,0.438-1.732,0.438c-0.037,0-0.066-0.012-0.103-0.013c-0.663-0.026-1.251-0.293-1.728-0.773  c-0.021-0.021-0.038-0.043-0.059-0.065c-0.134-0.143-0.258-0.304-0.374-0.479c-0.027-0.043-0.057-0.085-0.083-0.129  c-0.121-0.199-0.232-0.414-0.33-0.648c-0.01-0.025-0.017-0.047-0.026-0.072c-0.314-0.792-0.49-1.768-0.49-2.88  C36.011,14.629,37.293,12.596,39.201,12.596z M85.862,60.522h-1.014c-0.683,0-1.278,0.46-1.451,1.121  C79.431,76.811,65.697,87.404,50,87.404c-15.696,0-29.43-10.594-33.396-25.762c-0.173-0.66-0.769-1.121-1.451-1.121h-1.014  c-4.212,0-7.639-3.426-7.639-7.638c0-4.212,3.427-7.639,7.639-7.639h1.014c0.683,0,1.278-0.46,1.451-1.121  c2.469-9.443,8.768-17.318,17.395-21.831c0.191,0.381,0.416,0.724,0.656,1.047c0.051,0.069,0.102,0.139,0.155,0.206  c0.09,0.111,0.181,0.22,0.275,0.324c0.092,0.1,0.187,0.194,0.283,0.287c0.073,0.07,0.144,0.143,0.22,0.208  c0.375,0.327,0.785,0.596,1.225,0.808c0.046,0.022,0.092,0.04,0.138,0.061c0.181,0.081,0.366,0.152,0.556,0.213  c0.06,0.019,0.119,0.037,0.18,0.054c0.187,0.053,0.377,0.094,0.571,0.126c0.06,0.01,0.117,0.023,0.177,0.031  c0.25,0.034,0.505,0.056,0.768,0.056c0.491,0,0.99-0.061,1.493-0.182c0.507-0.122,1.018-0.304,1.529-0.547  c0.416-0.198,0.828-0.411,1.235-0.63c0.125-0.067,0.246-0.138,0.37-0.207c0.284-0.159,0.562-0.32,0.838-0.486  c0.133-0.081,0.264-0.162,0.396-0.244c0.269-0.17,0.529-0.342,0.785-0.517c0.111-0.077,0.225-0.151,0.334-0.229  c0.047-0.034,0.099-0.066,0.146-0.1c0.445,0.19,0.928,0.29,1.426,0.29h4.496c0.497,0,0.979-0.1,1.425-0.29  c0.044,0.032,0.093,0.062,0.138,0.094c0.118,0.083,0.239,0.164,0.36,0.246c0.249,0.169,0.502,0.336,0.763,0.501  c0.135,0.085,0.27,0.168,0.406,0.251c0.271,0.165,0.548,0.324,0.828,0.48c0.126,0.071,0.249,0.142,0.376,0.211  c0.407,0.219,0.817,0.431,1.233,0.628c0.255,0.121,0.509,0.227,0.763,0.318c0.762,0.273,1.519,0.412,2.259,0.412c0,0,0,0,0.001,0  c0.26,0,0.515-0.022,0.766-0.056c0.065-0.009,0.128-0.023,0.193-0.034c0.188-0.032,0.372-0.072,0.554-0.123  c0.065-0.018,0.13-0.039,0.193-0.059c0.188-0.061,0.373-0.131,0.553-0.212c0.044-0.02,0.088-0.038,0.131-0.058  c0.841-0.403,1.587-1.019,2.188-1.838c0.035-0.048,0.06-0.108,0.094-0.158c0.191-0.276,0.373-0.567,0.531-0.882  c8.629,4.513,14.926,12.387,17.396,21.83c0.173,0.66,0.769,1.121,1.451,1.121h1.013c4.212,0,7.638,3.427,7.638,7.639  C93.5,57.096,90.074,60.522,85.862,60.522z"></path></svg>