<svg height='100px' width='100px'  fill="#000000" xmlns="http://www.w3.org/2000/svg" xmlns:xlink="http://www.w3.org/1999/xlink" version="1.1" x="0px" y="0px" viewBox="0 0 64 64" style="enable-background:new 0 0 64 64;" xml:space="preserve"><path d="M63,16c0-1.383-0.945-2.539-2.22-2.884C60.919,12.77,61,12.395,61,12c0-1.654-1.346-3-3-3H45.083  C45.036,9,45,8.964,45,8.917c0-0.04,0.029-0.074,0.069-0.081l1.759-0.294C49.245,8.14,51,6.069,51,3.618C51,2.175,49.825,1,48.323,1  c-0.341,0-0.676,0.064-0.994,0.191L46.34,1.587c-2.386,0.955-4.889,1.624-7.438,1.988c-2.156,0.309-4.218,1.162-5.962,2.47L31.667,7  H1v18h22v24h-7c-3.859,0-7,3.141-7,7s3.141,7,7,7h16c4.963,0,9-4.037,9-9V27h15c1.654,0,3-1.346,3-3c0-0.395-0.081-0.77-0.22-1.116  C60.055,22.538,61,21.383,61,20c0-0.395-0.081-0.77-0.22-1.116C62.055,18.538,63,17.383,63,16z M59,12c0,0.552-0.448,1-1,1h-9v-2h9  C58.552,11,59,11.448,59,12z M45.619,11H47v14h-2.28l-2.441-7.323L45.619,11z M39.186,5.556c2.707-0.388,5.363-1.098,7.896-2.111  l0.988-0.396C48.152,3.017,48.237,3,48.382,3C48.723,3,49,3.277,49,3.618c0,1.469-1.052,2.71-2.501,2.951L44.74,6.863  C43.731,7.031,43,7.895,43,8.917c0,0.6,0.258,1.137,0.665,1.517l-2.28,4.56L38.3,5.74C38.594,5.673,38.886,5.598,39.186,5.556z   M36.396,6.349L42.613,25h-2.008c-2.012,0-3.962-0.556-5.673-1.6L33.064,8.451l1.076-0.807C34.837,7.122,35.598,6.692,36.396,6.349z   M32.867,23H22.36l4.375-14h4.383L32.867,23z M3,9h21.64l-4.375,14H3V9z M16,61c-2.757,0-5-2.243-5-5s2.243-5,5-5h11.111  C25.81,52.272,25,54.042,25,56s0.81,3.728,2.111,5H16z M32,61c-2.757,0-5-2.243-5-5s2.243-5,5-5c1.654,0,3,1.346,3,3s-1.346,3-3,3  c-0.552,0-1-0.448-1-1s0.448-1,1-1h1v-2h-1c-1.654,0-3,1.346-3,3s1.346,3,3,3c2.757,0,5-2.243,5-5s-2.243-5-5-5h-7V25h8.704  c1.613,1.021,3.417,1.66,5.296,1.895V54C39,57.859,35.859,61,32,61z M56,25h-7v-2h7c0.552,0,1,0.448,1,1S56.552,25,56,25z M58,21h-9  v-2h9c0.552,0,1,0.448,1,1S58.552,21,58,21z M60,17H49v-2h11c0.552,0,1,0.448,1,1S60.552,17,60,17z"></path></svg>