<svg height='100px' width='100px'  fill="#000000" xmlns="http://www.w3.org/2000/svg" xmlns:xlink="http://www.w3.org/1999/xlink" version="1.1" x="0px" y="0px" viewBox="0 0 64 64" enable-background="new 0 0 64 64" xml:space="preserve"><g><g><path d="M60.395,25.03c-1.204-1.998-3.954-2.942-6.12-3.016C51.72,9.944,42.702,1,32,1S12.28,9.944,9.725,22.015    c-2.166,0.073-4.916,1.018-6.12,3.016c-0.597,0.991-1.055,2.652,0.154,4.938c0.449,0.849,0.736,1.703,1.013,2.529    c0.74,2.206,1.508,4.485,5.189,4.502c1.627,6.634,5.223,12.242,9.96,15.816l-5.754,8.63l1.664,1.109l5.74-8.61    C24.705,55.893,28.247,57,32,57s7.295-1.107,10.428-3.056l5.74,8.61l1.664-1.109l-5.754-8.63c4.738-3.574,8.333-9.182,9.96-15.816    c3.681-0.017,4.449-2.296,5.189-4.502c0.277-0.826,0.564-1.68,1.013-2.529C61.45,27.683,60.992,26.021,60.395,25.03z M12.298,20    c0.417-1.395,0.932-2.729,1.527-4h36.35c0.595,1.271,1.11,2.605,1.527,4H12.298z M31,22v4H11.144c0.128-1.369,0.342-2.704,0.635-4    H31z M46.314,10c1.047,1.21,1.992,2.55,2.823,4H14.863c0.831-1.45,1.776-2.79,2.823-4H46.314z M44.361,8H19.639    C23.109,4.86,27.382,3,32,3S40.891,4.86,44.361,8z M6.668,31.86C6.38,31,6.052,30.025,5.527,29.032    c-0.628-1.188-0.697-2.16-0.208-2.97c0.708-1.176,2.497-1.876,4.051-2.029C9.131,25.646,9,27.304,9,29    c0,2.05,0.187,4.046,0.532,5.972C7.689,34.832,7.337,33.852,6.668,31.86z M32,55c-11.58,0-21-11.664-21-26    c0-0.335,0.01-0.667,0.021-1H32c0.552,0,1-0.448,1-1v-5h19.221C52.725,24.229,53,26.575,53,29C53,43.336,43.58,55,32,55z     M58.473,29.032C57.948,30.025,57.62,31,57.332,31.86c-0.668,1.991-1.021,2.972-2.863,3.111C54.813,33.046,55,31.05,55,29    c0-1.696-0.131-3.354-0.37-4.967c1.555,0.153,3.343,0.853,4.051,2.029C59.17,26.873,59.102,27.844,58.473,29.032z"></path><path d="M47,31c0,2.206-1.794,4-4,4s-4-1.794-4-4h-2c0,3.309,2.691,6,6,6s6-2.691,6-6H47z"></path><path d="M28,31h-2c0,2.206-1.794,4-4,4s-4-1.794-4-4h-2c0,3.309,2.691,6,6,6S28,34.309,28,31z"></path><path d="M32,44c-3.309,0-6,2.691-6,6h2c0-2.206,1.794-4,4-4s4,1.794,4,4h2C38,46.691,35.309,44,32,44z"></path></g></g></svg>