<svg height='100px' width='100px'  fill="#000000" xmlns="http://www.w3.org/2000/svg" viewBox="0 0 36 36" x="0px" y="0px"><defs><style>.cls-1{fill:none;}</style></defs><title>Монтажная область 36</title><path class="cls-1" d="M20.76,5.94A22.38,22.38,0,0,0,14,2.82c-3.74-1-8.68-1.33-11.06,3-2.25,4.14-1.65,6.84-.34,8s3.32,1,5.05-.27a3.05,3.05,0,0,1,2.72-.63c1.56.42,3,2.17,4.27,5.2a.51.51,0,0,1-.08.49.49.49,0,0,1-.47.15,8.57,8.57,0,0,0-7.31,1.62.5.5,0,0,0-.18.31.44.44,0,0,0,.09.35.48.48,0,0,0,.66.1,7.6,7.6,0,0,1,7.9-1,.43.43,0,0,1,.23.25,0,0,0,0,1,0,0c.17.51.3,1,.42,1.42v0a.46.46,0,0,1-.46.57,8.55,8.55,0,0,0-7.34,4.38.48.48,0,0,0,.16.65A.49.49,0,0,0,9,27.34,7.59,7.59,0,0,1,16,23.43a.47.47,0,0,1,.4.33,9,9,0,0,0,.65,1.5.48.48,0,0,1,.08.16.47.47,0,0,1-.24.53,8.54,8.54,0,0,0-4.6,7.37.49.49,0,0,0,.45.5.49.49,0,0,0,.5-.45,7.56,7.56,0,0,1,4.27-6.67.47.47,0,0,1,.57.15c1.76,2.28,5.85,5.8,13.52,3.72a3.54,3.54,0,0,0,2.73-2.27c1.4-4.22-4.41-12.54-8-17.13A24.66,24.66,0,0,0,20.76,5.94Z"></path><path d="M27.09,10.59A24.81,24.81,0,0,0,14.28,1.9C8.54.33,4.23,1.57,2.14,5.39S0,12.75,2,14.54c1.64,1.42,4.14,1.33,6.23-.22a2.13,2.13,0,0,1,1.91-.48c1.1.3,2.25,1.65,3.28,3.84a9.52,9.52,0,0,0-7.18,1.95,1.46,1.46,0,0,0-.56.94A1.42,1.42,0,0,0,6,21.62a1.46,1.46,0,0,0,2,.29,6.71,6.71,0,0,1,6.75-1l.18.61a9.53,9.53,0,0,0-7.54,4.81,1.43,1.43,0,0,0,.49,1.95,1.45,1.45,0,0,0,1.94-.49,6.71,6.71,0,0,1,5.87-3.46,10.09,10.09,0,0,0,.42,1,9.44,9.44,0,0,0-4.68,7.91,1.43,1.43,0,0,0,1.41,1.5,1.42,1.42,0,0,0,1.42-1.34,6.65,6.65,0,0,1,3.39-5.69c2,2.46,6.41,5.88,14.28,3.75a4.46,4.46,0,0,0,3.37-2.88,5.34,5.34,0,0,0,.26-1.72C35.5,22.35,31.08,15.68,27.09,10.59ZM34.35,28.3a3.54,3.54,0,0,1-2.73,2.27C24,32.65,19.86,29.13,18.1,26.85a.47.47,0,0,0-.57-.15,7.56,7.56,0,0,0-4.27,6.67.49.49,0,0,1-.5.45.49.49,0,0,1-.45-.5A8.54,8.54,0,0,1,16.91,26a.47.47,0,0,0,.24-.53.48.48,0,0,0-.08-.16,9,9,0,0,1-.65-1.5.47.47,0,0,0-.4-.33A7.59,7.59,0,0,0,9,27.34a.49.49,0,0,1-.65.16.48.48,0,0,1-.16-.65,8.55,8.55,0,0,1,7.34-4.38.46.46,0,0,0,.46-.57v0c-.12-.44-.25-.91-.42-1.42a0,0,0,0,0,0,0,.43.43,0,0,0-.23-.25,7.6,7.6,0,0,0-7.9,1,.48.48,0,0,1-.66-.1.44.44,0,0,1-.09-.35.5.5,0,0,1,.18-.31,8.57,8.57,0,0,1,7.31-1.62.49.49,0,0,0,.47-.15.51.51,0,0,0,.08-.49c-1.28-3-2.71-4.78-4.27-5.2a3.05,3.05,0,0,0-2.72.63C6,14.84,3.92,15,2.63,13.83S.72,10,3,5.84c2.38-4.35,7.32-4,11.06-3a22.38,22.38,0,0,1,6.73,3.12,24.66,24.66,0,0,1,5.58,5.23C29.94,15.76,35.75,24.08,34.35,28.3Z"></path><path d="M26,19.05a3.79,3.79,0,1,0,3.79,3.79A3.79,3.79,0,0,0,26,19.05Zm0,6.62a2.84,2.84,0,1,1,2.84-2.83A2.83,2.83,0,0,1,26,25.67Z"></path><path d="M23.21,14.32a2.84,2.84,0,1,0-2.84,2.84A2.84,2.84,0,0,0,23.21,14.32Zm-2.84,1.9a1.9,1.9,0,1,1,1.89-1.9A1.9,1.9,0,0,1,20.37,16.22Z"></path><path d="M15.17,5.81a2.37,2.37,0,1,0,2.36,2.37A2.37,2.37,0,0,0,15.17,5.81Zm0,3.79a1.42,1.42,0,1,1,1.42-1.42A1.43,1.43,0,0,1,15.17,9.6Z"></path><path d="M5.71,6.76A1.42,1.42,0,1,0,7.13,8.18,1.42,1.42,0,0,0,5.71,6.76Zm0,1.89a.47.47,0,0,1-.47-.47.47.47,0,1,1,.94,0A.47.47,0,0,1,5.71,8.65Z"></path></svg>