<svg height='100px' width='100px'  fill="#000000" xmlns="http://www.w3.org/2000/svg" viewBox="0 0 64 68" x="0px" y="0px"><path fill="#000000" d="M588,798 L588,796 C588,791.581722 591.581722,788 596,788 L600,788 C601.104569,788 602,788.895431 602,790 C602,791.104569 601.104569,792 600,792 L596,792 C593.790861,792 592,793.790861 592,796 L592,800 C592,813.254834 581.254834,824 568,824 L562,824 C548.745166,824 538,813.254834 538,800 C538,786.745166 548.745166,776 562,776 L566,776 C567.104569,776 568,776.895431 568,778 L568,796 C568,797.104569 568.895431,798 570,798 L588,798 Z M564,780 L562,780 C550.954305,780 542,788.954305 542,800 C542,811.045695 550.954305,820 562,820 L568,820 C578.370696,820 586.897801,812.106645 587.90125,802 L570,802 C566.686292,802 564,799.313708 564,796 L564,780 Z M552,844 C547.581722,844 544,840.418278 544,836 C544,831.581722 547.581722,828 552,828 C556.418278,828 560,831.581722 560,836 C560,840.418278 556.418278,844 552,844 Z M552,840 C554.209139,840 556,838.209139 556,836 C556,833.790861 554.209139,832 552,832 C549.790861,832 548,833.790861 548,836 C548,838.209139 549.790861,840 552,840 Z M576,844 C571.581722,844 568,840.418278 568,836 C568,831.581722 571.581722,828 576,828 C580.418278,828 584,831.581722 584,836 C584,840.418278 580.418278,844 576,844 Z M576,840 C578.209139,840 580,838.209139 580,836 C580,833.790861 578.209139,832 576,832 C573.790861,832 572,833.790861 572,836 C572,838.209139 573.790861,840 576,840 Z" transform="translate(-538 -776)"></path></svg>