<svg height='100px' width='100px'  fill="#000000" xmlns="http://www.w3.org/2000/svg" viewBox="0 0 48 48" x="0px" y="0px"><title>13 cleaning hand</title><path d="M47.82,36.273a2.793,2.793,0,0,0-1.69-3.32,2.76,2.76,0,0,0,.686-1.194,2.8,2.8,0,0,0-1.956-3.412L26.2,23.224c1.848-1.121,4.827-3.1,6.171-4.944,1.916-2.63.285-5.893.215-6.03a.754.754,0,0,0-.465-.38.746.746,0,0,0-.594.081l-5.8,3.543c-.56.213-4.273,1.633-6.459,2.667-2.142,1.013-7.383,5.722-8.658,6.881L.963,23.363a.75.75,0,0,0-.258,1.478l10.016,1.741a.749.749,0,0,0,.637-.186c1.763-1.622,6.739-6.02,8.555-6.879,2.265-1.07,6.374-2.63,6.415-2.646a.689.689,0,0,0,.125-.061L31.542,13.7a4.208,4.208,0,0,1-.383,3.7c-1.777,2.439-7.186,5.388-7.241,5.418a.75.75,0,0,0,.159,1.383l20.387,5.6a1.289,1.289,0,0,1-.676,2.487L31.543,28.99a.75.75,0,1,0-.389,1.448l11.94,3.208,2.36.647a1.3,1.3,0,0,1-.645,2.515l-1.871-.495c-.021-.006-.04-.016-.061-.022l-.361-.09-.016,0h0l-12.03-3a.75.75,0,1,0-.363,1.455l12.008,2.994h0l.429.114a1.069,1.069,0,0,1-.5,2.077l-12.982-2.6a.75.75,0,0,0-.3,1.471l9.8,1.964a.68.68,0,0,1,.406.3.629.629,0,0,1,.064.49c-.123.461-.718.5-1.023.483-.157-.015-15.662-1.577-20.84-2.692l-7.112-2.679a.76.76,0,0,0-.358-.043L.741,37.655a.75.75,0,0,0,.186,1.488l8.778-1.1,6.99,2.632a.679.679,0,0,0,.106.032c5.207,1.134,20.417,2.666,21.1,2.734.068,0,.135,0,.2,0a2.276,2.276,0,0,0,2.385-1.595,2.144,2.144,0,0,0,.059-.787l1.205.242a2.546,2.546,0,0,0,.5.05,2.581,2.581,0,0,0,2.487-1.906,2.543,2.543,0,0,0,.033-1.15,2.613,2.613,0,0,0,3.048-2.03Z"></path><path d="M17.14,16.787A.75.75,0,1,0,18.148,17.9c.2-.179,4.847-4.423,6.122-7.529,1.233-3.011-1.128-5.791-1.229-5.907A.75.75,0,0,0,22.5,4.2a.777.777,0,0,0-.557.221L17.155,9.246c-.492.34-3.759,2.6-5.636,4.13-1.34,1.088-3.776,4.416-5.584,7.016a.749.749,0,0,0,.188,1.044.741.741,0,0,0,.427.134.75.75,0,0,0,.617-.322,43.473,43.473,0,0,1,5.3-6.708c1.944-1.58,5.563-4.074,5.6-4.1a.7.7,0,0,0,.107-.089l4.2-4.235A4.2,4.2,0,0,1,22.881,9.8C21.735,12.592,17.186,16.746,17.14,16.787Z"></path><path d="M27.924,11.291a.75.75,0,1,0,1.355.643,2.921,2.921,0,0,1,5.361.18,5.238,5.238,0,0,0-.376,1.928.75.75,0,1,0,1.5,0,3.781,3.781,0,0,1,7.49-.734,4.393,4.393,0,0,0-2.572.966.75.75,0,1,0,.945,1.164A2.888,2.888,0,0,1,45.905,19.2a.751.751,0,0,0,1.276.791,4.369,4.369,0,0,0-2.406-6.471,5.238,5.238,0,0,0-9.229-2.887,4.4,4.4,0,0,0-3.62-1.872A4.451,4.451,0,0,0,27.924,11.291Z"></path><path d="M37.722,3.884a3.566,3.566,0,1,0-3.566,3.565A3.57,3.57,0,0,0,37.722,3.884Zm-5.632,0a2.066,2.066,0,1,1,2.066,2.065A2.068,2.068,0,0,1,32.09,3.884Z"></path><path d="M46.424,28.541a.751.751,0,0,0,.977-.412,5.934,5.934,0,0,0-5.5-8.166c-.135,0-.264.026-.4.035A2.794,2.794,0,0,0,38.8,17.17l-4.391-.12a.725.725,0,0,0-.77.729.75.75,0,0,0,.729.77l4.391.12A1.231,1.231,0,0,1,39.944,20.3a5.933,5.933,0,0,0-1.69.932l-6.568-.143h-.017a.75.75,0,0,0-.017,1.5l5.265.115a5.869,5.869,0,0,0-.837,2.07.75.75,0,1,0,1.473.281,4.432,4.432,0,1,1,8.459,2.5A.75.75,0,0,0,46.424,28.541Z"></path><path d="M16.514,44.428a11.857,11.857,0,0,0,3.053.394,9.915,9.915,0,0,0,2-.181.75.75,0,1,0-.326-1.464,10.138,10.138,0,0,1-4.345-.2,16.2,16.2,0,0,1-2.983-1.253.749.749,0,0,0-.725,1.312A17.393,17.393,0,0,0,16.514,44.428Z"></path><path d="M12.768,45.992a10.522,10.522,0,0,0,3.425,1.436,12.562,12.562,0,0,0,2.412.254,5.89,5.89,0,0,0,1.282-.113.75.75,0,0,0-.346-1.46,8.35,8.35,0,0,1-3.058-.153,9.119,9.119,0,0,1-2.878-1.208.75.75,0,0,0-.837,1.244Z"></path></svg>