<svg height='100px' width='100px'  fill="#000000" xmlns="http://www.w3.org/2000/svg" viewBox="0 0 64 64" x="0px" y="0px"><path d="M3,62H55a6.99634,6.99634,0,0,0,6.94824-7.833L60,42.91406V3a.99943.99943,0,0,0-1-1H39a.99943.99943,0,0,0-1,1V40.46484L23.62891,50.04492,10.92383,52H7a5.00588,5.00588,0,0,0-5,5v4A.99943.99943,0,0,0,3,62Zm30.80859-2L31.12012,47.45508l7.05029-4.69989L39.89453,60ZM40,24H58v8H40ZM58,41.89453l-18-1.7998V34H58ZM41.90527,60,40.11676,42.11676l7.97406.79742L49.88965,60Zm16.82032-1.666A5.00469,5.00469,0,0,1,55,60H51.8999L50.12274,43.11737l8.02161.80212,1.8244,10.52875A5.0016,5.0016,0,0,1,58.72559,58.334ZM58,4V22H40V4ZM24.15234,51.98828a1.00131,1.00131,0,0,0,.40235-.15625l4.77594-3.184L31.76318,60H12V53.8584ZM10,60H8V54h2ZM4,57a3.0062,3.0062,0,0,1,2-2.8291V60H4Z"></path><path d="M25.64648,41.7627A.99735.99735,0,0,0,26,41V35.18066l4.83594.80567A1.00015,1.00015,0,0,0,32,35V31.85059L34.21875,34.625a1.00049,1.00049,0,0,0,1.5625-1.25l-4-5A1.00048,1.00048,0,0,0,30,29v4.81934l-4.83594-.80567a1.0096,1.0096,0,0,0-.81054.22363A.99735.99735,0,0,0,24,34v5.81934l-4.83594-.80567a1.00019,1.00019,0,0,0-.80468,1.75488l6,5a1.00053,1.00053,0,0,0,1.28124-1.5371l-3.167-2.63868,2.36231.39356A1.0051,1.0051,0,0,0,25.64648,41.7627Z"></path></svg>