<svg height='100px' width='100px'  fill="#000000" xmlns="http://www.w3.org/2000/svg" xmlns:xlink="http://www.w3.org/1999/xlink" version="1.2" baseProfile="tiny" x="0px" y="0px" viewBox="0 0 100 100" xml:space="preserve"><g><path d="M88,44.8c-0.6,0-1.2,0-1.8,0.1C81,32.4,69.5,23.5,56.3,21.3c3-2,4.9-5.4,4.9-9.3c0-6.2-5-11.2-11.2-11.2   c-4.5,0-8.2,3.7-8.2,8.2s3.7,8.2,8.2,8.2c2.9,0,5.2-2.4,5.2-5.2S52.9,6.8,50,6.8c-0.7,0-1.2,0.6-1.2,1.2s0.6,1.2,1.2,1.2   c1.5,0,2.8,1.2,2.8,2.8s-1.2,2.8-2.8,2.8c-3.2,0-5.8-2.6-5.8-5.8s2.6-5.8,5.8-5.8c4.8,0,8.8,3.9,8.8,8.8s-3.9,8.8-8.8,8.8   c-15.8,0-30.2,9.7-36.2,24.1c-0.6-0.1-1.2-0.1-1.8-0.1c-6.2,0-11.2,5-11.2,11.2c0,6,4.7,10.9,10.7,11.2c3.5,18.6,19.5,32,38.6,32   s35.1-13.4,38.6-32C94.5,66.9,99.2,62,99.2,56C99.2,49.8,94.2,44.8,88,44.8z M88,64.8c-0.1,0-0.1,0-0.2,0h-0.2   c-0.7,0-1.2,0.4-1.3,1.1c-2.8,17.9-18.1,31-36.3,31s-33.5-13-36.3-31c-0.1-0.6-0.6-1.1-1.2-1.1c0,0,0,0-0.1,0h-0.2   c-0.1,0-0.1,0-0.2,0c-4.8,0-8.8-3.9-8.8-8.8c0-5.5,5.2-10,11-8.5c0.6,0.2,1.3-0.2,1.5-0.8c5.4-14,19.2-23.5,34.3-23.5   s28.9,9.5,34.3,23.5c0.2,0.6,0.9,0.9,1.5,0.8c5.8-1.5,11,2.9,11,8.5C96.8,60.8,92.8,64.8,88,64.8z"></path><path d="M38,45.2c3.7,0,6.8,3,6.8,6.8c0,0.7,0.6,1.2,1.2,1.2s1.2-0.6,1.2-1.2c0-5.1-4.1-9.2-9.2-9.2s-9.2,4.1-9.2,9.2   c0,0.7,0.6,1.2,1.2,1.2s1.2-0.6,1.2-1.2C31.2,48.3,34.3,45.2,38,45.2z"></path><path d="M62,42.8c-5.1,0-9.2,4.1-9.2,9.2c0,0.7,0.6,1.2,1.2,1.2s1.2-0.6,1.2-1.2c0-3.7,3-6.8,6.8-6.8c3.8,0,6.8,3,6.8,6.8   c0,0.7,0.6,1.2,1.2,1.2s1.2-0.6,1.2-1.2C71.2,46.9,67.1,42.8,62,42.8z"></path><path d="M66.2,73c0-9-7.3-16.2-16.2-16.2S33.8,64,33.8,73c0,0.2,0,0.5,0,0.7c-1.4,1.4-2,3.4-2,6.3c0,9.3,7.2,15.2,18.2,15.2   s18.2-6,18.2-15.2c0-2.9-0.7-4.9-2-6.3C66.2,73.5,66.2,73.2,66.2,73z M42.8,74.1c0.2,1.2,0.7,2.4,1.5,3.4c1.2,1.5,3,2.4,4.9,2.6   c0.3,0,0.5,0,0.8,0c3.5,0,6.6-2.6,7.1-6.1c2.7-0.1,5-0.1,6.5,0.7c-0.9,6.7-6.7,11.9-13.6,11.9c-7,0-12.7-5.2-13.6-11.9   C37.9,74.1,40.1,74,42.8,74.1z M45.3,72.5c0.3-2.4,2.3-4.3,4.7-4.3c0.2,0,0.3,0,0.5,0c2.6,0.3,4.5,2.6,4.2,5.2s-2.6,4.5-5.2,4.2   c-1.3-0.1-2.4-0.7-3.2-1.7S45.1,73.8,45.3,72.5z M50,59.2c7.3,0,13.3,5.7,13.7,12.9c-1.8-0.6-4-0.7-6.6-0.6   c-0.6-3.1-3.1-5.5-6.4-5.8c-3.8-0.4-7.2,2.2-7.9,5.8c-2.6-0.1-4.8-0.1-6.6,0.6C36.7,65,42.7,59.2,50,59.2z M65.8,80   c0,9.4-8.1,12.8-15.8,12.8S34.2,89.4,34.2,80c0-0.9,0.1-1.6,0.2-2.2c2,6.7,8.2,11.5,15.5,11.5s13.5-4.9,15.5-11.5   C65.7,78.4,65.8,79.1,65.8,80z"></path><path d="M12,49.8c-3.4,0-6.2,2.8-6.2,6.2c0,0.7,0.6,1.2,1.2,1.2s1.2-0.6,1.2-1.2c0-2.1,1.7-3.8,3.8-3.8c0.7,0,1.2-0.6,1.2-1.2   S12.7,49.8,12,49.8z"></path><path d="M88,49.8c-0.7,0-1.2,0.6-1.2,1.2s0.6,1.2,1.2,1.2c2.1,0,3.8,1.7,3.8,3.8c0,0.7,0.6,1.2,1.2,1.2s1.2-0.6,1.2-1.2   C94.2,52.6,91.4,49.8,88,49.8z"></path></g></svg>