<svg height='100px' width='100px'  fill="#000000" xmlns="http://www.w3.org/2000/svg" xmlns:xlink="http://www.w3.org/1999/xlink" version="1.1" x="0px" y="0px" viewBox="0 0 100 100" enable-background="new 0 0 100 100" xml:space="preserve"><g><path fill="#000000" d="M58.7,32.6c3.6,0,6.6-3,6.6-6.6s-3-6.6-6.6-6.6s-6.6,3-6.6,6.6S55.1,32.6,58.7,32.6z M58.7,22.6v7   c-1.9,0-3.5-1.6-3.5-3.5S56.8,22.6,58.7,22.6z"></path><path fill="#000000" d="M42.3,32.6c3.6,0,6.6-3,6.6-6.6s-3-6.6-6.6-6.6s-6.6,3-6.6,6.6S38.6,32.6,42.3,32.6z M42.3,22.6v7   c-1.9,0-3.5-1.6-3.5-3.5S40.4,22.6,42.3,22.6z"></path><path fill="#000000" d="M46.1,33.8c0,1.3,1.4,3,2.8,3.8c-0.1,1.1-1,2-2.2,2c-1.2,0-2.2-1-2.2-2.2c0-0.9-0.7-1.5-1.5-1.5   s-1.5,0.7-1.5,1.5c0,2.9,2.4,5.3,5.3,5.3c1.5,0,2.8-0.6,3.7-1.6c1,1,2.3,1.6,3.7,1.6c2.9,0,5.3-2.4,5.3-5.3c0-0.9-0.7-1.5-1.5-1.5   s-1.5,0.7-1.5,1.5c0,1.2-1,2.2-2.2,2.2c-1.1,0-2.1-0.9-2.2-2c1.4-0.9,2.8-2.6,2.8-3.8c0-1.7-2.6-2.2-4.4-2.2   C48.8,31.6,46.1,32.1,46.1,33.8z"></path><path fill="#000000" d="M87.2,71.3c-2-1.1-4.2-1.5-6.5-1.1c-2.8,0.5-5.5,0-7.9-1.3l-3.5-1.9c0.2-0.7,0.3-1.5,0.3-2.2l6.6,2   c1,0.3,2,0.4,3,0.4c1.7,0,3.3-0.4,4.8-1.2c2.4-1.3,4.2-3.4,4.9-6.1l0-0.1c1.6-5.3-1.4-11-6.8-12.6l-13.2-4   c-0.7-0.2-1.5-0.4-2.3-0.4c1.5-1.6,2.8-3.5,3.8-5.5c1.5-3,2.2-6.3,2.2-9.7c0-1.2-0.1-2.3-0.3-3.4l1-0.8c0,0,0,0,0.1,0   c4-3.3,4.6-9.2,1.4-13.2c-1.6-2-3.8-3.2-6.3-3.5C66.3,6.4,64,7,62.1,8.5c-3.4-2.1-7.3-3.2-11.6-3.2c-4.2,0-8.2,1.2-11.5,3.2   c-4-3.1-9.8-2.4-13,1.6c-1.6,2-2.3,4.4-2,6.9c0.3,2.5,1.5,4.8,3.5,6.3c0,0,0,0,0.1,0l1.1,0.8c-0.2,1.1-0.3,2.3-0.3,3.4   c0,3.4,0.7,6.6,2.2,9.7c1,2,2.3,3.9,3.8,5.5c-0.7,0.1-1.4,0.2-2.2,0.4l-13.4,4.1c-5.4,1.6-8.5,7.3-6.8,12.7c0.8,2.6,2.5,4.8,5,6   c1.5,0.8,3.2,1.2,4.8,1.2c1,0,2-0.1,3-0.4l6.8-2.1c0.1,0.8,0.2,1.5,0.3,2.2l-3.6,1.9c-2.3,1.3-5.1,1.8-7.9,1.3   c-2.2-0.4-4.5,0-6.5,1.1c-2.3,1.3-4,3.4-4.7,6s-0.4,5.3,0.9,7.6l2.7,4.8c1.3,2.3,3.4,4,6,4.7c0.9,0.3,1.8,0.4,2.7,0.4   c1.7,0,3.4-0.4,4.9-1.3c0,0,0.1,0,0.1-0.1c0,0,0.1,0,0.1-0.1l20.6-11.4c1.2,0.2,2.3,0.3,3.6,0.3c1.3,0,2.5-0.1,3.7-0.4l20.5,11.4   c0,0,0.1,0,0.1,0.1c0,0,0.1,0,0.1,0.1c1.5,0.9,3.2,1.3,4.8,1.3c0.9,0,1.8-0.1,2.7-0.4c2.6-0.7,4.7-2.4,6-4.7l2.7-4.8   C93.6,80.1,92,74,87.2,71.3z M81.4,50.2c3.7,1.1,5.8,5.1,4.7,8.8l0,0.1c-0.5,1.8-1.8,3.3-3.4,4.2c-1.7,0.9-3.6,1.1-5.4,0.5   l-7.5-2.3c-0.3-5-2.4-10.7-5.4-15.4c1.3-0.3,2.6-0.3,3.9,0.1L81.4,50.2z M68.4,9.7c1.7,0.2,3.2,1,4.2,2.3c2.1,2.7,1.8,6.6-0.9,8.8   c-1.3-4.1-3.8-7.7-7-10.4C65.9,9.8,67.1,9.6,68.4,9.7z M27,16.7c-0.2-1.7,0.3-3.3,1.4-4.7s2.6-2.1,4.3-2.3c1.3-0.1,2.6,0.1,3.7,0.7   c-3.3,2.7-5.7,6.3-7,10.5C28,19.8,27.2,18.3,27,16.7z M31.3,27.6c0-10.6,8.6-19.2,19.2-19.2S69.7,17,69.7,27.6   c0,2.9-0.6,5.7-1.9,8.3c-3.2,6.6-10,10.9-17.3,10.9c-7.3,0-14.1-4.3-17.3-10.9C31.9,33.3,31.3,30.5,31.3,27.6z M23.6,63.8   c-1.8,0.6-3.8,0.4-5.4-0.5c-1.7-0.9-2.9-2.4-3.5-4.2c-1.1-3.8,1-7.7,4.8-8.9l13.4-4.1c1.2-0.4,2.6-0.4,3.8-0.1   c-3.1,4.7-5.1,10.5-5.4,15.5L23.6,63.8z M24.8,90.6L24.8,90.6c-0.1,0-0.1,0.1-0.1,0.1l-0.1,0.1c-1.6,0.9-3.5,1.1-5.2,0.6   c-1.8-0.5-3.2-1.6-4.1-3.3l-2.7-4.8c-0.9-1.6-1.1-3.5-0.6-5.2c0.5-1.8,1.6-3.2,3.3-4.1c1.4-0.8,2.9-1,4.5-0.8c3.5,0.6,7,0,9.9-1.6   l3-1.6c1.9,4.8,5.6,8.6,10.3,10.7L24.8,90.6z M34.3,63c0-4.9,2.2-11.2,5.4-15.9c3.2,1.8,6.9,2.8,10.7,2.8s7.5-1,10.7-2.8   c3.3,4.7,5.4,11,5.4,15.9c0,8.9-7.2,16.2-16.2,16.2S34.3,71.9,34.3,63z M88.3,83.4l-2.7,4.8c-0.9,1.6-2.4,2.8-4.1,3.3   c-1.7,0.5-3.6,0.3-5.1-0.6l-0.1,0c0,0,0,0,0,0l-18-10.1c4.7-2.1,8.3-5.9,10.2-10.7l2.9,1.6c2.9,1.6,6.4,2.2,9.9,1.6   c1.5-0.3,3.1,0,4.4,0.8C89,75.8,90.1,80.1,88.3,83.4z"></path></g></svg>