<svg height='100px' width='100px'  fill="#000000" xmlns="http://www.w3.org/2000/svg" xmlns:xlink="http://www.w3.org/1999/xlink" version="1.1" x="0px" y="0px" viewBox="0 0 512 512" style="enable-background:new 0 0 512 512;" xml:space="preserve"><g><path d="M493.9,36.4c-5.9-6.5-13.9-10.2-22-10.2H318.2c-8.1,0-16.1,3.7-22,10.2c-6.3,6.9-9.4,16.3-8.4,25.6l2.7,27.5   c0,0.4,0,0.8,0.1,1.2l26.7,268.8c0,0.2,0.1,0.4,0.1,0.6l5.2,48.7c1.1,10.4,8.1,17.7,16.8,17.7h11.3v30.1c0,16,10.4,29.1,23.2,29.1   h47.3c12.8,0,23.2-13.1,23.2-29.1v-30.1h6.4c8.8,0,15.7-7.3,16.9-17.7l5.4-49.5c0-0.3,0-0.6,0-1L502.4,62   C503.3,52.7,500.2,43.3,493.9,36.4z M308.1,47.1c2.3-2.5,5.1-4.1,8-4.7V67c0,4.4,3.6,8,8,8s8-3.6,8-8V42.2h12.4V67c0,4.4,3.6,8,8,8   s8-3.6,8-8V42.2h12.4V67c0,4.4,3.6,8,8,8s8-3.6,8-8V42.2h12.4V67c0,4.4,3.6,8,8,8s8-3.6,8-8V42.2h12.4V67c0,4.4,3.6,8,8,8   s8-3.6,8-8V42.2h12.4V67c0,4.4,3.6,8,8,8s8-3.6,8-8V42.4c2.9,0.6,5.7,2.2,8,4.7c3.3,3.6,4.9,8.5,4.4,13.3l-2.1,20.9H305.8   l-2.1-20.9C303.2,55.6,304.8,50.7,308.1,47.1z M457.7,350.5H332.5L307.3,97.3h175.5L457.7,350.5z M428.3,456.7   c0,8-4.3,13.1-7.2,13.1h-47.3c-2.9,0-7.2-5.1-7.2-13.1v-30.1h61.6v30.1H428.3z M450.4,410.6h-14.1h-77.6h-19   c-0.4-0.4-1-1.6-1.2-3.5l-4.3-40.4H456l-4.4,40.4C451.4,409,450.8,410.2,450.4,410.6z"></path><path d="M395.1,136.2c-33.2,0-60.3,27.1-60.3,60.3s27,60.3,60.3,60.3c33.2,0,60.3-27,60.3-60.3   C455.3,163.2,428.3,136.2,395.1,136.2z M395.1,240.8c-24.4,0-44.3-19.9-44.3-44.3s19.9-44.3,44.3-44.3s44.3,19.9,44.3,44.3   C439.3,220.9,419.5,240.8,395.1,240.8z"></path><path d="M258.2,121.7c-4.7-3.4-10.3-5.1-16-5.1c-5,0-9.9,1.4-14.1,3.8l-27.6-19.6c-3.6-2.6-8.6-1.7-11.2,1.9s-1.7,8.6,1.9,11.2   l25.6,18.2l-5.3,7.5l-25.6-18.2c-2.2-1.5-4.8-1.8-7.2-1c4.1-9.6,4.3-15,3.4-18.9c-0.8-3.9-3-7-6.4-9c-2.4-1.4-5.4-2.2-8.7-2.2   c-8.7,0-19.8,4.7-32.3,10.3l-2.2,1c-1.9,0.8-3.6,2.1-5,3.9c-3.5,4.3-4.1,9.3-1.6,13c0.1,0.1,0.1,0.2,0.2,0.2   c2.9,4-5.9,18.8-10.8,26.8c-9.5,15.9-19.2,32.3-9.1,43.3c0.8,0.9,1.7,1.6,2.7,2.1c0.2,0.1,0.5,0.3,0.7,0.4c1.6,0.8,3.4,1.2,5.3,1.2   c4.4,0,9.6-2.3,15.7-7c-2,3.5-1,8.1,2.3,10.5l25.6,18.2l-4.2,5.9l-25.4,11.6c-5.1,1.9-9.4,5.3-12.6,9.8L14.6,384.9   c-8.9,12.5-5.9,29.8,6.6,38.7c4.7,3.3,10.3,5.1,16,5.1c9,0,17.4-4.4,22.6-11.7l97.5-137.4l26.9-12.3c4.1-1.9,7.7-4.8,10.4-8.3   c0.2-0.2,0.4-0.5,0.6-0.8l69.5-97.8C273.6,147.9,270.6,130.5,258.2,121.7z M182.3,180.6l-25.6-18.2c-0.9-0.7-2-1.1-3.1-1.3   c1.6-2.1,3.2-4.3,4.7-6.5c0.5-0.7,0.9-1.4,1.4-2.1c0.6,0.9,1.3,1.8,2.2,2.4l25.6,18.2L182.3,180.6z M176.6,134.4l25.6,18.2   l-5.3,7.5l-25.6-18.2c-1.1-0.8-2.3-1.2-3.6-1.4c2.3-3.7,4.3-7,6-10.1C174.2,132,175.2,133.4,176.6,134.4z M122.1,171.8   c-1.4,1.2-2.6,2-3.6,2.7c0.3-1,0.7-2.2,1.3-3.7c2.1-5,5.6-10.9,9.4-17.2c7.7-12.8,16.3-27.1,12.7-38.8c7.6-3.4,18.6-8.3,24.6-8.6   c-0.4,3.4-3.4,13.5-21.2,39.2c-1.5,2.1-3,4.2-4.4,6.1C134.6,159.7,127.7,167.1,122.1,171.8z M134.8,181.9c3.2-2.9,6.5-6.2,9.8-9.9   c0.6,1.3,1.5,2.6,2.8,3.5l25.6,18.2l-5.3,7.5L142.1,183C139.9,181.4,137.2,181.1,134.8,181.9z M251.7,151.1l-69,97.1   c-0.2,0.2-0.4,0.4-0.5,0.7c-1.2,1.7-2.8,3-4.6,3.9L148.7,266c-1.3,0.6-2.4,1.5-3.2,2.6L46.8,407.7c-2.2,3.1-5.8,4.9-9.6,4.9   c-2.4,0-4.8-0.7-6.8-2.2c-5.3-3.8-6.5-11.1-2.8-16.4l101.7-143.3c1.4-1.9,3.2-3.4,5.4-4.2c0.2-0.1,0.4-0.1,0.6-0.2l27.6-12.7   c1.3-0.6,2.4-1.5,3.2-2.6l8.7-12.3l1.2-1.6c0.1-0.1,0.1-0.2,0.2-0.2c0.1-0.1,0.1-0.2,0.2-0.3l28.9-40.7l0.1-0.1l0.1-0.1l27.1-38.2   c2.2-3.1,5.8-4.9,9.6-4.9c2.4,0,4.8,0.8,6.8,2.2C254.2,138.5,255.4,145.8,251.7,151.1z"></path></g></svg>