<svg height='100px' width='100px'  fill="#000000" xmlns="http://www.w3.org/2000/svg" xmlns:xlink="http://www.w3.org/1999/xlink" version="1.1" x="0px" y="0px" viewBox="0 0 100 100" enable-background="new 0 0 100 100" xml:space="preserve"><rect fill="none" width="100" height="100"></rect><path d="M73.897,5.36c-4.811,0-8.492,1.433-12.053,2.822c-3.44,1.338-6.692,2.607-11.047,2.607c-3.391,0-5.367-1.092-7.867-2.469  C40.105,6.762,36.905,5,31.706,5c-1.417,0-2.949,0.133-4.546,0.404c-9.982,1.673-15.042,8.971-15.042,21.693  c0,8.169,1.812,13.498,3.728,19.143c1.291,3.807,2.629,7.747,3.684,13.132c0.196,1.011,0.423,2.235,0.675,3.605  C24.11,84.217,27.298,95,33.868,95c6.996,0,8.482-9.243,10.055-19.022c1.212-7.545,2.873-17.874,6.875-17.874  c3.212,0,5.769,12.065,7.146,18.543C60.115,86.899,61.832,95,67.723,95c9.925,0,12.109-17.754,13.7-30.722  c0.24-1.951,0.448-3.681,0.657-5.025c0.864-5.519,1.919-9.477,2.936-13.31c1.534-5.796,2.866-10.809,2.866-18.884  C87.882,21.125,87.882,5.36,73.897,5.36z M78.766,44.29c-1.011,3.801-2.153,8.113-3.068,13.965  c-0.222,1.401-0.442,3.201-0.695,5.234c-1.95,15.891-4.274,24.288-6.913,25.001c-1.376-1.653-2.841-8.548-3.826-13.183  c-2.462-11.636-5.013-23.669-13.465-23.669c-9.512,0-11.5,12.387-13.259,23.31c-0.691,4.3-1.957,12.16-3.495,13.467  c-2.071-1.919-4.587-10.859-7.481-26.605c-0.259-1.401-0.489-2.651-0.688-3.681c-1.14-5.809-2.611-10.14-3.908-13.966  c-1.891-5.568-3.384-9.963-3.384-17.065c0-12.141,5.155-14.565,9.647-15.317c1.247-0.208,2.415-0.315,3.476-0.315  c3.536,0,5.654,1.168,8.104,2.519c2.443,1.345,5.252,2.778,9.303,3.125c-5.751,3.081-11.81,7.046-12.163,7.28  c-0.745,0.492-0.95,1.496-0.461,2.241c0.31,0.474,0.827,0.726,1.351,0.726c0.306,0,0.613-0.082,0.887-0.265  c0.117-0.076,11.87-7.778,17.873-9.931c0.385-0.133,0.669-0.411,0.852-0.739c2.488-0.6,4.71-1.427,6.743-2.216  c3.276-1.275,6.111-2.38,9.704-2.38c3.637,0,7.52,1.174,7.52,15.234C81.417,34.289,80.249,38.702,78.766,44.29z"></path></svg>