<svg height='100px' width='100px'  fill="#000000" xmlns="http://www.w3.org/2000/svg" xmlns:xlink="http://www.w3.org/1999/xlink" version="1.1" x="0px" y="0px" viewBox="0 0 512 512" style="enable-background:new 0 0 512 512;" xml:space="preserve"><g><g><g><path d="M381.784,483.708c-2.56,0-5.118-0.977-7.071-2.929l-62.14-62.14c-3.905-3.905-3.905-10.237,0-14.143     c3.906-3.904,10.236-3.904,14.143,0l62.14,62.14c3.905,3.905,3.905,10.237,0,14.143     C386.902,482.731,384.344,483.708,381.784,483.708z"></path></g><g><path d="M473.708,391.784c-2.56,0-5.118-0.977-7.071-2.929l-63.64-63.64c-3.905-3.905-3.905-10.237,0-14.143     c3.906-3.904,10.236-3.904,14.143,0l63.64,63.64c3.905,3.905,3.905,10.237,0,14.143     C478.826,390.808,476.268,391.784,473.708,391.784z"></path></g><g><path d="M353.5,455.424c-2.56,0-5.118-0.977-7.071-2.929c-3.905-3.905-3.905-10.237,0-14.143l91.924-91.924     c3.906-3.904,10.236-3.904,14.143,0c3.905,3.905,3.905,10.237,0,14.143l-91.924,91.924     C358.618,454.447,356.06,455.424,353.5,455.424z"></path></g><g><path d="M187.33,268.041c-2.56,0-5.118-0.977-7.071-2.929l-14.142-14.143c-3.905-3.905-3.905-10.237,0-14.142     c3.905-3.904,10.237-3.905,14.142,0l14.142,14.143c3.905,3.905,3.905,10.237,0,14.142     C192.448,267.064,189.889,268.041,187.33,268.041z"></path></g><g><path d="M265.111,345.822c-2.56,0-5.118-0.977-7.071-2.929l-14.142-14.142c-3.905-3.905-3.906-10.237,0-14.143     c3.905-3.904,10.237-3.904,14.142,0l14.143,14.142c3.905,3.905,3.905,10.237,0,14.143     C270.229,344.846,267.671,345.822,265.111,345.822z"></path></g><g><path d="M219.149,254.86c-5.523,0-10-4.477-10-10v-20c0-5.523,4.477-10,10-10s10,4.477,10,10v20     C229.149,250.383,224.672,254.86,219.149,254.86z"></path></g><g><path d="M219.149,364.86c-5.523,0-10-4.478-10-10v-20c0-5.522,4.477-10,10-10s10,4.478,10,10v20     C229.149,360.383,224.672,364.86,219.149,364.86z"></path></g><g><path d="M250.969,268.041c-2.559,0-5.118-0.977-7.071-2.929c-3.905-3.905-3.906-10.237,0-14.142l14.142-14.143     c3.906-3.905,10.236-3.906,14.143,0c3.905,3.905,3.905,10.237,0,14.142l-14.143,14.143     C256.088,267.064,253.528,268.041,250.969,268.041z"></path></g><g><path d="M173.188,345.822c-2.56,0-5.118-0.977-7.071-2.929c-3.905-3.905-3.905-10.237,0-14.143l14.142-14.142     c3.905-3.904,10.237-3.903,14.142,0c3.905,3.905,3.905,10.237,0,14.143l-14.142,14.142     C178.306,344.846,175.747,345.822,173.188,345.822z"></path></g><g><path d="M174.149,299.86h-20c-5.523,0-10-4.478-10-10s4.477-10,10-10h20c5.523,0,10,4.478,10,10S179.672,299.86,174.149,299.86z"></path></g><g><path d="M284.149,299.86h-20c-5.522,0-10-4.478-10-10s4.478-10,10-10h20c5.522,0,10,4.478,10,10S289.672,299.86,284.149,299.86z"></path></g><g><path d="M233.278,438.283c-0.002,0-0.002,0-0.004,0c-54.753-0.001-106.227-21.321-144.939-60.034     c-38.719-38.72-60.043-90.199-60.043-144.957S49.615,127.054,88.334,88.335s90.199-60.043,144.957-60.043     c54.757,0,106.238,21.324,144.958,60.043c29.174,29.174,48.671,65.935,56.382,106.309c7.524,39.395,3.463,79.759-11.747,116.73     c-10.313,25.071-25.331,47.571-44.635,66.875c-13.886,13.884-29.61,25.668-46.739,35.025     C301.558,429.635,267.588,438.283,233.278,438.283z M233.292,48.292c-49.416,0-95.873,19.243-130.814,54.186     c-34.942,34.941-54.186,81.399-54.186,130.814c0,49.415,19.243,95.873,54.186,130.814     c34.935,34.936,81.387,54.176,130.797,54.177c30.972,0.001,61.625-7.801,88.648-22.562c15.455-8.442,29.648-19.079,42.185-31.615     c17.426-17.425,30.978-37.727,40.281-60.342c28.509-69.299,12.697-148.309-40.281-201.287     C329.165,67.535,282.707,48.292,233.292,48.292z"></path></g><g><path d="M123.69,352.894c-2.559,0-5.119-0.977-7.071-2.929c-64.334-64.334-64.334-169.012,0-233.346     c64.333-64.333,169.012-64.333,233.346,0c3.905,3.905,3.905,10.237,0,14.143c-3.906,3.904-10.236,3.904-14.143,0     c-56.535-56.537-148.526-56.535-205.061,0c-56.536,56.535-56.536,148.525,0,205.061c3.905,3.905,3.905,10.237,0,14.143     C128.809,351.917,126.249,352.894,123.69,352.894z"></path></g><g><path d="M219.149,344.86c-14.691,0-28.503-5.721-38.891-16.108c-21.444-21.445-21.444-56.338,0-77.782     c10.388-10.388,24.199-16.109,38.891-16.109c14.691,0,28.503,5.721,38.891,16.11c21.444,21.444,21.444,56.336,0,77.782     C247.652,339.14,233.84,344.86,219.149,344.86z M219.149,254.86c-9.349,0-18.138,3.641-24.749,10.252     c-13.647,13.646-13.646,35.851,0,49.497c6.61,6.61,15.399,10.251,24.749,10.251c9.349,0,18.138-3.641,24.749-10.251     c13.646-13.646,13.646-35.852,0-49.497C237.288,258.501,228.498,254.86,219.149,254.86z"></path></g><g><path d="M255.51,198.439c-16.542,0-30-13.458-30-30v-10c0-5.514-4.486-10-10-10s-10,4.486-10,10v10c0,16.542-13.458,30-30,30     s-30-13.458-30-30v-20c0-5.523,4.477-10,10-10s10,4.477,10,10v20c0,5.514,4.486,10,10,10s10-4.486,10-10v-10     c0-16.542,13.458-30,30-30s30,13.458,30,30v10c0,5.514,4.486,10,10,10c5.514,0,10-4.486,10-10v-10c0-16.542,13.458-30,30-30h20     c5.522,0,10,4.477,10,10s-4.478,10-10,10h-20c-5.514,0-10,4.486-10,10v10C285.51,184.981,272.052,198.439,255.51,198.439z"></path></g><g><path d="M339.358,263.292c-8.014,0-15.547-3.12-21.214-8.787c-5.666-5.667-8.787-13.2-8.786-21.213     c0-8.014,3.12-15.547,8.786-21.213c5.667-5.666,13.2-8.787,21.214-8.787c8.013,0,15.547,3.121,21.213,8.787     s8.787,13.2,8.787,21.213c0,8.013-3.121,15.547-8.787,21.213S347.371,263.292,339.358,263.292z M339.358,223.292     c-2.672,0-5.183,1.04-7.071,2.929c-1.889,1.889-2.929,4.399-2.929,7.071c0,2.671,1.04,5.182,2.929,7.071     c1.889,1.889,4.399,2.929,7.071,2.929c2.671,0,5.182-1.04,7.07-2.929c1.889-1.889,2.93-4.4,2.93-7.071     c0-2.671-1.041-5.182-2.93-7.071C344.54,224.332,342.029,223.292,339.358,223.292z"></path></g><g><path d="M311.576,365.97c-5.18,0-10.05-2.017-13.713-5.679c-7.561-7.563-7.561-19.866-0.002-27.428     c3.665-3.664,8.535-5.681,13.715-5.681s10.05,2.017,13.713,5.679c7.561,7.563,7.561,19.866,0.002,27.428     C321.626,363.953,316.756,365.97,311.576,365.97z M311.576,345.97c-0.185,0-0.346,0.096-0.428,0.177     c-0.237,0.238-0.237,0.621-0.002,0.857c0.084,0.083,0.245,0.179,0.43,0.179s0.346-0.096,0.428-0.177     c0.237-0.238,0.237-0.621,0.002-0.857C311.922,346.065,311.761,345.97,311.576,345.97z"></path></g><g><path d="M116.58,226.58c-2.64,0-5.21-1.07-7.08-2.93c-1.86-1.86-2.92-4.44-2.92-7.07c0-2.63,1.06-5.21,2.92-7.08     c1.87-1.86,4.44-2.92,7.08-2.92c2.63,0,5.21,1.06,7.07,2.92c1.86,1.87,2.93,4.44,2.93,7.08c0,2.63-1.07,5.21-2.93,7.07     S119.21,226.58,116.58,226.58z"></path></g><g><path d="M136.58,266.58c-2.64,0-5.21-1.07-7.08-2.931c-1.86-1.859-2.92-4.439-2.92-7.07c0-2.64,1.06-5.21,2.92-7.07     c1.87-1.87,4.44-2.93,7.08-2.93c2.63,0,5.21,1.06,7.07,2.93c1.86,1.86,2.93,4.44,2.93,7.07c0,2.63-1.07,5.201-2.93,7.07     C141.78,265.51,139.21,266.58,136.58,266.58z"></path></g><g><path d="M326.58,186.58c-2.641,0-5.21-1.07-7.08-2.93c-1.86-1.86-2.92-4.44-2.92-7.07c0-2.63,1.06-5.21,2.92-7.08     c1.87-1.86,4.439-2.92,7.08-2.92c2.63,0,5.2,1.06,7.069,2.92c1.86,1.87,2.931,4.45,2.931,7.08c0,2.63-1.07,5.2-2.931,7.07     C331.78,185.51,329.21,186.58,326.58,186.58z"></path></g></g></g></svg>