<svg height='100px' width='100px'  fill="#000000" xmlns="http://www.w3.org/2000/svg" xmlns:xlink="http://www.w3.org/1999/xlink" version="1.1" x="0px" y="0px" viewBox="0 0 512 512" style="enable-background:new 0 0 512 512;" xml:space="preserve"><g><g><g><path d="M305.747,386.58c-20.925,0-46.39-5.817-68.979-11.891c-1.46-0.393-2.7-0.726-3.685-0.981     c-5.346-1.386-8.556-6.844-7.17-12.189c1.386-5.346,6.842-8.562,12.189-7.17c1.031,0.268,2.33,0.616,3.858,1.027     c9.767,2.625,27.949,7.513,46.053,9.898c27.283,3.596,35.75-0.986,38.125-3.122c0.789-0.71,2.638-2.372,1.738-8.07     c-0.861-5.455,2.863-10.576,8.318-11.438c5.451-0.856,10.575,2.863,11.438,8.318c2.144,13.577-3.233,21.666-8.121,26.062     C331.804,383.956,319.798,386.579,305.747,386.58z"></path></g><g><path d="M147.666,449.567h-110c-5.523,0-10-4.478-10-10v-120c0-5.522,4.477-10,10-10h110c5.523,0,10,4.478,10,10v120     C157.666,445.09,153.189,449.567,147.666,449.567z M47.666,429.567h90v-100h-90V429.567z"></path></g><g><path d="M297.167,462.501c0,0-0.001,0-0.002,0c-23.875-0.001-41.598-6.776-57.234-12.754     c-14.069-5.379-27.357-10.459-44.128-10.459c-13.229,0-27.748,3.141-44.383,9.601c-3.077,1.196-6.544,0.795-9.268-1.069     c-2.724-1.863-4.352-4.951-4.352-8.252V316.535c0-3.881,2.246-7.412,5.761-9.058c11.152-5.219,20.621-8.589,28.948-10.304     c6.526-1.374,15.815-2.106,26.818-2.106c22.385,0,57.317,3.18,88.225,12.104c33.029,9.537,52.692,22.993,58.589,40.061     c25.185-17.671,58.97-34.633,83.879-38.222c2.423-0.36,5.098-0.547,7.906-0.547c21.215,0,44.771,10.061,46.356,32.148     c0.746,10.784-6.529,22.859-22.896,38.026c-12.36,11.455-29.609,24.262-49.882,37.035     c-34.546,21.767-80.008,44.556-103.697,46.399C304.23,462.356,300.646,462.501,297.167,462.501z M195.803,419.288     c20.464,0,36.125,5.987,51.271,11.777c15.382,5.881,29.91,11.435,50.093,11.436c0,0,0.001,0,0.002,0     c2.954,0,6.007-0.123,9.074-0.366c16.755-1.304,57.418-19.954,94.601-43.382c48.809-30.754,63.851-51.504,63.488-56.734     c-0.708-9.867-16.572-13.555-26.405-13.555c-1.802,0-3.534,0.116-5.011,0.336c-26.77,3.857-67.377,26.811-89.674,45.867     c-3.521,3.009-8.65,3.207-12.391,0.477c-3.743-2.73-5.12-7.673-3.328-11.945c0.474-1.13,0.92-3.222,0.357-6.771     c-1.662-11.188-18.377-22.101-45.876-30.041c-28.904-8.346-61.66-11.319-82.677-11.319c-9.502,0-17.578,0.6-22.741,1.687     c-5.335,1.099-11.628,3.196-18.786,6.256v102.486C171.39,421.328,183.919,419.288,195.803,419.288z"></path></g><g><path d="M326.56,292.501c-11.156,0-22.255-2.744-32.096-7.936c-22.697-11.972-36.797-35.329-36.797-60.957     c0-23.457,18.833-46.279,37.047-68.35c8.504-10.306,17.299-20.963,23.597-31.055c1.827-2.927,5.033-4.706,8.483-4.706     c0.003,0,0.006,0,0.01,0c3.453,0.003,6.661,1.789,8.483,4.722c6.105,9.824,14.71,20.391,23.031,30.609     c18.227,22.382,37.074,45.527,37.074,68.779c0,13.232-3.78,26.104-10.932,37.222C371.706,280.662,350.061,292.501,326.56,292.501     z M326.774,147.141c-5.241,7.041-10.999,14.018-16.635,20.848c-15.965,19.346-32.473,39.35-32.473,55.62     c0,18.187,10.012,34.766,26.128,43.267c7.076,3.732,14.735,5.625,22.765,5.625c16.666,0,32.023-8.407,41.081-22.489     c5.071-7.885,7.752-17.015,7.752-26.403c0-16.139-16.563-36.479-32.582-56.15C337.376,160.785,331.826,153.97,326.774,147.141z"></path></g><g><path d="M408.854,162.501c-7.416,0-14.794-1.824-21.338-5.276c-15.088-7.959-24.46-23.486-24.46-40.521     c0-15.667,11.903-30.092,23.415-44.042c5.089-6.166,10.351-12.542,14.042-18.457c1.826-2.927,5.033-4.706,8.483-4.706     c0.003,0,0.006,0,0.01,0c3.453,0.003,6.661,1.789,8.483,4.722c3.579,5.759,8.5,11.802,13.71,18.199     c11.512,14.137,23.416,28.755,23.416,44.284c0,8.796-2.514,17.354-7.268,24.747C438.869,154.632,424.479,162.501,408.854,162.501     z M408.973,76.681c-2.314,2.941-4.713,5.847-7.076,8.71c-9.263,11.225-18.841,22.832-18.841,31.313     c0,9.596,5.284,18.344,13.791,22.832c3.73,1.968,7.771,2.966,12.007,2.966c8.79,0,16.892-4.438,21.673-11.87     c2.675-4.159,4.089-8.976,4.089-13.928c0-8.415-10.054-20.762-18.925-31.655C413.447,82.294,411.172,79.5,408.973,76.681z"></path></g><g><path d="M77.666,262.501c-16.542,0-30-13.458-30-30s13.458-30,30-30s30,13.458,30,30S94.208,262.501,77.666,262.501z      M77.666,222.501c-5.514,0-10,4.486-10,10s4.486,10,10,10s10-4.486,10-10S83.18,222.501,77.666,222.501z"></path></g><g><path d="M167.666,202.501c-27.57,0-50-22.43-50-50s22.43-50,50-50s50,22.43,50,50S195.236,202.501,167.666,202.501z      M167.666,122.501c-16.542,0-30,13.458-30,30s13.458,30,30,30s30-13.458,30-30S184.208,122.501,167.666,122.501z"></path></g></g></g></svg>