<svg height='100px' width='100px'  fill="#000000" xmlns="http://www.w3.org/2000/svg" xmlns:xlink="http://www.w3.org/1999/xlink" version="1.1" x="0px" y="0px" viewBox="0 0 100 100" style="enable-background:new 0 0 100 100;" xml:space="preserve"><path d="M35.832,43.516c1.753,0,3.179-1.426,3.179-3.179c0-0.552-0.448-1-1-1s-1,0.448-1,1c0,0.65-0.529,1.179-1.179,1.179  s-1.18-0.529-1.18-1.179v-1.921c1.178-0.416,2.03-1.528,2.03-2.847c0-1.67-1.359-3.03-3.03-3.03c-1.67,0-3.03,1.359-3.03,3.03  c0,1.318,0.852,2.431,2.03,2.847v1.921c0,0.65-0.529,1.179-1.179,1.179s-1.179-0.529-1.179-1.179c0-0.552-0.448-1-1-1s-1,0.448-1,1  c0,1.753,1.426,3.179,3.179,3.179c0.845,0,1.609-0.337,2.179-0.876C34.222,43.179,34.987,43.516,35.832,43.516z M33.652,34.539  c0.568,0,1.03,0.462,1.03,1.03s-0.462,1.03-1.03,1.03s-1.03-0.462-1.03-1.03S33.084,34.539,33.652,34.539z"></path><path d="M11.208,90h78c0.552,0,1-0.448,1-1v-8.825c0-0.552-0.448-1-1-1h-0.612V11c0-0.552-0.448-1-1-1H74.052c-0.552,0-1,0.448-1,1  v5.871H60.343c-0.552,0-1,0.448-1,1v61.305H48.894c2.296-1.663,3.797-4.357,3.797-7.402c0-2.401-0.937-4.582-2.456-6.215  c0.067,0.002,0.133,0.016,0.201,0.016c3.436,0,6.23-2.795,6.23-6.23c0-5.902-6.964-10.744-16.726-12.249  c4.649-2.333,7.854-7.133,7.854-12.679c0-1.701-0.302-3.364-0.898-4.954c1.814-1.284,2.91-3.365,2.91-5.624  c0-3.801-3.093-6.894-6.895-6.894c-2.553,0-4.894,1.438-6.08,3.656c-2.122-0.497-4.33-0.497-6.455,0  c-1.185-2.218-3.526-3.656-6.08-3.656c-3.801,0-6.894,3.093-6.894,6.894c0,2.259,1.095,4.341,2.909,5.624  c-0.597,1.591-0.898,3.253-0.898,4.954c0,5.532,3.189,10.322,7.819,12.662c-9.821,1.485-16.838,6.341-16.838,12.266  c0,3.436,2.795,6.23,6.23,6.23c0.121,0,0.24-0.021,0.36-0.028c-1.526,1.635-2.467,3.821-2.467,6.227c0,3.045,1.502,5.74,3.797,7.402  h-7.107c-0.552,0-1,0.448-1,1V89C10.208,89.552,10.656,90,11.208,90z M86.596,12v67.175H75.052V12H86.596z M61.343,18.871h11.544  v60.305H61.343V18.871z M43.547,78.917c-3.939,0-7.144-3.205-7.144-7.144s3.205-7.144,7.144-7.144s7.144,3.205,7.144,7.144  S47.486,78.917,43.547,78.917z M19.468,63.657c-0.025-0.34-0.039-0.681-0.039-1.022c0-7.718,6.265-13.997,13.976-14.026  c0.028,0,0.055-0.001,0.083-0.001c7.721,0.017,13.997,6.302,13.997,14.027c0,0.294-0.014,0.589-0.032,0.883  c-1.186-0.564-2.507-0.888-3.905-0.888c-5.042,0-9.144,4.102-9.144,9.144c0,1.714,0.483,3.314,1.307,4.686  c-1.398,0.224-2.833,0.243-4.238,0.045c0.841-1.383,1.334-2.998,1.334-4.731c0-5.042-4.102-9.144-9.144-9.144  C22.149,62.629,20.725,63.004,19.468,63.657z M54.667,59.343c0,2.333-1.898,4.23-4.23,4.23c-0.334,0-0.661-0.051-0.981-0.127  c0.014-0.271,0.03-0.542,0.03-0.812c0-5.249-2.547-9.902-6.458-12.827C49.867,51.612,54.667,55.253,54.667,59.343z M21.414,34.416  c0-1.71,0.356-3.376,1.059-4.953c0.214-0.481,0.019-1.047-0.448-1.292c-1.617-0.85-2.622-2.51-2.622-4.333  c0-2.699,2.195-4.894,4.894-4.894c2.03,0,3.872,1.282,4.582,3.189c0.183,0.493,0.717,0.757,1.224,0.609  c2.29-0.685,4.715-0.685,7.003,0c0.506,0.151,1.041-0.115,1.224-0.609c0.711-1.907,2.552-3.189,4.582-3.189  c2.699,0,4.895,2.195,4.895,4.894c0,1.822-1.005,3.482-2.622,4.333c-0.467,0.246-0.663,0.811-0.448,1.292  c0.702,1.575,1.059,3.241,1.059,4.953c0,6.722-5.469,12.19-12.19,12.19S21.414,41.137,21.414,34.416z M12.394,59.343  c0-4.045,4.692-7.651,11.412-9.476c-3.866,2.929-6.378,7.555-6.378,12.767c0,0.282,0.018,0.565,0.033,0.847  c-0.274,0.055-0.553,0.093-0.836,0.093C14.292,63.574,12.394,61.676,12.394,59.343z M16.518,71.773c0-3.939,3.205-7.144,7.144-7.144  s7.144,3.205,7.144,7.144s-3.205,7.144-7.144,7.144S16.518,75.712,16.518,71.773z M30.067,78.288  c1.109,0.239,2.246,0.374,3.39,0.374c1.228,0,2.449-0.147,3.633-0.421c0.343,0.342,0.718,0.65,1.11,0.935h-9.192  C29.382,78.904,29.738,78.611,30.067,78.288z M12.208,81.175h76V88h-76V81.175z"></path><path d="M67.194,68.344c2.044,0,3.707-1.663,3.707-3.707s-1.663-3.707-3.707-3.707s-3.707,1.663-3.707,3.707  S65.15,68.344,67.194,68.344z M67.194,62.931c0.941,0,1.707,0.766,1.707,1.707s-0.766,1.707-1.707,1.707s-1.707-0.766-1.707-1.707  S66.253,62.931,67.194,62.931z"></path><path d="M69.911,74.478h-5.435c-0.552,0-1,0.448-1,1s0.448,1,1,1h5.435c0.552,0,1-0.448,1-1S70.463,74.478,69.911,74.478z"></path><path d="M64.477,72.617h5.435c0.552,0,1-0.448,1-1s-0.448-1-1-1h-5.435c-0.552,0-1,0.448-1,1S63.924,72.617,64.477,72.617z"></path><path d="M77.992,18.871h5.435c0.552,0,1-0.448,1-1s-0.448-1-1-1h-5.435c-0.552,0-1,0.448-1,1S77.44,18.871,77.992,18.871z"></path><path d="M77.992,22.924h5.435c0.552,0,1-0.448,1-1s-0.448-1-1-1h-5.435c-0.552,0-1,0.448-1,1S77.44,22.924,77.992,22.924z"></path></svg>