<svg height='100px' width='100px'  fill="#000000" xmlns="http://www.w3.org/2000/svg" xmlns:xlink="http://www.w3.org/1999/xlink" version="1.1" x="0px" y="0px" viewBox="0 0 56 56" enable-background="new 0 0 56 56" xml:space="preserve"><path d="M50.9343872,22.5637207c1.2080688-1.4296875,1.9142456-3.2536621,1.9142456-5.1818848  c0-4.4199219-3.5957031-8.0166016-8.015625-8.0166016c-3.6037598,0-6.6596069,2.3857422-7.6703491,5.6582031l-2.1841431-1.6123047  c-0.0454102-0.0332031-0.0615234-0.0957031-0.0380859-0.1474609l2.4291992-5.4677734  c0.6484375-1.4580078,0.0546875-3.1914062-1.3525391-3.9462891c-0.7387695-0.3955078-1.5849609-0.4716797-2.3842773-0.2158203  c-0.7988281,0.2568359-1.4428711,0.8134766-1.8125,1.5673828l-3.9702148,8.0820312  c-0.1665039,0.3398438-0.4262695,0.6210938-0.7519531,0.8134766l-4.1396484,2.4609375  c-0.0805664,0.0556641-0.1918945,0.0419922-0.2539062-0.0371094L19.0019531,11.84375  c-1.2646484-1.5957031-3.3999023-2.1992188-5.3125-1.5019531l-3.2358398,1.1826172  c-0.1347656,0.0517578-0.2880859,0.0087891-0.3808594-0.1005859L8.8085938,9.921875  C7.7983398,8.7236328,5.9916992,8.5595703,4.7832031,9.5566406c-1.0151367,0.8369141-1.331543,2.2529297-0.7700195,3.4414062  l2.0986328,4.4501953c0.4702148,0.9980469,1.5195312,1.5615234,2.6123047,1.4052734l4.9135742-0.7070312  c0.480957-0.0673828,0.9350586,0.1777344,1.1420898,0.6113281l1.7855835,3.7529297H5.5874023  C4.1606445,22.5107422,3,23.671875,3,25.0986328c0,0.9072266,0.484375,1.7587891,1.2636719,2.2226562l0.9951172,0.5927734  c0.371582,0.2207031,0.6445312,0.5712891,0.769043,0.9853516l1.0209961,3.4042969  c0.4804688,1.6005859,1.9262695,2.6757812,3.5976562,2.6757812h6.1796875v2.2451172h-3.6865234  c-1.9443359,0-3.6708984,1.3076172-4.1977539,3.1787109l-1.8500977,6.5644531  c-0.3740234,1.3271484-0.1113281,2.71875,0.7207031,3.8173828s2.0991211,1.7285156,3.4770508,1.7285156h33.4208984  c1.3779297,0,2.6450195-0.6298828,3.4770508-1.7285156s1.0947266-2.4902344,0.7207031-3.8173828l-1.8500977-6.5644531  c-0.5268555-1.8710938-2.253418-3.1787109-4.1977539-3.1787109h-3.6865234v-2.2451172h6.1796875  c1.6713867,0,3.1171875-1.0751953,3.5976562-2.6757812l1.0205078-3.4033203c0.125-0.4150391,0.3979492-0.765625,0.7700195-0.9863281  l0.9941406-0.5927734C52.515625,26.8574219,53,26.0058594,53,25.0986328C53,23.8505859,52.1118774,22.8059082,50.9343872,22.5637207  z M44.8330078,11.3652344c3.3168945,0,6.015625,2.6992188,6.015625,6.0166016c0,2.097168-1.0994263,4.0366211-2.8735962,5.1289062  h-6.2930908c-1.7747192-1.0976562-2.8748169-3.0366211-2.8748169-5.1289062  C38.8071289,14.0644531,41.5102539,11.3652344,44.8330078,11.3652344z M16.5854492,17.8984375  c-0.5849609-1.2304688-1.8798828-1.921875-3.2329102-1.7324219l-4.9135742,0.7070312  c-0.21875,0.0332031-0.4243164-0.0810547-0.5180664-0.2783203l-2.0991211-4.4501953  c-0.1704102-0.3613281-0.0742188-0.7910156,0.2338867-1.0449219c0.3671875-0.3037109,0.9169922-0.2529297,1.2231445,0.1113281  l1.2641602,1.5009766c0.6328125,0.7509766,1.6762695,1.0292969,2.5976562,0.6914062l3.2348633-1.1826172  c1.1025391-0.4023438,2.3305664-0.0556641,3.0581055,0.8652344l3.703125,4.6767578  c0.7192383,0.9082031,2.0258789,1.0966797,2.9077148,0.4726562l4.0732422-2.4179688  c0.6611328-0.390625,1.1894531-0.9628906,1.527832-1.6533203l3.9697266-8.0820312  c0.1289062-0.2617188,0.3525391-0.4550781,0.6298828-0.5439453c0.2773438-0.0878906,0.5708008-0.0615234,0.8271484,0.0742188  C35.5610352,5.875,35.7675781,6.4765625,35.5419922,6.9833984l-2.4291992,5.4677734  c-0.4018555,0.9023438-0.1162109,1.9833984,0.6787109,2.5693359l3.0222168,2.2314453  c-0.0007324,0.0437012-0.0065918,0.0859375-0.0065918,0.1298828c0,1.9016113,0.6889038,3.7053223,1.8709717,5.1289062H18.7799072  L16.5854492,17.8984375z M45.1333008,40.9462891l1.8500977,6.5644531c0.2021484,0.71875,0.0600586,1.4716797-0.390625,2.0673828  c-0.4501953,0.5947266-1.1362305,0.9355469-1.8823242,0.9355469H11.2895508c-0.7460938,0-1.4321289-0.3408203-1.8823242-0.9355469  c-0.4506836-0.5957031-0.5927734-1.3486328-0.390625-2.0673828l1.8500977-6.5644531  c0.2856445-1.0136719,1.2202148-1.7216797,2.2729492-1.7216797h29.7207031  C43.9130859,39.2246094,44.8476562,39.9326172,45.1333008,40.9462891z M37.1738281,37.2246094H18.8261719v-2.2451172h18.3476562  V37.2246094z M50.7128906,25.6025391L49.71875,26.1953125c-0.8027344,0.4775391-1.3930664,1.2333984-1.6625977,2.1298828  l-1.0209961,3.4042969c-0.2207031,0.7363281-0.9121094,1.25-1.6816406,1.25H10.6464844  c-0.7695312,0-1.4609375-0.5136719-1.6816406-1.25l-1.0214844-3.4052734  c-0.269043-0.8955078-0.859375-1.6513672-1.6616211-2.1289062l-0.9951172-0.5927734C5.1098633,25.4970703,5,25.3046875,5,25.0986328  c0-0.3242188,0.2636719-0.5878906,0.5874023-0.5878906h44.8251953C50.7363281,24.5107422,51,24.7744141,51,25.0986328  C51,25.3046875,50.8901367,25.4970703,50.7128906,25.6025391z"></path><path d="M37.3598633,42.5498047c0-0.5527344-0.4477539-1-1-1H19.6401367c-0.5522461,0-1,0.4472656-1,1s0.4477539,1,1,1h16.7197266  C36.9121094,43.5498047,37.3598633,43.1025391,37.3598633,42.5498047z"></path><path d="M17.5795898,46.4794922c-0.1796875,0.1904297-0.2895508,0.4404297-0.2895508,0.7099609  c0,0.2607422,0.1098633,0.5205078,0.2895508,0.7001953c0.1000977,0.1005859,0.2104492,0.1699219,0.3300781,0.2197266  c0.1201172,0.0507812,0.25,0.0800781,0.3803711,0.0800781c0.1298828,0,0.2597656-0.0292969,0.3798828-0.0800781  C18.7900391,48.0595703,18.8999023,47.9902344,19,47.8896484c0.0898438-0.0898438,0.1699219-0.2001953,0.2197266-0.3203125  c0.050293-0.1191406,0.0703125-0.25,0.0703125-0.3798828c0-0.2597656-0.1103516-0.5195312-0.2900391-0.7099609  C18.6196289,46.109375,17.9599609,46.109375,17.5795898,46.4794922z"></path><path d="M27.2900391,46.4794922C27.1098633,46.6699219,27,46.9199219,27,47.1894531  c0,0.2607422,0.0996094,0.5205078,0.2900391,0.7001953C27.3896484,47.9902344,27.5,48.0595703,27.6196289,48.109375  c0.1201172,0.0507812,0.25,0.0800781,0.3803711,0.0800781c0.1298828,0,0.2597656-0.0292969,0.3798828-0.0800781  c0.1201172-0.0498047,0.2299805-0.1191406,0.3300781-0.2197266c0.0898438-0.0898438,0.159668-0.2001953,0.2099609-0.3203125  C28.9799805,47.4501953,29,47.3193359,29,47.1894531c0-0.2597656-0.1103516-0.5195312-0.2900391-0.7099609  C28.3295898,46.109375,27.6699219,46.109375,27.2900391,46.4794922z"></path><path d="M37,46.4794922c-0.1801758,0.1904297-0.2900391,0.4404297-0.2900391,0.7099609  c0,0.2607422,0.1000977,0.5205078,0.2900391,0.7001953c0.1899414,0.1904297,0.4399414,0.2998047,0.7099609,0.2998047  c0.1298828,0,0.2597656-0.0292969,0.3798828-0.0800781c0.1201172-0.0498047,0.2299805-0.1191406,0.3300781-0.2197266  c0.0898438-0.0898438,0.159668-0.2001953,0.2099609-0.3203125c0.0600586-0.1191406,0.0800781-0.25,0.0800781-0.3798828  s-0.0302734-0.2597656-0.0800781-0.3798828c-0.050293-0.1298828-0.1201172-0.2402344-0.2099609-0.3300781  C38.0400391,46.109375,37.3798828,46.109375,37,46.4794922z"></path></svg>