<svg height='100px' width='100px'  fill="#000000" xmlns="http://www.w3.org/2000/svg" xmlns:xlink="http://www.w3.org/1999/xlink" version="1.2" baseProfile="tiny" x="0px" y="0px" viewBox="0 0 100 100" xml:space="preserve"><g><path d="M88,44.8c-0.6,0-1.2,0-1.8,0.1C81,32.4,69.5,23.5,56.3,21.3c3-2,4.9-5.4,4.9-9.3c0-6.2-5-11.2-11.2-11.2   c-4.5,0-8.2,3.7-8.2,8.2s3.7,8.2,8.2,8.2c2.9,0,5.2-2.4,5.2-5.2S52.9,6.8,50,6.8c-0.7,0-1.2,0.6-1.2,1.2s0.6,1.2,1.2,1.2   c1.5,0,2.8,1.2,2.8,2.8s-1.2,2.8-2.8,2.8c-3.2,0-5.8-2.6-5.8-5.8s2.6-5.8,5.8-5.8c4.8,0,8.8,3.9,8.8,8.8s-3.9,8.8-8.8,8.8   c-15.8,0-30.2,9.7-36.2,24.1c-0.6-0.1-1.2-0.1-1.8-0.1c-6.2,0-11.2,5-11.2,11.2c0,6,4.7,10.9,10.7,11.2c3.5,18.6,19.5,32,38.6,32   s35.1-13.4,38.6-32C94.5,66.9,99.2,62,99.2,56C99.2,49.8,94.2,44.8,88,44.8z M88,64.8c-0.1,0-0.1,0-0.2,0h-0.2   c-0.6,0-1.2,0.4-1.3,1.1c-2.8,17.9-18.1,31-36.3,31s-33.5-13-36.3-31c-0.1-0.6-0.6-1.1-1.2-1.1c0,0,0,0-0.1,0h-0.2   c-0.1,0-0.1,0-0.2,0c-4.8,0-8.8-3.9-8.8-8.8c0-5.5,5.2-10,11-8.5c0.6,0.2,1.3-0.2,1.5-0.8c5.4-14,19.2-23.5,34.3-23.5   s28.9,9.5,34.3,23.5c0.2,0.6,0.9,0.9,1.5,0.8c5.8-1.5,11,2.9,11,8.5C96.8,60.8,92.8,64.8,88,64.8z"></path><path d="M70,42.8c-0.7,0-1.2,0.6-1.2,1.2c0,3.7-3,6.8-6.8,6.8s-6.8-3-6.8-6.8c0-0.7-0.6-1.2-1.2-1.2s-1.2,0.6-1.2,1.2   c0,5.1,4.1,9.2,9.2,9.2s9.2-4.1,9.2-9.2C71.2,43.3,70.7,42.8,70,42.8z"></path><path d="M47.2,44c0-0.7-0.6-1.2-1.2-1.2s-1.2,0.6-1.2,1.2c0,3.7-3,6.8-6.8,6.8s-6.8-3-6.8-6.8c0-0.7-0.6-1.2-1.2-1.2   s-1.2,0.6-1.2,1.2c0,5.1,4.1,9.2,9.2,9.2S47.2,49.1,47.2,44z"></path><path d="M50,56.8c-1.4,0-2.7,0.2-3.9,0.5c0,0,0,0-0.1,0c-7,1.8-12.3,8.2-12.3,15.7c0,9,7.3,16.2,16.2,16.2S66.2,82,66.2,73   S59,56.8,50,56.8z M42.7,61.4c0.8-0.5,1.6-0.9,2.5-1.2v6.5h-2.5v-5.1C42.8,61.4,42.7,61.4,42.7,61.4z M50,86.8   c-7.6,0-13.8-6.2-13.8-13.8c0-3.8,1.5-7.2,4-9.7v4.5c0,0.7,0.6,1.2,1.2,1.2h5c0.7,0,1.2-0.6,1.2-1.2v-8.4c0.7-0.1,1.5-0.2,2.2-0.2   c7.6,0,13.8,6.2,13.8,13.8S57.6,86.8,50,86.8z"></path><path d="M12,49.8c-3.4,0-6.2,2.8-6.2,6.2c0,0.7,0.6,1.2,1.2,1.2s1.2-0.6,1.2-1.2c0-2.1,1.7-3.8,3.8-3.8c0.7,0,1.2-0.6,1.2-1.2   S12.7,49.8,12,49.8z"></path><path d="M88,49.8c-0.7,0-1.2,0.6-1.2,1.2s0.6,1.2,1.2,1.2c2.1,0,3.8,1.7,3.8,3.8c0,0.7,0.6,1.2,1.2,1.2s1.2-0.6,1.2-1.2   C94.2,52.6,91.4,49.8,88,49.8z"></path></g></svg>