<svg height='100px' width='100px'  fill="#000000" xmlns="http://www.w3.org/2000/svg" xmlns:xlink="http://www.w3.org/1999/xlink" version="1.1" x="0px" y="0px" viewBox="0 0 100 100" enable-background="new 0 0 100 100" xml:space="preserve"><path fill="none" d="M48.2,17.4L48.2,17.4c-0.7-0.9-1.4-1.6-2.3-2.3c-0.1,6-3.9,13.6-10.6,20.3C28.6,42,21,45.8,15,45.9  c0.7,0.8,1.5,1.6,2.3,2.4l0.1-0.1c3.2,3.2,13.2,0.5,22.2-8.6C48.7,30.5,51.4,20.6,48.2,17.4z"></path><path fill="none" d="M40,11.5c-2.5-1-5.2-1.5-8-1.5c-4,0-7.8,1.1-11.1,3c0,4.3-3.5,7.8-7.8,7.8c-1.9,3.3-3,7-3,11.1  c0,2.8,0.5,5.5,1.5,8c3.1,2.6,12.1,0,20.3-8.2C40,23.6,42.6,14.7,40,11.5z"></path><path fill="none" d="M53.4,27.3c-1.6,5.1-5.1,10.8-10.3,15.9c-5.1,5.1-10.7,8.6-15.9,10.3c1.5,0.3,3.1,0.5,4.7,0.5  c12.1,0,22-9.8,22-22C53.9,30.3,53.7,28.8,53.4,27.3z"></path><path fill="none" d="M83.4,70c-0.3-0.1-0.6-0.3-1-0.4c-0.4-0.2-0.9-0.4-1.4-0.6c-10.6-4.7-19.9-11.6-27.9-20.4  c-1.2,1.5-2.5,2.9-4,4.2c7.8,7.5,14.1,16.2,18.6,25.9c0.2,0.4,0.3,0.7,0.5,1.1c0.8,1.7,1.4,2.9,1.8,3.8c1.4,3.2,4.2,5.5,7.6,6.3  c3.2,0.7,6.5-0.1,8.9-2.2c0.2-0.2,0.4-0.3,0.6-0.5c0.2-0.2,0.4-0.4,0.5-0.6c2.1-2.4,2.9-5.7,2.2-8.9C89,74.2,86.6,71.4,83.4,70z"></path><path d="M94.6,76.5c-1.1-4.9-4.6-9.1-9.2-11.1c-0.3-0.1-0.5-0.2-0.9-0.4c-0.4-0.2-0.9-0.4-1.4-0.6C72.9,59.8,63.8,53,56.1,44.3  c0-0.1-0.1-0.1-0.1-0.1c1.9-3.7,2.9-7.8,2.9-12.2c0-14.9-12.1-27-27-27c-4.6,0-8.9,1.2-12.7,3.2C17.8,6.3,15.5,5,12.9,5  C8.6,5,5,8.6,5,12.9c0,2.6,1.3,4.9,3.2,6.3C6.2,23.1,5,27.4,5,32c0,14.9,12.1,27,27,27c4.7,0,9.2-1.2,13-3.4  c7.7,7.2,13.8,15.7,18.2,25.1c0.2,0.4,0.4,0.8,0.5,1.1c0.8,1.6,1.3,2.8,1.7,3.6c2,4.6,6.1,8.1,11.1,9.2c1.2,0.3,2.3,0.4,3.5,0.4  c3.6,0,7-1.3,9.8-3.7c0.3-0.2,0.5-0.5,0.8-0.8c0.3-0.3,0.5-0.5,0.8-0.8C94.5,86.1,95.7,81.3,94.6,76.5z M12.9,10  c1.6,0,2.9,1.3,2.9,2.9s-1.3,2.9-2.9,2.9S10,14.6,10,12.9S11.3,10,12.9,10z M11.5,40c-1-2.5-1.5-5.2-1.5-8c0-4,1.1-7.8,3-11.1  c4.3,0,7.8-3.5,7.8-7.8c3.3-1.9,7-3,11.1-3c2.8,0,5.5,0.5,8,1.5c2.7,3.2,0,12.1-8.2,20.3C23.6,40,14.7,42.6,11.5,40z M17.4,48.2  L17.4,48.2c-0.9-0.7-1.6-1.4-2.3-2.3c6-0.1,13.6-3.9,20.3-10.6C42,28.6,45.8,21,45.9,15c0.8,0.7,1.6,1.5,2.4,2.3l-0.1,0.1  c3.2,3.2,0.5,13.2-8.6,22.2C30.5,48.7,20.6,51.4,17.4,48.2z M32,53.9c-1.6,0-3.2-0.2-4.7-0.5c5.1-1.6,10.7-5.2,15.9-10.3  c5.1-5.1,8.6-10.7,10.3-15.9c0.3,1.5,0.5,3.1,0.5,4.7C53.9,44.1,44.1,53.9,32,53.9z M87.5,86.5c-0.2,0.2-0.3,0.4-0.5,0.6  c-0.2,0.2-0.4,0.3-0.6,0.5c-2.4,2.1-5.7,2.9-8.9,2.2c-3.4-0.8-6.2-3.1-7.6-6.3c-0.4-0.8-0.9-2.1-1.8-3.8c-0.2-0.3-0.3-0.7-0.5-1.1  C63.2,68.9,57,60.2,49.2,52.7c1.5-1.2,2.8-2.6,4-4.2c8,8.8,17.4,15.7,27.9,20.4c0.5,0.2,0.9,0.4,1.4,0.6c0.4,0.2,0.7,0.3,1,0.4  c3.2,1.4,5.5,4.2,6.3,7.6C90.5,80.8,89.7,84,87.5,86.5z"></path></svg>