<svg height='100px' width='100px'  fill="#000000" xmlns="http://www.w3.org/2000/svg" xmlns:xlink="http://www.w3.org/1999/xlink" version="1.1" x="0px" y="0px" viewBox="0 0 100 100" enable-background="new 0 0 100 100" xml:space="preserve"><g><path d="M69.5079346,58.0768242c-0.0473785,0.1474571-0.0979996,0.2937508-0.1458969,0.441597l-2.2581024-0.9628983   c-0.5410309-0.2305336-1.1651306,0.020771-1.395668,0.5607605c-0.0581512,0.1370735-0.0851517,0.2783051-0.0851517,0.4174538   c0,0.4133034,0.2419586,0.8058357,0.6459122,0.9782181l2.3647995,1.0084572   c-0.3707275,0.8621674-0.8096008,1.627243-1.401123,2.1484108c-0.2185898,0.1930237-0.493782,0.3532028-0.7894745,0.5011826   l-1.5854492-2.7255287c-0.2949142-0.5088387-0.946022-0.681221-1.4538231-0.3863029   c-0.3395691,0.1993828-0.5285683,0.5545311-0.5285683,0.920063c0,0.182766,0.04673,0.3655319,0.1443443,0.5337601   l1.3641243,2.3450661c-0.5758133,0.1361694-1.1679878,0.2605209-1.7649612,0.3756561   c-0.6172256,0.1187744-1.2756004,0.2562408-1.9356613,0.41642l-1.6521645-2.5680733   c-0.3177643-0.4943008-0.9751015-0.6376076-1.4694023-0.3198433c-0.3156853,0.203537-0.4880676,0.5462227-0.4880676,0.8951416   c0,0.1973038,0.0550385,0.3966866,0.1692657,0.5752983l1.3442688,2.0896111   c-1.1067238,0.4688568-2.0863647,1.1364441-2.7399368,2.1425705l-2.3365021-0.7783127   c-0.5576439-0.184845-1.1599388,0.1163025-1.3458214,0.672905c-0.0363464,0.1121521-0.0540009,0.2243042-0.0540009,0.3364563   c0,0.444458,0.2814178,0.8598328,0.7269135,1.0093689l2.2985954,0.7657242   c-0.0541306,0.3404846-0.1252632,0.6649933-0.1251335,1.0557098c0,0.3655319,0.0249252,0.7559891,0.0768471,1.1672134   c0.001297,0.010643,0.0064888,0.0192108,0.0079155,0.0298538l-2.16996,1.3242722   c-0.3291855,0.1993866-0.5098763,0.5503769-0.5098763,0.9076004c0,0.189003,0.0498466,0.3800735,0.1557693,0.5545349   c0.3063393,0.5005264,0.9605598,0.658371,1.4610901,0.3530731l1.921772-1.1727982   c0.4479599,0.5310364,1.0522041,0.9640656,1.8135147,1.2766418c0.4452324,0.1826324,0.9518623,0.2947845,1.4673195,0.3947372   l-0.5015678,1.4536896c-0.0394592,0.1142273-0.0581512,0.2326126-0.0581512,0.3468399   c0,0.4403,0.276226,0.8535995,0.716526,1.0052185c0.5555687,0.1910706,1.1609802-0.1038437,1.3520546-0.6583786   l0.6687584-1.9381256c1.1664314,0.0023346,2.4075012-0.1520004,3.6670074-0.4020081l0.2416992,2.8468933   c0.0498428,0.5856857,0.5638733,1.0197525,1.149559,0.9699097c0.5867157-0.0498428,1.0259781-0.625145,0.9688644-1.1485214   l-0.2699966-3.179451c1.1311264-0.3303604,2.2436905-0.7192535,3.2869415-1.1866837l0.7785721,1.5207977   c0.2679138,0.5233765,0.908638,0.7310638,1.4320145,0.46315c0.5223389-0.2679214,0.7258682-0.9117584,0.4610672-1.4309769   l-0.7766266-1.5169067c0.7238007-0.4126511,1.4033279-0.8442612,1.9853745-1.3014297   c0.4360199-0.3428192,0.8502274-0.7666321,1.2589874-1.2017441l2.3662262,1.7521133   c0.4714508,0.3509979,1.1370926,0.2513046,1.4870529-0.2201462c0.3478775-0.4714584,0.2513046-1.1381378-0.222229-1.4870529   l-2.2917175-1.6969452c0.8180389-1.1511154,1.5265121-2.4395676,2.1156998-3.7964249l2.1501007,1.1090546   c0.5213013,0.2699966,1.1630554,0.0643845,1.4320145-0.4569168c0.2720718-0.5212936,0.0664597-1.1630554-0.4579544-1.4330482   l-2.3657074-1.2203026c0.3663101-1.1282692,0.6524048-2.253685,0.7962265-3.333149l3.5632935-0.0032463   c0.5867233,0,1.0623322-0.475605,1.0623322-1.0633659c-0.0010376-0.5877571-0.4766464-1.0633659-1.0644073-1.0633659   l-3.4442596,0.0032463c-0.0242767-0.7260056-0.1082611-1.4122849-0.2889481-2.0199051   c-0.0843735-0.2840157-0.2237854-0.5132523-0.3407364-0.7650757l2.4518967-1.7853432   c0.4756088-0.3447647,0.5763321-1.0114479,0.2336502-1.4849777c-0.3458023-0.4756088-1.0114441-0.5794525-1.4860153-0.2346878   l-2.4676056,1.7968979c-0.6709671-0.5336304-1.4979553-0.8648949-2.4603348-0.9631577l-0.2217102-2.5845566   c-0.0498428-0.5836067-0.5649109-1.0176773-1.1505966-0.9678307c-0.5534897,0.0477676-0.9719772,0.5109138-0.9719772,1.0571365   c0,0.0311508,0.0010376,0.0623055,0.0041504,0.0934601l0.2196274,2.5597649   c-1.3253098,0.3359375-2.262764,1.1280098-2.9538498,2.1521759l-1.4766693-1.2601509   c-0.4465332-0.3821487-1.1184082-0.3281517-1.4995117,0.1183815c-0.1713486,0.1993828-0.254425,0.4444542-0.254425,0.6895256   c0,0.2990723,0.1266937,0.5981445,0.3728027,0.8079109l1.8454437,1.5748024   C69.9836731,56.6100197,69.7369156,57.3630219,69.5079346,58.0768242z M78.3959808,55.6800919   c0.1578445,0.5316849,0.231575,1.1443672,0.231575,1.8089714c0,3.896244-2.5348434,9.6305351-5.6044846,12.0418053   c-3.8889771,3.0571747-11.1809311,4.8079987-14.4478798,3.468399c-1.1132126-0.4569092-1.3188248-1.117363-1.376976-1.5722046   c-0.1221466-0.9641953-0.0563354-1.7133026,0.1680984-2.3159866c0.0022049-0.0062332,0.0073967-0.0101242,0.0094757-0.0163574   c0.0001297-0.0003891,0-0.0007782,0.0001297-0.0011673c0.6551285-1.7220001,2.6620522-2.2004623,5.6448517-2.7735596   c2.0685844-0.3987579,4.2077751-0.8099823,5.6190224-2.0561142c1.1391754-1.0053482,1.8049469-2.4120483,2.3401337-3.8961182   c0.0003967-0.0009079,0.0011749-0.001297,0.001564-0.0022049c0.0005188-0.0010376,0.0002594-0.0022049,0.0006485-0.0032463   c0.1947098-0.5405083,0.3753967-1.0891991,0.550766-1.6354179c1.0747833-3.3500214,1.817276-5.2337608,4.5764236-4.9866104   C77.3076935,53.846199,78.0346069,54.4630356,78.3959808,55.6800919z"></path><path d="M34.4947014,93.9114685l-0.069706-3.0491333c0.8216705-0.2470245,1.565197-0.7384644,2.1941032-1.4735565   l2.2495308,1.2889709c0.5098763,0.2928391,1.158905,0.1163025,1.4507103-0.3925323   c0.2918015-0.5109177,0.1173439-1.1609802-0.3935738-1.4517441l-2.1994247-1.2602844   c0.4879417-1.2879333,0.353981-2.5177078-0.0961838-3.6750565l1.8605003-0.4915695   c0.5669937-0.1516113,0.9034462-0.7289886,0.7559891-1.3001328c-0.1495361-0.5669937-0.7321053-0.9055252-1.3001328-0.7559891   l-2.342083,0.6189117c-0.4331589-0.6590195-0.9127922-1.2889709-1.3682785-1.8837357   c-0.0947571-0.1235733-0.1864014-0.2492294-0.2810287-0.3734512l2.0785751-1.3088303   c0.498455-0.3136139,0.6396828-0.9699097,0.3333397-1.4662857c-0.3136101-0.496376-0.9699059-0.6459122-1.4673195-0.3322983   l-2.1738548,1.368927c-0.4970245-0.7958374-0.8756676-1.5927124-0.9674416-2.3762207   c-0.0351753-0.2876511-0.0107727-0.6051559,0.0368652-0.9338226l3.147007,0.2505264   c0.5846443,0.0477676,1.0976334-0.3883743,1.1443634-0.9740601c0.0353088-0.5836029-0.3904533-1.0965958-0.9761353-1.1443634   l-2.7038498-0.2152176c0.2165146-0.5516739,0.4519806-1.1103592,0.6975746-1.6664429   c0.2546768-0.5760803,0.5249329-1.1911011,0.7698746-1.8263702l3.0422554,0.1046219   c0.5867195,0.018692,1.0789413-0.4403,1.0986748-1.0259781c0.0249214-0.5379181-0.4392624-1.0779037-1.0259857-1.1007538   l-2.4707184-0.0848923c0.2452049-1.1785049,0.2593536-2.3688202-0.1987305-3.4813843l1.9581146-1.4660225   c0.470417-0.3551483,0.5649147-1.0218315,0.2139206-1.4891319c-0.3520317-0.4693756-1.0187149-0.5649147-1.4891281-0.2139206   l-1.911129,1.4308472c-0.4797592-0.4573021-1.0714149-0.8908539-1.8283119-1.2854614   c-0.0089569-0.004673-0.0185623-0.005455-0.0275192-0.0099983l0.1479797-2.5383453   c0.0218086-0.5919151-0.4133015-1.0903664-0.9989834-1.1235962c-0.5867214-0.0353088-1.0893288,0.4132996-1.1235962,0.9989815   l-0.1309738,2.2471962c-0.691864,0.0651588-1.3921661,0.3147774-2.0829906,0.7622147   c-0.4047337,0.2624702-0.7897377,0.6059341-1.1664333,0.9736748l-0.9031868-1.233284   c-0.3468399-0.4735298-1.0124836-0.5752983-1.4860134-0.2284584c-0.2845345,0.2076912-0.4351082,0.5316849-0.4351082,0.8577538   c0,0.2180748,0.0664597,0.4382248,0.2056122,0.6292992l1.2019997,1.6412621   c-0.6653843,0.9560165-1.2450962,2.0722122-1.7566586,3.2478638l-2.4703312-1.4186478   c-0.5088367-0.2928391-1.1589031-0.1163025-1.4517441,0.3925323c-0.0955372,0.166153-0.1412296,0.3489227-0.1412296,0.5296097   c0,0.3676071,0.1910744,0.7248306,0.533762,0.922142l2.7605743,1.5854416   c-0.3742294,1.1210022-0.6720047,2.2557602-0.8825493,3.3828659l-1.7046051-0.2288513   c-0.5815296-0.0789185-1.1173668,0.3302231-1.1952496,0.9117584c-0.0062313,0.0477676-0.009346,0.0955353-0.009346,0.1433029   c0,0.5233765,0.3873386,0.9802933,0.9221382,1.0509033l1.6953907,0.227684   c-0.0460815,0.524025-0.0911236,1.0485687-0.0909939,1.5397491c0,0.2845383,0.0072689,0.5628357,0.0238838,0.8349075   c0.0333595,0.5563507,0.127079,1.1351547,0.252861,1.7220001l-2.7731647,0.9405746   c-0.442379,0.1495361-0.7217197,0.5649109-0.7217197,1.0072937c0,0.1121521,0.0176525,0.2284546,0.056076,0.3406067   c0.1889973,0.5566101,0.7923336,0.8556824,1.3489399,0.6666794l2.6833401-0.9100647   c0.479372,1.3238907,1.1296978,2.6537476,1.9067135,3.9068909l-2.1123257,1.1216507   c-0.3603401,0.1910706-0.5649147,0.5586777-0.5649147,0.9387512c0,0.1682281,0.0394611,0.3406067,0.1246147,0.4984512   c0.2751865,0.5192261,0.9190235,0.7165298,1.4372063,0.4403l2.3279343-1.2362671   c0.7202892,0.9475784,1.4995136,1.8098831,2.3065147,2.5456161l-2.0258751,2.9275055   c-0.1277294,0.184845-0.1889973,0.3946075-0.1889973,0.6043777c0,0.3364563,0.1599197,0.6687546,0.4579525,0.8743668   c0.4828777,0.3343811,1.1454048,0.2139206,1.479784-0.2699966l1.9565601-2.8272934   c0.6115131,0.3953857,1.2249737,0.7100372,1.8275318,0.9082489c0.2814178,0.0926819,0.5490761,0.1089096,0.8227081,0.1564178   l0.0693169,3.0316086c0.0135002,0.5856857,0.5005302,1.0509033,1.0872498,1.0384445   C34.0419426,94.9852142,34.4417419,94.5137634,34.4947014,93.9114685z M23.8194942,76.4448318   c-0.2824574-4.9180756,2.4226894-11.9275742,5.3843346-13.8466225c1.0104065-0.6562958,1.6687794-0.4486084,2.076889-0.236763   c1.6750088,0.8722916,2.3053455,1.8671227,2.3053455,3.1236382c0,1.2295227-0.6054115,2.7103424-1.4268227,4.5691605   c-0.852562,1.9294281-1.7331638,3.9149323-1.5130138,5.7924423c0.1764069,1.508728,0.9534225,2.8575363,1.8684216,4.1430054   c0.0005188,0.0007782,0.0002594,0.0016861,0.0007782,0.0024643c0.0007782,0.001297,0.0022087,0.0018158,0.0029869,0.0031128   c0.3333397,0.4680786,0.6813507,0.9290161,1.0302658,1.3842468c2.1402359,2.7913361,3.2648697,4.4715424,1.4891281,6.6003571   c-0.7715607,0.9242096-1.6916237,1.1692886-2.8972588,0.7746735   C28.5257244,87.5644913,24.0926037,81.0077515,23.8194942,76.4448318z"></path><path d="M52.7432861,52.7994499l0.4793739-3.4620476c0.9027977,0.1516151,1.7689896,0.2139206,2.5695,0.1266937l2.058197,3.0736656   c0.3271103,0.4880676,0.9875603,0.6189117,1.4756317,0.2907639c0.4891052-0.3239937,0.6189117-0.9844475,0.2918015-1.4745903   l-1.7396545-2.5979309c0.7766266-0.5211678,1.3258362-1.2950706,1.6359406-2.3148232l2.9012833,0.5263634   c0.5784149,0.1038437,1.1319046-0.2783051,1.2367859-0.8577538c0.1017685-0.5711479-0.2772636-1.1298294-0.8567162-1.2357521   l-3.0408249-0.5516739c-0.0282974-0.7967453-0.2056122-1.577137-0.5316811-2.3342934l2.4302177-1.234581   c0.5233765-0.2637634,0.7289886-0.9055214,0.4662628-1.4288979c-0.2658424-0.5233765-0.9065628-0.7331429-1.4299393-0.4652214   l-2.5818329,1.3116837c-0.1266899-0.1568069-0.2222252-0.3220482-0.3631935-0.4747009   c-0.5760803-0.623455-1.2732658-1.183567-2.0323677-1.6965561l1.5287209-2.9307518   c0.2699966-0.5192223,0.0716515-1.1630554-0.4506836-1.4351311c-0.5213013-0.2720718-1.1630592-0.0706139-1.4351311,0.4506874   l-1.4819908,2.8411827c-0.9766579-0.4706726-2.0323677-0.8520432-3.1272774-1.140213l-0.574646-3.7612457   c-0.0882683-0.5815277-0.6313744-0.9802895-1.2118683-0.8909836c-0.5254517,0.0809994-0.9024048,0.5337601-0.9024048,1.0488281   c0,0.0540009,0.0041504,0.1079979,0.0124588,0.1619987l0.4599037,3.0108376   c-1.0557098-0.1426544-2.1250496-0.2072983-3.1827049-0.155117c-0.1260414,0.0062332-0.2540283,0.016098-0.3804588,0.0227165   l-0.4700279-2.6063652c-0.1048813-0.5773735-0.6573334-0.9615993-1.2357483-0.8577557   c-0.5140305,0.0934601-0.8743706,0.5399914-0.8743706,1.0446758c0,0.0643845,0.0051918,0.1266899,0.0166168,0.1910744   l0.426281,2.3632393c-0.902668,0.0682793-1.7943039,0.1601791-2.6751633,0.2683067l-1.1250229-2.7769279   c-0.22015-0.5441475-0.8401031-0.8079109-1.3842468-0.5877609c-0.414341,0.1682281-0.6646042,0.5669899-0.6646042,0.9865227   c0,0.1329193,0.0249214,0.2679176,0.0778809,0.3987617l0.9344711,2.3065147   c-0.7988243,0.144474-1.5606537,0.3206215-2.2913284,0.5236359l-2.3171577-2.9236107   c-0.3655319-0.4610672-1.0342903-0.5379143-1.4943218-0.1723824c-0.2648029,0.2097664-0.4029179,0.5192223-0.4029179,0.8328323   c0,0.2326126,0.0747681,0.4652252,0.2294979,0.6604538l1.8608913,2.348053   c-0.8510056,0.3712425-1.6172466,0.8016777-2.2442074,1.3258324l-2.0186062-1.6115379   c-0.4589939-0.3676071-1.1277504-0.2907639-1.4943218,0.1682281c-0.156805,0.1952286-0.2326126,0.4299164-0.2326126,0.662529   c0,0.3115349,0.1370754,0.6209908,0.3998013,0.8307571l1.9694099,1.5722046   c-0.2751865,0.5042953-0.4618473,1.0411682-0.5502453,1.6116638l-3.4607468,0.1516151   c-0.5711441,0.0269966-1.0166359,0.496376-1.0166359,1.0633659c0,0.0145378,0,0.0311546,0.0010376,0.0477676   c0.0259609,0.5856819,0.522337,1.0405235,1.1090584,1.0135231l3.4681454-0.1520042   c0.0185623,0.0909958,0.011034,0.1740723,0.0334892,0.2662315c0.121109,0.5022202,0.2940102,0.9317436,0.4923534,1.3247948   l-1.7800236,2.3014526c-0.1495361,0.1931534-0.2222271,0.4216118-0.2222271,0.6500664   c0,0.3177643,0.1422672,0.6313744,0.4133015,0.8411407c0.4641838,0.3593025,1.1319046,0.2741508,1.4912052-0.1910744   l1.4974365-1.9361801c0.8175144,0.5891876,1.815073,0.901371,2.9090748,1.031826l-0.3628082,2.4433289   c-0.0072708,0.0519218-0.0114212,0.1059227-0.0114212,0.1578445c0,0.5171471,0.3790321,0.9719849,0.9076004,1.0488281   c0.5804901,0.0872307,1.1215172-0.3136101,1.2077103-0.8951378l0.3990211-2.6874962   c1.0368881-0.0445213,2.0993462-0.1739388,3.1281853-0.3202286l0.2101555,2.5155029   c0.0488052,0.5836067,0.5628357,1.0197525,1.14748,0.9699059c0.5867195-0.0477676,1.0290985-0.5877609,0.9709473-1.1485176   l-0.2208023-2.6425819c1.41605-0.1984749,2.724102-0.3374939,3.731781-0.2172966   c0.1544685,0.018692,0.3487892,0.0747681,0.5139008,0.103714l-0.5429764,2.6315498   c-0.0145378,0.0706139-0.0218086,0.1433067-0.0218086,0.2159958c0,0.4922218,0.3458023,0.936676,0.8484116,1.0384445   c0.5752983,0.1204605,1.138134-0.2513046,1.2565155-0.8266029l0.5311661-2.5744324   c0.3813667,0.10709,0.7505341,0.2063904,1.1490364,0.3230858c0.6514969,0.1901665,1.3061066,0.3770866,1.9563026,0.5492096   l-0.5024796,3.6294899c-0.007267,0.0498466-0.0103836,0.0976143-0.0103836,0.1474609   c0,0.5212975,0.3852615,0.9782143,0.917984,1.0509071C52.1264534,53.7880478,52.6633263,53.3809776,52.7432861,52.7994499z    M31.6067886,43.6735992c-0.2731113-1.1526756-0.1298065-2.0851974,0.4527626-2.8640327   c0.7013397-0.936676,1.9782372-1.6119232,3.4976082-2.1051865c0.0158386-0.0040207,0.0302467-0.0090866,0.0459518-0.0138893   c3.2428055-1.041687,7.5762329-1.2567749,9.8471794-1.3680191c4.0582428-0.1993828,8.4705925,1.3707466,10.7323265,3.8173218   c0.9896355,1.0716743,1.4880905,2.2077332,1.4880905,3.3894844c0,0.180687-0.011425,0.3634529-0.0353088,0.5462189   c-0.1225357,0.9574471-0.4351082,1.5888214-0.955368,1.9294319c-0.1688766,0.1104622-0.3625488,0.1930199-0.5752983,0.2537689   c-0.0098648,0.0018196-0.0190811,0.0051918-0.0289459,0.0072708c-1.5191154,0.415638-4.03825-0.3186722-6.2962189-0.9775658   c-0.8022003-0.2348213-1.5714264-0.4506874-2.3114471-0.6324158c-0.011425-0.0027237-0.0197296-0.0111618-0.0312843-0.0134964   c-0.0131111-0.0027275-0.0254402,0.0019455-0.0385513-0.0002594c-0.58815-0.1425285-1.163578-0.2707748-1.695652-0.3341217   c-1.5545502-0.1869202-3.4330978,0.0913849-5.4237938,0.3863029   C35.5071869,46.4047089,32.3243523,46.6456261,31.6067886,43.6735992z"></path><path d="M17.5192509,32.7990074l0.2663612-2.5544434c1.3647747-0.08074,2.434763-0.6819992,3.3061466-1.5575371   l1.2136822,1.5158691c0.3665714,0.458992,1.0363674,0.531683,1.4943218,0.166151   c0.458992-0.367609,0.5306454-1.0384445,0.1651134-1.4953594l-1.5149612-1.8921757   c0.4271908-0.6629181,0.8111553-1.3551712,1.1701965-2.0123768c0.0746384-0.1365547,0.152132-0.2711639,0.2274208-0.4079781   l2.0353508,1.3695793c0.4880676,0.3281479,1.1485195,0.1973038,1.4766674-0.2886887   c0.3250332-0.4839153,0.1993809-1.1464424-0.2886868-1.4766674l-2.1307583-1.4338322   c0.5261021-0.7762375,1.1010094-1.4446068,1.7797642-1.8455753c0.2507839-0.1481094,0.5508938-0.253252,0.8685284-0.3428173   l1.0453243,2.9763126c0.1941891,0.5524521,0.8016796,0.845293,1.3551693,0.6500664   c0.5545292-0.1931515,0.8494473-0.8037567,0.6511059-1.3562088l-0.8982544-2.5574303   c0.5910034-0.0253124,1.1958981-0.0359554,1.8037777-0.0366039c0.6300774-0.000391,1.3020782-0.0024662,1.9823914-0.0358276   l1.1360588,2.8230114c0.2191086,0.5441456,0.8390617,0.809988,1.3832054,0.5898361   c0.5472603-0.2180729,0.8079109-0.8473701,0.5898361-1.3832073l-0.9230461-2.2936649   c1.1777267-0.2531204,2.2728958-0.7226276,3.1050797-1.5919342l2.1337433,1.1960278   c0.5129929,0.2866116,1.1609802,0.1038456,1.4475899-0.4091473c0.2876511-0.512991,0.1059227-1.1609802-0.4070702-1.4475918   l-2.081562-1.1666927c0.2239151-0.6242342,0.3805923-1.34128,0.4345894-2.1937132   c0.0006485-0.0098648-0.002594-0.018692-0.0019455-0.0285568l2.3810234-0.8935814   c0.5503769-0.2056122,0.8255615-0.8203716,0.6220284-1.3686705c-0.2066498-0.550375-0.8193321-0.8286781-1.369709-0.6209898   l-2.1051865,0.7901268c-0.3407402-0.6060619-0.8539925-1.1457939-1.5428696-1.5959597   c-0.4027863-0.2631159-0.8791733-0.4685974-1.366333-0.6636953l0.7661133-1.3321943   c0.2918015-0.5067616,0.1194191-1.1589046-0.3925323-1.451746c-0.5088387-0.292841-1.158905-0.1163058-1.4517441,0.3925323   l-1.0213127,1.7759991c-1.1450157-0.221837-2.392704-0.303874-3.6766109-0.2953072l0.2980328-2.8410544   c0.0612679-0.5752983-0.3613777-1.1069818-0.946022-1.1672115c-0.5846443-0.0623064-1.1069832,0.3613787-1.168251,0.9470615   l-0.3324318,3.1699815c-1.1730537,0.111763-2.3390961,0.2846632-3.4517899,0.5475197l-0.4796314-1.6426888   c-0.1651115-0.5628376-0.7549496-0.8868322-1.3188248-0.7206807c-0.4641838,0.1349974-0.7653332,0.5586829-0.7653332,1.019752   c0,0.0976143,0.0135002,0.1993818,0.0425758,0.2990723l0.4774246,1.6350307   c-0.7885685,0.2692165-1.5372868,0.5653028-2.1950111,0.9050045c-0.4932613,0.2546787-0.9812012,0.5854235-1.4649849,0.9362879   l-1.9899197-2.1637297c-0.3977242-0.4319925-1.0706367-0.458992-1.5026302-0.0623064   c-0.2284565,0.2097654-0.3437252,0.496377-0.3437252,0.7829876c0,0.257534,0.0924225,0.5150681,0.2803802,0.7206802   l1.9251461,2.0932446c-1.0175457,0.9750996-1.9577274,2.1112871-2.7897806,3.3306799l-1.8986654-1.4902973   c-0.4621086-0.3613787-1.1298285-0.2824564-1.4922447,0.1806898c-0.1536903,0.1952276-0.2274199,0.4257622-0.2274199,0.6562967   c0,0.3136101,0.1391516,0.6272202,0.4070702,0.8369865l2.0920763,1.64217   c-0.573741,1.0418186-1.0499973,2.0911674-1.3950205,3.1263676L9.4349604,21.087431   c-0.5763369-0.110075-1.1329432,0.2679176-1.2430182,0.845293c-0.0124617,0.0685368-0.018692,0.1349983-0.018692,0.201458   c0,0.5005302,0.3551483,0.9449844,0.863986,1.0425987l3.4040213,0.6478596   c-0.0733404,0.4685974-0.1484976,0.9388828-0.1484976,1.3729534c0,0.2263813,0.0103846,0.4465313,0.0311527,0.66045   c0.029336,0.2951794,0.1230564,0.5467415,0.1905546,0.8163471l-2.7440891,1.2916965   c-0.3852634,0.1806889-0.6106052,0.5628357-0.6106052,0.9615993c0,0.1516132,0.0321913,0.3073788,0.1017675,0.4527607   c0.2492266,0.5316849,0.8826771,0.7601414,1.414361,0.5088387l2.7604456-1.2993546   c0.5589428,0.6520138,1.3096075,1.1337223,2.2373285,1.411377l-0.2686977,2.577549   c-0.0041542,0.037384-0.0062304,0.0747681-0.0062304,0.1121521c0,0.5379143,0.4060316,0.9989815,0.9532919,1.0550575   C16.9356441,33.8083763,17.4590206,33.3826141,17.5192509,32.7990074z M14.4402628,25.6482792   c-0.3593016-3.8443222,3.8256292-10.4965973,7.8838701-12.5921783c4.3946972-2.2721167,11.8860378-2.6168804,14.8435268-0.6853733   c0.9076004,0.5919132,1.0612907,1.2087498,1.0612907,1.6594343c0,0.0498457-0.002079,0.0976133-0.0051918,0.1433058   c-0.2367668,3.7321682-2.5722275,3.9149361-6.680315,3.9190884c-2.1059647,0.0020771-4.2846222,0.0041542-5.9056339,0.9615993   c-1.3059731,0.7714348-2.2238293,2.0260067-3.0278454,3.3810463c-0.0018158,0.0025959-0.004673,0.0037651-0.0064888,0.006361   c-0.0014286,0.0020771-0.0006504,0.0048027-0.0020771,0.0068798c-0.2925816,0.4937801-0.5727024,0.9982033-0.8473721,1.5009403   c-1.6874714,3.0862579-2.7716084,4.7955379-5.4331398,4.0353966   C15.1630201,27.6524773,14.5659142,26.9110279,14.4402628,25.6482792z"></path><path d="M64.8193588,9.1536264c0,0.0394611,0.0020752,0.0789223,0.0062332,0.1183825l0.33918,3.1084538   c-0.9296646,0.1016378-1.7749634,0.5336313-2.5219917,1.2942915l-2.3281937-1.8087111   c-0.4631462-0.3613787-1.1319046-0.276226-1.4922447,0.1869202c-0.1505737,0.1931505-0.2232666,0.423686-0.2232666,0.6521435   c0,0.3156872,0.1412277,0.6292973,0.4112244,0.8390627l2.4091911,1.8715372   c-0.3489151,0.7239246-0.5390816,1.5118446-0.5995712,2.3390961l-2.7057953-0.0298557   c-0.5867233-0.0062294-1.0685616,0.4652233-1.074791,1.0509052c0,0.0041542,0,0.0083084,0,0.0124626   c0,0.5815277,0.468338,1.0571365,1.0519447,1.0633659l2.8777885,0.0316734   c0.0397186,0.1956177,0.0672379,0.3886375,0.1212387,0.5872402c0.2220955,0.8194618,0.5810089,1.6390553,1.0168953,2.4456673   l-2.712677,1.8908768c-0.2959557,0.2076893-0.4548378,0.5379143-0.4548378,0.8722935   c0,0.2118435,0.0623055,0.4236851,0.1910744,0.6085281c0.3354187,0.4818382,0.9989815,0.6002216,1.4808197,0.2637653   l2.6288223-1.8323345c0.6473427,0.8689175,1.406189,1.6952591,2.2425232,2.4574776l-1.2315979,3.601326   c-0.0384216,0.1142292-0.0571136,0.2305355-0.0571136,0.3447628c0,0.442379,0.2772675,0.8556786,0.7196426,1.0052166   c0.5555649,0.1910706,1.1599426-0.1059227,1.3499756-0.6604519l0.9852295-2.8811646   c0.8696976,0.6155376,1.7874222,1.1683807,2.7490234,1.6121845c0.1147461,0.0528316,0.2327347,0.1031952,0.3480072,0.1558971   l-0.7883148,2.5253658c-0.033226,0.1059227-0.0488052,0.2139206-0.0488052,0.3177643   c0,0.4527626,0.2918015,0.8722954,0.7466431,1.0155983c0.5607605,0.1744614,1.1568298-0.1391487,1.3312836-0.697834   l0.7154922-2.2921066c0.8317947,0.356966,1.6648865,0.6883602,2.495903,1.0001526l-0.2881699,2.9825439   c-0.0031204,0.035305-0.0051956,0.0685349-0.0051956,0.1038437c0,0.5399895,0.4112244,1.0031357,0.9616013,1.0571365   c0.5836029,0.056076,1.1038666-0.3717651,1.1599426-0.9574471l0.2392349-2.4759102   c0.7750626,0.2415657,1.5318298,0.4379616,2.2735443,0.5963249l0.70121,3.6636314   c0.1111069,0.5773773,0.667717,0.9553719,1.2440567,0.845295c0.5784073-0.1100731,0.9491348-0.6812172,0.8452911-1.2440567   l-0.5630951-2.9423027c0.9262924,0.065033,1.8049469,0.0385513,2.6032486-0.1356468l1.0440292,2.3635025   c0.2378006,0.5379143,0.8650208,0.7809067,1.4029312,0.5420647c0.5389557-0.236763,0.7798767-0.8702164,0.5431137-1.4018974   l-1.0289688-2.329361c0.4730072-0.3180237,0.8940964-0.6926422,1.2340546-1.1538429l3.1470108,1.4727745   c0.5316849,0.2492256,1.1651306,0.018692,1.4133224-0.5129929c0.250267-0.5275307,0.0207672-1.1651344-0.5119553-1.41436   l-3.138176-1.46875c0.0254364-0.0882683,0.0655518-0.1619968,0.0882645-0.2529907   c0.1243515-0.5011806,0.1693954-0.961729,0.1752396-1.4017715l2.6441422-1.217186   c0.5347977-0.2450733,0.7642899-0.8826771,0.5212936-1.4102077c-0.2450714-0.5337601-0.876442-0.7663727-1.410202-0.5212994   l-2.2251282,1.0242958c-0.4518585-0.9016285-1.1913605-1.6403522-2.1003876-2.2623806l1.4521332-1.9977074   c0.3447647-0.4735317,0.2429962-1.1381359-0.2346878-1.4849758c-0.4745636-0.3447647-1.140213-0.2409191-1.4849701,0.2346878   l-1.5975189,2.1977386c-0.9399261-0.4405613-1.9420242-0.8175163-2.9223175-1.1640968l0.9776993-2.3254662   c0.2253418-0.5379143-0.0270004-1.1651344-0.5680313-1.3915157c-0.5410309-0.2284584-1.1651306,0.0269985-1.3925552,0.569067   l-1.0272751,2.4434605c-1.3467331-0.4792423-2.5705414-0.9609509-3.4068832-1.533783   c-0.1359024-0.093071-0.2789459-0.2080784-0.4200439-0.3169842l1.7097931-2.0942841   c0.3696899-0.4527607,0.3053055-1.12152-0.1505737-1.4974365c-0.454834-0.3696861-1.1256714-0.3032255-1.4963989,0.1516132   l-1.668129,2.0431385c-0.2827148-0.2663612-0.5695877-0.5403805-0.8625565-0.821928   c-0.4897614-0.4708042-0.9837952-0.9399223-1.4808273-1.3938522l2.1257019-2.98423   c0.3385315-0.4756079,0.2305298-1.1402121-0.2492294-1.4828987c-0.4787216-0.3406096-1.1422882-0.2284575-1.4828949,0.2492266   l-2.0280838,2.8472853c-0.7302856-0.5524521-1.4695282-1.0084591-2.2196732-1.3015604l-0.4013596-3.67869   c-0.0633469-0.5836058-0.5887985-1.0052137-1.1724091-0.9408302C65.2222748,8.1587963,64.8193588,8.6177893,64.8193588,9.1536264z    M71.2016373,18.3168602c0.6015167,0.577116,1.1820068,1.1232071,1.752243,1.6258144   c0.0103912,0.0092163,0.0137634,0.0225868,0.0245361,0.0315437c0.0131073,0.010643,0.0295944,0.0127201,0.0429688,0.0225849   c0.4526291,0.3960381,0.900589,0.7745514,1.3402405,1.0760899c1.2907867,0.8847542,3.0862579,1.5078201,4.9866104,2.1661949   c4.0862808,1.4185143,6.8651581,2.5753422,6.8651581,4.9367638c0,0.2720737-0.037384,0.5628376-0.1142273,0.8702164   c-0.2855759,1.1464443-0.8504868,1.9086628-1.7258987,2.3281937c-3.3074417,1.5867443-10.4394836-1.7030487-13.4841995-3.1070271   c-3.6895981-1.7030487-6.8755417-5.1382217-7.7467995-8.3532467c-0.4371834-1.6241264-0.2616882-3.0218735,0.5337639-4.1600084   c0.5524521-0.7912951,1.121521-1.2066727,1.7404327-1.266902c0.1995087-0.0198603,0.4081039-0.0033751,0.6233215,0.040369   c0.0131149,0.0041542,0.0263519,0.0057116,0.0397263,0.009346C67.6177063,14.8740282,69.5079346,16.6883202,71.2016373,18.3168602z   "></path></g></svg>