<svg height='100px' width='100px'  fill="#000000" xmlns="http://www.w3.org/2000/svg" xmlns:xlink="http://www.w3.org/1999/xlink" version="1.1" x="0px" y="0px" viewBox="0 0 100 100" style="enable-background:new 0 0 100 100;" xml:space="preserve"><path d="M84.5185547,10c-3.0224609,0-5.4814453,2.4589844-5.4814453,5.4814453v9.7338867h-5.9705811  c-1.5288086-2.4047852-4.210083-4.0083008-7.2647705-4.0083008c-2.8212891,0-5.3222656,1.3700562-6.8935547,3.4732056v-5.7720337  C58.9082031,13.9960938,54.9121094,10,50,10s-8.9082031,3.9960938-8.9082031,8.9082031v5.7719727  c-1.5712891-2.1030884-4.0722656-3.4731445-6.8935547-3.4731445c-3.0546875,0-5.7358398,1.6035156-7.2646484,4.0083008h-5.9707031  v-9.7338867C20.9628906,12.4589844,18.5039062,10,15.4814453,10S10,12.4589844,10,15.4814453V50c0,22.0561523,17.9443359,40,40,40  s40-17.9438477,40-40V15.4814453C90,12.4589844,87.5410156,10,84.5185547,10z M79.0371094,27.215332v5.2050781h-5.0291748  c0.2611084-0.8216553,0.4041748-1.6954956,0.4041748-2.6025391s-0.1430664-1.7808838-0.4041748-2.6025391H79.0371094z   M65.8017578,23.2070312c3.6445312,0,6.6103516,2.9658203,6.6103516,6.6108398s-2.9658203,6.6108398-6.6103516,6.6108398  s-6.6103516-2.9658203-6.6103516-6.6108398S62.1572266,23.2070312,65.8017578,23.2070312z M43.0917969,18.9082031  c0-3.4686279,2.5721436-6.340332,5.9082031-6.8273926v2.7102051c0,0.5522461,0.4472656,1,1,1s1-0.4477539,1-1v-2.7102051  c3.3360596,0.4870605,5.9082031,3.3587646,5.9082031,6.8273926v20.0585938c0,3.4686279-2.5721436,6.340332-5.9082031,6.8273926  v-2.2526855c0-0.5522461-0.4472656-1-1-1s-1,0.4477539-1,1v2.2526855c-3.3360596-0.4870605-5.9082031-3.3587646-5.9082031-6.8273926  V18.9082031z M50,47.875c4.9121094,0,8.9082031-3.9960938,8.9082031-8.9082031v-4.0112915  c1.5712891,2.1031494,4.0722656,3.4732056,6.8935547,3.4732056c3.0546875,0,5.7359619-1.6035156,7.2647705-4.0083008h5.9705811  v13.5908203c0,16.0112305-13.0263672,29.0371094-29.0371094,29.0371094S20.9628906,64.0224609,20.9628906,48.0112305V34.4204102  h5.9707031c1.5288086,2.4047852,4.2099609,4.0083008,7.2646484,4.0083008c2.8212891,0,5.3222656-1.3700562,6.8935547-3.4731445  v4.0112305C41.0917969,43.8789062,45.0878906,47.875,50,47.875z M34.1982422,23.2070312  c3.6445312,0,6.6103516,2.9658203,6.6103516,6.6108398s-2.9658203,6.6108398-6.6103516,6.6108398  s-6.6103516-2.9658203-6.6103516-6.6108398S30.5537109,23.2070312,34.1982422,23.2070312z M25.9920654,27.215332  c-0.2611084,0.8216553-0.4041748,1.6954956-0.4041748,2.6025391s0.1430664,1.7808838,0.4041748,2.6025391h-5.0291748V27.215332  H25.9920654z M88,50c0,20.953125-17.046875,38-38,38S12,70.953125,12,50V15.4814453C12,13.5620117,13.5615234,12,15.4814453,12  s3.4814453,1.5620117,3.4814453,3.4814453v32.5297852C18.9628906,65.125,32.8857422,79.0483398,50,79.0483398  S81.0371094,65.125,81.0371094,48.0112305V15.4814453C81.0371094,13.5620117,82.5986328,12,84.5185547,12  S88,13.5620117,88,15.4814453V50z"></path><path d="M50,23.8120117c0.5527344,0,1-0.4477539,1-1v-3.3334961c0-0.5522461-0.4472656-1-1-1s-1,0.4477539-1,1v3.3334961  C49,23.3642578,49.4472656,23.8120117,50,23.8120117z"></path><path d="M50,31.8330078c0.5527344,0,1-0.4477539,1-1v-3.3334961c0-0.5522461-0.4472656-1-1-1s-1,0.4477539-1,1v3.3334961  C49,31.3852539,49.4472656,31.8330078,50,31.8330078z"></path><path d="M50,39.8540039c0.5527344,0,1-0.4477539,1-1v-3.3334961c0-0.5522461-0.4472656-1-1-1s-1,0.4477539-1,1v3.3334961  C49,39.40625,49.4472656,39.8540039,50,39.8540039z"></path></svg>