<svg height='100px' width='100px'  fill="#000000" xmlns="http://www.w3.org/2000/svg" xmlns:xlink="http://www.w3.org/1999/xlink" xml:space="preserve" version="1.1" style="shape-rendering:geometricPrecision;text-rendering:geometricPrecision;image-rendering:optimizeQuality;" viewBox="0 0 0.898 1.079" x="0px" y="0px" fill-rule="evenodd" clip-rule="evenodd"><defs><style type="text/css">
   
    .fil0 {fill:#000000;fill-rule:nonzero}
   
  </style></defs><g><path class="fil0" d="M0.173 0.362l0.322 0 0 -0.342c0,-0.011 0.009,-0.02 0.02,-0.02 0.105,0 0.201,0.043 0.27,0.112 0.07,0.07 0.113,0.165 0.113,0.27l0 0.133c0,0.042 -0.018,0.081 -0.045,0.108 -0.027,0.027 -0.063,0.043 -0.102,0.045l-0.199 0.131 0.134 0.089c0.016,-0.012 0.037,-0.019 0.059,-0.019 0.028,0 0.055,0.012 0.074,0.031l0 0c0.019,0.019 0.03,0.045 0.03,0.074 0,0.029 -0.011,0.055 -0.03,0.074l-0.002 0.001c-0.019,0.018 -0.044,0.03 -0.072,0.03 -0.029,0 -0.055,-0.012 -0.074,-0.031 -0.019,-0.019 -0.031,-0.045 -0.031,-0.074 0,-0.021 0.006,-0.041 0.017,-0.057l-0.142 -0.094 -0.142 0.094c0.011,0.016 0.017,0.036 0.017,0.057 0,0.029 -0.011,0.055 -0.03,0.074l-0.001 0.001c-0.019,0.018 -0.045,0.03 -0.073,0.03 -0.029,0 -0.055,-0.012 -0.074,-0.031 -0.019,-0.019 -0.031,-0.045 -0.031,-0.074 0,-0.029 0.012,-0.055 0.031,-0.074 0.019,-0.019 0.045,-0.031 0.074,-0.031 0.022,0 0.042,0.007 0.059,0.019l0.134 -0.089 -0.199 -0.131c-0.04,-0.002 -0.076,-0.018 -0.102,-0.045 -0.028,-0.027 -0.045,-0.066 -0.045,-0.108l0 -0.133 0 0 0 -0.145c0,-0.017 -0.007,-0.033 -0.018,-0.044l-0.001 -0.001c-0.012,-0.012 -0.028,-0.019 -0.046,-0.019l-0.048 0c-0.011,0 -0.02,-0.009 -0.02,-0.02 0,-0.011 0.009,-0.02 0.02,-0.02l0.048 0c0.029,0 0.055,0.012 0.074,0.031l0.001 0.001c0.019,0.019 0.03,0.044 0.03,0.072l0 0.125zm0.505 0.306l-0.325 0 0.162 0.107 0.163 -0.107zm0.112 0.26c-0.011,-0.011 -0.028,-0.018 -0.045,-0.018 -0.018,0 -0.034,0.007 -0.046,0.019 -0.012,0.011 -0.019,0.027 -0.019,0.045 0,0.018 0.007,0.034 0.019,0.046 0.012,0.011 0.028,0.018 0.046,0.018 0.017,0 0.033,-0.006 0.044,-0.018l0.001 0c0.012,-0.012 0.019,-0.028 0.019,-0.046 0,-0.018 -0.007,-0.034 -0.019,-0.045l0 -0.001zm-0.459 0c-0.011,-0.011 -0.027,-0.018 -0.045,-0.018 -0.018,0 -0.034,0.007 -0.046,0.019 -0.011,0.011 -0.019,0.027 -0.019,0.045 0,0.018 0.008,0.034 0.019,0.046 0.012,0.011 0.028,0.018 0.046,0.018 0.017,0 0.033,-0.006 0.044,-0.018l0.001 0c0.012,-0.012 0.019,-0.028 0.019,-0.046 0,-0.018 -0.007,-0.034 -0.019,-0.045l0 -0.001zm0.204 -0.566l0.322 0c-0.005,-0.086 -0.043,-0.164 -0.1,-0.221 -0.058,-0.058 -0.136,-0.095 -0.222,-0.1l0 0.321zm0.322 0.04l-0.342 0 -0.342 0 0 0.113c0,0.031 0.013,0.059 0.033,0.08 0.021,0.02 0.049,0.033 0.08,0.033l0.459 0c0.031,0 0.059,-0.013 0.079,-0.033 0.021,-0.021 0.033,-0.049 0.033,-0.08l0 -0.113z"></path></g></svg>