<svg height='100px' width='100px'  fill="#000000" xmlns="http://www.w3.org/2000/svg" xmlns:xlink="http://www.w3.org/1999/xlink" version="1.1" x="0px" y="0px" viewBox="0 0 60 60" style="enable-background:new 0 0 60 60;" xml:space="preserve"><path d="M19.29,48.98c2.21,0,4.29-0.86,5.85-2.42c1.56-1.56,2.42-3.64,2.42-5.85c0-2.21-0.86-4.29-2.42-5.85  c-3.23-3.22-8.47-3.23-11.7,0c-3.23,3.23-3.23,8.48,0,11.7C15,48.12,17.07,48.98,19.29,48.98z M14.85,36.28  c1.22-1.22,2.83-1.83,4.44-1.83s3.21,0.61,4.44,1.83c1.18,1.18,1.83,2.76,1.83,4.44s-0.65,3.25-1.83,4.44  c-1.18,1.18-2.76,1.83-4.44,1.83c-1.68,0-3.25-0.65-4.44-1.83C12.4,42.7,12.4,38.72,14.85,36.28z"></path><path d="M19.29,55c3.82,0,7.4-1.49,10.1-4.19c2.07-2.07,3.74-4.98,4.71-8.2c1.23-4.1,4.42-7.29,8.52-8.52  c3.22-0.97,6.13-2.64,8.2-4.71c5.57-5.57,5.57-14.63,0-20.21C48.12,6.49,44.53,5,40.71,5c-3.82,0-7.4,1.49-10.1,4.18  c-2.07,2.07-3.74,4.98-4.71,8.2c-1.23,4.1-4.42,7.29-8.52,8.52c-3.22,0.97-6.13,2.64-8.2,4.71c-5.57,5.57-5.57,14.63,0,20.21  C11.88,53.51,15.47,55,19.29,55z M10.6,32.02c1.84-1.84,4.45-3.33,7.36-4.21c4.75-1.43,8.43-5.11,9.86-9.86  c0.87-2.91,2.37-5.52,4.21-7.36C34.35,8.28,37.43,7,40.71,7c3.28,0,6.37,1.28,8.69,3.6c4.79,4.79,4.79,12.59,0,17.38  c-1.84,1.84-4.45,3.33-7.36,4.21c-4.75,1.43-8.43,5.11-9.86,9.86c-0.87,2.91-2.37,5.52-4.21,7.36c-2.32,2.32-5.41,3.6-8.69,3.6  c-3.28,0-6.37-1.28-8.69-3.6C5.81,44.61,5.81,36.82,10.6,32.02z"></path><path d="M40.71,27.56c2.12,0,4.24-0.81,5.85-2.42c1.56-1.56,2.42-3.64,2.42-5.85c0-2.21-0.86-4.29-2.42-5.85  c-3.23-3.23-8.48-3.23-11.7,0c-3.23,3.23-3.23,8.48,0,11.7C36.47,26.75,38.59,27.56,40.71,27.56z M36.28,14.85  c1.22-1.22,2.83-1.83,4.44-1.83c1.61,0,3.21,0.61,4.44,1.83c1.18,1.18,1.83,2.76,1.83,4.44s-0.65,3.25-1.83,4.44  c-2.45,2.44-6.43,2.45-8.87,0C33.83,21.28,33.83,17.3,36.28,14.85z"></path></svg>