<svg height='100px' width='100px'  fill="#000000" xmlns="http://www.w3.org/2000/svg" xmlns:xlink="http://www.w3.org/1999/xlink" version="1.1" x="0px" y="0px" viewBox="0 0 200 200" enable-background="new 0 0 200 200" xml:space="preserve"><path d="M167.66,65.875c-12.761-13.151-25.438-18.954-37.675-17.242c-16.221,2.254-26.361,17.185-28.406,20.464  c-16.95-3.584-20.215-19.05-20.348-19.716c-0.018-0.087-0.038-0.173-0.061-0.258l-9.528-35.439  c-0.013-0.049-0.039-0.092-0.053-0.141c-0.077-0.397-0.177-0.792-0.305-1.184c-1.497-4.565-6.052-7.515-11.606-7.515  c-1.676,0-3.357,0.272-4.997,0.81c-3.302,1.083-6.107,3.142-7.898,5.799c-1.973,2.927-2.527,6.365-1.521,9.433  c0.049,0.151,0.111,0.295,0.167,0.443l10.277,37.487c0.566,2.647,7.018,28.493,43.879,35.6c0.285,2.898,1.904,13.186,10.721,17.881  v15.594c-2.7,1.113-13.12,5.955-14.962,15.006c-3.854-0.988-16.845-3.326-26.156,6.901c-3.891-1.942-24.122-11.234-38.81-2.55  c-11.189,6.613-19.004,24.46-19.004,43.4c0,2.209,1.791,4,4,4s4-1.791,4-4c0-17.93,7.767-32.194,15.075-36.514  c12.12-7.167,31.395,2.934,31.582,3.033l2.191,1.182c1.654,0.891,3.703,0.513,4.929-0.909l1.62-1.88  c7.087-8.237,17.93-5.14,19.078-4.78l3.573,1.188c1.137,0.377,2.384,0.226,3.4-0.415c1.013-0.641,1.686-1.703,1.832-2.893  l0.457-3.72c0.606-4.93,8.042-8.82,10.592-9.791l2.004-0.749c1.563-0.585,2.6-2.078,2.6-3.747v-20.839  c0-1.526-0.868-2.919-2.238-3.591l-1.713-0.841c-6.114-3.006-6.788-11.353-6.833-12.041l-0.075-2.408  c-0.059-1.884-1.426-3.472-3.28-3.81l-2.435-0.444C68.387,80.53,63.709,58.08,63.526,57.127c-0.02-0.102-0.043-0.203-0.071-0.304  l-7.807-28.477c0.4,0.032,0.805,0.053,1.217,0.053c1.677,0,3.36-0.273,4.998-0.811c1.716-0.562,3.258-1.385,4.592-2.388  l6.961,25.893c0.458,2.111,5.343,21.934,27.523,26.031l1.97,0.355c1.663,0.303,3.338-0.479,4.18-1.946l1.045-1.822  c0.088-0.152,8.964-15.212,22.955-17.156c9.57-1.338,19.944,3.672,30.83,14.89c22.383,23.066,21.979,52.754,14.137,72.847  c-9.809,25.133-31.438,40.823-55.134,39.957c-0.038-0.002-0.076-0.003-0.114-0.003l-0.254-0.002  c-0.217-0.002-0.419,0.013-0.628,0.045l-0.246,0.037c-0.003,0-0.007,0.001-0.01,0.001c-0.574,0.078-20.65,2.506-43.955-12.479  l-2.231-1.387c-1.77-1.099-4.083-0.658-5.324,1.015l-1.569,2.115c-0.042,0.053-1.044,1.288-2.745,1.391  c-2.238,0.181-5.622-1.952-9.078-5.663c-4.06-4.369-10.05-5.704-15.266-3.403c-3.507,1.555-11.664,7.179-11.664,25.787  c0,2.209,1.791,4,4,4s4-1.791,4-4c0-14.301,5.285-17.755,6.899-18.471c2.106-0.93,4.413-0.357,6.173,1.536  c5.403,5.8,10.618,8.55,15.472,8.196c4.056-0.244,6.728-2.497,7.943-3.792c24.525,15.399,45.813,13.399,48.428,13.076  c27.117,0.946,51.707-16.744,62.755-45.048C192.255,124.793,192.685,91.661,167.66,65.875z M59.373,19.986  c-0.834,0.274-1.678,0.413-2.507,0.413c-1.835,0-3.329-0.684-3.868-1.724l-0.121-0.442c-0.024-0.086-0.066-0.162-0.095-0.246  c-0.086-0.829,0.342-1.628,0.636-2.065c0.79-1.172,2.159-2.145,3.755-2.668c0.834-0.273,1.677-0.412,2.505-0.412  c1.97,0,3.617,0.825,4.003,2.005C64.203,16.441,62.563,18.942,59.373,19.986z"></path></svg>