<svg height='100px' width='100px'  fill="#000000" xmlns="http://www.w3.org/2000/svg" viewBox="0 0 32 68" x="0px" y="0px"><path fill="#000000" fill-rule="evenodd" d="M438.125331,434.999772 C438.043509,434.680934 438,434.346796 438,434.002608 L438,428.997392 C438,426.787309 439.791714,425 442.004882,425 L443.209914,425 L443.682024,420.751016 C443.977235,418.094118 446.32265,416 449.001665,416 L450.998335,416 C453.6744,416 456.02269,418.093438 456.317976,420.751016 L456.790086,425 L457.995118,425 C460.204975,425 462,426.789306 462,428.997392 L462,434.002608 C462,434.347168 461.956267,434.681657 461.874074,435.000808 C464.334419,436.365411 466,438.987147 466,441.997071 L466,443 C466,444.776872 465.608039,446.452504 464.831938,448.489768 C464.583628,449.141584 464.550527,449.22138 463.843271,450.901114 C462.497606,454.097069 462,455.817955 462,458 C462,460.182045 462.497606,461.902931 463.843271,465.098886 C464.550527,466.77862 464.583628,466.858416 464.831938,467.510232 C465.608039,469.547496 466,471.223128 466,473 L466,480.002608 C466,482.20733 464.207648,484 462.008756,484 L437.991244,484 C435.78586,484 434,482.207639 434,480.002608 L434,473 C434,471.223128 434.391961,469.547496 435.168062,467.510232 C435.416372,466.858416 435.449473,466.77862 436.156729,465.098886 C437.502394,461.902931 438,460.182045 438,458 C438,455.817955 437.502394,454.097069 436.156729,450.901114 C435.449473,449.22138 435.416372,449.141584 435.168062,448.489768 C434.391961,446.452504 434,444.776872 434,443 L434,441.997071 C434,438.985164 435.664358,436.363694 438.125331,434.999772 L438.125331,434.999772 Z M462,473 C462,471.787983 461.711826,470.556039 461.093987,468.934213 C460.870076,468.346445 460.838362,468.269992 460.156729,466.651114 C458.617779,462.996107 458,460.859621 458,458 C458,455.140379 458.617779,453.003893 460.156729,449.348886 C460.838362,447.730008 460.870076,447.653555 461.093987,447.065787 C461.711826,445.443961 462,444.212017 462,443 L462,441.997071 C462,439.791103 460.206306,438 457.993298,438 L442.006702,438 C439.790409,438 438,439.78847 438,441.997071 L438,443 C438,444.212017 438.288174,445.443961 438.906013,447.065787 C439.129924,447.653555 439.161638,447.730008 439.843271,449.348886 C441.382221,453.003893 442,455.140379 442,458 C442,460.859621 441.382221,462.996107 439.843271,466.651114 C439.161638,468.269992 439.129924,468.346445 438.906013,468.934213 C438.288174,470.556039 438,471.787983 438,473 L438,480 L461.999974,480 C462.002108,480 462,473 462,473 Z M458,428.997392 C458,429.001308 455,429 455,429 C453.980902,429 453.124773,428.233728 453.012233,427.220863 L452.342441,421.192742 C452.272615,420.564302 451.639615,420 450.998335,420 L449.001665,420 C448.358755,420 447.727457,420.563659 447.657559,421.192742 L446.987767,427.220863 C446.875227,428.233728 446.019098,429 445,429 L442.004882,429 C442.001474,429 442,434 442,434 L458,434 L458,428.997392 Z" transform="translate(-434 -416)"></path></svg>