<svg height='100px' width='100px'  fill="#000000" xmlns="http://www.w3.org/2000/svg" xmlns:xlink="http://www.w3.org/1999/xlink" version="1.1" x="0px" y="0px" viewBox="0 0 60 60" style="enable-background:new 0 0 60 60;" xml:space="preserve"><path d="M19.3677979,48.0600586c0.1294556,0,0.2550659-0.015564,0.383606-0.0194092  c0.6051025,0.984436,1.3123779,1.8960571,2.1212769,2.7049561C24.6060791,53.4892578,28.2486572,55,32.1314697,55  c5.9589844,0,11.2617188-3.6181641,13.5087891-9.2192383c3.8144531-9.5512695,7.6035156-15.0546875,7.6416016-15.1088867  c0.1582031-0.2280273,0.2148438-0.5117188,0.1552734-0.7832031c-0.0585938-0.2714844-0.2275391-0.5058594-0.4667969-0.6474609  l-0.5488281-0.3256836c-2.5791016-1.4941406-5.9130859-0.7436523-7.5849609,1.7094727l-2.1650391,3.152832V13.8813477  c0-1.0541992-0.4101563-2.0439453-1.1533203-2.7866211c-0.7431641-0.7436523-1.7333984-1.1533203-2.7871094-1.1533203  c-0.7079468,0-1.3636475,0.2027588-1.9384766,0.531189V8.9404297C36.7926025,6.7675781,35.0250244,5,32.8521729,5  s-3.9414063,1.7675781-3.9414063,3.9404297v0.3017578c-0.590271-0.3363647-1.2494507-0.5307617-1.9384766-0.5307617  c-2.1728516,0-3.9404297,1.7675781-3.9404297,3.9399414v1.4315186c-0.5230713-0.2717896-1.1008911-0.4315186-1.7099609-0.4315186  c-2.0400391,0-3.7001953,1.6640625-3.7001953,3.7099609v5.1760864c-6.2481689,0.8563232-11.0820313,6.2149658-11.0820313,12.694519  C6.5396729,42.3051758,12.2945557,48.0600586,19.3677979,48.0600586z M32.8521729,7  c1.0703125,0,1.9404297,0.8706055,1.9404297,1.9404297v4.9312744c0,0.0032959-0.0009766,0.0063477-0.0009766,0.0096436v12.5097656  c0,0.5522461,0.4472656,1,1,1c0.4147949,0,0.7700806-0.2521973,0.9216309-0.6115112  c0.0509033-0.1199951,0.0793457-0.2518311,0.0793457-0.3904419V13.8717041  c0.0053711-1.0653076,0.8724365-1.9302979,1.9384766-1.9302979c0.5195313,0,1.0068359,0.2016602,1.3730469,0.5678711  c0.3662109,0.3652344,0.5673828,0.8525391,0.5673828,1.3720703v23.1191406c0,0.4379883,0.2851563,0.8251953,0.7041016,0.9550781  c0.4189453,0.1308594,0.8730469-0.027832,1.1201172-0.3891602l3.9912109-5.8120117  c1.0078125-1.4770508,2.9404297-2.0039063,4.5478516-1.3032227c-1.2431641,1.9604492-4.2128906,6.9765625-7.2509766,14.5864258  C41.8424072,49.8745117,37.269165,53,32.1314697,53c-3.3466797,0-6.4873047-1.3017578-8.8427734-3.6669922  c-0.4747314-0.4750366-0.8994141-0.9981689-1.2947998-1.5454102c5.817749-1.2154541,10.2020264-6.3824463,10.2020264-12.5556641  c0-3.039856-1.0679321-5.8320923-2.8416138-8.0327148c0.1613159,0.1116333,0.3461914,0.1918945,0.5574341,0.1918945  c0.5527344,0,1-0.4477539,1-1V12.6513672c0-0.003418-0.0009766-0.0065918-0.0009766-0.0100098V8.9404297  C30.9107666,7.8706055,31.7818604,7,32.8521729,7z M25.0318604,12.6513672c0-1.0698242,0.8701172-1.9399414,1.9404297-1.9399414  c0.5117188,0,1.0019531,0.2036133,1.3720703,0.5678711c0.3638306,0.362854,0.5637207,0.8463745,0.5664063,1.3619995v13.7478638  c0,0.1370239,0.0280762,0.267395,0.0779419,0.3862915c-1.1035767-1.2539063-2.4452515-2.2874756-3.9568481-3.0355835v-6.37854  V12.6513672z M21.3218994,15.6513672c0.4609375,0,0.8916016,0.1767578,1.2128906,0.4970703  c0.3203125,0.3208008,0.4970703,0.7514648,0.4970703,1.2128906v5.5829468  c-1.0839844-0.3238525-2.2277832-0.5038452-3.4101563-0.5270996v-5.0558472  C19.6217041,16.418457,20.3843994,15.6513672,21.3218994,15.6513672z M19.3677979,24.4042969  c5.9707031,0,10.828125,4.8574219,10.828125,10.8276367c0,5.9707031-4.8574219,10.828125-10.828125,10.828125  s-10.828125-4.8574219-10.828125-10.828125C8.5396729,29.2617188,13.3970947,24.4042969,19.3677979,24.4042969z"></path><path d="M20.0230713,29.1875c0.1298828,0.0405273,0.7822266,0.2753906,0.7822266,0.956543c0,0.5522461,0.4472656,1,1,1  s1-0.4477539,1-1c0-1.7880859-1.4628906-2.6660156-2.2363281-2.8803711c-0.5244141-0.1425781-1.0654297,0.1601563-1.21875,0.6855469  C19.1959229,28.4741211,19.4996338,29.0268555,20.0230713,29.1875z"></path><path d="M12.7789307,36.2319336c0.1835938,0,0.3701172-0.0507813,0.5371094-0.1567383  c0.4658203-0.2973633,0.6015625-0.9155273,0.3046875-1.3813477c-0.6376953-0.9990234-0.0283203-2.0463867,0.0068359-2.1054688  c0.2890625-0.4663086,0.1494141-1.0791016-0.3154297-1.3725586c-0.4677734-0.2958984-1.0839844-0.1557617-1.3798828,0.3110352  c-0.0546875,0.0869141-1.3300781,2.1533203,0.0029297,4.2431641C12.1256104,36.0688477,12.4488525,36.2319336,12.7789307,36.2319336  z"></path><path d="M20.612915,40.7495117c-0.4550781-0.2841797-1.0664063-0.1396484-1.3681641,0.3066406  c-0.0126953,0.0195313-0.3330078,0.4804688-1.2373047,0.5966797c-0.5478516,0.0703125-0.9345703,0.5712891-0.8642578,1.1191406  c0.0654297,0.5043945,0.4951172,0.8725586,0.9912109,0.8725586c0.0419922,0,0.0849609-0.0024414,0.1289063-0.0083008  c1.8955078-0.2436523,2.6230469-1.4228516,2.6992188-1.5566406C21.2301025,41.612793,21.0699463,41.0341797,20.612915,40.7495117z"></path><path d="M25.0045166,37.5336914c0.1650391,0.1030273,0.3486328,0.1518555,0.5292969,0.1518555  c0.3330078,0,0.6591797-0.1665039,0.8486328-0.4702148c1.2509766-2,0.0576172-4.0048828,0.0068359-4.0888672  c-0.2851563-0.46875-0.8935547-0.6162109-1.3632813-0.3344727c-0.4707031,0.2802734-0.6259766,0.8925781-0.3505859,1.3662109  c0.0253906,0.0429688,0.6005859,1.0546875,0.0117188,1.9975586C24.394165,36.6240234,24.5367432,37.2407227,25.0045166,37.5336914z"></path><path d="M19.1158447,38.6108398c0.2412109,0,0.4824219-0.0864258,0.6738281-0.2617188  c0.4082031-0.3720703,0.4375-1.0048828,0.0644531-1.4125977c-0.90625-0.9926758-0.7138672-2.0385742-0.7001953-2.1044922  c0.1210938-0.5332031-0.2089844-1.0654297-0.7421875-1.1933594c-0.5351563-0.1318359-1.0771484,0.2016602-1.2060547,0.7387695  c-0.0205078,0.0849609-0.4794922,2.0991211,1.171875,3.9077148C18.5748291,38.5009766,18.8453369,38.6108398,19.1158447,38.6108398z  "></path></svg>