<svg height='100px' width='100px'  fill="#000000" xmlns="http://www.w3.org/2000/svg" xmlns:xlink="http://www.w3.org/1999/xlink" version="1.1" x="0px" y="0px" viewBox="0 0 69 69" style="enable-background:new 0 0 69 69;" xml:space="preserve"><g><path d="M45.6196,37.70388c2.24872,2.43813,6.05407,2.58547,8.48535,0.34375l8.57325-7.90625   c6.20262-5.71883,6.57831-15.33983,0.90039-21.53906C57.81226,2.31025,47.77308,2.3316,41.65573,7.97341l-8.25977,7.61719   c-1.17822,1.08655-1.80987,2.54004-1.90637,4.02545L4.41061,46.69411c-0.11426,0.11426-0.18475,0.25122-0.23218,0.39484   C0.32147,51.39162,0.5113,57.92762,4.58542,62.00173c2.05371,2.05371,4.78418,3.18555,7.6875,3.1875c0.00195,0,0.00293,0,0.00391,0   c3.51287,0,0.75661,0.50248,48.67773-20.90527c0.50391-0.22656,0.72852-0.81934,0.50195-1.32227   c-0.22754-0.50391-0.81934-0.72949-1.32227-0.50195L21.65836,59.77621c2.41473-4.16022,1.85492-9.58667-1.7038-13.14459   c-2.48382-2.48382-6.02097-3.6604-9.66107-2.99207l21.54834-21.54767c0.26379,0.71405,0.66327,1.39075,1.21039,1.98407   c0.77539,0.84082,1.77051,1.44043,2.87793,1.73438c2.21328,0.58734,3.68538-0.39679,11.21484-2.12207l-2.72363,8.00977   C43.63849,33.99191,44.13946,36.09697,45.6196,37.70388z M18.5405,48.04568c5.57789,5.57789,1.58892,15.14355-6.26367,15.14355   c-0.00098,0-0.00195,0-0.00293,0c-2.37012-0.00098-4.59766-0.9248-6.27441-2.60156c-3.46043-3.46043-3.46172-9.07148,0-12.5332   C9.41975,44.6322,15.03717,44.54235,18.5405,48.04568z M46.31393,32.34353l3.23444-9.51093l2.66895-2.46112   c0.81757,0.57703,1.78143,0.86951,2.74799,0.86951c1.15527,0,2.31445-0.41699,3.22852-1.25977   c0.93652-0.86426,1.48047-2.03906,1.53223-3.30957s-0.39551-2.48633-1.25879-3.42285   c-1.78125-1.93066-4.80176-2.05371-6.7334-0.27344c-1.67902,1.54834-1.98694,4.03149-0.86993,5.92346l-2.67096,2.46301   c-9.86847,2.35627-11.53788,3.67219-13.67004,1.35864c-1.71851-1.86427-0.13505-5.32383,0.22852-5.65918l8.25977-7.61719   c5.36365-4.94698,14.12106-4.91469,19.09277,0.50977c4.92332,5.37291,4.62,13.73585-0.78125,18.7168l-8.57324,7.90625   c-1.62305,1.49707-4.16211,1.39551-5.65918-0.22852C46.10838,35.28312,45.76767,33.94845,46.31393,32.34353z M52.9321,18.35329   c-1.03418-1.12109-0.96289-2.87402,0.15723-3.90723c0.53027-0.48926,1.20313-0.73145,1.87305-0.73145   c0.74609,0,1.49023,0.2998,2.03418,0.88965c1.0332,1.12109,0.96191,2.87305-0.1582,3.90625   C55.71725,19.54372,53.96628,19.47439,52.9321,18.35329z"></path></g></svg>