<svg height='100px' width='100px'  fill="#000000" xmlns="http://www.w3.org/2000/svg" xmlns:xlink="http://www.w3.org/1999/xlink" version="1.1" x="0px" y="0px" viewBox="0 0 32 32" enable-background="new 0 0 32 32" xml:space="preserve"><g display="none"><rect x="-50.995" y="-171.339" display="inline" fill="#000000" width="404.667" height="211.333"></rect></g><g><g><path d="M9.881,13.321c0.258-0.177,0.436-0.41,0.533-0.702c0.073-0.224,0.109-0.542,0.109-0.957V8.49H9.516v3.237    c0,0.405-0.047,0.672-0.141,0.801c-0.093,0.129-0.253,0.193-0.479,0.193c-0.223,0-0.39-0.09-0.499-0.27    c-0.072-0.119-0.115-0.322-0.126-0.609l-0.954,0.109c0.003,0.536,0.137,0.942,0.403,1.219c0.267,0.277,0.647,0.416,1.142,0.416    C9.285,13.587,9.624,13.498,9.881,13.321z"></path><path d="M12.578,12.362h2.003l0.438,1.139h1.101L14.113,8.49h-1.069l-1.952,5.011h1.073L12.578,12.362z M13.566,9.659l0.69,1.859    h-1.367L13.566,9.659z"></path><polygon points="18.495,13.501 20.289,8.49 19.216,8.49 17.989,12.198 16.721,8.49 15.623,8.49 17.414,13.501   "></polygon><path d="M21.728,8.49l-1.951,5.011h1.073l0.413-1.139h2.004l0.438,1.139h1.1L22.798,8.49H21.728z M21.575,11.518l0.677-1.859    l0.69,1.859H21.575z"></path><path d="M3.5,0v32h25V4.962L23.538,0H3.5z M27.5,31h-23V1h18.624L27.5,5.376V31z"></path><rect x="8.507" y="24.042" width="14.985" height="1"></rect><rect x="8.507" y="20.5" width="14.985" height="1"></rect></g></g><g display="none"><g display="inline"><g><g><path d="M23.538,0H3.5v32h25V4.962L23.538,0z M16.721,7.796l1.268,3.708l1.228-3.708h1.073l-1.794,5.011h-1.081l-1.791-5.011      H16.721z M13.043,7.796h1.069l2.007,5.011h-1.101l-0.438-1.139h-2.003l-0.414,1.139h-1.073L13.043,7.796z M7.318,11.258      l0.954-0.109c0.011,0.287,0.054,0.49,0.126,0.609c0.109,0.18,0.276,0.27,0.499,0.27c0.226,0,0.386-0.064,0.479-0.193      c0.094-0.129,0.141-0.396,0.141-0.801V7.796h1.008v3.172c0,0.415-0.036,0.733-0.109,0.957c-0.098,0.292-0.275,0.525-0.533,0.702      c-0.257,0.177-0.597,0.266-1.019,0.266c-0.494,0-0.875-0.139-1.142-0.416C7.454,12.2,7.321,11.794,7.318,11.258z M23.493,25.041      H8.507v-1h14.986V25.041z M23.493,21.5H8.507v-1h14.986V21.5z M23.704,12.807l-0.438-1.139h-2.004l-0.413,1.139h-1.073      l1.951-5.011h1.07l2.006,5.011H23.704z"></path><polygon points="21.575,10.824 22.942,10.824 22.251,8.965     "></polygon><polygon points="13.566,8.965 12.889,10.824 14.256,10.824     "></polygon></g></g></g></g><g display="none"><g display="inline"><text transform="matrix(1 0 0 1 7.1982 13.5007)" stroke="#000000" stroke-width="0.25" stroke-miterlimit="10" font-family="'Arial-BoldMT'" font-size="7px">JAVA</text></g><g display="inline"><g><path d="M22.71,2l3.79,3.79V30h-21V2H22.71 M23.538,0H3.5v32h25V4.962L23.538,0L23.538,0z"></path></g><g><g><g><line fill="none" stroke="#000000" stroke-width="2" stroke-miterlimit="10" x1="8.507" y1="24.542" x2="23.493" y2="24.542"></line></g></g><g><g><line fill="none" stroke="#000000" stroke-width="2" stroke-miterlimit="10" x1="8.507" y1="21" x2="23.493" y2="21"></line></g></g></g></g></g><g display="none"><g display="inline"><text transform="matrix(1 0 0 1 7.1982 13.5007)" font-family="'Arial-BoldMT'" font-size="7px">JAVA</text></g><g display="inline"><g><path fill="#000000" d="M23.331,0.5L28,5.169V31.5H4v-31H23.331 M23.538,0H3.5v32h25V4.962L23.538,0L23.538,0z"></path></g><g><g><g><line fill="none" stroke="#000000" stroke-width="0.5" stroke-miterlimit="10" x1="8.507" y1="24.542" x2="23.493" y2="24.542"></line></g></g><g><g><line fill="none" stroke="#000000" stroke-width="0.5" stroke-miterlimit="10" x1="8.507" y1="21" x2="23.493" y2="21"></line></g></g></g></g></g></svg>