<svg height='100px' width='100px'  fill="#000000" xmlns="http://www.w3.org/2000/svg" xmlns:xlink="http://www.w3.org/1999/xlink" version="1.1" x="0px" y="0px" viewBox="0 0 56 56" style="enable-background:new 0 0 56 56;" xml:space="preserve"><path d="M52.90448,8.8198853c-0.001709-0.0894165-0.0170288-0.1759644-0.0415649-0.2598877  C52.8545532,8.53125,52.8425293,8.505127,52.831665,8.477417c-0.0230713-0.059021-0.0505981-0.1149292-0.0842896-0.1685181  c-0.0172119-0.0273438-0.0343018-0.0534058-0.0540771-0.0789795c-0.0393677-0.0509033-0.0845337-0.0963135-0.133606-0.1392212  c-0.0213013-0.0186157-0.0396118-0.0391235-0.062561-0.0559692c-0.0067749-0.0050049-0.0117188-0.0118408-0.0186157-0.0166626  c-0.0700684-0.0487061-0.1453247-0.0866089-0.2232666-0.1156006c-0.0033569-0.0012207-0.0057983-0.0037842-0.0091553-0.0050049  L38.8295898,3.059082c-0.2167969-0.078125-0.4526367-0.0795898-0.668457-0.003418L24.7446289,7.734375  c-0.3964844,0.1381836-0.6645508,0.5097656-0.6708984,0.9296875c-0.0004272,0.0280151,0.0094604,0.0535278,0.0113525,0.0811157  c-0.0029907,0.031311-0.0113525,0.0614014-0.0113525,0.0932007v17.3203125c0,0.418457,0.2607422,0.7929688,0.6533203,0.9379883  l13.4165039,4.9555664c0.0076904,0.0028687,0.0159912,0.0016479,0.0237427,0.0042725  c0.1044922,0.0358887,0.2127686,0.0577393,0.322937,0.0577393s0.2184448-0.0218506,0.322937-0.0577393  c0.0077515-0.0026245,0.0160522-0.0014038,0.0237427-0.0042725l13.4165039-4.9555664  c0.3925781-0.1450195,0.6533203-0.5195312,0.6533203-0.9379883V8.8383789c0-0.0008545-0.0003052-0.0015869-0.0003052-0.0024414  c0-0.0006714,0.0003052-0.0012817,0.0003052-0.0019531C52.9067383,8.8291016,52.9046021,8.8247681,52.90448,8.8198853z   M37.4902344,29.6787109l-11.4165039-4.2167969V10.2739258l10.9838257,4.0569458l0.4326782,0.1654663V29.6787109z   M38.4902344,12.7279053l-0.753418-0.2782593l-9.75-3.7279663l10.4980469-3.6606445l10.5050049,3.7886963L38.4902344,12.7279053z   M50.9067383,25.4619141l-11.4165039,4.2167969V14.5037842l11.4165039-4.2288818V25.4619141z"></path><path d="M4,53h6.9472656c0.5522461,0,1-0.4477539,1-1v-4.3632202c1.1938477,0.1067505,2.3764648,0.480957,3.4545898,1.1307983  l2.5449219,1.5361328C20.8710938,52.0673828,24.1445312,53,27.4125977,53h8.5644531  C40.0737305,53,44.0581055,51.5805664,47.5,48.8955078l4.2988281-3.3540039C52.5507812,44.9545898,53,43.9785156,53,42.9311523  c0-1.265625-0.6557617-2.4057617-1.6704102-2.9042969c-0.8710938-0.4282227-1.8613281-0.3208008-2.6474609,0.2861328  l-2.9428711,2.2724609c-3.0688477,2.3696289-6.6015625,3.6220703-10.2158203,3.6220703h-6.1337891  c-0.6220703,0-1.1474609-0.7456055-1.1474609-1.6279297s0.5253906-1.6279297,1.1474609-1.6279297h5.8813477  c1.3481445,0,2.4448242-1.2416992,2.4448242-2.7680664c0-1.0795898-0.5561523-2.0664062-1.4165039-2.5136719l-0.9951172-0.519043  c-1.1640625-0.6064453-2.3984375-0.9140625-3.6694336-0.9140625h-6.0112305c-1.6230469,0-3.1621094-0.7890625-4.3334961-2.222168  c-1.534668-1.8789062-3.6787109-2.956543-5.8823242-2.956543h-3.4604492V27.574707c0-0.5522461-0.4477539-1-1-1H4  c-0.5522461,0-1,0.4477539-1,1V52C3,52.5522461,3.4477539,53,4,53z M11.9472656,33.0581055h3.4604492  c1.6240234,0,3.1630859,0.7890625,4.3334961,2.222168c1.5361328,1.8789062,3.6796875,2.956543,5.8823242,2.956543h6.0112305  c0.9458008,0,1.8696289,0.2314453,2.7446289,0.6875l0.9960938,0.5195312c0.1689453,0.0878906,0.340332,0.3701172,0.340332,0.7397461  c0,0.46875-0.2636719,0.7680664-0.4448242,0.7680664h-5.8813477c-1.7353516,0-3.1474609,1.6274414-3.1474609,3.6279297  s1.4121094,3.6279297,3.1474609,3.6279297h6.1337891c4.0605469,0,8.015625-1.3964844,11.4384766-4.0390625l2.9423828-2.2724609  c0.1835938-0.1425781,0.355957-0.1665039,0.543457-0.0742188C50.7226562,41.9570312,51,42.3525391,51,42.9311523  c0,0.4296875-0.1655273,0.8256836-0.4316406,1.0332031l-4.2988281,3.3540039C43.1826172,49.7270508,39.6235352,51,35.9770508,51  h-8.5644531c-2.9042969,0-5.8203125-0.8330078-8.4326172-2.4086914l-2.5449219-1.5361328  c-1.3919678-0.8393555-2.9315796-1.3088989-4.487793-1.4188232V33.0581055z M5,28.574707h4.9472656V51H5V28.574707z"></path></svg>