<svg height='100px' width='100px'  fill="#000000" xmlns="http://www.w3.org/2000/svg" xmlns:xlink="http://www.w3.org/1999/xlink" version="1.1" x="0px" y="0px" viewBox="0 0 512 512" style="enable-background:new 0 0 512 512;" xml:space="preserve"><g><g><g><path d="M329.861,466.696c-4.111,0-7.818-2.521-9.317-6.373l-75.319-193.547l-193.546-75.32     c-3.954-1.539-6.506-5.404-6.368-9.645s2.937-7.932,6.981-9.21L453.683,45.77c3.556-1.126,7.446-0.174,10.084,2.464     c2.638,2.639,3.588,6.526,2.464,10.084L339.398,459.709c-1.278,4.046-4.97,6.844-9.21,6.982     C330.079,466.694,329.97,466.696,329.861,466.696z M85.396,183.117l171.18,66.615c2.611,1.016,4.676,3.081,5.692,5.692     l66.616,171.181L441.363,70.637L85.396,183.117z"></path></g><g><path d="M252.949,269.052c-2.559,0-5.119-0.977-7.071-2.929c-3.905-3.905-3.905-10.238,0-14.143L444.17,53.688     c3.906-3.904,10.236-3.904,14.143,0c3.905,3.905,3.905,10.237,0,14.143L260.021,266.123     C258.067,268.075,255.508,269.052,252.949,269.052z"></path></g></g></g></svg>