<svg height='100px' width='100px'  fill="#000000" xmlns="http://www.w3.org/2000/svg" viewBox="0 0 46 66" x="0px" y="0px"><path fill="#000000" fill-rule="evenodd" d="M667,114 C667,113.319964 667.173461,112.665001 667.503023,112.040039 L689.070373,57.6314991 C689.404138,56.7895003 690.595862,56.7895003 690.929627,57.6314991 L712.496977,112.040039 C712.826539,112.665001 713,113.319964 713,114 C713,119.24612 702.676831,123 690,123 C677.323169,123 667,119.24612 667,114 Z M690,121 C701.623698,121 711,117.590436 711,114 C711,110.409564 701.623698,107 690,107 C678.376302,107 669,110.409564 669,114 C669,117.590436 678.376302,121 690,121 Z M709.084181,108.857867 L690,60.7136973 L670.915826,108.857867 C675.051903,106.470856 682.064842,105 690,105 C697.935158,105 704.948097,106.470856 709.084181,108.857867 Z" transform="translate(-667 -57)"></path></svg>