<svg height='100px' width='100px'  fill="#000000" xmlns="http://www.w3.org/2000/svg" xmlns:xlink="http://www.w3.org/1999/xlink" version="1.1" x="0px" y="0px" viewBox="0 0 64 64" enable-background="new 0 0 64 64" xml:space="preserve"><g><g><path d="M45.77,62.335H18.231c-4.411,0-8-3.589-8-8V9.665c0-4.411,3.589-8,8-8H45.77c4.411,0,8,3.589,8,8v44.67    C53.77,58.746,50.181,62.335,45.77,62.335z M18.231,3.665c-3.309,0-6,2.691-6,6v44.67c0,3.309,2.691,6,6,6H45.77    c3.309,0,6-2.691,6-6V9.665c0-3.309-2.691-6-6-6H18.231z"></path></g><g><path d="M37.281,40.787c-2.028,0-3.922-0.835-5.28-2.283c-1.358,1.448-3.252,2.283-5.282,2.283c-4.003,0-7.259-3.256-7.259-7.258    c0-3.458,2.451-6.375,5.707-7.09c-0.28-0.78-0.424-1.603-0.424-2.435c0-4.002,3.256-7.258,7.259-7.258    c4.003,0,7.259,3.256,7.259,7.258c0,0.833-0.145,1.656-0.425,2.436c3.255,0.717,5.705,3.633,5.706,7.09    C44.541,37.531,41.284,40.787,37.281,40.787z M32.001,35.878c0.342,0,0.66,0.175,0.844,0.464c0.973,1.531,2.632,2.445,4.437,2.445    c2.9,0,5.26-2.358,5.26-5.258c-0.001-2.875-2.342-5.234-5.218-5.258c-0.36-0.003-0.691-0.2-0.866-0.516s-0.166-0.7,0.022-1.008    c0.511-0.831,0.78-1.78,0.78-2.744c0-2.899-2.359-5.258-5.259-5.258c-2.9,0-5.259,2.358-5.259,5.258    c0,0.964,0.27,1.913,0.779,2.745c0.188,0.307,0.197,0.692,0.022,1.007c-0.175,0.315-0.506,0.512-0.866,0.515    c-2.877,0.023-5.217,2.382-5.217,5.258c0,2.899,2.359,5.258,5.259,5.258c1.807,0,3.465-0.914,4.438-2.445    C31.34,36.053,31.659,35.878,32.001,35.878z"></path><path d="M37.704,47.255H26.295c-0.475,0-0.885-0.335-0.98-0.8c-0.095-0.466,0.151-0.935,0.588-1.12    c0.166-0.072,4.144-1.843,5.119-6.379c0.099-0.461,0.506-0.79,0.978-0.79s0.879,0.329,0.978,0.79    c0.976,4.536,4.952,6.307,5.121,6.38c0.436,0.188,0.68,0.657,0.583,1.121C38.586,46.922,38.178,47.255,37.704,47.255z     M29.547,45.255h4.906c-0.859-0.779-1.758-1.817-2.453-3.154C31.305,43.438,30.406,44.476,29.547,45.255z"></path></g></g></svg>