<svg height='100px' width='100px'  fill="#000000" xmlns="http://www.w3.org/2000/svg" xmlns:xlink="http://www.w3.org/1999/xlink" version="1.1" x="0px" y="0px" viewBox="0 0 64 64" style="enable-background:new 0 0 64 64;" xml:space="preserve"><g><path d="M32,17c1.654,0,3-1.346,3-3s-1.346-3-3-3s-3,1.346-3,3S30.346,17,32,17z M32,13c0.551,0,1,0.449,1,1s-0.449,1-1,1   s-1-0.449-1-1S31.449,13,32,13z"></path><path d="M32,23c4.962,0,9-4.038,9-9s-4.038-9-9-9s-9,4.038-9,9S27.038,23,32,23z M32,7c3.86,0,7,3.14,7,7s-3.14,7-7,7s-7-3.14-7-7   S28.14,7,32,7z"></path><path d="M53,27c1.103,0,2-0.897,2-2V7c0-1.103-0.897-2-2-2H41.359C38.992,2.54,35.675,1,32,1s-6.992,1.54-9.359,4H21V3   c0-1.103-0.897-2-2-2h-4c-1.103,0-2,0.897-2,2v2h-2C9.897,5,9,5.897,9,7v18c0,1.103,0.897,2,2,2h12.219l0.432,1.728   C23.985,30.065,25.182,31,26.562,31H29v2h-2c-1.103,0-2,0.897-2,2v2h-0.15C23.83,37,23,37.83,23,38.85   c0,0.675,0.174,1.31,0.457,1.88L13.32,59.161C13.111,59.542,13,59.974,13,60.409C13,61.837,14.163,63,15.591,63h1.804   c0.747,0,1.426-0.411,1.771-1.072L29,43.154V61c0,1.103,0.897,2,2,2h2c1.103,0,2-0.897,2-2V43.155l9.833,18.772   C45.179,62.589,45.858,63,46.605,63h1.804C49.837,63,51,61.837,51,60.409c0-0.435-0.111-0.866-0.321-1.249L40.543,40.73   C40.826,40.16,41,39.525,41,38.85c0-1.02-0.83-1.85-1.85-1.85H39v-2h13c1.654,0,3-1.346,3-3s-1.346-3-3-3H40.281l0.5-2H53z    M38.897,25C42.556,22.698,45,18.634,45,14c0-1.034-0.134-2.035-0.363-3H53v14H38.897z M43,33h-8v-2h8V33z M45,31h2v2h-2V31z    M31,27v2h-2v-2H31z M33,29v-2h2v2H33z M53,7v2h-9.003c-0.293-0.702-0.653-1.367-1.06-2H53z M32,3c6.065,0,11,4.935,11,11   s-4.935,11-11,11s-11-4.935-11-11S25.935,3,32,3z M15,3h4v2h-4V3z M21.063,7c-0.407,0.633-0.767,1.298-1.06,2H11V7H21.063z M11,11   h8.363C19.134,11.965,19,12.966,19,14c0,4.634,2.444,8.698,6.103,11H11V11z M25.591,28.242L25.281,27H27v2h-0.438   C26.102,29,25.703,28.688,25.591,28.242z M31,31h2v2h-2V31z M38.995,39c-0.068,1.041-0.834,1.901-1.801,1.991   c-0.552,0.05-1.09-0.127-1.497-0.475C35.89,40.048,36,39.537,36,39H38.995z M32,41c-1.103,0-2-0.897-2-2h4   C34,40.103,33.103,41,32,41z M28.303,40.518c-0.405,0.35-0.94,0.529-1.497,0.474c-0.966-0.09-1.733-0.951-1.801-1.991H28   C28,39.537,28.11,40.049,28.303,40.518z M17.395,61h-1.804C15.265,61,15,60.735,15,60.409c0-0.099,0.025-0.198,0.073-0.285   l9.785-17.791c0.521,0.349,1.115,0.589,1.763,0.649c0.069,0.006,0.138,0.007,0.206,0.01L17.395,61z M31,61V42.858   C31.322,42.942,31.653,43,32,43s0.678-0.058,1-0.142V61H31z M49,60.409C49,60.735,48.735,61,48.409,61h-1.804L37.17,42.988   c0.07-0.003,0.139,0.001,0.209-0.005c0.648-0.06,1.242-0.3,1.763-0.649l9.784,17.79C48.975,60.211,49,60.31,49,60.409z M37,37H27   v-2h10V37z M53,32c0,0.551-0.449,1-1,1h-3v-2h3C52.551,31,53,31.449,53,32z M38.219,29H37v-2h1.719L38.219,29z"></path></g></svg>