<svg height='100px' width='100px'  fill="#000000" xmlns="http://www.w3.org/2000/svg" xmlns:xlink="http://www.w3.org/1999/xlink" version="1.1" x="0px" y="0px" viewBox="0 0 90 90" enable-background="new 0 0 90 90" xml:space="preserve"><path d="M31.4,72.4l-0.7-0.7c-3-3-3.4-7.6-1.1-11l-6.6-8.4c-2.5,0.4-5-0.4-6.8-2.1l-0.7-0.7L27,38.1l0.7,0.7  c1.8,1.8,2.6,4.3,2.1,6.8l8.4,6.6c1.4-1,3.1-1.5,4.8-1.5c2.3,0,4.5,0.9,6.2,2.6l0.7,0.7L31.4,72.4z M23.8,50.1l8.3,10.6l-0.5,0.6  c-2,2.4-2,5.8-0.2,8.2L47,54c-1.1-0.9-2.5-1.3-4-1.3c-1.5,0-3,0.5-4.2,1.5l-0.6,0.5l-10.6-8.3l0.2-0.6c0.4-1.6,0.1-3.4-0.8-4.7  l-8.4,8.4c1.4,0.9,3.1,1.3,4.8,0.8L23.8,50.1z"></path><path d="M55.5,79.1c-0.3,0-0.5-0.1-0.7-0.3L39.2,63.2c-0.4-0.4-0.4-1,0-1.4s1-0.4,1.4,0l15.6,15.6c0.4,0.4,0.4,1,0,1.4  C56,79,55.8,79.1,55.5,79.1z"></path><path d="M67.9,47.4L67,47c-2.3-1.1-3.9-3.2-4.2-5.7l-10.1-3.4c-1.6,2.2-4.2,3.5-7,3.5c-1.3,0-2.6-0.3-3.8-0.9L41,40l11.3-23.5  l0.9,0.4c3.8,1.8,5.7,6,4.7,10l9,5.7c2.2-1.2,4.9-1.3,7.1-0.2l0.9,0.4L67.9,47.4z M51.8,35.4l12.8,4.4l0,0.7c0.1,1.7,1,3.2,2.3,4.2  l5.2-10.8c-1.6-0.4-3.4-0.2-4.8,0.8l-0.5,0.4l-11.4-7.3l0.3-0.8c1.1-2.9,0-6.1-2.5-7.8L43.7,39c0.6,0.2,1.3,0.3,2,0.3  c2.3,0,4.5-1.2,5.7-3.2L51.8,35.4z"></path><path d="M47.6,29.7c-0.1,0-0.3,0-0.4-0.1L27.3,20c-0.5-0.2-0.7-0.8-0.5-1.3c0.2-0.5,0.8-0.7,1.3-0.5L48,27.8  c0.5,0.2,0.7,0.8,0.5,1.3C48.3,29.5,48,29.7,47.6,29.7z"></path></svg>