<svg height='100px' width='100px'  fill="#000000" xmlns="http://www.w3.org/2000/svg" xmlns:xlink="http://www.w3.org/1999/xlink" version="1.1" x="0px" y="0px" viewBox="0 0 100 100" enable-background="new 0 0 100 100" xml:space="preserve"><g><path d="M68,5H32c-3.9,0-7,3.1-7,7v76c0,3.9,3.1,7,7,7h36c3.9,0,7-3.1,7-7V12C75,8.1,71.9,5,68,5z M29,21h42v58H29V21z M32,9h36   c1.7,0,3,1.3,3,3v5H29v-5C29,10.3,30.3,9,32,9z M68,91H32c-1.7,0-3-1.3-3-3v-5h42v5C71,89.7,69.7,91,68,91z M45,13c0-1.1,0.9-2,2-2   h6c1.1,0,2,0.9,2,2s-0.9,2-2,2h-6C45.9,15,45,14.1,45,13z M52,87c0,1.1-0.9,2-2,2s-2-0.9-2-2c0-1.1,0.9-2,2-2S52,85.9,52,87z"></path></g></svg>