<svg height='100px' width='100px'  fill="#000000" xmlns="http://www.w3.org/2000/svg" viewBox="0 0 66 44" x="0px" y="0px"><path fill="#000000" fill-rule="evenodd" d="M85,804 L95,804 L95,789 C95,788.447715 95.4477153,788 96,788 L122,788 C122.552285,788 123,788.447715 123,789 L123,821 C123,821.552285 122.552285,822 122,822 L108,822 L108,831 C108,831.552285 107.552285,832 107,832 L72,832 C71.4477153,832 71,831.552285 71,831 L71,816 L58,816 C57.4477153,816 57,815.552285 57,815 L57,789 C57,788.447715 57.4477153,788 58,788 L84,788 C84.5522847,788 85,788.447715 85,789 L85,804 Z M85,806 L85,815 C85,815.552285 84.5522847,816 84,816 L73,816 L73,830 L106,830 L106,822 L96,822 C95.4477153,822 95,821.552285 95,821 L95,806 L85,806 Z M108,820 L121,820 L121,790 L97,790 L97,804 L107,804 C107.552285,804 108,804.447715 108,805 L108,820 Z M97,806 L97,820 L106,820 L106,806 L97,806 Z M83,804 L83,790 L59,790 L59,814 L71,814 L71,805 C71,804.447715 71.4477153,804 72,804 L83,804 Z M83,806 L73,806 L73,814 L83,814 L83,806 Z" transform="translate(-57 -788)"></path></svg>