<svg height='100px' width='100px'  fill="#000000" xmlns="http://www.w3.org/2000/svg" xmlns:xlink="http://www.w3.org/1999/xlink" version="1.1" x="0px" y="0px" viewBox="0 0 10 10" enable-background="new 0 0 10 10" xml:space="preserve"><g><path d="M3.719,7.511C2.827,7.056,2.282,6.188,2.195,5.258c-0.119-0.09-0.234-0.18-0.343-0.271C1.849,6.137,2.475,7.25,3.568,7.807   s2.36,0.408,3.289-0.271C6.721,7.5,6.58,7.461,6.436,7.418C5.633,7.895,4.611,7.965,3.719,7.511z"></path><path d="M8.539,5.721C8.476,5.655,8.371,5.654,8.305,5.717C8.238,5.78,8.237,5.885,8.301,5.951C8.714,6.38,8.902,6.746,8.808,6.934   C8.701,7.143,8.185,7.199,7.389,7.041C7.547,6.857,7.688,6.654,7.802,6.43C8.59,4.883,7.973,2.983,6.425,2.195   C4.878,1.408,2.979,2.024,2.191,3.573C2.077,3.797,1.995,4.029,1.939,4.266c-0.596-0.551-0.854-1-0.748-1.211   c0.094-0.186,0.499-0.248,1.08-0.17c0.091,0.013,0.174-0.05,0.187-0.141c0.013-0.091-0.051-0.176-0.142-0.188   c-0.759-0.104-1.25,0.018-1.419,0.348c-0.417,0.818,1.431,2.32,3.399,3.334C4.287,6.283,4.282,6.33,4.282,6.377   c0,0.396,0.322,0.719,0.718,0.719c0.229,0,0.432-0.111,0.563-0.277c1.634,0.654,3.203,0.928,3.541,0.266   C9.273,6.75,9.078,6.279,8.539,5.721z M5.703,6.516c0.01-0.045,0.015-0.091,0.015-0.139C5.718,5.98,5.396,5.658,5,5.658   c-0.23,0-0.433,0.111-0.564,0.28C3.503,5.457,2.764,4.963,2.225,4.516c0.047-0.27,0.132-0.537,0.263-0.794   C3.191,2.339,4.891,1.787,6.274,2.49c1.385,0.704,1.937,2.404,1.232,3.789C7.376,6.535,7.21,6.76,7.02,6.955   C6.631,6.857,6.186,6.708,5.703,6.516z"></path></g></svg>