<svg height='100px' width='100px'  fill="#000000" xmlns="http://www.w3.org/2000/svg" data-name="Layer 1" viewBox="0 0 64 64" x="0px" y="0px"><title>Stationery Icon merge</title><path d="M57,26.58H39.83L38.58,16.26A5.57,5.57,0,0,0,43,10.81V10a5.56,5.56,0,0,0-5.56-5.56H26.53A5.56,5.56,0,0,0,21,10v.79a5.57,5.57,0,0,0,4.45,5.45L24.17,26.58H7a4,4,0,0,0-4,4V59a2,2,0,0,0,2,2H59a2,2,0,0,0,2-2V30.58A4,4,0,0,0,57,26.58Zm0,2a2,2,0,0,1,2,2V52.79H47.59a2,2,0,0,0-2,2v1.39H43.42l-3.35-27.6Zm-52,2a2,2,0,0,1,2-2H23.93l-3.35,27.6H18.41V54.79a2,2,0,0,0-2-2H5ZM6,59a1,1,0,0,1-1-1V54.79H16.41V59Zm22.79,0V54.79h6.42V59Zm8.42,0V54.79a2,2,0,0,0-2-2H28.79a2,2,0,0,0-2,2V59H25.1l3.79-30.42h6.22L38.9,59Zm-7-46.71a2,2,0,0,0-1.5-.68H27.06a1.06,1.06,0,0,1,0-2.12h9.88a1.06,1.06,0,1,1,0,2.12H35.25a2,2,0,0,0-2,2.25l1.59,12.72H29.14l1.59-12.72A2,2,0,0,0,30.25,12.29ZM40.91,59,37.12,28.58l-.25-2-1.62-13h1.69a3.06,3.06,0,1,0,0-6.12H27.06a3.06,3.06,0,1,0,0,6.12h1.69l-1.62,13-.25,2L23.09,59H18.41v-.82h3.95l3.58-29.6.24-2,1.48-12.21H26.53A3.57,3.57,0,0,1,23,10.81V10a3.57,3.57,0,0,1,3.56-3.56H37.47A3.57,3.57,0,0,1,41,10v.79a3.57,3.57,0,0,1-3.56,3.56H36.34l1.48,12.21.24,2,3.58,29.6h4V59Zm6.68,0V54.79H59V58a1,1,0,0,1-1,1Z"></path></svg>