<svg height='100px' width='100px'  fill="#000000" xmlns="http://www.w3.org/2000/svg" viewBox="0 0 54 66" x="0px" y="0px"><path fill="#000000" fill-rule="evenodd" d="M424.070516,123 C424.001456,123.004014 423.932156,123.000939 423.863859,122.991116 C423.73034,122.973463 423.607609,122.930171 423.499118,122.867293 C423.246548,122.725073 423.052608,122.475213 423.009152,122.142823 C422.999473,122.077499 422.996248,122.010814 423,121.943688 L423,100.053644 C422.990556,99.8875814 423.022976,99.7157591 423.105361,99.5527211 C423.121292,99.5209187 423.138868,99.4900838 423.157979,99.4603281 L449.096587,57.5594989 C449.157923,57.4312453 449.245325,57.3224876 449.349572,57.2358489 C449.538237,57.0706439 449.770218,56.9957754 450,56.9982956 C450.229782,56.9957754 450.461763,57.0706439 450.650428,57.2358489 C450.754675,57.3224876 450.842077,57.4312453 450.903413,57.5594989 L476.842021,99.4603281 C476.861132,99.4900838 476.878708,99.5209187 476.894639,99.5527211 C476.977024,99.7157591 477.009444,99.8875814 477,100.053644 L477,121.943688 C477.003752,122.010814 477.000527,122.077499 476.990848,122.142823 C476.947392,122.475213 476.753452,122.725073 476.500882,122.867293 C476.392391,122.930171 476.26966,122.973463 476.136141,122.991116 C476.067844,123.000939 475.998544,123.004014 475.929484,123 L424.070516,123 Z M437.57063,101 L425.752448,121 L474.247552,121 L462.42937,101 L437.57063,101 Z M463.57063,99 L474.204849,99 L451,61.5152445 L451,77.7266258 L463.57063,99 Z M449,77.7266258 L449,61.5152445 L425.795151,99 L436.42937,99 L449,77.7266258 Z M450,79.9656819 L438.752448,99 L461.247552,99 L450,79.9656819 Z M425,101 L425,118.34201 L435.247552,101 L425,101 Z M475,118.34201 L475,101 L464.752448,101 L475,118.34201 Z" transform="translate(-423 -57)"></path></svg>