<svg height='100px' width='100px'  fill="#000000" xmlns="http://www.w3.org/2000/svg" viewBox="0 0 32 32" x="0px" y="0px"><title>glasses</title><path d="M27.372,10.915A4.476,4.476,0,0,0,22.938,7H22a1,1,0,0,0,0,2h.938a2.473,2.473,0,0,1,2.45,2.163c.23,1.838.388,3.695.489,5.554a5.384,5.384,0,0,0-8.586,3.327A.96.96,0,0,0,17.068,20h-2.1a.968.968,0,0,0-.259.052,5.384,5.384,0,0,0-8.588-3.335c.1-1.859.259-3.716.489-5.554A2.473,2.473,0,0,1,9.063,9H10a1,1,0,0,0,0-2H9.063a4.476,4.476,0,0,0-4.435,3.915A81.509,81.509,0,0,0,4,21a5.4,5.4,0,0,0,10.711.948A.968.968,0,0,0,14.97,22h2.1a.96.96,0,0,0,.222-.045A5.4,5.4,0,0,0,28,21,81.509,81.509,0,0,0,27.372,10.915ZM9.4,24.4A3.4,3.4,0,1,1,12.8,21,3.4,3.4,0,0,1,9.4,24.4Zm13.2,0A3.4,3.4,0,1,1,26,21,3.4,3.4,0,0,1,22.6,24.4Z"></path></svg>