<svg height='100px' width='100px'  fill="#000000" xmlns:dc="http://purl.org/dc/elements/1.1/" xmlns:cc="http://creativecommons.org/ns#" xmlns:rdf="http://www.w3.org/1999/02/22-rdf-syntax-ns#" xmlns:svg="http://www.w3.org/2000/svg" xmlns="http://www.w3.org/2000/svg" xmlns:sodipodi="http://sodipodi.sourceforge.net/DTD/sodipodi-0.dtd" xmlns:inkscape="http://www.inkscape.org/namespaces/inkscape" version="1.1" x="0px" y="0px" viewBox="0 0 100 100"><g transform="translate(0,-952.36218)"><path style="font-size:medium;font-style:normal;font-variant:normal;font-weight:normal;font-stretch:normal;text-indent:0;text-align:start;text-decoration:none;line-height:normal;letter-spacing:normal;word-spacing:normal;text-transform:none;direction:ltr;block-progression:tb;writing-mode:lr-tb;text-anchor:start;baseline-shift:baseline;opacity:1;color:#000000;fill:#000000;fill-opacity:1;stroke:none;stroke-width:4;marker:none;visibility:visible;display:inline;overflow:visible;enable-background:accumulate;font-family:Sans;-inkscape-font-specification:Sans" d="M 49.84375 6 A 2.0002 2.0002 0 0 0 49 6.25 L 12 27.25 A 2.0002 2.0002 0 0 0 11 29 L 11 71 A 2.0002 2.0002 0 0 0 12 72.71875 L 49 93.71875 A 2.0002 2.0002 0 0 0 51 93.71875 L 88 72.71875 A 2.0002 2.0002 0 0 0 89 71 L 89 29 A 2.0002 2.0002 0 0 0 88 27.25 L 51 6.25 A 2.0002 2.0002 0 0 0 49.84375 6 z M 50 10.28125 L 82.9375 29 L 50 47.6875 L 17.0625 29 L 50 10.28125 z M 15 32.40625 L 48 51.15625 L 48 88.5625 L 15 69.8125 L 15 32.40625 z M 85 32.40625 L 85 69.8125 L 52 88.5625 L 52 51.15625 L 85 32.40625 z " transform="translate(0,952.36218)"></path></g></svg>