<svg height='100px' width='100px'  fill="#000000" xmlns="http://www.w3.org/2000/svg" xmlns:xlink="http://www.w3.org/1999/xlink" version="1.1" x="0px" y="0px" viewBox="0 0 512 512" style="enable-background:new 0 0 512 512;" xml:space="preserve"><path d="M464.948,93.1h-32.587V53.349c0-1.967-0.792-3.853-2.207-5.224s-3.551-2.234-5.277-2.065  c-5.327,0.146-125.975,4.047-168.013,44.886C214.833,50.108,94.176,46.207,88.849,46.061c-1.815,0.08-3.871,0.703-5.277,2.065  c-1.415,1.37-2.207,3.257-2.207,5.224V93.1H47.052c-4.022,0-7.288,3.266-7.288,7.288v347.347c0,4.022,3.266,7.288,7.288,7.288  h171.729v3.648c0,4.022,3.266,7.288,7.288,7.288h59.862c4.022,0,7.288-3.266,7.288-7.288v-3.648h171.729  c4.022,0,7.288-3.266,7.288-7.288V100.388C472.237,96.366,468.971,93.1,464.948,93.1z M457.66,107.676v307.445H285.931h-4.574  c61.465-32.183,142.092-24.459,142.959-24.356c2.011,0.222,4.102-0.454,5.633-1.842c1.539-1.379,2.412-3.346,2.412-5.41V107.676  H457.66z M417.785,60.975v314.68c-24.158-1.41-97.079-2.194-152.846,31.892l-0.785-145.672l0.857-158.764  C295.106,70.07,390.296,62.497,417.785,60.975z M95.942,60.975c27.488,1.513,122.661,9.077,152.775,42.136l0.857,158.764  l-0.785,145.718c-45.384-27.763-102.092-32.445-134.692-32.445c-7.457,0-13.651,0.24-18.154,0.507V60.975z M81.365,107.676v275.836  c0,2.065,0.872,4.031,2.412,5.41c1.531,1.397,3.64,2.082,5.633,1.842c0.891-0.103,81.519-7.834,142.97,24.356H54.34V107.676H81.365z   M54.34,440.447v-10.75h164.441v10.75H54.34z M278.643,451.384h-45.286v-21.686h45.286V451.384z M293.219,440.447v-10.75H457.66  v10.75H293.219z"></path></svg>