<svg height='100px' width='100px'  fill="#000000" xmlns:dc="http://purl.org/dc/elements/1.1/" xmlns:cc="http://creativecommons.org/ns#" xmlns:rdf="http://www.w3.org/1999/02/22-rdf-syntax-ns#" xmlns:svg="http://www.w3.org/2000/svg" xmlns="http://www.w3.org/2000/svg" xmlns:sodipodi="http://sodipodi.sourceforge.net/DTD/sodipodi-0.dtd" xmlns:inkscape="http://www.inkscape.org/namespaces/inkscape" version="1.1" x="0px" y="0px" viewBox="0 0 100 100"><g transform="translate(0,-952.36218)"><path style="text-indent:0;text-transform:none;direction:ltr;block-progression:tb;baseline-shift:baseline;color:#000000;enable-background:accumulate;" d="m 50,969.36218 c 6.9047,0 13.828,2.60948 19.0938,7.875 4.0862,4.08631 6.5208,9.19905 7.4374,14.5 C 86.9872,993.43549 95,1002.4437 95,1013.3622 c 0,12.1265 -9.8735,22 -22,22 l -49,0 c -10.4914,0 -19,-8.5086 -19,-19 0,-10.2137 8.0804,-18.47222 18.1875,-18.90627 -0.2925,-7.27676 2.2056,-14.67431 7.75,-20.21875 5.2624,-5.26255 12.1578,-7.875 19.0625,-7.875 z m 0,4 c -5.8915,0 -11.7496,2.2183 -16.25,6.71875 -5.2015,5.20148 -7.3732,12.26514 -6.5625,19.03125 a 2.0001999,2.0001999 0 0 1 -2,2.25002 l -1.1875,0 c -8.3446,0 -15,6.6554 -15,15 0,8.3446 6.6554,15 15,15 l 49,0 c 9.9647,0 18,-8.0353 18,-18 0,-9.4093 -7.1686,-17.10452 -16.3438,-17.93752 a 2.0001999,2.0001999 0 0 1 -1.8124,-1.75 c -0.577,-4.97026 -2.7439,-9.77517 -6.5626,-13.59375 C 61.7838,975.58345 55.8915,973.36218 50,973.36218 z m 0,20 c 1.1048,0 2,0.89543 2,2 l 0,21.50002 7.6562,-6.9687 c 0.7764,-0.7088 2.1381,-0.6543 2.8438,0.125 0.7056,0.7794 0.6657,2.1283 -0.1562,2.8437 l -11,10 c -0.2858,0.2618 -0.8089,0.49 -1.3438,0.5 -0.5308,0 -0.9035,-0.098 -1.3438,-0.5 l -11,-10 c -0.7825,-0.7022 -0.9263,-2.0724 -0.1562,-2.8437 0.7428,-0.7441 2.0674,-0.8338 2.8438,-0.125 l 7.6562,6.9687 0,-21.50002 c 0,-1.10457 0.8952,-2 2,-2 z" fill="#000000" fill-opacity="1" stroke="none" marker="none" visibility="visible" display="inline" overflow="visible"></path></g></svg>