<svg height='100px' width='100px'  fill="#000000" xmlns="http://www.w3.org/2000/svg" xmlns:xlink="http://www.w3.org/1999/xlink" version="1.1" x="0px" y="0px" viewBox="0 0 30 30" xml:space="preserve"><g transform="translate(-330 -980)"><g xmlns="http://www.w3.org/2000/svg" xmlns:xlink="http://www.w3.org/1999/xlink"><rect x="353" y="1000" width="1" height="1"></rect><rect x="339" y="986" width="1" height="1"></rect><path d="M339,983l-6,6v1v17h17h1l6-6v-18h-17H339z M350,1006h-16v-16h5v1h1v-1h10v10h-1v1h1V1006z M351,1005.586V1001h1v-1h-1    v-9.586v-0.707l5-5v0.707V1000h-1v1h0.586L351,1005.586z M355.293,984l-5,5H340v-1h-1v1h-4.586l4.586-4.586V985h1v-1H355.293z"></path><rect x="339" y="992" width="1" height="1"></rect><rect x="339" y="994" width="1" height="1"></rect><rect x="339" y="996" width="1" height="1"></rect><rect x="339" y="998" width="1" height="1"></rect><rect x="339" y="1000" width="1" height="1"></rect><rect x="341" y="1000" width="1" height="1"></rect><rect x="343" y="1000" width="1" height="1"></rect><rect x="345" y="1000" width="1" height="1"></rect><rect x="347" y="1000" width="1" height="1"></rect><rect x="337" y="1002" width="1" height="1"></rect><rect x="335" y="1004" width="1" height="1"></rect></g></g></svg>