<svg height='100px' width='100px'  fill="#000000" xmlns="http://www.w3.org/2000/svg" xmlns:xlink="http://www.w3.org/1999/xlink" viewBox="0 0 60 54" version="1.1" x="0px" y="0px"><title>Group 14</title><desc>Created with Sketch.</desc><g stroke="none" stroke-width="1" fill="none" fill-rule="evenodd"><g transform="translate(-480.000000, -168.000000)" fill="#000000"><g transform="translate(480.000000, 168.000000)"><path d="M58,5 C58,5.551 57.551,6 57,6 L3,6 C2.449,6 2,5.551 2,5 L2,3 C2,2.449 2.449,2 3,2 L57,2 C57.551,2 58,2.449 58,3 L58,5 Z M4,42 L56,42 L56,8 L4,8 L4,42 Z M32,50 C32,51.103 31.103,52 30,52 C28.897,52 28,51.103 28,50 C28,48.897 28.897,48 30,48 C31.103,48 32,48.897 32,50 L32,50 Z M57,0 L3,0 C1.346,0 0,1.346 0,3 L0,5 C0,6.302 0.839,7.402 2,7.816 L2,43 C2,43.552 2.448,44 3,44 L29,44 L29,46.142 C27.28,46.589 26,48.142 26,50 C26,52.206 27.794,54 30,54 C32.206,54 34,52.206 34,50 C34,48.142 32.72,46.589 31,46.142 L31,44 L57,44 C57.552,44 58,43.552 58,43 L58,7.816 C59.161,7.402 60,6.302 60,5 L60,3 C60,1.346 58.654,0 57,0 L57,0 Z"></path><path d="M45,35 C44.448,35 44,35.448 44,36 C44,36.552 44.448,37 45,37 L50,37 L50,38 C50,38.552 50.448,39 51,39 C51.552,39 52,38.552 52,38 L52,13 C52,12.448 51.552,12 51,12 C50.448,12 50,12.448 50,13 L50,15 L47,15 C46.448,15 46,15.448 46,16 C46,16.552 46.448,17 47,17 L50,17 L50,19 L45,19 C44.448,19 44,19.448 44,20 C44,20.552 44.448,21 45,21 L50,21 L50,23 L47,23 C46.448,23 46,23.448 46,24 C46,24.552 46.448,25 47,25 L50,25 L50,27 L45,27 C44.448,27 44,27.448 44,28 C44,28.552 44.448,29 45,29 L50,29 L50,31 L47,31 C46.448,31 46,31.448 46,32 C46,32.552 46.448,33 47,33 L50,33 L50,35 L45,35 Z"></path><path d="M15,15 C16.103,15 17,15.897 17,17 C17,17.179 16.968,17.351 16.923,17.518 C16.912,17.561 16.898,17.603 16.884,17.644 C16.833,17.792 16.769,17.935 16.686,18.066 C16.678,18.079 16.672,18.095 16.663,18.108 C16.57,18.248 16.454,18.371 16.328,18.484 C16.296,18.513 16.263,18.539 16.23,18.565 C16.096,18.67 15.953,18.765 15.792,18.835 C15.549,18.94 15.281,19 15,19 C13.897,19 13,18.103 13,17 C13,15.897 13.897,15 15,15 L15,15 Z M31,15 C32.103,15 33,15.897 33,17 C33,18.103 32.103,19 31,19 C30.571,19 30.176,18.862 29.85,18.631 C29.847,18.629 29.845,18.625 29.842,18.623 C29.718,18.534 29.61,18.432 29.512,18.323 C29.491,18.3 29.473,18.276 29.453,18.252 C29.382,18.166 29.321,18.073 29.266,17.977 C29.243,17.937 29.22,17.898 29.2,17.856 C29.156,17.765 29.122,17.669 29.093,17.571 C29.08,17.527 29.063,17.485 29.052,17.44 C29.02,17.298 29,17.151 29,17 C29,15.897 29.897,15 31,15 L31,15 Z M22.436,27.27 C22.329,27.228 22.216,27.207 22.107,27.175 C21.993,27.142 21.883,27.1 21.765,27.077 C21.514,27.028 21.259,27 21,27 C20.795,27 20.593,27.016 20.393,27.046 L17.445,20.166 C17.538,20.093 17.619,20.008 17.705,19.928 C17.758,19.879 17.813,19.835 17.863,19.783 C18.012,19.63 18.147,19.466 18.269,19.292 C18.285,19.269 18.305,19.249 18.321,19.225 C18.457,19.023 18.573,18.808 18.67,18.584 C18.694,18.528 18.709,18.468 18.73,18.411 C18.782,18.275 18.837,18.141 18.874,18 L27.129,18 C27.145,18.062 27.179,18.118 27.198,18.179 C27.257,18.369 27.324,18.553 27.409,18.729 C27.446,18.806 27.488,18.878 27.53,18.952 C27.63,19.129 27.741,19.296 27.865,19.454 C27.893,19.489 27.91,19.531 27.939,19.565 L22.436,27.27 Z M21,33 C19.897,33 19,32.103 19,31 C19,30.176 19.501,29.468 20.214,29.162 C20.361,29.099 20.515,29.059 20.67,29.033 C20.704,29.028 20.739,29.027 20.773,29.023 C20.901,29.009 21.029,29.005 21.157,29.016 C21.189,29.018 21.22,29.021 21.252,29.025 C21.401,29.045 21.549,29.078 21.691,29.131 C21.696,29.132 21.701,29.133 21.705,29.135 C21.864,29.195 22.017,29.276 22.159,29.377 C22.16,29.378 22.162,29.379 22.163,29.38 C22.668,29.743 23,30.332 23,31 C23,32.103 22.103,33 21,33 L21,33 Z M15,21 C15.206,21 15.403,20.969 15.601,20.939 L18.563,27.851 C17.619,28.584 17,29.716 17,31 C17,33.206 18.794,35 21,35 C23.206,35 25,33.206 25,31 C25,30.025 24.635,29.142 24.053,28.447 L29.569,20.724 C30.015,20.896 30.494,21 31,21 C33.206,21 35,19.206 35,17 C35,14.794 33.206,13 31,13 C29.142,13 27.589,14.28 27.142,16 L18.858,16 C18.411,14.28 16.858,13 15,13 C12.794,13 11,14.794 11,17 C11,19.206 12.794,21 15,21 L15,21 Z"></path></g></g></g></svg>