<svg height='100px' width='100px'  fill="#000000" xmlns="http://www.w3.org/2000/svg" xmlns:xlink="http://www.w3.org/1999/xlink" version="1.1" x="0px" y="0px" viewBox="0 0 100 100" enable-background="new 0 0 100 100" xml:space="preserve"><g><g><path fill="#000000" d="M70.533,29.209c-0.694-0.614-1.72-0.67-2.478-0.137L50,41.809l-10.905-7.692l5.097-4.536h11.617    l2.945,2.621c0.825,0.733,2.089,0.659,2.824-0.164c0.734-0.825,0.661-2.09-0.165-2.824l-3.514-3.127    c-0.366-0.326-0.839-0.506-1.33-0.506h-4.272v-0.308c0-2.05,0.993-3.783,1.825-4.875c1.206-1.581,1.843-3.471,1.843-5.463    c0-2.571-1.102-5.026-3.023-6.737c-1.919-1.709-4.491-2.515-7.067-2.218c-2.941,0.341-5.531,2.13-6.927,4.786    c-0.514,0.978-0.138,2.187,0.839,2.701c0.977,0.514,2.186,0.138,2.701-0.84c0.77-1.464,2.244-2.488,3.849-2.675    c1.459-0.167,2.862,0.269,3.945,1.232c1.07,0.952,1.683,2.319,1.683,3.75c0,1.108-0.354,2.159-1.024,3.038    c-1.729,2.27-2.644,4.794-2.644,7.3v0.308H43.43c-0.49,0-0.963,0.18-1.33,0.506l-6.362,5.662l-3.793-2.676    c-0.759-0.534-1.785-0.479-2.478,0.137L7.579,48.565c-0.75,0.663-0.894,1.779-0.337,2.611l10.87,16.23    c0.333,0.497,0.871,0.818,1.467,0.877c0.594,0.064,1.186-0.152,1.609-0.576l6.116-6.115v16.282c0,1.104,0.896,2,2,2s2-0.896,2-2    v-21.11c0-0.809-0.487-1.538-1.234-1.848c-0.749-0.311-1.608-0.14-2.18,0.434l-7.809,7.808l-8.542-12.755l19.393-17.15L48,45.294    V90.5H31.303v-2.375c0-1.104-0.896-2-2-2s-2,0.896-2,2V92.5c0,1.104,0.896,2,2,2H50h20.697c1.104,0,2-0.896,2-2V61.593    l6.116,6.115c0.423,0.423,1.014,0.641,1.609,0.576c0.596-0.059,1.134-0.38,1.467-0.877l10.87-16.23    c0.557-0.832,0.414-1.948-0.337-2.611L70.533,29.209z M79.919,63.158l-7.809-7.808c-0.572-0.573-1.433-0.744-2.18-0.434    c-0.747,0.31-1.234,1.039-1.234,1.848V90.5H52V45.294l17.068-12.041l19.393,17.15L79.919,63.158z"></path></g></g></svg>