<svg height='100px' width='100px'  fill="#000000" xmlns:x="http://ns.adobe.com/Extensibility/1.0/" xmlns:i="http://ns.adobe.com/AdobeIllustrator/10.0/" xmlns:graph="http://ns.adobe.com/Graphs/1.0/" xmlns="http://www.w3.org/2000/svg" xmlns:xlink="http://www.w3.org/1999/xlink" version="1.1" x="0px" y="0px" viewBox="0 0 76.818 76.314" enable-background="new 0 0 76.818 76.314" xml:space="preserve"><g><g i:extraneous="self"><path d="M72.869,23.389c-0.555,1.838-1.066,3.033-1.66,4.508h2.244v17.278h-2.256c0.25,0.528,1.104,2.669,1.658,4.509    c0.594,1.966,1,3.75,1.146,4.906c0.145-1.156,0.551-2.94,1.145-4.906c0.557-1.84,1.066-3.035,1.66-4.509h-2.242V27.896h2.254    c-0.25-0.527-1.104-2.67-1.658-4.508c-0.594-1.967-1-3.75-1.146-4.908C73.869,19.639,73.463,21.422,72.869,23.389z"></path><g><g><defs><rect id="b" width="65.848" height="76.314"></rect></defs><clipPath id="a"><use xlink:href="#b" overflow="visible"></use></clipPath><path clip-path="url(#a)" d="M33.414,73.168l-0.104-34.609l30.129-17.392l0.104,34.606L33.414,73.168L33.414,73.168z       M2.41,56.482L2.316,21.884L31.01,38.561l0.096,34.593L2.41,56.482L2.41,56.482z M33.584,2.486l28.705,16.68l-11.881,6.861      L32.16,36.563L5.084,20.831l-1.627-0.948L33.584,2.486L33.584,2.486z M65.74,19.168c0-0.007,0-0.012,0-0.019      c-0.006-0.399-0.217-0.773-0.568-0.978l-31-18.018c-0.359-0.205-0.803-0.205-1.162,0L0.586,18.877      c-0.008,0.001-0.008,0.001-0.008,0.001c-0.053,0.033-0.1,0.078-0.15,0.121C0.164,19.216,0,19.529,0,19.879      c0,0.005,0.006,0.01,0.006,0.018l0.104,37.25c0,0.407,0.215,0.789,0.574,0.996L31.688,76.16l0,0v0.002      c0.182,0.101,0.377,0.152,0.576,0.152c0.098,0,0.201-0.015,0.297-0.039c0.012-0.002,0.016-0.008,0.027-0.013      c0.084-0.022,0.172-0.056,0.25-0.101l32.436-18.725c0.359-0.209,0.574-0.591,0.574-1.002L65.74,19.168L65.74,19.168z"></path></g></g></g></g></svg>