<svg height='100px' width='100px'  fill="#000000" xmlns="http://www.w3.org/2000/svg" xmlns:xlink="http://www.w3.org/1999/xlink" version="1.1" x="0px" y="0px" viewBox="0 0 52 52" enable-background="new 0 0 52 52" xml:space="preserve"><g><g><path d="M40,50H12c-1.6542997,0-3-1.3456993-3-3V5c0-1.6543,1.3457003-3,3-3h28c1.6543007,0,3,1.3457,3,3v42    C43,48.6543007,41.6543007,50,40,50z M12,4c-0.5513,0-1,0.4487-1,1v42c0,0.5513,0.4487,1,1,1h28c0.5513,0,1-0.4487,1-1V5    c0-0.5513-0.4487-1-1-1H12z"></path></g><g><path d="M38.9995003,20h-26V6h26V20z M14.9995003,18h22V8h-22V18z"></path></g><g><path d="M18.9995003,29h-6v-6h6V29z M14.9995003,27h2v-2h-2V27z"></path></g><g><path d="M28.9995003,29h-6v-6h6V29z M24.9995003,27h2v-2h-2V27z"></path></g><g><path d="M38.9995003,29h-6v-6h6V29z M34.9995003,27h2v-2h-2V27z"></path></g><g><path d="M18.9995003,37h-6v-6h6V37z M14.9995003,35h2v-2h-2V35z"></path></g><g><path d="M28.9995003,37h-6v-6h6V37z M24.9995003,35h2v-2h-2V35z"></path></g><g><path d="M38.9995003,37h-6v-6h6V37z M34.9995003,35h2v-2h-2V35z"></path></g><g><path d="M18.9995003,45h-6v-6h6V45z M14.9995003,43h2v-2h-2V43z"></path></g><g><path d="M28.9995003,45h-6v-6h6V45z M24.9995003,43h2v-2h-2V43z"></path></g><g><path d="M38.9995003,45h-6v-6h6V45z M34.9995003,43h2v-2h-2V43z"></path></g></g></svg>