<svg height='100px' width='100px'  fill="#000000" xmlns="http://www.w3.org/2000/svg" viewBox="0 0 62 66" x="0px" y="0px"><path fill="#000000" fill-rule="evenodd" d="M662.178634,932.572083 C662.103142,932.463645 662.047653,932.337286 662.019419,932.196116 L659.019419,917.196116 C658.941745,916.807744 659.100603,916.410126 659.424507,916.182194 L686.424507,897.182194 C686.697801,896.989876 687.005129,896.957391 687.275407,897.037091 L709.221621,902.024867 C709.556392,902.100951 709.828731,902.343444 709.94299,902.66718 C713.960029,914.054139 715.97149,919.761157 715.977373,919.788235 L720.975133,941.778379 C721.075506,942.220019 720.866528,942.673981 720.465746,942.884918 L682.515764,962.858593 C682.461302,962.891065 682.404134,962.91801 682.345181,962.939363 C682.073713,963.042253 681.800334,963.016436 681.571334,962.90537 C681.44106,962.844068 681.321548,962.75274 681.123822,962.485538 L662.178634,932.572083 Z M695.791999,933.677887 L684.097271,959.766125 L718.854671,941.472757 L714.342669,921.619951 L695.791999,933.677887 Z M695.134259,931.720046 L713.79503,919.590544 L708.240568,903.852903 L687.753512,899.196754 L683.097485,919.683271 L695.134259,931.720046 Z M664.380542,932.310826 L681.848893,959.892432 L693.805589,933.219802 L681.858134,921.272347 L664.380542,932.310826 Z M685.44845,900.314615 L661.108368,917.442821 L663.695413,930.378044 L681.116485,919.375262 L685.44845,900.314615 Z" transform="translate(-659 -897)"></path></svg>