<svg height='100px' width='100px'  fill="#000000" xmlns:dc="http://purl.org/dc/elements/1.1/" xmlns:cc="http://creativecommons.org/ns#" xmlns:rdf="http://www.w3.org/1999/02/22-rdf-syntax-ns#" xmlns:svg="http://www.w3.org/2000/svg" xmlns="http://www.w3.org/2000/svg" xmlns:sodipodi="http://sodipodi.sourceforge.net/DTD/sodipodi-0.dtd" xmlns:inkscape="http://www.inkscape.org/namespaces/inkscape" version="1.1" x="0px" y="0px" viewBox="0 0 100 100"><g transform="translate(0,-952.36218)"><path style="text-indent:0;text-transform:none;direction:ltr;block-progression:tb;baseline-shift:baseline;color:#000000;enable-background:accumulate;" d="M 50 6 C 25.72316 6 6 25.72316 6 50 C 6 74.2768 25.72316 94 50 94 C 74.27684 94 94 74.2768 94 50 C 94 25.72316 74.27684 6 50 6 z M 48 10.21875 L 48 33.96875 C 42.343968 33.826255 37.09045 33.070092 32.1875 31.78125 C 33.202782 27.83065 34.549199 24.251552 36.125 21.21875 C 39.393537 14.928092 43.551979 11.107389 48 10.21875 z M 52 10.21875 C 56.448021 11.107389 60.606463 14.928092 63.875 21.21875 C 65.450801 24.251552 66.797218 27.83065 67.8125 31.78125 C 62.90955 33.070092 57.656032 33.826255 52 33.96875 L 52 10.21875 z M 37.78125 11.875 C 35.812061 13.952951 34.06243 16.488224 32.5625 19.375 C 30.839964 22.690206 29.420271 26.495451 28.34375 30.65625 C 24.664743 29.428511 21.214591 27.868058 17.96875 26.03125 C 22.891664 19.460943 29.783546 14.432331 37.78125 11.875 z M 62.21875 11.875 C 70.216454 14.432331 77.108336 19.460943 82.03125 26.03125 C 78.785409 27.868058 75.335257 29.428511 71.65625 30.65625 C 70.579729 26.495451 69.160036 22.690206 67.4375 19.375 C 65.93757 16.488224 64.187939 13.952951 62.21875 11.875 z M 15.71875 29.375 C 19.381691 31.468305 23.295823 33.230988 27.46875 34.59375 C 26.64379 38.795557 26.140796 43.307984 26.03125 48 L 10.0625 48 C 10.396025 41.201267 12.412055 34.863267 15.71875 29.375 z M 84.28125 29.375 C 87.587945 34.863267 89.603975 41.201267 89.9375 48 L 73.96875 48 C 73.859204 43.307984 73.35621 38.795557 72.53125 34.59375 C 76.704177 33.230988 80.618309 31.468305 84.28125 29.375 z M 31.34375 35.6875 C 36.54006 37.041584 42.084628 37.824633 48 37.96875 L 48 48 L 30.03125 48 C 30.139252 43.678532 30.602543 39.539037 31.34375 35.6875 z M 68.65625 35.6875 C 69.397457 39.539037 69.860748 43.678532 69.96875 48 L 52 48 L 52 37.96875 C 57.915372 37.824633 63.45994 37.041584 68.65625 35.6875 z M 10.0625 52 L 26.03125 52 C 26.139662 56.708689 26.639645 61.227482 27.46875 65.4375 C 23.295975 66.794943 19.381572 68.533521 15.71875 70.625 C 12.412055 65.136733 10.396025 58.798738 10.0625 52 z M 30.03125 52 L 48 52 L 48 62.03125 C 42.086305 62.174145 36.538797 62.965597 31.34375 64.3125 C 30.601331 60.459371 30.137887 56.32923 30.03125 52 z M 52 52 L 69.96875 52 C 69.862113 56.32923 69.398669 60.459371 68.65625 64.3125 C 63.461203 62.965597 57.913695 62.174145 52 62.03125 L 52 52 z M 73.96875 52 L 89.9375 52 C 89.603975 58.798738 87.587945 65.136733 84.28125 70.625 C 80.618428 68.533521 76.704025 66.794943 72.53125 65.4375 C 73.360355 61.227482 73.860338 56.708689 73.96875 52 z M 47.4375 66.0625 C 47.622649 66.056558 47.814017 66.067146 48 66.0625 L 48 89.8125 C 43.549341 88.920394 39.395255 85.044022 36.125 78.75 C 34.549198 75.717169 33.202782 72.16295 32.1875 68.21875 C 36.929158 66.978585 41.99207 66.237275 47.4375 66.0625 z M 52 66.0625 C 57.655937 66.203801 62.909622 66.936418 67.8125 68.21875 C 66.797218 72.16295 65.450802 75.717169 63.875 78.75 C 60.604745 85.044022 56.450659 88.920394 52 89.8125 L 52 66.0625 z M 28.34375 69.34375 C 29.420271 73.498243 30.839964 77.278527 32.5625 80.59375 C 34.06243 83.480505 35.812061 86.041832 37.78125 88.125 C 29.777376 85.565699 22.861161 80.546546 17.9375 73.96875 C 21.1919 72.126402 24.653579 70.570222 28.34375 69.34375 z M 71.65625 69.34375 C 75.346421 70.570222 78.8081 72.126402 82.0625 73.96875 C 77.138839 80.546546 70.222624 85.565699 62.21875 88.125 C 64.187939 86.041832 65.93757 83.480505 67.4375 80.59375 C 69.160036 77.278527 70.579729 73.498243 71.65625 69.34375 z " transform="translate(0,952.36218)" fill="#000000" fill-opacity="1" stroke="none" marker="none" visibility="visible" display="inline" overflow="visible"></path></g></svg>