<svg height='100px' width='100px'  fill="#000000" xmlns="http://www.w3.org/2000/svg" xmlns:xlink="http://www.w3.org/1999/xlink" version="1.1" x="0px" y="0px" viewBox="0 0 512 512" style="enable-background:new 0 0 512 512;" xml:space="preserve"><g><g><g><path d="M159.7,415.2c-1.9,0-3.6-1.4-3.9-3.4l-4.4-28.5c-0.3-2.2,1.2-4.2,3.3-4.6c2.2-0.3,4.2,1.2,4.6,3.3l4.4,28.5     c0.3,2.2-1.2,4.2-3.3,4.6C160.1,415.2,159.9,415.2,159.7,415.2z"></path></g><g><path d="M179.3,423.1c-1.2,0-2.4-0.6-3.2-1.6c-1.3-1.8-1-4.3,0.8-5.6l40.5-30.4c1.8-1.3,4.3-1,5.6,0.8c1.3,1.8,1,4.3-0.8,5.6     l-40.5,30.4C181,422.9,180.1,423.1,179.3,423.1z"></path></g><g><path d="M284,384.9c-0.1,0-0.3,0-0.4,0l-27.4-2.6c-2.2-0.2-3.8-2.2-3.6-4.4c0.2-2.2,2.2-3.8,4.4-3.6l27.4,2.6     c2.2,0.2,3.8,2.2,3.6,4.4C287.8,383.4,286.1,384.9,284,384.9z"></path></g><g><path d="M320.9,374.4c-1.2,0-2.4-0.5-3.2-1.6c-1.3-1.8-1-4.3,0.8-5.6l25.7-19.5c1.8-1.3,4.3-1,5.6,0.8c1.3,1.8,1,4.3-0.8,5.6     l-25.7,19.5C322.6,374.2,321.7,374.4,320.9,374.4z"></path></g><g><path d="M382.8,336.8c-1.7,0-3.3-1.1-3.8-2.9c-0.6-2.1,0.6-4.3,2.7-5l43.5-12.6c2.1-0.6,4.3,0.6,5,2.7c0.6,2.1-0.6,4.3-2.7,5     l-43.5,12.6C383.5,336.8,383.2,336.8,382.8,336.8z"></path></g><g><path d="M453.4,299.4c-0.5,0-0.9-0.1-1.4-0.3c-2.1-0.8-3.1-3.1-2.3-5.2l14.3-38.1c0.8-2.1,3.1-3.1,5.2-2.3     c2.1,0.8,3.1,3.1,2.3,5.2l-14.3,38.1C456.5,298.4,455,299.4,453.4,299.4z"></path></g><g><path d="M463.5,224.9c-1.3,0-2.6-0.6-3.3-1.8l-29.1-44c-1.2-1.8-0.7-4.3,1.1-5.5c1.8-1.2,4.3-0.7,5.5,1.1l29.1,44     c1.2,1.8,0.7,4.3-1.1,5.5C465.1,224.6,464.3,224.9,463.5,224.9z"></path></g><g><path d="M407.1,150.8c-0.9,0-1.8-0.3-2.5-0.9l-44.7-36.6c-1.7-1.4-2-3.9-0.6-5.6c1.4-1.7,3.9-2,5.6-0.6l44.7,36.6     c1.7,1.4,2,3.9,0.6,5.6C409.5,150.3,408.3,150.8,407.1,150.8z"></path></g><g><path d="M326,98.6c-0.2,0-0.3,0-0.5,0l-88.4-11.2c-2.2-0.3-3.7-2.3-3.5-4.5c0.3-2.2,2.3-3.7,4.5-3.5l88.4,11.2     c2.2,0.3,3.7,2.3,3.5,4.5C329.8,97.1,328,98.6,326,98.6z"></path></g><g><path d="M112.7,140.2c-1.4,0-2.8-0.8-3.5-2.1c-1-2-0.3-4.4,1.7-5.4l86.3-45.8c2-1,4.4-0.3,5.4,1.7c1,2,0.3,4.4-1.7,5.4     l-86.3,45.8C114,140,113.4,140.2,112.7,140.2z"></path></g><g><path d="M47.4,228.5c-0.7,0-1.4-0.2-2-0.6c-1.9-1.1-2.5-3.6-1.4-5.5l36.5-61c1.1-1.9,3.6-2.5,5.5-1.4c1.9,1.1,2.5,3.6,1.4,5.5     l-36.5,61C50.1,227.8,48.8,228.5,47.4,228.5z"></path></g><g><path d="M62.6,315c-1.6,0-3.1-1-3.7-2.6l-18.5-49.6c-0.8-2.1,0.3-4.4,2.3-5.1c2.1-0.8,4.4,0.3,5.1,2.3l18.5,49.6     c0.8,2.1-0.3,4.4-2.3,5.1C63.5,314.9,63.1,315,62.6,315z"></path></g><g><path d="M136.4,353.2c-0.9,0-1.8-0.3-2.6-0.9l-13-10.8l-31.2-4.4c-2.2-0.3-3.7-2.3-3.4-4.5c0.3-2.2,2.3-3.7,4.5-3.4l32.3,4.5     c0.7,0.1,1.4,0.4,2,0.9l13.9,11.5c1.7,1.4,1.9,3.9,0.5,5.6C138.6,352.7,137.5,353.2,136.4,353.2z"></path></g><g><path d="M114,239.2c-1.8,0-3.5-1.3-3.9-3.1L95,166.8c-0.5-2.2,0.9-4.3,3.1-4.8c2.2-0.5,4.3,0.9,4.8,3.1l15.1,69.3     c0.5,2.2-0.9,4.3-3.1,4.8C114.6,239.1,114.3,239.2,114,239.2z"></path></g><g><path d="M81,317c-0.7,0-1.5-0.2-2.2-0.6c-1.9-1.2-2.4-3.7-1.2-5.5l26.2-40.4c1.2-1.9,3.7-2.4,5.5-1.2c1.9,1.2,2.4,3.7,1.2,5.5     l-26.2,40.4C83.6,316.3,82.3,317,81,317z"></path></g><g><path d="M133.5,245.3c-1.1,0-2.1-0.4-2.9-1.3c-1.5-1.6-1.4-4.1,0.2-5.7l51.4-47.7c1.6-1.5,4.1-1.4,5.7,0.2     c1.5,1.6,1.4,4.1-0.2,5.7l-51.4,47.7C135.4,244.9,134.4,245.3,133.5,245.3z"></path></g><g><path d="M180.3,177.3c-0.4,0-0.8-0.1-1.2-0.2l-66.2-21.2c-2.1-0.7-3.3-2.9-2.6-5c0.7-2.1,2.9-3.3,5-2.6l66.2,21.2     c2.1,0.7,3.3,2.9,2.6,5C183.6,176.2,182,177.3,180.3,177.3z"></path></g><g><path d="M269.5,157.9c-1.9,0-3.5-1.3-3.9-3.2c-0.2-0.8-0.2-1.5-0.3-2.1c-0.1-0.9-0.1-1.7-0.1-2.6c0-2.2,1.8-4,4-4s4,1.8,4,4     c0,0.5,0,1.1,0.1,1.7c0.1,0.5,0.1,1,0.2,1.4c0.4,2.2-1,4.3-3.1,4.7C270,157.9,269.7,157.9,269.5,157.9z"></path></g><g><path d="M274.8,139.7c-1,0-2-0.4-2.8-1.1l-42.7-40.8c-1.6-1.5-1.7-4.1-0.1-5.7c1.5-1.6,4.1-1.7,5.7-0.1l42.7,40.8     c1.6,1.5,1.7,4.1,0.1,5.7C276.9,139.3,275.9,139.7,274.8,139.7z"></path></g><g><path d="M217.2,105.3c-0.9,0-1.7-0.1-2.4-0.1c-2.2-0.2-3.8-2.1-3.6-4.3c0.2-2.2,2.1-3.8,4.3-3.6l0,0c0.6,0.1,1.2,0.1,1.7,0.1     c2.2,0,4,1.8,4,4S219.4,105.3,217.2,105.3z"></path></g><g><path d="M203.5,163.3c-0.2,0-0.5,0-0.7-0.1c-2.2-0.4-3.6-2.5-3.2-4.6l10.2-58.3c0.4-2.2,2.5-3.6,4.6-3.2c2.2,0.4,3.6,2.5,3.2,4.6     L207.4,160C207.1,161.9,205.4,163.3,203.5,163.3z"></path></g><g><path d="M218.7,175.3c-1.6,0-3.1-1-3.7-2.6c-0.1-0.3-0.2-0.5-0.3-0.7c-1.1-1.9-0.4-4.4,1.5-5.5c1.9-1.1,4.4-0.4,5.5,1.5     c0.3,0.6,0.6,1.2,0.9,1.9c0.8,2.1-0.3,4.4-2.3,5.1C219.7,175.2,219.2,175.3,218.7,175.3z"></path></g><g><path d="M219.4,177.1c-1.7,0-3.2-1.1-3.8-2.7c-0.7-2.1,0.4-4.4,2.5-5.1l50.7-16.7c2.1-0.7,4.4,0.4,5.1,2.5     c0.7,2.1-0.4,4.4-2.5,5.1l-50.7,16.7C220.3,177.1,219.9,177.1,219.4,177.1z"></path></g><g><path d="M370.9,199.7c-1.8,0-3.5-1.3-3.9-3.1l-16.4-75.2c-0.5,0.1-1,0.1-1.5,0.2l-0.4,0c-0.7,0.1-1.4,0.1-2.3,0.1     c-0.9,0-1.7-0.1-2.5-0.1c-2.2-0.2-3.8-2.1-3.6-4.3c0.2-2.2,2.1-3.8,4.3-3.6c1.2,0.1,2.1,0.1,3.4,0l0.3,0c0.4,0,0.9-0.1,1.2-0.2     c0.1,0,0.2-0.1,0.4-0.1c0.5-0.1,1-0.2,1.3-0.3c0.2-0.1,0.5-0.2,0.7-0.2c0,0,0.1,0,0.2-0.1l0.2-0.1c1.1-0.4,2.3-0.3,3.3,0.3     c1,0.6,1.7,1.5,1.9,2.6l17.3,79.2c0.5,2.2-0.9,4.3-3.1,4.8C371.5,199.7,371.2,199.7,370.9,199.7z"></path></g><g><path d="M338.5,120.1c-0.4,0-0.8-0.1-1.2-0.2c-0.9-0.3-1.8-0.7-2.7-1.3c-1.9-1.1-2.5-3.6-1.4-5.5s3.6-2.5,5.5-1.3     c0.5,0.3,0.7,0.4,0.9,0.4c2.1,0.6,3.3,2.9,2.7,5C341.8,119,340.2,120.1,338.5,120.1z"></path></g><g><path d="M305.5,140.9c-1.2,0-2.3-0.5-3.1-1.5c-1.4-1.7-1.2-4.2,0.5-5.6l28.3-23.4c1.5-1.2,3.6-1.2,5.1,0c0.1,0.1,0.3,0.2,0.4,0.3     c0.1,0.1,0.3,0.2,0.4,0.3c0.1,0.1,0.2,0.1,0.2,0.2c0.3,0.2,0.6,0.4,1.1,0.7c1.9,1.1,2.6,3.5,1.6,5.4c-1.1,1.9-3.5,2.6-5.4,1.6     c-0.2-0.1-0.4-0.2-0.6-0.3l-26,21.5C307.3,140.6,306.4,140.9,305.5,140.9z"></path></g><g><path d="M310.1,156.1c-0.1,0-0.2,0-0.3,0c-2.2-0.2-3.8-2.1-3.7-4.3l0-0.2c0-0.6,0.1-1.1,0.1-1.6c0-0.5,0-1.1-0.1-1.8     c0-0.5-0.1-1.1-0.3-1.7l7.9-1.4c0.1,0.7,0.3,1.5,0.4,2.4c0.1,0.8,0.1,1.6,0.1,2.4c0,0.8-0.1,1.5-0.1,2.2l0,0.2     C313.9,154.5,312.2,156.1,310.1,156.1z"></path></g><g><path d="M359,207.2c-0.9,0-1.7-0.3-2.4-0.8l-53-40.8c-1.8-1.3-2.1-3.9-0.7-5.6c1.3-1.8,3.9-2.1,5.6-0.7l53,40.8     c1.8,1.3,2.1,3.9,0.7,5.6C361.4,206.7,360.2,207.2,359,207.2z"></path></g><g><path d="M388.6,204.2c-0.9,0-1.8-0.3-2.6-1c-1.7-1.4-1.9-4-0.4-5.6l21-24.6c1.4-1.7,4-1.9,5.6-0.4c1.7,1.4,1.9,4,0.4,5.6     l-21,24.6C390.9,203.7,389.8,204.2,388.6,204.2z"></path></g><g><path d="M454.8,237.5c-0.3,0-0.6,0-0.9-0.1l-59.5-13.3c-2.2-0.5-3.5-2.6-3-4.8s2.6-3.5,4.8-3l59.5,13.3c2.2,0.5,3.5,2.6,3,4.8     C458.3,236.3,456.7,237.5,454.8,237.5z"></path></g><g><path d="M429.1,307c-0.8,0-1.5-0.2-2.2-0.7c-1.8-1.2-2.4-3.7-1.2-5.5c0.5-0.7,0.9-1.3,1.4-1.9c0.5-0.7,1-1.2,1.6-1.7     c0.4-0.5,0.9-0.9,1.2-1.2c1.7-1.4,4.2-1.2,5.7,0.5s1.2,4.2-0.5,5.6c-0.2,0.2-0.5,0.4-0.5,0.5c-0.1,0.1-0.3,0.3-0.5,0.5     c-0.2,0.2-0.5,0.5-0.8,0.9c-0.1,0.1-0.1,0.2-0.2,0.2c-0.3,0.3-0.5,0.6-0.8,1C431.7,306.4,430.4,307,429.1,307z"></path></g><g><path d="M426.6,312.1c-0.5,0-0.9-0.1-1.4-0.3c-2.1-0.8-3.1-3.1-2.3-5.2l0.1-0.3c0.2-0.4,0.4-1,0.7-1.6c1-2,3.4-2.8,5.4-1.8     s2.8,3.4,1.8,5.4c-0.1,0.2-0.2,0.5-0.3,0.7l-0.1,0.4C429.7,311.1,428.2,312.1,426.6,312.1z"></path></g><g><path d="M425.8,315.2c-0.2,0-0.4,0-0.7-0.1L348,302.2c-2.1-0.4-3.6-2.4-3.3-4.5c0-0.1,0-0.5,0-0.8c0-2.2,1.8-4,4-4     c1.4,0,2.7,0.7,3.4,1.8l72.1,12.1c1.1-0.5,2.4-0.6,3.5,0c1.8,0.9,2.7,3,2,4.9c0,0.2-0.1,0.3-0.1,0.4     C429.2,314,427.6,315.2,425.8,315.2z"></path></g><g><path d="M348.7,296.2c-2.1,0-3.9-1.7-4-3.8l0,0l0,0c0-0.1,0-0.1,0-0.2c0,0.1,0,0.1,0,0.2l7.8-1.9l-3.9,1l3.9-1     c0.1,0.4,0.2,1,0.2,1.7C352.7,294.4,350.9,296.2,348.7,296.2z"></path></g><g><path d="M344.7,286.3c-1,0-2-0.4-2.7-1.1c-0.1-0.1-0.1-0.1-0.2-0.2c-1.3-1.2-1.7-3.1-0.9-4.7c1-2,3.4-2.8,5.3-1.8     c0.8,0.4,1.3,1,1.5,1.2c1.3,1.5,1.3,3.8-0.1,5.3C346.8,285.9,345.7,286.3,344.7,286.3z"></path></g><g><path d="M338.8,281.1c-0.7,0-1.4-0.2-2-0.6c-1.9-1.1-2.5-3.6-1.4-5.5l25.9-43.6c1.1-1.9,3.6-2.5,5.5-1.4c1.9,1.1,2.5,3.6,1.4,5.5     l-25.9,43.6C341.5,280.4,340.2,281.1,338.8,281.1z"></path></g><g><path d="M372.7,240.2c-0.6,0-1.2-0.1-1.9-0.3c-2.1-0.6-3.4-2.8-2.8-4.9c0.6-2.1,2.7-3.4,4.9-2.8c2.1,0.1,3.8,1.8,3.8,4     C376.7,238.4,374.9,240.2,372.7,240.2z"></path></g><g><path d="M375.3,240.4c-2.2,0-4-1.8-4-4s1.8-4,4-4c0.5,0,0.9,0,1.5-0.1l0.3,0c0.4,0,1-0.1,1.5-0.2c0.2,0,0.3-0.1,0.5-0.1     c0.1,0,0.2,0,0.4-0.1c2.1-0.8,4.4,0.3,5.1,2.3c0.8,2.1-0.3,4.4-2.3,5.2c-0.6,0.2-1.2,0.3-1.5,0.4c-0.1,0-0.2,0-0.3,0.1     c-0.1,0-0.2,0-0.3,0.1c-0.7,0.1-1.6,0.3-2.4,0.3l-0.3,0C376.8,240.3,376.1,240.4,375.3,240.4z"></path></g><g><path d="M385.2,237.8c-1.3,0-2.5-0.6-3.3-1.8c-1.2-1.8-0.8-4.3,1.1-5.6c0.1-0.1,0.3-0.2,0.4-0.2c0.2-0.1,0.4-0.3,0.6-0.4     c0.1-0.1,0.4-0.2,0.6-0.4l4.4,6.7c-0.3,0.2-0.7,0.5-1.1,0.7c-0.2,0.1-0.4,0.2-0.5,0.3C386.7,237.6,385.9,237.8,385.2,237.8z"></path></g><g><path d="M434.1,301.9c-1.2,0-2.5-0.6-3.3-1.7l-46.8-65.4c-1.3-1.8-0.9-4.3,0.9-5.6c1.8-1.3,4.3-0.9,5.6,0.9l46.8,65.4     c1.3,1.8,0.9,4.3-0.9,5.6C435.7,301.6,434.9,301.9,434.1,301.9z"></path></g><g><path d="M309.9,367.1c-0.3,0-0.7,0-1-0.1c-2.1-0.6-3.4-2.8-2.8-4.9l13.1-48.4c0.6-2.1,2.8-3.4,4.9-2.8c2.1,0.6,3.4,2.8,2.8,4.9     l-13.1,48.4C313.3,365.9,311.6,367.1,309.9,367.1z"></path></g><g><path d="M350.2,326.3c-1.2,0-2.3-0.5-3.1-1.5l-9-11.4c-1.4-1.7-1.1-4.2,0.6-5.6c1.7-1.4,4.2-1.1,5.6,0.6l9,11.4     c1.4,1.7,1.1,4.2-0.6,5.6C351.9,326.1,351,326.3,350.2,326.3z"></path></g><g><path d="M234.1,359.9c-2,0-3.8-1.6-4-3.6c-0.2-2.2,1.4-4.1,3.6-4.3c0.8-0.1,1.6-0.1,2.5-0.1c2.2,0,4,1.8,4,4s-1.8,4-4,4     c-0.5,0-1.1,0-1.8,0.1C234.3,359.9,234.2,359.9,234.1,359.9z"></path></g><g><path d="M229.4,360.9c-1.7,0-3.2-1-3.8-2.7l-14.5-41.8c-0.4-1-0.3-2.1,0.2-3.1c0.5-1,1.3-1.7,2.3-2l0.1,0     c1.8-1.2,4.3-0.7,5.5,1.1c0.8,1.2,0.9,2.7,0.3,3.9l13.6,39.3c0.7,2.1-0.4,4.4-2.5,5.1C230.2,360.8,229.8,360.9,229.4,360.9z"></path></g><g><path d="M219.8,316.6c-1.4,0-2.7-0.7-3.5-2c-1.1-1.9-0.4-4.4,1.5-5.5c0.2-0.1,0.4-0.3,0.6-0.4c1.7-1.4,4.2-1.3,5.6,0.4     c1.4,1.7,1.3,4.2-0.4,5.6c-0.6,0.5-1.3,1-1.9,1.4C221.1,316.4,220.4,316.6,219.8,316.6z"></path></g><g><path d="M227.2,307.6c-0.5,0-1-0.1-1.5-0.3c-2.1-0.8-3-3.2-2.2-5.2c0.2-0.4,0.3-0.9,0.4-1.3l0-0.1c0.6-2.1,2.9-3.3,5-2.7     c2.1,0.6,3.3,2.9,2.7,5l0,0.1c-0.2,0.6-0.4,1.3-0.7,2C230.3,306.6,228.8,307.6,227.2,307.6z"></path></g><g><path d="M228.3,303.6c-0.4,0-0.8-0.1-1.1-0.2c-2.1-0.6-3.3-2.9-2.7-5c0.1-0.2,0.1-0.6,0.1-1.1c0.1-0.7,0.1-1.2,0.1-1.8     c0-2.2,1.8-4,4-4s4,1.8,4,4c0,0.9-0.1,1.6-0.1,2.4c-0.1,0.9-0.2,1.8-0.5,2.7C231.7,302.5,230.1,303.6,228.3,303.6z"></path></g><g><path d="M228.2,294.8c-1.7,0-3.3-1.1-3.8-2.9l-0.4-1.2c-0.6-2.1,0.6-4.3,2.7-5c2.1-0.6,4.3,0.6,5,2.7l0.4,1.3     c0.6,2.1-0.6,4.3-2.8,4.9C228.9,294.7,228.5,294.8,228.2,294.8z"></path></g><g><path d="M223.1,285.6c-1.1,0-2.1-0.4-2.9-1.3c-1.5-1.6-1.4-4.1,0.2-5.7l38.4-36c1.6-1.5,4.1-1.4,5.7,0.2c1.5,1.6,1.4,4.1-0.2,5.7     l-38.4,36C225.1,285.2,224.1,285.6,223.1,285.6z"></path></g><g><path d="M265,252.5c-0.8,0-1.5-0.2-2.2-0.7c-0.7-0.5-1.3-1-1.9-1.4c-0.1,0-0.1-0.1-0.1-0.1c-0.5-0.4-1.1-0.9-1.7-1.5     c-1.6-1.6-1.6-4.1,0-5.7c1.6-1.6,4.1-1.6,5.7,0c0.4,0.4,0.8,0.7,1.2,1.1c0.4,0.3,0.9,0.7,1.3,1c1.8,1.2,2.4,3.7,1.1,5.5     C267.6,251.9,266.3,252.5,265,252.5z"></path></g><g><path d="M272.4,255.6c-0.2,0-0.5,0-0.7-0.1c-0.8-0.1-1.6-0.4-2.3-0.5c-2.1-0.6-3.4-2.8-2.9-4.9c0.6-2.1,2.7-3.4,4.9-2.8     c0.6,0.2,1.2,0.3,1.6,0.4c2.2,0.4,3.6,2.5,3.2,4.6C275.9,254.2,274.3,255.6,272.4,255.6z"></path></g><g><path d="M276.5,256c-2.2,0-4-1.8-4-4s1.8-4,4-4c0.6,0,1.2-0.1,1.7-0.1c0.6-0.1,1.1-0.1,1.7-0.3c0.3-0.1,0.6-0.1,0.8-0.2     c0.3-0.1,0.7-0.2,1-0.2c2.2-0.4,4.3,1,4.7,3.2c0.4,2.2-1,4.3-3.2,4.7c-0.2,0-0.4,0.1-0.6,0.1c-0.4,0.1-0.9,0.2-1.3,0.3     c-0.7,0.1-1.5,0.3-2.4,0.4C278.2,255.9,277.4,256,276.5,256z"></path></g><g><path d="M282.8,255c-1.7,0-3.2-1.1-3.8-2.7c-0.7-2.1,0.4-4.4,2.5-5.1c0.4-0.1,0.9-0.3,1.4-0.5c0,0,0.1,0,0.1,0     c0.4-0.2,0.9-0.4,1.3-0.6l0.2-0.1c2-1,4.4-0.2,5.4,1.8s0.2,4.4-1.8,5.4l-0.2,0.1c-0.6,0.3-1.2,0.6-1.9,0.9     c-0.5,0.2-1.2,0.5-1.9,0.8C283.7,255,283.2,255,282.8,255z"></path></g><g><path d="M315.3,282.9c-1.2,0-2.3-0.5-3.1-1.5l-25.8-31.5c-1.4-1.7-1.1-4.2,0.6-5.6c1.7-1.4,4.2-1.1,5.6,0.6l25.8,31.5     c1.4,1.7,1.1,4.2-0.6,5.6C317.1,282.6,316.2,282.9,315.3,282.9z"></path></g><g><path d="M313,285.2c-0.9,0-1.8-0.3-2.5-0.9c-1.7-1.4-2-3.9-0.6-5.6c0.4-0.4,0.7-0.8,1-1.1c0,0,0.1-0.1,0.1-0.1     c1.6-1.6,4.1-1.6,5.7,0c1.6,1.6,1.6,4.1,0,5.6l-0.1,0.1c-0.2,0.2-0.3,0.3-0.4,0.5C315.3,284.6,314.2,285.2,313,285.2z"></path></g><g><path d="M310.4,288.8c-0.6,0-1.2-0.1-1.8-0.4c-2-1-2.8-3.4-1.8-5.4c0.4-0.7,0.7-1.3,1.1-1.9c1.3-1.8,3.8-2.2,5.6-0.9     c1.8,1.3,2.2,3.8,0.9,5.6c-0.1,0.2-0.3,0.4-0.5,0.8C313.3,288,311.9,288.8,310.4,288.8z"></path></g><g><path d="M307.9,296.7c-0.2,0-0.4,0-0.6,0c-2.2-0.3-3.7-2.3-3.4-4.5l0-0.2c0-0.4,0.1-1,0.3-1.7c0.7-2.1,3-3.2,5.1-2.5     c2,0.7,3.1,2.8,2.6,4.8l0,0.1c0,0.2,0,0.4-0.1,0.6C311.6,295.3,309.9,296.7,307.9,296.7z"></path></g><g><path d="M308.1,302.7c-1.9,0-3.6-1.3-3.9-3.3c-0.3-1.5-0.4-3-0.4-4.6c0-2.2,1.8-4,4-4s4,1.8,4,4c0,1.1,0.1,2.1,0.3,3.1     c0.4,2.2-1,4.3-3.2,4.7C308.6,302.6,308.4,302.7,308.1,302.7z"></path></g><g><path d="M308.7,304.9c-1.5,0-3-0.9-3.6-2.3c-0.4-1-0.6-1.9-0.8-2.6c-0.4-2.2,1-4.3,3.1-4.7c2.2-0.4,4.3,1,4.7,3.1     c0.1,0.3,0.2,0.8,0.2,0.9c0.9,2,0,4.4-2.1,5.3C309.8,304.8,309.2,304.9,308.7,304.9z"></path></g><g><path d="M310.3,308.7c-1.4,0-2.8-0.7-3.5-2.1c-0.4-0.6-0.6-1.2-0.9-1.9c-0.9-2,0-4.4,2-5.3c2-0.9,4.4,0,5.3,2     c0.2,0.4,0.4,0.8,0.6,1.3c1.1,1.9,0.4,4.4-1.6,5.4C311.6,308.5,311,308.7,310.3,308.7z"></path></g><g><path d="M251.6,366.7c-1.1,0-2.2-0.5-3-1.3c-1.5-1.7-1.3-4.2,0.3-5.6l61.3-54.3c1.7-1.5,4.2-1.3,5.6,0.3c1.5,1.7,1.3,4.2-0.3,5.6     l-61.3,54.3C253.5,366.4,252.6,366.7,251.6,366.7z"></path></g><g><path d="M189.4,291.2c-0.5,0-1.1-0.1-1.6-0.4l-52.2-23.5c-2-0.9-2.9-3.3-2-5.3c0.9-2,3.3-2.9,5.3-2l52.2,23.5     c2,0.9,2.9,3.3,2,5.3C192.4,290.4,190.9,291.2,189.4,291.2z"></path></g><g><path d="M165.4,350.6c-0.9,0-1.8-0.3-2.6-0.9c-1.7-1.4-1.9-3.9-0.5-5.6l29.5-35.2c1.4-1.7,3.9-1.9,5.6-0.5     c1.7,1.4,1.9,3.9,0.5,5.6l-29.5,35.2C167.7,350.1,166.5,350.6,165.4,350.6z"></path></g><g><path d="M279.8,215.1c-0.2,0-0.4,0-0.6-0.1c-2.2-0.4-3.7-2.4-3.3-4.6l6.6-40.8c0.4-2.2,2.4-3.7,4.6-3.3c2.2,0.4,3.7,2.4,3.3,4.6     l-6.6,40.8C283.4,213.7,281.7,215.1,279.8,215.1z"></path></g><g><path d="M259.4,223.8c-0.8,0-1.6-0.2-2.2-0.7l-42.4-28.7c-1.8-1.2-2.3-3.7-1.1-5.6c1.2-1.8,3.7-2.3,5.6-1.1l42.4,28.7     c1.8,1.2,2.3,3.7,1.1,5.6C262,223.2,260.7,223.8,259.4,223.8z"></path></g><g><path d="M36.9,266.7c-13.6,0-24.6-11-24.6-24.6c0-13.5,11-24.6,24.6-24.6c4.5,0,8.9,1.2,12.6,3.5c7.5,4.5,12,12.4,12,21.1     c0,10.2-6.4,19.4-16,23C42.9,266.2,40,266.7,36.9,266.7z M36.9,225.6c-9.2,0-16.6,7.4-16.6,16.6c0,9.1,7.5,16.6,16.6,16.6     c2.1,0,4-0.3,5.6-1c0,0,0.1,0,0.1,0c6.5-2.4,10.8-8.6,10.8-15.5c0-5.9-3-11.2-8.1-14.2C42.9,226.4,40,225.6,36.9,225.6z"></path></g><g><path d="M94.5,170.4c-4.5,0-8.9-1.2-12.7-3.6c-7.3-4.4-11.9-12.4-11.9-21c0-13.5,11-24.6,24.6-24.6c9.1,0,17.4,5,21.7,13.1     c1.9,3.5,2.9,7.4,2.9,11.5c0,2.5-0.4,5.2-1.2,7.6c-2.7,8.3-9.6,14.6-18.2,16.5C97.9,170.2,96.2,170.4,94.5,170.4z M94.5,129.2     c-9.1,0-16.6,7.4-16.6,16.6c0,5.8,3.1,11.2,8,14.2c2.6,1.6,5.5,2.4,8.5,2.4c1.1,0,2.3-0.1,3.6-0.4c5.7-1.2,10.4-5.5,12.2-11.1     c0.5-1.6,0.8-3.4,0.8-5.1c0-2.8-0.6-5.4-1.9-7.7C106.3,132.6,100.7,129.2,94.5,129.2z"></path></g><g><path d="M217.2,105.3c-0.9,0-1.7-0.1-2.4-0.1c0,0-0.1,0-0.2,0c-0.5-0.1-1-0.1-1.5-0.2c0,0-0.1,0-0.1,0c-7.4-1.3-14-6-17.5-12.7     c-1.9-3.5-2.9-7.5-2.9-11.6c0-13.5,11-24.5,24.6-24.5c13.5,0,24.6,11,24.6,24.5c0,1.1-0.1,2.2-0.2,3.2c-0.6,5.1-2.9,9.9-6.5,13.8     c-0.1,0.2-0.3,0.3-0.5,0.4c-0.5,0.5-1,0.9-1.3,1.3c-0.6,0.5-1.2,1-1.9,1.5c-0.6,0.5-1.3,0.9-2.1,1.3c-0.7,0.4-1.5,0.8-2.3,1.1     C223.9,104.7,220.6,105.3,217.2,105.3z M215.5,97.2c0.6,0.1,1.2,0.1,1.7,0.1c2.3,0,4.5-0.5,6.6-1.4c0.1,0,0.2-0.1,0.3-0.1     c0.4-0.1,0.7-0.3,1-0.5c0.1-0.1,0.3-0.2,0.4-0.2c0.4-0.2,0.8-0.4,1.1-0.7c0.1-0.1,0.1-0.1,0.2-0.2c0.4-0.3,0.8-0.6,1.2-0.9     c0,0,0.1-0.1,0.1-0.1c0.3-0.3,0.5-0.4,0.6-0.6c0.1-0.1,0.1-0.1,0.2-0.2l0.3-0.3c0.1-0.1,0.2-0.2,0.4-0.3c2.3-2.5,3.7-5.6,4.1-9     c0.1-0.7,0.1-1.4,0.1-2.2c0-9.1-7.4-16.5-16.6-16.5c-9.2,0-16.6,7.4-16.6,16.5c0,2.8,0.7,5.5,1.9,7.8c2.4,4.5,6.8,7.7,11.8,8.6     C214.7,97.1,215.1,97.2,215.5,97.2z"></path></g><g><path d="M346.5,121.8c-0.9,0-1.7-0.1-2.5-0.1c0,0-0.1,0-0.1,0c-1.4-0.2-2.5-0.4-3.6-0.7c-0.5-0.1-1-0.2-1.3-0.3     c-0.1,0-0.2-0.1-0.2-0.1c-0.1,0-0.2-0.1-0.3-0.1c-0.5-0.2-1-0.4-1.4-0.6c-0.7-0.3-1.4-0.6-1.9-0.9c-0.2-0.1-0.4-0.2-0.5-0.3     l-0.3-0.2c-0.5-0.3-1-0.6-1.6-1c-6.7-4.6-10.8-12.1-10.8-20.3c0-1.1,0.1-2.2,0.2-3.2c1.5-12.2,12-21.4,24.3-21.4     c13.5,0,24.6,11,24.6,24.6c0,5.7-2,11.2-5.5,15.5c-3,3.7-7.2,6.5-11.7,7.9c0,0-0.1,0-0.1,0c-0.7,0.2-1.5,0.4-2.4,0.6     c-0.6,0.1-1.4,0.3-2.4,0.4C348.2,121.7,347.4,121.8,346.5,121.8z M344.8,113.7c1.2,0.1,2.3,0.1,3.5,0c0.5,0,1-0.1,1.7-0.3     c0.5-0.1,1-0.2,1.6-0.4c3-1,5.8-2.8,7.8-5.3c2.4-2.9,3.7-6.6,3.7-10.4c0-9.2-7.4-16.6-16.6-16.6c-8.3,0-15.4,6.2-16.4,14.5     c-0.1,0.7-0.1,1.4-0.1,2.1c0,5.5,2.7,10.6,7.3,13.7c0.1,0,0.1,0.1,0.2,0.1c0.2,0.2,0.5,0.3,0.9,0.6c0.1,0.1,0.2,0.1,0.3,0.2     c0.5,0.3,0.9,0.5,1.2,0.6c0.1,0,0.1,0,0.2,0.1c0.3,0.1,0.7,0.3,1.1,0.4c0.1,0,0.2,0.1,0.4,0.1c0.1,0,0.2,0.1,0.3,0.1     c0.2,0,0.3,0.1,0.5,0.1C343,113.4,343.8,113.5,344.8,113.7z"></path></g><g><path d="M423,184.4c-5.8,0-11.4-2.1-15.9-5.8c-5.5-4.8-8.7-11.6-8.7-18.8c0-5.7,2-11.2,5.6-15.5c4.6-5.7,11.6-9,18.9-9     c13.6,0,24.6,11,24.6,24.5c0,8.3-4.1,15.9-11,20.5C432.7,182.9,428,184.4,423,184.4z M423,143.3c-5,0-9.6,2.2-12.8,6     c-2.5,3-3.8,6.6-3.8,10.5c0,4.9,2.1,9.5,5.8,12.7c3,2.5,6.8,3.9,10.7,3.9c3.3,0,6.5-1,9.2-2.8c4.7-3.1,7.5-8.3,7.5-13.8     C439.6,150.7,432.2,143.3,423,143.3z"></path></g><g><path d="M475,262.6c-2.9,0-5.8-0.5-8.7-1.6c-9.6-3.6-16-12.9-16-23.1c0-1.7,0.2-3.4,0.6-5.3c1.4-6.2,5.1-11.6,10.4-15.2     c4-2.7,8.7-4.1,13.6-4.1c13.5,0,24.5,11,24.5,24.6C499.5,251.6,488.5,262.6,475,262.6z M475,221.4c-3.3,0-6.5,1-9.2,2.8     c-3.6,2.4-6.1,6.1-7,10.2c-0.3,1.2-0.4,2.5-0.4,3.6c0,7,4.2,13.1,10.8,15.6c1.9,0.7,3.9,1.1,5.9,1.1c9.1,0,16.5-7.5,16.5-16.6     C491.5,228.9,484.1,221.4,475,221.4z"></path></g><g><path d="M446.1,339.1c-10.9,0-20.6-7.3-23.6-17.8c-0.6-2.4-0.9-4.6-0.9-6.7c0-1.8,0.2-3.4,0.5-5c0.2-0.9,0.4-1.8,0.7-2.6     c0-0.1,0.1-0.2,0.1-0.3l0.1-0.3c0.1-0.4,0.3-0.9,0.6-1.4c0.6-1.4,1.4-2.9,2.2-4.2c0.3-0.5,0.7-0.9,1-1.3c0.1-0.1,0.2-0.3,0.3-0.4     c0.1-0.1,0.1-0.1,0.2-0.2c0.4-0.5,0.9-1.1,1.5-1.6l0.1-0.1c0.4-0.4,0.8-0.7,1.2-1.1c0.5-0.5,1.1-0.9,1.8-1.4     c4.2-3,9.1-4.6,14.3-4.6c3,0,6,0.6,8.7,1.7c9.4,3.5,15.8,12.8,15.8,23C470.7,328.1,459.6,339.1,446.1,339.1z M430.4,309.4     c-0.2,0.6-0.3,1.3-0.5,2c-0.2,1-0.3,2-0.3,3.3c0,1.5,0.2,3,0.6,4.6c2,7,8.6,11.9,15.9,11.9c9.1,0,16.6-7.4,16.6-16.6     c0-6.9-4.3-13.1-10.7-15.5c-1.9-0.8-3.9-1.1-5.9-1.1c-3.5,0-6.9,1.1-9.7,3.1c0,0-0.1,0.1-0.1,0.1c-0.3,0.2-0.7,0.5-1.1,0.9     c-0.3,0.3-0.5,0.5-0.8,0.7l-0.1,0.1c-0.4,0.4-0.7,0.7-1,1.1c-0.1,0.1-0.2,0.3-0.3,0.4c-0.2,0.2-0.4,0.5-0.5,0.7     c-0.6,1-1.2,1.9-1.6,2.9c0,0.1-0.1,0.2-0.1,0.3c-0.1,0.2-0.2,0.5-0.3,0.7L430.4,309.4z"></path></g><g><path d="M363,363.1c-7.8,0-14.9-3.5-19.5-9.7c-3.3-4.2-5.1-9.4-5.1-14.9c0-7.5,3.4-14.5,9.3-19.2c4.3-3.4,9.8-5.3,15.3-5.3     c10.9,0,20.7,7.3,23.7,17.8c0.6,2.4,0.9,4.6,0.9,6.8C387.6,352,376.5,363.1,363,363.1z M363,321.9c-3.8,0-7.4,1.2-10.3,3.6     c-4,3.2-6.3,7.9-6.3,13c0,3.7,1.2,7.1,3.4,10c0,0,0,0.1,0.1,0.1c3.1,4.2,7.9,6.6,13.2,6.6c9.2,0,16.6-7.5,16.6-16.6     c0-1.5-0.2-3-0.6-4.6C376.9,326.8,370.3,321.9,363,321.9z"></path></g><g><path d="M304.5,407.5c-13.6,0-24.6-11-24.6-24.6c0-0.9,0.1-1.7,0.1-2.4c1.2-12.7,11.8-22.2,24.5-22.2c2.2,0,4.4,0.3,6.5,0.9     c5.2,1.4,9.8,4.5,13,8.8c3.3,4.2,5,9.4,5,14.8C329,396.5,318,407.5,304.5,407.5z M304.5,366.4c-8.6,0-15.7,6.4-16.5,14.9     c-0.1,0.6-0.1,1.1-0.1,1.6c0,9.1,7.5,16.6,16.6,16.6c9.1,0,16.5-7.4,16.5-16.6c0-3.7-1.2-7.1-3.4-10c-2.2-2.9-5.3-5-8.8-6     C307.5,366.6,306,366.4,304.5,366.4z"></path></g><g><path d="M236.2,400.9c-7.8,0-15-3.6-19.6-9.8c-3.2-4.3-4.9-9.4-4.9-14.7c0-10.5,6.6-19.8,16.4-23.3c0,0,0,0,0,0     c0.1-0.1,0.3-0.1,0.4-0.1l0.2-0.1c0.3-0.1,0.8-0.3,1.4-0.4c1.1-0.3,2.3-0.5,3.6-0.7c0.8-0.1,1.6-0.1,2.5-0.1c2,0,3.9,0.2,5.7,0.6     c0.1,0,0.2,0,0.2,0.1c0.2,0,0.3,0.1,0.5,0.1c0.4,0.1,1,0.3,1.5,0.5c0.9,0.3,2,0.7,3,1.2c0.5,0.2,1,0.5,1.6,0.9     c0.7,0.4,1.5,0.9,2.2,1.5c1.3,0.9,2.4,1.9,3.3,3c0.1,0.1,0.3,0.3,0.4,0.4c3.9,4.5,6.1,10.3,6.1,16.3c0,0.7,0,1.5-0.2,2.5     C259.3,391.4,248.9,400.9,236.2,400.9z M230.5,360.7c-6.6,2.4-10.9,8.6-10.9,15.7c0,3.6,1.2,7,3.3,9.9c3.1,4.2,7.9,6.6,13.2,6.6     c8.6,0,15.7-6.4,16.5-14.9c0-0.1,0-0.2,0-0.4c0.1-0.3,0.1-0.7,0.1-1.2c0-3.9-1.3-7.6-3.8-10.6c-0.2-0.1-0.3-0.3-0.4-0.4     c-0.6-0.8-1.4-1.5-2.4-2.2c-0.1-0.1-0.2-0.1-0.3-0.2c-0.2-0.2-0.5-0.4-1.1-0.7c-0.1-0.1-0.3-0.2-0.4-0.2     c-0.2-0.1-0.6-0.3-0.9-0.5c0,0-0.1,0-0.1-0.1c-0.5-0.3-1.1-0.5-1.9-0.7c-0.1,0-0.2-0.1-0.2-0.1c-0.2-0.1-0.5-0.1-0.8-0.2     c-0.2-0.1-0.4-0.1-0.6-0.2c-1.2-0.3-2.4-0.4-3.7-0.4c-0.6,0-1.2,0.1-1.7,0.1c-0.9,0.1-1.8,0.3-2.4,0.5c-0.2,0.1-0.4,0.1-0.6,0.1     c-0.1,0-0.2,0.1-0.2,0.1c-0.1,0-0.3,0.1-0.4,0.1C230.7,360.7,230.6,360.7,230.5,360.7z"></path></g><g><path d="M162.9,456.1c-13.6,0-24.6-11-24.6-24.6c0-12.1,8.7-22.3,20.7-24.2c1.5-0.3,2.9-0.4,3.9-0.4c7.8,0,15,3.6,19.6,9.8     c3.2,4.2,4.9,9.5,4.9,14.8C187.4,445.1,176.4,456.1,162.9,456.1z M162.9,415c-0.6,0-1.5,0-2.3,0.2c-0.1,0-0.2,0-0.3,0.1     c-8,1.2-14,8.2-14,16.3c0,9.1,7.5,16.6,16.6,16.6c9.1,0,16.6-7.4,16.6-16.6c0-3.6-1.2-7.1-3.3-10C173,417.4,168.1,415,162.9,415z     "></path></g><g><path d="M152.2,386.9c-13.6,0-24.6-11-24.6-24.6c0-5.8,2-11.2,5.7-15.7c4.6-5.6,11.5-8.8,18.9-8.8c5.8,0,11.3,2,15.8,5.7     c5.6,4.8,8.8,11.6,8.8,18.8c0,12.1-9,22.5-20.8,24.3C154.8,386.9,153.6,386.9,152.2,386.9z M152.2,345.8c-5,0-9.6,2.2-12.7,5.9     c-2.5,3.1-3.9,6.7-3.9,10.6c0,9.2,7.5,16.6,16.6,16.6c1,0,1.7-0.1,2.4-0.2c8.1-1.2,14.1-8.3,14.1-16.4c0-4.9-2.2-9.5-5.9-12.7     C159.8,347.1,156.1,345.8,152.2,345.8z"></path></g><g><path d="M69.9,354.8c-13.6,0-24.6-11-24.6-24.6c0-10.2,6.4-19.4,15.9-23c2.8-1,5.7-1.6,8.7-1.6c4.8,0,9.4,1.4,13.3,4     c7,4.5,11.2,12.2,11.2,20.6c0,1.4-0.1,2.5-0.3,3.6C92.4,345.8,82,354.8,69.9,354.8z M69.9,313.7c-2,0-4,0.4-5.9,1.1     c-6.4,2.4-10.8,8.7-10.8,15.5c0,9.1,7.5,16.6,16.6,16.6c8.2,0,15.2-6.1,16.3-14.2c0-0.1,0-0.2,0-0.2c0.1-0.4,0.2-1,0.2-2.1     c0-5.6-2.8-10.8-7.6-13.9C76.2,314.6,73.1,313.7,69.9,313.7z"></path></g><g><path d="M118.4,279.9c-4.9,0-9.5-1.4-13.4-4.1c-6.9-4.5-11.1-12.2-11.1-20.6c0-11.5,8.1-21.6,19.3-24c1.8-0.4,3.6-0.6,5.2-0.6     c6.9,0,13.3,2.8,18,7.8c4.3,4.7,6.6,10.6,6.6,16.8c0,3.5-0.7,6.9-2.2,10.1C136.9,274.2,128.1,279.9,118.4,279.9z M118.4,238.7     c-1.1,0-2.3,0.1-3.6,0.4c-7.5,1.6-13,8.4-13,16.2c0,5.6,2.8,10.8,7.6,13.9c2.6,1.8,5.7,2.7,9,2.7c6.5,0,12.5-3.9,15.2-9.8     c1-2.1,1.5-4.4,1.5-6.8c0-4.2-1.5-8.1-4.5-11.3C127.4,240.6,123,238.7,118.4,238.7z"></path></g><g><path d="M199.9,204.2c-6.8,0-13.4-2.9-18-7.9c-4.2-4.5-6.6-10.5-6.6-16.7c0-2.4,0.4-4.9,1.1-7.4c3.3-10.3,12.7-17.2,23.4-17.2     c1.4,0,2.9,0.1,4.2,0.4c0.9,0.1,1.8,0.3,2.5,0.6c0.5,0.1,0.9,0.2,1.1,0.3c0.9,0.3,1.8,0.6,2.8,1.1c0.8,0.4,1.6,0.8,2.5,1.4     c0.1,0,0.2,0.1,0.3,0.2c0.7,0.4,1.4,1,2.2,1.7c0.4,0.3,0.7,0.6,0.9,0.8c0.5,0.4,1.1,1,1.7,1.7c1.4,1.5,2.6,3.2,3.5,5     c0.3,0.5,0.5,1,0.7,1.6c0.3,0.7,0.6,1.4,0.9,2.3c0.8,2.4,1.2,5,1.2,7.6c0,4.9-1.5,9.7-4.2,13.8     C215.7,200.1,208.1,204.2,199.9,204.2z M199.9,162.9c-7.2,0-13.6,4.7-15.8,11.6c-0.5,1.7-0.8,3.4-0.8,5c0,4.2,1.6,8.2,4.5,11.3     c3.2,3.5,7.4,5.3,12.1,5.3c5.5,0,10.6-2.7,13.8-7.3c1.8-2.7,2.8-6,2.8-9.3c0-1.8-0.3-3.5-0.8-5.2c-0.2-0.7-0.4-1-0.4-1.1     c-0.1-0.2-0.2-0.4-0.2-0.5c-0.1-0.3-0.2-0.5-0.3-0.7c0-0.1-0.1-0.1-0.1-0.2c-0.6-1.2-1.4-2.3-2.3-3.3c-0.1-0.1-0.2-0.2-0.3-0.3     c-0.2-0.2-0.5-0.5-0.8-0.8c-0.1-0.1-0.2-0.1-0.2-0.2c-0.1-0.1-0.2-0.2-0.3-0.3c-0.1-0.1-0.1-0.1-0.2-0.2     c-0.4-0.3-0.7-0.6-0.9-0.7c-0.2-0.1-0.4-0.2-0.5-0.3c-0.7-0.5-1.2-0.8-1.7-1c-0.1,0-0.2-0.1-0.3-0.2c-0.5-0.2-1-0.5-1.6-0.7     c-0.3,0-0.5-0.1-0.8-0.2c-0.4-0.2-0.9-0.3-1.6-0.4c-0.1,0-0.2,0-0.3,0C201.8,163,200.8,162.9,199.9,162.9z"></path></g><g><path d="M208.1,320.2c-5.8,0-11.3-2-15.8-5.7c-5.6-4.7-8.8-11.5-8.8-18.8c0-3.4,0.7-6.8,2.1-10c3.9-8.8,12.7-14.5,22.4-14.5     c6.7,0,13.1,2.8,17.8,7.6c0.5,0.5,0.9,0.9,1.2,1.3l0.3,0.3c0,0.1,0.1,0.1,0.1,0.2c1.8,2.4,3.2,4.9,4.1,7.7     c0.2,0.5,0.3,0.9,0.4,1.3c0,0.1,0,0.2,0.1,0.2c0,0.1,0,0.2,0.1,0.3c0.1,0.3,0.2,0.6,0.2,1.1c0.3,1.4,0.5,2.9,0.5,4.6     c0,0.9-0.1,1.7-0.1,2.5c-0.1,0.8-0.1,1.5-0.4,2.4c-0.2,0.8-0.4,1.7-0.6,2.5l0,0c-0.2,0.6-0.4,1.3-0.7,2c0,0,0,0.1-0.1,0.1     c-0.8,1.8-1.7,3.4-2.8,4.9c-0.7,1.1-1.5,2-2.2,2.6c-0.8,0.8-1.6,1.5-2.2,2c-0.5,0.5-1.1,0.9-1.6,1.2c-1.4,1-3,1.9-4.6,2.4     C214.4,319.6,211.3,320.2,208.1,320.2z M208.1,279.1c-6.5,0-12.5,3.8-15.1,9.8c-1,2.2-1.5,4.5-1.5,6.8c0,4.9,2.2,9.5,5.9,12.7     c3,2.5,6.7,3.9,10.7,3.9c2.1,0,4.3-0.4,6.2-1.2c0.1,0,0.2-0.1,0.2-0.1c1-0.3,1.9-0.9,2.8-1.5c0.1-0.1,0.3-0.2,0.4-0.3     c0.2-0.1,0.4-0.3,0.6-0.4c0,0,0.1-0.1,0.1-0.1c0.5-0.4,1.1-0.9,1.5-1.3c0,0,0.1-0.1,0.1-0.1c0.4-0.4,0.9-0.9,1.2-1.4     c0.1-0.1,0.1-0.2,0.2-0.3c0.8-1,1.4-2,1.9-3.3c0.1-0.4,0.3-0.8,0.4-1.3l0-0.1c0.2-0.6,0.3-1.2,0.4-1.7c0-0.2,0.1-0.3,0.1-0.5     c0.1-0.2,0.1-0.6,0.1-1.1c0.1-0.6,0.1-1.2,0.1-1.8c0-1.2-0.1-2.2-0.3-3c0-0.2-0.1-0.3-0.1-0.5c0-0.1-0.1-0.2-0.1-0.3     c0-0.2-0.1-0.3-0.1-0.5c0-0.1,0-0.2-0.1-0.3c-0.1-0.1-0.1-0.2-0.1-0.4c-0.5-1.8-1.5-3.6-2.7-5.2c-0.1-0.1-0.2-0.2-0.3-0.3     c-0.2-0.2-0.4-0.5-0.5-0.6c-0.1-0.1-0.2-0.2-0.3-0.3C217.1,281,212.7,279.1,208.1,279.1z"></path></g><g><path d="M328.4,319.4c-2.2,0-4.4-0.3-6.5-0.9c-4.7-1.3-8.8-3.9-12-7.5c-1.1-1.3-2.2-2.9-3.2-4.5c-0.3-0.6-0.6-1.2-0.9-1.8     c-0.4-0.8-0.7-1.7-1-2.7c-0.2-0.7-0.4-1.3-0.5-1.9c-0.1-0.2-0.1-0.4-0.1-0.5c0-0.1,0-0.1,0-0.2c-0.3-1.4-0.4-3-0.4-4.6     c0-0.8,0.1-1.6,0.1-2.3c0-0.6,0.1-1.3,0.3-1.8c0.2-1.5,0.7-3,1.2-4.5c0.2-0.4,0.4-1,0.7-1.6c0.2-0.6,0.5-1.1,0.9-1.7     c0.3-0.6,0.6-1.1,1-1.6c0.7-1,1.4-2,2.2-2.8c0,0,0.1-0.1,0.1-0.1c0.1-0.1,0.1-0.2,0.2-0.2c0.2-0.2,0.3-0.4,0.5-0.5     c0,0,0.1-0.1,0.1-0.1c0.6-0.6,1.2-1.2,1.9-1.8c4.3-3.5,9.9-5.5,15.5-5.5c4.4,0,8.8,1.2,12.5,3.4c0.7,0.4,1.5,0.9,2.2,1.5     c1.1,0.8,2.1,1.7,2.9,2.5c0.5,0.5,0.9,0.9,1.2,1.4c0.2,0.2,0.3,0.4,0.4,0.5c0.1,0.1,0.1,0.1,0.1,0.2c0,0.1,0.1,0.1,0.1,0.2     c1.4,1.8,2.6,3.9,3.4,6.2c0.3,0.6,0.5,1.2,0.6,1.8l0.1,0.3c0.1,0.2,0.1,0.5,0.1,0.7c0.2,0.5,0.3,1.1,0.4,1.8     c0.1,0.3,0.1,0.7,0.2,1.1c0.1,1,0.2,2,0.2,3c0,0.9-0.1,1.7-0.1,2.5c-0.6,6.6-3.9,12.7-9.1,16.8     C339.3,317.5,333.9,319.4,328.4,319.4z M312.1,298.2c0,0.1,0,0.1,0,0.2c0.1,0.4,0.2,0.8,0.3,1.2c0,0.1,0.1,0.2,0.1,0.3     c0.1,0.4,0.3,1,0.6,1.6c0.2,0.4,0.3,0.7,0.6,1.2c0.6,1.2,1.4,2.2,2.1,3.1c2.2,2.5,5,4.2,8.1,5.1c1.4,0.4,2.9,0.6,4.4,0.6     c3.7,0,7.3-1.3,10.3-3.6c3.5-2.8,5.7-6.8,6.1-11.3c0-0.5,0.1-1.2,0.1-1.7c0-0.7,0-1.4-0.1-2.1c0-0.1,0-0.2,0-0.3l0,0     c0-0.2-0.1-0.4-0.1-0.6c0-0.3-0.1-0.6-0.3-1.1c-0.1-0.2-0.1-0.4-0.1-0.6c-0.1-0.3-0.2-0.7-0.3-0.9c0-0.1-0.1-0.2-0.1-0.2     c-0.5-1.5-1.3-2.8-2.2-4c-0.2-0.2-0.5-0.5-0.6-0.8c-0.3-0.3-0.5-0.6-0.8-0.9c0,0-0.1-0.1-0.1-0.1c-0.5-0.5-1.1-1-1.8-1.6     c0,0-0.1,0-0.1-0.1c-0.5-0.4-0.9-0.6-1.3-0.9c-0.1,0-0.1-0.1-0.2-0.1c-2.5-1.5-5.4-2.3-8.4-2.3c-3.8,0-7.6,1.3-10.5,3.7     c-0.4,0.3-0.8,0.7-1.2,1.1l-0.1,0.1c-0.1,0.1-0.1,0.1-0.2,0.2c-0.2,0.2-0.3,0.3-0.5,0.5c-0.5,0.5-0.9,1.1-1.3,1.8     c0,0.1-0.1,0.1-0.1,0.2c-0.1,0.2-0.3,0.4-0.5,0.8c-0.1,0.1-0.1,0.2-0.2,0.3c-0.2,0.3-0.3,0.5-0.4,0.7c-0.1,0.2-0.2,0.4-0.3,0.6     c-0.1,0.1-0.2,0.5-0.3,0.8c0,0,0,0.1,0,0.1c-0.4,0.9-0.6,1.9-0.8,2.9c0,0.2-0.1,0.4-0.1,0.6c0,0.1,0,0.3,0,0.4     c-0.1,0.6-0.1,1.2-0.1,1.7c0,1,0.1,2,0.3,2.9C312.1,297.9,312.1,298,312.1,298.2z"></path></g><g><path d="M276.5,256c-1.8,0-3.4-0.2-4.9-0.5c-0.8-0.1-1.5-0.3-2.1-0.5c0,0-0.2-0.1-0.2-0.1c-2.2-0.7-4.3-1.7-6.4-3.1     c-0.7-0.4-1.3-0.9-1.9-1.4c-0.1,0-0.1-0.1-0.1-0.1c-0.5-0.4-1.1-0.9-1.7-1.5c-0.1-0.1-0.3-0.3-0.4-0.4c0,0-0.1-0.1-0.1-0.1     c-4.4-4.6-6.8-10.6-6.8-16.9c0-4.8,1.4-9.4,4-13.4c0.1-0.2,0.2-0.3,0.3-0.5c4.6-6.7,12.2-10.7,20.4-10.7c1.1,0,2.5,0,4,0.4     c11.9,1.9,20.6,12,20.6,24.2c0,7.4-3.3,14.3-9,19c0,0-0.1,0.1-0.1,0.1c-1.2,0.9-2.4,1.7-3.7,2.4c-0.6,0.4-1.4,0.8-2.3,1.1l0,0     c-0.5,0.2-1.1,0.5-1.8,0.7c-0.3,0.1-0.6,0.2-0.9,0.3c-0.2,0-0.4,0.1-0.6,0.1c-0.4,0.1-0.9,0.2-1.3,0.3c-0.7,0.1-1.5,0.3-2.4,0.4     C278.2,255.9,277.4,256,276.5,256z M271.5,247.3c0.6,0.2,1.1,0.3,1.6,0.4c0.1,0,0.1,0,0.2,0c0.9,0.2,2,0.3,3.3,0.3     c0.6,0,1.2-0.1,1.7-0.1c0.6-0.1,1.1-0.1,1.7-0.3c0.3-0.1,0.6-0.1,0.8-0.2c0.1,0,0.3-0.1,0.4-0.1c0.2-0.1,0.5-0.2,0.7-0.2     c0.3-0.1,0.6-0.2,0.9-0.4l0.1-0.1c0.1,0,0.1-0.1,0.2-0.1c0.5-0.2,0.9-0.4,1.2-0.6c0.9-0.5,1.8-1.1,2.7-1.8c3.8-3.2,6-7.9,6-12.8     c0-8.2-5.9-15.1-13.9-16.3c-0.1,0-0.2,0-0.3-0.1c-0.6-0.1-1.4-0.2-2.4-0.2c-5.4,0-10.4,2.6-13.5,6.9c-0.1,0.1-0.1,0.2-0.2,0.4     c-1.9,2.8-2.9,6-2.9,9.3c0,4.3,1.6,8.3,4.5,11.4c0.1,0.1,0.2,0.2,0.3,0.3c0.4,0.4,0.8,0.8,1.2,1.1c0.4,0.3,0.9,0.7,1.3,1     C268.6,246.1,270,246.8,271.5,247.3z"></path></g><g><path d="M289.7,174.5c-1.2,0-2.5-0.1-4-0.4c-9-1.4-16.4-7.7-19.4-16.4c0,0,0-0.1,0-0.1c-0.3-0.9-0.6-1.9-0.7-2.9     c-0.2-0.8-0.2-1.6-0.3-2.2c0,0,0-0.1,0-0.1l0-0.2c-0.1-0.7-0.1-1.4-0.1-2.2c0-2.6,0.4-5,1.1-7.2l0.4-1.1c0.6-1.8,1.5-3.6,2.7-5.4     c0,0,0.1-0.1,0.1-0.1c0.3-0.5,0.7-0.9,1.1-1.4c0.5-0.6,1-1.2,1.5-1.8c4.6-4.8,11-7.6,17.7-7.6c7.4,0,14.3,3.3,18.9,8.9     c0.5,0.5,0.8,1,1.2,1.6c0.4,0.5,0.7,1.1,1,1.5c0.7,1.2,1.4,2.6,1.9,4.1c0.2,0.6,0.4,1.2,0.6,1.7c0,0.1,0,0.1,0.1,0.2     c0.1,0.5,0.3,1.1,0.4,1.8c0.1,0.7,0.3,1.5,0.3,2.3c0.1,0.8,0.1,1.6,0.1,2.4c0,0.8-0.1,1.5-0.1,2.2l0,0.2c0,0.1,0,0.1,0,0.2l0,0.2     c-0.1,0.4-0.1,1-0.2,1.5c-0.1,0.5-0.2,1.2-0.4,1.9c-0.1,0.6-0.3,1.3-0.6,1.8c-0.8,2.4-2.1,4.7-3.7,6.9     C304.4,171,297.3,174.5,289.7,174.5z M273.9,155.2c2,5.9,7,10.1,13,11c1.1,0.2,1.9,0.3,2.7,0.3c5.2,0,9.9-2.4,13.1-6.5     c1.1-1.5,1.9-3,2.5-4.6c0,0,0-0.1,0-0.1c0.1-0.3,0.2-0.7,0.3-1.1c0-0.2,0.1-0.4,0.2-0.6c0-0.1,0-0.3,0.1-0.5     c0-0.2,0.1-0.3,0.1-0.5c0-0.2,0.1-0.5,0.1-0.8l0-0.2c0-0.6,0.1-1.1,0.1-1.6c0-0.5,0-1.1-0.1-1.8c0-0.5-0.1-1.1-0.3-1.7     c0-0.1,0-0.2,0-0.2c0-0.1-0.1-0.4-0.1-0.6c-0.2-0.5-0.3-1-0.5-1.6c-0.3-0.9-0.7-1.8-1.2-2.6c0,0,0-0.1-0.1-0.1     c-0.1-0.2-0.3-0.5-0.4-0.6c-0.1-0.1-0.2-0.3-0.3-0.5c-0.2-0.4-0.4-0.6-0.6-0.9c0,0-0.1-0.1-0.1-0.1c-3.1-3.8-7.8-6-12.8-6     c-4.5,0-8.8,1.9-12,5.1c-0.4,0.4-0.7,0.8-1,1.1c-0.1,0.1-0.1,0.1-0.2,0.2c-0.2,0.3-0.4,0.6-0.7,0.9c-0.7,1.1-1.3,2.3-1.7,3.5     l-0.3,1c-0.5,1.5-0.7,3.1-0.7,4.8c0,0.5,0,1,0.1,1.6l0,0.2c0.1,0.5,0.1,1,0.2,1.3C273.5,153.7,273.7,154.5,273.9,155.2z"></path></g><g><path d="M375.3,240.4c-1,0-1.9-0.1-2.9-0.2c-0.5,0-1-0.1-1.3-0.2c-0.7-0.1-1.5-0.3-2.4-0.5c-1-0.2-1.9-0.6-2.7-0.9     c-0.2-0.1-0.4-0.2-0.6-0.3c-0.8-0.3-1.5-0.7-2.2-1.1c-0.1-0.1-0.3-0.1-0.4-0.2c-7.5-4.5-12-12.4-12-21.2c0-5.5,1.8-10.6,5.1-14.9     c2.7-3.5,6.3-6.2,10.4-7.8c1.1-0.5,2.4-0.8,3.8-1.2c1.9-0.4,3.6-0.6,5.3-0.6c6,0,11.5,2,16,5.9c5.5,4.6,8.7,11.4,8.7,18.6     c0,1.9-0.2,3.7-0.6,5.4c-1.3,5.8-4.7,11-9.6,14.6c0,0-0.1,0-0.1,0.1l-0.5,0.3c-0.4,0.3-0.9,0.6-1.2,0.8l-0.2,0.1     c-0.1,0-0.1,0.1-0.2,0.1c-0.1,0.1-0.2,0.1-0.3,0.2c-1.4,0.8-2.7,1.3-4.1,1.8c-0.2,0.1-0.4,0.2-0.7,0.2c-0.1,0-0.3,0.1-0.4,0.1     c-0.4,0.1-0.8,0.2-1.1,0.3c-0.1,0-0.2,0-0.3,0.1c-0.1,0-0.2,0-0.3,0.1c-0.7,0.1-1.6,0.3-2.4,0.3l-0.3,0     C376.8,240.3,376.1,240.4,375.3,240.4z M372.9,232.2c0.1,0,0.2,0,0.4,0c1.2,0.2,2.2,0.2,3.5,0.1l0.3,0c0.4,0,1-0.1,1.5-0.2     c0.2,0,0.3-0.1,0.5-0.1c0.1,0,0.2,0,0.4-0.1c0.2-0.1,0.4-0.1,0.6-0.2l0,0c0.1,0,0.1,0,0.2-0.1c0.1,0,0.2-0.1,0.3-0.1     c0.8-0.2,1.7-0.6,2.6-1.1c0.2-0.2,0.5-0.3,0.6-0.4l0.3-0.1c0.1-0.1,0.2-0.1,0.3-0.2c0.1-0.1,0.1-0.1,0.1-0.1l0.5-0.3     c3.3-2.5,5.6-5.9,6.5-9.8c0,0,0-0.1,0-0.1c0.3-1.1,0.4-2.3,0.4-3.5c0-4.8-2.1-9.4-5.8-12.5c-3-2.6-6.7-4-10.8-4     c-1.1,0-2.3,0.1-3.6,0.4c-0.9,0.2-1.8,0.5-2.5,0.7c-2.8,1.1-5.3,3-7.1,5.3c-2.2,2.9-3.4,6.4-3.4,10.1c0,5.8,2.9,11,7.8,14.1     c0.2,0.1,0.4,0.2,0.7,0.4c0.4,0.3,0.9,0.5,1.4,0.7c0.1,0,0.2,0.1,0.4,0.2c0.6,0.3,1.1,0.5,1.6,0.6c0.2,0,0.3,0.1,0.5,0.1     c0.4,0.1,0.8,0.2,1.5,0.3c0.1,0,0.1,0,0.2,0L372.9,232.2z"></path></g></g></g></svg>