<svg height='100px' width='100px'  fill="#000000" xmlns="http://www.w3.org/2000/svg" xmlns:xlink="http://www.w3.org/1999/xlink" version="1.2" baseProfile="tiny" x="0px" y="0px" viewBox="0 0 100 100" xml:space="preserve"><path d="M50,95c24.813,0,45-20.187,45-45c0-9.594-3.028-18.489-8.164-25.801l7.432-7.432c0.977-0.976,0.977-2.559,0-3.535l-7.5-7.5  c-0.976-0.977-2.56-0.977-3.535,0l-7.432,7.432C68.489,8.028,59.594,5,50,5C25.187,5,5,25.187,5,50S25.187,95,50,95z M21.066,77.576  c2.797-0.517,5.638-0.952,8.515-1.314c1.73,4.396,3.887,8.191,6.379,11.188C30.266,85.308,25.19,81.901,21.066,77.576z M89.914,52.5  c-0.477,7.686-3.134,14.786-7.359,20.698c-3.433-0.7-6.926-1.295-10.478-1.766c1.667-5.657,2.685-12.067,2.884-18.932H89.914z   M66.966,70.84c-4.743-0.474-9.574-0.739-14.466-0.809V52.5h17.455C69.738,59.143,68.669,65.404,66.966,70.84z M47.5,70.031  c-4.892,0.069-9.723,0.334-14.466,0.809c-1.702-5.436-2.772-11.697-2.988-18.34H47.5V70.031z M47.5,75.031V89.66  c-5.008-1.315-9.502-6.5-12.682-13.961C38.983,75.317,43.215,75.094,47.5,75.031z M52.5,89.66V75.031  c4.285,0.063,8.517,0.286,12.682,0.668C62.002,83.161,57.508,88.346,52.5,89.66z M47.5,10.34v14.629  c-4.285-0.063-8.517-0.286-12.682-0.668C37.998,16.839,42.492,11.654,47.5,10.34z M47.5,29.969V47.5H30.045  c0.217-6.643,1.286-12.904,2.988-18.34C37.777,29.634,42.608,29.899,47.5,29.969z M25.038,47.5H10.086  c0.477-7.686,3.134-14.786,7.359-20.698c3.433,0.7,6.926,1.295,10.478,1.766C26.255,34.225,25.238,40.635,25.038,47.5z M25.038,52.5  c0.2,6.865,1.217,13.275,2.884,18.932c-3.552,0.47-7.045,1.065-10.478,1.766c-4.224-5.912-6.882-13.012-7.359-20.698H25.038z   M64.04,87.45c2.492-2.997,4.649-6.792,6.379-11.188c2.876,0.362,5.717,0.797,8.515,1.314C74.81,81.901,69.734,85.308,64.04,87.45z   M73.232,34.268l3.232,3.232H62.5V23.536l3.232,3.232c0.976,0.977,2.56,0.977,3.535,0L85,11.036L88.964,15L73.232,30.732  C72.256,31.708,72.256,33.292,73.232,34.268z M67.5,21.464l-5.732-5.732c-0.715-0.715-1.792-0.929-2.724-0.542  c-0.935,0.387-1.543,1.298-1.543,2.31V40c0,1.381,1.119,2.5,2.5,2.5h22.5c1.011,0,1.923-0.609,2.31-1.543  c0.387-0.934,0.173-2.009-0.542-2.724L78.536,32.5l4.712-4.712c3.826,5.708,6.216,12.451,6.667,19.712H52.5V10.086  c7.261,0.45,14.004,2.841,19.712,6.667L67.5,21.464z M35.96,12.55c-2.492,2.997-4.649,6.792-6.379,11.188  c-2.876-0.362-5.717-0.797-8.514-1.314C25.19,18.099,30.266,14.692,35.96,12.55z"></path></svg>