<svg height='100px' width='100px'  fill="#000000" xmlns="http://www.w3.org/2000/svg" xmlns:xlink="http://www.w3.org/1999/xlink" version="1.1" x="0px" y="0px" viewBox="0 0 60 60" style="enable-background:new 0 0 60 60;" xml:space="preserve"><path d="M29.9980469,16.1969604c-7.6123047,0-13.8056641,6.1933594-13.8056641,13.8056641  s6.1933594,13.8056641,13.8056641,13.8056641s13.8056641-6.1933594,13.8056641-13.8056641  S37.6103516,16.1969604,29.9980469,16.1969604z M29.9980469,41.8082886c-2.6398315,0-5.0715942-0.8815308-7.039978-2.3510742  C24.6490479,37.295105,27.2156982,36.0192261,30,36.0192261c2.7835083,0,5.3496704,1.2750854,7.0405884,3.4360962  C35.0717773,40.9260254,32.6389771,41.8082886,29.9980469,41.8082886z M38.5423584,38.1262817  C36.4732056,35.5386963,33.3649292,34.0192261,30,34.0192261c-3.3659058,0-6.4749146,1.5205078-8.5440674,4.109436  c-2.0166016-2.1188965-3.2635498-4.9768677-3.2635498-8.1260376c0-6.5097656,5.2958984-11.8056641,11.8056641-11.8056641  s11.8056641,5.2958984,11.8056641,11.8056641C41.8037109,33.1506348,40.5576172,36.0076294,38.5423584,38.1262817z"></path><path d="M29.9980469,21.8805542c-2.8173828,0-5.109375,2.2919922-5.109375,5.109375s2.2919922,5.109375,5.109375,5.109375  s5.109375-2.2919922,5.109375-5.109375S32.8154297,21.8805542,29.9980469,21.8805542z M29.9980469,30.0993042  c-1.7143555,0-3.109375-1.3945313-3.109375-3.109375s1.3950195-3.109375,3.109375-3.109375s3.109375,1.3945313,3.109375,3.109375  S31.7124023,30.0993042,29.9980469,30.0993042z"></path><path d="M50.7319336,42.3903198c1.0058594-0.3847656,1.7988281-1.1347656,2.2265625-2.1015625  c0.3374023-0.7373047,0.612793-1.4746094,0.8144531-2.0341797c0.0029297-0.0078125,0.0053711-0.0146484,0.0078125-0.0214844  c0.7177734-2.1396484-0.4262695-4.4892578-2.6098633-5.3525391c-1.8608398-0.7216797-3.0170898-1.9824219-3.0170898-3.2880859  c0-1.2685547,1.1171875-2.5146484,2.9101563-3.25c2.1401367-0.8642578,3.1850586-3.3378906,2.3305664-5.5117188  c-0.2207031-0.5673828-0.480957-1.1542969-0.7924805-1.7900391c-0.9672852-2.0058594-3.3540039-2.90625-5.4326172-2.0429688  c-1.8066406,0.7568359-3.4262695,0.6669922-4.3344727-0.2421875c-0.8789063-0.8789063-0.9946289-2.4414063-0.3100586-4.1806641  c0.8325195-2.109375-0.1040039-4.4951172-2.1469727-5.4375c-0.6069336-0.2675781-1.1870117-0.5009766-1.7661133-0.7089844  c-2.1459961-0.7900391-4.5327148,0.2050781-5.4287109,2.2666016c-0.7509766,1.7167969-1.9418945,2.7412109-3.1850586,2.7412109  s-2.434082-1.0244141-3.184082-2.7382813c-0.8974609-2.0644531-3.2836914-3.0615234-5.4213867-2.2724609  c-0.5864258,0.2109375-1.1669922,0.4433594-1.7890625,0.71875c-2.0283203,0.9355469-2.9648438,3.3212891-2.1328125,5.4296875  c0.6850586,1.7402344,0.5693359,3.3027344-0.3095703,4.1816406c-0.9091797,0.9082031-2.5297852,0.9990234-4.3388672,0.2402344  c-2.0771484-0.859375-4.4609375,0.0410156-5.425293,2.0390625c-0.3173828,0.6474609-0.5776367,1.2353516-0.7939453,1.7929688  c-0.8564453,2.1767578,0.1884766,4.6503906,2.3242188,5.5117188c1.7978516,0.7382813,2.9150391,1.984375,2.9150391,3.2529297  c0,1.3056641-1.15625,2.5664063-3.0229492,3.2910156c-2.1777344,0.8603516-3.3217773,3.2099609-2.5961914,5.3710938  c0.2016602,0.5595703,0.4770508,1.296875,0.8095703,2.0234375c0.4326172,0.9775391,1.2255859,1.7275391,2.2314453,2.1123047  c1.0649414,0.4072266,2.2890625,0.3642578,3.3613281-0.1171875c1.8569336-0.8447266,3.59375-0.7851563,4.5356445,0.15625  c0.9541016,0.9541016,1.0024414,2.7236328,0.1279297,4.6132813c-0.5068359,1.0830078-0.5654297,2.2841797-0.1650391,3.3837891  c0.3857422,1.0605469,1.1650391,1.9072266,2.1899414,2.3837891c0.6259766,0.2939453,1.2246094,0.5488281,1.7822266,0.7597656  c0.487793,0.1826172,0.9936523,0.2734375,1.4970703,0.2734375c0.6025391,0,1.2026367-0.1298828,1.7646484-0.390625  c1.0610352-0.4902344,1.8681641-1.3798828,2.2719727-2.5009766c0.7177734-1.9765625,2.0083008-3.2041016,3.3681641-3.2041016  s2.6503906,1.2275391,3.3671875,3.2011719c0.4047852,1.1240234,1.2119141,2.0136719,2.2729492,2.5039063  c1.0317383,0.4775391,2.1904297,0.5205078,3.2641602,0.1162109c0.5551758-0.2099609,1.1538086-0.4648438,1.7758789-0.7568359  c1.0288086-0.4785156,1.8081055-1.3251953,2.1938477-2.3857422c0.4003906-1.0996094,0.3417969-2.3007813-0.1630859-3.3798828  c-0.8764648-1.8935547-0.828125-3.6630859,0.1259766-4.6171875c0.9418945-0.9404297,2.6791992-1.0019531,4.5395508-0.1542969  C48.4423828,42.7555542,49.6660156,42.7965698,50.7319336,42.3903198z M41.4208984,41.0153198  c-1.5634766,1.5634766-1.7651367,4.1962891-0.5253906,6.875c0.2797852,0.5976563,0.3144531,1.2558594,0.097168,1.8525391  c-0.2026367,0.5566406-0.6137695,1.0029297-1.1611328,1.2568359c-0.5786133,0.2714844-1.1289063,0.5068359-1.6337891,0.6972656  c-0.5668945,0.2148438-1.1777344,0.1914063-1.7197266-0.0585938c-0.5717773-0.2646484-1.0087891-0.75-1.2319336-1.3701172  c-1.0131836-2.7880859-3.0239258-4.5205078-5.2480469-4.5205078s-4.2348633,1.7324219-5.2490234,4.5234375  c-0.222168,0.6171875-0.6591797,1.1025391-1.230957,1.3671875c-0.5424805,0.25-1.152832,0.2714844-1.7172852,0.0595703  c-0.5073242-0.1914063-1.0576172-0.4267578-1.6401367-0.7001953c-0.543457-0.2519531-0.9545898-0.6982422-1.1572266-1.2548828  c-0.2172852-0.5966797-0.1826172-1.2548828,0.0991211-1.8564453c1.237793-2.6748047,1.0361328-5.3076172-0.5273438-6.8710938  c-0.8823242-0.8828125-2.1074219-1.3320313-3.4858398-1.3320313c-1.0361328,0-2.1591797,0.2539063-3.2880859,0.7675781  c-0.5864258,0.2646484-1.2504883,0.2910156-1.8222656,0.0712891C9.621582,40.385437,9.1376953,40.0914917,8.855957,39.4567261  c-0.3066406-0.6708984-0.5629883-1.3574219-0.7441406-1.8603516c-0.3857422-1.1494141,0.234375-2.3759766,1.4370117-2.8505859  c2.6484375-1.0283203,4.293457-3.0029297,4.293457-5.1533203c0-2.1279297-1.5537109-4.0351563-4.1611328-5.1054688  c-1.1079102-0.4472656-1.6650391-1.7871094-1.215332-2.9316406c0.1972656-0.5078125,0.4350586-1.0449219,0.7299805-1.6455078  c0.5068359-1.0527344,1.7631836-1.5205078,2.8574219-1.0683594c2.5805664,1.0839844,5.0185547,0.8320313,6.5219727-0.671875  c1.4589844-1.4580078,1.7421875-3.8242188,0.7563477-6.3291016c-0.4433594-1.1230469,0.0444336-2.3886719,1.0952148-2.8730469  c0.543457-0.2412109,1.0874023-0.4599609,1.6499023-0.6621094c1.1342773-0.4169922,2.4360352,0.1162109,2.9042969,1.1923828  c1.0791016,2.4658203,2.9550781,3.9384766,5.0170898,3.9384766s3.9379883-1.4726563,5.0180664-3.9414063  c0.4672852-1.0751953,1.7709961-1.6083984,2.9116211-1.1865234c0.5541992,0.1982422,1.0981445,0.4179688,1.6269531,0.6523438  c1.065918,0.4912109,1.5532227,1.7568359,1.109375,2.8808594c-0.9853516,2.5039063-0.7021484,4.8701172,0.7568359,6.328125  c1.503418,1.5029297,3.940918,1.7548828,6.5175781,0.6738281c1.0981445-0.4521484,2.3549805,0.0146484,2.8647461,1.0722656  c0.2895508,0.5898438,0.5273438,1.1269531,0.7290039,1.6445313c0.4482422,1.1396484-0.109375,2.4804688-1.222168,2.9296875  c-2.6025391,1.0673828-4.15625,2.9746094-4.15625,5.1025391c0,2.1503906,1.6450195,4.125,4.2880859,5.1503906  c1.2045898,0.4765625,1.824707,1.6972656,1.4458008,2.84375c-0.1884766,0.5224609-0.4433594,1.2041016-0.7524414,1.8808594  c-0.2768555,0.6240234-0.7607422,0.9179688-1.1181641,1.0546875c-0.5712891,0.21875-1.2358398,0.1933594-1.8183594-0.0693359  C45.5629883,39.2536011,42.9663086,39.4684448,41.4208984,41.0153198z"></path></svg>