<svg height='100px' width='100px'  fill="#000000" xmlns="http://www.w3.org/2000/svg" viewBox="0 0 66 58" x="0px" y="0px"><path fill="#000000" fill-rule="evenodd" d="M451.913273,559.576717 C454.974984,557.896724 458.422585,557 462,557 C473.59798,557 483,566.40202 483,578 C483,589.59798 473.59798,599 462,599 C450.737246,599 441.545343,590.133634 441.02339,579 L418,579 C417.21907,579 416.739502,578.144903 417.146718,577.47855 L439.146718,541.47855 C439.536648,540.840483 440.463352,540.840483 440.853282,541.47855 L451.913269,559.57671 Z M419.783057,577 L460.216943,577 L440,543.917729 L419.783057,577 Z M462,597 C472.49341,597 481,588.49341 481,578 C481,567.50659 472.49341,559 462,559 C458.793588,559 455.706044,559.794723 452.957431,561.28534 L462.853282,577.47855 C463.260498,578.144903 462.78093,579 462,579 L443.025864,579 C443.545877,589.028565 451.842024,597 462,597 Z" transform="translate(-417 -541)"></path></svg>