<svg height='100px' width='100px'  fill="#000000" xmlns="http://www.w3.org/2000/svg" xmlns:xlink="http://www.w3.org/1999/xlink" version="1.1" x="0px" y="0px" viewBox="0 0 64 64" enable-background="new 0 0 64 64" xml:space="preserve"><g><g><path d="M45.945,62.585H18.054c-4.411,0-8-3.589-8-8V9.415c0-4.411,3.589-8,8-8h27.891c4.411,0,8,3.589,8,8v45.17    C53.945,58.996,50.356,62.585,45.945,62.585z M18.054,3.415c-3.309,0-6,2.691-6,6v45.17c0,3.309,2.691,6,6,6h27.891    c3.309,0,6-2.691,6-6V9.415c0-3.309-2.691-6-6-6H18.054z"></path></g><path d="M32,47.182c-0.3,0-0.584-0.135-0.774-0.366l-11.61-14.182c-0.301-0.369-0.301-0.899,0-1.267l11.61-14.182   c0.38-0.464,1.168-0.464,1.547,0l11.609,14.182c0.302,0.368,0.302,0.898,0,1.267L32.773,46.815   C32.584,47.047,32.3,47.182,32,47.182z M21.683,32L32,44.603L42.317,32L32,19.396L21.683,32z"></path></g></svg>