<svg height='100px' width='100px'  fill="#000000" xmlns="http://www.w3.org/2000/svg" xmlns:xlink="http://www.w3.org/1999/xlink" version="1.1" x="0px" y="0px" viewBox="0 0 100 100" enable-background="new 0 0 100 100" xml:space="preserve"><path d="M87.8,71.5h-8.7c1.8-1.3,3.4-2.7,4.5-4.2c1.9-2.5,2.6-6.9,2-13.5c-0.7-8.1-3-16.5-3.1-16.8c-0.1-0.5-0.5-0.8-0.9-1  c-0.4-0.2-0.9-0.2-1.4,0.1c0,0-4.4,2.5-10.4,6c-1-2.7-2.2-5.7-3.6-9C59.8,18.5,51.5,2.9,51.4,2.7c-0.3-0.5-0.8-0.8-1.4-0.8  s-1.1,0.3-1.4,0.8C48.5,2.9,40.3,18.3,34,32.8c-1.5,3.4-2.7,6.5-3.8,9.2c-6-3.5-10.3-6-10.4-6c-0.4-0.2-0.9-0.3-1.4-0.1  c-0.4,0.2-0.8,0.6-0.9,1c-0.1,0.4-2.4,8.7-3.1,16.8c-0.6,6.5,0.1,10.9,2,13.5c1.1,1.5,2.6,2.9,4.5,4.2h-8.7c-2.6,0-4.7,2.1-4.7,4.7  v7.1c0,2.6,2.1,4.7,4.7,4.7h6.3c0.8,4.5,3.1,7.5,6,7.5c0.1,0,0.1,0,0.2,0l0.2,0c0.1,0,0.3,0,0.4,0l15.2-1.7c2.2,2.6,5.6,4.3,9.6,4.3  s7.4-1.7,9.6-4.3l15.2,1.7c0.1,0,0.3,0,0.4,0l0.2,0c0.1,0,0.1,0,0.2,0c2.9,0,5.2-3.1,6-7.5h6.3c2.6,0,4.7-2.1,4.7-4.7v-7.1  C92.4,73.6,90.4,71.5,87.8,71.5z M89.3,83.3c0,0.9-0.7,1.6-1.6,1.6h-6c0-0.1,0-0.1,0-0.2c0-4.7-1.6-8.5-3.9-10.1h9.9  c0.9,0,1.6,0.7,1.6,1.6V83.3z M50,95c-4.9,0-8.9-3.5-8.9-7.7c0-3.5,2.8-6.5,6.5-7.4c0.6,0,1.3,0,1.9,0l0.3,0l0.1,0l0.2,0l0.2,0  c0.6,0,1.3,0,1.9,0c3.8,0.9,6.5,3.9,6.5,7.4C58.9,91.6,54.9,95,50,95z M10.7,83.3v-7.1c0-0.9,0.7-1.6,1.6-1.6h9.9  c-2.3,1.6-3.9,5.4-3.9,10.1c0,0.1,0,0.1,0,0.2h-6C11.4,84.9,10.7,84.2,10.7,83.3z M17.5,54.1c0.5-5.6,1.8-11.4,2.5-14.3  c2.1,1.2,5.8,3.3,10.2,5.9c0.4,0.2,0.9,0.3,1.3,0.1c0.4-0.2,0.8-0.5,0.9-0.9c1.1-3.2,2.6-6.8,4.3-10.8C41.6,23.2,47.4,11.8,50,6.8  c2.6,5,8.5,16.6,13.3,27.6c1.7,3.9,3.1,7.4,4.2,10.5c0.2,0.4,0.5,0.8,0.9,0.9c0.4,0.2,0.9,0.1,1.3-0.1c4.4-2.6,8.1-4.7,10.2-5.9  c0.7,2.9,2.1,8.8,2.5,14.3c0.6,7-0.4,10-1.4,11.3c-1,1.3-2.4,2.6-4,3.7c0.2-1.1,0.3-2.9,0-5.7c-0.1-1.5-0.4-3.1-0.7-4.8  c0-0.2-0.2-0.5-0.4-0.6c-0.2-0.1-0.5-0.1-0.7,0c-0.9,0.5-1.8,1-2.7,1.5l-7.3,4l-2.8-7.4c-1.1-2.8-2.4-5.9-4.1-9.5  c-2.1-4.5-4.7-9.6-7.6-15.1c-0.1-0.3-0.4-0.4-0.7-0.4s-0.6,0.2-0.7,0.4c-2.9,5.4-5.4,10.4-7.5,14.9c-1.7,3.6-3.1,6.9-4.2,9.7  l-2.9,7.4l-7.3-4c-0.9-0.5-1.8-1-2.7-1.5c-0.2-0.1-0.5-0.1-0.7,0c-0.2,0.1-0.4,0.3-0.4,0.6c-0.3,1.7-0.5,3.4-0.7,4.8  c-0.3,2.8-0.2,4.6,0,5.7c-1.7-1.2-3.1-2.4-4-3.7C18,64.2,16.9,61.2,17.5,54.1z M24.7,69.9c-0.1-0.5-0.6-2.2-0.2-6.2  c0.1-1.1,0.3-2.4,0.5-3.7c0.6,0.3,1.1,0.6,1.7,0.9l8.1,4.4c0.2,0.1,0.4,0.1,0.6,0c0.2-0.1,0.4-0.2,0.5-0.5l3.2-8.2  c1.1-2.8,2.5-6,4.2-9.6c1.9-4.1,4.2-8.6,6.8-13.5c2.6,5,5,9.6,6.9,13.7c1.6,3.5,3,6.6,4,9.4l3.2,8.2c0.1,0.2,0.2,0.4,0.5,0.5  c0.2,0.1,0.4,0.1,0.6,0l8.1-4.4c0.6-0.3,1.2-0.6,1.7-0.9c0.2,1.3,0.4,2.5,0.5,3.7c0.4,4-0.1,5.8-0.2,6.2c-2.9,3.2-13.7,7.7-24.9,7.7  l-0.8,0h0C38.4,77.6,27.6,73.1,24.7,69.9z M21.3,84.7c0-4.7,1.9-7.7,3.2-7.7s3.2,3,3.2,7.7c0,4.7-1.9,7.7-3.2,7.7  S21.3,89.4,21.3,84.7z M30.8,84.7c0-3.5-0.9-6.5-2.2-8.4l1.1-0.2c3.1,1.2,6.5,2.2,10,2.8l-0.9,4.9c-0.4,1.1-0.6,2.2-0.6,3.4  c0,0,0,0,0,0c0,0,0,0,0,0c0,1.2,0.2,2.4,0.7,3.5l-9.5,1C30.2,90,30.8,87.5,30.8,84.7z M62,87.4C62,87.4,62,87.3,62,87.4  C62,87.3,62,87.3,62,87.4c0-1.3-0.2-2.4-0.6-3.5L60.4,79c3.5-0.7,6.9-1.6,10-2.8l1.1,0.2c-1.4,2-2.2,4.9-2.2,8.4  c0,2.8,0.6,5.3,1.5,7.2l-9.5-1C61.7,89.8,62,88.6,62,87.4z M75.5,92.4c-1.3,0-3.2-3-3.2-7.7c0-4.7,1.9-7.7,3.2-7.7  c1.3,0,3.2,3,3.2,7.7C78.7,89.4,76.8,92.4,75.5,92.4z"></path></svg>