<svg height='100px' width='100px'  fill="#000000" xmlns="http://www.w3.org/2000/svg" xmlns:xlink="http://www.w3.org/1999/xlink" version="1.1" x="0px" y="0px" viewBox="0 0 32 32" enable-background="new 0 0 32 32" xml:space="preserve"><g display="none"><rect x="-370" y="-132.318" display="inline" fill="#000000" width="404.667" height="211.333"></rect></g><g><g><polygon points="8.751,13.245 9.77,11.661 10.785,13.245 11.901,13.245 10.336,10.889 11.761,8.664 10.688,8.664 9.789,10.136     8.87,8.664 7.789,8.664 9.207,10.854 7.642,13.245   "></polygon><polygon points="15.626,12.474 13.326,12.474 13.326,8.701 12.401,8.701 12.401,13.245 15.626,13.245   "></polygon><path d="M17.951,12.545c-0.281,0-0.505-0.07-0.67-0.212c-0.166-0.142-0.275-0.364-0.33-0.666l-0.899,0.088    c0.06,0.512,0.245,0.902,0.556,1.17s0.755,0.401,1.335,0.401c0.397,0,0.729-0.056,0.996-0.167    c0.268-0.111,0.473-0.281,0.619-0.511c0.145-0.229,0.219-0.476,0.219-0.737c0-0.29-0.061-0.533-0.184-0.73    c-0.121-0.196-0.291-0.352-0.506-0.465c-0.215-0.114-0.549-0.224-0.998-0.33c-0.45-0.106-0.733-0.208-0.85-0.307    c-0.092-0.076-0.138-0.169-0.138-0.277c0-0.119,0.049-0.214,0.146-0.285c0.152-0.11,0.362-0.165,0.632-0.165    c0.26,0,0.455,0.052,0.586,0.154c0.129,0.104,0.215,0.272,0.254,0.508l0.926-0.04c-0.016-0.421-0.168-0.758-0.459-1.01    s-0.723-0.378-1.298-0.378c-0.352,0-0.652,0.053-0.901,0.159s-0.439,0.261-0.572,0.464c-0.132,0.203-0.198,0.422-0.198,0.655    c0,0.362,0.141,0.67,0.422,0.922c0.2,0.179,0.548,0.33,1.044,0.453c0.386,0.096,0.632,0.162,0.74,0.199    c0.158,0.057,0.27,0.123,0.333,0.199s0.095,0.168,0.095,0.276c0,0.169-0.075,0.316-0.227,0.442    C18.474,12.482,18.249,12.545,17.951,12.545z"></path><polygon points="21.317,8.664 20.235,8.664 21.654,10.854 20.089,13.245 21.198,13.245 22.217,11.661 23.232,13.245     24.349,13.245 22.782,10.889 24.208,8.664 23.136,8.664 22.235,10.136   "></polygon><path d="M3.5,0v32h25V4.962L23.538,0H3.5z M27.5,31h-23V1h18.624L27.5,5.376V31z"></path><rect x="8.507" y="24.041" width="14.986" height="1"></rect><rect x="8.507" y="20.5" width="14.986" height="1"></rect></g></g><g display="none"><g display="inline"><g><path d="M23.538,0H3.5v32h25V4.962L23.538,0z M18.756,10.944c-0.063-0.076-0.175-0.143-0.333-0.199     c-0.108-0.037-0.354-0.104-0.74-0.199c-0.496-0.123-0.844-0.274-1.044-0.453c-0.281-0.252-0.422-0.56-0.422-0.922     c0-0.233,0.066-0.452,0.198-0.655c0.133-0.203,0.323-0.357,0.572-0.464s0.55-0.159,0.901-0.159c0.575,0,1.007,0.126,1.298,0.378     s0.443,0.589,0.459,1.01L18.72,9.32c-0.039-0.235-0.125-0.404-0.254-0.508c-0.131-0.103-0.326-0.154-0.586-0.154     c-0.27,0-0.479,0.055-0.632,0.165c-0.098,0.071-0.146,0.166-0.146,0.285c0,0.108,0.046,0.201,0.138,0.277     c0.116,0.099,0.399,0.2,0.85,0.307c0.449,0.106,0.783,0.216,0.998,0.33c0.215,0.113,0.385,0.269,0.506,0.465     c0.123,0.197,0.184,0.44,0.184,0.73c0,0.262-0.074,0.508-0.219,0.737c-0.146,0.229-0.352,0.399-0.619,0.511     c-0.267,0.111-0.599,0.167-0.996,0.167c-0.58,0-1.024-0.134-1.335-0.401s-0.496-0.658-0.556-1.17l0.899-0.088     c0.055,0.302,0.164,0.524,0.33,0.666c0.165,0.142,0.389,0.212,0.67,0.212c0.298,0,0.522-0.062,0.673-0.188     c0.151-0.126,0.227-0.273,0.227-0.442C18.851,11.112,18.819,11.02,18.756,10.944z M12.401,8.007h0.925v3.772h2.3v0.771h-3.225     V8.007z M7.789,7.97H8.87l0.919,1.472l0.899-1.472h1.072l-1.425,2.225l1.565,2.356h-1.116L9.77,10.967l-1.019,1.584H7.642     l1.565-2.391L7.789,7.97z M23.493,25.041H8.507v-1h14.986V25.041z M23.493,21.5H8.507v-1h14.986V21.5z M23.232,12.551     l-1.016-1.584l-1.019,1.584h-1.109l1.565-2.391l-1.419-2.19h1.082l0.918,1.472l0.9-1.472h1.072l-1.426,2.225l1.566,2.356H23.232z     "></path></g></g></g><g display="none"><g display="inline"><text transform="matrix(1 0 0 1 8.1646 13.2453)" stroke="#000000" stroke-width="0.25" stroke-miterlimit="10" font-family="'Arial-BoldMT'" font-size="6px">XLSX</text></g><g display="inline"><g><path d="M22.71,2l3.79,3.79V30h-21V2H22.71 M23.538,0H3.5v32h25V4.962L23.538,0L23.538,0z"></path></g><g><g><g><line fill="none" stroke="#000000" stroke-width="2" stroke-miterlimit="10" x1="8.507" y1="24.542" x2="23.493" y2="24.542"></line></g></g><g><g><line fill="none" stroke="#000000" stroke-width="2" stroke-miterlimit="10" x1="8.507" y1="21" x2="23.493" y2="21"></line></g></g></g></g></g><g display="none"><g display="inline"><text transform="matrix(1 0 0 1 7.6417 13.2453)" font-family="'Arial-BoldMT'" font-size="6.4px">XLSX</text></g><g display="inline"><g><path fill="#000000" d="M23.331,0.5L28,5.169V31.5H4v-31H23.331 M23.538,0H3.5v32h25V4.962L23.538,0L23.538,0z"></path></g><g><g><g><line fill="none" stroke="#000000" stroke-width="0.5" stroke-miterlimit="10" x1="8.507" y1="24.542" x2="23.493" y2="24.542"></line></g></g><g><g><line fill="none" stroke="#000000" stroke-width="0.5" stroke-miterlimit="10" x1="8.507" y1="21" x2="23.493" y2="21"></line></g></g></g></g></g></svg>