<svg height='100px' width='100px'  fill="#000000" xmlns="http://www.w3.org/2000/svg" viewBox="0 0 66 60" x="0px" y="0px"><path fill="#000000" fill-rule="evenodd" d="M689,600 C680.715729,600 674,593.284271 674,585 C674,576.715729 680.715729,570 689,570 C697.284271,570 704,576.715729 704,585 C704,593.284271 697.284271,600 689,600 Z M689,598 C696.179702,598 702,592.179702 702,585 C702,577.820298 696.179702,572 689,572 C681.820298,572 676,577.820298 676,585 C676,592.179702 681.820298,598 689,598 Z M708,570 C699.715729,570 693,563.284271 693,555 C693,546.715729 699.715729,540 708,540 C716.284271,540 723,546.715729 723,555 C723,563.284271 716.284271,570 708,570 Z M708,568 C715.179702,568 721,562.179702 721,555 C721,547.820298 715.179702,542 708,542 C700.820298,542 695,547.820298 695,555 C695,562.179702 700.820298,568 708,568 Z M672,570 C663.715729,570 657,563.284271 657,555 C657,546.715729 663.715729,540 672,540 C680.284271,540 687,546.715729 687,555 C687,563.284271 680.284271,570 672,570 Z M672,568 C679.179702,568 685,562.179702 685,555 C685,547.820298 679.179702,542 672,542 C664.820298,542 659,547.820298 659,555 C659,562.179702 664.820298,568 672,568 Z" transform="translate(-657 -540)"></path></svg>