<svg height='100px' width='100px'  fill="#000000" xmlns="http://www.w3.org/2000/svg" xmlns:xlink="http://www.w3.org/1999/xlink" version="1.1" x="0px" y="0px" viewBox="0 0 24 24" enable-background="new 0 0 24 24" xml:space="preserve"><g><path d="M0.536,21.125c0.699,1.209,2.036,1.905,3.669,1.91h15.592h0.001c1.635-0.005,2.972-0.699,3.669-1.906   c0.725-1.257,0.646-2.834-0.217-4.327L15.392,3.25C14.539,1.776,13.334,0.964,12,0.964S9.461,1.775,8.607,3.248l-7.86,13.539   C-0.113,18.283-0.191,19.865,0.536,21.125z M1.439,17.187L9.299,3.649C10.004,2.434,10.963,1.764,12,1.764   c1.036,0,1.996,0.67,2.701,1.887l7.856,13.552c0.716,1.239,0.794,2.524,0.216,3.526c-0.55,0.954-1.636,1.503-2.978,1.506H4.206   c-1.339-0.003-2.424-0.554-2.977-1.51C0.649,19.718,0.726,18.428,1.439,17.187z"></path><path d="M11.485,15.949h1.029c0.706,0,1.281-0.575,1.281-1.282V7.127c0-0.707-0.575-1.282-1.281-1.282h-1.029   c-0.706,0-1.281,0.575-1.281,1.282v7.539C10.204,15.374,10.779,15.949,11.485,15.949z M11.005,7.127   c0-0.266,0.215-0.481,0.48-0.481h1.029c0.266,0,0.48,0.216,0.48,0.481v7.539c0,0.266-0.215,0.481-0.48,0.481h-1.029   c-0.266,0-0.48-0.216-0.48-0.481V7.127z"></path><path d="M11.485,19.907h1.029c0.706,0,1.281-0.575,1.281-1.282v-0.486c0-0.707-0.575-1.282-1.281-1.282h-1.029   c-0.706,0-1.281,0.575-1.281,1.282v0.486C10.204,19.332,10.779,19.907,11.485,19.907z M11.005,18.138   c0-0.266,0.215-0.481,0.48-0.481h1.029c0.266,0,0.48,0.216,0.48,0.481v0.486c0,0.266-0.215,0.481-0.48,0.481h-1.029   c-0.266,0-0.48-0.216-0.48-0.481V18.138z"></path></g></svg>