<svg height='100px' width='100px'  fill="#000000" xmlns="http://www.w3.org/2000/svg" viewBox="0 0 58 66" x="0px" y="0px"><path fill="#000000" fill-rule="evenodd" d="M690.5,297.133975 L718.212813,313.133975 C718.522214,313.312607 718.712813,313.642734 718.712813,314 L718.712813,346 C718.712813,346.357266 718.522214,346.687393 718.212813,346.866025 L690.5,362.866025 C690.190599,363.044658 689.809401,363.044658 689.5,362.866025 L661.787187,346.866025 C661.477786,346.687393 661.287187,346.357266 661.287187,346 L661.287187,314 C661.287187,313.642734 661.477786,313.312607 661.787187,313.133975 L689.5,297.133975 C689.809401,296.955342 690.190599,296.955342 690.5,297.133975 Z M684,357.381198 L689,360.267949 L689,330.57735 L684,327.690599 L684,357.381198 Z M682,326.535898 L677,323.649147 L677,353.339746 L682,356.226497 L682,326.535898 Z M675,322.494447 L670,319.607695 L670,349.298294 L675,352.185045 L675,322.494447 Z M668,348.143594 L668,318.452995 L663.287187,315.732051 L663.287187,345.42265 L668,348.143594 Z M716.712813,315.732051 L691,330.57735 L691,360.267949 L716.712813,345.42265 L716.712813,315.732051 Z M669.107695,316.783122 L694.820508,301.937822 L690,299.154701 L664.287187,314 L669.107695,316.783122 Z M701.78461,305.958548 L696.820508,303.092523 L671.107695,317.937822 L676.071797,320.803848 L701.78461,305.958548 Z M708.748711,309.979274 L703.78461,307.113249 L678.071797,321.958548 L683.035898,324.824574 L708.748711,309.979274 Z M685.035898,325.979274 L690,328.845299 L715.712813,314 L710.748711,311.133975 L685.035898,325.979274 Z" transform="translate(-661 -297)"></path></svg>