<svg height='100px' width='100px'  fill="#000000" xmlns="http://www.w3.org/2000/svg" xmlns:xlink="http://www.w3.org/1999/xlink" version="1.1" x="0px" y="0px" viewBox="0 0 100 100" enable-background="new 0 0 100 100" xml:space="preserve"><g><polygon fill="none" points="59.08,20.104 53.768,8.706 9.928,15.819 15.457,27.303  "></polygon><polygon fill="none" points="67.205,27.761 63.408,24.95 63.408,39.306 79.235,36.668  "></polygon><polygon fill="none" points="59.893,23.533 34.494,27.724 18.28,30.4 23.774,35.472 33.355,44.315 48.198,41.841 59.893,39.892     "></polygon><polygon fill="none" points="30.853,46.79 22.903,39.451 15.272,32.408 9.257,51.041 26.294,66.613  "></polygon><path fill="none" d="M41.152,71.974c-0.736,0-1.41-0.463-1.659-1.18L34.552,56.59v34.52l47.301-9.197V64.58l-40.385,7.365   C41.363,71.964,41.257,71.974,41.152,71.974z"></path><polygon fill="none" points="63.962,20.985 83.138,35.183 90.32,23.842 69.63,11.253  "></polygon><path fill="none" d="M31.037,61.675l-1.992,8.662c-0.14,0.609-0.593,1.098-1.19,1.284c-0.172,0.053-0.348,0.08-0.523,0.08   c-0.433,0-0.857-0.16-1.186-0.461l-9.944-9.09v13.841l14.835,13.313V61.675z"></path><polygon fill="none" points="78.41,40.369 61.94,43.115 61.936,43.115 58.492,43.689 35.139,47.581 42.319,68.217 83.255,60.752    83.259,60.751 88.112,59.866 82.352,39.712  "></polygon><path d="M94.473,22.87c-0.108-0.459-0.395-0.856-0.798-1.101L69.927,7.319C69.523,7.073,69.037,7,68.581,7.116   c-0.458,0.116-0.849,0.411-1.087,0.819l-5.67,9.736L56.392,6.015c-0.332-0.713-1.098-1.12-1.875-0.992L7.042,12.726   c-0.548,0.089-1.021,0.43-1.277,0.922C5.509,14.14,5.5,14.724,5.74,15.224l6.816,14.158l-6.99,21.654   c-0.212,0.655-0.021,1.373,0.486,1.837l6.635,6.064v17.838c0,0.499,0.212,0.975,0.584,1.308l18.35,16.467   c0.011,0.009,0.023,0.016,0.034,0.025c0.008,0.007,0.014,0.016,0.022,0.023c0.038,0.031,0.08,0.055,0.119,0.082   c0.037,0.026,0.072,0.054,0.11,0.076c0.055,0.032,0.113,0.057,0.171,0.083c0.037,0.017,0.072,0.036,0.11,0.05   c0.067,0.025,0.136,0.041,0.205,0.057c0.031,0.007,0.062,0.019,0.093,0.025C32.587,94.99,32.691,95,32.795,95c0,0,0,0,0,0   c0,0,0,0,0,0c0.002,0,0.004-0.001,0.006-0.001c0.109,0,0.22-0.011,0.328-0.031l50.816-9.88c0.826-0.161,1.422-0.884,1.422-1.725   V63.939l5.282-0.963c0.488-0.089,0.916-0.38,1.177-0.802c0.262-0.421,0.334-0.934,0.197-1.41l-6.508-22.769l8.73-13.784   C94.499,23.813,94.581,23.33,94.473,22.87z M33.355,44.315l-9.581-8.844L18.28,30.4l16.215-2.676l25.399-4.191v16.359   l-11.695,1.949L33.355,44.315z M63.408,24.95l3.797,2.811l12.03,8.907l-15.827,2.638V24.95z M53.768,8.706l5.312,11.398   l-43.623,7.199L9.928,15.819L53.768,8.706z M15.272,32.408l7.631,7.043l7.95,7.339l-4.559,19.823L9.257,51.041L15.272,32.408z    M16.202,62.15l9.944,9.09c0.329,0.301,0.753,0.461,1.186,0.461c0.175,0,0.351-0.026,0.523-0.08c0.597-0.186,1.05-0.675,1.19-1.284   l1.992-8.662v27.629L16.202,75.991V62.15z M81.853,81.914L34.552,91.11V56.59l4.941,14.203c0.249,0.717,0.923,1.18,1.659,1.18   c0.105,0,0.211-0.009,0.316-0.029l40.385-7.365V81.914z M83.259,60.751c-0.002,0-0.003,0-0.005,0.001l-40.936,7.465l-7.179-20.636   l23.352-3.892l3.445-0.574c0.001,0,0.002,0,0.003,0l16.47-2.745l3.942-0.657l5.76,20.154L83.259,60.751z M83.138,35.183   L63.962,20.985l5.668-9.733l20.69,12.59L83.138,35.183z"></path></g></svg>