<svg height='100px' width='100px'  fill="#000000" xmlns="http://www.w3.org/2000/svg" xmlns:xlink="http://www.w3.org/1999/xlink" version="1.1" x="0px" y="0px" viewBox="0 0 100 100" enable-background="new 0 0 100 100" xml:space="preserve"><g><path d="M71.901,20.07c0-0.518-0.263-0.975-0.662-1.244L58.962,7.906c-0.015-0.013-0.033-0.02-0.048-0.031   c-0.083-0.069-0.173-0.129-0.27-0.178c-0.022-0.012-0.043-0.025-0.065-0.036c-0.112-0.05-0.231-0.086-0.356-0.107   c-0.032-0.006-0.064-0.007-0.096-0.01c-0.054-0.006-0.106-0.017-0.162-0.017H18.124c-0.829,0-1.5,0.672-1.5,1.5v75.17   c0,0.828,0.671,1.5,1.5,1.5h19.908v5.275c0,0.828,0.671,1.5,1.5,1.5h42.344c0.829,0,1.5-0.672,1.5-1.5V29.605   c0-0.828-0.671-1.5-1.5-1.5h-9.995v-7.837C71.89,20.203,71.901,20.139,71.901,20.07z M59.465,12.369l6.973,6.201h-6.973V12.369z    M19.624,10.527h36.841v9.543c0,0.828,0.671,1.5,1.5,1.5h10.916v8.035v53.092H39.532H19.624V10.527z M80.376,31.105v58.367H41.032   v-3.775h29.349c0.829,0,1.5-0.672,1.5-1.5V31.105H80.376z"></path><path d="M26.042,30.051h35.974c0.829,0,1.5-0.672,1.5-1.5s-0.671-1.5-1.5-1.5H26.042c-0.829,0-1.5,0.672-1.5,1.5   S25.213,30.051,26.042,30.051z"></path><path d="M26.042,38.951h35.974c0.829,0,1.5-0.672,1.5-1.5s-0.671-1.5-1.5-1.5H26.042c-0.829,0-1.5,0.672-1.5,1.5   S25.213,38.951,26.042,38.951z"></path><path d="M26.042,47.852h35.974c0.829,0,1.5-0.672,1.5-1.5s-0.671-1.5-1.5-1.5H26.042c-0.829,0-1.5,0.672-1.5,1.5   S25.213,47.852,26.042,47.852z"></path><path d="M26.042,56.75h35.974c0.829,0,1.5-0.672,1.5-1.5s-0.671-1.5-1.5-1.5H26.042c-0.829,0-1.5,0.672-1.5,1.5   S25.213,56.75,26.042,56.75z"></path><path d="M51.128,64.15c0-0.828-0.671-1.5-1.5-1.5H26.042c-0.829,0-1.5,0.672-1.5,1.5s0.671,1.5,1.5,1.5h23.587   C50.457,65.65,51.128,64.979,51.128,64.15z"></path></g></svg>