<svg height='100px' width='100px'  fill="#000000" xmlns="http://www.w3.org/2000/svg" viewBox="0 0 64 64" x="0px" y="0px"><title>think-book-read-homework-school</title><g data-name="09-study"><path d="M32,35.372a1,1,0,0,1-.53-.152l-4.387-2.742a7.554,7.554,0,0,0-8.483.36,1,1,0,0,1-1.6-.8V16.872a1,1,0,0,1,.4-.8,9.564,9.564,0,0,1,10.744-.457L32,18.026l3.857-2.411a9.565,9.565,0,0,1,10.743.457,1,1,0,0,1,.4.8V32.038a1,1,0,0,1-1.6.8,7.552,7.552,0,0,0-8.483-.36L32.53,35.22A1,1,0,0,1,32,35.372Zm-8.888-6.023a9.485,9.485,0,0,1,5.032,1.433L32,33.192l3.857-2.41A9.571,9.571,0,0,1,45,30.272V17.392a7.557,7.557,0,0,0-8.083-.08L32.53,20.053a1,1,0,0,1-1.06,0l-4.387-2.741a7.555,7.555,0,0,0-8.083.08v12.88A9.587,9.587,0,0,1,23.112,29.349Z"></path><path d="M32,41.75a1,1,0,0,1-.53-.152l-5.64-3.525a10,10,0,0,0-11.23.477,1,1,0,0,1-1.6-.8V18.25h2V35.94a12.031,12.031,0,0,1,11.89.437L32,39.571l5.11-3.194A12.028,12.028,0,0,1,49,35.94V18.25h2v19.5a1,1,0,0,1-1.6.8,10,10,0,0,0-11.23-.477L32.53,41.6A1,1,0,0,1,32,41.75Z"></path><path d="M30,24a1,1,0,0,1-.554-.168,8.789,8.789,0,0,0-7.129-1.217,1,1,0,1,1-.632-1.9,10.757,10.757,0,0,1,8.871,1.45A1,1,0,0,1,30,24Z"></path><path d="M30,28a1,1,0,0,1-.554-.168,8.794,8.794,0,0,0-7.129-1.217,1,1,0,1,1-.632-1.9,10.757,10.757,0,0,1,8.871,1.45A1,1,0,0,1,30,28Z"></path><path d="M34,24a1,1,0,0,1-.556-1.832,10.757,10.757,0,0,1,8.871-1.45,1,1,0,0,1-.629,1.9,8.735,8.735,0,0,0-7.132,1.216A1,1,0,0,1,34,24Z"></path><path d="M34,28a1,1,0,0,1-.556-1.832,10.757,10.757,0,0,1,8.871-1.45,1,1,0,0,1-.629,1.9,8.735,8.735,0,0,0-7.132,1.216A1,1,0,0,1,34,28Z"></path><path d="M32,55a10.962,10.962,0,0,1-9.726-5.863A11,11,0,0,1,7,39c0-.241.01-.485.03-.743a10.992,10.992,0,0,1,.3-20.617A10.847,10.847,0,0,1,7,15,10.983,10.983,0,0,1,22.735,5.081a10.988,10.988,0,0,1,18.53,0A10.979,10.979,0,0,1,56.672,17.64a10.992,10.992,0,0,1,.3,20.617c.02.258.03.5.03.743A11,11,0,0,1,41.726,49.137,10.962,10.962,0,0,1,32,55Zm-9.248-8.2a.988.988,0,0,1,.335.058,1,1,0,0,1,.59.561,9,9,0,0,0,16.646,0,1,1,0,0,1,1.4-.5A8.959,8.959,0,0,0,54.9,37.714a1,1,0,0,1,.7-1.1,8.992,8.992,0,0,0-.413-17.336,1,1,0,0,1-.7-1.3A8.983,8.983,0,0,0,41.4,7.278a1,1,0,0,1-1.4-.4,8.99,8.99,0,0,0-15.99,0,1,1,0,0,1-1.4.4,8.981,8.981,0,0,0-13.088,10.7,1,1,0,0,1-.7,1.3A8.992,8.992,0,0,0,8.4,36.615a1,1,0,0,1,.7,1.1A8.993,8.993,0,0,0,22.276,46.92,1,1,0,0,1,22.752,46.8Z"></path><path d="M4,64a4,4,0,1,1,4-4A4,4,0,0,1,4,64Zm0-6a2,2,0,1,0,2,2A2,2,0,0,0,4,58Z"></path><path d="M14,60a4,4,0,1,1,4-4A4,4,0,0,1,14,60Zm0-6a2,2,0,1,0,2,2A2,2,0,0,0,14,54Z"></path></g></svg>