<svg height='100px' width='100px'  fill="#000000" xmlns:x="http://ns.adobe.com/Extensibility/1.0/" xmlns:i="http://ns.adobe.com/AdobeIllustrator/10.0/" xmlns:graph="http://ns.adobe.com/Graphs/1.0/" xmlns="http://www.w3.org/2000/svg" xmlns:xlink="http://www.w3.org/1999/xlink" version="1.1" x="0px" y="0px" viewBox="0 0 76.818 90" enable-background="new 0 0 76.818 90" xml:space="preserve"><g><g i:extraneous="self"><path d="M72.869,29.014c-0.555,1.838-1.066,3.033-1.66,4.508h2.244V50.8h-2.256c0.25,0.528,1.104,2.669,1.658,4.509    c0.594,1.966,1,3.75,1.146,4.906c0.145-1.156,0.551-2.94,1.145-4.906c0.557-1.84,1.066-3.035,1.66-4.509h-2.242V33.521h2.254    c-0.25-0.527-1.104-2.67-1.658-4.508c-0.594-1.967-1-3.75-1.146-4.908C73.869,25.264,73.463,27.047,72.869,29.014z"></path><path d="M46.225,3.469c1.305,1.406,2.078,2.451,3.051,3.709l1.133-1.936l14.908,8.732l-1.137,1.947    c0.582,0.051,2.859,0.396,4.727,0.848c1.998,0.481,3.744,1.033,4.813,1.49c-0.922-0.709-2.26-1.961-3.652-3.467    c-1.309-1.409-2.082-2.453-3.055-3.711l-1.133,1.936L50.971,4.283l1.141-1.945c-0.582-0.051-2.861-0.396-4.727-0.848    C45.387,1.01,43.643,0.458,42.568,0C43.494,0.709,44.828,1.961,46.225,3.469z"></path><path d="M38.85,88.503c1.865-0.451,3.152-0.616,4.725-0.851l-1.133-1.934l14.902-8.74l1.143,1.943    c0.328-0.484,1.742-2.301,3.049-3.711c1.396-1.508,2.73-2.762,3.652-3.471c-1.07,0.459-2.816,1.014-4.811,1.493    c-1.869,0.452-3.156,0.617-4.729,0.852l1.133,1.934l-14.902,8.743l-1.141-1.945c-0.328,0.481-1.744,2.302-3.051,3.709    c-1.395,1.508-2.729,2.761-3.652,3.475C35.107,89.537,36.852,88.985,38.85,88.503z"></path><g><g><defs><rect id="b" y="5.625" width="65.848" height="76.314"></rect></defs><clipPath id="a"><use xlink:href="#b" overflow="visible"></use></clipPath><path clip-path="url(#a)" d="M33.414,78.793l-0.104-34.609l30.129-17.392l0.104,34.606L33.414,78.793L33.414,78.793z       M2.41,62.107L2.316,27.509L31.01,44.186l0.096,34.593L2.41,62.107L2.41,62.107z M33.584,8.111l28.705,16.68l-11.881,6.861      L32.16,42.188L5.084,26.456l-1.627-0.948L33.584,8.111L33.584,8.111z M65.74,24.793c0-0.007,0-0.012,0-0.019      c-0.006-0.399-0.217-0.773-0.568-0.978l-31-18.018c-0.359-0.205-0.803-0.205-1.162,0L0.586,24.502      c-0.008,0.001-0.008,0.001-0.008,0.001c-0.053,0.033-0.1,0.078-0.15,0.121C0.164,24.841,0,25.154,0,25.504      c0,0.005,0.006,0.01,0.006,0.018l0.104,37.25c0,0.407,0.215,0.789,0.574,0.996l31.004,18.018l0,0v0.002      c0.182,0.101,0.377,0.152,0.576,0.152c0.098,0,0.201-0.015,0.297-0.039c0.012-0.002,0.016-0.008,0.027-0.013      c0.084-0.022,0.172-0.056,0.25-0.101l32.436-18.725c0.359-0.209,0.574-0.591,0.574-1.002L65.74,24.793L65.74,24.793z"></path></g></g></g></g></svg>