<svg height='100px' width='100px'  fill="#000000" xmlns="http://www.w3.org/2000/svg" viewBox="0 0 66 66" x="0px" y="0px"><path fill="#000000" fill-rule="evenodd" d="M717,811.070889 C720.392294,811.556119 723,814.473528 723,818 C723,821.865993 719.865993,825 716,825 C714.427665,825 712.976409,824.481596 711.807829,823.606385 L703.606385,831.807829 C704.481596,832.976409 705,834.427665 705,836 C705,839.865993 701.865993,843 698,843 C694.473528,843 691.556119,840.392294 691.070889,837 L670.929111,837 C670.443881,840.392294 667.526472,843 664,843 C660.134007,843 657,839.865993 657,836 C657,832.473528 659.607706,829.556119 663,829.070889 L663,808.929111 C659.607706,808.443881 657,805.526472 657,802 C657,798.134007 660.134007,795 664,795 C665.572335,795 667.023591,795.518404 668.192171,796.393615 L676.393615,788.192171 C675.518404,787.023591 675,785.572335 675,784 C675,780.134007 678.134007,777 682,777 C685.526472,777 688.443881,779.607706 688.929111,783 L709.070889,783 C709.556119,779.607706 712.473528,777 716,777 C719.865993,777 723,780.134007 723,784 C723,787.526472 720.392294,790.443881 717,790.929111 L717,811.070889 Z M715,790.929111 C713.814093,790.75948 712.724073,790.292608 711.807829,789.606385 L703.606385,797.807829 C704.481596,798.976409 705,800.427665 705,802 C705,805.526472 702.392294,808.443881 699,808.929111 L699,829.070889 C700.185907,829.24052 701.275927,829.707392 702.192171,830.393615 L710.393615,822.192171 C709.518404,821.023591 709,819.572335 709,818 C709,814.473528 711.607706,811.556119 715,811.070889 L715,790.929111 Z M697,829.070889 L697,808.929111 C693.934309,808.490598 691.509402,806.065691 691.070889,803 L670.929111,803 C670.490598,806.065691 668.065691,808.490598 665,808.929111 L665,829.070889 C668.065691,829.509402 670.490598,831.934309 670.929111,835 L691.070889,835 C691.509402,831.934309 693.934309,829.509402 697,829.070889 Z M702.192171,796.393615 L710.393615,788.192171 C709.707392,787.275927 709.24052,786.185907 709.070889,785 L688.929111,785 C688.443881,788.392294 685.526472,791 682,791 C680.427665,791 678.976409,790.481596 677.807829,789.606385 L669.606385,797.807829 C670.292608,798.724073 670.75948,799.814093 670.929111,801 L691.070889,801 C691.556119,797.607706 694.473528,795 698,795 C699.572335,795 701.023591,795.518404 702.192171,796.393615 Z M716,789 C718.761424,789 721,786.761424 721,784 C721,781.238576 718.761424,779 716,779 C713.238576,779 711,781.238576 711,784 C711,786.761424 713.238576,789 716,789 Z M716,823 C718.761424,823 721,820.761424 721,818 C721,815.238576 718.761424,813 716,813 C713.238576,813 711,815.238576 711,818 C711,820.761424 713.238576,823 716,823 Z M664,841 C666.761424,841 669,838.761424 669,836 C669,833.238576 666.761424,831 664,831 C661.238576,831 659,833.238576 659,836 C659,838.761424 661.238576,841 664,841 Z M664,807 C666.761424,807 669,804.761424 669,802 C669,799.238576 666.761424,797 664,797 C661.238576,797 659,799.238576 659,802 C659,804.761424 661.238576,807 664,807 Z M698,807 C700.761424,807 703,804.761424 703,802 C703,799.238576 700.761424,797 698,797 C695.238576,797 693,799.238576 693,802 C693,804.761424 695.238576,807 698,807 Z M682,789 C684.761424,789 687,786.761424 687,784 C687,781.238576 684.761424,779 682,779 C679.238576,779 677,781.238576 677,784 C677,786.761424 679.238576,789 682,789 Z M698,841 C700.761424,841 703,838.761424 703,836 C703,833.238576 700.761424,831 698,831 C695.238576,831 693,833.238576 693,836 C693,838.761424 695.238576,841 698,841 Z" transform="translate(-657 -777)"></path></svg>