<svg height='100px' width='100px'  fill="#000000" xmlns:dc="http://purl.org/dc/elements/1.1/" xmlns:cc="http://creativecommons.org/ns#" xmlns:rdf="http://www.w3.org/1999/02/22-rdf-syntax-ns#" xmlns:svg="http://www.w3.org/2000/svg" xmlns="http://www.w3.org/2000/svg" xmlns:sodipodi="http://sodipodi.sourceforge.net/DTD/sodipodi-0.dtd" xmlns:inkscape="http://www.inkscape.org/namespaces/inkscape" version="1.1" x="0px" y="0px" viewBox="0 0 100 100"><g transform="translate(0,-952.36218)"><path style="font-size:medium;font-style:normal;font-variant:normal;font-weight:normal;font-stretch:normal;text-indent:0;text-align:start;text-decoration:none;line-height:normal;letter-spacing:normal;word-spacing:normal;text-transform:none;direction:ltr;block-progression:tb;writing-mode:lr-tb;text-anchor:start;baseline-shift:baseline;opacity:1;color:#000000;fill:#000000;fill-opacity:1;stroke:none;stroke-width:3.99999905000000000;marker:none;visibility:visible;display:inline;overflow:visible;enable-background:accumulate;font-family:Sans;-inkscape-font-specification:Sans" d="m 50,958.36218 c -13.231145,0 -24,10.76885 -24,24 0,3.61831 0.4546,7.1059 1.84375,10.3125 C 18.321029,994.19987 11,1002.4187 11,1012.3622 c 0,11.022 8.977995,20 20,20 3.12357,0 5.971959,-0.8018 8.53125,-2.0938 -0.994816,5.5538 -3.939813,9.4581 -7.78125,12.5313 a 2.0001995,2.0001995 0 0 0 1.25,3.5625 l 17,0 17,0 a 2.0001995,2.0001995 0 0 0 1.25,-3.5625 c -3.84143,-3.0732 -6.786433,-6.9775 -7.78125,-12.5313 2.55929,1.292 5.407679,2.0938 8.53125,2.0938 11.022008,0 20,-8.978 20,-20 0,-9.9436 -7.321033,-18.16235 -16.84375,-19.68752 C 73.5454,989.46808 74,985.98049 74,982.36218 c 0,-13.23115 -10.768856,-24 -24,-24 z m 0,4 c 11.069386,0 20,8.93061 20,20 0,4.28894 -0.635873,7.86343 -2.65625,10.90625 A 2.0001995,2.0001995 0 0 0 69,996.36218 c 8.860252,-10e-6 16,7.13972 16,16.00002 0,8.8602 -7.139758,16 -16,16 -3.764261,0 -6.959942,-1.3325 -9.75,-3.5625 a 2.0001995,2.0001995 0 0 0 -3.25,1.5625 c 0,6.8063 2.51244,12.0291 6,16 l -12,0 -12,0 c 3.487559,-3.9709 6,-9.1936 6,-16 a 2.0001995,2.0001995 0 0 0 -3.25,-1.5625 c -2.790056,2.23 -5.985737,3.5625 -9.75,3.5625 -8.860245,0 -16,-7.1398 -16,-16 0,-8.8603 7.139756,-16.00002 16,-16.00002 a 2.0001995,2.0001995 0 0 0 1.65625,-3.09375 C 30.635874,990.22562 30,986.65112 30,982.36218 c 0,-11.06939 8.930615,-20 20,-20 z"></path></g></svg>