<svg height='100px' width='100px'  fill="#000000" xmlns="http://www.w3.org/2000/svg" xmlns:xlink="http://www.w3.org/1999/xlink" xml:space="preserve" version="1.1" style="shape-rendering:geometricPrecision;text-rendering:geometricPrecision;image-rendering:optimizeQuality;" viewBox="0 0 846.66 846.66" x="0px" y="0px" fill-rule="evenodd" clip-rule="evenodd"><defs><style type="text/css">
   
    .fil0 {fill:#000000;fill-rule:nonzero}
   
  </style></defs><g><path class="fil0" d="M423.33 680.52c-113.45,0 -205.42,-91.97 -205.42,-205.41 0,-113.45 91.97,-205.42 205.42,-205.42 113.44,0 205.42,91.97 205.42,205.42 0,113.44 -91.98,205.41 -205.42,205.41zm315.21 76.87l-630.41 0c-54.56,0 -99.11,-44.55 -99.11,-99.1l0 -366.36c0,-50.23 37.87,-92.04 86.47,-98.3l0 -46.58c0,-11.21 9.09,-20.3 20.3,-20.3l88.14 0c11.21,0 20.31,9.09 20.31,20.3l0 45.77 11.58 0 38.71 -89.49c2.63,-8.16 10.29,-14.06 19.32,-14.06l258.96 0.08c7.82,0.01 15.27,4.58 18.56,12.21l39.47 91.26 11.59 0 0 -45.77c0,-11.21 9.09,-20.3 20.31,-20.3l88.13 0c11.21,0 20.31,9.09 20.31,20.3l0 46.58c48.9,6.28 86.46,48.3 86.46,98.3l0 366.36c0,54.5 -44.6,99.1 -99.1,99.1zm-576.69 -490.24c26.74,0 26.74,40.61 0,40.61l-14.61 0c-26.74,0 -26.74,-40.61 0,-40.61l14.61 0zm76.56 0c26.73,0 26.73,40.61 0,40.61l-14.61 0c-26.74,0 -26.74,-40.61 0,-40.61l14.61 0zm-187.72 13.76l90.29 52.13c6.49,3.73 10.14,10.53 10.14,17.53l0.09 249.07c0,8.2 -4.87,15.27 -11.87,18.48l-88.65 51.18c5.24,27.12 29.28,47.47 57.44,47.47l630.41 0c28.4,0 52.24,-20.52 57.43,-47.47l-88.65 -51.18c-7,-3.21 -11.87,-10.28 -11.87,-18.48l0.09 -249.07c0,-7 3.65,-13.8 10.14,-17.53l90.29 -52.13c-5.24,-27.12 -29.28,-47.47 -57.43,-47.47 -210.14,0 -420.28,0 -630.41,0 -28.41,0 -52.25,20.52 -57.44,47.47zm-1.05 342.3l60.95 -35.19 0 -225.83 -60.95 -35.19 0 296.21zm747.38 -296.21l-60.95 35.19 0 225.83 60.95 35.19 0 -296.21zm-133.98 -134.18l47.52 0 0 -25.46 -47.52 0 0 25.46zm-526.94 0l47.52 0 0 -25.46 -47.52 0 0 25.46zm143.78 0l286.9 0 -27.22 -62.93 -232.46 0 -27.22 62.93zm143.45 417.71c-74.79,0 -135.42,-60.63 -135.42,-135.42 0,-74.79 60.63,-135.42 135.42,-135.42 74.79,0 135.42,60.63 135.42,135.42 0,74.79 -60.63,135.42 -135.42,135.42zm0 -40.62c52.36,0 94.8,-42.44 94.8,-94.8 0,-52.36 -42.44,-94.81 -94.8,-94.81 -52.36,0 -94.8,42.45 -94.8,94.81 0,52.36 42.44,94.8 94.8,94.8zm0 70c91.01,0 164.8,-73.78 164.8,-164.8 0,-91.02 -73.78,-164.8 -164.8,-164.8 -91.02,0 -164.8,73.78 -164.8,164.8 0,91.01 73.78,164.8 164.8,164.8z"></path></g></svg>