<svg height='100px' width='100px'  fill="#000000" xmlns="http://www.w3.org/2000/svg" xmlns:xlink="http://www.w3.org/1999/xlink" version="1.1" x="0px" y="0px" viewBox="0 0 100 100" style="enable-background:new 0 0 100 100;" xml:space="preserve"><path d="M79,75h-2V50c0-14.9-12.1-27-27-27S23,35.1,23,50v25h-2c-3.3,0-6,2.7-6,6v8c0,3.3,2.7,6,6,6h58c3.3,0,6-2.7,6-6v-8  C85,77.7,82.3,75,79,75z M27,50c0-12.7,10.3-23,23-23c12.7,0,23,10.3,23,23v25H52V58.7c2.9-0.9,5-3.5,5-6.7c0-3.9-3.1-7-7-7  c-3.9,0-7,3.1-7,7c0,3.2,2.1,5.8,5,6.7V75H27V50z M50,55c-1.7,0-3-1.3-3-3s1.3-3,3-3s3,1.3,3,3S51.7,55,50,55z M81,89  c0,1.1-0.9,2-2,2H21c-1.1,0-2-0.9-2-2v-8c0-1.1,0.9-2,2-2h4h50h4c1.1,0,2,0.9,2,2V89z M48,15V7c0-1.1,0.9-2,2-2s2,0.9,2,2v8  c0,1.1-0.9,2-2,2S48,16.1,48,15z M15,46H7c-1.1,0-2-0.9-2-2s0.9-2,2-2h8c1.1,0,2,0.9,2,2S16.1,46,15,46z M95,44c0,1.1-0.9,2-2,2h-8  c-1.1,0-2-0.9-2-2s0.9-2,2-2h8C94.1,42,95,42.9,95,44z M76.7,30.7c-0.6-0.9-0.4-2.1,0.5-2.8l6.5-4.7c0.9-0.6,2.1-0.4,2.8,0.5  c0.6,0.9,0.4,2.1-0.5,2.8l-6.5,4.7c-0.4,0.3-0.8,0.4-1.2,0.4C77.7,31.5,77.1,31.2,76.7,30.7z M28,12.8c-0.6-0.9-0.4-2.1,0.5-2.8  c0.9-0.6,2.1-0.4,2.8,0.5l4.7,6.5c0.6,0.9,0.4,2.1-0.5,2.8c-0.4,0.3-0.8,0.4-1.2,0.4c-0.6,0-1.2-0.3-1.6-0.8L28,12.8z M13.4,23.7  c0.6-0.9,1.9-1.1,2.8-0.5l6.5,4.7c0.9,0.6,1.1,1.9,0.5,2.8c-0.4,0.5-1,0.8-1.6,0.8c-0.4,0-0.8-0.1-1.2-0.4l-6.5-4.7  C13,25.8,12.7,24.6,13.4,23.7z M63.9,16.9l4.7-6.5c0.6-0.9,1.9-1.1,2.8-0.5c0.9,0.6,1.1,1.9,0.5,2.8l-4.7,6.5  c-0.4,0.5-1,0.8-1.6,0.8c-0.4,0-0.8-0.1-1.2-0.4C63.4,19.1,63.2,17.8,63.9,16.9z"></path></svg>