<svg height='100px' width='100px'  fill="#000000" xmlns="http://www.w3.org/2000/svg" xmlns:xlink="http://www.w3.org/1999/xlink" version="1.1" x="0px" y="0px" viewBox="0 0 100 100" enable-background="new 0 0 100 100" xml:space="preserve"><g><path d="M88.1,14.1l-6.8-9.5l0-0.1l-0.7-0.9L19,22.3l-0.1,0l-0.1,0l-0.1,0.1l0,0.1L4,47.2l-0.2,0.4l-0.2,0.3l0,0.2l0,0.4l1,14.4   L4.8,63l0.4,0.4l28.1,27.4l0.4,0.1l0.4-0.1l57.5-24.5l0.2-0.1l0.2-0.1l0.1-0.2l0-0.2l1.1-10.8L93,54L62.3,31.9l4.9-8l22.6-7.4   L88.1,14.1z M79.5,6.8l5.8,8.2L28.8,33.3l-6.1-9.2L79.5,6.8z M20.2,25.5l7.2,10.8l0.1-0.1l0.1,0.4L63,25.2l-3.8,6.2l-2.8,0.9   l0.6,1.9l1.6-0.5l-0.1,0.7l2,0.2l0-0.4l28.2,20.2l-8.7,3.4L79.1,57l-1.2,1.6l0,0L34.9,75.5L17.2,58.3l1.2-0.4L17.8,56l-2.2,0.7   l-7.4-7.2l0.6-0.2l-0.6-1.9l-1.3,0.4L20.2,25.5z M89.3,64L35.2,87.1l0-0.2l-1.9-0.1L7.4,61.6L6.7,52L33.4,78l0,1.1l2,0l0-0.8   l54.6-21.4L89.3,64z"></path><polygon points="42.9,38.6 42.3,36.7 39.5,37.6 40.1,39.5  "></polygon><polygon points="49.7,36.5 49.1,34.6 46.3,35.5 46.9,37.4  "></polygon><rect x="43.6" y="35.6" transform="matrix(0.3006 0.9538 -0.9538 0.3006 66.515 -16.612)" width="2" height="2.9"></rect><polygon points="36.1,40.8 35.4,38.9 32.7,39.7 33.3,41.6  "></polygon><polygon points="39.5,39.7 38.9,37.8 36.1,38.7 36.7,40.6  "></polygon><polygon points="56.5,34.4 55.9,32.4 53.1,33.3 53.7,35.2  "></polygon><polygon points="53.1,35.4 52.5,33.5 49.7,34.4 50.3,36.3  "></polygon><polygon points="32.6,41.8 32,39.9 29.3,40.8 29.9,42.7  "></polygon><polygon points="29.2,42.9 28.6,41 25.9,41.9 26.5,43.8  "></polygon><polygon points="25.8,44 25.2,42.1 22.5,42.9 23.1,44.9  "></polygon><rect x="19.7" y="43.1" transform="matrix(0.2998 0.954 -0.954 0.2998 57.0171 11.3937)" width="2" height="2.9"></rect><polygon points="15.6,47.2 15,45.3 12.3,46.2 12.9,48.1  "></polygon><polygon points="19,46.1 18.4,44.2 15.7,45.1 16.3,47  "></polygon><rect x="9.5" y="46.3" transform="matrix(0.3003 0.9538 -0.9538 0.3003 52.9149 23.3655)" width="2" height="2.9"></rect><rect x="58.4" y="35.2" transform="matrix(0.9951 9.846994e-02 -9.846994e-02 0.9951 3.8932 -5.6733)" width="2" height="2.9"></rect><polygon points="60.2,38.8 58.2,38.6 57.9,41.5 59.9,41.7  "></polygon><polygon points="68.7,51.9 69.9,50.3 67.6,48.6 66.4,50.2  "></polygon><polygon points="65.8,49.8 67,48.2 64.7,46.5 63.5,48.1  "></polygon><polygon points="62.9,47.7 64.1,46.1 61.8,44.4 60.6,46  "></polygon><rect x="70" y="50.9" transform="matrix(-0.5861 0.8102 -0.8102 -0.5861 155.0686 25.4701)" width="2" height="2.9"></rect><polygon points="77.4,58.2 78.6,56.6 76.2,54.9 75.1,56.5  "></polygon><rect x="72.9" y="53" transform="matrix(-0.587 0.8096 -0.8096 -0.587 161.3807 26.5415)" width="2" height="2.9"></rect><rect x="32.7" y="50.3" transform="matrix(-0.321 -0.9471 0.9471 -0.321 -4.5308 100.2128)" width="2" height="2.9"></rect><polygon points="42.1,47.8 42.8,49.7 45.5,48.8 44.9,46.9  "></polygon><rect x="49.6" y="44.6" transform="matrix(-0.3214 -0.947 0.947 -0.3214 23.2346 108.6889)" width="2" height="2.9"></rect><rect x="29.3" y="51.4" transform="matrix(-0.3205 -0.9472 0.9472 -0.3205 -10.108 98.4931)" width="2" height="2.9"></rect><rect x="46.2" y="45.7" transform="matrix(-0.3206 -0.9472 0.9472 -0.3206 17.6358 106.9696)" width="2" height="2.9"></rect><rect x="39.4" y="48" transform="matrix(-0.3198 -0.9475 0.9475 -0.3198 6.4974 103.5535)" width="2" height="2.9"></rect><rect x="25.9" y="52.6" transform="matrix(-0.3209 -0.9471 0.9471 -0.3209 -15.6385 96.813)" width="2" height="2.9"></rect><rect x="52.9" y="43.4" transform="matrix(-0.3211 -0.947 0.947 -0.3211 28.7694 110.3769)" width="2" height="2.9"></rect><polygon points="56.3,45.1 58.4,44.4 60,45.6 61.2,44 59.8,43 59.9,42.4 57.9,42.2 57.8,42.5 55.6,43.2  "></polygon><rect x="36" y="49.1" transform="matrix(-0.321 -0.9471 0.9471 -0.321 1.0152 101.9018)" width="2" height="2.9"></rect><rect x="19.1" y="54.9" transform="matrix(-0.3221 -0.9467 0.9467 -0.3221 -26.691 93.4841)" width="2" height="2.9"></rect><rect x="22.5" y="53.7" transform="matrix(-0.3202 -0.9473 0.9473 -0.3202 -21.2138 95.0869)" width="2" height="2.9"></rect><rect x="33.4" y="79.7" transform="matrix(-0.9997 -2.551437e-02 2.551437e-02 -0.9997 66.6496 163.2365)" width="2" height="2.9"></rect><rect x="33.3" y="83.3" transform="matrix(-0.9997 -2.594934e-02 2.594934e-02 -0.9997 66.3331 170.381)" width="2" height="2.9"></rect></g></svg>