<svg height='100px' width='100px'  fill="#000000" xmlns="http://www.w3.org/2000/svg" xmlns:xlink="http://www.w3.org/1999/xlink" version="1.1" x="0px" y="0px" viewBox="0 0 100 100" enable-background="new 0 0 100 100" xml:space="preserve"><path d="M50.002,5.88C25.188,5.88,5,22.352,5,42.598c0,6.217,1.934,12.354,5.59,17.75c2.684,3.963,8.855,9.028,9.516,9.563  c0.055,0.064,0.141,0.263,0.151,0.3c-0.003,0.039-0.293,3.956-0.825,6.438c-1.651,7.699-4.111,12.834-4.138,12.888  c-0.764,1.581-0.317,2.718,0.02,3.258c0.529,0.843,1.434,1.327,2.48,1.327c0.47,0,0.962-0.1,1.467-0.296  c0.726-0.286,7.333-2.949,15.657-8.479c3.164-2.106,7.708-6.049,7.883-6.203c0.097-0.066,0.451-0.192,0.734-0.213  c0.748,0.075,3.918,0.381,6.467,0.381C74.813,79.311,95,62.842,95,42.598C95,22.352,74.813,5.88,50.002,5.88z M50.002,74.518  c-2.52,0-5.987-0.357-6.034-0.363c-1.429-0.147-3.231,0.435-4.308,1.369c-0.47,0.406-4.668,4.016-7.396,5.83  c-4.402,2.926-8.366,5.031-11.036,6.33c0.865-2.354,1.992-5.838,2.891-10.031c0.617-2.887,0.917-7.06,0.919-7.096  c0.112-1.567-0.66-3.353-1.882-4.342c-0.062-0.049-6.238-5.072-8.598-8.556c-3.117-4.599-4.766-9.807-4.766-15.062  c0-17.604,18.039-31.925,40.21-31.925c22.169,0,40.206,14.321,40.206,31.925C90.208,60.198,72.171,74.518,50.002,74.518z"></path><path d="M49.327,29.96c2.642,0,4.56-1.932,4.558-4.545c0.057-1.24-0.391-2.481-1.191-3.321c-0.789-0.824-1.883-1.259-3.168-1.259  c-3.125,0-4.761,2.313-4.761,4.598C44.764,27.972,46.768,29.96,49.327,29.96z"></path><polygon points="52.432,33.36 40.898,33.36 40.898,38.225 47.48,38.225 47.528,55.999 41.147,55.999 41.147,60.863 59.102,60.863   59.102,55.999 52.395,55.999 "></polygon></svg>