<svg height='100px' width='100px'  fill="#000000" xmlns="http://www.w3.org/2000/svg" xmlns:xlink="http://www.w3.org/1999/xlink" version="1.1" x="0px" y="0px" viewBox="0 0 32 32" enable-background="new 0 0 32 32" xml:space="preserve"><g display="none"><rect x="-51" y="-93.339" display="inline" fill="#000000" width="404.667" height="211.333"></rect></g><g><g><polygon points="10.239,9.519 11.23,13.464 12.205,13.464 13.199,9.519 13.199,13.464 14.14,13.464 14.14,8.453 12.622,8.453     11.723,11.871 10.813,8.453 9.3,8.453 9.3,13.464 10.239,13.464   "></polygon><path d="M16.156,11.573h0.659c0.458,0,0.808-0.023,1.05-0.071c0.178-0.039,0.353-0.118,0.524-0.237    c0.172-0.12,0.313-0.284,0.426-0.494c0.111-0.21,0.167-0.469,0.167-0.775c0-0.399-0.097-0.725-0.29-0.977    c-0.194-0.252-0.435-0.415-0.722-0.49c-0.187-0.05-0.588-0.075-1.203-0.075h-1.623v5.011h1.012V11.573z M16.156,9.3h0.488    c0.365,0,0.607,0.012,0.729,0.034c0.164,0.029,0.3,0.104,0.406,0.223c0.107,0.118,0.161,0.269,0.161,0.451    c0,0.147-0.038,0.277-0.115,0.389c-0.076,0.112-0.182,0.194-0.315,0.246c-0.135,0.053-0.401,0.079-0.8,0.079h-0.554V9.3z"></path><path d="M21.208,12.753c-0.186,0-0.342-0.062-0.473-0.188c-0.129-0.126-0.209-0.307-0.238-0.544l-0.93,0.112    c0.048,0.422,0.221,0.764,0.52,1.024c0.298,0.261,0.674,0.392,1.127,0.392c0.479,0,0.879-0.155,1.2-0.465    c0.321-0.311,0.481-0.686,0.481-1.125c0-0.303-0.086-0.562-0.258-0.775c-0.172-0.215-0.401-0.353-0.688-0.414    c0.48-0.262,0.722-0.613,0.722-1.053c0-0.31-0.118-0.588-0.353-0.834c-0.285-0.301-0.663-0.451-1.135-0.451    c-0.275,0-0.524,0.052-0.747,0.155c-0.222,0.104-0.395,0.246-0.52,0.428c-0.124,0.181-0.217,0.423-0.278,0.726l0.886,0.15    c0.024-0.219,0.096-0.385,0.211-0.498c0.117-0.114,0.257-0.172,0.421-0.172c0.166,0,0.3,0.051,0.399,0.15    c0.101,0.101,0.15,0.235,0.15,0.404c0,0.197-0.068,0.356-0.205,0.477c-0.137,0.119-0.334,0.176-0.594,0.169l-0.106,0.782    c0.171-0.047,0.317-0.071,0.44-0.071c0.188,0,0.346,0.07,0.476,0.212s0.194,0.333,0.194,0.574c0,0.255-0.067,0.458-0.203,0.608    S21.405,12.753,21.208,12.753z"></path><path d="M3.5,0v32h25V4.962L23.538,0H3.5z M27.5,31h-23V1h18.624L27.5,5.376V31z"></path><rect x="8.507" y="24.042" width="14.986" height="1"></rect><rect x="8.507" y="20.5" width="14.986" height="1"></rect></g></g><g display="none"><g display="inline"><g><g><path d="M17.51,9.949c0.134-0.052,0.239-0.134,0.315-0.246c0.077-0.111,0.115-0.241,0.115-0.389      c0-0.183-0.054-0.333-0.161-0.451c-0.106-0.119-0.242-0.193-0.406-0.223c-0.121-0.022-0.363-0.034-0.729-0.034h-0.488v1.422      h0.554C17.108,10.028,17.375,10.002,17.51,9.949z"></path><path d="M23.538,0H3.5v32h25V4.962L23.538,0z M21.717,10.65c-0.13-0.142-0.288-0.212-0.476-0.212      c-0.123,0-0.27,0.024-0.44,0.071l0.106-0.782c0.26,0.007,0.457-0.05,0.594-0.169c0.137-0.12,0.205-0.279,0.205-0.477      c0-0.169-0.05-0.304-0.15-0.404c-0.1-0.1-0.233-0.15-0.399-0.15c-0.164,0-0.304,0.058-0.421,0.172      c-0.115,0.113-0.187,0.279-0.211,0.498l-0.886-0.15c0.062-0.303,0.154-0.545,0.278-0.726c0.125-0.182,0.298-0.324,0.52-0.428      c0.223-0.104,0.472-0.155,0.747-0.155c0.472,0,0.85,0.15,1.135,0.451c0.234,0.246,0.353,0.524,0.353,0.834      c0,0.439-0.241,0.791-0.722,1.053c0.287,0.062,0.517,0.199,0.688,0.414c0.172,0.214,0.258,0.473,0.258,0.775      c0,0.439-0.16,0.814-0.481,1.125c-0.321,0.31-0.722,0.465-1.2,0.465c-0.453,0-0.829-0.131-1.127-0.392      c-0.299-0.261-0.472-0.603-0.52-1.024l0.93-0.112c0.029,0.237,0.109,0.418,0.238,0.544c0.131,0.125,0.287,0.188,0.473,0.188      c0.197,0,0.364-0.075,0.5-0.226s0.203-0.354,0.203-0.608C21.911,10.983,21.847,10.792,21.717,10.65z M15.145,7.759h1.623      c0.615,0,1.017,0.025,1.203,0.075c0.287,0.075,0.527,0.238,0.722,0.49c0.193,0.252,0.29,0.577,0.29,0.977      c0,0.307-0.056,0.565-0.167,0.775c-0.112,0.21-0.254,0.374-0.426,0.494c-0.172,0.119-0.347,0.198-0.524,0.237      c-0.242,0.048-0.592,0.071-1.05,0.071h-0.659v1.891h-1.012V7.759z M9.3,7.759h1.514l0.909,3.418l0.899-3.418h1.518v5.011h-0.94      V8.825l-0.994,3.944H11.23l-0.991-3.944v3.944H9.3V7.759z M23.493,25.041H8.507v-1h14.986V25.041z M23.493,21.5H8.507v-1h14.986      V21.5z"></path></g></g></g></g><g display="none"><g display="inline"><text transform="matrix(1 0 0 1 8.8039 13.4639)" stroke="#000000" stroke-width="0.25" stroke-miterlimit="10" font-family="'Arial-BoldMT'" font-size="7px">MP3</text></g><g display="inline"><g><path d="M22.71,2l3.79,3.79V30h-21V2H22.71 M23.538,0H3.5v32h25V4.962L23.538,0L23.538,0z"></path></g><g><g><g><line fill="none" stroke="#000000" stroke-width="2" stroke-miterlimit="10" x1="8.507" y1="24.542" x2="23.493" y2="24.542"></line></g></g><g><g><line fill="none" stroke="#000000" stroke-width="2" stroke-miterlimit="10" x1="8.507" y1="21" x2="23.493" y2="21"></line></g></g></g></g></g><g display="none"><g display="inline"><text transform="matrix(1 0 0 1 8.8039 13.4639)" font-family="'Arial-BoldMT'" font-size="7px">MP3</text></g><g display="inline"><g><path fill="#000000" d="M23.331,0.5L28,5.169V31.5H4v-31H23.331 M23.538,0H3.5v32h25V4.962L23.538,0L23.538,0z"></path></g><g><g><g><line fill="none" stroke="#000000" stroke-width="0.5" stroke-miterlimit="10" x1="8.507" y1="24.542" x2="23.493" y2="24.542"></line></g></g><g><g><line fill="none" stroke="#000000" stroke-width="0.5" stroke-miterlimit="10" x1="8.507" y1="21" x2="23.493" y2="21"></line></g></g></g></g></g></svg>