<svg height='100px' width='100px'  fill="#000000" xmlns="http://www.w3.org/2000/svg" xmlns:xlink="http://www.w3.org/1999/xlink" version="1.1" x="0px" y="0px" viewBox="0 0 68 68" enable-background="new 0 0 68 68" xml:space="preserve"><g><path d="M18.6,24.2c1,1.3,1.1,2.9,0.4,5.2c-0.1,0.4,0,0.8,0.2,1l34.9,34.9c1.9,1.9,5,2.3,7.3,0.8c1.9-1.3,3.5-2.8,4.7-4.7   c1.5-2.3,1.1-5.3-0.8-7.2L30.4,19.2c-0.3-0.3-0.8-0.4-1.2-0.2c-2.9,1.6-3.7,0.8-5-0.4L7.7,2.1c-1.4-1.4-3.8-1.4-5.2,0L2.1,2.4   c-1.4,1.4-1.4,3.8,0,5.2L18.6,24.2z M22.1,19.3l-2.8,2.8L6.5,9.2l2.8-2.8L22.1,19.3z M64.4,60.2c-1.1,1.6-2.5,3-4.2,4.1   c-0.6,0.4-1.2,0.6-1.9,0.6l-2.5-9l9.1,2.5C65,59,64.8,59.7,64.4,60.2z M29.5,21.1l34.4,34.4c0.2,0.2,0.3,0.4,0.5,0.6L55,53.6   L32.8,31.3c-0.4-0.4-1-0.4-1.4,0c-0.4,0.4-0.4,1,0,1.4l22.2,22.2l2.6,9.4c-0.2-0.1-0.5-0.3-0.7-0.5L21,29.4   c0.6-2.2,0.5-4.2-0.4-5.7l2.8-2.8C25.2,22.3,27.4,22.1,29.5,21.1z M3.5,3.9l0.3-0.3c0.7-0.7,1.7-0.7,2.4,0l1.6,1.6L5.1,7.8L3.5,6.3   C2.8,5.6,2.8,4.5,3.5,3.9z"></path><path d="M7,55.3c0.4,6.4,5.8,11.5,12.3,11.5c4,0,7-1.7,9.6-4.6c6.4-8,0.7-20-9.6-20C12.3,42.1,6.6,48.1,7,55.3   C7,55.3,7,55.3,7,55.3z M27.7,60.5c-2.8-0.1-5.2-1.4-7.1-3.8C18,53.6,14,52.7,9,54c0-0.9,0.2-1.8,0.4-2.6   c11.6-3.8,9.8,6.2,19.7,6.2C28.9,58.7,28.4,59.6,27.7,60.5z M9.1,56.1c10.6-3.1,8.7,4.7,16.9,6.2c-1.8,1.6-4.2,2.5-6.7,2.5   C14.2,64.8,9.9,61,9.1,56.1z M19.3,44.1c6.1,0,11,5.3,10.3,11.5c-9.3,0.3-7.2-9.3-19-6.6C12.4,46.1,15.6,44.1,19.3,44.1z"></path></g></svg>