<svg height='100px' width='100px'  fill="#000000" xmlns="http://www.w3.org/2000/svg" data-name="Layer 1" viewBox="0 0 100 100" x="0px" y="0px"><title>multimedia icon set</title><path d="M50,95A45,45,0,0,0,86.26,76.61h0v0A45,45,0,1,0,50,95Zm18-8A40.84,40.84,0,0,1,55,90.86c11.32-11.47,4.08-35.22,2.27-40.5a81.47,81.47,0,0,1,6.41-7A43.22,43.22,0,0,1,68,87ZM83,74.63a41.51,41.51,0,0,1-9.59,9.23c7.14-21.27-3.3-38.17-6.92-43.14,3.41-3,7.38-5.74,11.34-7C80.6,39.11,90.47,60.25,83,74.63ZM91.17,50a41,41,0,0,1-1.6,11.33c-.22-11.8-5.35-23.43-7.83-28.39a9.68,9.68,0,0,1,6.64,2.18A40.94,40.94,0,0,1,91.17,50ZM76,18.14a41.47,41.47,0,0,1,9.68,11.43,14.23,14.23,0,0,0-5.23-.37C68.87,30.46,57.06,44.43,54.19,48A57.77,57.77,0,0,1,40.77,45.4C42.1,39.13,48.8,16.81,76,18.14ZM50,8.83a40.9,40.9,0,0,1,20.55,5.52C46,16,38.88,37.07,37.16,44.14A82.75,82.75,0,0,1,23,37.09c1.23-4.4,6.63-19.38,24.8-28.2C48.52,8.85,49.26,8.83,50,8.83Zm-13,2.1a48.41,48.41,0,0,0-17.41,24c-2.71-1.85-4.73-3.44-5.88-4.39A41.38,41.38,0,0,1,37,10.93ZM12,34.07c5.51,4.48,21.8,16.29,41.65,17.75a79.61,79.61,0,0,1,2.75,11.06C33.67,66.3,13.09,48.37,9.18,44.72A40.84,40.84,0,0,1,12,34.07ZM8.83,50c0-.14,0-.28,0-.42,6.51,5.61,22.64,17.59,41.6,17.59A43.74,43.74,0,0,0,57,66.68a42.58,42.58,0,0,1-.06,11c-17.47,6.24-40.63-7.8-44.07-10A40.92,40.92,0,0,1,8.83,50ZM47.05,83.17a34.29,34.29,0,0,0,8.81-1.1,15.07,15.07,0,0,1-7.81,9.06A41.15,41.15,0,0,1,17,74.53C24,78.21,35.54,83.17,47.05,83.17Z"></path></svg>