<svg height='100px' width='100px'  fill="#000000" xmlns="http://www.w3.org/2000/svg" xmlns:xlink="http://www.w3.org/1999/xlink" version="1.1" x="0px" y="0px" viewBox="0 0 100 100" enable-background="new 0 0 100 100" xml:space="preserve"><path d="M90.66,45.83c-2-18.77-17.3-33.71-36.49-35.62c-1.31-0.13-2.65-0.2-4-0.21H50  c-18.06,0-33.76,11.34-39.07,28.21C9.73,42.02,9.12,45.98,9.12,50v0.16c0.01,1.35,0.08,2.68,0.22,4  c1.23,11.52,7.54,22.04,17.38,28.72c5.7,3.88,12.24,6.24,19.11,6.91c1.32,0.14,2.66,0.2,4,0.21H50c22.54,0,40.88-17.94,40.88-40  v-0.17C90.87,48.48,90.8,47.14,90.66,45.83z M13.12,50c0-3.61,0.55-7.17,1.62-10.58C19.53,24.22,33.67,14.01,49.97,14  c-1.91,19.26-17.48,34.56-36.85,36.05V50z M28.97,79.57c-8.78-5.95-14.43-15.3-15.62-25.53c21.4-1.61,38.6-18.55,40.62-39.83  c17.11,1.8,30.75,15.06,32.67,31.74c-21.4,1.62-38.6,18.55-40.61,39.84C39.9,85.16,34.07,83.04,28.97,79.57z M86.88,50  c0,19.84-16.53,35.98-36.85,36c1.9-19.26,17.47-34.57,36.85-36.06V50z"></path></svg>