<svg height='100px' width='100px'  fill="#000000" xmlns="http://www.w3.org/2000/svg" xmlns:xlink="http://www.w3.org/1999/xlink" version="1.1" x="0px" y="0px" viewBox="0 0 100 100" style="enable-background:new 0 0 100 100;" xml:space="preserve"><g><g><g><g><path d="M85.2,41.73c-0.68,0-1.35-0.35-1.72-0.98c-0.56-0.95-0.25-2.18,0.7-2.74c1.37-0.81,2.22-2.3,2.22-3.89      c0-2.49-2.02-4.51-4.51-4.51c-1.54,0-3.21,1.01-4.04,2.46c-0.55,0.96-1.78,1.28-2.73,0.73c-0.96-0.55-1.28-1.78-0.73-2.73      c1.57-2.71,4.51-4.46,7.51-4.46c4.69,0,8.51,3.82,8.51,8.51c0,2.99-1.6,5.8-4.18,7.33C85.89,41.64,85.54,41.73,85.2,41.73z"></path></g></g></g></g><g><g><g><g><path d="M70.05,78.91c-2.04,0-4.08-0.28-6-0.86c-4.99-1.5-8.87-4.76-11.21-9.44l0,0c-0.62-1.23-1.51-2.02-2.74-2.42      c-3.27-1.06-8.13,0.87-9.73,1.7L24.4,76.37c-0.62,0.33-1.37,0.31-1.97-0.05c-0.6-0.36-0.97-1.01-0.97-1.71V63.18      c0-0.72,0.39-1.39,1.02-1.74c0,0,32.94-18.51,40.01-22.49c7.52-4.24,13.06-4.21,13.3-4.2c4.4,0,8.39,1.66,11.51,4.79      c3.84,3.85,6.11,9.78,6.09,15.86c-0.04,9.3-3.96,15.7-12.7,20.76C77.56,77.97,73.79,78.91,70.05,78.91z M56.42,66.83      c2.32,4.63,6.05,6.58,8.78,7.4c4.41,1.32,9.58,0.74,13.49-1.53c7.47-4.32,10.67-9.5,10.7-17.32c0.02-5.04-1.82-9.9-4.92-13.02      c-2.39-2.4-5.32-3.61-8.71-3.61c0,0,0,0,0,0c-0.13,0-4.84,0.04-11.3,3.68c-6.32,3.56-33.38,18.77-38.99,21.92v6.93l13.04-6.92      c0.3-0.16,7.27-3.76,12.82-1.97C53.6,63.12,55.31,64.62,56.42,66.83L56.42,66.83z"></path></g></g></g></g><g><g><g><g><path d="M23.46,76.61c-0.5,0-1.01-0.19-1.4-0.57L7.22,61.5c-0.38-0.38-0.6-0.89-0.6-1.43V48.98c0-0.72,0.39-1.39,1.02-1.74      c0,0,31.84-17.98,38.9-21.96c7.53-4.24,13.28-4.22,13.53-4.2c4.74,0,9.03,1.54,12.04,4.34l13.9,12.83      c0.81,0.75,0.86,2.01,0.11,2.83c-0.75,0.81-2.01,0.86-2.83,0.11l-13.9-12.84c-2.28-2.12-5.6-3.28-9.36-3.28      C59.91,25.07,55,25.1,48.5,28.76c-6.31,3.56-32.39,18.29-37.88,21.39v9.08l14.24,13.95c0.79,0.77,0.8,2.04,0.03,2.83      C24.5,76.41,23.98,76.61,23.46,76.61z"></path></g></g></g></g><g><g><g><g><path d="M23.46,64.18c-0.25,0-0.5-0.09-0.69-0.28L7.93,49.81c-0.4-0.38-0.42-1.01-0.04-1.41c0.38-0.4,1.01-0.42,1.41-0.04      l14.84,14.1c0.4,0.38,0.42,1.01,0.04,1.41C23.99,64.08,23.72,64.18,23.46,64.18z"></path></g></g></g></g><g><g><g><g><path d="M50.64,47.81c-0.25,0-0.5-0.09-0.69-0.28L36.52,34.59c-0.4-0.38-0.41-1.02-0.03-1.41c0.38-0.4,1.02-0.41,1.41-0.03      l13.43,12.94c0.4,0.38,0.41,1.02,0.03,1.41C51.16,47.71,50.9,47.81,50.64,47.81z"></path></g></g></g></g><g><g><g><g><path d="M60.65,42.52c-0.25,0-0.49-0.09-0.68-0.27L45.64,28.83c-0.4-0.38-0.42-1.01-0.05-1.41c0.38-0.4,1.01-0.42,1.41-0.05      l14.33,13.43c0.4,0.38,0.42,1.01,0.05,1.41C61.18,42.42,60.92,42.52,60.65,42.52z"></path></g></g></g></g></svg>