<svg height='100px' width='100px'  fill="#000000" xmlns="http://www.w3.org/2000/svg" xmlns:xlink="http://www.w3.org/1999/xlink" version="1.1" x="0px" y="0px" viewBox="0 0 69 69" style="enable-background:new 0 0 69 69;" xml:space="preserve"><g><path d="M2.56009,36.84912c2.47713,35.56073,52.88774,40.62272,62.66162,6.65021   C72.03726,20.1681,50.92425-2.38057,26.84524,3.51691C11.97933,7.14322,1.46125,21.0747,2.56009,36.84912z M25.95706,5.84448   c0.32867-0.09698,0.65753-0.19342,0.99011-0.27917l6.53479,3.77093v11.73535L23.3218,26.93488l-10.1499-5.86328v-7.5686   C16.67321,9.9613,20.93665,7.32653,25.95706,5.84448z M42.01699,5.56519c5.41528,1.39626,10.04979,4.17,13.78479,7.9472v7.55921   l-10.16016,5.86328l-10.15967-5.86328V9.33624L42.01699,5.56519z M42.03207,63.63501l-6.55011-3.79193V48.11652l10.15967-5.86328   l10.16016,5.86328v7.5697C52.0095,59.52949,47.33055,62.26094,42.03207,63.63501z M26.93252,63.63458   c-5.18402-1.34595-9.89904-4.03362-13.76062-7.93878v-7.57928l10.1499-5.86328l10.16016,5.86328v11.72656L26.93252,63.63458z    M5.53909,26.73309l6.62305-3.8197l10.15967,5.85352v11.73535l-10.16016,5.87109l-6.59186-3.80731   C4.17479,37.54746,4.08516,32.05009,5.53909,26.73309z M44.64163,40.50562l-10.16064,5.86774L24.3262,40.50421v-11.7334   l10.15479-5.8623l10.16064,5.8609V40.50562z M11.1719,48.11194v5.34991c-1.96521-2.42535-3.54181-5.14532-4.66235-8.04333   L11.1719,48.11194z M57.80178,48.10602l4.65015-2.6864c-1.11853,2.88831-2.69073,5.60229-4.65015,8.02643V48.10602z    M63.39669,42.56403l-6.59491,3.80933l-10.15771-5.86969V28.7655l10.1582-5.85211l6.62018,3.80859   C64.81683,31.81649,64.85716,37.30018,63.39669,42.56403z M57.80178,21.18042v-5.43298   c1.9798,2.44574,3.5672,5.19611,4.69275,8.133L57.80178,21.18042z M11.1719,21.17566l-4.70129,2.71185   c1.12469-2.93481,2.71472-5.68964,4.70129-8.14587V21.17566z M29.88797,64.23419l4.59399-2.65967l4.59326,2.65942   C36.04031,64.69635,32.92282,64.69672,29.88797,64.23419z M39.06015,4.96222l-4.57819,2.64209l-4.57758-2.64172   C32.92996,4.50171,36.03335,4.5011,39.06015,4.96222z"></path></g></svg>