<svg height='100px' width='100px'  fill="#000000" xmlns="http://www.w3.org/2000/svg" xmlns:xlink="http://www.w3.org/1999/xlink" version="1.1" x="0px" y="0px" viewBox="0 0 512 512" enable-background="new 0 0 512 512" xml:space="preserve"><g><g><g><path d="M385.578,353.448c-1.335,0-2.678-0.443-3.79-1.351L85.566,110.442c-1.274-1.04-2.065-2.556-2.19-4.196     c-0.124-1.64,0.43-3.258,1.533-4.478c21.916-24.236,48.055-43.343,77.689-56.79C193.277,31.058,226.048,24,260,24     c45.819,0,90.252,13.148,128.493,38.023c37.249,24.229,66.831,58.28,85.547,98.472c0.494,1.062,0.667,2.246,0.497,3.405     c-6.854,46.635-21.434,90.084-43.337,129.14c-11.683,20.831-25.509,40.463-41.096,58.35     C388.921,352.749,387.255,353.448,385.578,353.448z M98.113,105.191l286.721,233.904c12.75-15.163,24.21-31.552,34.14-48.826     c-16.914-27.238-32-63.632-47.938-102.079c-23.174-55.905-47.095-113.612-78.215-146.329c-0.002-0.002-0.008-0.008-0.01-0.011     c-0.259-0.271-0.518-0.542-0.777-0.81c-0.025-0.027-0.049-0.051-0.075-0.078c-0.018-0.019-0.037-0.039-0.055-0.057     c-0.002-0.002-0.003-0.002-0.005-0.005c-0.026-0.027-0.055-0.056-0.08-0.083c-0.144-0.147-0.288-0.296-0.432-0.442     c-0.057-0.058-0.11-0.112-0.167-0.17c-0.105-0.106-0.213-0.216-0.318-0.322c-0.015-0.014-0.028-0.029-0.043-0.043     c-0.016-0.016-0.03-0.031-0.047-0.047c-0.012-0.012-0.021-0.021-0.032-0.033c-0.026-0.026-0.054-0.054-0.08-0.081     c-0.075-0.075-0.15-0.15-0.225-0.225c-0.019-0.018-0.036-0.035-0.054-0.053c-0.013-0.012-0.028-0.028-0.041-0.041     c-0.219-0.218-0.439-0.437-0.659-0.653c-0.002-0.002-0.004-0.003-0.006-0.005c-0.28-0.276-0.559-0.547-0.841-0.819     C279.374,36.64,269.729,36,260,36C198.91,36,140.273,61.139,98.113,105.191z M308.408,41.341     c29.263,35.026,51.816,89.432,73.714,142.255c14.611,35.249,28.498,68.75,43.525,94.492     c18.201-34.887,30.548-73.227,36.751-114.149C432.481,101.026,374.921,56.184,308.408,41.341z"></path></g><g><path d="M161.943,474.094c-0.881,0-1.756-0.194-2.562-0.574c-39.897-18.834-73.678-48.412-97.69-85.537     C37.033,349.859,24,305.604,24,260c0-58.6,21.631-114.794,60.909-158.231c2.142-2.37,5.766-2.644,8.243-0.625L389.374,342.8     c1.259,1.027,2.048,2.521,2.186,4.141s-0.388,3.226-1.455,4.45c-15.98,18.34-34.076,35.147-53.782,49.955     c-0.004,0.003-0.009,0.007-0.014,0.01c-49.114,36.899-107.438,61.343-173.351,72.652     C162.621,474.065,162.281,474.094,161.943,474.094z M38.634,294.051c11.209,72.052,57.422,135.603,124.167,167.804     c59.621-10.484,112.75-32.036,158.109-64.121c-28.184-12.433-77.359-29.573-159.999-47.115c-1.544-0.327-2.802-0.595-3.747-0.8     c-38.321-7.993-88.204-25.432-113.185-50.38c-0.054-0.052-0.107-0.104-0.161-0.155c-0.011-0.01-0.021-0.021-0.032-0.031     c-0.002-0.002-0.004-0.004-0.007-0.007C41.997,297.518,40.284,295.782,38.634,294.051z M52.203,290.698     c0.049,0.048,0.099,0.096,0.148,0.144c0.025,0.024,0.05,0.049,0.075,0.073c23.103,23.103,70.542,39.513,107.234,47.166     c0.979,0.213,2.219,0.476,3.742,0.799c73.062,15.509,129.746,32.557,168.578,50.694c16.267-12.492,31.356-26.397,44.96-41.431     l-286.9-234.051C55.15,154.697,36,206.284,36,260c0,4.518,0.138,9.015,0.412,13.49C41.125,279.075,46.294,284.978,52.203,290.698     z"></path></g><g><path d="M478.611,336.015c-20.362-0.002-39.233-13.957-57.691-42.664c-1.2-1.867-1.272-4.244-0.187-6.18     c21.185-37.774,35.292-79.835,41.931-125.016c0.386-2.623,2.446-4.682,5.07-5.064c2.611-0.382,5.186,1,6.306,3.404     C488.611,191.789,496,225.267,496,260c0,24.492-3.751,48.661-11.149,71.836c-0.785,2.458-3.054,4.14-5.635,4.174L478.611,336.015     z M432.971,289.845c14.095,21.059,27.83,32.213,41.805,33.934C480.898,303.135,484,281.703,484,260     c0-26.054-4.377-51.358-13.037-75.482C463.428,222.134,450.687,257.472,432.971,289.845z"></path></g><g><path d="M445.339,402.197c-1.375,0-2.716-0.473-3.793-1.351l-59.758-48.749c-1.259-1.027-2.048-2.521-2.186-4.141     s0.388-3.225,1.455-4.45c15.049-17.272,28.397-36.227,39.676-56.336c1.03-1.837,2.947-2.999,5.053-3.063     c2.099-0.065,4.088,0.98,5.228,2.752c16.074,25,31.644,37.153,47.596,37.153l0.443-0.003c0.027-0.001,0.055-0.001,0.082-0.001     c1.899,0,3.688,0.899,4.82,2.428c1.149,1.551,1.482,3.559,0.896,5.396c-7.781,24.377-19.449,47.229-34.68,67.92     c-0.974,1.323-2.448,2.189-4.078,2.396C445.842,402.182,445.59,402.197,445.339,402.197z M394.133,346.682l50.044,40.824     c11.229-16.184,20.225-33.676,26.821-52.156c-15.524-2.733-30.232-13.933-44.628-33.969     C416.833,317.336,406.027,332.521,394.133,346.682z"></path></g><g><path d="M382.54,460.658c-1.339,0-2.672-0.447-3.765-1.327c-1.997-1.608-2.751-4.309-1.877-6.719     c7.175-19.778-21.488-38.459-46.797-50.647c-1.887-0.909-3.163-2.736-3.368-4.82c-0.204-2.085,0.693-4.125,2.367-5.383     c19.039-14.305,36.521-30.54,51.957-48.254c2.126-2.441,5.808-2.754,8.316-0.708l59.758,48.749     c2.478,2.021,2.935,5.631,1.039,8.206c-17.631,23.95-39.309,44.13-64.431,59.978C384.759,460.353,383.647,460.658,382.54,460.658     z M343.905,395.485c28.66,15.142,44.057,30.887,46.01,47.004c17.858-12.72,33.667-27.903,47.152-45.296l-50.816-41.455     C373.349,370.048,359.15,383.374,343.905,395.485z"></path></g><g><path d="M260,496c-35.164,0-69.017-7.563-100.618-22.48c-2.368-1.117-3.738-3.642-3.384-6.236c0.354-2.595,2.35-4.66,4.93-5.104     c64.012-10.981,120.593-34.674,168.173-70.418c1.793-1.348,4.187-1.58,6.207-0.609c43.298,20.852,61.086,42.906,52.871,65.551     c-0.455,1.253-1.313,2.318-2.439,3.028C348.13,483.459,304.65,496,260,496z M182.484,470.226C207.21,479.374,233.202,484,260,484     c41.644,0,82.212-11.491,117.471-33.253c4.594-18.246-20.486-35.402-44.121-47.191     C289.798,435.592,239.141,457.97,182.484,470.226z"></path></g></g></g></svg>