<svg height='100px' width='100px'  fill="#000000" xmlns="http://www.w3.org/2000/svg" xmlns:xlink="http://www.w3.org/1999/xlink" version="1.1" x="0px" y="0px" viewBox="0 0 100 100" style="enable-background:new 0 0 100 100;" xml:space="preserve"><g><path d="M53.3,9.6L51,9.3c0,0.1,0,0.2,0,0.2c-10.7-0.3-21.5,3.7-29.6,11.8c-15.8,15.8-15.8,41.5,0,57.3   c7.9,7.9,18.3,11.9,28.7,11.9s20.8-4,28.7-11.9c15.8-15.8,15.8-41.5,0-57.3C71.6,14.3,62.6,10.4,53.3,9.6z M54.6,13.8   c7.1,0.9,14.1,3.9,19.7,9L62.2,34.9C57.1,29.1,54.4,21.5,54.6,13.8z M77.2,25.6c5.1,5.7,8.1,12.6,9,19.7   c-7.8,0.2-15.3-2.5-21.1-7.6L77.2,25.6z M50.6,13.5c-0.3,8.9,2.9,17.6,8.8,24.3L50,47.2L25.6,22.8c6.9-6.2,15.6-9.3,24.4-9.3   C50.2,13.5,50.4,13.5,50.6,13.5z M22.8,25.6L47.2,50l-9.4,9.4c-6.7-5.9-15.3-9.1-24.3-8.8C13.4,41.7,16.4,32.7,22.8,25.6z    M45.4,86.2c-7.1-0.9-14.1-3.9-19.8-9l12.1-12.1C42.9,70.9,45.6,78.4,45.4,86.2z M13.8,54.6c7.8-0.2,15.3,2.5,21.1,7.6L22.8,74.4   C17.7,68.7,14.7,61.8,13.8,54.6z M49.4,86.5c0.3-8.9-2.9-17.6-8.8-24.3l9.4-9.4l24.4,24.4C67.3,83.6,58.3,86.6,49.4,86.5z    M77.2,74.4L52.8,50l9.4-9.4c6.4,5.7,14.5,8.8,23.1,8.8c0.4,0,0.8,0,1.2,0C86.7,58.3,83.6,67.3,77.2,74.4z"></path></g></svg>