<svg height='100px' width='100px'  fill="#000000" xmlns="http://www.w3.org/2000/svg" xmlns:xlink="http://www.w3.org/1999/xlink" version="1.1" x="0px" y="0px" viewBox="0 0 66 66" enable-background="new 0 0 66 66" xml:space="preserve"><g><path d="M3.4,64.4L8,65c0.5,0.1,1-0.2,1.1-0.7c2.7-10.7,6.4-24.8,9.1-35.4c5.1-1.5,12.9-0.5,18.9,5.1l0.2,0.2c0,0,0.1,0.1,0.1,0.1   l0,0c4.7,4.1,13.3,3.8,19.4,2.8c0.3-0.1,0.7-0.3,0.8-0.7l5.7-21.8c0,0,0,0,0,0c0.2-0.7-0.5-1.3-1.1-1.2c0,0,0,0,0,0   c-13.2,2.2-17.7-2.2-17.8-2.3c-5.5-5.4-12.7-7.4-20.2-5.5c0.3-1.1,0.3-1.1,0.3-1.1c0-2.1-1.7-3.3-3.3-3.3c-1.5,0-2.8,1-3.2,2.4   L2.6,63.1C2.4,63.7,2.8,64.3,3.4,64.4z M43,12.3c3.7,3.9,12.7,3.9,18.1,3.1l-5.2,19.7c-11.2,1.8-16-1.4-17.1-2.4c0,0,0,0-0.1-0.1   l-0.2-0.2c-6.1-5.8-14.1-7.1-19.7-5.9c3.3-13,1.6-6.1,5-19C31,5.5,37.7,7.1,43,12.3z M20,3.9C20.2,3.1,21,3,21.2,3   c0.5,0,1.2,0.2,1.3,1.1C22,6.2,7.7,61.8,7.4,62.9l-2.6-0.4L20,3.9z"></path></g></svg>