<svg height='100px' width='100px'  fill="#000000" xmlns="http://www.w3.org/2000/svg" data-name="Layer 26" viewBox="0 0 100 100" x="0px" y="0px"><title>19. tennis</title><path d="M69.19,60.22,64.8,41.08q.08-.81.09-1.62a14.38,14.38,0,0,0,4.34-6.14h0A14.3,14.3,0,0,0,67.9,20.77a.26.26,0,0,0,0-.08l-.05-.05A14.26,14.26,0,0,0,54.2,14.1C41.37,1.29,22-.15,10.9,10.9S1.29,41.39,14.12,54.22A35.25,35.25,0,0,0,38.74,64.88c.76,0,1.51,0,2.26-.09l19.22,4.4L86.46,95.43a1,1,0,0,0,1.41,0l7.56-7.56a1,1,0,0,0,0-1.41ZM66.71,22.71a12.35,12.35,0,0,1,.64,9.93h0a12.29,12.29,0,0,1-6.89,7.16C59.45,34.36,62.43,26.22,66.71,22.71ZM55.74,16a12.39,12.39,0,0,1,9.92,5c-5,3.93-8.39,13.18-7.11,19.42A12.33,12.33,0,0,1,45.8,35.76c5-3.94,8.39-13.18,7.1-19.42A12.33,12.33,0,0,1,55.74,16ZM39.22,55.14,33.78,49.7,41,42.45l5.45,5.44Zm.2,3H39l.19-.19ZM10.33,26.26a18.29,18.29,0,0,1,4.42-10.1L19,20.46l-7.25,7.25Zm0,2.87-.19.19v-.39ZM29.13,13.2l5.44,5.45L27.32,25.9l-5.45-5.44Zm-.2-3h.38l-.18.18ZM27.32,28.73l5.44,5.44L25.5,41.43,20.06,36Zm-8.67,5.84L13.2,29.13l7.26-7.26,5.44,5.45Zm10.08-7.25L36,20.06l5.45,5.44-7.26,7.26Zm5.44,8.27L39.62,41l-7.26,7.26-5.44-5.45Zm1.42-1.42,5.78-5.77A14.36,14.36,0,0,0,43.55,36s0,0,0,.07l.09.1c.1.16.2.33.32.49l-3,3Zm9.67,4a14.31,14.31,0,0,0,5.53,3.67c.43.15.86.29,1.29.4l-4.19,4.19L42.45,41Zm-.51-4.17A12.31,12.31,0,0,1,51,17C52,22.39,49,30.55,44.75,34.05ZM42.22,23.44v0L37.4,18.65l4.79-4.8a32.27,32.27,0,0,1,4.68,3.23A14.29,14.29,0,0,0,42.22,23.44ZM36,17.23l-5.44-5.44L32,10.38a28,28,0,0,1,8.38,2.5ZM20.46,19l-4.28-4.28a18.26,18.26,0,0,1,10.09-4.42l1.44,1.45Zm-8.67,11.5L17.23,36l-4.34,4.35A27.77,27.77,0,0,1,10.38,32Zm6.86,6.86,5.44,5.44-5.61,5.61a32.88,32.88,0,0,1-4.63-6.26Zm6.85,6.86L31,49.7l-4.8,4.79a32,32,0,0,1-6.25-4.63Zm6.86,6.85,5.45,5.45L36.4,58A27.6,27.6,0,0,1,28,55.46ZM47.89,49.3l4.3,4.3A18.24,18.24,0,0,1,42.09,58l-1.45-1.45Zm1.41-1.41,5.18-5.18c.41,0,.82,0,1.23,0a15,15,0,0,0,2.23-.17,18.16,18.16,0,0,1-4.34,9.59ZM15.54,52.81C3.49,40.76,2,22.59,12.31,12.31a24.12,24.12,0,0,1,17.3-6.85A33.12,33.12,0,0,1,51.8,14.57l-.31.09h-.08l-.07,0a14.64,14.64,0,0,0-2.75,1.21,31.46,31.46,0,0,0-17-7.6C24.69,7.58,18.44,9.6,14,14h0C9.6,18.44,7.58,24.69,8.32,31.63a31.91,31.91,0,0,0,9.43,18.94v0h0A31.94,31.94,0,0,0,36.71,60a26.32,26.32,0,0,0,2.78.15,20.54,20.54,0,0,0,14.82-5.83h0A20.17,20.17,0,0,0,60,42.11h.07a13.89,13.89,0,0,0,2.74-1.2A23.61,23.61,0,0,1,56,56C45.76,66.31,27.59,64.86,15.54,52.81Zm30.61,11.1A24.82,24.82,0,0,0,63.92,46.19L67.18,60.4,60.4,67.18Zm41,29.4-25-25,6.15-6.15,25,25Z"></path></svg>