<svg height='100px' width='100px'  fill="#000000" xmlns="http://www.w3.org/2000/svg" xmlns:xlink="http://www.w3.org/1999/xlink" version="1.1" x="0px" y="0px" viewBox="0 0 52 52" enable-background="new 0 0 52 52" xml:space="preserve"><g><g><path d="M48.4321404,34.0251236c-2.5253906,1.7402344-5.5390625,1.7412109-8.0644531-0.0009766    c-3.2363281-2.2324219-7.1025391-2.2314453-10.3349628,0.0009766c-2.5253906,1.7402344-5.5400391,1.7412109-8.0654297-0.0009766    c-3.2353516-2.2324219-7.1015615-2.2314453-10.33496,0.0009766c-2.5253906,1.7421875-5.5400391,1.7402344-8.0654297,0    C3.1118269,33.711647,2.4897566,33.8259048,2.17628,34.280983c-0.3134767,0.4541016-0.1992189,1.0771484,0.2558594,1.390625    c3.2363281,2.2304688,7.1005859,2.2304688,10.3349609-0.0009766c2.5253906-1.7402344,5.5400381-1.7412109,8.0654287,0.0009766    c3.2353516,2.2304688,7.0996094,2.2304688,10.3349609-0.0009766c2.5253925-1.7402344,5.540041-1.7412109,8.0654316,0.0009766    c1.6171875,1.1162109,3.3925781,1.6738281,5.1669922,1.6738281s3.5498047-0.5576172,5.1669922-1.6738281    c0.4550781-0.3134766,0.5693359-0.9365234,0.2558594-1.390625C49.5083122,33.8259048,48.8852654,33.711647,48.4321404,34.0251236z    "></path></g><g><path d="M48.4321404,40.4137955c-2.5253906,1.7421875-5.5390625,1.7402344-8.0644531,0    c-3.2353516-2.2324219-7.0996094-2.2324219-10.3349628,0c-2.5244141,1.7392578-5.5390625,1.7412109-8.0654297,0    c-3.2363281-2.2324219-7.100585-2.2324219-10.33496,0c-2.5253906,1.7421875-5.5400391,1.7402344-8.0654297,0    c-0.4550781-0.3134766-1.0771484-0.1982422-1.390625,0.2558594s-0.1992189,1.0771484,0.2558594,1.390625    c3.2353516,2.2324219,7.0996094,2.2304688,10.3349609,0c2.5263672-1.7431641,5.5410147-1.7412109,8.0654287,0    c3.2373047,2.2304688,7.1015625,2.2294922,10.3349609,0c2.5263691-1.7431641,5.5410175-1.7412109,8.0654316,0    c1.6171875,1.1162109,3.3925781,1.6738281,5.1669922,1.6738281s3.5498047-0.5576172,5.1669922-1.6738281    c0.4550781-0.3134766,0.5693359-0.9365234,0.2558594-1.390625C49.5083122,40.2155533,48.8852654,40.1003189,48.4321404,40.4137955    z"></path></g><g><path d="M40.4305534,19.6013565c0,2.6400146,2.1499634,4.789978,4.7799683,4.789978    c2.6400146,0,4.7900391-2.1499634,4.7900391-4.789978c0-2.6300049-2.1500244-4.7799692-4.7900391-4.7799692    C42.5805168,14.8213873,40.4305534,16.9713516,40.4305534,19.6013565z"></path></g><g><path d="M23.1020603,25.9889908c0.9179688,0.6328125,1.8925781,0.953125,2.8984375,0.953125    s1.9804688-0.3203125,2.8964844-0.953125c1.921875-1.3261719,4.1005878-2.0263672,6.3017597-2.0263672    c1.6621094,0,3.3120728,0.4008789,4.8493042,1.1680298l-6.1875-9.8593149l6.1699829-1.0499878    c1.6300049-0.2799683,2.7200317-1.8300171,2.4500122-3.460022c-0.2800293-1.6099854-1.789978-2.7399902-3.4700317-2.4499512    l-10.5499897,1.7999878c-0.9799805,0.1699829-1.8099976,0.8099976-2.2199707,1.7199707    c-0.4100342,0.9100342-0.3500366,1.960022,0.1699829,2.8099976l2.2600098,3.6700449l-10.487915,5.7504883    C19.9047947,24.2919083,21.5838108,24.9418716,23.1020603,25.9889908z"></path></g><g><path d="M48.4311638,27.6354752c-2.5234375,1.7421875-5.5380859,1.7421875-8.0634766,0    c-3.2382813-2.2314453-7.1025391-2.2304688-10.3349628,0c-2.5263672,1.7431641-5.5410156,1.7412109-8.0654297,0    c-3.2373047-2.2314453-7.100585-2.2304688-10.3359365,0c-2.5234375,1.7421875-5.5390625,1.7421875-8.0644531,0    c-0.4550781-0.3134766-1.0771484-0.1992188-1.390625,0.2558594c-0.3134767,0.4541016-0.1992189,1.0771484,0.2558594,1.390625    c3.2353516,2.2314453,7.0996094,2.2333984,10.3349609,0c2.5244141-1.7392578,5.5390615-1.7412109,8.0654287,0    c3.2353516,2.2314453,7.0996094,2.2333984,10.3349609,0c2.524416-1.7392578,5.540041-1.7412109,8.064455,0    c1.6181641,1.1162109,3.3935547,1.6748047,5.1679688,1.6748047s3.5498047-0.5585938,5.1679688-1.6748047    c0.4541016-0.3134766,0.5683594-0.9365234,0.2548828-1.3916016    C49.5083122,27.4362564,48.8862419,27.3219986,48.4311638,27.6354752z"></path></g></g></svg>