<svg height='100px' width='100px'  fill="#000000" xmlns="http://www.w3.org/2000/svg" xmlns:xlink="http://www.w3.org/1999/xlink" version="1.1" x="0px" y="0px" viewBox="0 0 68 68" enable-background="new 0 0 68 68" xml:space="preserve"><g><path d="M38.3802,31.49937c-3.62756-0.17798-7.19635-0.03027-10.64551,0.40918v-7.18903   c11.04645-7.89203,19.33434,2.87545,26.76416-2.42767l-0.00195-0.00244c3.70894-2.56353,6.11133-8.35937,6.11133-9.54639   c0-0.55225-0.44775-1-1-1c-12.62269,0-16.23665-15.67589-31.87353-6.55579V4.35826c0-0.89795-0.73047-1.62842-1.62793-1.62842   h-2.51221c-0.89746,0-1.62793,0.73047-1.62793,1.62842v28.61212C10.8384,35.70555,3.90224,41.5792,3.82112,48.42759   C3.70735,58.95591,15.30696,65.07163,36.48421,65.6478c0.39941,0.01074,0.80127,0.01611,1.20557,0.01611   c5.14209,0,10.58154-0.85352,14.14795-2.24511c1.59473-0.62842,2.62744-1.96338,2.69482-3.48389   c0.06299-1.41748-0.72852-2.71338-2.04883-3.37305c-1.29443-0.67627-1.53125-1.2876-1.49414-2.0542   c0.12793-2.58105,3.87012-4.94971,9.31689-5.89502c1.74268-0.31006,3.14844-1.54932,3.66895-3.23389   c0.49316-1.59619,0.08057-3.24316-1.09863-4.39893C56.68538,34.81089,49.5887,32.06431,38.3802,31.49937z M14.6512,48.2982   c0-1.53296,2.76965-3.39032,7.31543-3.97015v7.95013C17.42085,51.6981,14.6512,49.83574,14.6512,48.2982z M27.7347,44.32786   c4.55243,0.58002,7.32617,2.43762,7.32617,3.97034c0,1.53333-2.76038,3.38989-7.32617,3.9787V44.32786z M58.23909,13.68931   c-1.10827,3.02452-2.85773,5.71016-5.65234,7.46436c-5.28733,3.03482-14.11252-5.42441-24.85205,1.15137V7.52525   C42.64662-1.9334,45.1926,12.65625,58.23909,13.68931z M25.7347,4.72984v2.25049c0,8.30917,0,33.39026,0,45.46393   c-0.57501,0.02704-1.1629,0.02734-1.76807-0.00037c0-15.1313,0-32.64705,0-47.71405H25.7347z M62.06477,44.78843   c-0.29834,0.96631-1.10645,1.67676-2.10449,1.85449c-6.58496,1.14258-10.7876,4.11816-10.96826,7.7666   c-0.11035,2.25928,1.41162,3.32227,2.58154,3.93311c0.62939,0.31445,0.98877,0.87695,0.96094,1.50391   c-0.03223,0.73145-0.56689,1.37109-1.42725,1.70996c-3.55957,1.38965-9.42529,2.22705-14.56885,2.09229   C25.00813,63.33482,5.68587,60.94322,5.82112,48.45005c0.0675-5.70807,6.36591-10.89471,16.14551-13.41803v7.28186   c-5.52917,0.64001-9.31543,3.03558-9.31543,5.98431c0,8.15736,24.40967,8.25357,24.40967,0   c0-2.94849-3.79077-5.34418-9.32617-5.98438v-8.39087c3.41016-0.45081,6.94812-0.60406,10.5459-0.42603   c10.6626,0.5376,17.37939,3.11572,23.18994,8.90576C62.11995,43.03892,62.33626,43.90855,62.06477,44.78843z"></path></g></svg>