<svg height='100px' width='100px'  fill="#000000" xmlns="http://www.w3.org/2000/svg" xmlns:xlink="http://www.w3.org/1999/xlink" xml:space="preserve" version="1.1" style="shape-rendering:geometricPrecision;text-rendering:geometricPrecision;image-rendering:optimizeQuality;" viewBox="0 0 688 688" x="0px" y="0px" fill-rule="evenodd" clip-rule="evenodd"><defs><style type="text/css">
   
    .fil0 {fill:#000000;fill-rule:nonzero}
   
  </style></defs><g><path class="fil0" d="M13 607c-19,-64 -16,-132 4,-199 26,-87 80,-172 150,-241 69,-70 154,-124 241,-150 67,-20 135,-23 199,-4 17,5 32,13 43,25 12,11 20,26 25,42 19,64 16,133 -4,200 -26,87 -80,172 -150,241 -69,70 -154,124 -241,150 -67,20 -136,23 -200,4 -16,-5 -31,-13 -42,-25 -12,-11 -20,-26 -25,-43zm576 -342c2,-5 8,-9 13,-7 6,1 9,7 8,13 -2,4 -3,9 -5,14 -1,4 -3,9 -4,14 -2,5 -8,8 -14,6 -5,-2 -8,-8 -6,-13 2,-4 3,-9 5,-14 1,-4 2,-8 3,-13zm-31 79c3,-5 9,-7 14,-4 5,2 7,9 4,14 -32,61 -81,120 -137,166 -54,44 -115,78 -176,91 -6,2 -11,-2 -13,-7 -1,-6 3,-12 8,-13 59,-13 117,-45 168,-87 54,-44 101,-101 132,-160zm-384 85c-4,-5 -4,-11 0,-15 4,-4 11,-4 15,0l35 35 45 -45 -35 -35c-4,-4 -4,-11 0,-15 4,-4 11,-4 15,0l35 35 45 -45 -35 -35c-4,-4 -4,-11 0,-15 4,-4 11,-4 15,0l35 35 45 -45 -35 -35c-4,-4 -4,-11 0,-15 4,-4 11,-4 15,0l35 35 45 -45 -35 -35c-4,-4 -4,-11 0,-15 4,-4 10,-4 15,0l35 35 26 -26c4,-4 11,-4 15,0 4,4 4,11 0,15l-27 26 36 35c4,4 4,11 0,15 -5,4 -11,4 -15,0l-35 -35 -45 45 35 35c4,4 4,11 0,15 -4,4 -11,4 -15,0l-35 -35 -45 45 35 35c4,4 4,11 0,15 -4,4 -11,4 -15,0l-35 -35 -45 45 35 35c4,4 4,11 0,15 -4,4 -11,4 -15,0l-35 -35 -45 45 35 35c4,4 4,10 0,15 -4,4 -11,4 -15,0l-35 -36 -26 27c-4,4 -11,4 -15,0 -4,-4 -4,-11 0,-15l26 -26 -35 -35zm279 -402l208 208c9,-50 8,-101 -6,-149 -4,-13 -11,-24 -20,-34 -9,-9 -20,-15 -34,-19 -47,-15 -98,-15 -148,-6zm202 232l-226 -226c-5,1 -10,2 -15,4 -84,25 -165,77 -233,144 -67,68 -119,149 -144,233 -2,5 -3,10 -4,15l226 226c5,-1 10,-3 15,-4 83,-25 165,-77 232,-145 68,-67 120,-149 145,-232 1,-5 3,-10 4,-15zm-628 194c-9,50 -9,101 6,148 4,14 10,25 19,34 10,9 21,16 34,20 48,14 99,15 149,6l-208 -208z"></path></g></svg>